<svg width="270" height="70" viewBox="0 0 270 70" fill="none" xmlns="http://www.w3.org/2000/svg">
<rect x="83" width="19" height="28" rx="9.5" fill="#FB75B5"/>
<rect x="89" y="6" width="7" height="13" rx="3.5" fill="#CE4084"/>
<rect x="167" width="19" height="28" rx="9.5" fill="#FB75B5"/>
<rect x="173" y="6" width="7" height="13" rx="3.5" fill="#CE4084"/>
<path d="M20 12C8.95431 12 0 20.9543 0 32V70H270V32C270 20.9543 261.046 12 250 12H20Z" fill="#FB75B5"/>
<path d="M122 33C122 34.6584 120.645 36 119 36C117.355 36 116 34.6584 116 33C116 31.3416 117.355 30 119 30C120.645 30 122 31.3416 122 33Z" fill="#720036"/>
<path d="M154 33C154 34.6584 152.65 36 150.99 36C149.331 36 148 34.6584 148 33C148 31.3416 149.35 30 150.99 30C152.63 30 154 31.3416 154 33Z" fill="#720036"/>
<rect x="114" y="46.9995" width="22" height="20" rx="10" fill="white"/>
<rect x="133" y="46.9995" width="22" height="20" rx="10" fill="white"/>
<path d="M130.423 28.8448C130.499 28.3584 130.918 28 131.411 28H137.589C138.082 28 138.501 28.3584 138.577 28.8448L142.819 55.8448C142.914 56.4515 142.445 57 141.831 57H127.169C126.555 57 126.086 56.4515 126.181 55.8448L130.423 28.8448Z" fill="#E44591"/>
<path d="M135.609 62.2604C134.938 62.7083 134.062 62.7083 133.391 62.2604L126.496 57.6641C124.85 56.5665 125.627 54 127.606 54L141.394 54C143.373 54 144.15 56.5665 142.504 57.6641L135.609 62.2604Z" fill="#720036"/>
<path d="M123 12H129V19C129 20.6569 127.657 22 126 22C124.343 22 123 20.6569 123 19V12Z" fill="#720036"/>
<path d="M132 12H138V19C138 20.6569 136.657 22 135 22C133.343 22 132 20.6569 132 19V12Z" fill="#720036"/>
<path d="M141 12H147V19C147 20.6569 145.657 22 144 22C142.343 22 141 20.6569 141 19V12Z" fill="#720036"/>
<path d="M0 55L1.41582e-07 49L15 49C16.6569 49 18 50.3431 18 52C18 53.6569 16.6569 55 15 55L0 55Z" fill="#720036"/>
<path d="M270 55L270 49L255 49C253.343 49 252 50.3431 252 52C252 53.6569 253.343 55 255 55L270 55Z" fill="#720036"/>
<path d="M0 46L1.41582e-07 40L15 40C16.6569 40 18 41.3431 18 43C18 44.6569 16.6569 46 15 46L0 46Z" fill="#720036"/>
<path d="M270 46L270 40L255 40C253.343 40 252 41.3431 252 43C252 44.6569 253.343 46 255 46L270 46Z" fill="#720036"/>
<line x1="146" y1="55.5" x2="160" y2="55.5" stroke="black"/>
<line x1="109" y1="55.5" x2="123" y2="55.5" stroke="black"/>
<line x1="146" y1="59.5" x2="160" y2="59.5" stroke="black"/>
<line x1="109" y1="59.5" x2="123" y2="59.5" stroke="black"/>
</svg>
