<svg width="270" height="70" viewBox="0 0 270 70" fill="none" xmlns="http://www.w3.org/2000/svg">
<g clip-path="url(#clip0_3619_313777)">
<path d="M174.637 3.27947C175.299 1.58194 177.701 1.58194 178.363 3.27947L183.335 16.0231C183.846 17.3345 182.879 18.75 181.471 18.75H171.529C170.121 18.75 169.154 17.3345 169.665 16.0231L174.637 3.27947Z" fill="#4FA9FD" stroke="#93CBFF" stroke-width="4"/>
<path d="M91.6368 3.27947C92.299 1.58194 94.701 1.58194 95.3632 3.27947L100.335 16.0231C100.846 17.3345 99.879 18.75 98.4713 18.75H88.5287C87.1211 18.75 86.1539 17.3345 86.6654 16.0231L91.6368 3.27947Z" fill="#4FA9FD" stroke="#93CBFF" stroke-width="4"/>
<path fill-rule="evenodd" clip-rule="evenodd" d="M20 12C8.95431 12 0 20.9543 0 32V70H270V32C270 20.9543 261.046 12 250 12H20Z" fill="#93CBFF"/>
<path d="M122 30C122 31.6566 120.657 33 119 33C117.343 33 116 31.6566 116 30C116 28.3434 117.343 27 119 27C120.657 27 122 28.3434 122 30Z" fill="#211E1C"/>
<path d="M154.015 29.6421C154.015 31.2987 152.672 32.6421 151.015 32.6421C149.359 32.6421 148.015 31.2987 148.015 29.6421C148.015 27.9855 149.359 26.6421 151.015 26.6421C152.672 26.6421 154.015 27.9855 154.015 29.6421Z" fill="#211E1C"/>
<ellipse cx="6.5" cy="2.5" rx="6.5" ry="2.5" transform="matrix(1 0 0 -1 100 40)" fill="#FFCECE"/>
<ellipse cx="6.5" cy="2.5" rx="6.5" ry="2.5" transform="matrix(1 0 0 -1 157 40)" fill="#FFCECE"/>
<path d="M20 45C8.95431 45 0 53.9543 0 65V70H270V65C270 53.9543 261.046 45 250 45H20Z" fill="#4FA9FD"/>
<path d="M142 51.2857L135 29L128 51.2857C128 52.2325 131.134 53 135 53C138.866 53 142 52.2325 142 51.2857Z" fill="white"/>
</g>
<defs>
<clipPath id="clip0_3619_313777">
<rect width="270" height="70" fill="white"/>
</clipPath>
</defs>
</svg>
