<svg width="221" height="161" viewBox="0 0 221 161" fill="none" xmlns="http://www.w3.org/2000/svg">
<g clip-path="url(#clip0_3619_317649)">
<g clip-path="url(#clip1_3619_317649)">
<g opacity="0.26">
<path d="M132.999 26.9039V0H132.632V26.9807L132.999 26.9039Z" fill="#324C53"/>
<path d="M133 26.9039V0H133.367V26.9807L133 26.9039Z" fill="#324C53"/>
<path d="M132.999 114.762V164H109.972C109.972 164 104.511 146.296 111.339 132.973C118.166 119.65 133.001 114.762 133.001 114.762H132.999Z" fill="#273C41"/>
<path d="M132.999 114.762C132.999 114.762 133.214 127.565 125.017 136.743C116.822 145.92 112.754 147.481 112.754 147.481C112.754 147.481 118.014 158.36 117.953 158.719C117.892 159.077 117.158 159.443 116.791 159.81C116.424 160.177 116.454 160.544 116.27 161.095C116.087 161.645 116.515 161.615 115.077 161.738C113.639 161.86 113.272 162.778 113.027 162.9C112.783 163.023 112.079 163.115 111.743 163.115C111.407 163.115 111.123 163.513 111.123 163.513C111.123 163.513 106.207 156.17 113.578 135.734C120.948 115.299 132.997 114.764 132.997 114.764L132.999 114.762Z" fill="#517C87"/>
<path d="M133 113.623V114.762C133 114.762 129.788 115.772 121.991 123.803C114.192 131.833 112.45 147.16 111.807 152.62C111.164 158.081 111.118 164 111.118 164H109.972C109.972 164 101.001 149.91 114.926 128.482C128.851 107.055 133 113.623 133 113.623Z" fill="#4F7984"/>
<path d="M132.999 105.264V113.623C132.999 113.623 124.1 116.643 116.944 129.493C109.788 142.341 109.972 164 109.972 164H101.715C101.715 164 98.8692 145.644 106.117 127.381C113.366 109.118 132.999 105.264 132.999 105.264Z" fill="#6796A4"/>
<path d="M58.333 66.8976L64.0081 74.1511L64.7875 65.1418C64.7875 65.1418 63.4576 65.8305 61.2701 66.2431C59.084 66.6557 58.333 66.8976 58.333 66.8976Z" fill="#6796A4"/>
<path d="M66.6675 64.4817L73.2528 70.9184L72.8333 61.885C72.8333 61.885 71.6058 62.743 69.4936 63.443C67.3815 64.1416 66.6689 64.4817 66.6689 64.4817H66.6675Z" fill="#598894"/>
<path d="M75.0595 60.8578L82.1356 66.7496L80.9977 57.7788C80.9977 57.7788 79.8428 58.7321 77.7918 59.5972C75.7422 60.4622 75.0581 60.8578 75.0581 60.8578H75.0595Z" fill="#6796A4"/>
<path d="M82.9887 56.7757L90.4972 62.1056L88.6723 53.2486C88.6723 53.2486 87.5942 54.2887 85.6158 55.3088C83.6387 56.329 82.9873 56.7757 82.9873 56.7757H82.9887Z" fill="#6796A4"/>
<path d="M90.3721 52.385L98.1309 57.3449L95.8793 48.5861C95.8793 48.5861 94.8524 49.6774 92.9266 50.7914C91.0007 51.9069 90.3721 52.3835 90.3721 52.3835V52.385Z" fill="#598894"/>
<path d="M97.6899 47.5346L105.811 51.8742L102.884 43.3188C102.884 43.3188 101.946 44.4869 100.112 45.7476C98.2788 47.0096 97.6899 47.5346 97.6899 47.5346Z" fill="#6796A4"/>
<path d="M105.625 41.1462L114.009 44.9536L110.537 36.6046C110.537 36.6046 109.675 37.8296 107.927 39.2069C106.179 40.5842 105.624 41.1462 105.624 41.1462H105.625Z" fill="#6796A4"/>
<path d="M112.762 34.3807L121.323 37.7685L117.443 29.6015C117.443 29.6015 116.644 30.8678 114.965 32.3305C113.287 33.7931 112.762 34.3807 112.762 34.3807Z" fill="#598894"/>
<path d="M118.517 28.4562L127.338 31.094L122.77 23.2914C122.77 23.2914 122.081 24.6217 120.537 26.2238C118.991 27.8244 118.519 28.4562 118.519 28.4562H118.517Z" fill="#6796A4"/>
<path d="M123.94 21.88L132.102 23.8605L127.567 16.9727C127.567 16.9727 127.004 18.2176 125.673 19.75C124.342 21.2824 123.94 21.88 123.94 21.88Z" fill="#6796A4"/>
<path d="M57.4939 66.5945H57.127V89.0963L57.4939 89.0322V89.0963L57.8609 89.0322V66.5945H57.4939Z" fill="#324C53"/>
<path d="M132.999 98.4711V105.262C132.999 105.262 119.972 108.566 110.246 127.839C100.52 147.113 102.173 163.999 102.173 163.999H55.8423V92.9634L132.999 98.4697V98.4711Z" fill="#517C87"/>
<path d="M133 29.4564V53.5929H107.861L131.715 29.4564H133Z" fill="#6193A0"/>
<path d="M107.861 53.5929L112.266 66.9929H133V53.5929H107.861Z" fill="#517C87"/>
<path d="M132.999 66.9929V98.4725C132.999 98.4725 107.403 100.4 86.3924 97.9219C65.3832 95.4434 55.8408 92.9663 55.8408 92.9663C55.8408 92.9663 78.5013 90.3967 92.8142 82.0448C107.127 73.6929 112.264 66.9929 112.264 66.9929H132.999Z" fill="#6193A0"/>
<path d="M132.143 29.4564L109.268 53.5929H112.205L132.143 29.4564Z" fill="#CADADF"/>
<path d="M132.472 29.4564L115.63 53.5929H119.177L132.472 29.4564Z" fill="#CADADF"/>
<path d="M132.863 29.4564L123.366 53.5929H127.037L132.863 29.4564Z" fill="#CADADF"/>
<path d="M132.999 29.4564L131.165 53.5929H132.999V29.4564Z" fill="#CADADF"/>
<path opacity="0.7" d="M109.268 53.5929L113.367 66.9929H115.63L112.205 53.5929H109.268Z" fill="#B2CAD1"/>
<path opacity="0.7" d="M115.63 53.5929L118.366 66.9929H120.706L119.177 53.5929H115.63Z" fill="#B2CAD1"/>
<path opacity="0.7" d="M123.366 53.5929L124.514 66.9929H127.678L127.037 53.5929H123.366Z" fill="#B2CAD1"/>
<path opacity="0.7" d="M132.999 53.5929H131.165V66.9915H132.999V53.5929Z" fill="#B2CAD1"/>
<path d="M111.522 64.7321H132.999V68.6903H110.744L111.522 64.7321Z" fill="#6796A4"/>
<path d="M113.28 67.5436C113.74 67.5436 114.112 67.1709 114.112 66.7112C114.112 66.2515 113.74 65.8789 113.28 65.8789C112.821 65.8789 112.448 66.2515 112.448 66.7112C112.448 67.1709 112.821 67.5436 113.28 67.5436Z" fill="#54818D"/>
<path d="M117.11 67.5436C117.57 67.5436 117.942 67.1709 117.942 66.7112C117.942 66.2515 117.57 65.8789 117.11 65.8789C116.651 65.8789 116.278 66.2515 116.278 66.7112C116.278 67.1709 116.651 67.5436 117.11 67.5436Z" fill="#54818D"/>
<path d="M120.11 66.7112C120.11 66.2517 120.483 65.8789 120.942 65.8789C121.402 65.8789 121.774 66.2517 121.774 66.7112C121.774 67.1708 121.402 67.5436 120.942 67.5436C120.483 67.5436 120.11 67.1708 120.11 66.7112Z" fill="#54818D"/>
<path d="M124.771 67.5436C125.231 67.5436 125.603 67.1709 125.603 66.7112C125.603 66.2515 125.231 65.8789 124.771 65.8789C124.311 65.8789 123.939 66.2515 123.939 66.7112C123.939 67.1709 124.311 67.5436 124.771 67.5436Z" fill="#54818D"/>
<path d="M128.602 67.5436C129.061 67.5436 129.434 67.1709 129.434 66.7112C129.434 66.2515 129.061 65.8789 128.602 65.8789C128.142 65.8789 127.77 66.2515 127.77 66.7112C127.77 67.1709 128.142 67.5436 128.602 67.5436Z" fill="#54818D"/>
<path d="M112.449 68.6903C112.449 68.6903 106.211 77.1191 92.0205 84.3384C77.8299 91.5577 63.1401 94.4958 63.1401 94.4958L69.5221 95.5971C69.5221 95.5971 85.721 90.2117 97.0356 83.3595C108.35 76.5072 113.55 68.6903 113.55 68.6903H112.449Z" fill="#CADADF"/>
<path d="M115.936 68.6903C115.936 68.6903 110.676 77.792 98.4426 85.3173C86.2106 92.8425 77.0835 96.7282 77.0835 96.7282L82.9961 97.5079C82.9961 97.5079 97.0956 88.8757 104.375 83.0892C111.653 77.3026 117.111 68.6903 117.111 68.6903H115.936Z" fill="#CADADF"/>
<path d="M119.727 68.6903C119.727 68.6903 113.795 78.7709 107.862 84.8278C101.93 90.8847 90.8784 98.3801 90.8784 98.3801L96.3074 98.7756C96.3074 98.7756 106.763 89.1276 112.145 82.1444C117.527 75.1613 120.944 68.6903 120.944 68.6903H119.73H119.727Z" fill="#CADADF"/>
<path d="M123.366 68.6903C123.366 68.6903 118.625 78.465 114.589 85.0725C110.552 91.6801 104.86 99.1142 104.86 99.1142L110.063 99.1854C110.063 99.1854 115.689 87.2139 118.87 80.4826C122.05 73.7527 124.313 68.6889 124.313 68.6889H123.364L123.366 68.6903Z" fill="#CADADF"/>
<path d="M126.638 68.6903C126.638 68.6903 124.061 78.9545 121.773 86.7856C119.483 94.6167 117.942 99.1185 117.942 99.1185L122.663 98.9905C122.663 98.9905 124.506 84.0325 125.603 77.913C126.7 71.7949 127.434 68.6889 127.434 68.6889H126.638V68.6903Z" fill="#CADADF"/>
<path d="M130.369 68.6903L128.167 98.7742L132.082 98.5352L131.164 68.6903H130.369Z" fill="#CADADF"/>
<path d="M55.0161 91.4965C55.0161 91.4965 72.0869 97.0682 94.4202 98.104C116.754 99.1398 132.999 98.4711 132.999 98.4711V101.5C132.999 101.5 106.76 105.538 82.265 101.5C57.7697 97.4624 55.0175 95.5971 55.0175 95.5971V91.4965H55.0161Z" fill="#6796A4"/>
<path d="M58.3381 95.2489C58.8041 94.7827 58.8041 94.0269 58.3381 93.5607C57.8721 93.0945 57.1165 93.0945 56.6505 93.5607C56.1844 94.0269 56.1844 94.7827 56.6505 95.2489C57.1165 95.7151 57.8721 95.7151 58.3381 95.2489Z" fill="#54818D"/>
<path d="M65.176 97.0473C65.642 96.5812 65.642 95.8253 65.176 95.3591C64.7099 94.893 63.9544 94.893 63.4883 95.3591C63.0223 95.8253 63.0223 96.5812 63.4883 97.0473C63.9544 97.5135 64.7099 97.5135 65.176 97.0473Z" fill="#54818D"/>
<path d="M73.415 99.1868C74.0741 99.1868 74.6083 98.6524 74.6083 97.9931C74.6083 97.3338 74.0741 96.7993 73.415 96.7993C72.756 96.7993 72.2217 97.3338 72.2217 97.9931C72.2217 98.6524 72.756 99.1868 73.415 99.1868Z" fill="#54818D"/>
<path d="M82.4526 100.884C83.1117 100.884 83.6459 100.35 83.6459 99.6905C83.6459 99.0312 83.1117 98.4968 82.4526 98.4968C81.7936 98.4968 81.2593 99.0312 81.2593 99.6905C81.2593 100.35 81.7936 100.884 82.4526 100.884Z" fill="#54818D"/>
<path d="M94.1823 100.851C94.2879 100.2 93.8461 99.5866 93.1956 99.4809C92.545 99.3753 91.9321 99.8172 91.8265 100.468C91.7209 101.119 92.1626 101.732 92.8132 101.838C93.4637 101.943 94.0767 101.501 94.1823 100.851Z" fill="#54818D"/>
<path d="M102.866 102.261C103.525 102.261 104.059 101.727 104.059 101.068C104.059 100.408 103.525 99.874 102.866 99.874C102.207 99.874 101.672 100.408 101.672 101.068C101.672 101.727 102.207 102.261 102.866 102.261Z" fill="#54818D"/>
<path d="M112.131 102.261C112.79 102.261 113.324 101.727 113.324 101.068C113.324 100.408 112.79 99.874 112.131 99.874C111.472 99.874 110.938 100.408 110.938 101.068C110.938 101.727 111.472 102.261 112.131 102.261Z" fill="#54818D"/>
<path d="M121.784 101.682C122.25 101.216 122.25 100.46 121.784 99.9935C121.318 99.5273 120.563 99.5273 120.097 99.9935C119.631 100.46 119.631 101.215 120.097 101.682C120.563 102.148 121.318 102.148 121.784 101.682Z" fill="#54818D"/>
<path d="M127.434 114.387C128.515 114.387 129.391 113.51 129.391 112.429C129.391 111.348 128.515 110.471 127.434 110.471C126.353 110.471 125.477 111.348 125.477 112.429C125.477 113.51 126.353 114.387 127.434 114.387Z" fill="#739FAB"/>
<path d="M128.435 113.431C128.988 112.878 128.988 111.98 128.435 111.427C127.882 110.874 126.985 110.874 126.431 111.427C125.878 111.98 125.878 112.878 126.431 113.431C126.985 113.984 127.882 113.984 128.435 113.431Z" fill="#75A0AC"/>
<path d="M127.434 113.256C127.89 113.256 128.26 112.885 128.26 112.429C128.26 111.972 127.89 111.602 127.434 111.602C126.977 111.602 126.607 111.972 126.607 112.429C126.607 112.885 126.977 113.256 127.434 113.256Z" fill="#B4CCD2"/>
<path d="M120.899 121.461C121.664 120.697 121.664 119.457 120.899 118.692C120.135 117.928 118.896 117.928 118.131 118.692C117.367 119.457 117.367 120.697 118.131 121.461C118.896 122.226 120.135 122.226 120.899 121.461Z" fill="#739FAB"/>
<path d="M120.517 121.079C121.07 120.525 121.07 119.628 120.517 119.075C119.964 118.521 119.067 118.521 118.513 119.075C117.96 119.628 117.96 120.525 118.513 121.079C119.067 121.632 119.964 121.632 120.517 121.079Z" fill="#75A0AC"/>
<path d="M118.69 120.076C118.69 119.62 119.06 119.25 119.517 119.25C119.973 119.25 120.343 119.62 120.343 120.076C120.343 120.533 119.973 120.903 119.517 120.903C119.06 120.903 118.69 120.533 118.69 120.076Z" fill="#B4CCD2"/>
<path d="M112.755 132.398C113.836 132.398 114.713 131.521 114.713 130.44C114.713 129.359 113.836 128.482 112.755 128.482C111.675 128.482 110.798 129.359 110.798 130.44C110.798 131.521 111.675 132.398 112.755 132.398Z" fill="#739FAB"/>
<path d="M114.155 130.672C114.281 129.9 113.756 129.172 112.984 129.047C112.212 128.921 111.484 129.446 111.359 130.218C111.233 130.991 111.758 131.719 112.53 131.844C113.302 131.97 114.03 131.445 114.155 130.672Z" fill="#75A0AC"/>
<path d="M112.756 131.267C113.212 131.267 113.582 130.897 113.582 130.44C113.582 129.984 113.212 129.614 112.756 129.614C112.299 129.614 111.929 129.984 111.929 130.44C111.929 130.897 112.299 131.267 112.756 131.267Z" fill="#B4CCD2"/>
<path d="M109.283 144.732C110.281 144.318 110.755 143.173 110.342 142.174C109.928 141.175 108.783 140.701 107.785 141.114C106.786 141.528 106.312 142.674 106.726 143.672C107.139 144.671 108.284 145.146 109.283 144.732Z" fill="#739FAB"/>
<path d="M109.536 143.924C110.09 143.371 110.09 142.474 109.536 141.92C108.983 141.367 108.086 141.367 107.533 141.92C106.98 142.474 106.98 143.371 107.533 143.924C108.086 144.478 108.983 144.478 109.536 143.924Z" fill="#75A0AC"/>
<path d="M108.534 143.748C108.99 143.748 109.36 143.378 109.36 142.921C109.36 142.465 108.99 142.094 108.534 142.094C108.077 142.094 107.708 142.465 107.708 142.921C107.708 143.378 108.077 143.748 108.534 143.748Z" fill="#B4CCD2"/>
<path d="M107.654 158.685C108.418 157.92 108.418 156.68 107.654 155.916C106.89 155.151 105.651 155.151 104.886 155.916C104.122 156.68 104.122 157.92 104.886 158.685C105.651 159.449 106.89 159.449 107.654 158.685Z" fill="#739FAB"/>
<path d="M107.272 158.302C107.825 157.749 107.825 156.852 107.272 156.298C106.719 155.745 105.822 155.745 105.268 156.298C104.715 156.852 104.715 157.749 105.268 158.302C105.822 158.856 106.719 158.856 107.272 158.302Z" fill="#75A0AC"/>
<path d="M106.271 158.127C106.727 158.127 107.097 157.757 107.097 157.3C107.097 156.843 106.727 156.473 106.271 156.473C105.814 156.473 105.444 156.843 105.444 157.3C105.444 157.757 105.814 158.127 106.271 158.127Z" fill="#B4CCD2"/>
<path d="M130.792 100.508C130.897 99.8567 130.455 99.2436 129.805 99.1379C129.154 99.0323 128.541 99.4742 128.436 100.125C128.33 100.776 128.772 101.389 129.423 101.495C130.073 101.6 130.686 101.158 130.792 100.508Z" fill="#54818D"/>
<path opacity="0.7" d="M59.0542 96.7993V164H62.4479V97.7597L59.0542 96.7993Z" fill="#B2CAD1"/>
<path opacity="0.7" d="M67.1797 98.7742V164H71.1636V99.4614L67.1797 98.7742Z" fill="#B2CAD1"/>
<path opacity="0.7" d="M76.3594 100.497V164H80.0631V101.133L76.3594 100.497Z" fill="#B2CAD1"/>
<path opacity="0.7" d="M85.2021 101.946V164H88.9628V102.409L85.2021 101.946Z" fill="#B2CAD1"/>
<path opacity="0.7" d="M94.1953 102.879V164H97.8621V103.097L94.1953 102.879Z" fill="#B2CAD1"/>
<path opacity="0.7" d="M103.364 103.272V148.033L105.725 138.845L106.944 103.272H103.364Z" fill="#B2CAD1"/>
<path opacity="0.7" d="M112.131 103.208V124.365L115.601 119.078V102.879L112.131 103.208Z" fill="#B2CAD1"/>
<path opacity="0.7" d="M120.941 102.758V112.96L124.315 110.04V102.486L120.941 102.758Z" fill="#B2CAD1"/>
<path opacity="0.7" d="M128.851 102.031V107.055L132.082 105.562V101.631L128.851 102.031Z" fill="#B2CAD1"/>
<path d="M132.999 29.4564V26.6577C132.999 26.6577 131.107 26.7502 131.107 28.1261C131.107 29.5019 131.715 29.4564 131.715 29.4564H132.999Z" fill="#6796A4"/>
<path d="M57.4938 88.6224C57.4938 88.6224 54.854 88.7647 54.854 90.9004C54.854 93.036 55.7017 92.9649 55.7017 92.9649H59.2845C59.2845 92.9649 60.1323 93.036 60.1323 90.9004C60.1323 88.7647 57.4924 88.6224 57.4924 88.6224H57.4938Z" fill="#6796A4"/>
<path d="M57.1267 66.5945H45.027L49.6723 70.7548L45 75.4288H57.1267V66.5945Z" fill="#6193A0"/>
<path d="M57.8166 66.9616L57.8052 66.5945C57.9247 66.5903 70.0614 65.8433 94.3191 49.555C107.006 41.0352 116.705 30.6018 122.606 23.3497C129.003 15.4887 132.6 9.65661 132.634 9.59685L132.951 9.78039C132.917 9.84015 129.308 15.6936 122.895 23.5745C116.977 30.8479 107.251 41.3127 94.5225 49.8595C81.797 58.4034 72.5191 62.5467 66.9749 64.5187C60.9528 66.66 57.9389 66.9574 57.8151 66.9616H57.8166Z" fill="#324C53"/>
<path d="M133.001 114.762V164H156.028C156.028 164 161.489 146.296 154.662 132.973C147.834 119.65 133 114.762 133 114.762H133.001Z" fill="#273C41"/>
<path d="M133.001 114.762C133.001 114.762 132.786 127.565 140.983 136.743C149.178 145.92 153.246 147.481 153.246 147.481C153.246 147.481 147.986 158.36 148.047 158.719C148.108 159.077 148.842 159.443 149.209 159.81C149.576 160.177 149.546 160.544 149.73 161.095C149.913 161.645 149.485 161.615 150.923 161.738C152.361 161.86 152.728 162.778 152.973 162.9C153.217 163.023 153.922 163.115 154.257 163.115C154.593 163.115 154.877 163.513 154.877 163.513C154.877 163.513 159.793 156.17 152.422 135.734C145.052 115.299 133.003 114.764 133.003 114.764L133.001 114.762Z" fill="#517C87"/>
<path d="M133 113.623V114.762C133 114.762 136.212 115.772 144.009 123.803C151.808 131.833 153.55 147.16 154.193 152.62C154.836 158.081 154.882 164 154.882 164H156.028C156.028 164 164.999 149.91 151.074 128.482C137.149 107.055 133 113.623 133 113.623Z" fill="#4F7984"/>
<path d="M133 105.264V113.623C133 113.623 141.9 116.643 149.056 129.493C156.211 142.341 156.028 164 156.028 164H164.285C164.285 164 167.131 145.644 159.882 127.381C152.634 109.118 133 105.264 133 105.264Z" fill="#6796A4"/>
<path d="M207.667 66.8976L201.992 74.1511L201.212 65.1418C201.212 65.1418 202.542 65.8305 204.73 66.2431C206.916 66.6557 207.667 66.8976 207.667 66.8976Z" fill="#6796A4"/>
<path d="M199.332 64.4817L192.747 70.9184L193.167 61.885C193.167 61.885 194.394 62.743 196.506 63.443C198.618 64.1416 199.331 64.4817 199.331 64.4817H199.332Z" fill="#598894"/>
<path d="M190.94 60.8578L183.864 66.7496L185.002 57.7788C185.002 57.7788 186.157 58.7321 188.208 59.5972C190.258 60.4622 190.942 60.8578 190.942 60.8578H190.94Z" fill="#6796A4"/>
<path d="M183.011 56.7757L175.502 62.1056L177.327 53.2486C177.327 53.2486 178.405 54.2887 180.384 55.3088C182.361 56.329 183.012 56.7757 183.012 56.7757H183.011Z" fill="#6796A4"/>
<path d="M175.628 52.385L167.869 57.3449L170.121 48.5861C170.121 48.5861 171.148 49.6774 173.073 50.7914C174.999 51.9069 175.628 52.3835 175.628 52.3835V52.385Z" fill="#598894"/>
<path d="M168.31 47.5346L160.188 51.8742L163.116 43.3188C163.116 43.3188 164.054 44.4869 165.888 45.7476C167.721 47.0096 168.31 47.5346 168.31 47.5346Z" fill="#6796A4"/>
<path d="M160.375 41.1462L151.992 44.9536L155.464 36.6046C155.464 36.6046 156.326 37.8296 158.074 39.2069C159.822 40.5842 160.376 41.1462 160.376 41.1462H160.375Z" fill="#6796A4"/>
<path d="M153.238 34.3807L144.677 37.7685L148.557 29.6015C148.557 29.6015 149.356 30.8678 151.035 32.3305C152.713 33.7931 153.238 34.3807 153.238 34.3807Z" fill="#598894"/>
<path d="M147.483 28.4562L138.662 31.094L143.23 23.2914C143.23 23.2914 143.919 24.6217 145.463 26.2238C147.009 27.8244 147.481 28.4562 147.481 28.4562H147.483Z" fill="#6796A4"/>
<path d="M142.06 21.88L133.898 23.8605L138.433 16.9727C138.433 16.9727 138.996 18.2176 140.327 19.75C141.659 21.2824 142.06 21.88 142.06 21.88Z" fill="#6796A4"/>
<path d="M208.506 66.5945H208.873V89.0963L208.506 89.0322V89.0963L208.139 89.0322V66.5945H208.506Z" fill="#324C53"/>
<path d="M133 98.4711V105.262C133 105.262 146.028 108.566 155.753 127.839C165.479 147.113 163.827 163.999 163.827 163.999H210.157V92.9634L133 98.4697V98.4711Z" fill="#517C87"/>
<path d="M133 29.4564V53.5929H158.139L134.285 29.4564H133Z" fill="#6193A0"/>
<path d="M158.139 53.5929L153.734 66.9929H133V53.5929H158.139Z" fill="#517C87"/>
<path d="M133 66.9929V98.4725C133 98.4725 158.597 100.4 179.607 97.9219C200.616 95.4434 210.159 92.9663 210.159 92.9663C210.159 92.9663 187.498 90.3967 173.185 82.0448C158.873 73.6929 153.735 66.9929 153.735 66.9929H133Z" fill="#6193A0"/>
<path d="M133.857 29.4564L156.732 53.5929H153.795L133.857 29.4564Z" fill="#CADADF"/>
<path d="M133.528 29.4564L150.37 53.5929H146.823L133.528 29.4564Z" fill="#CADADF"/>
<path d="M133.137 29.4564L142.634 53.5929H138.963L133.137 29.4564Z" fill="#CADADF"/>
<path d="M133 29.4564L134.835 53.5929H133V29.4564Z" fill="#CADADF"/>
<path opacity="0.7" d="M156.732 53.5929L152.633 66.9929H150.37L153.795 53.5929H156.732Z" fill="#B2CAD1"/>
<path opacity="0.7" d="M150.37 53.5929L147.634 66.9929H145.294L146.823 53.5929H150.37Z" fill="#B2CAD1"/>
<path opacity="0.7" d="M142.634 53.5929L141.486 66.9929H138.322L138.963 53.5929H142.634Z" fill="#B2CAD1"/>
<path opacity="0.7" d="M134.835 53.5929H133V66.9915H134.835V53.5929Z" fill="#B2CAD1"/>
<path d="M154.478 64.7321H133V68.6903H155.256L154.478 64.7321Z" fill="#6796A4"/>
<path d="M153.55 66.7112C153.55 66.2517 153.178 65.8789 152.718 65.8789C152.259 65.8789 151.886 66.2517 151.886 66.7112C151.886 67.1708 152.259 67.5436 152.718 67.5436C153.178 67.5436 153.55 67.1708 153.55 66.7112Z" fill="#54818D"/>
<path d="M148.89 67.5436C149.349 67.5436 149.722 67.1709 149.722 66.7112C149.722 66.2515 149.349 65.8789 148.89 65.8789C148.43 65.8789 148.058 66.2515 148.058 66.7112C148.058 67.1709 148.43 67.5436 148.89 67.5436Z" fill="#54818D"/>
<path d="M145.89 66.7112C145.89 66.2517 145.517 65.8789 145.058 65.8789C144.598 65.8789 144.226 66.2517 144.226 66.7112C144.226 67.1708 144.598 67.5436 145.058 67.5436C145.517 67.5436 145.89 67.1708 145.89 66.7112Z" fill="#54818D"/>
<path d="M141.229 67.5436C141.689 67.5436 142.061 67.1709 142.061 66.7112C142.061 66.2515 141.689 65.8789 141.229 65.8789C140.769 65.8789 140.397 66.2515 140.397 66.7112C140.397 67.1709 140.769 67.5436 141.229 67.5436Z" fill="#54818D"/>
<path d="M137.398 67.5436C137.858 67.5436 138.231 67.1709 138.231 66.7112C138.231 66.2515 137.858 65.8789 137.398 65.8789C136.939 65.8789 136.566 66.2515 136.566 66.7112C136.566 67.1709 136.939 67.5436 137.398 67.5436Z" fill="#54818D"/>
<path d="M153.551 68.6903C153.551 68.6903 159.789 77.1191 173.979 84.3384C188.17 91.5577 202.86 94.4958 202.86 94.4958L196.478 95.5971C196.478 95.5971 180.279 90.2117 168.964 83.3595C157.65 76.5072 152.45 68.6903 152.45 68.6903H153.551Z" fill="#CADADF"/>
<path d="M150.064 68.6903C150.064 68.6903 155.324 77.792 167.558 85.3173C179.79 92.8425 188.917 96.7282 188.917 96.7282L183.004 97.5079C183.004 97.5079 168.905 88.8757 161.625 83.0892C154.347 77.3026 148.89 68.6903 148.89 68.6903H150.064Z" fill="#CADADF"/>
<path d="M146.272 68.6903C146.272 68.6903 152.205 78.7709 158.137 84.8278C164.07 90.8847 175.121 98.3801 175.121 98.3801L169.692 98.7756C169.692 98.7756 159.237 89.1276 153.855 82.1444C148.473 75.1613 145.056 68.6903 145.056 68.6903H146.269H146.272Z" fill="#CADADF"/>
<path d="M142.634 68.6903C142.634 68.6903 147.375 78.465 151.411 85.0725C155.448 91.6801 161.14 99.1142 161.14 99.1142L155.937 99.1854C155.937 99.1854 150.311 87.2139 147.13 80.4826C143.95 73.7527 141.687 68.6889 141.687 68.6889H142.636L142.634 68.6903Z" fill="#CADADF"/>
<path d="M139.361 68.6903C139.361 68.6903 141.939 78.9545 144.227 86.7856C146.517 94.6167 148.058 99.1185 148.058 99.1185L143.337 98.9905C143.337 98.9905 141.494 84.0325 140.397 77.913C139.3 71.7949 138.566 68.6889 138.566 68.6889H139.361V68.6903Z" fill="#CADADF"/>
<path d="M135.63 68.6903L137.832 98.7742L133.918 98.5352L134.835 68.6903H135.63Z" fill="#CADADF"/>
<path d="M210.983 91.4965C210.983 91.4965 193.912 97.0682 171.579 98.104C149.245 99.1398 133 98.4711 133 98.4711V101.5C133 101.5 159.239 105.538 183.734 101.5C208.229 97.4624 210.981 95.5971 210.981 95.5971V91.4965H210.983Z" fill="#6796A4"/>
<path d="M209.35 95.248C209.816 94.7818 209.816 94.026 209.35 93.5598C208.884 93.0936 208.129 93.0936 207.663 93.5598C207.197 94.026 207.197 94.7818 207.663 95.248C208.129 95.7142 208.884 95.7142 209.35 95.248Z" fill="#54818D"/>
<path d="M202.512 97.0472C202.978 96.581 202.978 95.8251 202.512 95.359C202.046 94.8928 201.29 94.8928 200.824 95.359C200.358 95.8251 200.358 96.581 200.824 97.0472C201.29 97.5133 202.046 97.5133 202.512 97.0472Z" fill="#54818D"/>
<path d="M192.585 99.1868C193.244 99.1868 193.778 98.6524 193.778 97.9931C193.778 97.3338 193.244 96.7993 192.585 96.7993C191.926 96.7993 191.392 97.3338 191.392 97.9931C191.392 98.6524 191.926 99.1868 192.585 99.1868Z" fill="#54818D"/>
<path d="M183.547 100.884C184.206 100.884 184.741 100.35 184.741 99.6905C184.741 99.0312 184.206 98.4968 183.547 98.4968C182.888 98.4968 182.354 99.0312 182.354 99.6905C182.354 100.35 182.888 100.884 183.547 100.884Z" fill="#54818D"/>
<path d="M173.268 101.822C173.909 101.67 174.306 101.027 174.155 100.386C174.004 99.7442 173.361 99.3468 172.72 99.4982C172.078 99.6497 171.681 100.293 171.832 100.934C171.984 101.576 172.626 101.973 173.268 101.822Z" fill="#54818D"/>
<path d="M163.134 102.261C163.793 102.261 164.328 101.727 164.328 101.068C164.328 100.408 163.793 99.874 163.134 99.874C162.475 99.874 161.941 100.408 161.941 101.068C161.941 101.727 162.475 102.261 163.134 102.261Z" fill="#54818D"/>
<path d="M153.868 102.261C154.527 102.261 155.061 101.727 155.061 101.068C155.061 100.408 154.527 99.874 153.868 99.874C153.209 99.874 152.674 100.408 152.674 101.068C152.674 101.727 153.209 102.261 153.868 102.261Z" fill="#54818D"/>
<path d="M145.33 102.005C145.972 101.853 146.369 101.21 146.218 100.569C146.066 99.927 145.423 99.5296 144.782 99.6811C144.141 99.8325 143.743 100.475 143.895 101.117C144.046 101.759 144.689 102.156 145.33 102.005Z" fill="#54818D"/>
<path d="M138.566 114.387C139.647 114.387 140.523 113.51 140.523 112.429C140.523 111.348 139.647 110.471 138.566 110.471C137.485 110.471 136.609 111.348 136.609 112.429C136.609 113.51 137.485 114.387 138.566 114.387Z" fill="#739FAB"/>
<path d="M139.568 113.43C140.121 112.877 140.121 111.98 139.568 111.426C139.015 110.873 138.118 110.873 137.565 111.426C137.011 111.98 137.011 112.877 137.565 113.43C138.118 113.984 139.015 113.984 139.568 113.43Z" fill="#75A0AC"/>
<path d="M138.566 113.256C139.023 113.256 139.392 112.885 139.392 112.429C139.392 111.972 139.023 111.602 138.566 111.602C138.11 111.602 137.74 111.972 137.74 112.429C137.74 112.885 138.11 113.256 138.566 113.256Z" fill="#B4CCD2"/>
<path d="M146.93 121.988C147.982 121.74 148.633 120.685 148.385 119.633C148.137 118.58 147.083 117.929 146.031 118.177C144.979 118.425 144.327 119.48 144.576 120.532C144.824 121.585 145.878 122.236 146.93 121.988Z" fill="#739FAB"/>
<path d="M146.806 121.462C147.567 121.282 148.039 120.519 147.859 119.757C147.68 118.995 146.917 118.523 146.155 118.703C145.394 118.883 144.922 119.646 145.102 120.408C145.282 121.17 146.044 121.641 146.806 121.462Z" fill="#75A0AC"/>
<path d="M146.485 120.903C146.941 120.903 147.311 120.533 147.311 120.076C147.311 119.62 146.941 119.25 146.485 119.25C146.028 119.25 145.658 119.62 145.658 120.076C145.658 120.533 146.028 120.903 146.485 120.903Z" fill="#B4CCD2"/>
<path d="M153.244 132.398C154.325 132.398 155.201 131.521 155.201 130.44C155.201 129.359 154.325 128.482 153.244 128.482C152.163 128.482 151.287 129.359 151.287 130.44C151.287 131.521 152.163 132.398 153.244 132.398Z" fill="#739FAB"/>
<path d="M154.246 131.443C154.799 130.89 154.799 129.992 154.246 129.439C153.693 128.885 152.796 128.885 152.242 129.439C151.689 129.992 151.689 130.89 152.242 131.443C152.796 131.996 153.693 131.996 154.246 131.443Z" fill="#75A0AC"/>
<path d="M153.244 131.267C153.701 131.267 154.071 130.897 154.071 130.44C154.071 129.984 153.701 129.614 153.244 129.614C152.788 129.614 152.418 129.984 152.418 130.44C152.418 130.897 152.788 131.267 153.244 131.267Z" fill="#B4CCD2"/>
<path d="M158.85 144.306C159.614 143.541 159.614 142.302 158.85 141.537C158.086 140.772 156.846 140.772 156.082 141.537C155.318 142.302 155.318 143.541 156.082 144.306C156.846 145.07 158.086 145.07 158.85 144.306Z" fill="#739FAB"/>
<path d="M158.468 143.923C159.021 143.37 159.021 142.473 158.468 141.919C157.914 141.366 157.017 141.366 156.464 141.919C155.911 142.473 155.911 143.37 156.464 143.923C157.017 144.477 157.914 144.477 158.468 143.923Z" fill="#75A0AC"/>
<path d="M157.466 143.748C157.922 143.748 158.292 143.378 158.292 142.921C158.292 142.465 157.922 142.094 157.466 142.094C157.01 142.094 156.64 142.465 156.64 142.921C156.64 143.378 157.01 143.748 157.466 143.748Z" fill="#B4CCD2"/>
<path d="M160.048 159.226C161.115 159.053 161.84 158.047 161.667 156.98C161.493 155.912 160.488 155.188 159.421 155.361C158.354 155.534 157.63 156.54 157.803 157.607C157.976 158.674 158.981 159.399 160.048 159.226Z" fill="#739FAB"/>
<path d="M160.731 158.301C161.284 157.748 161.284 156.851 160.731 156.297C160.178 155.744 159.281 155.744 158.728 156.297C158.175 156.851 158.175 157.748 158.728 158.301C159.281 158.855 160.178 158.855 160.731 158.301Z" fill="#75A0AC"/>
<path d="M159.729 158.127C160.186 158.127 160.556 157.757 160.556 157.3C160.556 156.843 160.186 156.473 159.729 156.473C159.273 156.473 158.903 156.843 158.903 157.3C158.903 157.757 159.273 158.127 159.729 158.127Z" fill="#B4CCD2"/>
<path d="M136.583 101.485C137.233 101.379 137.675 100.766 137.569 100.116C137.464 99.4647 136.851 99.0228 136.2 99.1285C135.55 99.2341 135.108 99.8473 135.214 100.498C135.319 101.149 135.932 101.591 136.583 101.485Z" fill="#54818D"/>
<path opacity="0.7" d="M206.946 96.7993V164H203.552V97.7597L206.946 96.7993Z" fill="#B2CAD1"/>
<path opacity="0.7" d="M198.82 98.7742V164H194.836V99.4614L198.82 98.7742Z" fill="#B2CAD1"/>
<path opacity="0.7" d="M189.641 100.497V164H185.937V101.133L189.641 100.497Z" fill="#B2CAD1"/>
<path opacity="0.7" d="M180.798 101.946V164H177.037V102.409L180.798 101.946Z" fill="#B2CAD1"/>
<path opacity="0.7" d="M171.804 102.879V164H168.138V103.097L171.804 102.879Z" fill="#B2CAD1"/>
<path opacity="0.7" d="M162.636 103.272V148.033L160.275 138.845L159.056 103.272H162.636Z" fill="#B2CAD1"/>
<path opacity="0.7" d="M153.867 103.208V124.365L150.398 119.078V102.879L153.867 103.208Z" fill="#B2CAD1"/>
<path opacity="0.7" d="M145.059 102.758V112.96L141.686 110.04V102.486L145.059 102.758Z" fill="#B2CAD1"/>
<path opacity="0.7" d="M137.149 102.031V107.055L133.918 105.562V101.631L137.149 102.031Z" fill="#B2CAD1"/>
<path d="M133 29.4564V26.6577C133 26.6577 134.892 26.7502 134.892 28.1261C134.892 29.5019 134.285 29.4564 134.285 29.4564H133Z" fill="#6796A4"/>
<path d="M208.506 88.6224C208.506 88.6224 211.146 88.7647 211.146 90.9004C211.146 93.036 210.298 92.9649 210.298 92.9649H206.715C206.715 92.9649 205.868 93.036 205.868 90.9004C205.868 88.7647 208.508 88.6224 208.508 88.6224H208.506Z" fill="#6796A4"/>
<path d="M208.873 66.5945H220.973L216.327 70.7548L221 75.4288H208.873V66.5945Z" fill="#6193A0"/>
<path d="M133.368 0H145.467L140.822 4.16029L145.494 8.83422H133.368V0Z" fill="#6193A0"/>
<path d="M208.183 66.9616L208.195 66.5945C208.075 66.5903 195.938 65.8433 171.681 49.555C158.993 41.0352 149.295 30.6018 143.393 23.3497C136.997 15.4887 133.4 9.65661 133.366 9.59685L133.049 9.78039C133.083 9.84015 136.691 15.6936 143.105 23.5745C149.023 30.8479 158.749 41.3127 171.477 49.8595C184.203 58.4034 193.481 62.5467 199.025 64.5187C205.047 66.66 208.061 66.9574 208.185 66.9616H208.183Z" fill="#324C53"/>
</g>
</g>
<g clip-path="url(#clip2_3619_317649)">
<path d="M150.769 169H157.044C158.18 169 159.102 168.074 159.102 166.931V69.7726C159.102 68.6302 158.18 67.7041 157.044 67.7041H150.769C149.632 67.7041 148.71 68.6302 148.71 69.7726V166.931C148.71 168.074 149.632 169 150.769 169Z" fill="#C38C6B"/>
<path d="M153.438 106.526L153.904 107.426C154.197 107.991 154.89 108.211 155.453 107.916L176.158 97.0764C176.72 96.782 176.938 96.0854 176.646 95.5204L176.179 94.6205C175.886 94.0555 175.193 93.8361 174.63 94.1305L153.925 104.971C153.363 105.265 153.145 105.962 153.438 106.526Z" fill="#C38C6B"/>
<path d="M184.784 101.273H192.465C196.608 101.273 199.996 97.8686 199.996 93.7056C199.996 89.5426 196.608 86.1385 192.465 86.1385H184.784C180.641 86.1385 177.253 89.5426 177.253 93.7056C177.253 97.8686 180.641 101.273 184.784 101.273Z" fill="#9DBE3B"/>
<path d="M143.402 60.7874C143.95 61.0345 144.593 60.7874 144.839 60.2323L147.998 53.1031C148.244 52.5524 147.998 51.9062 147.445 51.6591C146.897 51.4119 146.254 51.6591 146.008 52.2141L142.849 59.3433C142.603 59.894 142.849 60.5402 143.402 60.7874Z" fill="#C38C6B"/>
<path d="M148.68 55.7874C152.728 55.7874 156.038 52.4613 156.038 48.3937C156.038 44.3261 152.728 41 148.68 41C144.632 41 141.322 44.3261 141.322 48.3937C141.322 52.4613 144.632 55.7874 148.68 55.7874Z" fill="#9DBE3B"/>
<path d="M126.925 44.6687H112.792C106.872 44.6687 102.072 49.4914 102.072 55.4405V55.4448C102.072 61.3939 106.872 66.2167 112.792 66.2167H126.925C132.846 66.2167 137.645 61.3939 137.645 55.4448V55.4405C137.645 49.4914 132.846 44.6687 126.925 44.6687Z" fill="#74A734"/>
<path d="M122.093 76.1549L121.475 77.2082C121.143 77.7735 121.331 78.5019 121.893 78.8353L149.839 95.3966C150.402 95.7299 151.127 95.542 151.458 94.9767L152.077 93.9234C152.408 93.3581 152.221 92.6297 151.659 92.2963L123.713 75.735C123.15 75.4016 122.425 75.5896 122.093 76.1549Z" fill="#C38C6B"/>
<path d="M131.404 81.7846H152.115C158.652 81.7846 163.952 76.4591 163.952 69.8897C163.952 63.3202 158.652 57.9947 152.115 57.9947H131.404C124.867 57.9947 119.567 63.3202 119.567 69.8897C119.567 76.4591 124.867 81.7846 131.404 81.7846Z" fill="#8BC53F"/>
<path d="M125.549 86.8974C131.016 86.8974 135.487 82.4048 135.487 76.9104C135.487 71.4161 131.016 66.9235 125.549 66.9235C120.081 66.9235 115.61 71.4161 115.61 76.9104C115.61 82.4048 120.081 86.8974 125.549 86.8974Z" fill="#74A734"/>
<path d="M176.071 56.6851H183.014C183.014 52.8299 179.907 49.7077 176.071 49.7077V56.6851Z" fill="#AA2423"/>
<path d="M183.334 75.0934C183.265 75.0327 183.196 74.9764 183.122 74.92C181.72 73.7708 180.153 72.9339 178.466 72.4959C178.423 72.4829 178.384 72.4785 178.341 72.4655C177.486 72.253 176.61 72.1403 175.708 72.1403C174.996 72.1403 174.297 72.2097 173.615 72.3441V86.8713C173.615 88.2113 174.707 89.3084 176.041 89.3084C177.037 89.3084 177.896 88.697 178.267 87.834V90.2668C178.267 91.6068 179.359 92.7039 180.693 92.7039C181.69 92.7039 182.548 92.0925 182.92 91.2295V93.6623C182.92 95.0022 184.011 96.0994 185.345 96.0994C186.678 96.0994 187.77 95.0022 187.77 93.6623V81.2643C186.691 78.7794 185.164 76.6589 183.325 75.0934H183.334Z" fill="#3AA9C8"/>
<path d="M178.761 85.9893C183.647 83.9876 185.993 78.3844 184.001 73.4743C182.009 68.5642 176.433 66.2065 171.547 68.2083C166.66 70.2101 164.314 75.8133 166.306 80.7234C168.298 85.6335 173.874 87.9911 178.761 85.9893Z" fill="#ED1C24"/>
<path d="M173.352 59.5688C173.352 57.3529 171.565 55.5619 169.365 55.5619C167.164 55.5619 165.377 57.3572 165.377 59.5688H173.356H173.352Z" fill="#FBB040"/>
<path d="M168.221 59.5688C168.221 60.9348 169.321 62.045 170.685 62.045C172.049 62.045 173.149 60.9348 173.149 59.5688H168.225H168.221Z" fill="#555F5B"/>
<path d="M175.156 74.2825C172.316 74.2825 169.995 71.9495 169.995 69.0961V57.3746C169.995 54.5212 172.316 52.1881 175.156 52.1881C177.996 52.1881 180.317 54.5212 180.317 57.3746V69.0961C180.317 71.9495 177.996 74.2825 175.156 74.2825Z" fill="#ED1C24"/>
<path d="M172.269 94.2303V91.4463C172.269 91.0296 171.933 90.6918 171.518 90.6918H170.819C170.404 90.6918 170.068 91.0296 170.068 91.4463V94.2303C170.068 94.6471 170.404 94.9849 170.819 94.9849H171.518C171.933 94.9849 172.269 94.6471 172.269 94.2303Z" fill="#F7901E"/>
<path d="M171.168 91.6415C169.744 91.6415 168.579 90.4706 168.579 89.0396V82.5782C168.579 81.1472 169.744 79.9763 171.168 79.9763C172.593 79.9763 173.758 81.1472 173.758 82.5782V89.0396C173.758 90.4706 172.593 91.6415 171.168 91.6415Z" fill="#ED1C24"/>
<path d="M178.772 94.2303V91.4463C178.772 91.0296 178.436 90.6918 178.022 90.6918H177.322C176.908 90.6918 176.572 91.0296 176.572 91.4463V94.2303C176.572 94.6471 176.908 94.9849 177.322 94.9849H178.022C178.436 94.9849 178.772 94.6471 178.772 94.2303Z" fill="#F7901E"/>
<path d="M180.261 82.5782C180.261 81.1412 179.102 79.9763 177.672 79.9763C176.242 79.9763 175.083 81.1412 175.083 82.5782V89.0396C175.083 90.4766 176.242 91.6415 177.672 91.6415C179.102 91.6415 180.261 90.4766 180.261 89.0396V82.5782Z" fill="#ED1C24"/>
<path d="M193.548 101.958C192.651 102.227 191.693 101.706 191.43 100.8L186.156 82.8991C185.888 81.9971 186.406 81.0344 187.308 80.7699C188.206 80.501 189.164 81.0214 189.427 81.9277L194.701 99.8287C194.968 100.731 194.45 101.693 193.548 101.958Z" fill="#005BAA"/>
<path d="M193.186 108.107C192.288 108.376 191.33 107.856 191.067 106.949L185.794 89.0482C185.526 88.1463 186.044 87.1836 186.946 86.919C187.844 86.6502 188.802 87.1705 189.065 88.0769L194.338 105.978C194.606 106.88 194.088 107.843 193.186 108.107Z" fill="#ED1C24"/>
<path d="M184.922 70.2539C184.853 70.1932 184.784 70.1368 184.711 70.0805C183.308 68.9313 181.742 68.0944 180.054 67.6564C180.011 67.6434 179.972 67.639 179.929 67.626C179.075 67.4135 178.199 67.3008 177.297 67.3008H176.852C175.941 67.3008 175.199 68.0467 175.199 68.9617V81.9451C175.199 83.1636 176.054 84.2608 177.258 84.4429C178.406 84.6164 179.437 83.9659 179.856 82.9945V85.3449C179.856 86.5634 180.71 87.6606 181.914 87.8427C183.062 88.0162 184.094 87.3657 184.512 86.3943V88.736C184.512 89.9719 185.392 91.0821 186.614 91.2425C188.094 91.4376 189.367 90.2755 189.367 88.8271V80.1108C189.367 76.3597 187.809 72.7431 184.978 70.3016C184.961 70.2843 184.944 70.2713 184.922 70.2539Z" fill="#FFF100"/>
<path d="M175.156 65.1889C173.179 65.1889 171.561 63.5628 171.561 61.5766V58.0858C171.561 56.0997 173.179 54.4735 175.156 54.4735C177.132 54.4735 178.751 56.0997 178.751 58.0858V61.5766C178.751 63.5628 177.132 65.1889 175.156 65.1889Z" fill="#FAAF40"/>
<path d="M172.739 58.1595C172.739 59.4995 173.818 60.5836 175.152 60.5836C176.485 60.5836 177.564 59.4995 177.564 58.1595C177.564 56.8195 176.485 55.7354 175.152 55.7354C173.818 55.7354 172.739 56.8195 172.739 58.1595Z" fill="white"/>
<path d="M175.156 59.6296C175.964 59.6296 176.619 58.9714 176.619 58.1595C176.619 57.3476 175.964 56.6894 175.156 56.6894C174.348 56.6894 173.693 57.3476 173.693 58.1595C173.693 58.9714 174.348 59.6296 175.156 59.6296Z" fill="#58595B"/>
<path d="M171.311 108.493H179.342C183.39 108.493 186.7 105.167 186.7 101.099C186.7 97.0317 183.39 93.7056 179.342 93.7056H171.311C167.263 93.7056 163.953 97.0317 163.953 101.099C163.953 105.167 167.263 108.493 171.311 108.493Z" fill="#74A734"/>
<path d="M131.918 160.038H135.44C136.732 160.038 137.779 158.986 137.779 157.688V143.525C137.779 142.227 136.732 141.175 135.44 141.175H131.918C130.627 141.175 129.579 142.227 129.579 143.525V157.688C129.579 158.986 130.627 160.038 131.918 160.038Z" fill="#6A7775"/>
<path d="M141.55 160.038H145.072C146.363 160.038 147.411 158.986 147.411 157.688V143.525C147.411 142.227 146.363 141.175 145.072 141.175H141.55C140.258 141.175 139.211 142.227 139.211 143.525V157.688C139.211 158.986 140.258 160.038 141.55 160.038Z" fill="#808E8C"/>
<path d="M107.044 160.038H110.565C111.857 160.038 112.904 158.986 112.904 157.688V143.525C112.904 142.227 111.857 141.175 110.565 141.175H107.044C105.752 141.175 104.705 142.227 104.705 143.525V157.688C104.705 158.986 105.752 160.038 107.044 160.038Z" fill="#6A7775"/>
<path d="M116.676 160.038H120.197C121.489 160.038 122.536 158.986 122.536 157.688V143.525C122.536 142.227 121.489 141.175 120.197 141.175H116.676C115.384 141.175 114.337 142.227 114.337 143.525V157.688C114.337 158.986 115.384 160.038 116.676 160.038Z" fill="#808E8C"/>
<path d="M113.02 151.951H138.059C148.432 151.951 156.84 143.501 156.84 133.078V124.557C156.84 114.134 148.432 105.685 138.059 105.685H113.02C102.648 105.685 94.2393 114.134 94.2393 124.557V133.078C94.2393 143.501 102.648 151.951 113.02 151.951Z" fill="#808E8C"/>
<path d="M83.8672 120.873C91.0647 118.813 95.2374 111.28 93.1871 104.047C91.1369 96.8147 83.64 92.6218 76.4425 94.682C69.2449 96.7422 65.0722 104.275 67.1225 111.508C69.1728 118.74 76.6696 122.933 83.8672 120.873Z" fill="#95A5A4"/>
<path d="M82.5349 118.05C88.1796 116.726 91.6872 111.054 90.3695 105.382C89.0518 99.7102 83.4077 96.1855 77.763 97.5096C72.1184 98.8337 68.6107 104.505 69.9284 110.177C71.2461 115.849 76.8902 119.374 82.5349 118.05Z" fill="#555F5B"/>
<path d="M129.335 121.238C136.732 120.097 141.809 113.147 140.675 105.714C139.54 98.2807 132.624 93.1791 125.226 94.3192C117.829 95.4593 112.752 102.409 113.886 109.843C115.021 117.276 121.938 122.378 129.335 121.238Z" fill="#95A5A4"/>
<path d="M134.7 115.234C138.798 111.115 138.798 104.437 134.7 100.319C130.601 96.2001 123.956 96.2001 119.857 100.319C115.758 104.437 115.758 111.115 119.857 115.234C123.956 119.352 130.601 119.352 134.7 115.234Z" fill="#555F5B"/>
<path d="M98.6544 150.394H99.4743C100.29 150.394 100.885 149.618 100.678 148.824L98.7018 121.058C95.5472 121.058 92.7896 118.924 91.9826 115.862L90.8303 111.496C90.5369 110.39 90.3901 109.249 90.3901 108.104V102.385C90.3901 100.125 91.5035 98.0091 93.3635 96.7342L93.8426 96.4046C95.2926 95.4116 97.0102 94.8825 98.7623 94.8825H108.666C110.423 94.8825 112.136 95.4116 113.586 96.4046L114.065 96.7342C115.925 98.0091 117.039 100.121 117.039 102.385V108.104C117.039 109.249 116.892 110.39 116.598 111.496L115.446 115.862C114.639 118.924 111.881 121.058 108.727 121.058L106.75 148.824C106.539 149.618 107.134 150.394 107.954 150.394H108.774C109.918 150.394 110.85 151.326 110.85 152.48V153.911C110.85 155.06 109.922 155.997 108.774 155.997H98.6544C97.5108 155.997 96.5786 155.064 96.5786 153.911V152.48C96.5786 151.331 97.5064 150.394 98.6544 150.394Z" fill="#AFC3C5"/>
<path d="M110.975 108.937C112.591 108.937 113.901 107.621 113.901 105.997C113.901 104.373 112.591 103.057 110.975 103.057C109.359 103.057 108.049 104.373 108.049 105.997C108.049 107.621 109.359 108.937 110.975 108.937Z" fill="white"/>
<path d="M110.975 107.779C111.955 107.779 112.749 106.981 112.749 105.997C112.749 105.013 111.955 104.215 110.975 104.215C109.996 104.215 109.202 105.013 109.202 105.997C109.202 106.981 109.996 107.779 110.975 107.779Z" fill="#58595B"/>
<path d="M96.4533 108.937C98.0692 108.937 99.3792 107.621 99.3792 105.997C99.3792 104.373 98.0692 103.057 96.4533 103.057C94.8373 103.057 93.5273 104.373 93.5273 105.997C93.5273 107.621 94.8373 108.937 96.4533 108.937Z" fill="white"/>
<path d="M94.6797 105.997C94.6797 106.981 95.4737 107.779 96.4534 107.779C97.433 107.779 98.2271 106.981 98.2271 105.997C98.2271 105.013 97.433 104.215 96.4534 104.215C95.4737 104.215 94.6797 105.013 94.6797 105.997Z" fill="#58595B"/>
<path d="M108.157 123.404L109.093 123.764C109.922 124.08 110.836 123.59 111.031 122.723L112.511 115.563C112.589 115.186 112.381 114.809 112.023 114.67C111.665 114.531 111.259 114.674 111.07 115.008L107.41 121.326C106.978 122.103 107.332 123.083 108.161 123.404H108.157Z" fill="white"/>
<path d="M99.2754 123.404L98.3389 123.764C97.5103 124.08 96.5955 123.59 96.4013 122.723L94.921 115.563C94.8434 115.186 95.0505 114.809 95.4087 114.67C95.7669 114.531 96.1725 114.674 96.3624 115.008L100.026 121.326C100.458 122.103 100.104 123.083 99.2754 123.404Z" fill="white"/>
<path d="M162.144 132.467H160.849V126.04C160.849 122.385 158.364 119.41 155.312 119.41V118.109C159.08 118.109 162.144 121.665 162.144 126.04V132.467Z" fill="#6A7775"/>
<path d="M162.437 131.391L164.254 134.956C164.427 135.294 164.371 135.693 164.107 135.979L162.291 137.974C161.876 138.429 161.112 138.429 160.698 137.974L158.881 135.979C158.622 135.693 158.566 135.294 158.735 134.956L160.551 131.391C160.927 130.659 162.057 130.659 162.433 131.391H162.437Z" fill="#6A7775"/>
</g>
<path d="M214 161V139H36V161" stroke="#44413E" stroke-width="2"/>
<line x1="45" y1="140" x2="45" y2="161" stroke="#44413E" stroke-width="2"/>
<line x1="53" y1="140" x2="53" y2="161" stroke="#44413E" stroke-width="2"/>
<line x1="61" y1="140" x2="61" y2="161" stroke="#44413E" stroke-width="2"/>
<line x1="69" y1="140" x2="69" y2="161" stroke="#44413E" stroke-width="2"/>
<line x1="77" y1="140" x2="77" y2="161" stroke="#44413E" stroke-width="2"/>
<line x1="85" y1="140" x2="85" y2="161" stroke="#44413E" stroke-width="2"/>
<line x1="93" y1="140" x2="93" y2="161" stroke="#44413E" stroke-width="2"/>
<line x1="101" y1="140" x2="101" y2="161" stroke="#44413E" stroke-width="2"/>
<line x1="109" y1="140" x2="109" y2="161" stroke="#44413E" stroke-width="2"/>
<line x1="117" y1="140" x2="117" y2="161" stroke="#44413E" stroke-width="2"/>
<line x1="125" y1="140" x2="125" y2="161" stroke="#44413E" stroke-width="2"/>
<line x1="133" y1="140" x2="133" y2="161" stroke="#44413E" stroke-width="2"/>
<line x1="141" y1="140" x2="141" y2="161" stroke="#44413E" stroke-width="2"/>
<line x1="149" y1="140" x2="149" y2="161" stroke="#44413E" stroke-width="2"/>
<line x1="157" y1="140" x2="157" y2="161" stroke="#44413E" stroke-width="2"/>
<line x1="165" y1="140" x2="165" y2="161" stroke="#44413E" stroke-width="2"/>
<line x1="173" y1="140" x2="173" y2="161" stroke="#44413E" stroke-width="2"/>
<line x1="181" y1="140" x2="181" y2="161" stroke="#44413E" stroke-width="2"/>
<line x1="189" y1="140" x2="189" y2="161" stroke="#44413E" stroke-width="2"/>
<line x1="197" y1="140" x2="197" y2="161" stroke="#44413E" stroke-width="2"/>
<line x1="205" y1="140" x2="205" y2="161" stroke="#44413E" stroke-width="2"/>
<path d="M8.33333 147.64C8.33333 144.461 11.1333 141.88 14.5833 141.88C15.9889 141.88 17.2778 142.312 18.3222 143.032C19.45 140.659 22.0111 139 25 139C27.9889 139 30.5556 140.659 31.6778 143.032C32.7222 142.312 34.0111 141.88 35.4167 141.88C38.8667 141.88 41.6667 144.461 41.6667 147.64C46.2667 147.64 50 151.08 50 155.32C50 159.56 46.2667 163 41.6667 163H8.33333C3.73333 163 0 159.56 0 155.32C0 151.08 3.73333 147.64 8.33333 147.64Z" fill="#65AA39"/>
</g>
<defs>
<clipPath id="clip0_3619_317649">
<rect width="221" height="161" fill="white"/>
</clipPath>
<clipPath id="clip1_3619_317649">
<rect width="176" height="164" fill="white" transform="translate(45)"/>
</clipPath>
<clipPath id="clip2_3619_317649">
<rect width="140" height="128" fill="white" transform="translate(60 40)"/>
</clipPath>
</defs>
</svg>
