<svg width="25" height="24" viewBox="0 0 25 24" fill="none" xmlns="http://www.w3.org/2000/svg">
<path d="M3.14352 6.2608L4.90653 6.2608L4.90653 5.48429C4.90653 5.29159 5.04189 5.12638 5.22858 5.09155C5.5522 5.03084 5.90322 5.00016 6.27155 5.00016C7.54385 5.00016 9.05684 5.35471 10.7683 6.05422C11.7023 6.43593 12.4302 6.81412 12.7617 6.99435C13.0933 6.81412 13.821 6.43593 14.7551 6.05422C16.4667 5.35455 17.9797 5 19.252 5C19.6203 5 19.9713 5.03068 20.2949 5.09139C20.4816 5.12638 20.617 5.2916 20.617 5.48413L20.617 6.26064L22.3565 6.26064C22.5739 6.26064 22.75 6.43943 22.75 6.66009L22.75 19.6006C22.75 19.8212 22.5739 20 22.3565 20L12.7633 20L12.7618 20L12.7604 20L3.14352 20C2.92614 20 2.75 19.8212 2.75 19.6006L2.75 6.66025C2.75 6.43959 2.92614 6.2608 3.14352 6.2608ZM21.1523 7.84917L20.6172 7.84917L20.6172 17.3729C20.6172 17.4926 20.5647 17.606 20.4736 17.6819C20.3825 17.7578 20.263 17.7883 20.1475 17.7649C20.1434 17.7641 19.7311 17.684 19.0097 17.684C18.0203 17.684 16.5827 17.8278 14.8275 18.4116L21.1523 18.4116L21.1523 7.84917ZM4.37135 18.4116L10.6964 18.4116C8.94114 17.8278 7.50356 17.684 6.51411 17.684C5.79272 17.684 5.38047 17.7641 5.37717 17.7647C5.26163 17.7882 5.14169 17.7578 5.05055 17.6819C4.95942 17.606 4.90653 17.4927 4.90653 17.3731L4.90653 7.84917L4.37135 7.84917L4.37135 18.4116Z" fill="white"/>
</svg>
