<svg width="25" height="25" viewBox="0 0 25 25" fill="none" xmlns="http://www.w3.org/2000/svg">
<path fill-rule="evenodd" clip-rule="evenodd" d="M13.9824 2.5H15.75C16.0261 2.5 16.25 2.72386 16.25 3V5C16.25 5.27614 16.0261 5.5 15.75 5.5H8.75C8.47386 5.5 8.25 5.27614 8.25 5V3C8.25 2.72386 8.47386 2.5 8.75 2.5H10.5176C10.8634 1.9022 11.5097 1.5 12.25 1.5C12.9903 1.5 13.6366 1.9022 13.9824 2.5Z" fill="white"/>
<path fill-rule="evenodd" clip-rule="evenodd" d="M7.25 5V3.5H5.25C4.69772 3.5 4.25 3.94772 4.25 4.5V22.5C4.25 23.0523 4.69772 23.5 5.25 23.5H19.25C19.8023 23.5 20.25 23.0523 20.25 22.5V4.5C20.25 3.94772 19.8023 3.5 19.25 3.5H17.25V5C17.25 5.82843 16.5784 6.5 15.75 6.5H8.75C7.92157 6.5 7.25 5.82843 7.25 5ZM15.3357 12.9685C15.5944 12.6451 15.542 12.1731 15.2185 11.9143C14.8951 11.6556 14.4231 11.708 14.1643 12.0315L11.9186 14.8387L10.7803 13.7004C10.4874 13.4075 10.0126 13.4075 9.71967 13.7004C9.42678 13.9933 9.42678 14.4682 9.71967 14.7611L11.4504 16.4919C11.6013 16.6427 11.8092 16.7222 12.0222 16.7104C12.2353 16.6986 12.4332 16.5966 12.5664 16.4301L15.3357 12.9685Z" fill="white"/>
</svg>
