<svg width="24" height="24" viewBox="0 0 24 24" fill="none" xmlns="http://www.w3.org/2000/svg">
<path fill-rule="evenodd" clip-rule="evenodd" d="M2.58783 5.42891L0.472219 5.42891C0.211367 5.42891 0 5.63154 0 5.88161V20.5473C0 20.7974 0.211365 21 0.472218 21L23.5278 21C23.7886 21 24 20.7974 24 20.5473L24 5.88143C24 5.63136 23.7886 5.42873 23.5278 5.42873L21.4404 5.42873V4.54868C21.4404 4.33048 21.278 4.14324 21.0539 4.10358C20.6656 4.03477 20.2444 4 19.8024 4C18.2756 4 16.46 4.40182 14.4061 5.19478C13.2852 5.62738 12.412 6.05601 12.014 6.26027C11.6162 6.05601 10.7428 5.62738 9.62196 5.19478C7.5682 4.402 5.75262 4.00018 4.22585 4.00018C3.78386 4.00018 3.36264 4.03495 2.97429 4.10376C2.75027 4.14323 2.58783 4.33047 2.58783 4.54886L2.58783 5.42891ZM21.4406 7.22906H22.0828L22.0828 19.1999H14.493C16.5992 18.5382 18.3243 18.3752 19.5117 18.3752C20.3773 18.3752 20.872 18.4659 20.8769 18.4668C21.0156 18.4935 21.159 18.4589 21.2683 18.3729C21.3777 18.2868 21.4406 18.1583 21.4406 18.0226L21.4406 7.22906ZM9.53564 19.1999L1.94562 19.1999L1.94562 7.22906H2.58783L2.58783 18.0228C2.58783 18.1585 2.6513 18.2868 2.76066 18.3729C2.87003 18.4589 3.01396 18.4933 3.1526 18.4667C3.15832 18.4656 3.65281 18.3752 4.51693 18.3752C5.70427 18.3752 7.42937 18.5382 9.53564 19.1999ZM10.4734 9.04433L14.8414 11.7098V11.7131C15.0529 11.8399 15.0529 12.1635 14.8414 12.2902L10.4734 14.9557C10.262 15.0824 10 14.9223 10 14.6654V9.33456C10 9.07769 10.262 8.91756 10.4734 9.04433Z" fill="white"/>
</svg>
