<svg width="25" height="24" viewBox="0 0 25 24" fill="none" xmlns="http://www.w3.org/2000/svg">
<path d="M18.578 6.51717C17.5398 5.11482 16.0474 4.11585 14.3552 3.69047C12.663 3.26509 10.8756 3.43962 9.29769 4.18432C7.71973 4.92903 6.44881 6.19783 5.70147 7.77454C5.19357 8.84606 4.94886 10.0147 4.97681 11.185" stroke="white" stroke-width="2" stroke-linecap="square"/>
<path d="M5.02504 13.1211L7.30008 10.8461H2.75L5.02504 13.1211Z" stroke="white" stroke-width="2" stroke-linecap="round" stroke-linejoin="round"/>
<path d="M6.37192 16.725C7.41016 18.1274 8.90253 19.1263 10.5947 19.5517C12.287 19.9771 14.0743 19.8026 15.6523 19.0579C17.2302 18.3132 18.5012 17.0444 19.2485 15.4677C19.6689 14.5807 19.909 13.6272 19.9634 12.6613" stroke="white" stroke-width="2" stroke-linecap="square"/>
<path d="M19.9248 10.1211L17.6999 12.3461L22.1498 12.3461L19.9248 10.1211Z" stroke="white" stroke-width="2" stroke-linecap="round" stroke-linejoin="round"/>
</svg>
