<svg width="209" height="76" viewBox="0 0 209 76" fill="none" xmlns="http://www.w3.org/2000/svg">
<g clip-path="url(#clip0_3619_320428)">
<path d="M90.4522 71.109C93.5562 69.2838 94.0745 66.9295 94.0745 66.9295C94.0745 66.9295 92.0219 65.6246 88.5203 66.4994C90.679 63.6394 90.2431 61.2707 90.2431 61.2707C90.2431 61.2707 87.8429 60.8405 84.9451 62.971C85.8315 59.5152 84.5092 57.4894 84.5092 57.4894C84.5092 57.4894 82.1238 58.0009 80.2743 61.0643C79.7531 57.5359 77.7475 56.1641 77.7475 56.1641C77.7475 56.1641 75.742 57.5388 75.2207 61.0643C73.3713 58.0009 70.9859 57.4894 70.9859 57.4894C70.9859 57.4894 69.6636 59.5152 70.55 62.971C67.6521 60.8405 65.252 61.2707 65.252 61.2707C65.252 61.2707 64.8161 63.6394 66.9748 66.4994C63.4732 65.6246 61.4205 66.9295 61.4205 66.9295C61.4205 66.9295 61.9389 69.2838 65.0429 71.109C61.4677 71.6235 60.0776 73.6028 60.0776 73.6028C60.0776 73.6028 61.4706 75.582 65.0429 76.0965H90.4493C94.0245 75.582 95.4145 73.6028 95.4145 73.6028C95.4145 73.6028 94.0215 71.6235 90.4493 71.109H90.4522Z" fill="#638021"/>
<path d="M91.8835 51.5864H86.5825V76.0965H91.8835V51.5864Z" fill="#876B5C"/>
<path d="M100.718 65.5373H77.7476L89.233 28.7969L100.718 65.5373Z" fill="#80A62C"/>
<path d="M98.7394 50.6216H79.7266L89.233 20.2144L98.7394 50.6216Z" fill="#80A62C"/>
<path d="M96.457 35.575H82.0089L89.233 12.4658L96.457 35.575Z" fill="#80A62C"/>
<path d="M94.3573 22.7342H84.1088L89.233 6.3418L94.3573 22.7342Z" fill="#80A62C"/>
<path d="M14.1359 51.5864H8.83496V76.0965H14.1359V51.5864Z" fill="#B09069"/>
<path d="M22.9709 65.5373H0L11.4854 28.7969L22.9709 65.5373Z" fill="#638021"/>
<path d="M20.9918 50.6216H1.979L11.4854 20.2144L20.9918 50.6216Z" fill="#638021"/>
<path d="M18.7095 35.575H4.26141L11.4855 12.4658L18.7095 35.575Z" fill="#638021"/>
<path d="M18.7095 35.575H4.26141L11.4855 12.4658L18.7095 35.575Z" fill="#638021"/>
<path d="M16.6097 22.7342H6.36115L11.4854 6.3418L16.6097 22.7342Z" fill="#638021"/>
<path d="M16.6097 22.7342H6.36115L11.4854 6.3418L16.6097 22.7342Z" fill="#638021"/>
<path d="M60.0777 45.2884C60.0777 61.0181 55.3303 65.6335 49.4757 65.6335C43.6211 65.6335 38.8738 61.0181 38.8738 45.2884C38.8738 29.5587 43.6211 16.8052 49.4757 16.8052C55.3303 16.8052 60.0777 29.5587 60.0777 45.2884Z" fill="#709126"/>
<path d="M49.4757 44.707L46.8252 76.0967H52.1262L49.4757 44.707Z" fill="#B09069"/>
<path d="M130.757 51.6827C130.757 63.2387 124.429 65.6336 116.621 65.6336C108.814 65.6336 102.485 63.2387 102.485 51.6827C102.485 40.1266 108.814 23.7808 116.621 23.7808C124.429 23.7808 130.757 40.1266 130.757 51.6827Z" fill="#638021"/>
<path d="M116.621 41.2192L114.854 76.0966H118.388L116.621 41.2192Z" fill="#B09069"/>
<path d="M176.746 19.6592C174.231 13.5469 172.276 9.83247 172.282 9.82666C172.282 9.82666 170.332 13.5469 167.817 19.6592C165.396 25.7685 162.416 40.3763 162.569 49.8979C163.261 68.8828 172.293 70.8679 172.29 70.865C172.29 70.8534 181.302 68.8828 181.994 49.8979C182.15 40.3792 179.167 25.7685 176.746 19.6592Z" fill="#709126"/>
<path d="M172.282 41.2192L170.515 76.0966H174.049L172.282 41.2192Z" fill="#B09069"/>
<path d="M45.2848 52.1187C45.2848 52.1187 37.03 57.917 36.9711 76.0969H40.296C40.296 76.0969 39.009 59.8469 45.2818 52.1187H45.2848Z" fill="#80A62C"/>
<path d="M36.971 76.0966H33.6461C33.6461 76.0966 35.5074 51.2755 24.499 41.2192C24.499 41.2192 36.971 49.1742 36.971 76.0966Z" fill="#80A62C"/>
<path d="M31.1488 76.0968H34.4737C34.4737 76.0968 34.0585 56.8038 49.4401 45.5791C49.4401 45.5791 31.1459 56.1528 31.1459 76.0968H31.1488Z" fill="#80A62C"/>
<path d="M30.2241 76.0968H26.8993C26.8993 76.0968 28.5514 60.184 19.8313 45.5791C19.8313 45.5791 30.2241 55.7313 30.2241 76.0968Z" fill="#80A62C"/>
<path d="M14.1033 60.8379C14.1033 60.8379 24.4195 64.5291 24.4961 76.0967H21.1712C21.1712 76.0967 22.2138 65.0871 14.1062 60.8379H14.1033Z" fill="#80A62C"/>
<path d="M28.6544 76.0969H25.3296C25.3296 76.0969 27.0965 64.0002 18.2616 52.1187C18.2616 52.1187 28.6544 59.7481 28.6544 76.0969Z" fill="#80A62C"/>
<path d="M148.963 12.7247C152.867 12.7247 156.031 10.5385 156.031 7.84182C156.031 5.1451 152.867 2.95898 148.963 2.95898C145.06 2.95898 141.895 5.1451 141.895 7.84182C141.895 10.5385 145.06 12.7247 148.963 12.7247Z" fill="#95C133"/>
<path d="M157.957 51.1417C165.055 51.1417 170.809 47.1664 170.809 42.2625C170.809 37.3587 165.055 33.3833 157.957 33.3833C150.859 33.3833 145.105 37.3587 145.105 42.2625C145.105 47.1664 150.859 51.1417 157.957 51.1417Z" fill="#95C133"/>
<path d="M155.389 35.6012C161.776 35.6012 166.954 32.0241 166.954 27.6114C166.954 23.1987 161.776 19.6216 155.389 19.6216C149.002 19.6216 143.824 23.1987 143.824 27.6114C143.824 32.0241 149.002 35.6012 155.389 35.6012Z" fill="#95C133"/>
<path d="M152.818 21.4641C157.787 21.4641 161.815 18.682 161.815 15.2501C161.815 11.8182 157.787 9.03613 152.818 9.03613C147.849 9.03613 143.821 11.8182 143.821 15.2501C143.821 18.682 147.849 21.4641 152.818 21.4641Z" fill="#95C133"/>
<path d="M134.827 16.314C139.44 16.314 143.179 13.731 143.179 10.5447C143.179 7.35839 139.44 4.77539 134.827 4.77539C130.215 4.77539 126.475 7.35839 126.475 10.5447C126.475 13.731 130.215 16.314 134.827 16.314Z" fill="#95C133"/>
<path d="M142.537 8.87629C146.086 8.87629 148.963 6.88927 148.963 4.43815C148.963 1.98703 146.086 0 142.537 0C138.988 0 136.111 1.98703 136.111 4.43815C136.111 6.88927 138.988 8.87629 142.537 8.87629Z" fill="#95C133"/>
<path d="M129.685 29.0673C135.718 29.0673 140.608 25.6893 140.608 21.5222C140.608 17.3551 135.718 13.9771 129.685 13.9771C123.653 13.9771 118.762 17.3551 118.762 21.5222C118.762 25.6893 123.653 29.0673 129.685 29.0673Z" fill="#95C133"/>
<path d="M127.117 44.547C134.215 44.547 139.969 40.5716 139.969 35.6678C139.969 30.7639 134.215 26.7886 127.117 26.7886C120.019 26.7886 114.265 30.7639 114.265 35.6678C114.265 40.5716 120.019 44.547 127.117 44.547Z" fill="#95C133"/>
<path d="M142.537 4.43799L139.966 76.0965H145.108L142.537 4.43799Z" fill="#876B5C"/>
<path d="M152.818 15.25L142.537 21.1268V23.3764L152.818 15.25Z" fill="#876B5C"/>
<path d="M142.537 36.6591L155.389 27.6113L142.537 39.4725V36.6591Z" fill="#876B5C"/>
<path d="M142.537 54.33V57.7073L157.957 42.1084L142.537 54.33Z" fill="#876B5C"/>
<path d="M134.827 10.5444L142.537 16.4213V18.6738L134.827 10.5444Z" fill="#876B5C"/>
<path d="M148.963 7.8418L142.537 12.7392V14.6138L148.963 7.8418Z" fill="#876B5C"/>
<path d="M142.537 30.5702L129.685 21.5225L142.537 33.3866V30.5702Z" fill="#876B5C"/>
<path d="M142.537 47.7324V51.1097L127.117 35.5137L142.537 47.7324Z" fill="#876B5C"/>
<path d="M130.498 63.0176H129.944V76.0966H130.498V63.0176Z" fill="#95C133"/>
<path d="M129.956 61.7763L128.454 63.8602C128.233 64.1857 128.283 64.6014 128.563 64.7583C128.843 64.9153 129.232 64.7525 129.405 64.4037L130.483 62.0786L131.985 59.9946C132.206 59.6691 132.156 59.2535 131.876 59.0966C131.597 58.9396 131.208 59.1024 131.034 59.4511L129.956 61.7763Z" fill="#FFFDF6"/>
<path d="M130.068 61.6659L127.712 62.7297C127.356 62.9041 127.191 63.2877 127.353 63.5609C127.515 63.8341 127.933 63.8864 128.263 63.6684L130.375 62.1862L132.731 61.1224C133.087 60.948 133.252 60.5644 133.09 60.2912C132.928 60.0179 132.51 59.9656 132.18 60.1836L130.068 61.6659Z" fill="#FFFDF6"/>
<path d="M130.221 61.6254L127.642 61.3842C127.247 61.358 126.908 61.608 126.908 61.9277C126.908 62.2474 127.247 62.4974 127.642 62.4712L130.221 62.23L132.801 62.4712C133.196 62.4974 133.534 62.2474 133.534 61.9277C133.534 61.608 133.196 61.358 132.801 61.3842L130.221 61.6254Z" fill="#FFFDF6"/>
<path d="M130.374 61.6658L128.263 60.1835C127.933 59.9656 127.512 60.015 127.353 60.2911C127.194 60.5672 127.359 60.9508 127.712 61.1223L130.068 62.1861L132.18 63.6684C132.51 63.8863 132.931 63.8369 133.09 63.5608C133.249 63.2847 133.084 62.9011 132.73 62.7296L130.374 61.6658Z" fill="#FFFDF6"/>
<path d="M130.483 61.7765L129.406 59.4514C129.229 59.0997 128.84 58.9369 128.563 59.0968C128.286 59.2566 128.233 59.6693 128.454 59.9949L129.956 62.0788L131.034 64.4039C131.211 64.7556 131.6 64.9184 131.876 64.7585C132.153 64.5987 132.206 64.186 131.985 63.8604L130.483 61.7765Z" fill="#FFFDF6"/>
<path d="M130.525 61.9275L130.769 59.3814C130.796 58.992 130.542 58.6577 130.218 58.6577C129.894 58.6577 129.641 58.992 129.668 59.3814L129.912 61.9275L129.668 64.4735C129.641 64.863 129.894 65.1972 130.218 65.1972C130.542 65.1972 130.796 64.863 130.769 64.4735L130.525 61.9275Z" fill="#FFFDF6"/>
<path d="M130.221 64.1072C131.441 64.1072 132.43 63.1313 132.43 61.9274C132.43 60.7235 131.441 59.7476 130.221 59.7476C129.001 59.7476 128.013 60.7235 128.013 61.9274C128.013 63.1313 129.001 64.1072 130.221 64.1072Z" fill="#FFCA1E"/>
<path d="M159.085 63.0176H158.531V76.0966H159.085V63.0176Z" fill="#95C133"/>
<path d="M158.543 61.7763L157.041 63.8602C156.82 64.1857 156.87 64.6014 157.15 64.7583C157.43 64.9153 157.819 64.7525 157.992 64.4037L159.07 62.0786L160.572 59.9946C160.793 59.6691 160.743 59.2535 160.463 59.0966C160.183 58.9396 159.795 59.1024 159.621 59.4511L158.543 61.7763Z" fill="#FFFDF6"/>
<path d="M158.655 61.6659L156.299 62.7297C155.943 62.9041 155.778 63.2877 155.94 63.5609C156.102 63.8341 156.52 63.8864 156.85 63.6684L158.961 62.1862L161.317 61.1224C161.674 60.948 161.839 60.5644 161.677 60.2912C161.515 60.0179 161.097 59.9656 160.767 60.1836L158.655 61.6659Z" fill="#FFFDF6"/>
<path d="M158.808 61.6254L156.228 61.3842C155.834 61.358 155.495 61.608 155.495 61.9277C155.495 62.2474 155.834 62.4974 156.228 62.4712L158.808 62.23L161.388 62.4712C161.783 62.4974 162.121 62.2474 162.121 61.9277C162.121 61.608 161.783 61.358 161.388 61.3842L158.808 61.6254Z" fill="#FFFDF6"/>
<path d="M158.961 61.6658L156.85 60.1835C156.52 59.9656 156.099 60.015 155.94 60.2911C155.781 60.5672 155.946 60.9508 156.299 61.1223L158.655 62.1861L160.767 63.6684C161.096 63.8863 161.518 63.8369 161.677 63.5608C161.836 63.2847 161.671 62.9011 161.317 62.7296L158.961 61.6658Z" fill="#FFFDF6"/>
<path d="M159.073 61.7765L157.995 59.4514C157.819 59.0997 157.43 58.9369 157.153 59.0968C156.876 59.2566 156.823 59.6693 157.044 59.9949L158.546 62.0788L159.624 64.4039C159.801 64.7556 160.189 64.9184 160.466 64.7585C160.743 64.5987 160.796 64.186 160.575 63.8604L159.073 61.7765Z" fill="#FFFDF6"/>
<path d="M159.112 61.9275L159.356 59.3814C159.383 58.992 159.129 58.6577 158.805 58.6577C158.481 58.6577 158.228 58.992 158.255 59.3814L158.499 61.9275L158.255 64.4735C158.228 64.863 158.481 65.1972 158.805 65.1972C159.129 65.1972 159.383 64.863 159.356 64.4735L159.112 61.9275Z" fill="#FFFDF6"/>
<path d="M158.808 64.1072C160.028 64.1072 161.017 63.1313 161.017 61.9274C161.017 60.7235 160.028 59.7476 158.808 59.7476C157.588 59.7476 156.599 60.7235 156.599 61.9274C156.599 63.1313 157.588 64.1072 158.808 64.1072Z" fill="#FFCA1E"/>
<path d="M169.687 66.9214H169.133V80.0004H169.687V66.9214Z" fill="#95C133"/>
<path d="M169.145 65.6801L167.643 67.764C167.422 68.0896 167.472 68.5052 167.752 68.6621C168.032 68.8191 168.421 68.6563 168.594 68.3075L169.672 65.9824L171.174 63.8985C171.395 63.5729 171.345 63.1573 171.065 63.0004C170.785 62.8434 170.397 63.0062 170.223 63.3549L169.145 65.6801Z" fill="#FFFDF6"/>
<path d="M169.257 65.5697L166.901 66.6335C166.545 66.8079 166.38 67.1915 166.542 67.4647C166.704 67.7379 167.122 67.7902 167.452 67.5723L169.563 66.09L171.919 65.0262C172.276 64.8518 172.441 64.4682 172.279 64.195C172.117 63.9218 171.698 63.8694 171.369 64.0874L169.257 65.5697Z" fill="#FFFDF6"/>
<path d="M169.41 65.5292L166.83 65.288C166.436 65.2619 166.097 65.5118 166.097 65.8315C166.097 66.1512 166.436 66.4012 166.83 66.375L169.41 66.1338L171.99 66.375C172.385 66.4012 172.723 66.1512 172.723 65.8315C172.723 65.5118 172.385 65.2619 171.99 65.288L169.41 65.5292Z" fill="#FFFDF6"/>
<path d="M169.563 65.5696L167.452 64.0873C167.122 63.8694 166.701 63.9188 166.542 64.1949C166.383 64.471 166.548 64.8546 166.901 65.0261L169.257 66.0899L171.369 67.5722C171.698 67.7902 172.119 67.7407 172.279 67.4646C172.438 67.1885 172.273 66.8049 171.919 66.6334L169.563 65.5696Z" fill="#FFFDF6"/>
<path d="M169.675 65.6803L168.597 63.3552C168.421 63.0035 168.032 62.8407 167.755 63.0006C167.478 63.1604 167.425 63.5732 167.646 63.8987L169.148 65.9826L170.226 68.3078C170.403 68.6594 170.791 68.8222 171.068 68.6623C171.345 68.5025 171.398 68.0898 171.177 67.7642L169.675 65.6803Z" fill="#FFFDF6"/>
<path d="M169.714 65.8313L169.958 63.2852C169.984 62.8958 169.731 62.5615 169.407 62.5615C169.083 62.5615 168.83 62.8958 168.857 63.2852L169.101 65.8313L168.857 68.3773C168.83 68.7668 169.083 69.101 169.407 69.101C169.731 69.101 169.984 68.7668 169.958 68.3773L169.714 65.8313Z" fill="#FFFDF6"/>
<path d="M169.41 68.011C170.63 68.011 171.619 67.0351 171.619 65.8312C171.619 64.6273 170.63 63.6514 169.41 63.6514C168.19 63.6514 167.201 64.6273 167.201 65.8312C167.201 67.0351 168.19 68.011 169.41 68.011Z" fill="#FFCA1E"/>
<path d="M185.56 76.0257H182.416C182.416 76.0257 183.955 53.4762 199.057 40.5146C199.057 40.5146 187.242 51.2568 185.563 76.0257H185.56Z" fill="#80A62C"/>
<path d="M207.081 61.8242C207.081 61.8242 195.471 69.5923 194.206 76.0227H191.885C191.885 76.0227 194.63 68.521 207.081 61.8242Z" fill="#80A62C"/>
<path d="M191.237 58.27C191.237 58.27 179.585 64.3631 176.186 76.0256H173.471C176.21 68.5061 181.459 62.336 191.237 58.27Z" fill="#80A62C"/>
<path d="M191.237 62.0405C191.237 62.0405 182.111 67.6809 179.932 76.026H177.536C177.536 76.026 179.976 66.7043 191.237 62.0405Z" fill="#80A62C"/>
<path d="M191.669 76.0256H194.34C194.34 76.0256 193.28 61.9987 199.391 57.0479C199.391 57.0479 191.669 61.6436 191.669 76.0256Z" fill="#80A62C"/>
<path d="M199.702 76.0259H202.397C202.397 76.0259 202.977 71.3355 209 67.2251C209 67.2251 201.36 70.3442 199.699 76.0259H199.702Z" fill="#80A62C"/>
<path d="M193.09 76.0259H195.785C195.785 76.0259 196.365 71.3355 202.391 67.2251C202.391 67.2251 194.971 69.6339 193.09 76.0259Z" fill="#80A62C"/>
<path d="M180.577 61.8213C180.577 61.8213 185.33 65.257 185.38 76.0257H187.681C187.681 76.0257 187.989 67.7664 180.577 61.8213Z" fill="#80A62C"/>
<path d="M197.407 76.0258H199.714C199.714 76.0258 197.407 65.9644 189.333 62.2979C189.333 62.2979 196.184 66.6746 197.407 76.0258Z" fill="#80A62C"/>
<path d="M199.14 60.3179C199.14 60.3179 190.615 68.4795 189.803 76.0256H187.411C187.411 76.0256 188.838 68.3907 199.14 60.3179Z" fill="#80A62C"/>
<path d="M149.617 40.3475C151.796 40.7311 154.8 39.6092 155.419 37.5137C155.454 37.3916 155.501 37.2666 155.56 37.1358C155.896 36.4383 156.564 35.9878 157.303 35.9878C158.11 35.9878 159.076 36.5487 159.162 37.6212V38.6995C158.888 39.1907 158.384 40.1527 158.337 40.7108C158.21 42.225 157.395 43.5184 156.102 44.1985C155.536 44.5211 154.856 44.7071 154.034 44.7071C151.602 44.7071 149.626 42.7627 149.617 40.3649C149.532 40.3475 149.417 40.3126 149.617 40.3475Z" fill="white"/>
<path d="M159.165 37.6211L160.304 38.0367L159.165 38.6965C159.009 38.3215 158.979 37.9786 159.165 37.6182V37.6211Z" fill="#F99428"/>
<path d="M157.727 37.8043C157.931 37.8043 158.096 37.6416 158.096 37.4409C158.096 37.2403 157.931 37.0776 157.727 37.0776C157.524 37.0776 157.359 37.2403 157.359 37.4409C157.359 37.6416 157.524 37.8043 157.727 37.8043Z" fill="#4D4C4D"/>
<path d="M150.88 41.3211C151.363 42.8906 153.045 43.7742 154.635 43.2975C156.226 42.8209 157.124 41.1613 156.638 39.5918L150.88 41.3211Z" fill="#F99428"/>
</g>
<defs>
<clipPath id="clip0_3619_320428">
<rect width="209" height="76" fill="white"/>
</clipPath>
</defs>
</svg>
