<svg width="205" height="81" viewBox="0 0 205 81" fill="none" xmlns="http://www.w3.org/2000/svg">
<g clip-path="url(#clip0_3619_321950)">
<g clip-path="url(#clip1_3619_321950)">
<path d="M123.678 76.1628C126.729 74.3486 127.239 72.0086 127.239 72.0086C127.239 72.0086 125.221 70.7115 121.778 71.581C123.901 68.7383 123.472 66.3839 123.472 66.3839C123.472 66.3839 121.112 65.9563 118.263 68.0739C119.135 64.639 117.835 62.6254 117.835 62.6254C117.835 62.6254 115.489 63.1339 113.671 66.1788C113.158 62.6717 111.186 61.3081 111.186 61.3081C111.186 61.3081 109.215 62.6746 108.702 66.1788C106.884 63.1339 104.538 62.6254 104.538 62.6254C104.538 62.6254 103.238 64.639 104.11 68.0739C101.261 65.9563 98.901 66.3839 98.901 66.3839C98.901 66.3839 98.4724 68.7383 100.595 71.581C97.1521 70.7115 95.1339 72.0086 95.1339 72.0086C95.1339 72.0086 95.6435 74.3486 98.6954 76.1628C95.1803 76.6741 93.8136 78.6415 93.8136 78.6415C93.8136 78.6415 95.1832 80.6088 98.6954 81.1202H123.675C127.19 80.6088 128.556 78.6415 128.556 78.6415C128.556 78.6415 127.187 76.6741 123.675 76.1628H123.678Z" fill="#638021"/>
<path d="M123.678 76.1628C126.729 74.3486 127.239 72.0086 127.239 72.0086C127.239 72.0086 125.221 70.7115 121.778 71.581C123.901 68.7383 123.472 66.3839 123.472 66.3839C123.472 66.3839 121.112 65.9563 118.263 68.0739C119.135 64.639 117.835 62.6254 117.835 62.6254C117.835 62.6254 115.489 63.1339 113.671 66.1788C113.158 62.6717 111.186 61.3081 111.186 61.3081C111.186 61.3081 109.215 62.6746 108.702 66.1788C106.884 63.1339 104.538 62.6254 104.538 62.6254C104.538 62.6254 103.238 64.639 104.11 68.0739C101.261 65.9563 98.901 66.3839 98.901 66.3839C98.901 66.3839 98.4724 68.7383 100.595 71.581C97.1521 70.7115 95.1339 72.0086 95.1339 72.0086C95.1339 72.0086 95.6435 74.3486 98.6954 76.1628C95.1803 76.6741 93.8136 78.6415 93.8136 78.6415C93.8136 78.6415 95.1832 80.6088 98.6954 81.1202H123.675C127.19 80.6088 128.556 78.6415 128.556 78.6415C128.556 78.6415 127.187 76.6741 123.675 76.1628H123.678Z" fill="black" fill-opacity="0.6"/>
<path d="M142.458 61.3053C142.458 71.4222 139.438 74.3891 135.714 74.3891C131.99 74.3891 128.97 71.4222 128.97 61.3053C128.97 51.1884 131.99 42.9868 135.714 42.9868C139.438 42.9868 142.458 51.1884 142.458 61.3053Z" fill="#638021"/>
<path d="M142.458 61.3053C142.458 71.4222 139.438 74.3891 135.714 74.3891C131.99 74.3891 128.97 71.4222 128.97 61.3053C128.97 51.1884 131.99 42.9868 135.714 42.9868C139.438 42.9868 142.458 51.1884 142.458 61.3053Z" fill="black" fill-opacity="0.6"/>
<path d="M135.714 60.9297L134.026 81.1202H137.399L135.714 60.9297Z" fill="#B09069"/>
<path d="M135.714 60.9297L134.026 81.1202H137.399L135.714 60.9297Z" fill="black" fill-opacity="0.6"/>
<path d="M51.7104 61.3053C51.7104 71.4222 48.6904 74.3891 44.9668 74.3891C41.2433 74.3891 38.2233 71.4222 38.2233 61.3053C38.2233 51.1884 41.2433 42.9868 44.9668 42.9868C48.6904 42.9868 51.7104 51.1884 51.7104 61.3053Z" fill="#638021"/>
<path d="M51.7104 61.3053C51.7104 71.4222 48.6904 74.3891 44.9668 74.3891C41.2433 74.3891 38.2233 71.4222 38.2233 61.3053C38.2233 51.1884 41.2433 42.9868 44.9668 42.9868C48.6904 42.9868 51.7104 51.1884 51.7104 61.3053Z" fill="black" fill-opacity="0.6"/>
<path d="M44.964 60.9297L43.2788 81.1202H46.652L44.964 60.9297Z" fill="#B09069"/>
<path d="M44.964 60.9297L43.2788 81.1202H46.652L44.964 60.9297Z" fill="black" fill-opacity="0.6"/>
<path d="M155.948 61.3053C155.948 71.4222 152.928 74.3891 149.204 74.3891C145.481 74.3891 142.461 71.4222 142.461 61.3053C142.461 51.1884 145.481 42.9868 149.204 42.9868C152.928 42.9868 155.948 51.1884 155.948 61.3053Z" fill="#638021"/>
<path d="M155.948 61.3053C155.948 71.4222 152.928 74.3891 149.204 74.3891C145.481 74.3891 142.461 71.4222 142.461 61.3053C142.461 51.1884 145.481 42.9868 149.204 42.9868C152.928 42.9868 155.948 51.1884 155.948 61.3053Z" fill="black" fill-opacity="0.6"/>
<path d="M149.201 60.9297L147.516 81.1202H150.889L149.201 60.9297Z" fill="#B09069"/>
<path d="M149.201 60.9297L147.516 81.1202H150.889L149.201 60.9297Z" fill="black" fill-opacity="0.6"/>
<path d="M87.7332 67.0801C94.9292 67.0801 100.763 61.2598 100.763 54.0801C100.763 46.9004 94.9292 41.0801 87.7332 41.0801C80.5371 41.0801 74.7035 46.9004 74.7035 54.0801C74.7035 61.2598 80.5371 67.0801 87.7332 67.0801Z" fill="#709126"/>
<path d="M87.7332 67.0801C94.9292 67.0801 100.763 61.2598 100.763 54.0801C100.763 46.9004 94.9292 41.0801 87.7332 41.0801C80.5371 41.0801 74.7035 46.9004 74.7035 54.0801C74.7035 61.2598 80.5371 67.0801 87.7332 67.0801Z" fill="black" fill-opacity="0.6"/>
<path d="M68.6229 69.1602C75.819 69.1602 81.6526 63.3399 81.6526 56.1602C81.6526 48.9805 75.819 43.1602 68.6229 43.1602C61.4268 43.1602 55.5933 48.9805 55.5933 56.1602C55.5933 63.3399 61.4268 69.1602 68.6229 69.1602Z" fill="#709126"/>
<path d="M68.6229 69.1602C75.819 69.1602 81.6526 63.3399 81.6526 56.1602C81.6526 48.9805 75.819 43.1602 68.6229 43.1602C61.4268 43.1602 55.5933 48.9805 55.5933 56.1602C55.5933 63.3399 61.4268 69.1602 68.6229 69.1602Z" fill="black" fill-opacity="0.6"/>
<path d="M79.8141 49.7829C85.4965 48.8626 89.3554 43.5205 88.433 37.8509C87.5106 32.1814 82.1562 28.3313 76.4738 29.2516C70.7913 30.1719 66.9324 35.5141 67.8548 41.1836C68.7772 46.8532 74.1316 50.7032 79.8141 49.7829Z" fill="#709126"/>
<path d="M79.8141 49.7829C85.4965 48.8626 89.3554 43.5205 88.433 37.8509C87.5106 32.1814 82.1562 28.3313 76.4738 29.2516C70.7913 30.1719 66.9324 35.5141 67.8548 41.1836C68.7772 46.8532 74.1316 50.7032 79.8141 49.7829Z" fill="black" fill-opacity="0.6"/>
<path d="M81.4789 72.8002C86.0844 72.8002 89.8179 69.0752 89.8179 64.4802C89.8179 59.8852 86.0844 56.1602 81.4789 56.1602C76.8734 56.1602 73.1399 59.8852 73.1399 64.4802C73.1399 69.0752 76.8734 72.8002 81.4789 72.8002Z" fill="#709126"/>
<path d="M81.4789 72.8002C86.0844 72.8002 89.8179 69.0752 89.8179 64.4802C89.8179 59.8852 86.0844 56.1602 81.4789 56.1602C76.8734 56.1602 73.1399 59.8852 73.1399 64.4802C73.1399 69.0752 76.8734 72.8002 81.4789 72.8002Z" fill="black" fill-opacity="0.6"/>
<path d="M78.1433 49.1201L80.7492 81.1204H75.5374L78.1433 49.1201Z" fill="#B09069"/>
<path d="M78.1433 49.1201L80.7492 81.1204H75.5374L78.1433 49.1201Z" fill="black" fill-opacity="0.6"/>
<path d="M193.708 65.5202C199.944 65.5202 205 60.4759 205 54.2535C205 48.0311 199.944 42.9868 193.708 42.9868C187.471 42.9868 182.415 48.0311 182.415 54.2535C182.415 60.4759 187.471 65.5202 193.708 65.5202Z" fill="#638021"/>
<path d="M193.708 65.5202C199.944 65.5202 205 60.4759 205 54.2535C205 48.0311 199.944 42.9868 193.708 42.9868C187.471 42.9868 182.415 48.0311 182.415 54.2535C182.415 60.4759 187.471 65.5202 193.708 65.5202Z" fill="black" fill-opacity="0.6"/>
<path d="M178.072 65.5202C184.309 65.5202 189.365 60.4759 189.365 54.2535C189.365 48.0311 184.309 42.9868 178.072 42.9868C171.836 42.9868 166.78 48.0311 166.78 54.2535C166.78 60.4759 171.836 65.5202 178.072 65.5202Z" fill="#638021"/>
<path d="M178.072 65.5202C184.309 65.5202 189.365 60.4759 189.365 54.2535C189.365 48.0311 184.309 42.9868 178.072 42.9868C171.836 42.9868 166.78 48.0311 166.78 54.2535C166.78 60.4759 171.836 65.5202 178.072 65.5202Z" fill="black" fill-opacity="0.6"/>
<path d="M187.527 49.7761C193.21 48.8558 197.068 43.5137 196.146 37.8441C195.224 32.1745 189.869 28.3245 184.187 29.2448C178.504 30.1651 174.645 35.5072 175.568 41.1768C176.49 46.8464 181.845 50.6964 187.527 49.7761Z" fill="#638021"/>
<path d="M187.527 49.7761C193.21 48.8558 197.068 43.5137 196.146 37.8441C195.224 32.1745 189.869 28.3245 184.187 29.2448C178.504 30.1651 174.645 35.5072 175.568 41.1768C176.49 46.8464 181.845 50.6964 187.527 49.7761Z" fill="black" fill-opacity="0.6"/>
<path d="M185.855 49.1201L188.461 81.1204H183.249L185.855 49.1201Z" fill="#B09069"/>
<path d="M185.855 49.1201L188.461 81.1204H183.249L185.855 49.1201Z" fill="black" fill-opacity="0.6"/>
<path d="M45.1695 56.8535C45.1695 68.3398 38.9471 70.7202 31.2712 70.7202C23.5953 70.7202 17.3729 68.3398 17.3729 56.8535C17.3729 45.3673 23.5953 29.1201 31.2712 29.1201C38.9471 29.1201 45.1695 45.3673 45.1695 56.8535Z" fill="#709126"/>
<path d="M45.1695 56.8535C45.1695 68.3398 38.9471 70.7202 31.2712 70.7202C23.5953 70.7202 17.3729 68.3398 17.3729 56.8535C17.3729 45.3673 23.5953 29.1201 31.2712 29.1201C38.9471 29.1201 45.1695 45.3673 45.1695 56.8535Z" fill="black" fill-opacity="0.6"/>
<path d="M31.2712 46.4536L29.5339 81.1204H33.0085L31.2712 46.4536Z" fill="#B09069"/>
<path d="M31.2712 46.4536L29.5339 81.1204H33.0085L31.2712 46.4536Z" fill="black" fill-opacity="0.6"/>
<path d="M90.0841 68.1201H89.5398V81.1201H90.0841V68.1201Z" fill="#95C133"/>
<path d="M90.0841 68.1201H89.5398V81.1201H90.0841V68.1201Z" fill="black" fill-opacity="0.6"/>
<path d="M89.5514 66.8862L88.0747 68.9576C87.8576 69.2811 87.9068 69.6942 88.1819 69.8502C88.4569 70.0062 88.8392 69.8445 89.01 69.4978L90.0697 67.1867L91.5464 65.1153C91.7636 64.7918 91.7144 64.3787 91.4393 64.2227C91.1642 64.0667 90.782 64.2284 90.6112 64.5751L89.5514 66.8862Z" fill="#FFFDF6"/>
<path d="M89.5514 66.8862L88.0747 68.9576C87.8576 69.2811 87.9068 69.6942 88.1819 69.8502C88.4569 70.0062 88.8392 69.8445 89.01 69.4978L90.0697 67.1867L91.5464 65.1153C91.7636 64.7918 91.7144 64.3787 91.4393 64.2227C91.1642 64.0667 90.782 64.2284 90.6112 64.5751L89.5514 66.8862Z" fill="black" fill-opacity="0.6"/>
<path d="M89.6614 66.7767L87.345 67.8341C86.9947 68.0074 86.8325 68.3887 86.9918 68.6603C87.1511 68.9319 87.5622 68.9839 87.8865 68.7672L89.9626 67.2939L92.279 66.2365C92.6293 66.0632 92.7915 65.6819 92.6322 65.4103C92.4729 65.1387 92.0618 65.0867 91.7375 65.3034L89.6614 66.7767Z" fill="#FFFDF6"/>
<path d="M89.6614 66.7767L87.345 67.8341C86.9947 68.0074 86.8325 68.3887 86.9918 68.6603C87.1511 68.9319 87.5622 68.9839 87.8865 68.7672L89.9626 67.2939L92.279 66.2365C92.6293 66.0632 92.7915 65.6819 92.6322 65.4103C92.4729 65.1387 92.0618 65.0867 91.7375 65.3034L89.6614 66.7767Z" fill="black" fill-opacity="0.6"/>
<path d="M89.812 66.7363L87.2755 66.4965C86.8876 66.4705 86.5546 66.7189 86.5546 67.0367C86.5546 67.3545 86.8876 67.6029 87.2755 67.5769L89.812 67.3372L92.3484 67.5769C92.7364 67.6029 93.0694 67.3545 93.0694 67.0367C93.0694 66.7189 92.7364 66.4705 92.3484 66.4965L89.812 66.7363Z" fill="#FFFDF6"/>
<path d="M89.812 66.7363L87.2755 66.4965C86.8876 66.4705 86.5546 66.7189 86.5546 67.0367C86.5546 67.3545 86.8876 67.6029 87.2755 67.5769L89.812 67.3372L92.3484 67.5769C92.7364 67.6029 93.0694 67.3545 93.0694 67.0367C93.0694 66.7189 92.7364 66.4705 92.3484 66.4965L89.812 66.7363Z" fill="black" fill-opacity="0.6"/>
<path d="M89.9626 66.7767L87.8865 65.3033C87.5622 65.0867 87.1482 65.1358 86.9918 65.4102C86.8355 65.6847 86.9976 66.066 87.3451 66.2364L89.6615 67.2938L91.7375 68.7671C92.0618 68.9838 92.4759 68.9347 92.6322 68.6602C92.7886 68.3858 92.6264 68.0044 92.279 67.834L89.9626 66.7767Z" fill="#FFFDF6"/>
<path d="M89.9626 66.7767L87.8865 65.3033C87.5622 65.0867 87.1482 65.1358 86.9918 65.4102C86.8355 65.6847 86.9976 66.066 87.3451 66.2364L89.6615 67.2938L91.7375 68.7671C92.0618 68.9838 92.4759 68.9347 92.6322 68.6602C92.7886 68.3858 92.6264 68.0044 92.279 67.834L89.9626 66.7767Z" fill="black" fill-opacity="0.6"/>
<path d="M90.0697 66.8864L89.01 64.5753C88.8362 64.2258 88.454 64.064 88.1818 64.2229C87.9097 64.3818 87.8575 64.792 88.0747 65.1155L89.5514 67.1869L90.6112 69.498C90.7849 69.8475 91.1671 70.0093 91.4393 69.8504C91.7114 69.6915 91.7636 69.2813 91.5464 68.9578L90.0697 66.8864Z" fill="#FFFDF6"/>
<path d="M90.0697 66.8864L89.01 64.5753C88.8362 64.2258 88.454 64.064 88.1818 64.2229C87.9097 64.3818 87.8575 64.792 88.0747 65.1155L89.5514 67.1869L90.6112 69.498C90.7849 69.8475 91.1671 70.0093 91.4393 69.8504C91.7114 69.6915 91.7636 69.2813 91.5464 68.9578L90.0697 66.8864Z" fill="black" fill-opacity="0.6"/>
<path d="M90.1102 67.0366L90.3505 64.506C90.3766 64.1188 90.1276 63.7866 89.8091 63.7866C89.4906 63.7866 89.2416 64.1188 89.2676 64.506L89.508 67.0366L89.2676 69.5673C89.2416 69.9544 89.4906 70.2866 89.8091 70.2866C90.1276 70.2866 90.3766 69.9544 90.3505 69.5673L90.1102 67.0366Z" fill="#FFFDF6"/>
<path d="M90.1102 67.0366L90.3505 64.506C90.3766 64.1188 90.1276 63.7866 89.8091 63.7866C89.4906 63.7866 89.2416 64.1188 89.2676 64.506L89.508 67.0366L89.2676 69.5673C89.2416 69.9544 89.4906 70.2866 89.8091 70.2866C90.1276 70.2866 90.3766 69.9544 90.3505 69.5673L90.1102 67.0366Z" fill="black" fill-opacity="0.6"/>
<path d="M89.812 69.2035C91.0113 69.2035 91.9836 68.2334 91.9836 67.0368C91.9836 65.8402 91.0113 64.8701 89.812 64.8701C88.6126 64.8701 87.6404 65.8402 87.6404 67.0368C87.6404 68.2334 88.6126 69.2035 89.812 69.2035Z" fill="#FFCA1E"/>
<path d="M89.812 69.2035C91.0113 69.2035 91.9836 68.2334 91.9836 67.0368C91.9836 65.8402 91.0113 64.8701 89.812 64.8701C88.6126 64.8701 87.6404 65.8402 87.6404 67.0368C87.6404 68.2334 88.6126 69.2035 89.812 69.2035Z" fill="black" fill-opacity="0.6"/>
<path d="M111.986 72H111.441V85H111.986V72Z" fill="#95C133"/>
<path d="M111.986 72H111.441V85H111.986V72Z" fill="black" fill-opacity="0.6"/>
<path d="M111.456 70.7661L109.979 72.8374C109.762 73.161 109.811 73.5741 110.086 73.7301C110.361 73.8861 110.743 73.7243 110.914 73.3777L111.974 71.0665L113.451 68.9952C113.668 68.6717 113.619 68.2585 113.344 68.1025C113.069 67.9465 112.686 68.1083 112.515 68.455L111.456 70.7661Z" fill="#FFFDF6"/>
<path d="M111.456 70.7661L109.979 72.8374C109.762 73.161 109.811 73.5741 110.086 73.7301C110.361 73.8861 110.743 73.7243 110.914 73.3777L111.974 71.0665L113.451 68.9952C113.668 68.6717 113.619 68.2585 113.344 68.1025C113.069 67.9465 112.686 68.1083 112.515 68.455L111.456 70.7661Z" fill="black" fill-opacity="0.6"/>
<path d="M111.563 70.6566L109.247 71.714C108.896 71.8873 108.734 72.2686 108.893 72.5402C109.053 72.8117 109.464 72.8637 109.788 72.6471L111.864 71.1737L114.18 70.1164C114.531 69.9431 114.693 69.5617 114.534 69.2902C114.374 69.0186 113.963 68.9666 113.639 69.1833L111.563 70.6566Z" fill="#FFFDF6"/>
<path d="M111.563 70.6566L109.247 71.714C108.896 71.8873 108.734 72.2686 108.893 72.5402C109.053 72.8117 109.464 72.8637 109.788 72.6471L111.864 71.1737L114.18 70.1164C114.531 69.9431 114.693 69.5617 114.534 69.2902C114.374 69.0186 113.963 68.9666 113.639 69.1833L111.563 70.6566Z" fill="black" fill-opacity="0.6"/>
<path d="M111.713 70.6162L109.177 70.3764C108.789 70.3504 108.456 70.5988 108.456 70.9166C108.456 71.2344 108.789 71.4828 109.177 71.4568L111.713 71.2171L114.25 71.4568C114.638 71.4828 114.971 71.2344 114.971 70.9166C114.971 70.5988 114.638 70.3504 114.25 70.3764L111.713 70.6162Z" fill="#FFFDF6"/>
<path d="M111.713 70.6162L109.177 70.3764C108.789 70.3504 108.456 70.5988 108.456 70.9166C108.456 71.2344 108.789 71.4828 109.177 71.4568L111.713 71.2171L114.25 71.4568C114.638 71.4828 114.971 71.2344 114.971 70.9166C114.971 70.5988 114.638 70.3504 114.25 70.3764L111.713 70.6162Z" fill="black" fill-opacity="0.6"/>
<path d="M111.864 70.6565L109.788 69.1832C109.464 68.9665 109.05 69.0156 108.893 69.2901C108.737 69.5645 108.899 69.9459 109.246 70.1163L111.563 71.1736L113.639 72.647C113.963 72.8637 114.377 72.8145 114.534 72.5401C114.69 72.2657 114.528 71.8843 114.18 71.7139L111.864 70.6565Z" fill="#FFFDF6"/>
<path d="M111.864 70.6565L109.788 69.1832C109.464 68.9665 109.05 69.0156 108.893 69.2901C108.737 69.5645 108.899 69.9459 109.246 70.1163L111.563 71.1736L113.639 72.647C113.963 72.8637 114.377 72.8145 114.534 72.5401C114.69 72.2657 114.528 71.8843 114.18 71.7139L111.864 70.6565Z" fill="black" fill-opacity="0.6"/>
<path d="M111.974 70.7663L110.914 68.4552C110.741 68.1056 110.358 67.9439 110.086 68.1027C109.814 68.2616 109.762 68.6719 109.979 68.9954L111.456 71.0668L112.516 73.3779C112.689 73.7274 113.072 73.8892 113.344 73.7303C113.616 73.5714 113.668 73.1612 113.451 72.8376L111.974 70.7663Z" fill="#FFFDF6"/>
<path d="M111.974 70.7663L110.914 68.4552C110.741 68.1056 110.358 67.9439 110.086 68.1027C109.814 68.2616 109.762 68.6719 109.979 68.9954L111.456 71.0668L112.516 73.3779C112.689 73.7274 113.072 73.8892 113.344 73.7303C113.616 73.5714 113.668 73.1612 113.451 72.8376L111.974 70.7663Z" fill="black" fill-opacity="0.6"/>
<path d="M112.015 70.9165L112.255 68.3858C112.281 67.9987 112.032 67.6665 111.713 67.6665C111.395 67.6665 111.146 67.9987 111.172 68.3858L111.412 70.9165L111.172 73.4472C111.146 73.8343 111.395 74.1665 111.713 74.1665C112.032 74.1665 112.281 73.8343 112.255 73.4472L112.015 70.9165Z" fill="#FFFDF6"/>
<path d="M112.015 70.9165L112.255 68.3858C112.281 67.9987 112.032 67.6665 111.713 67.6665C111.395 67.6665 111.146 67.9987 111.172 68.3858L111.412 70.9165L111.172 73.4472C111.146 73.8343 111.395 74.1665 111.713 74.1665C112.032 74.1665 112.281 73.8343 112.255 73.4472L112.015 70.9165Z" fill="black" fill-opacity="0.6"/>
<path d="M111.713 73.0833C112.913 73.0833 113.885 72.1133 113.885 70.9167C113.885 69.7201 112.913 68.75 111.713 68.75C110.514 68.75 109.542 69.7201 109.542 70.9167C109.542 72.1133 110.514 73.0833 111.713 73.0833Z" fill="#FFCA1E"/>
<path d="M111.713 73.0833C112.913 73.0833 113.885 72.1133 113.885 70.9167C113.885 69.7201 112.913 68.75 111.713 68.75C110.514 68.75 109.542 69.7201 109.542 70.9167C109.542 72.1133 110.514 73.0833 111.713 73.0833Z" fill="black" fill-opacity="0.6"/>
<path d="M11.8222 81.1204H8.74719C8.74719 81.1204 10.2528 59.107 25.0198 46.4536C25.0198 46.4536 13.4668 56.9403 11.8251 81.1204H11.8222Z" fill="#80A62C"/>
<path d="M11.8222 81.1204H8.74719C8.74719 81.1204 10.2528 59.107 25.0198 46.4536C25.0198 46.4536 13.4668 56.9403 11.8251 81.1204H11.8222Z" fill="black" fill-opacity="0.6"/>
<path d="M32.8666 67.2563C32.8666 67.2563 21.5134 74.8397 20.277 81.1173H18.007C18.007 81.1173 20.6911 73.7939 32.8666 67.2563Z" fill="#80A62C"/>
<path d="M32.8666 67.2563C32.8666 67.2563 21.5134 74.8397 20.277 81.1173H18.007C18.007 81.1173 20.6911 73.7939 32.8666 67.2563Z" fill="black" fill-opacity="0.6"/>
<path d="M17.3729 63.7871C17.3729 63.7871 5.97917 69.7353 2.65516 81.1205H0C2.67832 73.7798 7.81201 67.7565 17.3729 63.7871Z" fill="#80A62C"/>
<path d="M17.3729 63.7871C17.3729 63.7871 5.97917 69.7353 2.65516 81.1205H0C2.67832 73.7798 7.81201 67.7565 17.3729 63.7871Z" fill="black" fill-opacity="0.6"/>
<path d="M17.3729 67.4673C17.3729 67.4673 8.44898 72.9735 6.31791 81.1202H3.97546C3.97546 81.1202 6.36134 72.0202 17.3729 67.4673Z" fill="#80A62C"/>
<path d="M17.3729 67.4673C17.3729 67.4673 8.44898 72.9735 6.31791 81.1202H3.97546C3.97546 81.1202 6.36134 72.0202 17.3729 67.4673Z" fill="black" fill-opacity="0.6"/>
<path d="M17.7957 81.1202H20.4074C20.4074 81.1202 19.3708 67.4269 25.3471 62.5938C25.3471 62.5938 17.7957 67.0802 17.7957 81.1202Z" fill="#80A62C"/>
<path d="M17.7957 81.1202H20.4074C20.4074 81.1202 19.3708 67.4269 25.3471 62.5938C25.3471 62.5938 17.7957 67.0802 17.7957 81.1202Z" fill="black" fill-opacity="0.6"/>
<path d="M25.6511 81.1204H28.286C28.286 81.1204 28.8535 76.5415 34.7429 72.5288C34.7429 72.5288 27.2726 75.5737 25.6482 81.1204H25.6511Z" fill="#80A62C"/>
<path d="M25.6511 81.1204H28.286C28.286 81.1204 28.8535 76.5415 34.7429 72.5288C34.7429 72.5288 27.2726 75.5737 25.6482 81.1204H25.6511Z" fill="black" fill-opacity="0.6"/>
<path d="M19.1854 81.1204H21.8203C21.8203 81.1204 22.3878 76.5415 28.2801 72.5288C28.2801 72.5288 21.0241 74.8804 19.1854 81.1204Z" fill="#80A62C"/>
<path d="M19.1854 81.1204H21.8203C21.8203 81.1204 22.3878 76.5415 28.2801 72.5288C28.2801 72.5288 21.0241 74.8804 19.1854 81.1204Z" fill="black" fill-opacity="0.6"/>
<path d="M6.9491 67.2539C6.9491 67.2539 11.5963 70.6079 11.6456 81.1206H13.8954C13.8954 81.1206 14.1965 73.0577 6.9491 67.2539Z" fill="#80A62C"/>
<path d="M6.9491 67.2539C6.9491 67.2539 11.5963 70.6079 11.6456 81.1206H13.8954C13.8954 81.1206 14.1965 73.0577 6.9491 67.2539Z" fill="black" fill-opacity="0.6"/>
<path d="M23.4071 81.1203H25.6627C25.6627 81.1203 23.4071 71.2981 15.5111 67.7188C15.5111 67.7188 22.2112 71.9914 23.4071 81.1203Z" fill="#80A62C"/>
<path d="M23.4071 81.1203H25.6627C25.6627 81.1203 23.4071 71.2981 15.5111 67.7188C15.5111 67.7188 22.2112 71.9914 23.4071 81.1203Z" fill="black" fill-opacity="0.6"/>
<path d="M25.101 65.7861C25.101 65.7861 16.7649 73.7537 15.9715 81.1204H13.632C13.632 81.1204 15.0276 73.667 25.101 65.7861Z" fill="#80A62C"/>
<path d="M25.101 65.7861C25.101 65.7861 16.7649 73.7537 15.9715 81.1204H13.632C13.632 81.1204 15.0276 73.667 25.101 65.7861Z" fill="black" fill-opacity="0.6"/>
<path d="M175.805 81.1204H178.88C178.88 81.1204 177.374 59.107 162.607 46.4536C162.607 46.4536 174.16 56.9403 175.802 81.1204H175.805Z" fill="#80A62C"/>
<path d="M175.805 81.1204H178.88C178.88 81.1204 177.374 59.107 162.607 46.4536C162.607 46.4536 174.16 56.9403 175.802 81.1204H175.805Z" fill="black" fill-opacity="0.6"/>
<path d="M154.76 67.2563C154.76 67.2563 166.114 74.8397 167.35 81.1173H169.62C169.62 81.1173 166.936 73.7939 154.76 67.2563Z" fill="#80A62C"/>
<path d="M154.76 67.2563C154.76 67.2563 166.114 74.8397 167.35 81.1173H169.62C169.62 81.1173 166.936 73.7939 154.76 67.2563Z" fill="black" fill-opacity="0.6"/>
<path d="M170.254 63.7871C170.254 63.7871 181.648 69.7353 184.972 81.1205H187.627C184.949 73.7798 179.815 67.7565 170.254 63.7871Z" fill="#80A62C"/>
<path d="M170.254 63.7871C170.254 63.7871 181.648 69.7353 184.972 81.1205H187.627C184.949 73.7798 179.815 67.7565 170.254 63.7871Z" fill="black" fill-opacity="0.6"/>
<path d="M170.254 67.4673C170.254 67.4673 179.178 72.9735 181.309 81.1202H183.652C183.652 81.1202 181.266 72.0202 170.254 67.4673Z" fill="#80A62C"/>
<path d="M170.254 67.4673C170.254 67.4673 179.178 72.9735 181.309 81.1202H183.652C183.652 81.1202 181.266 72.0202 170.254 67.4673Z" fill="black" fill-opacity="0.6"/>
<path d="M169.831 81.1202H167.22C167.22 81.1202 168.256 67.4269 162.28 62.5938C162.28 62.5938 169.831 67.0802 169.831 81.1202Z" fill="#80A62C"/>
<path d="M169.831 81.1202H167.22C167.22 81.1202 168.256 67.4269 162.28 62.5938C162.28 62.5938 169.831 67.0802 169.831 81.1202Z" fill="black" fill-opacity="0.6"/>
<path d="M161.976 81.1204H159.341C159.341 81.1204 158.774 76.5415 152.884 72.5288C152.884 72.5288 160.355 75.5737 161.979 81.1204H161.976Z" fill="#80A62C"/>
<path d="M161.976 81.1204H159.341C159.341 81.1204 158.774 76.5415 152.884 72.5288C152.884 72.5288 160.355 75.5737 161.979 81.1204H161.976Z" fill="black" fill-opacity="0.6"/>
<path d="M168.442 81.1204H165.807C165.807 81.1204 165.239 76.5415 159.347 72.5288C159.347 72.5288 166.603 74.8804 168.442 81.1204Z" fill="#80A62C"/>
<path d="M168.442 81.1204H165.807C165.807 81.1204 165.239 76.5415 159.347 72.5288C159.347 72.5288 166.603 74.8804 168.442 81.1204Z" fill="black" fill-opacity="0.6"/>
<path d="M180.678 67.2539C180.678 67.2539 176.031 70.6079 175.982 81.1206H173.732C173.732 81.1206 173.431 73.0577 180.678 67.2539Z" fill="#80A62C"/>
<path d="M180.678 67.2539C180.678 67.2539 176.031 70.6079 175.982 81.1206H173.732C173.732 81.1206 173.431 73.0577 180.678 67.2539Z" fill="black" fill-opacity="0.6"/>
<path d="M164.22 81.1203H161.965C161.965 81.1203 164.22 71.2981 172.116 67.7188C172.116 67.7188 165.416 71.9914 164.22 81.1203Z" fill="#80A62C"/>
<path d="M164.22 81.1203H161.965C161.965 81.1203 164.22 71.2981 172.116 67.7188C172.116 67.7188 165.416 71.9914 164.22 81.1203Z" fill="black" fill-opacity="0.6"/>
<path d="M162.526 65.7861C162.526 65.7861 170.862 73.7537 171.656 81.1204H173.995C173.995 81.1204 172.599 73.667 162.526 65.7861Z" fill="#80A62C"/>
<path d="M162.526 65.7861C162.526 65.7861 170.862 73.7537 171.656 81.1204H173.995C173.995 81.1204 172.599 73.667 162.526 65.7861Z" fill="black" fill-opacity="0.6"/>
<path d="M132.561 18.1305C136.399 18.1305 139.51 15.9576 139.51 13.2772C139.51 10.5967 136.399 8.42383 132.561 8.42383C128.723 8.42383 125.612 10.5967 125.612 13.2772C125.612 15.9576 128.723 18.1305 132.561 18.1305Z" fill="#95C133"/>
<path d="M132.561 18.1305C136.399 18.1305 139.51 15.9576 139.51 13.2772C139.51 10.5967 136.399 8.42383 132.561 8.42383C128.723 8.42383 125.612 10.5967 125.612 13.2772C125.612 15.9576 128.723 18.1305 132.561 18.1305Z" fill="black" fill-opacity="0.6"/>
<path d="M141.404 56.3157C148.382 56.3157 154.039 52.3644 154.039 47.4901C154.039 42.6159 148.382 38.6646 141.404 38.6646C134.425 38.6646 128.768 42.6159 128.768 47.4901C128.768 52.3644 134.425 56.3157 141.404 56.3157Z" fill="#95C133"/>
<path d="M141.404 56.3157C148.382 56.3157 154.039 52.3644 154.039 47.4901C154.039 42.6159 148.382 38.6646 141.404 38.6646C134.425 38.6646 128.768 42.6159 128.768 47.4901C128.768 52.3644 134.425 56.3157 141.404 56.3157Z" fill="black" fill-opacity="0.6"/>
<path d="M138.879 40.8661C145.159 40.8661 150.249 37.3105 150.249 32.9245C150.249 28.5385 145.159 24.9829 138.879 24.9829C132.599 24.9829 127.508 28.5385 127.508 32.9245C127.508 37.3105 132.599 40.8661 138.879 40.8661Z" fill="#95C133"/>
<path d="M138.879 40.8661C145.159 40.8661 150.249 37.3105 150.249 32.9245C150.249 28.5385 145.159 24.9829 138.879 24.9829C132.599 24.9829 127.508 28.5385 127.508 32.9245C127.508 37.3105 132.599 40.8661 138.879 40.8661Z" fill="black" fill-opacity="0.6"/>
<path d="M136.351 26.8143C141.236 26.8143 145.197 24.0491 145.197 20.6379C145.197 17.2267 141.236 14.4614 136.351 14.4614C131.466 14.4614 127.505 17.2267 127.505 20.6379C127.505 24.0491 131.466 26.8143 136.351 26.8143Z" fill="#95C133"/>
<path d="M136.351 26.8143C141.236 26.8143 145.197 24.0491 145.197 20.6379C145.197 17.2267 141.236 14.4614 136.351 14.4614C131.466 14.4614 127.505 17.2267 127.505 20.6379C127.505 24.0491 131.466 26.8143 136.351 26.8143Z" fill="black" fill-opacity="0.6"/>
<path d="M118.663 21.6984C123.198 21.6984 126.874 19.131 126.874 15.964C126.874 12.7969 123.198 10.2295 118.663 10.2295C114.127 10.2295 110.451 12.7969 110.451 15.964C110.451 19.131 114.127 21.6984 118.663 21.6984Z" fill="#95C133"/>
<path d="M118.663 21.6984C123.198 21.6984 126.874 19.131 126.874 15.964C126.874 12.7969 123.198 10.2295 118.663 10.2295C114.127 10.2295 110.451 12.7969 110.451 15.964C110.451 19.131 114.127 21.6984 118.663 21.6984Z" fill="black" fill-opacity="0.6"/>
<path d="M126.243 14.3056C129.732 14.3056 132.561 12.3306 132.561 9.89426C132.561 7.45794 129.732 5.48291 126.243 5.48291C122.754 5.48291 119.925 7.45794 119.925 9.89426C119.925 12.3306 122.754 14.3056 126.243 14.3056Z" fill="#95C133"/>
<path d="M126.243 14.3056C129.732 14.3056 132.561 12.3306 132.561 9.89426C132.561 7.45794 129.732 5.48291 126.243 5.48291C122.754 5.48291 119.925 7.45794 119.925 9.89426C119.925 12.3306 122.754 14.3056 126.243 14.3056Z" fill="black" fill-opacity="0.6"/>
<path d="M113.607 34.3746C119.538 34.3746 124.346 31.017 124.346 26.8751C124.346 22.7332 119.538 19.3755 113.607 19.3755C107.676 19.3755 102.868 22.7332 102.868 26.8751C102.868 31.017 107.676 34.3746 113.607 34.3746Z" fill="#95C133"/>
<path d="M113.607 34.3746C119.538 34.3746 124.346 31.017 124.346 26.8751C124.346 22.7332 119.538 19.3755 113.607 19.3755C107.676 19.3755 102.868 22.7332 102.868 26.8751C102.868 31.017 107.676 34.3746 113.607 34.3746Z" fill="black" fill-opacity="0.6"/>
<path d="M111.082 49.761C118.061 49.761 123.718 45.8097 123.718 40.9354C123.718 36.0612 118.061 32.1099 111.082 32.1099C104.104 32.1099 98.4463 36.0612 98.4463 40.9354C98.4463 45.8097 104.104 49.761 111.082 49.761Z" fill="#95C133"/>
<path d="M111.082 49.761C118.061 49.761 123.718 45.8097 123.718 40.9354C123.718 36.0612 118.061 32.1099 111.082 32.1099C104.104 32.1099 98.4463 36.0612 98.4463 40.9354C98.4463 45.8097 104.104 49.761 111.082 49.761Z" fill="black" fill-opacity="0.6"/>
<path d="M126.243 9.89404L123.715 81.1198H128.771L126.243 9.89404Z" fill="#876B5C"/>
<path d="M126.243 9.89404L123.715 81.1198H128.771L126.243 9.89404Z" fill="black" fill-opacity="0.6"/>
<path d="M136.351 20.6382L126.243 26.4795V28.7184L136.351 20.6382Z" fill="#876B5C"/>
<path d="M136.351 20.6382L126.243 26.4795V28.7184L136.351 20.6382Z" fill="black" fill-opacity="0.6"/>
<path d="M126.243 41.9203L138.879 32.9243L126.243 44.7168V41.9203Z" fill="#876B5C"/>
<path d="M126.243 41.9203L138.879 32.9243L126.243 44.7168V41.9203Z" fill="black" fill-opacity="0.6"/>
<path d="M126.243 59.4823V62.8392L141.404 47.3374L126.243 59.4823Z" fill="#876B5C"/>
<path d="M126.243 59.4823V62.8392L141.404 47.3374L126.243 59.4823Z" fill="black" fill-opacity="0.6"/>
<path d="M118.662 15.9639L126.243 21.8052V24.0441L118.662 15.9639Z" fill="#876B5C"/>
<path d="M118.662 15.9639L126.243 21.8052V24.0441L118.662 15.9639Z" fill="black" fill-opacity="0.6"/>
<path d="M132.561 13.2773L126.243 18.1451V20.0085L132.561 13.2773Z" fill="#876B5C"/>
<path d="M132.561 13.2773L126.243 18.1451V20.0085L132.561 13.2773Z" fill="black" fill-opacity="0.6"/>
<path d="M126.243 35.8681L113.607 26.875L126.243 38.6646V35.8681Z" fill="#876B5C"/>
<path d="M126.243 35.8681L113.607 26.875L126.243 38.6646V35.8681Z" fill="black" fill-opacity="0.6"/>
<path d="M126.243 52.9271V56.284L111.082 40.7793L126.243 52.9271Z" fill="#876B5C"/>
<path d="M126.243 52.9271V56.284L111.082 40.7793L126.243 52.9271Z" fill="black" fill-opacity="0.6"/>
<path d="M59.1981 20.8002C61.7693 21.2595 65.3134 19.919 66.043 17.4201C66.0865 17.2757 66.1415 17.1255 66.211 16.9695C66.6048 16.1375 67.3952 15.603 68.2697 15.603C69.2223 15.603 70.3602 16.2704 70.4644 17.553V18.8386C70.1401 19.425 69.5466 20.5719 69.4916 21.2393C69.341 23.0448 68.3797 24.5904 66.8538 25.3993C66.1849 25.7835 65.3829 26.0059 64.4129 26.0059C61.5406 26.0059 59.2126 23.689 59.201 20.8262C59.0997 20.803 58.9636 20.7626 59.201 20.8059L59.1981 20.8002Z" fill="#FEF4D2"/>
<path d="M59.1981 20.8002C61.7693 21.2595 65.3134 19.919 66.043 17.4201C66.0865 17.2757 66.1415 17.1255 66.211 16.9695C66.6048 16.1375 67.3952 15.603 68.2697 15.603C69.2223 15.603 70.3602 16.2704 70.4644 17.553V18.8386C70.1401 19.425 69.5466 20.5719 69.4916 21.2393C69.341 23.0448 68.3797 24.5904 66.8538 25.3993C66.1849 25.7835 65.3829 26.0059 64.4129 26.0059C61.5406 26.0059 59.2126 23.689 59.201 20.8262C59.0997 20.803 58.9636 20.7626 59.201 20.8059L59.1981 20.8002Z" fill="black" fill-opacity="0.6"/>
<path d="M70.4644 17.5503L71.8079 18.0472L70.4644 18.8359C70.2791 18.3881 70.2444 17.9807 70.4644 17.5503Z" fill="#F99428"/>
<path d="M70.4644 17.5503L71.8079 18.0472L70.4644 18.8359C70.2791 18.3881 70.2444 17.9807 70.4644 17.5503Z" fill="black" fill-opacity="0.6"/>
<path d="M68.7677 17.7666C69.0076 17.7666 69.202 17.5726 69.202 17.3332C69.202 17.0939 69.0076 16.8999 68.7677 16.8999C68.5278 16.8999 68.3334 17.0939 68.3334 17.3332C68.3334 17.5726 68.5278 17.7666 68.7677 17.7666Z" fill="#4D4C4D"/>
<path d="M60.5445 16.8076C59.6208 18.5352 60.2752 20.6816 62.0067 21.6003C63.7382 22.5219 65.8895 21.869 66.8103 20.1414L60.5445 16.8076Z" fill="#FEF4D2"/>
<path d="M60.5445 16.8076C59.6208 18.5352 60.2752 20.6816 62.0067 21.6003C63.7382 22.5219 65.8895 21.869 66.8103 20.1414L60.5445 16.8076Z" fill="black" fill-opacity="0.6"/>
<path d="M38.0965 12.8333C40.2391 13.2147 43.1925 12.0996 43.8006 10.0167C43.8353 9.89534 43.8816 9.77111 43.9396 9.64111C44.2696 8.94778 44.9269 8.5 45.6537 8.5C46.447 8.5 47.3968 9.05756 47.4807 10.1236V11.1953C47.2114 11.6836 46.7163 12.6398 46.67 13.1945C46.5455 14.6996 45.7434 15.9851 44.4723 16.6611C43.9164 16.9818 43.2475 17.1667 42.4397 17.1667C40.048 17.1667 38.1052 15.234 38.0965 12.8507C38.0125 12.8333 37.8996 12.7987 38.0965 12.8333Z" fill="#FEDFB9"/>
<path d="M38.0965 12.8333C40.2391 13.2147 43.1925 12.0996 43.8006 10.0167C43.8353 9.89534 43.8816 9.77111 43.9396 9.64111C44.2696 8.94778 44.9269 8.5 45.6537 8.5C46.447 8.5 47.3968 9.05756 47.4807 10.1236V11.1953C47.2114 11.6836 46.7163 12.6398 46.67 13.1945C46.5455 14.6996 45.7434 15.9851 44.4723 16.6611C43.9164 16.9818 43.2475 17.1667 42.4397 17.1667C40.048 17.1667 38.1052 15.234 38.0965 12.8507C38.0125 12.8333 37.8996 12.7987 38.0965 12.8333Z" fill="black" fill-opacity="0.6"/>
<path d="M47.4836 10.1235L48.6042 10.5366L47.4836 11.1924C47.3301 10.8197 47.3012 10.4788 47.4836 10.1206V10.1235Z" fill="#F99428"/>
<path d="M47.4836 10.1235L48.6042 10.5366L47.4836 11.1924C47.3301 10.8197 47.3012 10.4788 47.4836 10.1206V10.1235Z" fill="black" fill-opacity="0.6"/>
<path d="M46.0707 10.3057C46.2706 10.3057 46.4326 10.144 46.4326 9.94461C46.4326 9.74517 46.2706 9.5835 46.0707 9.5835C45.8708 9.5835 45.7087 9.74517 45.7087 9.94461C45.7087 10.144 45.8708 10.3057 46.0707 10.3057Z" fill="#4D4C4D"/>
<path d="M39.2199 9.50537C38.4497 10.944 38.997 12.7323 40.4389 13.5007C41.8809 14.2692 43.6732 13.7232 44.4434 12.2845L39.2199 9.50537Z" fill="#FEDFB9"/>
<path d="M39.2199 9.50537C38.4497 10.944 38.997 12.7323 40.4389 13.5007C41.8809 14.2692 43.6732 13.7232 44.4434 12.2845L39.2199 9.50537Z" fill="black" fill-opacity="0.6"/>
</g>
</g>
<defs>
<clipPath id="clip0_3619_321950">
<rect width="205" height="81" fill="white"/>
</clipPath>
<clipPath id="clip1_3619_321950">
<rect width="205" height="85" fill="white"/>
</clipPath>
</defs>
</svg>
