<svg width="209" height="80" viewBox="0 0 209 80" fill="none" xmlns="http://www.w3.org/2000/svg">
<g clip-path="url(#clip0_3619_321947)">
<g clip-path="url(#clip1_3619_321947)">
<path d="M91.8835 55.5864H86.5825V80.0965H91.8835V55.5864Z" fill="#876B5C"/>
<path d="M100.718 69.5373H77.7476L89.233 32.7969L100.718 69.5373Z" fill="#80A62C"/>
<path d="M100.718 69.5373H77.7476L89.233 32.7969L100.718 69.5373Z" fill="black" fill-opacity="0.6"/>
<path d="M98.7394 54.6216H79.7266L89.233 24.2144L98.7394 54.6216Z" fill="#80A62C"/>
<path d="M98.7394 54.6216H79.7266L89.233 24.2144L98.7394 54.6216Z" fill="black" fill-opacity="0.6"/>
<path d="M96.457 39.575H82.0089L89.233 16.4658L96.457 39.575Z" fill="#80A62C"/>
<path d="M96.457 39.575H82.0089L89.233 16.4658L96.457 39.575Z" fill="black" fill-opacity="0.6"/>
<path d="M94.3573 26.7342H84.1088L89.233 10.3418L94.3573 26.7342Z" fill="#80A62C"/>
<path d="M94.3573 26.7342H84.1088L89.233 10.3418L94.3573 26.7342Z" fill="black" fill-opacity="0.6"/>
<path d="M14.1359 55.5864H8.83496V80.0965H14.1359V55.5864Z" fill="#B09069"/>
<path d="M14.1359 55.5864H8.83496V80.0965H14.1359V55.5864Z" fill="black" fill-opacity="0.6"/>
<path d="M22.9709 69.5373H0L11.4854 32.7969L22.9709 69.5373Z" fill="#638021"/>
<path d="M22.9709 69.5373H0L11.4854 32.7969L22.9709 69.5373Z" fill="black" fill-opacity="0.6"/>
<path d="M20.9918 54.6216H1.979L11.4854 24.2144L20.9918 54.6216Z" fill="#638021"/>
<path d="M20.9918 54.6216H1.979L11.4854 24.2144L20.9918 54.6216Z" fill="black" fill-opacity="0.6"/>
<path d="M18.7095 39.575H4.26141L11.4855 16.4658L18.7095 39.575Z" fill="#638021"/>
<path d="M18.7095 39.575H4.26141L11.4855 16.4658L18.7095 39.575Z" fill="black" fill-opacity="0.6"/>
<path d="M16.6097 26.7342H6.36115L11.4854 10.3418L16.6097 26.7342Z" fill="#638021"/>
<path d="M16.6097 26.7342H6.36115L11.4854 10.3418L16.6097 26.7342Z" fill="black" fill-opacity="0.6"/>
<path d="M60.0777 49.2884C60.0777 65.0181 55.3303 69.6335 49.4757 69.6335C43.6211 69.6335 38.8738 65.0181 38.8738 49.2884C38.8738 33.5587 43.6211 20.8052 49.4757 20.8052C55.3303 20.8052 60.0777 33.5587 60.0777 49.2884Z" fill="#709126"/>
<path d="M60.0777 49.2884C60.0777 65.0181 55.3303 69.6335 49.4757 69.6335C43.6211 69.6335 38.8738 65.0181 38.8738 49.2884C38.8738 33.5587 43.6211 20.8052 49.4757 20.8052C55.3303 20.8052 60.0777 33.5587 60.0777 49.2884Z" fill="black" fill-opacity="0.6"/>
<path d="M49.4757 48.707L46.8252 80.0967H52.1262L49.4757 48.707Z" fill="#B09069"/>
<path d="M49.4757 48.707L46.8252 80.0967H52.1262L49.4757 48.707Z" fill="black" fill-opacity="0.6"/>
<path d="M130.757 55.6827C130.757 67.2387 124.429 69.6336 116.621 69.6336C108.814 69.6336 102.485 67.2387 102.485 55.6827C102.485 44.1266 108.814 27.7808 116.621 27.7808C124.429 27.7808 130.757 44.1266 130.757 55.6827Z" fill="#638021"/>
<path d="M130.757 55.6827C130.757 67.2387 124.429 69.6336 116.621 69.6336C108.814 69.6336 102.485 67.2387 102.485 55.6827C102.485 44.1266 108.814 27.7808 116.621 27.7808C124.429 27.7808 130.757 44.1266 130.757 55.6827Z" fill="black" fill-opacity="0.6"/>
<path d="M116.621 45.2192L114.854 80.0966H118.388L116.621 45.2192Z" fill="#B09069"/>
<path d="M116.621 45.2192L114.854 80.0966H118.388L116.621 45.2192Z" fill="black" fill-opacity="0.6"/>
<path d="M176.746 23.6592C174.231 17.5469 172.276 13.8325 172.282 13.8267C172.282 13.8267 170.332 17.5469 167.817 23.6592C165.396 29.7685 162.416 44.3763 162.569 53.8979C163.261 72.8828 172.293 74.8679 172.29 74.865C172.29 74.8534 181.302 72.8828 181.994 53.8979C182.15 44.3792 179.167 29.7685 176.746 23.6592Z" fill="#709126"/>
<path d="M176.746 23.6592C174.231 17.5469 172.276 13.8325 172.282 13.8267C172.282 13.8267 170.332 17.5469 167.817 23.6592C165.396 29.7685 162.416 44.3763 162.569 53.8979C163.261 72.8828 172.293 74.8679 172.29 74.865C172.29 74.8534 181.302 72.8828 181.994 53.8979C182.15 44.3792 179.167 29.7685 176.746 23.6592Z" fill="black" fill-opacity="0.6"/>
<path d="M172.282 45.2192L170.515 80.0966H174.049L172.282 45.2192Z" fill="#B09069"/>
<path d="M172.282 45.2192L170.515 80.0966H174.049L172.282 45.2192Z" fill="black" fill-opacity="0.6"/>
<path d="M45.2848 56.1187C45.2848 56.1187 37.03 61.917 36.9711 80.0969H40.296C40.296 80.0969 39.009 63.8469 45.2818 56.1187H45.2848Z" fill="#80A62C"/>
<path d="M45.2848 56.1187C45.2848 56.1187 37.03 61.917 36.9711 80.0969H40.296C40.296 80.0969 39.009 63.8469 45.2818 56.1187H45.2848Z" fill="black" fill-opacity="0.6"/>
<path d="M36.971 80.0966H33.6461C33.6461 80.0966 35.5074 55.2755 24.499 45.2192C24.499 45.2192 36.971 53.1742 36.971 80.0966Z" fill="#80A62C"/>
<path d="M36.971 80.0966H33.6461C33.6461 80.0966 35.5074 55.2755 24.499 45.2192C24.499 45.2192 36.971 53.1742 36.971 80.0966Z" fill="black" fill-opacity="0.6"/>
<path d="M31.1488 80.0968H34.4737C34.4737 80.0968 34.0585 60.8038 49.4401 49.5791C49.4401 49.5791 31.1459 60.1528 31.1459 80.0968H31.1488Z" fill="#80A62C"/>
<path d="M31.1488 80.0968H34.4737C34.4737 80.0968 34.0585 60.8038 49.4401 49.5791C49.4401 49.5791 31.1459 60.1528 31.1459 80.0968H31.1488Z" fill="black" fill-opacity="0.6"/>
<path d="M30.2241 80.0968H26.8993C26.8993 80.0968 28.5514 64.184 19.8313 49.5791C19.8313 49.5791 30.2241 59.7313 30.2241 80.0968Z" fill="#80A62C"/>
<path d="M30.2241 80.0968H26.8993C26.8993 80.0968 28.5514 64.184 19.8313 49.5791C19.8313 49.5791 30.2241 59.7313 30.2241 80.0968Z" fill="black" fill-opacity="0.6"/>
<path d="M14.1033 64.8379C14.1033 64.8379 24.4195 68.5291 24.4961 80.0967H21.1712C21.1712 80.0967 22.2138 69.0871 14.1062 64.8379H14.1033Z" fill="#80A62C"/>
<path d="M14.1033 64.8379C14.1033 64.8379 24.4195 68.5291 24.4961 80.0967H21.1712C21.1712 80.0967 22.2138 69.0871 14.1062 64.8379H14.1033Z" fill="black" fill-opacity="0.6"/>
<path d="M28.6544 80.0969H25.3296C25.3296 80.0969 27.0965 68.0002 18.2616 56.1187C18.2616 56.1187 28.6544 63.7481 28.6544 80.0969Z" fill="#80A62C"/>
<path d="M28.6544 80.0969H25.3296C25.3296 80.0969 27.0965 68.0002 18.2616 56.1187C18.2616 56.1187 28.6544 63.7481 28.6544 80.0969Z" fill="black" fill-opacity="0.6"/>
<path d="M148.963 16.7247C152.867 16.7247 156.031 14.5385 156.031 11.8418C156.031 9.1451 152.867 6.95898 148.963 6.95898C145.06 6.95898 141.895 9.1451 141.895 11.8418C141.895 14.5385 145.06 16.7247 148.963 16.7247Z" fill="#95C133"/>
<path d="M148.963 16.7247C152.867 16.7247 156.031 14.5385 156.031 11.8418C156.031 9.1451 152.867 6.95898 148.963 6.95898C145.06 6.95898 141.895 9.1451 141.895 11.8418C141.895 14.5385 145.06 16.7247 148.963 16.7247Z" fill="black" fill-opacity="0.6"/>
<path d="M157.957 55.1417C165.055 55.1417 170.809 51.1664 170.809 46.2625C170.809 41.3587 165.055 37.3833 157.957 37.3833C150.859 37.3833 145.105 41.3587 145.105 46.2625C145.105 51.1664 150.859 55.1417 157.957 55.1417Z" fill="#95C133"/>
<path d="M157.957 55.1417C165.055 55.1417 170.809 51.1664 170.809 46.2625C170.809 41.3587 165.055 37.3833 157.957 37.3833C150.859 37.3833 145.105 41.3587 145.105 46.2625C145.105 51.1664 150.859 55.1417 157.957 55.1417Z" fill="black" fill-opacity="0.6"/>
<path d="M155.389 39.6012C161.776 39.6012 166.954 36.0241 166.954 31.6114C166.954 27.1987 161.776 23.6216 155.389 23.6216C149.002 23.6216 143.824 27.1987 143.824 31.6114C143.824 36.0241 149.002 39.6012 155.389 39.6012Z" fill="#95C133"/>
<path d="M155.389 39.6012C161.776 39.6012 166.954 36.0241 166.954 31.6114C166.954 27.1987 161.776 23.6216 155.389 23.6216C149.002 23.6216 143.824 27.1987 143.824 31.6114C143.824 36.0241 149.002 39.6012 155.389 39.6012Z" fill="black" fill-opacity="0.6"/>
<path d="M152.818 25.4641C157.787 25.4641 161.815 22.682 161.815 19.2501C161.815 15.8182 157.787 13.0361 152.818 13.0361C147.849 13.0361 143.821 15.8182 143.821 19.2501C143.821 22.682 147.849 25.4641 152.818 25.4641Z" fill="#95C133"/>
<path d="M152.818 25.4641C157.787 25.4641 161.815 22.682 161.815 19.2501C161.815 15.8182 157.787 13.0361 152.818 13.0361C147.849 13.0361 143.821 15.8182 143.821 19.2501C143.821 22.682 147.849 25.4641 152.818 25.4641Z" fill="black" fill-opacity="0.6"/>
<path d="M134.827 20.314C139.44 20.314 143.179 17.731 143.179 14.5447C143.179 11.3584 139.44 8.77539 134.827 8.77539C130.215 8.77539 126.475 11.3584 126.475 14.5447C126.475 17.731 130.215 20.314 134.827 20.314Z" fill="#95C133"/>
<path d="M134.827 20.314C139.44 20.314 143.179 17.731 143.179 14.5447C143.179 11.3584 139.44 8.77539 134.827 8.77539C130.215 8.77539 126.475 11.3584 126.475 14.5447C126.475 17.731 130.215 20.314 134.827 20.314Z" fill="black" fill-opacity="0.6"/>
<path d="M142.537 12.8763C146.086 12.8763 148.963 10.8893 148.963 8.43815C148.963 5.98703 146.086 4 142.537 4C138.988 4 136.111 5.98703 136.111 8.43815C136.111 10.8893 138.988 12.8763 142.537 12.8763Z" fill="#95C133"/>
<path d="M142.537 12.8763C146.086 12.8763 148.963 10.8893 148.963 8.43815C148.963 5.98703 146.086 4 142.537 4C138.988 4 136.111 5.98703 136.111 8.43815C136.111 10.8893 138.988 12.8763 142.537 12.8763Z" fill="black" fill-opacity="0.6"/>
<path d="M129.685 33.0673C135.718 33.0673 140.608 29.6893 140.608 25.5222C140.608 21.3551 135.718 17.9771 129.685 17.9771C123.653 17.9771 118.762 21.3551 118.762 25.5222C118.762 29.6893 123.653 33.0673 129.685 33.0673Z" fill="#95C133"/>
<path d="M129.685 33.0673C135.718 33.0673 140.608 29.6893 140.608 25.5222C140.608 21.3551 135.718 17.9771 129.685 17.9771C123.653 17.9771 118.762 21.3551 118.762 25.5222C118.762 29.6893 123.653 33.0673 129.685 33.0673Z" fill="black" fill-opacity="0.6"/>
<path d="M127.117 48.547C134.215 48.547 139.969 44.5716 139.969 39.6678C139.969 34.7639 134.215 30.7886 127.117 30.7886C120.019 30.7886 114.265 34.7639 114.265 39.6678C114.265 44.5716 120.019 48.547 127.117 48.547Z" fill="#95C133"/>
<path d="M127.117 48.547C134.215 48.547 139.969 44.5716 139.969 39.6678C139.969 34.7639 134.215 30.7886 127.117 30.7886C120.019 30.7886 114.265 34.7639 114.265 39.6678C114.265 44.5716 120.019 48.547 127.117 48.547Z" fill="black" fill-opacity="0.6"/>
<path d="M142.537 8.43799L139.966 80.0965H145.108L142.537 8.43799Z" fill="#876B5C"/>
<path d="M142.537 8.43799L139.966 80.0965H145.108L142.537 8.43799Z" fill="black" fill-opacity="0.6"/>
<path d="M152.818 19.25L142.537 25.1268V27.3764L152.818 19.25Z" fill="#876B5C"/>
<path d="M152.818 19.25L142.537 25.1268V27.3764L152.818 19.25Z" fill="black" fill-opacity="0.6"/>
<path d="M142.537 40.6591L155.389 31.6113L142.537 43.4725V40.6591Z" fill="#876B5C"/>
<path d="M142.537 40.6591L155.389 31.6113L142.537 43.4725V40.6591Z" fill="black" fill-opacity="0.6"/>
<path d="M142.537 58.33V61.7073L157.957 46.1084L142.537 58.33Z" fill="#876B5C"/>
<path d="M142.537 58.33V61.7073L157.957 46.1084L142.537 58.33Z" fill="black" fill-opacity="0.6"/>
<path d="M134.827 14.5444L142.537 20.4213V22.6738L134.827 14.5444Z" fill="#876B5C"/>
<path d="M134.827 14.5444L142.537 20.4213V22.6738L134.827 14.5444Z" fill="black" fill-opacity="0.6"/>
<path d="M148.963 11.8418L142.537 16.7392V18.6138L148.963 11.8418Z" fill="#876B5C"/>
<path d="M148.963 11.8418L142.537 16.7392V18.6138L148.963 11.8418Z" fill="black" fill-opacity="0.6"/>
<path d="M142.537 34.5702L129.685 25.5225L142.537 37.3866V34.5702Z" fill="#876B5C"/>
<path d="M142.537 34.5702L129.685 25.5225L142.537 37.3866V34.5702Z" fill="black" fill-opacity="0.6"/>
<path d="M142.537 51.7324V55.1097L127.117 39.5137L142.537 51.7324Z" fill="#876B5C"/>
<path d="M142.537 51.7324V55.1097L127.117 39.5137L142.537 51.7324Z" fill="black" fill-opacity="0.6"/>
<path d="M130.498 67.0176H129.944V80.0966H130.498V67.0176Z" fill="#95C133"/>
<path d="M130.498 67.0176H129.944V80.0966H130.498V67.0176Z" fill="black" fill-opacity="0.6"/>
<path d="M129.956 65.7763L128.454 67.8602C128.233 68.1857 128.283 68.6014 128.563 68.7583C128.843 68.9153 129.232 68.7525 129.405 68.4037L130.483 66.0786L131.985 63.9946C132.206 63.6691 132.156 63.2535 131.876 63.0966C131.597 62.9396 131.208 63.1024 131.034 63.4511L129.956 65.7763Z" fill="#FFFDF6"/>
<path d="M129.956 65.7763L128.454 67.8602C128.233 68.1857 128.283 68.6014 128.563 68.7583C128.843 68.9153 129.232 68.7525 129.405 68.4037L130.483 66.0786L131.985 63.9946C132.206 63.6691 132.156 63.2535 131.876 63.0966C131.597 62.9396 131.208 63.1024 131.034 63.4511L129.956 65.7763Z" fill="black" fill-opacity="0.6"/>
<path d="M130.068 65.6659L127.712 66.7297C127.356 66.9041 127.191 67.2877 127.353 67.5609C127.515 67.8341 127.933 67.8864 128.263 67.6684L130.375 66.1862L132.731 65.1224C133.087 64.948 133.252 64.5644 133.09 64.2912C132.928 64.0179 132.51 63.9656 132.18 64.1836L130.068 65.6659Z" fill="#FFFDF6"/>
<path d="M130.068 65.6659L127.712 66.7297C127.356 66.9041 127.191 67.2877 127.353 67.5609C127.515 67.8341 127.933 67.8864 128.263 67.6684L130.375 66.1862L132.731 65.1224C133.087 64.948 133.252 64.5644 133.09 64.2912C132.928 64.0179 132.51 63.9656 132.18 64.1836L130.068 65.6659Z" fill="black" fill-opacity="0.6"/>
<path d="M130.221 65.6254L127.642 65.3842C127.247 65.358 126.908 65.608 126.908 65.9277C126.908 66.2474 127.247 66.4974 127.642 66.4712L130.221 66.23L132.801 66.4712C133.196 66.4974 133.534 66.2474 133.534 65.9277C133.534 65.608 133.196 65.358 132.801 65.3842L130.221 65.6254Z" fill="#FFFDF6"/>
<path d="M130.221 65.6254L127.642 65.3842C127.247 65.358 126.908 65.608 126.908 65.9277C126.908 66.2474 127.247 66.4974 127.642 66.4712L130.221 66.23L132.801 66.4712C133.196 66.4974 133.534 66.2474 133.534 65.9277C133.534 65.608 133.196 65.358 132.801 65.3842L130.221 65.6254Z" fill="black" fill-opacity="0.6"/>
<path d="M130.374 65.6658L128.263 64.1835C127.933 63.9656 127.512 64.015 127.353 64.2911C127.194 64.5672 127.359 64.9508 127.712 65.1223L130.068 66.1861L132.18 67.6684C132.51 67.8863 132.931 67.8369 133.09 67.5608C133.249 67.2847 133.084 66.9011 132.73 66.7296L130.374 65.6658Z" fill="#FFFDF6"/>
<path d="M130.374 65.6658L128.263 64.1835C127.933 63.9656 127.512 64.015 127.353 64.2911C127.194 64.5672 127.359 64.9508 127.712 65.1223L130.068 66.1861L132.18 67.6684C132.51 67.8863 132.931 67.8369 133.09 67.5608C133.249 67.2847 133.084 66.9011 132.73 66.7296L130.374 65.6658Z" fill="black" fill-opacity="0.6"/>
<path d="M130.483 65.7765L129.406 63.4514C129.229 63.0997 128.84 62.9369 128.563 63.0968C128.286 63.2566 128.233 63.6693 128.454 63.9949L129.956 66.0788L131.034 68.4039C131.211 68.7556 131.6 68.9184 131.876 68.7585C132.153 68.5987 132.206 68.186 131.985 67.8604L130.483 65.7765Z" fill="#FFFDF6"/>
<path d="M130.483 65.7765L129.406 63.4514C129.229 63.0997 128.84 62.9369 128.563 63.0968C128.286 63.2566 128.233 63.6693 128.454 63.9949L129.956 66.0788L131.034 68.4039C131.211 68.7556 131.6 68.9184 131.876 68.7585C132.153 68.5987 132.206 68.186 131.985 67.8604L130.483 65.7765Z" fill="black" fill-opacity="0.6"/>
<path d="M130.525 65.9275L130.769 63.3814C130.796 62.992 130.542 62.6577 130.218 62.6577C129.894 62.6577 129.641 62.992 129.668 63.3814L129.912 65.9275L129.668 68.4735C129.641 68.863 129.894 69.1972 130.218 69.1972C130.542 69.1972 130.796 68.863 130.769 68.4735L130.525 65.9275Z" fill="#FFFDF6"/>
<path d="M130.525 65.9275L130.769 63.3814C130.796 62.992 130.542 62.6577 130.218 62.6577C129.894 62.6577 129.641 62.992 129.668 63.3814L129.912 65.9275L129.668 68.4735C129.641 68.863 129.894 69.1972 130.218 69.1972C130.542 69.1972 130.796 68.863 130.769 68.4735L130.525 65.9275Z" fill="black" fill-opacity="0.6"/>
<path d="M130.221 68.1072C131.441 68.1072 132.43 67.1313 132.43 65.9274C132.43 64.7235 131.441 63.7476 130.221 63.7476C129.001 63.7476 128.013 64.7235 128.013 65.9274C128.013 67.1313 129.001 68.1072 130.221 68.1072Z" fill="#FFCA1E"/>
<path d="M130.221 68.1072C131.441 68.1072 132.43 67.1313 132.43 65.9274C132.43 64.7235 131.441 63.7476 130.221 63.7476C129.001 63.7476 128.013 64.7235 128.013 65.9274C128.013 67.1313 129.001 68.1072 130.221 68.1072Z" fill="black" fill-opacity="0.6"/>
<path d="M159.085 67.0176H158.531V80.0966H159.085V67.0176Z" fill="#95C133"/>
<path d="M159.085 67.0176H158.531V80.0966H159.085V67.0176Z" fill="black" fill-opacity="0.6"/>
<path d="M158.543 65.7763L157.041 67.8602C156.82 68.1857 156.87 68.6014 157.15 68.7583C157.43 68.9153 157.819 68.7525 157.992 68.4037L159.07 66.0786L160.572 63.9946C160.793 63.6691 160.743 63.2535 160.463 63.0966C160.183 62.9396 159.795 63.1024 159.621 63.4511L158.543 65.7763Z" fill="#FFFDF6"/>
<path d="M158.543 65.7763L157.041 67.8602C156.82 68.1857 156.87 68.6014 157.15 68.7583C157.43 68.9153 157.819 68.7525 157.992 68.4037L159.07 66.0786L160.572 63.9946C160.793 63.6691 160.743 63.2535 160.463 63.0966C160.183 62.9396 159.795 63.1024 159.621 63.4511L158.543 65.7763Z" fill="black" fill-opacity="0.6"/>
<path d="M158.655 65.6659L156.299 66.7297C155.943 66.9041 155.778 67.2877 155.94 67.5609C156.102 67.8341 156.52 67.8864 156.85 67.6684L158.961 66.1862L161.317 65.1224C161.674 64.948 161.839 64.5644 161.677 64.2912C161.515 64.0179 161.097 63.9656 160.767 64.1836L158.655 65.6659Z" fill="#FFFDF6"/>
<path d="M158.655 65.6659L156.299 66.7297C155.943 66.9041 155.778 67.2877 155.94 67.5609C156.102 67.8341 156.52 67.8864 156.85 67.6684L158.961 66.1862L161.317 65.1224C161.674 64.948 161.839 64.5644 161.677 64.2912C161.515 64.0179 161.097 63.9656 160.767 64.1836L158.655 65.6659Z" fill="black" fill-opacity="0.6"/>
<path d="M158.808 65.6254L156.228 65.3842C155.834 65.358 155.495 65.608 155.495 65.9277C155.495 66.2474 155.834 66.4974 156.228 66.4712L158.808 66.23L161.388 66.4712C161.783 66.4974 162.121 66.2474 162.121 65.9277C162.121 65.608 161.783 65.358 161.388 65.3842L158.808 65.6254Z" fill="#FFFDF6"/>
<path d="M158.808 65.6254L156.228 65.3842C155.834 65.358 155.495 65.608 155.495 65.9277C155.495 66.2474 155.834 66.4974 156.228 66.4712L158.808 66.23L161.388 66.4712C161.783 66.4974 162.121 66.2474 162.121 65.9277C162.121 65.608 161.783 65.358 161.388 65.3842L158.808 65.6254Z" fill="black" fill-opacity="0.6"/>
<path d="M158.961 65.6658L156.85 64.1835C156.52 63.9656 156.099 64.015 155.94 64.2911C155.781 64.5672 155.946 64.9508 156.299 65.1223L158.655 66.1861L160.767 67.6684C161.096 67.8863 161.518 67.8369 161.677 67.5608C161.836 67.2847 161.671 66.9011 161.317 66.7296L158.961 65.6658Z" fill="#FFFDF6"/>
<path d="M158.961 65.6658L156.85 64.1835C156.52 63.9656 156.099 64.015 155.94 64.2911C155.781 64.5672 155.946 64.9508 156.299 65.1223L158.655 66.1861L160.767 67.6684C161.096 67.8863 161.518 67.8369 161.677 67.5608C161.836 67.2847 161.671 66.9011 161.317 66.7296L158.961 65.6658Z" fill="black" fill-opacity="0.6"/>
<path d="M159.073 65.7765L157.995 63.4514C157.819 63.0997 157.43 62.9369 157.153 63.0968C156.876 63.2566 156.823 63.6693 157.044 63.9949L158.546 66.0788L159.624 68.4039C159.801 68.7556 160.189 68.9184 160.466 68.7585C160.743 68.5987 160.796 68.186 160.575 67.8604L159.073 65.7765Z" fill="#FFFDF6"/>
<path d="M159.073 65.7765L157.995 63.4514C157.819 63.0997 157.43 62.9369 157.153 63.0968C156.876 63.2566 156.823 63.6693 157.044 63.9949L158.546 66.0788L159.624 68.4039C159.801 68.7556 160.189 68.9184 160.466 68.7585C160.743 68.5987 160.796 68.186 160.575 67.8604L159.073 65.7765Z" fill="black" fill-opacity="0.6"/>
<path d="M159.112 65.9275L159.356 63.3814C159.383 62.992 159.129 62.6577 158.805 62.6577C158.481 62.6577 158.228 62.992 158.255 63.3814L158.499 65.9275L158.255 68.4735C158.228 68.863 158.481 69.1972 158.805 69.1972C159.129 69.1972 159.383 68.863 159.356 68.4735L159.112 65.9275Z" fill="#FFFDF6"/>
<path d="M159.112 65.9275L159.356 63.3814C159.383 62.992 159.129 62.6577 158.805 62.6577C158.481 62.6577 158.228 62.992 158.255 63.3814L158.499 65.9275L158.255 68.4735C158.228 68.863 158.481 69.1972 158.805 69.1972C159.129 69.1972 159.383 68.863 159.356 68.4735L159.112 65.9275Z" fill="black" fill-opacity="0.6"/>
<path d="M158.808 68.1072C160.028 68.1072 161.017 67.1313 161.017 65.9274C161.017 64.7235 160.028 63.7476 158.808 63.7476C157.588 63.7476 156.599 64.7235 156.599 65.9274C156.599 67.1313 157.588 68.1072 158.808 68.1072Z" fill="#FFCA1E"/>
<path d="M158.808 68.1072C160.028 68.1072 161.017 67.1313 161.017 65.9274C161.017 64.7235 160.028 63.7476 158.808 63.7476C157.588 63.7476 156.599 64.7235 156.599 65.9274C156.599 67.1313 157.588 68.1072 158.808 68.1072Z" fill="black" fill-opacity="0.6"/>
<path d="M169.687 70.9214H169.133V84.0004H169.687V70.9214Z" fill="#95C133"/>
<path d="M169.687 70.9214H169.133V84.0004H169.687V70.9214Z" fill="black" fill-opacity="0.6"/>
<path d="M169.145 69.6801L167.643 71.764C167.422 72.0896 167.472 72.5052 167.752 72.6621C168.032 72.8191 168.421 72.6563 168.594 72.3075L169.672 69.9824L171.174 67.8985C171.395 67.5729 171.345 67.1573 171.065 67.0004C170.785 66.8434 170.397 67.0062 170.223 67.3549L169.145 69.6801Z" fill="#FFFDF6"/>
<path d="M169.145 69.6801L167.643 71.764C167.422 72.0896 167.472 72.5052 167.752 72.6621C168.032 72.8191 168.421 72.6563 168.594 72.3075L169.672 69.9824L171.174 67.8985C171.395 67.5729 171.345 67.1573 171.065 67.0004C170.785 66.8434 170.397 67.0062 170.223 67.3549L169.145 69.6801Z" fill="black" fill-opacity="0.6"/>
<path d="M169.257 69.5697L166.901 70.6335C166.545 70.8079 166.38 71.1915 166.542 71.4647C166.704 71.7379 167.122 71.7902 167.452 71.5723L169.563 70.09L171.919 69.0262C172.276 68.8518 172.441 68.4682 172.279 68.195C172.117 67.9218 171.698 67.8694 171.369 68.0874L169.257 69.5697Z" fill="#FFFDF6"/>
<path d="M169.257 69.5697L166.901 70.6335C166.545 70.8079 166.38 71.1915 166.542 71.4647C166.704 71.7379 167.122 71.7902 167.452 71.5723L169.563 70.09L171.919 69.0262C172.276 68.8518 172.441 68.4682 172.279 68.195C172.117 67.9218 171.698 67.8694 171.369 68.0874L169.257 69.5697Z" fill="black" fill-opacity="0.6"/>
<path d="M169.41 69.5292L166.83 69.288C166.436 69.2619 166.097 69.5118 166.097 69.8315C166.097 70.1512 166.436 70.4012 166.83 70.375L169.41 70.1338L171.99 70.375C172.385 70.4012 172.723 70.1512 172.723 69.8315C172.723 69.5118 172.385 69.2619 171.99 69.288L169.41 69.5292Z" fill="#FFFDF6"/>
<path d="M169.41 69.5292L166.83 69.288C166.436 69.2619 166.097 69.5118 166.097 69.8315C166.097 70.1512 166.436 70.4012 166.83 70.375L169.41 70.1338L171.99 70.375C172.385 70.4012 172.723 70.1512 172.723 69.8315C172.723 69.5118 172.385 69.2619 171.99 69.288L169.41 69.5292Z" fill="black" fill-opacity="0.6"/>
<path d="M169.563 69.5696L167.452 68.0873C167.122 67.8694 166.701 67.9188 166.542 68.1949C166.383 68.471 166.548 68.8546 166.901 69.0261L169.257 70.0899L171.369 71.5722C171.698 71.7902 172.119 71.7407 172.279 71.4646C172.438 71.1885 172.273 70.8049 171.919 70.6334L169.563 69.5696Z" fill="#FFFDF6"/>
<path d="M169.563 69.5696L167.452 68.0873C167.122 67.8694 166.701 67.9188 166.542 68.1949C166.383 68.471 166.548 68.8546 166.901 69.0261L169.257 70.0899L171.369 71.5722C171.698 71.7902 172.119 71.7407 172.279 71.4646C172.438 71.1885 172.273 70.8049 171.919 70.6334L169.563 69.5696Z" fill="black" fill-opacity="0.6"/>
<path d="M169.675 69.6803L168.597 67.3552C168.421 67.0035 168.032 66.8407 167.755 67.0006C167.478 67.1604 167.425 67.5732 167.646 67.8987L169.148 69.9826L170.226 72.3078C170.403 72.6594 170.791 72.8222 171.068 72.6623C171.345 72.5025 171.398 72.0898 171.177 71.7642L169.675 69.6803Z" fill="#FFFDF6"/>
<path d="M169.675 69.6803L168.597 67.3552C168.421 67.0035 168.032 66.8407 167.755 67.0006C167.478 67.1604 167.425 67.5732 167.646 67.8987L169.148 69.9826L170.226 72.3078C170.403 72.6594 170.791 72.8222 171.068 72.6623C171.345 72.5025 171.398 72.0898 171.177 71.7642L169.675 69.6803Z" fill="black" fill-opacity="0.6"/>
<path d="M169.714 69.8313L169.958 67.2852C169.984 66.8958 169.731 66.5615 169.407 66.5615C169.083 66.5615 168.83 66.8958 168.857 67.2852L169.101 69.8313L168.857 72.3773C168.83 72.7668 169.083 73.101 169.407 73.101C169.731 73.101 169.984 72.7668 169.958 72.3773L169.714 69.8313Z" fill="#FFFDF6"/>
<path d="M169.714 69.8313L169.958 67.2852C169.984 66.8958 169.731 66.5615 169.407 66.5615C169.083 66.5615 168.83 66.8958 168.857 67.2852L169.101 69.8313L168.857 72.3773C168.83 72.7668 169.083 73.101 169.407 73.101C169.731 73.101 169.984 72.7668 169.958 72.3773L169.714 69.8313Z" fill="black" fill-opacity="0.6"/>
<path d="M169.41 72.011C170.63 72.011 171.619 71.0351 171.619 69.8312C171.619 68.6273 170.63 67.6514 169.41 67.6514C168.19 67.6514 167.201 68.6273 167.201 69.8312C167.201 71.0351 168.19 72.011 169.41 72.011Z" fill="#FFCA1E"/>
<path d="M169.41 72.011C170.63 72.011 171.619 71.0351 171.619 69.8312C171.619 68.6273 170.63 67.6514 169.41 67.6514C168.19 67.6514 167.201 68.6273 167.201 69.8312C167.201 71.0351 168.19 72.011 169.41 72.011Z" fill="black" fill-opacity="0.6"/>
<path d="M149.617 44.3475C151.796 44.7311 154.8 43.6092 155.419 41.5137C155.454 41.3916 155.501 41.2666 155.56 41.1358C155.896 40.4383 156.564 39.9878 157.303 39.9878C158.11 39.9878 159.076 40.5487 159.162 41.6212V42.6995C158.888 43.1907 158.384 44.1527 158.337 44.7108C158.21 46.225 157.395 47.5184 156.102 48.1985C155.536 48.5211 154.856 48.7071 154.034 48.7071C151.602 48.7071 149.626 46.7627 149.617 44.3649C149.532 44.3475 149.417 44.3126 149.617 44.3475Z" fill="white"/>
<path d="M149.617 44.3475C151.796 44.7311 154.8 43.6092 155.419 41.5137C155.454 41.3916 155.501 41.2666 155.56 41.1358C155.896 40.4383 156.564 39.9878 157.303 39.9878C158.11 39.9878 159.076 40.5487 159.162 41.6212V42.6995C158.888 43.1907 158.384 44.1527 158.337 44.7108C158.21 46.225 157.395 47.5184 156.102 48.1985C155.536 48.5211 154.856 48.7071 154.034 48.7071C151.602 48.7071 149.626 46.7627 149.617 44.3649C149.532 44.3475 149.417 44.3126 149.617 44.3475Z" fill="black" fill-opacity="0.6"/>
<path d="M159.165 41.6211L160.304 42.0367L159.165 42.6965C159.009 42.3215 158.979 41.9786 159.165 41.6182V41.6211Z" fill="#F99428"/>
<path d="M159.165 41.6211L160.304 42.0367L159.165 42.6965C159.009 42.3215 158.979 41.9786 159.165 41.6182V41.6211Z" fill="black" fill-opacity="0.6"/>
<path d="M157.727 41.8043C157.931 41.8043 158.096 41.6416 158.096 41.4409C158.096 41.2403 157.931 41.0776 157.727 41.0776C157.524 41.0776 157.359 41.2403 157.359 41.4409C157.359 41.6416 157.524 41.8043 157.727 41.8043Z" fill="#4D4C4D"/>
<path d="M150.88 45.3211C151.363 46.8906 153.045 47.7742 154.635 47.2975C156.226 46.8209 157.124 45.1613 156.638 43.5918L150.88 45.3211Z" fill="#F99428"/>
<path d="M150.88 45.3211C151.363 46.8906 153.045 47.7742 154.635 47.2975C156.226 46.8209 157.124 45.1613 156.638 43.5918L150.88 45.3211Z" fill="black" fill-opacity="0.6"/>
</g>
<path d="M185.56 80.0257H182.416C182.416 80.0257 183.955 57.4762 199.057 44.5146C199.057 44.5146 187.242 55.2568 185.563 80.0257H185.56Z" fill="#80A62C"/>
<path d="M185.56 80.0257H182.416C182.416 80.0257 183.955 57.4762 199.057 44.5146C199.057 44.5146 187.242 55.2568 185.563 80.0257H185.56Z" fill="black" fill-opacity="0.6"/>
<path d="M207.081 65.8242C207.081 65.8242 195.471 73.5923 194.206 80.0227H191.885C191.885 80.0227 194.63 72.521 207.081 65.8242Z" fill="#80A62C"/>
<path d="M207.081 65.8242C207.081 65.8242 195.471 73.5923 194.206 80.0227H191.885C191.885 80.0227 194.63 72.521 207.081 65.8242Z" fill="black" fill-opacity="0.6"/>
<path d="M191.237 62.27C191.237 62.27 179.585 68.3631 176.186 80.0256H173.471C176.21 72.5061 181.459 66.336 191.237 62.27Z" fill="#80A62C"/>
<path d="M191.237 62.27C191.237 62.27 179.585 68.3631 176.186 80.0256H173.471C176.21 72.5061 181.459 66.336 191.237 62.27Z" fill="black" fill-opacity="0.6"/>
<path d="M191.237 66.0405C191.237 66.0405 182.111 71.6809 179.932 80.026H177.536C177.536 80.026 179.976 70.7043 191.237 66.0405Z" fill="#80A62C"/>
<path d="M191.237 66.0405C191.237 66.0405 182.111 71.6809 179.932 80.026H177.536C177.536 80.026 179.976 70.7043 191.237 66.0405Z" fill="black" fill-opacity="0.6"/>
<path d="M191.669 80.0256H194.34C194.34 80.0256 193.28 65.9987 199.391 61.0479C199.391 61.0479 191.669 65.6436 191.669 80.0256Z" fill="#80A62C"/>
<path d="M191.669 80.0256H194.34C194.34 80.0256 193.28 65.9987 199.391 61.0479C199.391 61.0479 191.669 65.6436 191.669 80.0256Z" fill="black" fill-opacity="0.6"/>
<path d="M199.702 80.0259H202.397C202.397 80.0259 202.977 75.3355 209 71.2251C209 71.2251 201.36 74.3442 199.699 80.0259H199.702Z" fill="#80A62C"/>
<path d="M199.702 80.0259H202.397C202.397 80.0259 202.977 75.3355 209 71.2251C209 71.2251 201.36 74.3442 199.699 80.0259H199.702Z" fill="black" fill-opacity="0.6"/>
<path d="M193.09 80.0259H195.785C195.785 80.0259 196.365 75.3355 202.391 71.2251C202.391 71.2251 194.971 73.6339 193.09 80.0259Z" fill="#80A62C"/>
<path d="M193.09 80.0259H195.785C195.785 80.0259 196.365 75.3355 202.391 71.2251C202.391 71.2251 194.971 73.6339 193.09 80.0259Z" fill="black" fill-opacity="0.6"/>
<path d="M180.577 65.8213C180.577 65.8213 185.33 69.257 185.38 80.0257H187.681C187.681 80.0257 187.989 71.7664 180.577 65.8213Z" fill="#80A62C"/>
<path d="M180.577 65.8213C180.577 65.8213 185.33 69.257 185.38 80.0257H187.681C187.681 80.0257 187.989 71.7664 180.577 65.8213Z" fill="black" fill-opacity="0.6"/>
<path d="M197.407 80.0258H199.714C199.714 80.0258 197.407 69.9644 189.333 66.2979C189.333 66.2979 196.184 70.6746 197.407 80.0258Z" fill="#80A62C"/>
<path d="M197.407 80.0258H199.714C199.714 80.0258 197.407 69.9644 189.333 66.2979C189.333 66.2979 196.184 70.6746 197.407 80.0258Z" fill="black" fill-opacity="0.6"/>
<path d="M199.14 64.3179C199.14 64.3179 190.615 72.4795 189.803 80.0256H187.411C187.411 80.0256 188.838 72.3907 199.14 64.3179Z" fill="#80A62C"/>
<path d="M199.14 64.3179C199.14 64.3179 190.615 72.4795 189.803 80.0256H187.411C187.411 80.0256 188.838 72.3907 199.14 64.3179Z" fill="black" fill-opacity="0.6"/>
</g>
<defs>
<clipPath id="clip0_3619_321947">
<rect width="209" height="80" fill="white"/>
</clipPath>
<clipPath id="clip1_3619_321947">
<rect width="182" height="80" fill="white" transform="translate(0 4)"/>
</clipPath>
</defs>
</svg>
