<svg width="271" height="403" viewBox="0 0 271 403" fill="none" xmlns="http://www.w3.org/2000/svg">
<path d="M93.2735 381.617C81.3305 392.498 110.475 395.67 116.292 394.407L116.319 394.401C116.567 394.347 116.853 394.309 117.175 394.283C119.429 394.102 123.432 394.56 128.025 395.086C134.374 395.813 141.853 396.669 147.406 396.146C150.612 395.844 153.177 395.082 154.511 393.57C160.07 387.274 155.357 375.321 138.292 365.668C121.488 356.164 103.865 367.206 100.878 372.551C100.832 372.634 100.789 372.715 100.749 372.796C97.0577 377.952 93.2735 381.617 93.2735 381.617Z" fill="#AF9D8C"/>
<path d="M93.2735 381.617C81.3305 392.498 110.475 395.67 116.292 394.407L116.319 394.401C116.567 394.347 116.853 394.309 117.175 394.283C119.429 394.102 123.432 394.56 128.025 395.086C134.374 395.813 141.853 396.669 147.406 396.146C150.612 395.844 153.177 395.082 154.511 393.57C160.07 387.274 155.357 375.321 138.292 365.668C121.488 356.164 103.865 367.206 100.878 372.551C100.832 372.634 100.789 372.715 100.749 372.796C97.0577 377.952 93.2735 381.617 93.2735 381.617Z" fill="black" fill-opacity="0.6"/>
<path d="M67.6159 392.582C59.3719 400.093 79.4901 402.282 83.5052 401.411L83.524 401.407C83.6947 401.37 83.8924 401.343 84.1147 401.325C85.6709 401.2 88.4336 401.516 91.6044 401.879C95.987 402.381 101.149 402.972 104.983 402.611C107.196 402.403 108.966 401.877 109.887 400.833C113.724 396.487 110.471 388.236 98.6914 381.573C87.0922 375.012 74.9274 382.634 72.8654 386.324C72.8333 386.381 72.8036 386.437 72.7764 386.493C70.2281 390.052 67.6159 392.582 67.6159 392.582Z" fill="#AF9D8C"/>
<path d="M67.6159 392.582C59.3719 400.093 79.4901 402.282 83.5052 401.411L83.524 401.407C83.6947 401.37 83.8924 401.343 84.1147 401.325C85.6709 401.2 88.4336 401.516 91.6044 401.879C95.987 402.381 101.149 402.972 104.983 402.611C107.196 402.403 108.966 401.877 109.887 400.833C113.724 396.487 110.471 388.236 98.6914 381.573C87.0922 375.012 74.9274 382.634 72.8654 386.324C72.8333 386.381 72.8036 386.437 72.7764 386.493C70.2281 390.052 67.6159 392.582 67.6159 392.582Z" fill="black" fill-opacity="0.6"/>
<g clip-path="url(#clip0_4684_42999)">
<path d="M269.916 133.336C267.569 130.02 263.717 127.842 260.949 124.811C256.865 120.35 253.272 115.701 250.009 110.607C243.189 99.9581 240.522 88.8646 240.508 76.2287C240.497 65.0738 241.892 54.6739 241.892 43.3709C241.892 33.7838 205.159 26.01 159.845 26.01C114.53 26.01 78.5094 33.6356 77.8154 43.0963C77.8154 43.1144 77.8154 43.1361 77.8154 43.1505C77.8118 43.2228 77.8009 43.2986 77.8009 43.3709C77.8009 43.4431 77.8081 43.519 77.8154 43.5949C77.8227 47.2758 78.0334 56.238 77.819 60.4392C77.3939 68.7295 77.3467 76.9295 76.987 85.1837C76.6782 92.2133 76.224 99.4921 75.5882 106.547C74.7162 116.224 54.039 128.275 49.1268 136.248C47.8915 138.249 46.6779 140.51 47.0776 142.826C47.1357 143.169 47.2411 143.523 47.4845 143.776C48.015 144.321 48.9233 144.148 49.6391 143.888C54.1081 142.259 56.5351 140.131 61.5636 140.279C66.6866 140.431 80.7366 138.122 85.6561 135.76C89.2458 134.037 92.4904 131.53 96.3199 130.425C99.1575 129.605 103.485 128.712 106.173 130.222C105.89 131.049 105.777 131.88 105.69 132.754C105.501 134.647 104.313 136.273 103.165 137.797C101.09 140.554 99.0158 143.306 96.9412 146.062C96.4943 146.658 96.0219 147.395 96.2872 148.092C96.5161 148.696 97.2064 148.977 97.8277 149.162C107.362 151.99 115.805 147.088 124.002 142.833C131.396 138.993 139.505 137.566 147.76 137.133C151.281 136.948 155.692 136.06 159.096 136.414C163.914 136.912 167.184 141.532 171.548 143.198C177.343 145.412 183.81 145.947 189.928 146.611C198.1 147.496 206.267 148.381 214.439 149.266C214.998 149.328 215.631 149.368 216.056 148.996C216.503 148.605 216.521 147.93 216.481 147.337C216.183 142.956 214.533 138.675 211.808 135.214C211.427 134.73 211.013 134.051 211.38 133.556C211.601 133.26 212.008 133.188 212.375 133.145C218.363 132.404 224.423 132.281 230.436 132.776C235.646 133.206 240.105 135.749 245.006 137.451C252.276 139.976 259.343 136.956 266.708 138.494C267.834 138.729 269.102 139.011 270.058 138.375C271.634 137.335 271.013 134.871 269.923 133.329L269.916 133.336Z" fill="#AF804E"/>
<path d="M269.916 133.336C267.569 130.02 263.717 127.842 260.949 124.811C256.865 120.35 253.272 115.701 250.009 110.607C243.189 99.9581 240.522 88.8646 240.508 76.2287C240.497 65.0738 241.892 54.6739 241.892 43.3709C241.892 33.7838 205.159 26.01 159.845 26.01C114.53 26.01 78.5094 33.6356 77.8154 43.0963C77.8154 43.1144 77.8154 43.1361 77.8154 43.1505C77.8118 43.2228 77.8009 43.2986 77.8009 43.3709C77.8009 43.4431 77.8081 43.519 77.8154 43.5949C77.8227 47.2758 78.0334 56.238 77.819 60.4392C77.3939 68.7295 77.3467 76.9295 76.987 85.1837C76.6782 92.2133 76.224 99.4921 75.5882 106.547C74.7162 116.224 54.039 128.275 49.1268 136.248C47.8915 138.249 46.6779 140.51 47.0776 142.826C47.1357 143.169 47.2411 143.523 47.4845 143.776C48.015 144.321 48.9233 144.148 49.6391 143.888C54.1081 142.259 56.5351 140.131 61.5636 140.279C66.6866 140.431 80.7366 138.122 85.6561 135.76C89.2458 134.037 92.4904 131.53 96.3199 130.425C99.1575 129.605 103.485 128.712 106.173 130.222C105.89 131.049 105.777 131.88 105.69 132.754C105.501 134.647 104.313 136.273 103.165 137.797C101.09 140.554 99.0158 143.306 96.9412 146.062C96.4943 146.658 96.0219 147.395 96.2872 148.092C96.5161 148.696 97.2064 148.977 97.8277 149.162C107.362 151.99 115.805 147.088 124.002 142.833C131.396 138.993 139.505 137.566 147.76 137.133C151.281 136.948 155.692 136.06 159.096 136.414C163.914 136.912 167.184 141.532 171.548 143.198C177.343 145.412 183.81 145.947 189.928 146.611C198.1 147.496 206.267 148.381 214.439 149.266C214.998 149.328 215.631 149.368 216.056 148.996C216.503 148.605 216.521 147.93 216.481 147.337C216.183 142.956 214.533 138.675 211.808 135.214C211.427 134.73 211.013 134.051 211.38 133.556C211.601 133.26 212.008 133.188 212.375 133.145C218.363 132.404 224.423 132.281 230.436 132.776C235.646 133.206 240.105 135.749 245.006 137.451C252.276 139.976 259.343 136.956 266.708 138.494C267.834 138.729 269.102 139.011 270.058 138.375C271.634 137.335 271.013 134.871 269.923 133.329L269.916 133.336Z" fill="black" fill-opacity="0.6"/>
<path d="M159.845 60.7318C205.158 60.7318 241.892 52.959 241.892 43.3709C241.892 33.7827 205.158 26.01 159.845 26.01C114.531 26.01 77.7972 33.7827 77.7972 43.3709C77.7972 52.959 114.531 60.7318 159.845 60.7318Z" fill="#CCA363"/>
<path d="M159.845 60.7318C205.158 60.7318 241.892 52.959 241.892 43.3709C241.892 33.7827 205.158 26.01 159.845 26.01C114.531 26.01 77.7972 33.7827 77.7972 43.3709C77.7972 52.959 114.531 60.7318 159.845 60.7318Z" fill="black" fill-opacity="0.6"/>
<path d="M159.845 57.849C202.81 57.849 237.641 51.3669 237.641 43.3708C237.641 35.3747 202.81 28.8926 159.845 28.8926C116.879 28.8926 82.0481 35.3747 82.0481 43.3708C82.0481 51.3669 116.879 57.849 159.845 57.849Z" fill="#D8AC66"/>
<path d="M159.845 57.849C202.81 57.849 237.641 51.3669 237.641 43.3708C237.641 35.3747 202.81 28.8926 159.845 28.8926C116.879 28.8926 82.0481 35.3747 82.0481 43.3708C82.0481 51.3669 116.879 57.849 159.845 57.849Z" fill="black" fill-opacity="0.6"/>
<path d="M152.037 54.1573C160.066 54.1573 168.786 53.7708 178.563 52.9941C180.907 52.8099 183.258 52.6329 185.608 52.4595C191.502 52.026 197.595 51.5745 203.557 50.9206C204.967 50.7653 206.413 50.6317 207.877 50.498C213.174 50.014 218.657 49.5118 223.536 47.8538C226.421 46.8712 227.224 45.5419 227.388 44.5955C227.548 43.6635 227.253 42.1896 224.917 40.4557C221.912 38.2269 217.56 37.5369 213.719 36.9265C213.036 36.8181 212.368 36.7133 211.725 36.6014C199.858 34.5351 188.024 33.4117 179.036 32.6603C177.818 32.5592 176.598 32.4508 175.377 32.346C171.093 31.974 166.664 31.5874 162.308 31.4068C161.523 31.3743 160.742 31.3346 159.961 31.2984C157.984 31.2009 155.942 31.0962 153.915 31.1034C152.85 31.1034 148.745 31.2912 148.57 31.2984C148.225 31.3129 147.956 31.5874 147.974 31.9089C147.993 32.234 148.323 32.505 148.632 32.4652C148.676 32.4652 152.883 32.2738 153.919 32.2702H153.977C155.95 32.2702 157.955 32.3677 159.895 32.4652C160.68 32.5014 161.465 32.5447 162.25 32.5736C166.577 32.7542 170.988 33.1407 175.257 33.5128C176.481 33.6176 177.706 33.7259 178.923 33.8271C187.883 34.5748 199.68 35.6983 211.492 37.7537C212.142 37.8657 212.818 37.974 213.509 38.0824C217.2 38.6676 221.382 39.3323 224.136 41.3732C225.611 42.4678 226.305 43.5154 226.149 44.4112C225.993 45.3107 224.91 46.1451 223.104 46.7592C218.374 48.3667 212.974 48.8616 207.753 49.3384C206.282 49.4721 204.829 49.6058 203.412 49.7611C197.475 50.4149 191.393 50.8629 185.51 51.2963C183.159 51.4697 180.805 51.6431 178.462 51.831C161.127 53.2109 147.139 53.3554 134.426 52.2897C132.002 52.0874 129.477 51.9393 127.032 51.7948C118.57 51.2999 109.817 50.787 102.053 47.9296C100.378 47.3119 97.4642 45.6611 96.7738 43.8513C96.5449 43.2444 96.5958 42.6845 96.9264 42.1354C97.9401 40.4666 101.526 39.9428 104.4 39.5237C105.588 39.3503 106.616 39.2022 107.401 38.9855C115.671 36.7206 124.794 36.3629 133.616 36.0162C134.978 35.962 136.33 35.9114 137.67 35.85C155.415 35.0625 173.611 36.0414 190.281 38.6857C191.007 38.8013 191.734 38.9132 192.457 39.0216C195.709 39.5165 199.07 40.0295 202.256 40.9253C203.927 41.3949 205.897 42.5978 205.929 43.4467C205.955 43.9994 204.977 44.4329 204.393 44.646C201.264 45.7767 197.115 45.9609 193.456 46.1235C192.849 46.1524 192.257 46.1777 191.69 46.2066C186.749 46.4666 181.739 46.8676 176.892 47.2505C175.362 47.3733 173.829 47.4962 172.299 47.6117C163.968 48.2547 155.514 48.1319 147.339 48.0127C144.069 47.9658 140.686 47.9152 137.343 47.9152C133.329 47.9152 128.958 47.5251 123.584 46.6834C120.18 46.1524 115.94 44.9711 115.187 43.4034C115.108 43.2372 115.137 43.1397 115.209 43.0349C116.644 40.9723 130.135 40.2065 138.299 40.2065C141.14 40.2065 144.032 40.2859 146.834 40.3618C149.631 40.4377 152.527 40.5171 155.372 40.5171H155.405C156.68 40.5171 157.959 40.5027 159.241 40.4882C162.671 40.4485 166.214 40.4051 169.625 40.6688C172.884 40.9181 176.707 41.2866 180.369 42.0957C181.648 42.3775 182.059 42.6448 182.178 42.7495C181.866 43.1072 180.195 43.714 178.316 43.8802C172.387 44.3932 164.64 44.8953 157.323 44.1836C154.071 43.8694 150.391 43.6201 145.736 43.4034C145.035 43.3709 144.247 43.3022 143.418 43.23C140.748 42.9988 137.714 42.7351 135.469 43.4323C135.138 43.5334 134.96 43.8621 135.073 44.1692C135.182 44.4762 135.538 44.6424 135.865 44.5377C137.863 43.9199 140.755 44.1692 143.306 44.3895C144.152 44.4618 144.955 44.534 145.678 44.5666C150.307 44.7833 153.969 45.0289 157.196 45.3432C164.626 46.0657 172.448 45.5636 178.44 45.0398C179.799 44.9206 183.356 44.2884 183.468 42.8037C183.552 41.72 181.906 41.2324 180.663 40.9578C176.921 40.1306 173.037 39.7585 169.734 39.5021C166.265 39.2347 162.689 39.2745 159.23 39.3178C157.952 39.3323 156.676 39.3503 155.408 39.3503H155.376C152.549 39.3503 149.664 39.2709 146.874 39.195C144.065 39.1192 141.162 39.0397 138.303 39.0397C136.072 39.0397 116.437 39.1336 114.159 42.3991C113.84 42.8579 113.8 43.3709 114.043 43.8802C115.209 46.3149 120.961 47.4564 123.377 47.8357C128.816 48.6882 133.256 49.0856 137.343 49.0856C140.675 49.0856 144.054 49.1325 147.317 49.1831C155.521 49.3023 164.008 49.4251 172.401 48.7785C173.934 48.6593 175.464 48.5401 176.997 48.4173C181.837 48.0344 186.836 47.6334 191.76 47.3733C192.326 47.3444 192.911 47.3191 193.514 47.2903C197.271 47.1241 201.526 46.9362 204.847 45.7333C206.434 45.159 207.223 44.3715 207.183 43.3998C207.114 41.6984 204.345 40.2932 202.616 39.8055C199.353 38.888 195.949 38.3678 192.657 37.8657C191.934 37.7573 191.211 37.6453 190.488 37.5297C173.731 34.871 155.448 33.8849 137.605 34.6796C136.268 34.7374 134.92 34.7916 133.561 34.8458C124.663 35.1962 115.46 35.5538 107.042 37.8621C106.337 38.0535 105.301 38.2052 104.204 38.3642C101.058 38.8229 97.1444 39.3937 95.8292 41.5539C95.3133 42.4028 95.2333 43.3022 95.5858 44.2342C96.4178 46.4233 99.6296 48.2909 101.584 49.0097C109.534 51.9357 118.388 52.4523 126.945 52.9544C129.379 53.0989 131.901 53.2434 134.306 53.4457C139.909 53.9153 145.762 54.1501 152.029 54.1501L152.037 54.1573Z" fill="#AF804E"/>
<path d="M152.037 54.1573C160.066 54.1573 168.786 53.7708 178.563 52.9941C180.907 52.8099 183.258 52.6329 185.608 52.4595C191.502 52.026 197.595 51.5745 203.557 50.9206C204.967 50.7653 206.413 50.6317 207.877 50.498C213.174 50.014 218.657 49.5118 223.536 47.8538C226.421 46.8712 227.224 45.5419 227.388 44.5955C227.548 43.6635 227.253 42.1896 224.917 40.4557C221.912 38.2269 217.56 37.5369 213.719 36.9265C213.036 36.8181 212.368 36.7133 211.725 36.6014C199.858 34.5351 188.024 33.4117 179.036 32.6603C177.818 32.5592 176.598 32.4508 175.377 32.346C171.093 31.974 166.664 31.5874 162.308 31.4068C161.523 31.3743 160.742 31.3346 159.961 31.2984C157.984 31.2009 155.942 31.0962 153.915 31.1034C152.85 31.1034 148.745 31.2912 148.57 31.2984C148.225 31.3129 147.956 31.5874 147.974 31.9089C147.993 32.234 148.323 32.505 148.632 32.4652C148.676 32.4652 152.883 32.2738 153.919 32.2702H153.977C155.95 32.2702 157.955 32.3677 159.895 32.4652C160.68 32.5014 161.465 32.5447 162.25 32.5736C166.577 32.7542 170.988 33.1407 175.257 33.5128C176.481 33.6176 177.706 33.7259 178.923 33.8271C187.883 34.5748 199.68 35.6983 211.492 37.7537C212.142 37.8657 212.818 37.974 213.509 38.0824C217.2 38.6676 221.382 39.3323 224.136 41.3732C225.611 42.4678 226.305 43.5154 226.149 44.4112C225.993 45.3107 224.91 46.1451 223.104 46.7592C218.374 48.3667 212.974 48.8616 207.753 49.3384C206.282 49.4721 204.829 49.6058 203.412 49.7611C197.475 50.4149 191.393 50.8629 185.51 51.2963C183.159 51.4697 180.805 51.6431 178.462 51.831C161.127 53.2109 147.139 53.3554 134.426 52.2897C132.002 52.0874 129.477 51.9393 127.032 51.7948C118.57 51.2999 109.817 50.787 102.053 47.9296C100.378 47.3119 97.4642 45.6611 96.7738 43.8513C96.5449 43.2444 96.5958 42.6845 96.9264 42.1354C97.9401 40.4666 101.526 39.9428 104.4 39.5237C105.588 39.3503 106.616 39.2022 107.401 38.9855C115.671 36.7206 124.794 36.3629 133.616 36.0162C134.978 35.962 136.33 35.9114 137.67 35.85C155.415 35.0625 173.611 36.0414 190.281 38.6857C191.007 38.8013 191.734 38.9132 192.457 39.0216C195.709 39.5165 199.07 40.0295 202.256 40.9253C203.927 41.3949 205.897 42.5978 205.929 43.4467C205.955 43.9994 204.977 44.4329 204.393 44.646C201.264 45.7767 197.115 45.9609 193.456 46.1235C192.849 46.1524 192.257 46.1777 191.69 46.2066C186.749 46.4666 181.739 46.8676 176.892 47.2505C175.362 47.3733 173.829 47.4962 172.299 47.6117C163.968 48.2547 155.514 48.1319 147.339 48.0127C144.069 47.9658 140.686 47.9152 137.343 47.9152C133.329 47.9152 128.958 47.5251 123.584 46.6834C120.18 46.1524 115.94 44.9711 115.187 43.4034C115.108 43.2372 115.137 43.1397 115.209 43.0349C116.644 40.9723 130.135 40.2065 138.299 40.2065C141.14 40.2065 144.032 40.2859 146.834 40.3618C149.631 40.4377 152.527 40.5171 155.372 40.5171H155.405C156.68 40.5171 157.959 40.5027 159.241 40.4882C162.671 40.4485 166.214 40.4051 169.625 40.6688C172.884 40.9181 176.707 41.2866 180.369 42.0957C181.648 42.3775 182.059 42.6448 182.178 42.7495C181.866 43.1072 180.195 43.714 178.316 43.8802C172.387 44.3932 164.64 44.8953 157.323 44.1836C154.071 43.8694 150.391 43.6201 145.736 43.4034C145.035 43.3709 144.247 43.3022 143.418 43.23C140.748 42.9988 137.714 42.7351 135.469 43.4323C135.138 43.5334 134.96 43.8621 135.073 44.1692C135.182 44.4762 135.538 44.6424 135.865 44.5377C137.863 43.9199 140.755 44.1692 143.306 44.3895C144.152 44.4618 144.955 44.534 145.678 44.5666C150.307 44.7833 153.969 45.0289 157.196 45.3432C164.626 46.0657 172.448 45.5636 178.44 45.0398C179.799 44.9206 183.356 44.2884 183.468 42.8037C183.552 41.72 181.906 41.2324 180.663 40.9578C176.921 40.1306 173.037 39.7585 169.734 39.5021C166.265 39.2347 162.689 39.2745 159.23 39.3178C157.952 39.3323 156.676 39.3503 155.408 39.3503H155.376C152.549 39.3503 149.664 39.2709 146.874 39.195C144.065 39.1192 141.162 39.0397 138.303 39.0397C136.072 39.0397 116.437 39.1336 114.159 42.3991C113.84 42.8579 113.8 43.3709 114.043 43.8802C115.209 46.3149 120.961 47.4564 123.377 47.8357C128.816 48.6882 133.256 49.0856 137.343 49.0856C140.675 49.0856 144.054 49.1325 147.317 49.1831C155.521 49.3023 164.008 49.4251 172.401 48.7785C173.934 48.6593 175.464 48.5401 176.997 48.4173C181.837 48.0344 186.836 47.6334 191.76 47.3733C192.326 47.3444 192.911 47.3191 193.514 47.2903C197.271 47.1241 201.526 46.9362 204.847 45.7333C206.434 45.159 207.223 44.3715 207.183 43.3998C207.114 41.6984 204.345 40.2932 202.616 39.8055C199.353 38.888 195.949 38.3678 192.657 37.8657C191.934 37.7573 191.211 37.6453 190.488 37.5297C173.731 34.871 155.448 33.8849 137.605 34.6796C136.268 34.7374 134.92 34.7916 133.561 34.8458C124.663 35.1962 115.46 35.5538 107.042 37.8621C106.337 38.0535 105.301 38.2052 104.204 38.3642C101.058 38.8229 97.1444 39.3937 95.8292 41.5539C95.3133 42.4028 95.2333 43.3022 95.5858 44.2342C96.4178 46.4233 99.6296 48.2909 101.584 49.0097C109.534 51.9357 118.388 52.4523 126.945 52.9544C129.379 53.0989 131.901 53.2434 134.306 53.4457C139.909 53.9153 145.762 54.1501 152.029 54.1501L152.037 54.1573Z" fill="black" fill-opacity="0.6"/>
<path d="M152.037 54.1573C160.066 54.1573 168.786 53.7708 178.563 52.9941C180.907 52.8099 183.258 52.6329 185.608 52.4595C191.502 52.026 197.595 51.5745 203.557 50.9206C204.967 50.7653 206.413 50.6317 207.877 50.498C213.174 50.014 218.657 49.5118 223.536 47.8538C226.421 46.8712 227.224 45.5419 227.388 44.5955C227.548 43.6635 227.253 42.1896 224.917 40.4557C221.912 38.2269 217.56 37.5369 213.719 36.9265C213.036 36.8181 212.368 36.7133 211.725 36.6014C199.858 34.5351 188.024 33.4117 179.036 32.6603C177.818 32.5592 176.598 32.4508 175.377 32.346C171.093 31.974 166.664 31.5874 162.308 31.4068C161.523 31.3743 160.742 31.3346 159.961 31.2984C157.984 31.2009 155.942 31.0962 153.915 31.1034C152.85 31.1034 148.745 31.2912 148.57 31.2984C148.225 31.3129 147.956 31.5874 147.974 31.9089C147.993 32.234 148.323 32.505 148.632 32.4652C148.676 32.4652 152.883 32.2738 153.919 32.2702H153.977C155.95 32.2702 157.955 32.3677 159.895 32.4652C160.68 32.5014 161.465 32.5447 162.25 32.5736C166.577 32.7542 170.988 33.1407 175.257 33.5128C176.481 33.6176 177.706 33.7259 178.923 33.8271C187.883 34.5748 199.68 35.6983 211.492 37.7537C212.142 37.8657 212.818 37.974 213.509 38.0824C217.2 38.6676 221.382 39.3323 224.136 41.3732C225.611 42.4678 226.305 43.5154 226.149 44.4112C225.993 45.3107 224.91 46.1451 223.104 46.7592C218.374 48.3667 212.974 48.8616 207.753 49.3384C206.282 49.4721 204.829 49.6058 203.412 49.7611C197.475 50.4149 191.393 50.8629 185.51 51.2963C183.159 51.4697 180.805 51.6431 178.462 51.831C161.127 53.2109 147.139 53.3554 134.426 52.2897C132.002 52.0874 129.477 51.9393 127.032 51.7948C118.57 51.2999 109.817 50.787 102.053 47.9296C100.378 47.3119 97.4642 45.6611 96.7738 43.8513C96.5449 43.2444 96.5958 42.6845 96.9264 42.1354C97.9401 40.4666 101.526 39.9428 104.4 39.5237C105.588 39.3503 106.616 39.2022 107.401 38.9855C115.671 36.7206 124.794 36.3629 133.616 36.0162C134.978 35.962 136.33 35.9114 137.67 35.85C155.415 35.0625 173.611 36.0414 190.281 38.6857C191.007 38.8013 191.734 38.9132 192.457 39.0216C195.709 39.5165 199.07 40.0295 202.256 40.9253C203.927 41.3949 205.897 42.5978 205.929 43.4467C205.955 43.9994 204.977 44.4329 204.393 44.646C201.264 45.7767 197.115 45.9609 193.456 46.1235C192.849 46.1524 192.257 46.1777 191.69 46.2066C186.749 46.4666 181.739 46.8676 176.892 47.2505C175.362 47.3733 173.829 47.4962 172.299 47.6117C163.968 48.2547 155.514 48.1319 147.339 48.0127C144.069 47.9658 140.686 47.9152 137.343 47.9152C133.329 47.9152 128.958 47.5251 123.584 46.6834C120.18 46.1524 115.94 44.9711 115.187 43.4034C115.108 43.2372 115.137 43.1397 115.209 43.0349C116.644 40.9723 130.135 40.2065 138.299 40.2065C141.14 40.2065 144.032 40.2859 146.834 40.3618C149.631 40.4377 152.527 40.5171 155.372 40.5171H155.405C156.68 40.5171 157.959 40.5027 159.241 40.4882C162.671 40.4485 166.214 40.4051 169.625 40.6688C172.884 40.9181 176.707 41.2866 180.369 42.0957C181.648 42.3775 182.059 42.6448 182.178 42.7495C181.866 43.1072 180.195 43.714 178.316 43.8802C172.387 44.3932 164.64 44.8953 157.323 44.1836C154.071 43.8694 150.391 43.6201 145.736 43.4034C145.035 43.3709 144.247 43.3022 143.418 43.23C140.748 42.9988 137.714 42.7351 135.469 43.4323C135.138 43.5334 134.96 43.8621 135.073 44.1692C135.182 44.4762 135.538 44.6424 135.865 44.5377C137.863 43.9199 140.755 44.1692 143.306 44.3895C144.152 44.4618 144.955 44.534 145.678 44.5666C150.307 44.7833 153.969 45.0289 157.196 45.3432C164.626 46.0657 172.448 45.5636 178.44 45.0398C179.799 44.9206 183.356 44.2884 183.468 42.8037C183.552 41.72 181.906 41.2324 180.663 40.9578C176.921 40.1306 173.037 39.7585 169.734 39.5021C166.265 39.2347 162.689 39.2745 159.23 39.3178C157.952 39.3323 156.676 39.3503 155.408 39.3503H155.376C152.549 39.3503 149.664 39.2709 146.874 39.195C144.065 39.1192 141.162 39.0397 138.303 39.0397C136.072 39.0397 116.437 39.1336 114.159 42.3991C113.84 42.8579 113.8 43.3709 114.043 43.8802C115.209 46.3149 120.961 47.4564 123.377 47.8357C128.816 48.6882 133.256 49.0856 137.343 49.0856C140.675 49.0856 144.054 49.1325 147.317 49.1831C155.521 49.3023 164.008 49.4251 172.401 48.7785C173.934 48.6593 175.464 48.5401 176.997 48.4173C181.837 48.0344 186.836 47.6334 191.76 47.3733C192.326 47.3444 192.911 47.3191 193.514 47.2903C197.271 47.1241 201.526 46.9362 204.847 45.7333C206.434 45.159 207.223 44.3715 207.183 43.3998C207.114 41.6984 204.345 40.2932 202.616 39.8055C199.353 38.888 195.949 38.3678 192.657 37.8657C191.934 37.7573 191.211 37.6453 190.488 37.5297C173.731 34.871 155.448 33.8849 137.605 34.6796C136.268 34.7374 134.92 34.7916 133.561 34.8458C124.663 35.1962 115.46 35.5538 107.042 37.8621C106.337 38.0535 105.301 38.2052 104.204 38.3642C101.058 38.8229 97.1444 39.3937 95.8292 41.5539C95.3133 42.4028 95.2333 43.3022 95.5858 44.2342C96.4178 46.4233 99.6296 48.2909 101.584 49.0097C109.534 51.9357 118.388 52.4523 126.945 52.9544C129.379 53.0989 131.901 53.2434 134.306 53.4457C139.909 53.9153 145.762 54.1501 152.029 54.1501L152.037 54.1573Z" stroke="#CB965F"/>
<path d="M152.037 54.1573C160.066 54.1573 168.786 53.7708 178.563 52.9941C180.907 52.8099 183.258 52.6329 185.608 52.4595C191.502 52.026 197.595 51.5745 203.557 50.9206C204.967 50.7653 206.413 50.6317 207.877 50.498C213.174 50.014 218.657 49.5118 223.536 47.8538C226.421 46.8712 227.224 45.5419 227.388 44.5955C227.548 43.6635 227.253 42.1896 224.917 40.4557C221.912 38.2269 217.56 37.5369 213.719 36.9265C213.036 36.8181 212.368 36.7133 211.725 36.6014C199.858 34.5351 188.024 33.4117 179.036 32.6603C177.818 32.5592 176.598 32.4508 175.377 32.346C171.093 31.974 166.664 31.5874 162.308 31.4068C161.523 31.3743 160.742 31.3346 159.961 31.2984C157.984 31.2009 155.942 31.0962 153.915 31.1034C152.85 31.1034 148.745 31.2912 148.57 31.2984C148.225 31.3129 147.956 31.5874 147.974 31.9089C147.993 32.234 148.323 32.505 148.632 32.4652C148.676 32.4652 152.883 32.2738 153.919 32.2702H153.977C155.95 32.2702 157.955 32.3677 159.895 32.4652C160.68 32.5014 161.465 32.5447 162.25 32.5736C166.577 32.7542 170.988 33.1407 175.257 33.5128C176.481 33.6176 177.706 33.7259 178.923 33.8271C187.883 34.5748 199.68 35.6983 211.492 37.7537C212.142 37.8657 212.818 37.974 213.509 38.0824C217.2 38.6676 221.382 39.3323 224.136 41.3732C225.611 42.4678 226.305 43.5154 226.149 44.4112C225.993 45.3107 224.91 46.1451 223.104 46.7592C218.374 48.3667 212.974 48.8616 207.753 49.3384C206.282 49.4721 204.829 49.6058 203.412 49.7611C197.475 50.4149 191.393 50.8629 185.51 51.2963C183.159 51.4697 180.805 51.6431 178.462 51.831C161.127 53.2109 147.139 53.3554 134.426 52.2897C132.002 52.0874 129.477 51.9393 127.032 51.7948C118.57 51.2999 109.817 50.787 102.053 47.9296C100.378 47.3119 97.4642 45.6611 96.7738 43.8513C96.5449 43.2444 96.5958 42.6845 96.9264 42.1354C97.9401 40.4666 101.526 39.9428 104.4 39.5237C105.588 39.3503 106.616 39.2022 107.401 38.9855C115.671 36.7206 124.794 36.3629 133.616 36.0162C134.978 35.962 136.33 35.9114 137.67 35.85C155.415 35.0625 173.611 36.0414 190.281 38.6857C191.007 38.8013 191.734 38.9132 192.457 39.0216C195.709 39.5165 199.07 40.0295 202.256 40.9253C203.927 41.3949 205.897 42.5978 205.929 43.4467C205.955 43.9994 204.977 44.4329 204.393 44.646C201.264 45.7767 197.115 45.9609 193.456 46.1235C192.849 46.1524 192.257 46.1777 191.69 46.2066C186.749 46.4666 181.739 46.8676 176.892 47.2505C175.362 47.3733 173.829 47.4962 172.299 47.6117C163.968 48.2547 155.514 48.1319 147.339 48.0127C144.069 47.9658 140.686 47.9152 137.343 47.9152C133.329 47.9152 128.958 47.5251 123.584 46.6834C120.18 46.1524 115.94 44.9711 115.187 43.4034C115.108 43.2372 115.137 43.1397 115.209 43.0349C116.644 40.9723 130.135 40.2065 138.299 40.2065C141.14 40.2065 144.032 40.2859 146.834 40.3618C149.631 40.4377 152.527 40.5171 155.372 40.5171H155.405C156.68 40.5171 157.959 40.5027 159.241 40.4882C162.671 40.4485 166.214 40.4051 169.625 40.6688C172.884 40.9181 176.707 41.2866 180.369 42.0957C181.648 42.3775 182.059 42.6448 182.178 42.7495C181.866 43.1072 180.195 43.714 178.316 43.8802C172.387 44.3932 164.64 44.8953 157.323 44.1836C154.071 43.8694 150.391 43.6201 145.736 43.4034C145.035 43.3709 144.247 43.3022 143.418 43.23C140.748 42.9988 137.714 42.7351 135.469 43.4323C135.138 43.5334 134.96 43.8621 135.073 44.1692C135.182 44.4762 135.538 44.6424 135.865 44.5377C137.863 43.9199 140.755 44.1692 143.306 44.3895C144.152 44.4618 144.955 44.534 145.678 44.5666C150.307 44.7833 153.969 45.0289 157.196 45.3432C164.626 46.0657 172.448 45.5636 178.44 45.0398C179.799 44.9206 183.356 44.2884 183.468 42.8037C183.552 41.72 181.906 41.2324 180.663 40.9578C176.921 40.1306 173.037 39.7585 169.734 39.5021C166.265 39.2347 162.689 39.2745 159.23 39.3178C157.952 39.3323 156.676 39.3503 155.408 39.3503H155.376C152.549 39.3503 149.664 39.2709 146.874 39.195C144.065 39.1192 141.162 39.0397 138.303 39.0397C136.072 39.0397 116.437 39.1336 114.159 42.3991C113.84 42.8579 113.8 43.3709 114.043 43.8802C115.209 46.3149 120.961 47.4564 123.377 47.8357C128.816 48.6882 133.256 49.0856 137.343 49.0856C140.675 49.0856 144.054 49.1325 147.317 49.1831C155.521 49.3023 164.008 49.4251 172.401 48.7785C173.934 48.6593 175.464 48.5401 176.997 48.4173C181.837 48.0344 186.836 47.6334 191.76 47.3733C192.326 47.3444 192.911 47.3191 193.514 47.2903C197.271 47.1241 201.526 46.9362 204.847 45.7333C206.434 45.159 207.223 44.3715 207.183 43.3998C207.114 41.6984 204.345 40.2932 202.616 39.8055C199.353 38.888 195.949 38.3678 192.657 37.8657C191.934 37.7573 191.211 37.6453 190.488 37.5297C173.731 34.871 155.448 33.8849 137.605 34.6796C136.268 34.7374 134.92 34.7916 133.561 34.8458C124.663 35.1962 115.46 35.5538 107.042 37.8621C106.337 38.0535 105.301 38.2052 104.204 38.3642C101.058 38.8229 97.1444 39.3937 95.8292 41.5539C95.3133 42.4028 95.2333 43.3022 95.5858 44.2342C96.4178 46.4233 99.6296 48.2909 101.584 49.0097C109.534 51.9357 118.388 52.4523 126.945 52.9544C129.379 53.0989 131.901 53.2434 134.306 53.4457C139.909 53.9153 145.762 54.1501 152.029 54.1501L152.037 54.1573Z" stroke="black" stroke-opacity="0.6"/>
<g style="mix-blend-mode:multiply" opacity="0.31">
<path d="M104.008 60.9449C102.907 64.9727 104.466 68.5416 104.382 72.5875C104.292 76.9764 102.42 80.7152 103.031 85.1873C104.415 95.3199 103.231 105.185 102.46 115.361C102.351 116.81 104.622 116.802 104.731 115.361C105.396 106.572 107.216 97.0466 105.872 88.2831C105.491 85.805 104.924 83.4714 105.204 80.9572C105.454 78.6923 106.214 76.5321 106.508 74.2744C107.068 69.9685 105.036 65.8071 106.199 61.5482C106.581 60.143 104.393 59.5433 104.008 60.9485V60.9449Z" fill="#AF804E"/>
</g>
<g style="mix-blend-mode:multiply" opacity="0.31">
<path d="M121.829 76.0986C121.487 81.528 120.997 86.9681 120.83 92.4047C120.684 97.0646 121.96 101.074 122.541 105.619C123.173 110.549 122.021 115.556 121.749 120.487C121.458 125.692 121.636 130.887 122.156 136.071C122.298 137.505 124.572 137.519 124.427 136.071C123.911 130.887 123.733 125.692 124.02 120.487C124.285 115.73 125.364 110.911 124.91 106.142C124.463 101.461 122.963 97.191 123.101 92.4047C123.257 86.9681 123.758 81.5243 124.1 76.0986C124.191 74.6465 121.92 74.6537 121.829 76.0986Z" fill="#AF804E"/>
</g>
<g style="mix-blend-mode:multiply" opacity="0.31">
<path d="M141.195 72.1179C141.33 77.894 141.526 83.6737 141.595 89.4499C141.657 94.5866 139.716 99.4994 139.945 104.564C140.152 109.152 142.06 113.465 142.95 117.933C143.84 122.387 143.212 127.253 145.01 131.469C145.243 132.01 146.1 132.18 146.565 131.873C148.324 130.71 148.861 129.207 149.297 127.202C150.202 123.055 150.798 118.815 151.546 114.635C152.931 106.901 153.134 99.2826 154.072 91.5197C154.311 89.5438 155.169 79.6352 150.573 80.8417C148.731 81.3221 148.618 83.8688 148.335 85.339C147.612 89.132 147.092 92.9502 146.703 96.7865C146.558 98.2315 148.829 98.2206 148.974 96.7865C149.265 93.8967 149.628 91.0176 150.119 88.153C150.387 86.5745 150.831 81.593 151.808 85.498C152.953 90.0784 150.769 94.9009 150.743 99.503C150.714 104.517 150.242 109.079 149.356 114.035C148.887 116.654 148.418 119.27 147.949 121.889C147.55 124.125 147.557 128.51 145.417 129.922L146.972 130.327C145.145 126.046 145.882 120.473 144.832 115.896C143.629 110.665 141.569 105.944 142.587 100.475C144.338 91.0321 143.691 81.7014 143.466 72.1143C143.433 70.6621 141.162 70.6585 141.195 72.1143V72.1179Z" fill="#AF804E"/>
</g>
<g style="mix-blend-mode:multiply" opacity="0.31">
<path d="M171.432 68.7475C170.857 75.0763 173.862 80.6176 173.306 86.932C173.179 88.3805 175.45 88.3697 175.577 86.932C176.133 80.6032 173.132 75.0474 173.702 68.7475C173.833 67.3026 171.562 67.3098 171.432 68.7475Z" fill="#AF804E"/>
</g>
<g style="mix-blend-mode:multiply" opacity="0.31">
<path d="M175.737 100.739C175.977 104.224 176.217 107.714 176.453 111.2C176.551 112.641 178.822 112.652 178.724 111.2C178.484 107.714 178.244 104.224 178.008 100.739C177.91 99.2972 175.639 99.2863 175.737 100.739Z" fill="#AF804E"/>
</g>
<g style="mix-blend-mode:multiply" opacity="0.31">
<path d="M190.383 78.277C190.993 88.2181 190.978 98.1665 190.281 108.104C189.997 112.146 190.448 114.863 191.636 118.648C193.147 123.46 192.86 128.897 193.086 133.885C193.151 135.334 195.422 135.341 195.357 133.885C195.171 129.749 195.222 125.505 194.586 121.401C194.277 119.418 193.62 117.684 193.002 115.787C192.145 113.154 192.363 110.813 192.555 108.104C193.253 98.1665 193.271 88.2181 192.657 78.277C192.57 76.832 190.295 76.8248 190.386 78.277H190.383Z" fill="#AF804E"/>
</g>
<g style="mix-blend-mode:multiply" opacity="0.31">
<path d="M211.601 64.1996C210.609 68.5561 209.61 73.0173 210.162 77.5039C210.703 81.9109 212.625 85.9459 213.014 90.4071C213.908 100.587 214.22 110.755 215.47 120.917C215.645 122.34 217.919 122.358 217.741 120.917C216.549 111.229 216.001 101.548 215.383 91.8123C215.15 88.1639 214.34 84.8008 213.319 81.2968C211.67 75.6327 212.502 70.4526 213.792 64.7957C214.115 63.3796 211.924 62.7764 211.601 64.196V64.1996Z" fill="#AF804E"/>
</g>
<g style="mix-blend-mode:multiply" opacity="0.31">
<path d="M226.712 96.8696C227.464 102.909 227.849 108.964 227.878 115.051C227.886 116.503 230.156 116.506 230.149 115.051C230.124 108.964 229.735 102.909 228.983 96.8696C228.805 95.4464 226.534 95.4283 226.712 96.8696Z" fill="#AF804E"/>
</g>
<g style="mix-blend-mode:multiply" opacity="0.31">
<path d="M81.79 124.099C84.1626 121.285 86.6659 118.301 87.6251 114.671C88.5589 111.138 87.3853 107.934 86.4625 104.542C84.9619 99.0225 87.2909 94.4529 88.0357 89.0885C88.6461 84.6923 87.8177 80.3034 86.982 75.9902C86.7059 74.5634 84.5186 75.1702 84.7911 76.5899C85.7685 81.6363 86.4007 86.2782 85.278 91.3571C84.5731 94.5432 83.4286 97.6245 83.5449 100.93C83.6503 103.939 84.9728 106.623 85.4996 109.545C86.4479 114.779 83.356 118.735 80.1805 122.503C79.2467 123.608 80.8454 125.216 81.7864 124.099H81.79Z" fill="#AF804E"/>
</g>
<g style="mix-blend-mode:multiply" opacity="0.31">
<path d="M65.3095 130.222C63.6927 130.757 62.1267 131.429 60.6335 132.245C59.3509 132.942 60.4954 134.893 61.778 134.196C63.1077 133.473 64.4739 132.874 65.9127 132.4C67.2933 131.945 66.7011 129.763 65.3095 130.222Z" fill="#AF804E"/>
</g>
<g style="mix-blend-mode:multiply" opacity="0.31">
<path d="M239.2 115.267C241.438 121.625 247.408 125.663 252.258 130.024C253.341 130.995 254.95 129.406 253.864 128.427C249.413 124.428 243.44 120.491 241.391 114.667C240.911 113.306 238.717 113.891 239.2 115.267Z" fill="#AF804E"/>
</g>
<g style="mix-blend-mode:multiply" opacity="0.31">
<path d="M228.845 60.9808C228.147 62.1223 227.711 63.2096 227.824 64.5787C227.951 66.1067 229.037 66.7208 229.422 67.996C230.142 70.3729 228.837 71.7998 228.383 73.8732C227.845 76.3152 228.954 78.9847 229.589 81.293C229.975 82.6909 232.165 82.0985 231.78 80.6933C230.912 77.5506 230.207 75.683 231.475 72.4717C231.817 71.6119 232.354 71.0809 232.463 70.1164C232.79 67.2049 228.855 65.3012 230.803 62.1187C231.566 60.8724 229.6 59.7382 228.841 60.9808H228.845Z" fill="#AF804E"/>
</g>
</g>
<g clip-path="url(#clip1_4684_42999)">
<path d="M100.657 170H88.8004L85 206H105L100.657 170Z" fill="#BAC9B7"/>
<path d="M100.657 170H88.8004L85 206H105L100.657 170Z" fill="black" fill-opacity="0.5"/>
<path d="M116.915 162.171L110.281 150.764C103.49 139.079 86.5109 139.079 79.7194 150.764L73.0855 162.171C69.9873 167.491 73.8556 174.151 80.0345 174.151H109.931C116.11 174.151 119.978 167.509 116.88 162.171H116.915Z" fill="#FA6732"/>
<path d="M116.915 162.171L110.281 150.764C103.49 139.079 86.5109 139.079 79.7194 150.764L73.0855 162.171C69.9873 167.491 73.8556 174.151 80.0345 174.151H109.931C116.11 174.151 119.978 167.509 116.88 162.171H116.915Z" fill="black" fill-opacity="0.5"/>
<path d="M106.605 174.151H83.7451C81.7146 174.151 80.0518 175.786 80.0518 177.82C80.0518 179.855 81.6971 181.489 83.7451 181.489H106.623C108.653 181.489 110.316 179.855 110.316 177.82C110.316 175.786 108.67 174.151 106.623 174.151H106.605Z" fill="#D4DED3"/>
<path d="M106.605 174.151H83.7451C81.7146 174.151 80.0518 175.786 80.0518 177.82C80.0518 179.855 81.6971 181.489 83.7451 181.489H106.623C108.653 181.489 110.316 179.855 110.316 177.82C110.316 175.786 108.67 174.151 106.623 174.151H106.605Z" fill="black" fill-opacity="0.5"/>
<path d="M82.5198 167.961C83.8829 167.961 84.9878 166.863 84.9878 165.509C84.9878 164.155 83.8829 163.057 82.5198 163.057C81.1567 163.057 80.0518 164.155 80.0518 165.509C80.0518 166.863 81.1567 167.961 82.5198 167.961Z" fill="#F6ECA6"/>
<path d="M82.5198 167.961C83.8829 167.961 84.9878 166.863 84.9878 165.509C84.9878 164.155 83.8829 163.057 82.5198 163.057C81.1567 163.057 80.0518 164.155 80.0518 165.509C80.0518 166.863 81.1567 167.961 82.5198 167.961Z" fill="black" fill-opacity="0.5"/>
<path d="M95.175 167.961C96.5381 167.961 97.6431 166.863 97.6431 165.509C97.6431 164.155 96.5381 163.057 95.175 163.057C93.812 163.057 92.707 164.155 92.707 165.509C92.707 166.863 93.812 167.961 95.175 167.961Z" fill="#F6ECA6"/>
<path d="M95.175 167.961C96.5381 167.961 97.6431 166.863 97.6431 165.509C97.6431 164.155 96.5381 163.057 95.175 163.057C93.812 163.057 92.707 164.155 92.707 165.509C92.707 166.863 93.812 167.961 95.175 167.961Z" fill="black" fill-opacity="0.5"/>
<path d="M107.463 167.961C108.826 167.961 109.931 166.863 109.931 165.509C109.931 164.155 108.826 163.057 107.463 163.057C106.1 163.057 104.995 164.155 104.995 165.509C104.995 166.863 106.1 167.961 107.463 167.961Z" fill="#F6ECA6"/>
<path d="M107.463 167.961C108.826 167.961 109.931 166.863 109.931 165.509C109.931 164.155 108.826 163.057 107.463 163.057C106.1 163.057 104.995 164.155 104.995 165.509C104.995 166.863 106.1 167.961 107.463 167.961Z" fill="black" fill-opacity="0.5"/>
<path d="M89.3108 157.128C90.6739 157.128 91.7788 156.03 91.7788 154.676C91.7788 153.322 90.6739 152.224 89.3108 152.224C87.9478 152.224 86.8428 153.322 86.8428 154.676C86.8428 156.03 87.9478 157.128 89.3108 157.128Z" fill="#F6ECA6"/>
<path d="M89.3108 157.128C90.6739 157.128 91.7788 156.03 91.7788 154.676C91.7788 153.322 90.6739 152.224 89.3108 152.224C87.9478 152.224 86.8428 153.322 86.8428 154.676C86.8428 156.03 87.9478 157.128 89.3108 157.128Z" fill="black" fill-opacity="0.5"/>
<path d="M101.038 157.128C102.401 157.128 103.506 156.03 103.506 154.676C103.506 153.322 102.401 152.224 101.038 152.224C99.6753 152.224 98.5703 153.322 98.5703 154.676C98.5703 156.03 99.6753 157.128 101.038 157.128Z" fill="#F6ECA6"/>
<path d="M101.038 157.128C102.401 157.128 103.506 156.03 103.506 154.676C103.506 153.322 102.401 152.224 101.038 152.224C99.6753 152.224 98.5703 153.322 98.5703 154.676C98.5703 156.03 99.6753 157.128 101.038 157.128Z" fill="black" fill-opacity="0.5"/>
</g>
<g clip-path="url(#clip2_4684_42999)">
<path d="M61.8865 177.625H47.4526L42.8261 208H67.1739L61.8865 177.625Z" fill="#BAC9B7"/>
<path d="M61.8865 177.625H47.4526L42.8261 208H67.1739L61.8865 177.625Z" fill="black" fill-opacity="0.5"/>
<path d="M81.6791 171.019L73.603 161.394C65.3351 151.535 44.6654 151.535 36.3975 161.394L28.3214 171.019C24.5497 175.508 29.259 181.128 36.7811 181.128H73.1768C80.6989 181.128 85.4082 175.523 81.6365 171.019H81.6791Z" fill="#FA6732"/>
<path d="M81.6791 171.019L73.603 161.394C65.3351 151.535 44.6654 151.535 36.3975 161.394L28.3214 171.019C24.5497 175.508 29.259 181.128 36.7811 181.128H73.1768C80.6989 181.128 85.4082 175.523 81.6365 171.019H81.6791Z" fill="black" fill-opacity="0.5"/>
<path d="M69.1278 181.128H41.2983C38.8265 181.128 36.8021 182.507 36.8021 184.223C36.8021 185.94 38.8052 187.319 41.2983 187.319H69.1492C71.621 187.319 73.6453 185.94 73.6453 184.223C73.6453 182.507 71.6423 181.128 69.1492 181.128H69.1278Z" fill="#D4DED3"/>
<path d="M69.1278 181.128H41.2983C38.8265 181.128 36.8021 182.507 36.8021 184.223C36.8021 185.94 38.8052 187.319 41.2983 187.319H69.1492C71.621 187.319 73.6453 185.94 73.6453 184.223C73.6453 182.507 71.6423 181.128 69.1492 181.128H69.1278Z" fill="black" fill-opacity="0.5"/>
<path d="M39.8067 175.905C41.4661 175.905 42.8113 174.978 42.8113 173.836C42.8113 172.693 41.4661 171.767 39.8067 171.767C38.1473 171.767 36.8021 172.693 36.8021 173.836C36.8021 174.978 38.1473 175.905 39.8067 175.905Z" fill="#F6ECA6"/>
<path d="M39.8067 175.905C41.4661 175.905 42.8113 174.978 42.8113 173.836C42.8113 172.693 41.4661 171.767 39.8067 171.767C38.1473 171.767 36.8021 172.693 36.8021 173.836C36.8021 174.978 38.1473 175.905 39.8067 175.905Z" fill="black" fill-opacity="0.5"/>
<path d="M55.2131 175.905C56.8725 175.905 58.2177 174.978 58.2177 173.836C58.2177 172.693 56.8725 171.767 55.2131 171.767C53.5537 171.767 52.2085 172.693 52.2085 173.836C52.2085 174.978 53.5537 175.905 55.2131 175.905Z" fill="#F6ECA6"/>
<path d="M55.2131 175.905C56.8725 175.905 58.2177 174.978 58.2177 173.836C58.2177 172.693 56.8725 171.767 55.2131 171.767C53.5537 171.767 52.2085 172.693 52.2085 173.836C52.2085 174.978 53.5537 175.905 55.2131 175.905Z" fill="black" fill-opacity="0.5"/>
<path d="M70.1725 175.905C71.8319 175.905 73.1771 174.978 73.1771 173.836C73.1771 172.693 71.8319 171.767 70.1725 171.767C68.5132 171.767 67.168 172.693 67.168 173.836C67.168 174.978 68.5132 175.905 70.1725 175.905Z" fill="#F6ECA6"/>
<path d="M70.1725 175.905C71.8319 175.905 73.1771 174.978 73.1771 173.836C73.1771 172.693 71.8319 171.767 70.1725 171.767C68.5132 171.767 67.168 172.693 67.168 173.836C67.168 174.978 68.5132 175.905 70.1725 175.905Z" fill="black" fill-opacity="0.5"/>
<path d="M48.074 166.764C49.7334 166.764 51.0786 165.838 51.0786 164.696C51.0786 163.553 49.7334 162.627 48.074 162.627C46.4146 162.627 45.0695 163.553 45.0695 164.696C45.0695 165.838 46.4146 166.764 48.074 166.764Z" fill="#F6ECA6"/>
<path d="M48.074 166.764C49.7334 166.764 51.0786 165.838 51.0786 164.696C51.0786 163.553 49.7334 162.627 48.074 162.627C46.4146 162.627 45.0695 163.553 45.0695 164.696C45.0695 165.838 46.4146 166.764 48.074 166.764Z" fill="black" fill-opacity="0.5"/>
<path d="M62.351 166.764C64.0104 166.764 65.3556 165.838 65.3556 164.696C65.3556 163.553 64.0104 162.627 62.351 162.627C60.6917 162.627 59.3465 163.553 59.3465 164.696C59.3465 165.838 60.6917 166.764 62.351 166.764Z" fill="#F6ECA6"/>
<path d="M62.351 166.764C64.0104 166.764 65.3556 165.838 65.3556 164.696C65.3556 163.553 64.0104 162.627 62.351 162.627C60.6917 162.627 59.3465 163.553 59.3465 164.696C59.3465 165.838 60.6917 166.764 62.351 166.764Z" fill="black" fill-opacity="0.5"/>
</g>
<defs>
<clipPath id="clip0_4684_42999">
<rect width="271" height="150" fill="white"/>
</clipPath>
<clipPath id="clip1_4684_42999">
<rect width="46" height="64" fill="white" transform="translate(72 142)"/>
</clipPath>
<clipPath id="clip2_4684_42999">
<rect width="56" height="54" fill="white" transform="translate(27 154)"/>
</clipPath>
</defs>
</svg>
