<svg width="1199" height="147" viewBox="0 0 1199 147" fill="none" xmlns="http://www.w3.org/2000/svg">
<g clip-path="url(#clip0_4684_43222)">
<rect x="-40" y="104" width="1271" height="43" fill="#9FE3FB"/>
<rect x="-40" y="104" width="1271" height="43" fill="black" fill-opacity="0.6"/>
<rect x="-40" y="91" width="1271" height="21" fill="#A5663C"/>
<rect x="-40" y="91" width="1271" height="21" fill="black" fill-opacity="0.6"/>
<rect x="-40" y="58" width="1271" height="37" fill="#A5663C"/>
<rect x="-40" y="58" width="1271" height="37" fill="black" fill-opacity="0.6"/>
<path d="M133 47C133 68.5391 100.317 86 60 86C19.6832 86 -13 68.5391 -13 47C-13 25.4609 19.6832 8 60 8C100.317 8 133 25.4609 133 47Z" fill="#86C23A"/>
<path d="M133 47C133 68.5391 100.317 86 60 86C19.6832 86 -13 68.5391 -13 47C-13 25.4609 19.6832 8 60 8C100.317 8 133 25.4609 133 47Z" fill="black" fill-opacity="0.6"/>
<path d="M650 47C650 68.5391 682.683 86 723 86C763.317 86 796 68.5391 796 47C796 25.4609 763.317 8 723 8C682.683 8 650 25.4609 650 47Z" fill="#86C23A"/>
<path d="M650 47C650 68.5391 682.683 86 723 86C763.317 86 796 68.5391 796 47C796 25.4609 763.317 8 723 8C682.683 8 650 25.4609 650 47Z" fill="black" fill-opacity="0.6"/>
<path d="M153 50.5C153 66.2401 140.24 79 124.5 79C108.76 79 96 66.2401 96 50.5C96 34.7599 108.76 22 124.5 22C140.24 22 153 34.7599 153 50.5Z" fill="#86C23A"/>
<path d="M153 50.5C153 66.2401 140.24 79 124.5 79C108.76 79 96 66.2401 96 50.5C96 34.7599 108.76 22 124.5 22C140.24 22 153 34.7599 153 50.5Z" fill="black" fill-opacity="0.6"/>
<path d="M630 50.5C630 66.2401 642.76 79 658.5 79C674.24 79 687 66.2401 687 50.5C687 34.7599 674.24 22 658.5 22C642.76 22 630 34.7599 630 50.5Z" fill="#86C23A"/>
<path d="M630 50.5C630 66.2401 642.76 79 658.5 79C674.24 79 687 66.2401 687 50.5C687 34.7599 674.24 22 658.5 22C642.76 22 630 34.7599 630 50.5Z" fill="black" fill-opacity="0.6"/>
<path d="M178 64.5C178 74.165 170.165 82 160.5 82C150.835 82 143 74.165 143 64.5C143 54.835 150.835 47 160.5 47C170.165 47 178 54.835 178 64.5Z" fill="#86C23A"/>
<path d="M178 64.5C178 74.165 170.165 82 160.5 82C150.835 82 143 74.165 143 64.5C143 54.835 150.835 47 160.5 47C170.165 47 178 54.835 178 64.5Z" fill="black" fill-opacity="0.6"/>
<path d="M605 64.5C605 74.165 612.835 82 622.5 82C632.165 82 640 74.165 640 64.5C640 54.835 632.165 47 622.5 47C612.835 47 605 54.835 605 64.5Z" fill="#86C23A"/>
<path d="M605 64.5C605 74.165 612.835 82 622.5 82C632.165 82 640 74.165 640 64.5C640 54.835 632.165 47 622.5 47C612.835 47 605 54.835 605 64.5Z" fill="black" fill-opacity="0.6"/>
<path d="M334 64.5C334 74.165 319.897 82 302.5 82C285.103 82 271 74.165 271 64.5C271 54.835 285.103 47 302.5 47C319.897 47 334 54.835 334 64.5Z" fill="#86C23A"/>
<path d="M334 64.5C334 74.165 319.897 82 302.5 82C285.103 82 271 74.165 271 64.5C271 54.835 285.103 47 302.5 47C319.897 47 334 54.835 334 64.5Z" fill="black" fill-opacity="0.6"/>
<path d="M921 64.5C921 74.165 906.897 82 889.5 82C872.103 82 858 74.165 858 64.5C858 54.835 872.103 47 889.5 47C906.897 47 921 54.835 921 64.5Z" fill="#86C23A"/>
<path d="M921 64.5C921 74.165 906.897 82 889.5 82C872.103 82 858 74.165 858 64.5C858 54.835 872.103 47 889.5 47C906.897 47 921 54.835 921 64.5Z" fill="black" fill-opacity="0.6"/>
<path d="M449 64.5C449 74.165 463.103 82 480.5 82C497.897 82 512 74.165 512 64.5C512 54.835 497.897 47 480.5 47C463.103 47 449 54.835 449 64.5Z" fill="#86C23A"/>
<path d="M449 64.5C449 74.165 463.103 82 480.5 82C497.897 82 512 74.165 512 64.5C512 54.835 497.897 47 480.5 47C463.103 47 449 54.835 449 64.5Z" fill="black" fill-opacity="0.6"/>
<path d="M1036 64.5C1036 74.165 1050.1 82 1067.5 82C1084.9 82 1099 74.165 1099 64.5C1099 54.835 1084.9 47 1067.5 47C1050.1 47 1036 54.835 1036 64.5Z" fill="#86C23A"/>
<path d="M1036 64.5C1036 74.165 1050.1 82 1067.5 82C1084.9 82 1099 74.165 1099 64.5C1099 54.835 1084.9 47 1067.5 47C1050.1 47 1036 54.835 1036 64.5Z" fill="black" fill-opacity="0.6"/>
<path d="M280 63.5C280 72.6127 272.613 80 263.5 80C254.387 80 247 72.6127 247 63.5C247 54.3873 254.387 47 263.5 47C272.613 47 280 54.3873 280 63.5Z" fill="#86C23A"/>
<path d="M280 63.5C280 72.6127 272.613 80 263.5 80C254.387 80 247 72.6127 247 63.5C247 54.3873 254.387 47 263.5 47C272.613 47 280 54.3873 280 63.5Z" fill="black" fill-opacity="0.6"/>
<path d="M867 63.5C867 72.6127 859.613 80 850.5 80C841.387 80 834 72.6127 834 63.5C834 54.3873 841.387 47 850.5 47C859.613 47 867 54.3873 867 63.5Z" fill="#86C23A"/>
<path d="M867 63.5C867 72.6127 859.613 80 850.5 80C841.387 80 834 72.6127 834 63.5C834 54.3873 841.387 47 850.5 47C859.613 47 867 54.3873 867 63.5Z" fill="black" fill-opacity="0.6"/>
<path d="M503 63.5C503 72.6127 510.387 80 519.5 80C528.613 80 536 72.6127 536 63.5C536 54.3873 528.613 47 519.5 47C510.387 47 503 54.3873 503 63.5Z" fill="#86C23A"/>
<path d="M503 63.5C503 72.6127 510.387 80 519.5 80C528.613 80 536 72.6127 536 63.5C536 54.3873 528.613 47 519.5 47C510.387 47 503 54.3873 503 63.5Z" fill="black" fill-opacity="0.6"/>
<path d="M1090 63.5C1090 72.6127 1097.39 80 1106.5 80C1115.61 80 1123 72.6127 1123 63.5C1123 54.3873 1115.61 47 1106.5 47C1097.39 47 1090 54.3873 1090 63.5Z" fill="#86C23A"/>
<path d="M1090 63.5C1090 72.6127 1097.39 80 1106.5 80C1115.61 80 1123 72.6127 1123 63.5C1123 54.3873 1115.61 47 1106.5 47C1097.39 47 1090 54.3873 1090 63.5Z" fill="black" fill-opacity="0.6"/>
<path d="M258 61.5C258 75.031 238.077 86 213.5 86C188.923 86 169 75.031 169 61.5C169 47.969 188.923 37 213.5 37C238.077 37 258 47.969 258 61.5Z" fill="#86C23A"/>
<path d="M258 61.5C258 75.031 238.077 86 213.5 86C188.923 86 169 75.031 169 61.5C169 47.969 188.923 37 213.5 37C238.077 37 258 47.969 258 61.5Z" fill="black" fill-opacity="0.6"/>
<path d="M845 61.5C845 75.031 825.077 86 800.5 86C775.923 86 756 75.031 756 61.5C756 47.969 775.923 37 800.5 37C825.077 37 845 47.969 845 61.5Z" fill="#86C23A"/>
<path d="M845 61.5C845 75.031 825.077 86 800.5 86C775.923 86 756 75.031 756 61.5C756 47.969 775.923 37 800.5 37C825.077 37 845 47.969 845 61.5Z" fill="black" fill-opacity="0.6"/>
<path d="M525 61.5C525 75.031 544.923 86 569.5 86C594.077 86 614 75.031 614 61.5C614 47.969 594.077 37 569.5 37C544.923 37 525 47.969 525 61.5Z" fill="#86C23A"/>
<path d="M525 61.5C525 75.031 544.923 86 569.5 86C594.077 86 614 75.031 614 61.5C614 47.969 594.077 37 569.5 37C544.923 37 525 47.969 525 61.5Z" fill="black" fill-opacity="0.6"/>
<path d="M1112 61.5C1112 75.031 1131.92 86 1156.5 86C1181.08 86 1201 75.031 1201 61.5C1201 47.969 1181.08 37 1156.5 37C1131.92 37 1112 47.969 1112 61.5Z" fill="#86C23A"/>
<path d="M1112 61.5C1112 75.031 1131.92 86 1156.5 86C1181.08 86 1201 75.031 1201 61.5C1201 47.969 1181.08 37 1156.5 37C1131.92 37 1112 47.969 1112 61.5Z" fill="black" fill-opacity="0.6"/>
<path d="M405 61.5C405 75.031 385.077 86 360.5 86C335.923 86 316 75.031 316 61.5C316 47.969 335.923 37 360.5 37C385.077 37 405 47.969 405 61.5Z" fill="#86C23A"/>
<path d="M405 61.5C405 75.031 385.077 86 360.5 86C335.923 86 316 75.031 316 61.5C316 47.969 335.923 37 360.5 37C385.077 37 405 47.969 405 61.5Z" fill="black" fill-opacity="0.6"/>
<path d="M992 61.5C992 75.031 972.077 86 947.5 86C922.923 86 903 75.031 903 61.5C903 47.969 922.923 37 947.5 37C972.077 37 992 47.969 992 61.5Z" fill="#86C23A"/>
<path d="M992 61.5C992 75.031 972.077 86 947.5 86C922.923 86 903 75.031 903 61.5C903 47.969 922.923 37 947.5 37C972.077 37 992 47.969 992 61.5Z" fill="black" fill-opacity="0.6"/>
<path d="M378 61.5C378 75.031 397.923 86 422.5 86C447.077 86 467 75.031 467 61.5C467 47.969 447.077 37 422.5 37C397.923 37 378 47.969 378 61.5Z" fill="#86C23A"/>
<path d="M378 61.5C378 75.031 397.923 86 422.5 86C447.077 86 467 75.031 467 61.5C467 47.969 447.077 37 422.5 37C397.923 37 378 47.969 378 61.5Z" fill="black" fill-opacity="0.6"/>
<path d="M965 61.5C965 75.031 984.923 86 1009.5 86C1034.08 86 1054 75.031 1054 61.5C1054 47.969 1034.08 37 1009.5 37C984.923 37 965 47.969 965 61.5Z" fill="#86C23A"/>
<path d="M965 61.5C965 75.031 984.923 86 1009.5 86C1034.08 86 1054 75.031 1054 61.5C1054 47.969 1034.08 37 1009.5 37C984.923 37 965 47.969 965 61.5Z" fill="black" fill-opacity="0.6"/>
<path d="M133 39C133 60.5391 100.317 78 60 78C19.6832 78 -13 60.5391 -13 39C-13 17.4609 19.6832 0 60 0C100.317 0 133 17.4609 133 39Z" fill="#495B2D"/>
<path d="M650 39C650 60.5391 682.683 78 723 78C763.317 78 796 60.5391 796 39C796 17.4609 763.317 0 723 0C682.683 0 650 17.4609 650 39Z" fill="#495B2D"/>
<path d="M153 42.5C153 58.2401 140.24 71 124.5 71C108.76 71 96 58.2401 96 42.5C96 26.7599 108.76 14 124.5 14C140.24 14 153 26.7599 153 42.5Z" fill="#495B2D"/>
<path d="M630 42.5C630 58.2401 642.76 71 658.5 71C674.24 71 687 58.2401 687 42.5C687 26.7599 674.24 14 658.5 14C642.76 14 630 26.7599 630 42.5Z" fill="#495B2D"/>
<path d="M178 56.5C178 66.165 170.165 74 160.5 74C150.835 74 143 66.165 143 56.5C143 46.835 150.835 39 160.5 39C170.165 39 178 46.835 178 56.5Z" fill="#495B2D"/>
<path d="M605 56.5C605 66.165 612.835 74 622.5 74C632.165 74 640 66.165 640 56.5C640 46.835 632.165 39 622.5 39C612.835 39 605 46.835 605 56.5Z" fill="#495B2D"/>
<path d="M334 56.5C334 66.165 319.897 74 302.5 74C285.103 74 271 66.165 271 56.5C271 46.835 285.103 39 302.5 39C319.897 39 334 46.835 334 56.5Z" fill="#495B2D"/>
<path d="M921 56.5C921 66.165 906.897 74 889.5 74C872.103 74 858 66.165 858 56.5C858 46.835 872.103 39 889.5 39C906.897 39 921 46.835 921 56.5Z" fill="#495B2D"/>
<path d="M449 56.5C449 66.165 463.103 74 480.5 74C497.897 74 512 66.165 512 56.5C512 46.835 497.897 39 480.5 39C463.103 39 449 46.835 449 56.5Z" fill="#495B2D"/>
<path d="M1036 56.5C1036 66.165 1050.1 74 1067.5 74C1084.9 74 1099 66.165 1099 56.5C1099 46.835 1084.9 39 1067.5 39C1050.1 39 1036 46.835 1036 56.5Z" fill="#495B2D"/>
<path d="M280 55.5C280 64.6127 272.613 72 263.5 72C254.387 72 247 64.6127 247 55.5C247 46.3873 254.387 39 263.5 39C272.613 39 280 46.3873 280 55.5Z" fill="#495B2D"/>
<path d="M867 55.5C867 64.6127 859.613 72 850.5 72C841.387 72 834 64.6127 834 55.5C834 46.3873 841.387 39 850.5 39C859.613 39 867 46.3873 867 55.5Z" fill="#495B2D"/>
<path d="M503 55.5C503 64.6127 510.387 72 519.5 72C528.613 72 536 64.6127 536 55.5C536 46.3873 528.613 39 519.5 39C510.387 39 503 46.3873 503 55.5Z" fill="#495B2D"/>
<path d="M1090 55.5C1090 64.6127 1097.39 72 1106.5 72C1115.61 72 1123 64.6127 1123 55.5C1123 46.3873 1115.61 39 1106.5 39C1097.39 39 1090 46.3873 1090 55.5Z" fill="#495B2D"/>
<path d="M258 53.5C258 67.031 238.077 78 213.5 78C188.923 78 169 67.031 169 53.5C169 39.969 188.923 29 213.5 29C238.077 29 258 39.969 258 53.5Z" fill="#495B2D"/>
<path d="M845 53.5C845 67.031 825.077 78 800.5 78C775.923 78 756 67.031 756 53.5C756 39.969 775.923 29 800.5 29C825.077 29 845 39.969 845 53.5Z" fill="#495B2D"/>
<path d="M525 53.5C525 67.031 544.923 78 569.5 78C594.077 78 614 67.031 614 53.5C614 39.969 594.077 29 569.5 29C544.923 29 525 39.969 525 53.5Z" fill="#495B2D"/>
<path d="M1112 53.5C1112 67.031 1131.92 78 1156.5 78C1181.08 78 1201 67.031 1201 53.5C1201 39.969 1181.08 29 1156.5 29C1131.92 29 1112 39.969 1112 53.5Z" fill="#495B2D"/>
<path d="M405 53.5C405 67.031 385.077 78 360.5 78C335.923 78 316 67.031 316 53.5C316 39.969 335.923 29 360.5 29C385.077 29 405 39.969 405 53.5Z" fill="#495B2D"/>
<path d="M992 53.5C992 67.031 972.077 78 947.5 78C922.923 78 903 67.031 903 53.5C903 39.969 922.923 29 947.5 29C972.077 29 992 39.969 992 53.5Z" fill="#495B2D"/>
<path d="M378 53.5C378 67.031 397.923 78 422.5 78C447.077 78 467 67.031 467 53.5C467 39.969 447.077 29 422.5 29C397.923 29 378 39.969 378 53.5Z" fill="#495B2D"/>
<path d="M965 53.5C965 67.031 984.923 78 1009.5 78C1034.08 78 1054 67.031 1054 53.5C1054 39.969 1034.08 29 1009.5 29C984.923 29 965 39.969 965 53.5Z" fill="#495B2D"/>
<rect y="-2" width="1231" height="54" fill="#495B2D"/>
</g>
<defs>
<clipPath id="clip0_4684_43222">
<rect width="1199" height="147" fill="white"/>
</clipPath>
</defs>
</svg>
