<svg width="197" height="134" viewBox="0 0 197 134" fill="none" xmlns="http://www.w3.org/2000/svg">
<g id="theme-forest-night-left">
<g id="Union">
<path d="M112.648 113.455C112.648 113.455 112.179 111.588 111.315 108.331L112.824 108.557C112.703 109.953 112.657 110.821 112.649 110.981L112.648 110.98V111.008C114.241 112.24 115.888 112.835 117.529 112.979C119.253 113.142 120.975 112.81 122.63 112.189L122.631 112.173C128.807 109.803 133.855 103.248 133.855 103.248C127.154 65.2901 149.067 64.9527 149.067 64.9527C129.018 56.1589 119.927 74.2699 115.857 90.3014C115.092 83.7014 115.494 75.3217 118.332 64.9527C123.411 46.3588 132.36 44.614 139.038 46.4924C140.627 46.9405 142.088 47.5929 143.338 48.2712C144.817 49.0752 146 49.9169 146.749 50.5006L146.732 50.4767C147.325 50.9329 147.654 51.2317 147.654 51.2317C141.511 34.9424 128.71 32.2926 117.68 41.2854C113.468 44.6994 109.514 49.8124 106.286 56.5177C103.707 61.8845 102.009 67.3395 100.929 72.5804C96.6899 59.1865 91.5985 44.4937 86.1663 31.8012L86.1537 31.7466V31.7717C80.4437 18.4346 74.3576 7.30989 68.4897 2.22775C67.776 1.60481 67.0658 1.07493 66.3605 0.64917C66.3605 0.64917 74.6743 31.456 80.7299 63.5752C80.3163 62.5213 79.8906 61.4709 79.4524 60.426C67.8027 32.6463 41.2798 24.2112 41.2798 24.2112L41.3001 24.2269L41.2681 24.2165L41.2517 24.2112C55.2654 35.0199 61.2285 61.0718 63.762 80.5565C55.8979 65.2701 44.4194 58.2155 36.1975 54.9887C30.3024 52.6633 26.0674 52.3283 26.0674 52.3283C45.8658 64.0798 53.7417 98.618 53.9976 99.7608L53.9757 99.7617L54.004 99.7898L65.447 99.2952C65.6051 102.477 65.6256 104.345 65.6256 104.345C68.8096 108.651 79.6035 113.818 86.8956 116.956C86.891 117.136 86.8858 117.315 86.88 117.493C86.8741 117.676 86.8676 117.857 86.8606 118.038C86.8606 118.038 88.0186 118.131 89.8471 118.198C92.3 119.207 93.9016 119.809 93.9016 119.809L93.9006 119.798L93.9296 119.809L93.9229 119.736C93.9168 119.67 93.9067 119.562 93.8926 119.412C93.8799 119.277 93.864 119.11 93.8448 118.909L93.8399 118.907C93.8204 118.72 93.7974 118.506 93.7709 118.264C95.4928 118.259 97.3997 118.206 99.3242 118.065C105.068 117.654 110.981 116.478 112.648 113.483V113.455Z" fill="#00B700"/>
<path d="M112.648 113.455C112.648 113.455 112.179 111.588 111.315 108.331L112.824 108.557C112.703 109.953 112.657 110.821 112.649 110.981L112.648 110.98V111.008C114.241 112.24 115.888 112.835 117.529 112.979C119.253 113.142 120.975 112.81 122.63 112.189L122.631 112.173C128.807 109.803 133.855 103.248 133.855 103.248C127.154 65.2901 149.067 64.9527 149.067 64.9527C129.018 56.1589 119.927 74.2699 115.857 90.3014C115.092 83.7014 115.494 75.3217 118.332 64.9527C123.411 46.3588 132.36 44.614 139.038 46.4924C140.627 46.9405 142.088 47.5929 143.338 48.2712C144.817 49.0752 146 49.9169 146.749 50.5006L146.732 50.4767C147.325 50.9329 147.654 51.2317 147.654 51.2317C141.511 34.9424 128.71 32.2926 117.68 41.2854C113.468 44.6994 109.514 49.8124 106.286 56.5177C103.707 61.8845 102.009 67.3395 100.929 72.5804C96.6899 59.1865 91.5985 44.4937 86.1663 31.8012L86.1537 31.7466V31.7717C80.4437 18.4346 74.3576 7.30989 68.4897 2.22775C67.776 1.60481 67.0658 1.07493 66.3605 0.64917C66.3605 0.64917 74.6743 31.456 80.7299 63.5752C80.3163 62.5213 79.8906 61.4709 79.4524 60.426C67.8027 32.6463 41.2798 24.2112 41.2798 24.2112L41.3001 24.2269L41.2681 24.2165L41.2517 24.2112C55.2654 35.0199 61.2285 61.0718 63.762 80.5565C55.8979 65.2701 44.4194 58.2155 36.1975 54.9887C30.3024 52.6633 26.0674 52.3283 26.0674 52.3283C45.8658 64.0798 53.7417 98.618 53.9976 99.7608L53.9757 99.7617L54.004 99.7898L65.447 99.2952C65.6051 102.477 65.6256 104.345 65.6256 104.345C68.8096 108.651 79.6035 113.818 86.8956 116.956C86.891 117.136 86.8858 117.315 86.88 117.493C86.8741 117.676 86.8676 117.857 86.8606 118.038C86.8606 118.038 88.0186 118.131 89.8471 118.198C92.3 119.207 93.9016 119.809 93.9016 119.809L93.9006 119.798L93.9296 119.809L93.9229 119.736C93.9168 119.67 93.9067 119.562 93.8926 119.412C93.8799 119.277 93.864 119.11 93.8448 118.909L93.8399 118.907C93.8204 118.72 93.7974 118.506 93.7709 118.264C95.4928 118.259 97.3997 118.206 99.3242 118.065C105.068 117.654 110.981 116.478 112.648 113.483V113.455Z" fill="black" fill-opacity="0.6"/>
</g>
<g id="Union_2">
<path d="M3.71581 108.986C-11.5957 122.937 25.7695 127.003 33.2267 125.384L33.2616 125.376C33.5787 125.308 33.9459 125.258 34.3588 125.225C37.249 124.993 42.3802 125.58 48.2693 126.254C56.4089 127.186 65.9969 128.284 73.1162 127.613C77.2269 127.226 80.5148 126.249 82.2261 124.311C89.352 116.239 83.3095 100.914 61.4318 88.5396C39.8888 76.3544 17.2952 90.5108 13.4656 97.363C13.406 97.4695 13.3508 97.5741 13.3003 97.6769C8.56738 104.288 3.71581 108.986 3.71581 108.986Z" fill="#AF9D8C"/>
<path d="M3.71581 108.986C-11.5957 122.937 25.7695 127.003 33.2267 125.384L33.2616 125.376C33.5787 125.308 33.9459 125.258 34.3588 125.225C37.249 124.993 42.3802 125.58 48.2693 126.254C56.4089 127.186 65.9969 128.284 73.1162 127.613C77.2269 127.226 80.5148 126.249 82.2261 124.311C89.352 116.239 83.3095 100.914 61.4318 88.5396C39.8888 76.3544 17.2952 90.5108 13.4656 97.363C13.406 97.4695 13.3508 97.5741 13.3003 97.6769C8.56738 104.288 3.71581 108.986 3.71581 108.986Z" fill="black" fill-opacity="0.6"/>
</g>
<g id="Union_3">
<path d="M78.9493 133.828C78.9493 133.828 68.7589 126.756 74.9864 117.917C81.2138 109.078 99.33 117.493 99.33 117.493C99.33 117.493 90.4842 103.774 103.293 98.9305C116.102 94.0513 131.599 106.426 131.599 106.426C131.599 106.426 132.024 90.5156 144.868 89.172C145.671 89.088 146.429 89.0629 147.144 89.0895C157.871 89.4897 159.021 101.547 159.021 101.547C159.021 101.547 161.203 96.2397 166.697 96.2441C168.166 96.2429 169.87 96.6225 171.83 97.587C179.596 101.397 182.278 113.223 176.8 116.909C177.707 116.341 181.698 114.02 186.357 114.022C188.393 114.021 190.554 114.463 192.635 115.69C196.164 117.759 196.482 121.378 195.821 124.642C195.087 128.379 193.06 131.671 193.06 131.671L188.602 131.742L188.634 131.685L180.72 131.837C180.717 131.853 180.714 131.868 180.712 131.883L95.332 133.545C95.313 133.523 95.2939 133.501 95.2748 133.479L85.3668 133.669L85.389 133.686L78.9493 133.828Z" fill="#95CD53"/>
<path d="M78.9493 133.828C78.9493 133.828 68.7589 126.756 74.9864 117.917C81.2138 109.078 99.33 117.493 99.33 117.493C99.33 117.493 90.4842 103.774 103.293 98.9305C116.102 94.0513 131.599 106.426 131.599 106.426C131.599 106.426 132.024 90.5156 144.868 89.172C145.671 89.088 146.429 89.0629 147.144 89.0895C157.871 89.4897 159.021 101.547 159.021 101.547C159.021 101.547 161.203 96.2397 166.697 96.2441C168.166 96.2429 169.87 96.6225 171.83 97.587C179.596 101.397 182.278 113.223 176.8 116.909C177.707 116.341 181.698 114.02 186.357 114.022C188.393 114.021 190.554 114.463 192.635 115.69C196.164 117.759 196.482 121.378 195.821 124.642C195.087 128.379 193.06 131.671 193.06 131.671L188.602 131.742L188.634 131.685L180.72 131.837C180.717 131.853 180.714 131.868 180.712 131.883L95.332 133.545C95.313 133.523 95.2939 133.501 95.2748 133.479L85.3668 133.669L85.389 133.686L78.9493 133.828Z" fill="black" fill-opacity="0.6"/>
</g>
</g>
</svg>
