<svg width="326" height="350" viewBox="0 0 326 350" fill="none" xmlns="http://www.w3.org/2000/svg">
<g clip-path="url(#clip0_4684_43354)">
<path d="M179.514 285.847L150.919 235.075L154.566 233.132L180.832 262.269L179.514 285.847Z" fill="#B0B0B0"/>
<path d="M134.287 234.103L163.539 220.309L154.566 233.132L150.919 235.075L134.287 234.103Z" fill="#ACACAC"/>
<path d="M163.539 220.309L134.287 234.103L132 229.856L161.098 216.135L163.539 220.309Z" fill="#BEBEBE"/>
<path d="M179.514 285.847L180.832 262.269L177.665 258.754L171.885 272.301L179.514 285.847Z" fill="#A2A2A2"/>
<path d="M183.558 227.371H187.449C187.449 219.361 194.987 212.844 204.251 212.844C213.515 212.844 221.052 219.361 221.052 227.371H224.942C224.942 217.241 215.659 209 204.251 209C192.843 209 183.558 217.241 183.558 227.371Z" fill="#B0B0B0"/>
<path d="M224.942 227.371H221.052C221.052 225.933 220.801 224.547 220.349 223.234H224.393C224.74 224.565 224.942 225.946 224.942 227.371Z" fill="#A2A2A2"/>
<path d="M187.448 227.371H183.557C183.557 225.948 183.758 224.567 184.105 223.234H188.151C187.699 224.547 187.448 225.933 187.448 227.371Z" fill="#A2A2A2"/>
<path d="M226.644 225.879H211.91H208.262H200.238H196.59H181.856L178.5 299H200.238H208.262H230L226.644 225.879Z" fill="#ACACAC"/>
<path d="M194.123 225.879H181.856L178.5 299H193.571L194.123 225.879Z" fill="#B0B0B0"/>
<path d="M221.999 268.995C223.788 268.939 225.192 267.459 225.135 265.69L224.24 238.173C224.182 236.405 222.685 235.017 220.896 235.073C219.107 235.131 217.703 236.611 217.76 238.379L218.655 265.896C218.713 267.664 220.209 269.051 221.999 268.995Z" fill="#BEBEBE"/>
</g>
<g clip-path="url(#clip1_4684_43354)">
<path d="M236 289.631V241.063L263.502 240.944L291 241.063V289.631L263.502 314L236 289.631Z" fill="#615F5F"/>
<path d="M236 289.631V241.063L244.362 241.028L244.273 284.627L270.755 307.57L263.502 314L236 289.631Z" fill="#4F4D4D"/>
<path d="M255.911 240.947V229.375H271.095V240.947H255.911Z" fill="#615F5F"/>
<path d="M255.908 240.944V237.051H271.092V240.944H255.908Z" fill="#4F4D4D"/>
<path d="M258.084 229.375V0L268.915 0V229.375H258.084Z" fill="#BA6F4A"/>
<path d="M267.07 199.027V10.5573C267.07 9.58646 266.272 8.79724 265.284 8.79724C264.299 8.79724 263.498 9.58333 263.498 10.5573V199.027C263.498 199.998 264.296 200.788 265.284 200.788C266.269 200.788 267.07 200.001 267.07 199.027Z" fill="#D98156"/>
<path d="M258.088 229.375V221.88H268.919V229.375H258.088Z" fill="#A16040"/>
<path d="M281.364 283.85C284.166 283.85 286.438 281.611 286.438 278.848V251.091C286.438 248.329 284.166 246.089 281.364 246.089C278.561 246.089 276.29 248.329 276.29 251.091V278.848C276.29 281.611 278.561 283.85 281.364 283.85Z" fill="#7A7878"/>
</g>
<g clip-path="url(#clip2_4684_43354)">
<path d="M319.6 299.125C318.832 288.444 309.192 280 297.406 280C290.025 280 283.486 283.314 279.44 288.413C275.393 283.314 268.854 280 261.473 280C253.385 280 246.303 283.98 242.411 289.929C238.52 283.98 231.438 280 223.35 280C215.969 280 209.43 283.314 205.383 288.413C201.336 283.314 194.798 280 187.416 280C180.035 280 173.361 283.384 169.322 288.574C165.286 283.384 158.687 280 151.231 280C143.775 280 137.311 283.314 133.264 288.413C129.22 283.314 122.681 280 115.303 280C107.215 280 100.133 283.98 96.2413 289.929C92.3469 283.98 85.265 280 77.177 280C69.7957 280 63.2571 283.314 59.2103 288.413C55.1635 283.314 48.6248 280 41.2436 280C28.959 280 19 289.178 19 300.5C19 311.822 28.959 321 41.2436 321C44.4921 321 47.5799 320.356 50.3627 319.203C52.3224 320.339 54.6396 321 57.1231 321C60.3827 321 63.3513 319.869 65.602 318.01C68.9725 319.906 72.9361 321 77.1742 321C80.4227 321 83.5105 320.356 86.2934 319.203C88.253 320.339 90.5702 321 93.0537 321C96.7569 321 100.089 319.54 102.411 317.211C106.048 319.596 110.494 321 115.297 321C118.546 321 121.634 320.356 124.416 319.203C126.376 320.339 128.693 321 131.177 321C134.436 321 137.405 319.869 139.656 318.01C143.026 319.906 146.99 321 151.228 321C154.476 321 157.564 320.356 160.347 319.203C162.307 320.339 164.624 321 167.107 321C170.417 321 173.43 319.833 175.689 317.923C179.093 319.872 183.109 321 187.411 321C190.659 321 193.747 320.356 196.53 319.203C198.49 320.339 200.807 321 203.29 321C206.55 321 209.519 319.869 211.769 318.01C215.143 319.906 219.103 321 223.341 321C226.59 321 229.678 320.356 232.461 319.203C234.42 320.339 236.737 321 239.221 321C242.924 321 246.256 319.54 248.579 317.211C252.215 319.596 256.661 321 261.465 321C264.713 321 267.801 320.356 270.584 319.203C272.543 320.339 274.861 321 277.344 321C280.604 321 283.572 319.869 285.823 318.01C289.193 319.906 293.157 321 297.395 321C300.644 321 303.732 320.356 306.514 319.203C308.474 320.339 310.791 321 313.275 321C320.293 321 325.983 315.757 325.983 309.29C325.983 304.939 323.408 301.144 319.586 299.127L319.6 299.125Z" fill="#00B700"/>
<path d="M322.943 301.825C322.943 301.856 322.943 301.887 322.943 301.918C322.943 308.384 317.252 313.628 310.234 313.628C307.748 313.628 305.431 312.967 303.474 311.83C300.691 312.986 297.603 313.628 294.354 313.628C290.116 313.628 286.153 312.536 282.782 310.637C280.532 312.497 277.563 313.628 274.303 313.628C271.817 313.628 269.5 312.967 267.543 311.83C264.76 312.983 261.672 313.628 258.424 313.628C253.62 313.628 249.172 312.224 245.538 309.839C243.215 312.168 239.883 313.628 236.18 313.628C233.694 313.628 231.377 312.967 229.42 311.83C226.637 312.983 223.549 313.628 220.301 313.628C216.063 313.628 212.099 312.536 208.729 310.637C206.478 312.497 203.509 313.628 200.25 313.628C197.763 313.628 195.446 312.967 193.489 311.83C190.706 312.986 187.619 313.628 184.37 313.628C180.068 313.628 176.052 312.5 172.648 310.553C170.386 312.463 167.374 313.628 164.067 313.628C161.58 313.628 159.263 312.967 157.306 311.83C154.524 312.986 151.436 313.628 148.187 313.628C143.949 313.628 139.986 312.536 136.615 310.637C134.364 312.497 131.396 313.628 128.136 313.628C125.65 313.628 123.333 312.967 121.376 311.83C118.593 312.983 115.505 313.628 112.257 313.628C107.453 313.628 103.004 312.224 99.3706 309.839C97.0478 312.168 93.7162 313.628 90.013 313.628C87.5268 313.628 85.2095 312.967 83.2527 311.83C80.4698 312.983 77.382 313.628 74.1335 313.628C69.8954 313.628 65.9318 312.536 62.5613 310.637C60.3106 312.497 57.342 313.628 54.0824 313.628C51.5961 313.628 49.2789 312.967 47.322 311.83C44.5392 312.986 41.4514 313.628 38.2029 313.628C30.1203 313.628 23.0412 309.653 19.1469 303.709C20.8182 313.507 30.0206 320.997 41.1188 320.997C44.3673 320.997 47.4551 320.353 50.2379 319.2C52.1976 320.336 54.5148 320.997 56.9983 320.997C60.2579 320.997 63.2265 319.866 65.4772 318.007C68.8477 319.903 72.8114 320.997 77.0494 320.997C80.2979 320.997 83.3857 320.353 86.1686 319.2C88.1282 320.336 90.4454 320.997 92.929 320.997C96.6321 320.997 99.9638 319.537 102.287 317.208C105.923 319.594 110.369 320.997 115.173 320.997C118.421 320.997 121.509 320.353 124.292 319.2C126.251 320.336 128.569 320.997 131.052 320.997C134.312 320.997 137.28 319.866 139.531 318.007C142.901 319.903 146.865 320.997 151.103 320.997C154.352 320.997 157.439 320.353 160.222 319.2C162.182 320.336 164.499 320.997 166.983 320.997C170.292 320.997 173.305 319.83 175.564 317.92C178.968 319.869 182.984 320.997 187.286 320.997C190.535 320.997 193.622 320.353 196.405 319.2C198.365 320.336 200.682 320.997 203.166 320.997C206.425 320.997 209.394 319.866 211.644 318.007C215.018 319.903 218.979 320.997 223.217 320.997C226.465 320.997 229.553 320.353 232.336 319.2C234.295 320.336 236.613 320.997 239.096 320.997C242.799 320.997 246.131 319.537 248.454 317.208C252.09 319.594 256.536 320.997 261.34 320.997C264.588 320.997 267.676 320.353 270.459 319.2C272.419 320.336 274.736 320.997 277.219 320.997C280.479 320.997 283.448 319.866 285.698 318.007C289.069 319.903 293.032 320.997 297.27 320.997C300.519 320.997 303.607 320.353 306.39 319.2C308.349 320.336 310.666 320.997 313.15 320.997C320.168 320.997 325.859 315.754 325.859 309.287C325.859 306.449 324.761 303.85 322.94 301.822L322.943 301.825Z" fill="#00A300"/>
</g>
<g clip-path="url(#clip3_4684_43354)">
<path d="M41.5154 345.56C37.6314 347.778 31.334 347.778 27.4498 345.56C23.5657 343.343 23.5655 339.748 27.4497 337.53C31.3337 335.312 37.6311 335.312 41.5152 337.53C45.3994 339.748 45.3995 343.343 41.5154 345.56Z" fill="#935B31"/>
<path d="M43.5411 334.23C41.5962 335.34 38.4425 335.34 36.4974 334.23C34.5523 333.119 34.5523 331.319 36.4974 330.208C38.4425 329.098 41.596 329.098 43.5411 330.208C45.4862 331.319 45.4862 333.119 43.5411 334.23Z" fill="#935B31"/>
<path d="M15.9614 346.604C14.3972 347.497 11.8611 347.497 10.2969 346.604C8.73259 345.711 8.73259 344.263 10.2969 343.37C11.861 342.477 14.3972 342.477 15.9614 343.37C17.5257 344.263 17.5257 345.711 15.9614 346.604Z" fill="#935B31"/>
<path d="M22.5417 349.496C21.3647 350.168 19.4563 350.168 18.2793 349.496C17.1022 348.824 17.1022 347.734 18.2793 347.062C19.4564 346.39 21.3647 346.39 22.5418 347.062C23.7189 347.734 23.7189 348.824 22.5418 349.496H22.5417Z" fill="#935B31"/>
<path d="M43.7501 328.332C43.0705 328.72 41.9688 328.72 41.2891 328.332C40.6095 327.944 40.6095 327.315 41.2891 326.927C41.9688 326.539 43.0705 326.539 43.7501 326.927C44.4297 327.315 44.4297 327.944 43.7501 328.332Z" fill="#935B31"/>
<path d="M4.40857 328.784C4.01692 329.008 3.38195 329.008 2.99015 328.784C2.5985 328.561 2.5985 328.198 2.99015 327.975C3.38179 327.751 4.01677 327.751 4.40857 327.975C4.80021 328.198 4.80021 328.561 4.40857 328.784Z" fill="#935B31"/>
<path d="M6.76207 333.817C5.21526 334.7 2.70718 334.7 1.16022 333.817C-0.38674 332.934 -0.38674 331.502 1.16022 330.619C2.70718 329.735 5.21511 329.735 6.76222 330.619C8.30918 331.502 8.30918 332.934 6.76222 333.817L6.76207 333.817Z" fill="#935B31"/>
<path d="M15.3812 328.641C13.0436 329.976 9.25347 329.976 6.9158 328.641C4.57814 327.306 4.57798 325.142 6.91565 323.808C9.25332 322.473 13.0434 322.473 15.3811 323.808C17.7187 325.142 17.7187 327.306 15.3811 328.641H15.3812Z" fill="#935B31"/>
<path d="M14.0653 340.943C11.7277 342.278 7.9376 342.278 5.59993 340.943C3.26226 339.608 3.26226 337.444 5.59993 336.11C7.9376 334.775 11.7277 334.775 14.0653 336.11C16.403 337.445 16.403 339.609 14.0653 340.943Z" fill="#935B31"/>
<path d="M37.9412 328.641C35.6035 329.976 31.8136 329.976 29.4757 328.641C27.1381 327.306 27.1379 325.142 29.4756 323.808C31.8133 322.473 35.6033 322.473 37.941 323.808C40.2787 325.142 40.2788 327.306 37.941 328.641H37.9412Z" fill="#935B31"/>
<path d="M22.5538 345.371C33.3301 345.371 42.0661 340.384 42.0661 334.231C42.0661 328.079 33.3301 323.091 22.5538 323.091C11.7775 323.091 3.0415 328.079 3.0415 334.231C3.0415 340.384 11.7775 345.371 22.5538 345.371Z" fill="#935B31"/>
<path d="M31.5333 339.358C26.5743 342.189 18.5339 342.189 13.5747 339.358C8.61559 336.526 8.61528 331.936 13.5744 329.105C18.5334 326.273 26.5737 326.273 31.533 329.105C36.4921 331.936 36.4923 336.527 31.5333 339.358Z" fill="#854D24"/>
<path d="M31.9968 336.049C31.5211 336.545 30.9091 337.015 30.1717 337.434C28.8519 338.185 27.2776 338.703 25.6075 338.98C22.256 339.549 18.5177 339.162 15.6898 337.828C15.4281 337.704 15.1736 337.573 14.9303 337.434C13.9349 336.865 13.1717 336.213 12.6518 335.513C12.0693 334.74 11.7781 333.912 11.7781 333.085H11.7744V325.089C11.7744 325.042 11.7744 324.991 11.7781 324.943C11.7854 324.222 11.8666 323.522 12.014 322.843C12.1653 322.151 12.3827 321.487 12.6592 320.853C12.8068 320.514 12.9725 320.186 13.1533 319.868H13.157C15.0004 316.627 18.5103 314.44 22.5437 314.44C27.2629 314.44 31.2742 317.44 32.7268 321.618C32.8483 321.961 32.9517 322.311 33.0328 322.672C33.0475 322.723 33.0586 322.774 33.0697 322.825C33.2173 323.507 33.3021 324.211 33.3094 324.936C33.3131 324.987 33.3131 325.038 33.3131 325.089V332.731C33.4274 333.869 32.9886 335.024 31.9969 336.049L31.9968 336.049Z" fill="#FF8200"/>
<path d="M31.787 315.11C28.6526 318.585 22.5537 318.263 22.5537 318.263C22.5537 318.263 21.5368 312.308 24.6714 308.833C27.8058 305.359 33.9045 305.68 33.9045 305.68C33.9045 305.68 34.9214 311.635 31.7868 315.11H31.787Z" fill="#00CF00"/>
<path d="M23.5805 305.888C26.0929 311.333 22.5539 318.263 22.5539 318.263C22.5539 318.263 14.9414 316.364 12.429 310.919C9.9166 305.473 13.4556 298.543 13.4556 298.543C13.4556 298.543 21.0681 300.442 23.5805 305.888Z" fill="#00CF00"/>
<path d="M29.1313 306.632C29.1313 313.056 22.5538 318.263 22.5538 318.263C22.5538 318.263 15.9763 313.056 15.9763 306.632C15.9763 300.208 22.5538 295 22.5538 295C22.5538 295 29.1313 300.208 29.1313 306.632Z" fill="#25E825"/>
<path d="M19.4663 310.872C22.5238 313.263 22.5538 318.263 22.5538 318.263C22.5538 318.263 17.6265 319.386 14.569 316.995C11.5114 314.603 11.4816 309.603 11.4816 309.603C11.4816 309.603 16.4089 308.48 19.4665 310.872H19.4663Z" fill="#25E825"/>
<path d="M28.4861 318.67C25.8936 319.879 22.5538 318.263 22.5538 318.263C22.5538 318.263 23.4175 314.687 26.0102 313.478C28.6028 312.269 31.9425 313.885 31.9425 313.885C31.9425 313.885 31.0789 317.461 28.4861 318.67Z" fill="#25E825"/>
<path d="M18.5249 322.151C16.5193 321.888 14.5726 321.462 12.6591 320.853C12.8066 320.513 12.9724 320.185 13.1531 319.868H13.1568C14.908 320.415 16.6962 320.816 18.5249 321.057C19.2217 321.148 19.2254 322.242 18.5249 322.15V322.151Z" fill="#F87211"/>
<path d="M33.0326 322.672C31.7016 322.854 30.3634 323.033 29.0324 323.215C28.3319 323.31 28.0333 322.256 28.7375 322.162C30.0647 321.979 31.3957 321.797 32.7267 321.618C32.8483 321.961 32.9516 322.311 33.0327 322.672H33.0326Z" fill="#F87211"/>
<path d="M25.5289 327.774C27.8661 327.443 30.2033 327.112 32.5405 326.781C33.2424 326.681 32.9439 325.627 32.2465 325.726C29.9093 326.057 27.5721 326.388 25.2349 326.719C24.5331 326.818 24.8315 327.872 25.5289 327.774Z" fill="#F87211"/>
<path d="M21.5342 325.094H24.9603C25.6721 325.094 25.6732 324 24.9603 324H21.5342C20.8225 324 20.8214 325.094 21.5342 325.094Z" fill="#F87211"/>
<path d="M16.0777 329.273C17.9535 329.162 19.8296 329.052 21.7056 328.941C22.4129 328.899 22.4178 327.805 21.7056 327.847C19.8296 327.958 17.9535 328.068 16.0777 328.179C15.3702 328.221 15.3654 329.314 16.0777 329.273Z" fill="#F87211"/>
<path d="M14.6341 324.327C15.9398 324.539 17.2453 324.752 18.5509 324.965C19.2472 325.078 19.5468 324.024 18.8449 323.91C17.5393 323.697 16.2338 323.485 14.9282 323.272C14.2318 323.158 13.9323 324.212 14.6341 324.327Z" fill="#F87211"/>
<path d="M23.7474 333.48C25.4876 333.455 27.2278 333.43 28.9681 333.405C29.6792 333.394 29.6812 332.301 28.9681 332.311C27.2278 332.336 25.4876 332.361 23.7474 332.386C23.0362 332.396 23.0342 333.49 23.7474 333.48Z" fill="#F87211"/>
<path d="M33.3129 329.482V330.624C32.3616 330.886 31.3735 331.014 30.356 330.992C29.6444 330.974 29.6444 329.88 30.356 329.898C31.3809 329.92 32.3652 329.785 33.3129 329.482Z" fill="#F87211"/>
<path d="M16.5162 333.165C18.4206 333.481 20.3253 333.797 22.2297 334.112C22.926 334.228 23.2253 333.174 22.5239 333.058C20.6193 332.742 18.7148 332.426 16.8102 332.11C16.114 331.995 15.8146 333.049 16.5162 333.165Z" fill="#F87211"/>
<path d="M12.9872 331.003C12.5817 330.853 12.1798 330.7 11.7743 330.551V329.384C12.2756 329.574 12.7807 329.76 13.2822 329.945C13.9422 330.193 13.6545 331.251 12.9872 331.003Z" fill="#F87211"/>
<path d="M14.8615 336.094C16.0044 336.468 17.1477 336.841 18.2906 337.214C18.9681 337.436 19.2584 336.38 18.5847 336.16C17.4417 335.786 16.2986 335.413 15.1555 335.04C14.478 334.818 14.1877 335.874 14.8615 336.094Z" fill="#F87211"/>
<path d="M27.0719 337.501C28.3488 337.121 29.6258 336.742 30.9027 336.362C31.5827 336.16 31.293 335.104 30.6087 335.307L26.7777 336.447C26.0978 336.649 26.3874 337.705 27.0717 337.501H27.0719Z" fill="#F87211"/>
</g>
<g clip-path="url(#clip4_4684_43354)">
<path d="M96.5154 345.56C92.6314 347.778 86.334 347.778 82.4498 345.56C78.5657 343.343 78.5655 339.748 82.4497 337.53C86.3337 335.312 92.6311 335.312 96.5152 337.53C100.399 339.748 100.4 343.343 96.5154 345.56Z" fill="#935B31"/>
<path d="M98.5411 334.23C96.5962 335.34 93.4425 335.34 91.4974 334.23C89.5523 333.119 89.5523 331.319 91.4974 330.208C93.4425 329.098 96.596 329.098 98.5411 330.208C100.486 331.319 100.486 333.119 98.5411 334.23Z" fill="#935B31"/>
<path d="M70.9614 346.604C69.3972 347.497 66.8611 347.497 65.2969 346.604C63.7326 345.711 63.7326 344.263 65.2969 343.37C66.861 342.477 69.3972 342.477 70.9614 343.37C72.5257 344.263 72.5257 345.711 70.9614 346.604Z" fill="#935B31"/>
<path d="M77.5417 349.496C76.3647 350.168 74.4563 350.168 73.2793 349.496C72.1022 348.824 72.1022 347.734 73.2793 347.062C74.4564 346.39 76.3647 346.39 77.5418 347.062C78.7189 347.734 78.7189 348.824 77.5418 349.496H77.5417Z" fill="#935B31"/>
<path d="M98.7501 328.332C98.0705 328.72 96.9688 328.72 96.2891 328.332C95.6095 327.944 95.6095 327.315 96.2891 326.927C96.9688 326.539 98.0705 326.539 98.7501 326.927C99.4297 327.315 99.4297 327.944 98.7501 328.332Z" fill="#935B31"/>
<path d="M59.4086 328.784C59.0169 329.008 58.3819 329.008 57.9901 328.784C57.5985 328.561 57.5985 328.198 57.9901 327.975C58.3818 327.751 59.0168 327.751 59.4086 327.975C59.8002 328.198 59.8002 328.561 59.4086 328.784Z" fill="#935B31"/>
<path d="M61.7621 333.817C60.2153 334.7 57.7072 334.7 56.1602 333.817C54.6133 332.934 54.6133 331.502 56.1602 330.619C57.7072 329.735 60.2151 329.735 61.7622 330.619C63.3092 331.502 63.3092 332.934 61.7622 333.817L61.7621 333.817Z" fill="#935B31"/>
<path d="M70.3812 328.641C68.0436 329.976 64.2535 329.976 61.9158 328.641C59.5781 327.306 59.578 325.142 61.9156 323.808C64.2533 322.473 68.0434 322.473 70.3811 323.808C72.7187 325.142 72.7187 327.306 70.3811 328.641H70.3812Z" fill="#935B31"/>
<path d="M69.0653 340.943C66.7277 342.278 62.9376 342.278 60.5999 340.943C58.2623 339.608 58.2623 337.444 60.5999 336.11C62.9376 334.775 66.7277 334.775 69.0653 336.11C71.403 337.445 71.403 339.609 69.0653 340.943Z" fill="#935B31"/>
<path d="M92.9412 328.641C90.6035 329.976 86.8136 329.976 84.4757 328.641C82.1381 327.306 82.1379 325.142 84.4756 323.808C86.8133 322.473 90.6033 322.473 92.941 323.808C95.2787 325.142 95.2788 327.306 92.941 328.641H92.9412Z" fill="#935B31"/>
<path d="M77.5538 345.371C88.3301 345.371 97.0661 340.384 97.0661 334.231C97.0661 328.079 88.3301 323.091 77.5538 323.091C66.7775 323.091 58.0415 328.079 58.0415 334.231C58.0415 340.384 66.7775 345.371 77.5538 345.371Z" fill="#935B31"/>
<path d="M86.5333 339.358C81.5743 342.189 73.5339 342.189 68.5747 339.358C63.6156 336.526 63.6153 331.936 68.5744 329.105C73.5334 326.273 81.5737 326.273 86.533 329.105C91.4921 331.936 91.4923 336.527 86.5333 339.358Z" fill="#854D24"/>
<path d="M86.9968 336.049C86.5211 336.545 85.9091 337.015 85.1717 337.434C83.8519 338.185 82.2776 338.703 80.6075 338.98C77.256 339.549 73.5177 339.162 70.6898 337.828C70.4281 337.704 70.1736 337.573 69.9303 337.434C68.9349 336.865 68.1717 336.213 67.6518 335.513C67.0693 334.74 66.7781 333.912 66.7781 333.085H66.7744V325.089C66.7744 325.042 66.7744 324.991 66.7781 324.943C66.7854 324.222 66.8666 323.522 67.014 322.843C67.1653 322.151 67.3827 321.487 67.6592 320.853C67.8068 320.514 67.9725 320.186 68.1533 319.868H68.157C70.0004 316.627 73.5103 314.44 77.5437 314.44C82.2629 314.44 86.2742 317.44 87.7268 321.618C87.8483 321.961 87.9517 322.311 88.0328 322.672C88.0475 322.723 88.0586 322.774 88.0697 322.825C88.2173 323.507 88.3021 324.211 88.3094 324.936C88.3131 324.987 88.3131 325.038 88.3131 325.089V332.731C88.4274 333.869 87.9886 335.024 86.9969 336.049L86.9968 336.049Z" fill="#FF8200"/>
<path d="M86.787 315.11C83.6526 318.585 77.5537 318.263 77.5537 318.263C77.5537 318.263 76.5368 312.308 79.6714 308.833C82.8058 305.359 88.9045 305.68 88.9045 305.68C88.9045 305.68 89.9214 311.635 86.7868 315.11H86.787Z" fill="#00CF00"/>
<path d="M78.5805 305.888C81.0929 311.333 77.5539 318.263 77.5539 318.263C77.5539 318.263 69.9414 316.364 67.429 310.919C64.9166 305.473 68.4556 298.543 68.4556 298.543C68.4556 298.543 76.0681 300.442 78.5805 305.888Z" fill="#00CF00"/>
<path d="M84.1313 306.632C84.1313 313.056 77.5538 318.263 77.5538 318.263C77.5538 318.263 70.9763 313.056 70.9763 306.632C70.9763 300.208 77.5538 295 77.5538 295C77.5538 295 84.1313 300.208 84.1313 306.632Z" fill="#25E825"/>
<path d="M74.4663 310.872C77.5238 313.263 77.5538 318.263 77.5538 318.263C77.5538 318.263 72.6265 319.386 69.569 316.995C66.5114 314.603 66.4816 309.603 66.4816 309.603C66.4816 309.603 71.4089 308.48 74.4665 310.872H74.4663Z" fill="#25E825"/>
<path d="M83.4861 318.67C80.8936 319.879 77.5538 318.263 77.5538 318.263C77.5538 318.263 78.4175 314.687 81.0102 313.478C83.6028 312.269 86.9425 313.885 86.9425 313.885C86.9425 313.885 86.0789 317.461 83.4861 318.67Z" fill="#25E825"/>
<path d="M73.5249 322.151C71.5193 321.888 69.5726 321.462 67.6591 320.853C67.8066 320.513 67.9724 320.185 68.1531 319.868H68.1568C69.908 320.415 71.6962 320.816 73.5249 321.057C74.2217 321.148 74.2254 322.242 73.5249 322.15V322.151Z" fill="#F87211"/>
<path d="M88.0326 322.672C86.7016 322.854 85.3634 323.033 84.0324 323.215C83.3319 323.31 83.0333 322.256 83.7375 322.162C85.0647 321.979 86.3957 321.797 87.7267 321.618C87.8483 321.961 87.9516 322.311 88.0327 322.672H88.0326Z" fill="#F87211"/>
<path d="M80.5289 327.774C82.8661 327.443 85.2033 327.112 87.5405 326.781C88.2424 326.681 87.9439 325.627 87.2465 325.726C84.9093 326.057 82.5721 326.388 80.2349 326.719C79.5331 326.818 79.8315 327.872 80.5289 327.774Z" fill="#F87211"/>
<path d="M76.4634 325.031H79.8895C80.6013 325.031 80.6024 323.937 79.8895 323.937H76.4634C75.7517 323.937 75.7506 325.031 76.4634 325.031Z" fill="#F87211"/>
<path d="M71.0777 329.273C72.9535 329.162 74.8296 329.052 76.7056 328.941C77.4129 328.899 77.4178 327.805 76.7056 327.847C74.8296 327.958 72.9535 328.068 71.0777 328.179C70.3702 328.221 70.3654 329.314 71.0777 329.273Z" fill="#F87211"/>
<path d="M69.6341 324.327C70.9398 324.539 72.2453 324.752 73.5509 324.965C74.2472 325.078 74.5468 324.024 73.8449 323.91C72.5393 323.697 71.2338 323.485 69.9282 323.272C69.2318 323.158 68.9323 324.212 69.6341 324.327Z" fill="#F87211"/>
<path d="M78.7474 333.48C80.4876 333.455 82.2278 333.43 83.9681 333.405C84.6792 333.394 84.6812 332.301 83.9681 332.311C82.2278 332.336 80.4876 332.361 78.7474 332.386C78.0362 332.396 78.0342 333.49 78.7474 333.48Z" fill="#F87211"/>
<path d="M88.3129 329.482V330.624C87.3616 330.886 86.3735 331.014 85.356 330.992C84.6444 330.974 84.6444 329.88 85.356 329.898C86.3809 329.92 87.3652 329.785 88.3129 329.482Z" fill="#F87211"/>
<path d="M71.5162 333.165C73.4206 333.481 75.3253 333.797 77.2297 334.112C77.926 334.228 78.2253 333.174 77.5239 333.058C75.6193 332.742 73.7148 332.426 71.8102 332.11C71.114 331.995 70.8146 333.049 71.5162 333.165Z" fill="#F87211"/>
<path d="M67.9872 331.003C67.5817 330.853 67.1798 330.7 66.7743 330.551V329.384C67.2756 329.574 67.7807 329.76 68.2822 329.945C68.9422 330.193 68.6545 331.251 67.9872 331.003Z" fill="#F87211"/>
<path d="M69.8615 336.094C71.0044 336.468 72.1477 336.841 73.2906 337.214C73.9681 337.436 74.2584 336.38 73.5847 336.16C72.4417 335.786 71.2986 335.413 70.1555 335.04C69.478 334.818 69.1877 335.874 69.8615 336.094Z" fill="#F87211"/>
<path d="M82.0719 337.501C83.3488 337.121 84.6258 336.742 85.9027 336.362C86.5827 336.16 86.293 335.104 85.6087 335.307L81.7777 336.447C81.0978 336.649 81.3874 337.705 82.0717 337.501H82.0719Z" fill="#F87211"/>
</g>
<g clip-path="url(#clip5_4684_43354)">
<path d="M150.593 345.56C146.795 347.778 140.638 347.778 136.84 345.56C133.042 343.343 133.042 339.748 136.84 337.53C140.637 335.312 146.795 335.312 150.593 337.53C154.39 339.748 154.391 343.343 150.593 345.56Z" fill="#935B31"/>
<path d="M152.574 334.23C150.672 335.34 147.588 335.34 145.686 334.23C143.784 333.119 143.784 331.319 145.686 330.208C147.588 329.098 150.672 329.098 152.574 330.208C154.475 331.319 154.475 333.119 152.574 334.23Z" fill="#935B31"/>
<path d="M125.607 346.604C124.077 347.497 121.598 347.497 120.068 346.604C118.539 345.711 118.539 344.263 120.068 343.37C121.597 342.477 124.077 342.477 125.607 343.37C127.136 344.263 127.136 345.711 125.607 346.604Z" fill="#935B31"/>
<path d="M132.041 349.496C130.89 350.168 129.024 350.168 127.873 349.496C126.722 348.824 126.722 347.734 127.873 347.062C129.024 346.39 130.89 346.39 132.041 347.062C133.192 347.734 133.192 348.824 132.041 349.496H132.041Z" fill="#935B31"/>
<path d="M152.778 328.332C152.113 328.72 151.036 328.72 150.372 328.332C149.707 327.944 149.707 327.315 150.372 326.927C151.036 326.539 152.113 326.539 152.778 326.927C153.442 327.315 153.442 327.944 152.778 328.332Z" fill="#935B31"/>
<path d="M114.311 328.784C113.928 329.008 113.307 329.008 112.924 328.784C112.541 328.561 112.541 328.198 112.924 327.975C113.307 327.751 113.927 327.751 114.311 327.975C114.694 328.198 114.694 328.561 114.311 328.784Z" fill="#935B31"/>
<path d="M116.612 333.817C115.099 334.7 112.647 334.7 111.134 333.817C109.622 332.934 109.622 331.502 111.134 330.619C112.647 329.735 115.099 329.735 116.612 330.619C118.125 331.502 118.125 332.934 116.612 333.817L116.612 333.817Z" fill="#935B31"/>
<path d="M125.039 328.641C122.754 329.976 119.048 329.976 116.762 328.641C114.476 327.306 114.476 325.142 116.762 323.808C119.048 322.473 122.754 322.473 125.039 323.808C127.325 325.142 127.325 327.306 125.039 328.641H125.039Z" fill="#935B31"/>
<path d="M123.753 340.943C121.467 342.278 117.761 342.278 115.476 340.943C113.19 339.608 113.19 337.444 115.476 336.11C117.761 334.775 121.467 334.775 123.753 336.11C126.039 337.445 126.039 339.609 123.753 340.943Z" fill="#935B31"/>
<path d="M147.098 328.641C144.812 329.976 141.107 329.976 138.821 328.641C136.535 327.306 136.535 325.142 138.821 323.808C141.106 322.473 144.812 322.473 147.098 323.808C149.384 325.142 149.384 327.306 147.098 328.641H147.098Z" fill="#935B31"/>
<path d="M132.053 345.371C142.59 345.371 151.131 340.384 151.131 334.231C151.131 328.079 142.59 323.091 132.053 323.091C121.516 323.091 112.974 328.079 112.974 334.231C112.974 340.384 121.516 345.371 132.053 345.371Z" fill="#935B31"/>
<path d="M140.833 339.358C135.984 342.189 128.122 342.189 123.273 339.358C118.424 336.526 118.424 331.936 123.273 329.105C128.122 326.273 135.983 326.273 140.832 329.105C145.681 331.936 145.681 336.527 140.833 339.358Z" fill="#854D24"/>
<path d="M141.286 336.049C140.821 336.545 140.222 337.015 139.501 337.434C138.211 338.185 136.671 338.703 135.038 338.98C131.761 339.549 128.106 339.162 125.341 337.828C125.085 337.704 124.836 337.573 124.598 337.434C123.625 336.865 122.879 336.213 122.371 335.513C121.801 334.74 121.516 333.912 121.516 333.085H121.513V325.089C121.513 325.042 121.513 324.991 121.516 324.943C121.523 324.222 121.603 323.522 121.747 322.843C121.895 322.151 122.107 321.487 122.378 320.853C122.522 320.514 122.684 320.186 122.861 319.868H122.865C124.667 316.627 128.099 314.44 132.043 314.44C136.657 314.44 140.579 317.44 141.999 321.618C142.118 321.961 142.219 322.311 142.299 322.672C142.313 322.723 142.324 322.774 142.335 322.825C142.479 323.507 142.562 324.211 142.569 324.936C142.573 324.987 142.573 325.038 142.573 325.089V332.731C142.684 333.869 142.255 335.024 141.286 336.049L141.286 336.049Z" fill="#FF8200"/>
<path d="M141.081 315.11C138.016 318.585 132.053 318.263 132.053 318.263C132.053 318.263 131.058 312.308 134.123 308.833C137.188 305.359 143.151 305.68 143.151 305.68C143.151 305.68 144.145 311.635 141.08 315.11H141.081Z" fill="#00CF00"/>
<path d="M133.056 305.888C135.513 311.333 132.053 318.263 132.053 318.263C132.053 318.263 124.609 316.364 122.153 310.919C119.696 305.473 123.157 298.543 123.157 298.543C123.157 298.543 130.6 300.442 133.056 305.888Z" fill="#00CF00"/>
<path d="M138.484 306.632C138.484 313.056 132.053 318.263 132.053 318.263C132.053 318.263 125.621 313.056 125.621 306.632C125.621 300.208 132.053 295 132.053 295C132.053 295 138.484 300.208 138.484 306.632Z" fill="#25E825"/>
<path d="M129.034 310.872C132.023 313.263 132.053 318.263 132.053 318.263C132.053 318.263 127.235 319.386 124.245 316.995C121.256 314.603 121.226 309.603 121.226 309.603C121.226 309.603 126.044 308.48 129.034 310.872H129.034Z" fill="#25E825"/>
<path d="M137.853 318.67C135.318 319.879 132.053 318.263 132.053 318.263C132.053 318.263 132.897 314.687 135.432 313.478C137.967 312.269 141.233 313.885 141.233 313.885C141.233 313.885 140.388 317.461 137.853 318.67Z" fill="#25E825"/>
<path d="M128.113 322.151C126.152 321.888 124.249 321.462 122.378 320.853C122.522 320.513 122.684 320.185 122.861 319.868H122.864C124.577 320.415 126.325 320.816 128.113 321.057C128.795 321.148 128.798 322.242 128.113 322.15V322.151Z" fill="#F87211"/>
<path d="M142.299 322.672C140.997 322.854 139.689 323.033 138.387 323.215C137.702 323.31 137.41 322.256 138.099 322.162C139.397 321.979 140.698 321.797 141.999 321.618C142.118 321.961 142.219 322.311 142.299 322.672H142.299Z" fill="#F87211"/>
<path d="M134.962 327.774C137.247 327.443 139.532 327.112 141.817 326.781C142.504 326.681 142.212 325.627 141.53 325.726C139.245 326.057 136.959 326.388 134.674 326.719C133.988 326.818 134.28 327.872 134.962 327.774Z" fill="#F87211"/>
<path d="M130.986 325.031H134.336C135.032 325.031 135.033 323.937 134.336 323.937H130.986C130.291 323.937 130.289 325.031 130.986 325.031Z" fill="#F87211"/>
<path d="M125.72 329.273C127.555 329.162 129.389 329.052 131.223 328.941C131.915 328.899 131.92 327.805 131.223 327.847C129.389 327.958 127.555 328.068 125.72 328.179C125.029 328.221 125.024 329.314 125.72 329.273Z" fill="#F87211"/>
<path d="M124.309 324.327C125.585 324.539 126.862 324.752 128.139 324.965C128.819 325.078 129.112 324.024 128.426 323.91C127.149 323.697 125.873 323.485 124.596 323.272C123.915 323.158 123.623 324.212 124.309 324.327Z" fill="#F87211"/>
<path d="M133.22 333.48C134.921 333.455 136.623 333.43 138.324 333.405C139.02 333.394 139.022 332.301 138.324 332.311C136.623 332.336 134.921 332.361 133.22 332.386C132.524 332.396 132.522 333.49 133.22 333.48Z" fill="#F87211"/>
<path d="M142.573 329.482V330.624C141.642 330.886 140.676 331.014 139.681 330.992C138.986 330.974 138.986 329.88 139.681 329.898C140.684 329.92 141.646 329.785 142.573 329.482Z" fill="#F87211"/>
<path d="M126.149 333.165C128.011 333.481 129.874 333.797 131.736 334.112C132.417 334.228 132.709 333.174 132.023 333.058C130.161 332.742 128.299 332.426 126.437 332.11C125.756 331.995 125.463 333.049 126.149 333.165Z" fill="#F87211"/>
<path d="M122.699 331.003C122.302 330.853 121.909 330.7 121.513 330.551V329.384C122.003 329.574 122.497 329.76 122.987 329.945C123.632 330.193 123.351 331.251 122.699 331.003Z" fill="#F87211"/>
<path d="M124.531 336.094C125.649 336.468 126.767 336.841 127.884 337.214C128.547 337.436 128.831 336.38 128.172 336.16C127.054 335.786 125.936 335.413 124.819 335.04C124.156 334.818 123.873 335.874 124.531 336.094Z" fill="#F87211"/>
<path d="M136.47 337.501C137.719 337.121 138.967 336.742 140.216 336.362C140.881 336.16 140.598 335.104 139.929 335.307L136.183 336.447C135.518 336.649 135.801 337.705 136.47 337.501H136.47Z" fill="#F87211"/>
</g>
<g clip-path="url(#clip6_4684_43354)">
<path d="M204.593 345.56C200.795 347.778 194.638 347.778 190.84 345.56C187.042 343.343 187.042 339.748 190.84 337.53C194.637 335.312 200.795 335.312 204.593 337.53C208.39 339.748 208.391 343.343 204.593 345.56Z" fill="#935B31"/>
<path d="M206.574 334.23C204.672 335.34 201.588 335.34 199.686 334.23C197.784 333.119 197.784 331.319 199.686 330.208C201.588 329.098 204.672 329.098 206.574 330.208C208.475 331.319 208.475 333.119 206.574 334.23Z" fill="#935B31"/>
<path d="M179.607 346.604C178.077 347.497 175.598 347.497 174.068 346.604C172.539 345.711 172.539 344.263 174.068 343.37C175.597 342.477 178.077 342.477 179.607 343.37C181.136 344.263 181.136 345.711 179.607 346.604Z" fill="#935B31"/>
<path d="M186.041 349.496C184.89 350.168 183.024 350.168 181.873 349.496C180.722 348.824 180.722 347.734 181.873 347.062C183.024 346.39 184.89 346.39 186.041 347.062C187.192 347.734 187.192 348.824 186.041 349.496H186.041Z" fill="#935B31"/>
<path d="M206.778 328.332C206.113 328.72 205.036 328.72 204.372 328.332C203.707 327.944 203.707 327.315 204.372 326.927C205.036 326.539 206.113 326.539 206.778 326.927C207.442 327.315 207.442 327.944 206.778 328.332Z" fill="#935B31"/>
<path d="M168.311 328.784C167.928 329.008 167.307 329.008 166.924 328.784C166.541 328.561 166.541 328.198 166.924 327.975C167.307 327.751 167.927 327.751 168.311 327.975C168.694 328.198 168.694 328.561 168.311 328.784Z" fill="#935B31"/>
<path d="M170.612 333.817C169.099 334.7 166.647 334.7 165.134 333.817C163.622 332.934 163.622 331.502 165.134 330.619C166.647 329.735 169.099 329.735 170.612 330.619C172.125 331.502 172.125 332.934 170.612 333.817L170.612 333.817Z" fill="#935B31"/>
<path d="M179.039 328.641C176.754 329.976 173.048 329.976 170.762 328.641C168.476 327.306 168.476 325.142 170.762 323.808C173.048 322.473 176.754 322.473 179.039 323.808C181.325 325.142 181.325 327.306 179.039 328.641H179.039Z" fill="#935B31"/>
<path d="M177.753 340.943C175.467 342.278 171.761 342.278 169.476 340.943C167.19 339.608 167.19 337.444 169.476 336.11C171.761 334.775 175.467 334.775 177.753 336.11C180.039 337.445 180.039 339.609 177.753 340.943Z" fill="#935B31"/>
<path d="M201.098 328.641C198.812 329.976 195.107 329.976 192.821 328.641C190.535 327.306 190.535 325.142 192.821 323.808C195.106 322.473 198.812 322.473 201.098 323.808C203.384 325.142 203.384 327.306 201.098 328.641H201.098Z" fill="#935B31"/>
<path d="M186.053 345.371C196.59 345.371 205.131 340.384 205.131 334.231C205.131 328.079 196.59 323.091 186.053 323.091C175.516 323.091 166.974 328.079 166.974 334.231C166.974 340.384 175.516 345.371 186.053 345.371Z" fill="#935B31"/>
<path d="M194.833 339.358C189.984 342.189 182.122 342.189 177.273 339.358C172.424 336.526 172.424 331.936 177.273 329.105C182.122 326.273 189.983 326.273 194.832 329.105C199.681 331.936 199.681 336.527 194.833 339.358Z" fill="#854D24"/>
<path d="M195.286 336.049C194.821 336.545 194.222 337.015 193.501 337.434C192.211 338.185 190.671 338.703 189.038 338.98C185.761 339.549 182.106 339.162 179.341 337.828C179.085 337.704 178.836 337.573 178.598 337.434C177.625 336.865 176.879 336.213 176.371 335.513C175.801 334.74 175.516 333.912 175.516 333.085H175.513V325.089C175.513 325.042 175.513 324.991 175.516 324.943C175.523 324.222 175.603 323.522 175.747 322.843C175.895 322.151 176.107 321.487 176.378 320.853C176.522 320.514 176.684 320.186 176.861 319.868H176.865C178.667 316.627 182.099 314.44 186.043 314.44C190.657 314.44 194.579 317.44 195.999 321.618C196.118 321.961 196.219 322.311 196.299 322.672C196.313 322.723 196.324 322.774 196.335 322.825C196.479 323.507 196.562 324.211 196.569 324.936C196.573 324.987 196.573 325.038 196.573 325.089V332.731C196.684 333.869 196.255 335.024 195.286 336.049L195.286 336.049Z" fill="#FF8200"/>
<path d="M195.081 315.11C192.016 318.585 186.053 318.263 186.053 318.263C186.053 318.263 185.058 312.308 188.123 308.833C191.188 305.359 197.151 305.68 197.151 305.68C197.151 305.68 198.145 311.635 195.08 315.11H195.081Z" fill="#00CF00"/>
<path d="M187.056 305.888C189.513 311.333 186.053 318.263 186.053 318.263C186.053 318.263 178.609 316.364 176.153 310.919C173.696 305.473 177.157 298.543 177.157 298.543C177.157 298.543 184.6 300.442 187.056 305.888Z" fill="#00CF00"/>
<path d="M192.484 306.632C192.484 313.056 186.053 318.263 186.053 318.263C186.053 318.263 179.621 313.056 179.621 306.632C179.621 300.208 186.053 295 186.053 295C186.053 295 192.484 300.208 192.484 306.632Z" fill="#25E825"/>
<path d="M183.034 310.872C186.023 313.263 186.053 318.263 186.053 318.263C186.053 318.263 181.235 319.386 178.245 316.995C175.256 314.603 175.226 309.603 175.226 309.603C175.226 309.603 180.044 308.48 183.034 310.872H183.034Z" fill="#25E825"/>
<path d="M191.853 318.67C189.318 319.879 186.053 318.263 186.053 318.263C186.053 318.263 186.897 314.687 189.432 313.478C191.967 312.269 195.233 313.885 195.233 313.885C195.233 313.885 194.388 317.461 191.853 318.67Z" fill="#25E825"/>
<path d="M182.113 322.151C180.152 321.888 178.249 321.462 176.378 320.853C176.522 320.513 176.684 320.185 176.861 319.868H176.864C178.577 320.415 180.325 320.816 182.113 321.057C182.795 321.148 182.798 322.242 182.113 322.15V322.151Z" fill="#F87211"/>
<path d="M196.299 322.672C194.997 322.854 193.689 323.033 192.387 323.215C191.702 323.31 191.41 322.256 192.099 322.162C193.397 321.979 194.698 321.797 195.999 321.618C196.118 321.961 196.219 322.311 196.299 322.672H196.299Z" fill="#F87211"/>
<path d="M188.962 327.774C191.247 327.443 193.532 327.112 195.817 326.781C196.504 326.681 196.212 325.627 195.53 325.726C193.245 326.057 190.959 326.388 188.674 326.719C187.988 326.818 188.28 327.872 188.962 327.774Z" fill="#F87211"/>
<path d="M184.986 325.031H188.336C189.032 325.031 189.033 323.937 188.336 323.937H184.986C184.291 323.937 184.289 325.031 184.986 325.031Z" fill="#F87211"/>
<path d="M179.72 329.273C181.555 329.162 183.389 329.052 185.223 328.941C185.915 328.899 185.92 327.805 185.223 327.847C183.389 327.958 181.555 328.068 179.72 328.179C179.029 328.221 179.024 329.314 179.72 329.273Z" fill="#F87211"/>
<path d="M178.309 324.327C179.585 324.539 180.862 324.752 182.139 324.965C182.819 325.078 183.112 324.024 182.426 323.91C181.149 323.697 179.873 323.485 178.596 323.272C177.915 323.158 177.623 324.212 178.309 324.327Z" fill="#F87211"/>
<path d="M187.22 333.48C188.921 333.455 190.623 333.43 192.324 333.405C193.02 333.394 193.022 332.301 192.324 332.311C190.623 332.336 188.921 332.361 187.22 332.386C186.524 332.396 186.522 333.49 187.22 333.48Z" fill="#F87211"/>
<path d="M196.573 329.482V330.624C195.642 330.886 194.676 331.014 193.681 330.992C192.986 330.974 192.986 329.88 193.681 329.898C194.684 329.92 195.646 329.785 196.573 329.482Z" fill="#F87211"/>
<path d="M180.149 333.165C182.011 333.481 183.874 333.797 185.736 334.112C186.417 334.228 186.709 333.174 186.023 333.058C184.161 332.742 182.299 332.426 180.437 332.11C179.756 331.995 179.463 333.049 180.149 333.165Z" fill="#F87211"/>
<path d="M176.699 331.003C176.302 330.853 175.909 330.7 175.513 330.551V329.384C176.003 329.574 176.497 329.76 176.987 329.945C177.632 330.193 177.351 331.251 176.699 331.003Z" fill="#F87211"/>
<path d="M178.531 336.094C179.649 336.468 180.767 336.841 181.884 337.214C182.547 337.436 182.831 336.38 182.172 336.16C181.054 335.786 179.936 335.413 178.819 335.04C178.156 334.818 177.873 335.874 178.531 336.094Z" fill="#F87211"/>
<path d="M190.47 337.501C191.719 337.121 192.967 336.742 194.216 336.362C194.881 336.16 194.598 335.104 193.929 335.307L190.183 336.447C189.518 336.649 189.801 337.705 190.47 337.501H190.47Z" fill="#F87211"/>
</g>
<g clip-path="url(#clip7_4684_43354)">
<path d="M259.515 345.56C255.631 347.778 249.334 347.778 245.45 345.56C241.566 343.343 241.566 339.748 245.45 337.53C249.334 335.312 255.631 335.312 259.515 337.53C263.399 339.748 263.4 343.343 259.515 345.56Z" fill="#935B31"/>
<path d="M261.541 334.23C259.596 335.34 256.442 335.34 254.497 334.23C252.552 333.119 252.552 331.319 254.497 330.208C256.442 329.098 259.596 329.098 261.541 330.208C263.486 331.319 263.486 333.119 261.541 334.23Z" fill="#935B31"/>
<path d="M233.961 346.604C232.397 347.497 229.861 347.497 228.297 346.604C226.733 345.711 226.733 344.263 228.297 343.37C229.861 342.477 232.397 342.477 233.961 343.37C235.526 344.263 235.526 345.711 233.961 346.604Z" fill="#935B31"/>
<path d="M240.542 349.496C239.365 350.168 237.456 350.168 236.279 349.496C235.102 348.824 235.102 347.734 236.279 347.062C237.456 346.39 239.365 346.39 240.542 347.062C241.719 347.734 241.719 348.824 240.542 349.496H240.542Z" fill="#935B31"/>
<path d="M261.75 328.332C261.07 328.72 259.969 328.72 259.289 328.332C258.61 327.944 258.61 327.315 259.289 326.927C259.969 326.539 261.07 326.539 261.75 326.927C262.43 327.315 262.43 327.944 261.75 328.332Z" fill="#935B31"/>
<path d="M222.409 328.784C222.017 329.008 221.382 329.008 220.99 328.784C220.598 328.561 220.598 328.198 220.99 327.975C221.382 327.751 222.017 327.751 222.409 327.975C222.8 328.198 222.8 328.561 222.409 328.784Z" fill="#935B31"/>
<path d="M224.762 333.817C223.215 334.7 220.707 334.7 219.16 333.817C217.613 332.934 217.613 331.502 219.16 330.619C220.707 329.735 223.215 329.735 224.762 330.619C226.309 331.502 226.309 332.934 224.762 333.817L224.762 333.817Z" fill="#935B31"/>
<path d="M233.381 328.641C231.044 329.976 227.253 329.976 224.916 328.641C222.578 327.306 222.578 325.142 224.916 323.808C227.253 322.473 231.043 322.473 233.381 323.808C235.719 325.142 235.719 327.306 233.381 328.641H233.381Z" fill="#935B31"/>
<path d="M232.065 340.943C229.728 342.278 225.938 342.278 223.6 340.943C221.262 339.608 221.262 337.444 223.6 336.11C225.938 334.775 229.728 334.775 232.065 336.11C234.403 337.445 234.403 339.609 232.065 340.943Z" fill="#935B31"/>
<path d="M255.941 328.641C253.603 329.976 249.814 329.976 247.476 328.641C245.138 327.306 245.138 325.142 247.476 323.808C249.813 322.473 253.603 322.473 255.941 323.808C258.279 325.142 258.279 327.306 255.941 328.641H255.941Z" fill="#935B31"/>
<path d="M240.554 345.371C251.33 345.371 260.066 340.384 260.066 334.231C260.066 328.079 251.33 323.091 240.554 323.091C229.777 323.091 221.042 328.079 221.042 334.231C221.042 340.384 229.777 345.371 240.554 345.371Z" fill="#935B31"/>
<path d="M249.533 339.358C244.574 342.189 236.534 342.189 231.575 339.358C226.616 336.526 226.615 331.936 231.574 329.105C236.533 326.273 244.574 326.273 249.533 329.105C254.492 331.936 254.492 336.527 249.533 339.358Z" fill="#854D24"/>
<path d="M249.997 336.049C249.521 336.545 248.909 337.015 248.172 337.434C246.852 338.185 245.278 338.703 243.607 338.98C240.256 339.549 236.518 339.162 233.69 337.828C233.428 337.704 233.174 337.573 232.93 337.434C231.935 336.865 231.172 336.213 230.652 335.513C230.069 334.74 229.778 333.912 229.778 333.085H229.774V325.089C229.774 325.042 229.774 324.991 229.778 324.943C229.785 324.222 229.867 323.522 230.014 322.843C230.165 322.151 230.383 321.487 230.659 320.853C230.807 320.514 230.973 320.186 231.153 319.868H231.157C233 316.627 236.51 314.44 240.544 314.44C245.263 314.44 249.274 317.44 250.727 321.618C250.848 321.961 250.952 322.311 251.033 322.672C251.047 322.723 251.059 322.774 251.07 322.825C251.217 323.507 251.302 324.211 251.309 324.936C251.313 324.987 251.313 325.038 251.313 325.089V332.731C251.427 333.869 250.989 335.024 249.997 336.049L249.997 336.049Z" fill="#FF8200"/>
<path d="M249.787 315.11C246.653 318.585 240.554 318.263 240.554 318.263C240.554 318.263 239.537 312.308 242.671 308.833C245.806 305.359 251.904 305.68 251.904 305.68C251.904 305.68 252.921 311.635 249.787 315.11H249.787Z" fill="#00CF00"/>
<path d="M241.58 305.888C244.093 311.333 240.554 318.263 240.554 318.263C240.554 318.263 232.941 316.364 230.429 310.919C227.917 305.473 231.456 298.543 231.456 298.543C231.456 298.543 239.068 300.442 241.58 305.888Z" fill="#00CF00"/>
<path d="M247.131 306.632C247.131 313.056 240.554 318.263 240.554 318.263C240.554 318.263 233.976 313.056 233.976 306.632C233.976 300.208 240.554 295 240.554 295C240.554 295 247.131 300.208 247.131 306.632Z" fill="#25E825"/>
<path d="M237.466 310.872C240.524 313.263 240.554 318.263 240.554 318.263C240.554 318.263 235.626 319.386 232.569 316.995C229.511 314.603 229.482 309.603 229.482 309.603C229.482 309.603 234.409 308.48 237.467 310.872H237.466Z" fill="#25E825"/>
<path d="M246.486 318.67C243.894 319.879 240.554 318.263 240.554 318.263C240.554 318.263 241.417 314.687 244.01 313.478C246.603 312.269 249.943 313.885 249.943 313.885C249.943 313.885 249.079 317.461 246.486 318.67Z" fill="#25E825"/>
<path d="M236.525 322.151C234.519 321.888 232.573 321.462 230.659 320.853C230.807 320.513 230.972 320.185 231.153 319.868H231.157C232.908 320.415 234.696 320.816 236.525 321.057C237.222 321.148 237.225 322.242 236.525 322.15V322.151Z" fill="#F87211"/>
<path d="M251.033 322.672C249.702 322.854 248.363 323.033 247.032 323.215C246.332 323.31 246.033 322.256 246.737 322.162C248.065 321.979 249.396 321.797 250.727 321.618C250.848 321.961 250.952 322.311 251.033 322.672H251.033Z" fill="#F87211"/>
<path d="M243.529 327.774C245.866 327.443 248.203 327.112 250.541 326.781C251.242 326.681 250.944 325.627 250.247 325.726C247.909 326.057 245.572 326.388 243.235 326.719C242.533 326.818 242.832 327.872 243.529 327.774Z" fill="#F87211"/>
<path d="M239.463 325.031H242.89C243.601 325.031 243.602 323.937 242.89 323.937H239.463C238.752 323.937 238.751 325.031 239.463 325.031Z" fill="#F87211"/>
<path d="M234.078 329.273C235.954 329.162 237.83 329.052 239.706 328.941C240.413 328.899 240.418 327.805 239.706 327.847C237.83 327.958 235.954 328.068 234.078 328.179C233.37 328.221 233.365 329.314 234.078 329.273Z" fill="#F87211"/>
<path d="M232.634 324.327C233.94 324.539 235.245 324.752 236.551 324.965C237.247 325.078 237.547 324.024 236.845 323.91C235.539 323.697 234.234 323.485 232.928 323.272C232.232 323.158 231.932 324.212 232.634 324.327Z" fill="#F87211"/>
<path d="M241.747 333.48C243.488 333.455 245.228 333.43 246.968 333.405C247.679 333.394 247.681 332.301 246.968 332.311C245.228 332.336 243.488 332.361 241.747 332.386C241.036 332.396 241.034 333.49 241.747 333.48Z" fill="#F87211"/>
<path d="M251.313 329.482V330.624C250.362 330.886 249.373 331.014 248.356 330.992C247.644 330.974 247.644 329.88 248.356 329.898C249.381 329.92 250.365 329.785 251.313 329.482Z" fill="#F87211"/>
<path d="M234.516 333.165C236.421 333.481 238.325 333.797 240.23 334.112C240.926 334.228 241.225 333.174 240.524 333.058C238.619 332.742 236.715 332.426 234.81 332.11C234.114 331.995 233.815 333.049 234.516 333.165Z" fill="#F87211"/>
<path d="M230.987 331.003C230.582 330.853 230.18 330.7 229.774 330.551V329.384C230.276 329.574 230.781 329.76 231.282 329.945C231.942 330.193 231.654 331.251 230.987 331.003Z" fill="#F87211"/>
<path d="M232.861 336.094C234.004 336.468 235.148 336.841 236.291 337.214C236.968 337.436 237.258 336.38 236.585 336.16C235.442 335.786 234.299 335.413 233.155 335.04C232.478 334.818 232.188 335.874 232.861 336.094Z" fill="#F87211"/>
<path d="M245.072 337.501C246.349 337.121 247.626 336.742 248.903 336.362C249.583 336.16 249.293 335.104 248.609 335.307L244.778 336.447C244.098 336.649 244.387 337.705 245.072 337.501H245.072Z" fill="#F87211"/>
</g>
<ellipse cx="144.825" cy="70.1163" rx="3.63554" ry="7.27109" transform="rotate(-19.209 144.825 70.1163)" fill="#8DDA4F"/>
<ellipse cx="158.31" cy="69.2966" rx="3.63555" ry="6.44548" transform="rotate(30 158.31 69.2966)" fill="#8DDA4F"/>
<ellipse cx="159.469" cy="73.2411" rx="3.89725" ry="6.44548" transform="rotate(59.9294 159.469 73.2411)" fill="#8DDA4F"/>
<ellipse cx="151.939" cy="67.2711" rx="5.05815" ry="7.27109" fill="#8DDA4F"/>
<defs>
<clipPath id="clip0_4684_43354">
<rect width="98" height="90" fill="white" transform="matrix(-1 0 0 1 230 209)"/>
</clipPath>
<clipPath id="clip1_4684_43354">
<rect width="55" height="314" fill="white" transform="matrix(-1 0 0 1 291 0)"/>
</clipPath>
<clipPath id="clip2_4684_43354">
<rect width="307" height="41" fill="white" transform="translate(19 280)"/>
</clipPath>
<clipPath id="clip3_4684_43354">
<rect width="45" height="55" fill="white" transform="translate(0 295)"/>
</clipPath>
<clipPath id="clip4_4684_43354">
<rect width="45" height="55" fill="white" transform="translate(55 295)"/>
</clipPath>
<clipPath id="clip5_4684_43354">
<rect width="44" height="55" fill="white" transform="translate(110 295)"/>
</clipPath>
<clipPath id="clip6_4684_43354">
<rect width="44" height="55" fill="white" transform="translate(164 295)"/>
</clipPath>
<clipPath id="clip7_4684_43354">
<rect width="45" height="55" fill="white" transform="translate(218 295)"/>
</clipPath>
</defs>
</svg>
