<svg width="315" height="113" viewBox="0 0 315 113" fill="none" xmlns="http://www.w3.org/2000/svg">
<g clip-path="url(#clip0_4684_43337)">
<path d="M158.336 98C174.719 98 188 84.1957 188 67.1672C188 50.1388 174.719 36.3345 158.336 36.3345C141.952 36.3345 128.671 50.1388 128.671 67.1672C128.671 84.1957 141.952 98 158.336 98Z" fill="#4F4D4D"/>
<path d="M158.335 87.6147C169.2 87.6147 178.008 78.4601 178.008 67.1673C178.008 55.8745 169.2 46.7198 158.335 46.7198C147.471 46.7198 138.663 55.8745 138.663 67.1673C138.663 78.4601 147.471 87.6147 158.335 87.6147Z" fill="#615F5F"/>
<path d="M164.914 67.1672C164.914 70.944 161.969 74.0049 158.335 74.0049C154.702 74.0049 151.757 70.944 151.757 67.1672C151.757 63.3904 154.702 60.3295 158.335 60.3295C161.969 60.3295 164.914 63.3904 164.914 67.1672Z" fill="#A19F9F"/>
<path d="M39.0615 0L43.7835 32.0278L119.802 51.6147C121.699 52.1032 123.702 52.1502 125.567 51.5526C127.963 50.7879 131.112 48.9972 134.124 44.9009L168.537 0H39.0615Z" fill="#E95E55"/>
<g style="mix-blend-mode:multiply" opacity="0.2">
<path d="M97.1916 32.5502L42.7312 24.8913L43.7834 32.0278L119.876 51.6334C121.749 52.1163 123.723 52.1426 125.567 51.5526C127.962 50.7879 131.112 48.9972 134.123 44.9009L168.537 0H138.663L126.807 18.5985C120.324 28.7658 108.819 34.1868 97.1916 32.5502Z" fill="#E95E55"/>
</g>
<path d="M1.61754 19.4144L0.401123 24.5156L133.297 58.7505L134.513 53.6492L1.61754 19.4144Z" fill="#4F4D4D"/>
<path d="M75.1473 94.6234C72.6199 94.6234 70.5861 93.8793 69.1688 93.1239C62.9246 89.7924 60.6992 82.2538 60.6992 76.3105V37.9937H65.4899V76.3105C65.4899 80.5796 67.0266 86.3839 71.3581 88.6951C75.3823 90.8409 80.3664 89.2663 85.4048 84.2644L116.635 50.5098L120.088 53.9596L88.7872 87.7894C83.465 93.077 78.7936 94.6253 75.1509 94.6253L75.1473 94.6234Z" fill="#4F4D4D"/>
<path d="M2.0275 17.7113L0 26.214L22.7202 32.0669L24.7477 23.5641L2.0275 17.7113Z" fill="#E95E55"/>
<path d="M78.3253 11.2402L52.9617 10.8982C51.0997 10.8738 49.61 9.28417 49.6353 7.34879C49.6606 5.4134 51.1882 3.86697 53.0503 3.8914L78.4139 4.23338C80.276 4.25781 81.7656 5.84745 81.7403 7.78284C81.715 9.71822 80.1874 11.2647 78.3253 11.2402Z" fill="#FB8C85"/>
</g>
<g clip-path="url(#clip1_4684_43337)">
<path d="M308.6 91.1245C307.832 80.4442 298.192 72 286.406 72C279.025 72 272.486 75.3135 268.44 80.4132C264.393 75.3135 257.854 72 250.473 72C242.385 72 235.303 75.9802 231.411 81.9293C227.52 75.9802 220.438 72 212.35 72C204.969 72 198.43 75.3135 194.383 80.4132C190.336 75.3135 183.798 72 176.416 72C169.035 72 162.361 75.3838 158.322 80.5735C154.286 75.3838 147.687 72 140.231 72C132.775 72 126.311 75.3135 122.264 80.4132C118.22 75.3135 111.681 72 104.303 72C96.2148 72 89.1329 75.9802 85.2413 81.9293C81.3469 75.9802 74.265 72 66.177 72C58.7957 72 52.2571 75.3135 48.2103 80.4132C44.1635 75.3135 37.6248 72 30.2436 72C17.959 72 8 81.1783 8 92.5C8 103.822 17.959 113 30.2436 113C33.4921 113 36.5799 112.356 39.3627 111.203C41.3224 112.339 43.6396 113 46.1231 113C49.3827 113 52.3513 111.869 54.602 110.01C57.9725 111.906 61.9361 113 66.1742 113C69.4227 113 72.5105 112.356 75.2934 111.203C77.253 112.339 79.5702 113 82.0537 113C85.7569 113 89.0885 111.54 91.4113 109.211C95.0479 111.596 99.4938 113 104.297 113C107.546 113 110.634 112.356 113.416 111.203C115.376 112.339 117.693 113 120.177 113C123.436 113 126.405 111.869 128.656 110.01C132.026 111.906 135.99 113 140.228 113C143.476 113 146.564 112.356 149.347 111.203C151.307 112.339 153.624 113 156.107 113C159.417 113 162.43 111.833 164.689 109.923C168.093 111.872 172.109 113 176.411 113C179.659 113 182.747 112.356 185.53 111.203C187.49 112.339 189.807 113 192.29 113C195.55 113 198.519 111.869 200.769 110.01C204.143 111.906 208.103 113 212.341 113C215.59 113 218.678 112.356 221.461 111.203C223.42 112.339 225.737 113 228.221 113C231.924 113 235.256 111.54 237.579 109.211C241.215 111.596 245.661 113 250.465 113C253.713 113 256.801 112.356 259.584 111.203C261.543 112.339 263.861 113 266.344 113C269.604 113 272.572 111.869 274.823 110.01C278.193 111.906 282.157 113 286.395 113C289.644 113 292.732 112.356 295.514 111.203C297.474 112.339 299.791 113 302.275 113C309.293 113 314.983 107.757 314.983 101.29C314.983 96.9387 312.408 93.1441 308.586 91.1273L308.6 91.1245Z" fill="#00B700"/>
<path d="M311.943 93.8248C311.943 93.8558 311.943 93.8867 311.943 93.9177C311.943 100.384 306.252 105.628 299.234 105.628C296.748 105.628 294.431 104.967 292.474 103.83C289.691 104.986 286.603 105.628 283.355 105.628C279.117 105.628 275.153 104.536 271.782 102.637C269.532 104.497 266.563 105.628 263.304 105.628C260.817 105.628 258.5 104.967 256.543 103.83C253.76 104.983 250.673 105.628 247.424 105.628C242.62 105.628 238.172 104.224 234.538 101.839C232.215 104.168 228.883 105.628 225.18 105.628C222.694 105.628 220.377 104.967 218.42 103.83C215.637 104.983 212.549 105.628 209.301 105.628C205.063 105.628 201.099 104.536 197.729 102.637C195.478 104.497 192.509 105.628 189.25 105.628C186.763 105.628 184.446 104.967 182.489 103.83C179.707 104.986 176.619 105.628 173.37 105.628C169.068 105.628 165.052 104.5 161.648 102.553C159.387 104.463 156.374 105.628 153.067 105.628C150.581 105.628 148.263 104.967 146.307 103.83C143.524 104.986 140.436 105.628 137.187 105.628C132.949 105.628 128.986 104.536 125.615 102.637C123.364 104.497 120.396 105.628 117.136 105.628C114.65 105.628 112.333 104.967 110.376 103.83C107.593 104.983 104.505 105.628 101.257 105.628C96.4532 105.628 92.0045 104.224 88.3707 101.839C86.048 104.168 82.7163 105.628 79.0132 105.628C76.5269 105.628 74.2097 104.967 72.2528 103.83C69.4699 104.983 66.3822 105.628 63.1336 105.628C58.8956 105.628 54.9319 104.536 51.5614 102.637C49.3107 104.497 46.3422 105.628 43.0825 105.628C40.5962 105.628 38.279 104.967 36.3222 103.83C33.5393 104.986 30.4515 105.628 27.203 105.628C19.1205 105.628 12.0413 101.653 8.14697 95.7094C9.81836 105.507 19.0207 112.997 30.1189 112.997C33.3674 112.997 36.4552 112.353 39.2381 111.2C41.1977 112.336 43.5149 112.997 45.9985 112.997C49.2581 112.997 52.2266 111.866 54.4773 110.007C57.8478 111.903 61.8115 112.997 66.0495 112.997C69.2981 112.997 72.3858 112.353 75.1687 111.2C77.1284 112.336 79.4456 112.997 81.9291 112.997C85.6322 112.997 88.9639 111.537 91.2866 109.208C94.9232 111.594 99.3691 112.997 104.173 112.997C107.421 112.997 110.509 112.353 113.292 111.2C115.251 112.336 117.569 112.997 120.052 112.997C123.312 112.997 126.28 111.866 128.531 110.007C131.902 111.903 135.865 112.997 140.103 112.997C143.352 112.997 146.44 112.353 149.222 111.2C151.182 112.336 153.499 112.997 155.983 112.997C159.292 112.997 162.305 111.83 164.564 109.92C167.968 111.869 171.984 112.997 176.286 112.997C179.535 112.997 182.622 112.353 185.405 111.2C187.365 112.336 189.682 112.997 192.166 112.997C195.425 112.997 198.394 111.866 200.645 110.007C204.018 111.903 207.979 112.997 212.217 112.997C215.465 112.997 218.553 112.353 221.336 111.2C223.296 112.336 225.613 112.997 228.096 112.997C231.799 112.997 235.131 111.537 237.454 109.208C241.09 111.594 245.536 112.997 250.34 112.997C253.588 112.997 256.676 112.353 259.459 111.2C261.419 112.336 263.736 112.997 266.219 112.997C269.479 112.997 272.448 111.866 274.698 110.007C278.069 111.903 282.032 112.997 286.271 112.997C289.519 112.997 292.607 112.353 295.39 111.2C297.349 112.336 299.667 112.997 302.15 112.997C309.168 112.997 314.859 107.754 314.859 101.287C314.859 98.4491 313.761 95.8501 311.94 93.822L311.943 93.8248Z" fill="#00A300"/>
</g>
<defs>
<clipPath id="clip0_4684_43337">
<rect width="188" height="98" fill="white"/>
</clipPath>
<clipPath id="clip1_4684_43337">
<rect width="307" height="41" fill="white" transform="translate(8 72)"/>
</clipPath>
</defs>
</svg>
