<svg width="251" height="139" viewBox="0 0 251 139" fill="none" xmlns="http://www.w3.org/2000/svg">
<path d="M9.56519 35.2031H13.0435V30.0001H9.56519V35.2031Z" fill="#969696"/>
<path d="M9.56519 35.2031H13.0435V30.0001H9.56519V35.2031Z" fill="black" fill-opacity="0.6"/>
<path d="M0.869629 38.6787H21.7392L18.2609 59.4907H4.34789L0.869629 38.6787Z" fill="#636363"/>
<path d="M0.869629 38.6787H21.7392L18.2609 59.4907H4.34789L0.869629 38.6787Z" fill="black" fill-opacity="0.6"/>
<path d="M9.56541 33.4688H13.0437L20.0002 38.6718H2.60889L9.56541 33.4688Z" fill="#636363"/>
<path d="M9.56541 33.4688H13.0437L20.0002 38.6718H2.60889L9.56541 33.4688Z" fill="black" fill-opacity="0.6"/>
<path d="M9.56519 112.208H13.0435L13.0435 59.4842H9.56519L9.56519 112.208Z" fill="#636363"/>
<path d="M9.56519 112.208H13.0435L13.0435 59.4842H9.56519L9.56519 112.208Z" fill="black" fill-opacity="0.6"/>
<path d="M6.08718 124.348H16.522V119.145H6.08718V124.348Z" fill="#969696"/>
<path d="M6.08718 124.348H16.522V119.145H6.08718V124.348Z" fill="black" fill-opacity="0.6"/>
<path d="M6.08691 119.145H16.5217L13.0434 112.208H9.56518L6.08691 119.145Z" fill="#636363"/>
<path d="M6.08691 119.145H16.5217L13.0434 112.208H9.56518L6.08691 119.145Z" fill="black" fill-opacity="0.6"/>
<path d="M2.92139 40.4131L5.82225 57.7565H16.7857L19.6866 40.4131H2.92139Z" fill="#FFCA1E"/>
<path d="M0.000171661 40.4131H22.6089V38.6787H0.000171661V40.4131Z" fill="#636363"/>
<path d="M0.000171661 40.4131H22.6089V38.6787H0.000171661V40.4131Z" fill="black" fill-opacity="0.6"/>
<path d="M12.1738 59.4907L12.1738 38.6787H10.4347L10.4347 59.4907H12.1738Z" fill="#636363"/>
<path d="M12.1738 59.4907L12.1738 38.6787H10.4347L10.4347 59.4907H12.1738Z" fill="black" fill-opacity="0.6"/>
<path d="M118.565 35.2031H122.043V30.0001H118.565V35.2031Z" fill="#969696"/>
<path d="M118.565 35.2031H122.043V30.0001H118.565V35.2031Z" fill="black" fill-opacity="0.6"/>
<path d="M109.87 38.6787H130.739L127.261 59.4907H113.348L109.87 38.6787Z" fill="#636363"/>
<path d="M109.87 38.6787H130.739L127.261 59.4907H113.348L109.87 38.6787Z" fill="black" fill-opacity="0.6"/>
<path d="M118.565 33.4688H122.044L129 38.6718H111.609L118.565 33.4688Z" fill="#636363"/>
<path d="M118.565 33.4688H122.044L129 38.6718H111.609L118.565 33.4688Z" fill="black" fill-opacity="0.6"/>
<path d="M118.565 112.208H122.043V59.4842H118.565V112.208Z" fill="#636363"/>
<path d="M118.565 112.208H122.043V59.4842H118.565V112.208Z" fill="black" fill-opacity="0.6"/>
<path d="M115.087 124.348H125.522V119.145H115.087V124.348Z" fill="#969696"/>
<path d="M115.087 124.348H125.522V119.145H115.087V124.348Z" fill="black" fill-opacity="0.6"/>
<path d="M115.087 119.145H125.522L122.043 112.208H118.565L115.087 119.145Z" fill="#636363"/>
<path d="M115.087 119.145H125.522L122.043 112.208H118.565L115.087 119.145Z" fill="black" fill-opacity="0.6"/>
<path d="M111.921 40.4131L114.822 57.7565H125.786L128.687 40.4131H111.921Z" fill="#FFCA1E"/>
<path d="M109 40.4131H131.609V38.6787H109V40.4131Z" fill="#636363"/>
<path d="M109 40.4131H131.609V38.6787H109V40.4131Z" fill="black" fill-opacity="0.6"/>
<path d="M121.174 59.4907V38.6787H119.435V59.4907H121.174Z" fill="#636363"/>
<path d="M121.174 59.4907V38.6787H119.435V59.4907H121.174Z" fill="black" fill-opacity="0.6"/>
<path d="M91.0959 70.2596C104 57.3252 104 36.3544 91.0959 23.42C78.1916 10.4856 57.2696 10.4856 44.3653 23.42C31.461 36.3544 31.461 57.3252 44.3653 70.2596C57.2696 83.194 78.1916 83.194 91.0959 70.2596Z" fill="#FFBEC8"/>
<path d="M91.0959 70.2596C104 57.3252 104 36.3544 91.0959 23.42C78.1916 10.4856 57.2696 10.4856 44.3653 23.42C31.461 36.3544 31.461 57.3252 44.3653 70.2596C57.2696 83.194 78.1916 83.194 91.0959 70.2596Z" fill="black" fill-opacity="0.6"/>
<path d="M105.048 92.1298C111.5 85.6626 111.5 75.1772 105.048 68.71C98.5958 62.2428 88.1348 62.2428 81.6826 68.71C75.2305 75.1772 75.2305 85.6626 81.6826 92.1298C88.1348 98.597 98.5958 98.597 105.048 92.1298Z" fill="#FFBEC8"/>
<path d="M105.048 92.1298C111.5 85.6626 111.5 75.1772 105.048 68.71C98.5958 62.2428 88.1348 62.2428 81.6826 68.71C75.2305 75.1772 75.2305 85.6626 81.6826 92.1298C88.1348 98.597 98.5958 98.597 105.048 92.1298Z" fill="black" fill-opacity="0.6"/>
<path d="M67.731 13.7188C66.5231 13.7188 65.3307 13.7851 64.1567 13.9115C80.7247 15.6974 93.626 29.7578 93.626 46.8394C93.626 63.9209 80.7247 77.9798 64.1567 79.7672C65.3307 79.8936 66.5231 79.96 67.731 79.96C85.9806 79.96 100.774 65.1316 100.774 46.8394C100.774 28.5471 85.9806 13.7188 67.731 13.7188Z" fill="#FF94A4"/>
<path d="M67.731 13.7188C66.5231 13.7188 65.3307 13.7851 64.1567 13.9115C80.7247 15.6974 93.626 29.7578 93.626 46.8394C93.626 63.9209 80.7247 77.9798 64.1567 79.7672C65.3307 79.8936 66.5231 79.96 67.731 79.96C85.9806 79.96 100.774 65.1316 100.774 46.8394C100.774 28.5471 85.9806 13.7188 67.731 13.7188Z" fill="black" fill-opacity="0.6"/>
<path d="M93.3652 63.8594C92.6467 63.8594 91.942 63.9103 91.248 63.9997C99.372 65.0423 105.653 71.993 105.653 80.4197C105.653 88.8463 99.372 95.7971 91.248 96.8396C91.942 96.9291 92.6482 96.98 93.3652 96.98C102.489 96.98 109.887 89.565 109.887 80.4197C109.887 71.2743 102.489 63.8594 93.3652 63.8594Z" fill="#FF94A4"/>
<path d="M93.3652 63.8594C92.6467 63.8594 91.942 63.9103 91.248 63.9997C99.372 65.0423 105.653 71.993 105.653 80.4197C105.653 88.8463 99.372 95.7971 91.248 96.8396C91.942 96.9291 92.6482 96.98 93.3652 96.98C102.489 96.98 109.887 89.565 109.887 80.4197C109.887 71.2743 102.489 63.8594 93.3652 63.8594Z" fill="black" fill-opacity="0.6"/>
<path d="M37.0649 88.9282C46.4896 88.9282 54.1298 81.2701 54.1298 71.8235C54.1298 62.3768 46.4896 54.7188 37.0649 54.7188C27.6402 54.7188 20 62.3768 20 71.8235C20 81.2701 27.6402 88.9282 37.0649 88.9282Z" fill="#FFBEC8"/>
<path d="M37.0649 88.9282C46.4896 88.9282 54.1298 81.2701 54.1298 71.8235C54.1298 62.3768 46.4896 54.7188 37.0649 54.7188C27.6402 54.7188 20 62.3768 20 71.8235C20 81.2701 27.6402 88.9282 37.0649 88.9282Z" fill="black" fill-opacity="0.6"/>
<path d="M37.0659 54.7188C36.4843 54.7188 35.9104 54.7481 35.3457 54.8051C43.962 55.6703 50.6904 62.9588 50.6904 71.8235C50.6904 80.6881 43.962 87.9766 35.3457 88.8418C35.9119 88.8989 36.4858 88.9282 37.0659 88.9282C46.4915 88.9282 54.1308 81.2695 54.1308 71.8235C54.1308 62.3774 46.49 54.7188 37.0659 54.7188Z" fill="#FF94A4"/>
<path d="M37.0659 54.7188C36.4843 54.7188 35.9104 54.7481 35.3457 54.8051C43.962 55.6703 50.6904 62.9588 50.6904 71.8235C50.6904 80.6881 43.962 87.9766 35.3457 88.8418C35.9119 88.8989 36.4858 88.9282 37.0659 88.9282C46.4915 88.9282 54.1308 81.2695 54.1308 71.8235C54.1308 62.3774 46.49 54.7188 37.0659 54.7188Z" fill="black" fill-opacity="0.6"/>
<path d="M66.5258 90.2371L67.709 95.4097L43.1633 76.7258C42.7586 76.4174 43.1833 75.7974 43.6157 76.0657L66.5273 90.2371H66.5258Z" fill="#8C4226"/>
<path d="M66.5258 90.2371L67.709 95.4097L43.1633 76.7258C42.7586 76.4174 43.1833 75.7974 43.6157 76.0657L66.5273 90.2371H66.5258Z" fill="black" fill-opacity="0.6"/>
<path d="M69.6726 36.8613L73.8008 123.719H63.4812L67.6094 36.8613H69.6726Z" fill="#8C4226"/>
<path d="M69.6726 36.8613L73.8008 123.719H63.4812L67.6094 36.8613H69.6726Z" fill="black" fill-opacity="0.6"/>
<path d="M93.9033 85.5462L68.3583 103.972L69.8391 97.4561L93.1697 84.3925C93.9226 83.9714 94.6017 85.0421 93.9014 85.5472L93.9033 85.5462Z" fill="#8C4226"/>
<path d="M93.9033 85.5462L68.3583 103.972L69.8391 97.4561L93.1697 84.3925C93.9226 83.9714 94.6017 85.0421 93.9014 85.5472L93.9033 85.5462Z" fill="black" fill-opacity="0.6"/>
<path d="M68 60.5902L58.4905 52.2297C57.6026 51.4493 56.5057 52.8291 57.2419 53.8014L68 68V60.5924V60.5902Z" fill="#8C4226"/>
<path d="M68 60.5902L58.4905 52.2297C57.6026 51.4493 56.5057 52.8291 57.2419 53.8014L68 68V60.5924V60.5902Z" fill="black" fill-opacity="0.6"/>
<path d="M69 45.1345L75.61 40.1377C76.2269 39.6704 76.9886 40.4955 76.4777 41.0769L69.0016 49.5637V45.136L69 45.1345Z" fill="#8C4226"/>
<path d="M69 45.1345L75.61 40.1377C76.2269 39.6704 76.9886 40.4955 76.4777 41.0769L69.0016 49.5637V45.136L69 45.1345Z" fill="black" fill-opacity="0.6"/>
<path d="M86.915 88.9996L86.7389 80.7154C86.7232 79.9415 85.6036 79.8553 85.464 80.6165L83.4383 91.7438L86.9128 88.9993L86.915 88.9996Z" fill="#8C4226"/>
<path d="M86.915 88.9996L86.7389 80.7154C86.7232 79.9415 85.6036 79.8553 85.464 80.6165L83.4383 91.7438L86.9128 88.9993L86.915 88.9996Z" fill="black" fill-opacity="0.6"/>
<circle cx="67.688" cy="27.7188" r="2" fill="white"/>
<circle cx="67.688" cy="27.7188" r="2" fill="black" fill-opacity="0.6"/>
<circle cx="74" cy="34.7188" r="2" fill="white"/>
<circle cx="74" cy="34.7188" r="2" fill="black" fill-opacity="0.6"/>
<circle cx="55" cy="56.7188" r="2" fill="white"/>
<circle cx="55" cy="56.7188" r="2" fill="black" fill-opacity="0.6"/>
<circle cx="50.688" cy="39.7188" r="2" fill="white"/>
<circle cx="50.688" cy="39.7188" r="2" fill="black" fill-opacity="0.6"/>
<circle cx="85" cy="49.7188" r="2" fill="white"/>
<circle cx="85" cy="49.7188" r="2" fill="black" fill-opacity="0.6"/>
<circle cx="31" cy="66.5752" r="2" fill="white"/>
<circle cx="31" cy="66.5752" r="2" fill="black" fill-opacity="0.6"/>
<circle cx="44" cy="70.5752" r="2" fill="white"/>
<circle cx="44" cy="70.5752" r="2" fill="black" fill-opacity="0.6"/>
<circle cx="34" cy="78.5752" r="2" fill="white"/>
<circle cx="34" cy="78.5752" r="2" fill="black" fill-opacity="0.6"/>
<circle cx="91" cy="79" r="2" fill="white"/>
<circle cx="91" cy="79" r="2" fill="black" fill-opacity="0.6"/>
<circle cx="97" cy="89" r="2" fill="white"/>
<circle cx="97" cy="89" r="2" fill="black" fill-opacity="0.6"/>
<circle cx="101" cy="78" r="2" fill="white"/>
<circle cx="101" cy="78" r="2" fill="black" fill-opacity="0.6"/>
<ellipse cx="40.3548" cy="95.3659" rx="1.54724" ry="2.78504" transform="rotate(31.4296 40.3548 95.3659)" fill="#FFBEC8"/>
<ellipse cx="40.3548" cy="95.3659" rx="1.54724" ry="2.78504" transform="rotate(31.4296 40.3548 95.3659)" fill="black" fill-opacity="0.6"/>
<ellipse cx="71.4603" cy="87.9023" rx="1.54724" ry="2.78504" transform="rotate(-23.9118 71.4603 87.9023)" fill="#FFBEC8"/>
<ellipse cx="71.4603" cy="87.9023" rx="1.54724" ry="2.78504" transform="rotate(-23.9118 71.4603 87.9023)" fill="black" fill-opacity="0.6"/>
<ellipse cx="74.2313" cy="103.892" rx="1.54724" ry="2.78504" transform="rotate(26.5533 74.2313 103.892)" fill="#FFBEC8"/>
<ellipse cx="74.2313" cy="103.892" rx="1.54724" ry="2.78504" transform="rotate(26.5533 74.2313 103.892)" fill="black" fill-opacity="0.6"/>
<ellipse cx="123.057" cy="123.031" rx="1.54724" ry="2.78504" transform="rotate(168.855 123.057 123.031)" fill="#FFBEC8"/>
<ellipse cx="123.057" cy="123.031" rx="1.54724" ry="2.78504" transform="rotate(168.855 123.057 123.031)" fill="black" fill-opacity="0.6"/>
<ellipse cx="55.0385" cy="129.805" rx="1.54724" ry="2.78504" transform="rotate(-136.544 55.0385 129.805)" fill="#FFBEC8"/>
<ellipse cx="55.0385" cy="129.805" rx="1.54724" ry="2.78504" transform="rotate(-136.544 55.0385 129.805)" fill="black" fill-opacity="0.6"/>
<ellipse cx="83.1662" cy="132.593" rx="1.54724" ry="2.78504" transform="rotate(54.5996 83.1662 132.593)" fill="#FFBEC8"/>
<ellipse cx="83.1662" cy="132.593" rx="1.54724" ry="2.78504" transform="rotate(54.5996 83.1662 132.593)" fill="black" fill-opacity="0.6"/>
<ellipse cx="192.185" cy="123.666" rx="1.54724" ry="2.78504" transform="rotate(62.8794 192.185 123.666)" fill="#FFBEC8"/>
<ellipse cx="192.185" cy="123.666" rx="1.54724" ry="2.78504" transform="rotate(62.8794 192.185 123.666)" fill="black" fill-opacity="0.6"/>
<ellipse cx="196.045" cy="131.81" rx="1.54724" ry="2.78504" transform="rotate(63.1258 196.045 131.81)" fill="#FFBEC8"/>
<ellipse cx="196.045" cy="131.81" rx="1.54724" ry="2.78504" transform="rotate(63.1258 196.045 131.81)" fill="black" fill-opacity="0.6"/>
<ellipse cx="120.632" cy="68.5741" rx="1.54724" ry="2.78504" transform="rotate(-85.0825 120.632 68.5741)" fill="#FFBEC8"/>
<ellipse cx="120.632" cy="68.5741" rx="1.54724" ry="2.78504" transform="rotate(-85.0825 120.632 68.5741)" fill="black" fill-opacity="0.6"/>
<ellipse cx="105.823" cy="113.647" rx="1.54724" ry="2.78504" transform="rotate(5.85993 105.823 113.647)" fill="#FFBEC8"/>
<ellipse cx="105.823" cy="113.647" rx="1.54724" ry="2.78504" transform="rotate(5.85993 105.823 113.647)" fill="black" fill-opacity="0.6"/>
<ellipse cx="138.69" cy="126.704" rx="1.54724" ry="2.78504" transform="rotate(80.5005 138.69 126.704)" fill="#FFBEC8"/>
<ellipse cx="138.69" cy="126.704" rx="1.54724" ry="2.78504" transform="rotate(80.5005 138.69 126.704)" fill="black" fill-opacity="0.6"/>
<ellipse cx="83.1074" cy="125.869" rx="1.54724" ry="2.78504" transform="rotate(-83.6339 83.1074 125.869)" fill="#FFBEC8"/>
<ellipse cx="83.1074" cy="125.869" rx="1.54724" ry="2.78504" transform="rotate(-83.6339 83.1074 125.869)" fill="black" fill-opacity="0.6"/>
<ellipse cx="101.812" cy="128.898" rx="1.54724" ry="2.78504" transform="rotate(32.8837 101.812 128.898)" fill="#FFBEC8"/>
<ellipse cx="101.812" cy="128.898" rx="1.54724" ry="2.78504" transform="rotate(32.8837 101.812 128.898)" fill="black" fill-opacity="0.6"/>
<ellipse cx="89.4999" cy="116.898" rx="1.54724" ry="2.78504" transform="rotate(111.845 89.4999 116.898)" fill="#FFBEC8"/>
<ellipse cx="89.4999" cy="116.898" rx="1.54724" ry="2.78504" transform="rotate(111.845 89.4999 116.898)" fill="black" fill-opacity="0.6"/>
<ellipse cx="49.1697" cy="117.882" rx="1.54724" ry="2.78504" transform="rotate(68.5108 49.1697 117.882)" fill="#FFBEC8"/>
<ellipse cx="49.1697" cy="117.882" rx="1.54724" ry="2.78504" transform="rotate(68.5108 49.1697 117.882)" fill="black" fill-opacity="0.6"/>
<ellipse cx="30.8661" cy="121.169" rx="1.54724" ry="2.78504" transform="rotate(144.94 30.8661 121.169)" fill="#FFBEC8"/>
<ellipse cx="30.8661" cy="121.169" rx="1.54724" ry="2.78504" transform="rotate(144.94 30.8661 121.169)" fill="black" fill-opacity="0.6"/>
<ellipse cx="41.8809" cy="127.726" rx="1.54724" ry="2.78504" transform="rotate(86.2427 41.8809 127.726)" fill="#FFBEC8"/>
<ellipse cx="41.8809" cy="127.726" rx="1.54724" ry="2.78504" transform="rotate(86.2427 41.8809 127.726)" fill="black" fill-opacity="0.6"/>
<ellipse cx="49.7504" cy="126.783" rx="1.54724" ry="2.78504" transform="rotate(135.052 49.7504 126.783)" fill="#FFBEC8"/>
<ellipse cx="49.7504" cy="126.783" rx="1.54724" ry="2.78504" transform="rotate(135.052 49.7504 126.783)" fill="black" fill-opacity="0.6"/>
<ellipse cx="26.7499" cy="131.784" rx="1.54724" ry="2.78504" transform="rotate(-156.584 26.7499 131.784)" fill="#FFBEC8"/>
<ellipse cx="26.7499" cy="131.784" rx="1.54724" ry="2.78504" transform="rotate(-156.584 26.7499 131.784)" fill="black" fill-opacity="0.6"/>
<ellipse cx="72.9596" cy="127.828" rx="1.54724" ry="2.78504" transform="rotate(-126.45 72.9596 127.828)" fill="#FFBEC8"/>
<ellipse cx="72.9596" cy="127.828" rx="1.54724" ry="2.78504" transform="rotate(-126.45 72.9596 127.828)" fill="black" fill-opacity="0.6"/>
<ellipse cx="50.7159" cy="103.814" rx="1.54724" ry="2.78504" transform="rotate(137.188 50.7159 103.814)" fill="#FFBEC8"/>
<ellipse cx="50.7159" cy="103.814" rx="1.54724" ry="2.78504" transform="rotate(137.188 50.7159 103.814)" fill="black" fill-opacity="0.6"/>
<ellipse cx="34.7159" cy="108.813" rx="1.54724" ry="2.78504" transform="rotate(76.2459 34.7159 108.813)" fill="#FFBEC8"/>
<ellipse cx="34.7159" cy="108.813" rx="1.54724" ry="2.78504" transform="rotate(76.2459 34.7159 108.813)" fill="black" fill-opacity="0.6"/>
<ellipse cx="64.0956" cy="125.026" rx="1.54724" ry="2.78504" transform="rotate(-47.2651 64.0956 125.026)" fill="#FFBEC8"/>
<ellipse cx="64.0956" cy="125.026" rx="1.54724" ry="2.78504" transform="rotate(-47.2651 64.0956 125.026)" fill="black" fill-opacity="0.6"/>
<ellipse cx="18.0956" cy="127.026" rx="1.54724" ry="2.78504" transform="rotate(-47.2651 18.0956 127.026)" fill="#FFBEC8"/>
<ellipse cx="18.0956" cy="127.026" rx="1.54724" ry="2.78504" transform="rotate(-47.2651 18.0956 127.026)" fill="black" fill-opacity="0.6"/>
<ellipse cx="90.86" cy="104.573" rx="1.54724" ry="2.78504" transform="rotate(124.561 90.86 104.573)" fill="#FFBEC8"/>
<ellipse cx="90.86" cy="104.573" rx="1.54724" ry="2.78504" transform="rotate(124.561 90.86 104.573)" fill="black" fill-opacity="0.6"/>
<ellipse cx="85.1715" cy="112.573" rx="1.54724" ry="2.78504" transform="rotate(68.6966 85.1715 112.573)" fill="#FFBEC8"/>
<ellipse cx="85.1715" cy="112.573" rx="1.54724" ry="2.78504" transform="rotate(68.6966 85.1715 112.573)" fill="black" fill-opacity="0.6"/>
<ellipse cx="122.86" cy="90.5735" rx="1.54724" ry="2.78504" transform="rotate(-159.783 122.86 90.5735)" fill="#FFBEC8"/>
<ellipse cx="122.86" cy="90.5735" rx="1.54724" ry="2.78504" transform="rotate(-159.783 122.86 90.5735)" fill="black" fill-opacity="0.6"/>
<ellipse cx="110.836" cy="98.8943" rx="1.54724" ry="2.78504" transform="rotate(146.156 110.836 98.8943)" fill="#FFBEC8"/>
<ellipse cx="110.836" cy="98.8943" rx="1.54724" ry="2.78504" transform="rotate(146.156 110.836 98.8943)" fill="black" fill-opacity="0.6"/>
<path d="M175.742 95.4832L174.559 100.656L199.104 81.9719C199.509 81.6635 199.084 81.0435 198.652 81.3118L175.74 95.4832H175.742Z" fill="#8C4226"/>
<path d="M175.742 95.4832L174.559 100.656L199.104 81.9719C199.509 81.6635 199.084 81.0435 198.652 81.3118L175.74 95.4832H175.742Z" fill="black" fill-opacity="0.6"/>
<path d="M200.096 70.5409C213 57.6065 213 36.6357 200.096 23.7013C187.192 10.7669 166.27 10.7669 153.365 23.7013C140.461 36.6357 140.461 57.6065 153.365 70.5409C166.27 83.4753 187.192 83.4753 200.096 70.5409Z" fill="#FFBEC8"/>
<path d="M200.096 70.5409C213 57.6065 213 36.6357 200.096 23.7013C187.192 10.7669 166.27 10.7669 153.365 23.7013C140.461 36.6357 140.461 57.6065 153.365 70.5409C166.27 83.4753 187.192 83.4753 200.096 70.5409Z" fill="black" fill-opacity="0.6"/>
<path d="M214.849 86.6533C221.301 80.1861 221.301 69.7007 214.849 63.2335C208.397 56.7663 197.936 56.7663 191.483 63.2335C185.031 69.7007 185.031 80.1861 191.483 86.6533C197.936 93.1205 208.397 93.1205 214.849 86.6533Z" fill="#FFBEC8"/>
<path d="M214.849 86.6533C221.301 80.1861 221.301 69.7007 214.849 63.2335C208.397 56.7663 197.936 56.7663 191.483 63.2335C185.031 69.7007 185.031 80.1861 191.483 86.6533C197.936 93.1205 208.397 93.1205 214.849 86.6533Z" fill="black" fill-opacity="0.6"/>
<path d="M176.731 14C175.523 14 174.331 14.0663 173.157 14.1928C189.725 15.9787 202.626 30.039 202.626 47.1206C202.626 64.2022 189.725 78.261 173.157 80.0484C174.331 80.1749 175.523 80.2412 176.731 80.2412C194.981 80.2412 209.774 65.4128 209.774 47.1206C209.774 28.8284 194.981 14 176.731 14Z" fill="#FF94A4"/>
<path d="M176.731 14C175.523 14 174.331 14.0663 173.157 14.1928C189.725 15.9787 202.626 30.039 202.626 47.1206C202.626 64.2022 189.725 78.261 173.157 80.0484C174.331 80.1749 175.523 80.2412 176.731 80.2412C194.981 80.2412 209.774 65.4128 209.774 47.1206C209.774 28.8284 194.981 14 176.731 14Z" fill="black" fill-opacity="0.6"/>
<path d="M203.166 58.3818C202.448 58.3818 201.743 58.4327 201.049 58.5222C209.173 59.5647 215.454 66.5155 215.454 74.9421C215.454 83.3688 209.173 90.3196 201.049 91.3621C201.743 91.4515 202.449 91.5024 203.166 91.5024C212.291 91.5024 219.688 84.0875 219.688 74.9421C219.688 65.7968 212.291 58.3818 203.166 58.3818Z" fill="#FF94A4"/>
<path d="M203.166 58.3818C202.448 58.3818 201.743 58.4327 201.049 58.5222C209.173 59.5647 215.454 66.5155 215.454 74.9421C215.454 83.3688 209.173 90.3196 201.049 91.3621C201.743 91.4515 202.449 91.5024 203.166 91.5024C212.291 91.5024 219.688 84.0875 219.688 74.9421C219.688 65.7968 212.291 58.3818 203.166 58.3818Z" fill="black" fill-opacity="0.6"/>
<path d="M172.997 37.1426L168.869 124H179.188L175.06 37.1426H172.997Z" fill="#8C4226"/>
<path d="M172.997 37.1426L168.869 124H179.188L175.06 37.1426H172.997Z" fill="black" fill-opacity="0.6"/>
<path d="M152.558 71.8023L172.035 96.5549L172.407 89.8833L153.581 70.8955C152.973 70.2833 152.025 71.1253 152.559 71.8039L152.558 71.8023Z" fill="#8C4226"/>
<path d="M152.558 71.8023L172.035 96.5549L172.407 89.8833L153.581 70.8955C152.973 70.2833 152.025 71.1253 152.559 71.8039L152.558 71.8023Z" fill="black" fill-opacity="0.6"/>
<path d="M149.753 83.3539C159.178 83.3539 166.818 75.6959 166.818 66.2492C166.818 56.8026 159.178 49.1445 149.753 49.1445C140.328 49.1445 132.688 56.8026 132.688 66.2492C132.688 75.6959 140.328 83.3539 149.753 83.3539Z" fill="#FFBEC8"/>
<path d="M149.753 83.3539C159.178 83.3539 166.818 75.6959 166.818 66.2492C166.818 56.8026 159.178 49.1445 149.753 49.1445C140.328 49.1445 132.688 56.8026 132.688 66.2492C132.688 75.6959 140.328 83.3539 149.753 83.3539Z" fill="black" fill-opacity="0.6"/>
<path d="M149.753 49.1445C149.171 49.1445 148.597 49.1738 148.033 49.2309C156.649 50.0961 163.377 57.3846 163.377 66.2492C163.377 75.1139 156.649 82.4024 148.033 83.2676C148.599 83.3246 149.173 83.3539 149.753 83.3539C159.179 83.3539 166.818 75.6953 166.818 66.2492C166.818 56.8032 159.177 49.1445 149.753 49.1445Z" fill="#FF94A4"/>
<path d="M149.753 49.1445C149.171 49.1445 148.597 49.1738 148.033 49.2309C156.649 50.0961 163.377 57.3846 163.377 66.2492C163.377 75.1139 156.649 82.4024 148.033 83.2676C148.599 83.3246 149.173 83.3539 149.753 83.3539C159.179 83.3539 166.818 75.6953 166.818 66.2492C166.818 56.8032 159.177 49.1445 149.753 49.1445Z" fill="black" fill-opacity="0.6"/>
<path d="M174.322 63.1538L182.232 57.1731C182.97 56.6149 183.883 57.6019 183.27 58.2974L174.322 68.4544V63.1554V63.1538Z" fill="#8C4226"/>
<path d="M174.322 63.1538L182.232 57.1731C182.97 56.6149 183.883 57.6019 183.27 58.2974L174.322 68.4544V63.1554V63.1538Z" fill="black" fill-opacity="0.6"/>
<circle cx="176.688" cy="28" r="2" fill="white"/>
<circle cx="176.688" cy="28" r="2" fill="black" fill-opacity="0.6"/>
<circle cx="192.688" cy="39" r="2" fill="white"/>
<circle cx="192.688" cy="39" r="2" fill="black" fill-opacity="0.6"/>
<circle cx="185.688" cy="45" r="2" fill="white"/>
<circle cx="185.688" cy="45" r="2" fill="black" fill-opacity="0.6"/>
<circle cx="159.688" cy="40" r="2" fill="white"/>
<circle cx="159.688" cy="40" r="2" fill="black" fill-opacity="0.6"/>
<circle cx="192.688" cy="59" r="2" fill="white"/>
<circle cx="192.688" cy="59" r="2" fill="black" fill-opacity="0.6"/>
<circle cx="143.688" cy="61" r="2" fill="white"/>
<circle cx="143.688" cy="61" r="2" fill="black" fill-opacity="0.6"/>
<circle cx="156.688" cy="65" r="2" fill="white"/>
<circle cx="156.688" cy="65" r="2" fill="black" fill-opacity="0.6"/>
<circle cx="146.688" cy="73" r="2" fill="white"/>
<circle cx="146.688" cy="73" r="2" fill="black" fill-opacity="0.6"/>
<circle cx="199.688" cy="79" r="2" fill="white"/>
<circle cx="199.688" cy="79" r="2" fill="black" fill-opacity="0.6"/>
<circle cx="209.688" cy="84" r="2" fill="white"/>
<circle cx="209.688" cy="84" r="2" fill="black" fill-opacity="0.6"/>
<circle cx="207.688" cy="73" r="2" fill="white"/>
<circle cx="207.688" cy="73" r="2" fill="black" fill-opacity="0.6"/>
<path d="M172.446 52.2565L165.836 47.2598C165.219 46.7925 164.458 47.6175 164.969 48.199L172.445 56.6858V52.2581L172.446 52.2565Z" fill="#8C4226"/>
<path d="M172.446 52.2565L165.836 47.2598C165.219 46.7925 164.458 47.6175 164.969 48.199L172.445 56.6858V52.2581L172.446 52.2565Z" fill="black" fill-opacity="0.6"/>
<ellipse cx="149.354" cy="95.6474" rx="1.54724" ry="2.78504" transform="rotate(100.707 149.354 95.6474)" fill="#FFBEC8"/>
<ellipse cx="149.354" cy="95.6474" rx="1.54724" ry="2.78504" transform="rotate(100.707 149.354 95.6474)" fill="black" fill-opacity="0.6"/>
<ellipse cx="180.46" cy="88.1835" rx="1.54724" ry="2.78504" transform="rotate(-23.9118 180.46 88.1835)" fill="#FFBEC8"/>
<ellipse cx="180.46" cy="88.1835" rx="1.54724" ry="2.78504" transform="rotate(-23.9118 180.46 88.1835)" fill="black" fill-opacity="0.6"/>
<ellipse cx="183.231" cy="104.173" rx="1.54724" ry="2.78504" transform="rotate(26.5533 183.231 104.173)" fill="#FFBEC8"/>
<ellipse cx="183.231" cy="104.173" rx="1.54724" ry="2.78504" transform="rotate(26.5533 183.231 104.173)" fill="black" fill-opacity="0.6"/>
<ellipse cx="240.632" cy="129.856" rx="1.54724" ry="2.78504" transform="rotate(96.5569 240.632 129.856)" fill="#FFBEC8"/>
<ellipse cx="167.943" cy="129.856" rx="1.54724" ry="2.78504" transform="rotate(96.5569 167.943 129.856)" fill="#FFBEC8"/>
<ellipse cx="167.943" cy="129.856" rx="1.54724" ry="2.78504" transform="rotate(96.5569 167.943 129.856)" fill="black" fill-opacity="0.6"/>
<ellipse cx="191.13" cy="136.346" rx="1.54724" ry="2.78504" transform="rotate(108.348 191.13 136.346)" fill="#FFBEC8"/>
<ellipse cx="191.13" cy="136.346" rx="1.54724" ry="2.78504" transform="rotate(108.348 191.13 136.346)" fill="black" fill-opacity="0.6"/>
<ellipse cx="221.13" cy="109.346" rx="1.54724" ry="2.78504" transform="rotate(-136.118 221.13 109.346)" fill="#FFBEC8"/>
<ellipse cx="229.632" cy="68.8554" rx="1.54724" ry="2.78504" transform="rotate(-85.0825 229.632 68.8554)" fill="#FFBEC8"/>
<ellipse cx="212.823" cy="93.9288" rx="1.54724" ry="2.78504" transform="rotate(88.3246 212.823 93.9288)" fill="#FFBEC8"/>
<ellipse cx="212.823" cy="93.9288" rx="1.54724" ry="2.78504" transform="rotate(88.3246 212.823 93.9288)" fill="black" fill-opacity="0.6"/>
<ellipse cx="247.69" cy="126.986" rx="1.54724" ry="2.78504" transform="rotate(80.5005 247.69 126.986)" fill="#FFBEC8"/>
<ellipse cx="192.107" cy="126.15" rx="1.54724" ry="2.78504" transform="rotate(-83.6339 192.107 126.15)" fill="#FFBEC8"/>
<ellipse cx="192.107" cy="126.15" rx="1.54724" ry="2.78504" transform="rotate(-83.6339 192.107 126.15)" fill="black" fill-opacity="0.6"/>
<ellipse cx="205.108" cy="128.15" rx="1.54724" ry="2.78504" transform="rotate(71.7772 205.108 128.15)" fill="#FFBEC8"/>
<ellipse cx="205.108" cy="128.15" rx="1.54724" ry="2.78504" transform="rotate(71.7772 205.108 128.15)" fill="black" fill-opacity="0.6"/>
<ellipse cx="198.398" cy="117.144" rx="1.54724" ry="2.78504" transform="rotate(-160.258 198.398 117.144)" fill="#FFBEC8"/>
<ellipse cx="198.398" cy="117.144" rx="1.54724" ry="2.78504" transform="rotate(-160.258 198.398 117.144)" fill="black" fill-opacity="0.6"/>
<ellipse cx="211.397" cy="112.144" rx="1.54724" ry="2.78504" transform="rotate(120.732 211.397 112.144)" fill="#FFBEC8"/>
<ellipse cx="211.397" cy="112.144" rx="1.54724" ry="2.78504" transform="rotate(120.732 211.397 112.144)" fill="black" fill-opacity="0.6"/>
<ellipse cx="158.17" cy="118.163" rx="1.54724" ry="2.78504" transform="rotate(68.5108 158.17 118.163)" fill="#FFBEC8"/>
<ellipse cx="158.17" cy="118.163" rx="1.54724" ry="2.78504" transform="rotate(68.5108 158.17 118.163)" fill="black" fill-opacity="0.6"/>
<ellipse cx="150.867" cy="127.593" rx="1.54724" ry="2.78504" transform="rotate(86.2427 150.867 127.593)" fill="#FFBEC8"/>
<ellipse cx="150.867" cy="127.593" rx="1.54724" ry="2.78504" transform="rotate(86.2427 150.867 127.593)" fill="black" fill-opacity="0.6"/>
<ellipse cx="159.062" cy="132.064" rx="1.54724" ry="2.78504" transform="rotate(135.052 159.062 132.064)" fill="#FFBEC8"/>
<ellipse cx="159.062" cy="132.064" rx="1.54724" ry="2.78504" transform="rotate(135.052 159.062 132.064)" fill="black" fill-opacity="0.6"/>
<ellipse cx="135.75" cy="132.065" rx="1.54724" ry="2.78504" transform="rotate(-67.7388 135.75 132.065)" fill="#FFBEC8"/>
<ellipse cx="135.75" cy="132.065" rx="1.54724" ry="2.78504" transform="rotate(-67.7388 135.75 132.065)" fill="black" fill-opacity="0.6"/>
<ellipse cx="185.16" cy="130.9" rx="1.54724" ry="2.78504" transform="rotate(-126.45 185.16 130.9)" fill="#FFBEC8"/>
<ellipse cx="185.16" cy="130.9" rx="1.54724" ry="2.78504" transform="rotate(-126.45 185.16 130.9)" fill="black" fill-opacity="0.6"/>
<ellipse cx="154.028" cy="110.095" rx="1.54724" ry="2.78504" transform="rotate(-139.942 154.028 110.095)" fill="#FFBEC8"/>
<ellipse cx="154.028" cy="110.095" rx="1.54724" ry="2.78504" transform="rotate(-139.942 154.028 110.095)" fill="black" fill-opacity="0.6"/>
<ellipse cx="143.716" cy="109.095" rx="1.54724" ry="2.78504" transform="rotate(76.2459 143.716 109.095)" fill="#FFBEC8"/>
<ellipse cx="143.716" cy="109.095" rx="1.54724" ry="2.78504" transform="rotate(76.2459 143.716 109.095)" fill="black" fill-opacity="0.6"/>
<ellipse cx="184.096" cy="127.027" rx="1.54724" ry="2.78504" transform="rotate(-47.2651 184.096 127.027)" fill="#FFBEC8"/>
<ellipse cx="184.096" cy="127.027" rx="1.54724" ry="2.78504" transform="rotate(-47.2651 184.096 127.027)" fill="black" fill-opacity="0.6"/>
<ellipse cx="174.783" cy="130.027" rx="1.54724" ry="2.78504" transform="rotate(28.319 174.783 130.027)" fill="#FFBEC8"/>
<ellipse cx="174.783" cy="130.027" rx="1.54724" ry="2.78504" transform="rotate(28.319 174.783 130.027)" fill="black" fill-opacity="0.6"/>
<ellipse cx="200.172" cy="104.854" rx="1.54724" ry="2.78504" transform="rotate(124.561 200.172 104.854)" fill="#FFBEC8"/>
<ellipse cx="200.172" cy="104.854" rx="1.54724" ry="2.78504" transform="rotate(124.561 200.172 104.854)" fill="black" fill-opacity="0.6"/>
<ellipse cx="189.171" cy="111.855" rx="1.54724" ry="2.78504" transform="rotate(89.3608 189.171 111.855)" fill="#FFBEC8"/>
<ellipse cx="189.171" cy="111.855" rx="1.54724" ry="2.78504" transform="rotate(89.3608 189.171 111.855)" fill="black" fill-opacity="0.6"/>
<ellipse cx="231.86" cy="90.8548" rx="1.54724" ry="2.78504" transform="rotate(-159.783 231.86 90.8548)" fill="#FFBEC8"/>
<ellipse cx="229.524" cy="85.1755" rx="1.54724" ry="2.78504" transform="rotate(146.156 229.524 85.1755)" fill="#FFBEC8"/>
</svg>
