<svg width="238" height="139" viewBox="0 0 238 139" fill="none" xmlns="http://www.w3.org/2000/svg">
<path d="M46.0538 95.202L44.8706 100.375L69.4163 81.6906C69.8209 81.3822 69.3963 80.7622 68.9639 81.0306L46.0523 95.202H46.0538Z" fill="#8C4226"/>
<path d="M46.0538 95.202L44.8706 100.375L69.4163 81.6906C69.8209 81.3822 69.3963 80.7622 68.9639 81.0306L46.0523 95.202H46.0538Z" fill="black" fill-opacity="0.6"/>
<path d="M85.1607 86.372C91.6129 79.9048 91.6129 69.4194 85.1607 62.9522C78.7086 56.485 68.2476 56.485 61.7954 62.9522C55.3433 69.4194 55.3433 79.9048 61.7954 86.372C68.2476 92.8392 78.7086 92.8392 85.1607 86.372Z" fill="#FFBEC8"/>
<path d="M85.1607 86.372C91.6129 79.9048 91.6129 69.4194 85.1607 62.9522C78.7086 56.485 68.2476 56.485 61.7954 62.9522C55.3433 69.4194 55.3433 79.9048 61.7954 86.372C68.2476 92.8392 78.7086 92.8392 85.1607 86.372Z" fill="black" fill-opacity="0.6"/>
<path d="M70.4079 70.2596C83.3122 57.3252 83.3122 36.3544 70.4079 23.42C57.5036 10.4856 36.5816 10.4856 23.6773 23.42C10.773 36.3544 10.773 57.3252 23.6773 70.2596C36.5816 83.194 57.5036 83.194 70.4079 70.2596Z" fill="#FFBEC8"/>
<path d="M70.4079 70.2596C83.3122 57.3252 83.3122 36.3544 70.4079 23.42C57.5036 10.4856 36.5816 10.4856 23.6773 23.42C10.773 36.3544 10.773 57.3252 23.6773 70.2596C36.5816 83.194 57.5036 83.194 70.4079 70.2596Z" fill="black" fill-opacity="0.6"/>
<path d="M73.4785 58.1006C72.7599 58.1006 72.0552 58.1515 71.3613 58.2409C79.4853 59.2835 85.7659 66.2342 85.7659 74.6609C85.7659 83.0875 79.4853 90.0383 71.3613 91.0808C72.0552 91.1703 72.7615 91.2212 73.4785 91.2212C82.6025 91.2212 90.0002 83.8062 90.0002 74.6609C90.0002 65.5156 82.6025 58.1006 73.4785 58.1006Z" fill="#FF94A4"/>
<path d="M73.4785 58.1006C72.7599 58.1006 72.0552 58.1515 71.3613 58.2409C79.4853 59.2835 85.7659 66.2342 85.7659 74.6609C85.7659 83.0875 79.4853 90.0383 71.3613 91.0808C72.0552 91.1703 72.7615 91.2212 73.4785 91.2212C82.6025 91.2212 90.0002 83.8062 90.0002 74.6609C90.0002 65.5156 82.6025 58.1006 73.4785 58.1006Z" fill="black" fill-opacity="0.6"/>
<path d="M47.043 13.7188C45.8352 13.7188 44.6427 13.7851 43.4688 13.9115C60.0367 15.6974 72.938 29.7578 72.938 46.8394C72.938 63.9209 60.0367 77.9798 43.4688 79.7672C44.6427 79.8936 45.8352 79.96 47.043 79.96C65.2926 79.96 80.0865 65.1316 80.0865 46.8394C80.0865 28.5471 65.2926 13.7188 47.043 13.7188Z" fill="#FF94A4"/>
<path d="M47.043 13.7188C45.8352 13.7188 44.6427 13.7851 43.4688 13.9115C60.0367 15.6974 72.938 29.7578 72.938 46.8394C72.938 63.9209 60.0367 77.9798 43.4688 79.7672C44.6427 79.8936 45.8352 79.96 47.043 79.96C65.2926 79.96 80.0865 65.1316 80.0865 46.8394C80.0865 28.5471 65.2926 13.7188 47.043 13.7188Z" fill="black" fill-opacity="0.6"/>
<path d="M43.3088 36.8613L39.1807 123.719H49.5002L45.3721 36.8613H43.3088Z" fill="#8C4226"/>
<path d="M43.3088 36.8613L39.1807 123.719H49.5002L45.3721 36.8613H43.3088Z" fill="black" fill-opacity="0.6"/>
<path d="M22.8696 71.5211L42.347 96.2736L42.7194 89.602L23.8928 70.6143C23.285 70.002 22.3372 70.8441 22.8711 71.5226L22.8696 71.5211Z" fill="#8C4226"/>
<path d="M22.8696 71.5211L42.347 96.2736L42.7194 89.602L23.8928 70.6143C23.285 70.002 22.3372 70.8441 22.8711 71.5226L22.8696 71.5211Z" fill="black" fill-opacity="0.6"/>
<path d="M20.0649 83.0727C29.4896 83.0727 37.1298 75.4146 37.1298 65.968C37.1298 56.5213 29.4896 48.8633 20.0649 48.8633C10.6402 48.8633 3 56.5213 3 65.968C3 75.4146 10.6402 83.0727 20.0649 83.0727Z" fill="#FFBEC8"/>
<path d="M20.0649 83.0727C29.4896 83.0727 37.1298 75.4146 37.1298 65.968C37.1298 56.5213 29.4896 48.8633 20.0649 48.8633C10.6402 48.8633 3 56.5213 3 65.968C3 75.4146 10.6402 83.0727 20.0649 83.0727Z" fill="black" fill-opacity="0.6"/>
<path d="M20.0649 48.8633C19.4833 48.8633 18.9094 48.8926 18.3447 48.9496C26.961 49.8148 33.6894 57.1033 33.6894 65.968C33.6894 74.8326 26.961 82.1211 18.3447 82.9863C18.9109 83.0434 19.4848 83.0727 20.0649 83.0727C29.4905 83.0727 37.1298 75.414 37.1298 65.968C37.1298 56.5219 29.489 48.8633 20.0649 48.8633Z" fill="#FF94A4"/>
<path d="M20.0649 48.8633C19.4833 48.8633 18.9094 48.8926 18.3447 48.9496C26.961 49.8148 33.6894 57.1033 33.6894 65.968C33.6894 74.8326 26.961 82.1211 18.3447 82.9863C18.9109 83.0434 19.4848 83.0727 20.0649 83.0727C29.4905 83.0727 37.1298 75.414 37.1298 65.968C37.1298 56.5219 29.489 48.8633 20.0649 48.8633Z" fill="black" fill-opacity="0.6"/>
<path d="M44.6338 62.8726L52.5439 56.8919C53.2824 56.3336 54.1948 57.3206 53.5824 58.0162L44.6338 68.1732V62.8741V62.8726Z" fill="#8C4226"/>
<path d="M44.6338 62.8726L52.5439 56.8919C53.2824 56.3336 54.1948 57.3206 53.5824 58.0162L44.6338 68.1732V62.8741V62.8726Z" fill="black" fill-opacity="0.6"/>
<circle cx="47" cy="27.7188" r="2" fill="white"/>
<circle cx="47" cy="27.7188" r="2" fill="black" fill-opacity="0.6"/>
<circle cx="63" cy="38.7188" r="2" fill="white"/>
<circle cx="63" cy="38.7188" r="2" fill="black" fill-opacity="0.6"/>
<circle cx="56" cy="44.7188" r="2" fill="white"/>
<circle cx="56" cy="44.7188" r="2" fill="black" fill-opacity="0.6"/>
<circle cx="30" cy="39.7188" r="2" fill="white"/>
<circle cx="30" cy="39.7188" r="2" fill="black" fill-opacity="0.6"/>
<circle cx="63" cy="58.7188" r="2" fill="white"/>
<circle cx="63" cy="58.7188" r="2" fill="black" fill-opacity="0.6"/>
<circle cx="14" cy="60.7188" r="2" fill="white"/>
<circle cx="14" cy="60.7188" r="2" fill="black" fill-opacity="0.6"/>
<circle cx="27" cy="64.7188" r="2" fill="white"/>
<circle cx="27" cy="64.7188" r="2" fill="black" fill-opacity="0.6"/>
<circle cx="70" cy="78.7188" r="2" fill="white"/>
<circle cx="70" cy="78.7188" r="2" fill="black" fill-opacity="0.6"/>
<circle cx="80" cy="83.7188" r="2" fill="white"/>
<circle cx="80" cy="83.7188" r="2" fill="black" fill-opacity="0.6"/>
<circle cx="78" cy="72.7188" r="2" fill="white"/>
<circle cx="78" cy="72.7188" r="2" fill="black" fill-opacity="0.6"/>
<circle cx="17" cy="72.7188" r="2" fill="white"/>
<circle cx="17" cy="72.7188" r="2" fill="black" fill-opacity="0.6"/>
<path d="M42.7583 51.9753L36.1484 46.9785C35.5314 46.5112 34.7697 47.3363 35.2806 47.9177L42.7567 56.4045V51.9768L42.7583 51.9753Z" fill="#8C4226"/>
<path d="M42.7583 51.9753L36.1484 46.9785C35.5314 46.5112 34.7697 47.3363 35.2806 47.9177L42.7567 56.4045V51.9768L42.7583 51.9753Z" fill="black" fill-opacity="0.6"/>
<ellipse cx="19.6668" cy="95.3659" rx="1.54724" ry="2.78504" transform="rotate(31.4296 19.6668 95.3659)" fill="#FFBEC8"/>
<ellipse cx="19.6668" cy="95.3659" rx="1.54724" ry="2.78504" transform="rotate(31.4296 19.6668 95.3659)" fill="black" fill-opacity="0.6"/>
<ellipse cx="50.7723" cy="87.9023" rx="1.54724" ry="2.78504" transform="rotate(-23.9118 50.7723 87.9023)" fill="#FFBEC8"/>
<ellipse cx="50.7723" cy="87.9023" rx="1.54724" ry="2.78504" transform="rotate(-23.9118 50.7723 87.9023)" fill="black" fill-opacity="0.6"/>
<ellipse cx="53.5433" cy="103.892" rx="1.54724" ry="2.78504" transform="rotate(26.5533 53.5433 103.892)" fill="#FFBEC8"/>
<ellipse cx="53.5433" cy="103.892" rx="1.54724" ry="2.78504" transform="rotate(26.5533 53.5433 103.892)" fill="black" fill-opacity="0.6"/>
<ellipse cx="110.944" cy="129.575" rx="1.54724" ry="2.78504" transform="rotate(96.5569 110.944 129.575)" fill="#FFBEC8"/>
<ellipse cx="110.944" cy="129.575" rx="1.54724" ry="2.78504" transform="rotate(96.5569 110.944 129.575)" fill="black" fill-opacity="0.6"/>
<ellipse cx="37.9437" cy="133.575" rx="1.54724" ry="2.78504" transform="rotate(96.5569 37.9437 133.575)" fill="#FFBEC8"/>
<ellipse cx="37.9437" cy="133.575" rx="1.54724" ry="2.78504" transform="rotate(96.5569 37.9437 133.575)" fill="black" fill-opacity="0.6"/>
<ellipse cx="61.9438" cy="135.575" rx="1.54724" ry="2.78504" transform="rotate(54.5996 61.9438 135.575)" fill="#FFBEC8"/>
<ellipse cx="61.9438" cy="135.575" rx="1.54724" ry="2.78504" transform="rotate(54.5996 61.9438 135.575)" fill="black" fill-opacity="0.6"/>
<ellipse cx="99.944" cy="68.5741" rx="1.54724" ry="2.78504" transform="rotate(-85.0825 99.944 68.5741)" fill="#FFBEC8"/>
<ellipse cx="99.944" cy="68.5741" rx="1.54724" ry="2.78504" transform="rotate(-85.0825 99.944 68.5741)" fill="black" fill-opacity="0.6"/>
<ellipse cx="88.9076" cy="56.4997" rx="1.54724" ry="2.78504" transform="rotate(5.85993 88.9076 56.4997)" fill="#FFBEC8"/>
<ellipse cx="88.9076" cy="56.4997" rx="1.54724" ry="2.78504" transform="rotate(5.85993 88.9076 56.4997)" fill="black" fill-opacity="0.6"/>
<ellipse cx="118.002" cy="126.704" rx="1.54724" ry="2.78504" transform="rotate(80.5005 118.002 126.704)" fill="#FFBEC8"/>
<ellipse cx="118.002" cy="126.704" rx="1.54724" ry="2.78504" transform="rotate(80.5005 118.002 126.704)" fill="black" fill-opacity="0.6"/>
<ellipse cx="62.4194" cy="125.869" rx="1.54724" ry="2.78504" transform="rotate(-83.6339 62.4194 125.869)" fill="#FFBEC8"/>
<ellipse cx="62.4194" cy="125.869" rx="1.54724" ry="2.78504" transform="rotate(-83.6339 62.4194 125.869)" fill="black" fill-opacity="0.6"/>
<ellipse cx="75.4196" cy="127.868" rx="1.54724" ry="2.78504" transform="rotate(32.8837 75.4196 127.868)" fill="#FFBEC8"/>
<ellipse cx="75.4196" cy="127.868" rx="1.54724" ry="2.78504" transform="rotate(32.8837 75.4196 127.868)" fill="black" fill-opacity="0.6"/>
<ellipse cx="68.8116" cy="116.898" rx="1.54724" ry="2.78504" transform="rotate(111.845 68.8116 116.898)" fill="#FFBEC8"/>
<ellipse cx="68.8116" cy="116.898" rx="1.54724" ry="2.78504" transform="rotate(111.845 68.8116 116.898)" fill="black" fill-opacity="0.6"/>
<ellipse cx="28.4822" cy="117.882" rx="1.54724" ry="2.78504" transform="rotate(68.5108 28.4822 117.882)" fill="#FFBEC8"/>
<ellipse cx="28.4822" cy="117.882" rx="1.54724" ry="2.78504" transform="rotate(68.5108 28.4822 117.882)" fill="black" fill-opacity="0.6"/>
<ellipse cx="21.1793" cy="127.311" rx="1.54724" ry="2.78504" transform="rotate(86.2427 21.1793 127.311)" fill="#FFBEC8"/>
<ellipse cx="21.1793" cy="127.311" rx="1.54724" ry="2.78504" transform="rotate(86.2427 21.1793 127.311)" fill="black" fill-opacity="0.6"/>
<ellipse cx="29.0624" cy="126.783" rx="1.54724" ry="2.78504" transform="rotate(135.052 29.0624 126.783)" fill="#FFBEC8"/>
<ellipse cx="29.0624" cy="126.783" rx="1.54724" ry="2.78504" transform="rotate(135.052 29.0624 126.783)" fill="black" fill-opacity="0.6"/>
<ellipse cx="6.06241" cy="131.783" rx="1.54724" ry="2.78504" transform="rotate(135.052 6.06241 131.783)" fill="#FFBEC8"/>
<ellipse cx="6.06241" cy="131.783" rx="1.54724" ry="2.78504" transform="rotate(135.052 6.06241 131.783)" fill="black" fill-opacity="0.6"/>
<ellipse cx="52.2717" cy="127.828" rx="1.54724" ry="2.78504" transform="rotate(-126.45 52.2717 127.828)" fill="#FFBEC8"/>
<ellipse cx="52.2717" cy="127.828" rx="1.54724" ry="2.78504" transform="rotate(-126.45 52.2717 127.828)" fill="black" fill-opacity="0.6"/>
<ellipse cx="30.0279" cy="103.814" rx="1.54724" ry="2.78504" transform="rotate(137.188 30.0279 103.814)" fill="#FFBEC8"/>
<ellipse cx="30.0279" cy="103.814" rx="1.54724" ry="2.78504" transform="rotate(137.188 30.0279 103.814)" fill="black" fill-opacity="0.6"/>
<ellipse cx="14.0279" cy="108.813" rx="1.54724" ry="2.78504" transform="rotate(76.2459 14.0279 108.813)" fill="#FFBEC8"/>
<ellipse cx="14.0279" cy="108.813" rx="1.54724" ry="2.78504" transform="rotate(76.2459 14.0279 108.813)" fill="black" fill-opacity="0.6"/>
<ellipse cx="50.0956" cy="124.746" rx="1.54724" ry="2.78504" transform="rotate(-47.2651 50.0956 124.746)" fill="#FFBEC8"/>
<ellipse cx="50.0956" cy="124.746" rx="1.54724" ry="2.78504" transform="rotate(-47.2651 50.0956 124.746)" fill="black" fill-opacity="0.6"/>
<ellipse cx="45.0956" cy="129.746" rx="1.54724" ry="2.78504" transform="rotate(-47.2651 45.0956 129.746)" fill="#FFBEC8"/>
<ellipse cx="45.0956" cy="129.746" rx="1.54724" ry="2.78504" transform="rotate(-47.2651 45.0956 129.746)" fill="black" fill-opacity="0.6"/>
<ellipse cx="70.1715" cy="104.573" rx="1.54724" ry="2.78504" transform="rotate(124.561 70.1715 104.573)" fill="#FFBEC8"/>
<ellipse cx="70.1715" cy="104.573" rx="1.54724" ry="2.78504" transform="rotate(124.561 70.1715 104.573)" fill="black" fill-opacity="0.6"/>
<ellipse cx="102.172" cy="90.5735" rx="1.54724" ry="2.78504" transform="rotate(-159.783 102.172 90.5735)" fill="#FFBEC8"/>
<ellipse cx="102.172" cy="90.5735" rx="1.54724" ry="2.78504" transform="rotate(-159.783 102.172 90.5735)" fill="black" fill-opacity="0.6"/>
<ellipse cx="99.8362" cy="84.8943" rx="1.54724" ry="2.78504" transform="rotate(146.156 99.8362 84.8943)" fill="#FFBEC8"/>
<ellipse cx="99.8362" cy="84.8943" rx="1.54724" ry="2.78504" transform="rotate(146.156 99.8362 84.8943)" fill="black" fill-opacity="0.6"/>
<path d="M197.565 34.5742H201.044V29.3712H197.565V34.5742Z" fill="#969696"/>
<path d="M197.565 34.5742H201.044V29.3712H197.565V34.5742Z" fill="black" fill-opacity="0.6"/>
<path d="M188.869 38.0498H209.739L206.261 58.8618H192.348L188.869 38.0498Z" fill="#636363"/>
<path d="M188.869 38.0498H209.739L206.261 58.8618H192.348L188.869 38.0498Z" fill="black" fill-opacity="0.6"/>
<path d="M197.565 32.8398H201.044L208 38.0429H190.609L197.565 32.8398Z" fill="#636363"/>
<path d="M197.565 32.8398H201.044L208 38.0429H190.609L197.565 32.8398Z" fill="black" fill-opacity="0.6"/>
<path d="M197.565 111.579H201.044V58.8553H197.565V111.579Z" fill="#636363"/>
<path d="M197.565 111.579H201.044V58.8553H197.565V111.579Z" fill="black" fill-opacity="0.6"/>
<path d="M194.087 123.719H204.522V118.516H194.087V123.719Z" fill="#969696"/>
<path d="M194.087 123.719H204.522V118.516H194.087V123.719Z" fill="black" fill-opacity="0.6"/>
<path d="M194.087 118.516H204.522L201.043 111.579H197.565L194.087 118.516Z" fill="#636363"/>
<path d="M194.087 118.516H204.522L201.043 111.579H197.565L194.087 118.516Z" fill="black" fill-opacity="0.6"/>
<path d="M190.922 39.7842L193.822 57.1275H204.786L207.687 39.7842H190.922Z" fill="#FFCA1E"/>
<path d="M188 39.7842H210.609V38.0498H188V39.7842Z" fill="#636363"/>
<path d="M188 39.7842H210.609V38.0498H188V39.7842Z" fill="black" fill-opacity="0.6"/>
<path d="M200.174 58.8618V38.0498H198.435V58.8618H200.174Z" fill="#636363"/>
<path d="M200.174 58.8618V38.0498H198.435V58.8618H200.174Z" fill="black" fill-opacity="0.6"/>
<path d="M86.8462 91.6924H80.4231V123.719H86.8462V91.6924Z" fill="#876B5C"/>
<path d="M86.8462 91.6924H80.4231V123.719H86.8462V91.6924Z" fill="black" fill-opacity="0.6"/>
<path d="M118.962 91.6924H112.539V123.719H118.962V91.6924Z" fill="#876B5C"/>
<path d="M118.962 91.6924H112.539V123.719H118.962V91.6924Z" fill="black" fill-opacity="0.6"/>
<path d="M125.385 94.8955H74V107.706H125.385V94.8955Z" fill="#834F34"/>
<path d="M125.385 94.8955H74V107.706H125.385V94.8955Z" fill="black" fill-opacity="0.6"/>
<path d="M125.385 110.908H74V117.314H125.385V110.908Z" fill="#834F34"/>
<path d="M125.385 110.908H74V117.314H125.385V110.908Z" fill="black" fill-opacity="0.6"/>
<path d="M170.346 123.719H176.77V91.6919H170.346V123.719Z" fill="#876B5C"/>
<path d="M170.346 123.719H176.77V91.6919H170.346V123.719Z" fill="black" fill-opacity="0.6"/>
<path d="M138.231 123.719H144.654V91.6919H138.231V123.719Z" fill="#876B5C"/>
<path d="M138.231 123.719H144.654V91.6919H138.231V123.719Z" fill="black" fill-opacity="0.6"/>
<path d="M131.808 107.706H183.193V94.8953H131.808V107.706Z" fill="#834F34"/>
<path d="M131.808 107.706H183.193V94.8953H131.808V107.706Z" fill="black" fill-opacity="0.6"/>
<path d="M131.808 117.313H183.193V110.908H131.808V117.313Z" fill="#834F34"/>
<path d="M131.808 117.313H183.193V110.908H131.808V117.313Z" fill="black" fill-opacity="0.6"/>
<ellipse cx="94.0824" cy="131.911" rx="1.54724" ry="2.78504" transform="rotate(117.126 94.0824 131.911)" fill="#FFBEC8"/>
<ellipse cx="94.0824" cy="131.911" rx="1.54724" ry="2.78504" transform="rotate(117.126 94.0824 131.911)" fill="black" fill-opacity="0.6"/>
<ellipse cx="115.162" cy="83.2003" rx="1.54724" ry="2.78504" transform="rotate(-124.653 115.162 83.2003)" fill="#FFBEC8"/>
<ellipse cx="115.162" cy="83.2003" rx="1.54724" ry="2.78504" transform="rotate(-124.653 115.162 83.2003)" fill="black" fill-opacity="0.6"/>
<ellipse cx="150.162" cy="131.2" rx="1.54724" ry="2.78504" transform="rotate(112.085 150.162 131.2)" fill="#FFBEC8"/>
<ellipse cx="150.162" cy="131.2" rx="1.54724" ry="2.78504" transform="rotate(112.085 150.162 131.2)" fill="black" fill-opacity="0.6"/>
<ellipse cx="127.936" cy="101.866" rx="1.54724" ry="2.78504" transform="rotate(-141.881 127.936 101.866)" fill="#FFBEC8"/>
<ellipse cx="127.936" cy="101.866" rx="1.54724" ry="2.78504" transform="rotate(-141.881 127.936 101.866)" fill="black" fill-opacity="0.6"/>
<g clip-path="url(#clip0_3619_324299)">
<path d="M237.4 88.7188H216.6L216 97.7188H238L237.4 88.7188Z" fill="#FFCA1E"/>
<path d="M237.4 88.7188H216.6L216 97.7188H238L237.4 88.7188Z" fill="black" fill-opacity="0.6"/>
<path d="M235.528 90.7188L235.86 95.7188H218.136L218.468 90.7188H235.524" fill="#636363"/>
<path d="M235.528 90.7188L235.86 95.7188H218.136L218.468 90.7188H235.524" fill="black" fill-opacity="0.6"/>
<path d="M238 97.7188H216L216.5 99.7188H237.5L238 97.7188Z" fill="#DFB11A"/>
<path d="M238 97.7188H216L216.5 99.7188H237.5L238 97.7188Z" fill="black" fill-opacity="0.6"/>
<path d="M237.5 99.7188H216.5V121.719H237.5V99.7188Z" fill="#FFCA1E"/>
<path d="M237.5 99.7188H216.5V121.719H237.5V99.7188Z" fill="black" fill-opacity="0.6"/>
<path d="M237.5 121.719H216.5V123.719H237.5V121.719Z" fill="#DFB11A"/>
<path d="M237.5 121.719H216.5V123.719H237.5V121.719Z" fill="black" fill-opacity="0.6"/>
</g>
<defs>
<clipPath id="clip0_3619_324299">
<rect width="22" height="35" fill="white" transform="translate(216 88.7188)"/>
</clipPath>
</defs>
</svg>
