<svg width="424" height="250" viewBox="0 0 424 250" fill="none" xmlns="http://www.w3.org/2000/svg">
<g clip-path="url(#clip0_4757_51352)">
<g clip-path="url(#clip1_4757_51352)">
<path d="M220.175 249.588V292.514C220.175 292.514 202.612 291.353 203.748 303.543C203.748 303.543 202.087 318.664 225.854 318.026C225.854 318.026 244.35 317.532 244.67 307.171V252.258L220.175 249.617V249.588Z" fill="#3E2B2F"/>
<path d="M224.369 320C215.718 320 209.398 317.881 205.524 313.73C201.621 309.522 201.68 304.675 201.738 303.543C201.447 300.147 202.408 297.332 204.534 295.155C208.291 291.295 214.816 290.627 218.165 290.54V247.411L246.621 250.459V307.171C246.243 319.303 226.699 319.971 225.883 320C225.359 320 224.835 320 224.34 320H224.369ZM218.922 294.459C215.893 294.459 210.155 295.039 207.388 297.912C206.049 299.306 205.495 301.076 205.728 303.369V303.572V303.775C205.728 303.92 205.379 307.81 208.524 311.147C211.816 314.63 217.612 316.313 225.825 316.081C226 316.081 242.456 315.385 242.718 307.142V254.058L222.184 251.852V294.691L220.087 294.546C219.796 294.546 219.417 294.517 218.981 294.517L218.922 294.459Z" fill="black"/>
<path d="M280.233 249.588V292.514C280.233 292.514 262.67 291.353 263.806 303.543C263.806 303.543 262.146 318.664 285.913 318.026C285.913 318.026 304.408 317.532 304.728 307.171V252.258L280.233 249.617V249.588Z" fill="#3E2B2F"/>
<path d="M284.456 320C275.806 320 269.485 317.881 265.612 313.73C261.709 309.522 261.767 304.675 261.825 303.543C261.534 300.147 262.495 297.332 264.621 295.155C268.379 291.295 274.903 290.627 278.252 290.54V247.411L306.709 250.459V307.171C306.33 319.303 286.786 319.971 285.971 320C285.447 320 284.922 320 284.427 320H284.456ZM279.01 294.459C275.981 294.459 270.243 295.039 267.476 297.912C266.136 299.306 265.583 301.076 265.816 303.369V303.572V303.775C265.816 303.92 265.466 307.81 268.612 311.147C271.903 314.63 277.699 316.313 285.913 316.081C286.087 316.081 302.544 315.385 302.806 307.142V254.058L282.272 251.852V294.691L280.175 294.546C279.883 294.546 279.505 294.517 279.068 294.517L279.01 294.459Z" fill="black"/>
<path d="M261.33 70.831C261.33 70.831 338.223 69.9312 354.417 120.81C354.417 120.81 372.563 180.657 337.583 229.359C337.583 229.359 309.476 268.018 261.68 266.857H262.35C214 267.438 186.447 229.359 186.447 229.359C151.437 180.686 169.583 120.81 169.583 120.81C184.262 68.451 262.67 70.831 262.67 70.831" fill="#FFD200"/>
<path d="M263.748 268.86C263.107 268.86 262.495 268.86 261.854 268.86C261.65 268.86 261.447 268.86 261.243 268.86C213.097 268.86 185.107 230.926 184.816 230.549C149.66 181.615 167.515 120.868 167.689 120.259C182.602 67.0871 261.913 68.8285 262.728 68.8576C273.359 69.0898 341.107 72.3985 356.311 120.23C356.515 120.868 374.34 181.615 339.214 230.52C338.922 230.926 310.757 268.86 263.748 268.86ZM262.32 264.884C308.194 265.697 335.689 228.575 335.981 228.198C370 180.86 352.699 121.971 352.524 121.391C336.971 72.4855 262.146 72.7758 261.359 72.8048C251.398 72.8048 184.583 74.6623 171.476 121.362C171.272 122 154.029 180.918 188.019 228.227C188.282 228.604 215.369 265.087 261.65 264.913H262.32V264.884Z" fill="black"/>
<path d="M224.223 113.409C224.019 113.409 223.816 113.409 223.612 113.322C222.301 112.974 221.485 111.639 221.835 110.333C222.971 105.892 228.01 97.4461 239.049 97.301C239.427 97.272 249.883 96.6915 256.262 104.064C259.175 99.3907 265.524 92.5121 277.757 92.8604C278.223 92.8604 288.709 93.3248 295.612 101.829C296.485 102.903 296.311 104.441 295.233 105.312C294.155 106.182 292.612 106.008 291.738 104.934C286.291 98.2298 277.641 97.7944 277.553 97.7944C277.291 97.7944 277.029 97.7944 276.796 97.7944C262.932 97.7944 259.058 109.23 258.883 109.752C258.563 110.71 257.718 111.378 256.699 111.465C255.709 111.552 254.748 111 254.311 110.1C250.146 101.655 239.311 102.264 239.194 102.264C229.029 102.409 226.612 111.494 226.583 111.581C226.291 112.684 225.301 113.438 224.194 113.438L224.223 113.409Z" fill="black"/>
<path d="M256.728 202.599C229.495 202.599 220.757 185.388 220.408 184.633C219.796 183.414 220.32 181.934 221.544 181.324C222.767 180.744 224.252 181.237 224.835 182.456C225.184 183.182 233.282 198.71 259.524 197.607C259.932 197.607 285.476 198.013 298.204 179.757C298.99 178.654 300.534 178.364 301.641 179.148C302.777 179.931 303.039 181.469 302.252 182.572C287.951 203.063 260.689 202.57 259.524 202.541C258.563 202.57 257.602 202.599 256.67 202.599H256.728Z" fill="black"/>
<path d="M260.777 86.4166C285.534 86.4166 310.786 95.0366 310.786 95.0366C344.951 103.657 347.922 87.1422 347.922 87.1422C351.621 75.7939 329.369 66.4192 329.369 66.4192C309.825 58.5247 301.146 26.2213 301.146 26.2213C293.194 0.303112 259.728 2.01552 259.728 2.01552H261.796C261.796 2.01552 230.078 0.332136 222.155 26.2213C222.155 26.2213 213.505 58.5247 193.932 66.4192C193.932 66.4192 171.65 75.7939 175.379 87.1422C175.379 87.1422 178.35 103.657 212.515 95.0366C212.515 95.0366 237.767 86.4166 262.524 86.4166H260.806H260.777Z" fill="black"/>
<path d="M328.291 98.5488C323.165 98.5488 317.252 97.7071 310.524 95.9947C310.204 95.8786 285.65 87.6069 261.621 87.4037C237.592 87.6069 213.039 95.9077 212.806 95.9947C198.039 99.7388 187.087 99.3905 180.243 94.9789C175.233 91.7573 174.417 87.5198 174.388 87.3456C170.485 75.4169 192.592 65.9261 193.553 65.5488C212.456 57.9156 221.107 26.3087 221.194 25.9894C228.068 3.49604 252.534 1.20317 259.786 1C259.961 1 260.34 1 260.835 1C261.039 1 261.214 1 261.359 1C268.379 1.08707 295.029 3.00264 302.049 25.9314C302.136 26.2797 310.816 57.8865 329.689 65.5198C330.65 65.9261 352.786 75.3879 348.825 87.4617C348.825 87.5198 348.01 91.7282 343 94.9499C339.272 97.3298 334.35 98.5488 328.291 98.5488ZM262.495 85.4301C286.583 85.8074 310.845 94.0211 311.078 94.1082C328.553 98.5198 337.466 96.1398 341.864 93.3536C346.175 90.6253 346.903 87.1135 346.932 86.9683C350.34 76.4908 329.165 67.4354 328.961 67.3483C309.184 59.3668 300.534 27.8179 300.155 26.4828C293.66 5.26649 269.049 3.14776 261.796 2.97361H259.728C252.738 3.14776 229.553 5.38259 223.087 26.4828C222.738 27.7889 214.087 59.3377 194.282 67.3193C194.078 67.4063 172.903 76.4617 176.282 86.8232C176.34 87.0844 177.039 90.5673 181.379 93.3245C185.777 96.1108 194.689 98.4908 212.223 94.0792C212.398 94.0211 236.66 85.8074 260.748 85.4301H262.466H262.495Z" fill="black"/>
<path d="M278.282 165.13C290.989 165.13 301.291 153.668 301.291 139.531C301.291 125.393 290.989 113.932 278.282 113.932C265.574 113.932 255.272 125.393 255.272 139.531C255.272 153.668 265.574 165.13 278.282 165.13Z" fill="white"/>
<path d="M278.282 167.103C264.505 167.103 253.291 154.739 253.291 139.531C253.291 124.322 264.505 111.958 278.282 111.958C292.058 111.958 303.272 124.322 303.272 139.531C303.272 154.739 292.058 167.103 278.282 167.103ZM278.282 115.905C266.689 115.905 257.252 126.499 257.252 139.531C257.252 152.562 266.689 163.156 278.282 163.156C289.874 163.156 299.311 152.562 299.311 139.531C299.311 126.499 289.874 115.905 278.282 115.905Z" fill="black"/>
<path d="M241.291 164.404C253.082 164.404 262.641 153.774 262.641 140.662C262.641 127.55 253.082 116.921 241.291 116.921C229.5 116.921 219.942 127.55 219.942 140.662C219.942 153.774 229.5 164.404 241.291 164.404Z" fill="white"/>
<path d="M241.291 166.377C228.417 166.377 217.961 154.855 217.961 140.662C217.961 126.47 228.417 114.947 241.291 114.947C254.165 114.947 264.621 126.47 264.621 140.662C264.621 154.855 254.165 166.377 241.291 166.377ZM241.291 118.894C230.602 118.894 221.922 128.646 221.922 140.662C221.922 152.678 230.602 162.43 241.291 162.43C251.981 162.43 260.66 152.678 260.66 140.662C260.66 128.646 251.981 118.894 241.291 118.894Z" fill="black"/>
<path d="M258.388 190.322C269.102 190.322 277.786 182.811 277.786 173.546C277.786 164.281 269.102 156.771 258.388 156.771C247.675 156.771 238.99 164.281 238.99 173.546C238.99 182.811 247.675 190.322 258.388 190.322Z" fill="#F5333F"/>
<path d="M258.388 192.296C246.592 192.296 237.01 183.879 237.01 173.546C237.01 163.214 246.592 154.797 258.388 154.797C270.184 154.797 279.767 163.214 279.767 173.546C279.767 183.879 270.184 192.296 258.388 192.296ZM258.388 158.744C248.777 158.744 240.971 165.391 240.971 173.546C240.971 181.702 248.777 188.348 258.388 188.348C268 188.348 275.806 181.702 275.806 173.546C275.806 165.391 268 158.744 258.388 158.744Z" fill="black"/>
<path d="M260.107 48.1346C268.552 48.1346 275.398 41.9753 275.398 34.3774C275.398 26.7794 268.552 20.6201 260.107 20.6201C251.662 20.6201 244.816 26.7794 244.816 34.3774C244.816 41.9753 251.662 48.1346 260.107 48.1346Z" fill="#BBBBBB"/>
<path d="M260.456 41.6328H259.029C255.426 41.6328 252.505 44.5436 252.505 48.1341V48.3663C252.505 51.9569 255.426 54.8676 259.029 54.8676H260.456C264.06 54.8676 266.981 51.9569 266.981 48.3663V48.1341C266.981 44.5436 264.06 41.6328 260.456 41.6328Z" fill="#BBBBBB"/>
<path d="M255.447 30.4014H255.388C254.327 30.4014 253.466 31.259 253.466 32.3169V36.1771C253.466 37.235 254.327 38.0927 255.388 38.0927H255.447C256.508 38.0927 257.369 37.235 257.369 36.1771V32.3169C257.369 31.259 256.508 30.4014 255.447 30.4014Z" fill="black"/>
<path d="M255.417 38.1792C254.282 38.1792 253.379 37.2794 253.379 36.1475V32.3744C253.379 31.2425 254.282 30.3428 255.417 30.3428C256.553 30.3428 257.456 31.2425 257.456 32.3744V36.1475C257.456 37.2794 256.553 38.1792 255.417 38.1792ZM255.417 30.4879C254.398 30.4879 253.553 31.3296 253.553 32.3454V36.1185C253.553 37.1343 254.398 37.976 255.417 37.976C256.437 37.976 257.282 37.1343 257.282 36.1185V32.3454C257.282 31.3296 256.437 30.4879 255.417 30.4879Z" fill="#231815"/>
<path d="M263.864 30.4014H263.806C262.744 30.4014 261.883 31.259 261.883 32.3169V36.1771C261.883 37.235 262.744 38.0927 263.806 38.0927H263.864C264.926 38.0927 265.786 37.235 265.786 36.1771V32.3169C265.786 31.259 264.926 30.4014 263.864 30.4014Z" fill="black"/>
<path d="M263.835 38.1792C262.699 38.1792 261.796 37.2794 261.796 36.1475V32.3744C261.796 31.2425 262.699 30.3428 263.835 30.3428C264.971 30.3428 265.874 31.2425 265.874 32.3744V36.1475C265.874 37.2794 264.971 38.1792 263.835 38.1792ZM263.835 30.4879C262.816 30.4879 261.971 31.3296 261.971 32.3454V36.1185C261.971 37.1343 262.816 37.976 263.835 37.976C264.854 37.976 265.699 37.1343 265.699 36.1185V32.3454C265.699 31.3296 264.854 30.4879 263.835 30.4879Z" fill="#231815"/>
<path d="M279.126 70.3961C278.893 70.3961 278.66 70.3671 278.427 70.28L238.932 56.6389C237.825 56.2616 237.243 55.0426 237.621 53.9397C238 52.8368 239.223 52.2563 240.33 52.6336L279.825 66.2748C280.932 66.6521 281.515 67.8711 281.136 68.974C280.816 69.8447 280 70.3961 279.126 70.3961Z" fill="#BBBBBB"/>
<path d="M239.398 69.0603C238.466 69.0603 237.592 68.4508 237.33 67.493C237.01 66.3611 237.68 65.2002 238.816 64.8809L279.126 53.9099C280.262 53.5907 281.427 54.2582 281.748 55.3901C282.068 56.5221 281.398 57.683 280.262 58.0023L239.951 68.9732C239.777 69.0313 239.573 69.0603 239.398 69.0603Z" fill="#BBBBBB"/>
<path d="M240.942 153.2C247.119 153.2 252.126 147.21 252.126 139.82C252.126 132.431 247.119 126.44 240.942 126.44C234.765 126.44 229.757 132.431 229.757 139.82C229.757 147.21 234.765 153.2 240.942 153.2Z" fill="black"/>
<path d="M278.573 153.2C284.75 153.2 289.757 147.21 289.757 139.82C289.757 132.431 284.75 126.44 278.573 126.44C272.396 126.44 267.388 132.431 267.388 139.82C267.388 147.21 272.396 153.2 278.573 153.2Z" fill="black"/>
</g>
<path d="M332.41 162.968L347.303 182.388C347.303 182.388 370.08 172.832 380.993 159.008C391.907 145.184 367.512 135.78 367.512 135.78C367.512 135.78 365.124 148.378 332.41 162.943V162.968Z" fill="#FFD200"/>
<mask id="path-28-outside-1_4757_51352" maskUnits="userSpaceOnUse" x="328.726" y="124.35" width="65" height="60" fill="black">
<rect fill="white" x="328.726" y="124.35" width="65" height="60"/>
<path fill-rule="evenodd" clip-rule="evenodd" d="M332.05 163.582C332.05 163.582 332.282 163.607 332.384 163.556C333.232 163.352 353.158 158.267 366.126 139.128L369.772 132.893L369.775 132.887C369.892 132.654 372.032 128.377 374.651 129.086C375.691 129.368 376.258 129.839 376.562 130.31C376.561 130.42 376.574 130.532 376.603 130.644C376.655 130.853 376.751 131.038 376.879 131.191C376.916 131.498 376.876 131.729 376.859 131.794V131.999C376.859 132.05 376.525 137.109 372.211 142.118C371.724 142.68 371.801 143.497 372.366 143.983C372.93 144.443 373.752 144.392 374.24 143.83C378.862 138.438 379.453 133.072 379.504 132.229C379.542 132.019 379.566 131.78 379.569 131.523C380.245 131.55 381.064 131.696 381.764 132.152C382.611 132.714 383.176 133.66 383.433 134.988C384.38 139.98 379.28 145.049 379.197 145.132L379.196 145.133C378.682 145.644 378.657 146.487 379.196 146.998C379.453 147.254 379.787 147.381 380.146 147.381L380.12 147.432C380.454 147.432 380.788 147.305 381.045 147.049L381.05 147.044C381.319 146.776 385.493 142.627 386.117 137.552C386.876 137.465 387.912 137.482 388.517 137.978C389.082 138.438 389.288 139.332 389.159 140.661C388.671 145.72 380.043 163.939 347.894 180.625C347.252 180.957 346.995 181.749 347.329 182.414C347.56 182.874 347.997 183.104 348.485 183.104C348.69 183.104 348.895 183.053 349.101 182.95C382.483 165.651 391.239 146.742 391.778 140.916C391.984 138.668 391.445 137.007 390.186 135.959C388.917 134.912 387.274 134.802 386.091 134.903C386.072 134.778 386.051 134.653 386.026 134.528C385.641 132.459 384.666 130.925 383.176 129.954C381.676 128.991 379.977 128.859 378.847 128.91C378.232 127.917 377.156 127.01 375.37 126.53C370.602 125.25 367.668 131.171 367.445 131.622L367.435 131.641L363.892 137.697C351.515 155.967 331.948 160.975 331.742 161.001C331.023 161.18 330.587 161.895 330.766 162.585C330.921 163.173 331.46 163.582 332.05 163.582Z"/>
</mask>
<path fill-rule="evenodd" clip-rule="evenodd" d="M332.05 163.582C332.05 163.582 332.282 163.607 332.384 163.556C333.232 163.352 353.158 158.267 366.126 139.128L369.772 132.893L369.775 132.887C369.892 132.654 372.032 128.377 374.651 129.086C375.691 129.368 376.258 129.839 376.562 130.31C376.561 130.42 376.574 130.532 376.603 130.644C376.655 130.853 376.751 131.038 376.879 131.191C376.916 131.498 376.876 131.729 376.859 131.794V131.999C376.859 132.05 376.525 137.109 372.211 142.118C371.724 142.68 371.801 143.497 372.366 143.983C372.93 144.443 373.752 144.392 374.24 143.83C378.862 138.438 379.453 133.072 379.504 132.229C379.542 132.019 379.566 131.78 379.569 131.523C380.245 131.55 381.064 131.696 381.764 132.152C382.611 132.714 383.176 133.66 383.433 134.988C384.38 139.98 379.28 145.049 379.197 145.132L379.196 145.133C378.682 145.644 378.657 146.487 379.196 146.998C379.453 147.254 379.787 147.381 380.146 147.381L380.12 147.432C380.454 147.432 380.788 147.305 381.045 147.049L381.05 147.044C381.319 146.776 385.493 142.627 386.117 137.552C386.876 137.465 387.912 137.482 388.517 137.978C389.082 138.438 389.288 139.332 389.159 140.661C388.671 145.72 380.043 163.939 347.894 180.625C347.252 180.957 346.995 181.749 347.329 182.414C347.56 182.874 347.997 183.104 348.485 183.104C348.69 183.104 348.895 183.053 349.101 182.95C382.483 165.651 391.239 146.742 391.778 140.916C391.984 138.668 391.445 137.007 390.186 135.959C388.917 134.912 387.274 134.802 386.091 134.903C386.072 134.778 386.051 134.653 386.026 134.528C385.641 132.459 384.666 130.925 383.176 129.954C381.676 128.991 379.977 128.859 378.847 128.91C378.232 127.917 377.156 127.01 375.37 126.53C370.602 125.25 367.668 131.171 367.445 131.622L367.435 131.641L363.892 137.697C351.515 155.967 331.948 160.975 331.742 161.001C331.023 161.18 330.587 161.895 330.766 162.585C330.921 163.173 331.46 163.582 332.05 163.582Z" fill="black"/>
<path d="M332.05 163.582L332.16 162.588L332.106 162.582H332.05V163.582ZM332.384 163.556L332.15 162.584L332.04 162.611L331.939 162.661L332.384 163.556ZM366.126 139.128L366.954 139.689L366.972 139.661L366.989 139.633L366.126 139.128ZM369.772 132.893L370.635 133.398L370.652 133.37L370.666 133.341L369.772 132.893ZM369.775 132.887L370.669 133.335L370.669 133.335L369.775 132.887ZM374.651 129.086L374.913 128.121L374.912 128.12L374.651 129.086ZM376.562 130.31L377.562 130.319L377.565 130.02L377.403 129.769L376.562 130.31ZM376.603 130.644L375.633 130.888L375.633 130.888L376.603 130.644ZM376.879 131.191L377.872 131.072L377.837 130.777L377.646 130.549L376.879 131.191ZM376.859 131.794L375.889 131.551L375.859 131.671V131.794H376.859ZM372.211 142.118L372.967 142.773L372.969 142.77L372.211 142.118ZM372.366 143.983L371.714 144.741L371.724 144.75L371.734 144.758L372.366 143.983ZM374.24 143.83L374.995 144.485L374.999 144.48L374.24 143.83ZM379.504 132.229L378.52 132.05L378.51 132.109L378.506 132.168L379.504 132.229ZM379.569 131.523L379.608 130.524L378.58 130.484L378.569 131.512L379.569 131.523ZM381.764 132.152L382.317 131.319L382.31 131.314L381.764 132.152ZM383.433 134.988L384.415 134.802L384.415 134.799L383.433 134.988ZM379.197 145.132L378.492 144.423L378.49 144.425L379.197 145.132ZM379.196 145.133L379.901 145.842L379.903 145.84L379.196 145.133ZM379.196 146.998L379.901 146.289L379.893 146.281L379.884 146.272L379.196 146.998ZM380.146 147.381L381.04 147.83L381.768 146.381H380.146V147.381ZM380.12 147.432L379.227 146.983L378.499 148.432H380.12V147.432ZM381.045 147.049L380.34 146.34L380.34 146.34L381.045 147.049ZM381.05 147.044L381.755 147.753L381.755 147.753L381.05 147.044ZM386.117 137.552L386.002 136.558L385.22 136.648L385.124 137.43L386.117 137.552ZM388.517 137.978L387.883 138.751L387.886 138.753L388.517 137.978ZM389.159 140.661L388.164 140.565L388.164 140.565L389.159 140.661ZM347.894 180.625L348.354 181.513L348.355 181.513L347.894 180.625ZM347.329 182.414L346.436 182.863L346.436 182.863L347.329 182.414ZM349.101 182.95L349.546 183.846L349.554 183.842L349.561 183.838L349.101 182.95ZM391.778 140.916L392.774 141.009L392.774 141.007L391.778 140.916ZM390.186 135.959L390.826 135.191L390.823 135.188L390.186 135.959ZM386.091 134.903L385.102 135.051L385.241 135.979L386.175 135.899L386.091 134.903ZM386.026 134.528L385.043 134.711L385.045 134.718L386.026 134.528ZM383.176 129.954L383.722 129.117L383.717 129.113L383.176 129.954ZM378.847 128.91L377.997 129.436L378.306 129.935L378.892 129.909L378.847 128.91ZM375.37 126.53L375.111 127.496L375.111 127.496L375.37 126.53ZM367.445 131.622L368.34 132.067L368.341 132.066L367.445 131.622ZM367.435 131.641L368.298 132.146L368.316 132.117L368.331 132.086L367.435 131.641ZM363.892 137.697L364.72 138.258L364.738 138.23L364.755 138.202L363.892 137.697ZM331.742 161.001L331.619 160.009L331.559 160.016L331.501 160.031L331.742 161.001ZM330.766 162.585L329.799 162.837L329.799 162.839L330.766 162.585ZM332.05 163.582C331.94 164.576 331.941 164.576 331.941 164.576C331.941 164.576 331.941 164.576 331.941 164.576C331.941 164.576 331.941 164.576 331.942 164.576C331.942 164.576 331.942 164.576 331.943 164.576C331.944 164.576 331.944 164.576 331.945 164.576C331.947 164.576 331.949 164.577 331.952 164.577C331.957 164.577 331.962 164.578 331.969 164.579C331.982 164.58 331.999 164.581 332.02 164.583C332.059 164.585 332.115 164.588 332.179 164.588C332.24 164.588 332.326 164.586 332.42 164.573C332.501 164.562 332.66 164.536 332.83 164.452L331.939 162.661C332.057 162.602 332.149 162.592 332.157 162.59C332.179 162.588 332.188 162.588 332.179 162.588C332.172 162.588 332.164 162.588 332.157 162.587C332.154 162.587 332.152 162.587 332.152 162.587C332.152 162.587 332.153 162.587 332.154 162.587C332.155 162.587 332.156 162.587 332.157 162.587C332.157 162.587 332.158 162.588 332.158 162.588C332.159 162.588 332.159 162.588 332.159 162.588C332.159 162.588 332.16 162.588 332.16 162.588C332.16 162.588 332.16 162.588 332.16 162.588C332.16 162.588 332.16 162.588 332.05 163.582ZM332.619 164.528C333.546 164.305 353.775 159.14 366.954 139.689L365.298 138.567C352.542 157.394 332.917 162.399 332.15 162.584L332.619 164.528ZM366.989 139.633L370.635 133.398L368.909 132.388L365.262 138.623L366.989 139.633ZM370.666 133.341L370.669 133.335L368.881 132.439L368.878 132.445L370.666 133.341ZM370.669 133.335C370.719 133.235 371.238 132.2 372.03 131.289C372.887 130.303 373.699 129.864 374.39 130.051L374.912 128.12C372.984 127.599 371.417 128.945 370.52 129.978C369.557 131.086 368.947 132.306 368.881 132.44L370.669 133.335ZM374.389 130.051C375.236 130.281 375.575 130.625 375.721 130.852L377.403 129.769C376.942 129.052 376.146 128.455 374.913 128.121L374.389 130.051ZM375.562 130.301C375.56 130.496 375.584 130.693 375.633 130.888L377.572 130.401C377.565 130.37 377.562 130.343 377.562 130.319L375.562 130.301ZM375.633 130.888C375.722 131.243 375.888 131.564 376.113 131.833L377.646 130.549C377.615 130.512 377.588 130.463 377.572 130.401L375.633 130.888ZM375.886 131.31C375.896 131.392 375.895 131.462 375.892 131.511C375.89 131.536 375.888 131.553 375.886 131.563C375.884 131.575 375.885 131.57 375.889 131.551L377.829 132.038C377.872 131.866 377.925 131.511 377.872 131.072L375.886 131.31ZM375.859 131.794V131.999H377.859V131.794H375.859ZM375.859 131.999C375.859 131.868 375.578 136.677 371.454 141.465L372.969 142.77C377.473 137.541 377.859 132.232 377.859 131.999H375.859ZM371.456 141.462C370.589 142.461 370.747 143.911 371.714 144.741L373.017 143.224C372.932 143.151 372.896 143.066 372.89 142.993C372.884 142.923 372.903 142.846 372.967 142.773L371.456 141.462ZM371.734 144.758C372.702 145.547 374.141 145.47 374.995 144.485L373.485 143.174C373.364 143.314 373.159 143.339 372.997 143.207L371.734 144.758ZM374.999 144.48C379.807 138.872 380.443 133.271 380.502 132.289L378.506 132.168C378.463 132.873 377.917 138.004 373.481 143.179L374.999 144.48ZM380.488 132.407C380.537 132.139 380.565 131.845 380.569 131.534L378.569 131.512C378.567 131.716 378.548 131.898 378.52 132.05L380.488 132.407ZM379.529 132.522C380.112 132.545 380.728 132.671 381.218 132.99L382.31 131.314C381.4 130.721 380.378 130.554 379.608 130.524L379.529 132.522ZM381.211 132.985C381.774 133.359 382.229 134.031 382.451 135.178L384.415 134.799C384.123 133.289 383.449 132.07 382.317 131.319L381.211 132.985ZM382.45 135.175C382.854 137.3 381.974 139.545 380.849 141.378C379.742 143.182 378.509 144.405 378.492 144.423L379.902 145.841C379.968 145.775 381.327 144.423 382.554 142.424C383.762 140.454 384.959 137.669 384.415 134.802L382.45 135.175ZM378.49 144.425L378.489 144.426L379.903 145.84L379.904 145.839L378.49 144.425ZM378.491 144.424C377.607 145.303 377.53 146.797 378.508 147.724L379.884 146.272C379.784 146.177 379.758 145.985 379.901 145.842L378.491 144.424ZM378.491 147.707C378.948 148.162 379.541 148.381 380.146 148.381V146.381C380.032 146.381 379.958 146.346 379.901 146.289L378.491 147.707ZM379.253 146.932L379.227 146.983L381.014 147.882L381.04 147.83L379.253 146.932ZM380.12 148.432C380.71 148.432 381.3 148.206 381.75 147.758L380.34 146.34C380.276 146.404 380.198 146.432 380.12 146.432V148.432ZM381.75 147.758L381.755 147.753L380.345 146.335L380.34 146.34L381.75 147.758ZM381.755 147.753C381.911 147.598 383.072 146.442 384.279 144.662C385.477 142.892 386.77 140.433 387.109 137.674L385.124 137.43C384.84 139.746 383.734 141.899 382.623 143.54C381.519 145.17 380.458 146.222 380.345 146.335L381.755 147.753ZM386.231 138.545C386.559 138.508 386.922 138.496 387.247 138.538C387.584 138.582 387.785 138.67 387.883 138.751L389.151 137.204C388.645 136.79 388.025 136.622 387.503 136.554C386.968 136.486 386.433 136.509 386.002 136.558L386.231 138.545ZM387.886 138.753C388.03 138.871 388.287 139.288 388.164 140.565L390.155 140.757C390.288 139.377 390.134 138.005 389.149 137.202L387.886 138.753ZM388.164 140.565C387.948 142.8 385.817 148.429 379.641 155.632C373.497 162.796 363.408 171.446 347.433 179.738L348.355 181.513C364.529 173.118 374.829 164.316 381.159 156.934C387.455 149.591 389.882 143.581 390.155 140.757L388.164 140.565ZM347.434 179.737C346.297 180.326 345.861 181.718 346.436 182.863L348.223 181.965C348.13 181.78 348.207 181.589 348.354 181.513L347.434 179.737ZM346.436 182.863C346.856 183.7 347.665 184.104 348.485 184.104V182.104C348.398 182.104 348.342 182.084 348.311 182.065C348.283 182.049 348.252 182.023 348.223 181.965L346.436 182.863ZM348.485 184.104C348.862 184.104 349.219 184.009 349.546 183.846L348.655 182.055C348.572 182.097 348.518 182.104 348.485 182.104V184.104ZM349.561 183.838C366.352 175.137 376.995 166.007 383.52 158.276C390.018 150.576 392.478 144.204 392.774 141.009L390.783 140.824C390.539 143.454 388.352 149.45 381.991 156.986C375.658 164.491 365.232 173.465 348.641 182.063L349.561 183.838ZM392.774 141.007C392.998 138.562 392.424 136.521 390.826 135.191L389.547 136.728C390.465 137.493 390.97 138.773 390.783 140.825L392.774 141.007ZM390.823 135.188C389.253 133.892 387.285 133.798 386.006 133.906L386.175 135.899C387.263 135.807 388.581 135.931 389.55 136.73L390.823 135.188ZM387.08 134.754C387.059 134.616 387.035 134.478 387.008 134.339L385.045 134.718C385.066 134.829 385.085 134.94 385.102 135.051L387.08 134.754ZM387.01 134.345C386.582 132.049 385.475 130.259 383.722 129.117L382.63 130.792C383.856 131.592 384.7 132.868 385.043 134.711L387.01 134.345ZM383.717 129.113C381.969 127.99 380.03 127.856 378.802 127.911L378.892 129.909C379.924 129.862 381.384 129.991 382.636 130.796L383.717 129.113ZM379.697 128.383C378.938 127.157 377.641 126.105 375.629 125.565L375.111 127.496C376.671 127.915 377.526 128.677 377.997 129.436L379.697 128.383ZM375.629 125.565C372.74 124.789 370.461 126.234 368.991 127.725C367.518 129.219 366.671 130.931 366.549 131.178L368.341 132.066C368.442 131.862 369.174 130.388 370.415 129.129C371.66 127.867 373.232 126.992 375.111 127.496L375.629 125.565ZM366.549 131.177L366.54 131.196L368.331 132.086L368.34 132.067L366.549 131.177ZM366.572 131.136L363.029 137.192L364.755 138.202L368.298 132.146L366.572 131.136ZM363.064 137.136C356.989 146.104 349.141 151.827 342.772 155.314C339.59 157.056 336.784 158.236 334.766 158.98C333.757 159.352 332.946 159.615 332.386 159.784C332.105 159.869 331.888 159.931 331.741 159.97C331.667 159.99 331.612 160.004 331.576 160.013C331.501 160.032 331.55 160.017 331.619 160.009L331.866 161.993C331.947 161.983 332.047 161.957 332.058 161.954C332.11 161.941 332.178 161.924 332.262 161.901C332.43 161.856 332.666 161.789 332.965 161.699C333.561 161.518 334.41 161.243 335.458 160.856C337.553 160.084 340.451 158.865 343.733 157.068C350.293 153.476 358.418 147.56 364.72 138.258L363.064 137.136ZM331.501 160.031C330.269 160.337 329.472 161.582 329.799 162.837L331.734 162.333C331.702 162.209 331.778 162.023 331.984 161.971L331.501 160.031ZM329.799 162.839C330.069 163.867 331.006 164.582 332.05 164.582V162.582C331.914 162.582 331.772 162.479 331.734 162.332L329.799 162.839Z" fill="black" mask="url(#path-28-outside-1_4757_51352)"/>
<path d="M408.154 116.67C406.821 117.329 404.902 117.583 402.686 117.553C400.346 117.521 397.751 117.174 395.321 116.722C392.893 116.27 390.644 115.715 389.002 115.273C388.181 115.052 387.512 114.859 387.049 114.722C386.86 114.666 386.706 114.619 386.589 114.584C379.652 89.5726 381.61 75.5639 386.34 67.8808C391.069 60.1976 398.659 58.7075 403.284 58.932C407.886 59.1554 411.48 61.1366 413.376 64.6676C415.283 68.2173 415.534 73.4449 413.184 80.2706C410.788 87.2301 409.532 96.4157 408.873 103.834C408.543 107.548 408.362 110.83 408.264 113.184C408.215 114.361 408.186 115.306 408.17 115.957C408.162 116.261 408.157 116.5 408.154 116.67Z" fill="#FFD200" stroke="black"/>
<path d="M385.628 116.737L386.27 116.927V116.911C388.766 117.669 396.576 119.875 402.923 119.875C405.44 119.875 407.806 119.543 409.538 118.558L409.54 118.557L410.208 118.174L410.459 118.029V117.74V116.973C410.459 116.973 410.459 116.968 410.459 116.953L410.46 116.895C410.46 116.847 410.462 116.777 410.463 116.687C410.467 116.508 410.473 116.25 410.482 115.92C410.5 115.26 410.531 114.314 410.583 113.143C410.686 110.801 410.872 107.559 411.201 103.907C411.862 96.59 413.097 87.6653 415.387 81.005C418.717 71.4009 416.92 65.5843 414.737 62.3929C412.347 58.8654 408.284 56.8401 403.409 56.6042V56.6041L403.405 56.604C400.185 56.4737 391.998 56.9138 385.996 64.3794L385.996 64.3801C382.067 69.283 380.001 76.0577 379.749 84.5898C379.497 93.121 381.056 103.445 384.414 115.494L384.592 116.18L384.664 116.453L384.935 116.533L385.628 116.737ZM411.951 79.8611L411.951 79.8614C407.716 92.1543 406.977 110.928 406.848 115.799C405.813 116.134 404.466 116.277 402.919 116.268C401.222 116.258 399.325 116.065 397.414 115.77C393.731 115.202 390.032 114.262 387.668 113.559C380.004 85.3916 384.166 72.4937 388.856 66.6411C393.793 60.5131 400.551 60.1358 403.233 60.2605L403.234 60.2605C407.092 60.4339 409.986 61.9115 411.728 64.4627C414.088 67.9501 414.241 73.2269 411.951 79.8611Z" fill="black" stroke="black"/>
<path d="M416.558 138.387C416.558 138.387 420.744 104.99 389.416 108.133C358.063 111.275 362.222 126.275 362.222 126.275C362.222 126.275 363.84 136.036 368.129 135.653C368.129 135.653 361.581 138.719 362.556 146.589C363.532 154.434 372.057 157.372 372.057 157.372C372.057 157.372 366.28 158.982 367.846 166.418C369.412 173.828 379.478 179.859 391.932 178.147C404.386 176.435 414.427 166.111 416.558 138.387Z" fill="#FFD200"/>
<path d="M368.668 134.221L368.629 133.723C368.281 133.75 367.879 133.559 367.426 133.048C366.979 132.545 366.556 131.809 366.175 130.952C365.415 129.241 364.88 127.169 364.668 125.862L364.642 125.702L364.634 125.694C364.568 125.405 363.945 122.533 366.227 119.279L366.228 119.277C368.574 115.898 374.639 111.383 390.235 109.83C391.559 109.704 392.826 109.628 394.038 109.628C400.516 109.628 405.559 111.464 409.113 115.099L409.114 115.101C413.084 119.137 414.661 124.807 415.234 129.544C415.747 133.792 415.446 137.172 415.378 137.944C415.37 138.034 415.365 138.089 415.365 138.105V138.137C414.468 149.946 412.052 159.018 408.19 165.359C404.338 171.682 399.045 175.297 392.327 176.22L392.326 176.22C386.309 177.05 381.107 176.003 377.256 173.976C373.395 171.944 370.928 168.952 370.287 165.906L370.287 165.904C369.661 162.974 370.405 161.28 371.247 160.313C372.101 159.331 373.122 159.024 373.193 159.003C373.957 158.794 374.535 158.099 374.535 157.295C374.535 156.533 374.052 155.794 373.293 155.543C373.293 155.543 373.293 155.543 373.292 155.542C373.26 155.531 372.795 155.362 372.097 155.015C371.371 154.655 370.404 154.108 369.414 153.352C367.43 151.837 365.405 149.524 365.004 146.247C364.236 139.862 369.385 137.259 369.554 137.175C370.364 136.787 370.749 135.906 370.539 135.07C370.323 134.209 369.502 133.653 368.628 133.723L368.668 134.221ZM368.668 134.221C369.31 134.17 369.9 134.579 370.054 135.192C370.208 135.805 369.926 136.444 369.335 136.725L364.174 125.942C364.611 128.625 366.357 134.4 368.668 134.221ZM363.172 117.277L363.171 117.277C360.128 121.702 360.912 125.776 361.09 126.528C361.187 127.085 361.526 128.876 362.22 130.836C362.848 132.612 363.793 134.605 365.17 135.916C362.912 138.073 360.79 141.675 361.418 146.701C362.117 152.359 366.092 155.725 368.977 157.46C367.157 159.238 365.79 162.212 366.741 166.674C367.677 171.134 370.757 174.503 374.786 176.746C378.814 178.988 383.824 180.128 388.723 180.128C390.108 180.128 391.492 180.024 392.846 179.843L392.848 179.842C400.592 178.773 406.675 174.715 411.05 167.76C415.41 160.827 418.066 151.03 419.033 138.462C419.105 137.878 419.547 133.766 418.861 128.645C418.17 123.493 416.329 117.256 411.754 112.586C406.66 107.386 399.249 105.274 389.88 106.203L389.879 106.203C376.398 107.56 367.337 111.232 363.172 117.277Z" fill="black" stroke="black"/>
<path d="M367.051 135.892C367.158 136.393 367.473 136.805 367.883 137.057L367.585 137.353L368.796 137.353L368.796 137.327C368.796 137.327 368.796 137.327 368.796 137.327L368.796 137.353H368.796H368.796L368.797 137.353L368.798 137.353L368.801 137.353L368.809 137.353L368.837 137.352C368.859 137.352 368.891 137.351 368.926 137.349C368.986 137.346 369.092 137.338 369.19 137.315C375.475 135.965 380.118 135.278 383.194 134.929C384.733 134.754 385.879 134.664 386.644 134.617C387.027 134.594 387.313 134.581 387.506 134.575C387.602 134.572 387.675 134.57 387.724 134.569C387.774 134.568 387.798 134.568 387.798 134.568C388.785 134.568 389.633 133.765 389.633 132.739C389.633 131.758 388.829 130.91 387.824 130.91C387.529 130.91 381.434 130.914 368.434 133.732C367.461 133.94 366.804 134.887 367.051 135.892Z" fill="black" stroke="black"/>
<path d="M372.879 159.073H372.909L372.939 159.07L388.728 157.154C389.731 157.045 390.429 156.125 390.324 155.147C390.216 154.142 389.288 153.449 388.31 153.553L388.31 153.553L388.303 153.554L372.514 155.47C371.511 155.579 370.813 156.499 370.918 157.477L370.918 157.477L370.919 157.481C371.026 158.407 371.813 159.073 372.725 159.073H372.725H372.725H372.725H372.725H372.725H372.725H372.725H372.725H372.725H372.725H372.725H372.725H372.725H372.725H372.725H372.725H372.725H372.725H372.725H372.726H372.726H372.726H372.726H372.726H372.726H372.726H372.726H372.726H372.726H372.726H372.726H372.726H372.726H372.726H372.727H372.727H372.727H372.727H372.727H372.727H372.727H372.727H372.727H372.727H372.727H372.728H372.728H372.728H372.728H372.728H372.728H372.728H372.728H372.728H372.729H372.729H372.729H372.729H372.729H372.729H372.729H372.729H372.73H372.73H372.73H372.73H372.73H372.73H372.73H372.731H372.731H372.731H372.731H372.731H372.731H372.732H372.732H372.732H372.732H372.732H372.732H372.733H372.733H372.733H372.733H372.733H372.733H372.734H372.734H372.734H372.734H372.734H372.735H372.735H372.735H372.735H372.735H372.736H372.736H372.736H372.736H372.736H372.737H372.737H372.737H372.737H372.737H372.738H372.738H372.738H372.738H372.739H372.739H372.739H372.739H372.739H372.74H372.74H372.74H372.74H372.741H372.741H372.741H372.741H372.742H372.742H372.742H372.742H372.743H372.743H372.743H372.743H372.744H372.744H372.744H372.744H372.745H372.745H372.745H372.745H372.746H372.746H372.746H372.746H372.747H372.747H372.747H372.748H372.748H372.748H372.748H372.749H372.749H372.749H372.749H372.75H372.75H372.75H372.751H372.751H372.751H372.752H372.752H372.752H372.752H372.753H372.753H372.753H372.754H372.754H372.754H372.755H372.755H372.755H372.755H372.756H372.756H372.756H372.757H372.757H372.757H372.758H372.758H372.758H372.759H372.759H372.759H372.76H372.76H372.76H372.76H372.761H372.761H372.761H372.762H372.762H372.762H372.763H372.763H372.763H372.764H372.764H372.764H372.765H372.765H372.765H372.766H372.766H372.767H372.767H372.767H372.768H372.768H372.768H372.769H372.769H372.769H372.77H372.77H372.77H372.771H372.771H372.771H372.772H372.772H372.772H372.773H372.773H372.774H372.774H372.774H372.775H372.775H372.775H372.776H372.776H372.776H372.777H372.777H372.778H372.778H372.778H372.779H372.779H372.779H372.78H372.78H372.78H372.781H372.781H372.782H372.782H372.782H372.783H372.783H372.783H372.784H372.784H372.785H372.785H372.785H372.786H372.786H372.787H372.787H372.787H372.788H372.788H372.788H372.789H372.789H372.79H372.79H372.79H372.791H372.791H372.792H372.792H372.792H372.793H372.793H372.793H372.794H372.794H372.795H372.795H372.795H372.796H372.796H372.797H372.797H372.797H372.798H372.798H372.799H372.799H372.799H372.8H372.8H372.801H372.801H372.801H372.802H372.802H372.803H372.803H372.803H372.804H372.804H372.805H372.805H372.805H372.806H372.806H372.807H372.807H372.807H372.808H372.808H372.809H372.809H372.809H372.81H372.81H372.811H372.811H372.811H372.812H372.812H372.813H372.813H372.813H372.814H372.814H372.815H372.815H372.815H372.816H372.816H372.817H372.817H372.817H372.818H372.818H372.819H372.819H372.819H372.82H372.82H372.821H372.821H372.821H372.822H372.822H372.823H372.823H372.823H372.824H372.824H372.825H372.825H372.825H372.826H372.826H372.827H372.827H372.827H372.828H372.828H372.829H372.829H372.829H372.83H372.83H372.831H372.831H372.831H372.832H372.832H372.833H372.833H372.833H372.834H372.834H372.834H372.835H372.835H372.836H372.836H372.836H372.837H372.837H372.838H372.838H372.838H372.839H372.839H372.84H372.84H372.84H372.841H372.841H372.842H372.842H372.842H372.843H372.843H372.843H372.844H372.844H372.845H372.845H372.845H372.846H372.846H372.847H372.847H372.847H372.848H372.848H372.848H372.849H372.849H372.85H372.85H372.85H372.851H372.851H372.851H372.852H372.852H372.853H372.853H372.853H372.854H372.854H372.854H372.855H372.855H372.855H372.856H372.856H372.857H372.857H372.857H372.858H372.858H372.858H372.859H372.859H372.859H372.86H372.86H372.861H372.861H372.861H372.862H372.862H372.862H372.863H372.863H372.863H372.864H372.864H372.864H372.865H372.865H372.865H372.866H372.866H372.866H372.867H372.867H372.867H372.868H372.868H372.869H372.869H372.869H372.87H372.87H372.87H372.871H372.871H372.871H372.871H372.872H372.872H372.872H372.873H372.873H372.873H372.874H372.874H372.874H372.875H372.875H372.875H372.876H372.876H372.876H372.877H372.877H372.877H372.878H372.878H372.878H372.878H372.879H372.879Z" fill="black" stroke="black"/>
</g>
<defs>
<clipPath id="clip0_4757_51352">
<rect width="424" height="250" fill="white"/>
</clipPath>
<clipPath id="clip1_4757_51352">
<rect width="198" height="319" fill="white" transform="translate(163 1)"/>
</clipPath>
</defs>
</svg>
