<svg width="344" height="270" viewBox="0 0 344 270" fill="none" xmlns="http://www.w3.org/2000/svg">
<g clip-path="url(#clip0_4757_51027)">
<path d="M91.3614 120.389H82.4849V394.822H91.3614V120.389Z" fill="#8A6456"/>
<path d="M92.626 396.06H81.2202V119.15H92.626V396.084V396.06ZM83.7251 393.559H90.0968V121.651H83.7251V393.559Z" fill="black"/>
<path d="M86.2543 170.502C133.143 170.502 171.153 132.554 171.153 85.7417C171.153 38.9299 133.143 0.981445 86.2543 0.981445C39.366 0.981445 1.35547 38.9299 1.35547 85.7417C1.35547 132.554 39.366 170.502 86.2543 170.502Z" fill="#F05144"/>
<path d="M86.2543 171.74C38.7343 171.74 0.0908203 133.16 0.0908203 85.7416C0.0908203 38.3234 38.7343 -0.28125 86.2543 -0.28125C133.774 -0.28125 172.418 38.2991 172.418 85.7416C172.418 133.184 133.774 171.764 86.2543 171.764V171.74ZM86.2543 2.21956C40.1205 2.21956 2.59571 39.6831 2.59571 85.7416C2.59571 131.8 40.1205 169.239 86.2299 169.239C132.339 169.239 169.864 131.776 169.864 85.7416C169.864 39.7074 132.364 2.21956 86.2543 2.21956Z" fill="black"/>
<path d="M127.943 127.941C130.688 125.217 130.683 120.776 127.944 118.038L53.9611 44.0584C53.9605 44.0579 53.96 44.0574 53.9595 44.0569C51.2362 41.3127 46.7959 41.317 44.0571 44.054C41.3122 46.7777 41.3169 51.219 44.0556 53.9576L44.0557 53.9577L118.042 127.92C118.042 127.92 118.042 127.92 118.042 127.92C119.361 129.239 121.058 129.92 122.768 129.977C122.838 129.992 122.91 130 122.983 130C124.775 130 126.585 129.298 127.943 127.941ZM127.943 127.941C127.943 127.941 127.942 127.942 127.941 127.943L127.237 127.233L127.944 127.94C127.944 127.94 127.944 127.94 127.943 127.941Z" fill="white" stroke="white" stroke-width="2" stroke-linejoin="round"/>
<path d="M53.0937 127.944L53.0938 127.944L127.924 53.9646C127.924 53.9643 127.925 53.964 127.925 53.9637C130.707 51.2355 130.674 46.7896 127.93 44.0543C125.18 41.3136 120.699 41.3178 117.933 44.0513C117.933 44.0513 117.933 44.0514 117.933 44.0514L43.0834 118.011C43.0827 118.012 43.082 118.012 43.0814 118.013C40.3039 120.738 40.3088 125.185 43.0804 127.924C44.42 129.248 46.1421 129.926 47.8749 129.977C47.9433 129.992 48.0143 130 48.0871 130C49.8934 130 51.7209 129.301 53.0937 127.944Z" fill="white" stroke="white" stroke-width="2" stroke-linejoin="round"/>
<g clip-path="url(#clip1_4757_51027)">
<path d="M158.838 196.694L85.6162 203.289L86.9943 226.232L163.003 229.698L158.838 196.694Z" fill="#FFD200"/>
<path d="M163.003 231.783C163.003 231.783 162.942 231.783 162.911 231.783L86.9023 228.317C85.8305 228.256 84.973 227.428 84.9118 226.354L83.5337 203.412C83.4725 202.277 84.2993 201.295 85.4324 201.203L158.654 194.609C159.757 194.517 160.767 195.314 160.921 196.418L165.085 229.452C165.177 230.066 164.963 230.679 164.534 231.139C164.136 231.569 163.585 231.814 163.003 231.814V231.783ZM88.9848 224.238L160.645 227.52L157.031 198.964L87.8211 205.221L88.9848 224.269V224.238Z" fill="black"/>
<path d="M77.1638 211.141C77.1638 211.141 77.1637 197.891 87.3003 196.909C97.4368 195.928 101.479 200.13 101.326 203.841C101.173 207.553 90.7302 207.46 90.7302 207.46C90.7302 207.46 100.897 207.092 100.499 213.319C100.101 219.545 91.3733 218.901 91.3733 218.901C91.3733 218.901 100.285 218.809 100.53 225.588C100.775 232.366 87.6372 231.201 87.6372 231.201C87.6372 231.201 76.8575 231.63 77.1331 211.11L77.1638 211.141Z" fill="#FFD200"/>
<path d="M89.8729 233.409C88.7704 233.409 87.9436 233.348 87.6067 233.317C86.8105 233.317 83.6562 233.103 80.6857 230.189C76.8577 226.477 74.9896 220.067 75.1121 211.141C75.1121 205.896 77.6539 195.775 87.1167 194.854C94.8952 194.088 98.9376 196.204 100.928 198.136C102.643 199.762 103.531 201.817 103.439 203.964C103.347 205.896 102.061 207.185 100.254 208.013C100.438 208.166 100.622 208.35 100.806 208.534C102.092 209.853 102.704 211.571 102.582 213.503C102.459 215.527 101.602 217.276 100.132 218.564C99.8563 218.809 99.5807 219.024 99.2744 219.208C101.112 220.558 102.49 222.582 102.612 225.557C102.674 227.459 102 229.115 100.653 230.403C97.927 233.011 92.874 233.44 89.8423 233.44L89.8729 233.409ZM87.6373 229.146C87.6373 229.146 87.7904 229.146 87.8517 229.146C90.6997 229.391 95.9364 229.146 97.8045 227.336C98.2945 226.876 98.4782 226.385 98.4476 225.68C98.2945 221.815 93.7927 221.14 92.0472 221.018C91.6184 221.018 91.3122 221.018 91.1897 221.018C90.0872 220.926 89.2298 220.006 89.2604 218.871C89.291 217.736 90.2097 216.877 91.3122 216.846C91.5878 216.846 91.8941 216.846 92.2003 216.846C93.609 216.846 96.0283 216.54 97.3758 215.374C98.0189 214.822 98.3251 214.117 98.3863 213.196C98.4476 212.43 98.2332 211.877 97.7739 211.417C96.3958 209.976 93.1496 209.608 91.4347 209.577C91.1285 209.577 90.8835 209.577 90.6691 209.577C89.536 209.577 88.6173 208.657 88.6173 207.522C88.6173 206.387 89.5054 205.436 90.6079 205.406C90.7303 205.406 91.006 205.406 91.4041 205.406C95.0177 205.344 98.7538 204.547 99.2438 203.719C99.2438 202.86 98.8457 201.94 98.0189 201.173C96.8858 200.099 94.0071 198.382 87.4536 199.026C79.3076 199.823 79.2157 211.08 79.2157 211.172C79.0932 220.711 81.4513 225.097 83.4418 227.122C85.4936 229.177 87.5148 229.177 87.6067 229.177L87.6373 229.146Z" fill="black"/>
<path d="M238.303 103.547C238.303 103.547 316.717 102.625 333.232 154.775C333.232 154.775 351.736 216.118 316.064 266.037C316.064 266.037 287.401 305.663 238.659 304.473H239.342C190.036 305.068 161.938 266.037 161.938 266.037C126.265 216.148 144.77 154.775 144.77 154.775C159.74 101.108 239.699 103.547 239.699 103.547" fill="#FFD200"/>
<path d="M240.738 306.525C240.085 306.525 239.461 306.525 238.808 306.525C238.6 306.525 238.392 306.525 238.184 306.525C189.086 306.525 160.542 267.643 160.245 267.257C124.394 217.129 142.602 154.865 142.78 154.24C157.987 99.7395 238.867 101.524 239.699 101.554C250.54 101.792 319.628 105.184 335.133 154.21C335.341 154.865 353.518 217.129 317.697 267.257C317.4 267.673 288.678 306.555 240.738 306.555V306.525ZM239.313 302.48C286.094 303.283 314.133 265.263 314.43 264.877C349.122 216.356 331.479 155.995 331.301 155.4C315.44 105.332 239.045 105.541 238.332 105.6C228.174 105.6 160.037 107.504 146.671 155.37C146.463 156.025 128.879 216.415 163.542 264.906C163.809 265.293 191.224 302.509 238.184 302.509C238.332 302.509 238.481 302.509 238.63 302.509H239.313V302.48Z" fill="black"/>
<path d="M277.421 233.908C276.857 233.908 276.263 233.729 275.817 233.313C275.609 233.164 266.817 226.441 239.788 226.56C239.432 226.56 212.789 226.024 199.512 233.58C198.294 234.265 196.749 233.848 196.066 232.628C195.383 231.409 195.799 229.862 197.017 229.177C211.541 220.937 238.689 221.472 239.847 221.502C240.115 221.502 240.352 221.502 240.62 221.502C269.461 221.502 278.698 229.118 279.084 229.445C280.154 230.338 280.272 231.944 279.352 233.015C278.847 233.61 278.134 233.908 277.421 233.908Z" fill="black"/>
<path d="M284.817 259.075C284.401 259.075 284.015 259.045 283.629 258.956C280.569 258.39 279.381 255.891 279.233 255.594C277.005 250.507 284.252 246.045 285.084 245.569C291.945 241.047 292.242 225.994 291.767 220.579C291.678 219.479 292.48 218.497 293.609 218.378C294.708 218.289 295.688 219.092 295.807 220.222C295.896 221.115 297.619 242.177 287.252 248.99C285.054 250.299 282.441 252.768 282.975 253.958C282.975 253.988 283.421 254.821 284.46 254.969C285.322 255.118 287.817 254.94 292.421 250.328C293.223 249.525 294.5 249.525 295.272 250.328C296.074 251.132 296.074 252.411 295.272 253.184C291.381 257.081 287.876 259.045 284.876 259.045L284.817 259.075Z" fill="black"/>
<path d="M292.777 265.56C290.341 265.56 288.797 264.192 288.619 264.014C284.163 259.194 290.787 251.816 291.559 251.013C292.331 250.21 293.609 250.15 294.411 250.924C295.213 251.697 295.272 252.977 294.5 253.78C292.807 255.595 290.223 259.551 291.381 261.098C291.589 261.247 292.302 261.663 293.252 261.485C294.292 261.306 296.401 260.295 299.015 255.684C299.549 254.702 300.797 254.375 301.777 254.91C302.757 255.446 303.084 256.695 302.549 257.677C299.906 262.377 296.965 265.025 293.846 265.501C293.49 265.56 293.133 265.59 292.807 265.59L292.777 265.56Z" fill="black"/>
<path d="M301.005 269.725C301.005 269.725 301.005 269.725 300.975 269.725C298.569 269.725 297.114 268.148 296.935 267.97C293.015 263.745 298.45 256.457 299.074 255.624C299.757 254.731 301.034 254.583 301.896 255.267C302.787 255.951 302.935 257.23 302.252 258.093C300.826 259.937 298.688 263.924 299.906 265.233C299.906 265.233 300.351 265.679 300.975 265.679C300.975 265.679 300.975 265.679 301.005 265.679C301.747 265.679 302.698 265.054 303.678 264.013C303.737 263.924 316.212 248.365 316.331 222.454C316.331 221.323 317.252 220.46 318.351 220.431C319.48 220.431 320.371 221.353 320.371 222.454C320.252 249.853 307.302 265.947 306.737 266.631C304.866 268.684 302.965 269.695 300.975 269.695L301.005 269.725Z" fill="black"/>
<path d="M237.709 119.522C262.956 119.522 288.708 128.357 288.708 128.357C323.549 137.192 326.578 120.265 326.578 120.265C330.35 108.633 307.658 99.0244 307.658 99.0244C287.728 90.9326 278.876 57.8219 278.876 57.8219C270.797 31.2857 236.669 33.0111 236.669 33.0111H238.778C238.778 33.0111 206.432 31.2857 198.353 57.8219C198.353 57.8219 189.531 90.9326 169.571 99.0244C169.571 99.0244 146.849 108.633 150.651 120.265C150.651 120.265 153.681 137.192 188.521 128.357C188.521 128.357 214.273 119.522 239.52 119.522H237.768H237.709Z" fill="black"/>
<path d="M306.559 131.957C301.331 131.957 295.302 131.094 288.44 129.339C288.114 129.22 263.074 120.742 238.57 120.533C214.066 120.742 189.026 129.25 188.789 129.339C173.73 133.177 162.562 132.82 155.581 128.298C150.473 124.996 149.641 120.652 149.611 120.474C145.631 108.247 168.175 98.519 169.155 98.1322C188.432 90.3082 197.254 57.9115 197.343 57.5842C204.353 34.5584 229.303 32.2082 236.699 32C236.877 32 237.263 32 237.768 32C237.976 32 238.154 32 238.273 32C245.402 32.0892 272.639 34.0229 279.767 57.5545C279.856 57.9115 288.708 90.3082 307.955 98.1322C308.935 98.5487 331.509 108.247 327.469 120.623C327.469 120.682 326.638 124.996 321.529 128.298C317.727 130.737 312.707 131.987 306.529 131.987L306.559 131.957ZM239.461 118.54C264.025 118.927 288.767 127.346 289.005 127.435C306.826 131.957 315.915 129.518 320.4 126.662C324.796 123.865 325.539 120.266 325.568 120.117C329.044 109.377 307.45 100.096 307.242 100.006C287.074 91.8254 278.252 59.4882 277.866 58.1197C271.243 36.4029 246.144 34.2014 238.748 34.0527H236.639C229.511 34.2312 205.868 36.5219 199.274 58.1495C198.917 59.4882 190.096 91.8254 169.898 100.006C169.69 100.096 148.096 109.377 151.542 119.998C151.601 120.266 152.314 123.835 156.74 126.662C161.225 129.518 170.314 131.957 188.195 127.435C188.373 127.376 213.115 118.957 237.679 118.57H239.431L239.461 118.54Z" fill="black"/>
<path d="M255.59 200.231C268.549 200.231 279.055 188.484 279.055 173.993C279.055 159.501 268.549 147.754 255.59 147.754C242.63 147.754 232.125 159.501 232.125 173.993C232.125 188.484 242.63 200.231 255.59 200.231Z" fill="white"/>
<path d="M255.59 202.255C241.54 202.255 230.105 189.582 230.105 173.993C230.105 158.405 241.54 145.731 255.59 145.731C269.639 145.731 281.074 158.405 281.074 173.993C281.074 189.582 269.639 202.255 255.59 202.255ZM255.59 149.777C243.768 149.777 234.145 160.636 234.145 173.993C234.145 187.35 243.768 198.209 255.59 198.209C267.411 198.209 277.035 187.35 277.035 173.993C277.035 160.636 267.411 149.777 255.59 149.777Z" fill="black"/>
<path d="M217.838 199.457C229.862 199.457 239.61 188.562 239.61 175.122C239.61 161.682 229.862 150.787 217.838 150.787C205.814 150.787 196.066 161.682 196.066 175.122C196.066 188.562 205.814 199.457 217.838 199.457Z" fill="white"/>
<path d="M217.838 201.48C204.709 201.48 194.046 189.67 194.046 175.122C194.046 160.575 204.709 148.765 217.838 148.765C230.966 148.765 241.629 160.575 241.629 175.122C241.629 189.67 230.966 201.48 217.838 201.48ZM217.838 152.84C206.937 152.84 198.086 162.836 198.086 175.152C198.086 187.468 206.937 197.464 217.838 197.464C228.739 197.464 237.59 187.468 237.59 175.152C237.59 162.836 228.739 152.84 217.838 152.84Z" fill="black"/>
<path d="M217.273 189.611C223.704 189.611 228.917 182.938 228.917 174.707C228.917 166.476 223.704 159.803 217.273 159.803C210.843 159.803 205.63 166.476 205.63 174.707C205.63 182.938 210.843 189.611 217.273 189.611Z" fill="black"/>
<path d="M257.401 189.611C263.832 189.611 269.045 182.938 269.045 174.707C269.045 166.476 263.832 159.803 257.401 159.803C250.971 159.803 245.758 166.476 245.758 174.707C245.758 182.938 250.971 189.611 257.401 189.611Z" fill="black"/>
<path d="M235.6 224.03C246.525 224.03 255.382 216.331 255.382 206.835C255.382 197.338 246.525 189.64 235.6 189.64C224.675 189.64 215.818 197.338 215.818 206.835C215.818 216.331 224.675 224.03 235.6 224.03Z" fill="#F5333F"/>
<path d="M235.6 226.053C223.57 226.053 213.798 217.426 213.798 206.835C213.798 196.244 223.57 187.617 235.6 187.617C247.629 187.617 257.401 196.244 257.401 206.835C257.401 217.426 247.629 226.053 235.6 226.053ZM235.6 191.633C225.798 191.633 217.838 198.446 217.838 206.805C217.838 215.165 225.798 221.977 235.6 221.977C245.402 221.977 253.362 215.165 253.362 206.805C253.362 198.446 245.402 191.633 235.6 191.633Z" fill="black"/>
<path d="M237.026 80.2822C245.638 80.2822 252.619 73.969 252.619 66.1812C252.619 58.3933 245.638 52.0801 237.026 52.0801C228.413 52.0801 221.432 58.3933 221.432 66.1812C221.432 73.969 228.413 80.2822 237.026 80.2822Z" fill="#BBBBBB"/>
<path d="M237.382 73.6484H235.927C232.252 73.6484 229.273 76.6319 229.273 80.3122V80.5502C229.273 84.2305 232.252 87.214 235.927 87.214H237.382C241.056 87.214 244.035 84.2305 244.035 80.5502V80.3122C244.035 76.6319 241.056 73.6484 237.382 73.6484Z" fill="#BBBBBB"/>
<path d="M232.273 62.1357H232.214C231.131 62.1357 230.253 63.0148 230.253 64.0992V68.0558C230.253 69.1402 231.131 70.0193 232.214 70.0193H232.273C233.356 70.0193 234.234 69.1402 234.234 68.0558V64.0992C234.234 63.0148 233.356 62.1357 232.273 62.1357Z" fill="black"/>
<path d="M232.243 70.0791C231.085 70.0791 230.164 69.1569 230.164 67.9967V64.1293C230.164 62.9691 231.085 62.0469 232.243 62.0469C233.402 62.0469 234.323 62.9691 234.323 64.1293V67.9967C234.323 69.1569 233.402 70.0791 232.243 70.0791ZM232.243 62.2254C231.204 62.2254 230.343 63.0881 230.343 64.1293V67.9967C230.343 69.0379 231.204 69.9006 232.243 69.9006C233.283 69.9006 234.144 69.0379 234.144 67.9967V64.1293C234.144 63.0881 233.283 62.2254 232.243 62.2254Z" fill="#231815"/>
<path d="M240.857 62.1357H240.798C239.715 62.1357 238.837 63.0148 238.837 64.0992V68.0558C238.837 69.1402 239.715 70.0193 240.798 70.0193H240.857C241.94 70.0193 242.818 69.1402 242.818 68.0558V64.0992C242.818 63.0148 241.94 62.1357 240.857 62.1357Z" fill="black"/>
<path d="M240.827 70.0791C239.669 70.0791 238.748 69.1569 238.748 67.9967V64.1293C238.748 62.9691 239.669 62.0469 240.827 62.0469C241.986 62.0469 242.907 62.9691 242.907 64.1293V67.9967C242.907 69.1569 241.986 70.0791 240.827 70.0791ZM240.827 62.2254C239.788 62.2254 238.927 63.0881 238.927 64.1293V67.9967C238.927 69.0379 239.788 69.9006 240.827 69.9006C241.867 69.9006 242.728 69.0379 242.728 67.9967V64.1293C242.728 63.0881 241.867 62.2254 240.827 62.2254Z" fill="#231815"/>
<path d="M256.421 103.13C256.184 103.13 255.946 103.1 255.708 103.011L215.432 89.029C214.303 88.6422 213.709 87.3928 214.095 86.2623C214.481 85.1318 215.729 84.5369 216.858 84.9236L257.134 98.9057C258.263 99.2924 258.857 100.542 258.471 101.672C258.144 102.565 257.312 103.13 256.421 103.13Z" fill="#BBBBBB"/>
<path d="M215.907 101.762C214.957 101.762 214.066 101.137 213.798 100.156C213.472 98.9956 214.155 97.8056 215.313 97.4784L256.421 86.2332C257.58 85.906 258.768 86.5902 259.094 87.7504C259.421 88.9106 258.738 90.1006 257.58 90.4278L216.471 101.673C216.293 101.732 216.085 101.762 215.907 101.762Z" fill="#BBBBBB"/>
<path d="M189.502 149.062C189.502 149.062 207.561 179.049 237.115 153.495C237.115 153.495 262.065 178.484 277.243 148.289L268.599 136.181L196.987 141L189.502 149.062Z" fill="#FFD200"/>
<path d="M277.035 152.722C277.035 152.722 270.619 163.997 256.748 163.194C256.748 163.194 242.253 163.015 237.263 152.365C237.263 152.365 231.115 166.466 211.986 164.622C211.986 164.622 200.789 163.491 194.135 155.102" fill="#FFD200"/>
<path d="M215.343 167.329C214.184 167.329 212.996 167.27 211.749 167.151C211.244 167.091 199.422 165.812 192.175 156.679C191.314 155.579 191.492 154.002 192.591 153.139C193.69 152.276 195.264 152.455 196.125 153.556C202.066 161.052 212.135 162.123 212.254 162.153C229.422 163.819 234.917 151.533 234.976 151.414C235.362 150.491 236.253 149.896 237.263 149.896C238.214 149.896 239.164 150.462 239.58 151.354C243.827 160.428 256.689 160.725 256.807 160.725C269.104 161.439 274.807 151.652 274.866 151.533C275.55 150.313 277.094 149.896 278.312 150.581C279.53 151.265 279.946 152.812 279.262 154.032C278.965 154.537 271.896 166.675 256.629 165.783C256.154 165.783 243.946 165.515 237.263 157.155C234.055 161.29 227.313 167.389 215.372 167.389L215.343 167.329Z" fill="black"/>
</g>
</g>
<defs>
<clipPath id="clip0_4757_51027">
<rect width="344" height="270" fill="white"/>
</clipPath>
<clipPath id="clip1_4757_51027">
<rect width="358" height="371" fill="white" transform="translate(-2 -34)"/>
</clipPath>
</defs>
</svg>
