<svg width="424" height="250" viewBox="0 0 424 250" fill="none" xmlns="http://www.w3.org/2000/svg">
<g clip-path="url(#clip0_4757_51354)">
<path d="M366.536 234.208C371.224 233.015 371.418 228.411 371.418 228.355C371.418 226.025 370.78 224.167 369.449 222.835C368.533 221.92 367.479 221.393 366.536 221.088C371.501 219.396 371.002 214.514 371.002 214.431C370.697 212.129 369.781 210.381 368.284 209.216C367.313 208.467 366.259 208.107 365.316 207.913C369.671 205.721 368.811 201.145 368.811 201.089C368.311 198.815 367.257 197.15 365.649 196.152C364.484 195.403 363.235 195.153 362.209 195.07C366.592 192.185 364.9 187.581 364.872 187.526C364.012 185.362 362.681 183.92 360.933 183.171C359.879 182.727 358.797 182.616 357.882 182.644C361.987 179.204 359.685 174.794 359.657 174.739C358.52 172.714 357.022 171.438 355.192 170.939C353.943 170.606 352.778 170.661 351.808 170.883C355.275 167.055 352.584 163.033 352.529 162.978C351.17 161.092 349.561 159.982 347.675 159.677C346.454 159.483 345.317 159.677 344.374 159.954C347.12 155.849 344.069 152.271 344.013 152.243C341.378 149.359 338.66 149.22 336.663 149.803C339.132 146.224 336.746 142.73 336.718 142.674C335.359 140.788 333.723 139.706 331.837 139.401C331.365 139.318 330.921 139.318 330.478 139.346C333.279 136.516 331.948 132.855 331.92 132.8C331.06 130.636 329.729 129.166 328.009 128.445C327.537 128.251 327.066 128.112 326.594 128.029C330.006 125.976 329.618 122.093 329.618 122.037C329.313 119.735 328.397 117.988 326.872 116.85C326.095 116.24 325.235 115.907 324.459 115.686C328.786 114.077 328.647 109.639 328.619 109.583C328.48 107.281 327.676 105.45 326.234 104.23C325.402 103.509 324.486 103.065 323.626 102.815C327.981 101.012 327.621 96.5189 327.621 96.4635C327.343 94.1612 326.483 92.386 324.986 91.2211C324.042 90.4722 323.016 90.0838 322.101 89.8897C326.678 87.7539 325.79 83.0385 325.79 82.983C325.291 80.7086 324.237 79.0443 322.656 78.018C321.685 77.4078 320.658 77.1027 319.743 76.9918C324.07 74.4676 322.822 69.891 322.794 69.8355C322.129 67.6165 320.936 66.0355 319.244 65.1479C318.134 64.5654 317.025 64.3712 316.054 64.3435C320.187 61.3756 318.439 56.8821 318.412 56.8266C317.496 54.6908 316.137 53.2485 314.39 52.555C313.253 52.1113 312.143 52.028 311.2 52.1113C314.778 48.6163 312.448 44.4557 312.42 44.4002C311.228 42.4031 309.674 41.1827 307.844 40.7389C306.568 40.4338 305.375 40.5447 304.404 40.7944C307.539 36.6615 304.46 32.8892 304.404 32.8337C301.492 29.5052 298.247 29.6162 295.917 30.6147C298.136 26.0935 294.502 22.9869 294.474 22.9314C290.702 19.8526 287.429 21.073 285.598 22.3212C287.041 17.273 282.741 14.8876 282.686 14.8598C278.331 12.6131 275.391 14.4715 273.865 16.0803C274.115 10.8656 269.427 9.50651 269.372 9.47878C265.433 8.45249 263.103 9.95031 261.744 11.5868C261.744 10.8102 261.55 9.97805 261.078 9.25688C260.385 8.17511 259.192 7.48168 257.528 7.23204C257.473 7.23204 253.312 6.84372 251.62 10.3386C251.343 9.56199 250.871 8.78534 250.15 8.14738C248.985 7.14883 247.321 6.73277 245.24 6.95467C245.185 6.95467 240.608 7.53715 239.832 12.308C238.639 10.5328 236.198 8.3138 231.677 9.47878C231.621 9.47878 226.934 10.8656 227.183 16.0526C225.713 14.527 222.745 12.5854 218.363 14.8321C218.307 14.8321 214.008 17.2175 215.45 22.2657C213.592 20.9898 210.374 19.8248 206.574 22.9037C206.547 22.9314 202.913 26.0658 205.16 30.6147C203.107 29.7271 199.779 29.2001 196.644 32.8337C196.617 32.8615 193.51 36.6338 196.644 40.7666C194.592 40.2951 191.152 40.2674 188.656 44.4002C188.656 44.4557 186.298 48.5886 189.904 52.0835C187.768 51.9448 184.523 52.5273 182.692 56.8266C182.692 56.8821 180.917 61.3478 185.05 64.3157C182.886 64.3712 179.697 65.2865 178.31 69.8077C178.31 69.8632 177.062 74.4399 181.416 76.964C179.281 77.2414 176.313 78.4896 175.342 82.9553C175.342 83.0108 174.482 87.6984 179.059 89.8342C176.923 90.3057 174.038 91.8036 173.511 96.4357C173.511 96.4912 173.123 100.985 177.478 102.788C175.397 103.426 172.79 105.118 172.485 109.583C172.485 109.639 172.346 114.049 176.646 115.686C174.565 116.24 172.069 117.821 171.514 122.037C171.514 122.093 171.098 125.976 174.538 128.029C172.651 128.389 170.488 129.554 169.212 132.827C169.212 132.883 167.881 136.516 170.654 139.318C168.74 139.235 166.438 139.9 164.413 142.674C164.386 142.702 162 146.197 164.469 149.775C162.472 149.192 159.781 149.331 157.118 152.243C157.091 152.271 154.04 155.849 156.786 159.954C154.65 159.289 151.377 159.178 148.631 163.006C148.603 163.061 145.885 167.083 149.352 170.883C147.299 170.467 143.86 170.578 141.502 174.766C141.502 174.822 139.172 179.232 143.277 182.671C141.086 182.588 137.98 183.337 136.288 187.581C136.288 187.636 134.568 192.241 138.95 195.126C136.759 195.292 133.431 196.346 132.377 201.145C132.377 201.2 131.489 205.749 135.844 207.968C133.708 208.412 130.768 209.854 130.158 214.486C130.158 214.542 129.686 219.424 134.623 221.116C132.543 221.809 129.686 223.612 129.742 228.411C129.742 228.466 129.936 233.07 134.623 234.263C132.571 235.151 129.991 237.176 130.407 241.891C130.407 241.946 131.017 246.884 136.343 247.411C134.512 248.52 132.099 250.933 133.181 255.593C133.181 255.649 134.401 260.198 139.394 260.225C137.314 262.001 136.038 264.885 137.619 268.741C137.619 268.796 139.644 273.345 144.858 272.319C143.416 273.983 142.057 276.896 144.359 280.89C144.387 280.945 147.022 285.189 152.015 283.442C151.432 284.302 150.877 285.467 150.739 286.853C150.572 288.74 151.238 290.598 152.736 292.373C152.764 292.401 155.87 295.896 160.253 293.788C159.864 294.62 159.559 295.646 159.587 296.811C159.615 298.67 160.502 300.417 162.222 301.998C162.305 302.081 164.247 303.801 166.937 303.635C168.047 303.579 169.101 303.191 170.1 302.525C169.767 303.413 169.517 304.522 169.683 305.743C169.933 307.573 170.987 309.21 172.901 310.569C172.929 310.569 174.621 311.762 176.867 311.762C178.032 311.762 179.364 311.429 180.667 310.43C180.473 311.373 180.362 312.455 180.667 313.62C181.111 315.423 182.359 316.921 184.384 318.058C184.412 318.058 185.771 318.751 187.546 318.751C188.933 318.751 190.597 318.308 192.123 316.838C192.012 317.753 192.04 318.835 192.428 319.916C193.038 321.664 194.453 323.023 196.589 323.966C196.589 323.966 197.754 324.438 199.279 324.438C200.805 324.438 202.747 323.938 204.272 322.052C204.272 322.968 204.383 324.022 204.855 325.048C205.631 326.684 207.157 327.877 209.376 328.543C209.376 328.543 210.152 328.737 211.206 328.737C212.843 328.737 215.201 328.265 216.837 325.935C216.893 326.823 217.142 327.794 217.697 328.737C218.64 330.318 220.249 331.344 222.551 331.816C222.551 331.816 223.023 331.899 223.716 331.899C225.325 331.899 228.21 331.455 229.818 328.46C229.985 329.292 230.29 330.179 230.9 331.011C231.982 332.482 233.702 333.369 236.004 333.619C236.004 333.619 236.115 333.619 236.392 333.619C237.585 333.619 241.302 333.286 242.883 329.652C243.132 330.484 243.548 331.372 244.242 332.149C245.462 333.508 247.265 334.201 249.595 334.201C249.595 334.201 254.81 334.09 256.113 329.264C256.973 331.4 258.943 334.09 263.547 334.09C263.713 334.09 267.597 333.952 269.954 331.344C270.731 330.484 271.203 329.458 271.452 328.293C273.033 331.427 276.001 331.899 277.638 331.899C278.331 331.899 278.775 331.816 278.803 331.816C281.077 331.344 282.714 330.318 283.657 328.737C284.211 327.822 284.433 326.823 284.517 325.935C286.125 328.265 288.511 328.737 290.147 328.737C291.229 328.737 291.978 328.543 292.006 328.543C294.225 327.877 295.75 326.684 296.527 325.048C297.026 324.022 297.137 322.968 297.109 322.052C298.663 323.966 300.577 324.438 302.102 324.438C303.628 324.438 304.765 323.966 304.793 323.966C306.928 323.023 308.315 321.664 308.926 319.916C309.314 318.835 309.342 317.753 309.231 316.838C310.728 318.308 312.393 318.751 313.807 318.751C315.61 318.751 316.969 318.058 316.997 318.058C318.994 316.921 320.242 315.423 320.686 313.648C320.964 312.483 320.88 311.401 320.686 310.458C321.99 311.456 323.321 311.789 324.486 311.789C326.705 311.789 328.425 310.624 328.453 310.597C330.339 309.238 331.421 307.629 331.643 305.77C331.809 304.55 331.559 303.468 331.226 302.553C332.225 303.218 333.279 303.607 334.389 303.662C334.499 303.662 334.61 303.662 334.694 303.662C337.218 303.662 338.993 302.081 339.076 301.998C340.796 300.417 341.683 298.67 341.711 296.811C341.711 295.646 341.406 294.62 341.018 293.788C342.044 294.287 342.987 294.481 343.875 294.481C346.704 294.481 348.535 292.429 348.59 292.373C350.088 290.598 350.754 288.74 350.587 286.853C350.449 285.439 349.866 284.274 349.284 283.414C350.143 283.719 350.948 283.858 351.669 283.858C355.164 283.858 356.939 280.945 356.967 280.89C358.132 278.893 358.465 276.923 357.965 275.093C357.66 273.955 357.05 273.012 356.44 272.319C356.967 272.43 357.466 272.485 357.938 272.485C362.043 272.485 363.652 268.796 363.679 268.741C365.316 264.691 363.818 261.89 361.904 260.253C366.869 260.198 368.062 255.649 368.09 255.593C368.617 253.347 368.367 251.377 367.368 249.768C366.675 248.687 365.76 247.938 364.927 247.438C370.253 246.911 370.836 241.946 370.836 241.891C371.03 239.589 370.53 237.675 369.31 236.233C368.506 235.262 367.507 234.679 366.619 234.291L366.536 234.208Z" fill="white"/>
<path d="M249.74 335.474C246.966 335.474 244.803 334.614 243.305 332.95C243.138 332.756 242.972 332.562 242.833 332.368C240.642 334.698 237.591 334.92 236.537 334.92C236.149 334.92 236.01 334.92 235.982 334.92C233.264 334.614 231.211 333.56 229.88 331.757C229.741 331.591 229.63 331.397 229.519 331.23C226.635 333.81 222.835 333.228 222.391 333.117C219.7 332.562 217.759 331.314 216.621 329.372C216.483 329.122 216.344 328.873 216.233 328.623C214.874 329.566 213.21 330.093 211.379 330.093C210.075 330.093 209.188 329.844 209.16 329.844C206.497 329.039 204.694 327.597 203.723 325.6C203.585 325.322 203.474 325.045 203.391 324.74C201.976 325.572 200.534 325.794 199.424 325.794C197.621 325.794 196.234 325.239 196.179 325.211C193.655 324.102 191.99 322.465 191.242 320.33C191.131 320.025 191.047 319.719 190.964 319.387C189.966 319.858 188.856 320.08 187.719 320.08C185.528 320.08 183.891 319.22 183.891 319.22C181.478 317.861 180.008 316.058 179.453 313.867C179.37 313.506 179.287 313.118 179.259 312.757C178.538 312.979 177.789 313.09 177.04 313.09C174.294 313.09 172.241 311.648 172.241 311.62C170.022 310.039 168.746 308.07 168.469 305.823C168.414 305.49 168.414 305.13 168.414 304.797C168.025 304.88 167.609 304.935 167.221 304.963C164.003 305.157 161.729 303.188 161.479 302.938C159.454 301.08 158.4 299 158.373 296.725C158.373 296.392 158.373 296.059 158.428 295.727C155.377 296.032 152.908 294.367 151.882 293.202C150.107 291.094 149.33 288.875 149.524 286.601C149.58 286.102 149.663 285.63 149.802 285.159C146.501 285.131 144.227 282.94 143.339 281.525C141.481 278.307 141.702 275.645 142.479 273.731C138.956 273.231 137.015 270.458 136.516 269.182C135.323 266.242 135.489 263.412 136.904 261.11C133.048 259.779 132.05 255.868 132.022 255.812C131.162 252.123 132.216 249.599 133.603 247.99C129.748 246.187 129.248 241.999 129.248 241.944C128.915 238.116 130.302 235.786 131.883 234.371C129.415 232.652 128.61 229.878 128.583 228.352C128.555 224.497 130.136 222.25 131.856 220.974C129.304 218.949 128.832 215.87 128.999 214.234C129.498 210.462 131.329 208.492 133.159 207.438C130.94 205.08 130.94 201.974 131.218 200.726C131.911 197.536 133.714 195.289 136.266 194.235C133.77 190.962 135.129 187.162 135.184 186.968C136.571 183.556 138.735 182.086 140.704 181.476C138.956 178.591 139.678 175.457 140.482 173.959C142.34 170.631 144.809 169.493 146.945 169.216C145.752 166.276 146.778 163.391 147.666 162.06C149.913 158.925 152.492 158.065 154.628 158.038C153.657 154.182 156.237 151.187 156.265 151.159C158.373 148.857 160.508 148.052 162.367 147.969C161.701 145.306 162.672 142.865 163.476 141.728C165.057 139.565 166.805 138.511 168.386 138.067C167.027 135.127 168.109 132.214 168.109 132.186C169.107 129.662 170.577 128.22 172.047 127.388C170.022 124.864 170.355 121.785 170.355 121.757C170.744 118.928 171.964 116.737 173.906 115.405C171.853 113.547 171.298 110.967 171.326 109.442C171.576 105.78 173.157 103.7 174.821 102.535C172.491 100.399 172.186 97.4037 172.325 96.1832C172.741 92.4664 174.516 90.4693 176.319 89.3875C174.1 87.1685 173.878 84.1451 174.183 82.5919C174.96 78.986 176.874 77.183 178.732 76.2677C176.568 73.7159 176.818 70.5261 177.206 69.3056C178.316 65.6997 180.452 64.0632 182.421 63.3421C180.618 60.707 181.006 57.7113 181.617 56.2135C183.114 52.7186 185.444 51.304 187.525 50.8047C186.027 47.7813 187.025 44.7025 187.691 43.593C189.355 40.847 191.741 39.2659 194.459 39.0718C193.433 35.9374 194.764 33.1082 195.818 31.8323C198.426 28.8366 201.172 28.2819 203.335 28.5038C202.919 25.1198 204.916 22.568 205.942 21.7359C209.049 19.2117 211.878 19.1563 214.014 19.7942C214.236 15.5504 217.925 13.5256 217.98 13.4978C221.586 11.6394 224.443 12.2774 226.329 13.3314C227.3 9.9197 230.268 8.3664 231.6 8.03355C235.344 7.06274 237.896 8.11676 239.532 9.4759C241.391 5.95324 245.302 5.4817 245.357 5.45397C247.854 5.20433 249.851 5.73134 251.349 6.97953C251.598 7.20143 251.82 7.42333 252.042 7.67296C254.317 5.53718 257.479 5.7036 257.922 5.73134C260.141 6.06419 261.667 6.97953 262.582 8.42188C262.666 8.56056 262.749 8.72699 262.832 8.89341C264.468 7.83939 266.798 7.20143 270.016 8.03355C271.652 8.50509 274.371 10.1416 275.286 13.3314C277.228 12.2219 280.029 11.6672 283.635 13.5256C284.855 14.1635 287.407 16.3548 287.602 19.8497C289.737 19.2117 292.567 19.2395 295.673 21.7636C296.949 22.8176 298.696 25.3417 298.308 28.5593C300.416 28.3374 303.19 28.8644 305.797 31.8323C306.879 33.1082 308.183 35.9652 307.184 39.0995C307.628 39.1272 308.072 39.2105 308.488 39.3214C310.707 39.8762 312.537 41.3185 313.952 43.6485C314.618 44.7857 315.644 47.8645 314.146 50.8602C314.507 50.9434 314.867 51.0544 315.2 51.193C317.336 52.0529 318.945 53.7449 319.999 56.2413C320.609 57.7668 320.997 60.7625 319.222 63.3975C319.555 63.5085 319.888 63.6749 320.193 63.8413C322.218 64.9231 323.632 66.7815 324.437 69.3611C324.825 70.6093 325.103 73.7713 322.939 76.3509C323.189 76.4896 323.438 76.6283 323.688 76.767C325.602 78.0152 326.878 79.9845 327.46 82.6196C327.46 82.6751 328.237 86.6138 325.352 89.4985C325.63 89.6649 325.907 89.8591 326.157 90.0532C327.96 91.4678 329.014 93.5759 329.319 96.2664C329.319 96.3219 329.679 100.066 326.85 102.618C327.072 102.785 327.266 102.951 327.488 103.118C329.208 104.615 330.179 106.751 330.345 109.469C330.4 110.662 329.984 113.491 327.765 115.488C327.849 115.544 327.932 115.627 328.015 115.683C329.846 117.07 330.955 119.122 331.316 121.813C331.316 121.868 331.676 124.947 329.624 127.471C331.343 128.442 332.647 130.051 333.535 132.242C333.535 132.297 334.644 135.182 333.285 138.15C335.144 138.677 336.78 139.897 338.167 141.784C338.833 142.699 339.998 145.223 339.276 148.052C341.135 148.163 343.271 148.94 345.351 151.214C346.211 152.157 347.82 154.903 346.987 158.121C347.376 158.121 347.764 158.149 348.152 158.232C350.399 158.592 352.341 159.896 353.922 162.115C354.698 163.197 355.947 166.165 354.671 169.299C355.059 169.355 355.42 169.41 355.78 169.521C357.971 170.131 359.774 171.629 361.106 174.015C361.91 175.54 362.631 178.647 360.912 181.559C361.189 181.642 361.466 181.753 361.716 181.864C363.824 182.752 365.405 184.499 366.404 186.996C366.903 188.244 367.43 191.517 365.35 194.291C365.793 194.485 366.209 194.679 366.626 194.956C368.567 196.177 369.843 198.146 370.426 200.809C370.426 200.864 371.174 204.664 368.512 207.521C368.817 207.688 369.122 207.882 369.399 208.104C371.202 209.491 372.312 211.571 372.672 214.262C372.839 215.621 372.506 218.894 369.815 221.057C370.148 221.307 370.453 221.557 370.731 221.834C372.339 223.47 373.144 225.662 373.116 228.38C373.116 229.628 372.423 232.624 369.788 234.427C370.065 234.676 370.342 234.954 370.564 235.231C372.034 236.979 372.672 239.225 372.423 241.944C372.423 241.999 371.951 246.215 368.068 248.018C368.318 248.295 368.539 248.601 368.734 248.906C369.954 250.847 370.259 253.177 369.649 255.812C369.233 257.393 367.763 260.056 364.767 261.138C366.182 263.44 366.348 266.269 365.155 269.21C365.072 269.404 363.408 273.204 359.164 273.758C359.275 274.036 359.386 274.341 359.469 274.646C360.079 276.865 359.691 279.167 358.332 281.525C358.082 281.941 355.947 285.186 351.841 285.214C351.98 285.686 352.063 286.157 352.119 286.656C352.313 288.931 351.536 291.15 349.789 293.23C349.678 293.341 347.487 295.837 343.992 295.837C343.742 295.837 343.465 295.837 343.215 295.782C343.243 296.115 343.271 296.448 343.271 296.753C343.215 299.027 342.189 301.108 340.164 302.966C340.053 303.049 337.695 305.157 334.422 304.991C334.034 304.991 333.618 304.908 333.23 304.824C333.23 305.185 333.23 305.518 333.174 305.851C332.869 308.097 331.621 310.039 329.402 311.648C329.319 311.703 327.322 313.09 324.603 313.09C323.827 313.09 323.105 312.979 322.384 312.757C322.357 313.146 322.273 313.506 322.19 313.867C321.635 316.058 320.165 317.861 317.835 319.192C317.586 319.303 316.005 320.08 313.924 320.08C312.787 320.08 311.678 319.83 310.679 319.387C310.624 319.692 310.513 320.025 310.402 320.33C309.653 322.465 307.989 324.102 305.492 325.184C305.437 325.211 304.078 325.794 302.219 325.794C301.11 325.794 299.667 325.572 298.253 324.74C298.169 325.017 298.031 325.322 297.92 325.6C296.949 327.625 295.146 329.039 292.539 329.844C292.317 329.899 291.457 330.121 290.264 330.121C288.434 330.121 286.769 329.622 285.41 328.651C285.299 328.901 285.161 329.15 285.022 329.4C283.885 331.341 281.943 332.59 279.253 333.144C279.086 333.172 278.559 333.255 277.81 333.255C275.508 333.255 273.511 332.506 272.013 331.12C271.763 331.536 271.486 331.896 271.181 332.257C268.463 335.252 264.219 335.447 263.747 335.474C260.613 335.474 258.089 334.337 256.397 332.229C254.538 334.781 251.46 335.558 249.768 335.558L249.74 335.474ZM243 328.068C243 328.068 243.055 328.068 243.083 328.068C243.693 328.096 244.192 328.512 244.359 329.095C244.581 329.871 244.941 330.509 245.413 331.036C246.356 332.09 247.798 332.617 249.712 332.617C249.851 332.617 253.845 332.479 254.844 328.734C255.01 328.152 255.537 327.708 256.147 327.68C256.757 327.625 257.34 328.013 257.562 328.568C258.616 331.175 260.668 332.506 263.664 332.506C263.664 332.506 267.048 332.395 268.99 330.232C269.572 329.594 269.933 328.817 270.155 327.846C270.266 327.264 270.765 326.792 271.375 326.709C271.985 326.626 272.568 326.931 272.845 327.486C274.01 329.816 276.174 330.315 277.755 330.315C278.309 330.315 278.67 330.26 278.67 330.26C280.501 329.871 281.804 329.067 282.526 327.874C282.886 327.264 283.108 326.515 283.191 325.711C283.247 325.1 283.663 324.601 284.245 324.435C284.828 324.268 285.438 324.49 285.799 324.99C287.879 327.985 291.707 327.042 291.734 327.042C293.482 326.515 294.73 325.572 295.34 324.324C295.673 323.63 295.812 322.854 295.784 321.966C295.784 321.356 296.145 320.801 296.727 320.579C297.31 320.357 297.948 320.552 298.336 321.023C299.334 322.271 300.638 322.882 302.219 322.882C303.44 322.882 304.355 322.521 304.355 322.521C306.075 321.772 307.212 320.69 307.683 319.331C307.933 318.61 308.016 317.778 307.905 316.89C307.822 316.28 308.155 315.697 308.682 315.42C309.237 315.143 309.875 315.254 310.318 315.67C311.345 316.668 312.537 317.168 313.897 317.168C315.339 317.168 316.448 316.613 316.448 316.613C318.029 315.725 319.028 314.533 319.389 313.118C319.583 312.341 319.583 311.481 319.389 310.594C319.25 310.011 319.5 309.401 320.027 309.068C320.526 308.735 321.192 308.763 321.663 309.124C322.578 309.817 323.549 310.15 324.603 310.15C326.351 310.15 327.738 309.235 327.765 309.207C329.291 308.097 330.179 306.822 330.345 305.379C330.456 304.575 330.345 303.743 330.012 302.855C329.79 302.273 329.984 301.635 330.456 301.246C330.927 300.858 331.621 300.83 332.12 301.163C332.98 301.718 333.784 301.995 334.589 302.051H334.838C336.808 302.051 338.25 300.775 338.278 300.775C339.692 299.471 340.414 298.084 340.441 296.614C340.441 295.837 340.275 295.033 339.887 294.229C339.637 293.674 339.748 293.036 340.164 292.592C340.58 292.176 341.246 292.065 341.8 292.315C342.549 292.675 343.298 292.87 344.02 292.87C346.183 292.87 347.625 291.261 347.653 291.261C348.874 289.818 349.428 288.321 349.29 286.823C349.206 285.88 348.846 284.964 348.236 284.049C347.875 283.55 347.903 282.856 348.291 282.385C348.679 281.886 349.317 281.691 349.9 281.913C353.866 283.3 355.836 280.11 355.919 279.999C356.862 278.363 357.139 276.782 356.751 275.339C356.529 274.563 356.141 273.814 355.531 273.12C355.142 272.649 355.059 271.983 355.392 271.456C355.725 270.929 356.307 270.652 356.917 270.763C357.361 270.846 357.777 270.901 358.138 270.901C361.244 270.901 362.52 268.128 362.576 268.017C363.963 264.577 362.576 262.386 361.189 261.166C360.745 260.777 360.579 260.139 360.773 259.585C360.967 259.03 361.494 258.642 362.104 258.642C365.849 258.614 366.82 255.396 366.931 255.036C367.347 253.205 367.18 251.596 366.376 250.32C365.932 249.599 365.266 248.961 364.407 248.462C363.88 248.157 363.602 247.519 363.741 246.909C363.88 246.298 364.379 245.855 364.989 245.799C369.011 245.411 369.566 241.916 369.621 241.528C369.788 239.641 369.372 238.088 368.401 236.951C367.874 236.313 367.125 235.786 366.237 235.398C365.682 235.148 365.322 234.593 365.377 233.983C365.433 233.373 365.849 232.873 366.459 232.707C370.037 231.792 370.259 228.324 370.259 228.186C370.259 226.3 369.76 224.774 368.706 223.72C368.096 223.11 367.319 222.638 366.348 222.333C365.766 222.139 365.377 221.612 365.35 220.974C365.322 220.336 365.738 219.809 366.32 219.615C370.065 218.339 369.871 214.872 369.843 214.456C369.593 212.597 368.872 211.155 367.68 210.24C367.014 209.74 366.237 209.38 365.294 209.213C364.684 209.102 364.24 208.603 364.157 207.993C364.074 207.383 364.379 206.8 364.934 206.523C368.262 204.831 367.68 201.391 367.652 201.253C367.236 199.422 366.404 198.063 365.128 197.231C364.351 196.732 363.436 196.454 362.354 196.371C361.744 196.343 361.217 195.899 361.078 195.317C360.912 194.734 361.161 194.096 361.688 193.764C365.017 191.572 363.935 188.272 363.796 187.911C363.103 186.164 362.021 184.971 360.634 184.361C359.913 184.055 359.081 183.917 358.193 183.945C357.583 183.945 357.028 183.612 356.806 183.029C356.585 182.447 356.751 181.809 357.223 181.42C360.329 178.813 358.831 175.623 358.637 175.263C357.722 173.626 356.501 172.572 355.059 172.184C354.227 171.962 353.312 171.934 352.341 172.128C351.731 172.239 351.12 171.962 350.815 171.435C350.51 170.908 350.593 170.214 351.009 169.771C353.617 166.886 351.814 163.974 351.62 163.641C350.51 162.115 349.206 161.2 347.736 160.95C346.904 160.811 346.017 160.895 345.101 161.172C344.519 161.339 343.881 161.172 343.52 160.673C343.16 160.174 343.132 159.536 343.465 159.036C345.573 155.874 343.326 153.156 343.215 153.045C341.468 151.131 339.471 150.438 337.335 151.048C336.752 151.214 336.142 150.992 335.781 150.493C335.421 149.994 335.421 149.356 335.781 148.857C337.668 146.138 335.92 143.476 335.837 143.365C334.727 141.839 333.396 140.924 331.926 140.702C331.621 140.646 331.288 140.646 330.872 140.674C330.289 140.702 329.735 140.369 329.485 139.842C329.235 139.315 329.346 138.677 329.762 138.261C331.87 136.125 330.927 133.324 330.872 133.213C330.179 131.465 329.124 130.273 327.738 129.662C327.432 129.524 327.072 129.44 326.628 129.357C326.046 129.246 325.574 128.802 325.491 128.22C325.38 127.637 325.657 127.055 326.157 126.75C328.736 125.197 328.487 122.256 328.487 122.118C328.237 120.259 327.488 118.817 326.295 117.929C325.768 117.513 325.13 117.208 324.354 117.014C323.743 116.848 323.327 116.321 323.3 115.71C323.272 115.1 323.632 114.518 324.215 114.296C327.516 113.048 327.46 109.719 327.46 109.58C327.349 107.694 326.711 106.224 325.574 105.226C325.019 104.726 324.298 104.338 323.494 104.088C322.911 103.922 322.523 103.395 322.495 102.785C322.467 102.175 322.828 101.62 323.383 101.398C326.711 100.039 326.489 96.627 326.489 96.4883C326.268 94.6299 325.574 93.1598 324.381 92.2445C323.743 91.7452 322.967 91.3846 322.051 91.1905C321.469 91.0518 320.997 90.5525 320.942 89.9423C320.886 89.3321 321.192 88.7496 321.746 88.4999C325.186 86.8912 324.686 83.5349 324.631 83.1466C324.243 81.2882 323.383 79.9291 322.135 79.1247C321.469 78.7086 320.692 78.4312 319.805 78.2925C319.194 78.2093 318.723 77.7655 318.584 77.1553C318.473 76.5451 318.751 75.9349 319.278 75.6298C322.606 73.6881 321.719 70.2209 321.691 70.0823C321.136 68.2793 320.193 66.9757 318.862 66.2822C318.113 65.8939 317.253 65.672 316.31 65.6443C315.7 65.6443 315.173 65.2282 314.978 64.6457C314.784 64.0632 315.006 63.4253 315.505 63.0647C318.612 60.8179 317.502 57.6004 317.364 57.2398C316.615 55.4923 315.533 54.3274 314.146 53.7726C313.397 53.4675 312.537 53.3566 311.594 53.412C310.984 53.4398 310.429 53.1069 310.18 52.5799C309.93 52.0252 310.041 51.3872 310.485 50.9711C313.231 48.2806 311.539 45.1463 311.456 45.0076C310.485 43.3988 309.237 42.3725 307.794 42.0119C306.935 41.79 306.019 41.8178 305.048 42.0674C304.466 42.2061 303.856 41.9565 303.523 41.4572C303.19 40.9579 303.218 40.2922 303.578 39.8207C305.936 36.6863 303.856 33.9403 303.606 33.6352C301.137 30.7783 298.53 31.0834 296.783 31.8046C296.228 32.0265 295.59 31.9155 295.174 31.4717C294.758 31.0279 294.675 30.3899 294.924 29.8629C296.588 26.4512 294.12 24.149 293.842 23.8994C291.457 21.9855 289.044 21.7913 286.714 23.3724C286.215 23.7052 285.549 23.7052 285.077 23.3724C284.578 23.0118 284.384 22.4016 284.55 21.8191C285.632 17.9913 282.664 16.1884 282.304 15.9942C279.558 14.5796 277.145 14.9124 275.203 16.965C274.787 17.4088 274.149 17.5198 273.594 17.2979C273.039 17.076 272.706 16.5212 272.734 15.911C272.928 11.9723 269.655 10.8628 269.267 10.7518C266.687 10.0861 264.607 10.6409 263.137 12.3883C262.749 12.8599 262.139 13.0263 261.584 12.8321C261.029 12.638 260.641 12.111 260.613 11.5285C260.613 10.8905 260.447 10.3358 260.169 9.9197C259.698 9.17079 258.865 8.72699 257.59 8.53283C257.368 8.53283 254.4 8.3664 253.179 10.8628C252.93 11.362 252.403 11.6949 251.82 11.6672C251.238 11.6394 250.738 11.2788 250.544 10.7241C250.295 10.0584 249.934 9.53137 249.49 9.14305C248.63 8.39414 247.327 8.11676 245.662 8.28319C245.552 8.28319 242.112 8.8102 241.53 12.4438C241.446 13.0263 241.003 13.4978 240.42 13.6088C239.838 13.7475 239.255 13.4978 238.922 12.9986C237.452 10.7796 235.205 10.0306 232.321 10.7796C231.988 10.8905 228.687 11.9723 228.881 15.911C228.909 16.4935 228.576 17.0482 228.021 17.2979C227.467 17.5475 226.829 17.4088 226.413 16.965C225.054 15.5504 222.724 14.2467 219.256 16.0219C218.951 16.1884 215.983 17.9913 217.065 21.8191C217.232 22.4016 217.01 23.0118 216.51 23.3724C216.011 23.733 215.373 23.733 214.874 23.3724C212.544 21.7913 210.131 21.9855 207.718 23.9549C207.468 24.1768 204.999 26.479 206.691 29.9184C206.969 30.4454 206.858 31.1111 206.442 31.5272C206.026 31.9432 205.388 32.0819 204.833 31.86C202.309 30.7505 199.979 31.3608 197.954 33.6907C197.732 33.9681 195.652 36.7141 198.01 39.8484C198.37 40.32 198.398 40.9857 198.065 41.4849C197.732 41.9842 197.122 42.2338 196.539 42.0952C193.849 41.4572 191.685 42.4557 190.104 45.0908C190.049 45.2018 188.357 48.3361 191.103 51.0266C191.519 51.4427 191.658 52.0806 191.408 52.6354C191.158 53.1901 190.604 53.523 189.993 53.4675C187.303 53.3011 185.361 54.577 184.196 57.323C184.085 57.6559 182.976 60.8457 186.082 63.0924C186.582 63.453 186.804 64.091 186.609 64.6735C186.443 65.2559 185.888 65.672 185.278 65.672C182.56 65.7552 180.757 67.253 179.869 70.1377C179.869 70.2487 178.982 73.7159 182.31 75.6298C182.837 75.9349 183.114 76.5451 183.004 77.1553C182.893 77.7655 182.393 78.2093 181.783 78.2925C179.176 78.6531 177.539 80.2896 176.901 83.1743C176.846 83.5072 176.374 86.8357 179.814 88.4722C180.368 88.7218 180.701 89.3043 180.618 89.9145C180.563 90.5248 180.091 91.024 179.509 91.1627C176.901 91.7452 175.403 93.5482 175.071 96.5438C175.071 96.6547 174.849 100.039 178.177 101.398C178.732 101.62 179.093 102.175 179.065 102.785C179.037 103.395 178.621 103.922 178.039 104.088C175.598 104.837 174.266 106.696 174.072 109.608C174.072 109.691 174.017 113.02 177.317 114.268C177.9 114.49 178.26 115.045 178.233 115.683C178.205 116.293 177.789 116.82 177.179 116.986C174.849 117.624 173.462 119.372 173.074 122.145C173.074 122.229 172.824 125.169 175.403 126.722C175.903 127.027 176.18 127.61 176.069 128.192C175.958 128.775 175.514 129.246 174.932 129.329C172.99 129.69 171.548 130.994 170.66 133.24C170.66 133.324 169.69 136.07 171.798 138.205C172.214 138.622 172.325 139.259 172.075 139.786C171.825 140.314 171.298 140.646 170.688 140.619C168.746 140.508 167.11 141.423 165.695 143.365C165.64 143.448 163.892 146.111 165.779 148.829C166.111 149.328 166.111 149.994 165.779 150.465C165.446 150.937 164.808 151.187 164.225 151.02C162.089 150.41 160.12 151.103 158.317 153.073C158.262 153.156 156.015 155.874 158.123 159.036C158.456 159.536 158.428 160.201 158.068 160.701C157.707 161.172 157.069 161.394 156.487 161.2C153.907 160.395 151.688 161.228 149.94 163.696C149.746 163.974 147.943 166.914 150.551 169.798C150.967 170.242 151.05 170.936 150.745 171.463C150.44 171.99 149.83 172.295 149.219 172.156C146.501 171.629 144.393 172.683 142.895 175.346C142.729 175.651 141.231 178.841 144.338 181.448C144.809 181.837 144.975 182.474 144.754 183.057C144.532 183.639 143.977 184 143.367 183.972C140.759 183.861 138.845 185.22 137.764 187.966C137.653 188.299 136.571 191.6 139.9 193.791C140.399 194.124 140.648 194.762 140.51 195.345C140.343 195.927 139.844 196.371 139.234 196.399C136.405 196.593 134.602 198.257 133.936 201.308C133.936 201.419 133.326 204.859 136.654 206.551C137.209 206.828 137.514 207.41 137.431 208.021C137.348 208.631 136.904 209.102 136.294 209.241C133.659 209.768 132.133 211.571 131.745 214.539C131.717 214.872 131.523 218.339 135.267 219.615C135.85 219.809 136.238 220.364 136.238 220.974C136.238 221.584 135.85 222.139 135.267 222.333C132.66 223.193 131.329 225.19 131.356 228.269C131.356 228.38 131.578 231.819 135.156 232.735C135.739 232.873 136.183 233.4 136.238 234.011C136.294 234.621 135.933 235.203 135.378 235.425C132.882 236.479 131.772 238.56 132.022 241.611C132.078 241.971 132.632 245.438 136.654 245.827C137.264 245.882 137.764 246.326 137.902 246.936C138.041 247.547 137.764 248.157 137.237 248.49C134.879 249.932 134.019 252.151 134.713 255.119C134.74 255.23 135.711 258.642 139.539 258.669C140.149 258.669 140.676 259.058 140.87 259.612C141.064 260.167 140.898 260.805 140.454 261.193C139.04 262.414 137.653 264.577 139.067 268.072C139.206 268.405 140.759 271.567 144.698 270.791C145.281 270.68 145.919 270.957 146.224 271.484C146.529 272.011 146.473 272.677 146.085 273.148C144.365 275.145 144.254 277.475 145.752 280.055C145.946 280.36 147.916 283.272 151.716 281.969C152.298 281.775 152.936 281.969 153.324 282.44C153.713 282.94 153.713 283.605 153.38 284.105C152.77 284.992 152.437 285.907 152.354 286.851C152.215 288.348 152.77 289.846 154.018 291.344C154.101 291.427 156.459 294.007 159.843 292.398C160.398 292.148 161.035 292.259 161.479 292.675C161.923 293.091 162.034 293.757 161.757 294.284C161.396 295.089 161.202 295.893 161.23 296.67C161.257 298.14 162.006 299.527 163.421 300.83C163.421 300.83 164.974 302.217 167.082 302.106C167.914 302.051 168.719 301.773 169.551 301.219C170.078 300.886 170.744 300.913 171.215 301.302C171.687 301.69 171.881 302.328 171.659 302.911C171.326 303.798 171.215 304.63 171.326 305.435C171.52 306.849 172.408 308.153 173.961 309.29C173.961 309.29 175.348 310.205 177.068 310.205C178.122 310.205 179.093 309.845 180.008 309.179C180.479 308.819 181.145 308.791 181.644 309.124C182.144 309.457 182.393 310.067 182.255 310.649C182.06 311.565 182.06 312.397 182.255 313.173C182.615 314.588 183.614 315.753 185.278 316.696C185.278 316.696 186.36 317.195 187.747 317.195C189.134 317.195 190.298 316.696 191.325 315.697C191.769 315.281 192.407 315.17 192.961 315.448C193.516 315.725 193.821 316.308 193.738 316.918C193.627 317.806 193.71 318.61 193.96 319.331C194.431 320.69 195.569 321.772 197.344 322.549C197.344 322.549 198.259 322.909 199.452 322.909C201.033 322.909 202.337 322.271 203.335 321.051C203.723 320.579 204.361 320.413 204.944 320.607C205.526 320.829 205.887 321.384 205.887 321.994C205.887 322.882 206.026 323.658 206.331 324.352C206.941 325.628 208.161 326.543 209.992 327.098C209.992 327.098 210.602 327.236 211.407 327.236C212.738 327.236 214.597 326.848 215.845 325.045C216.178 324.546 216.816 324.324 217.398 324.49C217.98 324.657 218.397 325.156 218.452 325.766C218.507 326.598 218.729 327.319 219.118 327.93C219.839 329.15 221.143 329.955 223.029 330.343C223.029 330.343 223.389 330.398 223.889 330.398C225.442 330.398 227.55 329.927 228.743 327.736C229.02 327.209 229.602 326.903 230.213 326.987C230.795 327.07 231.294 327.541 231.405 328.124C231.572 328.901 231.821 329.538 232.238 330.093C233.07 331.23 234.457 331.896 236.343 332.118C236.343 332.118 236.426 332.118 236.592 332.118C237.757 332.118 240.559 331.813 241.779 329.011C242.001 328.484 242.528 328.152 243.083 328.152L243 328.068Z" fill="black"/>
</g>
<path d="M227.3 80.5522C219.284 80.5522 212.738 72.9244 212.738 63.5769C212.738 54.2294 219.256 46.6016 227.3 46.6016C235.344 46.6016 241.862 54.2294 241.862 63.5769C241.862 72.9244 235.344 80.5522 227.3 80.5522ZM227.3 49.4308C220.837 49.4308 215.595 55.7549 215.595 63.5492C215.595 71.3434 220.837 77.6675 227.3 77.6675C233.763 77.6675 239.005 71.3434 239.005 63.5492C239.005 55.7549 233.763 49.4308 227.3 49.4308Z" fill="black"/>
<path d="M265.911 80.5522C257.895 80.5522 251.349 72.9244 251.349 63.5769C251.349 54.2294 257.867 46.6016 265.911 46.6016C273.955 46.6016 280.473 54.2294 280.473 63.5769C280.473 72.9244 273.955 80.5522 265.911 80.5522ZM265.911 49.4308C259.448 49.4308 254.206 55.7549 254.206 63.5492C254.206 71.3434 259.448 77.6675 265.911 77.6675C272.374 77.6675 277.616 71.3434 277.616 63.5492C277.616 55.7549 272.374 49.4308 265.911 49.4308Z" fill="black"/>
<path d="M246.772 100.218C253.39 100.218 258.754 95.3372 258.754 89.3168C258.754 83.2965 253.39 78.416 246.772 78.416C240.154 78.416 234.789 83.2965 234.789 89.3168C234.789 95.3372 240.154 100.218 246.772 100.218Z" fill="#F1614E"/>
<path d="M246.772 101.633C239.366 101.633 233.375 96.1129 233.375 89.2895C233.375 82.466 239.394 76.9463 246.772 76.9463C254.15 76.9463 260.169 82.466 260.169 89.2895C260.169 96.1129 254.15 101.633 246.772 101.633ZM246.772 79.831C240.947 79.831 236.232 84.0748 236.232 89.3172C236.232 94.5596 240.975 98.8034 246.772 98.8034C252.569 98.8034 257.312 94.5596 257.312 89.3172C257.312 84.0748 252.569 79.831 246.772 79.831Z" fill="black"/>
<path d="M260.53 129.398C286.742 128.316 291.984 120.466 291.984 120.466C291.984 120.466 295.923 116.527 294.619 111.063C293.315 105.571 289.737 104.378 289.737 104.378C289.737 104.378 285.077 101.993 277.117 104.85C269.128 107.707 253.041 108.345 253.041 108.345H241.613C241.613 108.345 225.525 107.735 217.537 104.85C209.548 101.993 204.916 104.378 204.916 104.378C204.916 104.378 201.338 105.571 200.034 111.063C198.731 116.555 202.669 120.466 202.669 120.466C202.669 120.466 207.912 128.344 234.124 129.398H260.585H260.53Z" fill="#F1614E"/>
<path d="M260.557 130.84H234.068C208.883 129.814 202.364 122.519 201.504 121.409C200.866 120.744 197.205 116.528 198.592 110.73C199.951 105.017 203.612 103.352 204.306 103.075C205.055 102.742 210.02 100.662 217.98 103.519C225.664 106.265 241.474 106.903 241.64 106.93H253.013C253.013 106.93 268.934 106.292 276.617 103.519C284.578 100.662 289.571 102.742 290.292 103.075C290.985 103.352 294.647 105.044 296.006 110.73C297.393 116.528 293.731 120.744 293.093 121.409C292.234 122.519 285.715 129.814 260.585 130.84H260.557ZM210.02 104.878C207.135 104.878 205.554 105.627 205.526 105.654L205.332 105.738C205.332 105.738 202.475 106.819 201.393 111.396C200.284 116.001 203.501 119.329 203.64 119.468L203.807 119.69C203.807 119.69 209.299 126.985 234.124 127.983H260.502C285.327 126.957 290.764 119.745 290.819 119.662L290.985 119.468C290.985 119.468 294.342 116.001 293.232 111.396C292.15 106.847 289.377 105.793 289.266 105.738L289.072 105.654C289.072 105.654 284.8 103.63 277.56 106.209C269.461 109.122 253.706 109.76 253.041 109.787H241.557C240.836 109.787 225.081 109.122 216.982 106.209C214.18 105.211 211.823 104.906 209.964 104.906L210.02 104.878Z" fill="black"/>
<path d="M247.438 119.94C225.997 119.94 209.826 115.779 209.576 115.724C208.799 115.529 208.356 114.753 208.55 113.976C208.744 113.199 209.521 112.756 210.297 112.95C210.658 113.033 246.301 122.214 281.804 112.95C282.553 112.756 283.358 113.199 283.552 113.976C283.746 114.753 283.302 115.529 282.526 115.724C270.377 118.886 258.228 119.94 247.438 119.94Z" fill="black"/>
<g clip-path="url(#clip1_4757_51354)">
<path d="M332.41 166.968L347.303 186.388C347.303 186.388 370.08 176.832 380.993 163.008C391.907 149.184 367.512 139.78 367.512 139.78C367.512 139.78 365.124 152.378 332.41 166.943V166.968Z" fill="white"/>
<path d="M380.12 151.432C380.454 151.432 380.788 151.305 381.045 151.049C381.302 150.794 387.259 144.917 386.026 138.528C385.641 136.459 384.666 134.925 383.176 133.954C380.711 132.37 377.707 133.035 377.578 133.06C376.859 133.239 376.423 133.929 376.602 134.644C376.782 135.36 377.476 135.794 378.195 135.615C378.246 135.615 380.275 135.181 381.764 136.152C382.611 136.714 383.176 137.66 383.433 138.988C384.383 143.997 379.247 149.082 379.196 149.133C378.682 149.644 378.657 150.487 379.196 150.998C379.453 151.254 379.787 151.381 380.146 151.381L380.12 151.432Z" fill="black"/>
<path fill-rule="evenodd" clip-rule="evenodd" d="M332.384 167.556C332.282 167.607 332.076 167.607 332.076 167.607L332.05 167.582C331.46 167.582 330.921 167.173 330.766 166.585C330.587 165.895 331.023 165.18 331.742 165.001C331.948 164.975 351.515 159.967 363.892 141.697L367.435 135.641C367.438 135.636 367.441 135.63 367.445 135.622C367.668 135.171 370.602 129.25 375.37 130.53C379.273 131.578 379.787 134.67 379.504 136.229C379.453 137.072 378.862 142.438 374.24 147.83C373.752 148.392 372.93 148.443 372.366 147.983C371.801 147.497 371.724 146.68 372.211 146.118C376.525 141.109 376.859 136.05 376.859 135.999V135.794C376.911 135.59 377.193 133.776 374.651 133.086C372.032 132.377 369.892 136.654 369.775 136.887L369.772 136.893L366.126 143.128C353.158 162.267 333.232 167.352 332.384 167.556ZM349.101 186.95C348.895 187.053 348.69 187.104 348.485 187.104L348.51 187.129C348.022 187.129 347.56 186.874 347.329 186.414C346.995 185.749 347.252 184.957 347.894 184.625C380.043 167.939 388.671 149.72 389.159 144.661C389.288 143.332 389.082 142.438 388.517 141.978C387.644 141.262 385.872 141.543 385.333 141.697C384.614 141.901 383.895 141.492 383.69 140.802C383.484 140.112 383.895 139.371 384.588 139.167C384.948 139.065 388.081 138.222 390.186 139.959C391.445 141.007 391.984 142.668 391.778 144.916C391.239 150.742 382.483 169.651 349.101 186.95Z" fill="black"/>
<path d="M408.649 120.974C408.649 120.974 408.906 98.2318 413.656 84.4334C418.407 70.635 412.783 62.8925 403.308 62.4326C393.833 61.9726 372.109 68.5396 386.181 118.981C386.181 118.981 402.82 124.27 408.649 120.974Z" fill="white"/>
<path d="M385.77 120.258L385.076 120.053L384.897 119.364C378.194 95.3185 378.708 78.2749 386.386 68.6927C392.241 61.4102 400.227 60.9758 403.385 61.1036C408.136 61.3335 412.039 63.3011 414.324 66.674C416.404 69.7148 418.201 75.3619 414.915 84.842C410.293 98.2826 409.959 120.743 409.959 120.973V121.74L409.291 122.123C407.673 123.043 405.414 123.375 402.923 123.375C395.913 123.375 387.054 120.641 385.77 120.232V120.258ZM412.424 84.0243C414.735 77.3295 414.632 71.8612 412.141 68.1816C410.293 65.4731 407.237 63.9399 403.257 63.761C400.509 63.6333 393.55 64.0166 388.466 70.3281C383.613 76.384 379.478 89.5436 387.259 117.958C391.984 119.389 402.717 121.944 407.339 120.156C407.442 115.888 408.11 96.5451 412.424 84.0243Z" fill="black"/>
<path d="M416.558 142.387C416.558 142.387 420.744 108.99 389.416 112.133C358.063 115.275 362.222 130.275 362.222 130.275C362.222 130.275 363.84 140.036 368.129 139.653C368.129 139.653 361.581 142.719 362.556 150.589C363.532 158.434 372.057 161.372 372.057 161.372C372.057 161.372 366.28 162.982 367.846 170.418C369.412 177.828 379.478 183.859 391.932 182.147C404.386 180.435 414.427 170.111 416.558 142.387Z" fill="white"/>
<path d="M367.23 170.571C366.228 165.869 367.897 162.956 369.823 161.372C366.973 159.787 362.633 156.466 361.914 150.64C361.272 145.504 363.609 141.926 365.92 139.908C362.916 137.531 361.76 131.475 361.581 130.428C361.426 129.789 360.63 125.854 363.583 121.561C367.615 115.709 376.474 112.055 389.93 110.701C399.199 109.781 406.441 111.876 411.397 116.936C420.333 126.058 418.664 141.39 418.535 142.412C416.609 167.479 407.956 181.252 392.78 183.347C391.445 183.526 390.084 183.628 388.723 183.628C379.068 183.628 369.027 179.131 367.23 170.571ZM390.186 113.333C374.522 114.892 368.283 119.44 365.817 122.992C363.327 126.544 364.123 129.687 364.148 129.814C364.148 129.865 364.148 129.916 364.174 129.942C364.611 132.625 366.357 138.4 368.668 138.221C369.31 138.17 369.9 138.579 370.054 139.192C370.208 139.805 369.926 140.444 369.335 140.725C369.284 140.751 363.686 143.485 364.508 150.307C365.355 157.232 373.059 159.992 373.136 160.017C373.675 160.196 374.035 160.733 374.035 161.295C374.035 161.857 373.624 162.368 373.059 162.522C372.879 162.573 368.488 163.876 369.798 170.009C371.159 176.473 380.172 182.402 392.395 180.715C406.158 178.824 414.067 165.869 415.865 142.156V142.105C415.865 141.952 417.637 127.055 409.471 118.75C405.799 114.994 400.612 113.128 394.038 113.128C392.805 113.128 391.522 113.205 390.186 113.333Z" fill="black"/>
<path d="M368.796 140.853C368.796 140.853 368.976 140.853 369.079 140.827C381.687 138.119 387.721 138.068 387.798 138.068C388.517 138.068 389.133 137.48 389.133 136.739C389.133 136.023 388.543 135.41 387.824 135.41C387.567 135.41 381.507 135.41 368.539 138.221C367.82 138.374 367.358 139.064 367.538 139.78C367.666 140.393 368.231 140.827 368.822 140.827L368.796 140.853Z" fill="black"/>
<path d="M372.725 162.573C372.725 162.573 372.828 162.573 372.879 162.573L388.671 160.657C389.39 160.58 389.904 159.916 389.827 159.2C389.75 158.485 389.082 157.974 388.363 158.051L372.571 159.967C371.852 160.044 371.338 160.708 371.415 161.424C371.492 162.088 372.057 162.573 372.725 162.573Z" fill="black"/>
</g>
<path d="M227.383 72.342C230.876 72.342 233.708 68.4426 233.708 63.6324C233.708 58.8223 230.876 54.9229 227.383 54.9229C223.891 54.9229 221.059 58.8223 221.059 63.6324C221.059 68.4426 223.891 72.342 227.383 72.342Z" fill="black"/>
<path d="M265.994 72.342C269.487 72.342 272.318 68.4426 272.318 63.6324C272.318 58.8223 269.487 54.9229 265.994 54.9229C262.501 54.9229 259.67 58.8223 259.67 63.6324C259.67 68.4426 262.501 72.342 265.994 72.342Z" fill="black"/>
<defs>
<clipPath id="clip0_4757_51354">
<rect width="245" height="244" fill="white" transform="translate(127.741 6)"/>
</clipPath>
<clipPath id="clip1_4757_51354">
<rect width="88" height="126" fill="white" transform="translate(330.741 61.1035)"/>
</clipPath>
</defs>
</svg>
