<svg width="344" height="270" viewBox="0 0 344 270" fill="none" xmlns="http://www.w3.org/2000/svg">
<g clip-path="url(#clip0_4757_51028)">
<path d="M183.313 201.726L83.3116 227.316L84.8681 243.341L187.374 238.776L183.313 201.726Z" fill="white"/>
<path d="M84.8681 244.603C84.2358 244.603 83.6764 244.118 83.6278 243.462L82.0714 227.413C82.0227 226.806 82.4118 226.224 83.0198 226.078L183.021 200.487C183.361 200.39 183.751 200.487 184.042 200.682C184.334 200.876 184.529 201.216 184.577 201.58L188.663 238.631C188.712 238.971 188.59 239.311 188.371 239.578C188.152 239.845 187.812 239.99 187.471 240.015L84.9654 244.603H84.9167H84.8681ZM84.6492 228.263L85.9868 242.054L185.964 237.587L182.194 203.304L84.6492 228.263Z" fill="black"/>
<path d="M337.546 274.492C341.656 273.448 341.826 269.417 341.826 269.369C341.826 267.329 341.267 265.703 340.1 264.537C339.297 263.736 338.373 263.275 337.546 263.007C341.899 261.526 341.462 257.253 341.462 257.18C341.194 255.165 340.391 253.636 339.078 252.616C338.227 251.96 337.303 251.645 336.476 251.475C340.294 249.557 339.54 245.55 339.54 245.502C339.103 243.511 338.178 242.054 336.768 241.18C335.746 240.525 334.652 240.306 333.752 240.233C337.595 237.708 336.111 233.678 336.087 233.629C335.333 231.735 334.166 230.473 332.634 229.817C331.709 229.429 330.761 229.332 329.958 229.356C333.558 226.345 331.539 222.485 331.515 222.436C330.518 220.664 329.205 219.547 327.599 219.11C326.505 218.819 325.484 218.867 324.633 219.061C327.672 215.711 325.313 212.19 325.265 212.142C324.073 210.491 322.663 209.519 321.009 209.252C319.939 209.082 318.942 209.252 318.115 209.495C320.523 205.902 317.847 202.77 317.799 202.745C315.488 200.22 313.105 200.099 311.354 200.609C313.519 197.477 311.427 194.417 311.403 194.369C310.211 192.718 308.776 191.771 307.123 191.504C306.709 191.431 306.32 191.431 305.931 191.455C308.387 188.979 307.22 185.774 307.196 185.725C306.442 183.832 305.274 182.545 303.767 181.913C303.353 181.743 302.94 181.622 302.526 181.549C305.518 179.753 305.177 176.353 305.177 176.305C304.91 174.29 304.107 172.76 302.769 171.765C302.088 171.23 301.335 170.939 300.654 170.745C304.447 169.337 304.326 165.452 304.302 165.403C304.18 163.388 303.475 161.786 302.21 160.717C301.481 160.086 300.678 159.698 299.924 159.479C303.742 157.901 303.426 153.968 303.426 153.919C303.183 151.904 302.429 150.35 301.116 149.33C300.289 148.675 299.389 148.335 298.587 148.165C302.599 146.295 301.821 142.168 301.821 142.119C301.383 140.128 300.459 138.671 299.073 137.773C298.222 137.239 297.322 136.972 296.519 136.875C300.313 134.665 299.219 130.659 299.194 130.61C298.611 128.668 297.565 127.284 296.082 126.507C295.109 125.997 294.136 125.827 293.285 125.803C296.908 123.205 295.376 119.272 295.352 119.223C294.549 117.354 293.358 116.091 291.826 115.484C290.829 115.096 289.856 115.023 289.029 115.096C292.166 112.037 290.123 108.395 290.099 108.346C289.053 106.598 287.691 105.53 286.086 105.141C284.968 104.874 283.922 104.971 283.071 105.19C285.819 101.572 283.119 98.27 283.071 98.2214C280.517 95.3079 277.672 95.405 275.629 96.2791C277.575 92.3215 274.389 89.6022 274.364 89.5536C271.057 86.8586 268.187 87.9269 266.582 89.0194C267.847 84.6005 264.077 82.5125 264.029 82.4882C260.211 80.5216 257.633 82.1483 256.295 83.5565C256.514 78.9919 252.404 77.8022 252.355 77.778C248.902 76.8796 246.859 78.1907 245.668 79.6232C245.668 78.9434 245.497 78.215 245.084 77.5837C244.476 76.6368 243.43 76.0298 241.971 75.8113C241.922 75.8113 238.275 75.4714 236.791 78.5306C236.548 77.8508 236.134 77.171 235.502 76.6125C234.481 75.7385 233.022 75.3743 231.198 75.5685C231.149 75.5685 227.136 76.0784 226.455 80.2545C225.41 78.7006 223.269 76.7582 219.305 77.778C219.257 77.778 215.147 78.9919 215.366 83.5322C214.077 82.1969 211.475 80.4973 207.632 82.4639C207.584 82.4639 203.814 84.552 205.079 88.9709C203.449 87.854 200.628 86.8343 197.296 89.5293C197.272 89.5536 194.086 92.2972 196.056 96.2791C194.257 95.5021 191.338 95.0408 188.59 98.2214C188.566 98.2457 185.842 101.548 188.59 105.165C186.79 104.753 183.775 104.728 181.586 108.346C181.586 108.395 179.519 112.012 182.681 115.072C180.808 114.95 177.963 115.46 176.357 119.223C176.357 119.272 174.801 123.181 178.425 125.779C176.528 125.827 173.731 126.629 172.515 130.586C172.515 130.635 171.421 134.641 175.239 136.85C173.366 137.093 170.764 138.186 169.913 142.095C169.913 142.143 169.159 146.247 173.172 148.116C171.299 148.529 168.77 149.84 168.308 153.895C168.308 153.943 167.967 157.877 171.785 159.455C169.961 160.013 167.675 161.494 167.408 165.403C167.408 165.452 167.286 169.312 171.056 170.745C169.232 171.23 167.043 172.614 166.557 176.305C166.557 176.353 166.192 179.753 169.208 181.549C167.554 181.865 165.657 182.885 164.538 185.75C164.538 185.798 163.371 188.979 165.803 191.431C164.125 191.358 162.106 191.941 160.331 194.369C160.307 194.393 158.215 197.452 160.38 200.584C158.629 200.075 156.27 200.196 153.935 202.745C153.911 202.77 151.236 205.902 153.643 209.495C151.771 208.912 148.901 208.815 146.493 212.166C146.469 212.214 144.086 215.735 147.126 219.061C145.326 218.697 142.31 218.794 140.243 222.46C140.243 222.509 138.2 226.369 141.8 229.38C139.878 229.307 137.155 229.963 135.671 233.678C135.671 233.726 134.163 237.757 138.006 240.282C136.085 240.427 133.166 241.35 132.242 245.55C132.242 245.599 131.464 249.581 135.282 251.523C133.41 251.912 130.832 253.174 130.297 257.229C130.297 257.277 129.883 261.551 134.212 263.032C132.388 263.639 129.883 265.217 129.932 269.417C129.932 269.466 130.102 273.496 134.212 274.54C132.412 275.317 130.151 277.09 130.516 281.217C130.516 281.266 131.051 285.588 135.72 286.049C134.115 287.02 131.999 289.132 132.947 293.211C132.947 293.26 134.017 297.242 138.395 297.266C136.571 298.82 135.452 301.345 136.839 304.72C136.839 304.769 138.614 308.75 143.186 307.852C141.921 309.309 140.73 311.858 142.748 315.354C142.772 315.403 145.083 319.118 149.46 317.588C148.95 318.341 148.463 319.361 148.342 320.575C148.196 322.226 148.779 323.852 150.093 325.406C150.117 325.43 152.841 328.49 156.683 326.644C156.343 327.373 156.075 328.271 156.099 329.291C156.124 330.918 156.902 332.447 158.41 333.831C158.483 333.904 160.185 335.409 162.544 335.264C163.517 335.215 164.441 334.875 165.317 334.293C165.025 335.07 164.806 336.041 164.952 337.109C165.171 338.711 166.095 340.144 167.773 341.334C167.797 341.334 169.281 342.378 171.25 342.378C172.272 342.378 173.439 342.086 174.582 341.212C174.412 342.038 174.315 342.985 174.582 344.004C174.971 345.583 176.066 346.894 177.841 347.889C177.865 347.889 179.057 348.496 180.613 348.496C181.829 348.496 183.288 348.108 184.626 346.821C184.529 347.622 184.553 348.569 184.894 349.516C185.429 351.046 186.669 352.235 188.541 353.061C188.541 353.061 189.563 353.474 190.9 353.474C192.238 353.474 193.94 353.036 195.278 351.385C195.278 352.187 195.375 353.109 195.789 354.008C196.47 355.44 197.807 356.484 199.753 357.067C199.753 357.067 200.434 357.237 201.358 357.237C202.793 357.237 204.86 356.824 206.295 354.785C206.343 355.562 206.562 356.411 207.048 357.237C207.875 358.621 209.286 359.519 211.304 359.932C211.304 359.932 211.718 360.005 212.326 360.005C213.736 360.005 216.266 359.616 217.676 356.994C217.822 357.722 218.089 358.499 218.624 359.228C219.573 360.515 221.081 361.292 223.099 361.51C223.099 361.51 223.197 361.51 223.44 361.51C224.485 361.51 227.744 361.219 229.13 358.038C229.349 358.766 229.714 359.543 230.322 360.223C231.392 361.413 232.973 362.02 235.016 362.02C235.016 362.02 239.588 361.923 240.731 357.698C241.485 359.568 243.211 361.923 247.248 361.923C247.394 361.923 250.799 361.801 252.866 359.519C253.547 358.766 253.961 357.868 254.179 356.848C255.566 359.592 258.168 360.005 259.603 360.005C260.211 360.005 260.6 359.932 260.624 359.932C262.618 359.519 264.053 358.621 264.88 357.237C265.366 356.436 265.561 355.562 265.634 354.785C267.044 356.824 269.136 357.237 270.571 357.237C271.519 357.237 272.176 357.067 272.2 357.067C274.146 356.484 275.483 355.44 276.164 354.008C276.602 353.109 276.699 352.187 276.675 351.385C278.037 353.061 279.715 353.474 281.052 353.474C282.39 353.474 283.387 353.061 283.411 353.061C285.284 352.235 286.5 351.046 287.035 349.516C287.375 348.569 287.4 347.622 287.302 346.821C288.616 348.108 290.075 348.496 291.315 348.496C292.896 348.496 294.087 347.889 294.112 347.889C295.863 346.894 296.957 345.583 297.346 344.029C297.589 343.009 297.516 342.062 297.346 341.237C298.489 342.111 299.657 342.402 300.678 342.402C302.624 342.402 304.131 341.382 304.156 341.358C305.809 340.168 306.758 338.76 306.952 337.133C307.098 336.065 306.879 335.118 306.588 334.317C307.463 334.9 308.387 335.24 309.36 335.288C309.457 335.288 309.555 335.288 309.627 335.288C311.841 335.288 313.397 333.904 313.47 333.831C314.978 332.447 315.756 330.918 315.78 329.291C315.78 328.271 315.513 327.373 315.172 326.644C316.072 327.081 316.899 327.251 317.677 327.251C320.158 327.251 321.763 325.455 321.811 325.406C323.125 323.852 323.708 322.226 323.562 320.575C323.441 319.336 322.93 318.317 322.419 317.564C323.173 317.831 323.879 317.952 324.511 317.952C327.575 317.952 329.132 315.403 329.156 315.354C330.177 313.606 330.469 311.882 330.031 310.28C329.764 309.285 329.229 308.459 328.694 307.852C329.156 307.949 329.594 307.998 330.007 307.998C333.606 307.998 335.017 304.769 335.041 304.72C336.476 301.175 335.163 298.723 333.485 297.29C337.838 297.242 338.884 293.26 338.908 293.211C339.37 291.245 339.151 289.521 338.276 288.113C337.668 287.166 336.865 286.51 336.136 286.073C340.805 285.612 341.316 281.266 341.316 281.217C341.486 279.202 341.048 277.527 339.978 276.264C339.273 275.414 338.397 274.905 337.619 274.565L337.546 274.492Z" fill="white"/>
<path d="M234.943 363.185C232.511 363.185 230.614 362.433 229.301 360.976C229.155 360.806 229.009 360.636 228.887 360.466C226.966 362.505 224.291 362.7 223.367 362.7C223.026 362.7 222.905 362.7 222.905 362.7C220.497 362.433 218.697 361.51 217.53 359.932C217.409 359.786 217.311 359.616 217.214 359.446C215.925 360.587 214.198 361.219 212.253 361.219C211.596 361.219 211.11 361.146 210.988 361.121C208.629 360.636 206.927 359.543 205.93 357.844C205.808 357.625 205.687 357.407 205.589 357.188C204.398 358.014 202.938 358.475 201.333 358.475C200.19 358.475 199.412 358.256 199.388 358.256C197.053 357.552 195.472 356.29 194.621 354.542C194.5 354.299 194.402 354.056 194.329 353.789C193.089 354.517 191.825 354.712 190.852 354.712C189.271 354.712 188.055 354.226 188.006 354.202C185.793 353.231 184.334 351.798 183.678 349.929C183.58 349.661 183.507 349.394 183.434 349.103C182.559 349.516 181.586 349.71 180.589 349.71C178.668 349.71 177.233 348.957 177.233 348.957C175.117 347.768 173.828 346.189 173.342 344.271C173.269 343.956 173.196 343.616 173.172 343.3C172.539 343.494 171.883 343.592 171.226 343.592C168.818 343.592 167.019 342.329 167.019 342.305C165.073 340.921 163.955 339.197 163.711 337.23C163.663 336.939 163.663 336.623 163.663 336.332C163.322 336.405 162.958 336.453 162.617 336.478C159.796 336.648 157.802 334.924 157.583 334.705C155.808 333.078 154.883 331.257 154.859 329.267C154.859 328.975 154.859 328.684 154.908 328.392C152.208 328.66 150.068 327.203 149.168 326.183C147.612 324.338 146.931 322.395 147.101 320.404C147.15 319.967 147.223 319.555 147.344 319.142C144.45 319.118 142.456 317.2 141.678 315.961C140.049 313.145 140.243 310.814 140.924 309.139C137.836 308.702 136.133 306.274 135.696 305.157C134.65 302.583 134.796 300.107 136.036 298.091C132.656 296.926 131.78 293.503 131.756 293.454C131.002 290.225 131.926 288.015 133.142 286.607C129.762 285.029 129.324 281.363 129.324 281.314C129.032 277.964 130.248 275.924 131.634 274.686C129.47 273.181 128.765 270.753 128.74 269.417C128.716 266.042 130.102 264.076 131.61 262.959C129.372 261.186 128.959 258.491 129.105 257.059C129.543 253.757 131.148 252.033 132.753 251.11C130.807 249.047 130.807 246.327 131.051 245.235C131.658 242.442 133.239 240.476 135.477 239.553C133.288 236.688 134.48 233.362 134.528 233.192C135.744 230.206 137.641 228.919 139.368 228.385C137.836 225.859 138.468 223.116 139.173 221.805C140.803 218.891 142.967 217.896 144.84 217.653C143.794 215.079 144.694 212.554 145.472 211.389C147.442 208.645 149.703 207.893 151.576 207.868C150.725 204.493 152.987 201.871 153.011 201.847C154.859 199.832 156.732 199.128 158.361 199.055C157.777 196.724 158.629 194.587 159.334 193.592C160.72 191.698 162.252 190.775 163.638 190.387C162.447 187.813 163.395 185.264 163.395 185.24C164.271 183.03 165.56 181.768 166.849 181.039C165.073 178.83 165.365 176.135 165.365 176.11C165.706 173.634 166.776 171.716 168.478 170.55C166.678 168.924 166.192 166.666 166.216 165.33C166.435 162.125 167.821 160.304 169.281 159.285C167.238 157.415 166.97 154.793 167.092 153.725C167.457 150.471 169.013 148.723 170.594 147.776C168.648 145.834 168.454 143.187 168.721 141.828C169.402 138.671 171.08 137.093 172.71 136.292C170.813 134.058 171.032 131.266 171.372 130.198C172.345 127.041 174.217 125.609 175.944 124.977C174.363 122.671 174.704 120.049 175.239 118.738C176.552 115.678 178.595 114.44 180.419 114.003C179.106 111.357 179.981 108.662 180.565 107.69C182.024 105.287 184.115 103.903 186.499 103.733C185.599 100.989 186.766 98.5126 187.69 97.3958C189.976 94.7736 192.384 94.288 194.281 94.4822C193.916 91.5201 195.667 89.2864 196.567 88.558C199.291 86.3485 201.771 86.3 203.644 86.8584C203.838 83.1436 207.073 81.3712 207.121 81.3469C210.283 79.7202 212.788 80.2786 214.442 81.2012C215.293 78.2148 217.895 76.8552 219.062 76.5638C222.345 75.714 224.583 76.6367 226.018 77.8264C227.647 74.7428 231.076 74.3301 231.125 74.3058C233.313 74.0873 235.064 74.5486 236.378 75.6412C236.596 75.8354 236.791 76.0297 236.986 76.2482C238.98 74.3787 241.752 74.5243 242.141 74.5486C244.087 74.84 245.424 75.6412 246.227 76.9037C246.3 77.0251 246.373 77.1708 246.446 77.3165C247.881 76.3939 249.923 75.8354 252.745 76.5638C254.179 76.9766 256.563 78.4091 257.365 81.2012C259.068 80.2301 261.524 79.7445 264.685 81.3712C265.755 81.9296 267.993 83.8477 268.163 86.907C270.036 86.3485 272.516 86.3728 275.24 88.5823C276.359 89.5049 277.891 91.7143 277.55 94.5308C279.398 94.3608 281.83 94.7978 284.116 97.3958C285.065 98.5126 286.208 101.013 285.332 103.757C285.722 103.781 286.111 103.854 286.475 103.951C288.421 104.437 290.026 105.699 291.266 107.739C291.291 107.787 293.066 110.871 291.461 114.076C291.777 114.149 292.093 114.246 292.385 114.367C294.258 115.12 295.668 116.601 296.592 118.786C297.127 120.122 297.468 122.768 295.887 125.05C296.179 125.147 296.471 125.293 296.738 125.439C298.514 126.386 299.754 128.012 300.459 130.27C300.8 131.363 301.018 134.131 299.146 136.389C299.365 136.51 299.608 136.632 299.802 136.753C301.48 137.846 302.599 139.57 303.11 141.876C303.377 143.284 303.207 145.931 301.262 147.873C301.505 148.019 301.748 148.189 301.967 148.359C303.548 149.597 304.472 151.442 304.739 153.797C304.861 155.133 304.472 157.609 302.551 159.357C302.745 159.503 302.94 159.649 303.11 159.795C304.618 161.106 305.469 162.975 305.615 165.355C305.663 166.399 305.299 168.875 303.353 170.623C303.426 170.672 303.499 170.745 303.572 170.793C305.177 172.007 306.15 173.804 306.466 176.159C306.466 176.329 306.758 178.951 305.007 181.112C306.515 181.962 307.658 183.37 308.436 185.288C308.484 185.434 309.384 187.935 308.217 190.46C309.846 190.921 311.281 191.989 312.497 193.64C312.521 193.665 314.248 196.117 313.494 199.128C315.124 199.225 316.996 199.905 318.82 201.895C319.574 202.721 320.985 205.125 320.255 207.941C320.595 207.941 320.936 207.965 321.276 208.038C323.246 208.354 324.949 209.495 326.335 211.437C326.359 211.486 328.378 214.424 327.016 217.726C327.332 217.774 327.672 217.823 327.989 217.92C329.91 218.454 331.491 219.765 332.658 221.853C332.682 221.902 334.433 225.228 332.488 228.457C332.731 228.53 332.974 228.603 333.193 228.7C335.041 229.477 336.427 231.007 337.303 233.192C337.741 234.285 338.203 237.15 336.379 239.577C336.768 239.747 337.133 239.917 337.497 240.16C339.2 241.229 340.318 242.952 340.829 245.283C341.097 246.643 340.951 249.192 339.127 251.159C339.394 251.305 339.662 251.499 339.905 251.669C341.486 252.883 342.459 254.704 342.775 257.059C342.945 258.516 342.532 261.211 340.27 263.007C340.562 263.226 340.805 263.444 341.048 263.687C342.459 265.12 343.164 267.038 343.14 269.417C343.14 269.466 343.018 272.816 340.245 274.734C340.489 274.953 340.732 275.196 340.926 275.439C342.215 276.968 342.775 278.935 342.556 281.314C342.386 282.82 341.364 285.393 338.738 286.631C338.957 286.874 339.151 287.141 339.321 287.433C340.391 289.132 340.659 291.172 340.124 293.478C339.759 294.862 338.47 297.193 335.844 298.14C337.084 300.155 337.23 302.632 336.184 305.205C336.111 305.375 334.652 308.702 330.931 309.187C331.028 309.43 331.126 309.697 331.199 309.964C331.734 311.907 331.393 313.922 330.202 315.986C329.983 316.35 328.11 319.19 324.511 319.215C324.632 319.628 324.705 320.04 324.754 320.477C324.924 322.468 324.243 324.411 322.711 326.232C322.614 326.329 320.693 328.514 317.629 328.514C317.41 328.514 317.166 328.514 316.948 328.465C316.972 328.757 316.996 329.048 316.996 329.315C316.948 331.306 316.048 333.127 314.272 334.754C314.175 334.827 312.108 336.672 309.238 336.526C308.898 336.526 308.533 336.453 308.193 336.381C308.193 336.696 308.193 336.987 308.144 337.279C307.876 339.245 306.782 340.945 304.837 342.353C304.764 342.402 303.013 343.616 300.629 343.616C299.948 343.616 299.316 343.519 298.684 343.324C298.659 343.664 298.586 343.98 298.514 344.296C298.027 346.214 296.738 347.792 294.695 348.957C294.477 349.054 293.09 349.734 291.266 349.734C290.269 349.734 289.296 349.516 288.421 349.127C288.372 349.394 288.275 349.686 288.178 349.953C287.521 351.822 286.062 353.255 283.873 354.226C283.825 354.25 282.633 354.76 281.004 354.76C280.031 354.76 278.766 354.566 277.526 353.838C277.453 354.08 277.331 354.347 277.234 354.59C276.383 356.363 274.802 357.601 272.516 358.305C272.322 358.354 271.568 358.548 270.522 358.548C268.917 358.548 267.458 358.111 266.266 357.261C266.169 357.48 266.047 357.698 265.926 357.917C264.928 359.616 263.226 360.709 260.867 361.194C260.721 361.219 260.259 361.291 259.603 361.291C257.584 361.291 255.833 360.636 254.52 359.422C254.301 359.786 254.058 360.102 253.79 360.417C251.407 363.04 247.686 363.21 247.273 363.234C244.525 363.234 242.312 362.238 240.828 360.393C239.174 362.627 236.499 363.307 235.016 363.307L234.943 363.185ZM229.033 356.703C229.033 356.703 229.082 356.703 229.106 356.703C229.641 356.727 230.079 357.091 230.225 357.601C230.419 358.281 230.736 358.839 231.149 359.301C231.976 360.223 233.24 360.684 234.918 360.684C235.04 360.684 238.542 360.563 239.418 357.285C239.563 356.775 240.025 356.387 240.561 356.363C241.096 356.338 241.606 356.654 241.801 357.14C242.701 359.422 244.525 360.587 247.151 360.587C247.151 360.587 250.118 360.49 251.82 358.596C252.331 358.038 252.647 357.358 252.842 356.508C252.939 355.998 253.377 355.586 253.912 355.513C254.447 355.44 254.958 355.707 255.201 356.193C256.222 358.232 258.119 358.669 259.505 358.669C259.992 358.669 260.308 358.621 260.308 358.621C261.913 358.281 263.056 357.577 263.688 356.533C264.004 355.998 264.199 355.343 264.272 354.639C264.321 354.105 264.685 353.668 265.196 353.522C265.707 353.376 266.242 353.57 266.558 354.008C268.382 356.63 271.738 355.804 271.762 355.78C273.294 355.319 274.389 354.493 274.924 353.401C275.216 352.794 275.337 352.114 275.313 351.337C275.313 350.803 275.629 350.317 276.14 350.123C276.65 349.929 277.21 350.099 277.55 350.511C278.426 351.604 279.569 352.138 280.955 352.138C282.025 352.138 282.828 351.822 282.828 351.822C284.335 351.167 285.332 350.22 285.746 349.03C285.965 348.399 286.038 347.671 285.94 346.894C285.867 346.359 286.159 345.85 286.621 345.607C287.108 345.364 287.667 345.461 288.056 345.825C288.956 346.699 290.002 347.136 291.193 347.136C292.458 347.136 293.431 346.651 293.431 346.651C294.817 345.874 295.692 344.83 296.009 343.592C296.179 342.912 296.179 342.159 296.009 341.382C295.887 340.872 296.106 340.338 296.544 340.047C296.981 339.755 297.565 339.78 297.978 340.095C298.781 340.702 299.632 340.994 300.556 340.994C302.088 340.994 303.304 340.192 303.329 340.168C304.666 339.197 305.445 338.08 305.59 336.818C305.688 336.113 305.59 335.385 305.299 334.608C305.104 334.098 305.274 333.54 305.688 333.2C306.101 332.86 306.709 332.836 307.147 333.127C307.901 333.613 308.606 333.855 309.311 333.904H309.53C311.257 333.904 312.521 332.787 312.546 332.787C313.786 331.646 314.418 330.432 314.443 329.145C314.443 328.465 314.297 327.761 313.956 327.057C313.737 326.572 313.835 326.013 314.2 325.625C314.564 325.26 315.148 325.163 315.634 325.382C316.291 325.697 316.948 325.867 317.58 325.867C319.477 325.867 320.741 324.459 320.766 324.459C321.836 323.197 322.322 321.886 322.201 320.574C322.128 319.749 321.811 318.948 321.276 318.146C320.96 317.709 320.985 317.102 321.325 316.69C321.666 316.253 322.225 316.083 322.736 316.277C326.189 317.491 327.94 314.699 328.013 314.602C328.84 313.169 329.083 311.785 328.742 310.523C328.548 309.843 328.207 309.187 327.672 308.58C327.332 308.168 327.259 307.585 327.551 307.124C327.818 306.662 328.353 306.419 328.888 306.517C329.277 306.589 329.642 306.638 329.958 306.638C332.682 306.638 333.801 304.21 333.85 304.113C335.066 301.102 333.85 299.184 332.634 298.116C332.244 297.776 332.099 297.217 332.269 296.732C332.439 296.246 332.901 295.906 333.436 295.906C336.719 295.882 337.57 293.066 337.668 292.75C338.032 291.147 337.887 289.739 337.181 288.622C336.792 287.991 336.208 287.433 335.455 286.996C334.993 286.729 334.749 286.17 334.871 285.636C334.993 285.102 335.43 284.713 335.965 284.665C339.492 284.325 339.978 281.266 340.027 280.901C340.173 279.25 339.808 277.891 338.957 276.895C338.47 276.337 337.838 275.876 337.06 275.536C336.573 275.317 336.257 274.832 336.306 274.297C336.354 273.763 336.719 273.326 337.254 273.181C340.391 272.379 340.586 269.344 340.586 269.223C340.586 267.572 340.148 266.237 339.224 265.314C338.689 264.78 338.008 264.367 337.157 264.1C336.646 263.93 336.306 263.469 336.281 262.91C336.257 262.352 336.622 261.891 337.133 261.721C340.416 260.604 340.246 257.569 340.221 257.205C340.002 255.578 339.37 254.315 338.324 253.514C337.741 253.077 337.06 252.761 336.233 252.616C335.698 252.519 335.309 252.082 335.236 251.547C335.163 251.013 335.43 250.503 335.917 250.261C338.835 248.779 338.324 245.769 338.3 245.647C337.935 244.045 337.206 242.855 336.087 242.151C335.406 241.714 334.603 241.471 333.655 241.398C333.12 241.374 332.658 240.986 332.536 240.476C332.39 239.966 332.609 239.408 333.071 239.116C335.99 237.198 335.041 234.309 334.92 233.993C334.312 232.464 333.363 231.42 332.147 230.885C331.515 230.618 330.785 230.497 330.007 230.521C329.448 230.545 328.986 230.23 328.791 229.72C328.597 229.21 328.742 228.652 329.156 228.312C331.88 226.029 330.566 223.237 330.396 222.922C329.594 221.489 328.524 220.566 327.259 220.202C326.529 220.008 325.727 219.984 324.876 220.154C324.341 220.251 323.806 220.008 323.538 219.547C323.271 219.085 323.344 218.478 323.708 218.09C325.994 215.565 324.414 213.016 324.243 212.724C323.271 211.389 322.128 210.588 320.839 210.369C320.109 210.248 319.331 210.32 318.528 210.563C318.018 210.709 317.458 210.563 317.142 210.126C316.826 209.714 316.802 209.131 317.094 208.694C318.942 205.926 316.972 203.546 316.875 203.449C315.342 201.774 313.592 201.167 311.719 201.701C311.208 201.847 310.673 201.653 310.357 201.216C310.041 200.779 310.041 200.22 310.357 199.783C312.011 197.404 310.479 195.073 310.406 194.976C309.433 193.64 308.266 192.839 306.977 192.645C306.709 192.596 306.417 192.596 306.053 192.621C305.517 192.645 305.055 192.354 304.837 191.892C304.618 191.431 304.715 190.872 305.08 190.508C306.928 188.639 306.101 186.187 306.053 186.089C305.445 184.56 304.52 183.516 303.304 182.982C303.037 182.86 302.721 182.787 302.332 182.715C301.821 182.617 301.408 182.229 301.335 181.719C301.237 181.209 301.48 180.699 301.918 180.432C304.18 179.073 303.961 176.499 303.961 176.378C303.742 174.751 303.086 173.488 302.04 172.711C301.578 172.347 301.018 172.08 300.337 171.91C299.802 171.764 299.438 171.303 299.413 170.769C299.389 170.235 299.705 169.725 300.216 169.531C303.11 168.438 303.061 165.525 303.061 165.403C302.964 163.752 302.405 162.465 301.408 161.591C300.897 161.154 300.289 160.814 299.584 160.596C299.073 160.45 298.732 159.989 298.708 159.455C298.684 158.92 299 158.435 299.486 158.241C302.405 157.051 302.21 154.065 302.21 153.943C302.016 152.316 301.408 151.054 300.362 150.228C299.802 149.791 299.121 149.476 298.319 149.306C297.808 149.184 297.395 148.747 297.346 148.213C297.298 147.679 297.565 147.169 298.051 146.951C301.067 145.542 300.629 142.605 300.581 142.265C300.24 140.662 299.486 139.448 298.392 138.744C297.808 138.38 297.127 138.137 296.349 138.016C295.814 137.943 295.401 137.554 295.279 137.02C295.182 136.486 295.425 135.952 295.887 135.685C298.805 133.985 298.027 130.95 298.003 130.829C297.516 129.251 296.69 128.11 295.522 127.503C294.866 127.163 294.112 126.968 293.285 126.944C292.75 126.944 292.288 126.58 292.118 126.07C291.947 125.56 292.142 125.002 292.58 124.686C295.303 122.719 294.331 119.903 294.209 119.587C293.552 118.082 292.604 117.038 291.388 116.552C290.731 116.285 289.977 116.188 289.151 116.237C288.64 116.261 288.129 115.994 287.91 115.508C287.691 115.023 287.789 114.464 288.178 114.1C290.585 111.745 289.102 108.977 289.029 108.88C288.178 107.472 287.083 106.573 285.819 106.258C285.065 106.064 284.262 106.088 283.411 106.306C282.9 106.428 282.365 106.209 282.074 105.772C281.782 105.335 281.806 104.753 282.122 104.34C284.189 101.596 282.365 99.1925 282.171 98.9254C280.006 96.4246 277.72 96.6917 276.188 97.3229C275.702 97.5172 275.143 97.4201 274.778 97.0316C274.413 96.6431 274.34 96.0847 274.559 95.6234C276.018 92.637 273.854 90.6217 273.611 90.4032C271.519 88.7279 269.403 88.558 267.36 89.9419C266.923 90.2333 266.339 90.2333 265.926 89.9419C265.488 89.6263 265.318 89.0921 265.464 88.5823C266.412 85.2317 263.81 83.6535 263.494 83.4835C261.086 82.2453 258.97 82.5366 257.268 84.3333C256.903 84.7218 256.344 84.8189 255.857 84.6247C255.371 84.4304 255.079 83.9448 255.103 83.4107C255.274 79.963 252.404 78.9918 252.064 78.8947C249.802 78.312 247.978 78.7976 246.689 80.3272C246.349 80.7399 245.813 80.8856 245.327 80.7156C244.841 80.5457 244.5 80.0844 244.476 79.5745C244.476 79.0161 244.33 78.5305 244.087 78.1663C243.673 77.5107 242.944 77.1223 241.825 76.9523C241.631 76.9523 239.028 76.8066 237.958 78.9675C237.739 79.4045 237.277 79.6959 236.767 79.6716C236.256 79.6473 235.818 79.3317 235.648 78.8461C235.429 78.2634 235.113 77.8021 234.724 77.4622C233.97 76.8066 232.827 76.5638 231.368 76.7095C231.271 76.7095 228.255 77.1708 227.744 80.3514C227.671 80.8613 227.282 81.2741 226.771 81.3712C226.261 81.4683 225.75 81.2741 225.458 80.837C224.169 78.8947 222.199 78.2391 219.67 78.8947C219.378 78.9918 216.484 79.9387 216.655 83.3864C216.679 83.8963 216.387 84.3819 215.901 84.6004C215.414 84.8189 214.855 84.6975 214.49 84.309C213.299 83.0708 211.256 81.9296 208.216 83.4835C207.948 83.6292 205.346 85.2074 206.295 88.558C206.44 89.0678 206.246 89.602 205.808 89.9176C205.37 90.2333 204.811 90.2333 204.373 89.9176C202.331 88.5337 200.215 88.7037 198.099 90.4275C197.88 90.6217 195.716 92.637 197.199 95.6476C197.442 96.1089 197.345 96.6917 196.98 97.0559C196.615 97.4443 196.056 97.5414 195.57 97.3472C193.357 96.376 191.314 96.9102 189.539 98.9497C189.344 99.1925 187.52 101.596 189.587 104.34C189.903 104.753 189.928 105.335 189.636 105.772C189.344 106.209 188.809 106.428 188.298 106.306C185.939 105.748 184.042 106.622 182.656 108.929C182.608 109.026 181.124 111.769 183.532 114.124C183.896 114.489 184.018 115.047 183.799 115.533C183.58 116.018 183.094 116.31 182.559 116.261C180.2 116.115 178.498 117.232 177.476 119.636C177.379 119.927 176.406 122.719 179.13 124.686C179.568 125.002 179.762 125.56 179.592 126.07C179.446 126.58 178.96 126.944 178.425 126.944C176.041 127.017 174.461 128.328 173.682 130.853C173.682 130.95 172.904 133.985 175.822 135.661C176.285 135.928 176.528 136.462 176.43 136.996C176.333 137.53 175.895 137.919 175.36 137.991C173.074 138.307 171.639 139.74 171.08 142.265C171.032 142.556 170.618 145.47 173.634 146.902C174.12 147.121 174.412 147.63 174.339 148.165C174.29 148.699 173.877 149.136 173.366 149.257C171.08 149.767 169.767 151.345 169.475 153.967C169.475 154.065 169.281 157.027 172.199 158.216C172.685 158.411 173.001 158.896 172.977 159.43C172.953 159.964 172.588 160.426 172.077 160.571C169.937 161.227 168.77 162.854 168.6 165.403C168.6 165.476 168.551 168.39 171.445 169.482C171.956 169.676 172.272 170.162 172.247 170.72C172.223 171.255 171.858 171.716 171.323 171.862C169.281 172.42 168.065 173.95 167.724 176.378C167.724 176.45 167.505 179.024 169.767 180.384C170.205 180.651 170.448 181.161 170.351 181.67C170.253 182.18 169.864 182.593 169.353 182.666C167.651 182.982 166.387 184.123 165.608 186.089C165.608 186.162 164.757 188.566 166.605 190.435C166.97 190.8 167.067 191.358 166.849 191.819C166.63 192.281 166.168 192.572 165.633 192.548C163.93 192.451 162.495 193.252 161.255 194.951C161.206 195.024 159.674 197.355 161.328 199.735C161.62 200.172 161.62 200.754 161.328 201.167C161.012 201.604 160.477 201.774 159.966 201.653C158.094 201.118 156.367 201.725 154.786 203.449C154.738 203.522 152.768 205.902 154.616 208.669C154.908 209.106 154.883 209.689 154.567 210.126C154.251 210.563 153.692 210.733 153.181 210.563C150.919 209.859 148.974 210.588 147.442 212.748C147.272 212.991 145.691 215.565 147.977 218.09C148.342 218.478 148.415 219.085 148.147 219.547C147.88 220.008 147.344 220.251 146.809 220.154C144.45 219.692 142.578 220.615 141.265 222.946C141.119 223.213 139.805 226.005 142.529 228.287C142.943 228.627 143.089 229.186 142.894 229.696C142.699 230.206 142.237 230.521 141.678 230.497C139.392 230.424 137.738 231.589 136.766 233.993C136.668 234.285 135.72 237.174 138.638 239.092C139.076 239.383 139.295 239.942 139.173 240.452C139.027 240.961 138.59 241.35 138.054 241.374C135.574 241.544 133.993 243.001 133.409 245.672C133.409 245.769 132.874 248.779 135.793 250.261C136.279 250.503 136.547 251.013 136.474 251.547C136.401 252.082 136.012 252.494 135.477 252.616C133.166 253.077 131.829 254.655 131.488 257.253C131.464 257.544 131.294 260.579 134.577 261.696C135.088 261.866 135.428 262.352 135.428 262.886C135.428 263.42 135.088 263.906 134.577 264.076C132.291 264.828 131.123 266.576 131.148 269.271C131.148 269.369 131.342 272.379 134.48 273.181C134.99 273.302 135.379 273.763 135.428 274.297C135.477 274.832 135.16 275.341 134.674 275.536C132.485 276.458 131.513 278.279 131.731 280.95C131.78 281.266 132.266 284.301 135.793 284.641C136.328 284.689 136.766 285.078 136.887 285.612C137.009 286.146 136.766 286.68 136.303 286.971C134.236 288.234 133.482 290.176 134.09 292.774C134.115 292.871 134.966 295.858 138.322 295.882C138.857 295.882 139.319 296.222 139.489 296.708C139.66 297.193 139.514 297.752 139.125 298.091C137.884 299.16 136.668 301.054 137.909 304.113C138.03 304.404 139.392 307.172 142.845 306.492C143.38 306.395 143.915 306.638 144.183 307.099C144.45 307.561 144.402 308.143 144.061 308.556C142.554 310.304 142.456 312.344 143.77 314.602C143.94 314.869 145.666 317.418 148.998 316.277C149.509 316.107 150.068 316.277 150.409 316.69C150.749 317.127 150.749 317.709 150.457 318.146C149.922 318.923 149.63 319.725 149.558 320.55C149.436 321.861 149.922 323.172 151.017 324.483C151.09 324.556 153.157 326.814 156.124 325.406C156.61 325.188 157.169 325.285 157.559 325.649C157.923 326.013 158.045 326.596 157.802 327.057C157.486 327.761 157.315 328.465 157.34 329.145C157.364 330.432 158.021 331.646 159.261 332.787C159.261 332.787 160.623 334.001 162.471 333.904C163.201 333.855 163.906 333.613 164.636 333.127C165.098 332.836 165.681 332.86 166.095 333.2C166.508 333.54 166.678 334.098 166.484 334.608C166.192 335.385 166.095 336.113 166.192 336.818C166.362 338.056 167.14 339.197 168.502 340.192C168.502 340.192 169.718 340.994 171.226 340.994C172.15 340.994 173.001 340.678 173.804 340.095C174.217 339.78 174.801 339.755 175.239 340.047C175.677 340.338 175.895 340.848 175.798 341.382C175.628 342.183 175.628 342.912 175.798 343.592C176.114 344.83 176.99 345.85 178.449 346.675C178.449 346.675 179.397 347.112 180.613 347.112C181.829 347.112 182.851 346.675 183.751 345.801C184.14 345.437 184.699 345.34 185.185 345.582C185.672 345.825 185.939 346.335 185.866 346.869C185.769 347.646 185.842 348.35 186.061 349.006C186.474 350.196 187.471 351.143 189.028 351.822C189.028 351.822 189.83 352.138 190.876 352.138C192.262 352.138 193.405 351.58 194.281 350.511C194.621 350.099 195.181 349.929 195.691 350.123C196.202 350.317 196.518 350.803 196.518 351.337C196.518 352.114 196.64 352.794 196.907 353.401C197.442 354.517 198.512 355.319 200.117 355.804C200.117 355.804 200.652 355.926 201.358 355.926C202.525 355.926 204.154 355.586 205.249 354.008C205.541 353.57 206.1 353.376 206.611 353.522C207.121 353.668 207.486 354.105 207.535 354.639C207.583 355.367 207.778 355.998 208.119 356.533C208.751 357.601 209.894 358.305 211.548 358.645C211.548 358.645 211.864 358.694 212.301 358.694C213.663 358.694 215.512 358.281 216.557 356.363C216.801 355.901 217.336 355.634 217.846 355.707C218.357 355.78 218.795 356.193 218.892 356.703C219.038 357.382 219.257 357.941 219.622 358.426C220.351 359.422 221.567 360.005 223.221 360.199C223.221 360.199 223.294 360.199 223.44 360.199C224.461 360.199 226.917 359.932 227.987 357.48C228.182 357.018 228.644 356.727 229.13 356.727L229.033 356.703Z" fill="black"/>
<path d="M215.268 144.304C208.24 144.304 202.501 137.627 202.501 129.445C202.501 121.263 208.216 114.586 215.268 114.586C222.321 114.586 228.036 121.263 228.036 129.445C228.036 137.627 222.321 144.304 215.268 144.304ZM215.268 117.087C209.626 117.087 205.006 122.623 205.006 129.445C205.006 136.268 209.602 141.803 215.268 141.803C220.935 141.803 225.531 136.268 225.531 129.445C225.531 122.623 220.935 117.087 215.268 117.087Z" fill="black"/>
<path d="M249.121 144.304C242.093 144.304 236.353 137.627 236.353 129.445C236.353 121.263 242.068 114.586 249.121 114.586C256.174 114.586 261.889 121.263 261.889 129.445C261.889 137.627 256.174 144.304 249.121 144.304ZM249.121 117.087C243.479 117.087 238.858 122.623 238.858 129.445C238.858 136.268 243.455 141.803 249.121 141.803C254.787 141.803 259.384 136.268 259.384 129.445C259.384 122.623 254.787 117.087 249.121 117.087Z" fill="black"/>
<path d="M232.316 161.518C238.119 161.518 242.822 157.246 242.822 151.976C242.822 146.707 238.119 142.435 232.316 142.435C226.514 142.435 221.81 146.707 221.81 151.976C221.81 157.246 226.514 161.518 232.316 161.518Z" fill="#F1614E"/>
<path d="M232.316 162.781C225.823 162.781 220.57 157.949 220.57 151.976C220.57 146.004 225.847 141.172 232.316 141.172C238.785 141.172 244.063 146.004 244.063 151.976C244.063 157.949 238.785 162.781 232.316 162.781ZM232.316 143.697C227.209 143.697 223.075 147.412 223.075 152.001C223.075 156.589 227.234 160.304 232.316 160.304C237.399 160.304 241.558 156.589 241.558 152.001C241.558 147.412 237.399 143.697 232.316 143.697Z" fill="black"/>
<path d="M281.077 282.091C280.104 282.091 278.985 281.775 277.793 280.926C273.927 278.133 276.748 272.258 276.869 272.015L279.253 265.775C285.43 245.744 277.477 228.263 277.404 228.093C277.112 227.462 277.404 226.733 278.012 226.442C278.645 226.151 279.374 226.442 279.666 227.049C280.006 227.802 288.105 245.574 281.612 266.601L279.155 273.01C279.082 273.156 277.112 277.356 279.253 278.91C281.295 280.391 282.463 279.08 282.609 278.91C282.657 278.862 282.682 278.813 282.73 278.765C282.755 278.74 286.33 278.463 287.497 272.271C287.618 271.591 288.275 271.154 288.956 271.276C289.637 271.397 290.075 272.053 289.953 272.733C288.713 279.385 285.041 280.027 284.481 280.561C283.873 281.265 282.633 282.091 281.052 282.091H281.077Z" fill="black"/>
<path d="M294.403 286.34C294.136 286.34 293.868 286.316 293.601 286.267C291.047 285.757 289.807 282.917 289.686 282.601C289.418 281.97 289.734 281.241 290.366 280.974C290.999 280.707 291.728 281.023 291.996 281.654C292.215 282.164 293.042 283.621 294.112 283.839C294.793 283.985 295.595 283.597 296.495 282.722C299.973 279.323 308.387 262.06 301.626 228.312C301.48 227.632 301.942 226.976 302.599 226.831C303.28 226.685 303.937 227.146 304.083 227.802C311.087 262.813 302.259 280.61 298.246 284.495C296.981 285.733 295.692 286.364 294.403 286.364V286.34Z" fill="black"/>
<path d="M244.403 187.085C267.385 186.138 271.981 179.267 271.981 179.267C271.981 179.267 275.435 175.819 274.292 171.036C273.148 166.229 270.011 165.185 270.011 165.185C270.011 165.185 265.926 163.097 258.946 165.598C251.942 168.098 237.837 168.657 237.837 168.657H227.817C227.817 168.657 213.712 168.123 206.708 165.598C199.704 163.073 195.643 165.185 195.643 165.185C195.643 165.185 192.506 166.229 191.363 171.036C190.22 175.844 193.673 179.267 193.673 179.267C193.673 179.267 198.269 186.163 221.251 187.085H244.452H244.403Z" fill="#F1614E"/>
<path d="M244.427 188.348H221.202C199.12 187.449 193.405 181.064 192.651 180.092C192.092 179.51 188.882 175.819 190.098 170.745C191.29 165.743 194.5 164.286 195.108 164.044C195.764 163.752 200.117 161.931 207.097 164.432C213.834 166.836 227.696 167.394 227.842 167.418H237.812C237.812 167.418 251.772 166.86 258.508 164.432C265.488 161.931 269.865 163.728 270.498 164.044C271.106 164.286 274.316 165.767 275.507 170.745C276.723 175.819 273.489 179.51 272.954 180.092C272.2 181.064 266.485 187.449 244.452 188.348H244.427ZM200.117 165.622C197.588 165.622 196.202 166.277 196.178 166.302L196.007 166.374C196.007 166.374 193.503 167.321 192.554 171.328C191.581 175.358 194.402 178.271 194.524 178.393L194.67 178.587C194.67 178.587 199.485 184.973 221.251 185.847H244.379C266.096 184.948 270.911 178.636 270.935 178.587L271.081 178.393C271.081 178.393 274.024 175.358 273.051 171.328C272.103 167.346 269.671 166.423 269.574 166.374L269.403 166.302C269.403 166.302 265.658 164.529 259.311 166.787C252.209 169.337 238.396 169.895 237.812 169.919H227.744C227.112 169.919 213.299 169.337 206.197 166.787C203.741 165.913 201.674 165.646 200.045 165.646L200.117 165.622Z" fill="black"/>
<path d="M232.9 178.806C214.101 178.806 199.923 175.164 199.704 175.115C199.023 174.945 198.634 174.265 198.804 173.586C198.974 172.906 199.655 172.517 200.336 172.687C200.652 172.76 231.903 180.797 263.032 172.687C263.712 172.517 264.393 172.906 264.564 173.586C264.734 174.265 264.345 174.945 263.664 175.115C253.012 177.883 242.36 178.806 232.9 178.806Z" fill="black"/>
<path d="M215.317 137.118C218.379 137.118 220.862 133.704 220.862 129.494C220.862 125.283 218.379 121.87 215.317 121.87C212.255 121.87 209.772 125.283 209.772 129.494C209.772 133.704 212.255 137.118 215.317 137.118Z" fill="black"/>
<path d="M249.17 137.118C252.232 137.118 254.714 133.704 254.714 129.494C254.714 125.283 252.232 121.87 249.17 121.87C246.107 121.87 243.625 125.283 243.625 129.494C243.625 133.704 246.107 137.118 249.17 137.118Z" fill="black"/>
<path d="M91.3614 120.389H82.4849V394.822H91.3614V120.389Z" fill="#8A6456"/>
<path d="M92.626 396.06H81.2202V119.15H92.626V396.084V396.06ZM83.7251 393.559H90.0968V121.651H83.7251V393.559Z" fill="black"/>
<path d="M86.2543 170.502C133.143 170.502 171.153 132.554 171.153 85.7417C171.153 38.9299 133.143 0.981445 86.2543 0.981445C39.366 0.981445 1.35547 38.9299 1.35547 85.7417C1.35547 132.554 39.366 170.502 86.2543 170.502Z" fill="#F05144"/>
<path d="M86.2543 171.74C38.7343 171.74 0.0908203 133.16 0.0908203 85.7416C0.0908203 38.3234 38.7343 -0.28125 86.2543 -0.28125C133.774 -0.28125 172.418 38.2991 172.418 85.7416C172.418 133.184 133.774 171.764 86.2543 171.764V171.74ZM86.2543 2.21956C40.1205 2.21956 2.59571 39.6831 2.59571 85.7416C2.59571 131.8 40.1205 169.239 86.2299 169.239C132.339 169.239 169.864 131.776 169.864 85.7416C169.864 39.7074 132.364 2.21956 86.2543 2.21956Z" fill="black"/>
<path d="M72.5868 228.773C72.5868 228.773 72.5868 213.549 84.2601 212.432C95.9334 211.315 100.603 216.123 100.432 220.396C100.262 224.669 88.2241 224.572 88.2241 224.572C88.2241 224.572 99.9461 224.135 99.484 231.298C99.0219 238.46 88.978 237.707 88.978 237.707C88.978 237.707 99.2408 237.586 99.5326 245.38C99.8245 253.174 84.6978 251.838 84.6978 251.838C84.6978 251.838 72.295 252.324 72.6111 228.773H72.5868Z" fill="white"/>
<path d="M87.1297 253.174C85.8408 253.174 84.8923 253.101 84.6248 253.077C83.9925 253.077 80.6121 252.931 77.402 249.799C73.2434 245.744 71.2005 238.679 71.3221 228.773C71.3221 223.116 74.0216 212.165 84.1384 211.194C92.6745 210.369 97.0034 212.627 99.1678 214.642C100.87 216.269 101.77 218.332 101.697 220.469C101.6 222.824 99.3137 224.135 96.6143 224.888C97.5141 225.325 98.3409 225.859 98.9975 226.539C100.262 227.85 100.846 229.477 100.724 231.371C100.603 233.41 99.7758 235.11 98.3166 236.397C97.5384 237.076 96.6629 237.562 95.7388 237.926C98.3896 239.213 100.651 241.52 100.773 245.331C100.846 247.177 100.214 248.755 98.876 250.017C96.0063 252.737 90.4128 253.174 87.1297 253.174ZM84.6735 250.576C84.6735 250.576 84.7464 250.576 84.7951 250.576C87.3 250.794 94.4012 250.794 97.1736 248.196C97.9518 247.444 98.3166 246.545 98.268 245.429C98.0734 239.941 91.8233 239.116 89.6832 238.97C89.2212 238.97 88.9293 238.97 88.8807 238.946C88.1998 238.897 87.6891 238.339 87.7134 237.659C87.7134 236.979 88.2727 236.445 88.9537 236.445C89.2455 236.445 89.5373 236.445 89.8535 236.445C91.3613 236.445 94.693 236.202 96.6629 234.478C97.6113 233.653 98.1221 232.56 98.2193 231.176C98.2923 229.987 97.9518 229.04 97.1979 228.239C95.3253 226.296 91.2154 225.811 89.0509 225.762C88.7105 225.762 88.4186 225.762 88.2241 225.762C87.5431 225.762 86.9838 225.204 86.9838 224.524C86.9838 223.844 87.5188 223.286 88.1998 223.261C88.2484 223.261 88.5402 223.261 88.978 223.261C93.4284 223.188 99.1192 222.193 99.1921 220.299C99.2407 218.891 98.6328 217.507 97.4411 216.414C96.0063 215.055 92.3827 212.87 84.3816 213.647C73.9729 214.642 73.8514 228.603 73.8514 228.748C73.7054 240.233 76.6481 245.55 79.153 247.978C81.8281 250.576 84.6005 250.552 84.6248 250.552C84.6248 250.552 84.6491 250.552 84.6735 250.552V250.576Z" fill="black"/>
<path d="M127.943 127.941C130.688 125.217 130.683 120.776 127.944 118.038L53.9611 44.0584C53.9605 44.0579 53.96 44.0574 53.9595 44.0569C51.2362 41.3127 46.7959 41.317 44.0571 44.054C41.3122 46.7777 41.3169 51.219 44.0556 53.9576L44.0557 53.9577L118.042 127.92C118.042 127.92 118.042 127.92 118.042 127.92C119.361 129.239 121.058 129.92 122.768 129.977C122.838 129.992 122.91 130 122.983 130C124.775 130 126.585 129.298 127.943 127.941ZM127.943 127.941C127.943 127.941 127.942 127.942 127.941 127.943L127.237 127.233L127.944 127.94C127.944 127.94 127.944 127.94 127.943 127.941Z" fill="white" stroke="white" stroke-width="2" stroke-linejoin="round"/>
<path d="M53.0937 127.944L53.0938 127.944L127.924 53.9646C127.924 53.9643 127.925 53.964 127.925 53.9637C130.707 51.2355 130.674 46.7896 127.93 44.0543C125.18 41.3136 120.699 41.3178 117.933 44.0513C117.933 44.0513 117.933 44.0514 117.933 44.0514L43.0834 118.011C43.0827 118.012 43.082 118.012 43.0814 118.013C40.3039 120.738 40.3088 125.185 43.0804 127.924C44.42 129.248 46.1421 129.926 47.8749 129.977C47.9433 129.992 48.0143 130 48.0871 130C49.8934 130 51.7209 129.301 53.0937 127.944Z" fill="white" stroke="white" stroke-width="2" stroke-linejoin="round"/>
<path d="M199.631 109.148C199.631 109.148 211.231 131.024 233.167 114.149C233.167 114.149 254.86 132.772 266.777 112.061L256.125 103.175L205.249 103.733L199.631 109.148Z" fill="white"/>
<path d="M266.461 115.169C266.461 115.169 256.465 122.865 246.689 121.748C246.689 121.748 236.426 121.069 233.338 113.348C233.338 113.348 228.449 123.06 214.952 120.996C214.952 120.996 207.073 119.757 202.695 113.566" fill="white"/>
<path d="M248.683 123.448C247.954 123.448 247.248 123.4 246.519 123.327C246.178 123.327 237.448 122.647 233.167 116.359C232.438 117.233 231.441 118.253 230.152 119.224C227.258 121.385 222.224 123.716 214.733 122.574C214.369 122.526 206.149 121.166 201.431 114.514C200.92 113.809 201.09 112.838 201.796 112.328C202.501 111.818 203.474 111.988 203.984 112.693C207.948 118.277 215.123 119.467 215.195 119.467C227.306 121.312 231.757 113.008 231.927 112.644C232.219 112.11 232.778 111.77 233.386 111.794C233.994 111.818 234.529 112.207 234.773 112.765C237.472 119.491 246.689 120.195 246.786 120.195C255.882 121.239 265.415 114.004 265.512 113.931C266.193 113.397 267.19 113.542 267.701 114.222C268.236 114.902 268.09 115.897 267.409 116.407C267.02 116.723 258.168 123.424 248.659 123.424L248.683 123.448Z" fill="black"/>
</g>
<defs>
<clipPath id="clip0_4757_51028">
<rect width="344" height="270" fill="white"/>
</clipPath>
</defs>
</svg>
