<svg width="344" height="270" viewBox="0 0 344 270" fill="none" xmlns="http://www.w3.org/2000/svg">
<g clip-path="url(#clip0_4757_51351)">
<path d="M96.3614 120.389H87.4849V394.822H96.3614V120.389Z" fill="#8A6456"/>
<path d="M97.626 396.06H86.2202V119.15H97.626V396.084V396.06ZM88.7251 393.559H95.0968V121.651H88.7251V393.559Z" fill="black"/>
<path d="M91.2543 170.502C138.143 170.502 176.153 132.554 176.153 85.7417C176.153 38.9299 138.143 0.981445 91.2543 0.981445C44.366 0.981445 6.35547 38.9299 6.35547 85.7417C6.35547 132.554 44.366 170.502 91.2543 170.502Z" fill="#F05144"/>
<path d="M91.2543 171.74C43.7343 171.74 5.09082 133.16 5.09082 85.7416C5.09082 38.3234 43.7343 -0.28125 91.2543 -0.28125C138.774 -0.28125 177.418 38.2991 177.418 85.7416C177.418 133.184 138.774 171.764 91.2543 171.764V171.74ZM91.2543 2.21956C45.1205 2.21956 7.59571 39.6831 7.59571 85.7416C7.59571 131.8 45.1205 169.239 91.2299 169.239C137.339 169.239 174.864 131.776 174.864 85.7416C174.864 39.7074 137.364 2.21956 91.2543 2.21956Z" fill="black"/>
<path d="M132.943 127.941C135.688 125.217 135.683 120.776 132.944 118.038L58.9611 44.0584C58.9605 44.0579 58.96 44.0574 58.9595 44.0569C56.2362 41.3127 51.7959 41.317 49.0571 44.054C46.3122 46.7777 46.3169 51.219 49.0556 53.9576L49.0557 53.9577L123.042 127.92C123.042 127.92 123.042 127.92 123.042 127.92C124.361 129.239 126.058 129.92 127.768 129.977C127.838 129.992 127.91 130 127.983 130C129.775 130 131.585 129.298 132.943 127.941ZM132.943 127.941C132.943 127.941 132.942 127.942 132.941 127.943L132.237 127.233L132.944 127.94C132.944 127.94 132.944 127.94 132.943 127.941Z" fill="white" stroke="white" stroke-width="2" stroke-linejoin="round"/>
<path d="M58.0937 127.944L58.0938 127.944L132.924 53.9646C132.924 53.9643 132.925 53.964 132.925 53.9637C135.707 51.2355 135.674 46.7896 132.93 44.0543C130.18 41.3136 125.699 41.3178 122.933 44.0513C122.933 44.0513 122.933 44.0514 122.933 44.0514L48.0834 118.011C48.0827 118.012 48.082 118.012 48.0814 118.013C45.3039 120.738 45.3088 125.185 48.0804 127.924C49.42 129.248 51.1421 129.926 52.8749 129.977C52.9433 129.992 53.0143 130 53.0871 130C54.8934 130 56.7209 129.301 58.0937 127.944Z" fill="white" stroke="white" stroke-width="2" stroke-linejoin="round"/>
<path d="M163.838 196.694L90.6162 203.289L91.9943 226.232L168.003 229.698L163.838 196.694Z" fill="#F280A1"/>
<path d="M168.003 231.783C168.003 231.783 167.942 231.783 167.911 231.783L91.9023 228.317C90.8305 228.256 89.973 227.428 89.9118 226.354L88.5337 203.412C88.4725 202.277 89.2993 201.295 90.4324 201.203L163.654 194.609C164.757 194.517 165.767 195.314 165.921 196.418L170.085 229.452C170.177 230.066 169.963 230.679 169.534 231.139C169.136 231.569 168.585 231.814 168.003 231.814V231.783ZM93.9848 224.238L165.645 227.52L162.031 198.964L92.8211 205.221L93.9848 224.269V224.238Z" fill="black"/>
<path d="M82.1638 211.142C82.1638 211.142 82.1637 197.892 92.3003 196.91C102.437 195.929 106.479 200.131 106.326 203.842C106.173 207.553 95.7302 207.461 95.7302 207.461C95.7302 207.461 105.897 207.093 105.499 213.32C105.101 219.546 96.3733 218.902 96.3733 218.902C96.3733 218.902 105.285 218.81 105.53 225.589C105.775 232.367 92.6372 231.202 92.6372 231.202C92.6372 231.202 81.8575 231.631 82.1331 211.111L82.1638 211.142Z" fill="#F280A1"/>
<path d="M94.8729 233.41C93.7704 233.41 92.9436 233.349 92.6067 233.318C91.8105 233.318 88.6562 233.104 85.6857 230.19C81.8577 226.478 79.9896 220.068 80.1121 211.142C80.1121 205.897 82.6539 195.776 92.1167 194.855C99.8952 194.089 103.938 196.205 105.928 198.137C107.643 199.763 108.531 201.818 108.439 203.965C108.347 205.897 107.061 207.186 105.254 208.014C105.438 208.167 105.622 208.351 105.806 208.535C107.092 209.854 107.704 211.572 107.582 213.504C107.459 215.528 106.602 217.277 105.132 218.565C104.856 218.81 104.581 219.025 104.274 219.209C106.112 220.559 107.49 222.583 107.612 225.558C107.674 227.46 107 229.116 105.653 230.404C102.927 233.012 97.874 233.441 94.8423 233.441L94.8729 233.41ZM92.6373 229.147C92.6373 229.147 92.7904 229.147 92.8517 229.147C95.6997 229.392 100.936 229.147 102.804 227.337C103.294 226.877 103.478 226.386 103.448 225.681C103.294 221.816 98.7927 221.141 97.0472 221.019C96.6184 221.019 96.3122 221.019 96.1897 221.019C95.0872 220.927 94.2298 220.007 94.2604 218.872C94.291 217.737 95.2097 216.878 96.3122 216.847C96.5878 216.847 96.8941 216.847 97.2003 216.847C98.609 216.847 101.028 216.541 102.376 215.375C103.019 214.823 103.325 214.117 103.386 213.197C103.448 212.431 103.233 211.878 102.774 211.418C101.396 209.977 98.1496 209.609 96.4347 209.578C96.1285 209.578 95.8835 209.578 95.6691 209.578C94.536 209.578 93.6173 208.658 93.6173 207.523C93.6173 206.388 94.5054 205.437 95.6079 205.407C95.7303 205.407 96.006 205.407 96.4041 205.407C100.018 205.345 103.754 204.548 104.244 203.72C104.244 202.861 103.846 201.941 103.019 201.174C101.886 200.1 99.0071 198.383 92.4536 199.027C84.3076 199.824 84.2157 211.081 84.2157 211.173C84.0932 220.712 86.4513 225.098 88.4418 227.122C90.4936 229.178 92.5148 229.178 92.6067 229.178L92.6373 229.147Z" fill="black"/>
<g clip-path="url(#clip1_4757_51351)">
<path d="M236.26 63.7503C244.795 38.7378 257.066 32.9509 257.066 32.9509C277.615 23.4345 284.411 40.699 284.411 40.699C296.457 69.9874 236.067 83.0402 236.067 83.0402L235.39 82.783C235.39 82.783 175.838 69.9874 187.884 40.699C187.884 40.699 194.648 23.4345 215.228 32.9509C215.228 32.9509 227.5 38.7057 236.035 63.7503H236.292H236.26Z" fill="#F5333F"/>
<path d="M235.874 85.2589L234.779 84.8088C231.59 84.1015 196.129 75.9034 186.563 57.7709C183.6 52.1447 183.375 46.1327 185.919 39.9278C186.016 39.6384 188.947 32.4047 196.612 29.3505C202.216 27.1 208.787 27.6787 216.098 31.0544C216.613 31.2795 227.596 36.6485 236.131 58.0281C244.666 36.6807 255.681 31.3116 256.165 31.0866C263.508 27.7109 270.046 27.1322 275.65 29.3505C283.316 32.4369 286.215 39.6706 286.343 39.9599C288.856 46.0684 288.63 52.0482 285.699 57.6423C275.811 76.4178 238.096 84.7767 236.486 85.1303L235.841 85.2589H235.874ZM203.73 32.2118C201.765 32.2118 199.93 32.5655 198.19 33.2406C192.232 35.6197 189.816 41.471 189.784 41.5031C187.691 46.6149 187.852 51.2766 190.235 55.8098C199.157 72.6884 235.423 80.6615 235.777 80.758L236.163 80.8866C241.059 79.7292 273.589 71.531 281.931 55.6812C284.314 51.1802 284.475 46.5506 282.414 41.5353C282.382 41.4388 279.966 35.6197 274.008 33.2406C269.531 31.4724 264.12 32.0189 257.904 34.8803C257.807 34.9124 246.277 40.7637 238.193 64.4259L237.709 65.8405H234.456L233.973 64.4259C225.921 40.7315 214.359 34.9124 214.262 34.8481C210.429 33.0799 206.919 32.1797 203.73 32.1797V32.2118Z" fill="black"/>
<path d="M193.585 268.994V314.711C193.585 314.711 174.904 313.489 176.128 326.446C176.128 326.446 174.389 342.553 199.64 341.845C199.64 341.845 219.286 341.331 219.641 330.272V271.759L193.585 268.962V268.994Z" fill="#3E2B2F"/>
<path d="M198.061 344C188.882 344 182.151 341.749 178.028 337.313C173.905 332.844 173.938 327.668 174.002 326.478C173.712 322.877 174.711 319.855 176.965 317.541C180.959 313.425 187.884 312.718 191.459 312.622V266.68L221.734 269.927V330.304C221.315 343.228 200.574 343.936 199.672 343.968C199.124 343.968 198.577 343.968 198.029 343.968L198.061 344ZM192.264 316.801C189.043 316.801 182.956 317.444 179.993 320.466C178.576 321.945 177.996 323.842 178.221 326.253V326.478V326.703C178.221 326.864 177.867 330.979 181.184 334.548C184.663 338.277 190.847 340.013 199.575 339.788C199.736 339.788 217.257 339.049 217.547 330.272V273.72L195.71 271.374V316.994L193.456 316.865C193.134 316.865 192.747 316.833 192.264 316.833V316.801Z" fill="black"/>
<path d="M256.39 268.994V314.711C256.39 314.711 237.709 313.489 238.933 326.446C238.933 326.446 237.194 342.553 262.445 341.845C262.445 341.845 282.092 341.331 282.446 330.272V271.759L256.39 268.962V268.994Z" fill="#3E2B2F"/>
<path d="M260.867 344C251.688 344 244.956 341.749 240.833 337.313C236.711 332.844 236.743 327.668 236.808 326.478C236.518 322.877 237.516 319.855 239.771 317.541C243.764 313.425 250.689 312.718 254.264 312.622V266.68L284.54 269.927V330.304C284.121 343.228 263.379 343.936 262.477 343.968C261.93 343.968 261.382 343.968 260.835 343.968L260.867 344ZM255.102 316.801C251.881 316.801 245.794 317.444 242.83 320.466C241.413 321.945 240.833 323.842 241.059 326.253V326.478V326.703C241.059 326.864 240.705 330.979 244.022 334.548C247.501 338.277 253.684 340.013 262.413 339.788C262.574 339.788 280.095 339.049 280.385 330.272V273.72L258.548 271.374V316.994L256.293 316.865C255.971 316.865 255.585 316.833 255.102 316.833V316.801Z" fill="black"/>
<path d="M238.772 291.628C238.772 291.628 164.469 293.782 141.569 235.334C141.569 235.334 120.634 167.53 159.798 114.386C159.798 114.386 187.594 73.2347 238.418 74.4564H237.709C289.145 73.8134 316.329 114.386 316.329 114.386C353.529 166.244 333.753 236.845 333.753 236.845C318.132 292.592 237.387 291.628 237.387 291.628" fill="#F280A1"/>
<path d="M238.064 293.718C230.044 293.718 161.505 292.014 139.604 236.074C139.346 235.238 118.766 166.501 158.124 113.101C158.349 112.747 186.273 72.2705 236.228 72.2705C236.904 72.2705 237.548 72.2705 238.225 72.2705C238.45 72.2705 238.675 72.2705 238.869 72.2705C290.079 72.2705 317.778 112.747 318.068 113.133C355.397 165.151 335.975 236.62 335.782 237.327C321.095 289.731 250.077 293.397 238.837 293.622C238.837 293.622 238.547 293.622 238.064 293.622V293.718ZM236.195 76.5143C188.463 76.5143 161.795 115.158 161.538 115.544C123.403 167.305 143.372 234.016 143.566 234.691C163.953 286.774 227.403 289.41 237.387 289.506C238.128 289.506 316.715 289.796 331.724 236.234C331.917 235.527 350.791 165.955 314.622 115.576C314.332 115.126 287.792 76.5143 238.901 76.5143C238.74 76.5143 238.579 76.5143 238.45 76.5143H237.741C237.226 76.5143 236.743 76.5143 236.228 76.5143H236.195Z" fill="black"/>
<path d="M205.759 135.38C204.89 135.38 204.117 134.866 203.795 133.998L199.511 122.488C199.092 121.395 199.672 120.206 200.735 119.788C201.83 119.402 203.022 119.949 203.44 121.009L207.724 132.519C208.143 133.612 207.563 134.802 206.5 135.22C206.242 135.316 206.017 135.348 205.759 135.348V135.38Z" fill="black"/>
<path d="M224.279 132.358C224.279 132.358 224.021 132.358 223.892 132.326C222.765 132.133 221.992 131.04 222.185 129.882L224.021 119.787C224.214 118.662 225.309 117.89 226.469 118.083C227.596 118.276 228.369 119.369 228.176 120.527L226.34 130.622C226.147 131.65 225.277 132.358 224.279 132.358Z" fill="black"/>
<path d="M214.81 131.555C213.715 131.555 212.78 130.687 212.716 129.562L212.169 119.402C212.104 118.245 213.006 117.248 214.165 117.184C215.228 117.12 216.323 118.02 216.388 119.177L216.935 129.337C217 130.494 216.098 131.491 214.938 131.555C214.906 131.555 214.874 131.555 214.81 131.555Z" fill="black"/>
<path d="M267.437 135.381C267.18 135.381 266.954 135.348 266.697 135.252C265.602 134.834 265.054 133.645 265.473 132.551L269.756 121.042C270.175 119.949 271.367 119.402 272.462 119.82C273.557 120.238 274.104 121.428 273.686 122.521L269.402 134.03C269.08 134.866 268.275 135.413 267.437 135.413V135.381Z" fill="black"/>
<path d="M248.885 132.358C247.887 132.358 246.985 131.651 246.824 130.622L244.988 120.527C244.795 119.37 245.536 118.277 246.695 118.084C247.855 117.859 248.95 118.631 249.143 119.788L250.979 129.883C251.172 131.04 250.431 132.133 249.272 132.326C249.143 132.326 249.014 132.358 248.885 132.358Z" fill="black"/>
<path d="M258.387 131.555C258.387 131.555 258.322 131.555 258.258 131.555C257.098 131.491 256.197 130.494 256.261 129.337L256.809 119.177C256.873 118.02 257.904 117.12 259.031 117.184C260.19 117.248 261.092 118.245 261.028 119.402L260.48 129.562C260.416 130.687 259.482 131.555 258.387 131.555Z" fill="black"/>
<path d="M232.588 221.381C203.633 221.381 194.357 203.056 193.971 202.252C193.327 200.934 193.874 199.359 195.195 198.748C196.483 198.105 198.061 198.651 198.706 199.937C199.06 200.645 207.627 217.266 235.584 216.076C236.002 216.076 263.154 216.494 276.713 197.044C277.55 195.854 279.193 195.565 280.385 196.401C281.576 197.237 281.866 198.876 281.029 200.066C265.827 221.896 236.84 221.381 235.616 221.349C234.585 221.381 233.587 221.413 232.588 221.413V221.381Z" fill="black"/>
<path d="M255.52 181.515C269.039 181.515 279.998 169.309 279.998 154.252C279.998 139.195 269.039 126.989 255.52 126.989C242.001 126.989 231.042 139.195 231.042 154.252C231.042 169.309 242.001 181.515 255.52 181.515Z" fill="#FFD200"/>
<path d="M255.52 183.605C240.866 183.605 228.949 170.423 228.949 154.252C228.949 138.081 240.866 124.899 255.52 124.899C270.175 124.899 282.092 138.081 282.092 154.252C282.092 170.423 270.175 183.605 255.52 183.605ZM255.52 129.079C243.185 129.079 233.136 140.363 233.136 154.252C233.136 168.141 243.185 179.425 255.52 179.425C267.856 179.425 277.905 168.141 277.905 154.252C277.905 140.363 267.856 129.079 255.52 129.079Z" fill="black"/>
<path d="M216.195 180.711C228.735 180.711 238.901 169.398 238.901 155.442C238.901 141.486 228.735 130.172 216.195 130.172C203.654 130.172 193.488 141.486 193.488 155.442C193.488 169.398 203.654 180.711 216.195 180.711Z" fill="#FFD200"/>
<path d="M216.195 182.833C202.506 182.833 191.395 170.552 191.395 155.441C191.395 140.331 202.506 128.05 216.195 128.05C229.883 128.05 240.995 140.331 240.995 155.441C240.995 170.552 229.883 182.833 216.195 182.833ZM216.195 132.261C204.857 132.261 195.614 142.646 195.614 155.441C195.614 168.237 204.857 178.621 216.195 178.621C227.532 178.621 236.775 168.237 236.775 155.441C236.775 142.646 227.532 132.261 216.195 132.261Z" fill="black"/>
<path d="M234.36 208.328C245.744 208.328 254.973 200.325 254.973 190.452C254.973 180.58 245.744 172.577 234.36 172.577C222.976 172.577 213.747 180.58 213.747 190.452C213.747 200.325 222.976 208.328 234.36 208.328Z" fill="#F5333F"/>
<path d="M234.36 210.45C221.831 210.45 211.621 201.48 211.621 190.485C211.621 179.489 221.831 170.52 234.36 170.52C246.889 170.52 257.099 179.489 257.099 190.485C257.099 201.48 246.889 210.45 234.36 210.45ZM234.36 174.699C224.15 174.699 215.84 181.772 215.84 190.485C215.84 199.197 224.15 206.27 234.36 206.27C244.57 206.27 252.879 199.197 252.879 190.485C252.879 181.772 244.57 174.699 234.36 174.699Z" fill="black"/>
<path d="M217.193 166.726C222.921 166.726 227.564 161.098 227.564 154.156C227.564 147.213 222.921 141.585 217.193 141.585C211.465 141.585 206.822 147.213 206.822 154.156C206.822 161.098 211.465 166.726 217.193 166.726Z" fill="black"/>
<path d="M256.68 166.726C262.407 166.726 267.051 161.098 267.051 154.156C267.051 147.213 262.407 141.585 256.68 141.585C250.952 141.585 246.309 147.213 246.309 154.156C246.309 161.098 250.952 166.726 256.68 166.726Z" fill="black"/>
<path d="M306.602 235.076C305.668 235.076 283.702 234.626 277.712 223.181C276.584 220.77 274.33 217.78 273.041 218.23C273.009 218.23 272.107 218.616 271.818 219.644C271.592 220.513 271.495 223.117 275.779 228.357C276.52 229.257 276.391 230.575 275.489 231.315C274.587 232.054 273.267 231.926 272.526 231.026C268.403 225.978 266.825 221.734 267.792 218.423C268.693 215.304 271.431 214.34 271.721 214.243C277.228 212.475 281.061 220.448 281.48 221.348C285.441 228.936 300.998 230.833 306.666 230.897C307.826 230.897 308.76 231.861 308.728 233.019C308.728 234.176 307.762 235.076 306.634 235.076H306.602Z" fill="black"/>
<path d="M268.339 238.485C267.92 238.485 267.502 238.356 267.115 238.099C262.509 234.852 260.094 231.54 259.933 228.261C259.772 225.046 261.769 223.214 261.994 223.021C267.469 218.906 274.394 226.557 275.167 227.457C275.94 228.326 275.844 229.644 274.974 230.415C274.104 231.187 272.752 231.09 272.011 230.222C270.304 228.293 266.471 225.175 264.764 226.236C264.571 226.429 264.088 227.104 264.152 228.133C264.249 229.226 265.054 231.508 269.563 234.691C270.529 235.366 270.755 236.684 270.078 237.617C269.66 238.195 269.015 238.517 268.371 238.517L268.339 238.485Z" fill="black"/>
<path d="M301.867 260.282C301.867 260.282 301.706 260.282 301.642 260.282C273.267 257.26 257.968 242.15 257.356 241.507C255.391 239.353 254.554 237.231 254.779 235.205C255.037 232.698 256.841 231.347 257.034 231.219C261.833 227.586 268.822 234.016 269.595 234.755C270.432 235.559 270.465 236.877 269.659 237.713C268.854 238.549 267.534 238.581 266.696 237.777C264.925 236.105 261.028 233.469 259.546 234.594C259.546 234.594 259.031 235.012 258.966 235.688C258.902 236.459 259.417 237.52 260.416 238.613C260.48 238.677 275.296 253.241 302.093 256.07C303.252 256.199 304.09 257.228 303.961 258.385C303.832 259.478 302.93 260.25 301.867 260.25V260.282Z" fill="black"/>
<path d="M180.444 125.189C180.444 125.189 201.476 160.039 235.938 130.333C235.938 130.333 265.022 159.364 282.704 124.289L272.623 110.207L189.172 115.801L180.444 125.189Z" fill="#F280A1"/>
<path d="M282.446 129.433C282.446 129.433 274.974 142.518 258.806 141.585C258.806 141.585 241.929 141.392 236.099 129.015C236.099 129.015 228.949 145.379 206.629 143.257C206.629 143.257 193.585 141.971 185.823 132.197" fill="#F280A1"/>
<path d="M210.558 146.054C209.238 146.054 207.853 145.989 206.403 145.861C205.824 145.796 192.167 144.317 183.793 133.805C182.892 132.679 183.085 131.007 184.212 130.107C185.339 129.207 187.014 129.4 187.916 130.525C194.873 139.27 206.822 140.588 206.919 140.62C227.081 142.581 233.651 128.082 233.716 127.953C234.134 127.021 235.068 126.378 236.099 126.378H236.131C237.162 126.378 238.096 126.957 238.515 127.889C243.539 138.595 258.709 138.948 258.87 138.948C273.331 139.784 280.127 128.243 280.192 128.114C280.9 126.86 282.511 126.41 283.767 127.117C285.023 127.825 285.474 129.432 284.765 130.686C284.443 131.265 276.294 145.153 258.677 144.157C258.097 144.157 243.732 143.867 236.131 133.965C235.004 135.444 233.49 137.212 231.461 138.884C227.435 142.26 220.671 145.989 210.59 145.989L210.558 146.054Z" fill="black"/>
</g>
</g>
<defs>
<clipPath id="clip0_4757_51351">
<rect width="344" height="270" fill="white"/>
</clipPath>
<clipPath id="clip1_4757_51351">
<rect width="207" height="316" fill="white" transform="translate(134 28)"/>
</clipPath>
</defs>
</svg>
