<svg width="424" height="250" viewBox="0 0 424 250" fill="none" xmlns="http://www.w3.org/2000/svg">
<g clip-path="url(#clip0_4757_51353)">
<g clip-path="url(#clip1_4757_51353)">
<path d="M257.236 39.5089C265.936 13.9661 278.444 8.05647 278.444 8.05647C299.39 -1.6616 306.317 15.9688 306.317 15.9688C318.596 45.8782 257.039 59.2077 257.039 59.2077L256.35 58.945C256.35 58.945 195.646 45.8782 207.925 15.9688C207.925 15.9688 214.819 -1.6616 235.798 8.05647C235.798 8.05647 248.306 13.9333 257.006 39.5089H257.269H257.236Z" fill="#F5333F"/>
<path d="M256.842 61.4727L255.726 61.013C252.476 60.2908 216.33 51.9188 206.579 33.4019C203.559 27.6564 203.329 21.517 205.922 15.1805C206.021 14.885 209.008 7.49799 216.822 4.37901C222.534 2.08082 229.199 2.67178 236.684 6.11907C237.21 6.34889 248.405 11.8317 257.138 33.6646C265.838 11.8646 277.065 6.38172 277.558 6.1519C285.043 2.70462 291.708 2.11365 297.42 4.37901C305.234 7.53082 308.189 14.9179 308.32 15.2133C310.881 21.4513 310.651 27.5579 307.663 33.2706C297.584 52.4441 259.14 60.9802 257.499 61.3414L256.842 61.4727ZM224.077 7.301C222.075 7.301 220.204 7.66215 218.431 8.3516C212.357 10.7811 209.895 16.7564 209.862 16.7893C207.728 22.0094 207.892 26.77 210.322 31.3992C219.416 48.6356 256.382 56.7778 256.744 56.8763L257.138 57.0076C262.128 55.8257 295.286 47.4537 303.789 31.2679C306.219 26.6715 306.383 21.9438 304.282 16.8221C304.249 16.7236 301.787 10.7811 295.713 8.3516C291.15 6.54588 285.634 7.10401 279.298 10.026C279.199 10.0588 267.446 16.0013 259.206 40.198L258.713 41.6426H255.398L254.905 40.198C246.599 15.7715 234.944 10.0588 234.813 10.026C230.906 8.22028 227.295 7.301 224.045 7.301H224.077Z" fill="black"/>
<path d="M259.797 272.217C259.797 272.217 184.057 274.417 160.715 214.729C160.715 214.729 139.375 145.488 179.297 91.2178C179.297 91.2178 207.63 49.1937 259.436 50.4413H258.713C311.143 49.7847 338.852 91.2178 338.852 91.2178C376.771 144.175 356.613 216.272 356.613 216.272C340.691 273.202 258.385 272.217 258.385 272.217" fill="#F280A1"/>
<path d="M259.075 274.351C250.9 274.351 181.037 272.611 158.712 215.485C158.45 214.631 137.471 144.438 177.59 89.9048C177.82 89.5436 206.284 48.209 257.203 48.209C257.893 48.209 258.549 48.209 259.239 48.209C259.468 48.209 259.698 48.209 259.895 48.209C312.095 48.209 340.329 89.5436 340.625 89.9376C378.675 143.059 358.878 216.043 358.682 216.765C343.711 270.28 271.32 274.023 259.862 274.253C259.862 274.253 259.567 274.253 259.075 274.253V274.351ZM257.203 52.5427C208.549 52.5427 181.365 92.006 181.103 92.3999C142.199 145.258 162.554 213.383 162.751 214.073C183.532 267.26 248.208 269.952 258.385 270.05C259.14 270.05 339.246 270.346 354.545 215.649C354.742 214.926 373.98 143.879 337.112 92.4328C336.817 91.9731 309.764 52.5427 259.928 52.5427C259.764 52.5427 259.6 52.5427 259.468 52.5427H258.746C258.221 52.5427 257.729 52.5427 257.203 52.5427Z" fill="black"/>
<path d="M226.146 112.657C225.259 112.657 224.471 112.132 224.143 111.245L219.777 99.4916C219.35 98.3753 219.941 97.1606 221.024 96.7338C222.141 96.3398 223.355 96.8979 223.782 97.9814L228.148 109.735C228.575 110.851 227.984 112.066 226.901 112.493C226.638 112.591 226.408 112.624 226.146 112.624V112.657Z" fill="black"/>
<path d="M245.023 109.57C245.023 109.57 244.761 109.57 244.629 109.537C243.48 109.34 242.692 108.224 242.889 107.042L244.761 96.7332C244.958 95.5841 246.074 94.7961 247.256 94.9931C248.405 95.1901 249.193 96.3063 248.996 97.4883L247.124 107.797C246.927 108.848 246.041 109.57 245.023 109.57Z" fill="black"/>
<path d="M235.371 108.749C234.255 108.749 233.303 107.863 233.237 106.714L232.679 96.339C232.613 95.1571 233.533 94.1393 234.715 94.0736C235.831 94.008 236.914 94.9272 236.98 96.1092L237.538 106.484C237.604 107.666 236.684 108.684 235.502 108.749C235.47 108.749 235.437 108.749 235.371 108.749Z" fill="black"/>
<path d="M270.105 109.57C269.088 109.57 268.169 108.848 268.004 107.797L266.133 97.4882C265.936 96.3062 266.691 95.19 267.873 94.993C269.055 94.7632 270.171 95.5511 270.368 96.7331L272.239 107.042C272.436 108.224 271.681 109.34 270.499 109.537C270.368 109.537 270.237 109.57 270.105 109.57Z" fill="black"/>
<path d="M253.493 200.48C223.979 200.48 214.524 181.767 214.13 180.946C213.473 179.6 214.031 177.991 215.377 177.367C216.691 176.711 218.299 177.269 218.956 178.582C219.317 179.304 228.083 196.278 256.547 195.063C256.973 195.063 284.649 195.49 298.471 175.627C299.324 174.412 300.999 174.117 302.213 174.97C303.428 175.824 303.724 177.499 302.87 178.713C287.374 201.006 257.827 200.48 256.579 200.448C255.529 200.48 254.511 200.513 253.493 200.513V200.48Z" fill="black"/>
<path d="M236.783 158.949C249.566 158.949 259.928 147.395 259.928 133.143C259.928 118.891 249.566 107.338 236.783 107.338C224 107.338 213.637 118.891 213.637 133.143C213.637 147.395 224 158.949 236.783 158.949Z" fill="#FFD200"/>
<path d="M236.783 161.115C222.83 161.115 211.504 148.574 211.504 133.143C211.504 117.712 222.83 105.171 236.783 105.171C250.736 105.171 262.062 117.712 262.062 133.143C262.062 148.574 250.736 161.115 236.783 161.115ZM236.783 109.472C225.227 109.472 215.804 120.076 215.804 133.143C215.804 146.21 225.227 156.815 236.783 156.815C248.339 156.815 257.761 146.21 257.761 133.143C257.761 120.076 248.339 109.472 236.783 109.472Z" fill="black"/>
<path d="M237.662 132.749C239.392 123.775 235.555 115.491 229.092 114.245C222.629 112.999 215.988 119.264 214.258 128.237C212.529 137.211 216.366 145.495 222.829 146.741C229.291 147.987 235.933 141.722 237.662 132.749Z" fill="black"/>
<path d="M289.016 112.657C288.753 112.657 288.523 112.624 288.261 112.525C287.144 112.099 286.586 110.884 287.013 109.768L291.38 98.014C291.806 96.8978 293.021 96.3396 294.137 96.7664C295.253 97.1932 295.812 98.408 295.385 99.5243L291.018 111.278C290.69 112.131 289.869 112.69 289.016 112.69V112.657Z" fill="black"/>
<path d="M279.79 108.749C279.79 108.749 279.725 108.749 279.659 108.749C278.477 108.684 277.558 107.666 277.624 106.484L278.182 96.1092C278.247 94.9272 279.265 94.008 280.447 94.0736C281.629 94.1393 282.548 95.1571 282.482 96.339L281.924 106.714C281.859 107.863 280.907 108.749 279.79 108.749Z" fill="black"/>
<path d="M276.869 159.769C290.649 159.769 301.82 147.304 301.82 131.928C301.82 116.552 290.649 104.087 276.869 104.087C263.088 104.087 251.918 116.552 251.918 131.928C251.918 147.304 263.088 159.769 276.869 159.769Z" fill="#FFD200"/>
<path d="M276.869 161.903C261.931 161.903 249.784 148.442 249.784 131.928C249.784 115.414 261.931 101.953 276.869 101.953C291.806 101.953 303.953 115.414 303.953 131.928C303.953 148.442 291.806 161.903 276.869 161.903ZM276.869 106.221C264.295 106.221 254.052 117.745 254.052 131.928C254.052 146.111 264.295 157.635 276.869 157.635C289.443 157.635 299.686 146.111 299.686 131.928C299.686 117.745 289.443 106.221 276.869 106.221Z" fill="black"/>
<path d="M255.299 187.151C266.903 187.151 276.31 178.978 276.31 168.897C276.31 158.815 266.903 150.643 255.299 150.643C243.695 150.643 234.288 158.815 234.288 168.897C234.288 178.978 243.695 187.151 255.299 187.151Z" fill="#F5333F"/>
<path d="M255.299 189.318C242.528 189.318 232.121 180.158 232.121 168.929C232.121 157.701 242.528 148.541 255.299 148.541C268.07 148.541 278.477 157.701 278.477 168.929C278.477 180.158 268.07 189.318 255.299 189.318ZM255.299 152.809C244.892 152.809 236.422 160.032 236.422 168.929C236.422 177.827 244.892 185.049 255.299 185.049C265.706 185.049 274.176 177.827 274.176 168.929C274.176 160.032 265.706 152.809 255.299 152.809Z" fill="black"/>
<path d="M274.933 131.954C276.663 122.98 272.826 114.696 266.363 113.45C259.9 112.204 253.259 118.469 251.53 127.443C249.8 136.416 253.637 144.7 260.1 145.946C266.563 147.192 273.204 140.927 274.933 131.954Z" fill="black"/>
</g>
<path d="M333.41 162.968L348.303 182.388C348.303 182.388 371.08 172.832 381.993 159.008C392.907 145.184 368.512 135.78 368.512 135.78C368.512 135.78 366.124 148.378 333.41 162.943V162.968Z" fill="#F280A1"/>
<mask id="path-21-outside-1_4757_51353" maskUnits="userSpaceOnUse" x="329.726" y="124.35" width="65" height="60" fill="black">
<rect fill="white" x="329.726" y="124.35" width="65" height="60"/>
<path fill-rule="evenodd" clip-rule="evenodd" d="M333.05 163.582C333.05 163.582 333.282 163.607 333.384 163.556C334.232 163.352 354.158 158.267 367.126 139.128L370.772 132.893L370.775 132.887C370.892 132.654 373.032 128.377 375.651 129.086C376.691 129.368 377.258 129.839 377.562 130.31C377.561 130.42 377.574 130.532 377.603 130.644C377.655 130.853 377.751 131.038 377.879 131.191C377.916 131.498 377.876 131.729 377.859 131.794V131.999C377.859 132.05 377.525 137.109 373.211 142.118C372.724 142.68 372.801 143.497 373.366 143.983C373.93 144.443 374.752 144.392 375.24 143.83C379.862 138.438 380.453 133.072 380.504 132.229C380.542 132.019 380.566 131.78 380.569 131.523C381.245 131.55 382.064 131.696 382.764 132.152C383.611 132.714 384.176 133.66 384.433 134.988C385.38 139.98 380.28 145.049 380.197 145.132L380.196 145.133C379.682 145.644 379.657 146.487 380.196 146.998C380.453 147.254 380.787 147.381 381.146 147.381L381.12 147.432C381.454 147.432 381.788 147.305 382.045 147.049L382.05 147.044C382.319 146.776 386.493 142.627 387.117 137.552C387.876 137.465 388.912 137.482 389.517 137.978C390.082 138.438 390.288 139.332 390.159 140.661C389.671 145.72 381.043 163.939 348.894 180.625C348.252 180.957 347.995 181.749 348.329 182.414C348.56 182.874 348.997 183.104 349.485 183.104C349.69 183.104 349.895 183.053 350.101 182.95C383.483 165.651 392.239 146.742 392.778 140.916C392.984 138.668 392.445 137.007 391.186 135.959C389.917 134.912 388.274 134.802 387.091 134.903C387.072 134.778 387.051 134.653 387.026 134.528C386.641 132.459 385.666 130.925 384.176 129.954C382.676 128.991 380.977 128.859 379.847 128.91C379.232 127.917 378.156 127.01 376.37 126.53C371.602 125.25 368.668 131.171 368.445 131.622L368.435 131.641L364.892 137.697C352.515 155.967 332.948 160.975 332.742 161.001C332.023 161.18 331.587 161.895 331.766 162.585C331.921 163.173 332.46 163.582 333.05 163.582Z"/>
</mask>
<path fill-rule="evenodd" clip-rule="evenodd" d="M333.05 163.582C333.05 163.582 333.282 163.607 333.384 163.556C334.232 163.352 354.158 158.267 367.126 139.128L370.772 132.893L370.775 132.887C370.892 132.654 373.032 128.377 375.651 129.086C376.691 129.368 377.258 129.839 377.562 130.31C377.561 130.42 377.574 130.532 377.603 130.644C377.655 130.853 377.751 131.038 377.879 131.191C377.916 131.498 377.876 131.729 377.859 131.794V131.999C377.859 132.05 377.525 137.109 373.211 142.118C372.724 142.68 372.801 143.497 373.366 143.983C373.93 144.443 374.752 144.392 375.24 143.83C379.862 138.438 380.453 133.072 380.504 132.229C380.542 132.019 380.566 131.78 380.569 131.523C381.245 131.55 382.064 131.696 382.764 132.152C383.611 132.714 384.176 133.66 384.433 134.988C385.38 139.98 380.28 145.049 380.197 145.132L380.196 145.133C379.682 145.644 379.657 146.487 380.196 146.998C380.453 147.254 380.787 147.381 381.146 147.381L381.12 147.432C381.454 147.432 381.788 147.305 382.045 147.049L382.05 147.044C382.319 146.776 386.493 142.627 387.117 137.552C387.876 137.465 388.912 137.482 389.517 137.978C390.082 138.438 390.288 139.332 390.159 140.661C389.671 145.72 381.043 163.939 348.894 180.625C348.252 180.957 347.995 181.749 348.329 182.414C348.56 182.874 348.997 183.104 349.485 183.104C349.69 183.104 349.895 183.053 350.101 182.95C383.483 165.651 392.239 146.742 392.778 140.916C392.984 138.668 392.445 137.007 391.186 135.959C389.917 134.912 388.274 134.802 387.091 134.903C387.072 134.778 387.051 134.653 387.026 134.528C386.641 132.459 385.666 130.925 384.176 129.954C382.676 128.991 380.977 128.859 379.847 128.91C379.232 127.917 378.156 127.01 376.37 126.53C371.602 125.25 368.668 131.171 368.445 131.622L368.435 131.641L364.892 137.697C352.515 155.967 332.948 160.975 332.742 161.001C332.023 161.18 331.587 161.895 331.766 162.585C331.921 163.173 332.46 163.582 333.05 163.582Z" fill="black"/>
<path d="M333.384 163.556L333.15 162.584L333.04 162.611L332.939 162.661L333.384 163.556ZM333.05 163.582L333.16 162.588L333.106 162.582H333.05V163.582ZM367.126 139.128L367.954 139.689L367.972 139.661L367.989 139.633L367.126 139.128ZM370.772 132.893L371.635 133.398L371.652 133.37L371.666 133.341L370.772 132.893ZM370.775 132.887L371.669 133.335L371.669 133.335L370.775 132.887ZM375.651 129.086L375.913 128.121L375.912 128.12L375.651 129.086ZM377.562 130.31L378.562 130.319L378.565 130.02L378.403 129.769L377.562 130.31ZM377.603 130.644L376.633 130.888V130.888L377.603 130.644ZM377.879 131.191L378.872 131.072L378.837 130.777L378.646 130.549L377.879 131.191ZM377.859 131.794L376.889 131.551L376.859 131.671V131.794H377.859ZM373.211 142.118L373.967 142.773L373.969 142.77L373.211 142.118ZM373.366 143.983L372.714 144.741L372.724 144.75L372.734 144.758L373.366 143.983ZM375.24 143.83L375.995 144.485L375.999 144.48L375.24 143.83ZM380.504 132.229L379.52 132.05L379.51 132.109L379.506 132.168L380.504 132.229ZM380.569 131.523L380.608 130.524L379.58 130.484L379.569 131.512L380.569 131.523ZM382.764 132.152L383.317 131.319L383.31 131.314L382.764 132.152ZM384.433 134.988L385.415 134.802L385.415 134.799L384.433 134.988ZM380.197 145.132L379.492 144.423L379.49 144.425L380.197 145.132ZM380.196 145.133L380.901 145.842L380.903 145.84L380.196 145.133ZM380.196 146.998L380.901 146.289L380.893 146.281L380.884 146.272L380.196 146.998ZM381.146 147.381L382.04 147.83L382.768 146.381H381.146V147.381ZM381.12 147.432L380.227 146.983L379.499 148.432H381.12V147.432ZM382.045 147.049L381.34 146.34L381.34 146.34L382.045 147.049ZM382.05 147.044L382.755 147.753L382.755 147.753L382.05 147.044ZM387.117 137.552L387.002 136.558L386.22 136.648L386.124 137.43L387.117 137.552ZM389.517 137.978L388.883 138.751L388.886 138.753L389.517 137.978ZM390.159 140.661L389.164 140.565L389.164 140.565L390.159 140.661ZM348.894 180.625L349.354 181.513L349.355 181.513L348.894 180.625ZM348.329 182.414L347.436 182.863L347.436 182.863L348.329 182.414ZM350.101 182.95L350.546 183.846L350.554 183.842L350.561 183.838L350.101 182.95ZM392.778 140.916L393.774 141.009L393.774 141.007L392.778 140.916ZM391.186 135.959L391.826 135.191L391.823 135.188L391.186 135.959ZM387.091 134.903L386.102 135.051L386.241 135.979L387.175 135.899L387.091 134.903ZM387.026 134.528L386.043 134.711L386.045 134.718L387.026 134.528ZM384.176 129.954L384.722 129.117L384.717 129.113L384.176 129.954ZM379.847 128.91L378.997 129.436L379.306 129.935L379.892 129.909L379.847 128.91ZM376.37 126.53L376.111 127.496L376.111 127.496L376.37 126.53ZM368.445 131.622L369.34 132.067L369.341 132.066L368.445 131.622ZM368.435 131.641L369.298 132.146L369.316 132.117L369.331 132.086L368.435 131.641ZM364.892 137.697L365.72 138.258L365.738 138.23L365.755 138.202L364.892 137.697ZM332.742 161.001L332.619 160.009L332.559 160.016L332.501 160.031L332.742 161.001ZM331.766 162.585L330.799 162.837L330.799 162.839L331.766 162.585ZM332.939 162.661C333.057 162.602 333.149 162.592 333.157 162.59C333.179 162.588 333.188 162.588 333.179 162.588C333.172 162.588 333.164 162.588 333.157 162.587C333.154 162.587 333.152 162.587 333.152 162.587C333.152 162.587 333.153 162.587 333.154 162.587C333.155 162.587 333.156 162.587 333.157 162.587C333.157 162.587 333.158 162.588 333.158 162.588C333.159 162.588 333.159 162.588 333.159 162.588C333.159 162.588 333.16 162.588 333.16 162.588C333.16 162.588 333.16 162.588 333.16 162.588C333.16 162.588 333.16 162.588 333.05 163.582C332.94 164.576 332.941 164.576 332.941 164.576C332.941 164.576 332.941 164.576 332.941 164.576C332.941 164.576 332.941 164.576 332.942 164.576C332.942 164.576 332.942 164.576 332.943 164.576C332.944 164.576 332.944 164.576 332.945 164.576C332.947 164.576 332.949 164.577 332.952 164.577C332.957 164.577 332.962 164.578 332.969 164.579C332.982 164.58 332.999 164.581 333.02 164.583C333.059 164.585 333.115 164.588 333.179 164.588C333.24 164.588 333.326 164.586 333.42 164.573C333.501 164.562 333.66 164.536 333.83 164.452L332.939 162.661ZM366.298 138.567C353.542 157.394 333.917 162.399 333.15 162.584L333.619 164.528C334.546 164.305 354.775 159.14 367.954 139.689L366.298 138.567ZM369.909 132.388L366.262 138.623L367.989 139.633L371.635 133.398L369.909 132.388ZM369.881 132.439L369.878 132.445L371.666 133.341L371.669 133.335L369.881 132.439ZM375.912 128.12C373.984 127.599 372.417 128.945 371.52 129.978C370.557 131.086 369.947 132.306 369.881 132.44L371.669 133.335C371.719 133.235 372.238 132.2 373.03 131.289C373.887 130.303 374.699 129.864 375.39 130.051L375.912 128.12ZM378.403 129.769C377.942 129.052 377.146 128.455 375.913 128.121L375.389 130.051C376.236 130.281 376.575 130.625 376.721 130.852L378.403 129.769ZM376.562 130.301C376.56 130.496 376.584 130.693 376.633 130.888L378.572 130.401C378.565 130.37 378.562 130.343 378.562 130.319L376.562 130.301ZM376.633 130.888C376.722 131.243 376.888 131.564 377.113 131.833L378.646 130.549C378.615 130.512 378.588 130.463 378.572 130.401L376.633 130.888ZM378.829 132.038C378.872 131.866 378.925 131.511 378.872 131.072L376.886 131.31C376.896 131.392 376.895 131.462 376.892 131.511C376.89 131.536 376.888 131.553 376.886 131.563C376.884 131.575 376.885 131.57 376.889 131.551L378.829 132.038ZM378.859 131.999V131.794H376.859V131.999H378.859ZM373.969 142.77C378.473 137.541 378.859 132.232 378.859 131.999H376.859C376.859 131.868 376.578 136.677 372.454 141.465L373.969 142.77ZM374.017 143.224C373.932 143.151 373.896 143.066 373.89 142.993C373.884 142.923 373.903 142.846 373.967 142.773L372.456 141.462C371.589 142.461 371.747 143.911 372.714 144.741L374.017 143.224ZM374.485 143.174C374.364 143.314 374.159 143.339 373.997 143.207L372.734 144.758C373.702 145.547 375.141 145.47 375.995 144.485L374.485 143.174ZM379.506 132.168C379.463 132.873 378.917 138.004 374.481 143.179L375.999 144.48C380.807 138.872 381.443 133.271 381.502 132.289L379.506 132.168ZM379.569 131.512C379.567 131.716 379.548 131.898 379.52 132.05L381.488 132.407C381.537 132.139 381.565 131.845 381.569 131.534L379.569 131.512ZM380.529 132.522C381.112 132.545 381.728 132.671 382.218 132.99L383.31 131.314C382.4 130.721 381.378 130.554 380.608 130.524L380.529 132.522ZM382.211 132.985C382.774 133.359 383.229 134.031 383.451 135.178L385.415 134.799C385.123 133.289 384.449 132.07 383.317 131.319L382.211 132.985ZM383.45 135.175C383.854 137.3 382.974 139.545 381.849 141.378C380.742 143.182 379.509 144.405 379.492 144.423L380.902 145.841C380.968 145.775 382.327 144.423 383.554 142.424C384.762 140.454 385.959 137.669 385.415 134.802L383.45 135.175ZM379.49 144.425L379.489 144.426L380.903 145.84L380.904 145.839L379.49 144.425ZM379.491 144.424C378.607 145.303 378.53 146.797 379.508 147.724L380.884 146.272C380.784 146.177 380.758 145.985 380.901 145.842L379.491 144.424ZM379.491 147.707C379.948 148.162 380.541 148.381 381.146 148.381V146.381C381.032 146.381 380.958 146.346 380.901 146.289L379.491 147.707ZM380.253 146.932L380.227 146.983L382.014 147.882L382.04 147.83L380.253 146.932ZM381.12 148.432C381.71 148.432 382.3 148.206 382.75 147.758L381.34 146.34C381.276 146.404 381.198 146.432 381.12 146.432V148.432ZM382.75 147.758L382.755 147.753L381.345 146.335L381.34 146.34L382.75 147.758ZM382.755 147.753C382.911 147.598 384.072 146.442 385.279 144.662C386.477 142.892 387.77 140.433 388.109 137.674L386.124 137.43C385.84 139.746 384.734 141.899 383.623 143.54C382.519 145.17 381.458 146.222 381.345 146.335L382.755 147.753ZM390.151 137.204C389.645 136.79 389.025 136.622 388.503 136.554C387.968 136.486 387.433 136.509 387.002 136.558L387.231 138.545C387.559 138.508 387.922 138.496 388.247 138.538C388.584 138.582 388.785 138.67 388.883 138.751L390.151 137.204ZM391.155 140.757C391.288 139.377 391.134 138.005 390.149 137.202L388.886 138.753C389.03 138.871 389.287 139.288 389.164 140.565L391.155 140.757ZM349.355 181.513C365.529 173.118 375.829 164.316 382.159 156.934C388.455 149.591 390.882 143.581 391.155 140.757L389.164 140.565C388.948 142.8 386.817 148.429 380.641 155.632C374.497 162.796 364.408 171.446 348.433 179.738L349.355 181.513ZM349.223 181.965C349.13 181.78 349.207 181.589 349.354 181.513L348.434 179.737C347.297 180.326 346.861 181.718 347.436 182.863L349.223 181.965ZM349.485 182.104C349.398 182.104 349.342 182.084 349.311 182.065C349.283 182.049 349.252 182.023 349.223 181.965L347.436 182.863C347.856 183.7 348.665 184.104 349.485 184.104V182.104ZM349.655 182.055C349.572 182.097 349.518 182.104 349.485 182.104V184.104C349.862 184.104 350.219 184.009 350.546 183.846L349.655 182.055ZM391.783 140.824C391.539 143.454 389.352 149.45 382.991 156.986C376.658 164.491 366.232 173.465 349.641 182.063L350.561 183.838C367.352 175.137 377.995 166.007 384.52 158.276C391.018 150.576 393.478 144.204 393.774 141.009L391.783 140.824ZM390.547 136.728C391.465 137.493 391.97 138.773 391.783 140.825L393.774 141.007C393.998 138.562 393.424 136.521 391.826 135.191L390.547 136.728ZM387.175 135.899C388.263 135.807 389.581 135.931 390.55 136.73L391.823 135.188C390.253 133.892 388.285 133.798 387.006 133.906L387.175 135.899ZM388.08 134.754C388.059 134.616 388.035 134.478 388.008 134.339L386.045 134.718C386.066 134.829 386.085 134.94 386.102 135.051L388.08 134.754ZM388.01 134.345C387.582 132.049 386.475 130.259 384.722 129.117L383.63 130.792C384.856 131.592 385.7 132.868 386.043 134.711L388.01 134.345ZM384.717 129.113C382.969 127.99 381.03 127.856 379.802 127.911L379.892 129.909C380.924 129.862 382.384 129.991 383.636 130.796L384.717 129.113ZM376.111 127.496C377.671 127.915 378.526 128.677 378.997 129.436L380.697 128.383C379.938 127.157 378.641 126.105 376.629 125.565L376.111 127.496ZM369.341 132.066C369.442 131.862 370.174 130.388 371.415 129.129C372.66 127.867 374.232 126.992 376.111 127.496L376.629 125.565C373.74 124.789 371.461 126.234 369.991 127.725C368.518 129.219 367.671 130.931 367.549 131.178L369.341 132.066ZM369.331 132.086L369.34 132.067L367.549 131.177L367.54 131.196L369.331 132.086ZM365.755 138.202L369.298 132.146L367.572 131.136L364.029 137.192L365.755 138.202ZM332.866 161.993C332.947 161.983 333.047 161.957 333.058 161.954C333.11 161.941 333.178 161.924 333.262 161.901C333.43 161.856 333.666 161.789 333.965 161.699C334.561 161.518 335.41 161.243 336.458 160.856C338.553 160.084 341.451 158.865 344.733 157.068C351.293 153.476 359.418 147.56 365.72 138.258L364.064 137.136C357.989 146.104 350.141 151.827 343.772 155.314C340.59 157.056 337.784 158.236 335.766 158.98C334.757 159.352 333.946 159.615 333.386 159.784C333.105 159.869 332.888 159.931 332.741 159.97C332.667 159.99 332.612 160.004 332.576 160.013C332.501 160.032 332.55 160.017 332.619 160.009L332.866 161.993ZM332.734 162.333C332.702 162.209 332.778 162.023 332.984 161.971L332.501 160.031C331.269 160.337 330.472 161.582 330.799 162.837L332.734 162.333ZM333.05 162.582C332.914 162.582 332.772 162.479 332.734 162.332L330.799 162.839C331.069 163.867 332.006 164.582 333.05 164.582V162.582Z" fill="black" mask="url(#path-21-outside-1_4757_51353)"/>
<path d="M409.154 116.67C407.821 117.329 405.902 117.583 403.686 117.553C401.346 117.521 398.751 117.174 396.321 116.722C393.893 116.27 391.644 115.715 390.002 115.273C389.181 115.052 388.512 114.859 388.049 114.722C387.86 114.666 387.706 114.619 387.589 114.584C380.652 89.5726 382.611 75.5639 387.34 67.8808C392.069 60.1976 399.659 58.7075 404.284 58.932C408.886 59.1554 412.48 61.1366 414.376 64.6676C416.283 68.2173 416.534 73.4449 414.184 80.2706C411.788 87.2301 410.532 96.4157 409.873 103.834C409.544 107.548 409.363 110.83 409.264 113.184C409.215 114.361 409.186 115.306 409.17 115.957C409.162 116.261 409.157 116.5 409.154 116.67Z" fill="#F280A1" stroke="black"/>
<path d="M386.628 116.737L387.27 116.927V116.911C389.766 117.669 397.576 119.875 403.923 119.875C406.44 119.875 408.806 119.543 410.538 118.558L410.54 118.557L411.208 118.174L411.459 118.029V117.74V116.973C411.459 116.973 411.459 116.968 411.459 116.953L411.46 116.895C411.46 116.847 411.462 116.777 411.463 116.687C411.467 116.508 411.473 116.25 411.482 115.92C411.5 115.26 411.531 114.314 411.583 113.143C411.686 110.801 411.872 107.559 412.201 103.907C412.862 96.59 414.097 87.6653 416.387 81.005C419.717 71.4009 417.92 65.5843 415.737 62.3929C413.347 58.8654 409.284 56.8401 404.409 56.6042V56.6041L404.405 56.604C401.185 56.4737 392.998 56.9138 386.996 64.3794L386.996 64.3801C383.067 69.283 381.001 76.0577 380.749 84.5898C380.497 93.121 382.056 103.445 385.414 115.494L385.592 116.18L385.664 116.453L385.935 116.533L386.628 116.737ZM412.951 79.8611L412.951 79.8614C408.716 92.1543 407.977 110.928 407.848 115.799C406.813 116.134 405.466 116.277 403.919 116.268C402.222 116.258 400.325 116.065 398.414 115.77C394.731 115.202 391.032 114.262 388.668 113.559C381.004 85.3916 385.166 72.4937 389.856 66.6411C394.793 60.5131 401.551 60.1358 404.233 60.2605L404.234 60.2605C408.092 60.4339 410.986 61.9115 412.728 64.4627C415.088 67.9501 415.241 73.2269 412.951 79.8611Z" fill="black" stroke="black"/>
<path d="M417.558 138.387C417.558 138.387 421.744 104.99 390.416 108.133C359.063 111.275 363.222 126.275 363.222 126.275C363.222 126.275 364.84 136.036 369.129 135.653C369.129 135.653 362.581 138.719 363.556 146.589C364.532 154.434 373.057 157.372 373.057 157.372C373.057 157.372 367.28 158.982 368.846 166.418C370.412 173.828 380.478 179.859 392.932 178.147C405.386 176.435 415.427 166.111 417.558 138.387Z" fill="#F280A1"/>
<path d="M369.668 134.221L369.629 133.723C369.281 133.75 368.879 133.559 368.426 133.048C367.979 132.545 367.556 131.809 367.175 130.952C366.415 129.241 365.88 127.169 365.668 125.862L365.642 125.702L365.634 125.694C365.568 125.405 364.945 122.533 367.227 119.279L367.228 119.277C369.574 115.898 375.639 111.383 391.235 109.83C392.559 109.704 393.826 109.628 395.038 109.628C401.516 109.628 406.559 111.464 410.113 115.099L410.114 115.101C414.084 119.137 415.661 124.807 416.234 129.544C416.747 133.792 416.446 137.172 416.378 137.944C416.37 138.034 416.365 138.089 416.365 138.105V138.137C415.468 149.946 413.052 159.018 409.19 165.359C405.338 171.682 400.045 175.297 393.327 176.22L393.326 176.22C387.309 177.05 382.107 176.003 378.256 173.976C374.395 171.944 371.928 168.952 371.287 165.906L371.287 165.904C370.661 162.974 371.405 161.28 372.247 160.313C373.101 159.331 374.122 159.024 374.193 159.003C374.957 158.794 375.535 158.099 375.535 157.295C375.535 156.533 375.052 155.794 374.293 155.543C374.293 155.543 374.293 155.543 374.292 155.542C374.26 155.531 373.795 155.362 373.097 155.015C372.371 154.655 371.404 154.108 370.414 153.352C368.43 151.837 366.405 149.524 366.004 146.247C365.236 139.862 370.385 137.259 370.554 137.175C371.364 136.787 371.749 135.906 371.539 135.07C371.323 134.209 370.502 133.653 369.628 133.723L369.668 134.221ZM369.668 134.221C370.31 134.17 370.9 134.579 371.054 135.192C371.208 135.805 370.926 136.444 370.335 136.725L365.174 125.942C365.611 128.625 367.357 134.4 369.668 134.221ZM364.172 117.277L364.171 117.277C361.128 121.702 361.912 125.776 362.09 126.528C362.187 127.085 362.526 128.876 363.22 130.836C363.848 132.612 364.793 134.605 366.17 135.916C363.912 138.073 361.79 141.675 362.418 146.701C363.117 152.359 367.092 155.725 369.977 157.46C368.157 159.238 366.79 162.212 367.741 166.674C368.677 171.134 371.757 174.503 375.786 176.746C379.814 178.988 384.824 180.128 389.723 180.128C391.108 180.128 392.492 180.024 393.846 179.843L393.848 179.842C401.592 178.773 407.675 174.715 412.05 167.76C416.41 160.827 419.066 151.03 420.033 138.462C420.105 137.878 420.547 133.766 419.861 128.645C419.17 123.493 417.329 117.256 412.754 112.586C407.66 107.386 400.249 105.274 390.88 106.203L390.879 106.203C377.398 107.56 368.337 111.232 364.172 117.277Z" fill="black" stroke="black"/>
<path d="M368.051 135.892C368.158 136.393 368.473 136.805 368.883 137.057L368.585 137.353L369.796 137.353L369.796 137.327C369.796 137.327 369.796 137.327 369.796 137.327L369.796 137.353H369.796H369.796L369.797 137.353L369.798 137.353L369.801 137.353L369.809 137.353L369.837 137.352C369.859 137.352 369.891 137.351 369.926 137.349C369.986 137.346 370.092 137.338 370.19 137.315C376.475 135.965 381.118 135.278 384.194 134.929C385.733 134.754 386.879 134.664 387.644 134.617C388.027 134.594 388.313 134.581 388.506 134.575C388.602 134.572 388.675 134.57 388.724 134.569C388.774 134.568 388.798 134.568 388.798 134.568C389.785 134.568 390.633 133.765 390.633 132.739C390.633 131.758 389.829 130.91 388.824 130.91C388.529 130.91 382.434 130.914 369.434 133.732C368.461 133.94 367.804 134.887 368.051 135.892Z" fill="black" stroke="black"/>
<path d="M373.879 159.073H373.909L373.939 159.07L389.728 157.154C390.731 157.045 391.429 156.125 391.324 155.147C391.216 154.142 390.288 153.449 389.31 153.553L389.31 153.553L389.303 153.554L373.514 155.47C372.511 155.579 371.813 156.499 371.918 157.477L371.918 157.477L371.919 157.481C372.026 158.407 372.813 159.073 373.725 159.073H373.725H373.725H373.725H373.725H373.725H373.725H373.725H373.725H373.725H373.725H373.725H373.725H373.725H373.725H373.725H373.725H373.725H373.725H373.725H373.726H373.726H373.726H373.726H373.726H373.726H373.726H373.726H373.726H373.726H373.726H373.726H373.726H373.726H373.726H373.727H373.727H373.727H373.727H373.727H373.727H373.727H373.727H373.727H373.727H373.727H373.728H373.728H373.728H373.728H373.728H373.728H373.728H373.728H373.728H373.729H373.729H373.729H373.729H373.729H373.729H373.729H373.729H373.73H373.73H373.73H373.73H373.73H373.73H373.73H373.731H373.731H373.731H373.731H373.731H373.731H373.732H373.732H373.732H373.732H373.732H373.732H373.733H373.733H373.733H373.733H373.733H373.733H373.734H373.734H373.734H373.734H373.734H373.735H373.735H373.735H373.735H373.735H373.736H373.736H373.736H373.736H373.736H373.737H373.737H373.737H373.737H373.737H373.738H373.738H373.738H373.738H373.739H373.739H373.739H373.739H373.739H373.74H373.74H373.74H373.74H373.741H373.741H373.741H373.741H373.742H373.742H373.742H373.742H373.743H373.743H373.743H373.743H373.744H373.744H373.744H373.744H373.745H373.745H373.745H373.745H373.746H373.746H373.746H373.746H373.747H373.747H373.747H373.748H373.748H373.748H373.748H373.749H373.749H373.749H373.749H373.75H373.75H373.75H373.751H373.751H373.751H373.752H373.752H373.752H373.752H373.753H373.753H373.753H373.754H373.754H373.754H373.755H373.755H373.755H373.755H373.756H373.756H373.756H373.757H373.757H373.757H373.758H373.758H373.758H373.759H373.759H373.759H373.76H373.76H373.76H373.76H373.761H373.761H373.761H373.762H373.762H373.762H373.763H373.763H373.763H373.764H373.764H373.764H373.765H373.765H373.765H373.766H373.766H373.767H373.767H373.767H373.768H373.768H373.768H373.769H373.769H373.769H373.77H373.77H373.77H373.771H373.771H373.771H373.772H373.772H373.772H373.773H373.773H373.774H373.774H373.774H373.775H373.775H373.775H373.776H373.776H373.776H373.777H373.777H373.778H373.778H373.778H373.779H373.779H373.779H373.78H373.78H373.78H373.781H373.781H373.782H373.782H373.782H373.783H373.783H373.783H373.784H373.784H373.785H373.785H373.785H373.786H373.786H373.787H373.787H373.787H373.788H373.788H373.788H373.789H373.789H373.79H373.79H373.79H373.791H373.791H373.792H373.792H373.792H373.793H373.793H373.793H373.794H373.794H373.795H373.795H373.795H373.796H373.796H373.797H373.797H373.797H373.798H373.798H373.799H373.799H373.799H373.8H373.8H373.801H373.801H373.801H373.802H373.802H373.803H373.803H373.803H373.804H373.804H373.805H373.805H373.805H373.806H373.806H373.807H373.807H373.807H373.808H373.808H373.809H373.809H373.809H373.81H373.81H373.811H373.811H373.811H373.812H373.812H373.813H373.813H373.813H373.814H373.814H373.815H373.815H373.815H373.816H373.816H373.817H373.817H373.817H373.818H373.818H373.819H373.819H373.819H373.82H373.82H373.821H373.821H373.821H373.822H373.822H373.823H373.823H373.823H373.824H373.824H373.825H373.825H373.825H373.826H373.826H373.827H373.827H373.827H373.828H373.828H373.829H373.829H373.829H373.83H373.83H373.831H373.831H373.831H373.832H373.832H373.833H373.833H373.833H373.834H373.834H373.834H373.835H373.835H373.836H373.836H373.836H373.837H373.837H373.838H373.838H373.838H373.839H373.839H373.84H373.84H373.84H373.841H373.841H373.842H373.842H373.842H373.843H373.843H373.843H373.844H373.844H373.845H373.845H373.845H373.846H373.846H373.847H373.847H373.847H373.848H373.848H373.848H373.849H373.849H373.85H373.85H373.85H373.851H373.851H373.851H373.852H373.852H373.853H373.853H373.853H373.854H373.854H373.854H373.855H373.855H373.855H373.856H373.856H373.857H373.857H373.857H373.858H373.858H373.858H373.859H373.859H373.859H373.86H373.86H373.861H373.861H373.861H373.862H373.862H373.862H373.863H373.863H373.863H373.864H373.864H373.864H373.865H373.865H373.865H373.866H373.866H373.866H373.867H373.867H373.867H373.868H373.868H373.869H373.869H373.869H373.87H373.87H373.87H373.871H373.871H373.871H373.871H373.872H373.872H373.872H373.873H373.873H373.873H373.874H373.874H373.874H373.875H373.875H373.875H373.876H373.876H373.876H373.877H373.877H373.877H373.878H373.878H373.878H373.878H373.879H373.879Z" fill="black" stroke="black"/>
</g>
<defs>
<clipPath id="clip0_4757_51353">
<rect width="424" height="250" fill="white"/>
</clipPath>
<clipPath id="clip1_4757_51353">
<rect width="211" height="327" fill="white" transform="translate(153 3)"/>
</clipPath>
</defs>
</svg>
