<svg width="344" height="270" viewBox="0 0 344 270" fill="none" xmlns="http://www.w3.org/2000/svg">
<g clip-path="url(#clip0_4758_37440)">
<g clip-path="url(#clip1_4758_37440)">
<path d="M182.713 196.83L85.5671 213.373L88.7279 232.353L189.274 227.763L182.713 196.83Z" fill="black"/>
<path d="M88.7279 234.099C87.8898 234.099 87.1475 233.477 87.0038 232.641L83.843 213.66C83.6754 212.704 84.322 211.819 85.2798 211.652L182.426 195.085C183.36 194.942 184.222 195.516 184.437 196.448L190.998 227.381C191.094 227.883 190.998 228.409 190.663 228.816C190.328 229.222 189.873 229.461 189.37 229.485L88.8237 234.075C88.8237 234.075 88.7758 234.075 88.7518 234.075L88.7279 234.099ZM87.5785 214.807L90.2125 230.537L187.143 226.114L181.348 198.815L87.5785 214.807Z" fill="black"/>
<path d="M183.288 49.119C183.288 49.119 129.411 61.98 125.963 116.914C122.515 171.849 169.471 196.208 180.295 197.594L159.343 296.801C159.343 296.801 178.14 317.384 224.881 316.69C271.622 315.997 315.609 283.606 315.609 283.606L265.252 193.698C265.252 193.698 314.747 178.757 333.161 146.581C333.161 146.581 315.202 19.9307 183.288 49.119Z" fill="black"/>
<path d="M222.582 318.46C177.301 318.46 158.84 298.833 158.073 297.973C157.69 297.566 157.547 296.993 157.666 296.443L178.259 198.957C163.677 195.395 120.934 169.602 124.263 116.795C127.711 61.2393 182.33 47.5416 182.881 47.422C182.881 47.422 182.881 47.422 182.905 47.422C223.516 38.4337 257.59 43.1908 284.121 61.55C326.6 90.9296 334.813 145.768 334.909 146.318C334.957 146.7 334.909 147.083 334.694 147.418C324.972 164.414 306.726 176.534 293.125 183.73C281.799 189.706 271.957 193.292 267.815 194.678L317.118 282.745C317.549 283.51 317.333 284.466 316.639 284.992C316.184 285.327 271.67 317.742 224.905 318.436C224.114 318.436 223.324 318.436 222.558 318.436L222.582 318.46ZM161.258 296.228C164.826 299.551 184.126 315.591 224.881 314.946C266.21 314.324 305.864 288.243 313.335 283.08L263.744 194.535C263.48 194.081 263.457 193.531 263.648 193.029C263.84 192.551 264.247 192.168 264.773 192.025C265.252 191.881 313.287 177.06 331.365 146.246C330.384 140.342 321.021 91.312 282.134 64.4187C256.417 46.6092 223.3 42.0433 183.695 50.8166C182.665 51.0795 131.015 64.323 127.711 117.034C124.382 169.889 168.849 194.391 180.534 195.874C181.013 195.945 181.444 196.184 181.731 196.591C182.019 196.997 182.114 197.475 182.019 197.953L161.258 296.228Z" fill="black"/>
<path d="M217.146 84.476C217.146 84.476 160.516 81.3683 151.345 127.912C142.174 174.479 187.574 188.201 187.574 188.201C187.574 188.201 221.097 199.221 261.278 184.448C301.458 169.698 291.88 126.238 291.88 126.238C291.88 126.238 284.6 82.8026 217.122 84.4521L217.146 84.476Z" fill="#EBABAB"/>
<path d="M217.817 193.962C199.834 193.962 187.861 190.137 187.047 189.874C186.616 189.754 140.306 175.172 149.645 127.601C158.84 80.9139 214.728 82.6351 217.17 82.7546C236.781 82.2765 263.72 85.5037 281.08 103.552C291.592 114.477 293.532 125.521 293.628 125.975C293.699 126.334 303.038 170.989 261.9 186.097C245.45 192.145 230.197 193.938 217.817 193.938V193.962ZM215.039 86.1969C210.657 86.1969 199.642 86.6272 188.125 90.4521C168.514 96.9304 156.708 109.672 153.045 128.294C144.305 172.734 186.281 186.025 188.077 186.575C188.436 186.695 221.576 197.237 260.679 182.87C298.943 168.813 290.563 128.39 290.179 126.669C289.868 124.876 282.134 84.6431 217.17 86.2448C217.122 86.2448 217.075 86.2448 217.027 86.2448C217.003 86.2448 216.284 86.1969 215.015 86.1969H215.039Z" fill="black"/>
<mask id="mask0_4758_37440" style="mask-type:luminance" maskUnits="userSpaceOnUse" x="151" y="85" width="140" height="106">
<path d="M216.931 85.9814C216.931 85.9814 161.785 82.9454 152.877 128.126C143.97 173.283 188.149 186.599 188.149 186.599C188.149 186.599 220.786 197.284 259.913 182.965C299.039 168.646 289.701 126.501 289.701 126.501C289.701 126.501 282.613 84.3558 216.931 85.9814Z" fill="white"/>
</mask>
<g mask="url(#mask0_4758_37440)">
<path opacity="0.25" d="M277.549 169.314C286.388 163.02 289.296 151.958 284.043 144.606C278.79 137.254 267.366 136.397 258.527 142.691C249.688 148.985 246.78 160.048 252.033 167.4C257.286 174.752 268.71 175.609 277.549 169.314Z" fill="url(#paint0_radial_4758_37440)"/>
<path opacity="0.25" d="M188.391 168.611C194.397 161.841 192.677 150.527 184.549 143.34C176.421 136.154 164.963 135.816 158.957 142.586C152.951 149.356 154.671 160.671 162.799 167.857C170.927 175.044 182.385 175.381 188.391 168.611Z" fill="url(#paint1_radial_4758_37440)"/>
</g>
<path d="M218.008 169.387C216.021 169.387 211.328 169.076 208.287 166.327C206.515 164.725 205.581 162.574 205.509 159.992C205.461 157.602 206.251 155.594 207.903 154.016C212.046 150.095 220.163 150.693 220.523 150.717C221.48 150.789 222.199 151.625 222.127 152.582C222.055 153.538 221.241 154.255 220.259 154.183C218.344 154.04 212.812 154.183 210.322 156.55C209.412 157.41 208.981 158.51 209.029 159.897C209.077 161.522 209.604 162.789 210.657 163.745C213.411 166.231 218.655 165.897 218.727 165.897C219.661 165.825 220.523 166.542 220.594 167.498C220.666 168.455 219.948 169.291 218.99 169.363C218.942 169.363 218.583 169.387 218.056 169.387H218.008Z" fill="black"/>
<path d="M218.344 181.197C200.313 181.197 189.945 174.407 189.322 173.953C188.532 173.403 188.316 172.328 188.867 171.539C189.418 170.75 190.495 170.535 191.285 171.061C191.357 171.108 196.984 174.814 206.994 176.631C216.26 178.328 231.298 178.686 250.334 170.893C251.22 170.535 252.25 170.941 252.609 171.85C252.968 172.734 252.561 173.762 251.651 174.121C238.745 179.404 227.539 181.173 218.344 181.173V181.197Z" fill="black"/>
<path d="M175.984 116.723C175.098 116.723 174.213 116.676 173.303 116.58C172.345 116.484 171.65 115.624 171.77 114.668C171.866 113.711 172.752 113.018 173.686 113.138C184.605 114.357 193.608 106.349 193.68 106.253C194.398 105.607 195.5 105.655 196.146 106.372C196.793 107.09 196.745 108.189 196.027 108.835C195.644 109.193 187.143 116.747 175.984 116.747V116.723Z" fill="black"/>
<path d="M257.853 115.887C246.455 115.887 237.859 107.951 237.476 107.592C236.781 106.923 236.734 105.823 237.404 105.13C238.074 104.437 239.176 104.389 239.87 105.058C239.966 105.13 248.802 113.329 259.745 112.325C260.679 112.23 261.565 112.947 261.637 113.903C261.732 114.859 261.014 115.72 260.056 115.792C259.314 115.863 258.572 115.887 257.853 115.887Z" fill="black"/>
<path d="M249.649 151.474C259.818 150.305 267.381 143.467 266.543 136.201C265.705 128.935 256.782 123.992 246.613 125.161C236.445 126.33 228.881 133.169 229.719 140.435C230.557 147.701 239.48 152.644 249.649 151.474Z" fill="white"/>
<path d="M207.471 140.461C208.309 133.195 200.745 126.357 190.577 125.188C180.408 124.019 171.485 128.961 170.647 136.227C169.809 143.493 177.373 150.332 187.541 151.501C197.71 152.67 206.633 147.727 207.471 140.461Z" fill="white"/>
<path d="M181.588 125.497C186.161 127.529 189.394 132.382 189.394 138.047C189.394 144 185.85 149.02 180.941 150.861C173.518 148.183 169.352 142.542 170.022 136.541C170.621 131.115 175.003 126.907 181.588 125.497Z" fill="#005CA3"/>
<path d="M241.259 125.999C245.282 128.293 248.036 132.883 248.036 138.19C248.036 144.836 243.726 150.382 238.003 151.649C232.639 149.832 229.143 145.935 228.616 141.059C227.898 134.509 232.759 128.389 241.259 125.975V125.999Z" fill="#005CA3"/>
<path d="M190.974 153.992C189.801 153.992 188.604 153.921 187.358 153.777C175.697 152.438 167.939 145.195 168.921 136.589C169.926 127.959 179.097 122.676 190.783 124.015C196.506 124.661 201.319 126.692 204.695 129.872C208.071 133.027 209.675 137.067 209.197 141.227C208.718 145.386 206.251 148.948 202.228 151.243C199.068 153.06 195.236 153.992 190.95 153.992H190.974ZM187.239 127.29C179.121 127.29 173.087 131.091 172.393 136.972C171.626 143.593 178.092 149.187 187.742 150.311C192.626 150.885 197.152 150.12 200.48 148.207C203.521 146.462 205.389 143.833 205.724 140.797C206.084 137.761 204.862 134.796 202.3 132.382C199.499 129.776 195.26 128.007 190.376 127.457C189.298 127.338 188.244 127.266 187.215 127.266L187.239 127.29Z" fill="black"/>
<path d="M246.24 153.992C241.978 153.992 238.122 153.06 234.962 151.243C230.939 148.925 228.472 145.363 227.994 141.227C227.515 137.068 229.119 133.051 232.495 129.872C235.896 126.717 240.685 124.685 246.407 124.015C252.13 123.346 257.279 124.23 261.301 126.549C265.324 128.868 267.791 132.43 268.27 136.566C268.748 140.725 267.144 144.741 263.768 147.921C260.368 151.076 255.579 153.108 249.856 153.777C248.634 153.921 247.413 153.992 246.24 153.992ZM249.951 127.29C248.922 127.29 247.868 127.362 246.815 127.482C241.93 128.055 237.691 129.8 234.89 132.406C232.328 134.797 231.106 137.785 231.466 140.821C231.825 143.857 233.669 146.486 236.71 148.231C240.038 150.144 244.564 150.885 249.449 150.335C254.333 149.761 258.572 148.016 261.373 145.411C263.935 143.02 265.157 140.032 264.797 136.996C264.438 133.96 262.594 131.33 259.553 129.585C256.967 128.079 253.615 127.314 249.951 127.314V127.29Z" fill="black"/>
<path d="M242.193 152.678C241.714 152.678 241.235 152.486 240.876 152.08C240.23 151.363 240.301 150.263 241.044 149.618C241.092 149.57 246.12 145.052 246.216 138.43C246.312 131.999 242.433 129.083 242.265 128.964C241.499 128.39 241.307 127.314 241.882 126.525C242.433 125.76 243.51 125.569 244.3 126.119C244.516 126.286 249.856 130.135 249.712 138.478C249.592 146.677 243.606 152.008 243.342 152.223C243.007 152.51 242.6 152.654 242.193 152.654V152.678Z" fill="#231F20"/>
<path d="M183.431 152.677C182.952 152.677 182.474 152.486 182.138 152.103C181.492 151.386 181.564 150.286 182.258 149.641C182.306 149.593 187.334 144.956 187.43 138.166C187.526 131.545 183.623 128.557 183.455 128.437C182.689 127.863 182.521 126.788 183.096 125.999C183.671 125.234 184.748 125.066 185.515 125.616C185.73 125.784 191.046 129.728 190.926 138.214C190.807 146.557 184.844 152.008 184.581 152.247C184.246 152.557 183.838 152.701 183.407 152.701L183.431 152.677Z" fill="#231F20"/>
</g>
<path d="M100.27 120.389H91.3939V394.822H100.27V120.389Z" fill="#8A6456"/>
<path d="M101.535 396.06H90.1293V119.15H101.535V396.084V396.06ZM92.6342 393.559H99.0059V121.651H92.6342V393.559Z" fill="black"/>
<path d="M95.1634 170.502C142.052 170.502 180.062 132.554 180.062 85.7417C180.062 38.9299 142.052 0.981445 95.1634 0.981445C48.2751 0.981445 10.2646 38.9299 10.2646 85.7417C10.2646 132.554 48.2751 170.502 95.1634 170.502Z" fill="#F05144"/>
<path d="M95.1634 171.74C47.6434 171.74 9 133.16 9 85.7416C9 38.3234 47.6434 -0.28125 95.1634 -0.28125C142.683 -0.28125 181.327 38.2991 181.327 85.7416C181.327 133.184 142.683 171.764 95.1634 171.764V171.74ZM95.1634 2.21956C49.0296 2.21956 11.5049 39.6831 11.5049 85.7416C11.5049 131.8 49.0296 169.239 95.1391 169.239C141.249 169.239 178.773 131.776 178.773 85.7416C178.773 39.7074 141.273 2.21956 95.1634 2.21956Z" fill="black"/>
<path d="M136.853 127.941C139.597 125.217 139.592 120.776 136.854 118.038L62.8702 44.0584C62.8697 44.0579 62.8692 44.0574 62.8687 44.0569C60.1454 41.3127 55.7051 41.317 52.9663 44.054C50.2214 46.7777 50.2261 51.219 52.9648 53.9576L52.9649 53.9577L126.951 127.92C126.951 127.92 126.951 127.92 126.951 127.92C128.27 129.239 129.967 129.92 131.678 129.977C131.747 129.992 131.819 130 131.893 130C133.684 130 135.494 129.298 136.853 127.941ZM136.853 127.941C136.852 127.941 136.851 127.942 136.851 127.943L136.146 127.233L136.854 127.94C136.853 127.94 136.853 127.94 136.853 127.941Z" fill="white" stroke="white" stroke-width="2" stroke-linejoin="round"/>
<path d="M62.0029 127.944L62.003 127.944L136.833 53.9646C136.833 53.9643 136.834 53.964 136.834 53.9637C139.616 51.2355 139.584 46.7896 136.839 44.0543C134.089 41.3136 129.608 41.3178 126.843 44.0513C126.843 44.0513 126.842 44.0514 126.842 44.0514L51.9926 118.011C51.9919 118.012 51.9912 118.012 51.9906 118.013C49.2131 120.738 49.218 125.185 51.9896 127.924C53.3291 129.248 55.0512 129.926 56.7841 129.977C56.8525 129.992 56.9235 130 56.9963 130C58.8026 130 60.6301 129.301 62.0029 127.944Z" fill="white" stroke="white" stroke-width="2" stroke-linejoin="round"/>
<path d="M84.6572 217.699C84.6572 217.699 84.6572 203.691 95.4086 202.663C106.136 201.635 110.47 206.081 110.303 210.002C110.135 213.922 99.0483 213.827 99.0483 213.827C99.0483 213.827 109.824 213.42 109.417 220.018C108.986 226.592 99.7427 225.923 99.7427 225.923C99.7427 225.923 109.201 225.827 109.464 232.999C109.728 240.17 95.7917 238.927 95.7917 238.927C95.7917 238.927 84.3698 239.381 84.6572 217.699Z" fill="#EBABAB"/>
<path d="M98.1623 240.768C96.965 240.768 96.0791 240.696 95.7199 240.672C95.0015 240.672 91.745 240.457 88.68 237.493C84.729 233.644 82.7894 226.975 82.9092 217.675C82.9092 212.273 85.4952 201.85 95.241 200.918C103.311 200.129 107.477 202.304 109.536 204.265C111.236 205.866 112.122 207.946 112.051 210.074C111.955 212.153 110.35 213.468 108.243 214.257C108.674 214.544 109.057 214.855 109.417 215.213C110.686 216.528 111.308 218.225 111.165 220.114C111.045 222.17 110.207 223.867 108.746 225.134C108.291 225.54 107.788 225.875 107.285 226.138C109.441 227.477 111.117 229.604 111.236 232.903C111.308 234.768 110.638 236.417 109.321 237.66C106.543 240.29 101.347 240.744 98.1862 240.744L98.1623 240.768ZM95.7917 237.182C95.7917 237.182 95.8875 237.182 95.9354 237.182C98.1862 237.373 104.508 237.397 106.878 235.15C107.477 234.576 107.74 233.907 107.716 233.046C107.549 228.481 102.185 227.787 100.365 227.668C99.9342 227.668 99.6708 227.668 99.6229 227.644C98.6891 227.572 97.9707 226.783 97.9947 225.851C98.0186 224.919 98.7849 224.178 99.7187 224.154C100.006 224.154 100.317 224.154 100.629 224.154C102.185 224.154 104.891 223.819 106.423 222.48C107.19 221.811 107.597 220.95 107.645 219.851C107.693 218.918 107.453 218.201 106.878 217.604C105.298 215.978 101.682 215.572 99.8145 215.524C99.5032 215.524 99.2398 215.524 99.0243 215.524C98.0665 215.524 97.3003 214.759 97.3003 213.803C97.3003 212.847 98.0426 212.082 98.9764 212.034C99.0962 212.034 99.4074 212.034 99.8624 212.034C104.58 211.962 108.507 210.815 108.555 209.858C108.602 208.735 108.1 207.635 107.142 206.727C105.873 205.532 102.712 203.643 95.5762 204.336C86.5488 205.197 86.4052 217.149 86.4052 217.652C86.2615 228.026 88.8955 232.784 91.1224 234.935C93.3972 237.158 95.7438 237.134 95.7199 237.134C95.7199 237.134 95.7678 237.134 95.7917 237.134V237.182Z" fill="black"/>
</g>
<defs>
<radialGradient id="paint0_radial_4758_37440" cx="0" cy="0" r="1" gradientUnits="userSpaceOnUse" gradientTransform="translate(260.415 174.643) rotate(-35.8945) scale(19.6705 16.4221)">
<stop stop-color="#D9315C" stop-opacity="0.8"/>
<stop offset="0.14" stop-color="#D9315D" stop-opacity="0.78"/>
<stop offset="0.26" stop-color="#D93160" stop-opacity="0.73"/>
<stop offset="0.38" stop-color="#D93166" stop-opacity="0.65"/>
<stop offset="0.49" stop-color="#D9316F" stop-opacity="0.54"/>
<stop offset="0.54" stop-color="#D93174" stop-opacity="0.47"/>
<stop offset="0.58" stop-color="#D9366F" stop-opacity="0.42"/>
<stop offset="0.77" stop-color="#DB4F5A" stop-opacity="0.19"/>
<stop offset="0.91" stop-color="#DD5E4D" stop-opacity="0.05"/>
<stop offset="1" stop-color="#DE6449" stop-opacity="0"/>
</radialGradient>
<radialGradient id="paint1_radial_4758_37440" cx="0" cy="0" r="1" gradientUnits="userSpaceOnUse" gradientTransform="translate(178.99 183.689) rotate(-138.058) scale(19.6671 16.4249)">
<stop stop-color="#D9315C" stop-opacity="0.8"/>
<stop offset="0.14" stop-color="#D9315D" stop-opacity="0.78"/>
<stop offset="0.26" stop-color="#D93160" stop-opacity="0.73"/>
<stop offset="0.38" stop-color="#D93166" stop-opacity="0.65"/>
<stop offset="0.49" stop-color="#D9316F" stop-opacity="0.54"/>
<stop offset="0.54" stop-color="#D93174" stop-opacity="0.47"/>
<stop offset="0.58" stop-color="#D9366F" stop-opacity="0.42"/>
<stop offset="0.77" stop-color="#DB4F5A" stop-opacity="0.19"/>
<stop offset="0.91" stop-color="#DD5E4D" stop-opacity="0.05"/>
<stop offset="1" stop-color="#DE6449" stop-opacity="0"/>
</radialGradient>
<clipPath id="clip0_4758_37440">
<rect width="344" height="270" fill="white"/>
</clipPath>
<clipPath id="clip1_4758_37440">
<rect width="252" height="333" fill="white" transform="translate(82.9092 43)"/>
</clipPath>
</defs>
</svg>
