<svg width="424" height="250" viewBox="0 0 424 250" fill="none" xmlns="http://www.w3.org/2000/svg">
<g clip-path="url(#clip0_4758_37254)">
<g clip-path="url(#clip1_4758_37254)">
<path d="M270.447 241.82L272.936 297.997C272.936 297.997 259.824 296.158 259.137 307.752C258.45 319.347 268.751 319.968 268.751 319.968C268.751 319.968 293.602 323.604 295.856 310.683C298.109 297.762 296.671 243.382 296.671 243.382L270.425 241.799L270.447 241.82Z" fill="#F0514F"/>
<path d="M276.241 322C272.099 322 268.902 321.551 268.537 321.508C268.537 321.508 256.819 320.61 257.592 307.646C257.807 304.03 259.137 301.185 261.541 299.238C264.695 296.65 268.859 296.265 271.305 296.329L268.88 241.885C268.88 241.435 269.03 241.008 269.352 240.708C269.674 240.387 270.103 240.237 270.533 240.259L296.778 241.842C297.594 241.885 298.238 242.548 298.259 243.361C298.323 245.586 299.675 298.04 297.422 310.962C295.791 320.353 284.246 322.022 276.241 322.022V322ZM271.026 299.431C269.073 299.431 265.811 299.752 263.494 301.656C261.798 303.046 260.854 305.121 260.704 307.838C260.124 317.7 268.494 318.385 268.859 318.406C269.223 318.449 292.358 321.701 294.332 310.405C296.328 298.939 295.362 253.522 295.169 244.837L272.099 243.446L274.524 297.891C274.524 298.361 274.352 298.789 274.009 299.11C273.666 299.431 273.215 299.559 272.743 299.495C272.743 299.495 272.056 299.41 271.048 299.41L271.026 299.431Z" fill="black"/>
<path d="M225.53 241.82L228.02 297.997C228.02 297.997 214.908 296.158 214.221 307.752C213.534 319.347 223.835 319.968 223.835 319.968C223.835 319.968 248.686 323.604 250.939 310.683C253.193 297.762 251.755 243.382 251.755 243.382L225.509 241.799L225.53 241.82Z" fill="#F0514F"/>
<path d="M231.303 322C227.161 322 223.964 321.551 223.599 321.508C223.599 321.508 211.882 320.61 212.654 307.646C212.869 304.03 214.199 301.185 216.603 299.238C219.758 296.65 223.921 296.286 226.367 296.329L223.942 241.884C223.942 241.435 224.093 241.007 224.414 240.708C224.736 240.408 225.166 240.237 225.595 240.259L251.841 241.842C252.656 241.884 253.3 242.548 253.321 243.361C253.386 245.585 254.738 298.04 252.484 310.961C250.853 320.353 239.308 322.021 231.303 322.021V322ZM226.11 299.431C224.157 299.431 220.895 299.752 218.599 301.656C216.903 303.046 215.959 305.121 215.787 307.838C215.208 317.764 223.578 318.385 223.942 318.406C224.307 318.449 247.441 321.701 249.416 310.405C251.411 298.939 250.446 253.522 250.253 244.837L227.183 243.446L229.608 297.891C229.608 298.361 229.436 298.789 229.093 299.11C228.749 299.431 228.277 299.559 227.827 299.495C227.827 299.495 227.14 299.409 226.131 299.409L226.11 299.431Z" fill="black"/>
<path d="M224.092 29.4763C224.092 29.4763 175.828 40.9856 172.717 90.146C169.626 139.306 211.71 161.105 221.41 162.346L202.632 251.126C202.632 251.126 219.479 269.545 261.369 268.925C303.259 268.304 342.682 239.317 342.682 239.317L297.551 158.859C297.551 158.859 341.909 145.489 358.412 116.694C358.412 116.694 342.317 3.35586 224.092 29.4763Z" fill="black"/>
<path d="M229.375 188.387L227.33 162.367C211.046 168.166 196.808 170.849 186.541 172.079C181.246 172.713 177.006 172.96 174.082 173.049C172.621 173.094 171.488 173.099 170.717 173.092C170.583 173.091 170.459 173.09 170.347 173.088C170.143 173.529 169.869 174.163 169.591 174.93C169.027 176.49 168.47 178.542 168.417 180.623C168.365 182.698 168.814 184.705 170.154 186.319C171.489 187.928 173.859 189.325 178.015 189.883C186.607 191.036 199.71 190.64 210.75 189.942C216.252 189.594 221.211 189.172 224.794 188.838C226.586 188.671 228.033 188.526 229.032 188.422C229.153 188.41 229.267 188.398 229.375 188.387Z" fill="black" stroke="black" stroke-width="2.5"/>
<path d="M259.309 270.507C218.728 270.507 202.182 252.944 201.495 252.174C201.152 251.81 201.023 251.297 201.13 250.805L219.586 163.565C206.495 160.378 168.189 137.295 171.172 90.0601C174.305 40.3222 223.256 28.0642 223.749 27.9572C223.749 27.9572 223.749 27.9572 223.771 27.9572C260.167 19.9135 290.684 24.1707 314.462 40.6003C352.532 66.8919 359.893 115.967 359.979 116.459C360.022 116.801 359.979 117.143 359.785 117.443C351.073 132.632 334.72 143.499 322.531 149.938C312.38 155.286 303.56 158.495 299.847 159.736L344.034 238.547C344.42 239.231 344.227 240.087 343.604 240.558C343.197 240.857 303.302 269.866 261.39 270.465C260.682 270.465 259.974 270.465 259.287 270.465L259.309 270.507ZM204.349 250.612C207.547 253.586 224.822 267.897 261.369 267.363C298.409 266.806 333.947 243.467 340.643 238.846L296.199 159.608C295.963 159.201 295.941 158.709 296.113 158.26C296.285 157.832 296.65 157.49 297.122 157.361C297.551 157.233 340.6 143.97 356.802 116.395C355.923 111.111 347.532 67.2341 312.68 43.1674C289.632 27.2298 259.953 23.1438 224.457 30.995C223.535 31.2303 177.245 43.0818 174.283 90.2527C171.301 137.552 211.174 159.458 221.625 160.806C222.054 160.87 222.44 161.084 222.698 161.448C222.955 161.811 223.041 162.239 222.955 162.667L204.349 250.612Z" fill="black"/>
<path d="M254.437 61.1161C254.437 61.1161 203.684 58.3351 195.465 99.9866C187.245 141.66 227.934 153.939 227.934 153.939C227.934 153.939 257.978 163.801 293.988 150.58C329.999 137.36 321.415 98.4891 321.415 98.4891C321.415 98.4891 314.891 59.6186 254.416 61.0947L254.437 61.1161Z" fill="#EBABAB"/>
<path d="M255.038 159.095C238.921 159.095 228.191 155.672 227.462 155.437C227.075 155.33 185.571 142.28 193.941 99.7088C202.182 57.9289 252.27 59.4692 254.459 59.5762C272.013 59.1483 296.177 62.0363 311.736 78.1878C321.157 87.9643 322.895 97.8477 322.981 98.2541C323.045 98.575 331.415 138.537 294.546 152.057C279.803 157.469 266.133 159.074 255.038 159.074V159.095ZM252.57 62.6567C248.643 62.6567 238.771 63.0418 228.449 66.4646C210.873 72.262 200.293 83.6643 197.01 100.329C189.155 140.141 227.998 152.356 228.406 152.485C228.728 152.592 258.429 162.004 293.473 149.169C327.767 136.59 320.256 100.415 319.912 98.8745C319.633 97.2701 312.809 61.2662 254.48 62.6995C254.437 62.6995 254.394 62.6995 254.351 62.6995C254.33 62.6995 253.686 62.6567 252.549 62.6567H252.57Z" fill="black"/>
<mask id="mask0_4758_37254" style="mask-type:luminance" maskUnits="userSpaceOnUse" x="196" y="62" width="125" height="95">
<path d="M254.502 62.8281C254.502 62.8281 205.079 60.1113 197.096 100.543C189.112 140.976 228.707 152.87 228.707 152.87C228.707 152.87 257.957 162.432 293.023 149.618C328.089 136.804 319.719 99.0887 319.719 99.0887C319.719 99.0887 313.367 61.3734 254.502 62.8281Z" fill="white"/>
</mask>
<g mask="url(#mask0_4758_37254)">
<path opacity="0.25" d="M308.816 137.374C316.738 131.741 319.344 121.842 314.636 115.262C309.928 108.683 299.69 107.916 291.768 113.549C283.846 119.182 281.241 129.082 285.949 135.661C290.656 142.24 300.894 143.007 308.816 137.374Z" fill="url(#paint0_radial_4758_37254)"/>
<path opacity="0.25" d="M228.902 136.798C234.284 130.739 232.743 120.614 225.458 114.183C218.174 107.752 207.905 107.45 202.522 113.508C197.14 119.567 198.681 129.692 205.965 136.123C213.25 142.554 223.519 142.857 228.902 136.798Z" fill="url(#paint1_radial_4758_37254)"/>
</g>
<path d="M255.21 137.103C253.429 137.103 249.223 136.825 246.497 134.365C244.909 132.932 244.072 131.006 244.008 128.696C243.965 126.557 244.673 124.76 246.154 123.348C249.866 119.839 257.141 120.374 257.463 120.396C258.322 120.46 258.965 121.209 258.901 122.064C258.837 122.92 258.107 123.562 257.227 123.498C255.51 123.369 250.553 123.498 248.321 125.615C247.506 126.386 247.119 127.37 247.162 128.61C247.205 130.065 247.677 131.199 248.622 132.055C250.682 133.916 254.523 134.087 255.832 133.98C256.734 133.916 257.442 134.558 257.506 135.413C257.571 136.269 256.927 137.018 256.068 137.082C256.025 137.082 255.704 137.103 255.231 137.103H255.21Z" fill="black"/>
<path d="M255.51 147.671C239.351 147.671 230.058 141.596 229.5 141.189C228.792 140.697 228.599 139.735 229.093 139.029C229.586 138.323 230.552 138.13 231.26 138.601C231.26 138.601 236.346 141.959 245.338 143.585C253.643 145.104 267.12 145.425 284.181 138.451C284.975 138.13 285.898 138.494 286.22 139.307C286.542 140.098 286.177 141.018 285.361 141.339C273.794 146.067 263.751 147.65 255.51 147.65V147.671Z" fill="black"/>
<path d="M214.972 89.0123C214.457 89.0123 213.963 88.7556 213.663 88.3064C213.191 87.579 213.405 86.6163 214.135 86.1457C214.564 85.8676 224.543 79.5782 235.38 82.6159C236.217 82.8512 236.69 83.7069 236.454 84.5413C236.217 85.3756 235.359 85.8462 234.522 85.6109C225.058 82.9582 215.916 88.7128 215.83 88.777C215.573 88.9482 215.272 89.0337 214.993 89.0337L214.972 89.0123Z" fill="black"/>
<path d="M293.302 86.7021C293.044 86.7021 292.808 86.638 292.572 86.5096C292.486 86.4668 282.872 81.4609 273.687 84.8624C272.871 85.1619 271.97 84.7554 271.67 83.9425C271.369 83.1296 271.777 82.2311 272.593 81.9316C283.129 78.0381 293.602 83.5146 294.053 83.75C294.804 84.1564 295.104 85.0977 294.697 85.8678C294.418 86.4026 293.881 86.7021 293.323 86.7021H293.302Z" fill="black"/>
<path d="M283.573 121.086C292.686 120.039 299.465 113.92 298.714 107.417C297.962 100.915 289.965 96.4918 280.852 97.5381C271.739 98.5844 264.96 104.704 265.711 111.206C266.463 117.709 274.459 122.132 283.573 121.086Z" fill="white"/>
<path d="M245.778 111.212C246.529 104.709 239.75 98.5897 230.637 97.5434C221.524 96.4971 213.527 100.92 212.776 107.423C212.024 113.925 218.803 120.044 227.916 121.091C237.03 122.137 245.027 117.714 245.778 111.212Z" fill="white"/>
<path d="M222.569 97.8262C226.668 99.6445 229.565 103.987 229.565 109.057C229.565 114.384 226.389 118.877 221.989 120.524C215.337 118.128 211.603 113.079 212.204 107.71C212.74 102.853 216.667 99.0883 222.569 97.8262Z" fill="#005CA3"/>
<path d="M276.069 98.2753C279.674 100.329 282.142 104.436 282.142 109.186C282.142 115.133 278.28 120.096 273.151 121.23C268.343 119.604 265.21 116.117 264.738 111.753C264.094 105.891 268.451 100.415 276.069 98.2539V98.2753Z" fill="#005CA3"/>
<path d="M230.981 123.326C229.93 123.326 228.857 123.262 227.741 123.134C217.29 121.936 210.337 115.454 211.217 107.752C212.118 100.03 220.359 95.3232 230.81 96.4998C235.939 97.0774 240.252 98.8958 243.278 101.741C246.325 104.565 247.742 108.18 247.313 111.903C246.883 115.625 244.673 118.812 241.068 120.866C238.235 122.492 234.801 123.326 230.96 123.326H230.981ZM227.634 99.4306C220.359 99.4306 214.951 102.832 214.328 108.095C213.642 114.02 219.436 119.026 228.084 120.032C232.484 120.545 236.518 119.861 239.501 118.149C242.227 116.588 243.9 114.234 244.201 111.517C244.523 108.801 243.428 106.126 241.132 103.987C238.621 101.655 234.823 100.072 230.445 99.5803C229.479 99.4734 228.535 99.4092 227.612 99.4092L227.634 99.4306Z" fill="black"/>
<path d="M280.511 123.326C276.691 123.326 273.236 122.492 270.404 120.866C266.798 118.791 264.588 115.603 264.159 111.902C263.729 108.18 265.167 104.586 268.193 101.741C271.241 98.9169 275.533 97.0986 280.662 96.4996C285.791 95.922 290.404 96.6921 294.01 98.7672C297.615 100.842 299.826 104.03 300.255 107.731C301.135 115.453 294.203 121.914 283.73 123.112C282.636 123.24 281.541 123.305 280.49 123.305L280.511 123.326ZM283.838 99.4304C282.915 99.4304 281.971 99.4945 281.026 99.6015C276.648 100.115 272.85 101.677 270.339 104.008C268.043 106.148 266.948 108.822 267.27 111.539C267.592 114.255 269.245 116.609 271.97 118.17C274.953 119.882 279.009 120.545 283.387 120.053C292.035 119.069 297.83 114.042 297.143 108.116C296.821 105.399 295.169 103.046 292.443 101.484C290.126 100.136 287.121 99.4517 283.838 99.4517V99.4304Z" fill="black"/>
<path d="M276.885 122.15C276.456 122.15 276.026 121.979 275.704 121.615C275.125 120.973 275.189 119.989 275.855 119.412C275.898 119.369 280.404 115.326 280.49 109.4C280.576 103.645 277.099 101.035 276.949 100.928C276.262 100.415 276.091 99.4523 276.606 98.7463C277.099 98.0404 278.065 97.8906 278.773 98.3827C278.966 98.5324 283.752 101.977 283.623 109.443C283.516 116.78 278.151 121.551 277.915 121.743C277.614 122 277.25 122.129 276.885 122.129V122.15Z" fill="black"/>
<path d="M224.221 122.15C223.792 122.15 223.363 121.979 223.062 121.637C222.483 120.995 222.547 120.011 223.17 119.433C223.213 119.39 227.719 115.24 227.805 109.165C227.891 103.175 224.286 100.479 224.243 100.458C223.535 99.9445 223.384 98.9818 223.899 98.2758C224.393 97.5699 225.38 97.4201 226.088 97.9335C226.281 98.0833 231.046 101.613 230.938 109.207C230.831 116.674 225.487 121.551 225.251 121.765C224.951 122.043 224.586 122.171 224.2 122.171L224.221 122.15Z" fill="black"/>
</g>
</g>
<defs>
<radialGradient id="paint0_radial_4758_37254" cx="0" cy="0" r="1" gradientUnits="userSpaceOnUse" gradientTransform="translate(297.956 123.551) rotate(-35.8542) scale(17.5311 14.6452)">
<stop stop-color="#D9315C" stop-opacity="0.8"/>
<stop offset="0.14" stop-color="#D9315D" stop-opacity="0.78"/>
<stop offset="0.26" stop-color="#D93160" stop-opacity="0.73"/>
<stop offset="0.38" stop-color="#D93166" stop-opacity="0.65"/>
<stop offset="0.49" stop-color="#D9316F" stop-opacity="0.54"/>
<stop offset="0.54" stop-color="#D93174" stop-opacity="0.47"/>
<stop offset="0.58" stop-color="#D9366F" stop-opacity="0.42"/>
<stop offset="0.77" stop-color="#DB4F5A" stop-opacity="0.19"/>
<stop offset="0.91" stop-color="#DD5E4D" stop-opacity="0.05"/>
<stop offset="1" stop-color="#DE6449" stop-opacity="0"/>
</radialGradient>
<radialGradient id="paint1_radial_4758_37254" cx="0" cy="0" r="1" gradientUnits="userSpaceOnUse" gradientTransform="translate(227.75 128.452) rotate(-138.1) scale(17.5255 14.65)">
<stop stop-color="#D9315C" stop-opacity="0.8"/>
<stop offset="0.14" stop-color="#D9315D" stop-opacity="0.78"/>
<stop offset="0.26" stop-color="#D93160" stop-opacity="0.73"/>
<stop offset="0.38" stop-color="#D93166" stop-opacity="0.65"/>
<stop offset="0.49" stop-color="#D9316F" stop-opacity="0.54"/>
<stop offset="0.54" stop-color="#D93174" stop-opacity="0.47"/>
<stop offset="0.58" stop-color="#D9366F" stop-opacity="0.42"/>
<stop offset="0.77" stop-color="#DB4F5A" stop-opacity="0.19"/>
<stop offset="0.91" stop-color="#DD5E4D" stop-opacity="0.05"/>
<stop offset="1" stop-color="#DE6449" stop-opacity="0"/>
</radialGradient>
<clipPath id="clip0_4758_37254">
<rect width="424" height="250" fill="white"/>
</clipPath>
<clipPath id="clip1_4758_37254">
<rect width="189" height="298" fill="white" transform="translate(171 24)"/>
</clipPath>
</defs>
</svg>
