<svg width="424" height="250" viewBox="0 0 424 250" fill="none" xmlns="http://www.w3.org/2000/svg">
<g clip-path="url(#clip0_4758_36055)">
<g clip-path="url(#clip1_4758_36055)">
<path d="M220.113 87.6642L229.434 15.7634L244.318 36.6837L267.329 11.498L275.584 40.3396L299.382 16.1696L300.221 16.4235L307.383 49.6065L329.785 29.6764L335.754 63.291L359.501 53.6179L328.87 119.324L220.113 87.6642Z" fill="#FFF200"/>
<path d="M328.464 120.771L219.706 89.1116C218.995 88.9085 218.538 88.1976 218.639 87.4613L227.961 15.5605C228.037 14.9511 228.494 14.4434 229.078 14.291C229.688 14.1387 230.298 14.3672 230.679 14.875L244.47 34.272L266.237 10.4827C266.592 10.0765 267.151 9.89879 267.685 10.0257C268.218 10.1527 268.624 10.5589 268.777 11.0667L276.32 37.4202L298.316 15.0781C298.697 14.6973 299.281 14.5449 299.814 14.6973L300.652 14.9511C301.186 15.1035 301.592 15.5351 301.694 16.0683L308.323 46.7378L328.794 28.5341C329.201 28.1787 329.785 28.0517 330.293 28.2294C330.801 28.4072 331.182 28.8642 331.283 29.3973L336.922 61.184L358.968 52.2218C359.552 51.9933 360.187 52.1202 360.619 52.5772C361.051 53.0342 361.152 53.6943 360.898 54.2529L330.267 119.959C330.013 120.492 329.48 120.822 328.896 120.822C328.769 120.822 328.616 120.822 328.464 120.771ZM336.312 64.6876C335.881 64.8654 335.423 64.84 335.017 64.6115C334.611 64.383 334.331 64.0022 334.255 63.5452L328.769 32.5963L308.374 50.7239C307.967 51.0793 307.408 51.2062 306.9 51.0285C306.392 50.8508 306.011 50.4446 305.91 49.9114L299.128 18.5563L276.625 41.3808C276.244 41.7616 275.711 41.914 275.177 41.787C274.669 41.6601 274.263 41.2539 274.111 40.7461L266.592 14.4942L245.384 37.674C245.08 38.0041 244.622 38.1818 244.191 38.1564C243.734 38.131 243.327 37.9025 243.048 37.5217L230.399 19.7242L221.738 86.5473L328.032 117.496L356.504 56.4363L336.287 64.6623L336.312 64.6876Z" fill="black"/>
<path d="M292.652 160.124L315.511 169.543L319.549 182.567L311.04 192.901L285.464 205.925L241.524 210.393L215.058 199.172L232.558 156.519L292.652 160.124Z" fill="black"/>
<path d="M229.358 203.208C229.358 203.208 224.557 186.528 234.437 165.328C234.437 165.328 221.738 157.991 214.118 170.711C214.118 170.711 206.499 153.193 187.577 159.971C168.654 166.75 168.375 196.43 168.375 196.43C168.375 196.43 166.115 248.984 204.492 264.548C204.492 264.548 191.793 309.486 231.313 311.466L234.691 274.17L229.332 203.234L229.358 203.208Z" fill="#37519B"/>
<mask id="mask0_4758_36055" style="mask-type:luminance" maskUnits="userSpaceOnUse" x="168" y="159" width="67" height="154">
<path d="M229.485 204.351C229.485 204.351 224.684 187.671 234.565 166.471C234.565 166.471 221.865 159.134 214.245 171.853C214.245 171.853 206.626 154.335 187.704 161.114C168.782 167.893 168.502 197.572 168.502 197.572C168.502 197.572 166.242 250.127 204.619 265.69C204.619 265.69 191.92 310.628 231.441 312.608L234.819 275.312L229.459 204.376L229.485 204.351Z" fill="white"/>
</mask>
<g mask="url(#mask0_4758_36055)">
<path d="M189.888 158.93L180.287 150.476L176.249 161.926L164.515 165.582L176.02 173.452L178.23 185.842L187.221 175.814L201.216 179.926L195.577 167.841L202.359 157.178L189.888 158.93Z" fill="#FFF200"/>
<path d="M177.824 187.29C177.265 187.137 176.858 186.68 176.757 186.096L174.649 174.316L163.651 166.801C163.168 166.471 162.914 165.912 163.016 165.328C163.092 164.77 163.499 164.288 164.057 164.11L175.081 160.682L178.89 149.943C179.068 149.46 179.449 149.105 179.932 148.978C180.414 148.851 180.922 148.978 181.303 149.308L190.371 157.331L202.181 155.681C202.765 155.605 203.349 155.858 203.654 156.366C203.959 156.849 203.984 157.483 203.654 157.991L197.305 167.943L202.587 179.292C202.841 179.825 202.74 180.46 202.359 180.917C201.978 181.374 201.368 181.552 200.784 181.374L187.704 177.54L179.348 186.883C179.068 187.214 178.662 187.391 178.23 187.391C178.103 187.391 177.951 187.391 177.824 187.34V187.29ZM187.653 174.367L198.447 177.54L194.206 168.477C193.977 168.02 194.028 167.461 194.307 167.029L199.336 159.134L190.091 160.428C189.659 160.479 189.228 160.352 188.897 160.073L180.973 153.066L177.671 162.409C177.519 162.866 177.163 163.196 176.706 163.348L167.943 166.09L176.884 172.209C177.214 172.437 177.443 172.793 177.519 173.199L179.195 182.567L186.129 174.824C186.408 174.494 186.815 174.316 187.247 174.316C187.399 174.316 187.526 174.316 187.678 174.367H187.653Z" fill="black"/>
<path d="M188.872 219.152L179.297 210.672L175.233 222.122L163.499 225.778L175.004 233.649L177.214 246.038L186.231 236.01L200.225 240.123L194.587 228.038L201.368 217.4L188.872 219.152Z" fill="#FFF200"/>
<path d="M176.808 247.486C176.249 247.334 175.842 246.877 175.741 246.293L173.633 234.512L162.635 226.997C162.152 226.667 161.898 226.109 162 225.525C162.076 224.966 162.483 224.484 163.041 224.306L174.065 220.879L177.874 210.139C178.052 209.657 178.433 209.301 178.916 209.174C179.398 209.047 179.906 209.174 180.287 209.504L189.355 217.527L201.165 215.877C201.749 215.801 202.333 216.055 202.638 216.563C202.943 217.045 202.968 217.68 202.638 218.187L196.289 228.14L201.571 239.489C201.825 240.022 201.724 240.656 201.343 241.113C200.962 241.57 200.352 241.748 199.768 241.57L186.688 237.737L178.332 247.08C178.052 247.41 177.646 247.588 177.214 247.588C177.087 247.588 176.935 247.588 176.808 247.537V247.486ZM186.637 234.563L197.431 237.737L193.19 228.673C192.961 228.216 193.012 227.657 193.291 227.226L198.32 219.33L189.075 220.625C188.643 220.675 188.212 220.549 187.881 220.269L179.957 213.262L176.655 222.605C176.503 223.062 176.147 223.392 175.69 223.544L166.927 226.286L175.868 232.405C176.198 232.634 176.427 232.989 176.503 233.395L178.179 242.764L185.113 235.02C185.392 234.69 185.799 234.512 186.231 234.512C186.383 234.512 186.51 234.512 186.662 234.563H186.637Z" fill="black"/>
</g>
<path d="M230.932 312.939C219.909 312.38 211.731 308.521 206.651 301.437C197.685 288.921 201.216 270.463 202.41 265.411C164.743 249.061 166.546 196.887 166.572 196.404C166.572 196.1 166.673 188.686 169.137 180.308C172.464 169.01 178.56 161.495 186.764 158.55C202.435 152.939 210.944 163.094 213.915 167.842C222.271 156.95 234.742 163.958 234.869 164.034C235.555 164.415 235.809 165.278 235.479 165.963C225.98 186.35 230.425 202.625 230.475 202.777C230.501 202.878 230.526 202.98 230.526 203.082L235.885 274.018C235.885 274.018 235.885 274.195 235.885 274.272L232.507 311.568C232.431 312.355 231.796 312.939 231.009 312.939C231.009 312.939 230.958 312.939 230.932 312.939ZM227.554 203.462C227.072 201.634 223.313 186.02 232.152 166.039C229.028 164.694 220.646 162.231 215.084 171.473C214.804 171.955 214.271 172.234 213.712 172.209C213.153 172.184 212.645 171.828 212.442 171.32C212.163 170.66 205.127 155.173 187.805 161.393C170.102 167.74 169.62 196.15 169.62 196.506C169.62 197.014 167.842 248.172 204.797 263.151C205.508 263.431 205.889 264.218 205.686 264.954C205.635 265.157 199.743 286.56 209.14 299.711C213.433 305.703 220.341 309.13 229.688 309.867L232.939 274.145L227.605 203.488L227.554 203.462Z" fill="black"/>
<path d="M318.914 152.761C318.914 152.761 305.021 181.704 258.313 177.261C211.604 172.818 207.718 129.378 207.718 129.378C207.718 129.378 199.108 78.7276 253.868 72.609C308.628 66.4903 330.039 119.375 330.039 119.375C330.039 119.375 348.377 118.258 347.818 134.126C347.259 149.994 331.41 158.905 318.914 152.787V152.761Z" fill="#FAC3C1"/>
<path d="M258.185 178.734C210.791 174.214 206.27 129.936 206.245 129.606C206.092 128.692 202.638 107.315 215.414 90.33C223.567 79.4891 236.444 73.0149 253.69 71.0854C304.792 65.3729 327.677 110.59 330.979 117.826C333.645 117.826 340.656 118.334 345.227 122.802C348.097 125.595 349.469 129.429 349.317 134.151C349.037 142.199 345.075 149.08 338.42 153.066C332.579 156.569 325.619 157.153 319.549 154.665C318.101 157.102 314.266 162.637 307.002 167.867C299.484 173.25 286.861 179.191 267.71 179.191C264.688 179.191 261.513 179.038 258.16 178.734H258.185ZM319.575 151.39C325.035 154.056 331.512 153.726 336.897 150.501C342.637 147.048 346.091 141.057 346.319 134.049C346.446 130.216 345.38 127.169 343.145 124.986C338.497 120.441 330.191 120.847 330.115 120.873C329.48 120.898 328.87 120.543 328.642 119.933C328.439 119.426 307.053 68.1657 254.045 74.1067C237.663 75.9346 225.472 82.0026 217.852 92.158C205.838 108.102 209.191 128.946 209.242 129.251C209.394 130.977 213.611 171.472 258.465 175.763C261.716 176.068 264.789 176.22 267.71 176.22C305.402 176.22 317.441 152.38 317.568 152.126C317.746 151.771 318.051 151.491 318.432 151.365C318.584 151.314 318.762 151.288 318.914 151.288C319.143 151.288 319.371 151.339 319.575 151.441V151.39Z" fill="black"/>
<path d="M329.023 139.812C329.302 139.812 329.582 139.736 329.81 139.584C330.572 139.101 334.788 138.568 338.217 138.39C339.055 138.34 339.69 137.629 339.64 136.816C339.589 135.978 338.903 135.344 338.065 135.394C336.211 135.496 330.039 135.902 328.236 137.045C327.524 137.476 327.321 138.416 327.753 139.127C328.032 139.584 328.54 139.837 329.023 139.837V139.812Z" fill="black"/>
<path d="M261.995 146.464C264.17 146.464 265.932 144.953 265.932 143.088C265.932 141.223 264.17 139.711 261.995 139.711C259.821 139.711 258.058 141.223 258.058 143.088C258.058 144.953 259.821 146.464 261.995 146.464Z" fill="#231F20"/>
<path d="M263.214 157.026C270.631 157.026 275.863 154.107 276.193 153.904C276.904 153.497 277.158 152.583 276.752 151.847C276.346 151.136 275.431 150.882 274.695 151.289C274.542 151.39 263.773 157.306 251.81 151.263C251.074 150.882 250.159 151.187 249.804 151.923C249.423 152.66 249.728 153.574 250.464 153.954C255.036 156.265 259.405 157.026 263.214 157.026Z" fill="black"/>
<path d="M253.004 99.8758C253.436 99.8758 253.842 99.6981 254.147 99.3426C254.68 98.7079 254.604 97.7685 253.969 97.21C241.854 86.9275 251.353 74.2332 251.76 73.7C252.268 73.0399 252.141 72.1005 251.48 71.5927C250.82 71.085 249.88 71.2119 249.372 71.872C249.245 72.0244 237.714 87.3591 252.014 99.5203C252.293 99.7488 252.649 99.8758 252.979 99.8758H253.004Z" fill="black"/>
<path d="M236.546 95.8396C236.698 95.8396 236.876 95.8142 237.028 95.7634C237.816 95.4841 238.222 94.6463 237.968 93.8592C235.225 85.7856 241.549 77.0773 241.6 77.0011C242.083 76.341 241.956 75.4016 241.295 74.8939C240.635 74.4115 239.695 74.5384 239.187 75.1985C238.882 75.6047 231.872 85.2525 235.123 94.824C235.327 95.4587 235.911 95.8396 236.546 95.8396Z" fill="black"/>
<path d="M224.176 99.2664C224.329 99.2664 224.507 99.241 224.659 99.1902C225.446 98.9109 225.853 98.0731 225.599 97.286C222.906 89.3394 229.155 82.5352 229.205 82.4844C229.764 81.8751 229.739 80.9357 229.129 80.3518C228.52 79.7932 227.58 79.8186 226.996 80.4025C226.691 80.7326 219.427 88.5523 222.729 98.2508C222.932 98.8855 223.516 99.2664 224.151 99.2664H224.176Z" fill="black"/>
<path d="M282.645 97.6415C283.254 97.6415 283.813 97.2861 284.041 96.6768C284.346 95.8897 283.965 95.0265 283.178 94.7218C268.091 88.857 266.999 74.0046 266.948 73.3699C266.897 72.5321 266.161 71.8974 265.348 71.9482C264.51 71.9989 263.9 72.7098 263.951 73.5477C263.951 73.7254 265.17 90.9643 282.086 97.54C282.264 97.6161 282.441 97.6415 282.619 97.6415H282.645Z" fill="black"/>
<path d="M295.014 97.1853C295.573 97.1853 296.106 96.8806 296.36 96.322C296.715 95.5604 296.411 94.6718 295.649 94.3163C285.286 89.3401 280.486 74.6147 280.435 74.4623C280.181 73.6753 279.343 73.2437 278.555 73.4976C277.768 73.7515 277.336 74.5893 277.59 75.3763C277.793 76.0365 282.822 91.4728 294.353 97.0329C294.557 97.1345 294.785 97.1853 295.014 97.1853Z" fill="black"/>
<path d="M264.129 97.6166C264.535 97.6166 264.942 97.4643 265.221 97.1342C265.78 96.5249 265.754 95.5601 265.145 95.0015C257.576 87.9689 258.592 73.802 258.592 73.675C258.668 72.8372 258.033 72.1263 257.22 72.0501C256.382 71.974 255.671 72.6087 255.595 73.4465C255.544 74.0812 254.477 89.2129 263.087 97.2104C263.367 97.4896 263.748 97.6166 264.103 97.6166H264.129Z" fill="black"/>
<path d="M297.655 195.846C297.655 195.846 334.052 221.565 313.733 286.001C313.733 286.001 332.35 282.041 336.312 295.903C340.275 309.765 325.594 314.843 325.594 314.843C325.594 314.843 303.294 324.44 253.334 303.545C203.375 282.624 212.976 227.531 212.976 227.531C212.976 227.531 218.614 194.17 239.517 185.411C239.517 185.411 264.637 175.23 297.655 195.871V195.846Z" fill="#37519B"/>
<mask id="mask1_4758_36055" style="mask-type:luminance" maskUnits="userSpaceOnUse" x="212" y="183" width="126" height="135">
<path d="M297.808 195.998C297.808 195.998 334.204 221.717 313.885 286.153C313.885 286.153 332.502 282.193 336.465 296.055C340.427 309.892 325.746 314.995 325.746 314.995C325.746 314.995 303.446 324.592 253.487 303.697C203.527 282.777 213.128 227.683 213.128 227.683C213.128 227.683 218.766 194.323 239.67 185.563C239.67 185.563 264.789 175.383 297.808 196.024V195.998Z" fill="white"/>
</mask>
<g mask="url(#mask1_4758_36055)">
<path d="M245.029 193.585L235.428 185.105L231.39 196.556L219.655 200.212L231.161 208.082L233.371 220.472L242.362 210.443L256.357 214.556L250.718 202.471L257.5 191.808L245.029 193.585Z" fill="#FFF200"/>
<path d="M232.964 221.92C232.406 221.767 231.999 221.31 231.898 220.726L229.789 208.946L218.792 201.431C218.309 201.101 218.055 200.542 218.157 199.958C218.233 199.4 218.639 198.917 219.198 198.74L230.221 195.312L234.031 184.573C234.209 184.09 234.59 183.735 235.072 183.608C235.555 183.481 236.063 183.608 236.444 183.938L245.511 191.961L257.322 190.311C257.906 190.234 258.49 190.488 258.795 190.996C259.1 191.479 259.125 192.113 258.795 192.621L252.445 202.573L257.728 213.922C257.982 214.455 257.881 215.09 257.5 215.547C257.119 216.004 256.509 216.182 255.925 216.004L242.844 212.17L234.488 221.513C234.209 221.843 233.802 222.021 233.371 222.021C233.244 222.021 233.091 222.021 232.964 221.97V221.92ZM242.794 208.997L253.588 212.17L249.347 203.107C249.118 202.65 249.169 202.091 249.448 201.659L254.477 193.763L245.232 195.058C244.8 195.109 244.368 194.982 244.038 194.703L236.114 187.696L232.812 197.039C232.66 197.496 232.304 197.826 231.847 197.978L223.084 200.72L232.025 206.839C232.355 207.067 232.583 207.423 232.66 207.829L234.336 217.197L241.27 209.454C241.549 209.124 241.956 208.946 242.387 208.946C242.54 208.946 242.667 208.946 242.819 208.997H242.794Z" fill="black"/>
<path d="M305.148 227.682L295.547 219.228L291.509 230.678L279.774 234.334L291.28 242.204L293.49 254.594L302.481 244.565L316.476 248.678L310.837 236.593L317.619 225.93L305.148 227.682Z" fill="#FFF200"/>
<path d="M293.083 256.042C292.525 255.889 292.118 255.432 292.017 254.848L289.908 243.068L278.911 235.553C278.428 235.223 278.174 234.664 278.276 234.08C278.352 233.522 278.758 233.039 279.317 232.862L290.34 229.434L294.15 218.695C294.328 218.212 294.709 217.857 295.191 217.73C295.674 217.603 296.182 217.73 296.563 218.06L305.63 226.083L317.441 224.433C318.025 224.357 318.609 224.61 318.914 225.118C319.219 225.601 319.244 226.235 318.914 226.743L312.564 236.695L317.847 248.044C318.101 248.577 318 249.212 317.619 249.669C317.238 250.126 316.628 250.304 316.044 250.126L302.964 246.292L294.607 255.635C294.328 255.965 293.922 256.143 293.49 256.143C293.363 256.143 293.21 256.143 293.083 256.092V256.042ZM302.913 243.119L313.707 246.292L309.466 237.229C309.237 236.772 309.288 236.213 309.567 235.781L314.596 227.886L305.351 229.18C304.919 229.231 304.487 229.104 304.157 228.825L296.233 221.818L292.931 231.161C292.779 231.618 292.423 231.948 291.966 232.1L283.203 234.842L292.144 240.961C292.474 241.189 292.702 241.545 292.779 241.951L294.455 251.319L301.389 243.576C301.668 243.246 302.075 243.068 302.506 243.068C302.659 243.068 302.786 243.068 302.938 243.119H302.913Z" fill="black"/>
<path d="M250.032 249.771L240.457 241.291L236.393 252.741L224.659 256.397L236.164 264.268L238.374 276.683L247.365 266.629L261.36 270.742L255.722 258.657L262.529 248.019L250.032 249.771Z" fill="#FFF200"/>
<path d="M237.968 278.131C237.409 277.978 237.003 277.521 236.901 276.937L234.793 265.157L223.795 257.642C223.313 257.312 223.059 256.753 223.16 256.169C223.237 255.611 223.643 255.128 224.202 254.951L235.225 251.523L239.035 240.784C239.212 240.301 239.593 239.946 240.076 239.819C240.559 239.692 241.067 239.819 241.448 240.149L250.515 248.172L262.325 246.522C262.91 246.445 263.494 246.699 263.799 247.207C264.103 247.689 264.129 248.324 263.799 248.832L257.449 258.784L262.732 270.133C262.986 270.666 262.884 271.301 262.503 271.758C262.122 272.215 261.513 272.393 260.928 272.215L247.848 268.381L239.492 277.724C239.212 278.054 238.806 278.232 238.374 278.232C238.247 278.232 238.095 278.232 237.968 278.181V278.131ZM247.797 265.182L258.592 268.356L254.35 259.292C254.122 258.835 254.172 258.277 254.452 257.845L259.481 249.949L250.236 251.244C249.804 251.295 249.372 251.168 249.042 250.888L241.117 243.881L237.815 253.224C237.663 253.681 237.307 254.011 236.85 254.164L228.088 256.906L237.028 263.024C237.358 263.253 237.587 263.608 237.663 264.014L239.339 273.383L246.273 265.639C246.553 265.309 246.959 265.131 247.391 265.131C247.543 265.131 247.67 265.132 247.823 265.182H247.797Z" fill="black"/>
</g>
<path d="M252.776 304.915C202.308 283.792 211.426 227.81 211.502 227.251C211.553 226.896 213.001 218.619 217.039 209.149C222.449 196.429 230.044 187.746 238.959 184.014C240 183.582 265.17 173.782 298.468 194.601C298.468 194.601 298.519 194.627 298.544 194.652C298.925 194.931 308.043 201.481 314.698 216.182C325.289 239.565 321.403 265.639 315.892 284.173C323.232 283.309 334.712 284.782 337.76 295.521C342.052 310.577 326.254 316.238 326.178 316.264C325.746 316.467 320.438 318.625 309.644 318.625C297.681 318.625 279.013 315.959 252.75 304.966L252.776 304.915ZM314.063 287.473C313.53 287.575 312.996 287.397 312.641 287.016C312.285 286.61 312.158 286.051 312.31 285.544C331.791 223.773 297.985 197.952 296.817 197.089C264.916 177.184 240.33 186.68 240.102 186.781C220.24 195.109 214.525 227.429 214.474 227.759C214.372 228.292 205.686 281.938 253.944 302.148C302.557 322.484 324.807 313.547 325.137 313.42C325.162 313.42 328.54 312.227 331.436 309.485C335.22 305.905 336.363 301.488 334.915 296.334C332.655 288.463 325.061 286.991 319.702 286.991C316.679 286.991 314.342 287.448 314.088 287.524L314.063 287.473Z" fill="black"/>
<path d="M311.396 163.5C311.396 163.5 329.683 172.437 326.635 189.65C323.588 206.864 307.916 211.002 290.518 203.157C273.12 195.312 263.316 189.422 245.689 194.449C245.689 194.449 240.686 194.22 235.25 188.356C235.25 188.356 248.305 173.097 294.455 184.42C294.455 184.42 309.263 189.422 311.853 183.1C314.469 176.778 308.805 173.3 308.805 173.3C308.805 173.3 306.189 170.914 300.754 171.117C300.754 171.117 309.136 166.572 311.422 163.5H311.396Z" fill="#D5D7D8"/>
<path d="M289.883 204.554C288.207 203.792 286.607 203.056 285.057 202.345C270.352 195.592 261.487 191.529 246.07 195.896C245.918 195.947 245.74 195.972 245.588 195.947C245.359 195.947 239.898 195.642 234.107 189.371C233.599 188.813 233.574 187.95 234.057 187.366C234.615 186.706 248.255 171.548 294.887 182.999C298.392 184.192 308.729 186.629 310.431 182.542C312.463 177.591 308.45 174.874 307.993 174.595C307.916 174.544 307.84 174.494 307.789 174.443C307.688 174.367 305.478 172.462 300.805 172.64C300.119 172.64 299.484 172.209 299.306 171.523C299.128 170.838 299.433 170.127 300.043 169.797C302.278 168.578 308.501 164.922 310.228 162.586C310.66 162.002 311.447 161.825 312.082 162.129C312.285 162.231 331.334 171.777 328.134 189.904C326.813 197.394 323.105 202.929 317.416 205.95C314.215 207.651 310.507 208.489 306.443 208.489C301.364 208.489 295.75 207.169 289.909 204.528L289.883 204.554ZM305.453 170.101C307.84 170.711 309.263 171.752 309.669 172.082C312.006 173.58 315.638 177.819 313.225 183.684C310.177 191.098 295.598 186.401 294.074 185.868C256.433 176.626 241.244 185.411 237.409 188.407C241.295 192.113 244.699 192.799 245.537 192.926C261.843 188.381 271.596 192.85 286.327 199.603C287.877 200.314 289.451 201.05 291.128 201.786C300.652 206.077 309.694 206.61 315.993 203.284C320.819 200.72 323.994 195.922 325.162 189.371C327.601 175.56 315.434 167.486 311.752 165.379C310.152 167.004 307.637 168.73 305.478 170.076L305.453 170.101Z" fill="black"/>
<path d="M255.471 129.08C256.756 123.175 251.108 116.933 242.856 115.139C234.605 113.345 226.874 116.678 225.589 122.584C224.304 128.489 229.952 134.731 238.204 136.525C246.455 138.318 254.186 134.985 255.471 129.08Z" fill="white"/>
<path d="M246.883 116.963C246.883 116.963 240.508 118.892 240.635 127.677C240.762 136.436 245.994 137.604 245.994 137.604C245.994 137.604 255.671 136.081 255.569 127.804C255.468 119.527 246.883 116.988 246.883 116.988V116.963Z" fill="black"/>
<path d="M237.841 138.492C228.316 136.435 222.526 129.809 224.049 122.751C225.573 115.693 233.574 112.062 243.099 114.119C252.623 116.175 258.414 122.802 256.89 129.86C255.646 135.598 250.134 139.05 243.022 139.05C241.371 139.05 239.644 138.873 237.841 138.467V138.492ZM226.996 123.386C225.827 128.743 230.679 133.846 238.476 135.547C246.299 137.248 252.801 134.582 253.944 129.225C255.112 123.868 250.261 118.765 242.464 117.064C240.889 116.734 239.365 116.556 237.917 116.556C232.228 116.556 227.91 119.12 226.996 123.386Z" fill="black"/>
<path d="M244.47 138.238C244.902 138.238 245.308 138.06 245.613 137.705C246.146 137.07 246.07 136.131 245.435 135.572C245.283 135.445 241.371 131.992 241.93 126.28C242.489 120.694 246.781 118.79 246.959 118.714C247.721 118.384 248.077 117.495 247.746 116.734C247.416 115.972 246.553 115.617 245.791 115.921C245.537 116.023 239.67 118.536 238.933 125.975C238.222 133.287 243.251 137.679 243.479 137.857C243.759 138.086 244.114 138.213 244.445 138.213L244.47 138.238Z" fill="black"/>
<path d="M286.28 137.904C294.636 136.684 300.701 130.848 299.827 124.868C298.954 118.888 291.472 115.029 283.116 116.249C274.76 117.469 268.695 123.306 269.568 129.286C270.442 135.266 277.924 139.124 286.28 137.904Z" fill="white"/>
<path d="M288.258 116.531C288.258 116.531 281.857 120.542 284.372 129.124C286.886 137.705 291.89 136.994 291.89 136.994C291.89 136.994 303.014 132.475 299.357 123.868C295.7 115.261 288.232 116.531 288.232 116.531H288.258Z" fill="black"/>
<path d="M268.116 129.962C267.608 126.509 268.853 123.132 271.571 120.416C274.288 117.699 278.225 115.897 282.949 115.211C287.648 114.526 291.941 115.135 295.319 116.963C298.697 118.791 300.856 121.685 301.338 125.138C301.846 128.591 300.602 131.968 297.884 134.684C295.166 137.401 291.229 139.203 286.505 139.889C285.261 140.067 284.042 140.168 282.873 140.168C274.974 140.168 269.005 136.208 268.091 129.987L268.116 129.962ZM283.381 118.207C279.368 118.791 275.939 120.34 273.704 122.548C271.672 124.58 270.733 127.068 271.088 129.53C271.875 134.938 278.174 138.061 286.099 136.893C290.112 136.309 293.541 134.76 295.776 132.552C297.808 130.521 298.747 128.032 298.392 125.57C298.036 123.082 296.436 120.974 293.922 119.603C291.89 118.512 289.375 117.953 286.607 117.953C285.565 117.953 284.499 118.029 283.407 118.182L283.381 118.207Z" fill="black"/>
<path d="M289.832 138.391C290.366 138.391 290.874 138.111 291.153 137.629C291.56 136.893 291.306 135.979 290.569 135.573C290.391 135.471 285.845 132.805 285.261 126.966C284.677 121.253 288.486 118.486 288.664 118.359C289.35 117.877 289.502 116.937 289.045 116.277C288.563 115.592 287.648 115.414 286.962 115.896C286.734 116.049 281.502 119.73 282.289 127.27C283.051 134.709 288.867 138.061 289.121 138.188C289.35 138.315 289.604 138.391 289.858 138.391H289.832Z" fill="black"/>
<path d="M228.951 109.448C229.18 109.448 229.409 109.397 229.637 109.295C229.739 109.245 238.654 104.827 247.01 108.127C247.772 108.432 248.661 108.051 248.966 107.29C249.27 106.528 248.889 105.639 248.127 105.335C238.476 101.526 228.697 106.401 228.291 106.604C227.554 106.985 227.25 107.874 227.631 108.635C227.885 109.168 228.418 109.448 228.977 109.448H228.951Z" fill="black"/>
<path d="M296.69 109.854C297.224 109.854 297.731 109.575 297.985 109.092C298.392 108.381 298.138 107.442 297.427 107.036C297.02 106.807 287.496 101.476 277.666 104.827C276.879 105.106 276.473 105.944 276.727 106.731C277.006 107.518 277.844 107.95 278.632 107.67C287.191 104.751 295.852 109.575 295.928 109.625C296.157 109.752 296.411 109.828 296.665 109.828L296.69 109.854Z" fill="black"/>
</g>
</g>
<defs>
<clipPath id="clip0_4758_36055">
<rect width="424" height="250" fill="white"/>
</clipPath>
<clipPath id="clip1_4758_36055">
<rect width="199" height="338" fill="white" transform="translate(162 10)"/>
</clipPath>
</defs>
</svg>
