<svg width="344" height="270" viewBox="0 0 344 270" fill="none" xmlns="http://www.w3.org/2000/svg">
<g clip-path="url(#clip0_4758_34696)">
<g clip-path="url(#clip1_4758_34696)">
<path d="M175.944 205.335L92.1062 202.354L93.2056 220.321L179.214 231.231L175.944 205.335Z" fill="#FAC3C1"/>
<path d="M179.214 232.862C179.214 232.862 179.073 232.862 179.017 232.862L92.9801 221.98C92.1908 221.868 91.5988 221.249 91.5424 220.434L90.443 202.467C90.443 202.017 90.5839 201.539 90.9222 201.23C91.2605 200.921 91.6834 200.696 92.1626 200.724L176 203.733C176.818 203.761 177.466 204.379 177.579 205.167L180.849 231.034C180.906 231.54 180.736 232.046 180.37 232.412C180.06 232.721 179.637 232.89 179.214 232.89V232.862ZM94.7561 218.859L177.325 229.319L174.478 206.938L93.854 204.07L94.7561 218.888V218.859Z" fill="black"/>
<path d="M181.131 109.457L191.364 30.8422L207.686 53.7013L232.945 26.1748L241.994 57.6939L268.126 31.2921L269.057 31.5451L276.922 67.8159L301.504 46.0535L308.044 82.8022L334.091 72.2303L300.489 144.041L181.131 109.457Z" fill="#FFF200"/>
<path d="M300.489 145.7C300.348 145.7 300.179 145.7 300.038 145.643L180.68 111.031C179.891 110.806 179.411 110.047 179.496 109.232L189.729 30.617C189.814 29.9422 190.293 29.408 190.969 29.2393C191.618 29.0706 192.323 29.3237 192.717 29.886L207.855 51.0861L231.733 25.078C232.127 24.6281 232.747 24.4594 233.339 24.6C233.931 24.7406 234.382 25.1624 234.552 25.7528L242.84 54.5726L266.999 30.1672C267.421 29.7454 268.042 29.5767 268.634 29.7454L269.536 29.9985C270.128 30.1672 270.551 30.6452 270.692 31.2356L277.965 64.751L300.432 44.8442C300.883 44.4506 301.504 44.3381 302.067 44.5349C302.631 44.7317 303.054 45.2097 303.139 45.8002L309.312 80.5245L333.499 70.7117C334.12 70.4587 334.853 70.5993 335.304 71.1054C335.783 71.5834 335.896 72.3144 335.614 72.933L302.011 144.744C301.729 145.334 301.137 145.7 300.517 145.7H300.489ZM182.963 108.248L299.587 142.072L330.821 75.3229L308.636 84.3203C308.185 84.5171 307.649 84.489 307.226 84.236C306.803 83.9829 306.493 83.5612 306.409 83.0832L300.376 49.2304L277.993 69.0528C277.542 69.4465 276.95 69.5589 276.386 69.3902C275.822 69.2215 275.399 68.7436 275.287 68.1812L267.844 33.9067L243.15 58.8745C242.727 59.2963 242.135 59.465 241.571 59.3244C241.007 59.1838 240.556 58.7339 240.387 58.1716L232.155 29.4924L208.87 54.8257C208.532 55.1912 208.053 55.388 207.545 55.3599C207.038 55.3318 206.587 55.0787 206.305 54.6851L192.407 35.2282L182.907 108.276L182.963 108.248Z" fill="black"/>
<path d="M260.74 188.606L285.83 198.925L290.256 213.153L280.896 224.456L252.875 238.683L204.642 243.603L175.606 231.316L194.803 184.698L260.74 188.606Z" fill="black"/>
<path d="M191.28 235.702C191.28 235.702 186.008 217.482 196.861 194.314C196.861 194.314 182.935 186.273 174.563 200.191C174.563 200.191 166.19 181.043 145.442 188.466C124.694 195.889 124.384 228.307 124.384 228.307C124.384 228.307 121.903 285.778 164.02 302.761C164.02 302.761 150.094 351.881 193.45 354.046L197.171 313.277L191.28 235.73V235.702Z" fill="#37519B"/>
<mask id="mask0_4758_34696" style="mask-type:luminance" maskUnits="userSpaceOnUse" x="124" y="188" width="74" height="168">
<path d="M191.421 236.967C191.421 236.967 186.149 218.747 197.002 195.579C197.002 195.579 183.076 187.537 174.704 201.455C174.704 201.455 166.331 182.308 145.583 189.73C124.835 197.153 124.525 229.572 124.525 229.572C124.525 229.572 122.044 287.043 164.161 304.026C164.161 304.026 150.235 353.146 193.591 355.311L197.312 314.541L191.421 236.995V236.967Z" fill="white"/>
</mask>
<g mask="url(#mask0_4758_34696)">
<path d="M147.951 187.34L137.436 178.09L132.982 190.602L120.127 194.594L132.756 203.198L135.181 216.751L145.047 205.785L160.411 210.284L154.209 197.069L161.651 185.428L147.951 187.34Z" fill="#FFF200"/>
<path d="M135.181 218.382C135.04 218.382 134.871 218.382 134.73 218.325C134.11 218.157 133.659 217.651 133.546 217.032L131.234 204.154L119.169 195.944C118.633 195.579 118.379 194.96 118.464 194.342C118.549 193.723 119 193.189 119.592 193.02L131.685 189.281L135.857 177.556C136.027 177.05 136.478 176.656 136.985 176.516C137.521 176.375 138.084 176.516 138.479 176.881L148.43 185.654L161.37 183.826C162.018 183.713 162.638 184.023 162.976 184.557C163.315 185.091 163.315 185.794 162.976 186.328L156.013 197.21L161.821 209.609C162.103 210.2 161.99 210.874 161.567 211.38C161.144 211.858 160.467 212.055 159.847 211.887L145.498 207.669L136.308 217.876C135.998 218.241 135.547 218.41 135.068 218.41L135.181 218.382ZM123.877 195.157L133.687 201.849C134.053 202.102 134.307 202.496 134.391 202.917L136.224 213.152L143.835 204.689C144.258 204.211 144.906 204.042 145.527 204.211L157.367 207.669L152.715 197.744C152.49 197.238 152.518 196.647 152.828 196.169L158.353 187.537L148.205 188.971C147.725 189.028 147.246 188.887 146.88 188.578L138.197 180.93L134.561 191.136C134.391 191.614 133.997 192.008 133.489 192.149L123.877 195.129V195.157Z" fill="black"/>
<path d="M146.852 253.133L136.337 243.883L131.883 256.395L119.028 260.387L131.657 268.991L134.081 282.544L143.948 271.578L159.312 276.077L153.11 262.862L160.552 251.221L146.852 253.133Z" fill="#FFF200"/>
<path d="M134.081 284.203C133.94 284.203 133.771 284.203 133.63 284.147C133.01 283.978 132.559 283.472 132.446 282.853L130.135 269.976L118.069 261.766C117.534 261.4 117.28 260.782 117.365 260.163C117.449 259.544 117.9 259.01 118.492 258.841L130.586 255.102L134.758 243.377C134.927 242.871 135.378 242.477 135.886 242.337C136.421 242.196 136.985 242.337 137.38 242.702L147.331 251.475L160.27 249.647C160.919 249.563 161.539 249.844 161.877 250.378C162.215 250.912 162.215 251.615 161.877 252.15L154.914 263.031L160.721 275.43C161.003 276.021 160.89 276.696 160.468 277.202C160.045 277.68 159.368 277.877 158.748 277.708L144.399 273.49L135.209 283.697C134.899 284.062 134.448 284.231 133.969 284.231L134.081 284.203ZM122.777 260.95L132.587 267.642C132.954 267.895 133.208 268.289 133.292 268.71L135.124 278.945L142.736 270.482C143.159 270.004 143.807 269.835 144.427 270.004L156.267 273.462L151.616 263.537C151.39 263.031 151.418 262.44 151.729 261.962L157.254 253.331L147.105 254.765C146.626 254.821 146.147 254.68 145.78 254.371L137.098 246.723L133.461 256.93C133.292 257.408 132.897 257.801 132.39 257.942L122.777 260.922V260.95Z" fill="black"/>
</g>
<path d="M193.112 355.677C193.112 355.677 193.056 355.677 193.027 355.677C180.934 355.086 171.969 350.841 166.388 343.108C156.549 329.444 160.411 309.256 161.736 303.717C120.409 285.834 122.383 228.813 122.383 228.223C122.383 227.942 122.495 219.844 125.202 210.678C128.838 198.335 135.547 190.096 144.54 186.891C161.736 180.761 171.067 191.84 174.337 197.041C183.527 185.12 197.171 192.796 197.312 192.88C198.045 193.302 198.355 194.229 197.989 194.989C187.53 217.342 192.464 235.055 192.492 235.224C192.52 235.336 192.548 235.449 192.548 235.561L198.44 313.108C198.44 313.108 198.44 313.276 198.44 313.389L194.719 354.158C194.634 355.002 193.929 355.649 193.084 355.649L193.112 355.677ZM154.238 188.409C151.672 188.409 148.825 188.887 145.668 190.012C126.245 196.957 125.709 228.026 125.709 228.335C125.709 228.954 123.792 284.878 164.33 301.242C165.119 301.552 165.514 302.395 165.288 303.211C165.232 303.436 158.776 326.857 169.094 341.197C173.802 347.748 181.385 351.459 191.618 352.303L195.17 313.248L189.306 236.011C188.771 234.015 184.655 216.948 194.352 195.101C190.913 193.639 181.695 190.968 175.634 201.034C175.324 201.568 174.76 201.849 174.112 201.821C173.492 201.793 172.956 201.399 172.702 200.837C172.448 200.247 167.036 188.381 154.238 188.381V188.409Z" fill="black"/>
<path d="M289.551 180.565C289.551 180.565 274.3 212.196 223.05 207.332C171.8 202.468 167.543 155.006 167.543 155.006C167.543 155.006 158.1 99.6441 218.173 92.9523C278.247 86.2604 301.757 144.069 301.757 144.069C301.757 144.069 321.885 142.86 321.265 160.18C320.645 177.528 303.28 187.256 289.551 180.565Z" fill="#FAC3C1"/>
<path d="M233.368 209.497C230.041 209.497 226.574 209.329 222.909 208.991C170.898 204.043 165.965 155.653 165.908 155.175C165.767 154.304 161.962 130.939 176 112.381C184.937 100.516 199.088 93.4588 218.004 91.3501C274.103 85.1081 299.192 134.538 302.828 142.438C305.76 142.438 313.428 143.001 318.446 147.893C321.603 150.958 323.097 155.119 322.928 160.293C322.618 169.065 318.277 176.629 310.975 180.987C304.576 184.839 296.937 185.457 290.256 182.73C286.76 188.41 271.255 209.554 233.368 209.554V209.497ZM227.589 94.0774C224.629 94.0774 221.556 94.2461 218.37 94.6116C200.385 96.6079 187.023 103.244 178.65 114.35C165.485 131.782 169.15 154.557 169.178 154.782C169.376 156.778 173.999 201.062 223.219 205.758C272.608 210.453 287.916 180.199 288.085 179.918C288.282 179.525 288.621 179.215 289.043 179.075C289.466 178.934 289.917 178.962 290.312 179.159C296.316 182.083 303.392 181.718 309.312 178.175C315.627 174.407 319.404 167.856 319.658 160.208C319.799 156.019 318.643 152.673 316.191 150.283C311.088 145.306 301.983 145.784 301.898 145.784C301.193 145.812 300.545 145.419 300.263 144.772C300.038 144.238 279.008 94.1617 227.617 94.1617L227.589 94.0774Z" fill="black"/>
<path d="M300.658 166.422C300.122 166.422 299.558 166.141 299.248 165.663C298.769 164.904 298.995 163.891 299.784 163.385C301.757 162.148 308.551 161.698 310.581 161.586C311.483 161.558 312.272 162.232 312.329 163.132C312.385 164.032 311.68 164.819 310.778 164.875C307.001 165.072 302.406 165.663 301.56 166.169C301.278 166.338 300.996 166.422 300.686 166.422H300.658Z" fill="black"/>
<path d="M217.243 122.784C216.876 122.784 216.482 122.643 216.172 122.39C200.47 109.091 213.127 92.3334 213.268 92.1647C213.832 91.4337 214.847 91.3212 215.58 91.8555C216.313 92.4178 216.425 93.43 215.89 94.161C215.439 94.7515 205.036 108.613 218.314 119.86C219.019 120.45 219.103 121.491 218.511 122.194C218.173 122.587 217.722 122.784 217.243 122.784Z" fill="black"/>
<path d="M199.173 118.342C198.496 118.342 197.848 117.921 197.622 117.218C194.042 106.758 201.766 96.2144 202.076 95.7645C202.612 95.0335 203.655 94.8929 204.388 95.4271C205.121 95.9613 205.262 97.0017 204.726 97.7327C204.642 97.8171 197.735 107.349 200.723 116.149C201.005 117.021 200.554 117.949 199.708 118.23C199.539 118.286 199.342 118.314 199.173 118.314V118.342Z" fill="black"/>
<path d="M185.585 122.138C184.909 122.138 184.26 121.716 184.035 121.013C180.426 110.441 188.376 101.865 188.714 101.5C189.334 100.825 190.377 100.797 191.054 101.444C191.702 102.062 191.759 103.102 191.11 103.777C191.11 103.777 184.176 111.284 187.164 119.973C187.446 120.844 186.995 121.772 186.121 122.053C185.952 122.109 185.754 122.138 185.585 122.138Z" fill="black"/>
<path d="M249.746 120.338C249.549 120.338 249.352 120.31 249.154 120.225C230.577 113.056 229.252 94.1892 229.252 94.0205C229.195 93.1207 229.9 92.3334 230.802 92.2772C231.704 92.2491 232.494 92.9239 232.55 93.8236C232.607 94.5266 233.791 110.75 250.366 117.161C251.212 117.498 251.635 118.454 251.297 119.298C251.043 119.944 250.423 120.338 249.746 120.338Z" fill="black"/>
<path d="M263.334 119.86C263.108 119.86 262.855 119.804 262.629 119.691C249.944 113.618 244.446 96.748 244.221 96.0169C243.939 95.1453 244.418 94.2174 245.292 93.9644C246.166 93.6832 247.096 94.1612 247.378 95.0328C247.435 95.2015 252.706 111.284 264.067 116.739C264.884 117.133 265.223 118.117 264.828 118.932C264.546 119.523 263.954 119.86 263.334 119.86Z" fill="black"/>
<path d="M229.421 120.31C229.026 120.31 228.603 120.169 228.293 119.86C218.85 111.116 220.005 94.5829 220.062 93.88C220.146 92.9802 220.936 92.3054 221.838 92.3617C222.74 92.446 223.416 93.2333 223.36 94.133C223.36 94.3017 222.261 109.794 230.549 117.442C231.225 118.061 231.253 119.101 230.633 119.776C230.295 120.113 229.872 120.31 229.421 120.31Z" fill="black"/>
<path d="M266.238 227.688C266.238 227.688 306.183 255.805 283.885 326.238C283.885 326.238 304.323 321.908 308.664 337.063C313.005 352.19 296.909 357.757 296.909 357.757C296.909 357.757 272.439 368.273 217.609 345.414C162.779 322.555 173.322 262.328 173.322 262.328C173.322 262.328 179.524 225.889 202.443 216.301C202.443 216.301 230.013 205.167 266.238 227.745V227.688Z" fill="#37519B"/>
<mask id="mask1_4758_34696" style="mask-type:luminance" maskUnits="userSpaceOnUse" x="172" y="213" width="138" height="148">
<path d="M266.378 227.857C266.378 227.857 306.324 255.974 284.026 326.407C284.026 326.407 304.464 322.077 308.805 337.232C313.146 352.359 297.049 357.926 297.049 357.926C297.049 357.926 272.58 368.442 217.75 345.583C162.92 322.724 173.463 262.497 173.463 262.497C173.463 262.497 179.665 226.058 202.584 216.47C202.584 216.47 230.154 205.336 266.378 227.913V227.857Z" fill="white"/>
</mask>
<g mask="url(#mask1_4758_34696)">
<path d="M208.476 225.186L197.961 215.936L193.507 228.448L180.624 232.44L193.253 241.044L195.677 254.596L205.544 243.631L220.908 248.129L214.734 234.914L222.176 223.274L208.476 225.186Z" fill="#FFF200"/>
<path d="M195.677 256.255C195.536 256.255 195.367 256.255 195.226 256.199C194.634 256.03 194.155 255.524 194.042 254.906L191.731 242.028L179.665 233.818C179.13 233.453 178.876 232.834 178.96 232.215C179.045 231.597 179.496 231.063 180.116 230.894L192.21 227.154L196.382 215.402C196.579 214.895 197.002 214.502 197.538 214.361C198.073 214.221 198.637 214.361 199.032 214.727L208.983 223.499L221.951 221.672C222.599 221.587 223.219 221.868 223.557 222.403C223.896 222.937 223.896 223.64 223.557 224.174L216.594 235.055L222.402 247.455C222.684 248.045 222.571 248.72 222.148 249.226C221.725 249.704 221.049 249.901 220.428 249.732L206.079 245.515L196.889 255.721C196.579 256.087 196.128 256.255 195.649 256.255H195.677ZM184.373 233.003L194.183 239.695C194.55 239.948 194.803 240.341 194.888 240.763L196.72 250.998L204.332 242.534C204.755 242.056 205.403 241.888 206.023 242.056L217.863 245.515L213.212 235.589C212.986 235.083 213.014 234.493 213.324 234.015L218.85 225.383L208.701 226.817C208.222 226.901 207.743 226.733 207.376 226.423L198.694 218.776L195.057 229.01C194.888 229.488 194.493 229.882 193.986 230.022L184.373 233.003Z" fill="black"/>
<path d="M274.441 262.497L263.926 253.219L259.472 265.731L246.589 269.751L259.246 278.327L261.671 291.908L271.537 280.914L286.901 285.413L280.699 272.198L288.141 260.557L274.441 262.497Z" fill="#FFF200"/>
<path d="M261.671 293.539C261.53 293.539 261.361 293.539 261.22 293.482C260.628 293.314 260.148 292.808 260.036 292.189L257.724 279.311L245.659 271.101C245.123 270.736 244.869 270.117 244.954 269.499C245.038 268.88 245.489 268.346 246.11 268.177L258.203 264.438L262.375 252.685C262.573 252.179 262.996 251.785 263.531 251.644C264.067 251.504 264.631 251.644 265.025 252.01L274.976 260.782L287.944 258.955C288.564 258.871 289.213 259.152 289.551 259.686C289.889 260.22 289.889 260.923 289.551 261.457L282.588 272.338L288.395 284.738C288.677 285.329 288.564 286.003 288.141 286.509C287.718 286.987 287.042 287.184 286.422 287.016L272.073 282.798L262.883 293.004C262.573 293.37 262.122 293.539 261.642 293.539H261.671ZM250.338 270.286L260.148 276.978C260.515 277.231 260.769 277.624 260.853 278.046L262.686 288.281L270.297 279.818C270.72 279.34 271.368 279.171 271.988 279.34L283.828 282.798L279.177 272.873C278.951 272.367 278.979 271.776 279.29 271.298L284.815 262.666L274.666 264.1C274.187 264.156 273.708 264.016 273.341 263.707L264.659 256.059L261.022 266.293C260.853 266.771 260.458 267.165 259.951 267.306L250.338 270.286Z" fill="black"/>
</g>
<path d="M279.431 361.834C266.322 361.834 245.828 358.91 216.961 346.904C161.567 323.82 171.575 262.609 171.687 262.019C171.744 261.653 173.322 252.6 177.748 242.225C183.696 228.335 192.012 218.831 201.766 214.754C202.95 214.276 230.549 203.564 267.083 226.31C267.083 226.31 267.14 226.339 267.168 226.367C267.562 226.648 306.888 255.271 286.224 324.213C294.287 323.286 306.86 324.888 310.242 336.613C314.95 353.061 297.613 359.247 297.416 359.303C296.993 359.5 291.214 361.862 279.402 361.862L279.431 361.834ZM220.485 215.176C209.716 215.176 203.176 217.707 203.063 217.763C181.244 226.873 175.014 262.188 174.957 262.553C174.845 263.144 165.316 321.795 218.258 343.867C271.594 366.108 296.035 356.323 296.26 356.239C296.965 355.986 310.947 350.925 307.085 337.513C303.223 324.045 285.012 327.7 284.223 327.869C283.631 327.981 283.067 327.784 282.672 327.363C282.278 326.941 282.137 326.322 282.334 325.76C303.702 258.251 266.632 230.022 265.335 229.066C247.463 217.96 231.676 215.204 220.513 215.204L220.485 215.176Z" fill="black"/>
<path d="M281.291 192.346C281.291 192.346 301.363 202.102 298.008 220.941C294.653 239.751 277.457 244.278 258.372 235.702C239.288 227.126 228.519 220.688 209.18 226.17C209.18 226.17 203.683 225.945 197.707 219.507C197.707 219.507 212.028 202.833 262.657 215.233C262.657 215.233 278.895 220.716 281.77 213.799C284.646 206.882 278.416 203.086 278.416 203.086C278.416 203.086 275.54 200.471 269.592 200.696C269.592 200.696 278.782 195.748 281.291 192.346Z" fill="#D5D7D8"/>
<path d="M275.85 241.522C270.269 241.522 264.123 240.06 257.696 237.192C255.863 236.376 254.116 235.561 252.396 234.802C236.271 227.435 226.517 222.965 209.603 227.773C209.434 227.829 209.265 227.829 209.068 227.829C208.814 227.829 202.838 227.491 196.467 220.631C195.903 220.012 195.875 219.085 196.438 218.438C197.059 217.735 211.999 201.146 263.052 213.63C267.027 214.951 278.388 217.651 280.248 213.18C282.475 207.782 278.077 204.801 277.57 204.492C277.485 204.436 277.401 204.379 277.316 204.295C277.232 204.211 274.779 202.13 269.649 202.355C268.803 202.411 268.183 201.877 267.985 201.146C267.788 200.415 268.126 199.628 268.803 199.262C271.255 197.941 278.077 193.92 279.966 191.389C280.445 190.743 281.291 190.546 282.024 190.883C282.25 190.996 303.167 201.427 299.643 221.221C298.177 229.403 294.118 235.477 287.888 238.766C284.364 240.622 280.304 241.55 275.85 241.55V241.522ZM222.74 222.459C233.396 222.459 242.191 226.479 253.806 231.793C255.497 232.553 257.245 233.368 259.077 234.183C269.508 238.879 279.459 239.469 286.365 235.842C291.665 233.031 295.161 227.801 296.429 220.631C299.107 205.532 285.745 196.703 281.714 194.398C279.966 196.169 277.204 198.053 274.836 199.543C277.457 200.218 279.008 201.343 279.459 201.708C282.024 203.339 285.999 207.978 283.349 214.389C279.994 222.487 264.01 217.369 262.178 216.751C220.738 206.629 204.275 216.245 200.131 219.534C204.388 223.583 208.137 224.342 209.068 224.483C214.114 223.077 218.568 222.459 222.768 222.459H222.74Z" fill="black"/>
<path d="M226.546 175.053C228.943 175.053 230.887 173.404 230.887 171.37C230.887 169.336 228.943 167.687 226.546 167.687C224.148 167.687 222.204 169.336 222.204 171.37C222.204 173.404 224.148 175.053 226.546 175.053Z" fill="#231F20"/>
<path d="M239.682 184.136C239.429 184.136 239.175 184.079 238.949 183.967C225.784 177.331 213.916 183.854 213.804 183.939C213.014 184.389 211.999 184.108 211.548 183.32C211.097 182.533 211.379 181.521 212.169 181.071C212.704 180.762 225.644 173.592 240.443 181.043C241.261 181.465 241.571 182.449 241.176 183.264C240.894 183.826 240.302 184.164 239.71 184.164L239.682 184.136Z" fill="black"/>
<path d="M219.356 157.692C220.753 151.225 214.532 144.402 205.461 142.453C196.39 140.503 187.904 144.165 186.507 150.632C185.11 157.099 191.331 163.921 200.402 165.871C209.473 167.82 217.959 164.158 219.356 157.692Z" fill="white"/>
<path d="M209.941 144.462C209.941 144.462 202.922 146.571 203.091 156.159C203.232 165.746 208.955 167.012 208.955 167.012C208.955 167.012 219.583 165.325 219.47 156.299C219.357 147.245 209.941 144.462 209.941 144.462Z" fill="black"/>
<path d="M205.713 168.615C203.909 168.615 201.992 168.418 200.019 167.996C194.916 166.9 190.716 164.65 187.953 161.473C185.162 158.296 184.063 154.5 184.88 150.789C186.544 143.085 195.367 139.12 205.798 141.369C210.9 142.466 215.1 144.715 217.863 147.892C220.654 151.07 221.753 154.865 220.936 158.577C219.583 164.847 213.522 168.615 205.685 168.615H205.713ZM200.103 144.04C193.873 144.04 189.109 146.824 188.094 151.491C187.502 154.163 188.348 156.946 190.434 159.308C192.717 161.895 196.382 163.835 200.723 164.791C209.321 166.646 216.453 163.75 217.722 157.874C218.314 155.203 217.468 152.419 215.382 150.057C213.099 147.471 209.434 145.531 205.093 144.575C203.345 144.209 201.682 144.012 200.103 144.012V144.04Z" fill="black"/>
<path d="M207.292 167.715C206.925 167.715 206.531 167.574 206.22 167.321C205.995 167.124 200.441 162.316 201.231 154.331C202.048 146.205 208.476 143.45 208.758 143.337C209.603 143 210.562 143.394 210.9 144.237C211.238 145.081 210.844 146.037 210.026 146.374C209.801 146.458 205.121 148.539 204.501 154.64C203.881 160.882 208.166 164.65 208.363 164.819C209.039 165.409 209.124 166.449 208.532 167.124C208.194 167.49 207.743 167.687 207.263 167.687L207.292 167.715Z" fill="black"/>
<path d="M253.233 167.398C262.416 166.073 269.091 159.692 268.142 153.145C267.193 146.598 258.978 142.364 249.795 143.689C240.611 145.014 233.936 151.395 234.885 157.942C235.835 164.489 244.049 168.723 253.233 167.398Z" fill="white"/>
<path d="M255.412 143.984C255.412 143.984 248.393 148.371 251.156 157.734C253.918 167.097 259.415 166.337 259.415 166.337C259.415 166.337 271.65 161.417 267.619 151.998C263.616 142.579 255.412 143.984 255.412 143.984Z" fill="black"/>
<path d="M249.492 169.823C240.838 169.823 234.27 165.493 233.255 158.689C232.719 154.921 234.044 151.21 237.061 148.258C240.049 145.305 244.39 143.337 249.549 142.578C260.12 141.032 268.634 145.615 269.761 153.403C270.297 157.171 268.972 160.882 265.956 163.834C262.967 166.787 258.626 168.755 253.467 169.514C252.086 169.711 250.761 169.823 249.464 169.823H249.492ZM253.552 145.558C252.424 145.558 251.24 145.643 250.028 145.812C245.63 146.458 241.853 148.145 239.372 150.563C237.145 152.785 236.13 155.484 236.497 158.183C237.371 164.116 244.277 167.49 252.988 166.224C257.386 165.578 261.163 163.891 263.644 161.473C265.871 159.251 266.886 156.552 266.519 153.825C265.786 148.736 260.543 145.502 253.552 145.502V145.558Z" fill="black"/>
<path d="M257.132 167.884C256.85 167.884 256.596 167.828 256.315 167.687C256.033 167.547 249.662 163.863 248.816 155.738C247.97 147.499 253.721 143.45 253.975 143.282C254.736 142.776 255.751 142.972 256.258 143.703C256.766 144.463 256.568 145.475 255.835 145.981C255.638 146.122 251.466 149.13 252.114 155.372C252.791 161.811 257.893 164.735 257.95 164.763C258.739 165.213 259.021 166.197 258.57 167.012C258.26 167.547 257.696 167.856 257.132 167.856V167.884Z" fill="black"/>
<path d="M194.07 137.068C192.379 137.068 190.631 136.899 188.855 136.477C187.981 136.28 187.418 135.381 187.643 134.509C187.84 133.637 188.742 133.075 189.616 133.3C199.229 135.577 208.25 129.392 208.335 129.335C209.096 128.801 210.111 128.998 210.618 129.729C211.154 130.46 210.956 131.5 210.223 132.007C209.885 132.26 202.866 137.096 194.07 137.096V137.068Z" fill="black"/>
<path d="M259.472 137.771C250.084 137.771 242.699 132.063 242.36 131.81C241.656 131.247 241.515 130.207 242.078 129.504C242.642 128.801 243.685 128.661 244.39 129.223C244.475 129.279 253.157 135.943 262.855 134.2C263.757 134.031 264.602 134.621 264.772 135.521C264.941 136.421 264.349 137.264 263.447 137.433C262.094 137.686 260.769 137.799 259.472 137.799V137.771Z" fill="black"/>
</g>
<path d="M99.2706 120.389H90.394V394.822H99.2706V120.389Z" fill="#8A6456"/>
<path d="M100.535 396.06H89.1294V119.15H100.535V396.084V396.06ZM91.6343 393.559H98.0059V121.651H91.6343V393.559Z" fill="black"/>
<path d="M94.1635 170.502C141.052 170.502 179.062 132.554 179.062 85.7417C179.062 38.9299 141.052 0.981445 94.1635 0.981445C47.2752 0.981445 9.26465 38.9299 9.26465 85.7417C9.26465 132.554 47.2752 170.502 94.1635 170.502Z" fill="#F05144"/>
<path d="M94.1634 171.74C46.6434 171.74 8 133.16 8 85.7416C8 38.3234 46.6434 -0.28125 94.1634 -0.28125C141.683 -0.28125 180.327 38.2991 180.327 85.7416C180.327 133.184 141.683 171.764 94.1634 171.764V171.74ZM94.1634 2.21956C48.0296 2.21956 10.5049 39.6831 10.5049 85.7416C10.5049 131.8 48.0296 169.239 94.1391 169.239C140.249 169.239 177.773 131.776 177.773 85.7416C177.773 39.7074 140.273 2.21956 94.1634 2.21956Z" fill="black"/>
<path d="M135.853 127.941C138.597 125.217 138.592 120.776 135.854 118.038L61.8702 44.0584C61.8697 44.0579 61.8692 44.0574 61.8687 44.0569C59.1454 41.3127 54.7051 41.317 51.9663 44.054C49.2214 46.7777 49.2261 51.219 51.9648 53.9576L51.9649 53.9577L125.951 127.92C125.951 127.92 125.951 127.92 125.951 127.92C127.27 129.239 128.967 129.92 130.678 129.977C130.747 129.992 130.819 130 130.893 130C132.684 130 134.494 129.298 135.853 127.941ZM135.853 127.941C135.852 127.941 135.851 127.942 135.851 127.943L135.146 127.233L135.854 127.94C135.853 127.94 135.853 127.94 135.853 127.941Z" fill="white" stroke="white" stroke-width="2" stroke-linejoin="round"/>
<path d="M61.0029 127.944L61.003 127.944L135.833 53.9646C135.833 53.9643 135.834 53.964 135.834 53.9637C138.616 51.2355 138.584 46.7896 135.839 44.0543C133.089 41.3136 128.608 41.3178 125.843 44.0513C125.843 44.0513 125.842 44.0514 125.842 44.0514L50.9926 118.011C50.9919 118.012 50.9912 118.012 50.9906 118.013C48.2131 120.738 48.218 125.185 50.9896 127.924C52.3291 129.248 54.0512 129.926 55.7841 129.977C55.8525 129.992 55.9235 130 55.9963 130C57.8026 130 59.6301 129.301 61.0029 127.944Z" fill="white" stroke="white" stroke-width="2" stroke-linejoin="round"/>
<path d="M81.8598 209.16C81.8598 209.16 81.8598 196.817 91.3599 195.889C100.86 194.961 104.638 198.897 104.497 202.356C104.356 205.814 94.5736 205.73 94.5736 205.73C94.5736 205.73 104.102 205.392 103.735 211.184C103.369 216.976 95.1938 216.386 95.1938 216.386C95.1938 216.386 103.538 216.302 103.764 222.628C103.989 228.954 91.6982 227.858 91.6982 227.858C91.6982 227.858 81.6061 228.251 81.8598 209.132V209.16Z" fill="#FAC3C1"/>
<path d="M93.7561 229.601C92.7131 229.601 91.9238 229.545 91.5855 229.516C90.9089 229.516 88.0053 229.32 85.2991 226.677C81.8035 223.275 80.0839 217.37 80.1966 209.132C80.1966 204.324 82.5082 195.073 91.1908 194.23C98.3511 193.527 102.044 195.467 103.905 197.21C105.427 198.644 106.244 200.5 106.16 202.412C106.075 204.239 104.722 205.392 102.918 206.123C103.228 206.348 103.538 206.601 103.792 206.882C104.948 208.063 105.483 209.582 105.371 211.297C105.258 213.124 104.497 214.671 103.2 215.824C102.833 216.133 102.439 216.414 102.044 216.639C103.876 217.848 105.314 219.732 105.427 222.6C105.483 224.259 104.891 225.749 103.707 226.873C101.227 229.235 96.6034 229.629 93.8125 229.629L93.7561 229.601ZM91.6701 226.227C91.6701 226.227 91.7546 226.227 91.811 226.227C94.5455 226.452 99.5351 226.199 101.368 224.455C101.875 223.977 102.1 223.415 102.072 222.684C101.931 218.804 97.3927 218.157 95.7576 218.045C95.3912 218.045 95.1375 218.045 95.0247 218.045C94.1508 217.989 93.4742 217.229 93.5024 216.358C93.5024 215.486 94.2354 214.783 95.1375 214.755C95.3912 214.755 95.6731 214.755 95.955 214.755C97.3081 214.755 99.6761 214.474 101.001 213.293C101.649 212.731 101.988 212 102.044 211.044C102.1 210.256 101.875 209.666 101.396 209.132C100.014 207.726 96.9416 207.36 95.2502 207.332C94.9683 207.332 94.7428 207.332 94.5173 207.332C93.6152 207.332 92.8822 206.601 92.8822 205.701C92.8822 204.802 93.587 204.071 94.4609 204.043C94.5737 204.043 94.8274 204.043 95.222 204.043C99.4224 203.958 102.749 202.946 102.777 202.243C102.805 201.287 102.382 200.331 101.565 199.572C100.465 198.532 97.7028 196.901 91.4445 197.491C83.5513 198.25 83.4385 209.019 83.4385 209.132C83.3257 218.242 85.6091 222.403 87.5543 224.315C89.5558 226.255 91.5291 226.255 91.5573 226.227H91.6137H91.6701Z" fill="black"/>
</g>
<defs>
<clipPath id="clip0_4758_34696">
<rect width="344" height="270" fill="white"/>
</clipPath>
<clipPath id="clip1_4758_34696">
<rect width="254.558" height="369.456" fill="white" transform="translate(81.1965 24.5439)"/>
</clipPath>
</defs>
</svg>
