<svg width="344" height="270" viewBox="0 0 344 270" fill="none" xmlns="http://www.w3.org/2000/svg">
<g clip-path="url(#clip0_4758_34598)">
<path d="M96.2706 120.389H87.394V394.822H96.2706V120.389Z" fill="#8A6456"/>
<path d="M97.5352 396.06H86.1294V119.15H97.5352V396.084V396.06ZM88.6343 393.559H95.0059V121.651H88.6343V393.559Z" fill="black"/>
<path d="M91.1635 170.502C138.052 170.502 176.062 132.554 176.062 85.7417C176.062 38.9299 138.052 0.981445 91.1635 0.981445C44.2752 0.981445 6.26465 38.9299 6.26465 85.7417C6.26465 132.554 44.2752 170.502 91.1635 170.502Z" fill="#F05144"/>
<path d="M91.1634 171.74C43.6434 171.74 5 133.16 5 85.7416C5 38.3234 43.6434 -0.28125 91.1634 -0.28125C138.683 -0.28125 177.327 38.2991 177.327 85.7416C177.327 133.184 138.683 171.764 91.1634 171.764V171.74ZM91.1634 2.21956C45.0296 2.21956 7.50489 39.6831 7.50489 85.7416C7.50489 131.8 45.0296 169.239 91.1391 169.239C137.249 169.239 174.773 131.776 174.773 85.7416C174.773 39.7074 137.273 2.21956 91.1634 2.21956Z" fill="black"/>
<path d="M132.853 127.941C135.597 125.217 135.592 120.776 132.854 118.038L58.8702 44.0584C58.8697 44.0579 58.8692 44.0574 58.8687 44.0569C56.1454 41.3127 51.7051 41.317 48.9663 44.054C46.2214 46.7777 46.2261 51.219 48.9648 53.9576L48.9649 53.9577L122.951 127.92C122.951 127.92 122.951 127.92 122.951 127.92C124.27 129.239 125.967 129.92 127.678 129.977C127.747 129.992 127.819 130 127.893 130C129.684 130 131.494 129.298 132.853 127.941ZM132.853 127.941C132.852 127.941 132.851 127.942 132.851 127.943L132.146 127.233L132.854 127.94C132.853 127.94 132.853 127.94 132.853 127.941Z" fill="white" stroke="white" stroke-width="2" stroke-linejoin="round"/>
<path d="M58.0029 127.944L58.003 127.944L132.833 53.9646C132.833 53.9643 132.834 53.964 132.834 53.9637C135.616 51.2355 135.584 46.7896 132.839 44.0543C130.089 41.3136 125.608 41.3178 122.843 44.0513C122.843 44.0513 122.842 44.0514 122.842 44.0514L47.9926 118.011C47.9919 118.012 47.9912 118.012 47.9906 118.013C45.2131 120.738 45.218 125.185 47.9896 127.924C49.3291 129.248 51.0512 129.926 52.7841 129.977C52.8525 129.992 52.9235 130 52.9963 130C54.8026 130 56.6301 129.301 58.0029 127.944Z" fill="white" stroke="white" stroke-width="2" stroke-linejoin="round"/>
<g clip-path="url(#clip1_4758_34598)">
<path d="M212.208 196.238L93.8096 206.229L94.9333 224.95L219.833 229.986L212.208 196.238Z" fill="#1B9749"/>
<path d="M219.833 231.191C219.833 231.191 219.807 231.191 219.78 231.191L94.8531 226.129C94.2377 226.129 93.7294 225.62 93.7026 225.004L92.5788 206.309C92.5521 205.666 93.0337 205.077 93.6758 205.023L212.101 195.033C212.689 194.98 213.251 195.381 213.385 195.971L221.011 229.718C221.091 230.093 221.011 230.468 220.77 230.762C220.529 231.03 220.208 231.191 219.833 231.191ZM96.0572 223.772L218.308 228.727L211.271 197.524L95.0672 207.327L96.0572 223.772Z" fill="black"/>
<path d="M84.204 213.299C84.204 213.299 84.204 200.443 94.0505 199.479C103.897 198.515 107.83 202.613 107.67 206.202C107.509 209.791 97.3683 209.71 97.3683 209.71C97.3683 209.71 107.242 209.335 106.84 215.388C106.439 221.441 97.9837 220.799 97.9837 220.799C97.9837 220.799 106.626 220.692 106.867 227.28C107.108 233.869 94.3716 232.717 94.3716 232.717C94.3716 232.717 83.9097 233.119 84.1773 213.219L84.204 213.299Z" fill="#1B9749"/>
<path d="M96.4586 234.083C95.3616 234.083 94.5856 234.03 94.3448 234.003C93.7829 234.003 90.8932 233.869 88.164 231.191C84.6322 227.736 82.893 221.709 83 213.299C83 208.478 85.3011 199.131 93.9167 198.3C101.168 197.604 104.86 199.532 106.68 201.247C108.151 202.639 108.927 204.434 108.847 206.282C108.767 208.237 106.974 209.389 104.807 210.032C105.449 210.38 106.037 210.781 106.546 211.29C107.643 212.415 108.151 213.835 108.044 215.495C107.937 217.263 107.215 218.736 105.957 219.834C105.369 220.343 104.726 220.718 104.031 221.04C106.198 222.165 107.964 224.12 108.071 227.28C108.125 228.887 107.589 230.253 106.439 231.351C103.977 233.681 99.2145 234.056 96.4319 234.056L96.4586 234.083ZM94.3983 231.592C94.3983 231.592 94.4786 231.592 94.5054 231.592C96.5924 231.78 102.532 231.78 104.807 229.61C105.449 228.994 105.716 228.298 105.69 227.387C105.529 222.888 100.365 222.191 98.5724 222.084C98.171 222.084 97.9302 222.084 97.9035 222.084C97.2613 222.031 96.7797 221.495 96.7797 220.852C96.7797 220.209 97.3148 219.7 97.957 219.674C98.1978 219.674 98.4654 219.674 98.7329 219.674C99.9905 219.674 102.746 219.459 104.379 218.04C105.155 217.37 105.556 216.486 105.636 215.361C105.69 214.397 105.422 213.621 104.807 213.005C103.255 211.398 99.8299 210.996 98.0373 210.969C97.7429 210.969 97.5021 210.969 97.3416 210.969C96.6994 210.969 96.1643 210.433 96.1375 209.791C96.1375 209.148 96.6459 208.585 97.2881 208.558C97.3416 208.558 97.5824 208.558 97.957 208.558C102.024 208.505 106.359 207.567 106.412 206.201C106.466 205.077 105.957 203.925 104.994 203.014C103.79 201.863 100.793 200.068 94.104 200.711C85.4884 201.541 85.3546 212.844 85.3546 213.326C85.2208 222.914 87.6557 227.361 89.7159 229.423C91.9367 231.646 94.2111 231.646 94.2913 231.619H94.3181L94.3983 231.592Z" fill="black"/>
<path d="M257.373 75.3104C257.373 75.3104 274.497 45.3396 282.284 47.8572C290.096 50.3749 283.3 86.1578 283.3 86.1578L257.373 75.3372V75.3104Z" fill="#9BCEE6"/>
<path d="M283.3 87.3631C283.14 87.3631 282.979 87.3363 282.845 87.2828L256.918 76.4622C256.597 76.3283 256.356 76.0604 256.249 75.739C256.142 75.4176 256.169 75.0427 256.356 74.748C256.41 74.6677 260.718 67.1147 265.962 59.9635C273.373 49.8393 278.859 45.5003 282.685 46.7324C291.086 49.4375 285.682 80.2655 284.504 86.3989C284.424 86.7471 284.21 87.0685 283.889 87.2292C283.702 87.3363 283.514 87.3631 283.327 87.3631H283.3ZM259.112 74.7213L282.39 84.4437C284.959 70.1145 286.458 50.4553 281.936 48.9822C277.307 47.4823 266.096 62.7758 259.112 74.7213Z" fill="black"/>
<path d="M186.04 74.9889C186.04 74.9889 190.669 45.5805 197.732 45.2055C204.796 44.8306 210.255 75.7924 210.255 75.7924L186.013 74.9889H186.04Z" fill="#9BCEE6"/>
<path d="M210.255 76.9974C210.255 76.9974 210.255 76.9974 210.228 76.9974L185.986 76.1939C185.638 76.1939 185.317 76.0332 185.103 75.7654C184.889 75.4975 184.782 75.1493 184.836 74.8012C185.638 69.7391 190.027 44.4018 197.679 44C197.732 44 197.786 44 197.84 44C205.492 44 210.522 70.2747 211.459 75.5779C211.512 75.9261 211.432 76.301 211.191 76.5689C210.95 76.8367 210.629 76.9974 210.281 76.9974H210.255ZM187.458 73.837L208.836 74.5333C205.224 54.9545 200.274 46.2766 197.813 46.4105C193.772 46.6248 189.438 62.1325 187.458 73.837Z" fill="black"/>
<path d="M405.016 306.078C372.159 296.436 344.172 277.205 330.9 267.054C330.927 266.84 330.981 266.653 331.007 266.438C337.67 225.808 340.051 157.134 322.552 113.37C305.053 69.5787 239.553 63.6595 214.883 63.847C214.883 63.847 111.496 64.9183 124.205 138.011L119.469 137.797C119.469 137.797 113.503 186.784 178.923 186.998C178.923 186.998 169.37 309.747 213.599 323.059C257.855 336.37 299.435 321.72 299.435 321.72C299.435 321.72 304.197 318.934 310.11 312.399C364.079 332.674 415.772 327.184 418.502 318.613C421.258 310.042 405.043 306.051 405.043 306.051L405.016 306.078Z" fill="#1B9749"/>
<path d="M252.931 329.835C240.704 329.835 227.085 328.415 213.225 324.237C202.763 321.077 194.388 311.809 188.368 296.65C183.605 284.704 180.287 269.063 178.441 250.18C175.685 221.817 177.183 194.39 177.611 188.23C155.377 187.935 139.002 181.989 128.888 170.499C116.178 156.09 118.158 138.439 118.265 137.689C118.345 137.073 118.907 136.591 119.523 136.618L122.787 136.779C120.111 119.557 123.697 104.879 133.436 93.1748C157.999 63.6057 212.582 62.7219 214.883 62.6951C221.974 62.6415 246.965 63.0701 271.795 71.0248C298.525 79.5955 315.997 93.7105 323.703 112.968C331.596 132.707 336.225 159.732 337.054 191.096C337.723 216.112 335.984 243.618 332.211 266.572C345.991 277.071 373.336 295.525 405.311 304.926C406.033 305.114 415.933 307.658 419.037 313.229C420.053 315.077 420.241 317.006 419.599 319.041C419.117 320.514 417.672 321.853 415.291 323.005C400.976 329.942 355.49 330.612 310.378 313.872C304.679 320.032 300.184 322.71 299.97 322.818C299.916 322.844 299.836 322.898 299.756 322.925C299.461 323.032 279.581 329.862 252.878 329.862L252.931 329.835ZM120.566 139.055C120.379 143.1 120.486 157.322 130.707 168.892C140.554 180.034 156.768 185.712 178.896 185.793C179.244 185.793 179.538 185.927 179.779 186.194C179.993 186.435 180.127 186.784 180.1 187.105C179.993 188.31 171.11 309.051 213.92 321.934C256.115 334.629 296.438 321.478 298.873 320.648C299.568 320.22 303.93 317.407 309.174 311.622C309.495 311.247 310.03 311.14 310.485 311.301C358.995 329.513 402.688 326.407 414.274 320.809C416.575 319.684 417.164 318.746 417.324 318.291C417.752 316.925 417.645 315.64 416.95 314.408C414.328 309.694 404.802 307.31 404.722 307.283C404.722 307.283 404.695 307.283 404.668 307.283C371.838 297.641 343.904 278.571 330.178 268.072C329.83 267.804 329.643 267.349 329.723 266.92L329.83 266.331C341.897 192.703 330.231 135.868 321.455 113.879C302.244 65.7484 223.847 64.9717 214.883 65.0788C214.75 65.0788 200.756 65.2663 184.006 69.0428C168.621 72.4979 147.698 79.7562 135.256 94.7015C125.704 106.192 122.386 120.682 125.356 137.823C125.409 138.171 125.302 138.546 125.061 138.814C124.821 139.082 124.446 139.243 124.098 139.216L120.513 139.055H120.566Z" fill="black"/>
<path d="M174.561 126.279C174.24 126.279 173.892 126.145 173.651 125.877L163.002 113.824C162.574 113.316 162.601 112.566 163.109 112.11C163.618 111.682 164.367 111.709 164.822 112.217L175.471 124.27C175.899 124.779 175.872 125.529 175.364 125.984C175.123 126.198 174.856 126.279 174.561 126.279Z" fill="black"/>
<path d="M162.869 125.582C162.548 125.582 162.2 125.448 161.959 125.181C161.531 124.672 161.558 123.922 162.066 123.466L174.106 112.807C174.615 112.378 175.364 112.405 175.819 112.914C176.247 113.423 176.22 114.173 175.712 114.628L163.671 125.288C163.43 125.502 163.163 125.582 162.869 125.582Z" fill="black"/>
<path d="M147.965 127.19C147.644 127.19 147.296 127.056 147.055 126.788L136.406 114.736C135.978 114.227 136.005 113.477 136.513 113.021C137.022 112.566 137.771 112.62 138.226 113.129L148.875 125.181C149.303 125.69 149.276 126.44 148.768 126.895C148.527 127.11 148.259 127.19 147.965 127.19Z" fill="black"/>
<path d="M136.272 126.494C135.951 126.494 135.604 126.36 135.363 126.092C134.935 125.583 134.961 124.833 135.47 124.378L147.51 113.718C148.019 113.289 148.768 113.316 149.223 113.825C149.651 114.334 149.624 115.084 149.116 115.539L137.075 126.199C136.834 126.413 136.567 126.494 136.272 126.494Z" fill="black"/>
<path d="M287.769 263.867C287.501 263.867 287.287 263.84 287.073 263.787C286.083 263.546 285.28 262.93 284.745 262.019C284.103 260.921 283.889 259.421 283.889 257.868C282.765 259.475 281.401 260.867 279.956 261.43C278.912 261.832 277.842 261.751 276.879 261.269C275.915 260.76 275.246 259.93 274.925 258.805C274.497 257.305 274.738 255.403 275.246 253.582C273.775 254.787 272.196 255.725 270.671 255.912C269.521 256.046 268.424 255.752 267.567 255.029C264.597 252.564 268.718 245.119 270.109 242.788C277.949 225.272 275.568 202.827 275.541 202.613C275.461 201.943 275.942 201.354 276.611 201.274C277.28 201.22 277.869 201.676 277.949 202.345C278.056 203.283 280.437 225.7 272.276 243.86C272.276 243.913 272.223 243.94 272.196 243.994C269.761 248.011 268.263 252.484 269.092 253.207C269.44 253.502 269.842 253.609 270.377 253.555C272.33 253.314 275.22 250.85 278.109 246.94C278.484 246.431 279.206 246.297 279.742 246.645C280.277 246.993 280.437 247.69 280.143 248.252C279.073 250.127 276.504 255.537 277.28 258.162C277.414 258.644 277.655 258.966 278.056 259.153C278.404 259.341 278.752 259.367 279.18 259.207C281.374 258.403 283.969 253.529 285.093 250.663C285.334 250.074 286.003 249.752 286.591 249.966C287.207 250.181 287.528 250.823 287.367 251.439C286.618 254.091 285.815 258.992 286.912 260.867C287.126 261.216 287.367 261.43 287.715 261.51C287.983 261.564 288.384 261.43 288.812 261.108C292.397 258.457 299.087 243.967 301.388 206.604C301.441 205.934 302.003 205.452 302.672 205.479C303.341 205.532 303.849 206.095 303.796 206.764C301.602 242.494 295.367 259.287 290.257 263.064C289.32 263.76 288.491 263.947 287.849 263.947L287.769 263.867Z" fill="black"/>
<path d="M293.575 141.894C293.575 141.894 293.334 141.894 293.2 141.868C292.371 141.68 209.265 124.378 120.272 140.234C119.309 140.421 118.345 139.752 118.185 138.761C117.998 137.77 118.667 136.832 119.657 136.672C209.372 120.682 293.12 138.145 293.976 138.332C294.939 138.546 295.582 139.511 295.367 140.475C295.18 141.332 294.431 141.894 293.602 141.894H293.575Z" fill="black"/>
<path d="M193.906 113.503C202.832 113.503 210.067 104.857 210.067 94.1918C210.067 83.5267 202.832 74.8809 193.906 74.8809C184.981 74.8809 177.745 83.5267 177.745 94.1918C177.745 104.857 184.981 113.503 193.906 113.503Z" fill="#FFF200"/>
<path d="M193.906 114.681C184.327 114.681 176.541 105.495 176.541 94.192C176.541 82.8893 184.327 73.6758 193.906 73.6758C203.485 73.6758 211.271 82.8626 211.271 94.192C211.271 105.522 203.485 114.681 193.906 114.681ZM193.906 76.0863C185.665 76.0863 178.949 84.2017 178.949 94.192C178.949 104.182 185.665 112.271 193.906 112.271C202.147 112.271 208.863 104.156 208.863 94.192C208.863 84.2285 202.147 76.0863 193.906 76.0863Z" fill="black"/>
<path d="M194.334 106.835C199.078 106.835 202.923 100.947 202.923 93.684C202.923 86.421 199.078 80.5332 194.334 80.5332C189.591 80.5332 185.745 86.421 185.745 93.684C185.745 100.947 189.591 106.835 194.334 106.835Z" fill="black"/>
<path d="M222.375 114.253C231.67 114.253 239.205 105.248 239.205 94.1389C239.205 83.03 231.67 74.0244 222.375 74.0244C213.08 74.0244 205.545 83.03 205.545 94.1389C205.545 105.248 213.08 114.253 222.375 114.253Z" fill="#FFF200"/>
<path d="M222.375 115.432C212.422 115.432 204.341 105.87 204.341 94.1117C204.341 82.3537 212.422 72.792 222.375 72.792C232.329 72.792 240.409 82.3537 240.409 94.1117C240.409 105.87 232.329 115.432 222.375 115.432ZM222.375 75.2293C213.76 75.2293 206.749 83.6929 206.749 94.1117C206.749 104.531 213.76 113.021 222.375 113.021C230.991 113.021 238.001 104.557 238.001 94.1117C238.001 83.6661 230.991 75.2293 222.375 75.2293Z" fill="black"/>
<path d="M225.399 108.736C230.615 108.736 234.844 102.261 234.844 94.2727C234.844 86.2849 230.615 79.8096 225.399 79.8096C220.182 79.8096 215.954 86.2849 215.954 94.2727C215.954 102.261 220.182 108.736 225.399 108.736Z" fill="black"/>
<path d="M163.136 86.4785C163.136 86.4785 190.027 84.8715 206.696 70.9976L208.703 70.3816C208.703 70.3816 226.977 85.8625 252.45 86.8535L252.236 73.1938C252.236 73.1938 214.108 60.3377 178.387 73.4081C178.387 73.4081 165.544 78.8452 163.136 86.4785Z" fill="#1B9749"/>
<path d="M168.648 87.5774C167.899 87.5774 167.23 87.015 167.15 86.2382C167.069 85.4079 167.658 84.658 168.487 84.5776C168.702 84.5776 191.311 82.0868 203.432 70.8109C204.047 70.2484 204.984 70.2752 205.572 70.8912C206.134 71.5072 206.107 72.4447 205.492 73.0339C192.622 84.9794 169.772 87.4971 168.809 87.6042C168.755 87.6042 168.702 87.6042 168.648 87.6042V87.5774Z" fill="black"/>
<path d="M246.617 87.5769C246.617 87.5769 246.51 87.5769 246.456 87.5769C245.493 87.4697 222.616 84.9788 209.773 73.0066C209.158 72.4441 209.131 71.4799 209.693 70.8639C210.255 70.2479 211.218 70.2211 211.833 70.7835C223.981 82.0594 246.563 84.5235 246.777 84.5503C247.607 84.6307 248.195 85.3806 248.115 86.2109C248.035 86.9876 247.393 87.5501 246.617 87.5501V87.5769Z" fill="black"/>
</g>
</g>
<defs>
<clipPath id="clip0_4758_34598">
<rect width="344" height="270" fill="white"/>
</clipPath>
<clipPath id="clip1_4758_34598">
<rect width="337" height="342" fill="white" transform="translate(83 44)"/>
</clipPath>
</defs>
</svg>
