<svg width="424" height="250" viewBox="0 0 424 250" fill="none" xmlns="http://www.w3.org/2000/svg">
<g clip-path="url(#clip0_4758_35621)">
<g clip-path="url(#clip1_4758_35621)">
<path d="M236.608 181.889C236.608 181.889 181.996 162.572 164.202 151.153C164.202 151.153 155.82 144.228 153.303 146.46C150.785 148.692 153.303 153.672 158.452 158.823C158.452 158.823 148.468 150.982 145.435 155.131C142.403 159.281 153.703 165.777 153.703 165.777C153.703 165.777 143.061 160.912 141.316 165.234C139.571 169.584 184.084 199.089 228.169 208.476" fill="#1B9749"/>
<path d="M228.197 209.792C228.197 209.792 228.026 209.792 227.94 209.792C187.317 201.121 144.52 174.677 140.4 166.979C139.971 166.149 139.886 165.434 140.143 164.775C140.544 163.774 141.316 163.03 142.374 162.6C143.633 162.085 145.264 162.085 146.894 162.343C145.378 160.883 144.119 159.252 143.748 157.621C143.49 156.447 143.748 155.331 144.406 154.387C145.092 153.442 146.093 152.87 147.295 152.698C148.954 152.469 150.899 153.013 152.759 153.843C151.7 152.097 150.985 150.294 151.014 148.635C151.042 147.375 151.529 146.288 152.416 145.487C155.505 142.739 162.686 148.234 164.917 150.094C182.425 161.284 236.436 180.458 236.98 180.659C237.638 180.888 238.01 181.632 237.752 182.29C237.523 182.948 236.779 183.32 236.121 183.063C233.89 182.261 181.166 163.545 163.458 152.212C163.401 152.212 163.372 152.155 163.344 152.126C159.482 148.921 154.99 146.631 154.132 147.404C153.76 147.719 153.589 148.148 153.589 148.692C153.531 150.781 155.677 154.244 159.367 157.907C159.854 158.393 159.882 159.166 159.425 159.681C158.967 160.196 158.194 160.254 157.679 159.853C155.877 158.451 150.556 154.845 147.667 155.245C147.152 155.331 146.78 155.532 146.494 155.904C146.236 156.247 146.179 156.619 146.265 157.077C146.78 159.51 151.5 163.03 154.361 164.661C154.962 165.004 155.191 165.748 154.876 166.378C154.561 166.979 153.817 167.237 153.188 166.95C150.528 165.72 145.464 164.117 143.318 164.976C142.975 165.119 142.718 165.319 142.575 165.577C143.919 170.356 185.715 198.116 228.455 207.217C229.141 207.36 229.599 208.047 229.456 208.733C229.341 209.334 228.798 209.764 228.197 209.764V209.792Z" fill="black"/>
<path d="M305.323 39.4269C305.323 39.4269 323.603 7.43141 331.957 10.1215C340.31 12.8117 333.044 50.9887 333.044 50.9887L305.352 39.4269H305.323Z" fill="#9BCEE6"/>
<path d="M333.015 52.2765C332.844 52.2765 332.672 52.2479 332.529 52.1906L304.837 40.6288C304.494 40.4857 304.236 40.1995 304.122 39.8561C304.007 39.5127 304.036 39.112 304.236 38.7972C304.293 38.7113 308.899 30.6409 314.506 22.9998C322.431 12.182 328.267 7.57444 332.357 8.89089C341.312 11.7814 335.561 44.664 334.303 51.2176C334.217 51.5897 333.988 51.9331 333.645 52.1048C333.445 52.2193 333.244 52.2479 333.044 52.2479L333.015 52.2765ZM307.183 38.7972L332.043 49.1857C334.789 33.8748 336.391 12.8975 331.556 11.3235C326.665 9.74945 314.649 26.0334 307.183 38.7972Z" fill="black"/>
<path d="M387.313 251.804C387.313 251.804 401.674 233.402 406.651 235.835C411.629 238.267 403.619 261.563 403.619 261.563L387.313 251.804Z" fill="#9BCEE6"/>
<path d="M403.619 262.851C403.39 262.851 403.161 262.794 402.961 262.679L386.655 252.921C386.34 252.72 386.111 252.405 386.054 252.062C385.997 251.69 386.054 251.318 386.311 251.032C389.83 246.51 401.76 232.029 407.252 234.719C412.831 237.438 406.823 256.298 404.849 262.021C404.735 262.393 404.449 262.679 404.077 262.823C403.934 262.88 403.791 262.908 403.648 262.908L403.619 262.851ZM389.229 251.461L402.904 259.646C406.308 249.315 408.339 238.096 406.079 237.009C403.791 235.893 395.723 243.391 389.229 251.461Z" fill="black"/>
<path d="M411.486 264.94C411.486 264.94 425.847 246.538 430.825 248.971C435.803 251.403 427.792 274.699 427.792 274.699L411.486 264.94Z" fill="#9BCEE6"/>
<path d="M427.792 276.015C427.564 276.015 427.335 275.958 427.134 275.844L410.828 266.085C410.513 265.884 410.285 265.569 410.227 265.226C410.17 264.854 410.227 264.482 410.485 264.196C414.004 259.674 425.933 245.193 431.426 247.883C437.004 250.602 430.996 269.462 429.022 275.185C428.908 275.557 428.622 275.843 428.25 275.987C428.107 276.044 427.964 276.072 427.821 276.072L427.792 276.015ZM413.403 264.596L427.077 272.781C430.481 262.45 432.513 251.232 430.253 250.144C427.964 249.028 419.897 256.526 413.403 264.596Z" fill="black"/>
<path d="M229.141 39.0834C229.141 39.0834 234.09 7.66032 241.643 7.28828C249.195 6.91624 255.031 39.942 255.031 39.942L229.17 39.0834H229.141Z" fill="#9BCEE6"/>
<path d="M255.031 41.2293C255.031 41.2293 255.031 41.2293 255.003 41.2293L229.141 40.3708C228.769 40.3708 228.426 40.1991 228.197 39.9129C227.968 39.6267 227.854 39.2547 227.911 38.8826C228.741 33.4737 233.404 6.42928 241.586 6C241.643 6 241.7 6 241.757 6C249.91 6 255.289 34.0461 256.29 39.7126C256.347 40.0846 256.261 40.4853 256.004 40.7714C255.746 41.0576 255.403 41.2293 255.031 41.2293ZM230.658 37.8524L253.486 38.5964C249.653 17.848 244.389 8.57566 241.786 8.57566C241.786 8.57566 241.757 8.57566 241.729 8.57566C239.097 8.71875 233.976 17.9053 230.658 37.8524Z" fill="black"/>
<path d="M463.008 285.717C427.907 275.415 398.012 254.924 383.851 244.077C383.88 243.848 383.937 243.648 383.966 243.448C391.06 200.091 393.635 126.799 374.954 80.065C356.273 33.331 286.299 27.0063 259.952 27.2066C259.952 27.2066 149.526 28.3514 163.086 106.365L158.023 106.136C158.023 106.136 151.643 158.422 221.532 158.651C221.532 158.651 211.319 289.667 258.579 303.89C305.838 318.113 350.237 302.459 350.237 302.459C350.237 302.459 355.329 299.483 361.623 292.5C419.267 314.135 474.451 308.269 477.398 299.139C480.345 289.981 463.008 285.746 463.008 285.746V285.717Z" fill="#1B9749"/>
<path d="M300.603 311.073C287.558 311.073 272.997 309.556 258.207 305.092C247.021 301.743 238.095 291.813 231.659 275.643C226.595 262.908 223.019 246.195 221.045 226.048C218.099 195.769 219.729 166.521 220.159 159.91C196.414 159.596 178.906 153.242 168.121 140.994C154.561 125.625 156.678 106.766 156.764 105.965C156.85 105.306 157.393 104.82 158.109 104.848L161.599 105.02C158.767 86.6471 162.571 70.9928 172.985 58.4865C199.218 26.9489 257.491 25.9759 259.98 25.9473C267.533 25.8901 294.252 26.3479 320.771 34.819C349.322 43.9483 367.974 59.0302 376.213 79.6069C384.624 100.67 389.573 129.518 390.488 163.001C391.203 189.702 389.344 219.036 385.339 243.562C400.072 254.752 429.251 274.47 463.409 284.515C464.181 284.716 474.766 287.434 478.085 293.358C479.172 295.304 479.372 297.393 478.685 299.54C478.17 301.114 476.626 302.545 474.108 303.775C458.832 311.159 410.256 311.903 362.052 294.017C355.959 300.599 351.153 303.461 350.952 303.575C350.867 303.604 350.809 303.661 350.724 303.69C350.409 303.804 329.182 311.102 300.66 311.102L300.603 311.073ZM159.224 107.453C159.024 111.774 159.139 126.942 170.067 139.305C180.566 151.182 197.902 157.249 221.532 157.335C221.875 157.335 222.218 157.478 222.476 157.735C222.705 157.993 222.848 158.365 222.819 158.708C222.705 159.996 213.236 288.865 258.95 302.602C304.036 316.167 347.062 302.116 349.694 301.228C350.438 300.77 355.072 297.766 360.679 291.584C361.022 291.183 361.594 291.069 362.081 291.241C413.889 310.701 460.548 307.381 472.907 301.4C475.367 300.198 475.996 299.196 476.168 298.71C476.626 297.25 476.511 295.877 475.767 294.56C472.935 289.523 462.808 286.976 462.694 286.948C462.694 286.948 462.665 286.948 462.636 286.948C427.564 276.645 397.726 256.297 383.079 245.108C382.707 244.821 382.507 244.335 382.592 243.877L382.707 243.247C395.58 164.661 383.136 104.018 373.753 80.5513C353.241 29.2098 269.449 28.4085 259.952 28.4943C259.809 28.4943 244.875 28.6947 226.967 32.7299C210.546 36.4217 188.175 44.1773 174.901 60.1177C164.717 72.3665 161.17 87.8491 164.345 106.136C164.402 106.508 164.288 106.909 164.03 107.195C163.773 107.481 163.401 107.653 163.001 107.624L159.167 107.453H159.224Z" fill="black"/>
<path d="M217.212 96.3771C216.869 96.3771 216.497 96.2341 216.239 95.9479L204.882 83.0696C204.424 82.5258 204.453 81.7245 204.996 81.2666C205.54 80.8087 206.341 80.8373 206.799 81.3811L218.156 94.2594C218.614 94.8031 218.585 95.6044 218.042 96.0623C217.784 96.2913 217.498 96.3771 217.183 96.3771H217.212Z" fill="black"/>
<path d="M204.739 95.6328C204.396 95.6328 204.024 95.4897 203.766 95.2035C203.309 94.6598 203.337 93.8585 203.881 93.4006L216.754 82.039C217.298 81.5812 218.099 81.6098 218.556 82.1535C219.014 82.6973 218.986 83.4986 218.442 83.9565L205.569 95.318C205.311 95.547 205.025 95.6328 204.71 95.6328H204.739Z" fill="black"/>
<path d="M188.49 94.7746C188.147 94.7746 187.775 94.6315 187.517 94.3453L176.16 81.467C175.702 80.9233 175.731 80.1219 176.274 79.664C176.818 79.2062 177.619 79.2348 178.077 79.7785L189.434 92.6568C189.892 93.2006 189.863 94.0019 189.32 94.4598C189.062 94.6887 188.776 94.7746 188.461 94.7746H188.49Z" fill="black"/>
<path d="M175.988 94.0303C175.645 94.0303 175.273 93.8872 175.016 93.601C174.558 93.0573 174.587 92.2559 175.13 91.798L188.004 80.4365C188.547 79.9786 189.348 80.0072 189.806 80.551C190.264 81.0947 190.235 81.8961 189.691 82.3539L176.818 93.7155C176.561 93.9444 176.274 94.0303 175.96 94.0303H175.988Z" fill="black"/>
<path d="M236.436 113.634C190.807 113.634 158.967 108.311 158.423 108.197C157.365 108.025 156.678 107.023 156.85 105.964C157.022 104.906 158.023 104.219 159.081 104.39C159.968 104.534 249.395 119.501 343.686 98.8385C344.716 98.6095 345.746 99.2677 345.975 100.298C346.204 101.328 345.546 102.359 344.516 102.587C305.781 111.087 267.847 113.606 236.436 113.606V113.634Z" fill="black"/>
<path d="M238.811 77.6032C248.338 77.6032 256.061 68.3779 256.061 56.9979C256.061 45.6179 248.338 36.3926 238.811 36.3926C229.284 36.3926 221.56 45.6179 221.56 56.9979C221.56 68.3779 229.284 77.6032 238.811 77.6032Z" fill="#FFF200"/>
<path d="M238.811 78.8624C228.598 78.8624 220.273 69.0463 220.273 56.9693C220.273 44.8923 228.598 35.0762 238.811 35.0762C249.024 35.0762 257.348 44.8923 257.348 56.9693C257.348 69.0463 249.024 78.8624 238.811 78.8624ZM238.811 37.6805C230 37.6805 222.848 46.3518 222.848 56.9979C222.848 67.644 230 76.3154 238.811 76.3154C247.622 76.3154 254.774 67.644 254.774 56.9979C254.774 46.3518 247.622 37.6805 238.811 37.6805Z" fill="black"/>
<path d="M269.249 78.4043C279.171 78.4043 287.215 68.7946 287.215 56.9404C287.215 45.0863 279.171 35.4766 269.249 35.4766C259.327 35.4766 251.284 45.0863 251.284 56.9404C251.284 68.7946 259.327 78.4043 269.249 78.4043Z" fill="#FFF200"/>
<path d="M269.249 79.6635C258.636 79.6635 249.996 69.4754 249.996 56.9118C249.996 44.3483 258.636 34.1602 269.249 34.1602C279.863 34.1602 288.502 44.3483 288.502 56.9118C288.502 69.4754 279.863 79.6635 269.249 79.6635ZM269.249 36.7644C260.037 36.7644 252.571 45.8079 252.571 56.9405C252.571 68.073 260.066 77.1165 269.249 77.1165C278.432 77.1165 285.927 68.073 285.927 56.9405C285.927 45.8079 278.432 36.7644 269.249 36.7644Z" fill="black"/>
<path d="M271.252 64.3821C274.664 64.3821 277.431 60.7048 277.431 56.1686C277.431 51.6324 274.664 47.9551 271.252 47.9551C267.839 47.9551 265.072 51.6324 265.072 56.1686C265.072 60.7048 267.839 64.3821 271.252 64.3821Z" fill="black"/>
<path d="M240.069 64.3821C243.482 64.3821 246.249 60.7048 246.249 56.1686C246.249 51.6324 243.482 47.9551 240.069 47.9551C236.657 47.9551 233.89 51.6324 233.89 56.1686C233.89 60.7048 236.657 64.3821 240.069 64.3821Z" fill="black"/>
</g>
<g clip-path="url(#clip2_4758_35621)">
<path d="M329.41 181.968L344.303 201.388C344.303 201.388 367.08 191.832 377.993 178.008C388.907 164.184 364.512 154.78 364.512 154.78C364.512 154.78 362.124 167.378 329.41 181.943V181.968Z" fill="#1B9749"/>
<path d="M329.076 182.607C329.076 182.607 329.282 182.607 329.384 182.556C330.232 182.352 350.158 177.267 363.126 158.128L366.772 151.893C366.849 151.74 369.006 147.37 371.651 148.086C374.193 148.776 373.911 150.59 373.859 150.794C373.859 150.871 373.859 150.922 373.859 150.999C373.859 151.05 373.525 156.109 369.211 161.118C368.724 161.68 368.801 162.497 369.366 162.983C369.93 163.443 370.752 163.392 371.24 162.83C375.862 157.438 376.453 152.072 376.504 151.229C376.787 149.67 376.273 146.578 372.37 145.53C367.517 144.227 364.564 150.385 364.435 150.641L360.892 156.697C348.515 174.967 328.948 179.975 328.742 180.001C328.023 180.18 327.587 180.895 327.766 181.585C327.921 182.173 328.46 182.582 329.05 182.582L329.076 182.607Z" fill="black"/>
<path d="M377.12 166.432C377.454 166.432 377.788 166.305 378.045 166.049C378.302 165.794 384.259 159.917 383.027 153.528C382.641 151.459 381.666 149.925 380.176 148.954C377.711 147.37 374.707 148.035 374.578 148.06C373.859 148.239 373.423 148.929 373.603 149.644C373.782 150.36 374.476 150.794 375.195 150.615C375.246 150.615 377.275 150.181 378.764 151.152C379.611 151.714 380.176 152.66 380.433 153.988C381.383 158.997 376.247 164.082 376.196 164.133C375.683 164.644 375.657 165.487 376.196 165.998C376.453 166.254 376.787 166.381 377.146 166.381L377.12 166.432Z" fill="black"/>
<path d="M345.485 202.104C345.69 202.104 345.896 202.053 346.101 201.95C379.483 184.651 388.239 165.742 388.779 159.916C388.984 157.668 388.445 156.007 387.186 154.959C385.081 153.222 381.948 154.065 381.589 154.167C380.895 154.371 380.484 155.112 380.69 155.802C380.895 156.492 381.614 156.901 382.333 156.697C382.872 156.543 384.644 156.262 385.517 156.978C386.082 157.438 386.288 158.332 386.159 159.661C385.671 164.72 377.043 182.939 344.894 199.625C344.252 199.957 343.995 200.749 344.329 201.414C344.56 201.874 345.022 202.129 345.51 202.129L345.485 202.104Z" fill="black"/>
<path d="M405.154 135.67C403.82 136.329 401.902 136.583 399.686 136.553C397.346 136.521 394.751 136.174 392.32 135.722C389.893 135.27 387.644 134.715 386.001 134.273C385.18 134.052 384.512 133.859 384.049 133.722C383.86 133.666 383.706 133.619 383.589 133.584C376.652 108.573 378.61 94.5639 383.34 86.8808C388.069 79.1976 395.659 77.7075 400.284 77.932C404.886 78.1554 408.48 80.1366 410.376 83.6676C412.283 87.2173 412.534 92.4449 410.184 99.2706C407.788 106.23 406.532 115.416 405.873 122.834C405.543 126.548 405.362 129.83 405.264 132.184C405.215 133.361 405.186 134.306 405.17 134.957C405.162 135.261 405.157 135.5 405.154 135.67Z" fill="#1B9749" stroke="black"/>
<path d="M382.77 135.258L382.076 135.053L381.896 134.364C375.194 110.319 375.708 93.2749 383.386 83.6927C389.241 76.4102 397.227 75.9758 400.385 76.1036C405.135 76.3335 409.039 78.3011 411.324 81.674C413.404 84.7148 415.201 90.3619 411.915 99.842C407.292 113.283 406.959 135.743 406.959 135.973V136.74L406.291 137.123C404.673 138.043 402.414 138.375 399.923 138.375C392.913 138.375 384.053 135.641 382.77 135.232V135.258ZM409.424 99.0243C411.735 92.3295 411.632 86.8612 409.141 83.1816C407.292 80.4731 404.237 78.9399 400.257 78.761C397.509 78.6333 390.55 79.0166 385.466 85.3281C380.613 91.384 376.478 104.544 384.259 132.958C388.984 134.389 399.717 136.944 404.339 135.156C404.442 130.888 405.11 111.545 409.424 99.0243Z" fill="black"/>
<path d="M413.558 157.387C413.558 157.387 417.744 123.99 386.416 127.133C355.063 130.275 359.222 145.275 359.222 145.275C359.222 145.275 360.84 155.036 365.129 154.653C365.129 154.653 358.581 157.719 359.556 165.589C360.532 173.434 369.057 176.372 369.057 176.372C369.057 176.372 363.28 177.982 364.846 185.418C366.412 192.828 376.478 198.859 388.932 197.147C401.386 195.435 411.427 185.111 413.558 157.387Z" fill="#1B9749"/>
<path d="M364.23 185.571C363.228 180.869 364.897 177.956 366.823 176.372C363.973 174.787 359.633 171.466 358.914 165.64C358.272 160.504 360.609 156.926 362.92 154.908C359.916 152.531 358.76 146.475 358.581 145.428C358.426 144.789 357.63 140.854 360.583 136.561C364.615 130.709 373.474 127.055 386.93 125.701C396.199 124.781 403.441 126.876 408.397 131.936C417.333 141.058 415.664 156.39 415.535 157.412C413.609 182.479 404.956 196.252 389.78 198.347C388.445 198.526 387.084 198.628 385.723 198.628C376.068 198.628 366.027 194.131 364.23 185.571ZM387.186 128.333C371.522 129.892 365.283 134.44 362.817 137.992C360.327 141.544 361.123 144.687 361.148 144.814C361.148 144.865 361.148 144.916 361.174 144.942C361.611 147.625 363.357 153.4 365.668 153.221C366.31 153.17 366.9 153.579 367.054 154.192C367.208 154.805 366.926 155.444 366.335 155.725C366.284 155.751 360.686 158.485 361.508 165.307C362.355 172.232 370.059 174.992 370.136 175.017C370.675 175.196 371.035 175.733 371.035 176.295C371.035 176.857 370.624 177.368 370.059 177.522C369.879 177.573 365.488 178.876 366.798 185.009C368.159 191.473 377.172 197.402 389.395 195.715C403.158 193.824 411.067 180.869 412.865 157.156V157.105C412.865 156.952 414.637 142.055 406.471 133.75C402.799 129.994 397.612 128.128 391.038 128.128C389.805 128.128 388.522 128.205 387.186 128.333Z" fill="black"/>
<path d="M365.796 155.853C365.796 155.853 365.976 155.853 366.079 155.827C378.687 153.119 384.721 153.068 384.798 153.068C385.517 153.068 386.133 152.48 386.133 151.739C386.133 151.023 385.543 150.41 384.824 150.41C384.567 150.41 378.507 150.41 365.539 153.221C364.82 153.374 364.358 154.064 364.538 154.78C364.666 155.393 365.231 155.827 365.822 155.827L365.796 155.853Z" fill="black"/>
<path d="M369.725 177.573C369.725 177.573 369.828 177.573 369.879 177.573L385.671 175.657C386.39 175.58 386.904 174.916 386.827 174.2C386.75 173.485 386.082 172.974 385.363 173.051L369.571 174.967C368.852 175.044 368.338 175.708 368.415 176.424C368.492 177.088 369.057 177.573 369.725 177.573Z" fill="black"/>
</g>
</g>
<defs>
<clipPath id="clip0_4758_35621">
<rect width="424" height="250" fill="white"/>
</clipPath>
<clipPath id="clip1_4758_35621">
<rect width="339" height="365" fill="white" transform="translate(140 6)"/>
</clipPath>
<clipPath id="clip2_4758_35621">
<rect width="94" height="131" fill="white" transform="translate(328 71)"/>
</clipPath>
</defs>
</svg>
