<svg width="424" height="250" viewBox="0 0 424 250" fill="none" xmlns="http://www.w3.org/2000/svg">
<g clip-path="url(#clip0_4758_35885)">
<g clip-path="url(#clip1_4758_35885)">
<path d="M166.953 211.351C166.306 211.351 165.739 210.919 165.577 210.272L163.85 202.963C163.661 202.207 164.146 201.452 164.902 201.263C165.658 201.075 166.413 201.56 166.602 202.315L168.33 209.625C168.519 210.38 168.033 211.135 167.277 211.324C167.169 211.324 167.061 211.351 166.953 211.351Z" fill="black"/>
<path d="M203.253 42.1874C203.253 42.1874 192.134 10.1994 210.432 4.13088C210.432 4.13088 230.89 -3.47502 234.587 31.1022L203.253 42.1874Z" fill="#EF7B69"/>
<path d="M202.39 43.9677L201.931 42.6461C201.661 41.8369 195.076 22.5794 200.905 10.7391C202.821 6.82821 205.871 4.15806 209.973 2.80949C210.216 2.72858 216.991 0.274193 223.738 4.45474C230.404 8.58135 234.533 17.5088 235.964 30.9675L236.072 32.0733L202.363 43.9946L202.39 43.9677ZM215.101 4.80537C212.645 4.80537 210.945 5.42571 210.918 5.42571C207.464 6.58547 205.035 8.7162 203.415 11.9528C198.935 21.0691 202.794 35.8493 204.144 40.3535L233.076 30.1044C231.646 18.1562 228.002 10.3345 222.28 6.80124C219.716 5.20994 217.152 4.7784 215.101 4.7784V4.80537Z" fill="black"/>
<path d="M296.392 42.1874C296.392 42.1874 307.484 10.2264 289.213 4.13088C289.213 4.13088 268.755 -3.47502 265.058 31.1022L296.392 42.1874Z" fill="#EF7B69"/>
<path d="M297.255 43.9673L263.546 32.046L263.654 30.9402C265.085 17.4815 269.214 8.554 275.88 4.4274C282.654 0.246849 289.429 2.70124 289.698 2.78215C293.747 4.13071 296.797 6.80087 298.74 10.7117C304.569 22.5521 298.011 41.8096 297.714 42.6187L297.255 43.9403V43.9673ZM266.569 30.131L295.474 40.3531C296.824 35.8489 300.683 21.0417 296.203 11.9524C294.61 8.71583 292.154 6.5851 288.754 5.45231C288.646 5.42534 282.87 3.37552 277.311 6.85481C271.616 10.415 267.999 18.2367 266.569 30.158V30.131Z" fill="black"/>
<path d="M260.173 297.254C335.795 293.02 340.896 211.486 340.896 211.486C357.144 15.8898 251.266 20.421 251.266 20.421H245.734C245.734 20.421 139.883 15.8898 156.131 211.486C156.131 211.486 161.232 293.02 236.854 297.254H260.173Z" fill="#EF7B69"/>
<path d="M260.2 298.657H236.854C197.046 296.418 176.831 272.818 166.872 253.426C156.131 232.496 154.781 212.43 154.727 211.594C148.169 132.568 160.368 76.3056 191.054 44.3986C216.37 18.0746 244.627 18.9646 245.815 19.0186H251.266C252.4 18.9646 280.657 18.0746 305.973 44.3986C336.632 76.3056 348.858 132.568 342.3 211.594C342.246 212.403 340.896 232.469 330.155 253.399C320.196 272.791 299.981 296.418 260.254 298.63H260.227L260.2 298.657ZM245.302 21.7966C241.631 21.7966 215.776 22.6597 192.997 46.3944C162.986 77.7351 151.03 133.215 157.534 211.378C157.534 211.621 158.938 231.822 169.436 252.239C183.443 279.453 206.141 294.153 236.935 295.879H260.119C290.94 294.126 313.638 279.426 327.618 252.158C338.089 231.741 339.466 211.621 339.466 211.432C345.97 133.188 334.014 77.6811 303.922 46.3675C279.47 20.9335 251.59 21.8236 251.32 21.8236H245.734C245.734 21.8236 245.572 21.8236 245.302 21.8236V21.7966Z" fill="black"/>
<path d="M215.668 64.1689C215.452 65.3287 215.344 66.5154 215.344 67.7561C215.344 76.7376 221.174 83.6962 228.542 83.6962C235.91 83.6962 242.063 76.7376 242.063 67.7561C242.063 66.5154 241.928 65.3287 241.739 64.1689H215.695H215.668Z" fill="white"/>
<path d="M228.542 85.0715C220.364 85.0715 213.941 77.4656 213.941 67.7289C213.941 66.4613 214.049 65.1936 214.292 63.899L214.508 62.7393H242.9L243.116 63.899C243.359 65.1936 243.467 66.4613 243.467 67.7289C243.467 77.2768 236.773 85.0715 228.542 85.0715ZM216.883 65.5712C216.802 66.2995 216.748 67.0277 216.748 67.7559C216.748 75.9012 221.929 82.2934 228.542 82.2934C235.154 82.2934 240.66 75.7664 240.66 67.7559C240.66 67.0547 240.606 66.3264 240.525 65.5712H216.883Z" fill="black"/>
<path d="M251.86 64.1689C251.644 65.3287 251.536 66.5154 251.536 67.7561C251.536 76.7376 257.366 83.6962 264.734 83.6962C272.102 83.6962 278.255 76.7376 278.255 67.7561C278.255 66.5154 278.12 65.3287 277.931 64.1689H251.887H251.86Z" fill="white"/>
<path d="M264.734 85.0715C256.556 85.0715 250.133 77.4656 250.133 67.7289C250.133 66.4613 250.241 65.1936 250.484 63.899L250.7 62.7393H279.092L279.308 63.899C279.551 65.1936 279.659 66.4883 279.659 67.7289C279.659 77.2768 272.965 85.0715 264.734 85.0715ZM253.075 65.5712C252.994 66.2995 252.94 67.0277 252.94 67.7559C252.94 75.9012 258.122 82.2934 264.734 82.2934C271.346 82.2934 276.852 75.7664 276.852 67.7559C276.852 67.0547 276.798 66.3264 276.717 65.5712H253.075Z" fill="black"/>
<path d="M246.462 142.655C231.025 142.655 220.904 133.89 220.769 133.755C219.905 132.972 219.824 131.651 220.607 130.788C221.39 129.925 222.712 129.844 223.576 130.626C224.439 131.381 244.087 148.211 270.617 130.437C271.589 129.79 272.884 130.06 273.532 131.004C274.18 131.975 273.91 133.269 272.965 133.916C263.195 140.444 254.154 142.628 246.462 142.628V142.655Z" fill="black"/>
<path d="M246.462 123.397H243.656V139.553H246.462V123.397Z" fill="black"/>
<path d="M245.842 128.765C256.514 128.765 265.166 119.225 265.166 107.458C265.166 95.69 256.514 86.1504 245.842 86.1504C235.169 86.1504 226.518 95.69 226.518 107.458C226.518 119.225 235.169 128.765 245.842 128.765Z" fill="#503B37"/>
<path d="M245.842 130.194C234.398 130.194 225.114 119.999 225.114 107.484C225.114 94.9696 234.425 84.7744 245.842 84.7744C257.258 84.7744 266.569 94.9696 266.569 107.484C266.569 119.999 257.258 130.194 245.842 130.194ZM245.842 87.5525C235.964 87.5525 227.921 96.4799 227.921 107.457C227.921 118.435 235.964 127.362 245.842 127.362C255.72 127.362 263.762 118.435 263.762 107.457C263.762 96.4799 255.72 87.5525 245.842 87.5525Z" fill="black"/>
<path d="M229.136 78.1125C232.042 78.1125 234.398 75.7578 234.398 72.8532C234.398 69.9485 232.042 67.5938 229.136 67.5938C226.229 67.5938 223.873 69.9485 223.873 72.8532C223.873 75.7578 226.229 78.1125 229.136 78.1125Z" fill="black"/>
<path d="M264.005 78.1125C266.912 78.1125 269.268 75.7578 269.268 72.8532C269.268 69.9485 266.912 67.5938 264.005 67.5938C261.098 67.5938 258.742 69.9485 258.742 72.8532C258.742 75.7578 261.098 78.1125 264.005 78.1125Z" fill="black"/>
</g>
<path d="M305.669 167.865L320.563 187.285C320.563 187.285 343.339 177.728 354.253 163.904C365.166 150.08 340.771 140.677 340.771 140.677C340.771 140.677 338.383 153.274 305.669 167.839V167.865Z" fill="#EF7B69"/>
<path fill-rule="evenodd" clip-rule="evenodd" d="M305.31 168.478C304.719 168.478 304.18 168.07 304.026 167.482C303.977 167.294 303.974 167.105 304.009 166.925C303.974 167.105 303.977 167.294 304.026 167.482C304.18 168.069 304.719 168.478 305.31 168.478L305.335 168.504C305.335 168.504 305.541 168.504 305.644 168.453C306.491 168.248 326.417 163.163 339.385 144.024L339.385 144.025C326.417 163.163 306.491 168.248 305.643 168.453C305.541 168.504 305.335 168.504 305.335 168.504L305.31 168.478ZM343.672 136.683C343.298 137.257 343.07 137.712 343.034 137.784L343.034 137.784C343.07 137.712 343.298 137.257 343.672 136.682L343.672 136.683ZM349.911 136.986L352.763 137.125C352.768 137.101 352.772 137.076 352.776 137.051C352.804 136.876 352.822 136.682 352.827 136.476C352.827 136.457 352.828 136.439 352.828 136.42C352.175 136.394 351.654 136.48 351.5 136.505L351.5 136.505C351.473 136.509 351.458 136.512 351.454 136.512C350.945 136.639 350.449 136.458 350.138 136.087L350.138 136.087C350.011 135.935 349.914 135.75 349.862 135.541C349.833 135.428 349.82 135.316 349.821 135.207C349.518 134.735 348.95 134.265 347.91 133.982C346.097 133.492 344.514 135.39 343.672 136.683L343.904 136.694C343.498 137.304 343.25 137.8 343.213 137.874L343.21 137.879L343.204 137.891L339.551 144.137C326.623 163.217 306.806 168.374 305.709 168.643C305.627 168.678 305.531 168.691 305.471 168.697C305.434 168.7 305.401 168.702 305.377 168.703C305.365 168.703 305.355 168.704 305.348 168.704L305.339 168.704L305.337 168.704L305.253 168.704L305.225 168.676C304.577 168.639 304.002 168.18 303.832 167.533C303.623 166.73 304.132 165.908 304.953 165.703L304.965 165.701L304.977 165.699C304.972 165.7 304.973 165.699 304.982 165.697L304.982 165.697C304.99 165.696 305.005 165.692 305.029 165.686C305.07 165.676 305.131 165.66 305.208 165.639C305.364 165.597 305.589 165.534 305.876 165.447C306.452 165.273 307.277 165.005 308.302 164.627C310.351 163.871 313.194 162.676 316.416 160.912C322.86 157.384 330.816 151.585 336.982 142.487L340.519 136.442L340.525 136.429C340.637 136.204 341.411 134.64 342.746 133.259C344.129 131.828 346.151 130.555 348.681 131.234C350.571 131.741 351.703 132.722 352.335 133.799C353.458 133.776 355.034 133.95 356.435 134.851C357.925 135.822 358.901 137.355 359.286 139.425C359.297 139.484 359.308 139.543 359.318 139.602C359.529 139.584 359.755 139.572 359.991 139.57C361.106 139.564 362.469 139.792 363.573 140.702L363.574 140.703C364.9 141.807 365.446 143.544 365.237 145.832L365.237 145.832C364.962 148.802 362.611 155.023 356.168 162.657C349.719 170.298 339.163 179.365 322.452 188.025L322.449 188.027C322.262 188.12 322.071 188.177 321.878 188.195C321.846 188.215 321.809 188.227 321.77 188.227C321.212 188.227 320.677 187.934 320.41 187.401C320.028 186.641 320.32 185.728 321.061 185.345C337.116 177.012 347.289 168.301 353.507 161.05C359.732 153.791 361.981 148.01 362.219 145.539L362.219 145.539C362.347 144.22 362.131 143.422 361.65 143.03L361.65 143.03C361.269 142.718 360.667 142.609 360.059 142.609C359.809 142.609 359.566 142.627 359.349 142.654C358.64 147.635 354.575 151.676 354.309 151.941L354.304 151.946C354.047 152.201 353.714 152.329 353.38 152.329L353.405 152.278C353.046 152.278 352.712 152.15 352.455 151.895C351.916 151.384 351.942 150.54 352.455 150.029L352.456 150.029C352.529 149.956 356.398 146.111 356.779 141.825C356.771 141.802 356.764 141.78 356.757 141.757C356.659 141.427 356.682 141.088 356.8 140.787C356.784 140.487 356.749 140.186 356.692 139.885C356.435 138.556 355.871 137.611 355.023 137.048C354.391 136.636 353.662 136.477 353.028 136.431C353.024 136.692 353.001 136.934 352.962 137.149C352.905 138.056 352.29 143.445 347.651 148.856L347.65 148.857C347.089 149.504 346.144 149.56 345.499 149.035L345.494 149.031C344.849 148.477 344.756 147.533 345.32 146.883C347.456 144.403 348.606 141.911 349.222 140.033C349.53 139.095 349.705 138.31 349.802 137.759C349.869 137.381 349.898 137.116 349.911 136.986ZM359.376 142.449C360.135 142.362 361.171 142.379 361.777 142.875C362.271 143.277 362.49 144.012 362.451 145.079C362.49 144.012 362.271 143.277 361.777 142.874C361.172 142.378 360.135 142.361 359.376 142.448C359.376 142.449 359.376 142.449 359.376 142.449ZM320.444 186.624C320.431 186.853 320.477 187.089 320.588 187.311C320.783 187.699 321.143 187.942 321.544 188.008C321.602 188.018 321.66 188.024 321.719 188.026L321.744 188.026L321.77 188.027L321.769 188.026C321.281 188.026 320.819 187.77 320.588 187.31C320.477 187.089 320.431 186.853 320.444 186.624ZM321.745 188.001L321.77 188.001L321.796 188C321.852 187.998 321.908 187.991 321.964 187.981C322.096 187.958 322.228 187.913 322.36 187.848C355.742 170.549 364.498 151.64 365.038 145.814C365.051 145.673 365.061 145.534 365.068 145.398C365.061 145.534 365.051 145.672 365.038 145.813C364.498 151.639 355.742 170.548 322.36 187.847C322.155 187.949 321.949 188 321.744 188L321.745 188.001ZM349.911 136.986L343.904 136.694C344.116 136.376 344.37 136.027 344.659 135.691C345.535 134.673 346.66 133.851 347.858 134.175C349.079 134.507 349.59 135.096 349.803 135.597C350.022 136.11 349.943 136.568 349.925 136.642L349.919 136.666V136.895C349.919 136.895 349.919 136.895 349.918 136.896L349.918 136.899V136.899V136.9L349.918 136.9C349.917 136.91 349.915 136.939 349.911 136.986ZM343.672 136.682L340.695 136.537L340.704 136.519C340.928 136.067 343.861 130.147 348.629 131.427C350.415 131.906 351.491 132.814 352.106 133.806C351.418 133.837 350.941 133.935 350.849 133.954L350.838 133.957C350.232 134.107 349.827 134.621 349.821 135.207C349.518 134.735 348.95 134.265 347.91 133.982C346.097 133.492 344.514 135.39 343.672 136.682ZM350.119 136.691L350.119 136.691V136.895L350.119 136.895V136.691ZM345.625 148.88C345.442 148.723 345.31 148.531 345.232 148.324C345.311 148.531 345.442 148.722 345.625 148.879C346.19 149.339 347.011 149.288 347.499 148.726C347.796 148.38 348.077 148.033 348.341 147.688C348.077 148.033 347.796 148.38 347.499 148.726C347.011 149.288 346.19 149.339 345.625 148.88Z" fill="black"/>
<path d="M381.908 121.87C381.908 121.87 382.165 99.1283 386.916 85.3299C391.666 71.5314 386.043 63.789 376.567 63.329C367.092 62.8691 345.368 69.4361 359.44 119.877C359.44 119.877 376.079 125.166 381.908 121.87Z" fill="#EF7B69"/>
<path d="M359.001 121.25L359.129 121.288V121.265C360.794 121.789 369.358 124.372 376.182 124.372C378.678 124.372 380.959 124.04 382.6 123.107L382.6 123.106L383.268 122.723L383.318 122.694V122.636V121.87C383.318 121.758 383.401 116.088 384.062 108.767C384.723 101.445 385.962 92.4793 388.268 85.771C391.564 76.266 389.766 70.585 387.666 67.5141C385.359 64.1104 381.424 62.1313 376.649 61.9002V61.9002L376.648 61.9001C373.477 61.7719 365.451 62.2074 359.567 69.5265L359.567 69.5267C355.71 74.3401 353.659 81.0202 353.408 89.4981C353.157 97.9758 354.707 108.258 358.059 120.286C358.059 120.286 358.059 120.287 358.059 120.287L358.239 120.975L358.253 121.03L358.307 121.046L359.001 121.25ZM385.589 84.8881L385.589 84.8882C381.291 97.3613 380.608 116.585 380.5 120.983C379.369 121.406 377.87 121.575 376.176 121.565C374.453 121.554 372.535 121.359 370.612 121.062C366.795 120.473 362.964 119.488 360.6 118.775C352.843 90.4097 356.983 77.3025 361.803 71.2873C366.858 65.0124 373.777 64.6303 376.511 64.7574L376.511 64.7574C380.467 64.9352 383.491 66.4573 385.318 69.1344C387.783 72.7755 387.895 78.2055 385.589 84.8881Z" fill="black" stroke="black" stroke-width="0.2"/>
<path d="M389.817 143.283C389.817 143.283 394.003 109.886 362.675 113.029C331.322 116.172 335.482 131.171 335.482 131.171C335.482 131.171 337.1 140.932 341.388 140.549C341.388 140.549 334.84 143.616 335.816 151.486C336.791 159.33 345.317 162.269 345.317 162.269C345.317 162.269 339.539 163.879 341.105 171.315C342.672 178.725 352.738 184.755 365.192 183.043C377.646 181.331 387.686 171.008 389.817 143.283Z" fill="#EF7B69"/>
<path d="M336.76 122.401L336.76 122.401C333.79 126.719 334.583 130.682 334.742 131.344C334.833 131.875 335.168 133.654 335.856 135.599C336.53 137.505 337.549 139.589 339.025 140.807C336.724 142.856 334.436 146.438 335.074 151.548C335.789 157.336 340.046 160.667 342.907 162.285C341.001 163.912 339.401 166.84 340.391 171.488C341.298 175.804 344.281 179.089 348.24 181.293C352.199 183.497 357.14 184.625 361.982 184.625C363.348 184.625 364.713 184.522 366.052 184.343L366.053 184.343C373.672 183.291 379.654 179.305 383.97 172.444C388.283 165.586 390.93 155.859 391.894 143.318C391.96 142.792 392.408 138.699 391.724 133.594C391.038 128.483 389.217 122.345 384.727 117.762C379.744 112.675 372.469 110.576 363.179 111.498L363.179 111.498C349.718 112.853 340.819 116.51 336.76 122.401ZM339.159 123.946L339.159 123.945C341.6 120.428 347.805 115.886 363.455 114.329C364.788 114.201 366.069 114.125 367.297 114.125C373.852 114.125 379.01 115.984 382.659 119.716L382.659 119.717C386.719 123.846 388.313 129.62 388.89 134.393C389.418 138.766 389.091 142.274 389.033 142.903C389.027 142.96 389.024 142.994 389.024 143.002V143.049C388.126 154.896 385.701 164.044 381.791 170.463C377.883 176.879 372.489 180.572 365.64 181.513C359.548 182.353 354.26 181.295 350.329 179.227C346.396 177.157 343.827 174.08 343.155 170.884L343.155 170.884C342.506 167.845 343.271 166.019 344.204 164.947C345.141 163.871 346.259 163.539 346.345 163.514C346.95 163.35 347.394 162.802 347.394 162.192C347.394 161.589 347.01 161.012 346.427 160.819L346.425 160.818C346.424 160.818 346.422 160.817 346.42 160.817L346.4 160.81C346.384 160.804 346.361 160.795 346.331 160.783C346.271 160.76 346.184 160.726 346.075 160.681C345.858 160.59 345.549 160.454 345.178 160.27C344.436 159.902 343.445 159.341 342.431 158.567C340.401 157.017 338.286 154.617 337.866 151.192C337.057 144.471 342.54 141.76 342.638 141.712L342.638 141.712C343.273 141.409 343.576 140.722 343.411 140.064C343.244 139.401 342.607 138.963 341.919 139.018C341.387 139.059 340.873 138.759 340.386 138.21C339.9 137.663 339.457 136.885 339.069 136.011C338.293 134.263 337.749 132.157 337.532 130.822L337.527 130.79L337.511 130.774C337.51 130.773 337.51 130.772 337.51 130.77C337.508 130.756 337.508 130.738 337.508 130.711V130.701L337.506 130.691C337.505 130.688 337.504 130.682 337.502 130.674C337.44 130.396 336.761 127.364 339.159 123.946Z" fill="black" stroke="black" stroke-width="0.2"/>
<path d="M340.7 140.699C340.822 141.28 341.308 141.711 341.858 141.805L341.813 141.849L342.055 141.849L342.055 141.824C342.055 141.824 342.055 141.824 342.055 141.824L342.055 141.849H342.055H342.056H342.056L342.056 141.849L342.058 141.849L342.064 141.849L342.087 141.849C342.107 141.849 342.133 141.848 342.164 141.846C342.222 141.843 342.299 141.836 342.36 141.821C354.962 139.114 360.988 139.064 361.057 139.064C361.83 139.064 362.493 138.433 362.493 137.635C362.493 136.867 361.859 136.207 361.083 136.207C360.819 136.207 354.752 136.208 341.778 139.02C341.008 139.184 340.507 139.925 340.7 140.699Z" fill="black" stroke="black" stroke-width="0.2"/>
<path d="M346.138 163.57V163.571L346.15 163.569L361.941 161.653C361.941 161.653 361.942 161.653 361.942 161.653C362.718 161.57 363.268 160.854 363.186 160.086C363.102 159.313 362.383 158.765 361.612 158.848L361.612 158.848L361.61 158.848L345.82 160.764C345.819 160.764 345.819 160.764 345.819 160.764C345.043 160.847 344.493 161.563 344.575 162.331L344.575 162.332C344.658 163.048 345.268 163.57 345.984 163.57H345.984H345.984H345.984H345.984H345.984H345.984H345.984H345.984H345.984H345.984H345.984H345.984H345.985H345.985H345.985H345.985H345.985H345.985H345.985H345.985H345.985H345.985H345.985H345.985H345.985H345.985H345.985H345.985H345.985H345.985H345.985H345.986H345.986H345.986H345.986H345.986H345.986H345.986H345.986H345.986H345.986H345.986H345.987H345.987H345.987H345.987H345.987H345.987H345.987H345.987H345.987H345.987H345.988H345.988H345.988H345.988H345.988H345.988H345.988H345.988H345.989H345.989H345.989H345.989H345.989H345.989H345.989H345.99H345.99H345.99H345.99H345.99H345.99H345.991H345.991H345.991H345.991H345.991H345.991H345.992H345.992H345.992H345.992H345.992H345.992H345.993H345.993H345.993H345.993H345.993H345.993H345.994H345.994H345.994H345.994H345.994H345.995H345.995H345.995H345.995H345.995H345.996H345.996H345.996H345.996H345.997H345.997H345.997H345.997H345.997H345.998H345.998H345.998H345.998H345.998H345.999H345.999H345.999H345.999H346H346H346H346H346.001H346.001H346.001H346.001H346.002H346.002H346.002H346.002H346.003H346.003H346.003H346.003H346.004H346.004H346.004H346.004H346.005H346.005H346.005H346.005H346.006H346.006H346.006H346.007H346.007H346.007H346.007H346.008H346.008H346.008H346.008H346.009H346.009H346.009H346.01H346.01H346.01H346.01H346.011H346.011H346.011H346.012H346.012H346.012H346.013H346.013H346.013H346.013H346.014H346.014H346.014H346.015H346.015H346.015H346.016H346.016H346.016H346.017H346.017H346.017H346.018H346.018H346.018H346.018H346.019H346.019H346.019H346.02H346.02H346.02H346.021H346.021H346.021H346.022H346.022H346.022H346.023H346.023H346.023H346.024H346.024H346.024H346.025H346.025H346.025H346.026H346.026H346.026H346.027H346.027H346.028H346.028H346.028H346.029H346.029H346.029H346.03H346.03H346.03H346.031H346.031H346.031H346.032H346.032H346.032H346.033H346.033H346.034H346.034H346.034H346.035H346.035H346.035H346.036H346.036H346.036H346.037H346.037H346.038H346.038H346.038H346.039H346.039H346.039H346.04H346.04H346.041H346.041H346.041H346.042H346.042H346.042H346.043H346.043H346.044H346.044H346.044H346.045H346.045H346.045H346.046H346.046H346.047H346.047H346.047H346.048H346.048H346.048H346.049H346.049H346.05H346.05H346.05H346.051H346.051H346.052H346.052H346.052H346.053H346.053H346.054H346.054H346.054H346.055H346.055H346.055H346.056H346.056H346.057H346.057H346.057H346.058H346.058H346.059H346.059H346.059H346.06H346.06H346.061H346.061H346.061H346.062H346.062H346.063H346.063H346.063H346.064H346.064H346.065H346.065H346.065H346.066H346.066H346.067H346.067H346.067H346.068H346.068H346.069H346.069H346.069H346.07H346.07H346.071H346.071H346.071H346.072H346.072H346.073H346.073H346.073H346.074H346.074H346.075H346.075H346.075H346.076H346.076H346.077H346.077H346.077H346.078H346.078H346.079H346.079H346.079H346.08H346.08H346.081H346.081H346.081H346.082H346.082H346.083H346.083H346.083H346.084H346.084H346.085H346.085H346.085H346.086H346.086H346.087H346.087H346.087H346.088H346.088H346.089H346.089H346.089H346.09H346.09H346.091H346.091H346.091H346.092H346.092H346.093H346.093H346.093H346.094H346.094H346.095H346.095H346.095H346.096H346.096H346.097H346.097H346.097H346.098H346.098H346.098H346.099H346.099H346.1H346.1H346.1H346.101H346.101H346.102H346.102H346.102H346.103H346.103H346.103H346.104H346.104H346.105H346.105H346.105H346.106H346.106H346.107H346.107H346.107H346.108H346.108H346.108H346.109H346.109H346.11H346.11H346.11H346.111H346.111H346.111H346.112H346.112H346.113H346.113H346.113H346.114H346.114H346.114H346.115H346.115H346.115H346.116H346.116H346.117H346.117H346.117H346.118H346.118H346.118H346.119H346.119H346.119H346.12H346.12H346.121H346.121H346.121H346.122H346.122H346.122H346.123H346.123H346.123H346.124H346.124H346.124H346.125H346.125H346.125H346.126H346.126H346.126H346.127H346.127H346.127H346.128H346.128H346.128H346.129H346.129H346.129H346.13H346.13H346.13H346.131H346.131H346.131H346.132H346.132H346.132H346.133H346.133H346.133H346.134H346.134H346.134H346.135H346.135H346.135H346.136H346.136H346.136H346.136H346.137H346.137H346.137H346.138H346.138H346.138Z" fill="black" stroke="black" stroke-width="0.2"/>
</g>
<defs>
<clipPath id="clip0_4758_35885">
<rect width="424" height="250" fill="white"/>
</clipPath>
<clipPath id="clip1_4758_35885">
<rect width="191" height="340" fill="white" transform="translate(153 2)"/>
</clipPath>
</defs>
</svg>
