<svg width="344" height="270" viewBox="0 0 344 270" fill="none" xmlns="http://www.w3.org/2000/svg">
<g clip-path="url(#clip0_4758_34845)">
<g clip-path="url(#clip1_4758_34845)">
<path d="M194.566 211.248L91.7051 207.571L93.0231 229.66L198.575 243.051L194.566 211.248Z" fill="#EF7B69"/>
<path d="M198.575 244.478C198.575 244.478 198.466 244.478 198.383 244.478L92.8309 231.087C92.1444 231.005 91.6227 230.456 91.5952 229.77L90.2498 207.681C90.2498 207.269 90.3596 206.885 90.6616 206.611C90.9637 206.337 91.2932 206.172 91.7325 206.172L194.594 209.849C195.28 209.849 195.857 210.398 195.967 211.084L199.976 242.886C200.031 243.325 199.893 243.764 199.564 244.066C199.289 244.341 198.932 244.478 198.548 244.478H198.575ZM94.3961 228.398L196.955 241.405L193.303 212.62L93.2153 209.026L94.3961 228.371V228.398Z" fill="black"/>
<path d="M155.245 247.743C154.614 247.743 154.009 247.304 153.872 246.645L152.115 239.209C151.923 238.441 152.417 237.672 153.158 237.508C153.927 237.343 154.696 237.809 154.861 238.578L156.618 246.014C156.81 246.782 156.316 247.551 155.575 247.715C155.465 247.715 155.355 247.743 155.245 247.743Z" fill="black"/>
<path d="M192.068 91.7758C192.068 91.7758 180.809 59.3421 199.344 53.1407C199.344 53.1407 220.103 45.4027 223.865 80.4981L192.068 91.7484V91.7758Z" fill="#EF7B69"/>
<path d="M191.189 93.5866L190.722 92.242C190.448 91.4189 183.775 71.8818 189.679 59.8631C191.628 55.9118 194.731 53.1953 198.905 51.7959C199.152 51.7135 206.017 49.2165 212.882 53.4697C219.664 57.668 223.81 66.6956 225.293 80.3606L225.403 81.4857L191.189 93.5866ZM204.095 53.8538C201.623 53.8538 199.893 54.4575 199.866 54.4849C196.351 55.6649 193.88 57.8052 192.26 61.0979C187.702 70.3451 191.628 85.3547 193.001 89.9371L222.355 79.5374C220.9 67.464 217.247 59.5064 211.454 55.9118C208.845 54.2929 206.209 53.8538 204.122 53.8538H204.095Z" fill="black"/>
<path d="M286.609 91.7758C286.609 91.7758 297.867 59.3421 279.332 53.1407C279.332 53.1407 258.573 45.4027 254.811 80.4981L286.609 91.7484V91.7758Z" fill="#EF7B69"/>
<path d="M287.488 93.5869L253.274 81.486L253.384 80.361C254.839 66.696 259.013 57.6408 265.795 53.47C272.66 49.2168 279.524 51.7139 279.827 51.8236C283.945 53.1956 287.048 55.9121 288.998 59.8635C294.929 71.8821 288.256 91.4192 287.954 92.2424L287.488 93.5869ZM256.349 79.5652L285.703 89.9649C287.076 85.3824 291.002 70.3729 286.444 61.1257C284.824 57.8329 282.353 55.6652 278.893 54.5127C278.783 54.4853 272.934 52.3999 267.278 55.9396C261.484 59.5342 257.832 67.4917 256.377 79.5652H256.349Z" fill="black"/>
<path d="M249.814 350.587C326.562 346.279 331.724 263.549 331.724 263.549C348.227 65.1042 240.807 69.6867 240.807 69.6867H235.206C235.206 69.6867 127.786 65.1042 144.261 263.576C144.261 263.576 149.424 346.307 226.172 350.615H249.841L249.814 350.587Z" fill="#EF7B69"/>
<path d="M249.869 352.015H226.172C185.78 349.737 165.268 325.81 155.163 306.108C144.262 284.869 142.889 264.509 142.834 263.659C136.161 183.48 148.573 126.405 179.711 94.026C205.385 67.2997 234.08 68.2052 235.261 68.2601H240.807C241.961 68.2052 270.628 67.2997 296.302 94.026C327.413 126.405 339.824 183.48 333.152 263.686C333.097 264.509 331.724 284.869 320.823 306.108C310.718 325.81 290.206 349.737 249.896 352.015H249.869ZM234.739 71.0864C231.032 71.0864 204.781 71.9644 181.688 96.0565C151.209 127.832 139.072 184.138 145.662 263.439C145.662 263.659 147.09 284.183 157.744 304.9C171.94 332.532 195.006 347.432 226.254 349.188H249.786C281.007 347.432 304.045 332.532 318.242 304.9C328.896 284.183 330.296 263.686 330.296 263.466C336.886 184.138 324.777 127.832 294.27 96.0565C269.502 70.2357 241.082 71.0864 240.835 71.0864H235.178C235.178 71.0864 235.013 71.0864 234.739 71.0864Z" fill="black"/>
<path d="M210.163 198.763C209.477 198.763 208.79 198.434 208.378 197.802C207.719 196.815 207.994 195.498 208.955 194.839C238.72 174.918 261.704 194.839 261.923 195.031C262.802 195.827 262.884 197.171 262.088 198.049C261.319 198.928 259.946 199.01 259.068 198.214C258.244 197.473 238.281 180.351 211.316 198.379C210.959 198.626 210.548 198.735 210.136 198.735L210.163 198.763Z" fill="black"/>
<path d="M236.469 172.75H233.613V189.132H236.469V172.75Z" fill="black"/>
<path d="M235.288 179.638C246.116 179.638 254.894 169.957 254.894 158.015C254.894 146.073 246.116 136.393 235.288 136.393C224.46 136.393 215.682 146.073 215.682 158.015C215.682 169.957 224.46 179.638 235.288 179.638Z" fill="#503B37"/>
<path d="M235.288 181.065C223.673 181.065 214.255 170.72 214.255 158.015C214.255 145.311 223.7 134.966 235.288 134.966C246.876 134.966 256.322 145.311 256.322 158.015C256.322 170.72 246.876 181.065 235.288 181.065ZM235.288 137.792C225.266 137.792 217.083 146.847 217.083 157.988C217.083 169.128 225.238 178.183 235.288 178.183C245.338 178.183 253.493 169.128 253.493 157.988C253.493 146.847 245.338 137.792 235.288 137.792Z" fill="black"/>
<path d="M324.118 269.75C323.871 269.75 323.651 269.75 323.431 269.695C321.976 269.613 320.685 268.981 319.779 267.884C319.258 267.253 318.928 266.539 318.708 265.826C317.033 267.17 315.358 267.308 315.249 267.308C315.194 267.308 315.111 267.308 315.029 267.308C313.134 267.143 311.679 266.429 310.69 265.195C310.443 264.893 310.251 264.591 310.114 264.262C307.972 265.826 305.116 265.551 303.524 264.975C296.384 262.149 300.531 250.597 300.97 249.472C305.089 234.38 298.306 193.851 298.251 193.44C298.114 192.671 298.636 191.931 299.432 191.793C300.201 191.656 300.942 192.178 301.08 192.973C301.354 194.675 308.054 234.654 303.716 250.295C303.716 250.35 303.688 250.377 303.661 250.432C303.633 250.542 299.899 260.503 304.512 262.314C304.869 262.423 308.411 263.548 309.619 260.256C309.867 259.57 310.608 259.185 311.322 259.377C312.036 259.57 312.475 260.256 312.365 260.969C312.365 260.969 312.146 262.451 312.942 263.439C313.381 263.987 314.123 264.344 315.111 264.454C315.523 264.399 317.39 263.96 318.461 261.435C318.736 260.777 319.45 260.42 320.164 260.612C320.85 260.804 321.289 261.463 321.18 262.176C321.097 262.89 321.042 264.975 321.949 266.073C322.36 266.567 322.91 266.814 323.678 266.869C324.145 266.923 327.523 267.143 328.429 261.765C328.566 260.996 329.28 260.475 330.076 260.585C330.845 260.722 331.367 261.435 331.257 262.231C330.269 268.241 326.452 269.75 324.09 269.75H324.118Z" fill="black"/>
<path d="M310.992 262.176C310.992 262.176 310.718 262.176 310.608 262.121C309.839 261.902 309.427 261.106 309.619 260.365L311.569 253.587C311.789 252.819 312.585 252.38 313.326 252.599C314.095 252.819 314.507 253.615 314.315 254.356L312.365 261.133C312.173 261.764 311.624 262.176 310.992 262.176Z" fill="black"/>
<path d="M319.834 263.412C319.834 263.412 319.615 263.412 319.505 263.384C318.736 263.192 318.269 262.424 318.461 261.683L320.219 254.247C320.411 253.478 321.18 253.012 321.921 253.177C322.69 253.369 323.157 254.137 322.965 254.878L321.207 262.314C321.042 262.973 320.466 263.412 319.834 263.412Z" fill="black"/>
<path d="M266.179 114.084C266.399 115.264 266.509 116.471 266.509 117.706C266.509 126.816 260.605 133.868 253.109 133.868C245.613 133.868 239.407 126.816 239.407 117.706C239.407 116.444 239.544 115.236 239.736 114.084H266.152H266.179Z" fill="white"/>
<path d="M253.109 135.295C244.761 135.295 237.979 127.392 237.979 117.706C237.979 116.416 238.089 115.127 238.336 113.81L238.556 112.657H267.36L267.58 113.81C267.827 115.127 267.937 116.416 267.937 117.706C267.937 127.584 261.429 135.295 253.109 135.295ZM240.972 115.511C240.89 116.252 240.835 116.993 240.835 117.706C240.835 125.828 246.354 132.441 253.136 132.441C259.919 132.441 265.108 125.966 265.108 117.706C265.108 116.993 265.054 116.252 264.971 115.511H240.999H240.972Z" fill="black"/>
<path d="M249.841 114.358C249.841 114.358 252.34 116.389 251.873 122.563C251.406 128.737 246.189 130.658 246.189 130.658C246.189 130.658 238.446 128.353 239.901 114.605L249.841 114.386V114.358Z" fill="black"/>
<path d="M229.439 114.084C229.659 115.264 229.769 116.471 229.769 117.706C229.769 126.816 223.865 133.868 216.369 133.868C208.872 133.868 202.667 126.816 202.667 117.706C202.667 116.444 202.804 115.236 202.996 114.084H229.412H229.439Z" fill="white"/>
<path d="M216.396 135.295C208.049 135.295 201.266 127.392 201.266 117.706C201.266 116.444 201.376 115.127 201.623 113.81L201.843 112.657H230.647L230.867 113.81C231.114 115.127 231.224 116.416 231.224 117.706C231.224 127.584 224.716 135.295 216.396 135.295ZM204.232 115.511C204.15 116.252 204.095 116.993 204.095 117.706C204.095 125.828 209.614 132.441 216.396 132.441C223.179 132.441 228.368 125.966 228.368 117.706C228.368 116.993 228.313 116.252 228.231 115.511H204.259H204.232Z" fill="black"/>
<path d="M213.129 114.358C213.129 114.358 215.627 116.389 215.161 122.563C214.694 128.737 209.477 130.658 209.477 130.658C209.477 130.658 201.733 128.353 203.188 114.605L213.129 114.386V114.358Z" fill="black"/>
<path d="M273.044 104.096C273.044 104.096 259.369 128.709 234.821 109.007C234.821 109.007 209.724 129.67 196.653 105.852L208.955 96.001L266.756 97.8394L273.017 104.123L273.044 104.096Z" fill="#EF7B69"/>
<path d="M196.955 109.391C196.955 109.391 208.131 118.364 219.279 117.349C219.279 117.349 230.95 116.8 234.656 108.102C234.656 108.102 240.011 119.27 255.361 117.239C255.361 117.239 264.34 116.032 269.474 109.089" fill="#EF7B69"/>
<path d="M251.763 119.242C245.311 119.242 240.89 116.937 238.144 114.825C236.688 113.7 235.59 112.52 234.766 111.504C229.769 118.556 219.801 119.105 219.334 119.133C207.692 120.23 196.296 111.175 195.802 110.791C195.033 110.187 194.923 109.062 195.527 108.294C196.132 107.526 197.257 107.416 198.026 108.02C198.136 108.102 208.79 116.553 219.06 115.593C219.252 115.593 229.741 114.962 232.954 107.416C233.229 106.785 233.86 106.346 234.547 106.346C235.233 106.346 235.892 106.73 236.194 107.361C236.386 107.773 241.247 117.322 255.058 115.483C255.141 115.483 263.351 114.248 267.964 108.02C268.541 107.224 269.667 107.059 270.463 107.635C271.259 108.212 271.424 109.337 270.847 110.132C265.328 117.596 255.937 118.941 255.553 118.995C254.207 119.16 252.917 119.242 251.708 119.242H251.763Z" fill="black"/>
</g>
<path d="M101.271 120.389H92.394V394.822H101.271V120.389Z" fill="#8A6456"/>
<path d="M102.535 396.06H91.1294V119.15H102.535V396.084V396.06ZM93.6343 393.559H100.006V121.651H93.6343V393.559Z" fill="black"/>
<path d="M96.1635 170.502C143.052 170.502 181.062 132.554 181.062 85.7417C181.062 38.9299 143.052 0.981445 96.1635 0.981445C49.2752 0.981445 11.2646 38.9299 11.2646 85.7417C11.2646 132.554 49.2752 170.502 96.1635 170.502Z" fill="#F05144"/>
<path d="M96.1634 171.74C48.6434 171.74 10 133.16 10 85.7416C10 38.3234 48.6434 -0.28125 96.1634 -0.28125C143.683 -0.28125 182.327 38.2991 182.327 85.7416C182.327 133.184 143.683 171.764 96.1634 171.764V171.74ZM96.1634 2.21956C50.0296 2.21956 12.5049 39.6831 12.5049 85.7416C12.5049 131.8 50.0296 169.239 96.1391 169.239C142.249 169.239 179.773 131.776 179.773 85.7416C179.773 39.7074 142.273 2.21956 96.1634 2.21956Z" fill="black"/>
<path d="M137.853 127.941C140.597 125.217 140.592 120.776 137.854 118.038L63.8702 44.0584C63.8697 44.0579 63.8692 44.0574 63.8687 44.0569C61.1454 41.3127 56.7051 41.317 53.9663 44.054C51.2214 46.7777 51.2261 51.219 53.9648 53.9576L53.9649 53.9577L127.951 127.92C127.951 127.92 127.951 127.92 127.951 127.92C129.27 129.239 130.967 129.92 132.678 129.977C132.747 129.992 132.819 130 132.893 130C134.684 130 136.494 129.298 137.853 127.941ZM137.853 127.941C137.852 127.941 137.851 127.942 137.851 127.943L137.146 127.233L137.854 127.94C137.853 127.94 137.853 127.94 137.853 127.941Z" fill="white" stroke="white" stroke-width="2" stroke-linejoin="round"/>
<path d="M63.0029 127.944L63.003 127.944L137.833 53.9646C137.833 53.9643 137.834 53.964 137.834 53.9637C140.616 51.2355 140.584 46.7896 137.839 44.0543C135.089 41.3136 130.608 41.3178 127.843 44.0513C127.843 44.0513 127.842 44.0514 127.842 44.0514L52.9926 118.011C52.9919 118.012 52.9912 118.012 52.9906 118.013C50.2131 120.738 50.218 125.185 52.9896 127.924C54.3291 129.248 56.0512 129.926 57.7841 129.977C57.8525 129.992 57.9235 130 57.9963 130C59.8026 130 61.6301 129.301 63.0029 127.944Z" fill="white" stroke="white" stroke-width="2" stroke-linejoin="round"/>
<path d="M83.337 215.912C83.337 215.912 83.337 200.71 94.9796 199.613C106.622 198.515 111.29 203.317 111.098 207.57C110.933 211.824 98.9337 211.741 98.9337 211.741C98.9337 211.741 110.604 211.302 110.164 218.464C109.698 225.598 99.6751 224.857 99.6751 224.857C99.6751 224.857 109.917 224.748 110.192 232.513C110.466 240.279 95.3915 238.961 95.3915 238.961C95.3915 238.961 83.0075 239.455 83.337 215.94V215.912Z" fill="#EF7B69"/>
<path d="M97.8354 240.444C96.5448 240.444 95.6112 240.389 95.3366 240.361C94.6776 240.361 91.2452 240.197 88.005 237.041C83.8313 232.953 81.7719 225.846 81.9091 215.912C81.9091 210.205 84.6276 199.174 94.8423 198.186C103.41 197.363 107.803 199.641 109.972 201.671C111.73 203.318 112.636 205.431 112.553 207.626C112.471 209.931 110.329 211.275 107.775 212.071C108.544 212.483 109.231 212.976 109.835 213.58C111.125 214.925 111.73 216.598 111.62 218.547C111.482 220.632 110.659 222.361 109.148 223.678C108.462 224.282 107.693 224.748 106.869 225.105C109.423 226.449 111.537 228.754 111.675 232.486C111.757 234.379 111.098 235.998 109.725 237.288C106.814 240.059 101.185 240.498 97.8628 240.498L97.8354 240.444ZM95.3915 237.508C95.3915 237.508 95.4739 237.508 95.5288 237.508C98.0001 237.727 105.03 237.727 107.721 235.175C108.489 234.462 108.819 233.611 108.764 232.541C108.572 227.218 102.448 226.394 100.362 226.257C99.8948 226.257 99.6202 226.257 99.5653 226.257C98.7964 226.202 98.2198 225.544 98.2472 224.803C98.2472 224.035 98.9062 223.431 99.6476 223.431C99.9222 223.431 100.224 223.431 100.554 223.431C102.037 223.431 105.304 223.184 107.226 221.51C108.16 220.714 108.627 219.672 108.709 218.355C108.791 217.23 108.462 216.324 107.748 215.556C105.908 213.662 101.872 213.196 99.73 213.141C99.4005 213.141 99.0985 213.141 98.9062 213.141C98.1374 213.141 97.5058 212.51 97.5058 211.742C97.5058 210.973 98.1099 210.315 98.8788 210.287C98.9337 210.287 99.2083 210.287 99.6751 210.287C104.508 210.205 109.615 209.107 109.67 207.488C109.725 206.144 109.121 204.799 107.995 203.729C106.567 202.385 103.025 200.244 95.1169 201.013C84.9296 202.001 84.7649 215.336 84.7649 215.912C84.6001 227.3 87.5382 232.568 90.0095 234.983C92.6181 237.535 95.364 237.508 95.3366 237.508C95.3366 237.508 95.364 237.508 95.3915 237.508Z" fill="black"/>
</g>
<defs>
<clipPath id="clip0_4758_34845">
<rect width="344" height="270" fill="white"/>
</clipPath>
<clipPath id="clip1_4758_34845">
<rect width="256" height="345" fill="white" transform="translate(78.9092 51)"/>
</clipPath>
</defs>
</svg>
