<svg width="424" height="250" viewBox="0 0 424 250" fill="none" xmlns="http://www.w3.org/2000/svg">
<g clip-path="url(#clip0_4758_35550)">
<path d="M228.478 211.448C211.804 208.507 201.915 204.272 196.128 200.644C193.126 198.762 191.228 197.043 190.063 195.756C189.819 195.487 189.608 195.237 189.425 195.008C188.94 195.402 188.338 195.909 187.67 196.51C185.945 198.064 183.822 200.214 182.136 202.652C180.436 205.111 179.285 207.714 179.272 210.204C179.259 212.589 180.288 215.112 183.478 217.526C190.273 222.667 199.678 226.14 207.493 228.33C211.381 229.42 214.837 230.182 217.319 230.671C218.503 230.905 219.465 231.076 220.144 231.19L228.478 211.448Z" fill="#497959" stroke="black" stroke-width="3"/>
<path d="M313.737 210.538C329.132 203.489 337.634 196.899 342.32 191.929C344.751 189.351 346.154 187.21 346.958 185.67C347.126 185.348 347.267 185.053 347.386 184.786C347.955 185.045 348.665 185.384 349.463 185.797C351.524 186.866 354.121 188.412 356.366 190.346C358.631 192.298 360.401 194.526 361.042 196.932C361.655 199.237 361.295 201.938 358.816 205.078C353.537 211.766 345.311 217.497 338.3 221.586C334.812 223.621 331.66 225.229 329.381 226.328C328.294 226.852 327.406 227.26 326.778 227.542L313.737 210.538Z" fill="#497959" stroke="black" stroke-width="3"/>
<path d="M357.12 195.432C357.454 195.432 357.788 195.305 358.045 195.049C358.302 194.794 364.259 188.917 363.026 182.528C362.641 180.459 361.666 178.925 360.176 177.954C357.711 176.37 354.707 177.035 354.578 177.06C353.859 177.239 353.423 177.929 353.603 178.644C353.782 179.36 354.476 179.794 355.195 179.615C355.246 179.615 357.275 179.181 358.764 180.152C359.611 180.714 360.176 181.66 360.433 182.988C361.383 187.997 356.247 193.082 356.196 193.133C355.682 193.644 355.657 194.487 356.196 194.998C356.453 195.254 356.787 195.381 357.146 195.381L357.12 195.432Z" fill="black"/>
<g clip-path="url(#clip1_4758_35550)">
<path d="M221.155 178.719L196.124 315.887C196.124 315.887 237.808 340.239 344.182 319.49L317.313 179.56L221.155 178.719Z" fill="#497959"/>
<path d="M265.15 329.43C217.11 329.43 196.571 317.886 195.389 317.176C194.837 316.86 194.549 316.229 194.68 315.598L219.711 178.429C219.842 177.719 220.472 177.193 221.182 177.193L317.339 178.009C318.048 178.009 318.679 178.535 318.81 179.218L345.679 319.148C345.837 319.963 345.312 320.752 344.497 320.91C312.375 327.169 286.136 329.378 265.15 329.378V329.43ZM197.805 315.046C204.451 318.306 247.447 336.531 342.423 318.28L316.078 181.033L222.416 180.218L197.805 315.046Z" fill="black"/>
<path d="M205.186 109.924C205.186 109.924 183.648 150.054 220.21 192.21C220.21 192.21 221.707 192.473 221.97 208.514C222.232 224.582 222.232 244.884 222.232 244.884C222.232 244.884 219.238 297.558 262.077 300.319C304.916 303.08 315.448 276.493 315.448 276.493C315.448 276.493 323.958 263.187 314.949 192.709C314.949 192.709 354.531 146.794 325.219 104.139C325.219 104.139 253.803 77.5519 205.186 109.898V109.924Z" fill="white"/>
<path d="M268.092 302.028C266.122 302.028 264.099 301.976 261.972 301.818C218.135 299.004 220.709 245.33 220.735 244.778C220.735 244.673 220.735 224.371 220.472 208.514C220.289 196.68 219.422 193.84 219.185 193.287L219.08 193.182C182.23 150.738 203.636 109.608 203.846 109.188L204.03 108.846L204.346 108.635C253.041 76.2104 325.009 102.429 325.718 102.718L326.164 102.876L326.427 103.271C354.347 143.901 320.78 187.844 316.499 193.13C324.982 259.873 317.733 275.441 316.788 277.124C316.394 278.071 313.478 284.488 305.756 290.589C298.953 295.953 287.081 302.002 268.092 302.002V302.028ZM221.103 190.921C222.101 191.552 223.257 194.313 223.467 208.487C223.703 224.371 223.729 244.673 223.729 244.883C223.729 245.094 223.046 258.085 227.538 271.155C233.448 288.406 245.083 297.715 262.182 298.82C283.719 300.214 296.695 293.902 303.76 288.38C311.403 282.41 314.03 275.993 314.056 275.941L314.187 275.678C314.187 275.678 322.224 261.293 313.452 192.893L313.373 192.236L313.82 191.736C314.214 191.289 352.062 146.478 324.273 105.401C318.206 103.271 251.807 81.0229 206.368 110.95C204.503 114.789 187.72 152.158 221.129 190.921H221.103Z" fill="#231F20"/>
<path d="M268.591 101.799C268.591 101.799 306.071 100.747 305.887 127.439C305.704 155.341 267.146 152.027 267.146 152.027H268.275C268.275 152.027 229.692 155.341 229.534 127.439C229.376 100.773 266.831 101.799 266.831 101.799H268.564H268.591Z" fill="#F9B9BC"/>
<path d="M271.007 153.657C269.536 153.657 268.407 153.605 267.724 153.578C263.889 153.815 245.74 154.315 235.312 144.795C230.532 140.43 228.089 134.591 228.037 127.465C227.984 120.68 230.269 115.026 234.761 110.608C245.713 99.8786 266.043 100.299 266.883 100.326H268.564C269.694 100.299 289.787 99.9312 300.661 110.608C305.178 115.026 307.437 120.706 307.385 127.465C307.332 134.591 304.889 140.43 300.109 144.795C291.546 152.632 277.757 153.684 270.981 153.684L271.007 153.657ZM266.384 103.297C263.364 103.297 246.055 103.692 236.836 112.712C232.948 116.525 230.979 121.469 231.005 127.412C231.057 133.671 233.159 138.773 237.282 142.533C246.423 150.896 262.891 150.738 267.093 150.554V150.502L268.223 150.554C272.452 150.738 288.92 150.87 298.06 142.533C302.184 138.746 304.311 133.671 304.338 127.412C304.364 121.495 302.42 116.551 298.507 112.712C288.473 102.877 268.748 103.297 268.564 103.297H266.778C266.778 103.297 266.594 103.297 266.332 103.297H266.384Z" fill="black"/>
<path d="M266.542 175.458C253.987 175.458 246.055 169.988 245.582 169.646C244.899 169.173 244.742 168.226 245.214 167.543C245.687 166.859 246.633 166.701 247.316 167.174C247.473 167.28 264.336 178.851 287.738 167.069C288.473 166.701 289.393 166.99 289.76 167.727C290.128 168.463 289.839 169.383 289.104 169.752C280.62 174.038 272.977 175.458 266.568 175.458H266.542Z" fill="black"/>
<path d="M266.883 164.965C275.877 164.965 283.168 159.549 283.168 152.868C283.168 146.187 275.877 140.771 266.883 140.771C257.89 140.771 250.599 146.187 250.599 152.868C250.599 159.549 257.89 164.965 266.883 164.965Z" fill="#EF4647"/>
<path d="M266.883 166.491C256.403 166.491 249.102 160.889 249.102 152.895C249.102 144.9 256.403 139.299 266.883 139.299C277.363 139.299 284.665 144.9 284.665 152.895C284.665 160.889 277.363 166.491 266.883 166.491ZM266.883 142.297C258.19 142.297 252.096 146.662 252.096 152.895C252.096 159.127 258.163 163.493 266.883 163.493C275.603 163.493 281.671 159.127 281.671 152.895C281.671 146.662 275.603 142.297 266.883 142.297Z" fill="black"/>
<path d="M257.927 138.326C264.367 138.326 269.589 132.898 269.589 126.202C269.589 119.507 264.367 114.079 257.927 114.079C251.486 114.079 246.265 119.507 246.265 126.202C246.265 132.898 251.486 138.326 257.927 138.326Z" fill="white"/>
<path d="M257.927 139.824C250.678 139.824 244.768 133.697 244.768 126.176C244.768 118.655 250.678 112.527 257.927 112.527C265.176 112.527 271.086 118.655 271.086 126.176C271.086 133.697 265.176 139.824 257.927 139.824ZM257.927 115.578C252.332 115.578 247.788 120.338 247.788 126.202C247.788 132.066 252.332 136.826 257.927 136.826C263.521 136.826 268.065 132.066 268.065 126.202C268.065 120.338 263.521 115.578 257.927 115.578Z" fill="black"/>
<path d="M257.27 130.91C259.606 130.91 261.499 128.826 261.499 126.255C261.499 123.685 259.606 121.601 257.27 121.601C254.935 121.601 253.041 123.685 253.041 126.255C253.041 128.826 254.935 130.91 257.27 130.91Z" fill="black"/>
<path d="M277.731 138.326C284.172 138.326 289.393 132.898 289.393 126.202C289.393 119.507 284.172 114.079 277.731 114.079C271.29 114.079 266.069 119.507 266.069 126.202C266.069 132.898 271.29 138.326 277.731 138.326Z" fill="white"/>
<path d="M277.731 139.824C270.482 139.824 264.572 133.697 264.572 126.176C264.572 118.655 270.482 112.527 277.731 112.527C284.98 112.527 290.89 118.655 290.89 126.176C290.89 133.697 284.98 139.824 277.731 139.824ZM277.731 115.578C272.136 115.578 267.593 120.338 267.593 126.202C267.593 132.066 272.136 136.826 277.731 136.826C283.325 136.826 287.869 132.066 287.869 126.202C287.869 120.338 283.325 115.578 277.731 115.578Z" fill="black"/>
<path d="M277.626 130.594C279.961 130.594 281.855 128.51 281.855 125.939C281.855 123.368 279.961 121.284 277.626 121.284C275.29 121.284 273.397 123.368 273.397 125.939C273.397 128.51 275.29 130.594 277.626 130.594Z" fill="black"/>
<path d="M267.645 107.636C308.882 106.689 325.009 121.389 325.009 121.389C358.182 144.637 366.482 128.989 366.482 128.989C378.327 107.636 320.255 77.262 320.255 77.262C320.255 77.262 310.799 66.743 299.163 31.2149C288.526 -1.28901 267.172 1.55113 267.172 1.55113H267.409C267.409 1.55113 246.081 -1.28901 235.417 31.2149C223.756 66.7167 214.326 77.262 214.326 77.262C214.326 77.262 156.254 107.636 168.099 128.989C168.099 128.989 176.399 144.663 209.572 121.389C209.572 121.389 225.699 106.663 266.936 107.636H267.645Z" fill="#497959"/>
<path d="M355.082 135.669C346.887 135.669 336.512 131.304 324.142 122.626L323.984 122.494C323.826 122.363 307.621 108.215 267.671 109.135H266.936C226.697 108.215 210.754 122.363 210.596 122.494L210.439 122.626C195.573 133.04 183.622 137.247 174.849 135.143C168.966 133.723 166.865 129.858 166.786 129.7C164.842 126.202 164.501 122.258 165.761 117.997C171.54 98.6686 209.493 78.1301 213.38 76.0789C214.641 74.5011 223.466 62.9301 233.999 30.7681C244.216 -0.394572 264.493 -0.15789 267.303 0.0261931C270.087 -0.15789 290.391 -0.394572 300.608 30.7418C311.166 62.9038 319.965 74.4748 321.226 76.0526C325.113 78.1038 363.04 98.6423 368.845 117.971C370.132 122.231 369.764 126.176 367.821 129.7C367.742 129.831 365.641 133.697 359.757 135.117C358.286 135.459 356.737 135.643 355.082 135.643V135.669ZM325.954 120.206C343.394 132.408 353.506 133.487 358.917 132.224C363.513 131.172 365.115 128.359 365.194 128.253C366.77 125.413 367.033 122.336 365.982 118.839C360.361 100.089 319.992 78.7876 319.598 78.5772L319.361 78.4457L319.177 78.2353C318.783 77.7883 309.38 67.0588 297.771 31.6622C287.817 1.36737 268.406 2.94523 267.408 3.05042H267.172C265.911 2.89263 246.816 1.26218 236.835 31.6885C225.226 67.0851 215.823 77.8146 215.429 78.2616L215.245 78.472L215.009 78.6035C214.615 78.8139 174.219 100.115 168.624 118.865C167.574 122.363 167.836 125.44 169.412 128.28C169.491 128.411 171.067 131.199 175.69 132.277C181.1 133.513 191.213 132.461 208.653 120.259C210.071 119.023 226.592 105.217 266.988 106.163H267.645C307.962 105.243 324.535 118.997 325.954 120.259V120.206Z" fill="black"/>
<path d="M218.424 71.2402C234.84 69.7675 280.226 66.454 315.763 70.5038C313.32 66.3225 310.037 59.9322 306.255 50.6228C290.759 47.6512 261.578 44.2588 228.063 51.3329C224.176 60.8 220.84 67.164 218.424 71.2402Z" fill="black"/>
<path d="M215.613 73.0024L217.11 70.4778C220.184 65.3235 223.493 58.5124 226.645 50.7809L226.96 50.0446L227.748 49.8868C261.945 42.6549 291.783 46.3366 306.544 49.1767L307.358 49.3345L307.673 50.0972C310.852 57.8812 314.003 64.5083 317.076 69.7941L318.6 72.3975L315.606 72.0557C280.515 68.0584 236.048 71.2404 218.555 72.792L215.613 73.055V73.0024ZM229.14 52.648C226.461 59.1172 223.782 64.7449 221.155 69.4785C239.804 67.9006 279.937 65.3235 313.005 68.6896C310.431 63.956 307.778 58.3283 305.152 51.938C290.496 49.203 261.893 45.8632 229.14 52.648Z" fill="black"/>
</g>
<path d="M387.154 163.67C385.821 164.329 383.902 164.583 381.686 164.553C379.346 164.521 376.751 164.174 374.321 163.722C371.893 163.27 369.644 162.715 368.002 162.273C367.181 162.052 366.512 161.859 366.049 161.722C365.86 161.666 365.706 161.619 365.589 161.584C358.652 136.573 360.611 122.564 365.34 114.881C370.069 107.198 377.659 105.707 382.284 105.932C386.886 106.155 390.48 108.137 392.376 111.668C394.283 115.217 394.534 120.445 392.184 127.271C389.788 134.23 388.532 143.416 387.873 150.834C387.544 154.548 387.363 157.83 387.264 160.184C387.215 161.361 387.186 162.306 387.17 162.957C387.162 163.261 387.157 163.5 387.154 163.67Z" fill="#F9B9BC" stroke="black"/>
<path d="M364.77 163.258L364.076 163.053L363.897 162.364C357.194 138.319 357.708 121.275 365.386 111.693C371.241 104.41 379.227 103.976 382.385 104.104C387.136 104.334 391.039 106.301 393.324 109.674C395.404 112.715 397.201 118.362 393.915 127.842C389.293 141.283 388.959 163.743 388.959 163.973V164.74L388.291 165.123C386.673 166.043 384.414 166.375 381.923 166.375C374.913 166.375 366.054 163.641 364.77 163.232V163.258ZM391.424 127.024C393.735 120.329 393.632 114.861 391.141 111.182C389.293 108.473 386.237 106.94 382.257 106.761C379.509 106.633 372.55 107.017 367.466 113.328C362.613 119.384 358.478 132.544 366.259 160.958C370.984 162.389 381.717 164.944 386.339 163.156C386.442 158.888 387.11 139.545 391.424 127.024Z" fill="black"/>
<path d="M364.77 163.258L364.076 163.053L363.897 162.364C357.194 138.319 357.708 121.275 365.386 111.693C371.241 104.41 379.227 103.976 382.385 104.104C387.136 104.334 391.039 106.301 393.324 109.674C395.404 112.715 397.201 118.362 393.915 127.842C389.293 141.283 388.959 163.743 388.959 163.973V164.74L388.291 165.123C386.673 166.043 384.414 166.375 381.923 166.375C374.913 166.375 366.054 163.641 364.77 163.232V163.258ZM391.424 127.024C393.735 120.329 393.632 114.861 391.141 111.182C389.293 108.473 386.237 106.94 382.257 106.761C379.509 106.633 372.55 107.017 367.466 113.328C362.613 119.384 358.478 132.544 366.259 160.958C370.984 162.389 381.717 164.944 386.339 163.156C386.442 158.888 387.11 139.545 391.424 127.024Z" stroke="black"/>
<path d="M395.558 185.387C395.558 185.387 399.744 151.99 368.416 155.133C337.063 158.275 341.222 173.275 341.222 173.275C341.222 173.275 342.84 183.036 347.129 182.653C347.129 182.653 340.581 185.719 341.556 193.589C342.532 201.434 351.057 204.372 351.057 204.372C351.057 204.372 345.28 205.982 346.846 213.418C348.412 220.828 358.478 226.859 370.932 225.147C383.386 223.435 393.427 213.111 395.558 185.387Z" fill="#F9B9BC"/>
<path d="M346.23 213.571C345.228 208.869 346.897 205.956 348.823 204.372C345.973 202.787 341.633 199.466 340.914 193.64C340.272 188.504 342.609 184.926 344.92 182.908C341.916 180.531 340.76 174.475 340.581 173.428C340.426 172.789 339.63 168.854 342.583 164.561C346.615 158.709 355.474 155.055 368.93 153.701C378.199 152.781 385.441 154.876 390.397 159.936C399.333 169.058 397.664 184.39 397.535 185.412C395.609 210.479 386.956 224.252 371.78 226.347C370.445 226.526 369.084 226.628 367.723 226.628C358.068 226.628 348.027 222.131 346.23 213.571ZM369.186 156.333C353.522 157.892 347.283 162.44 344.817 165.992C342.397 169.443 343.08 172.508 343.144 172.796C343.146 172.805 343.148 172.811 343.148 172.814C343.148 172.865 343.148 172.916 343.174 172.942C343.611 175.625 345.357 181.4 347.668 181.221C348.31 181.17 348.9 181.579 349.054 182.192C349.208 182.805 348.926 183.444 348.335 183.725L348.334 183.726C348.232 183.776 342.69 186.517 343.508 193.307C344.355 200.232 352.059 202.992 352.136 203.017C352.675 203.196 353.035 203.733 353.035 204.295C353.035 204.857 352.624 205.368 352.059 205.522C351.879 205.573 347.488 206.876 348.798 213.009C350.159 219.473 359.172 225.402 371.395 223.715C385.158 221.824 393.067 208.869 394.865 185.156V185.105C394.865 185.099 394.867 185.071 394.872 185.022C394.987 183.808 396.32 169.733 388.471 161.75C384.799 157.994 379.612 156.128 373.038 156.128C371.805 156.128 370.522 156.205 369.186 156.333Z" fill="black"/>
<path d="M346.23 213.571C345.228 208.869 346.897 205.956 348.823 204.372C345.973 202.787 341.633 199.466 340.914 193.64C340.272 188.504 342.609 184.926 344.92 182.908C341.916 180.531 340.76 174.475 340.581 173.428C340.426 172.789 339.63 168.854 342.583 164.561C346.615 158.709 355.474 155.055 368.93 153.701C378.199 152.781 385.441 154.876 390.397 159.936C399.333 169.058 397.664 184.39 397.535 185.412C395.609 210.479 386.956 224.252 371.78 226.347C370.445 226.526 369.084 226.628 367.723 226.628C358.068 226.628 348.027 222.131 346.23 213.571ZM369.186 156.333C353.522 157.892 347.283 162.44 344.817 165.992C342.397 169.443 343.08 172.508 343.144 172.796C343.146 172.805 343.148 172.811 343.148 172.814C343.148 172.865 343.148 172.916 343.174 172.942C343.611 175.625 345.357 181.4 347.668 181.221C348.31 181.17 348.9 181.579 349.054 182.192C349.208 182.805 348.926 183.444 348.335 183.725L348.334 183.726C348.232 183.776 342.69 186.517 343.508 193.307C344.355 200.232 352.059 202.992 352.136 203.017C352.675 203.196 353.035 203.733 353.035 204.295C353.035 204.857 352.624 205.368 352.059 205.522C351.879 205.573 347.488 206.876 348.798 213.009C350.159 219.473 359.172 225.402 371.395 223.715C385.158 221.824 393.067 208.869 394.865 185.156V185.105C394.865 185.099 394.867 185.071 394.872 185.022C394.987 183.808 396.32 169.733 388.471 161.75C384.799 157.994 379.612 156.128 373.038 156.128C371.805 156.128 370.522 156.205 369.186 156.333Z" stroke="black"/>
<path d="M347.796 183.853C347.796 183.853 347.976 183.853 348.079 183.827C360.687 181.119 366.721 181.068 366.798 181.068C367.517 181.068 368.133 180.48 368.133 179.739C368.133 179.023 367.543 178.41 366.824 178.41C366.567 178.41 360.507 178.41 347.539 181.221C346.82 181.374 346.358 182.064 346.538 182.78C346.666 183.393 347.231 183.827 347.822 183.827L347.796 183.853Z" fill="black"/>
<path d="M347.796 183.853C347.796 183.853 347.976 183.853 348.079 183.827C360.687 181.119 366.721 181.068 366.798 181.068C367.517 181.068 368.133 180.48 368.133 179.739C368.133 179.023 367.543 178.41 366.824 178.41C366.567 178.41 360.507 178.41 347.539 181.221C346.82 181.374 346.358 182.064 346.538 182.78C346.666 183.393 347.231 183.827 347.822 183.827L347.796 183.853Z" stroke="black"/>
<path d="M351.725 205.573H351.879L367.671 203.657C368.39 203.58 368.904 202.916 368.827 202.2C368.75 201.485 368.082 200.974 367.363 201.051L351.571 202.967C350.852 203.044 350.338 203.708 350.415 204.424C350.492 205.088 351.057 205.573 351.725 205.573Z" fill="black"/>
<path d="M351.725 205.573H351.879L367.671 203.657C368.39 203.58 368.904 202.916 368.827 202.2C368.75 201.485 368.082 200.974 367.363 201.051L351.571 202.967C350.852 203.044 350.338 203.708 350.415 204.424C350.492 205.088 351.057 205.573 351.725 205.573Z" stroke="black"/>
</g>
<defs>
<clipPath id="clip0_4758_35550">
<rect width="424" height="250" fill="white"/>
</clipPath>
<clipPath id="clip1_4758_35550">
<rect width="233" height="381" fill="white" transform="translate(165)"/>
</clipPath>
</defs>
</svg>
