<svg width="344" height="270" viewBox="0 0 344 270" fill="none" xmlns="http://www.w3.org/2000/svg">
<g clip-path="url(#clip0_4758_34539)">
<path d="M91.3614 120.389H82.4849V394.822H91.3614V120.389Z" fill="#8A6456"/>
<path d="M92.626 396.06H81.2202V119.15H92.626V396.084V396.06ZM83.7251 393.559H90.0968V121.651H83.7251V393.559Z" fill="black"/>
<path d="M86.2543 170.502C133.143 170.502 171.153 132.554 171.153 85.7417C171.153 38.9299 133.143 0.981445 86.2543 0.981445C39.366 0.981445 1.35547 38.9299 1.35547 85.7417C1.35547 132.554 39.366 170.502 86.2543 170.502Z" fill="#F05144"/>
<path d="M86.2543 171.74C38.7343 171.74 0.0908203 133.16 0.0908203 85.7416C0.0908203 38.3234 38.7343 -0.28125 86.2543 -0.28125C133.774 -0.28125 172.418 38.2991 172.418 85.7416C172.418 133.184 133.774 171.764 86.2543 171.764V171.74ZM86.2543 2.21956C40.1205 2.21956 2.59571 39.6831 2.59571 85.7416C2.59571 131.8 40.1205 169.239 86.2299 169.239C132.339 169.239 169.864 131.776 169.864 85.7416C169.864 39.7074 132.364 2.21956 86.2543 2.21956Z" fill="black"/>
<path d="M127.943 127.941C130.688 125.217 130.683 120.776 127.944 118.038L53.9611 44.0584C53.9605 44.0579 53.96 44.0574 53.9595 44.0569C51.2362 41.3127 46.7959 41.317 44.0571 44.054C41.3122 46.7777 41.3169 51.219 44.0556 53.9576L44.0557 53.9577L118.042 127.92C118.042 127.92 118.042 127.92 118.042 127.92C119.361 129.239 121.058 129.92 122.768 129.977C122.838 129.992 122.91 130 122.983 130C124.775 130 126.585 129.298 127.943 127.941ZM127.943 127.941C127.943 127.941 127.942 127.942 127.941 127.943L127.237 127.233L127.944 127.94C127.944 127.94 127.944 127.94 127.943 127.941Z" fill="white" stroke="white" stroke-width="2" stroke-linejoin="round"/>
<path d="M53.0937 127.944L53.0938 127.944L127.924 53.9646C127.924 53.9643 127.925 53.964 127.925 53.9637C130.707 51.2355 130.674 46.7896 127.93 44.0543C125.18 41.3136 120.699 41.3178 117.933 44.0513C117.933 44.0513 117.933 44.0514 117.933 44.0514L43.0834 118.011C43.0827 118.012 43.082 118.012 43.0814 118.013C40.3039 120.738 40.3088 125.185 43.0804 127.924C44.42 129.248 46.1421 129.926 47.8749 129.977C47.9433 129.992 48.0143 130 48.0871 130C49.8934 130 51.7209 129.301 53.0937 127.944Z" fill="white" stroke="white" stroke-width="2" stroke-linejoin="round"/>
<g clip-path="url(#clip1_4758_34539)">
<path d="M338.265 297.638C335.763 297.149 332.303 294.854 327.764 290.645C327.149 290.078 327.091 289.089 327.663 288.447L342.41 271.84C342.908 271.295 343.691 271.141 344.343 271.519C345.529 272.17 355.717 278.041 352.763 284.304C352.742 284.412 352.21 285.564 350.771 285.925C350.476 286.007 350.164 286.03 349.853 286.053C349.929 286.375 349.979 286.692 350.002 287.003C350.055 288.019 349.758 288.966 349.079 289.727C348.743 290.164 348.116 290.655 347.219 290.815C346.725 290.914 346.193 290.922 345.58 290.774C345.8 291.934 345.633 293.074 344.719 294.04C344.505 294.278 343.718 295.017 342.164 294.826C342.17 294.938 342.176 295.051 342.155 295.159C342.126 295.879 341.806 296.515 341.298 296.974C341.02 297.254 340.5 297.628 339.641 297.739C339.211 297.795 338.743 297.759 338.232 297.659L338.265 297.638ZM331.031 289.356C335.839 293.618 338.137 294.43 338.923 294.555C338.608 293.88 337.748 292.707 336.857 291.835C336.247 291.241 336.243 290.263 336.81 289.648C337.377 289.032 338.365 288.974 338.981 289.541C340.982 291.3 342.091 291.628 342.505 291.653C342.662 290.847 341.407 288.842 340.127 287.531C339.544 286.943 339.534 285.992 340.101 285.377C340.668 284.761 341.63 284.698 342.25 285.238C345.125 287.67 346.378 287.691 346.636 287.658C346.742 287.539 346.828 287.388 346.821 287.136C346.762 286.008 345.223 284.171 344.219 283.305C343.577 282.733 343.487 281.766 344.064 281.097C344.609 280.45 345.603 280.365 346.25 280.91C348.678 282.92 349.715 282.899 349.887 282.877C350.875 280.25 346.758 276.737 343.827 274.88L330.972 289.373L331.031 289.356ZM349.903 282.936C349.903 282.936 349.893 282.989 349.882 283.043C349.887 283.016 349.898 282.963 349.903 282.936Z" fill="black"/>
<path d="M285.394 193.668C285.394 193.668 334.478 262.278 343.798 272.167L329.849 290.55C329.849 290.55 279.257 254.674 246.983 223.075L285.394 193.668Z" fill="#497959"/>
<path d="M330.176 292.736L328.925 291.849C328.408 291.497 277.859 255.546 245.871 224.198L244.581 222.941L285.717 191.442L286.658 192.77C287.14 193.45 335.764 261.412 344.927 271.103L345.829 272.061L330.149 292.73L330.176 292.736ZM249.381 223.236C278.399 251.352 321.678 282.783 329.512 288.418L341.74 272.268C331.418 260.507 291.891 205.435 285.039 195.916L249.354 223.231L249.381 223.236Z" fill="black"/>
<path d="M200.16 199.527C200.16 199.527 107.212 221.833 89.1809 223.943L92.387 247.344C92.387 247.344 137.656 255.373 198.16 250.166L200.133 199.555L200.16 199.527Z" fill="#497959"/>
<path d="M157.111 253.455C118.556 253.455 92.4691 248.934 92.1129 248.879L90.9894 248.687L87.3997 222.573L88.989 222.381C106.718 220.298 198.845 198.212 199.776 197.993L201.804 197.5L199.694 251.564L198.324 251.674C183.582 252.934 169.689 253.427 157.111 253.427V253.455ZM93.7844 245.974C101.073 247.125 142.944 253.153 196.653 248.687L198.489 201.528C184.897 204.789 110.472 222.463 90.9346 225.286L93.7844 245.974Z" fill="black"/>
<path d="M187.5 187.224L161.386 330.152C161.386 330.152 204.873 355.527 315.853 333.906L287.82 188.1L187.5 187.224Z" fill="#497959"/>
<path d="M233.399 344.265C183.28 344.265 161.852 332.235 160.591 331.496C160.016 331.167 159.714 330.509 159.851 329.851L185.966 186.923C186.103 186.183 186.733 185.607 187.528 185.635L287.848 186.512C288.587 186.512 289.245 187.06 289.382 187.772L317.415 333.578C317.579 334.428 317.031 335.25 316.181 335.414C282.668 341.936 255.294 344.237 233.399 344.237V344.265ZM163.14 329.276C170.072 332.674 214.93 351.663 314.017 332.646L286.532 189.635L188.816 188.786L163.14 329.276Z" fill="black"/>
<path d="M170.84 115.54C170.84 115.54 148.37 157.356 186.514 201.281C186.514 201.281 188.076 201.555 188.35 218.27C188.624 235.013 188.624 256.167 188.624 256.167C188.624 256.167 185.5 311.053 230.193 313.931C274.886 316.808 285.875 289.105 285.875 289.105C285.875 289.105 294.753 275.239 285.354 201.802C285.354 201.802 326.649 153.958 296.068 109.512C296.068 109.512 221.562 81.8085 170.84 115.513V115.54Z" fill="white"/>
<path d="M236.441 315.712C234.386 315.712 232.276 315.657 230.056 315.492C184.322 312.56 187.007 256.633 187.035 256.057C187.035 255.948 187.035 234.793 186.761 218.27C186.569 205.939 185.664 202.98 185.418 202.404L185.308 202.295C146.89 158.068 169.196 115.211 169.415 114.773L169.607 114.417L169.936 114.197C220.712 80.4381 295.822 107.73 296.562 108.032L297.027 108.196L297.301 108.607C326.43 150.943 291.41 196.732 286.943 202.24C295.794 271.786 288.231 288.008 287.245 289.762C286.834 290.748 283.792 297.434 275.736 303.792C268.639 309.382 256.253 315.684 236.441 315.684V315.712ZM187.446 199.938C188.487 200.596 189.693 203.473 189.912 218.243C190.158 234.793 190.186 255.948 190.186 256.167C190.186 256.386 189.473 269.923 194.159 283.542C200.325 301.517 212.464 311.218 230.303 312.368C252.773 313.821 266.309 307.244 273.681 301.49C281.655 295.27 284.395 288.584 284.422 288.529L284.559 288.255C284.559 288.255 292.944 273.266 283.792 201.993L283.71 201.308L284.176 200.788C284.587 200.322 324.073 153.629 295.082 110.827C288.752 108.607 219.479 85.4252 172.073 116.609C170.127 120.609 152.617 159.548 187.473 199.938H187.446Z" fill="#231F20"/>
<path d="M236.989 107.073C236.989 107.073 276.092 105.977 275.9 133.79C275.708 162.864 235.482 159.411 235.482 159.411H236.66C236.66 159.411 196.406 162.864 196.241 133.79C196.077 106.005 235.153 107.073 235.153 107.073H236.961H236.989Z" fill="#F9B9BC"/>
<path d="M239.51 161.11C237.975 161.11 236.797 161.055 236.085 161.028C232.084 161.275 213.149 161.795 202.27 151.876C197.283 147.327 194.734 141.244 194.68 133.818C194.625 126.748 197.009 120.857 201.695 116.253C213.121 105.073 234.331 105.512 235.208 105.539H236.961C238.14 105.512 259.102 105.128 270.447 116.253C275.16 120.857 277.517 126.775 277.462 133.818C277.407 141.244 274.859 147.327 269.872 151.876C260.938 160.041 246.552 161.138 239.482 161.138L239.51 161.11ZM234.687 108.635C231.536 108.635 213.478 109.046 203.859 118.445C199.804 122.419 197.749 127.57 197.776 133.763C197.803 140.285 200.023 145.601 204.325 149.519C213.861 158.233 231.015 158.069 235.427 157.877V157.822L236.605 157.877C241.017 158.069 258.198 158.206 267.734 149.519C272.036 145.573 274.256 140.285 274.283 133.763C274.311 127.598 272.283 122.446 268.2 118.445C257.705 108.169 237.181 108.635 236.961 108.635H235.098C235.098 108.635 234.906 108.635 234.632 108.635H234.687Z" fill="black"/>
<path d="M234.824 183.826C221.726 183.826 213.45 178.127 212.957 177.77C212.244 177.277 212.08 176.291 212.573 175.578C213.067 174.866 214.053 174.701 214.765 175.195C214.93 175.304 232.522 187.361 256.938 175.085C257.705 174.701 258.664 175.003 259.048 175.77C259.431 176.537 259.13 177.496 258.363 177.88C249.512 182.347 241.538 183.826 234.851 183.826H234.824Z" fill="black"/>
<path d="M75.5618 233.506C75.5618 233.506 75.5618 220.983 85.1526 220.052C94.7434 219.12 98.5798 223.093 98.4428 226.601C98.3057 230.108 88.4135 230.026 88.4135 230.026C88.4135 230.026 98.0317 229.67 97.6481 235.561C97.2645 241.453 89.0164 240.85 89.0164 240.85C89.0164 240.85 97.4563 240.74 97.6755 247.18C97.9221 253.592 85.4815 252.496 85.4815 252.496C85.4815 252.496 75.2878 252.879 75.5344 233.534L75.5618 233.506Z" fill="#F9B9BC"/>
<path d="M87.619 254.113C86.5503 254.113 85.7556 254.058 85.4542 254.03C84.7965 254.03 81.8919 253.839 79.1791 251.181C75.6168 247.755 73.8904 241.782 74 233.479C74 228.656 76.3292 219.312 85.0157 218.49C92.2226 217.805 95.9219 219.723 97.7852 221.477C99.3198 222.929 100.114 224.765 100.032 226.683C99.95 228.546 98.5251 229.697 96.6617 230.437C97.018 230.684 97.3742 230.958 97.6756 231.287C98.8265 232.465 99.3472 233.972 99.2375 235.671C99.1279 237.507 98.3881 239.014 97.0728 240.165C96.6617 240.521 96.2233 240.823 95.7849 241.069C97.703 242.275 99.1827 244.166 99.2923 247.098C99.3472 248.769 98.7717 250.221 97.566 251.372C95.0724 253.729 90.4414 254.14 87.6464 254.14L87.619 254.113ZM85.509 250.906C85.509 250.906 85.5912 250.906 85.646 250.906C87.6464 251.071 93.2638 251.098 95.4012 249.098C95.9219 248.577 96.1685 248.002 96.1411 247.235C96.0041 243.179 91.2087 242.549 89.5919 242.439C89.2083 242.439 88.9617 242.439 88.9343 242.439C88.0848 242.384 87.4546 241.672 87.482 240.823C87.482 239.973 88.1944 239.315 89.0439 239.315C89.3179 239.315 89.5919 239.315 89.866 239.315C91.2635 239.315 93.6749 239.014 95.045 237.808C95.73 237.205 96.0863 236.466 96.1411 235.479C96.1959 234.657 95.9767 234.027 95.456 233.479C94.0585 232.027 90.8798 231.643 89.1809 231.615C88.9069 231.615 88.6603 231.615 88.441 231.615C87.5916 231.615 86.9065 230.93 86.8791 230.081C86.8791 229.232 87.5368 228.519 88.3862 228.492C88.4958 228.492 88.7699 228.492 89.1535 228.492C93.2912 228.409 96.8809 227.396 96.9083 226.574C96.9632 225.587 96.4973 224.601 95.6478 223.779C94.5243 222.71 91.7019 221.011 85.3446 221.641C77.2609 222.408 77.1787 233.424 77.1787 233.534C77.0691 242.795 79.3983 247.043 81.3712 248.988C83.399 250.961 85.4816 250.961 85.4816 250.961C85.4816 250.961 85.509 250.961 85.5364 250.961L85.509 250.906Z" fill="black"/>
<path d="M238.242 135.022C238.317 128.046 232.932 122.332 226.213 122.259C219.494 122.186 213.986 127.783 213.91 134.759C213.835 141.735 219.22 147.45 225.939 147.522C232.658 147.595 238.166 141.999 238.242 135.022Z" fill="white"/>
<path d="M226.055 149.08C226.055 149.08 225.946 149.08 225.918 149.08C222.246 149.053 218.794 147.518 216.245 144.778C213.697 142.065 212.327 138.503 212.354 134.694C212.409 130.912 213.861 127.35 216.465 124.72C219.04 122.089 222.466 120.637 226.083 120.637C226.138 120.637 226.192 120.637 226.22 120.637C233.783 120.719 239.866 127.158 239.784 134.995C239.702 142.778 233.564 149.053 226.055 149.053V149.08ZM226.083 123.788C223.315 123.788 220.684 124.911 218.684 126.939C216.656 129.022 215.505 131.789 215.478 134.749C215.451 137.708 216.519 140.531 218.52 142.641C220.493 144.75 223.123 145.901 225.946 145.956C231.782 146.038 236.578 141.106 236.66 134.995C236.715 128.885 232.029 123.87 226.192 123.815C226.165 123.815 226.11 123.815 226.083 123.815V123.788Z" fill="black"/>
<path d="M230.654 134.441C230.683 131.762 228.731 129.57 226.295 129.543C223.858 129.517 221.86 131.667 221.831 134.345C221.802 137.024 223.753 139.217 226.19 139.243C228.626 139.269 230.625 137.119 230.654 134.441Z" fill="black"/>
<path d="M258.88 135.245C258.956 128.269 253.57 122.554 246.851 122.482C240.132 122.409 234.624 128.005 234.549 134.982C234.473 141.958 239.859 147.672 246.578 147.745C253.297 147.818 258.805 142.221 258.88 135.245Z" fill="white"/>
<path d="M246.717 149.299C246.717 149.299 246.607 149.299 246.58 149.299C239.017 149.217 232.933 142.777 233.015 134.94C233.098 127.103 239.318 120.774 246.881 120.883C250.553 120.911 254.006 122.445 256.554 125.185C259.102 127.898 260.473 131.46 260.445 135.269C260.39 139.051 258.938 142.613 256.335 145.244C253.759 147.874 250.334 149.327 246.717 149.327V149.299ZM246.744 124.007C240.962 124.007 236.222 128.912 236.139 134.968C236.085 141.079 240.77 146.093 246.607 146.148C249.402 146.148 252.087 145.052 254.115 142.997C256.143 140.914 257.294 138.146 257.321 135.187C257.349 132.228 256.28 129.405 254.28 127.295C252.307 125.185 249.676 124.034 246.854 123.98C246.826 123.98 246.771 123.98 246.744 123.98V124.007Z" fill="black"/>
<path d="M251.32 134.664C251.349 131.985 249.397 129.792 246.961 129.766C244.524 129.74 242.526 131.89 242.497 134.568C242.468 137.247 244.419 139.439 246.856 139.466C249.292 139.492 251.291 137.342 251.32 134.664Z" fill="black"/>
<path d="M211.587 119.239C211.587 119.239 221.342 135.434 237.345 121.623C237.345 121.623 250.854 135.133 259.048 118.828L254.362 112.279L215.615 114.882L211.56 119.239H211.587Z" fill="#F9B9BC"/>
<path d="M258.965 121.212C258.965 121.212 255.513 127.296 248.004 126.857C248.004 126.857 240.167 126.775 237.455 121.021C237.455 121.021 234.139 128.638 223.781 127.652C223.781 127.652 217.725 127.049 214.135 122.5" fill="#F9B9BC"/>
<path d="M225.617 129.68C224.959 129.68 224.274 129.652 223.562 129.57C223.26 129.543 216.629 128.83 212.546 123.679C211.861 122.829 212.025 121.596 212.875 120.911C213.724 120.226 214.957 120.391 215.642 121.24C218.657 125.049 223.918 125.652 223.973 125.652C232.769 126.501 235.619 120.254 235.646 120.199C235.947 119.486 236.66 119.021 237.427 119.021C238.167 119.021 238.907 119.459 239.236 120.144C241.373 124.693 247.95 124.857 248.032 124.857C254.252 125.213 257.157 120.391 257.266 120.171C257.815 119.24 258.993 118.911 259.952 119.459C260.884 120.007 261.212 121.185 260.664 122.117C260.5 122.418 256.499 129.241 247.867 128.748C247.621 128.748 241.318 128.611 237.455 124.446C235.509 126.72 231.837 129.625 225.617 129.625V129.68Z" fill="black"/>
<path d="M252.898 159.009C252.976 151.746 245.434 145.775 236.052 145.673C226.669 145.572 218.999 151.378 218.921 158.642C218.842 165.906 226.385 171.876 235.767 171.978C245.149 172.079 252.819 166.273 252.898 159.009Z" fill="#EF4647"/>
<path d="M236.057 173.55C236.057 173.55 235.865 173.55 235.756 173.55C224.822 173.44 217.259 167.302 217.369 158.643C217.451 150.066 225.014 144.12 235.756 144.12C235.865 144.12 235.975 144.12 236.085 144.12C241.099 144.175 245.675 145.572 248.991 148.066C252.581 150.779 254.526 154.67 254.499 159.027C254.444 163.384 252.416 167.247 248.772 169.851C245.484 172.235 240.99 173.522 236.085 173.522L236.057 173.55ZM235.756 147.244C226.823 147.244 220.575 151.902 220.493 158.671C220.411 165.494 226.713 170.316 235.783 170.426C235.865 170.426 235.975 170.426 236.057 170.426C240.305 170.426 244.141 169.33 246.909 167.33C249.758 165.274 251.293 162.397 251.348 158.999C251.375 155.602 249.923 152.697 247.1 150.587C244.305 148.477 240.387 147.299 236.057 147.271C235.975 147.271 235.865 147.271 235.783 147.271L235.756 147.244Z" fill="black"/>
<path d="M236.002 113.156C279.024 112.169 295.849 127.487 295.849 127.487C330.458 151.71 339.117 135.406 339.117 135.406C351.476 113.156 290.889 81.5066 290.889 81.5066C290.889 81.5066 281.024 70.5458 268.885 33.5257C257.76 -0.343143 235.509 2.61627 235.509 2.61627H235.756C235.756 2.61627 213.505 -0.343143 202.38 33.5257C190.213 70.5184 180.376 81.5066 180.376 81.5066C180.376 81.5066 119.789 113.156 132.148 135.406C132.148 135.406 140.807 151.738 175.416 127.487C175.416 127.487 192.241 112.142 235.262 113.156H236.002Z" fill="#497959"/>
<path d="M144.04 142.367C142.314 142.367 140.697 142.175 139.163 141.819C133.025 140.339 130.832 136.311 130.75 136.147C128.722 132.502 128.366 128.392 129.682 123.953C135.71 103.812 175.306 82.4113 179.362 80.274C180.677 78.6298 189.884 66.573 200.873 33.0603C211.56 0.588981 232.714 0.835602 235.646 1.02742C238.551 0.835602 259.733 0.588981 270.392 33.0329C281.408 66.5456 290.588 78.6024 291.903 80.2466C295.959 82.3839 335.528 103.785 341.583 123.925C342.926 128.364 342.543 132.475 340.515 136.147C340.433 136.284 338.24 140.312 332.102 141.791C322.95 143.984 310.454 139.599 294.972 128.748L294.808 128.611C294.643 128.474 277.791 113.732 236.057 114.663H235.29C193.501 113.704 176.649 128.447 176.485 128.611L176.32 128.721C163.414 137.763 152.59 142.312 144.04 142.312V142.367ZM234.221 4.09644C229.398 4.09644 213.012 6.23379 203.887 34.0194C191.775 70.9025 181.965 82.0825 181.554 82.5483L181.362 82.7675L181.116 82.9045C180.705 83.1238 138.56 105.319 132.723 124.857C131.627 128.501 131.901 131.707 133.545 134.667C133.627 134.804 135.272 137.709 140.094 138.805C145.739 140.12 156.289 138.996 174.484 126.282C175.964 124.994 193.2 110.635 235.345 111.594H236.03C278.12 110.608 295.383 124.967 296.863 126.282C315.058 138.996 325.608 140.12 331.253 138.805C336.048 137.709 337.72 134.804 337.802 134.667C339.446 131.707 339.72 128.501 338.624 124.857C332.76 105.319 290.643 83.1238 290.232 82.9045L289.985 82.7675L289.793 82.5483C289.382 82.0825 279.572 70.9025 267.46 34.0194C257.047 2.42492 236.797 4.04163 235.756 4.15124H235.509C235.345 4.15124 234.906 4.09644 234.221 4.09644Z" fill="black"/>
<path d="M184.623 75.2324C201.749 73.6979 249.101 70.2453 286.176 74.4652C283.628 70.1083 280.202 63.4496 276.256 53.7493C260.089 50.6528 229.645 47.118 194.68 54.4891C190.624 64.3538 187.144 70.9851 184.623 75.2324Z" fill="black"/>
<path d="M181.719 77.0679L183.28 74.4373C186.487 69.0665 189.939 61.9694 193.227 53.9132L193.556 53.146L194.378 52.9815C230.056 45.446 261.185 49.2823 276.585 52.2417L277.435 52.4061L277.764 53.2008C281.052 61.3117 284.368 68.217 287.574 73.7248L289.163 76.4376L286.066 76.0814C249.43 71.9163 203.065 75.232 184.815 76.8487L181.746 77.1227L181.719 77.0679ZM195.831 55.8587C193.036 62.5996 190.241 68.4911 187.5 73.396C206.956 71.7519 248.827 69.0665 283.326 72.574C280.613 67.6416 277.873 61.7776 275.133 55.1189C259.842 52.2691 230.001 48.789 195.831 55.8587Z" fill="black"/>
</g>
</g>
<defs>
<clipPath id="clip0_4758_34539">
<rect width="344" height="270" fill="white"/>
</clipPath>
<clipPath id="clip1_4758_34539">
<rect width="298" height="397" fill="white" transform="translate(74 1)"/>
</clipPath>
</defs>
</svg>
