<svg width="484" height="127" viewBox="0 0 484 127" fill="none" xmlns="http://www.w3.org/2000/svg">
<rect x="0.902344" y="40.5938" width="140" height="85" fill="#DF4437"/>
<path d="M31.3959 86.5059H141.396V125.59L31.3959 86.5059Z" fill="#BA382D"/>
<rect width="140" height="85" transform="matrix(-1 0 0 1 483.098 41.0938)" fill="#DF4437"/>
<path d="M453.16 86.5059H343.16V125.59L453.16 86.5059Z" fill="#BA382D"/>
<rect x="31" y="0.8125" width="422" height="86" fill="#F05144"/>
<path d="M109.738 25.9245C108.586 25.9245 107.65 25.4925 106.93 24.6285C106.21 23.7645 105.85 22.7745 105.85 21.6585C105.85 20.5785 106.21 19.6065 106.93 18.7425C107.65 17.8425 108.586 17.3925 109.738 17.3925H140.518C141.67 17.3925 142.606 17.8245 143.326 18.6885C144.046 19.5525 144.406 20.5425 144.406 21.6585C144.406 22.7385 144.046 23.7285 143.326 24.6285C142.606 25.4925 141.67 25.9245 140.518 25.9245H130.042V58.6485C130.042 60.0525 129.556 61.1685 128.584 61.9965C127.648 62.8245 126.496 63.2385 125.128 63.2385C123.76 63.2385 122.59 62.8245 121.618 61.9965C120.682 61.1685 120.214 60.0525 120.214 58.6485V25.9245H109.738ZM165.556 40.1805C164.512 39.7485 163.522 39.5325 162.586 39.5325C161.83 39.5325 161.092 39.7125 160.372 40.0725C159.688 40.3965 159.076 40.8825 158.536 41.5305C157.996 42.1425 157.564 42.8985 157.24 43.7985C156.916 44.6625 156.754 45.6165 156.754 46.6605V58.7565C156.754 60.1605 156.304 61.2585 155.404 62.0505C154.54 62.8425 153.424 63.2385 152.056 63.2385C150.688 63.2385 149.554 62.8425 148.654 62.0505C147.79 61.2585 147.358 60.1605 147.358 58.7565V35.6445C147.358 34.2405 147.79 33.1425 148.654 32.3505C149.554 31.5585 150.688 31.1625 152.056 31.1625C153.172 31.1625 154.126 31.4505 154.918 32.0265C155.746 32.5665 156.304 33.3225 156.592 34.2945C157.384 33.2865 158.41 32.5125 159.67 31.9725C160.93 31.4325 162.172 31.1625 163.396 31.1625C164.512 31.1625 165.52 31.2705 166.42 31.4865C167.32 31.6665 168.13 32.0085 168.85 32.5125C169.498 32.9445 169.984 33.6465 170.308 34.6185C170.632 35.5545 170.542 36.5985 170.038 37.7505C169.57 38.7945 168.868 39.5325 167.932 39.9645C167.032 40.3965 166.24 40.4685 165.556 40.1805ZM200.97 60.3765C200.97 62.5005 200.628 64.3545 199.944 65.9385C199.296 67.5225 198.36 68.8365 197.136 69.8805C195.948 70.9245 194.49 71.6985 192.762 72.2025C191.034 72.7425 189.108 73.0125 186.984 73.0125C186.372 73.0125 185.67 72.9945 184.878 72.9585C184.122 72.9225 183.33 72.8505 182.502 72.7425C181.674 72.6705 180.864 72.5445 180.072 72.3645C179.28 72.2205 178.56 72.0225 177.912 71.7705C176.76 71.3385 175.968 70.6545 175.536 69.7185C175.14 68.7825 175.086 67.7925 175.374 66.7485C175.662 65.7405 176.202 64.9125 176.994 64.2645C177.822 63.6525 178.83 63.5085 180.018 63.8325C180.954 64.0845 182.016 64.2825 183.204 64.4265C184.392 64.6065 185.616 64.6965 186.876 64.6965C188.208 64.6965 189.342 64.3725 190.278 63.7245C191.25 63.0765 191.736 62.1045 191.736 60.8085V57.5145C190.944 58.5585 189.9 59.3325 188.604 59.8365C187.344 60.3765 185.958 60.6465 184.446 60.6465C183.006 60.6465 181.602 60.4305 180.234 59.9985C178.902 59.5665 177.696 58.8645 176.616 57.8925C175.572 56.9205 174.726 55.6785 174.078 54.1665C173.466 52.6545 173.16 50.8185 173.16 48.6585V35.6445C173.16 34.2405 173.592 33.1425 174.456 32.3505C175.356 31.5585 176.49 31.1625 177.858 31.1625C179.226 31.1625 180.342 31.5585 181.206 32.3505C182.106 33.1425 182.556 34.2405 182.556 35.6445V47.6865C182.556 49.0545 182.952 50.1705 183.744 51.0345C184.572 51.8985 185.67 52.3305 187.038 52.3305C188.37 52.3305 189.45 51.9165 190.278 51.0885C191.142 50.2245 191.574 49.1445 191.574 47.8485V35.6445C191.574 34.2405 192.006 33.1425 192.87 32.3505C193.77 31.5585 194.904 31.1625 196.272 31.1625C197.64 31.1625 198.756 31.5585 199.62 32.3505C200.52 33.1425 200.97 34.2405 200.97 35.6445V60.3765ZM248.251 53.9505H230.377L228.001 60.0525C227.497 61.3485 226.615 62.2665 225.355 62.8065C224.131 63.3465 222.835 63.3645 221.467 62.8605C220.819 62.6445 220.261 62.3205 219.793 61.8885C219.325 61.4925 218.965 61.0245 218.713 60.4845C218.461 59.9805 218.317 59.4405 218.281 58.8645C218.245 58.2885 218.335 57.7305 218.551 57.1905L234.103 20.1465C234.571 19.0305 235.255 18.1845 236.155 17.6085C237.091 16.9965 238.135 16.6905 239.287 16.6905C240.547 16.6905 241.627 16.9965 242.527 17.6085C243.427 18.1845 244.111 19.0305 244.579 20.1465L260.023 57.1905C260.455 58.2705 260.383 59.3685 259.807 60.4845C259.267 61.6005 258.385 62.3925 257.161 62.8605C256.477 63.1125 255.793 63.2205 255.109 63.1845C254.461 63.1485 253.849 63.0045 253.273 62.7525C252.697 62.5005 252.175 62.1405 251.707 61.6725C251.275 61.2405 250.933 60.7005 250.681 60.0525L248.251 53.9505ZM233.725 45.5265H244.849L239.287 31.4865L233.725 45.5265ZM282.397 52.0605V40.0185H277.213C275.089 40.0185 273.577 40.5765 272.677 41.6925C271.777 42.7725 271.327 44.2485 271.327 46.1205C271.327 47.9565 271.777 49.4145 272.677 50.4945C273.577 51.5385 275.089 52.0605 277.213 52.0605H282.397ZM282.397 60.3765H276.565C274.225 60.3765 272.155 60.0165 270.355 59.2965C268.555 58.6125 267.025 57.6585 265.765 56.4345C264.505 55.1745 263.551 53.6805 262.903 51.9525C262.255 50.1885 261.931 48.2445 261.931 46.1205C261.931 43.9605 262.255 41.9985 262.903 40.2345C263.551 38.4705 264.505 36.9585 265.765 35.6985C267.025 34.4385 268.555 33.4665 270.355 32.7825C272.155 32.0625 274.225 31.7025 276.565 31.7025H285.637C287.653 31.7025 289.183 32.2245 290.227 33.2685C291.271 34.3125 291.793 35.8605 291.793 37.9125V60.3765C291.793 62.5005 291.451 64.3545 290.767 65.9385C290.119 67.5225 289.183 68.8365 287.959 69.8805C286.771 70.9245 285.313 71.6985 283.585 72.2025C281.857 72.7425 279.931 73.0125 277.807 73.0125C277.195 73.0125 276.493 72.9945 275.701 72.9585C274.945 72.9225 274.153 72.8505 273.325 72.7425C272.497 72.6705 271.687 72.5445 270.895 72.3645C270.103 72.2205 269.383 72.0225 268.735 71.7705C267.583 71.3385 266.791 70.6545 266.359 69.7185C265.963 68.7825 265.909 67.7925 266.197 66.7485C266.485 65.7405 267.025 64.9125 267.817 64.2645C268.645 63.6525 269.653 63.5085 270.841 63.8325C271.777 64.0845 272.839 64.2825 274.027 64.4265C275.215 64.6065 276.439 64.6965 277.699 64.6965C279.031 64.6965 280.147 64.3725 281.047 63.7245C281.947 63.0765 282.397 62.1045 282.397 60.8085V60.3765ZM321.672 31.7025C323.436 31.7025 324.768 32.1885 325.668 33.1605C326.604 34.1325 327.072 35.4465 327.072 37.1025V59.1345C327.072 60.5385 326.604 61.5465 325.668 62.1585C324.732 62.7705 323.598 63.0765 322.266 63.0765C321.222 63.0765 320.268 62.7885 319.404 62.2125C318.576 61.6725 318.108 60.9345 318 59.9985C317.352 60.9345 316.362 61.6725 315.03 62.2125C313.698 62.7885 312.24 63.0765 310.656 63.0765C308.388 63.0765 306.318 62.6805 304.446 61.8885C302.61 61.1325 301.026 60.0525 299.694 58.6485C298.398 57.2805 297.39 55.6245 296.67 53.6805C295.95 51.7365 295.59 49.5945 295.59 47.2545C295.59 44.9145 295.986 42.7905 296.778 40.8825C297.57 38.9385 298.65 37.3005 300.018 35.9685C301.422 34.6005 303.078 33.5565 304.986 32.8365C306.93 32.0805 309.036 31.7025 311.304 31.7025H321.672ZM311.736 40.0185C309.576 40.0185 307.902 40.7025 306.714 42.0705C305.562 43.4385 304.986 45.1665 304.986 47.2545C304.986 48.2985 305.13 49.2705 305.418 50.1705C305.706 51.0705 306.12 51.8625 306.66 52.5465C307.236 53.2305 307.902 53.7705 308.658 54.1665C309.45 54.5625 310.332 54.7605 311.304 54.7605C313.284 54.7605 314.832 54.0945 315.948 52.7625C317.1 51.3945 317.676 49.4145 317.676 46.8225V40.0185H311.736ZM341.848 58.7565C341.848 60.1605 341.398 61.2585 340.498 62.0505C339.634 62.8425 338.518 63.2385 337.15 63.2385C335.782 63.2385 334.648 62.8425 333.748 62.0505C332.884 61.2585 332.452 60.1605 332.452 58.7565V35.6445C332.452 34.2405 332.884 33.1425 333.748 32.3505C334.648 31.5585 335.782 31.1625 337.15 31.1625C338.518 31.1625 339.634 31.5585 340.498 32.3505C341.398 33.1425 341.848 34.2405 341.848 35.6445V58.7565ZM331.696 22.1445C331.696 21.3885 331.84 20.6865 332.128 20.0385C332.416 19.3905 332.812 18.8145 333.316 18.3105C333.82 17.8065 334.396 17.4105 335.044 17.1225C335.692 16.8345 336.394 16.6905 337.15 16.6905C337.906 16.6905 338.608 16.8345 339.256 17.1225C339.904 17.4105 340.48 17.8065 340.984 18.3105C341.488 18.8145 341.884 19.3905 342.172 20.0385C342.46 20.6865 342.604 21.3885 342.604 22.1445C342.604 22.9005 342.46 23.6025 342.172 24.2505C341.884 24.8985 341.488 25.4745 340.984 25.9785C340.48 26.4825 339.904 26.8785 339.256 27.1665C338.608 27.4545 337.906 27.5985 337.15 27.5985C336.394 27.5985 335.692 27.4545 335.044 27.1665C334.396 26.8785 333.82 26.4825 333.316 25.9785C332.812 25.4745 332.416 24.8985 332.128 24.2505C331.84 23.6025 331.696 22.9005 331.696 22.1445ZM375.622 58.7565C375.622 60.1605 375.172 61.2585 374.272 62.0505C373.408 62.8425 372.292 63.2385 370.924 63.2385C369.556 63.2385 368.422 62.8425 367.522 62.0505C366.658 61.2585 366.226 60.1605 366.226 58.7565V44.1225C366.226 42.7545 365.812 41.6385 364.984 40.7745C364.192 39.9105 363.112 39.4785 361.744 39.4785C360.412 39.4785 359.314 39.9105 358.45 40.7745C357.622 41.6025 357.208 42.6645 357.208 43.9605V58.7565C357.208 60.1605 356.758 61.2585 355.858 62.0505C354.994 62.8425 353.878 63.2385 352.51 63.2385C351.142 63.2385 350.008 62.8425 349.108 62.0505C348.244 61.2585 347.812 60.1605 347.812 58.7565V35.6445C347.812 34.2405 348.244 33.1425 349.108 32.3505C350.008 31.5585 351.142 31.1625 352.51 31.1625C353.626 31.1625 354.58 31.4505 355.372 32.0265C356.2 32.5665 356.758 33.3225 357.046 34.2945C357.838 33.2505 358.864 32.4765 360.124 31.9725C361.42 31.4325 362.824 31.1625 364.336 31.1625C365.776 31.1625 367.162 31.3785 368.494 31.8105C369.862 32.2425 371.068 32.9445 372.112 33.9165C373.192 34.8885 374.038 36.1305 374.65 37.6425C375.298 39.1545 375.622 40.9905 375.622 43.1505V58.7565Z" fill="white"/>
</svg>
