<svg width="78" height="124" viewBox="0 0 78 124" fill="none" xmlns="http://www.w3.org/2000/svg">
<g clip-path="url(#clip0_3850_292825)">
<path d="M31 47.5L40.5 44.5L46.5 55L35.5 57.5L31 47.5Z" fill="#85D164"/>
<path d="M0 82V75.5C6.4 77.9 11 75.8333 12.5 74.5V83.5C7.3 86.7 2 83.8333 0 82Z" fill="#FBB424"/>
<path d="M5 26.5L8 18C11.2 20.8 16.3333 20.8333 18.5 20.5V30C9.7 30.8 5.83333 28 5 26.5Z" fill="#E9E9E9"/>
<path d="M42 115L47 107.5L55 117L50.5 123.5L42 115Z" fill="#85D164"/>
<path d="M66 12V1.5L78 0V8.5L66 12Z" fill="#FBB424"/>
<path d="M47 83.5L54 74L59.5 80L54.5 90.5L47 83.5Z" fill="#FCEB45"/>
</g>
<defs>
<clipPath id="clip0_3850_292825">
<rect width="78" height="123.5" fill="white"/>
</clipPath>
</defs>
</svg>
