<svg width="483" height="127" viewBox="0 0 483 127" fill="none" xmlns="http://www.w3.org/2000/svg">
<rect x="-0.00927734" y="40.707" width="140" height="85" fill="#3AB6FF"/>
<path d="M30.4843 86.6191H140.484V125.703L30.4843 86.6191Z" fill="#1F9DE7"/>
<rect width="140" height="85" transform="matrix(-1 0 0 1 482.186 41.207)" fill="#3AB6FF"/>
<path d="M452.249 86.6191H342.249V125.703L452.249 86.6191Z" fill="#1F9DE7"/>
<rect width="422" height="86" transform="translate(28.7407 0.896484)" fill="#3AB6FF"/>
<path d="M120.149 55.1685C121.661 55.1685 123.065 54.9345 124.361 54.4665C125.657 53.9625 126.791 53.2965 127.763 52.4685C128.735 51.6405 129.527 50.6865 130.139 49.6065C130.751 48.4905 131.129 47.3025 131.273 46.0425H121.769C120.617 46.0425 119.681 45.6285 118.961 44.8005C118.241 43.9365 117.881 42.9645 117.881 41.8845C117.881 40.7685 118.241 39.7965 118.961 38.9685C119.681 38.1405 120.617 37.7265 121.769 37.7265H136.133C137.753 37.7265 138.959 38.1945 139.751 39.1305C140.579 40.0305 140.993 41.1645 140.993 42.5325C140.993 45.1605 140.561 47.7525 139.697 50.3085C138.833 52.8285 137.519 55.0785 135.755 57.0585C134.027 59.0385 131.849 60.6405 129.221 61.8645C126.629 63.0885 123.605 63.7005 120.149 63.7005C117.089 63.7005 114.209 63.1965 111.509 62.1885C108.809 61.1805 106.451 59.6685 104.435 57.6525C102.419 55.6725 100.817 53.2065 99.6287 50.2545C98.4767 47.3025 97.9007 43.8825 97.9007 39.9945C97.9007 36.1785 98.4767 32.8125 99.6287 29.8965C100.817 26.9445 102.401 24.4785 104.381 22.4985C106.397 20.4825 108.737 18.9705 111.401 17.9625C114.101 16.9185 116.981 16.3965 120.041 16.3965C121.985 16.3965 123.857 16.6305 125.657 17.0985C127.493 17.5305 129.167 18.1245 130.679 18.8805C132.227 19.6365 133.595 20.5365 134.783 21.5805C135.971 22.6245 136.907 23.7405 137.591 24.9285C138.167 25.9005 138.347 26.9805 138.131 28.1685C137.951 29.3205 137.339 30.2205 136.295 30.8685C135.827 31.1565 135.305 31.3725 134.729 31.5165C134.189 31.6245 133.631 31.6425 133.055 31.5705C132.479 31.4625 131.939 31.2825 131.435 31.0305C130.931 30.7425 130.499 30.3645 130.139 29.8965C129.131 28.6005 127.817 27.4665 126.197 26.4945C124.613 25.5225 122.561 25.0365 120.041 25.0365C118.385 25.0365 116.801 25.3605 115.289 26.0085C113.777 26.6205 112.445 27.5565 111.293 28.8165C110.141 30.0405 109.223 31.5885 108.539 33.4605C107.855 35.3325 107.513 37.5105 107.513 39.9945C107.513 42.4785 107.855 44.6745 108.539 46.5825C109.223 48.4545 110.141 50.0385 111.293 51.3345C112.445 52.5945 113.777 53.5485 115.289 54.1965C116.837 54.8445 118.457 55.1685 120.149 55.1685ZM159.781 31.2465C162.049 31.2465 164.155 31.6605 166.099 32.4885C168.079 33.2805 169.771 34.3965 171.175 35.8365C172.615 37.2405 173.749 38.9145 174.577 40.8585C175.405 42.7665 175.819 44.8365 175.819 47.0685C175.819 49.3005 175.405 51.4065 174.577 53.3865C173.749 55.3305 172.615 57.0225 171.175 58.4625C169.771 59.9385 168.079 61.0905 166.099 61.9185C164.155 62.7465 162.049 63.1605 159.781 63.1605C157.513 63.1605 155.389 62.7465 153.409 61.9185C151.465 61.0905 149.773 59.9385 148.333 58.4625C146.893 57.0225 145.759 55.3305 144.931 53.3865C144.103 51.4065 143.689 49.3005 143.689 47.0685C143.689 44.8365 144.103 42.7665 144.931 40.8585C145.759 38.9145 146.893 37.2405 148.333 35.8365C149.773 34.3965 151.465 33.2805 153.409 32.4885C155.389 31.6605 157.513 31.2465 159.781 31.2465ZM159.781 39.5625C158.809 39.5625 157.909 39.7605 157.081 40.1565C156.253 40.5165 155.533 41.0385 154.921 41.7225C154.345 42.3705 153.895 43.1625 153.571 44.0985C153.247 44.9985 153.085 45.9885 153.085 47.0685C153.085 48.1485 153.247 49.1745 153.571 50.1465C153.895 51.0825 154.345 51.9105 154.921 52.6305C155.533 53.3145 156.253 53.8545 157.081 54.2505C157.909 54.6465 158.809 54.8445 159.781 54.8445C160.717 54.8445 161.581 54.6465 162.373 54.2505C163.201 53.8545 163.903 53.3145 164.479 52.6305C165.091 51.9105 165.559 51.0825 165.883 50.1465C166.243 49.1745 166.423 48.1485 166.423 47.0685C166.423 45.9885 166.243 44.9985 165.883 44.0985C165.559 43.1625 165.091 42.3705 164.479 41.7225C163.903 41.0385 163.201 40.5165 162.373 40.1565C161.581 39.7605 160.717 39.5625 159.781 39.5625ZM194.6 31.2465C196.868 31.2465 198.974 31.6605 200.918 32.4885C202.898 33.2805 204.59 34.3965 205.994 35.8365C207.434 37.2405 208.568 38.9145 209.396 40.8585C210.224 42.7665 210.638 44.8365 210.638 47.0685C210.638 49.3005 210.224 51.4065 209.396 53.3865C208.568 55.3305 207.434 57.0225 205.994 58.4625C204.59 59.9385 202.898 61.0905 200.918 61.9185C198.974 62.7465 196.868 63.1605 194.6 63.1605C192.332 63.1605 190.208 62.7465 188.228 61.9185C186.284 61.0905 184.592 59.9385 183.152 58.4625C181.712 57.0225 180.578 55.3305 179.75 53.3865C178.922 51.4065 178.508 49.3005 178.508 47.0685C178.508 44.8365 178.922 42.7665 179.75 40.8585C180.578 38.9145 181.712 37.2405 183.152 35.8365C184.592 34.3965 186.284 33.2805 188.228 32.4885C190.208 31.6605 192.332 31.2465 194.6 31.2465ZM194.6 39.5625C193.628 39.5625 192.728 39.7605 191.9 40.1565C191.072 40.5165 190.352 41.0385 189.74 41.7225C189.164 42.3705 188.714 43.1625 188.39 44.0985C188.066 44.9985 187.904 45.9885 187.904 47.0685C187.904 48.1485 188.066 49.1745 188.39 50.1465C188.714 51.0825 189.164 51.9105 189.74 52.6305C190.352 53.3145 191.072 53.8545 191.9 54.2505C192.728 54.6465 193.628 54.8445 194.6 54.8445C195.536 54.8445 196.4 54.6465 197.192 54.2505C198.02 53.8545 198.722 53.3145 199.298 52.6305C199.91 51.9105 200.378 51.0825 200.702 50.1465C201.062 49.1745 201.242 48.1485 201.242 47.0685C201.242 45.9885 201.062 44.9985 200.702 44.0985C200.378 43.1625 199.91 42.3705 199.298 41.7225C198.722 41.0385 198.02 40.5165 197.192 40.1565C196.4 39.7605 195.536 39.5625 194.6 39.5625ZM228.61 40.1025C227.566 40.1025 226.666 40.3005 225.91 40.6965C225.154 41.0925 224.542 41.6145 224.074 42.2625C223.606 42.9105 223.264 43.6665 223.048 44.5305C222.832 45.3585 222.724 46.2225 222.724 47.1225C222.724 48.0585 222.832 48.9585 223.048 49.8225C223.264 50.6865 223.606 51.4605 224.074 52.1445C224.542 52.7925 225.154 53.3145 225.91 53.7105C226.666 54.1065 227.566 54.3045 228.61 54.3045H233.794V40.1025H228.61ZM227.962 62.6205C225.622 62.6205 223.552 62.2065 221.752 61.3785C219.952 60.5865 218.422 59.4885 217.162 58.0845C215.902 56.6805 214.948 55.0425 214.3 53.1705C213.652 51.2985 213.328 49.2825 213.328 47.1225C213.328 45.0345 213.652 43.0545 214.3 41.1825C214.948 39.3105 215.902 37.6905 217.162 36.3225C218.422 34.9185 219.952 33.8205 221.752 33.0285C223.552 32.2005 225.622 31.7865 227.962 31.7865H233.794V21.3645C233.794 19.9605 234.226 18.8445 235.09 18.0165C235.99 17.1885 237.124 16.7745 238.492 16.7745C239.86 16.7745 240.976 17.1885 241.84 18.0165C242.74 18.8445 243.19 19.9605 243.19 21.3645V56.4105C243.19 58.4625 242.668 60.0105 241.624 61.0545C240.58 62.0985 239.05 62.6205 237.034 62.6205H227.962ZM293.674 48.9585C293.674 51.3705 293.26 53.4945 292.432 55.3305C291.604 57.1665 290.47 58.6965 289.03 59.9205C287.59 61.1805 285.88 62.1165 283.9 62.7285C281.92 63.3765 279.796 63.7005 277.528 63.7005C275.26 63.7005 273.154 63.3765 271.21 62.7285C269.266 62.1165 267.574 61.1805 266.134 59.9205C264.694 58.6965 263.56 57.1665 262.732 55.3305C261.94 53.4585 261.544 51.2985 261.544 48.8505C261.544 47.5185 261.994 46.4745 262.894 45.7185C263.83 44.9265 264.982 44.5305 266.35 44.5305C267.718 44.5305 268.852 44.9265 269.752 45.7185C270.688 46.4745 271.156 47.5185 271.156 48.8505C271.156 49.7145 271.3 50.5245 271.588 51.2805C271.876 52.0005 272.29 52.6485 272.83 53.2245C273.406 53.8005 274.09 54.2505 274.882 54.5745C275.674 54.8985 276.574 55.0605 277.582 55.0605C278.59 55.0605 279.49 54.8985 280.282 54.5745C281.074 54.2505 281.74 53.8005 282.28 53.2245C282.82 52.6485 283.234 52.0005 283.522 51.2805C283.81 50.5245 283.954 49.7145 283.954 48.8505V21.3645C283.954 19.9605 284.422 18.8445 285.358 18.0165C286.294 17.1885 287.446 16.7745 288.814 16.7745C290.182 16.7745 291.334 17.1885 292.27 18.0165C293.206 18.8445 293.674 19.9605 293.674 21.3645V48.9585ZM313.839 31.2465C316.107 31.2465 318.213 31.6605 320.157 32.4885C322.137 33.2805 323.829 34.3965 325.233 35.8365C326.673 37.2405 327.807 38.9145 328.635 40.8585C329.463 42.7665 329.877 44.8365 329.877 47.0685C329.877 49.3005 329.463 51.4065 328.635 53.3865C327.807 55.3305 326.673 57.0225 325.233 58.4625C323.829 59.9385 322.137 61.0905 320.157 61.9185C318.213 62.7465 316.107 63.1605 313.839 63.1605C311.571 63.1605 309.447 62.7465 307.467 61.9185C305.523 61.0905 303.831 59.9385 302.391 58.4625C300.951 57.0225 299.817 55.3305 298.989 53.3865C298.161 51.4065 297.747 49.3005 297.747 47.0685C297.747 44.8365 298.161 42.7665 298.989 40.8585C299.817 38.9145 300.951 37.2405 302.391 35.8365C303.831 34.3965 305.523 33.2805 307.467 32.4885C309.447 31.6605 311.571 31.2465 313.839 31.2465ZM313.839 39.5625C312.867 39.5625 311.967 39.7605 311.139 40.1565C310.311 40.5165 309.591 41.0385 308.979 41.7225C308.403 42.3705 307.953 43.1625 307.629 44.0985C307.305 44.9985 307.143 45.9885 307.143 47.0685C307.143 48.1485 307.305 49.1745 307.629 50.1465C307.953 51.0825 308.403 51.9105 308.979 52.6305C309.591 53.3145 310.311 53.8545 311.139 54.2505C311.967 54.6465 312.867 54.8445 313.839 54.8445C314.775 54.8445 315.639 54.6465 316.431 54.2505C317.259 53.8545 317.961 53.3145 318.537 52.6305C319.149 51.9105 319.617 51.0825 319.941 50.1465C320.301 49.1745 320.481 48.1485 320.481 47.0685C320.481 45.9885 320.301 44.9985 319.941 44.0985C319.617 43.1625 319.149 42.3705 318.537 41.7225C317.961 41.0385 317.259 40.5165 316.431 40.1565C315.639 39.7605 314.775 39.5625 313.839 39.5625ZM343.583 40.1025V54.3045H348.767C349.811 54.3045 350.711 54.1065 351.467 53.7105C352.223 53.3145 352.835 52.7925 353.303 52.1445C353.771 51.4605 354.113 50.6865 354.329 49.8225C354.545 48.9585 354.653 48.0585 354.653 47.1225C354.653 46.2225 354.545 45.3585 354.329 44.5305C354.113 43.6665 353.771 42.9105 353.303 42.2625C352.835 41.6145 352.223 41.0925 351.467 40.6965C350.711 40.3005 349.811 40.1025 348.767 40.1025H343.583ZM340.343 62.6205C338.327 62.6205 336.797 62.0985 335.753 61.0545C334.709 60.0105 334.187 58.4625 334.187 56.4105V21.3645C334.187 19.9605 334.619 18.8445 335.483 18.0165C336.383 17.1885 337.517 16.7745 338.885 16.7745C340.253 16.7745 341.369 17.1885 342.233 18.0165C343.133 18.8445 343.583 19.9605 343.583 21.3645V31.7865H349.415C351.719 31.7865 353.771 32.2005 355.571 33.0285C357.407 33.8205 358.955 34.9185 360.215 36.3225C361.475 37.6905 362.429 39.3105 363.077 41.1825C363.725 43.0545 364.049 45.0345 364.049 47.1225C364.049 49.2825 363.725 51.2985 363.077 53.1705C362.429 55.0425 361.475 56.6805 360.215 58.0845C358.955 59.4885 357.407 60.5865 355.571 61.3785C353.771 62.2065 351.719 62.6205 349.415 62.6205H340.343ZM368.373 58.2465C368.373 57.4905 368.517 56.7885 368.805 56.1405C369.093 55.4925 369.489 54.9165 369.993 54.4125C370.497 53.9085 371.073 53.5125 371.721 53.2245C372.369 52.9365 373.071 52.7925 373.827 52.7925C374.583 52.7925 375.285 52.9365 375.933 53.2245C376.581 53.5125 377.157 53.9085 377.661 54.4125C378.165 54.9165 378.561 55.4925 378.849 56.1405C379.137 56.7885 379.281 57.4905 379.281 58.2465C379.281 59.0025 379.137 59.7045 378.849 60.3525C378.561 61.0005 378.165 61.5765 377.661 62.0805C377.157 62.5845 376.581 62.9805 375.933 63.2685C375.285 63.5565 374.583 63.7005 373.827 63.7005C373.071 63.7005 372.369 63.5565 371.721 63.2685C371.073 62.9805 370.497 62.5845 369.993 62.0805C369.489 61.5765 369.093 61.0005 368.805 60.3525C368.517 59.7045 368.373 59.0025 368.373 58.2465ZM378.147 44.9625C378.075 46.3665 377.607 47.3925 376.743 48.0405C375.879 48.6885 374.907 49.0125 373.827 49.0125C372.747 49.0125 371.775 48.6885 370.911 48.0405C370.047 47.3925 369.579 46.3665 369.507 44.9625L368.373 21.5265C368.337 20.8425 368.445 20.1945 368.697 19.5825C368.985 18.9345 369.363 18.3765 369.831 17.9085C370.335 17.4405 370.911 17.0805 371.559 16.8285C372.243 16.5405 372.999 16.3965 373.827 16.3965C374.619 16.3965 375.357 16.5405 376.041 16.8285C376.725 17.0805 377.301 17.4405 377.769 17.9085C378.273 18.3765 378.651 18.9345 378.903 19.5825C379.191 20.1945 379.317 20.8425 379.281 21.5265L378.147 44.9625Z" fill="white"/>
</svg>
