<svg width="578" height="424" viewBox="0 0 578 424" fill="none" xmlns="http://www.w3.org/2000/svg">
<path d="M536.774 300.171C536.774 300.171 551.822 279.869 556.121 270.793L576.9 281.541C575.181 290.139 565.674 304.231 561.136 310.202L536.774 300.171Z" fill="#FFA800"/>
<path d="M21.9679 373.722C22.5412 360.538 28.8944 347.21 31.9994 342.195H8.35382C1.47511 348.5 0.233118 365.84 0.471962 373.722H21.9679Z" fill="#FFA800"/>
<path d="M131.441 35.0941C131.441 35.0941 130.174 48.8201 131.122 52.6932L103.826 49.2502L104.373 29.6661C104.373 29.6661 123.758 35.0887 131.441 35.0941Z" fill="#FFA800"/>
<path d="M488.732 112.068C488.732 112.068 484.911 80.3021 483 74.0922L505.929 69.793C505.929 69.793 513.094 96.7824 512.378 105.62L488.732 112.068Z" fill="#FFA800"/>
<path d="M515.589 252.676L506.991 232.613C511.004 232.613 529.681 229.27 538.518 227.598L544.251 244.794C544.251 244.794 522.994 251.721 515.589 252.676Z" fill="#85D164"/>
<path d="M11.7447 129.653L4.80998 117.3L28.1907 110.88L33.5957 123.955C33.5957 123.955 16.2763 128.063 11.7447 129.653Z" fill="#85D164"/>
<path d="M182.845 23.721C182.845 23.721 179.74 7.47963 179.979 0.791992L164.215 6.52425C164.215 6.52425 168.275 28.9756 170.664 30.1698L182.845 23.721Z" fill="#85D164"/>
<path d="M47.555 265.273L37.5236 248.793C34.0842 252.806 19.3714 257.63 12.4449 259.541L23.1929 276.738L47.555 265.273Z" fill="#FFD465"/>
<path d="M329.369 77.821L335.538 59.5406C330.253 59.4873 317.097 51.3234 311.179 47.2481L304.922 66.538L329.369 77.821Z" fill="#85D164"/>
<path d="M243.474 40.793L232 27.1137C236.589 24.0949 249.848 18.3087 255.904 15.793C259.569 18.7804 266.708 25.2269 265.943 27.1137C265.178 29.0005 250.645 37.0194 243.474 40.793Z" fill="#FFD465"/>
<path d="M542.445 407.99L549.61 390.793L577.555 407.99L565.374 423.037C565.374 423.037 547.938 410.617 542.445 407.99Z" fill="#FFD465"/>
<path d="M437.955 77.5983H418.609V102.677H433.656L437.955 77.5983Z" fill="#E9E9E9"/>
<path d="M566.403 170.653L553.506 149.874C543.188 149.874 528.188 158.95 521.978 163.488L532.726 177.819C532.726 177.819 557.088 170.892 566.403 170.653Z" fill="#E9E9E9"/>
<path d="M525.774 316.795L509.293 305.33C496.109 312.782 489.947 327.543 488.514 333.992L505.711 342.59C505.711 342.59 519.325 322.288 525.774 316.795Z" fill="#E9E9E9"/>
<path d="M377.169 21.1638L391.5 12.5654L402.248 31.9118L391.5 39.7937L377.169 21.1638Z" fill="#E9E9E9"/>
<path d="M88.5984 119.334C88.5984 119.334 83.8215 96.8825 80 90.6725C82.8661 87.0899 90.0315 80.6411 95.7637 83.5072C101.496 86.3733 103.407 104.287 103.646 112.885L88.5984 119.334Z" fill="#E9E9E9"/>
<path d="M186.984 98.1605L194.149 84.5464L214.928 98.1605L208.48 110.342L186.984 98.1605Z" fill="#E9E9E9"/>
<path d="M491.35 149.693C491.35 149.693 468.464 147.928 461.427 149.839C458.8 146.077 454.64 137.381 459.01 132.692C463.379 128.004 481.102 131.235 489.417 133.437L491.35 149.693Z" fill="#E9E9E9"/>
<path d="M498.851 49.3352L487.818 38.6137L506.751 22.5302L516.612 32.1593L498.851 49.3352Z" fill="#E9E9E9"/>
</svg>
