<svg width="160" height="229" viewBox="0 0 160 229" fill="none" xmlns="http://www.w3.org/2000/svg">
<path d="M32.6591 39.001C32.6591 39.001 29.5803 56.6143 14.7407 61.8566C14.7407 61.8566 26.7788 63.4099 31.4387 79.4699C31.4387 79.4699 34.8504 66.4888 46.5833 61.5515C46.5833 61.5515 34.8504 59.388 32.6869 39.001H32.6591Z" fill="#FFD200"/>
<path d="M141.665 40.4699C141.665 40.4699 144.744 22.8566 159.583 17.6143C159.583 17.6143 147.545 16.061 142.885 0.000976562C142.885 0.000976562 139.474 12.9821 127.741 17.9194C127.741 17.9194 139.474 20.0829 141.637 40.4699H141.665Z" fill="#FFD200"/>
<path d="M63.3918 54.956C62.6152 54.956 61.9495 54.318 61.9495 53.5136V25.4433C61.9495 24.6667 62.5874 24.001 63.3918 24.001C64.1962 24.001 64.8342 24.6389 64.8342 25.4433V53.5136C64.8342 54.2903 64.1962 54.956 63.3918 54.956Z" fill="#FFD200"/>
<path d="M72.6007 39.7558H54.1831C53.4064 39.7558 52.7407 39.1178 52.7407 38.3134C52.7407 37.5091 53.3787 36.8711 54.1831 36.8711H72.6007C73.3774 36.8711 74.0431 37.5091 74.0431 38.3134C74.0431 39.1178 73.4051 39.7558 72.6007 39.7558Z" fill="#FFD200"/>
<path d="M10.9321 229.001C10.9321 229.001 13.3493 215.074 25 210.928C25 210.928 15.5488 209.7 11.8902 197.001C11.8902 197.001 9.21167 207.266 0 211.17C0 211.17 9.21167 212.88 10.9103 229.001H10.9321Z" fill="#FFD200"/>
</svg>
