<svg width="167" height="170" viewBox="0 0 167 170" fill="none" xmlns="http://www.w3.org/2000/svg">
<rect x="89" y="69.0002" width="24" height="23" fill="white"/>
<rect x="89" y="69.0002" width="24" height="23" fill="white"/>
<rect x="89" y="69.0002" width="24" height="23" fill="white"/>
<rect x="89" y="69.0002" width="24" height="23" fill="white"/>
<path d="M129.562 147.836C158.585 119 158.585 72.2488 129.562 43.4135C100.539 14.5782 53.4832 14.5782 24.4601 43.4135C-4.56296 72.2489 -4.56297 119 24.4601 147.836C53.4832 176.671 100.539 176.671 129.562 147.836Z" fill="#028EEC"/>
<path d="M130.142 142.052C159.372 113.011 159.372 65.9253 130.142 36.8839C100.911 7.84246 53.5191 7.84247 24.2886 36.8839C-4.94193 65.9253 -4.94193 113.011 24.2886 142.052C53.5191 171.094 100.911 171.094 130.142 142.052Z" fill="url(#paint0_linear_3850_292838)"/>
<path d="M107.797 120.299C124.8 103.406 124.8 76.0173 107.797 59.1244C90.7943 42.2314 63.2271 42.2314 46.2242 59.1243C29.2213 76.0173 29.2213 103.406 46.2242 120.299C63.2271 137.192 90.7943 137.192 107.797 120.299Z" fill="url(#paint1_linear_3850_292838)"/>
<path d="M117.413 129.852C139.726 107.683 139.726 71.7401 117.413 49.5711C95.0993 27.4021 58.9222 27.4021 36.6088 49.5711C14.2955 71.7401 14.2955 107.683 36.6088 129.852C58.9222 152.021 95.0993 152.021 117.413 129.852Z" fill="white"/>
<g style="mix-blend-mode:multiply" opacity="0.5">
<path d="M53.8205 144.253C61.1684 147.341 68.9682 148.907 77.0115 148.907C85.052 148.907 92.8547 147.341 100.203 144.253C107.298 141.271 113.669 137.006 119.139 131.568C124.609 126.131 128.905 119.804 131.907 112.755C135.014 105.454 136.59 97.7049 136.59 89.7135C136.59 81.7251 135.014 73.9729 131.907 66.6725C128.905 59.6229 124.612 53.2933 119.139 47.8589C113.669 42.4244 107.298 38.1562 100.203 35.1736C92.8547 32.0861 85.0549 30.5205 77.0115 30.5205C68.9682 30.5205 61.1684 32.0861 53.8205 35.1736C46.7249 38.1562 40.3542 42.4215 34.8844 47.8589C29.4145 53.2933 25.1185 59.6229 22.1165 66.6725C19.0089 73.9729 17.4331 81.7222 17.4331 89.7135C17.4331 97.702 19.0089 105.454 22.1165 112.755C25.1185 119.804 29.4116 126.134 34.8844 131.568C40.3542 137.003 46.7249 141.271 53.8205 144.253ZM19.8746 89.7165C19.8746 58.3634 45.4543 32.9491 77.0115 32.9491C108.569 32.9491 134.149 58.3663 134.149 89.7165C134.149 121.07 108.569 146.484 77.0115 146.484C45.4543 146.484 19.8746 121.067 19.8746 89.7165Z" fill="#E4E4E4"/>
</g>
<path d="M107.797 120.299C124.8 103.406 124.8 76.0173 107.797 59.1244C90.7943 42.2314 63.2271 42.2314 46.2242 59.1243C29.2213 76.0173 29.2213 103.406 46.2242 120.299C63.2271 137.192 90.7943 137.192 107.797 120.299Z" fill="url(#paint2_linear_3850_292838)"/>
<path d="M105.441 89.7137C105.441 74.1129 92.7109 61.4656 77.0086 61.4656C61.3062 61.4656 48.5765 74.1129 48.5765 89.7137C48.5765 105.314 61.3062 117.962 77.0086 117.962C92.7109 117.962 105.441 105.314 105.441 89.7137Z" fill="white"/>
<g style="mix-blend-mode:multiply" opacity="0.5">
<path d="M107.882 89.7136C107.882 72.8009 94.0344 59.0427 77.0116 59.0427C59.9887 59.0427 46.141 72.8009 46.141 89.7136C46.141 106.626 59.9887 120.384 77.0116 120.384C94.0344 120.384 107.882 106.626 107.882 89.7136ZM48.5795 89.7136C48.5795 74.1129 61.3092 61.4655 77.0116 61.4655C92.7139 61.4655 105.444 74.1129 105.444 89.7136C105.444 105.314 92.7139 117.962 77.0116 117.962C61.3092 117.962 48.5795 105.314 48.5795 89.7136Z" fill="#E6E6E6"/>
</g>
<path d="M94.4952 89.7137C94.4952 80.1189 86.666 72.3433 77.0116 72.3433C67.3572 72.3433 59.5281 80.1218 59.5281 89.7137C59.5281 99.3086 67.3572 107.084 77.0116 107.084C86.666 107.084 94.4952 99.3056 94.4952 89.7137Z" fill="url(#paint3_linear_3850_292838)"/>
<g style="mix-blend-mode:multiply" opacity="0.6">
<path d="M83.1093 89.5241C83.1093 86.1392 80.348 83.3958 76.9411 83.3958C73.5342 83.3958 70.7728 86.1392 70.7728 89.5241C70.7728 92.909 73.5342 95.6524 76.9411 95.6524C80.348 95.6524 83.1093 92.909 83.1093 89.5241Z" fill="#AA1A28"/>
</g>
<g style="mix-blend-mode:multiply" opacity="0.4">
<path d="M139.568 132.318L124.708 132.755L78.8456 87.1888C77.6601 86.011 75.7409 86.011 74.5554 87.1888C73.3699 88.3667 73.3699 90.2734 74.5554 91.4512L120.333 136.933L120.022 152.662C127.772 147.189 134.418 140.277 139.568 132.318Z" fill="#D2D2D2"/>
</g>
<path d="M149.51 21.5959C150.695 20.4181 150.695 18.5114 149.51 17.3335L74.7697 91.5242C75.9552 92.702 77.8743 92.702 79.0598 91.5242L149.51 21.5959Z" fill="#ACACAC"/>
<path d="M141.892 22.5433L142.009 0.420654L109.489 32.73L110.026 52.8002L111.045 53.1909L141.892 22.5433Z" fill="#EC352C"/>
<path d="M114.493 27.759L113.269 28.9748L114.088 50.2141L115.311 48.9983L114.493 27.759Z" fill="white"/>
<path d="M120.024 22.2664L118.8 23.4821L119.616 44.7185L120.84 43.5027L120.024 22.2664Z" fill="white"/>
<path d="M125.553 16.7708L124.329 17.9865L125.145 39.2258L126.368 38.01L125.553 16.7708Z" fill="white"/>
<path d="M131.081 11.2781L129.858 12.4938L130.676 33.7331L131.9 32.5174L131.081 11.2781Z" fill="white"/>
<path d="M136.613 5.78516L135.389 7.00091L136.205 28.2373L137.428 27.0215L136.613 5.78516Z" fill="white"/>
<path d="M166.441 24.6951L144.665 25.2986L113.583 55.5963L113.75 56.6546L133.922 57.0044L166.441 24.6951Z" fill="#EC342C"/>
<path d="M118.155 51.5933L117.028 52.7099L137.701 53.2493L138.828 52.1297L118.155 51.5933Z" fill="#FFC6C4"/>
<path d="M123.683 46.0977L122.559 47.2172L143.23 47.7537L144.357 46.637L123.683 46.0977Z" fill="#FFC6C4"/>
<path d="M149.885 41.1412L129.215 40.6047L128.088 41.7243L148.761 42.2607L149.885 41.1412Z" fill="#FFC6C4"/>
<path d="M155.417 35.6488L134.743 35.1123L133.616 36.2289L154.29 36.7683L155.417 35.6488Z" fill="#FFC6C4"/>
<path d="M160.945 30.1558L140.272 29.6165L139.148 30.736L159.821 31.2724L160.945 30.1558Z" fill="#FFC6C4"/>
<path d="M145.222 17.3333L74.7696 87.2616C73.5841 88.4395 73.5841 90.3462 74.7696 91.524L149.51 17.3333C148.324 16.1555 146.405 16.1555 145.219 17.3333H145.222Z" fill="#C6C6C6"/>
<rect x="26.0001" y="70.0002" width="24" height="29" fill="white"/>
<rect x="26.0001" y="70.0002" width="24" height="29" fill="white"/>
<rect x="26.0001" y="70.0002" width="24" height="29" fill="white"/>
<rect x="26.0001" y="70.0002" width="24" height="29" fill="white"/>
<rect x="29.0001" y="72.0002" width="24" height="11" fill="white"/>
<rect x="29.0001" y="72.0002" width="24" height="11" fill="white"/>
<rect x="29.0001" y="72.0002" width="24" height="11" fill="white"/>
<rect x="29.0001" y="72.0002" width="24" height="11" fill="white"/>
<rect x="97.0001" y="76" width="22" height="21" fill="white"/>
<rect x="97.0001" y="76" width="22" height="21" fill="white"/>
<rect x="97.0001" y="76" width="22" height="21" fill="white"/>
<rect x="97.0001" y="76" width="22" height="21" fill="white"/>
<path d="M46.3871 76.9927C46.0987 75.9903 45.6937 75.1047 45.1719 74.3357C44.6501 73.553 44.0116 72.894 43.2564 72.3584C42.5149 71.8092 41.6636 71.3904 40.7024 71.1021C39.755 70.8137 38.7046 70.6695 37.5512 70.6695C35.3954 70.6695 33.5005 71.205 31.8665 72.2761C30.2462 73.3471 28.983 74.9056 28.0767 76.9515C27.1705 78.9837 26.7174 81.469 26.7174 84.4074C26.7174 87.3459 27.1636 89.8449 28.0561 91.9046C28.9487 93.9643 30.2119 95.5365 31.8459 96.6212C33.4799 97.6922 35.4091 98.2278 37.6335 98.2278C39.652 98.2278 41.3753 97.8708 42.8033 97.1567C44.2451 96.429 45.3435 95.406 46.0987 94.0878C46.8677 92.7697 47.2522 91.2112 47.2522 89.4124L49.0647 89.6802H38.1897V82.9657H55.8409V88.2796C55.8409 91.987 55.0583 95.1726 53.4929 97.8364C51.9276 100.487 49.7718 102.532 47.0256 103.974C44.2794 105.402 41.135 106.116 37.5924 106.116C33.6378 106.116 30.1639 105.244 27.1705 103.5C24.1771 101.743 21.8428 99.2507 20.1676 96.0239C18.5062 92.7834 17.6755 88.9387 17.6755 84.4898C17.6755 81.0708 18.1698 78.0225 19.1584 75.3449C20.1608 72.6537 21.5613 70.3743 23.3601 68.5069C25.1589 66.6395 27.2529 65.2183 29.6421 64.2434C32.0313 63.2685 34.6196 62.781 37.407 62.781C39.7962 62.781 42.0206 63.1312 44.0803 63.8315C46.1399 64.518 47.9662 65.4929 49.559 66.7562C51.1655 68.0194 52.4768 69.523 53.4929 71.2668C54.509 72.9969 55.1612 74.9056 55.4496 76.9927H46.3871Z" fill="#EB332C"/>
<path d="M106.361 102.837C104.343 102.837 102.544 102.487 100.965 101.786C99.3857 101.072 98.1361 100.022 97.2162 98.6351C96.3099 97.2345 95.8568 95.4907 95.8568 93.4036C95.8568 91.646 96.1795 90.1699 96.8248 88.9753C97.4702 87.7807 98.349 86.8195 99.4612 86.0918C100.573 85.364 101.837 84.8148 103.251 84.444C104.679 84.0733 106.176 83.8124 107.741 83.6614C109.581 83.4691 111.064 83.2906 112.19 83.1259C113.316 82.9474 114.133 82.6865 114.641 82.3432C115.149 81.9999 115.403 81.4919 115.403 80.819V80.6955C115.403 79.391 114.991 78.3818 114.167 77.6678C113.357 76.9538 112.204 76.5967 110.707 76.5967C109.128 76.5967 107.871 76.9469 106.938 77.6472C106.004 78.3337 105.386 79.1988 105.084 80.2423L96.969 79.5833C97.3809 77.6609 98.1911 75.9994 99.3994 74.5989C100.608 73.1846 102.166 72.0998 104.075 71.3446C105.997 70.5757 108.222 70.1912 110.748 70.1912C112.506 70.1912 114.188 70.3972 115.794 70.8091C117.415 71.221 118.849 71.8595 120.099 72.7246C121.362 73.5896 122.358 74.7019 123.085 76.0612C123.813 77.4069 124.177 79.0203 124.177 80.9014V102.24H115.856V97.8524H115.609C115.101 98.8411 114.421 99.713 113.57 100.468C112.719 101.21 111.696 101.793 110.501 102.219C109.306 102.631 107.926 102.837 106.361 102.837ZM108.874 96.7814C110.165 96.7814 111.304 96.5274 112.293 96.0193C113.282 95.4976 114.057 94.7973 114.62 93.9185C115.183 93.0397 115.465 92.0442 115.465 90.932V87.5747C115.19 87.7532 114.813 87.918 114.332 88.069C113.865 88.2064 113.336 88.3368 112.746 88.4604C112.156 88.5702 111.565 88.6732 110.975 88.7693C110.384 88.8517 109.849 88.9272 109.368 88.9959C108.338 89.1469 107.439 89.3872 106.67 89.7168C105.901 90.0463 105.304 90.4926 104.878 91.0556C104.452 91.6048 104.24 92.2913 104.24 93.1152C104.24 94.3098 104.672 95.2229 105.537 95.8546C106.416 96.4725 107.528 96.7814 108.874 96.7814ZM136.858 60.0577V102.24H128.084V60.0577H136.858Z" fill="#EB332C"/>
<defs>
<linearGradient id="paint0_linear_3850_292838" x1="131.417" y1="35.6214" x2="25.0569" y2="142.669" gradientUnits="userSpaceOnUse">
<stop stop-color="#23BDEB"/>
<stop offset="0.588542" stop-color="#1DB5EF"/>
<stop offset="1" stop-color="#0698FD"/>
</linearGradient>
<linearGradient id="paint1_linear_3850_292838" x1="108.539" y1="58.39" x2="46.6711" y2="120.658" gradientUnits="userSpaceOnUse">
<stop stop-color="#C4C4C4"/>
<stop offset="0.33" stop-color="#C2C2C2"/>
<stop offset="0.63" stop-color="#ABABAB"/>
<stop offset="0.92" stop-color="#9A9A9A"/>
<stop offset="1" stop-color="#9A9A9A"/>
</linearGradient>
<linearGradient id="paint2_linear_3850_292838" x1="108.539" y1="58.39" x2="46.6711" y2="120.658" gradientUnits="userSpaceOnUse">
<stop stop-color="#23BDEB"/>
<stop offset="0.588542" stop-color="#1DB5EF"/>
<stop offset="1" stop-color="#0698FD"/>
</linearGradient>
<linearGradient id="paint3_linear_3850_292838" x1="88.5822" y1="78.9935" x2="64.5687" y2="101.531" gradientUnits="userSpaceOnUse">
<stop stop-color="#ED352B"/>
<stop offset="0.33" stop-color="#E9322B"/>
<stop offset="0.63" stop-color="#DE2C2B"/>
<stop offset="0.92" stop-color="#CB212C"/>
<stop offset="1" stop-color="#C51E2D"/>
</linearGradient>
</defs>
</svg>
