<svg width="185" height="184" viewBox="0 0 185 184" fill="none" xmlns="http://www.w3.org/2000/svg">
<path d="M92.3875 181.745C142.096 181.745 182.393 141.448 182.393 91.7396C182.393 42.0311 142.096 1.73438 92.3875 1.73438C42.679 1.73438 2.38232 42.0311 2.38232 91.7396C2.38232 141.448 42.679 181.745 92.3875 181.745Z" fill="#FDBA12"/>
<path d="M92.3876 183.355C41.8445 183.355 0.740723 142.251 0.740723 91.7084C0.740723 41.1653 41.8445 0.0615234 92.3876 0.0615234C142.931 0.0615234 184.034 41.1653 184.034 91.7084C184.034 142.251 142.931 183.355 92.3876 183.355ZM92.3876 3.34478C43.6439 3.34478 3.9924 42.9963 3.9924 91.74C3.9924 140.484 43.6439 180.135 92.3876 180.135C141.131 180.135 180.783 140.484 180.783 91.74C180.783 42.9963 141.131 3.34478 92.3876 3.34478Z" fill="black"/>
<path d="M91.6449 170.428C135.286 170.428 170.664 135.05 170.664 91.4086C170.664 47.7676 135.286 12.3896 91.6449 12.3896C48.004 12.3896 12.626 47.7676 12.626 91.4086C12.626 135.05 48.004 170.428 91.6449 170.428Z" fill="#FDBA12"/>
<path d="M91.6447 172.069C47.163 172.069 10.9841 135.89 10.9841 91.4086C10.9841 46.9269 47.163 10.748 91.6447 10.748C136.126 10.748 172.305 46.9269 172.305 91.4086C172.305 135.89 136.126 172.069 91.6447 172.069ZM91.6447 14.0313C48.9625 14.0313 14.2674 48.758 14.2674 91.4086C14.2674 134.059 48.9941 168.786 91.6447 168.786C134.295 168.786 169.022 134.059 169.022 91.4086C169.022 48.758 134.295 14.0313 91.6447 14.0313Z" fill="#F7921E"/>
</svg>
