<svg width="63" height="122" viewBox="0 0 63 122" fill="none" xmlns="http://www.w3.org/2000/svg">
<g clip-path="url(#clip0_3850_292826)">
<path d="M0 114.5L7 109.5L15 116.5C15 116.5 13.5 121.5 8 121.5L0 114.5Z" fill="#FCEB45"/>
<path d="M17.0002 85C15.0002 77 19.1668 70.6667 21.5002 68.5L32.0002 73C28.0002 76.6 27.6668 83.1667 28.0002 86L17.0002 85Z" fill="#85D164"/>
<path d="M51.5 88V79C55.9 81.4 61 81.6667 63 81.5L61.5 90C61.5 90 53.1667 89.3333 51.5 88Z" fill="#FFD767"/>
<path d="M42 7L49 0L60.5 11.5L50.5 18L42 7Z" fill="#FCEB45"/>
<path d="M1.5 32C6.3 29.2 6.83333 22.1667 6.5 19L15.5 22.5C15.9 29.7 12.6667 33.5 11 34.5L1.5 32Z" fill="#EEEEEE"/>
</g>
<defs>
<clipPath id="clip0_3850_292826">
<rect width="63" height="121.5" fill="white"/>
</clipPath>
</defs>
</svg>
