<svg width="344" height="270" viewBox="0 0 344 270" fill="none" xmlns="http://www.w3.org/2000/svg">
<g clip-path="url(#clip0_5179_36039)">
<path d="M91.3614 120.389H82.4849V394.822H91.3614V120.389Z" fill="#8A6456"/>
<path d="M92.626 396.06H81.2202V119.15H92.626V396.084V396.06ZM83.7251 393.559H90.0968V121.651H83.7251V393.559Z" fill="black"/>
<path d="M86.2543 170.502C133.143 170.502 171.153 132.554 171.153 85.7417C171.153 38.9299 133.143 0.981445 86.2543 0.981445C39.366 0.981445 1.35547 38.9299 1.35547 85.7417C1.35547 132.554 39.366 170.502 86.2543 170.502Z" fill="#F05144"/>
<path d="M86.2543 171.74C38.7343 171.74 0.0908203 133.16 0.0908203 85.7416C0.0908203 38.3234 38.7343 -0.28125 86.2543 -0.28125C133.774 -0.28125 172.418 38.2991 172.418 85.7416C172.418 133.184 133.774 171.764 86.2543 171.764V171.74ZM86.2543 2.21956C40.1205 2.21956 2.59571 39.6831 2.59571 85.7416C2.59571 131.8 40.1205 169.239 86.2299 169.239C132.339 169.239 169.864 131.776 169.864 85.7416C169.864 39.7074 132.364 2.21956 86.2543 2.21956Z" fill="black"/>
<path d="M127.943 127.941C130.688 125.217 130.683 120.776 127.944 118.038L53.9611 44.0584C53.9605 44.0579 53.96 44.0574 53.9595 44.0569C51.2362 41.3127 46.7959 41.317 44.0571 44.054C41.3122 46.7777 41.3169 51.219 44.0556 53.9576L44.0557 53.9577L118.042 127.92C118.042 127.92 118.042 127.92 118.042 127.92C119.361 129.239 121.058 129.92 122.768 129.977C122.838 129.992 122.91 130 122.983 130C124.775 130 126.585 129.298 127.943 127.941ZM127.943 127.941C127.943 127.941 127.942 127.942 127.941 127.943L127.237 127.233L127.944 127.94C127.944 127.94 127.944 127.94 127.943 127.941Z" fill="white" stroke="white" stroke-width="2" stroke-linejoin="round"/>
<path d="M53.0937 127.944L53.0938 127.944L127.924 53.9646C127.924 53.9643 127.925 53.964 127.925 53.9637C130.707 51.2355 130.674 46.7896 127.93 44.0543C125.18 41.3136 120.699 41.3178 117.933 44.0513C117.933 44.0513 117.933 44.0514 117.933 44.0514L43.0834 118.011C43.0827 118.012 43.082 118.012 43.0814 118.013C40.3039 120.738 40.3088 125.185 43.0804 127.924C44.42 129.248 46.1421 129.926 47.8749 129.977C47.9433 129.992 48.0143 130 48.0871 130C49.8934 130 51.7209 129.301 53.0937 127.944Z" fill="white" stroke="white" stroke-width="2" stroke-linejoin="round"/>
<g clip-path="url(#clip1_5179_36039)">
<path d="M265.223 214.73L291.843 298.983C291.843 298.983 289.676 326.241 235.198 327.17H220.65C166.172 326.241 164.005 298.983 164.005 298.983L190.625 214.73H265.223Z" fill="black"/>
<path d="M220.65 329.028C165.103 328.071 162.261 300.306 162.148 299.123C162.148 298.898 162.148 298.645 162.232 298.419L188.852 214.167C189.106 213.407 189.809 212.872 190.625 212.872H265.223C266.039 212.872 266.742 213.407 266.996 214.167L293.615 298.419C293.7 298.645 293.728 298.898 293.7 299.123C293.615 300.306 290.773 328.071 235.226 329.028H220.65ZM165.919 299.152C166.425 302.052 171.94 324.495 220.706 325.311H235.226C262.493 324.833 275.972 317.596 282.444 311.598C288.466 306.051 289.732 300.503 289.957 299.152L263.872 216.589H192.004L165.919 299.152Z" fill="black"/>
<path d="M241.586 10.8584L222.591 14.4346C222.591 14.4346 222.169 62.0517 202.866 77.6518C202.866 77.6518 228.867 93.083 255.318 77.6518C255.318 77.6518 236.746 71.3724 241.754 11.4497" fill="#528A51"/>
<path d="M230.077 86.297C214.093 86.297 202.106 79.3417 201.909 79.229C201.374 78.9193 201.037 78.3843 201.008 77.7648C200.98 77.1453 201.234 76.5539 201.684 76.1879C220.087 61.3198 220.706 14.8854 220.706 14.4067C220.706 13.5056 221.353 12.7735 222.226 12.6045L241.248 9.02834C242.261 8.83122 243.218 9.50704 243.415 10.5208C243.415 10.5771 243.415 10.6334 243.415 10.6897C243.527 10.9713 243.583 11.2529 243.555 11.5908C238.8 68.4723 255.712 75.8218 255.88 75.8781C256.556 76.1034 257.062 76.7229 257.147 77.455C257.231 78.1871 256.865 78.8911 256.246 79.2572C247.185 84.5511 238.124 86.3251 230.077 86.3251V86.297ZM206.13 77.2016C212.63 80.2428 231.906 87.4797 251.716 77.4832C246.397 72.9214 236.295 58.166 239.756 13.0832L224.42 15.9555C224.167 24.1216 222.197 61.348 206.13 77.2016Z" fill="black"/>
<path d="M220.2 80.9188C220.2 80.9188 171.124 67.0363 139.242 93.3369C107.36 119.638 112.96 165.227 112.96 165.227C112.96 165.227 118.335 215.576 176.105 225.938C233.875 236.301 282.106 223.46 282.106 223.46C282.106 223.46 335.121 208.958 340.299 164.608C345.476 120.257 324.991 99.9543 324.991 99.9543C324.991 99.9543 298.906 70.1056 255.205 77.9902C255.205 77.9902 238.631 84.2134 220.2 80.8906V80.9188Z" fill="#F37448"/>
<path d="M222.394 231.823C208.212 231.823 192.341 230.753 175.767 227.797C145.264 222.334 129.281 205.692 121.289 192.71C112.594 178.631 111.159 165.987 111.103 165.452C111.047 165.002 105.756 118.567 138.061 91.9288C169.942 65.6 217.526 78.2716 220.622 79.1164C238.321 82.2702 254.389 76.3568 254.558 76.3005C254.67 76.2723 254.783 76.2442 254.867 76.216C299.074 68.247 326.088 98.4899 326.37 98.7715C327.129 99.5318 347.362 120.144 342.128 164.861C339.933 183.559 328.93 199.947 310.274 212.253C296.289 221.489 283.147 225.15 282.585 225.29C282.219 225.375 257.4 231.852 222.366 231.852L222.394 231.823ZM190.4 79.1164C175.992 79.1164 156.013 81.9042 140.424 94.7729C109.724 120.116 114.733 164.551 114.789 165.002C115.014 167.029 120.755 214.111 176.415 224.108C233.116 234.273 281.15 221.771 281.628 221.658C282.134 221.517 333.489 206.959 338.441 164.382C343.45 121.44 323.865 101.475 323.668 101.278C323.331 100.883 297.667 72.3019 255.683 79.7922C253.798 80.468 237.815 85.9591 219.89 82.7208C219.834 82.7208 219.777 82.7208 219.721 82.6926C219.609 82.6645 207.424 79.2854 191.582 79.1164C191.188 79.1164 190.822 79.1164 190.428 79.1164H190.4Z" fill="black"/>
<path d="M189.443 154.808C201.425 154.808 211.139 144.772 211.139 132.393C211.139 120.014 201.425 109.979 189.443 109.979C177.461 109.979 167.748 120.014 167.748 132.393C167.748 144.772 177.461 154.808 189.443 154.808Z" fill="white"/>
<path d="M189.443 156.666C176.443 156.666 165.89 145.769 165.89 132.393C165.89 119.018 176.471 108.12 189.443 108.12C202.415 108.12 212.996 119.018 212.996 132.393C212.996 145.769 202.415 156.666 189.443 156.666ZM189.443 111.837C178.497 111.837 169.605 121.073 169.605 132.393C169.605 143.713 178.497 152.949 189.443 152.949C200.389 152.949 209.281 143.713 209.281 132.393C209.281 121.073 200.389 111.837 189.443 111.837Z" fill="black"/>
<path d="M189.218 142.868C194.844 142.868 199.404 138.103 199.404 132.224C199.404 126.346 194.844 121.58 189.218 121.58C183.592 121.58 179.031 126.346 179.031 132.224C179.031 138.103 183.592 142.868 189.218 142.868Z" fill="black"/>
<path d="M262.071 154.808C274.053 154.808 283.767 144.772 283.767 132.393C283.767 120.014 274.053 109.979 262.071 109.979C250.089 109.979 240.375 120.014 240.375 132.393C240.375 144.772 250.089 154.808 262.071 154.808Z" fill="white"/>
<path d="M262.071 156.666C249.071 156.666 238.518 145.769 238.518 132.393C238.518 119.018 249.099 108.12 262.071 108.12C275.043 108.12 285.624 119.018 285.624 132.393C285.624 145.769 275.043 156.666 262.071 156.666ZM262.071 111.837C251.125 111.837 242.233 121.073 242.233 132.393C242.233 143.713 251.125 152.949 262.071 152.949C273.017 152.949 281.909 143.713 281.909 132.393C281.909 121.073 273.017 111.837 262.071 111.837Z" fill="black"/>
<path d="M261.846 142.868C267.472 142.868 272.032 138.103 272.032 132.224C272.032 126.346 267.472 121.58 261.846 121.58C256.22 121.58 251.659 126.346 251.659 132.224C251.659 138.103 256.22 142.868 261.846 142.868Z" fill="black"/>
<path d="M226.671 144.445C226.671 144.445 223.154 144.445 218.624 151.372C214.093 158.3 209.563 165.762 209.563 165.762C209.563 165.762 207.987 167.902 208.775 169.845C209.563 171.76 215.81 173.139 223.604 173.252H230.048C237.871 173.139 244.09 171.788 244.878 169.845C245.666 167.902 244.09 165.762 244.09 165.762C244.09 165.762 239.559 158.271 235.029 151.372C230.498 144.473 226.981 144.445 226.981 144.445" fill="black"/>
<path d="M223.604 175.083C219.13 175.026 208.662 174.435 207.058 170.521C205.905 167.705 207.846 164.945 208.071 164.636C208.071 164.636 212.602 157.145 217.076 150.331C221.916 142.953 225.912 142.587 226.671 142.587C226.728 142.587 226.784 142.587 226.84 142.587C226.897 142.587 226.953 142.587 227.009 142.587C227.769 142.587 231.765 142.953 236.605 150.331C241.107 157.202 245.666 164.72 245.694 164.776C245.834 164.945 247.776 167.705 246.622 170.521C245.018 174.435 234.522 174.998 230.104 175.083H223.632H223.604ZM226.728 146.276C226.559 146.276 223.829 146.783 220.171 152.358C215.697 159.173 211.195 166.635 211.139 166.691C210.745 167.254 210.182 168.409 210.463 169.113C210.942 169.704 215.022 171.225 223.604 171.366H230.048C238.631 171.253 242.683 169.704 243.217 169.028C243.471 168.409 242.908 167.282 242.598 166.832C242.458 166.635 237.955 159.173 233.481 152.358C229.711 146.614 226.925 146.276 226.897 146.276C226.897 146.276 226.868 146.276 226.84 146.276C226.812 146.276 226.756 146.276 226.728 146.276Z" fill="black"/>
<path d="M220.425 74.5822C220.171 74.5822 219.918 74.5259 219.665 74.4133C218.736 73.9909 218.314 72.8927 218.736 71.9634C221.55 65.7403 224.786 39.8339 224.814 39.5804C224.927 38.5667 225.884 37.8346 226.897 37.9754C227.91 38.088 228.641 39.0173 228.501 40.0591C228.36 41.1573 225.152 66.7821 222.141 73.5122C221.832 74.188 221.156 74.6104 220.453 74.6104L220.425 74.5822Z" fill="black"/>
<path d="M239.25 74.5829C238.603 74.5829 237.956 74.245 237.618 73.6255C232.384 64.0232 230.893 29.8662 230.836 28.4301C230.78 27.4164 231.596 26.5434 232.609 26.4871C233.594 26.4308 234.494 27.2474 234.551 28.2611C234.551 28.5991 236.07 62.9813 240.882 71.8515C241.36 72.7526 241.051 73.8789 240.15 74.3858C239.869 74.5266 239.559 74.6111 239.278 74.6111L239.25 74.5829Z" fill="black"/>
<path d="M158.293 225.909L95.8794 209.746L90.6455 228.078L152.468 252.886L158.293 225.909Z" fill="#F37448"/>
<path d="M152.468 254.745C152.243 254.745 151.99 254.689 151.765 254.604L89.9422 229.796C89.0698 229.43 88.5915 228.473 88.8447 227.571L94.0505 209.24C94.3319 208.282 95.3168 207.691 96.3017 207.944L158.715 224.108C159.672 224.361 160.263 225.319 160.066 226.304L154.241 253.281C154.128 253.816 153.791 254.266 153.284 254.52C153.003 254.66 152.721 254.745 152.412 254.745H152.468ZM92.8968 226.98L151.117 250.352L156.098 227.262L97.1458 211.999L92.8687 226.98H92.8968Z" fill="black"/>
<path d="M76.8572 216.167C76.8572 216.167 76.8572 204.368 85.8899 203.496C94.9227 202.623 98.5527 206.368 98.412 209.691C98.2713 213.013 88.9571 212.929 88.9571 212.929C88.9571 212.929 98.018 212.591 97.6804 218.138C97.3145 223.686 89.5481 223.122 89.5481 223.122C89.5481 223.122 97.5115 223.038 97.7085 229.092C97.9055 235.146 86.2276 234.105 86.2276 234.105C86.2276 234.105 76.6321 234.471 76.8572 216.195V216.167Z" fill="#F37448"/>
<path d="M88.1973 235.991C87.2124 235.991 86.4808 235.934 86.1713 235.906C85.4678 235.906 82.6538 235.709 79.9806 233.119C76.5757 229.796 74.8873 224.079 74.9999 216.139C74.9999 211.464 77.2511 202.425 85.721 201.608C92.6433 200.933 96.2452 202.819 98.0461 204.537C99.5656 205.973 100.354 207.832 100.269 209.746C100.185 211.464 99.031 212.619 97.4552 213.351C97.624 213.492 97.7929 213.661 97.9617 213.801C99.1154 214.984 99.6501 216.505 99.5375 218.222C99.4249 220.025 98.6652 221.601 97.3708 222.728C97.1175 222.953 96.8643 223.122 96.611 223.319C98.2431 224.53 99.4812 226.332 99.5938 228.979C99.6501 230.669 99.0591 232.161 97.8491 233.288C95.401 235.597 90.8987 235.991 88.1973 235.991ZM86.1994 232.189C86.1994 232.189 86.3401 232.189 86.3964 232.189C88.9571 232.415 93.6001 232.189 95.2884 230.584C95.7105 230.19 95.8794 229.711 95.8794 229.12C95.7387 225.656 91.6303 225.065 90.1108 224.981C89.745 224.981 89.5199 224.981 89.4073 224.981C88.4224 224.896 87.6627 224.051 87.6908 223.066C87.7189 222.08 88.535 221.264 89.5199 221.264C89.7731 221.264 90.0264 221.264 90.3078 221.264C91.5459 221.264 93.7126 221.01 94.9226 219.94C95.4854 219.461 95.7668 218.842 95.8231 217.997C95.8794 217.321 95.7105 216.843 95.2884 216.392C94.0503 215.125 91.1519 214.787 89.6324 214.759C89.3792 214.759 89.154 214.759 88.9571 214.759C87.944 214.759 87.128 213.942 87.128 212.928C87.128 211.915 87.9159 211.07 88.9289 211.042C89.0415 211.042 89.2947 211.042 89.6324 211.042C92.8403 210.985 96.1889 210.281 96.611 209.521C96.611 208.761 96.2452 207.916 95.5136 207.24C94.5005 206.283 91.9398 204.762 86.0868 205.325C78.855 206.029 78.7143 215.744 78.7143 216.167C78.6018 224.671 80.6841 228.585 82.485 230.359C84.2859 232.189 86.115 232.189 86.1994 232.189Z" fill="black"/>
<path d="M117.631 216.477L114.958 237.455L188.064 270.514L202.472 232.753L117.631 216.477Z" fill="black"/>
<path d="M188.064 272.373C187.811 272.373 187.53 272.316 187.305 272.204L114.198 239.173C113.467 238.835 113.016 238.047 113.129 237.258L115.802 216.251C115.859 215.745 116.14 215.294 116.562 214.984C116.984 214.675 117.491 214.562 117.997 214.675L202.838 230.95C203.372 231.063 203.851 231.401 204.104 231.88C204.385 232.358 204.413 232.922 204.216 233.457L189.809 271.218C189.64 271.697 189.246 272.091 188.768 272.26C188.543 272.344 188.289 272.401 188.064 272.401V272.373ZM116.984 236.357L187.051 268.008L199.967 234.161L119.235 218.673L116.984 236.357Z" fill="black"/>
<path d="M175.345 198.455C174.276 198.455 173.263 197.835 172.813 196.821C172.194 195.413 172.813 193.78 174.22 193.132C233.594 166.353 277.351 192.175 279.18 193.301C280.502 194.09 280.924 195.808 280.108 197.131C279.32 198.455 277.604 198.877 276.281 198.088C275.859 197.835 233.087 172.717 176.499 198.257C176.133 198.426 175.739 198.511 175.345 198.511V198.455Z" fill="black"/>
</g>
</g>
<defs>
<clipPath id="clip0_5179_36039">
<rect width="344" height="270" fill="white"/>
</clipPath>
<clipPath id="clip1_5179_36039">
<rect width="268" height="361" fill="white" transform="translate(75 9)"/>
</clipPath>
</defs>
</svg>
