<svg width="424" height="250" viewBox="0 0 424 250" fill="none" xmlns="http://www.w3.org/2000/svg">
<g clip-path="url(#clip0_5180_15478)">
<g clip-path="url(#clip1_5180_15478)">
<path d="M316.34 196.197L341.892 276.939C341.892 276.939 339.806 303.07 287.506 303.96H273.544C221.245 303.07 219.158 276.939 219.158 276.939L244.711 196.197H316.34Z" fill="black"/>
<path d="M273.544 305.743C220.21 304.834 217.464 278.223 217.375 277.083C217.375 276.851 217.375 276.62 217.447 276.406L242.999 195.664C243.231 194.916 243.926 194.417 244.693 194.417H316.322C317.107 194.417 317.784 194.916 318.016 195.664L343.568 276.406C343.64 276.62 343.658 276.851 343.64 277.083C343.551 278.223 340.822 304.834 287.506 305.743H273.509H273.544ZM220.977 277.101C221.459 279.879 226.755 301.379 273.58 302.18H287.524C313.701 301.735 326.629 294.788 332.87 289.035C338.647 283.709 339.859 278.401 340.091 277.101L315.056 197.979H246.048L221.013 277.101H220.977Z" fill="black"/>
<path d="M293.64 0.78125L275.399 4.20117C275.399 4.20117 274.989 49.8358 256.462 64.7801C256.462 64.7801 281.426 79.582 306.818 64.7801C306.818 64.7801 288.986 58.7418 293.783 1.31561" fill="#528A51"/>
<path d="M282.585 73.0983C267.25 73.0983 255.713 66.4187 255.552 66.3297C255.053 66.0269 254.732 65.5103 254.679 64.9225C254.625 64.3347 254.875 63.7825 255.338 63.4085C273.009 49.1588 273.598 4.64639 273.616 4.20108C273.616 3.3461 274.24 2.61581 275.078 2.47331L293.319 -0.964425C294.282 -1.14255 295.21 -0.50131 295.406 0.460543C295.406 0.51398 295.423 0.585228 295.423 0.638664C295.53 0.905846 295.584 1.19084 295.566 1.49364C291.001 56.0165 307.228 63.0523 307.388 63.1235C308.048 63.3551 308.512 63.9429 308.583 64.6375C308.654 65.3322 308.316 66.0091 307.709 66.3475C299.008 71.4239 290.306 73.1161 282.585 73.1161V73.0983ZM259.582 64.3882C265.823 67.3093 284.332 74.2204 303.341 64.6553C298.241 60.2736 288.523 46.1486 291.857 2.93643L277.146 5.6973C276.914 13.5168 275.024 49.2122 259.582 64.3882Z" fill="black"/>
<path d="M273.099 67.9146C273.099 67.9146 225.988 54.609 195.371 79.8309C164.737 105.053 170.104 148.746 170.104 148.746C170.104 148.746 175.275 196.999 230.731 206.938C286.205 216.859 332.513 204.551 332.513 204.551C332.513 204.551 383.404 190.658 388.379 148.158C393.354 105.658 373.668 86.1898 373.668 86.1898C373.668 86.1898 348.615 57.6014 306.675 65.1359C306.675 65.1359 290.769 71.0852 273.081 67.9146H273.099Z" fill="#F37448"/>
<path d="M275.203 212.549C261.579 212.549 246.351 211.533 230.446 208.684C201.149 203.447 185.814 187.505 178.128 175.054C169.765 161.553 168.392 149.44 168.339 148.942C168.285 148.514 163.221 104.02 194.23 78.4593C224.847 53.2374 270.549 65.3674 273.491 66.1867C290.466 69.2148 305.908 63.5327 306.069 63.4793C306.176 63.4437 306.265 63.4081 306.372 63.3902C348.811 55.7489 374.773 84.7291 375.023 85.0141C375.772 85.7444 395.173 105.48 390.162 148.354C388.076 166.273 377.484 181.983 359.581 193.775C346.154 202.61 333.529 206.119 332.994 206.261C332.656 206.35 308.815 212.549 275.185 212.549H275.203ZM244.497 66.1867C230.66 66.1867 211.473 68.8764 196.512 81.2023C167.019 105.498 171.834 148.105 171.887 148.532C172.101 150.474 177.629 195.609 231.07 205.175C285.474 214.918 331.621 202.948 332.085 202.823C332.566 202.699 381.87 188.734 386.631 147.944C391.446 106.781 372.634 87.6503 372.437 87.4544C372.099 87.0803 347.473 59.6853 307.157 66.8636C305.338 67.5227 290.003 72.7594 272.778 69.6779C272.724 69.6779 272.671 69.6601 272.617 69.6423C272.492 69.6067 260.813 66.3649 245.602 66.2046C245.228 66.2046 244.871 66.2046 244.497 66.2046V66.1867Z" fill="black"/>
<path d="M243.57 138.754C255.082 138.754 264.415 129.136 264.415 117.272C264.415 105.409 255.082 95.791 243.57 95.791C232.057 95.791 222.725 105.409 222.725 117.272C222.725 129.136 232.057 138.754 243.57 138.754Z" fill="white"/>
<path d="M243.57 140.535C231.088 140.535 220.942 130.097 220.942 117.272C220.942 104.448 231.088 94.0098 243.57 94.0098C256.052 94.0098 266.198 104.448 266.198 117.272C266.198 130.097 256.052 140.535 243.57 140.535ZM243.57 97.5722C233.067 97.5722 224.508 106.407 224.508 117.272C224.508 128.138 233.049 136.973 243.57 136.973C254.09 136.973 262.631 128.138 262.631 117.272C262.631 106.407 254.09 97.5722 243.57 97.5722Z" fill="black"/>
<path d="M313.308 138.754C324.821 138.754 334.153 129.136 334.153 117.272C334.153 105.409 324.821 95.791 313.308 95.791C301.796 95.791 292.463 105.409 292.463 117.272C292.463 129.136 301.796 138.754 313.308 138.754Z" fill="white"/>
<path d="M313.308 140.535C300.826 140.535 290.68 130.097 290.68 117.272C290.68 104.448 300.826 94.0098 313.308 94.0098C325.79 94.0098 335.937 104.448 335.937 117.272C335.937 130.097 325.79 140.535 313.308 140.535ZM313.308 97.5722C302.806 97.5722 294.247 106.407 294.247 117.272C294.247 128.138 302.788 136.973 313.308 136.973C323.829 136.973 332.37 128.138 332.37 117.272C332.37 106.407 323.829 97.5722 313.308 97.5722Z" fill="black"/>
<path d="M324.061 132.092C330.344 132.092 335.437 125.609 335.437 117.611C335.437 109.613 330.344 103.13 324.061 103.13C317.778 103.13 312.684 109.613 312.684 117.611C312.684 125.609 317.778 132.092 324.061 132.092Z" fill="black"/>
<path d="M254.072 132.092C260.355 132.092 265.449 125.609 265.449 117.611C265.449 109.613 260.355 103.13 254.072 103.13C247.789 103.13 242.696 109.613 242.696 117.611C242.696 125.609 247.789 132.092 254.072 132.092Z" fill="black"/>
<path d="M279.322 128.814C279.322 128.814 275.952 128.814 271.601 135.441C267.25 142.067 262.899 149.245 262.899 149.245C262.899 149.245 261.383 151.311 262.132 153.164C262.899 155.016 268.872 156.316 276.379 156.423H282.585C290.092 156.316 296.065 155.016 296.832 153.164C297.599 151.311 296.065 149.245 296.065 149.245C296.065 149.245 291.715 142.067 287.364 135.441C283.013 128.814 279.643 128.814 279.643 128.814" fill="black"/>
<path d="M276.379 158.204C272.1 158.151 262.025 157.599 260.474 153.84C259.368 151.151 261.223 148.497 261.455 148.194C261.455 148.194 265.805 141.033 270.103 134.478C274.739 127.407 278.591 127.051 279.322 127.051C279.375 127.051 279.429 127.051 279.482 127.051C279.536 127.051 279.589 127.051 279.643 127.051C280.374 127.051 284.207 127.407 288.861 134.478C293.177 141.051 297.545 148.265 297.599 148.336C297.724 148.497 299.596 151.151 298.49 153.858C296.939 157.616 286.882 158.151 282.62 158.222H276.397L276.379 158.204ZM279.393 130.595C279.215 130.613 276.593 131.076 273.081 136.42C268.801 142.939 264.45 150.1 264.415 150.171C264.04 150.723 263.505 151.81 263.773 152.486C264.236 153.056 268.141 154.517 276.397 154.642H282.567C290.805 154.517 294.71 153.056 295.209 152.397C295.459 151.774 294.871 150.634 294.621 150.296C294.496 150.082 290.145 142.939 285.866 136.42C282.246 130.916 279.571 130.595 279.553 130.595C279.536 130.595 279.518 130.595 279.5 130.595C279.464 130.595 279.429 130.595 279.393 130.595Z" fill="black"/>
<path d="M273.312 61.8585C273.063 61.8585 272.813 61.805 272.581 61.6981C271.69 61.2885 271.28 60.2376 271.69 59.3469C274.382 53.3799 277.485 28.5498 277.521 28.3005C277.646 27.3208 278.537 26.6261 279.518 26.7508C280.499 26.8755 281.194 27.7661 281.069 28.7458C280.944 29.7967 277.859 54.3596 274.953 60.8253C274.65 61.4844 274.008 61.8763 273.33 61.8763L273.312 61.8585Z" fill="black"/>
<path d="M291.376 61.859C290.752 61.859 290.128 61.5206 289.807 60.9328C284.796 51.7239 283.369 18.9853 283.298 17.5959C283.262 16.6163 284.029 15.7791 285.01 15.7435C285.991 15.7257 286.829 16.4738 286.864 17.4534C286.864 17.7919 288.309 50.7443 292.945 59.2228C293.409 60.0778 293.088 61.1643 292.232 61.6452C291.964 61.7877 291.661 61.859 291.376 61.859Z" fill="black"/>
<path d="M278.27 173.772C248.402 173.772 229.001 159.807 228.716 159.594C227.521 158.721 227.272 157.046 228.163 155.853C229.037 154.66 230.713 154.41 231.908 155.283C232.318 155.586 273.188 184.798 327.324 155.087C328.626 154.375 330.248 154.856 330.962 156.138C331.675 157.438 331.193 159.059 329.909 159.772C310.812 170.245 293.248 173.754 278.287 173.754L278.27 173.772Z" fill="black"/>
</g>
<g clip-path="url(#clip2_5180_15478)">
<path d="M317.41 222.968L332.303 242.388C332.303 242.388 355.08 232.832 365.993 219.008C376.907 205.184 352.512 195.78 352.512 195.78C352.512 195.78 350.124 208.378 317.41 222.943V222.968Z" fill="black"/>
<path d="M316.83 224.068L316.87 224.107H317.076V223.607C317.076 224.107 317.076 224.107 317.076 224.107H317.076H317.077H317.077L317.079 224.107L317.083 224.107L317.094 224.107C317.103 224.107 317.115 224.107 317.129 224.106C317.157 224.105 317.197 224.103 317.241 224.098C317.299 224.093 317.421 224.079 317.542 224.032C318.87 223.703 338.623 218.472 351.54 199.408L351.549 199.395L351.557 199.38L355.204 193.145L355.212 193.132L355.219 193.118L355.221 193.112C355.275 193.006 355.806 191.944 356.628 190.99C357.498 189.978 358.51 189.295 359.52 189.568C360.666 189.879 361.096 190.414 361.268 190.818C361.359 191.032 361.389 191.236 361.394 191.396C361.396 191.476 361.392 191.544 361.386 191.593C361.381 191.645 361.374 191.673 361.374 191.672L361.359 191.732V191.794V191.795V191.795V191.796V191.796V191.797V191.797V191.797V191.798V191.798V191.799V191.799V191.8V191.8V191.801V191.801V191.801V191.802V191.802V191.803V191.803V191.804V191.804V191.804V191.805V191.805V191.806V191.806V191.807V191.807V191.808V191.808V191.808V191.809V191.809V191.81V191.81V191.811V191.811V191.811V191.812V191.812V191.813V191.813V191.814V191.814V191.814V191.815V191.815V191.816V191.816V191.816V191.817V191.817V191.818V191.818V191.819V191.819V191.819V191.82V191.82V191.821V191.821V191.822V191.822V191.822V191.823V191.823V191.824V191.824V191.824V191.825V191.825V191.826V191.826V191.827V191.827V191.827V191.828V191.828V191.829V191.829V191.829V191.83V191.83V191.831V191.831V191.831V191.832V191.832V191.833V191.833V191.833V191.834V191.834V191.835V191.835V191.835V191.836V191.836V191.837V191.837V191.837V191.838V191.838V191.839V191.839V191.839V191.84V191.84V191.841V191.841V191.841V191.842V191.842V191.843V191.843V191.843V191.844V191.844V191.845V191.845V191.845V191.846V191.846V191.847V191.847V191.847V191.848V191.848V191.849V191.849V191.849V191.85V191.85V191.851V191.851V191.851V191.852V191.852V191.852V191.853V191.853V191.854V191.854V191.854V191.855V191.855V191.856V191.856V191.856V191.857V191.857V191.858V191.858V191.858V191.859V191.859V191.859V191.86V191.86V191.861V191.861V191.861V191.862V191.862V191.863V191.863V191.863V191.864V191.864V191.864V191.865V191.865V191.866V191.866V191.866V191.867V191.867V191.868V191.868V191.868V191.869V191.869V191.869V191.87V191.87V191.871V191.871V191.871V191.872V191.872V191.872V191.873V191.873V191.874V191.874V191.874V191.875V191.875V191.875V191.876V191.876V191.877V191.877V191.877V191.878V191.878V191.879V191.879V191.879V191.88V191.88V191.88V191.881V191.881V191.882V191.882V191.882V191.883V191.883V191.883V191.884V191.884V191.885V191.885V191.885V191.886V191.886V191.886V191.887V191.887V191.888V191.888V191.888V191.889V191.889V191.889V191.89V191.89V191.891V191.891V191.891V191.892V191.892V191.892V191.893V191.893V191.894V191.894V191.894V191.895V191.895V191.895V191.896V191.896V191.897V191.897V191.897V191.898V191.898V191.898V191.899V191.899V191.9V191.9V191.9V191.901V191.901V191.901V191.902V191.902V191.903V191.903V191.903V191.904V191.904V191.904V191.905V191.905V191.906V191.906V191.906V191.907V191.907V191.907V191.908V191.908V191.909V191.909V191.909V191.91V191.91V191.91V191.911V191.911V191.912V191.912V191.912V191.913V191.913V191.913V191.914V191.914V191.915V191.915V191.915V191.916V191.916V191.916V191.917V191.917V191.918V191.918V191.918V191.919V191.919V191.919V191.92V191.92V191.921V191.921V191.921V191.922V191.922V191.922V191.923V191.923V191.924V191.924V191.924V191.925V191.925V191.926V191.926V191.926V191.927V191.927V191.927V191.928V191.928V191.929V191.929V191.929V191.93V191.93V191.93V191.931V191.931V191.932V191.932V191.932V191.933V191.933V191.934V191.934V191.934V191.935V191.935V191.935V191.936V191.936V191.937V191.937V191.937V191.938V191.938V191.939V191.939V191.939V191.94V191.94V191.941V191.941V191.941V191.942V191.942V191.942V191.943V191.943V191.944V191.944V191.944V191.945V191.945V191.946V191.946V191.946V191.947V191.947V191.948V191.948V191.948V191.949V191.949V191.95V191.95V191.95V191.951V191.951V191.952V191.952V191.952V191.953V191.953V191.954V191.954V191.954V191.955V191.955V191.956V191.956V191.956V191.957V191.957V191.958V191.958V191.958V191.959V191.959V191.96V191.96V191.96V191.961V191.961V191.962V191.962V191.962V191.963V191.963V191.964V191.964V191.964V191.965V191.965V191.966V191.966V191.967V191.967V191.967V191.968V191.968V191.969V191.969V191.969V191.97V191.97V191.971V191.971V191.971V191.972V191.972V191.973V191.973V191.974V191.974V191.974V191.975V191.975V191.976V191.976V191.977V191.977V191.977V191.978V191.978V191.979V191.979V191.979V191.98V191.98V191.981V191.981V191.982V191.982V191.982V191.983V191.983V191.984V191.984V191.985V191.985V191.986V191.986V191.986V191.987V191.987V191.988V191.988V191.989V191.989V191.989V191.99V191.99V191.991V191.991V191.992V191.992V191.992V191.993V191.993V191.994V191.994V191.995V191.995V191.996V191.996V191.996V191.997V191.997V191.998V191.998V191.999C361.359 191.998 361.359 192.001 361.358 192.008C361.338 192.246 360.929 197.035 356.833 201.791C356.156 202.571 356.274 203.704 357.04 204.362L357.04 204.362L357.05 204.371C357.816 204.995 358.946 204.931 359.618 204.157L359.62 204.155C364.287 198.711 364.935 193.283 365.001 192.288C365.153 191.416 365.082 190.152 364.449 188.954C363.799 187.725 362.577 186.605 360.5 186.048C357.816 185.327 355.686 186.69 354.271 188.154C352.903 189.569 352.112 191.167 351.998 191.397C351.997 191.399 351.996 191.401 351.995 191.403L348.468 197.43C342.338 206.474 334.426 212.241 328.013 215.752C324.805 217.508 321.976 218.698 319.939 219.449C318.92 219.825 318.1 220.091 317.53 220.263C317.245 220.349 317.023 220.412 316.871 220.453C316.795 220.474 316.736 220.489 316.697 220.498C316.678 220.503 316.666 220.506 316.66 220.507L316.651 220.508L316.622 220.516C315.646 220.758 315.029 221.739 315.283 222.711L315.283 222.712C315.475 223.447 316.103 223.978 316.83 224.068Z" fill="black" stroke="black"/>
<path d="M365.12 207.432C365.454 207.432 365.788 207.305 366.045 207.049C366.302 206.794 372.259 200.917 371.026 194.528C370.641 192.459 369.666 190.925 368.176 189.954C365.711 188.37 362.707 189.035 362.578 189.06C361.859 189.239 361.423 189.929 361.602 190.644C361.782 191.36 362.476 191.794 363.195 191.615C363.246 191.615 365.275 191.181 366.764 192.152C367.611 192.714 368.176 193.66 368.433 194.988C369.383 199.997 364.247 205.082 364.196 205.133C363.682 205.644 363.657 206.487 364.196 206.998C364.453 207.254 364.787 207.381 365.146 207.381L365.12 207.432Z" fill="black"/>
<path d="M373.517 197.978C372.644 197.262 370.872 197.543 370.333 197.697C369.614 197.901 368.895 197.492 368.69 196.802M373.517 197.978L334.101 242.95C367.483 225.651 376.239 206.742 376.778 200.916C376.984 198.668 376.445 197.007 375.186 195.959C373.081 194.222 369.948 195.065 369.588 195.167C368.895 195.371 368.484 196.112 368.69 196.802M373.517 197.978C374.082 198.438 374.288 199.332 374.159 200.661L373.517 197.978ZM368.69 196.802L368.211 196.945C367.924 195.984 368.494 194.968 369.447 194.687L369.452 194.686L369.452 194.686C369.651 194.629 370.574 194.38 371.73 194.373C372.881 194.366 374.325 194.6 375.505 195.574L375.506 195.575C376.934 196.764 377.491 198.615 377.276 200.962L377.276 200.962C376.994 204.017 374.602 210.295 368.138 217.953C361.674 225.612 351.115 234.682 334.433 243.342L334.722 243.629H333.51C332.848 243.629 332.205 243.28 331.882 242.638C331.428 241.734 331.774 240.642 332.664 240.181C348.689 231.864 358.83 223.176 365.02 215.958C371.227 208.72 373.432 202.995 373.662 200.613L373.662 200.613C373.787 199.31 373.556 198.654 373.202 198.366L373.2 198.365C372.903 198.121 372.39 198.011 371.8 198.011C371.23 198.011 370.698 198.113 370.47 198.178C369.486 198.457 368.494 197.896 368.211 196.945L368.69 196.802Z" fill="black" stroke="black"/>
<path d="M392.587 176.259C391.254 176.918 389.335 177.172 387.12 177.142C384.78 177.11 382.184 176.763 379.754 176.311C377.326 175.858 375.078 175.304 373.435 174.862C372.614 174.641 371.945 174.448 371.482 174.311C371.294 174.255 371.139 174.208 371.023 174.173C364.086 149.161 366.044 135.153 370.773 127.47C375.503 119.786 383.093 118.296 387.717 118.521C392.32 118.744 395.914 120.725 397.81 124.256C399.716 127.806 399.967 133.034 397.617 139.859C395.221 146.819 393.965 156.005 393.307 163.423C392.977 167.137 392.796 170.419 392.697 172.773C392.648 173.949 392.619 174.895 392.603 175.546C392.595 175.849 392.59 176.089 392.587 176.259Z" fill="#F37448" stroke="black"/>
<path d="M370.628 176.737L371.27 176.927V176.911C373.766 177.669 381.576 179.875 387.923 179.875C390.44 179.875 392.806 179.543 394.538 178.558L394.54 178.557L395.208 178.174L395.459 178.029V177.74V176.973C395.459 176.973 395.459 176.968 395.459 176.953L395.46 176.895C395.46 176.847 395.462 176.777 395.463 176.687C395.467 176.508 395.473 176.25 395.482 175.92C395.5 175.26 395.531 174.314 395.583 173.143C395.686 170.801 395.872 167.559 396.201 163.907C396.862 156.59 398.097 147.665 400.387 141.005C403.717 131.401 401.92 125.584 399.737 122.393C397.347 118.865 393.284 116.84 388.409 116.604V116.604L388.405 116.604C385.185 116.474 376.998 116.914 370.996 124.379L370.996 124.38C367.067 129.283 365.001 136.058 364.749 144.59C364.497 153.121 366.056 163.445 369.414 175.494L369.592 176.18L369.664 176.453L369.935 176.533L370.628 176.737ZM396.951 139.861L396.951 139.861C392.716 152.154 391.977 170.928 391.848 175.799C390.813 176.134 389.466 176.277 387.919 176.268C386.222 176.258 384.325 176.065 382.414 175.77C378.731 175.202 375.032 174.262 372.668 173.559C365.004 145.392 369.166 132.494 373.856 126.641C378.793 120.513 385.551 120.136 388.233 120.261L388.234 120.261C392.092 120.434 394.986 121.911 396.728 124.463C399.088 127.95 399.241 133.227 396.951 139.861Z" fill="black" stroke="black"/>
<path d="M401.558 198.387C401.558 198.387 405.744 164.99 374.416 168.133C343.063 171.275 347.222 186.275 347.222 186.275C347.222 186.275 348.84 196.036 353.129 195.653C353.129 195.653 346.581 198.719 347.556 206.589C348.532 214.434 357.057 217.372 357.057 217.372C357.057 217.372 351.28 218.982 352.846 226.418C354.412 233.828 364.478 239.859 376.932 238.147C389.386 236.435 399.427 226.111 401.558 198.387Z" fill="#F37448"/>
<path d="M353.668 194.221L353.629 193.723C353.281 193.75 352.879 193.559 352.426 193.048C351.979 192.545 351.556 191.809 351.175 190.952C350.415 189.241 349.88 187.169 349.668 185.862L349.642 185.702L349.634 185.694C349.568 185.405 348.945 182.533 351.227 179.279L351.228 179.277C353.574 175.898 359.639 171.383 375.235 169.83C376.559 169.704 377.826 169.628 379.038 169.628C385.516 169.628 390.559 171.464 394.113 175.099L394.114 175.101C398.084 179.137 399.661 184.807 400.234 189.544C400.747 193.792 400.446 197.172 400.378 197.944C400.37 198.034 400.365 198.089 400.365 198.105V198.137C399.468 209.946 397.052 219.018 393.19 225.359C389.338 231.682 384.045 235.297 377.327 236.22L377.326 236.22C371.309 237.05 366.107 236.003 362.256 233.976C358.395 231.944 355.928 228.952 355.287 225.906L355.287 225.904C354.661 222.974 355.405 221.28 356.247 220.313C357.101 219.331 358.122 219.024 358.193 219.003C358.957 218.794 359.535 218.099 359.535 217.295C359.535 216.533 359.052 215.794 358.293 215.543C358.293 215.543 358.293 215.543 358.292 215.542C358.26 215.531 357.795 215.362 357.097 215.015C356.371 214.655 355.404 214.108 354.414 213.352C352.43 211.837 350.405 209.524 350.004 206.247C349.236 199.862 354.385 197.259 354.554 197.175C355.364 196.787 355.749 195.906 355.539 195.07C355.323 194.209 354.502 193.653 353.628 193.723L353.668 194.221ZM353.668 194.221C354.31 194.17 354.9 194.579 355.054 195.192C355.208 195.805 354.926 196.444 354.335 196.725L349.174 185.942C349.611 188.625 351.357 194.4 353.668 194.221ZM348.172 177.277L348.171 177.277C345.128 181.702 345.912 185.776 346.09 186.528C346.187 187.085 346.526 188.876 347.22 190.836C347.848 192.612 348.793 194.605 350.17 195.916C347.912 198.073 345.79 201.675 346.418 206.701C347.117 212.359 351.092 215.725 353.977 217.46C352.157 219.238 350.79 222.212 351.741 226.674C352.677 231.134 355.757 234.503 359.786 236.746C363.814 238.988 368.824 240.128 373.723 240.128C375.108 240.128 376.492 240.024 377.846 239.843L377.848 239.842C385.592 238.773 391.675 234.715 396.05 227.76C400.41 220.827 403.066 211.03 404.033 198.462C404.105 197.878 404.547 193.766 403.861 188.645C403.17 183.493 401.329 177.256 396.754 172.586C391.66 167.386 384.249 165.274 374.88 166.203L374.879 166.203C361.398 167.56 352.337 171.232 348.172 177.277Z" fill="black" stroke="black"/>
<path d="M352.051 195.892C352.158 196.393 352.473 196.805 352.883 197.057L352.585 197.353L353.796 197.353L353.796 197.327C353.796 197.327 353.796 197.327 353.796 197.327L353.796 197.353H353.796H353.796L353.797 197.353L353.798 197.353L353.801 197.353L353.809 197.353L353.837 197.352C353.859 197.352 353.891 197.351 353.926 197.349C353.986 197.346 354.092 197.338 354.19 197.315C360.475 195.965 365.118 195.278 368.194 194.929C369.733 194.754 370.879 194.664 371.644 194.617C372.027 194.594 372.313 194.581 372.506 194.575C372.602 194.572 372.675 194.57 372.724 194.569C372.774 194.568 372.798 194.568 372.798 194.568C373.785 194.568 374.633 193.765 374.633 192.739C374.633 191.758 373.829 190.91 372.824 190.91C372.529 190.91 366.434 190.914 353.434 193.732C352.461 193.94 351.804 194.887 352.051 195.892Z" fill="black" stroke="black"/>
<path d="M357.879 219.073H357.909L357.939 219.07L373.728 217.154C374.731 217.045 375.429 216.125 375.324 215.147C375.216 214.142 374.288 213.449 373.31 213.553L373.31 213.553L373.303 213.554L357.514 215.47C356.511 215.579 355.813 216.499 355.918 217.477L355.918 217.477L355.919 217.481C356.026 218.407 356.813 219.073 357.725 219.073H357.725H357.725H357.725H357.725H357.725H357.725H357.725H357.725H357.725H357.725H357.725H357.725H357.725H357.725H357.725H357.725H357.725H357.725H357.725H357.726H357.726H357.726H357.726H357.726H357.726H357.726H357.726H357.726H357.726H357.726H357.726H357.726H357.726H357.726H357.727H357.727H357.727H357.727H357.727H357.727H357.727H357.727H357.727H357.727H357.727H357.728H357.728H357.728H357.728H357.728H357.728H357.728H357.728H357.728H357.729H357.729H357.729H357.729H357.729H357.729H357.729H357.729H357.73H357.73H357.73H357.73H357.73H357.73H357.73H357.731H357.731H357.731H357.731H357.731H357.731H357.732H357.732H357.732H357.732H357.732H357.732H357.733H357.733H357.733H357.733H357.733H357.733H357.734H357.734H357.734H357.734H357.734H357.735H357.735H357.735H357.735H357.735H357.736H357.736H357.736H357.736H357.736H357.737H357.737H357.737H357.737H357.737H357.738H357.738H357.738H357.738H357.739H357.739H357.739H357.739H357.739H357.74H357.74H357.74H357.74H357.741H357.741H357.741H357.741H357.742H357.742H357.742H357.742H357.743H357.743H357.743H357.743H357.744H357.744H357.744H357.744H357.745H357.745H357.745H357.745H357.746H357.746H357.746H357.746H357.747H357.747H357.747H357.748H357.748H357.748H357.748H357.749H357.749H357.749H357.749H357.75H357.75H357.75H357.751H357.751H357.751H357.752H357.752H357.752H357.752H357.753H357.753H357.753H357.754H357.754H357.754H357.755H357.755H357.755H357.755H357.756H357.756H357.756H357.757H357.757H357.757H357.758H357.758H357.758H357.759H357.759H357.759H357.76H357.76H357.76H357.76H357.761H357.761H357.761H357.762H357.762H357.762H357.763H357.763H357.763H357.764H357.764H357.764H357.765H357.765H357.765H357.766H357.766H357.767H357.767H357.767H357.768H357.768H357.768H357.769H357.769H357.769H357.77H357.77H357.77H357.771H357.771H357.771H357.772H357.772H357.772H357.773H357.773H357.774H357.774H357.774H357.775H357.775H357.775H357.776H357.776H357.776H357.777H357.777H357.778H357.778H357.778H357.779H357.779H357.779H357.78H357.78H357.78H357.781H357.781H357.782H357.782H357.782H357.783H357.783H357.783H357.784H357.784H357.785H357.785H357.785H357.786H357.786H357.787H357.787H357.787H357.788H357.788H357.788H357.789H357.789H357.79H357.79H357.79H357.791H357.791H357.792H357.792H357.792H357.793H357.793H357.793H357.794H357.794H357.795H357.795H357.795H357.796H357.796H357.797H357.797H357.797H357.798H357.798H357.799H357.799H357.799H357.8H357.8H357.801H357.801H357.801H357.802H357.802H357.803H357.803H357.803H357.804H357.804H357.805H357.805H357.805H357.806H357.806H357.807H357.807H357.807H357.808H357.808H357.809H357.809H357.809H357.81H357.81H357.811H357.811H357.811H357.812H357.812H357.813H357.813H357.813H357.814H357.814H357.815H357.815H357.815H357.816H357.816H357.817H357.817H357.817H357.818H357.818H357.819H357.819H357.819H357.82H357.82H357.821H357.821H357.821H357.822H357.822H357.823H357.823H357.823H357.824H357.824H357.825H357.825H357.825H357.826H357.826H357.827H357.827H357.827H357.828H357.828H357.829H357.829H357.829H357.83H357.83H357.831H357.831H357.831H357.832H357.832H357.833H357.833H357.833H357.834H357.834H357.834H357.835H357.835H357.836H357.836H357.836H357.837H357.837H357.838H357.838H357.838H357.839H357.839H357.84H357.84H357.84H357.841H357.841H357.842H357.842H357.842H357.843H357.843H357.843H357.844H357.844H357.845H357.845H357.845H357.846H357.846H357.847H357.847H357.847H357.848H357.848H357.848H357.849H357.849H357.85H357.85H357.85H357.851H357.851H357.851H357.852H357.852H357.853H357.853H357.853H357.854H357.854H357.854H357.855H357.855H357.855H357.856H357.856H357.857H357.857H357.857H357.858H357.858H357.858H357.859H357.859H357.859H357.86H357.86H357.861H357.861H357.861H357.862H357.862H357.862H357.863H357.863H357.863H357.864H357.864H357.864H357.865H357.865H357.865H357.866H357.866H357.866H357.867H357.867H357.867H357.868H357.868H357.869H357.869H357.869H357.87H357.87H357.87H357.871H357.871H357.871H357.871H357.872H357.872H357.872H357.873H357.873H357.873H357.874H357.874H357.874H357.875H357.875H357.875H357.876H357.876H357.876H357.877H357.877H357.877H357.878H357.878H357.878H357.878H357.879H357.879Z" fill="black" stroke="black"/>
</g>
</g>
<defs>
<clipPath id="clip0_5180_15478">
<rect width="424" height="250" fill="white"/>
</clipPath>
<clipPath id="clip1_5180_15478">
<rect width="223" height="346" fill="white" transform="translate(168 -1)"/>
</clipPath>
<clipPath id="clip2_5180_15478">
<rect width="94" height="131" fill="white" transform="translate(316 112)"/>
</clipPath>
</defs>
</svg>
