<svg width="344" height="270" viewBox="0 0 344 270" fill="none" xmlns="http://www.w3.org/2000/svg">
<g clip-path="url(#clip0_4758_34637)">
<g clip-path="url(#clip1_4758_34637)">
<path d="M228.404 229.422C228.108 229.52 114.731 229.125 114.731 229.125C114.731 229.125 112.065 220.386 105.005 223.348C97.9454 226.311 102.092 232.631 102.092 232.631C102.092 232.631 104.191 236.014 109.448 234.236L115.422 247.247L237.364 253.271L228.404 229.422Z" fill="#FFE800"/>
<path d="M131.294 229.644C131.294 229.644 130.554 243.617 132.553 248.481L115.348 247.889L109.498 235.125C109.498 235.125 100.809 237.939 101.228 228.607C101.228 228.607 101.352 221.373 109.374 223.422C109.374 223.422 112.978 224.558 114.509 229.57L131.319 229.644H131.294Z" fill="#F37448"/>
<path d="M237.463 255.098C237.463 255.098 237.414 255.098 237.389 255.098L115.447 249.074C114.904 249.05 114.435 248.729 114.188 248.235L108.733 236.36C103.351 237.569 101.031 233.965 100.932 233.792C100.858 233.693 98.7599 230.434 99.7967 227.077C100.414 225.028 102.018 223.448 104.536 222.386C106.807 221.423 108.93 221.423 110.88 222.312C113.645 223.596 115.175 226.484 115.842 228.04C154.448 228.188 226.009 228.41 228.379 228.336C229.021 228.262 229.638 228.657 229.86 229.274L238.821 253.123C238.993 253.592 238.919 254.086 238.623 254.481C238.352 254.851 237.907 255.074 237.438 255.074L237.463 255.098ZM116.459 246.21L235.315 252.086L227.49 231.249C222.8 231.299 202.855 231.274 114.83 230.978C114.188 230.978 113.62 230.558 113.447 229.941C113.447 229.916 112.262 226.188 109.646 224.978C108.461 224.435 107.177 224.484 105.672 225.102C103.993 225.818 102.956 226.756 102.586 227.941C101.944 229.965 103.376 232.237 103.401 232.261C103.573 232.508 105.104 234.607 109.078 233.274C109.794 233.027 110.559 233.372 110.855 234.039L116.459 246.235V246.21Z" fill="black"/>
<path d="M246.127 198.487C246.127 198.487 273.453 243.791 265.702 274.602C257.951 305.414 229.194 306.426 229.194 306.426H212.063C212.063 306.426 183.305 305.414 175.554 274.602C167.803 243.791 195.129 198.487 195.129 198.487H246.127Z" fill="#FFE800"/>
<path d="M212.038 307.882C211.692 307.882 182.046 306.45 174.098 274.947C170.815 261.862 173.135 244.877 181.034 224.459C186.884 209.35 193.771 197.845 193.845 197.722C194.117 197.277 194.586 197.03 195.08 197.03H246.078C246.596 197.03 247.065 197.302 247.312 197.722C247.386 197.845 254.273 209.325 260.124 224.459C268.023 244.877 270.343 261.862 267.06 274.947C259.136 306.45 229.49 307.857 229.194 307.882H212.013H212.038ZM195.943 199.944C192.562 205.77 169.951 246.432 176.936 274.231C180.047 286.576 186.909 295.513 197.351 300.747C205.126 304.672 212.038 304.944 212.087 304.944H229.169C229.169 304.944 236.179 304.623 243.98 300.673C254.347 295.414 261.185 286.502 264.271 274.207C271.256 246.407 248.645 205.745 245.263 199.919H195.919L195.943 199.944Z" fill="black"/>
<path d="M238.673 250.753C238.673 250.753 251.904 254.506 255.902 261.419C255.902 261.419 251.78 282.774 244.128 283.145C236.476 283.515 243.634 283.145 243.634 283.145L240.475 281.194L235.612 280.947L233.785 278.997C233.785 278.997 228.577 278.281 230.255 272.578C231.934 266.875 239.24 262.628 238.623 250.729L238.673 250.753Z" fill="#F37448"/>
<path d="M233.513 279.836C232.452 279.836 231.242 279.441 230.107 278.33C227.589 275.936 229.07 272.109 230.329 270.257L233.02 265.344C240.425 249.494 235.858 234.064 235.834 233.916C235.612 233.15 236.031 232.336 236.796 232.089C237.562 231.866 238.376 232.286 238.623 233.051C238.821 233.718 243.56 249.667 235.636 266.653L232.822 271.763C232.724 271.911 230.798 274.948 232.131 276.232C233.242 277.293 234.032 276.923 234.402 276.602C234.451 276.577 234.501 276.503 234.55 276.479C234.575 276.479 237.833 274.183 239.462 269.294C239.709 268.529 240.549 268.134 241.314 268.381C242.079 268.628 242.499 269.467 242.227 270.232C240.4 275.689 236.895 278.404 236.253 278.849C235.612 279.392 234.624 279.836 233.513 279.836Z" fill="black"/>
<path d="M244.078 284.947C243.585 284.947 243.19 284.848 242.844 284.725C240.598 283.935 239.833 281.219 239.734 280.923C239.536 280.133 240.005 279.343 240.771 279.145C241.536 278.948 242.35 279.417 242.548 280.182C242.671 280.676 243.165 281.762 243.807 281.984C244.35 282.182 245.14 281.688 245.559 281.367C248.818 278.972 257.729 265.641 256.001 236.78C255.952 235.965 256.569 235.298 257.359 235.249C258.198 235.199 258.84 235.817 258.889 236.607C260.691 266.9 251.114 280.898 247.263 283.713C246.004 284.651 244.918 284.922 244.054 284.922L244.078 284.947Z" fill="black"/>
<path d="M287.104 197.673C290.412 206.166 281.007 213.967 273.28 209.128C274.934 218.09 264.196 223.966 257.532 217.769C257.457 226.88 245.806 230.632 240.425 223.275C238.623 232.212 226.478 233.694 222.603 225.448C219.147 233.866 206.953 233.027 204.682 224.213C199.695 231.842 187.871 228.682 187.328 219.596C180.984 226.139 169.975 220.806 171.16 211.77C163.705 216.979 153.881 209.672 156.769 201.031C148.45 204.734 140.205 195.698 144.649 187.773C135.787 189.847 129.394 179.403 135.269 172.441C126.16 172.787 121.865 161.331 128.949 155.628C119.939 154.246 117.891 142.198 125.938 137.927C117.347 134.865 117.619 122.644 126.333 119.953C118.483 115.337 121.05 103.363 130.109 102.4C123.272 96.3757 128.061 85.1177 137.145 85.8831C131.566 78.674 138.403 68.527 147.191 70.9959C143.094 62.8733 151.708 54.2076 159.879 58.2566C157.386 49.4921 167.507 42.6287 174.739 48.1589C173.949 39.0735 185.181 34.2346 191.229 41.0486C192.167 31.9879 204.114 29.3709 208.779 37.1972C211.421 28.4821 223.64 28.1612 226.725 36.7281C230.971 28.6549 243.042 30.6794 244.449 39.6661C250.151 32.5557 261.605 36.8022 261.284 45.9123C268.22 40.0117 278.686 46.3567 276.637 55.2445C284.561 50.7512 293.621 58.9725 289.943 67.2926C298.582 64.3793 305.913 74.156 300.73 81.6613C309.764 80.4516 315.121 91.438 308.604 97.8077C317.688 98.3261 320.897 110.127 313.294 115.164C322.131 117.386 323.02 129.582 314.602 133.088C322.847 136.939 321.415 149.086 312.504 150.937C319.885 156.295 316.182 167.948 307.074 168.071C313.294 174.713 307.469 185.477 298.508 183.847C303.371 191.55 295.595 201.006 287.104 197.722V197.673Z" fill="#FFE800"/>
<path d="M213.889 232.78C213.618 232.78 213.346 232.78 213.075 232.755C209.199 232.484 205.916 230.311 204.188 227.027C201.497 229.57 197.696 230.583 193.944 229.57C190.192 228.583 187.378 225.818 186.316 222.262C183.181 224.262 179.281 224.509 175.776 222.83C172.271 221.127 170.049 217.917 169.654 214.214C166.198 215.572 162.298 215.103 159.188 212.782C156.078 210.461 154.498 206.857 154.819 203.154C151.165 203.845 147.438 202.635 144.822 199.746C142.205 196.883 141.341 193.056 142.353 189.476C138.626 189.476 135.195 187.55 133.17 184.242C131.146 180.934 130.998 177.008 132.677 173.675C129.023 172.959 126.012 170.441 124.654 166.812C123.297 163.183 123.914 159.307 126.185 156.344C122.729 154.961 120.26 151.9 119.619 148.073C118.977 144.247 120.31 140.543 123.099 138.099C119.989 136.075 118.113 132.618 118.211 128.742C118.31 124.866 120.31 121.484 123.519 119.607C120.828 117.04 119.668 113.287 120.482 109.485C121.297 105.683 123.914 102.745 127.419 101.511C125.271 98.4739 124.827 94.5731 126.357 90.9933C127.888 87.4134 130.998 85.0433 134.676 84.4755C133.146 81.0932 133.442 77.1677 135.614 73.9582C137.786 70.724 141.267 68.9958 145.019 69.1439C144.155 65.5394 145.192 61.7373 147.932 58.9969C150.672 56.2318 154.449 55.1948 158.077 56.0343C157.904 52.331 159.657 48.8005 162.866 46.6279C166.075 44.4553 170 44.1344 173.382 45.6404C173.925 41.9618 176.294 38.8263 179.874 37.2956C183.453 35.7649 187.353 36.1846 190.389 38.3079C191.624 34.8021 194.536 32.1851 198.338 31.3457C202.139 30.5063 205.891 31.6666 208.459 34.333C210.285 31.1235 213.642 29.099 217.542 29.0003C221.443 28.8521 224.899 30.7531 226.923 33.8639C229.366 31.0741 233.044 29.7162 236.895 30.3581C240.721 31 243.782 33.4689 245.189 36.9006C248.127 34.6046 252.002 33.9874 255.631 35.3452C259.284 36.7031 261.802 39.6904 262.543 43.3443C265.85 41.6408 269.775 41.7643 273.108 43.7887C276.44 45.8132 278.341 49.2449 278.365 52.9482C281.945 51.9113 285.771 52.7754 288.634 55.3923C291.522 58.0093 292.757 61.7373 292.065 65.3912C295.743 65.0456 299.372 66.6257 301.692 69.7364C304.037 72.8472 304.531 76.748 303.174 80.2044C306.876 80.5747 310.11 82.7967 311.813 86.2778C313.516 89.7835 313.27 93.6843 311.295 96.8198C314.849 97.8814 317.614 100.671 318.626 104.424C319.638 108.177 318.651 111.979 316.108 114.694C319.416 116.398 321.588 119.681 321.86 123.558C322.156 127.434 320.453 130.989 317.466 133.161C320.379 135.482 321.909 139.087 321.44 142.938C320.971 146.789 318.675 149.974 315.294 151.53C317.713 154.344 318.527 158.196 317.343 161.899C316.158 165.602 313.294 168.269 309.69 169.182C311.542 172.416 311.616 176.342 309.74 179.749C307.888 183.156 304.556 185.23 300.853 185.452C302.063 188.958 301.372 192.834 298.903 195.846C296.435 198.858 292.781 200.265 289.079 199.746C289.597 203.425 288.19 207.104 285.203 209.573C282.216 212.066 278.341 212.733 274.836 211.548C274.638 215.251 272.589 218.609 269.183 220.46C265.776 222.337 261.851 222.262 258.618 220.46C257.729 224.065 255.063 226.953 251.36 228.138C247.658 229.323 243.832 228.533 240.993 226.114C239.438 229.496 236.278 231.817 232.427 232.286C228.577 232.755 224.948 231.249 222.628 228.336C220.603 231.15 217.394 232.804 213.84 232.804L213.889 232.78ZM204.682 222.756C204.682 222.756 204.83 222.756 204.929 222.756C205.496 222.855 205.965 223.275 206.089 223.843C207.15 227.966 210.507 229.644 213.297 229.842C216.086 230.039 219.641 228.83 221.27 224.904C221.492 224.361 222.01 224.015 222.578 223.991C223.121 223.991 223.689 224.312 223.936 224.83C225.762 228.681 229.391 229.694 232.131 229.373C234.896 229.027 238.179 227.175 239.018 223.003C239.142 222.435 239.561 221.991 240.129 221.867C240.697 221.744 241.264 221.966 241.61 222.435C244.128 225.867 247.88 226.188 250.521 225.324C253.187 224.46 256.026 222.04 256.075 217.769C256.075 217.201 256.421 216.683 256.964 216.436C257.482 216.214 258.099 216.312 258.519 216.708C261.629 219.596 265.357 219.201 267.825 217.868C270.269 216.535 272.614 213.597 271.849 209.4C271.75 208.832 271.997 208.264 272.466 207.943C272.935 207.622 273.577 207.597 274.046 207.918C277.65 210.165 281.254 209.079 283.401 207.301C285.549 205.524 287.301 202.191 285.746 198.216C285.549 197.673 285.672 197.08 286.067 196.66C286.487 196.241 287.079 196.117 287.622 196.339C291.596 197.87 294.904 196.117 296.681 193.945C298.459 191.772 299.545 188.192 297.274 184.588C296.978 184.094 296.978 183.477 297.274 183.008C297.595 182.539 298.187 182.292 298.73 182.39C302.927 183.156 305.839 180.786 307.172 178.341C308.505 175.897 308.9 172.145 305.988 169.034C305.593 168.614 305.494 167.997 305.716 167.478C305.938 166.935 306.457 166.59 307.024 166.59C311.295 166.54 313.714 163.676 314.553 161.01C315.392 158.344 315.072 154.616 311.616 152.098C311.147 151.752 310.925 151.184 311.048 150.616C311.171 150.048 311.616 149.604 312.183 149.505C316.355 148.641 318.182 145.382 318.527 142.592C318.873 139.803 317.836 136.198 313.961 134.396C313.442 134.149 313.121 133.63 313.121 133.038C313.121 132.47 313.492 131.952 314.01 131.729C317.96 130.1 319.12 126.545 318.922 123.755C318.725 120.965 317.022 117.608 312.899 116.571C312.332 116.423 311.912 115.978 311.813 115.41C311.714 114.842 311.961 114.275 312.455 113.954C316.01 111.608 316.503 107.88 315.763 105.189C315.022 102.498 312.751 99.5108 308.481 99.2886C307.913 99.2639 307.395 98.8936 307.197 98.3505C307 97.8073 307.123 97.1901 307.543 96.7951C310.579 93.8078 310.357 90.0798 309.147 87.5616C307.938 85.0433 305.099 82.5745 300.878 83.1423C300.31 83.2164 299.742 82.9448 299.446 82.451C299.15 81.9573 299.15 81.34 299.496 80.871C301.915 77.3652 301.001 73.736 299.323 71.4893C297.644 69.2426 294.41 67.3416 290.362 68.7242C289.819 68.897 289.202 68.7489 288.832 68.3292C288.437 67.9095 288.338 67.2922 288.585 66.7491C290.313 62.8483 288.708 59.466 286.635 57.5896C284.561 55.7133 281.031 54.4542 277.329 56.5527C276.835 56.849 276.218 56.7996 275.749 56.454C275.28 56.1083 275.082 55.5158 275.206 54.9726C276.169 50.825 273.947 47.7883 271.552 46.3316C269.158 44.875 265.455 44.3072 262.197 47.0723C261.753 47.4426 261.136 47.5167 260.617 47.2698C260.099 47.0229 259.778 46.4798 259.803 45.9119C259.951 41.6408 257.211 39.0979 254.594 38.135C251.978 37.1722 248.226 37.3203 245.56 40.6286C245.189 41.073 244.597 41.2705 244.054 41.1223C243.486 40.9742 243.091 40.5051 242.992 39.9373C242.326 35.7156 239.142 33.7405 236.402 33.2714C233.637 32.8023 229.984 33.6664 228.009 37.4438C227.737 37.9622 227.194 38.2338 226.626 38.2091C226.059 38.1597 225.565 37.7894 225.368 37.2462C223.911 33.2467 220.406 31.8888 217.617 31.9629C214.827 32.037 211.396 33.5676 210.162 37.6413C209.989 38.1844 209.52 38.6041 208.952 38.6535C208.384 38.7276 207.817 38.456 207.521 37.9622C205.348 34.3083 201.646 33.6417 198.93 34.2342C196.19 34.8268 193.129 36.9747 192.685 41.2211C192.636 41.7889 192.241 42.2827 191.673 42.4555C191.13 42.6284 190.513 42.4555 190.143 42.0358C187.304 38.851 183.552 38.9004 180.985 40.0114C178.417 41.1224 175.801 43.8134 176.171 48.0598C176.22 48.6277 175.924 49.1955 175.43 49.4671C174.912 49.7387 174.295 49.6893 173.851 49.3436C170.469 46.7513 166.791 47.5167 164.471 49.0721C162.15 50.6521 160.101 53.7876 161.261 57.8859C161.41 58.429 161.237 59.0463 160.792 59.3919C160.348 59.7622 159.731 59.8363 159.213 59.5647C155.411 57.6637 151.931 59.0956 149.956 61.0707C147.981 63.0458 146.549 66.5269 148.475 70.3289C148.746 70.8474 148.672 71.4646 148.302 71.909C147.932 72.3534 147.339 72.5509 146.796 72.3781C142.699 71.2177 139.564 73.2916 138.009 75.6123C136.453 77.933 135.713 81.6116 138.305 84.994C138.65 85.4383 138.7 86.0802 138.428 86.574C138.157 87.0678 137.614 87.3641 137.021 87.3394C132.775 86.969 130.085 89.6107 128.999 92.1783C127.913 94.7459 127.863 98.4986 131.072 101.313C131.517 101.683 131.665 102.301 131.492 102.844C131.319 103.387 130.825 103.782 130.258 103.856C126.012 104.325 123.889 107.386 123.297 110.127C122.704 112.867 123.395 116.546 127.073 118.719C127.567 119.015 127.838 119.558 127.789 120.15C127.74 120.743 127.32 121.212 126.777 121.36C122.704 122.619 121.174 126.051 121.124 128.841C121.075 131.631 122.433 135.136 126.431 136.568C126.975 136.766 127.345 137.26 127.394 137.828C127.444 138.395 127.147 138.938 126.629 139.21C122.852 141.21 122.013 144.864 122.507 147.629C122.976 150.394 124.975 153.554 129.196 154.196C129.764 154.295 130.233 154.69 130.381 155.258C130.529 155.825 130.332 156.418 129.887 156.764C126.58 159.43 126.431 163.183 127.419 165.8C128.406 168.417 130.973 171.132 135.219 170.984C135.836 170.96 136.33 171.281 136.577 171.799C136.824 172.317 136.75 172.935 136.379 173.379C133.639 176.638 134.207 180.341 135.664 182.736C137.12 185.131 140.156 187.328 144.303 186.365C144.871 186.242 145.439 186.439 145.809 186.908C146.155 187.377 146.204 187.995 145.908 188.488C143.834 192.216 145.093 195.747 146.969 197.796C148.845 199.87 152.252 201.45 156.152 199.722C156.67 199.475 157.287 199.574 157.732 199.969C158.151 200.364 158.324 200.956 158.127 201.499C156.794 205.548 158.694 208.782 160.941 210.437C163.187 212.115 166.816 213.029 170.321 210.585C170.79 210.264 171.407 210.239 171.901 210.535C172.394 210.832 172.666 211.399 172.592 211.967C172.049 216.189 174.542 219.004 177.035 220.213C179.553 221.423 183.305 221.645 186.267 218.584C186.662 218.164 187.279 218.041 187.822 218.238C188.365 218.436 188.736 218.929 188.76 219.522C189.007 223.768 191.994 226.064 194.685 226.78C197.375 227.496 201.103 227.003 203.448 223.423C203.719 223.003 204.188 222.756 204.657 222.756H204.682Z" fill="black"/>
<path d="M246.596 191.55C246.226 191.55 245.856 191.451 245.535 191.279C245.288 191.155 221.714 178.268 194.586 191.032C193.5 191.55 192.191 191.081 191.673 189.995C191.155 188.908 191.624 187.6 192.71 187.082C221.936 173.33 246.621 186.884 247.658 187.477C248.719 188.069 249.09 189.402 248.497 190.439C248.102 191.155 247.362 191.55 246.596 191.55Z" fill="black"/>
<path d="M219.838 184.144C218.629 184.144 217.666 183.156 217.666 181.971V169.874C217.666 168.664 218.653 167.701 219.838 167.701C221.023 167.701 222.011 168.689 222.011 169.874V181.971C222.011 183.181 221.023 184.144 219.838 184.144Z" fill="black"/>
<path d="M206.138 154.196L233.316 154.098C233.316 154.098 240.03 173.034 223.22 174.713C206.41 176.391 205.521 166.936 205.521 166.936C205.521 166.936 204.558 158.788 206.138 154.196Z" fill="#F15F5A"/>
<path d="M219.098 176.614C212.803 176.342 208.311 174.367 205.694 170.787C201.843 165.504 203.62 158.739 203.694 158.467L208.014 137.482C208.187 136.692 208.952 136.198 209.742 136.347C210.532 136.519 211.026 137.285 210.878 138.075L206.533 159.159C206.509 159.307 205.027 164.985 208.064 169.108C210.137 171.947 213.865 173.478 219.172 173.725H220.332C225.565 173.478 229.317 171.923 231.391 169.108C234.427 164.961 232.97 159.282 232.946 159.233L228.577 138.075C228.404 137.285 228.922 136.519 229.712 136.347C230.502 136.198 231.267 136.692 231.44 137.482L235.785 158.566C235.834 158.764 237.611 165.528 233.76 170.812C231.144 174.392 226.651 176.367 220.406 176.638H219.122L219.098 176.614Z" fill="black"/>
<path d="M232.872 155.578H206.163C205.348 155.578 204.707 154.936 204.707 154.122C204.707 153.307 205.348 152.665 206.163 152.665H232.872C233.686 152.665 234.328 153.307 234.328 154.122C234.328 154.936 233.686 155.578 232.872 155.578Z" fill="black"/>
<path d="M249.608 156.023C249.04 156.023 248.522 155.702 248.275 155.159C247.954 154.419 248.275 153.555 249.04 153.234L271.577 143.432C272.318 143.111 273.182 143.432 273.503 144.198C273.824 144.938 273.503 145.802 272.737 146.123L250.2 155.925C250.003 155.999 249.805 156.048 249.633 156.048L249.608 156.023Z" fill="black"/>
<path d="M250.768 161.875C249.954 161.875 249.312 161.233 249.312 160.418C249.312 159.677 249.88 159.06 250.595 158.962C251.632 158.789 264.715 155.777 273.355 153.777C274.145 153.604 274.91 154.073 275.107 154.863C275.28 155.653 274.811 156.419 274.021 156.616C251.311 161.875 250.99 161.875 250.768 161.875Z" fill="black"/>
<path d="M251.657 168.762C250.867 168.762 250.2 168.12 250.2 167.306C250.2 166.491 250.842 165.849 251.657 165.849L273.058 165.726C273.824 165.75 274.515 166.367 274.515 167.182C274.515 167.997 273.873 168.639 273.058 168.639L251.657 168.762Z" fill="black"/>
<path d="M194.734 156.023C194.536 156.023 194.339 155.974 194.166 155.9L171.629 146.098C170.889 145.777 170.543 144.913 170.864 144.172C171.185 143.432 172.049 143.086 172.789 143.407L195.326 153.208C196.067 153.529 196.412 154.394 196.092 155.134C195.845 155.677 195.326 155.998 194.759 155.998L194.734 156.023Z" fill="black"/>
<path d="M193.574 161.874C193.352 161.874 193.031 161.874 170.321 156.615C169.531 156.442 169.062 155.652 169.235 154.862C169.407 154.072 170.197 153.578 170.987 153.776C179.602 155.776 192.71 158.788 193.747 158.961C194.462 159.035 195.03 159.652 195.03 160.417C195.03 161.232 194.388 161.874 193.574 161.874Z" fill="black"/>
<path d="M192.685 168.762L171.284 168.639C170.469 168.639 169.827 167.972 169.827 167.182C169.827 166.367 170.568 165.726 171.284 165.726L192.685 165.849C193.5 165.849 194.142 166.516 194.142 167.306C194.142 168.096 193.475 168.762 192.685 168.762Z" fill="black"/>
<path d="M173.233 102.103C172.814 102.103 172.394 101.93 172.123 101.585C168.84 97.6343 164.372 88.4008 171.086 81.7596C173.184 79.6858 175.578 78.7229 178.244 78.8957C184.564 79.2907 189.945 85.9813 190.167 86.2776C190.661 86.8948 190.562 87.833 189.945 88.3268C189.303 88.8205 188.39 88.7218 187.896 88.1046C187.847 88.0552 183.083 82.1299 178.072 81.809C176.22 81.7102 174.616 82.3768 173.135 83.8334C166.643 90.2525 174.048 99.3379 174.344 99.7329C174.863 100.35 174.764 101.264 174.147 101.782C173.875 102.004 173.554 102.128 173.209 102.128L173.233 102.103Z" fill="black"/>
<path d="M264.937 102.103C264.616 102.103 264.27 102.004 263.999 101.758C263.382 101.239 263.308 100.326 263.801 99.7085C264.122 99.3134 271.528 90.228 265.011 83.809C263.505 82.3277 261.901 81.6858 260.074 81.7845C255.063 82.0808 250.299 88.0061 250.25 88.0801C249.756 88.6974 248.843 88.8208 248.201 88.3023C247.584 87.8086 247.46 86.8951 247.979 86.2532C248.201 85.9569 253.607 79.2663 259.901 78.8713C262.567 78.6985 264.986 79.6613 267.06 81.7352C273.774 88.3764 269.331 97.6099 266.023 101.56C265.727 101.906 265.332 102.079 264.912 102.079L264.937 102.103Z" fill="black"/>
<path d="M238.475 141.531C247.364 141.531 254.569 133.197 254.569 122.916C254.569 112.635 247.364 104.301 238.475 104.301C229.586 104.301 222.381 112.635 222.381 122.916C222.381 133.197 229.586 141.531 238.475 141.531Z" fill="white"/>
<path d="M231.909 105.708C231.909 105.708 220.825 110.201 223.121 126.446C223.121 126.446 223.763 136.371 232.551 139.482C232.551 139.482 243.264 134.051 241.511 119.608C241.511 119.608 240.4 106.745 231.909 105.708Z" fill="#0090CF"/>
<path d="M238.401 142.839C228.725 142.839 220.85 133.779 220.85 122.619C220.85 111.46 228.725 102.399 238.401 102.399C248.077 102.399 255.952 111.46 255.952 122.619C255.952 133.779 248.077 142.839 238.401 142.839ZM238.401 105.313C230.329 105.313 223.763 113.09 223.763 122.619C223.763 132.149 230.329 139.926 238.401 139.926C246.473 139.926 253.039 132.149 253.039 122.619C253.039 113.09 246.473 105.313 238.401 105.313Z" fill="black"/>
<path d="M232.501 141.136C231.983 141.136 231.489 140.865 231.218 140.371C230.823 139.655 231.094 138.791 231.81 138.396C239.734 134.075 240.4 122.867 240.425 122.743C240.968 111.139 232.452 107.56 232.082 107.436C231.341 107.14 230.971 106.301 231.267 105.535C231.563 104.795 232.403 104.424 233.143 104.72C233.242 104.77 243.93 109.14 243.313 122.891C243.288 123.434 242.573 135.853 233.192 140.963C232.97 141.087 232.723 141.136 232.501 141.136Z" fill="black"/>
<path d="M200.066 141.531C208.955 141.531 216.16 133.197 216.16 122.916C216.16 112.635 208.955 104.301 200.066 104.301C191.177 104.301 183.971 112.635 183.971 122.916C183.971 133.197 191.177 141.531 200.066 141.531Z" fill="white"/>
<path d="M193.5 105.708C193.5 105.708 182.416 110.201 184.712 126.446C184.712 126.446 185.354 136.371 194.142 139.482C194.142 139.482 204.855 134.051 203.102 119.608C203.102 119.608 201.991 106.745 193.5 105.708Z" fill="#0090CF"/>
<path d="M199.992 142.839C190.315 142.839 182.441 133.779 182.441 122.619C182.441 111.46 190.315 102.399 199.992 102.399C209.668 102.399 217.542 111.46 217.542 122.619C217.542 133.779 209.668 142.839 199.992 142.839ZM199.992 105.313C191.92 105.313 185.354 113.09 185.354 122.619C185.354 132.149 191.92 139.926 199.992 139.926C208.064 139.926 214.63 132.149 214.63 122.619C214.63 113.09 208.064 105.313 199.992 105.313Z" fill="black"/>
<path d="M194.092 141.136C193.574 141.136 193.08 140.865 192.808 140.371C192.414 139.655 192.685 138.791 193.401 138.396C201.325 134.075 201.991 122.867 202.016 122.743C202.559 111.139 194.043 107.56 193.672 107.436C192.932 107.14 192.562 106.301 192.858 105.535C193.154 104.795 193.993 104.424 194.734 104.72C194.833 104.77 205.521 109.14 204.904 122.891C204.879 123.434 204.163 135.853 194.783 140.963C194.561 141.087 194.314 141.136 194.092 141.136Z" fill="black"/>
<path d="M253.508 114.522L256.964 106.152L221.319 87.7842L174.023 107.979L176.196 116.892C176.196 116.892 217.123 107.239 220.949 93.2404C220.949 93.2404 216.95 102.523 253.508 114.522Z" fill="#FFE800"/>
<path d="M181.108 117.435C180.219 117.435 179.454 116.793 179.306 115.88C179.158 114.892 179.849 113.954 180.836 113.806C201.275 110.843 217.888 95.166 218.036 95.0179C218.382 94.6722 218.851 94.4747 219.344 94.5241C219.838 94.5241 220.282 94.7463 220.628 95.0919C232.131 107.288 254.989 113.263 255.236 113.312C256.199 113.559 256.791 114.547 256.544 115.534C256.297 116.497 255.31 117.089 254.323 116.843C253.385 116.596 231.711 110.942 219.221 98.8693C214.778 102.77 199.769 114.769 181.355 117.435C181.256 117.435 181.182 117.435 181.083 117.435H181.108Z" fill="black"/>
<path d="M163.261 112.373C162.841 112.373 162.422 112.201 162.15 111.855C158.867 107.905 154.399 98.6713 161.113 92.0301C163.212 89.9809 165.631 89.0181 168.272 89.1662C174.591 89.5612 179.973 96.2518 180.195 96.5481C180.688 97.19 180.59 98.1035 179.973 98.5972C179.331 99.091 178.417 98.9922 177.924 98.375C177.874 98.3256 173.11 92.4004 168.099 92.0794C166.273 91.956 164.643 92.6226 163.162 94.1039C156.67 100.523 164.076 109.608 164.372 109.979C164.89 110.596 164.791 111.509 164.174 112.028C163.903 112.25 163.582 112.373 163.236 112.373H163.261Z" fill="black"/>
</g>
<path d="M113.271 120.389H104.394V394.822H113.271V120.389Z" fill="#8A6456"/>
<path d="M114.535 396.06H103.129V119.15H114.535V396.084V396.06ZM105.634 393.559H112.006V121.651H105.634V393.559Z" fill="black"/>
<path d="M108.163 170.502C155.052 170.502 193.062 132.554 193.062 85.7417C193.062 38.9299 155.052 0.981445 108.163 0.981445C61.2752 0.981445 23.2646 38.9299 23.2646 85.7417C23.2646 132.554 61.2752 170.502 108.163 170.502Z" fill="#F05144"/>
<path d="M108.163 171.74C60.6434 171.74 22 133.16 22 85.7416C22 38.3234 60.6434 -0.28125 108.163 -0.28125C155.683 -0.28125 194.327 38.2991 194.327 85.7416C194.327 133.184 155.683 171.764 108.163 171.764V171.74ZM108.163 2.21956C62.0296 2.21956 24.5049 39.6831 24.5049 85.7416C24.5049 131.8 62.0296 169.239 108.139 169.239C154.249 169.239 191.773 131.776 191.773 85.7416C191.773 39.7074 154.273 2.21956 108.163 2.21956Z" fill="black"/>
<path d="M149.853 127.941C152.597 125.217 152.592 120.776 149.854 118.038L75.8702 44.0584C75.8697 44.0579 75.8692 44.0574 75.8687 44.0569C73.1454 41.3127 68.7051 41.317 65.9663 44.054C63.2214 46.7777 63.2261 51.219 65.9648 53.9576L65.9649 53.9577L139.951 127.92C139.951 127.92 139.951 127.92 139.951 127.92C141.27 129.239 142.967 129.92 144.678 129.977C144.747 129.992 144.819 130 144.893 130C146.684 130 148.494 129.298 149.853 127.941ZM149.853 127.941C149.852 127.941 149.851 127.942 149.851 127.943L149.146 127.233L149.854 127.94C149.853 127.94 149.853 127.94 149.853 127.941Z" fill="white" stroke="white" stroke-width="2" stroke-linejoin="round"/>
<path d="M75.0029 127.944L75.003 127.944L149.833 53.9646C149.833 53.9643 149.834 53.964 149.834 53.9637C152.616 51.2355 152.584 46.7896 149.839 44.0543C147.089 41.3136 142.608 41.3178 139.843 44.0513C139.843 44.0513 139.842 44.0514 139.842 44.0514L64.9926 118.011C64.9919 118.012 64.9912 118.012 64.9906 118.013C62.2131 120.738 62.218 125.185 64.9896 127.924C66.3291 129.248 68.0512 129.926 69.7841 129.977C69.8525 129.992 69.9235 130 69.9963 130C71.8026 130 73.6301 129.301 75.0029 127.944Z" fill="white" stroke="white" stroke-width="2" stroke-linejoin="round"/>
<path d="M96.3657 233.446C96.3657 233.446 96.3657 217.917 108.264 216.781C120.137 215.645 124.901 220.558 124.728 224.904C124.556 229.249 112.287 229.15 112.287 229.15C112.287 229.15 124.21 228.706 123.741 236.014C123.272 243.321 113.028 242.556 113.028 242.556C113.028 242.556 123.494 242.433 123.766 250.382C124.062 258.332 108.659 256.974 108.659 256.974C108.659 256.974 96.0201 257.468 96.341 233.446H96.3657Z" fill="#F37448"/>
<path d="M111.176 258.53C109.868 258.53 108.905 258.456 108.634 258.431C107.943 258.431 104.462 258.258 101.154 255.024C96.884 250.876 94.7858 243.593 94.9092 233.446C94.9092 227.619 97.6739 216.337 108.115 215.325C116.854 214.485 121.346 216.806 123.543 218.904C125.321 220.583 126.259 222.756 126.16 224.978C126.061 227.348 123.889 228.706 121.272 229.521C122.038 229.94 122.753 230.434 123.371 231.051C124.704 232.409 125.321 234.113 125.173 236.112C125.024 238.26 124.185 240.013 122.655 241.371C121.964 241.988 121.149 242.457 120.334 242.828C122.951 244.21 125.099 246.556 125.222 250.358C125.296 252.308 124.63 253.962 123.247 255.271C120.285 258.085 114.509 258.53 111.152 258.53H111.176ZM108.683 255.518C108.683 255.518 108.782 255.518 108.831 255.518C111.374 255.74 118.532 255.74 121.297 253.123C122.062 252.382 122.408 251.543 122.359 250.432C122.161 244.976 115.916 244.161 113.768 244.013C113.299 244.013 113.003 244.013 112.954 243.988C112.188 243.939 111.571 243.272 111.596 242.482C111.596 241.692 112.263 241.075 113.028 241.075C113.324 241.075 113.645 241.075 113.966 241.075C115.496 241.075 118.804 240.828 120.779 239.1C121.717 238.285 122.21 237.223 122.309 235.865C122.383 234.705 122.062 233.767 121.322 233.026C119.446 231.101 115.323 230.607 113.126 230.557C112.781 230.557 112.485 230.557 112.287 230.557C111.497 230.557 110.855 229.916 110.855 229.125C110.855 228.335 111.473 227.669 112.263 227.644C112.312 227.644 112.633 227.644 113.077 227.644C118.014 227.57 123.222 226.434 123.297 224.78C123.346 223.398 122.753 222.04 121.593 220.954C120.137 219.571 116.484 217.398 108.436 218.164C97.9948 219.176 97.8714 233.248 97.8714 233.397C97.7232 244.976 100.661 250.333 103.154 252.827C105.844 255.493 108.584 255.493 108.683 255.468H108.708L108.683 255.518Z" fill="black"/>
</g>
<defs>
<clipPath id="clip0_4758_34637">
<rect width="344" height="270" fill="white"/>
</clipPath>
<clipPath id="clip1_4758_34637">
<rect width="227" height="329" fill="white" transform="translate(94.9092 29)"/>
</clipPath>
</defs>
</svg>
