<svg width="424" height="250" viewBox="0 0 424 250" fill="none" xmlns="http://www.w3.org/2000/svg">
<g clip-path="url(#clip0_4758_35677)">
<path d="M291.5 210.188V210.306L291.519 210.423L295.349 234.558L295.65 236.449L297.414 235.705L296.831 234.323C297.414 235.705 297.414 235.705 297.415 235.705L297.416 235.704L297.421 235.702L297.441 235.694L297.516 235.662C297.582 235.634 297.68 235.592 297.807 235.537C298.061 235.428 298.434 235.266 298.911 235.056C299.866 234.635 301.24 234.019 302.921 233.237C306.283 231.675 310.882 229.445 315.827 226.78C320.768 224.116 326.075 221.006 330.845 217.68C335.598 214.366 339.898 210.783 342.761 207.157C345.739 203.385 346.422 199.726 345.531 196.38C344.667 193.135 342.384 190.421 339.915 188.293C337.426 186.149 334.606 184.48 332.434 183.354C331.343 182.788 330.403 182.353 329.733 182.058C329.398 181.911 329.13 181.798 328.943 181.721C328.85 181.683 328.777 181.654 328.726 181.633L328.667 181.61L328.65 181.603L328.645 181.601L328.643 181.601C328.642 181.601 328.642 181.6 328.102 183L328.642 181.6L326.964 180.953L326.631 182.706C326.63 182.714 326.625 182.732 326.618 182.76C326.602 182.82 326.571 182.927 326.519 183.079C326.414 183.381 326.222 183.863 325.888 184.502C325.222 185.78 323.983 187.698 321.728 190.09C317.213 194.878 308.619 201.567 292.39 208.792L291.5 209.188V210.162V210.188ZM326.632 182.703C326.633 182.701 326.633 182.701 326.632 182.704L326.632 182.703Z" fill="#FFE800" stroke="black" stroke-width="3"/>
<path d="M322.245 221.421L316.046 197.102C327.001 188.811 328.102 183 328.102 183C328.102 183 352.497 192.403 341.584 206.227C337.422 211.499 329.926 216.836 322.245 221.421Z" fill="#F37448"/>
<g clip-path="url(#clip1_4758_35677)">
<path d="M222.894 210.188V210.306L222.875 210.423L219.044 234.558L218.744 236.449L216.98 235.705L217.563 234.323C216.98 235.705 216.98 235.705 216.979 235.705L216.978 235.704L216.972 235.702L216.953 235.694L216.877 235.662C216.811 235.634 216.714 235.592 216.587 235.537C216.332 235.428 215.96 235.266 215.482 235.056C214.528 234.635 213.154 234.019 211.472 233.237C208.111 231.675 203.512 229.445 198.567 226.78C193.625 224.116 188.319 221.006 183.549 217.68C178.796 214.366 174.495 210.783 171.633 207.157C168.655 203.385 167.972 199.726 168.863 196.38C169.727 193.135 172.009 190.421 174.479 188.293C176.968 186.149 179.788 184.48 181.96 183.354C183.051 182.788 183.99 182.353 184.66 182.058C184.995 181.911 185.264 181.798 185.45 181.721C185.544 181.683 185.617 181.654 185.668 181.633L185.727 181.61L185.744 181.603L185.749 181.601L185.751 181.601C185.751 181.601 185.752 181.6 186.291 183L185.752 181.6L187.43 180.953L187.762 182.706C187.764 182.714 187.768 182.732 187.776 182.76C187.792 182.82 187.823 182.927 187.875 183.079C187.98 183.381 188.172 183.863 188.505 184.502C189.172 185.78 190.41 187.698 192.666 190.09C197.181 194.878 205.774 201.567 222.004 208.792L222.894 209.188V210.162V210.188ZM187.762 182.703C187.761 182.701 187.761 182.701 187.762 182.704L187.762 182.703Z" fill="#FFE800" stroke="black" stroke-width="3"/>
<path d="M192.149 221.421L198.348 197.102C187.393 188.811 186.291 183 186.291 183C186.291 183 161.897 192.403 172.81 206.227C176.972 211.499 184.467 216.836 192.149 221.421Z" fill="#F37448"/>
<path d="M346.042 281.567C345.869 281.567 345.672 281.542 345.499 281.469L319.433 271.034C319.235 270.96 319.063 270.837 318.915 270.689L298.995 249.82C298.427 249.229 298.452 248.318 299.044 247.752C299.636 247.186 300.55 247.211 301.117 247.802L320.815 268.45L346.585 278.761C347.326 279.057 347.696 279.918 347.4 280.656C347.178 281.222 346.61 281.567 346.042 281.567Z" fill="black"/>
<path d="M286.727 170.008C286.727 170.008 314.225 215.438 306.424 246.349C298.624 277.26 269.67 278.269 269.67 278.269H252.416C252.416 278.269 223.462 277.235 215.662 246.349C207.862 215.438 235.359 170.008 235.359 170.008H286.677H286.727Z" fill="#FFE800"/>
<path d="M252.441 279.721C252.095 279.721 222.252 278.293 214.279 246.694C210.972 233.576 213.317 216.546 221.265 196.046C227.14 180.886 234.076 169.343 234.15 169.245C234.421 168.802 234.89 168.531 235.409 168.531H286.727C287.245 168.531 287.714 168.802 287.986 169.245C288.06 169.368 294.996 180.886 300.871 196.046C308.819 216.546 311.164 233.576 307.856 246.694C299.883 278.293 270.04 279.721 269.744 279.721H252.441ZM236.248 171.46C232.866 177.317 210.083 218.096 217.118 245.98C220.253 258.359 227.164 267.317 237.655 272.584C245.48 276.521 252.416 276.792 252.49 276.792H269.67C269.67 276.792 276.73 276.472 284.579 272.51C295.02 267.243 301.883 258.31 305.017 245.955C312.052 218.072 289.294 177.293 285.887 171.435H236.248V171.46Z" fill="black"/>
<path d="M327.973 169.196C331.306 177.711 321.827 185.537 314.052 180.689C315.706 189.671 304.919 195.578 298.205 189.352C298.131 198.482 286.406 202.247 281 194.864C279.198 203.822 266.98 205.299 263.055 197.03C259.574 205.496 247.306 204.635 245.036 195.775C240.025 203.429 228.127 200.279 227.559 191.148C221.166 197.694 210.108 192.379 211.293 183.297C203.789 188.539 193.915 181.206 196.803 172.518C188.435 176.234 180.141 167.178 184.609 159.204C175.674 161.271 169.256 150.812 175.18 143.847C166.022 144.192 161.703 132.723 168.836 126.964C159.777 125.586 157.704 113.478 165.8 109.196C157.161 106.144 157.432 93.8634 166.195 91.1809C158.296 86.5541 160.888 74.5443 169.996 73.5599C163.11 67.5057 167.948 56.2342 177.081 56.9725C171.477 49.7371 178.364 39.573 187.176 42.034C183.054 33.8634 191.743 25.176 199.938 29.2613C197.42 20.4754 207.615 13.5845 214.896 19.1218C214.107 10.016 225.412 5.16776 231.509 11.9848C232.471 2.90361 244.468 0.270304 249.158 8.121C251.824 -0.615668 264.116 -0.935603 267.226 7.65341C271.497 -0.443396 283.641 1.57465 285.048 10.6066C290.775 3.46965 302.327 7.72724 302.006 16.8823C308.992 10.9512 319.507 17.3253 317.458 26.2342C325.431 21.7305 334.564 29.975 330.862 38.3179C339.55 35.4139 346.955 45.2088 341.722 52.7149C350.806 51.4844 356.212 62.5098 349.646 68.9085C358.804 69.4254 362.013 81.2629 354.361 86.308C363.247 88.5476 364.16 100.779 355.694 104.274C363.987 108.137 362.556 120.32 353.571 122.165C361.001 127.53 357.273 139.22 348.091 139.343C354.361 146.013 348.486 156.792 339.452 155.168C344.339 162.895 336.514 172.37 327.973 169.097V169.196Z" fill="#FFE800"/>
<path d="M254.292 204.413C254.021 204.413 253.749 204.413 253.477 204.389C249.577 204.118 246.294 201.952 244.542 198.654C241.827 201.214 238.001 202.223 234.224 201.214C230.447 200.205 227.633 197.449 226.547 193.88C223.388 195.874 219.463 196.144 215.933 194.446C212.403 192.748 210.157 189.499 209.787 185.808C206.307 187.186 202.382 186.694 199.247 184.356C196.112 182.018 194.532 178.425 194.853 174.709C191.175 175.398 187.423 174.167 184.782 171.288C182.141 168.408 181.277 164.569 182.289 160.976C178.562 160.976 175.106 159.056 173.057 155.734C171.008 152.412 170.885 148.474 172.564 145.152C168.886 144.438 165.874 141.903 164.492 138.261C163.11 134.618 163.727 130.73 166.022 127.777C162.567 126.374 160.074 123.322 159.407 119.483C158.741 115.644 160.098 111.928 162.912 109.467C159.802 107.424 157.926 103.954 158 100.065C158.074 96.177 160.098 92.7808 163.332 90.8858C160.641 88.3017 159.456 84.5363 160.271 80.7464C161.086 76.9318 163.727 74.0031 167.257 72.748C165.109 69.6963 164.665 65.7833 166.195 62.2148C167.726 58.6217 170.86 56.2345 174.563 55.6684C173.033 52.2722 173.329 48.3345 175.526 45.1106C177.723 41.8866 181.228 40.1147 184.98 40.2624C184.116 36.6446 185.152 32.83 187.917 30.0737C190.682 27.3173 194.483 26.2591 198.111 27.0958C197.939 23.3797 199.691 19.8358 202.925 17.6455C206.158 15.4551 210.083 15.1352 213.514 16.661C214.057 12.9695 216.452 9.84398 220.031 8.29353C223.635 6.74307 227.559 7.18606 230.62 9.32716C231.854 5.80788 234.792 3.17458 238.618 2.33782C242.444 1.50107 246.22 2.65776 248.812 5.34029C250.664 2.14094 254.045 0.0982842 257.97 -0.000157119C261.895 -0.0985985 265.375 1.74718 267.399 4.87269C269.868 2.06711 273.57 0.713543 277.421 1.35341C281.272 1.99328 284.357 4.47892 285.764 7.92437C288.701 5.63561 292.602 4.99574 296.279 6.34931C299.957 7.70288 302.5 10.7053 303.216 14.3723C306.548 12.6742 310.497 12.7972 313.83 14.8153C317.187 16.8333 319.087 20.2788 319.137 23.9949C322.716 22.9613 326.591 23.8226 329.479 26.4313C332.367 29.04 333.626 32.7808 332.935 36.4478C336.662 36.1032 340.266 37.6783 342.636 40.8038C344.981 43.9293 345.499 47.8177 344.142 51.2878C347.869 51.6569 351.127 53.8719 352.83 57.3911C354.558 60.8858 354.311 64.8235 352.312 67.9736C355.891 69.0318 358.68 71.8374 359.692 75.6028C360.704 79.3682 359.717 83.1828 357.175 85.8899C360.482 87.6126 362.679 90.8858 362.975 94.7742C363.272 98.6627 361.568 102.231 358.532 104.397C361.47 106.71 363 110.328 362.531 114.216C362.062 118.08 359.742 121.255 356.36 122.83C358.804 125.66 359.618 129.499 358.434 133.216C357.249 136.932 354.361 139.614 350.732 140.525C352.583 143.749 352.657 147.686 350.782 151.132C348.906 154.553 345.573 156.645 341.821 156.842C343.031 160.361 342.364 164.249 339.871 167.252C337.378 170.254 333.7 171.682 329.998 171.165C330.516 174.856 329.109 178.523 326.098 181.033C323.086 183.519 319.186 184.208 315.656 183.027C315.459 186.743 313.385 190.09 309.954 191.985C306.523 193.855 302.574 193.806 299.316 191.985C298.427 195.603 295.736 198.507 292.034 199.688C288.307 200.894 284.456 200.082 281.592 197.67C280.037 201.066 276.853 203.404 272.978 203.872C269.102 204.339 265.449 202.838 263.104 199.91C261.08 202.715 257.847 204.389 254.267 204.389L254.292 204.413ZM245.036 194.348C245.036 194.348 245.184 194.348 245.282 194.348C245.85 194.446 246.319 194.865 246.467 195.431C247.529 199.565 250.91 201.263 253.724 201.46C256.538 201.657 260.117 200.451 261.747 196.489C261.969 195.947 262.487 195.603 263.055 195.578C263.647 195.578 264.166 195.898 264.412 196.415C266.239 200.279 269.868 201.288 272.682 200.968C275.471 200.623 278.754 198.778 279.618 194.594C279.741 194.028 280.161 193.585 280.729 193.462C281.296 193.339 281.889 193.56 282.234 194.028C284.777 197.473 288.529 197.793 291.195 196.932C293.86 196.07 296.748 193.634 296.773 189.352C296.773 188.786 297.119 188.244 297.662 188.023C298.205 187.801 298.822 187.9 299.241 188.294C302.376 191.198 306.128 190.804 308.597 189.45C311.065 188.097 313.41 185.168 312.645 180.96C312.546 180.394 312.793 179.803 313.262 179.483C313.731 179.163 314.373 179.138 314.866 179.458C318.495 181.723 322.123 180.615 324.271 178.819C326.443 177.022 328.196 173.7 326.641 169.713C326.418 169.171 326.567 168.556 326.962 168.162C327.381 167.744 327.998 167.621 328.517 167.842C332.515 169.393 335.848 167.621 337.65 165.455C339.452 163.289 340.538 159.696 338.242 156.079C337.921 155.586 337.946 154.971 338.242 154.479C338.563 154.011 339.155 153.765 339.723 153.864C343.944 154.627 346.881 152.264 348.214 149.803C349.547 147.342 349.942 143.601 347.005 140.476C346.61 140.057 346.511 139.442 346.733 138.901C346.956 138.359 347.474 138.015 348.066 138.015C352.361 137.965 354.78 135.086 355.644 132.403C356.483 129.721 356.163 125.98 352.707 123.47C352.238 123.125 352.016 122.535 352.139 121.969C352.263 121.403 352.707 120.96 353.275 120.837C357.471 119.975 359.322 116.702 359.643 113.896C359.964 111.116 358.927 107.498 355.052 105.677C354.533 105.431 354.188 104.889 354.213 104.323C354.213 103.757 354.583 103.24 355.126 103.019C359.075 101.37 360.285 97.8013 360.063 95.0203C359.865 92.2148 358.162 88.8678 353.99 87.8095C353.423 87.6619 353.003 87.2189 352.904 86.6282C352.806 86.0376 353.052 85.4961 353.546 85.1762C357.125 82.8136 357.619 79.0975 356.878 76.3903C356.138 73.6832 353.842 70.7053 349.547 70.4592C348.98 70.4346 348.461 70.0655 348.264 69.524C348.066 68.9826 348.19 68.3674 348.609 67.9736C351.67 64.9957 351.448 61.2304 350.214 58.6955C348.98 56.1852 346.141 53.675 341.895 54.2656C341.303 54.3395 340.76 54.0688 340.439 53.5765C340.143 53.0843 340.143 52.4691 340.488 51.9769C342.932 48.4576 341.994 44.8153 340.316 42.5757C338.637 40.3362 335.379 38.4166 331.306 39.7948C330.763 39.9916 330.146 39.8194 329.751 39.401C329.356 38.9826 329.257 38.3674 329.504 37.8259C331.232 33.9129 329.627 30.5167 327.529 28.6217C325.456 26.7513 321.901 25.4715 318.149 27.588C317.631 27.8834 317.014 27.8341 316.545 27.4896C316.076 27.145 315.854 26.5544 316.002 25.9884C316.965 21.8292 314.743 18.7775 312.324 17.3255C309.93 15.8735 306.178 15.3075 302.919 18.0884C302.475 18.4576 301.858 18.5314 301.34 18.2853C300.821 18.0392 300.5 17.4978 300.525 16.9318C300.673 12.6496 297.909 10.0901 295.267 9.13028C292.626 8.14586 288.85 8.29353 286.184 11.6405C285.813 12.0835 285.221 12.2804 284.653 12.1327C284.086 11.9851 283.666 11.5175 283.592 10.9514C282.925 6.71846 279.716 4.72503 276.952 4.28204C274.187 3.81445 270.509 4.67581 268.51 8.4658C268.238 8.98262 267.695 9.27794 267.103 9.25333C266.535 9.20411 266.017 8.83495 265.819 8.29353C264.363 4.28204 260.809 2.92847 258.044 2.97769C255.23 3.05152 251.774 4.57737 250.54 8.68729C250.367 9.25333 249.898 9.64709 249.306 9.72093C248.738 9.79476 248.17 9.52404 247.874 9.00723C245.677 5.34029 241.975 4.67581 239.21 5.26646C236.47 5.8571 233.36 8.02281 232.916 12.2804C232.866 12.8464 232.471 13.3386 231.904 13.5109C231.361 13.6832 230.744 13.5109 230.349 13.0925C227.51 9.8932 223.733 9.94242 221.142 11.0499C218.55 12.1573 215.933 14.8645 216.303 19.1221C216.353 19.6881 216.057 20.2541 215.538 20.5249C215.02 20.7956 214.403 20.7464 213.934 20.4018C210.527 17.7931 206.825 18.556 204.505 20.1311C202.184 21.7062 200.111 24.8563 201.296 28.9662C201.444 29.5322 201.271 30.1229 200.827 30.492C200.382 30.8612 199.765 30.935 199.247 30.6643C195.421 28.7447 191.916 30.1967 189.941 32.1902C187.966 34.1836 186.535 37.6537 188.46 41.4683C188.732 41.9851 188.658 42.6003 188.287 43.0433C187.917 43.4863 187.325 43.6832 186.757 43.5109C182.635 42.3542 179.475 44.4215 177.895 46.7595C176.316 49.0729 175.575 52.7644 178.192 56.1606C178.537 56.6282 178.586 57.2435 178.315 57.7603C178.043 58.2771 177.5 58.5724 176.908 58.5232C172.638 58.1787 169.922 60.812 168.836 63.3715C167.726 65.9555 167.701 69.7209 170.91 72.5511C171.354 72.9449 171.502 73.5355 171.329 74.077C171.157 74.6184 170.663 75.0121 170.095 75.086C165.825 75.5536 163.677 78.6299 163.085 81.3862C162.493 84.118 163.184 87.8341 166.862 89.9998C167.355 90.2952 167.651 90.8612 167.577 91.4272C167.503 91.9933 167.108 92.4855 166.565 92.6578C162.468 93.9129 160.937 97.3583 160.888 100.164C160.839 102.969 162.196 106.464 166.244 107.916C166.788 108.113 167.182 108.605 167.207 109.196C167.257 109.762 166.936 110.328 166.442 110.599C162.665 112.617 161.801 116.284 162.27 119.04C162.739 121.796 164.763 124.996 168.984 125.636C169.552 125.734 170.021 126.152 170.169 126.694C170.317 127.26 170.12 127.851 169.676 128.22C166.343 130.902 166.195 134.668 167.182 137.301C168.17 139.934 170.762 142.666 175.032 142.518C175.624 142.518 176.143 142.814 176.414 143.33C176.661 143.847 176.587 144.463 176.217 144.906C173.452 148.179 174.02 151.895 175.501 154.282C176.957 156.669 180.018 158.884 184.214 157.9C184.782 157.752 185.375 157.974 185.72 158.441C186.066 158.909 186.115 159.524 185.819 160.041C183.721 163.782 185.004 167.301 186.905 169.393C188.806 171.46 192.212 173.06 196.137 171.312C196.655 171.066 197.272 171.165 197.717 171.559C198.136 171.952 198.309 172.543 198.111 173.109C196.754 177.17 198.679 180.394 200.95 182.067C203.196 183.741 206.874 184.651 210.379 182.215C210.848 181.895 211.49 181.87 211.984 182.166C212.477 182.461 212.749 183.027 212.675 183.593C212.107 187.826 214.625 190.656 217.167 191.862C219.71 193.093 223.462 193.289 226.449 190.213C226.844 189.795 227.461 189.672 228.004 189.869C228.547 190.065 228.917 190.582 228.966 191.148C229.213 195.406 232.225 197.719 234.94 198.433C237.655 199.147 241.407 198.654 243.752 195.061C244.024 194.643 244.493 194.397 244.986 194.397L245.036 194.348Z" fill="black"/>
<path d="M259.55 163.683C251.157 163.683 241.506 161.493 231.459 154.873C230.447 154.208 230.176 152.855 230.842 151.846C231.509 150.837 232.866 150.566 233.878 151.231C260.71 168.95 284.406 152.117 284.629 151.944C285.616 151.231 286.974 151.452 287.689 152.412C288.405 153.396 288.183 154.75 287.22 155.464C287.048 155.587 275.644 163.683 259.525 163.683H259.55Z" fill="black"/>
<path d="M259.599 162.797C258.39 162.797 257.402 161.812 257.402 160.606V148.474C257.402 147.268 258.39 146.283 259.599 146.283C260.809 146.283 261.796 147.268 261.796 148.474V160.606C261.796 161.812 260.809 162.797 259.599 162.797Z" fill="black"/>
<path d="M273.866 127.137L246.541 127.038C246.541 127.038 239.778 146.037 256.686 147.735C273.595 149.433 274.483 139.934 274.483 139.934C274.483 139.934 275.471 131.763 273.866 127.161V127.137Z" fill="#F15F5A"/>
<path d="M259.599 149.63C253.255 149.359 248.738 147.391 246.097 143.773C242.222 138.482 243.999 131.689 244.073 131.394L248.442 110.327C248.615 109.54 249.38 109.023 250.17 109.195C250.96 109.368 251.478 110.13 251.305 110.918L246.936 132.058C246.912 132.206 245.43 137.891 248.491 142.05C250.565 144.88 254.341 146.455 259.673 146.677H260.833C266.091 146.431 269.868 144.88 271.941 142.05C275.002 137.891 273.521 132.206 273.496 132.157L269.102 110.918C268.93 110.13 269.448 109.368 270.238 109.195C271.028 109.023 271.793 109.54 271.966 110.327L276.335 131.468C276.384 131.665 278.186 138.457 274.311 143.748C271.669 147.341 267.152 149.31 260.883 149.605H259.574L259.599 149.63Z" fill="black"/>
<path d="M279.741 114.462C288.684 114.462 295.934 106.099 295.934 95.7828C295.934 85.4665 288.684 77.1035 279.741 77.1035C270.798 77.1035 263.548 85.4665 263.548 95.7828C263.548 106.099 270.798 114.462 279.741 114.462Z" fill="white"/>
<path d="M279.642 115.767C269.917 115.767 261.993 106.661 261.993 95.4879C261.993 84.3148 269.917 75.209 279.642 75.209C289.368 75.209 297.291 84.3148 297.291 95.4879C297.291 106.661 289.368 115.767 279.642 115.767ZM279.642 78.1376C271.521 78.1376 264.931 85.9145 264.931 95.4879C264.931 105.061 271.546 112.838 279.642 112.838C287.739 112.838 294.354 105.061 294.354 95.4879C294.354 85.9145 287.763 78.1376 279.642 78.1376Z" fill="black"/>
<path d="M241.086 114.462C250.029 114.462 257.279 106.099 257.279 95.7828C257.279 85.4665 250.029 77.1035 241.086 77.1035C232.143 77.1035 224.893 85.4665 224.893 95.7828C224.893 106.099 232.143 114.462 241.086 114.462Z" fill="white"/>
<path d="M241.012 115.767C231.287 115.767 223.363 106.661 223.363 95.4879C223.363 84.3148 231.287 75.209 241.012 75.209C250.738 75.209 258.661 84.3148 258.661 95.4879C258.661 106.661 250.738 115.767 241.012 115.767ZM241.012 78.1376C232.891 78.1376 226.3 85.9145 226.3 95.4879C226.3 105.061 232.891 112.838 241.012 112.838C249.133 112.838 255.724 105.061 255.724 95.4879C255.724 85.9145 249.108 78.1376 241.012 78.1376Z" fill="black"/>
<path d="M273.842 128.54H246.961C246.146 128.54 245.505 127.875 245.505 127.088C245.505 126.3 246.171 125.636 246.961 125.636H273.842C274.656 125.636 275.298 126.3 275.298 127.088C275.298 127.875 274.632 128.54 273.842 128.54Z" fill="black"/>
<path d="M230.126 128.982C229.929 128.982 229.732 128.933 229.534 128.859L206.85 119.015C206.109 118.695 205.763 117.834 206.084 117.095C206.405 116.357 207.269 116.013 208.01 116.333L230.694 126.177C231.435 126.497 231.78 127.358 231.459 128.096C231.213 128.638 230.669 128.982 230.126 128.982Z" fill="black"/>
<path d="M228.966 134.864C228.744 134.864 228.423 134.864 205.566 129.597C204.776 129.425 204.282 128.637 204.48 127.85C204.653 127.062 205.443 126.57 206.232 126.767C214.921 128.76 228.102 131.788 229.139 131.984C229.88 132.058 230.447 132.674 230.447 133.436C230.447 134.249 229.781 134.888 228.991 134.888L228.966 134.864Z" fill="black"/>
<path d="M228.078 141.755L206.553 141.632C205.739 141.632 205.097 140.967 205.097 140.155C205.097 139.343 205.788 138.752 206.578 138.703L228.102 138.826C228.917 138.826 229.559 139.491 229.559 140.303C229.559 141.115 228.892 141.755 228.102 141.755H228.078Z" fill="black"/>
<path d="M285.344 128.983C284.777 128.983 284.234 128.663 284.011 128.097C283.691 127.359 284.011 126.497 284.777 126.177L307.461 116.333C308.202 116.013 309.066 116.333 309.387 117.096C309.707 117.859 309.387 118.696 308.621 119.016L285.937 128.86C285.739 128.934 285.542 128.983 285.344 128.983Z" fill="black"/>
<path d="M286.505 134.865C285.69 134.865 285.048 134.201 285.048 133.413C285.048 132.65 285.616 132.035 286.356 131.961C287.393 131.789 300.574 128.762 309.263 126.744C310.053 126.571 310.843 127.039 311.016 127.826C311.188 128.614 310.719 129.402 309.93 129.574C287.097 134.84 286.751 134.84 286.529 134.84L286.505 134.865Z" fill="black"/>
<path d="M287.393 141.756C286.579 141.756 285.937 141.116 285.937 140.304C285.937 139.492 286.579 138.852 287.393 138.827L308.918 138.704C309.732 138.704 310.374 139.344 310.374 140.156C310.374 140.968 309.732 141.608 308.918 141.633L287.393 141.756Z" fill="black"/>
<path d="M306.967 74.9135C306.647 74.9135 306.301 74.8151 306.03 74.569C305.412 74.0522 305.314 73.1416 305.832 72.5017C306.153 72.1079 313.607 63.0021 307.066 56.5542C305.561 55.0776 303.931 54.4131 302.08 54.5116C297.02 54.8069 292.256 60.7626 292.207 60.8118C291.713 61.4517 290.775 61.5501 290.158 61.0579C289.516 60.5657 289.417 59.6305 289.911 59.0153C290.133 58.7199 295.564 52.0013 301.907 51.6075C304.573 51.4599 307.017 52.4197 309.115 54.4869C315.878 61.1317 311.386 70.4098 308.078 74.3721C307.782 74.7166 307.362 74.8889 306.943 74.8889L306.967 74.9135Z" fill="black"/>
<path d="M214.699 74.9133C214.279 74.9133 213.86 74.7411 213.564 74.3965C210.256 70.4342 205.763 61.1808 212.527 54.5114C214.625 52.4441 217.069 51.4843 219.735 51.632C226.078 52.0257 231.509 58.7443 231.731 59.0397C232.225 59.6795 232.126 60.5901 231.484 61.0823C230.842 61.5745 229.929 61.4761 229.435 60.8362C229.386 60.787 224.573 54.8313 219.537 54.536C217.686 54.4129 216.081 55.102 214.576 56.5786C208.034 63.0019 215.489 72.1324 215.81 72.5261C216.328 73.1414 216.229 74.0766 215.612 74.5934C215.341 74.8149 214.995 74.9379 214.674 74.9379L214.699 74.9133Z" fill="black"/>
<path d="M280.21 106.808C285.077 106.808 289.022 101.64 289.022 95.2659C289.022 88.8913 285.077 83.7236 280.21 83.7236C275.343 83.7236 271.398 88.8913 271.398 95.2659C271.398 101.64 275.343 106.808 280.21 106.808Z" fill="#0090CF"/>
<path d="M280.21 108.26C274.533 108.26 269.917 102.428 269.917 95.2415C269.917 88.0553 274.533 82.2227 280.21 82.2227C285.887 82.2227 290.503 88.0553 290.503 95.2415C290.503 102.428 285.887 108.26 280.21 108.26ZM280.21 85.1513C276.162 85.1513 272.854 89.6796 272.854 95.2415C272.854 100.803 276.162 105.332 280.21 105.332C284.258 105.332 287.566 100.803 287.566 95.2415C287.566 89.6796 284.258 85.1513 280.21 85.1513Z" fill="black"/>
<path d="M241.407 106.808C246.274 106.808 250.219 101.64 250.219 95.2659C250.219 88.8913 246.274 83.7236 241.407 83.7236C236.54 83.7236 232.595 88.8913 232.595 95.2659C232.595 101.64 236.54 106.808 241.407 106.808Z" fill="#0090CF"/>
<path d="M241.407 108.26C235.73 108.26 231.114 102.428 231.114 95.2415C231.114 88.0553 235.73 82.2227 241.407 82.2227C247.084 82.2227 251.7 88.0553 251.7 95.2415C251.7 102.428 247.084 108.26 241.407 108.26ZM241.407 85.1513C237.359 85.1513 234.051 89.6796 234.051 95.2415C234.051 100.803 237.359 105.332 241.407 105.332C245.455 105.332 248.763 100.803 248.763 95.2415C248.763 89.6796 245.455 85.1513 241.407 85.1513Z" fill="black"/>
</g>
<g clip-path="url(#clip2_4758_35677)">
<path d="M340.38 192.329C340.714 192.329 341.047 192.201 341.304 191.946C341.561 191.69 347.518 185.813 346.286 179.425C345.901 177.355 344.925 175.822 343.435 174.851C340.97 173.267 337.966 173.931 337.838 173.957C337.119 174.135 336.682 174.825 336.862 175.541C337.042 176.256 337.735 176.691 338.454 176.512C338.505 176.512 340.534 176.077 342.023 177.048C342.871 177.611 343.435 178.556 343.692 179.885C344.642 184.893 339.507 189.978 339.455 190.029C338.942 190.54 338.916 191.384 339.455 191.895C339.712 192.15 340.046 192.278 340.405 192.278L340.38 192.329Z" fill="black"/>
<path d="M368.908 161.87C368.908 161.87 369.165 139.128 373.916 125.33C378.666 111.531 373.043 103.789 363.567 103.329C354.092 102.869 332.368 109.436 346.44 159.877C346.44 159.877 363.079 165.166 368.908 161.87Z" fill="#F37448"/>
<path d="M346.029 161.154L345.336 160.95L345.156 160.26C338.454 136.215 338.967 119.171 346.645 109.589C352.5 102.307 360.486 101.872 363.644 102C368.395 102.23 372.298 104.198 374.583 107.571C376.663 110.611 378.461 116.258 375.174 125.738C370.552 139.179 370.218 161.64 370.218 161.87V162.636L369.55 163.02C367.933 163.94 365.673 164.272 363.182 164.272C356.172 164.272 347.313 161.538 346.029 161.129V161.154ZM372.683 124.921C374.994 118.226 374.891 112.758 372.401 109.078C370.552 106.37 367.496 104.836 363.516 104.658C360.768 104.53 353.809 104.913 348.725 111.225C343.872 117.281 339.738 130.44 347.518 158.855C352.243 160.286 362.977 162.841 367.599 161.052C367.701 156.785 368.369 137.442 372.683 124.921Z" fill="black"/>
<path d="M376.817 183.283C376.817 183.283 381.003 149.886 349.675 153.029C318.322 156.172 322.482 171.171 322.482 171.171C322.482 171.171 324.1 180.932 328.388 180.549C328.388 180.549 321.84 183.616 322.816 191.486C323.791 199.33 332.317 202.269 332.317 202.269C332.317 202.269 326.539 203.879 328.105 211.315C329.672 218.725 339.738 224.755 352.192 223.043C364.646 221.331 374.686 211.008 376.817 183.283Z" fill="#F37448"/>
<path d="M327.489 211.467C326.488 206.766 328.157 203.853 330.083 202.268C327.232 200.684 322.893 197.362 322.174 191.536C321.532 186.4 323.868 182.823 326.179 180.804C323.175 178.428 322.02 172.372 321.84 171.324C321.686 170.685 320.89 166.75 323.843 162.457C327.874 156.606 336.733 152.952 350.189 151.597C359.459 150.677 366.7 152.773 371.656 157.832C380.592 166.955 378.923 182.286 378.795 183.308C376.869 208.375 368.215 222.148 353.039 224.243C351.704 224.422 350.343 224.525 348.982 224.525C339.327 224.525 329.287 220.027 327.489 211.467ZM350.446 154.229C334.782 155.788 328.542 160.336 326.077 163.888C323.586 167.44 324.382 170.583 324.408 170.711C324.408 170.762 324.408 170.813 324.433 170.839C324.87 173.522 326.616 179.296 328.927 179.118C329.569 179.066 330.16 179.475 330.314 180.089C330.468 180.702 330.185 181.341 329.595 181.622C329.543 181.647 323.945 184.381 324.767 191.204C325.615 198.129 333.318 200.888 333.395 200.914C333.934 201.093 334.294 201.629 334.294 202.192C334.294 202.754 333.883 203.265 333.318 203.418C333.138 203.469 328.747 204.772 330.057 210.905C331.418 217.37 340.431 223.298 352.654 221.612C366.418 219.721 374.327 206.766 376.124 183.053V183.002C376.124 182.848 377.896 167.951 369.73 159.646C366.058 155.89 360.871 154.025 354.297 154.025C353.065 154.025 351.781 154.102 350.446 154.229Z" fill="black"/>
<path d="M329.055 181.749C329.055 181.749 329.235 181.749 329.338 181.724C341.946 179.015 347.98 178.964 348.057 178.964C348.776 178.964 349.393 178.376 349.393 177.635C349.393 176.92 348.802 176.307 348.083 176.307C347.826 176.307 341.766 176.307 328.799 179.117C328.08 179.271 327.617 179.961 327.797 180.676C327.926 181.289 328.49 181.724 329.081 181.724L329.055 181.749Z" fill="black"/>
<path d="M332.984 203.47C332.984 203.47 333.087 203.47 333.138 203.47L348.931 201.553C349.65 201.477 350.163 200.812 350.086 200.097C350.009 199.381 349.341 198.87 348.622 198.947L332.83 200.864C332.111 200.94 331.598 201.605 331.675 202.32C331.752 202.984 332.317 203.47 332.984 203.47Z" fill="black"/>
</g>
</g>
<defs>
<clipPath id="clip0_4758_35677">
<rect width="424" height="250" fill="white"/>
</clipPath>
<clipPath id="clip1_4758_35677">
<rect width="205" height="330" fill="white" transform="translate(158)"/>
</clipPath>
<clipPath id="clip2_4758_35677">
<rect width="88" height="126" fill="white" transform="translate(291 102)"/>
</clipPath>
</defs>
</svg>
