<svg width="424" height="250" viewBox="0 0 424 250" fill="none" xmlns="http://www.w3.org/2000/svg">
<g clip-path="url(#clip0_5180_15836)">
<g clip-path="url(#clip1_5180_15836)">
<path d="M298.424 80.4523C298.424 80.4523 322.845 61.0801 342.498 78.0775C342.498 78.0775 351.978 89.2845 347.93 102.199C347.93 102.199 365.906 100.492 370.646 115.781C370.646 115.781 375.067 129.363 364.202 138.889C364.202 138.889 384.547 143.986 382.843 160.983C382.843 160.983 383.855 175.579 369.288 182.036C369.288 182.036 382.843 193.59 378.103 207.172C378.103 207.172 373.362 221.768 357.411 221.101C357.411 221.101 366.572 235.03 355.387 248.612C355.387 248.612 343.51 260.833 327.239 253.361C327.239 253.361 330.301 271.72 313.337 276.469C313.337 276.469 291.98 281.913 284.177 266.97C284.177 266.97 281.807 282.927 260.449 280.899H264.524C243.166 282.927 240.796 266.97 240.796 266.97C232.993 281.913 211.636 276.469 211.636 276.469C194.672 271.72 197.735 253.361 197.735 253.361C181.464 260.833 169.586 248.612 169.586 248.612C158.402 235.03 167.563 221.101 167.563 221.101C151.638 221.768 146.871 207.172 146.871 207.172C142.13 193.59 155.685 182.036 155.685 182.036C141.118 175.579 142.13 160.983 142.13 160.983C140.426 143.986 160.772 138.889 160.772 138.889C149.933 129.39 154.327 115.781 154.327 115.781C159.067 100.492 177.043 102.199 177.043 102.199C172.968 89.2845 182.476 78.0775 182.476 78.0775C202.129 61.0801 226.549 80.4523 226.549 80.4523C226.549 80.4523 232.993 58.3584 260.796 58.7053C260.796 58.7053 283.511 54.6227 298.424 80.4523Z" fill="white"/>
<path d="M264.098 283.113C263.565 283.113 263.033 283.113 262.5 283.087C248.439 283.7 242.554 276.416 240.237 271.533C230.623 283.247 212.009 278.684 211.157 278.47C197.309 274.575 195.524 262.434 195.524 256.457C179.706 261.713 168.255 250.186 168.148 250.052C159.28 239.299 162.103 228.279 164.314 223.075C149.667 221.795 145.007 207.973 144.953 207.812C141.012 196.499 148.362 186.706 152.25 182.57C140.133 175.579 140.053 162.797 140.107 161.036C138.908 148.255 149.267 140.917 157.017 137.955C148.415 127.975 152.25 115.701 152.436 115.141C156.404 102.333 168.841 100.358 174.46 100.118C172.01 87.4966 180.558 77.1967 180.958 76.7431C181.038 76.663 181.091 76.583 181.171 76.5296C198.321 61.7203 218.933 72.9007 225.617 77.3035C226.655 75.0354 228.546 71.5398 231.768 68.071C236.615 62.841 245.457 56.6771 260.183 56.6771C260.343 56.6771 260.503 56.6771 260.663 56.6771C261.808 56.517 267.427 55.8499 274.617 57.9579C281.514 59.9859 291.208 65.029 299.064 77.5436C305.375 73.3276 326.386 61.4535 343.856 76.5563C343.936 76.6364 344.016 76.6897 344.069 76.7698C344.468 77.2234 353.017 87.5232 350.567 100.145C356.186 100.385 368.622 102.359 372.617 115.194C372.803 115.728 376.638 128.002 368.01 137.982C375.733 140.944 386.092 148.282 384.92 161.063C384.973 162.824 384.893 175.632 372.777 182.597C376.638 186.733 384.015 196.525 380.047 207.866C380.02 207.973 375.333 221.821 360.713 223.102C362.923 228.305 365.746 239.299 356.985 249.946C356.772 250.186 345.294 261.713 329.502 256.483C329.502 262.46 327.745 274.601 313.923 278.47C313.018 278.711 294.403 283.273 284.79 271.559C282.553 276.256 277.067 283.14 264.124 283.14L264.098 283.113ZM260.449 278.844H264.524C264.79 278.844 265.057 278.897 265.296 279.004C280.129 278.417 282.1 267.183 282.18 266.65C282.313 265.769 283.005 265.102 283.858 264.942C284.71 264.808 285.589 265.235 285.988 266.009C292.965 279.378 312.645 274.548 312.832 274.495C327.745 270.305 325.348 254.375 325.215 253.708C325.082 252.961 325.401 252.214 325.987 251.76C326.573 251.307 327.398 251.227 328.064 251.52C342.791 258.298 353.443 247.651 353.896 247.197C363.855 235.11 356.026 222.729 355.68 222.222C355.254 221.581 355.227 220.754 355.627 220.087C355.999 219.42 356.718 219.02 357.491 219.046C371.711 219.66 376.105 206.665 376.159 206.532C380.42 194.364 368.09 183.691 367.957 183.584C367.424 183.13 367.158 182.436 367.264 181.743C367.371 181.049 367.823 180.462 368.463 180.168C381.591 174.351 380.819 161.25 380.819 161.116C380.819 161.01 380.819 160.876 380.819 160.769C382.31 145.773 364.468 141.05 363.696 140.864C362.95 140.677 362.391 140.09 362.204 139.369C362.018 138.622 362.284 137.848 362.843 137.368C372.51 128.883 368.862 116.928 368.702 116.421C364.495 102.84 348.277 104.227 348.117 104.227C347.451 104.307 346.785 104.014 346.333 103.48C345.907 102.946 345.773 102.226 345.986 101.585C349.475 90.5385 341.965 80.6656 341.033 79.5182C322.871 64.0151 299.916 81.893 299.676 82.0531C299.223 82.4267 298.611 82.5601 298.025 82.4534C297.439 82.3466 296.933 81.9731 296.64 81.4661C282.659 57.2641 261.994 60.5462 261.115 60.7063C260.982 60.7063 260.876 60.733 260.742 60.733C260.556 60.733 260.343 60.733 260.157 60.733C234.698 60.733 228.546 80.799 228.493 81.0125C228.307 81.6529 227.801 82.1865 227.161 82.3733C226.522 82.5868 225.803 82.4534 225.271 82.0264C224.339 81.2793 202.022 64.0151 183.914 79.4648C182.982 80.6122 175.498 90.5385 178.96 101.532C179.173 102.172 179.04 102.893 178.614 103.427C178.188 103.96 177.522 104.254 176.83 104.174C176.164 104.12 160.426 102.84 156.245 116.341C156.085 116.875 152.41 128.829 162.077 137.315C162.636 137.822 162.902 138.595 162.716 139.316C162.529 140.063 161.97 140.623 161.224 140.81C160.452 140.997 142.61 145.693 144.101 160.716C144.101 160.823 144.101 160.956 144.101 161.063C144.074 161.597 143.409 174.351 156.458 180.115C157.097 180.409 157.549 180.996 157.656 181.689C157.763 182.383 157.496 183.077 156.964 183.53C156.83 183.637 144.527 194.364 148.735 206.452C148.921 207.012 153.262 219.607 167.403 219.02C168.175 219.02 168.894 219.393 169.267 220.06C169.64 220.727 169.613 221.554 169.187 222.195C168.841 222.702 161.038 235.083 171.104 247.304C171.424 247.624 182.103 258.271 196.829 251.493C197.522 251.173 198.321 251.28 198.907 251.734C199.492 252.187 199.812 252.934 199.679 253.681C199.572 254.349 197.176 270.279 212.115 274.495C212.275 274.521 231.982 279.324 238.932 266.009C239.332 265.235 240.21 264.808 241.063 264.942C241.941 265.102 242.607 265.769 242.74 266.65C242.82 267.157 244.791 278.417 259.624 279.004C259.864 278.897 260.13 278.844 260.396 278.844H260.449Z" fill="black"/>
<path d="M202.315 81.1192L214.512 13.5032C214.512 13.5032 258.585 -10.2718 305.375 13.5032L317.252 80.7723C317.252 80.7723 264.018 95.048 202.315 81.1192Z" fill="#FF4438"/>
<mask id="mask0_5180_15836" style="mask-type:luminance" maskUnits="userSpaceOnUse" x="202" y="3" width="116" height="85">
<path d="M202.661 81.8126L214.858 14.1966C214.858 14.1966 258.932 -9.57845 305.721 14.1966L317.598 81.4657C317.598 81.4657 264.364 95.7413 202.661 81.8126Z" fill="white"/>
</mask>
<g mask="url(#mask0_5180_15836)">
<path d="M227.794 -1.93303L214.566 99.2939L222.646 100.354L235.874 -0.872916L227.794 -1.93303Z" fill="white"/>
<path d="M245.756 -1.98023L240.513 99.9756L248.651 100.396L253.894 -1.56001L245.756 -1.98023Z" fill="white"/>
<path d="M272.181 -2.01494L264.043 -1.59473L269.287 100.361L277.425 99.9409L272.181 -2.01494Z" fill="white"/>
<path d="M291.088 -1.97515L283.008 -0.915039L296.237 100.312L304.317 99.2518L291.088 -1.97515Z" fill="white"/>
</g>
<path d="M258.505 89.2308C241.542 89.2308 222.102 87.6832 201.862 83.1203C200.797 82.8802 200.105 81.8395 200.318 80.7722L212.515 13.1562C212.621 12.5424 212.994 12.0088 213.553 11.7153C214.006 11.4751 259.118 -12.2999 306.307 11.7153C306.866 12.0088 307.292 12.5424 307.399 13.1828L319.276 80.452C319.462 81.4926 318.823 82.5066 317.785 82.7734C317.412 82.8802 293.072 89.2308 258.532 89.2308H258.505ZM204.659 79.5714C258.106 91.1521 305.242 81.5193 314.909 79.2779L303.564 14.8906C262.101 -5.65571 222.608 11.8487 216.349 14.8906L204.685 79.5714H204.659Z" fill="black"/>
<path d="M297.626 120.611C296.48 120.611 295.468 119.837 295.176 118.689C295.069 118.289 292.539 109.19 282.34 109.057C281.754 109.03 270.942 108.47 266.681 117.142C266.228 118.076 265.216 118.636 264.204 118.556C263.166 118.476 262.287 117.782 261.967 116.768C261.808 116.261 257.68 104.014 242.767 104.441C242.687 104.441 233.819 104.894 228.227 111.832C227.348 112.926 225.75 113.086 224.658 112.205C223.566 111.325 223.407 109.724 224.285 108.63C231.369 99.8509 242.154 99.3706 242.634 99.3706C255.177 99.0238 261.754 106.122 264.737 110.951C271.315 103.346 282.047 103.934 282.553 103.96C293.764 104.12 298.957 112.846 300.102 117.435C300.448 118.796 299.623 120.184 298.265 120.531C298.052 120.584 297.839 120.611 297.626 120.611Z" fill="black"/>
<path d="M264.071 212.695C263.113 212.695 262.127 212.695 261.142 212.642C260.13 212.668 232.115 213.175 217.441 192.015C216.642 190.868 216.935 189.267 218.08 188.466C219.226 187.666 220.823 187.96 221.622 189.107C234.724 207.999 260.929 207.545 261.195 207.545C288.332 208.693 296.667 192.576 296.986 191.909C297.599 190.655 299.143 190.121 300.395 190.761C301.647 191.375 302.179 192.896 301.567 194.15C301.194 194.924 292.22 212.722 264.098 212.722L264.071 212.695Z" fill="black"/>
<path d="M242.9 174.031C255.107 174.031 265.003 162.192 265.003 147.588C265.003 132.984 255.107 121.145 242.9 121.145C230.693 121.145 220.797 132.984 220.797 147.588C220.797 162.192 230.693 174.031 242.9 174.031Z" fill="#FFD200"/>
<path d="M242.9 176.059C229.585 176.059 218.746 163.277 218.746 147.588C218.746 131.898 229.585 119.116 242.9 119.116C256.215 119.116 267.054 131.898 267.054 147.588C267.054 163.277 256.215 176.059 242.9 176.059ZM242.9 123.172C231.822 123.172 222.821 134.112 222.821 147.588C222.821 161.063 231.822 172.003 242.9 172.003C253.978 172.003 262.979 161.063 262.979 147.588C262.979 134.112 253.978 123.172 242.9 123.172Z" fill="black"/>
<path d="M231.955 164.905C238.456 164.905 243.726 156.829 243.726 146.867C243.726 136.905 238.456 128.829 231.955 128.829C225.454 128.829 220.184 136.905 220.184 146.867C220.184 156.829 225.454 164.905 231.955 164.905Z" fill="black"/>
<path d="M278.425 173.257C289.75 173.257 298.93 162.278 298.93 148.735C298.93 135.192 289.75 124.213 278.425 124.213C267.1 124.213 257.92 135.192 257.92 148.735C257.92 162.278 267.1 173.257 278.425 173.257Z" fill="#FFD200"/>
<path d="M278.425 175.285C265.989 175.285 255.896 163.384 255.896 148.735C255.896 134.085 266.015 122.185 278.425 122.185C290.835 122.185 300.954 134.085 300.954 148.735C300.954 163.384 290.835 175.285 278.425 175.285ZM278.425 126.24C268.252 126.24 259.97 136.327 259.97 148.708C259.97 161.089 268.252 171.175 278.425 171.175C288.598 171.175 296.88 161.089 296.88 148.708C296.88 136.327 288.598 126.24 278.425 126.24Z" fill="black"/>
<path d="M268.891 166.587C275.26 166.587 280.422 158.678 280.422 148.922C280.422 139.166 275.26 131.258 268.891 131.258C262.523 131.258 257.36 139.166 257.36 148.922C257.36 158.678 262.523 166.587 268.891 166.587Z" fill="black"/>
<path d="M262.021 200.048C272.301 200.048 280.635 192.283 280.635 182.704C280.635 173.125 272.301 165.359 262.021 165.359C251.74 165.359 243.406 173.125 243.406 182.704C243.406 192.283 251.74 200.048 262.021 200.048Z" fill="#F5333F"/>
<path d="M262.021 202.076C250.623 202.076 241.355 193.377 241.355 182.703C241.355 172.03 250.623 163.331 262.021 163.331C273.418 163.331 282.686 172.03 282.686 182.703C282.686 193.377 273.418 202.076 262.021 202.076ZM262.021 167.414C252.86 167.414 245.43 174.271 245.43 182.703C245.43 191.135 252.886 197.993 262.021 197.993C271.155 197.993 278.611 191.135 278.611 182.703C278.611 174.271 271.155 167.414 262.021 167.414Z" fill="black"/>
</g>
<path d="M332.41 162.968L347.303 182.388C347.303 182.388 370.08 172.832 380.993 159.008C391.907 145.184 367.512 135.78 367.512 135.78C367.512 135.78 365.124 148.378 332.41 162.943V162.968Z" fill="white"/>
<path d="M332.05 163.582C332.05 163.582 332.282 163.607 332.384 163.556C333.232 163.352 353.158 158.267 366.126 139.128L369.772 132.893C369.849 132.74 372.006 128.37 374.651 129.086C377.193 129.776 376.911 131.59 376.859 131.794C376.859 131.871 376.859 131.922 376.859 131.999C376.859 132.05 376.525 137.109 372.211 142.118C371.724 142.68 371.801 143.497 372.366 143.983C372.93 144.443 373.752 144.392 374.24 143.83C378.862 138.438 379.453 133.072 379.504 132.229C379.787 130.67 379.273 127.578 375.37 126.53C370.517 125.227 367.564 131.385 367.435 131.641L363.892 137.697C351.515 155.967 331.948 160.975 331.742 161.001C331.023 161.18 330.587 161.895 330.766 162.585C330.921 163.173 331.46 163.582 332.05 163.582Z" fill="black"/>
<path fill-rule="evenodd" clip-rule="evenodd" d="M332.05 163.581C331.46 163.581 330.921 163.173 330.766 162.585C330.587 161.895 331.023 161.179 331.742 161.001C331.948 160.975 351.515 155.967 363.892 137.697L367.435 131.641C367.438 131.636 367.441 131.63 367.445 131.622C367.668 131.17 370.602 125.25 375.37 126.53C379.273 127.578 379.787 130.67 379.504 132.228C379.453 133.072 378.862 138.438 374.24 143.829C373.752 144.391 372.93 144.443 372.366 143.983C371.801 143.497 371.724 142.679 372.211 142.117C376.525 137.109 376.859 132.049 376.859 131.998V131.794C376.911 131.59 377.193 129.775 374.651 129.085C372.032 128.377 369.892 132.654 369.775 132.887L369.772 132.893L366.126 139.128C353.158 158.266 333.232 163.351 332.384 163.556C332.282 163.607 332.05 163.581 332.05 163.581ZM332.683 164.512C332.572 164.55 332.477 164.565 332.42 164.573C332.326 164.585 332.24 164.588 332.179 164.588C332.115 164.588 332.059 164.585 332.02 164.582C332.013 164.582 332.007 164.581 332.001 164.581C330.976 164.559 330.064 163.85 329.799 162.838L329.799 162.837C329.472 161.582 330.269 160.337 331.501 160.03L331.559 160.016L331.571 160.014C331.573 160.014 331.574 160.013 331.576 160.013C331.612 160.004 331.667 159.99 331.741 159.97C331.888 159.93 332.105 159.869 332.386 159.784C332.946 159.615 333.757 159.352 334.766 158.98C336.784 158.235 339.59 157.056 342.772 155.313C349.135 151.83 356.973 146.115 363.045 137.163L366.555 131.165C366.566 131.142 366.584 131.107 366.601 131.074C366.634 131.009 366.678 130.923 366.734 130.82C366.845 130.614 367 130.338 367.199 130.021C367.594 129.389 368.168 128.575 368.912 127.806C370.38 126.286 372.688 124.775 375.629 125.564C377.833 126.156 379.172 127.361 379.891 128.72C380.576 130.017 380.66 131.383 380.498 132.348C380.418 133.476 379.719 138.974 374.999 144.48L374.995 144.485C374.141 145.47 372.702 145.546 371.734 144.758L371.724 144.75L371.714 144.741C370.748 143.911 370.589 142.462 371.455 141.463C375.338 136.954 375.814 132.426 375.856 132.025C375.858 132 375.859 131.991 375.859 131.998V131.67L375.889 131.55C375.888 131.556 375.888 131.554 375.889 131.546C375.893 131.503 375.917 131.271 375.808 131.014C375.704 130.77 375.41 130.328 374.389 130.051C373.691 129.862 372.869 130.313 372.007 131.316C371.226 132.223 370.717 133.24 370.668 133.337L370.651 133.37L366.972 139.661L366.954 139.688C354 158.807 334.236 164.123 332.683 164.512Z" fill="black"/>
<path d="M380.12 147.432C380.454 147.432 380.788 147.305 381.045 147.049C381.302 146.794 387.259 140.917 386.026 134.528C385.641 132.459 384.666 130.925 383.176 129.954C380.711 128.37 377.707 129.035 377.578 129.06C376.859 129.239 376.423 129.929 376.603 130.644C376.782 131.36 377.476 131.794 378.195 131.615C378.246 131.615 380.275 131.181 381.764 132.152C382.611 132.714 383.176 133.66 383.433 134.988C384.383 139.997 379.247 145.082 379.196 145.133C378.682 145.644 378.657 146.487 379.196 146.998C379.453 147.254 379.787 147.381 380.146 147.381L380.12 147.432Z" fill="black"/>
<path d="M348.51 183.129C348.716 183.129 348.895 183.053 349.101 182.95C382.483 165.651 391.239 146.742 391.778 140.916C391.984 138.668 391.445 137.007 390.186 135.959C388.081 134.222 384.948 135.065 384.588 135.167C383.895 135.371 383.484 136.112 383.69 136.802C383.895 137.492 384.614 137.901 385.333 137.697C385.872 137.543 387.644 137.262 388.517 137.978C389.082 138.438 389.288 139.332 389.159 140.661C388.671 145.72 380.043 163.939 347.894 180.625C347.252 180.957 346.995 181.749 347.329 182.414C347.56 182.874 348.022 183.129 348.51 183.129Z" fill="black"/>
<path fill-rule="evenodd" clip-rule="evenodd" d="M349.554 183.842L349.546 183.846C349.333 183.952 348.969 184.129 348.51 184.129C347.674 184.129 346.849 183.687 346.436 182.863C345.861 181.718 346.297 180.326 347.434 179.737C363.409 171.446 373.497 162.796 379.641 155.632C385.817 148.429 387.948 142.8 388.164 140.565L388.164 140.565C388.287 139.288 388.03 138.871 387.886 138.753L387.883 138.751C387.724 138.621 387.361 138.511 386.8 138.511C386.279 138.511 385.793 138.606 385.607 138.659C384.358 139.014 383.092 138.299 382.731 137.088C382.365 135.856 383.093 134.565 384.306 134.208L384.315 134.205L384.315 134.205C384.535 134.143 385.506 133.88 386.727 133.873C387.937 133.866 389.517 134.11 390.823 135.188L390.826 135.191C392.424 136.521 392.998 138.562 392.774 141.007L392.774 141.009C392.478 144.204 390.018 150.576 383.52 158.276C376.995 166.007 366.352 175.137 349.561 183.838L349.554 183.842ZM347.894 180.625C380.043 163.939 388.671 145.72 389.159 140.661C389.288 139.332 389.082 138.438 388.517 137.978C387.644 137.262 385.872 137.543 385.333 137.697C384.614 137.901 383.895 137.492 383.69 136.802C383.484 136.112 383.895 135.371 384.588 135.167C384.948 135.065 388.081 134.222 390.186 135.959C391.445 137.007 391.984 138.668 391.778 140.916C391.239 146.742 382.483 165.651 349.101 182.95C348.895 183.053 348.716 183.129 348.51 183.129C348.022 183.129 347.56 182.874 347.329 182.414C346.995 181.749 347.252 180.957 347.894 180.625Z" fill="black"/>
<path d="M408.154 116.67C406.821 117.329 404.902 117.583 402.686 117.553C400.346 117.521 397.751 117.174 395.321 116.722C392.893 116.27 390.644 115.715 389.002 115.273C388.181 115.052 387.512 114.859 387.049 114.722C386.86 114.666 386.706 114.619 386.589 114.584C379.652 89.5726 381.61 75.5639 386.34 67.8808C391.069 60.1976 398.659 58.7075 403.284 58.932C407.886 59.1554 411.48 61.1366 413.376 64.6676C415.283 68.2173 415.534 73.4449 413.184 80.2706C410.788 87.2301 409.532 96.4157 408.873 103.834C408.543 107.548 408.362 110.83 408.264 113.184C408.215 114.361 408.186 115.306 408.17 115.957C408.162 116.261 408.157 116.5 408.154 116.67Z" fill="white" stroke="black"/>
<path d="M385.628 116.737L386.27 116.927V116.911C388.766 117.669 396.576 119.875 402.923 119.875C405.44 119.875 407.806 119.543 409.538 118.558L409.54 118.557L410.208 118.174L410.459 118.029V117.74V116.973C410.459 116.973 410.459 116.968 410.459 116.953L410.46 116.895C410.46 116.847 410.462 116.777 410.463 116.687C410.467 116.508 410.473 116.25 410.482 115.92C410.5 115.26 410.531 114.314 410.583 113.143C410.686 110.801 410.872 107.559 411.201 103.907C411.862 96.59 413.097 87.6653 415.387 81.005C418.717 71.4009 416.92 65.5843 414.737 62.3929C412.347 58.8654 408.284 56.8401 403.409 56.6042V56.6041L403.405 56.604C400.185 56.4737 391.998 56.9138 385.996 64.3794L385.996 64.3801C382.067 69.283 380.001 76.0577 379.749 84.5898C379.497 93.121 381.056 103.445 384.414 115.494L384.592 116.18L384.664 116.453L384.935 116.533L385.628 116.737ZM411.951 79.8611L411.951 79.8614C407.716 92.1543 406.977 110.928 406.848 115.799C405.813 116.134 404.466 116.277 402.919 116.268C401.222 116.258 399.325 116.065 397.414 115.77C393.731 115.202 390.032 114.262 387.668 113.559C380.004 85.3916 384.166 72.4937 388.856 66.6411C393.793 60.5131 400.551 60.1358 403.233 60.2605L403.234 60.2605C407.092 60.4339 409.986 61.9115 411.728 64.4627C414.088 67.9501 414.241 73.2269 411.951 79.8611Z" fill="black" stroke="black"/>
<path d="M416.558 138.387C416.558 138.387 420.744 104.99 389.416 108.133C358.063 111.275 362.222 126.275 362.222 126.275C362.222 126.275 363.84 136.036 368.129 135.653C368.129 135.653 361.581 138.719 362.556 146.589C363.532 154.434 372.057 157.372 372.057 157.372C372.057 157.372 366.28 158.982 367.846 166.418C369.412 173.828 379.478 179.859 391.932 178.147C404.386 176.435 414.427 166.111 416.558 138.387Z" fill="white"/>
<path d="M368.668 134.221L368.629 133.723C368.281 133.75 367.879 133.559 367.426 133.048C366.979 132.545 366.556 131.809 366.175 130.952C365.415 129.241 364.88 127.169 364.668 125.862L364.642 125.702L364.634 125.694C364.568 125.405 363.945 122.533 366.227 119.279L366.228 119.277C368.574 115.898 374.639 111.383 390.235 109.83C391.559 109.704 392.826 109.628 394.038 109.628C400.516 109.628 405.559 111.464 409.113 115.099L409.114 115.101C413.084 119.137 414.661 124.807 415.234 129.544C415.747 133.792 415.446 137.172 415.378 137.944C415.37 138.034 415.365 138.089 415.365 138.105V138.137C414.468 149.946 412.052 159.018 408.19 165.359C404.338 171.682 399.045 175.297 392.327 176.22L392.326 176.22C386.309 177.05 381.107 176.003 377.256 173.976C373.395 171.944 370.928 168.952 370.287 165.906L370.287 165.904C369.661 162.974 370.405 161.28 371.247 160.313C372.101 159.331 373.122 159.024 373.193 159.003C373.957 158.794 374.535 158.099 374.535 157.295C374.535 156.533 374.052 155.794 373.293 155.543C373.293 155.543 373.293 155.543 373.292 155.542C373.26 155.531 372.795 155.362 372.097 155.015C371.371 154.655 370.404 154.108 369.414 153.352C367.43 151.837 365.405 149.524 365.004 146.247C364.236 139.862 369.385 137.259 369.554 137.175C370.364 136.787 370.749 135.906 370.539 135.07C370.323 134.209 369.502 133.653 368.628 133.723L368.668 134.221ZM368.668 134.221C369.31 134.17 369.9 134.579 370.054 135.192C370.208 135.805 369.926 136.444 369.335 136.725L364.174 125.942C364.611 128.625 366.357 134.4 368.668 134.221ZM363.172 117.277L363.171 117.277C360.128 121.702 360.912 125.776 361.09 126.528C361.187 127.085 361.526 128.876 362.22 130.836C362.848 132.612 363.793 134.605 365.17 135.916C362.912 138.073 360.79 141.675 361.418 146.701C362.117 152.359 366.092 155.725 368.977 157.46C367.157 159.238 365.79 162.212 366.741 166.674C367.677 171.134 370.757 174.503 374.786 176.746C378.814 178.988 383.824 180.128 388.723 180.128C390.108 180.128 391.492 180.024 392.846 179.843L392.848 179.842C400.592 178.773 406.675 174.715 411.05 167.76C415.41 160.827 418.066 151.03 419.033 138.462C419.105 137.878 419.547 133.766 418.861 128.645C418.17 123.493 416.329 117.256 411.754 112.586C406.66 107.386 399.249 105.274 389.88 106.203L389.879 106.203C376.398 107.56 367.337 111.232 363.172 117.277Z" fill="black" stroke="black"/>
<path d="M367.051 135.892C367.158 136.393 367.473 136.805 367.883 137.057L367.585 137.353L368.796 137.353L368.796 137.327C368.796 137.327 368.796 137.327 368.796 137.327L368.796 137.353H368.796H368.796L368.797 137.353L368.798 137.353L368.801 137.353L368.809 137.353L368.837 137.352C368.859 137.352 368.891 137.351 368.926 137.349C368.986 137.346 369.092 137.338 369.19 137.315C375.475 135.965 380.118 135.278 383.194 134.929C384.733 134.754 385.879 134.664 386.644 134.617C387.027 134.594 387.313 134.581 387.506 134.575C387.602 134.572 387.675 134.57 387.724 134.569C387.774 134.568 387.798 134.568 387.798 134.568C388.785 134.568 389.633 133.765 389.633 132.739C389.633 131.758 388.829 130.91 387.824 130.91C387.529 130.91 381.434 130.914 368.434 133.732C367.461 133.94 366.804 134.887 367.051 135.892Z" fill="black" stroke="black"/>
<path d="M372.879 159.073H372.909L372.939 159.07L388.728 157.154C389.731 157.045 390.429 156.125 390.324 155.147C390.216 154.142 389.288 153.449 388.31 153.553L388.31 153.553L388.303 153.554L372.514 155.47C371.511 155.579 370.813 156.499 370.918 157.477L370.918 157.477L370.919 157.481C371.026 158.407 371.813 159.073 372.725 159.073H372.725H372.725H372.725H372.725H372.725H372.725H372.725H372.725H372.725H372.725H372.725H372.725H372.725H372.725H372.725H372.725H372.725H372.725H372.725H372.726H372.726H372.726H372.726H372.726H372.726H372.726H372.726H372.726H372.726H372.726H372.726H372.726H372.726H372.726H372.727H372.727H372.727H372.727H372.727H372.727H372.727H372.727H372.727H372.727H372.727H372.728H372.728H372.728H372.728H372.728H372.728H372.728H372.728H372.728H372.729H372.729H372.729H372.729H372.729H372.729H372.729H372.729H372.73H372.73H372.73H372.73H372.73H372.73H372.73H372.731H372.731H372.731H372.731H372.731H372.731H372.732H372.732H372.732H372.732H372.732H372.732H372.733H372.733H372.733H372.733H372.733H372.733H372.734H372.734H372.734H372.734H372.734H372.735H372.735H372.735H372.735H372.735H372.736H372.736H372.736H372.736H372.736H372.737H372.737H372.737H372.737H372.737H372.738H372.738H372.738H372.738H372.739H372.739H372.739H372.739H372.739H372.74H372.74H372.74H372.74H372.741H372.741H372.741H372.741H372.742H372.742H372.742H372.742H372.743H372.743H372.743H372.743H372.744H372.744H372.744H372.744H372.745H372.745H372.745H372.745H372.746H372.746H372.746H372.746H372.747H372.747H372.747H372.748H372.748H372.748H372.748H372.749H372.749H372.749H372.749H372.75H372.75H372.75H372.751H372.751H372.751H372.752H372.752H372.752H372.752H372.753H372.753H372.753H372.754H372.754H372.754H372.755H372.755H372.755H372.755H372.756H372.756H372.756H372.757H372.757H372.757H372.758H372.758H372.758H372.759H372.759H372.759H372.76H372.76H372.76H372.76H372.761H372.761H372.761H372.762H372.762H372.762H372.763H372.763H372.763H372.764H372.764H372.764H372.765H372.765H372.765H372.766H372.766H372.767H372.767H372.767H372.768H372.768H372.768H372.769H372.769H372.769H372.77H372.77H372.77H372.771H372.771H372.771H372.772H372.772H372.772H372.773H372.773H372.774H372.774H372.774H372.775H372.775H372.775H372.776H372.776H372.776H372.777H372.777H372.778H372.778H372.778H372.779H372.779H372.779H372.78H372.78H372.78H372.781H372.781H372.782H372.782H372.782H372.783H372.783H372.783H372.784H372.784H372.785H372.785H372.785H372.786H372.786H372.787H372.787H372.787H372.788H372.788H372.788H372.789H372.789H372.79H372.79H372.79H372.791H372.791H372.792H372.792H372.792H372.793H372.793H372.793H372.794H372.794H372.795H372.795H372.795H372.796H372.796H372.797H372.797H372.797H372.798H372.798H372.799H372.799H372.799H372.8H372.8H372.801H372.801H372.801H372.802H372.802H372.803H372.803H372.803H372.804H372.804H372.805H372.805H372.805H372.806H372.806H372.807H372.807H372.807H372.808H372.808H372.809H372.809H372.809H372.81H372.81H372.811H372.811H372.811H372.812H372.812H372.813H372.813H372.813H372.814H372.814H372.815H372.815H372.815H372.816H372.816H372.817H372.817H372.817H372.818H372.818H372.819H372.819H372.819H372.82H372.82H372.821H372.821H372.821H372.822H372.822H372.823H372.823H372.823H372.824H372.824H372.825H372.825H372.825H372.826H372.826H372.827H372.827H372.827H372.828H372.828H372.829H372.829H372.829H372.83H372.83H372.831H372.831H372.831H372.832H372.832H372.833H372.833H372.833H372.834H372.834H372.834H372.835H372.835H372.836H372.836H372.836H372.837H372.837H372.838H372.838H372.838H372.839H372.839H372.84H372.84H372.84H372.841H372.841H372.842H372.842H372.842H372.843H372.843H372.843H372.844H372.844H372.845H372.845H372.845H372.846H372.846H372.847H372.847H372.847H372.848H372.848H372.848H372.849H372.849H372.85H372.85H372.85H372.851H372.851H372.851H372.852H372.852H372.853H372.853H372.853H372.854H372.854H372.854H372.855H372.855H372.855H372.856H372.856H372.857H372.857H372.857H372.858H372.858H372.858H372.859H372.859H372.859H372.86H372.86H372.861H372.861H372.861H372.862H372.862H372.862H372.863H372.863H372.863H372.864H372.864H372.864H372.865H372.865H372.865H372.866H372.866H372.866H372.867H372.867H372.867H372.868H372.868H372.869H372.869H372.869H372.87H372.87H372.87H372.871H372.871H372.871H372.871H372.872H372.872H372.872H372.873H372.873H372.873H372.874H372.874H372.874H372.875H372.875H372.875H372.876H372.876H372.876H372.877H372.877H372.877H372.878H372.878H372.878H372.878H372.879H372.879Z" fill="black" stroke="black"/>
</g>
<defs>
<clipPath id="clip0_5180_15836">
<rect width="424" height="250" fill="white"/>
</clipPath>
<clipPath id="clip1_5180_15836">
<rect width="245" height="338" fill="white" transform="translate(140 -2)"/>
</clipPath>
</defs>
</svg>
