<svg width="344" height="270" viewBox="0 0 344 270" fill="none" xmlns="http://www.w3.org/2000/svg">
<g clip-path="url(#clip0_5179_35844)">
<path d="M91.3614 120.389H82.4849V394.822H91.3614V120.389Z" fill="#8A6456"/>
<path d="M92.626 396.06H81.2202V119.15H92.626V396.084V396.06ZM83.7251 393.559H90.0968V121.651H83.7251V393.559Z" fill="black"/>
<path d="M86.2543 170.502C133.143 170.502 171.153 132.554 171.153 85.7417C171.153 38.9299 133.143 0.981445 86.2543 0.981445C39.366 0.981445 1.35547 38.9299 1.35547 85.7417C1.35547 132.554 39.366 170.502 86.2543 170.502Z" fill="#F05144"/>
<path d="M86.2543 171.74C38.7343 171.74 0.0908203 133.16 0.0908203 85.7416C0.0908203 38.3234 38.7343 -0.28125 86.2543 -0.28125C133.774 -0.28125 172.418 38.2991 172.418 85.7416C172.418 133.184 133.774 171.764 86.2543 171.764V171.74ZM86.2543 2.21956C40.1205 2.21956 2.59571 39.6831 2.59571 85.7416C2.59571 131.8 40.1205 169.239 86.2299 169.239C132.339 169.239 169.864 131.776 169.864 85.7416C169.864 39.7074 132.364 2.21956 86.2543 2.21956Z" fill="black"/>
<path d="M127.943 127.941C130.688 125.217 130.683 120.776 127.944 118.038L53.9611 44.0584C53.9605 44.0579 53.96 44.0574 53.9595 44.0569C51.2362 41.3127 46.7959 41.317 44.0571 44.054C41.3122 46.7777 41.3169 51.219 44.0556 53.9576L44.0557 53.9577L118.042 127.92C118.042 127.92 118.042 127.92 118.042 127.92C119.361 129.239 121.058 129.92 122.768 129.977C122.838 129.992 122.91 130 122.983 130C124.775 130 126.585 129.298 127.943 127.941ZM127.943 127.941C127.943 127.941 127.942 127.942 127.941 127.943L127.237 127.233L127.944 127.94C127.944 127.94 127.944 127.94 127.943 127.941Z" fill="white" stroke="white" stroke-width="2" stroke-linejoin="round"/>
<path d="M53.0937 127.944L53.0938 127.944L127.924 53.9646C127.924 53.9643 127.925 53.964 127.925 53.9637C130.707 51.2355 130.674 46.7896 127.93 44.0543C125.18 41.3136 120.699 41.3178 117.933 44.0513C117.933 44.0513 117.933 44.0514 117.933 44.0514L43.0834 118.011C43.0827 118.012 43.082 118.012 43.0814 118.013C40.3039 120.738 40.3088 125.185 43.0804 127.924C44.42 129.248 46.1421 129.926 47.8749 129.977C47.9433 129.992 48.0143 130 48.0871 130C49.8934 130 51.7209 129.301 53.0937 127.944Z" fill="white" stroke="white" stroke-width="2" stroke-linejoin="round"/>
<g clip-path="url(#clip1_5179_35844)">
<path d="M149.617 192.691L82.5544 198.482L83.7485 218.551L153.227 221.614L149.617 192.691Z" fill="white"/>
<path d="M153.226 223.441C153.226 223.441 153.171 223.441 153.143 223.441L83.6651 220.406C82.7487 220.378 81.9989 219.619 81.9434 218.691L80.7493 198.594C80.6938 197.61 81.4158 196.739 82.3877 196.655L149.45 190.864C150.449 190.78 151.283 191.483 151.394 192.466L155.004 221.39C155.059 221.924 154.893 222.458 154.532 222.851C154.198 223.217 153.698 223.441 153.199 223.441H153.226ZM85.4701 216.808L151.171 219.675L148.034 194.659L84.4426 200.14L85.4423 216.808H85.4701Z" fill="black"/>
<path d="M75.2233 205.34C75.2233 205.34 75.2233 193.732 83.9983 192.889C92.7733 192.045 96.3 195.699 96.1611 198.96C96.0223 202.22 86.9696 202.136 86.9696 202.136C86.9696 202.136 95.7724 201.799 95.4392 207.252C95.1059 212.705 87.525 212.143 87.525 212.143C87.525 212.143 95.2448 212.058 95.4669 217.989C95.6891 223.92 84.3038 222.908 84.3038 222.908C84.3038 222.908 74.9734 223.273 75.1956 205.312L75.2233 205.34Z" fill="white"/>
<path d="M86.2477 224.847C85.3035 224.847 84.5816 224.791 84.2761 224.762C83.5819 224.762 80.8605 224.566 78.278 222.008C74.9735 218.747 73.3629 213.126 73.4462 205.34C73.4462 200.758 75.6399 191.876 83.8596 191.061C90.6074 190.415 94.1063 192.242 95.828 193.928C97.2997 195.333 98.0773 197.16 97.994 199.044C97.9384 200.73 96.7999 201.854 95.2448 202.585C95.4115 202.726 95.5781 202.866 95.7169 203.035C96.8277 204.187 97.3553 205.705 97.272 207.392C97.1609 209.163 96.4389 210.708 95.1615 211.833C94.9116 212.03 94.6895 212.226 94.4118 212.395C96.0224 213.575 97.2164 215.346 97.2997 217.96C97.3553 219.619 96.7721 221.08 95.6058 222.205C93.2455 224.481 88.858 224.847 86.2199 224.847H86.2477ZM84.3039 221.108C84.3039 221.108 84.4427 221.108 84.4982 221.108C86.9697 221.333 91.496 221.108 93.1344 219.534C93.5509 219.141 93.7175 218.691 93.6898 218.073C93.5509 214.672 89.58 214.081 88.1082 213.997C87.775 213.997 87.5251 213.997 87.4418 213.997C86.4698 213.913 85.7479 213.098 85.7756 212.114C85.8034 211.13 86.5809 210.343 87.5528 210.343C87.8028 210.343 88.0527 210.343 88.3304 210.343C89.5522 210.343 91.6349 210.09 92.8012 209.05C93.3565 208.572 93.6342 207.954 93.6898 207.139C93.7453 206.464 93.5787 205.986 93.1622 205.565C91.9681 204.3 89.1634 203.991 87.6917 203.963C87.4418 203.963 87.2196 203.963 87.0252 203.963C86.0533 203.963 85.248 203.147 85.248 202.164C85.248 201.18 85.9978 200.337 86.9975 200.309C87.1085 200.309 87.3584 200.309 87.6917 200.309C90.8018 200.252 94.0508 199.55 94.4673 198.819C94.4673 198.06 94.1063 197.245 93.4121 196.57C92.4402 195.643 89.941 194.125 84.2761 194.687C77.2505 195.362 77.1395 204.918 77.1395 205.34C77.0284 213.688 79.0555 217.539 80.7772 219.309C82.5266 221.08 84.2761 221.108 84.3872 221.108H84.3039Z" fill="black"/>
<path d="M265.219 120.005C265.219 120.005 286.878 102.662 304.317 117.869C304.317 117.869 312.731 127.903 309.121 139.484C309.121 139.484 325.061 137.966 329.282 151.654C329.282 151.654 333.197 163.825 323.561 172.342C323.561 172.342 341.611 176.895 340.112 192.13C340.112 192.13 341 205.228 328.088 210.99C328.088 210.99 340.112 221.334 335.918 233.505C335.918 233.505 331.698 246.603 317.563 245.985C317.563 245.985 325.672 258.465 315.758 270.635C315.758 270.635 305.234 281.597 290.794 274.908C290.794 274.908 293.487 291.351 278.464 295.595C278.464 295.595 259.526 300.458 252.612 287.079C252.612 287.079 250.501 301.385 231.563 299.558H235.173C216.234 301.385 214.124 287.079 214.124 287.079C207.209 300.458 188.271 295.595 188.271 295.595C173.248 291.323 175.941 274.908 175.941 274.908C161.502 281.597 150.977 270.635 150.977 270.635C141.064 258.465 149.172 245.985 149.172 245.985C135.038 246.603 130.817 233.505 130.817 233.505C126.596 221.334 138.648 210.99 138.648 210.99C125.707 205.2 126.624 192.13 126.624 192.13C125.124 176.923 143.174 172.342 143.174 172.342C133.538 163.825 137.454 151.654 137.454 151.654C141.674 137.966 157.614 139.484 157.614 139.484C154.004 127.903 162.418 117.869 162.418 117.869C179.857 102.662 201.517 120.005 201.517 120.005C201.517 120.005 207.237 100.217 231.896 100.526C231.896 100.526 252.056 96.872 265.274 120.005H265.219Z" fill="white"/>
<path d="M234.784 301.582C234.312 301.582 233.84 301.582 233.368 301.554C220.872 302.088 215.679 295.567 213.624 291.21C205.099 301.694 188.576 297.619 187.826 297.422C175.553 293.937 173.97 283.059 173.97 277.69C159.946 282.384 149.783 272.069 149.7 271.956C141.841 262.315 144.34 252.449 146.284 247.783C133.316 246.631 129.151 234.235 129.123 234.095C125.624 223.948 132.15 215.178 135.593 211.468C124.846 205.228 124.791 193.76 124.819 192.186C123.763 180.718 132.955 174.169 139.814 171.526C132.177 162.588 135.593 151.598 135.732 151.092C139.259 139.624 150.283 137.853 155.281 137.628C153.115 126.301 160.696 117.081 161.029 116.688C161.085 116.603 161.168 116.547 161.224 116.491C176.441 103.224 194.713 113.259 200.656 117.194C201.572 115.142 203.266 112.022 206.126 108.93C210.486 104.208 218.483 98.5862 231.757 98.7268C232.784 98.5862 237.755 97.9679 244.114 99.8792C250.223 101.678 258.832 106.204 265.802 117.419C271.383 113.652 290.044 103.027 305.539 116.519C305.623 116.575 305.678 116.66 305.734 116.716C306.067 117.137 313.676 126.357 311.482 137.656C316.48 137.853 327.505 139.652 331.031 151.12C331.198 151.598 334.586 162.588 326.949 171.526C333.808 174.169 343 180.746 341.944 192.186C342 193.76 341.917 205.228 331.17 211.468C334.613 215.178 341.139 223.948 337.612 234.123C337.585 234.235 333.447 246.631 320.451 247.755C322.395 252.421 324.922 262.259 317.147 271.816C316.952 272.04 306.789 282.384 292.765 277.662C292.765 283.031 291.21 293.908 278.964 297.366C278.159 297.562 261.636 301.666 253.111 291.154C251.14 295.37 246.252 301.526 234.784 301.526V301.582ZM214.124 285.279C214.124 285.279 214.318 285.279 214.429 285.279C215.207 285.42 215.79 286.038 215.901 286.797C215.984 287.247 217.706 297.338 230.868 297.872C231.091 297.787 231.313 297.731 231.563 297.731H235.173C235.423 297.731 235.645 297.787 235.867 297.872C249.029 297.338 250.751 287.275 250.834 286.797C250.945 286.01 251.556 285.392 252.334 285.279C253.111 285.139 253.861 285.532 254.222 286.235C260.415 298.209 277.881 293.88 278.048 293.824C291.266 290.086 289.128 275.807 289.044 275.189C288.933 274.514 289.211 273.839 289.739 273.446C290.266 273.024 290.988 272.968 291.571 273.249C304.706 279.349 314.398 269.483 314.481 269.37C323.367 258.464 316.147 247.109 316.064 246.996C315.703 246.434 315.675 245.675 316.008 245.085C316.341 244.495 316.952 244.129 317.647 244.157C330.254 244.691 334.169 233.055 334.197 232.942C337.946 222.093 327.032 212.48 326.921 212.367C326.449 211.946 326.227 211.327 326.31 210.709C326.394 210.091 326.81 209.556 327.366 209.303C338.945 204.132 338.362 192.72 338.334 192.214C338.334 192.101 338.334 192.017 338.334 191.905C339.667 178.413 323.311 174.112 323.145 174.084C322.506 173.916 321.978 173.41 321.84 172.735C321.673 172.06 321.895 171.386 322.395 170.936C331.031 163.291 327.616 152.301 327.588 152.188C323.839 140.017 309.482 141.254 309.316 141.254C308.705 141.31 308.122 141.057 307.733 140.58C307.344 140.102 307.233 139.455 307.428 138.893C310.51 128.999 303.845 120.145 303.04 119.105C286.934 105.22 266.552 121.213 266.357 121.382C265.941 121.719 265.413 121.832 264.885 121.747C264.358 121.635 263.914 121.326 263.664 120.876C251.223 99.0922 232.34 102.24 232.174 102.268C232.062 102.268 231.951 102.268 231.84 102.296C208.848 102.044 203.433 119.723 203.211 120.454C203.044 121.044 202.6 121.494 202.016 121.663C201.433 121.832 200.822 121.719 200.35 121.354C199.517 120.679 179.746 105.22 163.667 119.077C162.862 120.117 156.198 128.999 159.28 138.865C159.474 139.455 159.336 140.074 158.975 140.551C158.586 141.029 158.03 141.282 157.392 141.226C156.781 141.17 142.841 140.045 139.12 152.132C138.981 152.61 135.732 163.319 144.285 170.908C144.785 171.358 145.007 172.06 144.84 172.707C144.673 173.353 144.174 173.887 143.535 174.056C142.869 174.225 127.012 178.441 128.345 191.877C128.345 191.989 128.345 192.073 128.345 192.186C128.318 192.664 127.734 204.075 139.314 209.247C139.869 209.5 140.286 210.034 140.369 210.653C140.453 211.271 140.23 211.889 139.758 212.311C139.647 212.395 128.734 222.008 132.483 232.83C132.65 233.336 136.565 244.635 149.033 244.101C149.755 244.073 150.338 244.438 150.672 245.029C151.005 245.619 150.977 246.35 150.616 246.94C150.311 247.39 143.368 258.492 152.31 269.426C152.615 269.707 162.085 279.236 175.136 273.193C175.747 272.912 176.441 272.996 176.997 273.39C177.524 273.811 177.802 274.486 177.691 275.132C177.608 275.723 175.469 290.001 188.715 293.768C188.854 293.796 206.321 298.097 212.485 286.151C212.791 285.532 213.429 285.167 214.096 285.167L214.124 285.279Z" fill="black"/>
<path d="M179.968 120.623L190.798 60.0503C190.798 60.0503 229.897 38.7445 271.384 60.0503L281.908 120.314C281.908 120.314 234.701 133.103 179.968 120.623Z" fill="#FF4438"/>
<mask id="mask0_5179_35844" style="mask-type:luminance" maskUnits="userSpaceOnUse" x="180" y="51" width="103" height="76">
<path d="M180.273 121.241L191.103 60.6685C191.103 60.6685 230.202 39.3626 271.689 60.6685L282.213 120.932C282.213 120.932 235.006 133.721 180.273 121.241Z" fill="white"/>
</mask>
<g mask="url(#mask0_5179_35844)">
<path d="M202.551 46.1502L190.815 136.867L197.974 137.816L209.709 47.099L202.551 46.1502Z" fill="white"/>
<path d="M218.514 46.1611L213.862 137.531L221.072 137.907L225.724 46.5372L218.514 46.1611Z" fill="white"/>
<path d="M241.967 46.1337L234.757 46.5098L239.409 137.88L246.619 137.504L241.967 46.1337Z" fill="white"/>
<path d="M258.67 46.1918L251.511 47.1406L263.247 137.858L270.406 136.909L258.67 46.1918Z" fill="white"/>
</g>
<path d="M229.813 127.875C214.762 127.875 197.546 126.498 179.579 122.394C178.635 122.169 178.024 121.242 178.191 120.286L189.021 59.7133C189.132 59.1793 189.465 58.7014 189.937 58.4203C190.326 58.1955 230.341 36.9178 272.189 58.4203C272.689 58.6733 273.05 59.1793 273.161 59.7414L283.685 120.005C283.852 120.932 283.269 121.832 282.38 122.085C282.047 122.169 260.442 127.875 229.813 127.875ZM182.051 119.218C229.424 129.59 271.245 120.961 279.825 118.937L269.745 61.2593C232.979 42.8485 197.934 58.5328 192.381 61.2593L182.023 119.218H182.051Z" fill="black"/>
<path d="M232.451 237.018C226.703 237.018 210.097 236.259 200.295 227.939C199.351 227.124 199.212 225.691 200.017 224.735C200.822 223.779 202.239 223.639 203.183 224.454C213.596 233.28 234.145 232.437 234.367 232.437C255.416 232.352 261.914 224.229 261.97 224.145C262.72 223.133 264.108 222.908 265.135 223.667C266.135 224.426 266.357 225.831 265.608 226.871C265.302 227.293 258.027 236.906 234.479 237.018C234.34 237.018 233.618 237.046 232.451 237.046V237.018Z" fill="black"/>
<path d="M215.984 203.851C226.812 203.851 235.589 193.242 235.589 180.156C235.589 167.07 226.812 156.461 215.984 156.461C205.157 156.461 196.379 167.07 196.379 180.156C196.379 193.242 205.157 203.851 215.984 203.851Z" fill="#FFD200"/>
<path d="M215.984 205.678C204.183 205.678 194.574 194.238 194.574 180.156C194.574 166.074 204.183 154.634 215.984 154.634C227.786 154.634 237.394 166.074 237.394 180.156C237.394 194.238 227.786 205.678 215.984 205.678ZM215.984 158.288C206.154 158.288 198.184 168.097 198.184 180.156C198.184 192.214 206.182 202.024 215.984 202.024C225.787 202.024 233.784 192.214 233.784 180.156C233.784 168.097 225.787 158.288 215.984 158.288Z" fill="black"/>
<path d="M247.502 203.176C257.548 203.176 265.691 193.335 265.691 181.195C265.691 169.056 257.548 159.215 247.502 159.215C237.457 159.215 229.313 169.056 229.313 181.195C229.313 193.335 237.457 203.176 247.502 203.176Z" fill="#FFD200"/>
<path d="M247.502 205.003C236.478 205.003 227.509 194.322 227.509 181.224C227.509 168.125 236.478 157.444 247.502 157.444C258.527 157.444 267.496 168.125 267.496 181.224C267.496 194.322 258.527 205.003 247.502 205.003ZM247.502 161.07C238.477 161.07 231.119 170.093 231.119 181.224C231.119 192.354 238.477 201.377 247.502 201.377C256.527 201.377 263.886 192.354 263.886 181.224C263.886 170.093 256.527 161.07 247.502 161.07Z" fill="black"/>
<path d="M247.696 195.531C253.248 195.531 257.749 189.125 257.749 181.224C257.749 173.322 253.248 166.917 247.696 166.917C242.145 166.917 237.644 173.322 237.644 181.224C237.644 189.125 242.145 195.531 247.696 195.531Z" fill="black"/>
<path d="M214.652 195.531C220.203 195.531 224.704 189.125 224.704 181.224C224.704 173.322 220.203 166.917 214.652 166.917C209.1 166.917 204.599 173.322 204.599 181.224C204.599 189.125 209.1 195.531 214.652 195.531Z" fill="black"/>
<path d="M232.951 227.18C242.076 227.18 249.474 220.221 249.474 211.636C249.474 203.052 242.076 196.093 232.951 196.093C223.826 196.093 216.429 203.052 216.429 211.636C216.429 220.221 223.826 227.18 232.951 227.18Z" fill="#F5333F"/>
<path d="M232.951 228.979C222.843 228.979 214.624 221.193 214.624 211.608C214.624 202.023 222.843 194.237 232.951 194.237C243.059 194.237 251.279 202.023 251.279 211.608C251.279 221.193 243.059 228.979 232.951 228.979ZM232.951 197.919C224.843 197.919 218.234 204.075 218.234 211.636C218.234 219.197 224.843 225.353 232.951 225.353C241.06 225.353 247.669 219.197 247.669 211.636C247.669 204.075 241.06 197.919 232.951 197.919Z" fill="black"/>
<path d="M302.346 245.085C301.541 245.085 282.713 244.692 277.576 234.741C276.632 232.661 274.66 230.075 273.577 230.441C273.549 230.441 272.772 230.778 272.55 231.678C272.355 232.436 272.272 234.685 275.965 239.267C276.604 240.054 276.465 241.206 275.715 241.825C274.938 242.471 273.799 242.33 273.188 241.572C269.662 237.187 268.301 233.505 269.134 230.609C269.912 227.911 272.244 227.068 272.522 226.984C277.27 225.438 280.519 232.38 280.88 233.167C284.268 239.745 297.597 241.403 302.457 241.459C303.457 241.459 304.262 242.302 304.234 243.314C304.234 244.326 303.401 245.113 302.429 245.113L302.346 245.085Z" fill="black"/>
<path d="M269.551 248.093C269.19 248.093 268.829 247.98 268.523 247.755C264.58 244.945 262.525 242.078 262.359 239.211C262.22 236.428 263.914 234.826 264.108 234.657C268.801 231.087 274.716 237.721 275.382 238.508C276.049 239.267 275.965 240.419 275.216 241.094C274.466 241.768 273.327 241.684 272.661 240.925C271.189 239.239 267.94 236.54 266.468 237.44C266.302 237.608 265.885 238.199 265.969 239.098C266.052 240.054 266.746 242.049 270.606 244.804C271.411 245.394 271.606 246.519 271.05 247.362C270.689 247.868 270.134 248.149 269.579 248.149L269.551 248.093Z" fill="black"/>
<path d="M298.319 267.009C298.319 267.009 298.181 267.009 298.125 267.009C273.827 264.395 260.72 251.269 260.165 250.707C258.499 248.823 257.777 246.996 257.971 245.226C258.193 243.061 259.721 241.881 259.915 241.768C264.025 238.62 269.995 244.186 270.662 244.832C271.383 245.535 271.411 246.687 270.717 247.418C270.023 248.149 268.884 248.177 268.162 247.474C266.663 246.013 263.33 243.736 262.025 244.692C262.025 244.692 261.581 245.057 261.526 245.647C261.47 246.322 261.914 247.221 262.775 248.205C262.831 248.261 275.521 260.91 298.486 263.383C299.486 263.496 300.18 264.395 300.097 265.407C299.986 266.335 299.208 267.037 298.292 267.037L298.319 267.009Z" fill="black"/>
<path d="M188.576 156.517C188.576 156.517 204.71 183.613 231.119 160.508C231.119 160.508 253.417 183.079 266.968 155.814L259.248 144.88L195.269 149.209L188.576 156.488V156.517Z" fill="white"/>
<path d="M266.802 159.805C266.802 159.805 261.081 169.98 248.668 169.249C248.668 169.249 235.728 169.109 231.257 159.468C231.257 159.468 225.787 172.201 208.653 170.542C208.653 170.542 198.656 169.53 192.714 161.941" fill="white"/>
<path d="M211.68 172.988C210.653 172.988 209.57 172.932 208.459 172.82C208.015 172.763 197.435 171.611 190.965 163.375C190.187 162.392 190.354 160.958 191.326 160.171C192.297 159.384 193.714 159.553 194.491 160.536C199.795 167.282 208.82 168.266 208.903 168.294C224.093 169.784 229.008 159.047 229.202 158.569C229.563 157.754 230.369 157.22 231.257 157.22C232.118 157.22 232.923 157.726 233.312 158.541C237.117 166.776 248.585 167.001 248.696 167.001C259.665 167.648 264.774 158.794 264.83 158.709C265.441 157.613 266.829 157.22 267.912 157.866C268.995 158.485 269.384 159.89 268.745 160.986C268.496 161.464 262.164 172.37 248.53 171.583C248.113 171.583 237.172 171.358 231.23 163.797C228.369 167.535 222.343 173.044 211.652 173.044L211.68 172.988Z" fill="black"/>
</g>
</g>
<defs>
<clipPath id="clip0_5179_35844">
<rect width="344" height="270" fill="white"/>
</clipPath>
<clipPath id="clip1_5179_35844">
<rect width="351" height="402" fill="white" transform="translate(-9 -53)"/>
</clipPath>
</defs>
</svg>
