<svg width="424" height="250" viewBox="0 0 424 250" fill="none" xmlns="http://www.w3.org/2000/svg">
<g clip-path="url(#clip0_4758_33721)">
<g clip-path="url(#clip1_4758_33721)">
<path d="M301.127 109.24C301.127 109.24 328.996 75.4977 374.055 86.3946C419.114 97.2915 409.649 141.907 409.649 141.907C409.649 141.907 402.592 172.781 364.281 185.016C325.992 197.251 318.65 227.552 318.65 227.552C318.65 227.552 309.948 254.747 277.477 247.076C245.006 239.405 268.823 139.254 301.127 109.24Z" fill="#F68E57"/>
<mask id="mask0_4758_33721" style="mask-type:alpha" maskUnits="userSpaceOnUse" x="261" y="84" width="150" height="165">
<path d="M301.127 109.24C301.127 109.24 328.996 75.4977 374.055 86.3946C419.114 97.2915 409.649 141.907 409.649 141.907C409.649 141.907 402.592 172.781 364.281 185.016C325.992 197.251 318.65 227.552 318.65 227.552C318.65 227.552 309.948 254.747 277.477 247.076C245.006 239.405 268.823 139.254 301.127 109.24Z" fill="#F68E57"/>
</mask>
<g mask="url(#mask0_4758_33721)">
<path d="M416.11 154.071C413.344 154.047 410.674 152.469 409.387 149.817C390.791 111.773 355.126 119.11 354.768 119.181C350.691 120.089 346.638 117.485 345.756 113.374C344.874 109.288 347.449 105.226 351.55 104.342C367.952 100.757 403.999 104.246 423.024 143.15" fill="black"/>
<path d="M402.855 190.56C400.113 190.13 397.705 188.218 396.799 185.399C383.806 145.085 347.449 147.26 347.068 147.283C342.895 147.594 339.272 144.44 338.962 140.258C338.652 136.076 341.799 132.444 345.971 132.133C362.707 130.914 397.92 139.517 411.199 180.715C412.486 184.706 410.293 188.983 406.312 190.274C405.143 190.656 403.951 190.728 402.831 190.56H402.855Z" fill="black"/>
<path d="M383.472 217.898C380.731 217.468 378.323 215.556 377.417 212.737C364.424 172.423 328.067 174.597 327.685 174.621C323.513 174.932 319.889 171.778 319.579 167.596C319.269 163.414 322.416 159.781 326.589 159.471C343.325 158.252 378.537 166.855 391.817 208.053C393.104 212.044 390.911 216.321 386.929 217.611C385.761 217.994 384.569 218.066 383.448 217.898H383.472Z" fill="black"/>
</g>
<path d="M288.539 250.135C285.106 250.135 281.339 249.705 277.214 248.725C270.038 247.029 264.913 241.031 262.362 231.4C253.803 198.925 274.234 132.133 300.03 108.069C301.746 106.086 330.188 74.0404 374.556 84.77C420.687 95.9298 411.509 141.811 411.413 142.289C411.342 142.624 403.665 174.263 364.924 186.642C345.661 192.807 334.575 203.704 328.686 211.757C322.297 220.503 320.414 227.911 320.414 227.983C320.294 228.341 312.999 250.159 288.539 250.159V250.135ZM356.556 85.9409C323.131 85.9409 302.795 110.029 302.557 110.316L302.414 110.483C277.763 133.4 257.474 199.594 265.628 230.54C267.869 239.023 272.017 244.042 277.977 245.451C308.493 252.644 316.838 228.102 317.171 227.051C317.457 225.904 325.158 195.818 363.899 183.416C383.162 177.25 394.153 166.21 399.994 158.037C406.335 149.148 408.123 141.62 408.147 141.549C408.505 139.828 416.706 98.4389 373.793 88.0439C367.713 86.5862 361.968 85.9409 356.556 85.9409Z" fill="black"/>
<path d="M286.489 239.859L286.107 275.322C286.107 275.322 293.76 277.258 293.832 284.522C293.832 284.522 296.025 297.02 276.523 296.279C276.523 296.279 266.033 295.754 265.866 287.199L266.367 240.266L286.512 239.883L286.489 239.859Z" fill="#884F4A"/>
<path d="M278.168 298C277.596 298 277.024 298 276.452 297.977C272.256 297.761 264.341 295.252 264.174 287.247L264.698 238.617L288.205 238.163L287.824 274.128C290.995 275.37 295.405 278.572 295.524 284.427C295.643 285.287 296.001 289.445 292.902 292.982C289.993 296.328 285.034 298.024 278.192 298.024L278.168 298ZM268.012 241.915L267.512 287.223C267.655 294.081 276.213 294.583 276.571 294.607C283.103 294.846 287.871 293.532 290.303 290.808C292.663 288.155 292.163 284.977 292.163 284.833V284.57C292.067 278.716 285.94 277.043 285.678 276.971L284.415 276.637V275.322L284.796 241.604L268.036 241.915H268.012Z" fill="black"/>
<g clip-path="url(#clip2_4758_33721)">
<path d="M277.891 186.765C294.787 185.665 305.08 182.536 311.229 179.562C314.419 178.02 316.493 176.519 317.793 175.367C318.064 175.126 318.302 174.901 318.508 174.694C318.947 175.138 319.49 175.707 320.088 176.378C321.633 178.111 323.508 180.481 324.917 183.089C326.338 185.719 327.198 188.432 326.939 190.908C326.691 193.28 325.392 195.676 321.957 197.726C314.641 202.094 304.913 204.518 296.905 205.84C292.921 206.499 289.403 206.878 286.882 207.093C285.679 207.195 284.705 207.26 284.017 207.3L277.891 186.765Z" fill="#F68E57" stroke="black" stroke-width="3"/>
<path d="M328.12 188.432C328.454 188.432 328.788 188.305 329.045 188.049C329.302 187.794 335.259 181.917 334.026 175.528C333.641 173.459 332.665 171.925 331.176 170.954C328.711 169.37 325.707 170.035 325.578 170.06C324.859 170.239 324.423 170.929 324.602 171.644C324.782 172.36 325.475 172.794 326.194 172.615C326.246 172.615 328.274 172.181 329.764 173.152C330.611 173.714 331.176 174.66 331.433 175.988C332.383 180.997 327.247 186.082 327.196 186.133C326.682 186.644 326.657 187.487 327.196 187.998C327.453 188.254 327.787 188.381 328.146 188.381L328.12 188.432Z" fill="black"/>
<path d="M358.786 160.583C357.453 161.242 355.534 161.496 353.319 161.466C350.979 161.434 348.383 161.087 345.953 160.635C343.525 160.183 341.277 159.628 339.634 159.186C338.813 158.965 338.144 158.772 337.681 158.635C337.493 158.579 337.338 158.532 337.222 158.497C330.285 133.486 332.243 119.477 336.972 111.794C341.702 104.111 349.292 102.621 353.916 102.845C358.519 103.068 362.113 105.05 364.009 108.581C365.915 112.13 366.166 117.358 363.816 124.184C361.42 131.143 360.164 140.329 359.506 147.747C359.176 151.461 358.995 154.743 358.896 157.097C358.847 158.274 358.818 159.219 358.802 159.87C358.794 160.174 358.789 160.413 358.786 160.583Z" fill="#F68E57" stroke="black"/>
<path fill-rule="evenodd" clip-rule="evenodd" d="M335.461 160.207L336.702 160.572V160.554C338.863 161.221 347 163.589 353.555 163.589C356.062 163.589 358.385 163.256 360.072 162.297L360.073 162.297L360.891 161.827V160.887L360.891 160.885L360.891 160.88L360.891 160.863L360.892 160.806C360.893 160.756 360.894 160.686 360.896 160.597C360.899 160.417 360.905 160.158 360.914 159.828C360.932 159.167 360.963 158.22 361.015 157.047C361.118 154.703 361.304 151.458 361.634 147.802C362.295 140.482 363.532 131.537 365.831 124.853C369.143 115.299 367.346 109.55 365.205 106.419C362.856 102.953 358.857 100.951 354.032 100.717L354.029 100.717C350.834 100.588 342.727 101.026 336.784 108.418C332.891 113.277 330.833 120.004 330.581 128.509C330.33 137.013 331.884 147.317 335.239 159.355L335.24 159.357L335.461 160.207ZM336.483 160.171C336.544 160.191 336.618 160.214 336.702 160.24C338.713 160.864 346.954 163.289 353.555 163.289C356.046 163.289 358.306 162.956 359.923 162.036L360.591 161.653V161.653L359.923 162.036C358.306 162.956 356.046 163.288 353.555 163.288C346.545 163.288 337.686 160.554 336.402 160.145V160.146L336.409 160.148L336.483 160.171ZM336.402 160.171V160.171L335.709 159.967L335.529 159.277C330.502 141.243 329.535 127.148 332.604 117.184C329.535 127.148 330.502 141.243 335.529 159.277L335.709 159.967L336.402 160.171ZM366.105 123.022C365.938 123.585 365.752 124.163 365.547 124.755C365.547 124.755 365.547 124.755 365.547 124.755C365.752 124.163 365.938 123.585 366.105 123.022ZM362.526 108.264C364.938 111.828 365.071 117.181 362.773 123.84C358.507 136.221 357.796 155.215 357.677 159.858C356.594 160.235 355.171 160.391 353.551 160.381C351.84 160.371 349.933 160.177 348.016 159.881C344.266 159.303 340.502 158.341 338.137 157.632C330.426 129.366 334.577 116.363 339.332 110.429C344.328 104.228 351.167 103.848 353.875 103.974C357.783 104.15 360.741 105.649 362.526 108.264ZM335.423 117.218C336.425 114.21 337.733 111.944 339.098 110.241C344.183 103.93 351.141 103.546 353.889 103.674C357.869 103.853 360.925 105.386 362.774 108.095C364.446 110.565 365.042 113.842 364.553 117.756C365.042 113.843 364.446 110.566 362.774 108.095C360.925 105.386 357.869 103.853 353.889 103.674C351.141 103.547 344.183 103.93 339.098 110.241C337.733 111.945 336.425 114.21 335.423 117.218ZM359.579 139.747C358.321 148.846 358.036 157.402 357.972 160.069C357.972 160.069 357.972 160.069 357.972 160.069C358.036 157.402 358.321 148.846 359.579 139.747Z" fill="black"/>
<path d="M367.19 182.3C367.19 182.3 371.376 148.903 340.048 152.046C308.695 155.189 312.855 170.188 312.855 170.188C312.855 170.188 314.473 179.949 318.761 179.566C318.761 179.566 312.213 182.632 313.189 190.502C314.164 198.347 322.69 201.286 322.69 201.286C322.69 201.286 316.912 202.895 318.478 210.331C320.045 217.741 330.111 223.772 342.565 222.06C355.019 220.348 365.059 210.025 367.19 182.3Z" fill="#F68E57"/>
<path fill-rule="evenodd" clip-rule="evenodd" d="M340.532 150.316C327.061 151.671 318.08 155.336 313.969 161.304C310.962 165.675 311.75 169.693 311.919 170.401C312.013 170.945 312.35 172.73 313.041 174.682C313.691 176.52 314.671 178.558 316.095 179.828C313.817 181.933 311.616 185.525 312.249 190.59C312.955 196.309 317.064 199.658 319.939 201.336C318.075 203.043 316.6 205.996 317.569 210.546C318.49 214.934 321.522 218.261 325.516 220.485C329.509 222.708 334.485 223.841 339.355 223.841C340.731 223.841 342.105 223.738 343.452 223.558L343.453 223.557C351.135 222.497 357.168 218.475 361.513 211.567C365.849 204.672 368.501 194.909 369.466 182.355C369.535 181.799 369.98 177.697 369.295 172.585C368.607 167.453 366.776 161.266 362.243 156.639C357.205 151.495 349.861 149.39 340.532 150.316ZM316.32 179.626C316.396 179.693 316.474 179.758 316.552 179.821C316.474 179.758 316.396 179.693 316.32 179.626ZM320.177 201.127C320.271 201.181 320.364 201.234 320.456 201.285C320.456 201.285 320.456 201.285 320.456 201.285C320.364 201.234 320.271 201.181 320.177 201.127ZM332.176 222.705C334.503 223.26 336.941 223.541 339.355 223.541C340.716 223.541 342.077 223.439 343.412 223.26C358.588 221.165 367.242 207.392 369.168 182.325C369.271 181.504 370.367 171.463 366.173 162.815C370.366 171.463 369.271 181.504 369.168 182.325C367.242 207.392 358.588 221.165 343.412 223.26C342.077 223.439 340.716 223.541 339.355 223.541C336.941 223.541 334.503 223.26 332.176 222.705ZM316.695 163.077L316.696 163.076C319.09 159.628 325.225 155.099 340.848 153.545C342.176 153.417 343.45 153.342 344.67 153.342C351.186 153.342 356.288 155.19 359.889 158.873C363.904 162.957 365.49 168.679 366.064 173.433C366.585 177.74 366.272 181.181 366.208 181.888L366.208 181.889C366.201 181.963 366.197 182.007 366.197 182.018V182.058C365.299 193.886 362.88 202.996 358.993 209.376C355.113 215.746 349.77 219.399 342.986 220.331C336.931 221.166 331.686 220.114 327.795 218.066C323.898 216.015 321.38 212.98 320.723 209.859C320.086 206.875 320.84 205.115 321.728 204.095C322.445 203.272 323.273 202.902 323.615 202.776L339.335 200.868L339.338 200.868C340.227 200.772 340.851 199.954 340.757 199.081C340.662 198.192 339.838 197.572 338.964 197.665L323.574 199.533L323.525 199.513C323.311 199.424 323.007 199.29 322.64 199.108C321.906 198.743 320.927 198.189 319.925 197.424C317.918 195.892 315.848 193.536 315.438 190.185C314.725 184.266 318.993 181.526 319.925 181.001C326.143 179.67 330.744 178.99 333.804 178.643C335.346 178.468 336.496 178.377 337.264 178.331C337.649 178.307 337.937 178.295 338.131 178.288C338.229 178.285 338.302 178.283 338.352 178.282L338.41 178.281L338.425 178.281C338.428 178.281 338.429 178.281 338.43 178.281L338.431 178.281C339.31 178.281 340.066 177.564 340.066 176.652C340.066 175.777 339.347 175.023 338.456 175.023C338.177 175.023 332.102 175.026 319.13 177.836C318.735 177.811 318.327 177.565 317.909 177.094C317.443 176.569 317.009 175.812 316.625 174.946C315.857 173.217 315.317 171.128 315.103 169.807L315.087 169.711L315.081 169.705V169.698L315.075 169.668L315.071 169.653C315.013 169.395 314.344 166.43 316.695 163.077ZM344.67 153.042C343.438 153.042 342.154 153.118 340.819 153.246C325.155 154.805 318.915 159.353 316.45 162.905C314.03 166.356 314.713 169.421 314.777 169.709L314.781 169.727C314.781 169.778 314.781 169.828 314.805 169.854C314.781 169.828 314.781 169.778 314.781 169.727L314.777 169.709C314.713 169.421 314.03 166.356 316.45 162.905C318.915 159.353 325.155 154.805 340.819 153.246C342.154 153.118 343.438 153.041 344.67 153.041C349.119 153.041 352.932 153.896 356.07 155.612C352.932 153.896 349.119 153.042 344.67 153.042ZM358.655 157.343C359.162 157.754 359.644 158.194 360.103 158.663C360.103 158.663 360.103 158.663 360.103 158.663C359.644 158.194 359.161 157.754 358.655 157.343ZM321.29 212.307C320.89 211.53 320.6 210.73 320.43 209.922C319.436 205.267 321.726 203.394 322.966 202.74C323.114 202.662 323.247 202.601 323.357 202.555C323.415 202.531 323.467 202.511 323.511 202.495L323.512 202.494L323.545 202.482L323.699 202.464L339.304 200.57C340.023 200.493 340.536 199.829 340.459 199.114C340.444 198.971 340.405 198.837 340.347 198.713C340.405 198.837 340.444 198.971 340.459 199.114C340.536 199.829 340.023 200.493 339.304 200.57L323.545 202.482C322.76 202.763 319.239 204.347 320.43 209.922C320.6 210.73 320.89 211.529 321.29 212.307ZM316.378 193.927C315.765 192.854 315.312 191.623 315.14 190.221C314.5 184.904 317.758 182.07 319.252 181.066L319.302 181.033C319.346 181.004 319.388 180.976 319.429 180.95L319.454 180.934C319.484 180.915 319.513 180.897 319.541 180.879L319.573 180.86C319.626 180.828 319.675 180.799 319.718 180.774L319.719 180.773C319.756 180.752 319.789 180.734 319.818 180.717L319.926 180.694L319.988 180.681C320.189 180.638 320.389 180.596 320.587 180.554C332.599 178.03 338.355 177.981 338.431 177.981C339.15 177.981 339.766 177.393 339.766 176.652C339.766 176.304 339.626 175.98 339.4 175.739C339.626 175.98 339.766 176.304 339.766 176.652C339.766 177.393 339.15 177.981 338.431 177.981C338.354 177.981 332.353 178.032 319.818 180.717C318.927 181.21 314.395 184.035 315.14 190.221C315.312 191.623 315.765 192.854 316.378 193.927ZM317.296 176.798C316.014 174.963 315.105 171.688 314.806 169.855C314.806 169.855 314.806 169.855 314.806 169.855C315.105 171.688 316.014 174.963 317.296 176.798Z" fill="black"/>
</g>
<path d="M235.151 205.538L241.302 187.556C224.052 186.472 209.91 183.332 199.989 180.419C194.873 178.916 190.878 177.474 188.155 176.405C186.794 175.87 185.751 175.428 185.045 175.119C184.922 175.065 184.809 175.015 184.707 174.969C184.346 175.294 183.844 175.769 183.287 176.365C182.154 177.576 180.833 179.243 179.965 181.135C179.1 183.022 178.723 185.044 179.319 187.055C179.913 189.059 181.54 191.277 185.141 193.427C192.483 197.81 205.148 200.876 216.148 202.845C221.615 203.823 226.613 204.521 230.246 204.974C232.061 205.201 233.534 205.366 234.552 205.475C234.774 205.498 234.974 205.519 235.151 205.538Z" fill="#F68E57" stroke="black" stroke-width="2.5"/>
<path d="M266.009 255.106C266.009 255.106 297.694 257.71 298.766 209.893C299.839 162.1 270.134 159.806 270.134 159.806L262.004 159.71C262.004 159.71 232.251 161.359 232.275 209.176C232.323 256.993 264.054 255.082 264.054 255.082H266.009V255.106Z" fill="#F68E57"/>
<path d="M266.915 256.826C266.415 256.826 266.081 256.826 265.938 256.802H264.031C263.697 256.802 252.969 257.352 243.647 248.558C234.993 240.409 230.606 227.146 230.582 209.176C230.582 183.822 238.95 171.3 246.007 165.23C253.779 158.539 261.551 158.037 261.885 158.037L270.134 158.133C270.563 158.157 301.532 161.12 300.435 209.965C300.03 227.935 295.357 241.078 286.536 249.06C278.621 256.205 269.872 256.874 266.892 256.874L266.915 256.826ZM266.152 253.433C266.296 253.433 275.975 254.078 284.343 246.479C292.425 239.143 296.692 226.836 297.098 209.869C298.123 164.179 270.301 161.526 270.015 161.502L261.98 161.43C260.955 161.502 233.92 163.677 233.968 209.2C233.968 226.167 237.997 238.569 245.912 246.073C254.137 253.863 263.864 253.433 263.959 253.433H266.152Z" fill="black"/>
<path d="M246.214 72.4019C246.341 60.6301 237.179 50.9868 225.751 50.8628C214.323 50.7388 204.956 60.1812 204.829 71.953C204.702 83.7247 213.863 93.3681 225.291 93.492C236.719 93.616 246.087 84.1736 246.214 72.4019Z" fill="black"/>
<path d="M225.528 94.328C225.528 94.328 225.361 94.328 225.289 94.328C219.544 94.2563 214.156 91.8905 210.127 87.6608C206.122 83.4311 203.928 77.8393 204 71.9368C204.143 59.7017 213.941 49.8562 225.766 49.9996C237.639 50.1191 247.199 60.1796 247.056 72.3908C246.984 78.3172 244.696 83.8373 240.595 87.9954C236.542 92.0817 231.202 94.328 225.528 94.328ZM225.552 51.6963C214.704 51.6963 205.812 60.7292 205.692 71.9368C205.645 77.4091 207.647 82.5708 211.366 86.4899C215.062 90.385 220.021 92.5835 225.337 92.6313C230.606 92.6791 235.636 90.624 239.427 86.8005C243.218 82.977 245.339 77.8393 245.411 72.3669C245.53 61.0877 236.733 51.7918 225.79 51.6724C225.719 51.6724 225.647 51.6724 225.576 51.6724L225.552 51.6963Z" fill="black"/>
<path d="M327.147 73.2769C327.274 61.5051 318.112 51.8618 306.684 51.7378C295.256 51.6138 285.889 61.0562 285.762 72.828C285.635 84.5997 294.796 94.2431 306.224 94.367C317.652 94.491 327.019 85.0486 327.147 73.2769Z" fill="black"/>
<path d="M306.467 95.2123C306.467 95.2123 306.3 95.2123 306.229 95.2123C300.483 95.1406 295.095 92.7748 291.066 88.5451C287.061 84.3154 284.867 78.7235 284.939 72.8211C285.082 60.6098 294.833 50.7644 306.705 50.8839C318.578 51.0034 328.138 61.0639 327.995 73.2751C327.924 79.2015 325.635 84.7216 321.534 88.8797C317.481 92.966 312.141 95.2123 306.467 95.2123ZM306.491 52.5567C295.643 52.5567 286.751 61.5896 286.632 72.8211C286.584 78.2934 288.587 83.4551 292.306 87.3742C296.001 91.2693 300.96 93.4678 306.276 93.5156C311.521 93.5634 316.575 91.5083 320.366 87.6848C324.157 83.8613 326.279 78.7235 326.35 73.2512C326.469 61.972 317.672 52.6761 306.729 52.5567C306.658 52.5567 306.586 52.5567 306.515 52.5567H306.491Z" fill="black"/>
<path d="M327.642 122.872C327.954 93.9836 300.979 70.2697 267.393 69.9054C233.806 69.5411 206.326 92.6643 206.014 121.553C205.702 150.441 232.677 174.155 266.263 174.519C299.85 174.883 327.33 151.76 327.642 122.872Z" fill="#F68E57"/>
<path d="M267.035 176.222C266.772 176.222 266.51 176.222 266.248 176.222C231.774 175.84 204 151.322 204.334 121.547C204.644 91.7715 232.895 67.8031 267.416 68.2332C301.89 68.6156 329.664 93.1336 329.33 122.909C329.02 152.445 301.151 176.222 267.035 176.222ZM266.605 71.6027C234.349 71.6027 207.981 93.8744 207.695 121.571C207.385 149.482 233.682 172.471 266.272 172.829C266.534 172.829 266.772 172.829 267.035 172.829C299.291 172.829 325.659 150.533 325.945 122.837C326.255 94.9259 299.959 71.9372 267.368 71.5788C267.106 71.5788 266.868 71.5788 266.605 71.5788V71.6027Z" fill="black"/>
<path d="M207.338 119.181C207.338 119.181 253.994 104.508 328.4 120.328C327.137 92.6077 300.793 70.2882 268.203 69.9298C236.375 69.5952 210.055 90.3376 207.099 117.078C207.171 117.771 207.242 118.464 207.338 119.181Z" fill="black"/>
<path d="M329.282 121.355L328.21 121.14C254.9 105.56 208.029 119.826 207.576 119.969L206.622 120.28L206.503 119.276C206.432 118.655 206.36 118.034 206.289 117.412L206.241 117.054V116.958C209.269 89.7639 236.542 68.7348 268.203 69.0694C301.127 69.4278 327.947 91.9146 329.235 120.28L329.282 121.379V121.355ZM261.456 112.179C279.694 112.179 301.985 113.923 327.494 119.252C325.611 92.3209 299.792 71.1006 268.179 70.766C237.258 70.4076 210.89 90.7676 207.934 117.078V117.245C207.981 117.532 208.005 117.795 208.029 118.082C212.416 116.863 231.464 112.179 261.432 112.179H261.456Z" fill="black"/>
<path d="M268.314 111.927C268.352 102.966 261.743 95.6735 253.553 95.6391C245.364 95.6048 238.694 102.841 238.657 111.803C238.619 120.764 245.228 128.056 253.418 128.091C261.607 128.125 268.277 120.888 268.314 111.927Z" fill="#FFE800"/>
<path d="M253.493 129.767H253.422C248.987 129.767 244.839 127.855 241.716 124.414C238.64 121.021 236.972 116.528 236.995 111.773C237.043 101.927 244.434 93.9219 253.517 93.9219H253.588C262.696 93.9697 270.062 102.023 270.015 111.892C269.967 121.738 262.576 129.743 253.493 129.743V129.767ZM253.493 97.3152C246.269 97.3152 240.381 103.791 240.357 111.797C240.357 115.716 241.716 119.372 244.219 122.144C246.675 124.868 249.965 126.374 253.445 126.397H253.493C260.717 126.397 266.605 119.921 266.629 111.916C266.653 103.911 260.788 97.363 253.565 97.3152H253.517H253.493Z" fill="black"/>
<path d="M293.117 112.432C293.154 103.471 286.546 96.1784 278.356 96.144C270.166 96.1096 263.497 103.346 263.459 112.307C263.422 121.269 270.031 128.561 278.22 128.595C286.41 128.63 293.079 121.393 293.117 112.432Z" fill="#FFE800"/>
<path d="M278.264 130.269H278.192C273.758 130.269 269.609 128.357 266.486 124.916C263.411 121.523 261.742 117.03 261.766 112.275C261.814 102.429 269.204 94.4238 278.287 94.4238H278.359C287.466 94.4716 294.833 102.525 294.785 112.394C294.737 122.24 287.347 130.245 278.264 130.245V130.269ZM278.287 97.8411C271.064 97.8411 265.175 104.317 265.151 112.322C265.151 116.242 266.51 119.898 269.013 122.67C271.469 125.394 274.759 126.899 278.24 126.923H278.287C285.511 126.923 291.4 120.447 291.424 112.442C291.447 104.437 285.583 97.8889 278.359 97.8411H278.311H278.287Z" fill="black"/>
<path d="M285.373 111.674C285.388 108.019 282.7 105.044 279.369 105.03C276.038 105.016 273.325 107.968 273.31 111.624C273.294 115.28 275.982 118.255 279.314 118.268C282.645 118.282 285.358 115.33 285.373 111.674Z" fill="black"/>
<path d="M279.313 119.109H279.289C277.429 119.109 275.713 118.296 274.401 116.886C273.114 115.477 272.423 113.613 272.423 111.629C272.423 109.646 273.138 107.782 274.425 106.396C275.736 104.986 277.453 104.197 279.289 104.197H279.313C281.172 104.197 282.889 105.01 284.2 106.42C285.487 107.83 286.179 109.694 286.179 111.677C286.179 113.66 285.463 115.524 284.176 116.91C282.865 118.32 281.148 119.109 279.313 119.109ZM279.336 105.87C277.977 105.87 276.69 106.444 275.689 107.519C274.687 108.618 274.139 110.076 274.115 111.629C274.115 113.182 274.664 114.64 275.641 115.739C276.619 116.815 277.906 117.412 279.289 117.412C280.648 117.412 281.959 116.839 282.936 115.763C283.938 114.664 284.486 113.206 284.51 111.653C284.51 110.1 283.961 108.642 282.984 107.543C282.007 106.467 280.719 105.87 279.336 105.87Z" fill="black"/>
<path d="M259.421 112.203C259.437 108.547 256.748 105.572 253.417 105.558C250.086 105.544 247.373 108.496 247.358 112.152C247.343 115.808 250.031 118.783 253.362 118.797C256.693 118.811 259.406 115.859 259.421 112.203Z" fill="black"/>
<path d="M253.374 119.659H253.35C249.56 119.659 246.484 116.29 246.508 112.179C246.508 108.069 249.56 104.7 253.422 104.748C257.212 104.748 260.288 108.117 260.264 112.227C260.264 116.337 257.165 119.659 253.374 119.659ZM253.398 106.42C250.537 106.42 248.201 109.001 248.201 112.179C248.201 115.358 250.513 117.962 253.374 117.986C256.235 117.962 258.571 115.406 258.595 112.227C258.595 109.049 256.283 106.444 253.422 106.42H253.398Z" fill="black"/>
<path d="M275.949 131.548C276.001 126.771 271.581 122.85 266.078 122.79C260.574 122.731 256.071 126.555 256.019 131.332C255.968 136.11 260.387 140.031 265.891 140.091C271.394 140.15 275.897 136.326 275.949 131.548Z" fill="#EF3831"/>
<path d="M266.01 141.787C266.01 141.787 265.914 141.787 265.867 141.787C259.43 141.715 254.256 137.032 254.328 131.32C254.399 125.609 259.716 120.997 266.081 121.117C272.518 121.188 277.691 125.872 277.62 131.583C277.596 134.403 276.309 137.008 274.044 138.943C271.874 140.784 269.013 141.811 266.01 141.811V141.787ZM265.938 124.486C261.408 124.486 257.737 127.545 257.689 131.368C257.641 135.216 261.337 138.37 265.89 138.418C268.131 138.466 270.277 137.701 271.85 136.363C273.376 135.072 274.211 133.352 274.235 131.535C274.282 127.688 270.587 124.534 266.033 124.486C265.986 124.486 265.962 124.486 265.914 124.486H265.938Z" fill="black"/>
<path d="M269.514 153.377C261.408 153.377 254.757 150.104 254.375 149.912C253.541 149.506 253.207 148.479 253.612 147.642C254.018 146.806 255.043 146.471 255.877 146.877C255.996 146.925 266.868 152.254 276.905 148.813C282.293 146.949 286.536 142.887 289.516 136.697C289.922 135.861 290.923 135.503 291.757 135.909C292.592 136.315 292.949 137.319 292.544 138.155C289.159 145.205 284.248 149.865 277.954 152.015C275.093 152.995 272.208 153.353 269.49 153.353L269.514 153.377Z" fill="black"/>
</g>
</g>
<defs>
<clipPath id="clip0_4758_33721">
<rect width="424" height="250" fill="white"/>
</clipPath>
<clipPath id="clip1_4758_33721">
<rect width="282" height="248" fill="white" transform="translate(141 50)"/>
</clipPath>
<clipPath id="clip2_4758_33721">
<rect width="94" height="131" fill="white" transform="translate(279 93)"/>
</clipPath>
</defs>
</svg>
