<svg width="344" height="270" viewBox="0 0 344 270" fill="none" xmlns="http://www.w3.org/2000/svg">
<g clip-path="url(#clip0_4758_33381)">
<path d="M178.224 214.3L178.555 212.399L176.631 212.255L90.1311 205.755L88.4837 205.631L88.2654 207.269L86.2654 222.269L86.0426 223.94L87.704 224.225L172.204 238.725L173.925 239.02L174.224 237.3L178.224 214.3Z" fill="#F68E57" stroke="black" stroke-width="3.5"/>
<g clip-path="url(#clip1_4758_33381)">
<path d="M223.181 145.012C223.181 145.012 253.23 108.553 301.818 120.324C350.405 132.095 340.216 180.325 340.216 180.325C340.216 180.325 332.593 213.685 291.291 226.914C249.989 240.144 242.082 272.879 242.082 272.879C242.082 272.879 232.696 302.254 197.668 293.973C162.667 285.692 188.335 177.46 223.181 145.012Z" fill="#F68E57"/>
<mask id="mask0_4758_33381" style="mask-type:luminance" maskUnits="userSpaceOnUse" x="180" y="117" width="161" height="179">
<path d="M222.714 145.012C222.714 145.012 252.764 108.553 301.351 120.324C349.938 132.095 339.749 180.325 339.749 180.325C339.749 180.325 332.126 213.685 290.825 226.914C249.523 240.144 241.615 272.879 241.615 272.879C241.615 272.879 232.229 302.254 197.202 293.973C162.2 285.692 187.868 177.46 222.714 145.012Z" fill="white"/>
</mask>
<g mask="url(#mask0_4758_33381)">
<path d="M347.19 193.476C344.209 193.45 341.331 191.758 339.931 188.867C319.889 147.746 281.413 155.663 281.024 155.767C276.616 156.731 272.261 153.918 271.301 149.491C270.342 145.064 273.142 140.689 277.55 139.725C295.232 135.845 334.123 139.621 354.605 181.653C356.602 185.716 354.916 190.638 350.872 192.643C349.679 193.216 348.435 193.503 347.19 193.476Z" fill="black"/>
<path d="M332.878 232.878C329.923 232.41 327.33 230.352 326.345 227.279C312.318 183.737 273.116 186.055 272.727 186.081C268.216 186.419 264.327 183.008 263.99 178.476C263.653 173.945 267.049 170.039 271.561 169.7C289.632 168.372 327.563 177.669 341.901 222.201C343.301 226.524 340.942 231.134 336.638 232.54C335.393 232.957 334.097 233.035 332.878 232.852V232.878Z" fill="black"/>
<path d="M311.981 262.436C309.025 261.967 306.433 259.91 305.447 256.837C291.421 213.294 252.219 215.612 251.83 215.638C247.319 215.977 243.43 212.565 243.093 208.034C242.756 203.503 246.152 199.596 250.663 199.258C268.735 197.93 306.666 207.227 321.004 251.759C322.404 256.082 320.044 260.691 315.741 262.098C314.496 262.514 313.2 262.592 311.981 262.41V262.436Z" fill="black"/>
</g>
<path d="M209.595 297.281C205.887 297.281 201.843 296.812 197.383 295.77C189.657 293.947 184.108 287.463 181.386 277.046C172.156 241.967 194.168 169.778 222.014 143.762C223.855 141.601 254.552 106.991 302.388 118.579C352.116 130.637 342.238 180.221 342.134 180.716C342.057 181.081 333.786 215.274 291.991 228.66C271.198 235.326 259.271 247.097 252.919 255.796C246.022 265.249 244 273.244 244 273.322C243.87 273.713 235.989 297.281 209.621 297.281H209.595ZM282.995 119.855C246.982 119.855 224.97 145.872 224.736 146.184L224.581 146.366C198.005 171.132 176.123 242.67 184.912 276.108C187.323 285.275 191.809 290.692 198.239 292.229C231.244 300.041 240.137 273.478 240.5 272.358C240.785 271.108 249.108 238.608 290.902 225.222C311.67 218.555 323.545 206.628 329.819 197.8C336.638 188.19 338.582 180.065 338.608 179.961C338.997 178.086 347.838 133.371 301.558 122.147C295.025 120.559 288.828 119.881 282.995 119.881V119.855Z" fill="black"/>
<path d="M194.892 302.645C194.892 302.645 229.064 305.457 230.231 253.79C231.397 202.122 199.351 199.648 199.351 199.648L190.588 199.544C190.588 199.544 158.49 201.315 158.542 252.982C158.594 304.65 192.818 302.593 192.818 302.593H194.944L194.892 302.645Z" fill="#F68E57"/>
<path d="M195.851 304.52C195.333 304.52 194.97 304.52 194.814 304.494H192.766C192.429 304.494 180.84 305.093 170.78 295.588C161.446 286.759 156.701 272.462 156.701 253.035C156.701 225.638 165.724 212.096 173.347 205.534C181.747 198.32 190.121 197.773 190.484 197.747L199.377 197.851C199.844 197.877 233.238 201.08 232.072 253.842C231.631 273.269 226.575 287.462 217.06 296.082C208.53 303.791 199.092 304.52 195.877 304.52H195.851ZM195.022 300.848C195.177 300.848 205.626 301.525 214.649 293.322C223.36 285.405 227.975 272.097 228.39 253.764C229.505 204.596 200.415 201.601 199.17 201.497L190.51 201.419C189.395 201.497 160.253 203.867 160.305 253.035C160.305 271.368 164.661 284.78 173.191 292.879C182.058 301.317 192.533 300.848 192.662 300.822H195.022V300.848Z" fill="black"/>
<path d="M173.543 105.176C173.681 92.4477 163.798 82.021 151.47 81.887C139.142 81.753 129.037 91.9624 128.899 104.69C128.762 117.418 138.645 127.845 150.973 127.979C163.301 128.113 173.406 117.904 173.543 105.176Z" fill="black"/>
<path d="M151.205 128.891C151.205 128.891 151.049 128.891 150.946 128.891C138.164 128.761 127.871 117.902 128 104.698C128.078 98.3179 130.541 92.3282 134.975 87.8489C139.408 83.3697 145.32 80.9478 151.49 80.9998C157.687 81.078 163.494 83.6301 167.85 88.2135C172.18 92.797 174.539 98.8127 174.462 105.219C174.384 111.599 171.921 117.589 167.487 122.068C163.106 126.496 157.35 128.917 151.231 128.917L151.205 128.891ZM151.231 82.8228C145.605 82.8228 140.29 85.0624 136.271 89.125C132.175 93.2657 129.893 98.7866 129.815 104.724C129.685 116.938 139.175 126.964 150.972 127.094C156.728 127.225 162.094 124.907 166.165 120.792C170.261 116.652 172.543 111.131 172.621 105.193C172.673 99.2815 170.521 93.6824 166.502 89.4636C162.509 85.2447 157.168 82.9009 151.438 82.8228C151.361 82.8228 151.283 82.8228 151.205 82.8228H151.231Z" fill="black"/>
<path d="M260.825 106.154C260.962 93.4262 251.079 82.9995 238.751 82.8655C226.423 82.7315 216.318 92.9409 216.181 105.669C216.044 118.397 225.927 128.823 238.255 128.957C250.583 129.091 260.688 118.882 260.825 106.154Z" fill="black"/>
<path d="M238.502 129.855C238.502 129.855 238.346 129.855 238.242 129.855C232.046 129.777 226.238 127.225 221.882 122.641C217.552 118.058 215.193 112.042 215.271 105.636C215.349 99.2294 217.812 93.2657 222.245 88.7865C226.679 84.3072 232.59 81.8592 238.761 81.9374C251.569 82.0676 261.862 92.9272 261.732 106.131C261.603 119.256 251.18 129.829 238.502 129.829V129.855ZM238.527 83.7603C232.901 83.7603 227.586 85.9999 223.567 90.0625C219.471 94.2032 217.189 99.7242 217.112 105.662C217.034 111.599 219.212 117.172 223.23 121.391C227.223 125.61 232.564 127.954 238.294 128.032C250.117 128.24 259.814 118.344 259.943 106.131C260.073 93.9168 250.584 83.8905 238.787 83.7603C238.709 83.7603 238.631 83.7603 238.553 83.7603H238.527Z" fill="black"/>
<path d="M261.342 159.75C261.678 128.527 232.585 102.897 196.359 102.503C160.134 102.109 130.495 127.101 130.158 158.324C129.822 189.547 158.916 215.178 195.141 215.571C231.367 215.965 261.006 190.973 261.342 159.75Z" fill="#F68E57"/>
<path d="M195.981 217.409C195.696 217.409 195.411 217.409 195.099 217.409C157.946 216.992 128 190.481 128.363 158.319C128.519 142.668 135.726 128.058 148.664 117.172C161.498 106.339 178.532 100.531 196.396 100.688C214.337 100.896 231.164 107.094 243.765 118.214C256.443 129.386 263.34 144.152 263.158 159.777C263.003 175.429 255.795 190.038 242.857 200.924C230.231 211.575 213.611 217.409 195.981 217.409ZM195.514 104.334C178.739 104.334 162.95 109.881 150.971 119.959C138.889 130.141 132.148 143.787 131.967 158.345C131.63 188.502 159.994 213.372 195.151 213.737C195.437 213.737 195.696 213.737 195.981 213.737C212.756 213.737 228.545 208.19 240.524 198.111C252.606 187.929 259.347 174.283 259.528 159.725C259.684 145.168 253.228 131.391 241.379 120.922C229.427 110.401 213.456 104.49 196.37 104.308C196.085 104.308 195.825 104.308 195.54 104.308L195.514 104.334Z" fill="black"/>
<path d="M212.004 262.593C209.826 262.593 208.478 260.952 208.322 260.744C205.652 257.228 209.489 252.228 209.956 251.655C213.404 246.837 210.059 235.04 208.478 230.925C208.115 229.988 208.582 228.92 209.515 228.555C210.448 228.191 211.511 228.66 211.874 229.597C212.522 231.29 218.123 246.472 212.859 253.842C211.745 255.249 210.578 257.645 211.226 258.504C211.226 258.504 211.667 258.973 212.134 258.895C212.937 258.79 214.337 257.41 215.867 253.973C216.282 253.061 217.345 252.618 218.252 253.035C219.16 253.452 219.575 254.519 219.186 255.431C217.241 259.884 215.063 262.202 212.548 262.514C212.367 262.514 212.185 262.54 212.004 262.54V262.593Z" fill="black"/>
<path d="M218.823 266.056C217.604 266.056 216.697 265.561 216.567 265.483C212.445 262.592 215.141 255.509 215.452 254.702C215.815 253.764 216.878 253.321 217.812 253.686C218.745 254.051 219.186 255.118 218.823 256.056C217.993 258.139 217.423 261.42 218.434 262.332C218.589 262.384 218.901 262.462 219.212 262.28C219.575 262.098 220.793 261.16 221.493 256.837C221.649 255.847 222.556 255.17 223.567 255.327C224.553 255.483 225.227 256.42 225.071 257.41C224.371 261.863 222.945 264.546 220.741 265.613C220.041 265.952 219.393 266.056 218.823 266.056Z" fill="black"/>
<path d="M225.408 267.618C224.086 267.618 223.127 266.941 222.971 266.837C219.445 264.363 221.13 258.034 221.519 256.784C221.804 255.821 222.841 255.274 223.775 255.56C224.734 255.847 225.279 256.863 224.993 257.826C224.397 259.857 224.086 263.165 225.097 263.868C225.097 263.868 225.33 263.998 225.512 263.946C225.745 263.868 226.186 263.399 226.575 262.383C226.575 262.331 231.242 247.67 225.253 227.461C224.968 226.497 225.512 225.482 226.471 225.195C227.431 224.909 228.442 225.456 228.727 226.419C235.027 247.8 230.179 262.956 229.971 263.607C229.142 265.743 228.001 267.019 226.523 267.462C226.134 267.566 225.771 267.618 225.434 267.618H225.408Z" fill="black"/>
<path d="M131.604 155.741C131.604 155.741 181.903 139.881 262.173 156.965C260.799 127.017 232.383 102.902 197.251 102.511C162.12 102.12 134.534 124.569 131.345 153.475C131.422 154.231 131.5 154.986 131.604 155.741Z" fill="black"/>
<path d="M263.106 158.111L261.966 157.877C182.914 141.027 132.356 156.47 131.863 156.627L130.826 156.939L130.696 155.871C130.593 155.142 130.541 154.439 130.463 153.71V153.371C133.652 124.23 162.535 101.6 196.422 101.6C196.707 101.6 196.966 101.6 197.251 101.6C232.772 101.99 261.68 126.288 263.08 156.939L263.132 158.111H263.106ZM189.966 148.189C209.645 148.189 233.679 150.064 261.188 155.845C259.165 126.73 231.32 103.813 197.225 103.449C196.966 103.449 196.681 103.449 196.422 103.449C163.494 103.423 135.415 125.272 132.252 153.476C132.304 153.866 132.33 154.231 132.356 154.569C137.1 153.267 157.635 148.189 189.94 148.189H189.966Z" fill="black"/>
<path d="M197.371 147.911C197.411 138.231 190.293 130.355 181.473 130.317C172.652 130.28 165.469 138.097 165.429 147.777C165.388 157.456 172.506 165.333 181.327 165.37C190.147 165.407 197.33 157.59 197.371 147.911Z" fill="#FFE800"/>
<path d="M181.358 167.199H181.28C176.484 167.199 172.024 165.116 168.654 161.418C165.335 157.746 163.546 152.902 163.546 147.772C163.546 142.642 165.413 137.798 168.757 134.152C172.128 130.48 176.665 128.423 181.41 128.475C191.21 128.527 199.17 137.225 199.118 147.902C199.066 158.553 191.081 167.173 181.306 167.173L181.358 167.199ZM181.384 132.121C177.65 132.121 174.124 133.709 171.454 136.626C168.732 139.595 167.228 143.553 167.202 147.772C167.202 151.991 168.654 155.975 171.35 158.944C174.021 161.887 177.547 163.501 181.28 163.527C189.136 163.527 195.462 156.548 195.514 147.876C195.54 139.204 189.214 132.147 181.41 132.121H181.358H181.384Z" fill="black"/>
<path d="M224.084 148.487C224.124 138.808 217.006 130.931 208.186 130.894C199.365 130.857 192.182 138.673 192.142 148.353C192.101 158.032 199.219 165.909 208.04 165.946C216.86 165.983 224.043 158.167 224.084 148.487Z" fill="#FFE800"/>
<path d="M208.089 167.747H208.011C198.211 167.694 190.251 158.996 190.303 148.319C190.355 137.668 198.34 129.048 208.115 129.048H208.193C217.993 129.1 225.953 137.798 225.901 148.475C225.849 159.127 217.863 167.773 208.089 167.773V167.747ZM208.115 132.694C200.337 132.694 193.985 139.699 193.933 148.345C193.907 157.017 200.233 164.075 208.037 164.127H208.089C215.867 164.127 222.219 157.121 222.271 148.475C222.297 139.803 215.971 132.746 208.167 132.72H208.115V132.694Z" fill="black"/>
<path d="M214.516 149.336C214.533 145.38 211.633 142.162 208.039 142.147C204.444 142.132 201.517 145.326 201.501 149.281C201.485 153.236 204.385 156.455 207.979 156.47C211.573 156.485 214.5 153.291 214.516 149.336Z" fill="black"/>
<path d="M208.011 157.355H207.985C203.889 157.355 200.57 153.71 200.596 149.256C200.596 144.829 203.941 141.235 208.011 141.235H208.037C210.033 141.235 211.9 142.095 213.3 143.657C214.674 145.194 215.426 147.199 215.426 149.334C215.426 153.762 212.082 157.382 208.011 157.382V157.355ZM208.011 143.058C204.926 143.058 202.411 145.845 202.411 149.282C202.411 152.72 204.9 155.533 207.985 155.559C211.071 155.559 213.585 152.772 213.585 149.334C213.585 147.642 213.015 146.079 211.926 144.881C210.889 143.709 209.489 143.084 208.011 143.058Z" fill="black"/>
<path d="M187.621 149.598C187.637 145.643 184.737 142.425 181.143 142.409C177.549 142.394 174.622 145.588 174.606 149.544C174.589 153.499 177.489 156.717 181.083 156.732C184.677 156.748 187.604 153.554 187.621 149.598Z" fill="black"/>
<path d="M181.099 157.643H181.073C176.976 157.643 173.658 153.997 173.684 149.543C173.684 147.408 174.461 145.403 175.861 143.892C177.262 142.356 179.128 141.522 181.125 141.522H181.151C183.147 141.522 185.014 142.382 186.414 143.944C187.788 145.481 188.54 147.486 188.54 149.622C188.54 154.049 185.195 157.669 181.125 157.669L181.099 157.643ZM181.125 143.319C179.647 143.319 178.247 143.944 177.21 145.09C176.121 146.262 175.524 147.851 175.524 149.517C175.524 152.955 178.013 155.768 181.099 155.794C184.184 155.794 186.699 153.007 186.699 149.569C186.699 147.877 186.129 146.314 185.04 145.116C183.977 143.944 182.603 143.319 181.099 143.293L181.125 143.319Z" fill="black"/>
<path d="M205.591 169.132C205.647 163.969 200.875 159.731 194.933 159.667C188.991 159.602 184.129 163.735 184.073 168.898C184.018 174.062 188.79 178.299 194.732 178.364C200.674 178.429 205.536 174.295 205.591 169.132Z" fill="#EF3831"/>
<path d="M194.866 180.195C194.866 180.195 194.762 180.195 194.711 180.195C191.392 180.169 188.281 178.997 185.947 176.913C183.536 174.778 182.214 171.913 182.266 168.892C182.291 165.872 183.666 163.033 186.129 160.95C188.462 158.944 191.547 157.851 194.788 157.851C194.84 157.851 194.892 157.851 194.944 157.851C201.866 157.929 207.467 163.007 207.389 169.153C207.311 175.273 201.711 180.195 194.866 180.195ZM194.814 161.496C192.429 161.496 190.173 162.278 188.488 163.71C186.855 165.116 185.921 166.965 185.921 168.919C185.921 170.872 186.777 172.747 188.384 174.179C190.07 175.689 192.325 176.523 194.762 176.549C194.814 176.549 194.84 176.549 194.892 176.549C199.766 176.549 203.759 173.242 203.785 169.127C203.837 164.986 199.87 161.549 194.918 161.496C194.866 161.496 194.84 161.496 194.788 161.496H194.814Z" fill="black"/>
<path d="M216.723 190.169C216.386 190.169 216.049 190.065 215.763 189.882C215.608 189.778 199.507 179.882 175.939 189.57C175.006 189.96 173.943 189.518 173.58 188.58C173.191 187.643 173.658 186.575 174.565 186.21C199.974 175.767 217.008 186.367 217.708 186.809C218.564 187.356 218.797 188.476 218.252 189.335C217.915 189.882 217.319 190.169 216.723 190.169Z" fill="black"/>
<path d="M165.62 141.522C165.62 141.522 182.525 140.662 189.369 130.766L176.561 123.787C176.561 123.787 164.039 125.037 165.62 141.496V141.522Z" fill="black"/>
<path d="M165.62 143.345C164.687 143.345 163.909 142.642 163.805 141.704C162.094 123.631 176.224 122.016 176.38 121.99C176.743 121.964 177.106 122.042 177.417 122.199L190.225 129.178C190.692 129.412 191.003 129.855 191.133 130.35C191.262 130.845 191.133 131.392 190.847 131.808C183.588 142.303 166.424 143.293 165.698 143.319C165.672 143.319 165.646 143.319 165.594 143.319L165.62 143.345ZM176.224 125.688C174.202 126.105 166.968 128.345 167.306 139.517C171.324 139.022 181.151 137.251 186.569 131.339L176.224 125.714V125.688Z" fill="black"/>
<path d="M223.827 141.522C223.827 141.522 206.922 140.662 200.077 130.766L212.885 123.787C212.885 123.787 225.408 125.037 223.827 141.496V141.522Z" fill="black"/>
<path d="M223.827 143.345C223.827 143.345 223.775 143.345 223.723 143.345C222.997 143.319 205.859 142.329 198.574 131.834C198.288 131.417 198.185 130.87 198.288 130.376C198.418 129.881 198.729 129.438 199.196 129.204L212.004 122.224C212.315 122.042 212.678 121.99 213.041 122.016C213.197 122.016 227.327 123.631 225.616 141.73C225.538 142.667 224.734 143.371 223.801 143.371L223.827 143.345ZM202.852 131.339C208.27 137.251 218.123 139.048 222.141 139.516C222.478 128.266 215.245 126.079 213.222 125.688L202.878 131.339H202.852Z" fill="black"/>
</g>
<path d="M93.3613 120.389H84.4847V394.822H93.3613V120.389Z" fill="#8A6456"/>
<path d="M94.6259 396.06H83.2202V119.15H94.6259V396.084V396.06ZM85.725 393.559H92.0967V121.651H85.725V393.559Z" fill="black"/>
<path d="M88.2542 170.502C135.143 170.502 173.153 132.554 173.153 85.7417C173.153 38.9299 135.143 0.981445 88.2542 0.981445C41.3659 0.981445 3.35541 38.9299 3.35541 85.7417C3.35541 132.554 41.3659 170.502 88.2542 170.502Z" fill="#F05144"/>
<path d="M88.2543 171.74C40.7343 171.74 2.09082 133.16 2.09082 85.7416C2.09082 38.3234 40.7343 -0.28125 88.2543 -0.28125C135.774 -0.28125 174.418 38.2991 174.418 85.7416C174.418 133.184 135.774 171.764 88.2543 171.764V171.74ZM88.2543 2.21956C42.1205 2.21956 4.59571 39.6831 4.59571 85.7416C4.59571 131.8 42.1205 169.239 88.2299 169.239C134.339 169.239 171.864 131.776 171.864 85.7416C171.864 39.7074 134.364 2.21956 88.2543 2.21956Z" fill="black"/>
<path d="M129.943 127.941C132.688 125.217 132.683 120.776 129.944 118.038L55.9611 44.0584C55.9605 44.0579 55.96 44.0574 55.9595 44.0569C53.2362 41.3127 48.7959 41.317 46.0571 44.054C43.3122 46.7777 43.3169 51.219 46.0556 53.9576L46.0557 53.9577L120.042 127.92C120.042 127.92 120.042 127.92 120.042 127.92C121.361 129.239 123.058 129.92 124.768 129.977C124.838 129.992 124.91 130 124.983 130C126.775 130 128.585 129.298 129.943 127.941ZM129.943 127.941C129.943 127.941 129.942 127.942 129.941 127.943L129.237 127.233L129.944 127.94C129.944 127.94 129.944 127.94 129.943 127.941Z" fill="white" stroke="white" stroke-width="2" stroke-linejoin="round"/>
<path d="M55.0937 127.944L55.0938 127.944L129.924 53.9646C129.924 53.9643 129.925 53.964 129.925 53.9637C132.707 51.2355 132.674 46.7896 129.93 44.0543C127.18 41.3136 122.699 41.3178 119.933 44.0513C119.933 44.0513 119.933 44.0514 119.933 44.0514L45.0834 118.011C45.0827 118.012 45.082 118.012 45.0814 118.013C42.3039 120.738 42.3088 125.185 45.0804 127.924C46.42 129.248 48.1421 129.926 49.8749 129.977C49.9433 129.992 50.0143 130 50.0871 130C51.8934 130 53.7209 129.301 55.0937 127.944Z" fill="white" stroke="white" stroke-width="2" stroke-linejoin="round"/>
<path d="M79.1639 210.142C79.1639 210.142 79.1639 196.892 89.3004 195.91C99.437 194.929 103.479 199.131 103.326 202.842C103.173 206.553 92.7303 206.461 92.7303 206.461C92.7303 206.461 102.897 206.093 102.499 212.32C102.101 218.546 93.3734 217.902 93.3734 217.902C93.3734 217.902 102.285 217.81 102.53 224.589C102.775 231.367 89.6373 230.202 89.6373 230.202C89.6373 230.202 78.8576 230.631 79.1332 210.111L79.1639 210.142Z" fill="#F68E57"/>
<path d="M91.8729 232.41C90.7704 232.41 89.9436 232.349 89.6067 232.318C88.8105 232.318 85.6562 232.104 82.6857 229.19C78.8577 225.478 76.9896 219.068 77.1121 210.142C77.1121 204.897 79.6539 194.776 89.1167 193.855C96.8952 193.089 100.938 195.205 102.928 197.137C104.643 198.763 105.531 200.818 105.439 202.965C105.347 204.897 104.061 206.186 102.254 207.014C102.438 207.167 102.622 207.351 102.806 207.535C104.092 208.854 104.704 210.572 104.582 212.504C104.459 214.528 103.602 216.277 102.132 217.565C101.856 217.81 101.581 218.025 101.274 218.209C103.112 219.559 104.49 221.583 104.612 224.558C104.674 226.46 104 228.116 102.653 229.404C99.927 232.012 94.874 232.441 91.8423 232.441L91.8729 232.41ZM89.6373 228.147C89.6373 228.147 89.7904 228.147 89.8517 228.147C92.6997 228.392 97.9364 228.147 99.8045 226.337C100.294 225.877 100.478 225.386 100.448 224.681C100.294 220.816 95.7927 220.141 94.0472 220.019C93.6184 220.019 93.3122 220.019 93.1897 220.019C92.0872 219.927 91.2298 219.007 91.2604 217.872C91.291 216.737 92.2097 215.878 93.3122 215.847C93.5878 215.847 93.8941 215.847 94.2003 215.847C95.609 215.847 98.0283 215.541 99.3758 214.375C100.019 213.823 100.325 213.117 100.386 212.197C100.448 211.431 100.233 210.878 99.7739 210.418C98.3958 208.977 95.1496 208.609 93.4347 208.578C93.1285 208.578 92.8835 208.578 92.6691 208.578C91.536 208.578 90.6173 207.658 90.6173 206.523C90.6173 205.388 91.5054 204.437 92.6079 204.407C92.7303 204.407 93.006 204.407 93.4041 204.407C97.0177 204.345 100.754 203.548 101.244 202.72C101.244 201.861 100.846 200.941 100.019 200.174C98.8858 199.1 96.0071 197.383 89.4536 198.027C81.3076 198.824 81.2157 210.081 81.2157 210.173C81.0932 219.712 83.4513 224.098 85.4418 226.122C87.4936 228.178 89.5148 228.178 89.6067 228.178L89.6373 228.147Z" fill="black"/>
</g>
<defs>
<clipPath id="clip0_4758_33381">
<rect width="344" height="270" fill="white"/>
</clipPath>
<clipPath id="clip1_4758_33381">
<rect width="237" height="268" fill="white" transform="translate(128 81)"/>
</clipPath>
</defs>
</svg>
