<svg width="344" height="270" viewBox="0 0 344 270" fill="none" xmlns="http://www.w3.org/2000/svg">
<g clip-path="url(#clip0_4757_52360)">
<path d="M96.2706 120.389H87.394V394.822H96.2706V120.389Z" fill="#8A6456"/>
<path d="M97.5352 396.06H86.1294V119.15H97.5352V396.084V396.06ZM88.6343 393.559H95.0059V121.651H88.6343V393.559Z" fill="black"/>
<path d="M91.1635 170.502C138.052 170.502 176.062 132.554 176.062 85.7417C176.062 38.9299 138.052 0.981445 91.1635 0.981445C44.2752 0.981445 6.26465 38.9299 6.26465 85.7417C6.26465 132.554 44.2752 170.502 91.1635 170.502Z" fill="#F05144"/>
<path d="M91.1634 171.74C43.6434 171.74 5 133.16 5 85.7416C5 38.3234 43.6434 -0.28125 91.1634 -0.28125C138.683 -0.28125 177.327 38.2991 177.327 85.7416C177.327 133.184 138.683 171.764 91.1634 171.764V171.74ZM91.1634 2.21956C45.0296 2.21956 7.50489 39.6831 7.50489 85.7416C7.50489 131.8 45.0296 169.239 91.1391 169.239C137.249 169.239 174.773 131.776 174.773 85.7416C174.773 39.7074 137.273 2.21956 91.1634 2.21956Z" fill="black"/>
<path d="M132.853 127.941C135.597 125.217 135.592 120.776 132.854 118.038L58.8702 44.0584C58.8697 44.0579 58.8692 44.0574 58.8687 44.0569C56.1454 41.3127 51.7051 41.317 48.9663 44.054C46.2214 46.7777 46.2261 51.219 48.9648 53.9576L48.9649 53.9577L122.951 127.92C122.951 127.92 122.951 127.92 122.951 127.92C124.27 129.239 125.967 129.92 127.678 129.977C127.747 129.992 127.819 130 127.893 130C129.684 130 131.494 129.298 132.853 127.941ZM132.853 127.941C132.852 127.941 132.851 127.942 132.851 127.943L132.146 127.233L132.854 127.94C132.853 127.94 132.853 127.94 132.853 127.941Z" fill="white" stroke="white" stroke-width="2" stroke-linejoin="round"/>
<path d="M58.0029 127.944L58.003 127.944L132.833 53.9646C132.833 53.9643 132.834 53.964 132.834 53.9637C135.616 51.2355 135.584 46.7896 132.839 44.0543C130.089 41.3136 125.608 41.3178 122.843 44.0513C122.843 44.0513 122.842 44.0514 122.842 44.0514L47.9926 118.011C47.9919 118.012 47.9912 118.012 47.9906 118.013C45.2131 120.738 45.218 125.185 47.9896 127.924C49.3291 129.248 51.0512 129.926 52.7841 129.977C52.8525 129.992 52.9235 130 52.9963 130C54.8026 130 56.6301 129.301 58.0029 127.944Z" fill="white" stroke="white" stroke-width="2" stroke-linejoin="round"/>
<g clip-path="url(#clip1_4757_52360)">
<path fill-rule="evenodd" clip-rule="evenodd" d="M101.816 203.661C99.962 205.685 98.1399 208.345 95.859 211.675C95.4019 212.342 94.9265 213.036 94.4286 213.758C93.6607 214.87 93.086 215.875 92.689 216.789C93.086 215.875 93.6608 214.87 94.4286 213.758C94.9265 213.036 95.402 212.342 95.859 211.675C98.1399 208.345 99.962 205.685 101.816 203.661ZM232.445 98.2537L232.435 98.2541V98.2847C232.435 98.2847 232.4 98.2739 232.332 98.2541C232.4 98.2739 232.435 98.2847 232.435 98.2847L232.435 98.2542C232.439 98.254 232.442 98.2538 232.445 98.2537ZM166.429 167.038V167.258L166.429 167.265L166.428 167.331C166.427 167.394 166.426 167.495 166.424 167.631C166.418 167.903 166.407 168.315 166.385 168.845C166.341 169.907 166.251 171.437 166.07 173.267C165.706 176.956 164.987 181.725 163.589 186.295C162.167 190.943 160.187 194.905 157.604 197.438C155.286 199.713 152.334 201.017 147.964 200.355C137.716 197.765 129.891 195.869 123.798 194.784C117.729 193.703 112.832 193.316 108.668 194.131C104.188 195.008 100.991 197.18 98.1923 200.215C96.0515 202.537 93.9647 205.587 91.6705 208.94L91.67 208.941C91.2262 209.589 90.7747 210.249 90.3135 210.918C88.6168 213.376 87.3028 215.984 87.0456 218.706C86.7555 221.778 87.8621 224.378 89.7783 226.344C91.4768 228.087 93.7203 229.249 95.7826 230.124C97.9058 231.026 100.395 231.846 102.911 232.664L103.369 232.813C113.588 236.134 126.633 240.373 136.975 252.502C138.811 254.655 140.009 258.046 140.478 262.562C140.941 267.007 140.642 272.011 139.979 276.83C139.32 281.62 138.328 286.052 137.494 289.298C137.078 290.916 136.706 292.227 136.44 293.125C136.307 293.574 136.201 293.919 136.129 294.147C136.094 294.26 136.067 294.345 136.05 294.399L136.043 294.419L136.04 294.429L135.997 294.553C135.957 294.668 135.901 294.834 135.83 295.047C135.687 295.472 135.484 296.088 135.238 296.867C134.745 298.425 134.074 300.645 133.351 303.321C131.913 308.65 130.242 315.893 129.391 323.376C128.551 330.757 128.446 338.869 130.508 345.69C132.638 352.737 137.291 358.868 145.855 360.679C145.91 360.692 145.975 360.707 146.049 360.723C146.222 360.76 146.444 360.804 146.712 360.847C147.247 360.933 147.967 361.019 148.84 361.053C150.583 361.12 152.961 360.978 155.676 360.185C161.255 358.556 167.641 354.36 172.776 345.088C176.739 337.953 180.833 336.025 183.313 335.472C184.654 335.173 185.785 335.218 186.546 335.325C186.697 335.346 186.832 335.369 186.95 335.392C187.263 335.697 187.793 336.292 188.389 337.306C189.675 339.493 191.379 343.821 191.676 351.711C191.873 356.945 193.471 361.147 195.981 364.401C198.452 367.605 201.595 369.621 204.509 370.889C207.414 372.153 210.231 372.736 212.28 373.012C213.316 373.152 214.188 373.217 214.819 373.247C215.135 373.262 215.393 373.268 215.583 373.271L215.657 373.271L215.721 373.276C215.919 373.288 216.174 373.298 216.483 373.301C217.101 373.305 217.935 373.278 218.949 373.165C220.979 372.938 223.728 372.369 226.899 371.035C233.306 368.338 241.082 362.668 248.087 351.158C251.12 346.175 253.556 343.932 255.168 342.993C256.571 342.176 257.343 342.328 257.803 342.484C258.501 342.722 259.264 343.309 259.965 344.115C260.288 344.487 260.536 344.834 260.696 345.078C260.77 345.19 260.822 345.275 260.85 345.324L260.858 345.339C260.904 345.43 260.968 345.553 261.049 345.705C261.212 346.011 261.445 346.435 261.749 346.957C262.355 348 263.25 349.439 264.435 351.095C266.793 354.389 270.377 358.648 275.238 362.342C280.117 366.05 286.365 369.25 293.971 370.231C301.613 371.216 310.265 369.914 319.827 365.171C329.59 360.329 335.593 353.631 338.84 346.144C342.041 338.762 342.397 331.005 341.6 324.179C340.803 317.347 338.824 311.189 337.079 306.786C336.201 304.571 335.369 302.766 334.749 301.502C334.439 300.869 334.181 300.369 333.995 300.018C333.947 299.928 333.904 299.848 333.866 299.777C333.829 299.68 333.782 299.559 333.727 299.414C333.557 298.969 333.304 298.301 332.979 297.422C332.327 295.664 331.382 293.063 330.218 289.715C327.89 283.017 324.69 273.335 321.216 261.438C314.264 237.633 306.238 205.041 301.89 169.793L301.887 169.769L301.885 169.748C301.88 169.702 301.872 169.638 301.862 169.557C301.842 169.395 301.813 169.163 301.772 168.867C301.692 168.276 301.569 167.425 301.392 166.354C301.04 164.213 300.475 161.182 299.616 157.562C297.905 150.347 295.004 140.681 290.236 131.045C280.796 111.97 263.416 92.015 232.885 93.229C232.421 93.1142 231.81 92.975 231.07 92.8321C229.389 92.5078 227.021 92.1612 224.169 92.0426C218.481 91.806 210.729 92.4718 202.671 96.1629C186.149 103.731 170.303 123.015 166.448 166.819L166.429 167.038Z" fill="black"/>
<path d="M232.435 98.2848C232.435 98.2848 178.953 81.7576 171.429 167.258C171.429 167.258 171.429 209.258 146.959 205.258C105.429 194.758 106.452 196.337 94.4286 213.758C82.4057 231.178 117.743 222.241 140.78 249.258C151.854 262.247 140.779 296.022 140.779 296.022C140.779 296.022 121.598 350.545 146.959 355.802C146.959 355.802 159.319 359.072 168.405 342.66C177.521 326.248 189.208 330.833 189.208 330.833C189.208 330.833 196.03 334.439 196.672 351.523C197.315 368.608 215.854 368.272 215.854 368.272C215.854 368.272 230.814 369.922 243.816 348.559C256.818 327.196 265.261 342.966 265.261 342.966C265.261 342.966 282.485 378.113 317.605 360.692C352.726 343.272 329.322 301.89 329.322 301.89C329.322 301.89 305.705 241.591 296.925 170.381C296.925 170.381 288.634 95.4425 232.435 98.2542V98.2848Z" fill="#9DD4D1"/>
<path d="M248.966 29.2012C248.966 29.2012 236.087 24.678 223.452 54.5679C210.817 84.4577 209.594 87.0861 209.594 87.0861C209.594 87.0861 148.225 97.5689 150.764 117.74C150.764 117.74 153.701 128.131 181.846 125.014C209.991 121.896 234.588 123.852 234.588 123.852C234.588 123.852 277.571 129.293 301.953 139.286C326.336 149.28 321.349 131.462 321.349 131.462C321.349 131.462 319.269 117.159 265.701 94.3599L259.46 44.6963C259.46 44.6963 258.634 30.5765 248.966 29.1401V29.2012Z" fill="black"/>
<path d="M209.624 86.3214L215.284 73.9131C215.284 73.9131 258.267 77.061 263.1 80.1783L264.783 93.259L209.624 86.3214Z" fill="#497F44"/>
<path d="M313.915 144.329C310.489 144.329 306.206 143.259 300.974 141.12C277.081 131.309 234.527 125.869 234.098 125.808C233.946 125.808 209.441 123.913 181.815 126.969C152.875 130.179 148.989 119.512 148.653 118.259C148.653 118.168 148.622 118.076 148.592 117.984C145.991 97.4464 197.999 87.1163 207.972 85.3437C208.921 83.1432 212.011 75.9917 221.402 53.8035C233.854 24.3109 247.192 26.7559 249.12 27.2755C260.072 29.0175 261.112 43.9625 261.142 44.6043L267.23 93.0148C318.014 114.775 322.603 128.895 323.001 131.034C323.246 131.982 324.714 138.461 320.645 142.067C318.963 143.565 316.729 144.298 313.884 144.298L313.915 144.329ZM215.131 121.315C226.695 121.315 234.374 121.896 234.496 121.927C236.362 122.171 278.091 127.52 302.473 137.513C310.183 140.692 315.751 141.273 318.076 139.194C320.554 136.994 319.238 132.073 319.238 132.012C319.238 131.921 319.207 131.859 319.177 131.768C319.177 131.707 315.689 117.893 264.691 96.1933C264.049 95.9183 263.59 95.3376 263.529 94.6346L257.288 44.971C257.288 44.7265 256.401 32.2877 248.446 31.1263C248.324 31.1263 248.232 31.0958 248.11 31.0346C247.865 30.9735 236.576 27.9784 225.012 55.301C212.5 84.8853 211.185 87.7581 211.154 87.8804C210.879 88.4611 210.359 88.8889 209.716 88.9806C193.227 91.7924 151.009 102.367 152.477 117.281C152.875 118.137 157.127 125.747 181.418 123.088C193.93 121.713 205.831 121.315 215.162 121.315H215.131Z" fill="black"/>
<path d="M263.009 82.2878C262.794 82.2878 262.611 82.2573 262.397 82.1961C250.741 78.3453 215.62 76.0226 215.253 76.0226C214.183 75.9615 213.357 75.014 213.418 73.9443C213.479 72.8747 214.427 72.0495 215.498 72.1106C216.967 72.2023 251.475 74.4945 263.59 78.4981C264.599 78.8343 265.181 79.9345 264.844 80.9737C264.569 81.7988 263.804 82.3184 262.978 82.3184L263.009 82.2878Z" fill="black"/>
<path d="M270.828 169.383C271.294 157.104 263.623 146.845 253.696 146.47C243.768 146.094 235.342 155.743 234.877 168.023C234.411 180.302 242.081 190.561 252.009 190.936C261.937 191.312 270.362 181.663 270.828 169.383Z" fill="white"/>
<path d="M246.274 147.844C246.274 147.844 233.67 152.734 235.536 172.232C235.536 172.232 235.812 184.121 245.479 188.216C245.479 188.216 257.716 182.165 256.401 164.867C256.401 164.867 255.758 149.433 246.274 147.844Z" fill="#0090CF"/>
<path d="M252.485 192.709C252.271 192.709 252.056 192.709 251.873 192.709C246.458 192.496 241.502 189.714 237.923 184.886C234.435 180.179 232.63 174.036 232.875 167.618C233.12 161.2 235.383 155.21 239.207 150.778C243.154 146.224 248.324 143.81 253.708 144.024C264.691 144.452 273.227 155.699 272.707 169.146C272.217 182.318 263.192 192.771 252.485 192.771V192.709ZM253.066 147.875C249.028 147.875 245.173 149.8 242.144 153.284C238.871 157.043 236.974 162.178 236.76 167.74C236.546 173.272 238.076 178.559 241.043 182.563C243.919 186.444 247.804 188.675 252.026 188.828C260.867 189.164 268.393 180.271 268.821 168.963C269.25 157.685 262.397 148.241 253.555 147.905C253.402 147.905 253.219 147.905 253.066 147.905V147.875Z" fill="black"/>
<path d="M245.418 190.386C244.714 190.386 244.041 190.019 243.705 189.347C243.184 188.4 243.552 187.208 244.5 186.719C253.433 181.982 254.687 168.687 254.718 168.534C255.819 154.842 246.641 150.258 246.244 150.075C245.265 149.616 244.867 148.455 245.326 147.477C245.785 146.499 246.947 146.101 247.926 146.529C248.416 146.774 259.98 152.336 258.634 168.84C258.573 169.482 257.196 184.365 246.366 190.142C246.06 190.294 245.754 190.356 245.448 190.356L245.418 190.386Z" fill="black"/>
<path d="M227.904 167.763C228.369 155.484 220.699 145.225 210.771 144.849C200.844 144.474 192.418 154.123 191.952 166.402C191.487 178.682 199.157 188.94 209.085 189.316C219.012 189.692 227.438 180.042 227.904 167.763Z" fill="white"/>
<path d="M203.353 146.224C203.353 146.224 190.749 151.114 192.615 170.612C192.615 170.612 192.89 182.501 202.557 186.596C202.557 186.596 214.795 180.545 213.479 163.247C213.479 163.247 212.837 147.813 203.353 146.224Z" fill="#0090CF"/>
<path d="M209.563 191.089C209.349 191.089 209.135 191.089 208.921 191.089C203.506 190.875 198.55 188.094 194.97 183.265C191.483 178.559 189.678 172.416 189.923 165.998C190.167 159.58 192.431 153.59 196.255 149.158C200.202 144.604 205.372 142.19 210.756 142.404C216.171 142.618 221.127 145.399 224.706 150.228C228.194 154.934 229.999 161.077 229.754 167.495C229.51 173.913 227.246 179.904 223.422 184.335C219.628 188.706 214.733 191.089 209.532 191.089H209.563ZM210.144 146.255C206.106 146.255 202.251 148.18 199.223 151.664C195.949 155.423 194.053 160.558 193.838 166.12C193.624 171.652 195.154 176.939 198.121 180.943C200.997 184.824 204.882 187.055 209.104 187.208C213.326 187.361 217.364 185.435 220.515 181.798C223.789 178.039 225.685 172.905 225.9 167.343C226.114 161.811 224.584 156.523 221.617 152.52C218.741 148.638 214.856 146.407 210.634 146.255C210.481 146.255 210.297 146.255 210.144 146.255Z" fill="black"/>
<path d="M202.496 188.767C201.793 188.767 201.12 188.4 200.783 187.728C200.263 186.78 200.63 185.589 201.578 185.1C210.573 180.332 211.766 167.068 211.796 166.915C212.898 153.223 203.72 148.639 203.322 148.455C202.343 147.997 201.946 146.836 202.404 145.858C202.863 144.88 204.026 144.482 205.005 144.91C205.494 145.155 217.058 150.717 215.712 167.221C215.651 167.862 214.274 182.746 203.445 188.522C203.139 188.675 202.833 188.736 202.527 188.736L202.496 188.767Z" fill="black"/>
<path d="M230.672 215.906C204.668 215.906 188.638 199.891 188.393 199.647C187.261 198.485 187.292 196.621 188.454 195.521C189.617 194.39 191.452 194.421 192.584 195.582C193.838 196.865 223.422 226.144 268.515 198.149C269.892 197.293 271.697 197.721 272.554 199.097C273.41 200.472 272.982 202.275 271.605 203.131C256.278 212.636 242.45 215.936 230.672 215.936V215.906Z" fill="black"/>
<path d="M98.9526 192.076C98.9526 192.076 117.328 191.681 116.782 202.317C116.265 212.944 101.448 210.306 101.448 210.306C101.448 210.306 117.554 211.151 113.86 223.694C110.166 236.236 91.7317 230.328 91.7317 230.328C91.7317 230.328 81.2296 228.427 83.6558 210.418C86.0821 192.409 98.9328 192.114 98.9328 192.114L98.9526 192.076Z" fill="#9DD4D1"/>
<path d="M107.374 232.734C100.556 234.916 92.3338 232.51 91.264 232.179C89.8073 231.843 79.2321 228.81 81.7342 210.135C84.3424 190.688 98.7735 190.112 98.9087 190.133C99.3923 190.138 110.859 189.934 116.123 195.34C117.995 197.276 118.885 199.655 118.774 202.418C118.61 205.519 117.409 207.989 115.211 209.752C114.156 210.571 112.969 211.176 111.754 211.596C112.828 212.344 113.824 213.245 114.632 214.366C116.553 217.056 116.938 220.366 115.798 224.229C114.799 227.63 112.755 230.177 109.766 231.776C109.026 232.173 108.228 232.493 107.413 232.754L107.374 232.734ZM96.5526 194.513C93.1145 195.614 87.1506 199.159 85.5973 210.664C83.4792 226.424 91.7658 228.328 92.1131 228.409C92.1807 228.42 92.2867 228.45 92.3252 228.47C92.4312 228.5 101.933 231.491 107.863 228.341C109.918 227.234 111.274 225.549 111.99 223.17C112.768 220.482 112.6 218.353 111.383 216.657C109.443 213.909 105.315 212.855 102.979 212.48C101.887 212.381 101.172 212.256 101.076 212.255C100.052 212.069 99.3674 211.133 99.4864 210.1C99.6055 209.067 100.495 208.333 101.539 208.384C101.636 208.385 102.39 208.433 103.539 208.611C106.168 208.796 110.349 208.613 112.733 206.726C114.042 205.698 114.727 204.227 114.809 202.275C114.888 200.613 114.391 199.264 113.283 198.111C109.892 194.64 101.831 194.043 98.986 194.087C98.831 194.105 97.8824 194.152 96.5421 194.581L96.5526 194.513Z" fill="black"/>
<path d="M184.905 139.866C184.905 139.866 199.896 173.057 233.64 150.288C233.64 150.288 256.401 179.169 275.796 149.86L268.332 136.29L193.624 132.439L184.875 139.866H184.905Z" fill="#9DD4D1"/>
<path d="M275.062 154.413C275.062 154.413 267.047 165.263 252.791 162.726C252.791 162.726 237.8 160.77 233.946 149.156C233.946 149.156 225.869 162.971 206.259 158.692C206.259 158.692 194.817 156.155 188.944 146.65" fill="#9DD4D1"/>
<path d="M257.104 165.538C255.605 165.538 254.014 165.416 252.362 165.11C251.873 165.049 239.146 163.276 233.395 153.711C229.326 157.928 220.424 164.254 205.77 161.076C205.25 160.954 193.227 158.203 186.894 147.934C186.19 146.803 186.557 145.275 187.689 144.572C188.852 143.869 190.351 144.206 191.054 145.367C196.316 153.894 206.718 156.278 206.81 156.308C224.309 160.129 231.559 148.393 231.865 147.904C232.355 147.079 233.303 146.62 234.221 146.712C235.169 146.803 235.965 147.445 236.271 148.362C239.605 158.417 252.974 160.251 253.097 160.281C265.823 162.543 273.012 153.038 273.104 152.946C273.9 151.877 275.429 151.632 276.531 152.427C277.601 153.222 277.846 154.75 277.051 155.85C276.714 156.278 269.739 165.538 257.135 165.538H257.104Z" fill="black"/>
<path d="M270.381 270.001C270.075 270.001 269.77 269.94 269.464 269.756C244.408 256.401 237.494 239.438 239.391 228.008C240.37 222.018 243.888 217.525 248.14 216.822C251.689 216.242 254.963 218.32 257.196 222.476C265.854 238.674 301.372 241.272 301.739 241.272C302.81 241.333 303.636 242.281 303.544 243.35C303.483 244.42 302.534 245.245 301.464 245.154C299.903 245.062 263.406 242.403 253.739 224.28C252.913 222.752 251.2 220.245 248.783 220.643C246.703 220.979 244.072 223.638 243.276 228.619C241.624 238.705 248.11 253.894 271.33 266.272C272.278 266.792 272.645 267.953 272.125 268.901C271.758 269.573 271.085 269.94 270.412 269.94L270.381 270.001Z" fill="black"/>
</g>
</g>
<defs>
<clipPath id="clip0_4757_52360">
<rect width="344" height="270" fill="white"/>
</clipPath>
<clipPath id="clip1_4757_52360">
<rect width="274" height="343" fill="white" transform="translate(64.9092 27)"/>
</clipPath>
</defs>
</svg>
