<svg width="424" height="250" viewBox="0 0 424 250" fill="none" xmlns="http://www.w3.org/2000/svg">
<g clip-path="url(#clip0_4757_52594)">
<g clip-path="url(#clip1_4757_52594)">
<path d="M264.21 76.5417C264.21 76.5417 210.232 75.5979 197.387 144.995C197.387 144.995 193.312 167.174 180.762 153.548C168.212 139.922 153.448 108.866 141.843 125.648C130.238 142.459 154.776 186.138 176.982 212.18C187.672 224.715 175.712 267.332 175.712 267.332C175.712 267.332 157.198 319.947 181.677 325.02C181.677 325.02 193.607 328.176 202.377 312.338C211.176 296.501 222.456 300.924 222.456 300.924C222.456 300.924 229.041 304.405 229.661 320.891C230.282 337.378 248.176 337.053 248.176 337.053C248.176 337.053 262.616 338.646 275.165 318.03C287.715 297.415 295.865 312.633 295.865 312.633C295.865 312.633 312.49 346.55 346.389 329.739C380.288 312.928 357.698 272.995 357.698 272.995C357.698 272.995 334.902 214.805 326.427 146.086C326.427 146.086 318.425 73.7693 264.181 76.4827L264.21 76.5417Z" fill="#9DD4D1"/>
<path d="M249.003 339C248.619 339 248.324 339 248.176 339C241.355 339.089 228.392 335.431 227.86 321.009C227.329 307.148 222.427 303.196 221.689 302.665C220.448 302.252 211.501 299.922 204.089 313.282C194.699 330.211 181.795 327.026 181.234 326.878C176.598 325.935 172.966 323.28 170.574 319.033C161.42 302.871 173.439 268.217 173.97 266.742C177.189 255.269 183.803 223.063 175.565 213.448C153.389 187.435 127.787 142.695 140.278 124.586C142.847 120.87 145.829 118.953 149.166 118.923C157.021 118.894 164.964 129.6 172.582 140.04C175.919 144.641 179.079 148.977 182.15 152.28C184.039 154.344 186.786 156.645 189.148 155.966C192.839 154.905 195.054 147.236 195.526 144.641C199.276 124.438 209.109 97.3933 234.711 83.0892C249.682 74.7132 262.999 74.6247 264.181 74.6542C319.488 71.9114 328.258 145.201 328.317 145.939C336.497 212.151 358.289 269.279 359.411 272.257C360.474 274.145 370.839 293.61 365.405 311.306C362.718 320.066 356.606 326.849 347.245 331.479C336.792 336.67 326.811 337.702 317.628 334.606C302.096 329.326 294.507 314.167 294.182 313.518C294.182 313.518 291.79 309.242 288.099 309.153C288.069 309.153 288.01 309.153 287.981 309.153C284.585 309.153 280.717 312.574 276.789 319.033C265.48 337.584 252.605 339 248.973 339H249.003ZM248.206 335.195C248.206 335.195 248.353 335.195 248.412 335.195C248.944 335.254 261.877 336.257 273.571 317.057C278.384 309.153 283.256 305.231 288.217 305.348C294.123 305.525 297.401 311.483 297.548 311.748C297.637 311.955 304.842 326.259 318.868 331.007C327.048 333.78 336.054 332.777 345.562 328.058C353.978 323.9 359.441 317.854 361.803 310.156C366.941 293.463 356.163 274.145 356.045 273.938C356.015 273.85 355.956 273.791 355.927 273.702C355.69 273.113 332.953 214.51 324.538 146.322C324.538 146.116 322.441 128.272 313.907 111.019C302.627 88.28 285.914 77.2791 264.269 78.3703C264.24 78.3703 264.181 78.3703 264.151 78.3703C262.055 78.3703 211.619 78.3703 199.188 145.29C198.951 146.558 196.737 157.648 190.152 159.535C186.786 160.508 183.124 158.916 179.315 154.787C176.126 151.307 172.907 146.912 169.482 142.223C162.779 133.05 155.219 122.639 149.225 122.639C149.225 122.639 149.195 122.639 149.166 122.639C147.099 122.639 145.209 123.996 143.349 126.68C132.6 142.252 156.784 185.607 178.37 210.912C189.561 224.036 177.986 266.005 177.484 267.804C177.336 268.276 165.466 302.429 173.793 317.116C175.653 320.419 178.34 322.366 182.031 323.133C182.563 323.251 192.809 325.64 200.723 311.395C210.202 294.289 223.017 299.096 223.136 299.155C223.195 299.155 223.254 299.214 223.342 299.243C224.11 299.656 230.902 303.726 231.551 320.803C232.112 335.225 247.497 335.166 248.146 335.166L248.206 335.195Z" fill="black"/>
<path d="M280.185 10.1233C280.185 10.1233 267.754 5.75836 255.558 34.6025C243.363 63.4467 242.182 65.9831 242.182 65.9831C242.182 65.9831 182.947 76.0992 185.398 95.5646C185.398 95.5646 188.233 105.592 215.399 102.584C242.566 99.5756 266.307 101.463 266.307 101.463C266.307 101.463 307.795 106.713 331.329 116.357C354.893 126.031 350.05 108.807 350.05 108.807C350.05 108.807 348.042 95.0042 296.338 73.0024L290.314 25.0763C290.314 25.0763 289.516 11.4505 280.185 10.0643V10.1233Z" fill="black"/>
<path d="M242.211 65.2456L247.674 53.2715C247.674 53.2715 289.162 56.3093 293.828 59.3175L295.452 71.9406L242.211 65.2456Z" fill="#497F44"/>
<path d="M342.875 121.223C339.568 121.223 335.434 120.191 330.384 118.126C307.322 108.659 266.248 103.409 265.834 103.35C265.687 103.35 242.034 101.522 215.369 104.471C187.406 107.568 183.685 97.2748 183.36 96.0656C183.36 95.9772 183.331 95.8887 183.301 95.8002C180.791 75.9809 230.99 66.0123 240.617 64.3017C241.532 62.1782 244.514 55.2768 253.58 33.8649C265.627 5.40414 278.502 7.76358 280.362 8.26496C290.934 9.94606 291.938 24.3681 291.967 24.9875L297.843 71.7044C346.861 92.7034 351.291 106.329 351.674 108.394C351.911 109.308 353.328 115.561 349.401 119.041C347.777 120.486 345.621 121.194 342.875 121.194V121.223ZM247.526 99.0149C258.688 99.0149 266.1 99.5753 266.218 99.6048C268.019 99.8407 308.297 105.002 331.802 114.646C339.243 117.714 344.617 118.274 346.861 116.268C349.253 114.145 347.983 109.396 347.983 109.337C347.983 109.249 347.954 109.19 347.924 109.102C347.924 109.043 344.558 95.7117 295.333 74.7717C294.713 74.5062 294.27 73.9459 294.211 73.2675L288.188 25.3414C288.188 25.1055 287.331 13.1018 279.654 11.9811C279.536 11.9811 279.447 11.9516 279.329 11.8926C279.093 11.8336 268.167 8.97279 257.035 35.31C244.957 63.8593 243.688 66.6316 243.658 66.7496C243.392 67.31 242.89 67.7229 242.27 67.8113C226.354 70.5247 185.604 80.7293 187.022 95.1219C187.406 95.9477 191.51 103.291 214.956 100.726C227.033 99.3983 238.52 99.0149 247.526 99.0149Z" fill="black"/>
<path d="M293.768 61.3526C293.562 61.3526 293.385 61.3231 293.178 61.2641C281.927 57.548 248.028 55.3065 247.674 55.3065C246.64 55.2475 245.843 54.3332 245.902 53.301C245.961 52.2687 246.877 51.4724 247.91 51.5314C249.328 51.6199 282.636 53.8319 294.33 57.6954C295.304 58.0199 295.865 59.0816 295.54 60.0844C295.274 60.8807 294.536 61.3821 293.739 61.3821L293.768 61.3526Z" fill="black"/>
<path d="M298.467 142.353C298.916 130.503 291.513 120.603 281.93 120.241C272.348 119.878 264.215 129.19 263.766 141.04C263.316 152.889 270.72 162.789 280.302 163.152C289.885 163.514 298.017 154.202 298.467 142.353Z" fill="white"/>
<path d="M274.752 121.549C274.752 121.549 262.586 126.268 264.387 145.084C264.387 145.084 264.653 156.557 273.984 160.509C273.984 160.509 285.796 154.669 284.526 137.976C284.526 137.976 283.906 123.082 274.752 121.549Z" fill="#0090CF"/>
<path d="M280.746 164.844C280.54 164.844 280.333 164.844 280.156 164.844C269.555 164.431 261.316 153.578 261.818 140.601C262.32 127.624 271.356 117.39 281.957 117.832C287.184 118.039 291.967 120.722 295.422 125.382C298.789 129.924 300.531 135.852 300.294 142.046C299.822 154.757 291.111 164.844 280.776 164.844H280.746ZM281.307 121.578C272.98 121.578 265.952 130.072 265.539 140.748C265.126 151.631 271.74 160.744 280.274 161.069C288.778 161.393 296.072 152.781 296.485 141.898C296.692 136.56 295.216 131.458 292.351 127.594C289.576 123.849 285.825 121.696 281.75 121.548C281.603 121.548 281.426 121.548 281.278 121.548L281.307 121.578Z" fill="black"/>
<path d="M273.925 162.603C273.246 162.603 272.596 162.249 272.272 161.6C271.77 160.686 272.124 159.535 273.039 159.063C281.721 154.463 282.872 141.663 282.902 141.515C283.965 128.302 275.106 123.878 274.723 123.701C273.778 123.259 273.394 122.138 273.837 121.194C274.28 120.251 275.402 119.867 276.347 120.28C276.819 120.516 287.981 125.884 286.682 141.81C286.623 142.429 285.294 156.793 274.841 162.367C274.545 162.514 274.25 162.573 273.955 162.573L273.925 162.603Z" fill="black"/>
<path d="M257.006 140.788C257.455 128.939 250.052 119.039 240.469 118.676C230.887 118.314 222.754 127.626 222.305 139.475C221.855 151.325 229.259 161.225 238.841 161.587C248.424 161.95 256.556 152.638 257.006 140.788Z" fill="white"/>
<path d="M233.323 119.985C233.323 119.985 221.157 124.704 222.958 143.521C222.958 143.521 223.224 154.994 232.555 158.946C232.555 158.946 244.367 153.106 243.097 136.413C243.097 136.413 242.477 121.519 233.323 119.985Z" fill="#0090CF"/>
<path d="M239.317 163.281C239.111 163.281 238.904 163.281 238.727 163.281C233.5 163.075 228.717 160.391 225.262 155.731C221.895 151.189 220.153 145.261 220.389 139.067C220.626 132.874 222.811 127.093 226.502 122.817C230.311 118.422 235.301 116.092 240.499 116.299C251.099 116.712 259.338 127.565 258.836 140.542C258.363 153.253 249.652 163.34 239.317 163.34V163.281ZM239.878 120.015C235.981 120.015 232.26 121.873 229.337 125.235C226.177 128.863 224.346 133.818 224.14 139.185C223.933 144.524 225.409 149.626 228.274 153.489C231.049 157.235 234.799 159.388 238.874 159.536C247.408 159.86 254.672 151.248 255.086 140.365C255.499 129.482 248.885 120.369 240.351 120.044C240.203 120.044 240.026 120.044 239.878 120.044V120.015Z" fill="black"/>
<path d="M232.496 161.039C231.817 161.039 231.167 160.685 230.843 160.036C230.341 159.122 230.695 157.972 231.61 157.5C240.233 152.929 241.444 140.099 241.473 139.952C242.566 126.621 233.412 122.197 233.294 122.138C232.349 121.696 231.935 120.575 232.378 119.631C232.821 118.687 233.943 118.274 234.888 118.717C235.361 118.953 246.522 124.32 245.223 140.247C245.164 140.866 243.835 155.229 233.382 160.803C233.087 160.951 232.792 161.01 232.496 161.01V161.039Z" fill="black"/>
<path d="M259.692 187.229C234.593 187.229 219.12 171.775 218.883 171.539C217.791 170.418 217.82 168.619 218.943 167.557C220.065 166.466 221.836 166.495 222.929 167.616C224.14 168.855 252.694 197.08 296.219 170.094C297.548 169.268 299.29 169.681 300.117 171.008C300.944 172.335 300.531 174.075 299.202 174.901C284.408 184.073 271.061 187.258 259.692 187.258V187.229Z" fill="black"/>
</g>
<path d="M319.41 188.968L334.303 208.388C334.303 208.388 357.08 198.832 367.993 185.008C378.907 171.184 354.512 161.78 354.512 161.78C354.512 161.78 352.124 174.378 319.41 188.943V188.968Z" fill="#9DD4D1"/>
<path fill-rule="evenodd" clip-rule="evenodd" d="M317.761 187.978C317.871 187.518 318.237 187.127 318.742 187.001C318.948 186.975 338.515 181.967 350.892 163.697L354.435 157.641C354.438 157.636 354.441 157.63 354.445 157.622C354.668 157.171 357.602 151.25 362.37 152.53C365.988 153.502 366.694 156.229 366.552 157.864C366.694 156.229 365.988 153.501 362.37 152.53C357.602 151.25 354.668 157.17 354.445 157.622L354.435 157.641L350.892 163.697C338.515 181.967 318.948 186.975 318.742 187.001C318.237 187.126 317.871 187.517 317.761 187.978ZM366.504 158.228C366.504 158.228 366.504 158.229 366.504 158.229C366.502 158.261 366.499 158.301 366.496 158.347C366.499 158.301 366.502 158.261 366.504 158.228ZM358.906 168.76C358.944 168.532 359.045 168.31 359.211 168.118C361.835 165.072 362.986 162.008 363.486 160.062C362.986 162.008 361.835 165.072 359.212 168.117C359.045 168.309 358.944 168.531 358.906 168.76ZM363.859 157.794C363.863 157.781 363.867 157.761 363.871 157.735C363.867 157.761 363.863 157.781 363.859 157.794V157.794ZM319.42 190.573C319.477 190.565 319.573 190.55 319.683 190.512C321.236 190.123 341 184.807 353.954 165.688L353.972 165.661L357.651 159.37L357.668 159.337C357.717 159.24 358.226 158.223 359.007 157.316C359.869 156.313 360.691 155.862 361.389 156.051C362.41 156.328 362.704 156.77 362.808 157.014C362.918 157.271 362.894 157.503 362.889 157.546C362.888 157.554 362.888 157.556 362.889 157.55L362.859 157.67V157.998C362.859 157.991 362.858 158 362.856 158.025C362.814 158.426 362.338 162.954 358.455 167.463C357.589 168.462 357.748 169.911 358.714 170.741L358.724 170.75L358.734 170.758C359.703 171.546 361.141 171.47 361.995 170.485L361.999 170.48C366.719 164.974 367.418 159.476 367.498 158.348C367.66 157.383 367.576 156.017 366.891 154.72C366.172 153.361 364.833 152.156 362.629 151.564C359.688 150.775 357.38 152.286 355.912 153.806C355.168 154.575 354.594 155.389 354.199 156.021C354 156.338 353.845 156.614 353.734 156.82C353.678 156.923 353.634 157.009 353.601 157.074C353.584 157.107 353.566 157.142 353.555 157.165L350.045 163.163C343.973 172.115 336.135 177.83 329.772 181.313C326.59 183.056 323.784 184.235 321.766 184.98C320.757 185.352 319.946 185.615 319.386 185.784C319.105 185.869 318.888 185.93 318.741 185.97C318.667 185.99 318.612 186.004 318.577 186.013L318.571 186.014L318.559 186.016L318.501 186.03C317.269 186.337 316.472 187.582 316.799 188.837L316.799 188.838C317.065 189.85 317.976 190.559 319.001 190.581L319.02 190.582C319.059 190.585 319.115 190.588 319.179 190.588C319.24 190.588 319.326 190.585 319.42 190.573Z" fill="black"/>
<path fill-rule="evenodd" clip-rule="evenodd" d="M368.045 173.049C367.788 173.305 367.454 173.432 367.12 173.432L367.146 173.381C366.787 173.381 366.453 173.254 366.196 172.998C365.657 172.487 365.683 171.644 366.196 171.133L366.197 171.132C366.281 171.049 371.38 165.98 370.433 160.988C370.176 159.66 369.611 158.714 368.764 158.152C367.389 157.256 365.555 157.557 365.24 157.609C365.214 157.613 365.199 157.615 365.195 157.615C364.476 157.794 363.782 157.36 363.603 156.644C363.423 155.929 363.859 155.239 364.578 155.06C364.581 155.06 364.585 155.059 364.59 155.058C364.831 155.008 367.762 154.403 370.176 155.954C371.666 156.925 372.641 158.459 373.027 160.528C373.051 160.653 373.072 160.778 373.091 160.903C374.274 160.802 375.917 160.912 377.186 161.959C378.445 163.007 378.984 164.668 378.779 166.916C378.239 172.742 369.483 191.651 336.101 208.95C335.896 209.053 335.716 209.129 335.51 209.129C335.022 209.129 334.56 208.874 334.329 208.414C333.995 207.749 334.252 206.957 334.894 206.625C367.043 189.939 375.671 171.72 376.159 166.661C376.288 165.332 376.082 164.438 375.517 163.978C374.912 163.482 373.876 163.465 373.117 163.552C372.493 168.627 368.319 172.776 368.05 173.044L368.045 173.049Z" fill="black"/>
<path fill-rule="evenodd" clip-rule="evenodd" d="M366.212 173.014C366.432 173.226 366.707 173.346 367.006 173.375C367.044 173.378 367.082 173.381 367.12 173.381C367.129 173.381 367.138 173.382 367.146 173.382L367.12 173.433C367.129 173.433 367.138 173.433 367.146 173.432C367.177 173.432 367.207 173.43 367.237 173.427C367.531 173.401 367.818 173.275 368.045 173.049L368.05 173.044C368.107 172.988 368.339 172.757 368.674 172.382C369.926 170.98 372.625 167.554 373.117 163.552C373.876 163.465 374.912 163.482 375.517 163.978C376.082 164.438 376.288 165.332 376.159 166.661C375.671 171.72 367.043 189.939 334.894 206.625C334.252 206.957 333.995 207.75 334.329 208.414C334.56 208.874 335.022 209.129 335.51 209.129C335.716 209.129 335.895 209.053 336.101 208.951C369.483 191.651 378.239 172.743 378.778 166.917C378.984 164.668 378.445 163.007 377.186 161.959C375.917 160.912 374.274 160.802 373.091 160.903C373.072 160.778 373.051 160.654 373.027 160.529C372.641 158.459 371.666 156.926 370.176 155.955C367.762 154.403 364.831 155.008 364.59 155.058L364.578 155.06C363.859 155.239 363.423 155.929 363.603 156.645C363.782 157.36 364.476 157.794 365.195 157.616C365.199 157.616 365.214 157.613 365.24 157.609C365.555 157.557 367.389 157.256 368.764 158.152C369.611 158.714 370.176 159.66 370.433 160.988C371.38 165.981 366.281 171.049 366.197 171.132L366.196 171.133C365.682 171.644 365.657 172.487 366.196 172.998C366.201 173.003 366.207 173.009 366.212 173.014ZM365.381 158.599C365.389 158.598 365.397 158.596 365.402 158.595C365.539 158.573 365.995 158.498 366.559 158.524C367.133 158.55 367.735 158.676 368.214 158.988C368.775 159.361 369.229 160.032 369.451 161.176C369.853 163.301 368.974 165.545 367.849 167.378C366.744 169.179 365.514 170.401 365.492 170.423L365.492 170.423L365.491 170.424C365.49 170.424 365.49 170.425 365.49 170.425C364.61 171.301 364.531 172.788 365.499 173.716C365.579 173.794 365.663 173.866 365.751 173.931L365.499 174.433H367.12C367.71 174.433 368.3 174.206 368.75 173.759C368.75 173.758 368.75 173.758 368.75 173.758L368.755 173.753L368.306 173.301L368.755 173.753C368.911 173.598 370.072 172.442 371.279 170.662C372.354 169.074 373.505 166.931 373.975 164.515C374.068 164.519 374.159 164.527 374.247 164.538C374.584 164.582 374.785 164.67 374.883 164.751L374.886 164.753C375.03 164.871 375.287 165.288 375.164 166.565L375.164 166.565C374.948 168.8 372.817 174.429 366.641 181.632C360.497 188.797 350.408 197.446 334.433 205.738C333.297 206.327 332.861 207.719 333.436 208.863C333.85 209.687 334.674 210.129 335.51 210.129C335.969 210.129 336.333 209.952 336.546 209.846L336.554 209.842L336.561 209.838C353.352 201.137 363.995 192.007 370.52 184.276C377.018 176.576 379.478 170.205 379.774 167.009L379.774 167.007C379.998 164.562 379.424 162.521 377.826 161.191L377.823 161.188C376.589 160.169 375.109 159.893 373.911 159.874C373.425 157.804 372.353 156.18 370.722 155.117L370.722 155.117L370.717 155.113C367.957 153.34 364.688 154.016 364.394 154.077L364.388 154.079L364.388 154.079L364.383 154.08L364.382 154.08L364.36 154.084L364.337 154.09C363.109 154.395 362.311 155.608 362.633 156.888C362.937 158.101 364.127 158.88 365.381 158.599Z" fill="black"/>
<path d="M395.154 142.67C393.82 143.329 391.902 143.583 389.686 143.553C387.346 143.521 384.751 143.174 382.32 142.722C379.893 142.27 377.644 141.715 376.001 141.273C375.18 141.052 374.512 140.859 374.049 140.722C373.86 140.666 373.706 140.619 373.589 140.584C366.652 115.573 368.61 101.564 373.34 93.8808C378.069 86.1976 385.659 84.7075 390.284 84.932C394.886 85.1554 398.48 87.1366 400.376 90.6676C402.283 94.2173 402.534 99.4449 400.184 106.271C397.788 113.23 396.532 122.416 395.873 129.834C395.543 133.548 395.362 136.83 395.264 139.184C395.215 140.361 395.186 141.306 395.17 141.957C395.162 142.261 395.157 142.5 395.154 142.67Z" fill="#9DD4D1" stroke="black"/>
<path d="M372.628 142.737L373.27 142.927V142.911C375.766 143.669 383.576 145.875 389.923 145.875C392.44 145.875 394.806 145.543 396.538 144.558L396.54 144.557L397.208 144.174L397.459 144.029V143.74V142.973C397.459 142.973 397.459 142.968 397.459 142.953L397.46 142.895C397.46 142.847 397.462 142.777 397.463 142.687C397.467 142.508 397.473 142.25 397.482 141.92C397.5 141.26 397.531 140.314 397.583 139.143C397.686 136.801 397.872 133.559 398.201 129.907C398.862 122.59 400.097 113.665 402.387 107.005C405.717 97.4009 403.92 91.5843 401.737 88.3929C399.347 84.8654 395.284 82.8401 390.409 82.6042V82.6041L390.405 82.604C387.184 82.4737 378.998 82.9138 372.996 90.3794L372.996 90.3801C369.067 95.283 367.001 102.058 366.749 110.59C366.497 119.121 368.056 129.445 371.414 141.494L371.592 142.18L371.664 142.453L371.935 142.533L372.628 142.737ZM398.951 105.861L398.951 105.861C394.716 118.154 393.977 136.928 393.848 141.799C392.813 142.134 391.465 142.277 389.919 142.268C388.222 142.258 386.325 142.065 384.414 141.77C380.731 141.202 377.032 140.262 374.668 139.559C367.004 111.392 371.166 98.494 375.855 92.6413C380.792 86.5131 387.551 86.1358 390.233 86.2605L390.234 86.2605C394.093 86.4339 396.986 87.9116 398.728 90.463C401.088 93.9504 401.241 99.2271 398.951 105.861Z" fill="black" stroke="black"/>
<path d="M403.558 164.387C403.558 164.387 407.744 130.99 376.416 134.133C345.063 137.275 349.222 152.275 349.222 152.275C349.222 152.275 350.84 162.036 355.129 161.653C355.129 161.653 348.581 164.719 349.556 172.589C350.532 180.434 359.057 183.372 359.057 183.372C359.057 183.372 353.28 184.982 354.846 192.418C356.412 199.828 366.478 205.859 378.932 204.147C391.386 202.435 401.427 192.111 403.558 164.387Z" fill="#9DD4D1"/>
<path d="M355.668 160.221L355.629 159.723C355.281 159.75 354.879 159.559 354.426 159.048C353.979 158.545 353.556 157.809 353.175 156.952C352.415 155.241 351.88 153.169 351.668 151.862L351.642 151.702L351.634 151.694C351.568 151.405 350.945 148.533 353.227 145.279L353.228 145.277C355.574 141.898 361.639 137.383 377.235 135.83C378.559 135.704 379.826 135.628 381.038 135.628C387.516 135.628 392.559 137.464 396.113 141.1L396.114 141.101C400.084 145.137 401.661 150.807 402.234 155.544C402.747 159.792 402.446 163.172 402.378 163.944C402.37 164.034 402.365 164.089 402.365 164.105V164.137C401.468 175.946 399.052 185.018 395.19 191.359C391.338 197.682 386.045 201.297 379.327 202.22L379.326 202.22C373.309 203.05 368.107 202.003 364.256 199.976C360.395 197.944 357.928 194.952 357.287 191.906L357.287 191.904C356.661 188.974 357.405 187.28 358.247 186.313C359.101 185.332 360.121 185.024 360.193 185.003C360.957 184.794 361.535 184.099 361.535 183.295C361.535 182.533 361.052 181.794 360.293 181.543C360.293 181.543 360.293 181.543 360.292 181.542C360.261 181.531 359.796 181.363 359.097 181.015C358.371 180.655 357.404 180.108 356.414 179.352C354.43 177.837 352.405 175.524 352.004 172.247C351.236 165.862 356.385 163.259 356.554 163.175C357.364 162.788 357.749 161.906 357.539 161.07C357.323 160.209 356.502 159.653 355.628 159.723L355.668 160.221ZM355.668 160.221C356.31 160.17 356.9 160.579 357.054 161.192C357.208 161.805 356.926 162.444 356.335 162.725L351.174 151.942C351.611 154.625 353.357 160.4 355.668 160.221ZM350.172 143.277L350.171 143.277C347.128 147.702 347.912 151.776 348.09 152.528C348.187 153.085 348.526 154.876 349.22 156.836C349.848 158.612 350.793 160.605 352.17 161.916C349.912 164.073 347.79 167.675 348.418 172.702C349.117 178.359 353.093 181.725 355.977 183.46C354.157 185.238 352.79 188.212 353.741 192.674C354.677 197.134 357.757 200.503 361.786 202.746C365.814 204.988 370.824 206.128 375.723 206.128C377.108 206.128 378.492 206.024 379.846 205.843L379.848 205.842C387.592 204.773 393.675 200.715 398.05 193.76C402.41 186.827 405.066 177.03 406.033 164.462C406.105 163.879 406.547 159.766 405.861 154.645C405.17 149.493 403.329 143.256 398.754 138.586C393.66 133.386 386.249 131.274 376.88 132.203L376.879 132.203C363.398 133.56 354.337 137.232 350.172 143.277Z" fill="black" stroke="black"/>
<path d="M354.051 161.892C354.158 162.393 354.473 162.805 354.883 163.057L354.585 163.353L355.796 163.353L355.796 163.327C355.796 163.327 355.796 163.327 355.796 163.327L355.796 163.353H355.796H355.796L355.797 163.353L355.798 163.353L355.801 163.353L355.809 163.353L355.837 163.352C355.859 163.352 355.891 163.351 355.926 163.349C355.986 163.346 356.092 163.338 356.19 163.315C362.475 161.965 367.118 161.278 370.194 160.929C371.733 160.754 372.879 160.664 373.644 160.617C374.027 160.594 374.313 160.581 374.506 160.575C374.602 160.572 374.675 160.57 374.724 160.569C374.769 160.568 374.794 160.568 374.798 160.568L374.798 160.568C375.785 160.568 376.633 159.765 376.633 158.739C376.633 157.758 375.829 156.91 374.824 156.91C374.529 156.91 368.434 156.914 355.434 159.732C354.461 159.94 353.804 160.887 354.051 161.892Z" fill="black" stroke="black"/>
<path d="M359.879 185.073H359.909L359.939 185.07L375.728 183.154C376.731 183.045 377.429 182.125 377.324 181.147C377.216 180.142 376.288 179.449 375.31 179.553L375.31 179.553L375.303 179.554L359.514 181.47C358.511 181.579 357.813 182.499 357.918 183.477L357.918 183.477L357.919 183.481C358.026 184.407 358.813 185.073 359.725 185.073H359.725H359.725H359.725H359.725H359.725H359.725H359.725H359.725H359.725H359.725H359.725H359.725H359.725H359.725H359.725H359.725H359.725H359.725H359.725H359.726H359.726H359.726H359.726H359.726H359.726H359.726H359.726H359.726H359.726H359.726H359.726H359.726H359.726H359.726H359.727H359.727H359.727H359.727H359.727H359.727H359.727H359.727H359.727H359.727H359.727H359.728H359.728H359.728H359.728H359.728H359.728H359.728H359.728H359.728H359.729H359.729H359.729H359.729H359.729H359.729H359.729H359.729H359.73H359.73H359.73H359.73H359.73H359.73H359.73H359.731H359.731H359.731H359.731H359.731H359.731H359.732H359.732H359.732H359.732H359.732H359.732H359.733H359.733H359.733H359.733H359.733H359.733H359.734H359.734H359.734H359.734H359.734H359.735H359.735H359.735H359.735H359.735H359.736H359.736H359.736H359.736H359.736H359.737H359.737H359.737H359.737H359.737H359.738H359.738H359.738H359.738H359.739H359.739H359.739H359.739H359.739H359.74H359.74H359.74H359.74H359.741H359.741H359.741H359.741H359.742H359.742H359.742H359.742H359.743H359.743H359.743H359.743H359.744H359.744H359.744H359.744H359.745H359.745H359.745H359.745H359.746H359.746H359.746H359.746H359.747H359.747H359.747H359.748H359.748H359.748H359.748H359.749H359.749H359.749H359.749H359.75H359.75H359.75H359.751H359.751H359.751H359.752H359.752H359.752H359.752H359.753H359.753H359.753H359.754H359.754H359.754H359.755H359.755H359.755H359.755H359.756H359.756H359.756H359.757H359.757H359.757H359.758H359.758H359.758H359.759H359.759H359.759H359.76H359.76H359.76H359.76H359.761H359.761H359.761H359.762H359.762H359.762H359.763H359.763H359.763H359.764H359.764H359.764H359.765H359.765H359.765H359.766H359.766H359.767H359.767H359.767H359.768H359.768H359.768H359.769H359.769H359.769H359.77H359.77H359.77H359.771H359.771H359.771H359.772H359.772H359.772H359.773H359.773H359.774H359.774H359.774H359.775H359.775H359.775H359.776H359.776H359.776H359.777H359.777H359.778H359.778H359.778H359.779H359.779H359.779H359.78H359.78H359.78H359.781H359.781H359.782H359.782H359.782H359.783H359.783H359.783H359.784H359.784H359.785H359.785H359.785H359.786H359.786H359.787H359.787H359.787H359.788H359.788H359.788H359.789H359.789H359.79H359.79H359.79H359.791H359.791H359.792H359.792H359.792H359.793H359.793H359.793H359.794H359.794H359.795H359.795H359.795H359.796H359.796H359.797H359.797H359.797H359.798H359.798H359.799H359.799H359.799H359.8H359.8H359.801H359.801H359.801H359.802H359.802H359.803H359.803H359.803H359.804H359.804H359.805H359.805H359.805H359.806H359.806H359.807H359.807H359.807H359.808H359.808H359.809H359.809H359.809H359.81H359.81H359.811H359.811H359.811H359.812H359.812H359.813H359.813H359.813H359.814H359.814H359.815H359.815H359.815H359.816H359.816H359.817H359.817H359.817H359.818H359.818H359.819H359.819H359.819H359.82H359.82H359.821H359.821H359.821H359.822H359.822H359.823H359.823H359.823H359.824H359.824H359.825H359.825H359.825H359.826H359.826H359.827H359.827H359.827H359.828H359.828H359.829H359.829H359.829H359.83H359.83H359.831H359.831H359.831H359.832H359.832H359.833H359.833H359.833H359.834H359.834H359.834H359.835H359.835H359.836H359.836H359.836H359.837H359.837H359.838H359.838H359.838H359.839H359.839H359.84H359.84H359.84H359.841H359.841H359.842H359.842H359.842H359.843H359.843H359.843H359.844H359.844H359.845H359.845H359.845H359.846H359.846H359.847H359.847H359.847H359.848H359.848H359.848H359.849H359.849H359.85H359.85H359.85H359.851H359.851H359.851H359.852H359.852H359.853H359.853H359.853H359.854H359.854H359.854H359.855H359.855H359.855H359.856H359.856H359.857H359.857H359.857H359.858H359.858H359.858H359.859H359.859H359.859H359.86H359.86H359.861H359.861H359.861H359.862H359.862H359.862H359.863H359.863H359.863H359.864H359.864H359.864H359.865H359.865H359.865H359.866H359.866H359.866H359.867H359.867H359.867H359.868H359.868H359.869H359.869H359.869H359.87H359.87H359.87H359.871H359.871H359.871H359.871H359.872H359.872H359.872H359.873H359.873H359.873H359.874H359.874H359.874H359.875H359.875H359.875H359.876H359.876H359.876H359.877H359.877H359.877H359.878H359.878H359.878H359.878H359.879H359.879Z" fill="black" stroke="black"/>
</g>
<defs>
<clipPath id="clip0_4757_52594">
<rect width="424" height="250" fill="white"/>
</clipPath>
<clipPath id="clip1_4757_52594">
<rect width="230" height="331" fill="white" transform="translate(137 8)"/>
</clipPath>
</defs>
</svg>
