<svg width="424" height="250" viewBox="0 0 424 250" fill="none" xmlns="http://www.w3.org/2000/svg">
<g clip-path="url(#clip0_4757_52665)">
<path d="M300.891 206.765C317.787 205.665 328.08 202.536 334.229 199.562C337.419 198.02 339.493 196.519 340.792 195.367C341.064 195.126 341.301 194.901 341.508 194.694C341.947 195.138 342.49 195.707 343.088 196.378C344.633 198.111 346.508 200.481 347.917 203.089C349.338 205.719 350.198 208.432 349.939 210.908C349.691 213.28 348.392 215.676 344.957 217.726C337.641 222.094 327.913 224.518 319.905 225.84C315.921 226.499 312.403 226.878 309.882 227.093C308.679 227.195 307.705 227.26 307.017 227.3L300.891 206.765Z" fill="#FAC3C1" stroke="black" stroke-width="3"/>
<path d="M381.154 178.67C379.821 179.329 377.902 179.583 375.686 179.553C373.346 179.521 370.751 179.174 368.321 178.722C365.893 178.27 363.644 177.715 362.002 177.273C361.181 177.052 360.512 176.859 360.049 176.722C359.86 176.666 359.706 176.619 359.589 176.584C352.652 151.573 354.611 137.564 359.34 129.881C364.07 122.198 371.659 120.707 376.284 120.932C380.886 121.155 384.48 123.137 386.377 126.668C388.283 130.217 388.534 135.445 386.184 142.271C383.788 149.23 382.532 158.416 381.873 165.834C381.544 169.548 381.363 172.83 381.264 175.184C381.215 176.361 381.186 177.306 381.17 177.957C381.162 178.261 381.157 178.5 381.154 178.67Z" fill="#FAC3C1" stroke="black"/>
<path fill-rule="evenodd" clip-rule="evenodd" d="M357.829 178.293L359.07 178.659V178.641C361.23 179.307 369.368 181.675 375.923 181.675C378.429 181.675 380.753 181.343 382.439 180.384L382.44 180.384L383.259 179.914V178.974L383.259 178.972L383.259 178.967L383.259 178.95L383.26 178.892C383.261 178.843 383.262 178.773 383.264 178.683C383.267 178.504 383.273 178.245 383.282 177.914C383.3 177.254 383.331 176.307 383.383 175.134C383.486 172.79 383.672 169.545 384.002 165.889C384.663 158.569 385.9 149.624 388.198 142.94C391.511 133.386 389.714 127.637 387.572 124.506C385.224 121.04 381.225 119.038 376.4 118.804L376.397 118.804C373.201 118.675 365.095 119.113 359.152 126.505C355.259 131.363 353.2 138.091 352.949 146.596C352.697 155.1 354.252 165.404 357.607 177.442L357.608 177.444L357.829 178.293ZM358.85 178.258C358.912 178.278 358.985 178.301 359.07 178.327C361.08 178.951 369.321 181.375 375.923 181.375C378.414 181.375 380.673 181.043 382.291 180.123L382.959 179.74V179.74L382.291 180.123C380.673 181.043 378.414 181.375 375.923 181.375C368.913 181.375 360.054 178.641 358.77 178.232V178.233L358.777 178.235L358.85 178.258ZM358.77 178.258V178.258L358.076 178.054L357.897 177.364C352.87 159.33 351.902 145.234 354.972 135.271C351.902 145.234 352.87 159.33 357.897 177.364L358.076 178.053L358.77 178.258ZM388.473 141.109C388.306 141.672 388.12 142.25 387.915 142.842C387.915 142.842 387.915 142.842 387.915 142.842C388.12 142.25 388.306 141.672 388.473 141.109ZM384.893 126.351C387.306 129.915 387.439 135.268 385.14 141.927C380.874 154.308 380.163 173.302 380.045 177.945C378.962 178.322 377.539 178.478 375.918 178.468C374.208 178.458 372.301 178.264 370.383 177.968C366.634 177.39 362.869 176.428 360.505 175.719C352.794 147.452 356.945 134.45 361.7 128.516C366.696 122.315 373.535 121.935 376.243 122.061C380.15 122.236 383.109 123.736 384.893 126.351ZM357.791 135.305C358.793 132.297 360.101 130.031 361.466 128.328C366.55 122.017 373.509 121.633 376.257 121.761C380.237 121.94 383.293 123.473 385.141 126.182C386.814 128.652 387.41 131.929 386.921 135.843C387.41 131.929 386.814 128.652 385.141 126.182C383.293 123.473 380.237 121.94 376.257 121.761C373.509 121.633 366.55 122.017 361.466 128.328C360.101 130.031 358.793 132.297 357.791 135.305ZM381.946 157.834C380.689 166.932 380.404 175.488 380.34 178.156C380.34 178.156 380.34 178.156 380.34 178.156C380.404 175.489 380.689 166.933 381.946 157.834Z" fill="black"/>
<path d="M389.558 200.387C389.558 200.387 393.744 166.99 362.416 170.133C331.063 173.275 335.222 188.275 335.222 188.275C335.222 188.275 336.84 198.036 341.129 197.653C341.129 197.653 334.581 200.719 335.556 208.589C336.532 216.434 345.057 219.372 345.057 219.372C345.057 219.372 339.28 220.982 340.846 228.418C342.412 235.828 352.478 241.859 364.932 240.147C377.386 238.435 387.427 228.111 389.558 200.387Z" fill="#FAC3C1"/>
<path d="M340.23 228.571C339.228 223.869 340.897 220.956 342.823 219.372C339.973 217.787 335.633 214.466 334.914 208.64C334.272 203.504 336.609 199.926 338.92 197.908C335.916 195.531 334.76 189.475 334.581 188.428C334.426 187.789 333.63 183.854 336.583 179.561C340.615 173.709 349.474 170.055 362.93 168.701C372.199 167.781 379.441 169.876 384.397 174.936C393.333 184.058 391.664 199.39 391.535 200.412C389.609 225.479 380.956 239.252 365.78 241.347C364.445 241.526 363.084 241.628 361.723 241.628C352.068 241.628 342.027 237.131 340.23 228.571ZM363.186 171.333C347.522 172.892 341.283 177.44 338.817 180.992C336.327 184.544 337.123 187.687 337.148 187.814C337.148 187.865 337.148 187.916 337.174 187.942C337.611 190.625 339.357 196.4 341.668 196.221C342.31 196.17 342.9 196.579 343.054 197.192C343.208 197.805 342.926 198.444 342.335 198.725C342.284 198.751 336.686 201.485 337.508 208.307C338.355 215.232 346.059 217.992 346.136 218.017C346.675 218.196 347.035 218.733 347.035 219.295C347.035 219.857 346.624 220.368 346.059 220.522C345.879 220.573 341.488 221.876 342.798 228.009C344.159 234.473 353.172 240.402 365.395 238.715C379.158 236.824 387.067 223.869 388.865 200.156V200.105C388.865 199.952 390.637 185.055 382.471 176.75C378.799 172.994 373.612 171.128 367.038 171.128C365.805 171.128 364.522 171.205 363.186 171.333Z" fill="black"/>
<path fill-rule="evenodd" clip-rule="evenodd" d="M336.336 179.391L336.336 179.391C340.448 173.423 349.428 169.758 362.899 168.403L362.9 168.402C372.229 167.477 379.572 169.582 384.611 174.726C389.143 179.353 390.975 185.54 391.662 190.672C392.348 195.784 391.903 199.886 391.834 200.442C390.869 212.996 388.217 222.759 383.88 229.654C379.535 236.562 373.502 240.584 365.821 241.644L365.82 241.644C364.473 241.825 363.098 241.928 361.723 241.928C356.852 241.928 351.877 240.795 347.884 238.572C343.889 236.348 340.858 233.021 339.936 228.633C338.967 224.083 340.443 221.13 342.307 219.423C339.431 217.744 335.323 214.395 334.617 208.677C333.984 203.612 336.184 200.02 338.463 197.915C337.039 196.645 336.058 194.607 335.408 192.769C334.718 190.817 334.38 189.032 334.286 188.488C334.117 187.78 333.329 183.762 336.336 179.391ZM334.58 188.428C334.756 189.448 335.856 195.217 338.687 197.713C338.764 197.78 338.841 197.845 338.92 197.908C338.845 197.974 338.769 198.041 338.694 198.111C336.46 200.162 334.293 203.672 334.914 208.64C335.61 214.279 339.698 217.572 342.544 219.214C342.639 219.268 342.732 219.321 342.823 219.372C342.742 219.439 342.661 219.508 342.581 219.58C340.761 221.206 339.271 224.068 340.23 228.571C342.027 237.131 352.068 241.628 361.723 241.628C363.084 241.628 364.445 241.526 365.78 241.347C380.956 239.252 389.609 225.479 391.535 200.412C391.664 199.39 393.333 184.058 384.397 174.936C379.441 169.876 372.199 167.781 362.929 168.701C349.474 170.055 340.615 173.709 336.583 179.561C333.63 183.854 334.426 187.789 334.58 188.428ZM339.064 181.163L339.063 181.164C336.712 184.517 337.381 187.482 337.439 187.74C337.441 187.747 337.442 187.752 337.442 187.755L337.448 187.785V187.792L337.455 187.798L337.47 187.894C337.685 189.215 338.224 191.304 338.992 193.033C339.377 193.899 339.81 194.656 340.276 195.181C340.746 195.711 341.204 195.956 341.644 195.922C342.425 195.86 343.154 196.357 343.345 197.119C343.533 197.866 343.188 198.65 342.466 198.995C342.324 199.066 337.017 201.724 337.806 208.271C338.216 211.623 340.286 213.979 342.293 215.511C343.295 216.276 344.274 216.83 345.008 217.195C345.374 217.377 345.679 217.511 345.893 217.6C346.109 217.69 346.23 217.733 346.23 217.733C346.901 217.955 347.335 218.613 347.335 219.295C347.335 220.002 346.824 220.624 346.139 220.811C346.06 220.834 344.991 221.154 344.096 222.182C343.208 223.201 342.454 224.962 343.091 227.946L343.091 227.947C343.748 231.068 346.266 234.102 350.163 236.153C354.054 238.201 359.299 239.253 365.354 238.418L365.354 238.418C372.138 237.486 377.481 233.833 381.361 227.463C385.247 221.083 387.667 211.973 388.565 200.145V200.105C388.565 200.094 388.569 200.049 388.575 199.975C388.64 199.268 388.952 195.827 388.432 191.52C387.858 186.766 386.272 181.044 382.257 176.96L382.256 176.96C378.655 173.276 373.554 171.429 367.038 171.429C365.818 171.429 364.544 171.504 363.215 171.632C347.592 173.186 341.457 177.715 339.064 181.163ZM363.186 171.333C364.522 171.205 365.805 171.129 367.038 171.129C373.612 171.129 378.799 172.994 382.471 176.75C390.32 184.733 388.987 198.808 388.872 200.022C388.867 200.071 388.865 200.099 388.865 200.105V200.156C387.067 223.869 379.158 236.824 365.395 238.715C353.172 240.402 344.159 234.473 342.798 228.009C341.488 221.876 345.879 220.573 346.059 220.522C346.624 220.368 347.035 219.857 347.035 219.295C347.035 218.733 346.675 218.196 346.136 218.018C346.059 217.992 338.355 215.232 337.508 208.308C336.69 201.517 342.232 198.776 342.334 198.726L342.335 198.725C342.926 198.444 343.208 197.805 343.054 197.192C342.9 196.579 342.31 196.17 341.668 196.221C339.357 196.4 337.611 190.625 337.174 187.942C337.148 187.917 337.148 187.865 337.148 187.814C337.148 187.811 337.146 187.805 337.144 187.796C337.08 187.508 336.397 184.443 338.817 180.992C341.283 177.44 347.522 172.892 363.186 171.333Z" fill="black"/>
<path d="M340.392 197.813C340.512 198.382 340.967 198.811 341.497 198.939L341.433 199.003L341.796 199.003L341.796 198.977C341.796 198.977 341.796 198.977 341.796 198.977L341.796 199.003H341.796H341.796L341.796 199.003L341.797 199.003L341.799 199.003L341.806 199.003L341.829 199.002C341.849 199.002 341.876 199.001 341.907 198.999C341.965 198.996 342.047 198.989 342.112 198.974C354.71 196.267 360.733 196.218 360.798 196.218C361.597 196.218 362.283 195.565 362.283 194.739C362.283 193.944 361.629 193.26 360.824 193.26C360.556 193.26 354.485 193.261 341.508 196.074C340.712 196.244 340.192 197.011 340.392 197.813Z" fill="black" stroke="black" stroke-width="0.3"/>
<path d="M345.879 220.723H345.888L345.897 220.722L361.687 218.806C361.688 218.806 361.688 218.806 361.688 218.806C362.492 218.72 363.061 217.979 362.976 217.184C362.89 216.382 362.144 215.816 361.347 215.901L361.345 215.902L345.555 217.818C345.555 217.818 345.554 217.818 345.554 217.818C344.75 217.904 344.181 218.645 344.266 219.44L344.266 219.44L344.266 219.441C344.352 220.184 344.984 220.723 345.725 220.723H345.725H345.725H345.725H345.725H345.725H345.725H345.725H345.725H345.725H345.725H345.725H345.725H345.725H345.725H345.725H345.725H345.725H345.725H345.725H345.726H345.726H345.726H345.726H345.726H345.726H345.726H345.726H345.726H345.726H345.726H345.726H345.726H345.726H345.726H345.727H345.727H345.727H345.727H345.727H345.727H345.727H345.727H345.727H345.727H345.727H345.728H345.728H345.728H345.728H345.728H345.728H345.728H345.728H345.728H345.729H345.729H345.729H345.729H345.729H345.729H345.729H345.729H345.73H345.73H345.73H345.73H345.73H345.73H345.73H345.731H345.731H345.731H345.731H345.731H345.731H345.732H345.732H345.732H345.732H345.732H345.732H345.733H345.733H345.733H345.733H345.733H345.733H345.734H345.734H345.734H345.734H345.734H345.735H345.735H345.735H345.735H345.735H345.736H345.736H345.736H345.736H345.736H345.737H345.737H345.737H345.737H345.737H345.738H345.738H345.738H345.738H345.739H345.739H345.739H345.739H345.739H345.74H345.74H345.74H345.74H345.741H345.741H345.741H345.741H345.742H345.742H345.742H345.742H345.743H345.743H345.743H345.743H345.744H345.744H345.744H345.744H345.745H345.745H345.745H345.745H345.746H345.746H345.746H345.746H345.747H345.747H345.747H345.748H345.748H345.748H345.748H345.749H345.749H345.749H345.749H345.75H345.75H345.75H345.751H345.751H345.751H345.752H345.752H345.752H345.752H345.753H345.753H345.753H345.754H345.754H345.754H345.755H345.755H345.755H345.755H345.756H345.756H345.756H345.757H345.757H345.757H345.758H345.758H345.758H345.759H345.759H345.759H345.76H345.76H345.76H345.76H345.761H345.761H345.761H345.762H345.762H345.762H345.763H345.763H345.763H345.764H345.764H345.764H345.765H345.765H345.765H345.766H345.766H345.767H345.767H345.767H345.768H345.768H345.768H345.769H345.769H345.769H345.77H345.77H345.77H345.771H345.771H345.771H345.772H345.772H345.772H345.773H345.773H345.774H345.774H345.774H345.775H345.775H345.775H345.776H345.776H345.776H345.777H345.777H345.778H345.778H345.778H345.779H345.779H345.779H345.78H345.78H345.78H345.781H345.781H345.782H345.782H345.782H345.783H345.783H345.783H345.784H345.784H345.785H345.785H345.785H345.786H345.786H345.787H345.787H345.787H345.788H345.788H345.788H345.789H345.789H345.79H345.79H345.79H345.791H345.791H345.792H345.792H345.792H345.793H345.793H345.793H345.794H345.794H345.795H345.795H345.795H345.796H345.796H345.797H345.797H345.797H345.798H345.798H345.799H345.799H345.799H345.8H345.8H345.801H345.801H345.801H345.802H345.802H345.803H345.803H345.803H345.804H345.804H345.805H345.805H345.805H345.806H345.806H345.807H345.807H345.807H345.808H345.808H345.809H345.809H345.809H345.81H345.81H345.811H345.811H345.811H345.812H345.812H345.813H345.813H345.813H345.814H345.814H345.815H345.815H345.815H345.816H345.816H345.817H345.817H345.817H345.818H345.818H345.819H345.819H345.819H345.82H345.82H345.821H345.821H345.821H345.822H345.822H345.823H345.823H345.823H345.824H345.824H345.825H345.825H345.825H345.826H345.826H345.827H345.827H345.827H345.828H345.828H345.829H345.829H345.829H345.83H345.83H345.831H345.831H345.831H345.832H345.832H345.833H345.833H345.833H345.834H345.834H345.834H345.835H345.835H345.836H345.836H345.836H345.837H345.837H345.838H345.838H345.838H345.839H345.839H345.84H345.84H345.84H345.841H345.841H345.842H345.842H345.842H345.843H345.843H345.843H345.844H345.844H345.845H345.845H345.845H345.846H345.846H345.847H345.847H345.847H345.848H345.848H345.848H345.849H345.849H345.85H345.85H345.85H345.851H345.851H345.851H345.852H345.852H345.853H345.853H345.853H345.854H345.854H345.854H345.855H345.855H345.855H345.856H345.856H345.857H345.857H345.857H345.858H345.858H345.858H345.859H345.859H345.859H345.86H345.86H345.861H345.861H345.861H345.862H345.862H345.862H345.863H345.863H345.863H345.864H345.864H345.864H345.865H345.865H345.865H345.866H345.866H345.866H345.867H345.867H345.867H345.868H345.868H345.869H345.869H345.869H345.87H345.87H345.87H345.871H345.871H345.871H345.871H345.872H345.872H345.872H345.873H345.873H345.873H345.874H345.874H345.874H345.875H345.875H345.875H345.876H345.876H345.876H345.877H345.877H345.877H345.878H345.878H345.878H345.878H345.879H345.879Z" fill="black" stroke="black" stroke-width="0.3"/>
<path d="M248.336 224.14C248.603 224.194 248.846 224.243 249.061 224.286L258.421 200.419C230.263 198.886 213.564 195.811 203.843 193.069C198.894 191.673 195.737 190.359 193.789 189.368C192.88 188.906 192.232 188.513 191.787 188.214C191.678 188.261 191.559 188.313 191.431 188.37C190.719 188.684 189.723 189.144 188.59 189.727C186.306 190.903 183.551 192.533 181.454 194.415C179.288 196.36 178.204 198.227 178.39 199.889C178.57 201.506 180.056 203.731 185.143 206.145C195.388 211.007 211.628 215.602 225.407 218.994C232.275 220.686 238.498 222.069 243.003 223.03C245.255 223.511 247.077 223.885 248.336 224.14Z" fill="#FAC3C1" stroke="black" stroke-width="3"/>
<g clip-path="url(#clip1_4757_52665)">
<path d="M301.448 182.056C301.448 182.056 338.333 263.311 287.776 272.054H271.616C221.059 263.311 257.944 182.056 257.944 182.056H301.471H301.448Z" fill="#875A4D"/>
<path d="M287.913 273.614H271.342C260.409 271.709 252.557 266.363 248.015 257.712C242.172 246.582 241.83 230.313 247.034 209.385C250.868 193.942 256.46 181.528 256.529 181.413L256.94 180.495H302.452L302.863 181.413C302.909 181.528 308.524 193.942 312.358 209.385C317.563 230.313 317.22 246.582 311.377 257.712C306.835 266.363 298.983 271.709 288.05 273.591H287.913V273.614ZM271.753 270.493H287.639C297.5 268.749 304.552 263.976 308.615 256.266C320.758 233.135 303.343 190.431 300.444 183.639H258.971C256.05 190.431 238.634 233.158 250.8 256.266C254.863 263.976 261.916 268.772 271.776 270.493H271.753Z" fill="black"/>
<path d="M344.153 113.719C344.153 113.719 352.074 198.301 277.619 198.301H276.204C201.749 198.301 209.67 113.719 209.67 113.719C209.67 113.719 270.315 71.2212 344.131 113.719H344.153Z" fill="#FAC3C1"/>
<path d="M277.619 199.862H276.204C255.388 199.862 238.931 193.345 227.29 180.449C204.511 155.299 207.981 115.256 208.14 113.558C208.186 113.099 208.414 112.686 208.802 112.411C209.418 111.975 271.114 69.8444 344.93 112.342C345.363 112.595 345.66 113.054 345.706 113.558C345.865 115.256 349.335 155.299 326.556 180.449C314.892 193.322 298.435 199.862 277.642 199.862H277.619ZM211.176 114.591C210.811 120.167 209.396 156.056 229.596 178.361C240.643 190.545 256.324 196.718 276.204 196.718H277.619C297.5 196.718 313.18 190.545 324.227 178.361C344.359 156.148 343.012 120.442 342.647 114.66C274.766 76.063 217.658 110.415 211.176 114.591Z" fill="black"/>
<path d="M341.985 123.724C341.985 123.724 366.864 124.963 375.56 105.802C384.257 86.6413 373.894 72.047 373.894 72.047C373.894 72.047 367.252 55.3876 327.468 48.71C287.685 42.0554 275.314 4.53711 275.314 4.53711C275.314 4.53711 262.943 42.0554 223.136 48.7329C183.352 55.3876 176.733 72.047 176.733 72.047C176.733 72.047 166.371 86.6413 175.067 105.802C183.763 124.963 208.642 123.724 208.642 123.724C208.642 123.724 280.929 86.6413 341.985 123.724Z" fill="#F0534A"/>
<path d="M343.08 125.307C342.441 125.307 342.031 125.307 341.916 125.284C341.665 125.284 341.414 125.192 341.186 125.055C281.613 88.8675 210.08 124.734 209.35 125.101C209.144 125.193 208.939 125.261 208.711 125.261C207.661 125.307 182.69 126.34 173.652 106.422C165.047 87.4448 174.222 72.9423 175.364 71.2442C176.254 69.2478 184.471 53.5751 222.885 47.127C259.952 40.9543 272.803 6.94688 273.784 4.21619C273.83 4.00967 273.921 3.80314 274.035 3.61957C274.629 2.79348 275.975 2.79348 276.569 3.61957C276.683 3.7802 276.774 3.98672 276.82 4.17029C277.71 6.64857 290.56 40.9313 327.719 47.1729C366.156 53.621 374.35 69.2937 375.241 71.2901C376.382 72.9882 385.557 87.4907 376.952 106.468C368.918 124.183 348.262 125.33 343.058 125.33L343.08 125.307ZM342.419 122.164C345.5 122.232 366.544 121.865 374.122 105.16C382.362 87.0317 372.707 73.1029 372.616 72.9652C372.547 72.8735 372.479 72.7587 372.433 72.644C372.365 72.5063 365.403 56.6729 327.194 50.2707C294.395 44.7634 279.673 18.4433 275.291 8.69084C270.908 18.4662 256.186 44.7864 223.387 50.2707C185.201 56.6729 178.239 72.4834 178.171 72.644C178.125 72.7587 178.057 72.8735 177.988 72.9652C177.578 73.5389 168.265 87.1006 176.482 105.16C184.128 122.003 205.447 122.232 208.254 122.164C213.618 119.525 283.508 86.6875 342.419 122.164Z" fill="black"/>
<path d="M297.5 157.479C305.996 157.479 312.884 148.715 312.884 137.905C312.884 127.095 305.996 118.331 297.5 118.331C289.003 118.331 282.116 127.095 282.116 137.905C282.116 148.715 289.003 157.479 297.5 157.479Z" fill="white"/>
<path d="M297.5 159.039C288.164 159.039 280.564 149.562 280.564 137.905C280.564 126.248 288.164 116.771 297.5 116.771C306.835 116.771 314.436 126.248 314.436 137.905C314.436 149.562 306.835 159.039 297.5 159.039ZM297.5 119.914C289.876 119.914 283.691 127.992 283.691 137.905C283.691 147.818 289.899 155.895 297.5 155.895C305.1 155.895 311.309 147.818 311.309 137.905C311.309 127.992 305.1 119.914 297.5 119.914Z" fill="black"/>
<path d="M303.082 137.965C303.504 128.33 299.272 120.317 293.63 120.067C287.988 119.818 283.073 127.426 282.651 137.061C282.229 146.696 286.461 154.709 292.103 154.959C297.745 155.208 302.66 147.6 303.082 137.965Z" fill="black"/>
<path d="M257.305 157.479C265.801 157.479 272.689 148.715 272.689 137.905C272.689 127.095 265.801 118.331 257.305 118.331C248.809 118.331 241.921 127.095 241.921 137.905C241.921 148.715 248.809 157.479 257.305 157.479Z" fill="white"/>
<path d="M257.305 159.039C247.97 159.039 240.369 149.562 240.369 137.905C240.369 126.248 247.97 116.771 257.305 116.771C266.64 116.771 274.241 126.248 274.241 137.905C274.241 149.562 266.64 159.039 257.305 159.039ZM257.305 119.914C249.682 119.914 243.496 127.992 243.496 137.905C243.496 147.818 249.704 155.895 257.305 155.895C264.906 155.895 271.114 147.818 271.114 137.905C271.114 127.992 264.906 119.914 257.305 119.914Z" fill="black"/>
<path d="M262.878 137.972C263.3 128.337 259.068 120.324 253.426 120.074C247.784 119.825 242.868 127.433 242.446 137.068C242.025 146.703 246.256 154.716 251.898 154.966C257.54 155.215 262.456 147.607 262.878 137.972Z" fill="black"/>
<path d="M277.117 163.812C279.978 163.812 282.298 162.374 282.298 160.599C282.298 158.825 279.978 157.387 277.117 157.387C274.255 157.387 271.936 158.825 271.936 160.599C271.936 162.374 274.255 163.812 277.117 163.812Z" fill="black"/>
<path d="M277.117 164.592C273.785 164.592 271.16 162.825 271.16 160.599C271.16 158.373 273.785 156.606 277.117 156.606C280.449 156.606 283.074 158.373 283.074 160.599C283.074 162.825 280.449 164.592 277.117 164.592ZM277.117 158.167C274.766 158.167 272.712 159.314 272.712 160.599C272.712 161.884 274.766 163.032 277.117 163.032C279.468 163.032 281.522 161.884 281.522 160.599C281.522 159.314 279.468 158.167 277.117 158.167Z" fill="black"/>
<path d="M276.729 173.862C271.548 173.862 265.499 172.761 259.04 169.503C258.264 169.112 257.967 168.172 258.355 167.391C258.743 166.611 259.679 166.313 260.455 166.703C277.916 175.538 292.41 166.864 292.547 166.772C293.277 166.313 294.236 166.542 294.692 167.277C295.149 168.011 294.92 168.975 294.19 169.434C293.756 169.709 286.886 173.862 276.752 173.862H276.729Z" fill="black"/>
<path d="M343.697 125.307C343.058 125.307 342.647 125.307 342.533 125.284C342.282 125.284 342.031 125.192 341.803 125.055C282.23 88.8675 210.697 124.734 209.966 125.101C209.761 125.193 209.555 125.261 209.327 125.261C208.277 125.307 183.307 126.34 174.268 106.422C165.663 87.4448 174.839 72.9423 175.98 71.2442C176.87 69.2478 185.087 53.5751 223.501 47.127C260.592 40.9543 273.442 6.94688 274.424 4.21619C274.469 4.00967 274.561 3.80314 274.675 3.61957C275.268 2.79348 276.615 2.79348 277.208 3.61957C277.322 3.7802 277.414 3.98672 277.459 4.17029C278.35 6.64857 291.2 40.9313 328.359 47.1729C366.796 53.621 374.99 69.2937 375.88 71.2901C377.021 72.9882 386.197 87.4907 377.592 106.468C369.558 124.183 348.901 125.33 343.697 125.33V125.307ZM343.058 122.164C346.139 122.232 367.184 121.865 374.762 105.16C383.001 87.0317 373.346 73.1029 373.255 72.9652C373.187 72.8735 373.118 72.7587 373.073 72.644C373.004 72.5063 366.043 56.6729 327.834 50.2707C295.034 44.7634 280.312 18.4433 275.93 8.69084C271.548 18.4662 256.826 44.7864 224.026 50.2707C185.84 56.6729 178.879 72.4834 178.81 72.644C178.765 72.7587 178.696 72.8735 178.628 72.9652C178.217 73.5389 168.904 87.1006 177.121 105.16C184.768 122.003 206.063 122.232 208.894 122.164C214.257 119.525 284.147 86.6875 343.058 122.164Z" fill="black"/>
<mask id="mask0_4757_52665" style="mask-type:luminance" maskUnits="userSpaceOnUse" x="171" y="4" width="209" height="120">
<path d="M342.327 123.724C342.327 123.724 367.207 124.963 375.903 105.802C384.599 86.6413 374.237 72.047 374.237 72.047C374.237 72.047 367.595 55.3876 327.811 48.71C288.05 42.0554 275.656 4.53711 275.656 4.53711C275.656 4.53711 263.285 42.0554 223.479 48.7329C183.718 55.3876 177.076 72.047 177.076 72.047C177.076 72.047 166.713 86.6413 175.409 105.802C184.106 124.963 208.985 123.724 208.985 123.724C208.985 123.724 281.271 86.6413 342.327 123.724Z" fill="white"/>
</mask>
<g mask="url(#mask0_4757_52665)">
<path d="M194.833 89.6475C200.216 89.6475 204.58 85.2606 204.58 79.8491C204.58 74.4377 200.216 70.0508 194.833 70.0508C189.451 70.0508 185.087 74.4377 185.087 79.8491C185.087 85.2606 189.451 89.6475 194.833 89.6475Z" fill="black"/>
<path d="M187.393 122.095C192.775 122.095 197.139 117.708 197.139 112.296C197.139 106.885 192.775 102.498 187.393 102.498C182.01 102.498 177.646 106.885 177.646 112.296C177.646 117.708 182.01 122.095 187.393 122.095Z" fill="black"/>
<path d="M216.928 106.927C222.311 106.927 226.674 102.54 226.674 97.1284C226.674 91.7169 222.311 87.3301 216.928 87.3301C211.545 87.3301 207.182 91.7169 207.182 97.1284C207.182 102.54 211.545 106.927 216.928 106.927Z" fill="black"/>
<path d="M247.102 89.6475C252.485 89.6475 256.848 85.2606 256.848 79.8491C256.848 74.4377 252.485 70.0508 247.102 70.0508C241.72 70.0508 237.356 74.4377 237.356 79.8491C237.356 85.2606 241.72 89.6475 247.102 89.6475Z" fill="black"/>
<path d="M260.455 61.7666C265.838 61.7666 270.201 57.3797 270.201 51.9683C270.201 46.5568 265.838 42.1699 260.455 42.1699C255.072 42.1699 250.709 46.5568 250.709 51.9683C250.709 57.3797 255.072 61.7666 260.455 61.7666Z" fill="black"/>
<path d="M275.542 100.226C280.925 100.226 285.288 95.8387 285.288 90.4272C285.288 85.0158 280.925 80.6289 275.542 80.6289C270.159 80.6289 265.796 85.0158 265.796 90.4272C265.796 95.8387 270.159 100.226 275.542 100.226Z" fill="black"/>
<path d="M312.267 105.871C317.65 105.871 322.013 101.484 322.013 96.0728C322.013 90.6613 317.65 86.2744 312.267 86.2744C306.885 86.2744 302.521 90.6613 302.521 96.0728C302.521 101.484 306.885 105.871 312.267 105.871Z" fill="black"/>
<path d="M292.387 74.457C297.77 74.457 302.133 70.0702 302.133 64.6587C302.133 59.2472 297.77 54.8604 292.387 54.8604C287.004 54.8604 282.641 59.2472 282.641 64.6587C282.641 70.0702 287.004 74.457 292.387 74.457Z" fill="black"/>
<path d="M290.287 44.832C295.67 44.832 300.033 40.4452 300.033 35.0337C300.033 29.6222 295.67 25.2354 290.287 25.2354C284.904 25.2354 280.541 29.6222 280.541 35.0337C280.541 40.4452 284.904 44.832 290.287 44.832Z" fill="black"/>
<path d="M326.419 78.7022C331.801 78.7022 336.165 74.3153 336.165 68.9038C336.165 63.4923 331.801 59.1055 326.419 59.1055C321.036 59.1055 316.672 63.4923 316.672 68.9038C316.672 74.3153 321.036 78.7022 326.419 78.7022Z" fill="black"/>
<path d="M358.236 75.8789C363.619 75.8789 367.983 71.4921 367.983 66.0806C367.983 60.6691 363.619 56.2822 358.236 56.2822C352.854 56.2822 348.49 60.6691 348.49 66.0806C348.49 71.4921 352.854 75.8789 358.236 75.8789Z" fill="black"/>
<path d="M344.542 101.97C349.924 101.97 354.288 97.5829 354.288 92.1714C354.288 86.7599 349.924 82.373 344.542 82.373C339.159 82.373 334.795 86.7599 334.795 92.1714C334.795 97.5829 339.159 101.97 344.542 101.97Z" fill="black"/>
<path d="M378.254 100.914C383.637 100.914 388 96.5272 388 91.1157C388 85.7043 383.637 81.3174 378.254 81.3174C372.871 81.3174 368.508 85.7043 368.508 91.1157C368.508 96.5272 372.871 100.914 378.254 100.914Z" fill="black"/>
<path d="M362.094 126.684C367.477 126.684 371.84 122.297 371.84 116.885C371.84 111.474 367.477 107.087 362.094 107.087C356.711 107.087 352.348 111.474 352.348 116.885C352.348 122.297 356.711 126.684 362.094 126.684Z" fill="black"/>
<path d="M222.2 69.1787C227.583 69.1787 231.947 64.7919 231.947 59.3804C231.947 53.9689 227.583 49.582 222.2 49.582C216.818 49.582 212.454 53.9689 212.454 59.3804C212.454 64.7919 216.818 69.1787 222.2 69.1787Z" fill="black"/>
</g>
</g>
</g>
<defs>
<clipPath id="clip0_4757_52665">
<rect width="424" height="250" fill="white"/>
</clipPath>
<clipPath id="clip1_4757_52665">
<rect width="218" height="311" fill="white" transform="translate(170 3)"/>
</clipPath>
</defs>
</svg>
