<svg width="344" height="270" viewBox="0 0 344 270" fill="none" xmlns="http://www.w3.org/2000/svg">
<g clip-path="url(#clip0_4757_52419)">
<g clip-path="url(#clip1_4757_52419)">
<path d="M193.978 214.257L194.262 212.624L192.609 212.504L82.6088 204.504L79.7772 204.298L81.2028 206.753L90.2028 222.253L90.5603 222.869L91.2633 222.981L188.263 238.481L189.724 238.715L189.978 237.257L193.978 214.257Z" fill="#FAC3C1" stroke="black" stroke-width="3"/>
<path d="M197.178 325C191.537 324.794 187.341 323.169 184.613 320.216C181.563 316.92 181.448 313.074 181.448 312.319C181.173 309.297 181.93 306.848 183.696 305.086C185.92 302.842 189.199 302.293 191.171 302.179V268.828L213.206 271.209V315.066C212.908 324.496 197.82 325 197.178 325.023V325ZM192.042 305.269C190.758 305.269 187.708 305.475 185.92 307.26C184.819 308.382 184.383 309.961 184.567 312.09V312.204V312.319C184.567 312.685 184.429 321.383 197.178 321.887C197.201 321.887 209.858 321.337 210.065 315.02V274.024L194.289 272.33V305.475L192.592 305.337C192.592 305.337 192.363 305.337 192.019 305.337L192.042 305.269Z" fill="black"/>
<path d="M230.77 325C225.129 324.794 220.933 323.169 218.204 320.216C215.155 316.92 215.04 313.074 215.04 312.319C214.765 309.297 215.522 306.848 217.287 305.086C219.511 302.842 222.79 302.293 224.762 302.179V268.828L246.798 271.209V315.066C246.5 324.496 231.412 325 230.747 325.023L230.77 325ZM225.634 305.269C224.35 305.269 221.3 305.475 219.511 307.26C218.411 308.382 217.975 309.961 218.159 312.09V312.204V312.319C218.159 312.685 218.021 321.383 230.77 321.887C230.793 321.887 243.45 321.337 243.656 315.02V274.024L227.881 272.33V305.475L226.184 305.337C226.184 305.337 225.955 305.337 225.611 305.337L225.634 305.269Z" fill="black"/>
<path d="M241.249 193.955C241.249 193.955 277.386 275.352 226.528 283.523L210.294 283.34C159.62 274.07 197.545 193.475 197.545 193.475L241.226 193.955H241.249Z" fill="#875A4D"/>
<path d="M226.643 285.08L210.019 284.874C199.058 282.86 191.239 277.458 186.768 268.782C181.013 257.612 180.852 241.406 186.31 220.599C190.322 205.24 196.078 192.926 196.146 192.811L196.582 191.896L242.281 192.399L242.693 193.315C242.739 193.429 248.242 205.881 251.911 221.309C256.91 242.23 256.382 258.436 250.398 269.469C245.743 278.03 237.809 283.272 226.803 285.057H226.666L226.643 285.08ZM210.454 281.784L226.413 281.967C236.342 280.342 243.473 275.649 247.623 268.004C260.074 245.092 243.06 202.31 240.194 195.512L198.554 195.054C195.55 201.784 177.619 244.199 189.543 267.363C193.532 275.1 200.549 279.953 210.431 281.784H210.454Z" fill="black"/>
<path d="M284.838 126.316C284.838 126.316 291.877 210.711 217.127 209.91H215.705C140.978 209.086 149.829 124.851 149.829 124.851C149.829 124.851 211.165 83.146 284.815 126.316H284.838Z" fill="#FAC3C1"/>
<path d="M218.205 211.467C217.838 211.467 217.494 211.467 217.127 211.467H215.705C194.816 211.215 178.376 204.531 166.797 191.575C144.211 166.259 148.109 126.362 148.292 124.691C148.338 124.233 148.59 123.821 148.957 123.57C149.576 123.158 211.968 81.8185 285.617 124.989C286.053 125.241 286.351 125.698 286.374 126.202C286.512 127.896 289.561 167.861 266.425 192.674C254.777 205.149 238.566 211.489 218.182 211.489L218.205 211.467ZM151.342 125.744C150.929 131.306 149.095 167.06 169.135 189.515C180.096 201.784 195.757 208.125 215.728 208.331H217.15C237.144 208.582 252.92 202.585 264.132 190.545C284.586 168.617 283.622 133.023 283.324 127.255C215.613 88.0446 157.877 121.67 151.342 125.744Z" fill="black"/>
<path d="M212.247 159.038C212.366 148.268 205.553 139.461 197.031 139.368C188.509 139.274 181.504 147.929 181.386 158.699C181.267 169.469 188.079 178.276 196.602 178.37C205.124 178.463 212.128 169.808 212.247 159.038Z" fill="white"/>
<path d="M196.742 179.901C196.742 179.901 196.651 179.901 196.582 179.901C187.204 179.81 179.683 170.264 179.82 158.659C179.889 153.097 181.655 147.878 184.842 143.964C188.098 139.935 192.455 137.715 197.063 137.784C206.442 137.875 213.963 147.42 213.848 159.026C213.779 164.588 212.014 169.807 208.826 173.721C205.593 177.704 201.328 179.901 196.765 179.901H196.742ZM196.903 140.897C193.303 140.897 189.887 142.682 187.273 145.91C184.544 149.297 183.008 153.83 182.939 158.682C182.824 168.571 188.969 176.697 196.605 176.765C200.205 176.834 203.713 175.026 206.35 171.752C209.079 168.365 210.615 163.832 210.684 158.98C210.798 149.091 204.653 140.965 196.995 140.897C196.949 140.897 196.926 140.897 196.88 140.897H196.903Z" fill="black"/>
<path d="M252.611 159.457C252.73 148.687 245.917 139.88 237.395 139.787C228.873 139.693 221.868 148.348 221.75 159.118C221.631 169.888 228.444 178.695 236.966 178.789C245.488 178.882 252.492 170.227 252.611 159.457Z" fill="white"/>
<path d="M237.098 180.336C237.098 180.336 237.007 180.336 236.938 180.336C227.56 180.244 220.039 170.699 220.176 159.094C220.314 147.535 227.95 138.219 237.259 138.219C237.305 138.219 237.351 138.219 237.419 138.219C246.798 138.31 254.319 147.855 254.181 159.461C254.043 171.02 246.408 180.336 237.098 180.336ZM237.236 141.332C229.646 141.332 223.387 149.275 223.295 159.117C223.18 169.006 229.325 177.131 236.961 177.2C237.007 177.2 237.03 177.2 237.076 177.2C244.665 177.2 250.925 169.257 251.017 159.415C251.131 149.526 244.986 141.4 237.351 141.332C237.305 141.332 237.282 141.332 237.236 141.332Z" fill="black"/>
<path d="M222.26 178.623C222.279 176.853 219.965 175.393 217.09 175.361C214.216 175.33 211.87 176.739 211.85 178.509C211.831 180.278 214.145 181.738 217.02 181.77C219.894 181.802 222.24 180.392 222.26 178.623Z" fill="black"/>
<path d="M217.104 182.534C217.104 182.534 217.035 182.534 216.989 182.534C215.453 182.534 214.008 182.122 212.908 181.435C211.693 180.68 211.028 179.627 211.051 178.483C211.051 177.338 211.738 176.308 212.977 175.576C214.077 174.912 215.499 174.568 217.081 174.568C220.429 174.614 223.043 176.377 223.02 178.62C222.997 180.84 220.406 182.534 217.104 182.534ZM216.989 176.125C215.774 176.125 214.65 176.4 213.802 176.903C213.366 177.155 212.633 177.727 212.633 178.483C212.633 179.261 213.343 179.833 213.756 180.108C214.605 180.657 215.774 180.955 217.012 180.955C217.035 180.955 217.058 180.955 217.081 180.955C219.397 180.955 221.438 179.856 221.438 178.574C221.438 177.292 219.397 176.125 217.058 176.102C217.035 176.102 217.012 176.102 216.966 176.102L216.989 176.125Z" fill="black"/>
<path d="M234.347 191.919C234.072 191.919 233.774 191.85 233.521 191.69C233.384 191.598 218.938 182.786 201.305 191.392C200.526 191.759 199.586 191.461 199.219 190.683C198.829 189.904 199.15 188.966 199.93 188.6C219.19 179.192 234.553 188.646 235.195 189.058C235.929 189.515 236.135 190.477 235.677 191.209C235.379 191.69 234.874 191.942 234.347 191.942V191.919Z" fill="black"/>
<path d="M177.55 140.234C176.702 140.234 175.991 139.547 175.991 138.7C175.991 137.83 176.679 137.121 177.528 137.121C177.688 137.121 194.151 136.732 202.452 127.255C203.025 126.614 204.011 126.546 204.653 127.095C205.295 127.667 205.364 128.651 204.814 129.292C195.596 139.845 178.307 140.234 177.596 140.234H177.55Z" fill="black"/>
<path d="M256.543 140.233H256.52C255.786 140.233 238.52 139.844 229.302 129.292C228.729 128.651 228.798 127.644 229.463 127.094C230.105 126.522 231.091 126.591 231.664 127.255C239.965 136.777 256.405 137.12 256.589 137.12C257.46 137.12 258.148 137.853 258.125 138.7C258.125 139.546 257.414 140.233 256.566 140.233H256.543Z" fill="black"/>
<path d="M248.586 217.166C248.586 217.166 231.825 218.929 231.664 204.829C231.527 191.553 229.027 191.713 229.027 191.713C229.027 191.713 224.281 190.088 224.969 198.946C224.969 198.946 225.496 191.278 221.69 191.621C217.884 191.965 219.213 199.495 219.213 199.495C219.213 199.495 219.122 191.392 215.247 192.422C211.372 193.452 212.426 201.533 212.426 201.533C212.426 201.533 212.954 239.186 252.278 236.142" fill="#FAC3C1"/>
<path d="M247.852 237.881C237.58 237.881 229.211 234.974 222.882 229.206C211.555 218.883 210.89 203.135 210.867 201.647C210.707 200.342 209.927 192.239 214.857 190.911C216.049 190.591 217.173 190.797 218.09 191.506C218.25 191.621 218.388 191.758 218.526 191.896C218.594 191.804 218.663 191.712 218.732 191.621C219.42 190.705 220.406 190.179 221.552 190.064C222.722 189.95 223.753 190.316 224.579 191.117C224.716 191.255 224.831 191.369 224.946 191.529C225.152 191.3 225.359 191.094 225.588 190.911C227.101 189.744 228.752 190.019 229.325 190.179C229.669 190.225 230.082 190.385 230.541 190.797C232.26 192.376 233.132 196.954 233.223 204.805C233.269 208.079 234.301 210.642 236.319 212.451C240.698 216.365 248.357 215.609 248.426 215.609C249.274 215.518 250.054 216.136 250.145 217.006C250.237 217.853 249.618 218.631 248.747 218.722C248.38 218.768 239.667 219.615 234.232 214.785C231.527 212.382 230.128 209.04 230.082 204.828C229.99 195.81 228.798 193.612 228.477 193.177C228.362 193.155 227.858 193.063 227.468 193.383C227.17 193.612 226.62 194.322 226.482 196.313C226.597 197.595 226.551 198.648 226.528 199.06C226.482 199.884 225.794 200.502 224.969 200.525C224.143 200.525 223.478 199.907 223.41 199.083C223.341 198.145 223.318 197.298 223.364 196.496C223.226 195.192 222.928 193.887 222.378 193.361C222.24 193.223 222.103 193.155 221.827 193.177C221.552 193.2 221.392 193.292 221.208 193.521C220.704 194.162 220.543 195.489 220.543 196.817C220.727 198.053 220.773 199.106 220.773 199.495C220.773 200.296 220.154 200.983 219.351 201.074C218.548 201.143 217.815 200.594 217.677 199.793C217.631 199.541 217.448 198.488 217.425 197.16C217.196 195.787 216.783 194.482 216.187 194.024C216.095 193.956 215.98 193.864 215.636 193.956C213.733 194.459 213.687 199.243 213.963 201.349C213.963 201.418 213.963 201.464 213.963 201.532C213.963 201.692 214.329 217.258 224.992 226.94C231.549 232.914 240.698 235.501 252.14 234.608C252.989 234.539 253.745 235.18 253.814 236.05C253.883 236.92 253.241 237.652 252.37 237.721C250.81 237.836 249.297 237.904 247.807 237.904L247.852 237.881Z" fill="black"/>
<path d="M193.195 175.898C198.852 175.712 203.181 167.766 202.863 158.151C202.545 148.536 197.701 140.892 192.044 141.079C186.386 141.265 182.057 149.211 182.375 158.826C182.693 168.441 187.537 176.084 193.195 175.898Z" fill="black"/>
<path d="M232.658 175.903C238.315 175.716 242.644 167.771 242.326 158.156C242.008 148.541 237.164 140.897 231.507 141.083C225.849 141.27 221.521 149.215 221.838 158.831C222.156 168.446 227 176.089 232.658 175.903Z" fill="black"/>
<path d="M251.842 242.322C251.636 225.475 244.275 205.996 244.207 205.813L247.142 204.691C247.463 205.515 254.777 224.88 254.983 242.277L251.865 242.322H251.842Z" fill="black"/>
<path d="M282.774 125.423C282.774 125.423 307.767 126.659 316.504 107.546C325.24 88.4331 314.83 73.8751 314.83 73.8751C314.83 73.8751 308.157 57.2571 268.191 50.5961C228.225 43.9581 215.797 6.5332 215.797 6.5332C215.797 6.5332 203.369 43.9581 163.38 50.619C123.414 57.2571 116.764 73.8751 116.764 73.8751C116.764 73.8751 106.354 88.4331 115.09 107.546C123.827 126.659 148.82 125.423 148.82 125.423C148.82 125.423 221.438 88.4331 282.774 125.423Z" fill="#F0534A"/>
<path d="M283.875 127.003C283.233 127.003 282.82 127.003 282.705 126.98C282.453 126.98 282.201 126.889 281.971 126.751C222.125 90.6542 150.264 126.431 149.53 126.797C149.324 126.889 149.118 126.958 148.888 126.958C147.834 127.003 122.749 128.033 113.669 108.165C105.024 89.235 114.242 74.7687 115.388 73.0748C116.283 71.0834 124.537 55.4496 163.128 49.0176C200.319 42.8602 213.297 8.86881 214.261 6.1907C214.306 5.98469 214.398 5.77868 214.513 5.59556C215.109 4.77153 216.462 4.77153 217.058 5.59556C217.173 5.75579 217.264 5.9618 217.31 6.14492C218.181 8.57124 231.091 42.8144 268.443 49.0405C307.056 55.4725 315.288 71.1063 316.182 73.0977C317.329 74.7916 326.546 89.2579 317.902 108.188C309.831 125.859 289.08 127.003 283.852 127.003H283.875ZM215.797 10.6542C211.394 20.3824 196.605 46.6599 163.655 52.1306C125.271 58.5398 118.277 74.3109 118.209 74.4711C118.163 74.5856 118.094 74.7 118.025 74.7916C117.613 75.3638 108.257 88.8917 116.512 106.906C124.216 123.73 145.61 123.936 148.43 123.867C153.818 121.258 224.029 88.4568 283.21 123.867C286.305 123.913 307.446 123.57 315.059 106.906C323.336 88.823 313.637 74.9289 313.545 74.7916C313.477 74.7 313.408 74.5856 313.362 74.4711C313.293 74.3338 306.3 58.5398 267.916 52.1535C234.966 46.6828 220.176 20.4053 215.774 10.6771L215.797 10.6542Z" fill="black"/>
<path d="M284.494 127.003C283.852 127.003 283.439 127.003 283.324 126.98C283.072 126.98 282.82 126.889 282.591 126.751C222.745 90.6542 150.883 126.431 150.15 126.797C149.943 126.889 149.737 126.958 149.508 126.958C148.453 127.003 123.368 128.033 114.288 108.165C105.643 89.235 114.861 74.7687 116.008 73.0748C116.902 71.0834 125.157 55.4496 163.747 49.0176C201.03 42.8602 213.94 8.8917 214.903 6.1907C214.949 5.98469 215.04 5.77868 215.155 5.59556C215.751 4.77153 217.104 4.77153 217.7 5.59556C217.815 5.75579 217.906 5.9618 217.952 6.14492C218.824 8.57124 231.733 42.8144 269.085 49.0405C307.699 55.4725 315.93 71.1063 316.824 73.0977C317.971 74.7916 327.189 89.2579 318.544 108.188C310.473 125.859 289.722 127.003 284.494 127.003ZM216.439 10.6542C212.037 20.3824 197.247 46.6599 164.297 52.1306C125.638 58.5627 118.92 74.288 118.851 74.4482C118.805 74.5627 118.736 74.6771 118.667 74.7687C118.255 75.3409 108.899 88.8688 117.154 106.883C124.858 123.707 146.252 123.913 149.072 123.844C154.46 121.235 224.671 88.4339 283.852 123.844C286.97 123.89 308.088 123.547 315.701 106.883C323.933 88.8688 314.577 75.3409 314.188 74.7687C314.119 74.6771 314.05 74.5627 314.004 74.4482C313.935 74.3109 306.942 58.5169 268.558 52.1306C235.608 46.6599 220.819 20.3824 216.416 10.6542H216.439Z" fill="black"/>
<mask id="mask0_4757_52419" style="mask-type:luminance" maskUnits="userSpaceOnUse" x="111" y="6" width="210" height="120">
<path d="M283.118 125.424C283.118 125.424 308.111 126.66 316.847 107.547C325.584 88.434 315.174 73.8761 315.174 73.8761C315.174 73.8761 308.501 57.2581 268.535 50.5971C228.592 43.9591 216.141 6.53418 216.141 6.53418C216.141 6.53418 203.713 43.9591 163.724 50.62C123.781 57.2581 117.108 73.8761 117.108 73.8761C117.108 73.8761 106.698 88.434 115.434 107.547C124.17 126.66 149.164 125.424 149.164 125.424C149.164 125.424 221.782 88.434 283.118 125.424Z" fill="white"/>
</mask>
<g mask="url(#mask0_4757_52419)">
<path d="M134.947 91.4327C140.355 91.4327 144.738 87.0567 144.738 81.6587C144.738 76.2607 140.355 71.8848 134.947 71.8848C129.54 71.8848 125.156 76.2607 125.156 81.6587C125.156 87.0567 129.54 91.4327 134.947 91.4327Z" fill="black"/>
<path d="M127.472 123.799C132.88 123.799 137.263 119.423 137.263 114.025C137.263 108.627 132.88 104.251 127.472 104.251C122.065 104.251 117.681 108.627 117.681 114.025C117.681 119.423 122.065 123.799 127.472 123.799Z" fill="black"/>
<path d="M157.143 108.668C162.55 108.668 166.934 104.292 166.934 98.8941C166.934 93.4961 162.55 89.1201 157.143 89.1201C151.736 89.1201 147.352 93.4961 147.352 98.8941C147.352 104.292 151.736 108.668 157.143 108.668Z" fill="black"/>
<path d="M187.456 91.4327C192.863 91.4327 197.247 87.0567 197.247 81.6587C197.247 76.2607 192.863 71.8848 187.456 71.8848C182.049 71.8848 177.665 76.2607 177.665 81.6587C177.665 87.0567 182.049 91.4327 187.456 91.4327Z" fill="black"/>
<path d="M200.87 63.6212C206.277 63.6212 210.661 59.2452 210.661 53.8472C210.661 48.4492 206.277 44.0732 200.87 44.0732C195.462 44.0732 191.079 48.4492 191.079 53.8472C191.079 59.2452 195.462 63.6212 200.87 63.6212Z" fill="black"/>
<path d="M216.026 101.984C221.434 101.984 225.817 97.6085 225.817 92.2105C225.817 86.8125 221.434 82.4365 216.026 82.4365C210.619 82.4365 206.235 86.8125 206.235 92.2105C206.235 97.6085 210.619 101.984 216.026 101.984Z" fill="black"/>
<path d="M252.92 107.593C258.327 107.593 262.711 103.217 262.711 97.8189C262.711 92.4209 258.327 88.0449 252.92 88.0449C247.512 88.0449 243.129 92.4209 243.129 97.8189C243.129 103.217 247.512 107.593 252.92 107.593Z" fill="black"/>
<path d="M232.948 76.2794C238.356 76.2794 242.739 71.9034 242.739 66.5054C242.739 61.1074 238.356 56.7314 232.948 56.7314C227.541 56.7314 223.157 61.1074 223.157 66.5054C223.157 71.9034 227.541 76.2794 232.948 76.2794Z" fill="black"/>
<path d="M230.839 46.7286C236.246 46.7286 240.63 42.3526 240.63 36.9546C240.63 31.5566 236.246 27.1807 230.839 27.1807C225.431 27.1807 221.048 31.5566 221.048 36.9546C221.048 42.3526 225.431 46.7286 230.839 46.7286Z" fill="black"/>
<path d="M267.136 80.5137C272.543 80.5137 276.927 76.1378 276.927 70.7398C276.927 65.3418 272.543 60.9658 267.136 60.9658C261.729 60.9658 257.345 65.3418 257.345 70.7398C257.345 76.1378 261.729 80.5137 267.136 80.5137Z" fill="black"/>
<path d="M299.1 77.6983C304.507 77.6983 308.891 73.3224 308.891 67.9244C308.891 62.5263 304.507 58.1504 299.1 58.1504C293.693 58.1504 289.309 62.5263 289.309 67.9244C289.309 73.3224 293.693 77.6983 299.1 77.6983Z" fill="black"/>
<path d="M285.342 103.725C290.75 103.725 295.133 99.3487 295.133 93.9507C295.133 88.5527 290.75 84.1768 285.342 84.1768C279.935 84.1768 275.551 88.5527 275.551 93.9507C275.551 99.3487 279.935 103.725 285.342 103.725Z" fill="black"/>
<path d="M319.209 102.671C324.616 102.671 329 98.295 329 92.897C329 87.499 324.616 83.123 319.209 83.123C313.802 83.123 309.418 87.499 309.418 92.897C309.418 98.295 313.802 102.671 319.209 102.671Z" fill="black"/>
<path d="M302.975 128.377C308.382 128.377 312.766 124.001 312.766 118.603C312.766 113.205 308.382 108.829 302.975 108.829C297.568 108.829 293.184 113.205 293.184 118.603C293.184 124.001 297.568 128.377 302.975 128.377Z" fill="black"/>
<path d="M162.44 71.0147C167.847 71.0147 172.231 66.6388 172.231 61.2408C172.231 55.8428 167.847 51.4668 162.44 51.4668C157.032 51.4668 152.649 55.8428 152.649 61.2408C152.649 66.6388 157.032 71.0147 162.44 71.0147Z" fill="black"/>
</g>
</g>
<path d="M109.361 120.389H100.485V394.822H109.361V120.389Z" fill="#8A6456"/>
<path d="M110.626 396.06H99.2202V119.15H110.626V396.084V396.06ZM101.725 393.559H108.097V121.651H101.725V393.559Z" fill="black"/>
<path d="M104.254 170.502C151.143 170.502 189.153 132.554 189.153 85.7417C189.153 38.9299 151.143 0.981445 104.254 0.981445C57.366 0.981445 19.3555 38.9299 19.3555 85.7417C19.3555 132.554 57.366 170.502 104.254 170.502Z" fill="#F05144"/>
<path d="M104.254 171.74C56.7343 171.74 18.0908 133.16 18.0908 85.7416C18.0908 38.3234 56.7343 -0.28125 104.254 -0.28125C151.774 -0.28125 190.418 38.2991 190.418 85.7416C190.418 133.184 151.774 171.764 104.254 171.764V171.74ZM104.254 2.21956C58.1205 2.21956 20.5957 39.6831 20.5957 85.7416C20.5957 131.8 58.1205 169.239 104.23 169.239C150.339 169.239 187.864 131.776 187.864 85.7416C187.864 39.7074 150.364 2.21956 104.254 2.21956Z" fill="black"/>
<path d="M145.943 127.941C148.688 125.217 148.683 120.776 145.944 118.038L71.9611 44.0584C71.9605 44.0579 71.96 44.0574 71.9595 44.0569C69.2362 41.3127 64.7959 41.317 62.0571 44.054C59.3122 46.7777 59.3169 51.219 62.0556 53.9576L62.0557 53.9577L136.042 127.92C136.042 127.92 136.042 127.92 136.042 127.92C137.361 129.239 139.058 129.92 140.768 129.977C140.838 129.992 140.91 130 140.983 130C142.775 130 144.585 129.298 145.943 127.941ZM145.943 127.941C145.943 127.941 145.942 127.942 145.941 127.943L145.237 127.233L145.944 127.94C145.944 127.94 145.944 127.94 145.943 127.941Z" fill="white" stroke="white" stroke-width="2" stroke-linejoin="round"/>
<path d="M71.0937 127.944L71.0938 127.944L145.924 53.9646C145.924 53.9643 145.925 53.964 145.925 53.9637C148.707 51.2355 148.674 46.7896 145.93 44.0543C143.18 41.3136 138.699 41.3178 135.933 44.0513C135.933 44.0513 135.933 44.0514 135.933 44.0514L61.0834 118.011C61.0827 118.012 61.082 118.012 61.0814 118.013C58.3039 120.738 58.3088 125.185 61.0804 127.924C62.42 129.248 64.1421 129.926 65.8749 129.977C65.9433 129.992 66.0143 130 66.0871 130C67.8934 130 69.7209 129.301 71.0937 127.944Z" fill="white" stroke="white" stroke-width="2" stroke-linejoin="round"/>
<path d="M95.1639 211.142C95.1639 211.142 95.1639 197.892 105.3 196.91C115.437 195.929 119.479 200.131 119.326 203.842C119.173 207.553 108.73 207.461 108.73 207.461C108.73 207.461 118.897 207.093 118.499 213.32C118.101 219.546 109.373 218.902 109.373 218.902C109.373 218.902 118.285 218.81 118.53 225.589C118.775 232.367 105.637 231.202 105.637 231.202C105.637 231.202 94.8576 231.631 95.1332 211.111L95.1639 211.142Z" fill="#FAC3C1"/>
<path d="M107.873 233.41C106.77 233.41 105.944 233.349 105.607 233.318C104.81 233.318 101.656 233.104 98.6857 230.19C94.8577 226.478 92.9896 220.068 93.1121 211.142C93.1121 205.897 95.6539 195.776 105.117 194.855C112.895 194.089 116.938 196.205 118.928 198.137C120.643 199.763 121.531 201.818 121.439 203.965C121.347 205.897 120.061 207.186 118.254 208.014C118.438 208.167 118.622 208.351 118.806 208.535C120.092 209.854 120.704 211.572 120.582 213.504C120.459 215.528 119.602 217.277 118.132 218.565C117.856 218.81 117.581 219.025 117.274 219.209C119.112 220.559 120.49 222.583 120.612 225.558C120.674 227.46 120 229.116 118.653 230.404C115.927 233.012 110.874 233.441 107.842 233.441L107.873 233.41ZM105.637 229.147C105.637 229.147 105.79 229.147 105.852 229.147C108.7 229.392 113.936 229.147 115.804 227.337C116.294 226.877 116.478 226.386 116.448 225.681C116.294 221.816 111.793 221.141 110.047 221.019C109.618 221.019 109.312 221.019 109.19 221.019C108.087 220.927 107.23 220.007 107.26 218.872C107.291 217.737 108.21 216.878 109.312 216.847C109.588 216.847 109.894 216.847 110.2 216.847C111.609 216.847 114.028 216.541 115.376 215.375C116.019 214.823 116.325 214.117 116.386 213.197C116.448 212.431 116.233 211.878 115.774 211.418C114.396 209.977 111.15 209.609 109.435 209.578C109.128 209.578 108.883 209.578 108.669 209.578C107.536 209.578 106.617 208.658 106.617 207.523C106.617 206.388 107.505 205.437 108.608 205.407C108.73 205.407 109.006 205.407 109.404 205.407C113.018 205.345 116.754 204.548 117.244 203.72C117.244 202.861 116.846 201.941 116.019 201.174C114.886 200.1 112.007 198.383 105.454 199.027C97.3076 199.824 97.2157 211.081 97.2157 211.173C97.0932 220.712 99.4513 225.098 101.442 227.122C103.494 229.178 105.515 229.178 105.607 229.178L105.637 229.147Z" fill="black"/>
</g>
<defs>
<clipPath id="clip0_4757_52419">
<rect width="344" height="270" fill="white"/>
</clipPath>
<clipPath id="clip1_4757_52419">
<rect width="219" height="320" fill="white" transform="translate(110 5)"/>
</clipPath>
</defs>
</svg>
