<svg width="1127" height="37" viewBox="0 0 1127 37" fill="none" xmlns="http://www.w3.org/2000/svg">
<g clip-path="url(#clip0_3619_325114)">
<path d="M1070.51 8.44238L1078.85 18.7695H1062.16L1070.51 8.44238Z" fill="#C6AF33"/>
<path d="M997.84 8.44238L1002.01 18.7695H993.668L997.84 8.44238Z" fill="#C6AF33"/>
<path d="M1034.3 8.44238L1039.86 18.7695H1028.74L1034.3 8.44238Z" fill="#C6AF33"/>
<path d="M1117.63 8.44238L1123.19 18.7695H1112.06L1117.63 8.44238Z" fill="#C6AF33"/>
<path d="M1044.28 11.8848L1051.7 18.7695H1036.87L1044.28 11.8848Z" fill="#C6AF33"/>
<path d="M1012.7 11.8848L1018.26 18.7695H1007.14L1012.7 11.8848Z" fill="#C6AF33"/>
<path d="M1052.87 11.8848L1057.04 18.7695H1048.69L1052.87 11.8848Z" fill="#C6AF33"/>
<path d="M1027.57 11.8848L1031.74 18.7695H1023.4L1027.57 11.8848Z" fill="#C6AF33"/>
<path d="M1079.56 11.8848L1083.27 18.7695H1075.86L1079.56 11.8848Z" fill="#C6AF33"/>
<path d="M1085.83 8.44238L1091.39 18.7695H1080.27L1085.83 8.44238Z" fill="#C6AF33"/>
<path d="M1107.64 11.8848L1115.06 18.7695H1100.23L1107.64 11.8848Z" fill="#C6AF33"/>
<path d="M1124.36 11.8848L1128.53 18.7695H1120.18L1124.36 11.8848Z" fill="#C6AF33"/>
<path d="M1059.6 5L1065.17 18.7694H1054.04L1059.6 5Z" fill="#C6AF33"/>
<path d="M1095.81 5L1103.23 18.7694H1088.4L1095.81 5Z" fill="#C6AF33"/>
<path d="M959.314 8.44238L970.438 18.7695H948.19L959.314 8.44238Z" fill="#C6AF33"/>
<path d="M893.164 8.44238L901.507 18.7695H884.821L893.164 8.44238Z" fill="#C6AF33"/>
<path d="M976.028 8.44238L980.199 18.7695H971.856L976.028 8.44238Z" fill="#C6AF33"/>
<path d="M1004.58 8.44238L1010.14 18.7695H999.017L1004.58 8.44238Z" fill="#C6AF33"/>
<path d="M836.757 8.44238L840.929 18.7695H832.586L836.757 8.44238Z" fill="#C6AF33"/>
<path d="M856.956 8.44238L862.518 18.7695H851.395L856.956 8.44238Z" fill="#C6AF33"/>
<path d="M1020.83 8.44238L1026.39 18.7695H1015.27L1020.83 8.44238Z" fill="#C6AF33"/>
<path d="M940.283 8.44238L945.845 18.7695H934.721L940.283 8.44238Z" fill="#C6AF33"/>
<path d="M866.94 11.8848L874.356 18.7695H859.524L866.94 11.8848Z" fill="#C6AF33"/>
<path d="M843.487 11.8848L849.049 18.7695H837.925L843.487 11.8848Z" fill="#C6AF33"/>
<path d="M875.524 11.8848L879.695 18.7695H871.353L875.524 11.8848Z" fill="#C6AF33"/>
<path d="M850.226 11.8848L854.398 18.7695H846.055L850.226 11.8848Z" fill="#C6AF33"/>
<path d="M902.221 11.8848L905.929 18.7695H898.513L902.221 11.8848Z" fill="#C6AF33"/>
<path d="M908.497 8.44238L914.059 18.7695H902.935L908.497 8.44238Z" fill="#C6AF33"/>
<path d="M930.309 11.8848L937.725 18.7695H922.893L930.309 11.8848Z" fill="#C6AF33"/>
<path d="M947.023 11.8848L951.194 18.7695H942.851L947.023 11.8848Z" fill="#C6AF33"/>
<path d="M971.152 11.8848L974.86 18.7695H967.444L971.152 11.8848Z" fill="#C6AF33"/>
<path d="M986.938 6.7168L996.672 18.7697H977.205L986.938 6.7168Z" fill="#C6AF33"/>
<path d="M882.263 5L887.825 18.7694H876.701L882.263 5Z" fill="#C6AF33"/>
<path d="M918.471 5L925.887 18.7694H911.055L918.471 5Z" fill="#C6AF33"/>
<path d="M604.639 8.44238L615.763 18.7695H593.516L604.639 8.44238Z" fill="#C6AF33"/>
<path d="M538.489 8.44238L546.832 18.7695H530.146L538.489 8.44238Z" fill="#C6AF33"/>
<path d="M621.353 8.44238L625.525 18.7695H617.182L621.353 8.44238Z" fill="#C6AF33"/>
<path d="M644.556 8.44238L650.118 18.7695H638.994L644.556 8.44238Z" fill="#C6AF33"/>
<path d="M482.073 8.44238L486.244 18.7695H477.901L482.073 8.44238Z" fill="#C6AF33"/>
<path d="M502.281 8.44238L507.843 18.7695H496.719L502.281 8.44238Z" fill="#C6AF33"/>
<path d="M652.685 8.44238L658.247 18.7695H647.123L652.685 8.44238Z" fill="#C6AF33"/>
<path d="M585.608 8.44238L591.17 18.7695H580.046L585.608 8.44238Z" fill="#C6AF33"/>
<path d="M512.256 11.8848L519.672 18.7695H504.84L512.256 11.8848Z" fill="#C6AF33"/>
<path d="M488.812 11.8848L494.374 18.7695H483.25L488.812 11.8848Z" fill="#C6AF33"/>
<path d="M520.849 11.8848L525.021 18.7695H516.678L520.849 11.8848Z" fill="#C6AF33"/>
<path d="M495.542 11.8848L499.713 18.7695H491.371L495.542 11.8848Z" fill="#C6AF33"/>
<path d="M547.546 11.8848L551.254 18.7695H543.838L547.546 11.8848Z" fill="#C6AF33"/>
<path d="M553.813 8.44238L559.375 18.7695H548.251L553.813 8.44238Z" fill="#C6AF33"/>
<path d="M575.625 11.8848L583.041 18.7695H568.209L575.625 11.8848Z" fill="#C6AF33"/>
<path d="M592.338 11.8848L596.51 18.7695H588.167L592.338 11.8848Z" fill="#C6AF33"/>
<path d="M616.468 11.8848L620.176 18.7695H612.76L616.468 11.8848Z" fill="#C6AF33"/>
<path d="M632.254 6.7168L641.988 18.7697H622.521L632.254 6.7168Z" fill="#C6AF33"/>
<path d="M527.588 5L533.15 18.7694H522.026L527.588 5Z" fill="#C6AF33"/>
<path d="M563.796 5L571.212 18.7694H556.38L563.796 5Z" fill="#C6AF33"/>
<path d="M781.981 8.44238L793.105 18.7695H770.857L781.981 8.44238Z" fill="#C6AF33"/>
<path d="M715.832 8.44238L724.175 18.7695H707.489L715.832 8.44238Z" fill="#C6AF33"/>
<path d="M798.695 8.44238L802.866 18.7695H794.523L798.695 8.44238Z" fill="#C6AF33"/>
<path d="M821.898 8.44238L827.46 18.7695H816.336L821.898 8.44238Z" fill="#C6AF33"/>
<path d="M659.415 8.44238L663.587 18.7695H655.244L659.415 8.44238Z" fill="#C6AF33"/>
<path d="M679.623 8.44238L685.185 18.7695H674.062L679.623 8.44238Z" fill="#C6AF33"/>
<path d="M830.018 8.44238L835.58 18.7695H824.456L830.018 8.44238Z" fill="#C6AF33"/>
<path d="M762.941 8.44238L768.503 18.7695H757.379L762.941 8.44238Z" fill="#C6AF33"/>
<path d="M689.598 11.8848L697.013 18.7695H682.182L689.598 11.8848Z" fill="#C6AF33"/>
<path d="M666.154 11.8848L671.716 18.7695H660.592L666.154 11.8848Z" fill="#C6AF33"/>
<path d="M698.191 11.8848L702.362 18.7695H694.02L698.191 11.8848Z" fill="#C6AF33"/>
<path d="M672.884 11.8848L677.056 18.7695H668.713L672.884 11.8848Z" fill="#C6AF33"/>
<path d="M724.879 11.8848L728.587 18.7695H721.171L724.879 11.8848Z" fill="#C6AF33"/>
<path d="M731.155 8.44238L736.717 18.7695H725.593L731.155 8.44238Z" fill="#C6AF33"/>
<path d="M752.967 11.8848L760.383 18.7695H745.551L752.967 11.8848Z" fill="#C6AF33"/>
<path d="M769.68 11.8848L773.852 18.7695H765.509L769.68 11.8848Z" fill="#C6AF33"/>
<path d="M793.81 11.8848L797.518 18.7695H790.102L793.81 11.8848Z" fill="#C6AF33"/>
<path d="M809.597 6.7168L819.33 18.7697H799.863L809.597 6.7168Z" fill="#C6AF33"/>
<path d="M704.921 5L710.483 18.7694H699.359L704.921 5Z" fill="#C6AF33"/>
<path d="M741.129 5L748.545 18.7694H733.713L741.129 5Z" fill="#C6AF33"/>
<path d="M427.297 8.44238L438.421 18.7695H416.173L427.297 8.44238Z" fill="#C6AF33"/>
<path d="M361.148 8.44238L369.49 18.7695H352.805L361.148 8.44238Z" fill="#C6AF33"/>
<path d="M444.011 8.44238L448.182 18.7695H439.839L444.011 8.44238Z" fill="#C6AF33"/>
<path d="M467.213 8.44238L472.775 18.7695H461.651L467.213 8.44238Z" fill="#C6AF33"/>
<path d="M304.74 8.44238L308.912 18.7695H300.569L304.74 8.44238Z" fill="#C6AF33"/>
<path d="M324.939 8.44238L330.501 18.7695H319.377L324.939 8.44238Z" fill="#C6AF33"/>
<path d="M475.343 8.44238L480.905 18.7695H469.781L475.343 8.44238Z" fill="#C6AF33"/>
<path d="M408.266 8.44238L413.828 18.7695H402.704L408.266 8.44238Z" fill="#C6AF33"/>
<path d="M334.923 11.8848L342.339 18.7695H327.507L334.923 11.8848Z" fill="#C6AF33"/>
<path d="M311.47 11.8848L317.032 18.7695H305.908L311.47 11.8848Z" fill="#C6AF33"/>
<path d="M343.507 11.8848L347.678 18.7695H339.335L343.507 11.8848Z" fill="#C6AF33"/>
<path d="M318.21 11.8848L322.381 18.7695H314.038L318.21 11.8848Z" fill="#C6AF33"/>
<path d="M370.204 11.8848L373.912 18.7695H366.496L370.204 11.8848Z" fill="#C6AF33"/>
<path d="M376.471 8.44238L382.033 18.7695H370.909L376.471 8.44238Z" fill="#C6AF33"/>
<path d="M398.292 11.8848L405.708 18.7695H390.876L398.292 11.8848Z" fill="#C6AF33"/>
<path d="M415.005 11.8848L419.177 18.7695H410.834L415.005 11.8848Z" fill="#C6AF33"/>
<path d="M439.135 11.8848L442.843 18.7695H435.427L439.135 11.8848Z" fill="#C6AF33"/>
<path d="M454.921 6.7168L464.655 18.7697H445.188L454.921 6.7168Z" fill="#C6AF33"/>
<path d="M350.246 5L355.808 18.7694H344.684L350.246 5Z" fill="#C6AF33"/>
<path d="M386.454 5L393.87 18.7694H379.038L386.454 5Z" fill="#C6AF33"/>
<path d="M249.955 8.44238L261.079 18.7695H238.832L249.955 8.44238Z" fill="#C6AF33"/>
<path d="M183.815 8.44238L192.157 18.7695H175.472L183.815 8.44238Z" fill="#C6AF33"/>
<path d="M266.669 8.44238L270.84 18.7695H262.498L266.669 8.44238Z" fill="#C6AF33"/>
<path d="M289.881 8.44238L295.443 18.7695H284.319L289.881 8.44238Z" fill="#C6AF33"/>
<path d="M111.148 8.44238L115.319 18.7695H106.977L111.148 8.44238Z" fill="#C6AF33"/>
<path d="M147.606 8.44238L153.168 18.7695H142.044L147.606 8.44238Z" fill="#C6AF33"/>
<path d="M298.001 8.44238L303.563 18.7695H292.439L298.001 8.44238Z" fill="#C6AF33"/>
<path d="M230.924 8.44238L236.486 18.7695H225.362L230.924 8.44238Z" fill="#C6AF33"/>
<path d="M157.581 11.8848L164.997 18.7695H150.165L157.581 11.8848Z" fill="#C6AF33"/>
<path d="M126.008 11.8848L131.57 18.7695H120.446L126.008 11.8848Z" fill="#C6AF33"/>
<path d="M166.174 11.8848L170.345 18.7695H162.002L166.174 11.8848Z" fill="#C6AF33"/>
<path d="M140.867 11.8848L145.039 18.7695H136.696L140.867 11.8848Z" fill="#C6AF33"/>
<path d="M192.862 11.8848L196.57 18.7695H189.154L192.862 11.8848Z" fill="#C6AF33"/>
<path d="M199.138 8.44238L204.7 18.7695H193.576L199.138 8.44238Z" fill="#C6AF33"/>
<path d="M220.95 11.8848L228.365 18.7695H213.534L220.95 11.8848Z" fill="#C6AF33"/>
<path d="M237.664 11.8848L241.835 18.7695H233.492L237.664 11.8848Z" fill="#C6AF33"/>
<path d="M261.793 11.8848L265.501 18.7695H258.085L261.793 11.8848Z" fill="#C6AF33"/>
<path d="M277.58 6.7168L287.313 18.7697H267.846L277.58 6.7168Z" fill="#C6AF33"/>
<path d="M172.904 5L178.466 18.7694H167.342L172.904 5Z" fill="#C6AF33"/>
<path d="M209.112 5L216.528 18.7694H201.696L209.112 5Z" fill="#C6AF33"/>
<path d="M72.6224 8.44238L83.7462 18.7695H61.4985L72.6224 8.44238Z" fill="#C6AF33"/>
<path d="M6.47277 8.44238L14.8157 18.7695H-1.87012L6.47277 8.44238Z" fill="#C6AF33"/>
<path d="M89.336 8.44238L93.5074 18.7695H85.1646L89.336 8.44238Z" fill="#C6AF33"/>
<path d="M117.878 8.44238L123.44 18.7695H112.316L117.878 8.44238Z" fill="#C6AF33"/>
<path d="M134.128 8.44238L139.69 18.7695H128.566L134.128 8.44238Z" fill="#C6AF33"/>
<path d="M53.5912 8.44238L59.1532 18.7695H48.0293L53.5912 8.44238Z" fill="#C6AF33"/>
<path d="M15.5292 11.8848L19.2372 18.7695H11.8213L15.5292 11.8848Z" fill="#C6AF33"/>
<path d="M21.7958 8.44238L27.3577 18.7695H16.2339L21.7958 8.44238Z" fill="#C6AF33"/>
<path d="M43.6078 11.8848L51.0237 18.7695H36.1919L43.6078 11.8848Z" fill="#C6AF33"/>
<path d="M60.3213 11.8848L64.4928 18.7695H56.1499L60.3213 11.8848Z" fill="#C6AF33"/>
<path d="M84.4506 11.8848L88.1586 18.7695H80.7427L84.4506 11.8848Z" fill="#C6AF33"/>
<path d="M100.237 6.7168L109.971 18.7697H90.5039L100.237 6.7168Z" fill="#C6AF33"/>
<path d="M31.7792 5L39.1951 18.7694H24.3633L31.7792 5Z" fill="#C6AF33"/>
<rect y="16" width="1133" height="21" fill="#C6AF33"/>
</g>
<defs>
<clipPath id="clip0_3619_325114">
<rect width="1127" height="37" fill="white"/>
</clipPath>
</defs>
</svg>
