<svg width="316" height="107" viewBox="0 0 316 107" fill="none" xmlns="http://www.w3.org/2000/svg">
<path d="M128.314 45.4824L81.084 106.674H175.544L128.314 45.4824Z" fill="#AA6A20"/>
<path d="M128.314 45.4814L142.997 106.673H175.544L128.314 45.4814Z" fill="#9E5E21"/>
<path d="M81.084 106.674H113.631L128.314 45.4824L81.084 106.674Z" fill="#B6761F"/>
<path d="M128.314 45.4814L114.502 63.3817C115.188 63.6112 116.606 62.8126 117.32 63.0145C118.034 63.2073 118.173 64.4374 118.914 64.5934C119.647 64.7495 120.852 63.8132 121.612 63.9417C122.363 64.061 122.789 65.2544 123.559 65.337C124.319 65.4196 125.283 64.3731 126.062 64.4098C126.831 64.4466 127.535 65.5848 128.314 65.5848C129.083 65.5848 129.788 64.4466 130.567 64.4098C131.336 64.3731 132.3 65.4196 133.07 65.337C133.839 65.2544 134.275 64.061 135.016 63.9417C135.776 63.8223 136.981 64.7587 137.714 64.6026C138.455 64.4466 138.604 63.2165 139.308 63.0237C140.031 62.8309 141.44 63.6296 142.126 63.3909L128.305 45.4906L128.314 45.4814Z" fill="#F1F3F4"/>
<path d="M133.079 65.319C133.848 65.2364 134.284 64.043 135.025 63.9237C135.785 63.8044 136.991 64.7407 137.723 64.5846C138.464 64.4286 138.613 63.1985 139.317 63.0057C140.04 62.813 141.449 63.6116 142.135 63.3729L128.314 45.4727L133.069 65.3098L133.079 65.319Z" fill="#E2E7EA"/>
<path d="M114.502 63.3725C115.188 63.602 116.606 62.8034 117.32 63.0054C118.034 63.1981 118.173 64.4282 118.914 64.5843C119.647 64.7403 120.852 63.804 121.612 63.9325C122.363 64.0518 122.789 65.2452 123.559 65.3278L128.323 45.4814L114.511 63.3817L114.502 63.3725Z" fill="white"/>
<path d="M66.1221 21L0 106.673H132.253L66.1221 21Z" fill="#AA6A20"/>
<path d="M66.1221 21L86.6827 106.673H132.253L66.1221 21Z" fill="#9E5E21"/>
<path d="M0 106.673H45.5707L66.1221 21L0 106.673Z" fill="#B6761F"/>
<path d="M66.1221 21L46.7852 46.0604C47.7492 46.3817 49.7237 45.2709 50.7249 45.5463C51.726 45.8217 51.9207 47.5291 52.9589 47.7586C53.9879 47.9789 55.675 46.6754 56.7317 46.8407C57.7792 47.0059 58.3818 48.6766 59.4571 48.7867C60.5231 48.8969 61.8765 47.4282 62.9611 47.4832C64.0364 47.5383 65.0283 49.1264 66.1221 49.1264C67.1974 49.1264 68.1893 47.5383 69.2739 47.4832C70.3492 47.4282 71.7026 48.8969 72.7872 48.7776C73.8717 48.6674 74.4743 46.9967 75.5218 46.8315C76.5878 46.6662 78.2657 47.9698 79.2946 47.7586C80.3329 47.5383 80.5368 45.8217 81.5287 45.5555C82.5391 45.2801 84.5136 46.4 85.4684 46.0788L66.1221 21Z" fill="#F1F3F4"/>
<path d="M72.7871 48.7776C73.8717 48.6674 74.4742 46.9967 75.5217 46.8315C76.5878 46.6662 78.2656 47.9698 79.2946 47.7586C80.3328 47.5383 80.5367 45.8217 81.5286 45.5555C82.539 45.2801 84.5135 46.4 85.4683 46.0788L66.1221 21L72.7871 48.7776Z" fill="#E2E7EA"/>
<path d="M46.7852 46.0604C47.7492 46.3817 49.7237 45.2709 50.7249 45.5463C51.726 45.8217 51.9207 47.5291 52.9589 47.7586C53.9879 47.9789 55.675 46.6754 56.7317 46.8407C57.7792 47.0059 58.3818 48.6766 59.4571 48.7867L66.1221 21L46.7852 46.0604Z" fill="white"/>
<path d="M215.321 88.9105C215.321 96.5938 213.013 98.852 210.157 98.852C207.302 98.852 204.994 96.5938 204.994 88.9105C204.994 81.2271 207.302 74.9941 210.157 74.9941C213.013 74.9941 215.321 81.2271 215.321 88.9105Z" fill="#F09321"/>
<path d="M210.167 88.626L208.869 103.956H211.455L210.167 88.626Z" fill="#9E5E21"/>
<path d="M229.967 82.7607H225.397V103.966H229.967V82.7607Z" fill="#9E5E21"/>
<path d="M237.587 94.8229H217.777L227.678 63.043L237.587 94.8229Z" fill="#A0982C"/>
<path d="M235.872 81.926H219.483L227.677 55.6172L235.872 81.926Z" fill="#A0982C"/>
<path d="M233.907 68.9093H221.458L227.678 48.916L233.907 68.9093Z" fill="#A0982C"/>
<path d="M232.099 57.8017H223.265L227.678 43.6191L232.099 57.8017Z" fill="#A0982C"/>
<path d="M188.549 90.2143C195.65 90.2143 201.407 84.5139 201.407 77.4821C201.407 70.4504 195.65 64.75 188.549 64.75C181.448 64.75 175.692 70.4504 175.692 77.4821C175.692 84.5139 181.448 90.2143 188.549 90.2143Z" fill="#EF7D22"/>
<path d="M169.694 92.2524C176.795 92.2524 182.552 86.552 182.552 79.5202C182.552 72.4885 176.795 66.7881 169.694 66.7881C162.593 66.7881 156.837 72.4885 156.837 79.5202C156.837 86.552 162.593 92.2524 169.694 92.2524Z" fill="#EF7D22"/>
<path d="M179.094 73.4063C184.771 73.4063 189.374 68.8485 189.374 63.2261C189.374 57.6037 184.771 53.0459 179.094 53.0459C173.416 53.0459 168.813 57.6037 168.813 63.2261C168.813 68.8485 173.416 73.4063 179.094 73.4063Z" fill="#EF7D22"/>
<path d="M182.384 95.8042C186.926 95.8042 190.607 92.1588 190.607 87.6619C190.607 83.165 186.926 79.5195 182.384 79.5195C177.843 79.5195 174.162 83.165 174.162 87.6619C174.162 92.1588 177.843 95.8042 182.384 95.8042Z" fill="#EF7D22"/>
<path d="M179.122 63.2266L177.407 103.957H180.837L179.122 63.2266Z" fill="#9E5E21"/>
<path d="M179.122 70.1113V71.3322L186.186 63.2266L179.122 70.1113Z" fill="#9E5E21"/>
<path d="M179.122 79.3181V80.8419L169.129 70.7168L179.122 79.3181Z" fill="#9E5E21"/>
<path d="M179.122 88.8007V90.6366L190.431 79.1621L179.122 88.8007Z" fill="#9E5E21"/>
<path d="M249.134 101.846L249.51 101.533L244.809 95.985L244.433 96.2977L249.134 101.846Z" fill="#A0982C"/>
<path d="M244.465 92.5826C242.519 90.2785 239.107 90.0215 239.107 90.0215L245.374 97.4203C245.457 96.4564 246.412 94.8867 244.456 92.5918L244.465 92.5826Z" fill="#A0982C"/>
<path d="M240.729 95.6853C238.783 93.3812 239.107 90.0215 239.107 90.0215L245.374 97.4203C244.4 97.3285 242.676 97.9894 240.729 95.6945V95.6853Z" fill="#B3A330"/>
<path d="M249.498 98.9343L249.874 99.2471L254.575 93.6988L254.199 93.3861L249.498 98.9343Z" fill="#A0982C"/>
<path d="M257.916 92.7576C259.862 90.4535 259.538 87.0938 259.538 87.0938L253.271 94.4925C254.245 94.4007 255.969 95.0617 257.916 92.7668V92.7576Z" fill="#A0982C"/>
<path d="M254.18 89.6549C256.127 87.3508 259.538 87.0938 259.538 87.0938L253.272 94.4925C253.188 93.5287 252.234 91.959 254.19 89.664L254.18 89.6549Z" fill="#B3A330"/>
<path d="M249.879 87.002H249.146V103.599H249.879V87.002Z" fill="#A0982C"/>
<path d="M249.415 86.0377C247.117 89.7921 245.429 89.1771 245.049 88.3785C244.845 87.9287 244.892 87.3412 245.411 86.8363C245.958 86.3406 246.968 85.9275 249.314 85.8816C246.959 85.8357 245.958 85.4226 245.411 84.9269C244.892 84.422 244.836 83.8345 245.049 83.3756C245.42 82.5861 247.107 81.9711 249.406 85.7256C247.2 81.8334 248.581 80.998 249.508 80.9062C250.417 81.0072 251.798 81.8334 249.592 85.7256C251.891 81.9711 253.578 82.5861 253.958 83.3847C254.162 83.8345 254.115 84.422 253.596 84.9269C253.049 85.4226 252.039 85.8357 249.694 85.8816C252.048 85.9275 253.049 86.3406 253.596 86.8363C254.115 87.3412 254.171 87.9287 253.958 88.3877C253.587 89.1771 251.9 89.7921 249.601 86.0377C251.807 89.9298 250.426 90.7652 249.499 90.857C248.59 90.756 247.209 89.9298 249.415 86.0377Z" fill="#FFE078"/>
<path d="M250.565 85.8812C250.565 86.4412 250.092 86.9002 249.508 86.9002C248.924 86.9002 248.451 86.4412 248.451 85.8812C248.451 85.3213 248.924 84.8623 249.508 84.8623C250.092 84.8623 250.565 85.3213 250.565 85.8812Z" fill="#FF5538"/>
<path d="M269.726 91.7745C269.596 88.3138 270.226 85.9822 270.236 85.9638C270.319 85.6609 270.134 85.358 269.828 85.2754C269.522 85.1928 269.207 85.3672 269.123 85.6701C269.095 85.7711 268.446 88.1486 268.576 91.7745C268.687 95.1068 269.522 100.165 272.794 105.324C272.915 105.507 273.118 105.599 273.322 105.59C273.415 105.59 273.499 105.553 273.582 105.507C273.851 105.342 273.934 104.993 273.767 104.736C270.634 99.8067 269.846 94.9691 269.726 91.7837V91.7745Z" fill="#B6761F"/>
<path d="M274.24 93.7387C274.213 93.4634 273.962 93.2522 273.675 93.2798C273.388 93.3073 273.184 93.5551 273.211 93.8305C273.211 93.8856 273.74 99.834 270.078 104.763C269.911 104.993 269.958 105.305 270.189 105.479C270.254 105.525 270.328 105.553 270.403 105.571C270.588 105.608 270.792 105.535 270.912 105.369C274.815 100.119 274.268 93.9958 274.24 93.7387Z" fill="#B6761F"/>
<path d="M272.729 86.0558C272.729 87.9468 271.302 87.1941 269.54 87.1941C267.779 87.1941 266.352 87.9468 266.352 86.0558C266.352 84.1648 267.779 82.6318 269.54 82.6318C271.302 82.6318 272.729 84.1648 272.729 86.0558Z" fill="#EE7222"/>
<path d="M276.001 93.7572C275.983 95.1709 274.917 94.6018 273.6 94.5834C272.284 94.565 271.199 95.1158 271.218 93.693C271.237 92.2701 272.321 91.141 273.647 91.1594C274.963 91.1778 276.02 92.3436 276.001 93.7572Z" fill="#EE7222"/>
<path d="M298.834 87.2543L299.231 86.9238L294.268 81.0662L293.87 81.3966L298.834 87.2543Z" fill="#B3A330"/>
<path d="M293.892 77.4453C291.834 75.0127 288.237 74.7373 288.237 74.7373L294.856 82.5492C294.939 81.5302 295.95 79.8779 293.892 77.4453Z" fill="#B3A330"/>
<path d="M289.952 80.7224C287.894 78.2898 288.237 74.7373 288.237 74.7373L294.856 82.5492C293.827 82.4574 292.01 83.155 289.943 80.7224H289.952Z" fill="#A0982C"/>
<path d="M299.211 83.5465L299.608 83.877L304.572 78.0193L304.174 77.6889L299.211 83.5465Z" fill="#B3A330"/>
<path d="M308.103 77.0232C310.161 74.5906 309.818 71.0381 309.818 71.0381L303.199 78.85C304.228 78.7582 306.045 79.4558 308.112 77.0232H308.103Z" fill="#B3A330"/>
<path d="M304.163 73.7461C306.221 71.3135 309.818 71.0381 309.818 71.0381L303.199 78.85C303.116 77.831 302.105 76.1787 304.163 73.7461Z" fill="#A0982C"/>
<path d="M299.215 96.948L299.548 97.3418L309.412 89.1459L309.078 88.7521L299.215 96.948Z" fill="#B3A330"/>
<path d="M313.062 88.7822C315.519 86.7443 315.797 83.1826 315.797 83.1826L307.908 89.7369C308.937 89.8195 310.606 90.8201 313.062 88.7822Z" fill="#B3A330"/>
<path d="M309.753 84.8718C312.209 82.8339 315.797 83.1736 315.797 83.1736L307.908 89.7278C308.001 88.7089 307.296 86.9097 309.753 84.8626V84.8718Z" fill="#A0982C"/>
<path d="M298.876 99.9797L299.21 99.5859L289.346 91.3901L289.013 91.7839L298.876 99.9797Z" fill="#B3A330"/>
<path d="M288.367 87.9109C285.911 85.873 282.323 86.2126 282.323 86.2126L290.212 92.7669C290.119 91.748 290.824 89.9487 288.367 87.9017V87.9109Z" fill="#B3A330"/>
<path d="M285.058 91.8213C282.601 89.7834 282.323 86.2217 282.323 86.2217L290.212 92.7759C289.183 92.8586 287.514 93.8591 285.058 91.8213Z" fill="#A0982C"/>
<path d="M305.69 87.2316L306.139 86.9746L302.278 80.3524L301.829 80.6095L305.69 87.2316Z" fill="#B3A330"/>
<path d="M303.616 87.2407C303.051 86.2677 303.385 85.0192 304.367 84.4501C305.35 83.8901 306.611 84.2206 307.185 85.1936C307.751 86.1667 307.417 87.4151 306.434 87.9843C305.452 88.5442 304.191 88.2137 303.616 87.2407Z" fill="#FF5538"/>
<path d="M310.071 98.2199L310.438 97.8564L304.978 92.4495L304.611 92.813L310.071 98.2199Z" fill="#B3A330"/>
<path d="M308.066 98.7607C307.259 97.962 307.259 96.6769 308.066 95.8783C308.872 95.0796 310.17 95.0796 310.977 95.8783C311.783 96.6769 311.783 97.962 310.977 98.7607C310.17 99.5593 308.872 99.5593 308.066 98.7607Z" fill="#FF5538"/>
<path d="M295.102 87.3528L294.601 87.2197L292.603 94.6058L293.104 94.7389L295.102 87.3528Z" fill="#B3A330"/>
<path d="M296.58 88.8004C296.284 89.8928 295.153 90.5354 294.059 90.2416C292.956 89.9479 292.307 88.8279 292.604 87.7447C292.9 86.6524 294.031 86.0098 295.125 86.3035C296.219 86.5973 296.877 87.7172 296.58 88.8004Z" fill="#FF5538"/>
<path d="M287.335 97.4683L287.425 97.9746L295.029 96.6468L294.939 96.1405L287.335 97.4683Z" fill="#B3A330"/>
<path d="M288.052 95.5385C289.174 95.3458 290.24 96.0801 290.434 97.1909C290.629 98.3016 289.888 99.3573 288.766 99.55C287.644 99.7428 286.578 99.0084 286.384 97.8977C286.189 96.787 286.93 95.7313 288.052 95.5385Z" fill="#FF5538"/>
<path d="M299.602 75.0039H298.833V104.076H299.602V75.0039Z" fill="#B3A330"/>
<path d="M301.799 71.4972C301.799 68.3211 299.222 65.8242 299.222 65.8242V76.0228C299.954 75.2976 301.799 74.6734 301.799 71.4972Z" fill="#B3A330"/>
<path d="M296.645 71.4972C296.645 68.3211 299.222 65.8242 299.222 65.8242V76.0228C298.49 75.2976 296.645 74.6734 296.645 71.4972Z" fill="#A0982C"/>
<path d="M272.88 40.0988C268.842 39.0261 265.973 42.7178 264.116 44.7377C262.329 46.6881 261.893 47.9836 260.894 48.5409L254.676 50.3658C255.914 51.4385 257.926 52.2465 260.81 51.6335C260.88 51.7589 261.794 52.4554 263.201 53.0684L275.933 45.1278C276.58 43.0382 275.06 40.6839 272.894 40.1127L272.88 40.0988Z" fill="#C5914C"/>
<path d="M277.156 44.2367L274.877 46.2567L274.16 43.6377L277.156 44.2367Z" fill="#B6761F"/>
<path d="M275.918 45.1138C276.157 44.3476 276.101 43.5535 275.834 42.8152C275.496 41.5893 274.033 40.7952 272.682 41.1574C270.755 41.6729 269.869 43.3724 270.544 45.5874C270.825 46.5905 270.164 47.5935 269.137 47.7746C268.617 47.8721 268.096 48.0114 267.576 48.2064C265.001 49.1955 263.271 51.1876 263.187 53.0544C265.508 54.0574 269.137 54.8236 272.429 52.3021C274.089 51.0344 274.764 48.889 274.511 47.092C275.158 46.6183 275.679 45.9357 275.932 45.1138H275.918Z" fill="#FBEFDC"/>
<path d="M272.514 43.6233C272.387 44.0691 272.669 44.5427 273.119 44.6542C273.569 44.7796 274.047 44.5009 274.16 44.0552C274.287 43.6094 274.005 43.1357 273.555 43.0243C273.105 42.8989 272.627 43.1775 272.514 43.6233Z" fill="#373737"/>
<path d="M271.079 46.479C269.419 49.3209 265.747 50.296 262.864 48.6522C259.994 47.0084 259.009 43.3724 260.669 40.5166L271.079 46.4651V46.479Z" fill="#9E5E21"/>
<path d="M213.857 8.49882C213.582 5.20212 209.815 2.82957 205.441 3.1939C205.007 3.22944 204.591 3.30053 204.179 3.38494C202.285 1.10125 198.92 -0.267186 195.215 0.0438223C191.536 0.350388 188.459 2.22977 186.95 4.76671C184.006 5.23767 181.841 7.10816 182.009 9.15638C182.177 11.2001 184.621 12.6885 187.605 12.6663C189.508 14.9145 192.851 16.2607 196.53 15.9541C198.433 15.7942 200.173 15.2166 201.621 14.3413C203.002 14.9678 204.662 15.2744 206.433 15.1277C210.807 14.7634 214.131 11.7955 213.861 8.49882H213.857Z" fill="white"/>
</svg>
