<svg width="274" height="102" viewBox="0 0 274 102" fill="none" xmlns="http://www.w3.org/2000/svg">
<path d="M143.213 82.2051H140.213V101.205H143.213V82.2051Z" fill="#9E5E21"/>
<path d="M148.312 90.4055H135L141.656 69.0537L148.312 90.4055Z" fill="#A0982C"/>
<path d="M147.162 81.7395H136.149L141.656 64.0596L147.162 81.7395Z" fill="#A0982C"/>
<path d="M145.837 72.9913H137.475L141.656 59.5615L145.837 72.9913Z" fill="#A0982C"/>
<path d="M144.622 65.5285H138.689L141.656 56L144.622 65.5285Z" fill="#A0982C"/>
<path d="M79.233 92.0357L78.814 91.6875L73.5526 97.8968L73.9716 98.2449L79.233 92.0357Z" fill="#A0982C"/>
<path d="M79.1658 87.9006C81.3535 85.3211 85.1634 85.0273 85.1634 85.0273L78.1461 93.3074C78.0534 92.2242 76.9874 90.4709 79.1658 87.8914V87.9006Z" fill="#A0982C"/>
<path d="M83.3469 91.3705C85.5346 88.791 85.1637 85.0273 85.1637 85.0273L78.1465 93.3074C79.2403 93.2064 81.1685 93.9499 83.3469 91.3705Z" fill="#B3A330"/>
<path d="M68.2905 88.1909L67.8716 88.5391L73.133 94.7483L73.5519 94.4002L68.2905 88.1909Z" fill="#A0982C"/>
<path d="M64.1023 87.4603C61.9147 84.8808 62.2855 81.1172 62.2855 81.1172L69.3027 89.3972C68.2089 89.2962 66.2808 90.0398 64.1023 87.4603Z" fill="#A0982C"/>
<path d="M68.2832 83.9806C66.0955 81.4012 62.2856 81.1074 62.2856 81.1074L69.3029 89.3874C69.3956 88.3042 70.4617 86.5509 68.2832 83.9715V83.9806Z" fill="#B3A330"/>
<path d="M73.1125 99.9717H73.9282V77.6376H73.1125V99.9717Z" fill="#A0982C"/>
<path d="M73.6223 79.9328C76.1994 84.1371 78.0904 83.4486 78.5076 82.549C78.7393 82.0441 78.6836 81.3832 78.0996 80.8232C77.4878 80.2632 76.3569 79.8043 73.7243 79.7492C76.3569 79.7033 77.4878 79.2351 78.0996 78.6752C78.6836 78.1152 78.7393 77.4543 78.4983 76.9402C78.0812 76.0498 76.1994 75.3705 73.6223 79.5656C76.0974 75.2053 74.5493 74.2781 73.5018 74.168C72.4821 74.2781 70.9341 75.2053 73.4091 79.5656C70.8321 75.3613 68.941 76.0498 68.5239 76.9494C68.2921 77.4543 68.3477 78.1152 68.9317 78.6752C69.5435 79.2351 70.6744 79.6941 73.3071 79.7492C70.6744 79.7951 69.5435 80.2632 68.9317 80.8232C68.3477 81.3832 68.2922 82.0441 68.5332 82.5582C68.9503 83.4486 70.8321 84.1279 73.4091 79.9328C70.9341 84.2931 72.4822 85.2202 73.5297 85.3304C74.5493 85.2202 76.0974 84.2931 73.6223 79.9328Z" fill="#FF5538"/>
<path d="M72.334 79.7584C72.334 80.3918 72.8624 80.8967 73.5113 80.8967C74.1602 80.8967 74.6886 80.3826 74.6886 79.7584C74.6886 79.125 74.1602 78.6201 73.5113 78.6201C72.8624 78.6201 72.334 79.1342 72.334 79.7584Z" fill="#FFE078"/>
<path d="M211.132 63.523C211.132 81.8089 205.635 87.1789 198.849 87.1789C192.063 87.1789 186.566 81.818 186.566 63.523C186.566 45.228 192.063 30.4121 198.849 30.4121C205.635 30.4121 211.132 45.2372 211.132 63.523Z" fill="#FFCA1E"/>
<path d="M198.849 62.8438L195.781 99.342H201.927L198.849 62.8438Z" fill="#9E5E21"/>
<path d="M259.604 83.9475C267.555 83.9475 274 77.5649 274 69.6915C274 61.8182 267.555 55.4355 259.604 55.4355C251.653 55.4355 245.208 61.8182 245.208 69.6915C245.208 77.5649 251.653 83.9475 259.604 83.9475Z" fill="#FFBC22"/>
<path d="M238.497 86.2239C246.447 86.2239 252.893 79.8412 252.893 71.9679C252.893 64.0945 246.447 57.7119 238.497 57.7119C230.546 57.7119 224.101 64.0945 224.101 71.9679C224.101 79.8412 230.546 86.2239 238.497 86.2239Z" fill="#FFBC22"/>
<path d="M249.009 65.1294C255.367 65.1294 260.522 60.0249 260.522 53.7282C260.522 47.4316 255.367 42.3271 249.009 42.3271C242.65 42.3271 237.496 47.4316 237.496 53.7282C237.496 60.0249 242.65 65.1294 249.009 65.1294Z" fill="#FFBC22"/>
<path d="M252.698 90.2169C257.787 90.2169 261.912 86.1317 261.912 81.0923C261.912 76.053 257.787 71.9678 252.698 71.9678C247.609 71.9678 243.484 76.053 243.484 81.0923C243.484 86.1317 247.609 90.2169 252.698 90.2169Z" fill="#FFBC22"/>
<path d="M249.055 53.7285L247.127 99.3421H250.974L249.055 53.7285Z" fill="#9E5E21"/>
<path d="M249.055 61.4302V62.798L256.962 53.7285L249.055 61.4302Z" fill="#9E5E21"/>
<path d="M249.055 71.7388V73.4462L237.857 62.1094L249.055 71.7388Z" fill="#9E5E21"/>
<path d="M249.055 82.3685V84.4155L261.718 71.5732L249.055 82.3685Z" fill="#9E5E21"/>
<path d="M49.2985 88.7821C55.1861 88.7821 59.9589 84.0558 59.9589 78.2255C59.9589 72.3953 55.1861 67.6689 49.2985 67.6689C43.411 67.6689 38.6382 72.3953 38.6382 78.2255C38.6382 84.0558 43.411 88.7821 49.2985 88.7821Z" fill="#EF7D22"/>
<path d="M33.6604 90.4715C39.5479 90.4715 44.3207 85.7452 44.3207 79.915C44.3207 74.0847 39.5479 69.3584 33.6604 69.3584C27.7728 69.3584 23 74.0847 23 79.915C23 85.7452 27.7728 90.4715 33.6604 90.4715Z" fill="#EF7D22"/>
<path d="M41.4467 74.8476C46.1567 74.8476 49.9751 71.0665 49.9751 66.4023C49.9751 61.7381 46.1567 57.957 41.4467 57.957C36.7367 57.957 32.9185 61.7381 32.9185 66.4023C32.9185 71.0665 36.7367 74.8476 41.4467 74.8476Z" fill="#EF7D22"/>
<path d="M44.1815 93.4275C47.9495 93.4275 51.0041 90.4026 51.0041 86.6712C51.0041 82.9399 47.9495 79.915 44.1815 79.915C40.4135 79.915 37.3589 82.9399 37.3589 86.6712C37.3589 90.4026 40.4135 93.4275 44.1815 93.4275Z" fill="#EF7D22"/>
<path d="M41.475 66.4023L40.0566 100.193H42.9026L41.475 66.4023Z" fill="#9E5E21"/>
<path d="M41.4746 72.1121V73.1218L47.3425 66.4023L41.4746 72.1121Z" fill="#9E5E21"/>
<path d="M41.4747 79.7492V81.0068L33.1875 72.6074L41.4747 79.7492Z" fill="#9E5E21"/>
<path d="M41.4746 87.6166V89.1404L50.865 79.6211L41.4746 87.6166Z" fill="#9E5E21"/>
<path d="M223.859 75.5947H218.742V99.3424H223.859V75.5947Z" fill="#9E5E21"/>
<path d="M232.387 89.107H210.214L221.301 53.5176L232.387 89.107Z" fill="#A0982C"/>
<path d="M230.478 74.6586H212.124L221.301 45.2012L230.478 74.6586Z" fill="#A0982C"/>
<path d="M228.272 60.0805H214.33L221.301 37.6914L228.272 60.0805Z" fill="#A0982C"/>
<path d="M226.251 47.6425H216.351L221.301 31.7617L226.251 47.6425Z" fill="#A0982C"/>
<path d="M102.593 22.3695H108.794C110.009 22.3695 111 21.3873 111 20.1848C111 18.9822 110.009 18 108.794 18H102.593C101.378 18 100.387 18.9822 100.387 20.1848C100.387 21.3873 101.378 22.3695 102.593 22.3695Z" fill="#F09321"/>
<path d="M105.689 19.6797L108.35 97.2109H103.038L105.689 19.6797Z" fill="#845439"/>
<path d="M78.9364 63.0264H97.9489C100.027 63.0264 101.712 64.695 101.712 66.7533V70.214C101.712 72.2723 100.027 73.9409 97.9489 73.9409H78.9364C76.8578 73.9409 75.1727 72.2723 75.1727 70.214V66.7533C75.1727 64.695 76.8578 63.0264 78.9364 63.0264Z" fill="#F09321"/>
<path d="M113.439 55.0215H132.451C134.53 55.0215 136.215 56.6901 136.215 58.7484V62.2091C136.215 64.2675 134.53 65.9361 132.451 65.9361H113.439C111.36 65.9361 109.675 64.2675 109.675 62.2091V58.7484C109.675 56.6901 111.36 55.0215 113.439 55.0215Z" fill="#EE7222"/>
<path d="M82.5331 45.4658H99.6546C101.523 45.4658 103.038 46.9659 103.038 48.8164V51.9375C103.038 53.7879 101.523 55.288 99.6546 55.288H82.5331C80.6645 55.288 79.1496 53.7879 79.1496 51.9375V48.8164C79.1496 46.9659 80.6645 45.4658 82.5331 45.4658Z" fill="#EE7222"/>
<path d="M114.079 47.4665H126.491C128.92 47.4665 130.903 45.5021 130.903 43.097C130.903 40.692 128.92 38.7275 126.491 38.7275H114.079C111.65 38.7275 109.666 40.692 109.666 43.097C109.666 45.5021 111.65 47.4665 114.079 47.4665Z" fill="#F09321"/>
<path d="M88.3175 39.3699H99.1818C101.305 39.3699 103.038 37.6533 103.038 35.5511C103.038 33.449 101.305 31.7324 99.1818 31.7324H88.3175C86.1947 31.7324 84.4612 33.449 84.4612 35.5511C84.4612 37.6533 86.1947 39.3699 88.3175 39.3699Z" fill="#F09321"/>
<path d="M110.324 33.5318H119.631C121.448 33.5318 122.94 32.0539 122.94 30.2547C122.94 28.4555 121.448 26.9775 119.631 26.9775H110.324C108.507 26.9775 107.015 28.4555 107.015 30.2547C107.015 32.0539 108.507 33.5318 110.324 33.5318Z" fill="#EE7222"/>
<path d="M93.8513 29.107H101.61C103.13 29.107 104.363 27.8769 104.363 26.3806C104.363 24.8752 103.121 23.6543 101.61 23.6543H93.8513C92.331 23.6543 91.0981 24.8844 91.0981 26.3806C91.0981 27.8861 92.3403 29.107 93.8513 29.107Z" fill="#EE7222"/>
<path d="M93.7496 35.5518L105.504 43.9878V47.2191L93.7496 35.5518Z" fill="#845439"/>
<path d="M105.504 63.357L91.0985 50.377L105.504 67.396V63.357Z" fill="#845439"/>
<path d="M105.504 85.7915V90.6383L88.438 68.2676L105.504 85.7915Z" fill="#845439"/>
<path d="M114.978 30.2637L105.504 38.6906V41.9218L114.978 30.2637Z" fill="#845439"/>
<path d="M97.7265 26.3809L105.504 33.4125V36.1021L97.7265 26.3809Z" fill="#845439"/>
<path d="M105.504 56.0767L120.289 43.0967L105.504 60.1157V56.0767Z" fill="#845439"/>
<path d="M105.504 77.787V82.6338L122.94 60.2539L105.504 77.787Z" fill="#845439"/>
<path d="M78.2285 55C82.0867 55 83.7631 58.9656 84.9205 61.2053C86.0514 63.3659 86.1179 64.6175 86.8762 65.3553L91.9717 68.4514C90.6146 69.1101 88.6191 69.3604 86.1977 68.1352C86.1046 68.2274 85.1201 68.6358 83.7231 68.8466L74.2903 58.7548C74.2105 56.7391 76.1397 55 78.2151 55H78.2285Z" fill="#C5914C"/>
<path d="M73 58.5309L75.5278 59.7825V57.2793L73 58.5309Z" fill="#B6761F"/>
<path d="M74.3037 58.7549C74.2771 58.0171 74.5167 57.3188 74.9424 56.7259C75.5278 55.7115 77.0311 55.3558 78.1486 55.9882C79.7451 56.8972 80.1177 58.6231 78.9868 60.4412C78.4945 61.2712 78.8405 62.312 79.7053 62.7336C80.1443 62.9444 80.57 63.1947 80.9958 63.4977C83.0579 64.9865 84.1223 67.1735 83.7498 68.8599C81.4349 69.2156 78.0156 69.018 75.7007 66.0009C74.5299 64.4727 74.4369 62.4042 75.1021 60.8628C74.6364 60.2831 74.3436 59.5585 74.317 58.768L74.3037 58.7549Z" fill="#FBEFDC"/>
<path d="M76.9114 59.0048C76.4779 59.0048 76.1263 58.6568 76.1263 58.2275C76.1263 57.7982 76.4779 57.4502 76.9114 57.4502C77.3449 57.4502 77.6963 57.7982 77.6963 58.2275C77.6963 58.6568 77.3449 59.0048 76.9114 59.0048Z" fill="#373737"/>
<path d="M79.1731 60.0859C77.3638 61.8777 77.3638 64.7761 79.1731 66.5547C80.9825 68.3333 83.9095 68.3465 85.7056 66.5547L79.1731 60.0859Z" fill="#9E5E21"/>
<path d="M170.667 41.2525C169.634 40.9869 168.923 39.9243 166.844 38.6092C164.685 37.2411 161.211 34.5978 157.83 36.5238C156.02 37.5599 155.228 40.0305 156.315 41.7573C156.744 42.4347 157.361 42.9262 158.072 43.1918C158.273 44.8788 159.413 46.6321 161.211 47.376C166.925 49.7536 171.418 44.3342 171.499 44.0021C174.235 43.8693 175.858 42.6605 176.703 41.3987L170.68 41.2393L170.667 41.2525Z" fill="#C5914C"/>
<path d="M155 41.2785L157.535 42.5404V40.0166L155 41.2785Z" fill="#B6761F"/>
<path d="M156.328 41.7707C155.926 41.1331 155.778 40.4025 155.845 39.6852C155.845 38.5031 156.972 37.4404 158.273 37.4404C160.124 37.4404 161.332 38.7687 161.264 40.9073C161.264 41.8769 162.096 42.6208 163.062 42.5411C163.545 42.5012 164.054 42.5145 164.564 42.5676C167.126 42.8333 169.165 44.2147 169.688 45.8751C167.85 47.3362 164.765 48.877 161.197 47.4026C159.4 46.6588 158.273 44.8921 158.059 43.2185C157.361 42.9396 156.731 42.4614 156.301 41.7839L156.328 41.7707Z" fill="#FBEFDC"/>
<path d="M159.025 39.6055C159.239 39.9774 159.118 40.4689 158.729 40.6814C158.354 40.894 157.858 40.7744 157.643 40.3892C157.428 40.0173 157.549 39.5258 157.938 39.3133C158.314 39.1008 158.81 39.2203 159.025 39.6055Z" fill="#373737"/>
<path d="M160.996 41.8369C163.182 44.002 166.724 44.002 168.91 41.8369C171.096 39.6718 171.096 36.1651 168.91 34L160.996 41.8369Z" fill="#9E5E21"/>
<path d="M31.8567 8.49882C31.5822 5.20212 27.8149 2.82957 23.441 3.1939C23.0072 3.22944 22.5911 3.30053 22.1794 3.38494C20.2846 1.10125 16.9201 -0.267186 13.2148 0.0438223C9.53598 0.350388 6.45925 2.22977 4.94965 4.76671C2.00573 5.23767 -0.159053 7.10816 0.00917168 9.15638C0.177396 11.2001 2.62108 12.6885 5.60484 12.6663C7.50843 14.9145 10.8508 16.2607 14.5296 15.9541C16.4332 15.7942 18.173 15.2166 19.6206 14.3413C21.0018 14.9678 22.6619 15.2744 24.4327 15.1277C28.8065 14.7634 32.1312 11.7955 31.8611 8.49882H31.8567Z" fill="white"/>
</svg>
