<svg width="316" height="86" viewBox="0 0 316 86" fill="none" xmlns="http://www.w3.org/2000/svg">
<path d="M128.314 24.4824L81.084 85.6738H175.544L128.314 24.4824Z" fill="#AA6A20"/>
<path d="M128.314 24.4824L81.084 85.6738H175.544L128.314 24.4824Z" fill="black" fill-opacity="0.6"/>
<path d="M128.314 24.4814L142.997 85.6729H175.544L128.314 24.4814Z" fill="#9E5E21"/>
<path d="M128.314 24.4814L142.997 85.6729H175.544L128.314 24.4814Z" fill="black" fill-opacity="0.6"/>
<path d="M81.084 85.6738H113.631L128.314 24.4824L81.084 85.6738Z" fill="#B6761F"/>
<path d="M81.084 85.6738H113.631L128.314 24.4824L81.084 85.6738Z" fill="black" fill-opacity="0.6"/>
<path d="M128.314 24.4814L114.502 42.3817C115.188 42.6112 116.606 41.8126 117.32 42.0145C118.034 42.2073 118.173 43.4374 118.914 43.5934C119.647 43.7495 120.852 42.8132 121.612 42.9417C122.363 43.061 122.789 44.2544 123.559 44.337C124.319 44.4196 125.283 43.3731 126.062 43.4098C126.831 43.4466 127.535 44.5848 128.314 44.5848C129.083 44.5848 129.788 43.4466 130.567 43.4098C131.336 43.3731 132.3 44.4196 133.07 44.337C133.839 44.2544 134.275 43.061 135.016 42.9417C135.776 42.8223 136.981 43.7587 137.714 43.6026C138.455 43.4466 138.604 42.2165 139.308 42.0237C140.031 41.8309 141.44 42.6296 142.126 42.3909L128.305 24.4906L128.314 24.4814Z" fill="#F1F3F4"/>
<path d="M128.314 24.4814L114.502 42.3817C115.188 42.6112 116.606 41.8126 117.32 42.0145C118.034 42.2073 118.173 43.4374 118.914 43.5934C119.647 43.7495 120.852 42.8132 121.612 42.9417C122.363 43.061 122.789 44.2544 123.559 44.337C124.319 44.4196 125.283 43.3731 126.062 43.4098C126.831 43.4466 127.535 44.5848 128.314 44.5848C129.083 44.5848 129.788 43.4466 130.567 43.4098C131.336 43.3731 132.3 44.4196 133.07 44.337C133.839 44.2544 134.275 43.061 135.016 42.9417C135.776 42.8223 136.981 43.7587 137.714 43.6026C138.455 43.4466 138.604 42.2165 139.308 42.0237C140.031 41.8309 141.44 42.6296 142.126 42.3909L128.305 24.4906L128.314 24.4814Z" fill="black" fill-opacity="0.6"/>
<path d="M133.079 44.319C133.848 44.2364 134.284 43.043 135.025 42.9237C135.785 42.8044 136.991 43.7407 137.723 43.5846C138.464 43.4286 138.613 42.1985 139.317 42.0057C140.04 41.813 141.449 42.6116 142.135 42.3729L128.314 24.4727L133.069 44.3098L133.079 44.319Z" fill="#E2E7EA"/>
<path d="M133.079 44.319C133.848 44.2364 134.284 43.043 135.025 42.9237C135.785 42.8044 136.991 43.7407 137.723 43.5846C138.464 43.4286 138.613 42.1985 139.317 42.0057C140.04 41.813 141.449 42.6116 142.135 42.3729L128.314 24.4727L133.069 44.3098L133.079 44.319Z" fill="black" fill-opacity="0.6"/>
<path d="M114.502 42.3725C115.188 42.602 116.606 41.8034 117.32 42.0054C118.034 42.1981 118.173 43.4282 118.914 43.5843C119.647 43.7403 120.852 42.804 121.612 42.9325C122.363 43.0518 122.789 44.2452 123.559 44.3278L128.323 24.4814L114.511 42.3817L114.502 42.3725Z" fill="white"/>
<path d="M114.502 42.3725C115.188 42.602 116.606 41.8034 117.32 42.0054C118.034 42.1981 118.173 43.4282 118.914 43.5843C119.647 43.7403 120.852 42.804 121.612 42.9325C122.363 43.0518 122.789 44.2452 123.559 44.3278L128.323 24.4814L114.511 42.3817L114.502 42.3725Z" fill="black" fill-opacity="0.6"/>
<path d="M66.1221 0L0 85.6735H132.253L66.1221 0Z" fill="#AA6A20"/>
<path d="M66.1221 0L0 85.6735H132.253L66.1221 0Z" fill="black" fill-opacity="0.6"/>
<path d="M66.1221 0L86.6827 85.6735H132.253L66.1221 0Z" fill="#9E5E21"/>
<path d="M66.1221 0L86.6827 85.6735H132.253L66.1221 0Z" fill="black" fill-opacity="0.6"/>
<path d="M0 85.6735H45.5707L66.1221 0L0 85.6735Z" fill="#B6761F"/>
<path d="M0 85.6735H45.5707L66.1221 0L0 85.6735Z" fill="black" fill-opacity="0.6"/>
<path d="M66.1221 0L46.7852 25.0604C47.7492 25.3817 49.7237 24.2709 50.7249 24.5463C51.726 24.8217 51.9207 26.5291 52.9589 26.7586C53.9879 26.9789 55.675 25.6754 56.7317 25.8407C57.7792 26.0059 58.3818 27.6766 59.4571 27.7867C60.5231 27.8969 61.8765 26.4282 62.9611 26.4832C64.0364 26.5383 65.0283 28.1264 66.1221 28.1264C67.1974 28.1264 68.1893 26.5383 69.2739 26.4832C70.3492 26.4282 71.7026 27.8969 72.7872 27.7776C73.8717 27.6674 74.4743 25.9967 75.5218 25.8315C76.5878 25.6662 78.2657 26.9698 79.2946 26.7586C80.3329 26.5383 80.5368 24.8217 81.5287 24.5555C82.5391 24.2801 84.5136 25.4 85.4684 25.0788L66.1221 0Z" fill="#F1F3F4"/>
<path d="M66.1221 0L46.7852 25.0604C47.7492 25.3817 49.7237 24.2709 50.7249 24.5463C51.726 24.8217 51.9207 26.5291 52.9589 26.7586C53.9879 26.9789 55.675 25.6754 56.7317 25.8407C57.7792 26.0059 58.3818 27.6766 59.4571 27.7867C60.5231 27.8969 61.8765 26.4282 62.9611 26.4832C64.0364 26.5383 65.0283 28.1264 66.1221 28.1264C67.1974 28.1264 68.1893 26.5383 69.2739 26.4832C70.3492 26.4282 71.7026 27.8969 72.7872 27.7776C73.8717 27.6674 74.4743 25.9967 75.5218 25.8315C76.5878 25.6662 78.2657 26.9698 79.2946 26.7586C80.3329 26.5383 80.5368 24.8217 81.5287 24.5555C82.5391 24.2801 84.5136 25.4 85.4684 25.0788L66.1221 0Z" fill="black" fill-opacity="0.6"/>
<path d="M72.7871 27.7776C73.8717 27.6674 74.4742 25.9967 75.5217 25.8315C76.5878 25.6662 78.2656 26.9698 79.2946 26.7586C80.3328 26.5383 80.5367 24.8217 81.5286 24.5555C82.539 24.2801 84.5135 25.4 85.4683 25.0788L66.1221 0L72.7871 27.7776Z" fill="#E2E7EA"/>
<path d="M72.7871 27.7776C73.8717 27.6674 74.4742 25.9967 75.5217 25.8315C76.5878 25.6662 78.2656 26.9698 79.2946 26.7586C80.3328 26.5383 80.5367 24.8217 81.5286 24.5555C82.539 24.2801 84.5135 25.4 85.4683 25.0788L66.1221 0L72.7871 27.7776Z" fill="black" fill-opacity="0.6"/>
<path d="M46.7852 25.0604C47.7492 25.3817 49.7237 24.2709 50.7249 24.5463C51.726 24.8217 51.9207 26.5291 52.9589 26.7586C53.9879 26.9789 55.675 25.6754 56.7317 25.8407C57.7792 26.0059 58.3818 27.6766 59.4571 27.7867L66.1221 0L46.7852 25.0604Z" fill="white"/>
<path d="M46.7852 25.0604C47.7492 25.3817 49.7237 24.2709 50.7249 24.5463C51.726 24.8217 51.9207 26.5291 52.9589 26.7586C53.9879 26.9789 55.675 25.6754 56.7317 25.8407C57.7792 26.0059 58.3818 27.6766 59.4571 27.7867L66.1221 0L46.7852 25.0604Z" fill="black" fill-opacity="0.6"/>
<path d="M215.321 67.9105C215.321 75.5938 213.013 77.852 210.157 77.852C207.302 77.852 204.994 75.5938 204.994 67.9105C204.994 60.2271 207.302 53.9941 210.157 53.9941C213.013 53.9941 215.321 60.2271 215.321 67.9105Z" fill="#F09321"/>
<path d="M215.321 67.9105C215.321 75.5938 213.013 77.852 210.157 77.852C207.302 77.852 204.994 75.5938 204.994 67.9105C204.994 60.2271 207.302 53.9941 210.157 53.9941C213.013 53.9941 215.321 60.2271 215.321 67.9105Z" fill="black" fill-opacity="0.6"/>
<path d="M210.167 67.626L208.869 82.956H211.455L210.167 67.626Z" fill="#9E5E21"/>
<path d="M210.167 67.626L208.869 82.956H211.455L210.167 67.626Z" fill="black" fill-opacity="0.6"/>
<path d="M229.967 61.7607H225.397V82.9657H229.967V61.7607Z" fill="#9E5E21"/>
<path d="M229.967 61.7607H225.397V82.9657H229.967V61.7607Z" fill="black" fill-opacity="0.6"/>
<path d="M237.587 73.8229H217.777L227.678 42.043L237.587 73.8229Z" fill="#A0982C"/>
<path d="M237.587 73.8229H217.777L227.678 42.043L237.587 73.8229Z" fill="black" fill-opacity="0.6"/>
<path d="M235.872 60.926H219.483L227.677 34.6172L235.872 60.926Z" fill="#A0982C"/>
<path d="M235.872 60.926H219.483L227.677 34.6172L235.872 60.926Z" fill="black" fill-opacity="0.6"/>
<path d="M233.907 47.9093H221.458L227.678 27.916L233.907 47.9093Z" fill="#A0982C"/>
<path d="M233.907 47.9093H221.458L227.678 27.916L233.907 47.9093Z" fill="black" fill-opacity="0.6"/>
<path d="M232.099 36.8017H223.265L227.678 22.6191L232.099 36.8017Z" fill="#A0982C"/>
<path d="M232.099 36.8017H223.265L227.678 22.6191L232.099 36.8017Z" fill="black" fill-opacity="0.6"/>
<path d="M188.549 69.2143C195.65 69.2143 201.407 63.5139 201.407 56.4821C201.407 49.4504 195.65 43.75 188.549 43.75C181.448 43.75 175.692 49.4504 175.692 56.4821C175.692 63.5139 181.448 69.2143 188.549 69.2143Z" fill="#EF7D22"/>
<path d="M188.549 69.2143C195.65 69.2143 201.407 63.5139 201.407 56.4821C201.407 49.4504 195.65 43.75 188.549 43.75C181.448 43.75 175.692 49.4504 175.692 56.4821C175.692 63.5139 181.448 69.2143 188.549 69.2143Z" fill="black" fill-opacity="0.6"/>
<path d="M169.694 71.2524C176.795 71.2524 182.552 65.552 182.552 58.5202C182.552 51.4885 176.795 45.7881 169.694 45.7881C162.593 45.7881 156.837 51.4885 156.837 58.5202C156.837 65.552 162.593 71.2524 169.694 71.2524Z" fill="#EF7D22"/>
<path d="M169.694 71.2524C176.795 71.2524 182.552 65.552 182.552 58.5202C182.552 51.4885 176.795 45.7881 169.694 45.7881C162.593 45.7881 156.837 51.4885 156.837 58.5202C156.837 65.552 162.593 71.2524 169.694 71.2524Z" fill="black" fill-opacity="0.6"/>
<path d="M179.094 52.4063C184.771 52.4063 189.374 47.8485 189.374 42.2261C189.374 36.6037 184.771 32.0459 179.094 32.0459C173.416 32.0459 168.813 36.6037 168.813 42.2261C168.813 47.8485 173.416 52.4063 179.094 52.4063Z" fill="#EF7D22"/>
<path d="M179.094 52.4063C184.771 52.4063 189.374 47.8485 189.374 42.2261C189.374 36.6037 184.771 32.0459 179.094 32.0459C173.416 32.0459 168.813 36.6037 168.813 42.2261C168.813 47.8485 173.416 52.4063 179.094 52.4063Z" fill="black" fill-opacity="0.6"/>
<path d="M182.384 74.8042C186.926 74.8042 190.607 71.1588 190.607 66.6619C190.607 62.165 186.926 58.5195 182.384 58.5195C177.843 58.5195 174.162 62.165 174.162 66.6619C174.162 71.1588 177.843 74.8042 182.384 74.8042Z" fill="#EF7D22"/>
<path d="M182.384 74.8042C186.926 74.8042 190.607 71.1588 190.607 66.6619C190.607 62.165 186.926 58.5195 182.384 58.5195C177.843 58.5195 174.162 62.165 174.162 66.6619C174.162 71.1588 177.843 74.8042 182.384 74.8042Z" fill="black" fill-opacity="0.6"/>
<path d="M179.122 42.2266L177.407 82.9566H180.837L179.122 42.2266Z" fill="#9E5E21"/>
<path d="M179.122 42.2266L177.407 82.9566H180.837L179.122 42.2266Z" fill="black" fill-opacity="0.6"/>
<path d="M179.122 49.1113V50.3322L186.186 42.2266L179.122 49.1113Z" fill="#9E5E21"/>
<path d="M179.122 49.1113V50.3322L186.186 42.2266L179.122 49.1113Z" fill="black" fill-opacity="0.6"/>
<path d="M179.122 58.3181V59.8419L169.129 49.7168L179.122 58.3181Z" fill="#9E5E21"/>
<path d="M179.122 58.3181V59.8419L169.129 49.7168L179.122 58.3181Z" fill="black" fill-opacity="0.6"/>
<path d="M179.122 67.8007V69.6366L190.431 58.1621L179.122 67.8007Z" fill="#9E5E21"/>
<path d="M179.122 67.8007V69.6366L190.431 58.1621L179.122 67.8007Z" fill="black" fill-opacity="0.6"/>
<path d="M249.134 80.8459L249.51 80.5332L244.809 74.985L244.433 75.2977L249.134 80.8459Z" fill="#A0982C"/>
<path d="M249.134 80.8459L249.51 80.5332L244.809 74.985L244.433 75.2977L249.134 80.8459Z" fill="black" fill-opacity="0.6"/>
<path d="M244.465 71.5826C242.519 69.2785 239.107 69.0215 239.107 69.0215L245.374 76.4203C245.457 75.4564 246.412 73.8867 244.456 71.5918L244.465 71.5826Z" fill="#A0982C"/>
<path d="M244.465 71.5826C242.519 69.2785 239.107 69.0215 239.107 69.0215L245.374 76.4203C245.457 75.4564 246.412 73.8867 244.456 71.5918L244.465 71.5826Z" fill="black" fill-opacity="0.6"/>
<path d="M240.729 74.6853C238.783 72.3812 239.107 69.0215 239.107 69.0215L245.374 76.4203C244.4 76.3285 242.676 76.9894 240.729 74.6945V74.6853Z" fill="#B3A330"/>
<path d="M240.729 74.6853C238.783 72.3812 239.107 69.0215 239.107 69.0215L245.374 76.4203C244.4 76.3285 242.676 76.9894 240.729 74.6945V74.6853Z" fill="black" fill-opacity="0.6"/>
<path d="M249.498 77.9343L249.874 78.2471L254.575 72.6988L254.199 72.3861L249.498 77.9343Z" fill="#A0982C"/>
<path d="M249.498 77.9343L249.874 78.2471L254.575 72.6988L254.199 72.3861L249.498 77.9343Z" fill="black" fill-opacity="0.6"/>
<path d="M257.916 71.7576C259.862 69.4535 259.538 66.0938 259.538 66.0938L253.271 73.4925C254.245 73.4007 255.969 74.0617 257.916 71.7668V71.7576Z" fill="#A0982C"/>
<path d="M257.916 71.7576C259.862 69.4535 259.538 66.0938 259.538 66.0938L253.271 73.4925C254.245 73.4007 255.969 74.0617 257.916 71.7668V71.7576Z" fill="black" fill-opacity="0.6"/>
<path d="M254.18 68.6549C256.127 66.3508 259.538 66.0938 259.538 66.0938L253.272 73.4925C253.188 72.5287 252.234 70.959 254.19 68.664L254.18 68.6549Z" fill="#B3A330"/>
<path d="M254.18 68.6549C256.127 66.3508 259.538 66.0938 259.538 66.0938L253.272 73.4925C253.188 72.5287 252.234 70.959 254.19 68.664L254.18 68.6549Z" fill="black" fill-opacity="0.6"/>
<path d="M249.879 66.002H249.146V82.5987H249.879V66.002Z" fill="#A0982C"/>
<path d="M249.879 66.002H249.146V82.5987H249.879V66.002Z" fill="black" fill-opacity="0.6"/>
<path d="M249.415 65.0377C247.117 68.7921 245.429 68.1771 245.049 67.3785C244.845 66.9287 244.892 66.3412 245.411 65.8363C245.958 65.3406 246.968 64.9275 249.314 64.8816C246.959 64.8357 245.958 64.4226 245.411 63.9269C244.892 63.422 244.836 62.8345 245.049 62.3756C245.42 61.5861 247.107 60.9711 249.406 64.7256C247.2 60.8334 248.581 59.998 249.508 59.9062C250.417 60.0072 251.798 60.8334 249.592 64.7256C251.891 60.9711 253.578 61.5861 253.958 62.3847C254.162 62.8345 254.115 63.422 253.596 63.9269C253.049 64.4226 252.039 64.8357 249.694 64.8816C252.048 64.9275 253.049 65.3406 253.596 65.8363C254.115 66.3412 254.171 66.9287 253.958 67.3877C253.587 68.1771 251.9 68.7921 249.601 65.0377C251.807 68.9298 250.426 69.7652 249.499 69.857C248.59 69.756 247.209 68.9298 249.415 65.0377Z" fill="#FFE078"/>
<path d="M249.415 65.0377C247.117 68.7921 245.429 68.1771 245.049 67.3785C244.845 66.9287 244.892 66.3412 245.411 65.8363C245.958 65.3406 246.968 64.9275 249.314 64.8816C246.959 64.8357 245.958 64.4226 245.411 63.9269C244.892 63.422 244.836 62.8345 245.049 62.3756C245.42 61.5861 247.107 60.9711 249.406 64.7256C247.2 60.8334 248.581 59.998 249.508 59.9062C250.417 60.0072 251.798 60.8334 249.592 64.7256C251.891 60.9711 253.578 61.5861 253.958 62.3847C254.162 62.8345 254.115 63.422 253.596 63.9269C253.049 64.4226 252.039 64.8357 249.694 64.8816C252.048 64.9275 253.049 65.3406 253.596 65.8363C254.115 66.3412 254.171 66.9287 253.958 67.3877C253.587 68.1771 251.9 68.7921 249.601 65.0377C251.807 68.9298 250.426 69.7652 249.499 69.857C248.59 69.756 247.209 68.9298 249.415 65.0377Z" fill="black" fill-opacity="0.6"/>
<path d="M250.565 64.8812C250.565 65.4412 250.092 65.9002 249.508 65.9002C248.924 65.9002 248.451 65.4412 248.451 64.8812C248.451 64.3213 248.924 63.8623 249.508 63.8623C250.092 63.8623 250.565 64.3213 250.565 64.8812Z" fill="#FF5538"/>
<path d="M250.565 64.8812C250.565 65.4412 250.092 65.9002 249.508 65.9002C248.924 65.9002 248.451 65.4412 248.451 64.8812C248.451 64.3213 248.924 63.8623 249.508 63.8623C250.092 63.8623 250.565 64.3213 250.565 64.8812Z" fill="black" fill-opacity="0.6"/>
<path d="M269.726 70.7745C269.596 67.3138 270.226 64.9822 270.236 64.9638C270.319 64.6609 270.134 64.358 269.828 64.2754C269.522 64.1928 269.207 64.3672 269.123 64.6701C269.095 64.7711 268.446 67.1486 268.576 70.7745C268.687 74.1068 269.522 79.1647 272.794 84.3237C272.915 84.5073 273.118 84.5991 273.322 84.5899C273.415 84.5899 273.499 84.5532 273.582 84.5073C273.851 84.342 273.934 83.9932 273.767 83.7362C270.634 78.8067 269.846 73.9691 269.726 70.7837V70.7745Z" fill="#B6761F"/>
<path d="M269.726 70.7745C269.596 67.3138 270.226 64.9822 270.236 64.9638C270.319 64.6609 270.134 64.358 269.828 64.2754C269.522 64.1928 269.207 64.3672 269.123 64.6701C269.095 64.7711 268.446 67.1486 268.576 70.7745C268.687 74.1068 269.522 79.1647 272.794 84.3237C272.915 84.5073 273.118 84.5991 273.322 84.5899C273.415 84.5899 273.499 84.5532 273.582 84.5073C273.851 84.342 273.934 83.9932 273.767 83.7362C270.634 78.8067 269.846 73.9691 269.726 70.7837V70.7745Z" fill="black" fill-opacity="0.6"/>
<path d="M274.24 72.7387C274.213 72.4634 273.962 72.2522 273.675 72.2798C273.388 72.3073 273.184 72.5551 273.211 72.8305C273.211 72.8856 273.74 78.834 270.078 83.7635C269.911 83.993 269.958 84.3051 270.189 84.4795C270.254 84.5254 270.328 84.5529 270.403 84.5713C270.588 84.608 270.792 84.5346 270.912 84.3693C274.815 79.1186 274.268 72.9958 274.24 72.7387Z" fill="#B6761F"/>
<path d="M274.24 72.7387C274.213 72.4634 273.962 72.2522 273.675 72.2798C273.388 72.3073 273.184 72.5551 273.211 72.8305C273.211 72.8856 273.74 78.834 270.078 83.7635C269.911 83.993 269.958 84.3051 270.189 84.4795C270.254 84.5254 270.328 84.5529 270.403 84.5713C270.588 84.608 270.792 84.5346 270.912 84.3693C274.815 79.1186 274.268 72.9958 274.24 72.7387Z" fill="black" fill-opacity="0.6"/>
<path d="M272.729 65.0558C272.729 66.9468 271.302 66.1941 269.54 66.1941C267.779 66.1941 266.352 66.9468 266.352 65.0558C266.352 63.1648 267.779 61.6318 269.54 61.6318C271.302 61.6318 272.729 63.1648 272.729 65.0558Z" fill="#EE7222"/>
<path d="M272.729 65.0558C272.729 66.9468 271.302 66.1941 269.54 66.1941C267.779 66.1941 266.352 66.9468 266.352 65.0558C266.352 63.1648 267.779 61.6318 269.54 61.6318C271.302 61.6318 272.729 63.1648 272.729 65.0558Z" fill="black" fill-opacity="0.6"/>
<path d="M276.001 72.7572C275.983 74.1709 274.917 73.6018 273.6 73.5834C272.284 73.565 271.199 74.1158 271.218 72.693C271.237 71.2701 272.321 70.141 273.647 70.1594C274.963 70.1778 276.02 71.3436 276.001 72.7572Z" fill="#EE7222"/>
<path d="M276.001 72.7572C275.983 74.1709 274.917 73.6018 273.6 73.5834C272.284 73.565 271.199 74.1158 271.218 72.693C271.237 71.2701 272.321 70.141 273.647 70.1594C274.963 70.1778 276.02 71.3436 276.001 72.7572Z" fill="black" fill-opacity="0.6"/>
<path d="M298.834 66.2543L299.231 65.9238L294.268 60.0662L293.87 60.3966L298.834 66.2543Z" fill="#B3A330"/>
<path d="M298.834 66.2543L299.231 65.9238L294.268 60.0662L293.87 60.3966L298.834 66.2543Z" fill="black" fill-opacity="0.6"/>
<path d="M293.892 56.4453C291.834 54.0127 288.237 53.7373 288.237 53.7373L294.856 61.5492C294.939 60.5302 295.95 58.8779 293.892 56.4453Z" fill="#B3A330"/>
<path d="M293.892 56.4453C291.834 54.0127 288.237 53.7373 288.237 53.7373L294.856 61.5492C294.939 60.5302 295.95 58.8779 293.892 56.4453Z" fill="black" fill-opacity="0.6"/>
<path d="M289.952 59.7224C287.894 57.2898 288.237 53.7373 288.237 53.7373L294.856 61.5492C293.827 61.4574 292.01 62.155 289.943 59.7224H289.952Z" fill="#A0982C"/>
<path d="M289.952 59.7224C287.894 57.2898 288.237 53.7373 288.237 53.7373L294.856 61.5492C293.827 61.4574 292.01 62.155 289.943 59.7224H289.952Z" fill="black" fill-opacity="0.6"/>
<path d="M299.211 62.5465L299.608 62.877L304.572 57.0193L304.174 56.6889L299.211 62.5465Z" fill="#B3A330"/>
<path d="M299.211 62.5465L299.608 62.877L304.572 57.0193L304.174 56.6889L299.211 62.5465Z" fill="black" fill-opacity="0.6"/>
<path d="M308.103 56.0232C310.161 53.5906 309.818 50.0381 309.818 50.0381L303.199 57.85C304.228 57.7582 306.045 58.4558 308.112 56.0232H308.103Z" fill="#B3A330"/>
<path d="M308.103 56.0232C310.161 53.5906 309.818 50.0381 309.818 50.0381L303.199 57.85C304.228 57.7582 306.045 58.4558 308.112 56.0232H308.103Z" fill="black" fill-opacity="0.6"/>
<path d="M304.163 52.7461C306.221 50.3135 309.818 50.0381 309.818 50.0381L303.199 57.85C303.116 56.831 302.105 55.1787 304.163 52.7461Z" fill="#A0982C"/>
<path d="M304.163 52.7461C306.221 50.3135 309.818 50.0381 309.818 50.0381L303.199 57.85C303.116 56.831 302.105 55.1787 304.163 52.7461Z" fill="black" fill-opacity="0.6"/>
<path d="M299.215 75.948L299.548 76.3418L309.412 68.1459L309.078 67.7521L299.215 75.948Z" fill="#B3A330"/>
<path d="M299.215 75.948L299.548 76.3418L309.412 68.1459L309.078 67.7521L299.215 75.948Z" fill="black" fill-opacity="0.6"/>
<path d="M313.062 67.7822C315.519 65.7443 315.797 62.1826 315.797 62.1826L307.908 68.7369C308.937 68.8195 310.606 69.8201 313.062 67.7822Z" fill="#B3A330"/>
<path d="M313.062 67.7822C315.519 65.7443 315.797 62.1826 315.797 62.1826L307.908 68.7369C308.937 68.8195 310.606 69.8201 313.062 67.7822Z" fill="black" fill-opacity="0.6"/>
<path d="M309.753 63.8718C312.209 61.8339 315.797 62.1736 315.797 62.1736L307.908 68.7278C308.001 67.7089 307.296 65.9097 309.753 63.8626V63.8718Z" fill="#A0982C"/>
<path d="M309.753 63.8718C312.209 61.8339 315.797 62.1736 315.797 62.1736L307.908 68.7278C308.001 67.7089 307.296 65.9097 309.753 63.8626V63.8718Z" fill="black" fill-opacity="0.6"/>
<path d="M298.876 78.9797L299.21 78.5859L289.346 70.3901L289.013 70.7839L298.876 78.9797Z" fill="#B3A330"/>
<path d="M298.876 78.9797L299.21 78.5859L289.346 70.3901L289.013 70.7839L298.876 78.9797Z" fill="black" fill-opacity="0.6"/>
<path d="M288.367 66.9109C285.911 64.873 282.323 65.2126 282.323 65.2126L290.212 71.7669C290.119 70.748 290.824 68.9487 288.367 66.9017V66.9109Z" fill="#B3A330"/>
<path d="M288.367 66.9109C285.911 64.873 282.323 65.2126 282.323 65.2126L290.212 71.7669C290.119 70.748 290.824 68.9487 288.367 66.9017V66.9109Z" fill="black" fill-opacity="0.6"/>
<path d="M285.058 70.8213C282.601 68.7834 282.323 65.2217 282.323 65.2217L290.212 71.7759C289.183 71.8586 287.514 72.8591 285.058 70.8213Z" fill="#A0982C"/>
<path d="M285.058 70.8213C282.601 68.7834 282.323 65.2217 282.323 65.2217L290.212 71.7759C289.183 71.8586 287.514 72.8591 285.058 70.8213Z" fill="black" fill-opacity="0.6"/>
<path d="M305.69 66.2316L306.139 65.9746L302.278 59.3524L301.829 59.6095L305.69 66.2316Z" fill="#B3A330"/>
<path d="M305.69 66.2316L306.139 65.9746L302.278 59.3524L301.829 59.6095L305.69 66.2316Z" fill="black" fill-opacity="0.6"/>
<path d="M303.616 66.2407C303.051 65.2677 303.385 64.0192 304.367 63.4501C305.35 62.8901 306.611 63.2206 307.185 64.1936C307.751 65.1667 307.417 66.4151 306.434 66.9843C305.452 67.5442 304.191 67.2137 303.616 66.2407Z" fill="#FF5538"/>
<path d="M303.616 66.2407C303.051 65.2677 303.385 64.0192 304.367 63.4501C305.35 62.8901 306.611 63.2206 307.185 64.1936C307.751 65.1667 307.417 66.4151 306.434 66.9843C305.452 67.5442 304.191 67.2137 303.616 66.2407Z" fill="black" fill-opacity="0.6"/>
<path d="M310.071 77.2199L310.438 76.8564L304.978 71.4495L304.611 71.813L310.071 77.2199Z" fill="#B3A330"/>
<path d="M310.071 77.2199L310.438 76.8564L304.978 71.4495L304.611 71.813L310.071 77.2199Z" fill="black" fill-opacity="0.6"/>
<path d="M308.066 77.7607C307.259 76.962 307.259 75.6769 308.066 74.8783C308.872 74.0796 310.17 74.0796 310.977 74.8783C311.783 75.6769 311.783 76.962 310.977 77.7607C310.17 78.5593 308.872 78.5593 308.066 77.7607Z" fill="#FF5538"/>
<path d="M308.066 77.7607C307.259 76.962 307.259 75.6769 308.066 74.8783C308.872 74.0796 310.17 74.0796 310.977 74.8783C311.783 75.6769 311.783 76.962 310.977 77.7607C310.17 78.5593 308.872 78.5593 308.066 77.7607Z" fill="black" fill-opacity="0.6"/>
<path d="M295.102 66.3528L294.601 66.2197L292.603 73.6058L293.104 73.7389L295.102 66.3528Z" fill="#B3A330"/>
<path d="M295.102 66.3528L294.601 66.2197L292.603 73.6058L293.104 73.7389L295.102 66.3528Z" fill="black" fill-opacity="0.6"/>
<path d="M296.58 67.8004C296.284 68.8928 295.153 69.5354 294.059 69.2416C292.956 68.9479 292.307 67.8279 292.604 66.7447C292.9 65.6524 294.031 65.0098 295.125 65.3035C296.219 65.5973 296.877 66.7172 296.58 67.8004Z" fill="#FF5538"/>
<path d="M296.58 67.8004C296.284 68.8928 295.153 69.5354 294.059 69.2416C292.956 68.9479 292.307 67.8279 292.604 66.7447C292.9 65.6524 294.031 65.0098 295.125 65.3035C296.219 65.5973 296.877 66.7172 296.58 67.8004Z" fill="black" fill-opacity="0.6"/>
<path d="M287.335 76.4683L287.425 76.9746L295.029 75.6468L294.939 75.1405L287.335 76.4683Z" fill="#B3A330"/>
<path d="M287.335 76.4683L287.425 76.9746L295.029 75.6468L294.939 75.1405L287.335 76.4683Z" fill="black" fill-opacity="0.6"/>
<path d="M288.052 74.5385C289.174 74.3458 290.24 75.0801 290.434 76.1909C290.629 77.3016 289.888 78.3573 288.766 78.55C287.644 78.7428 286.578 78.0084 286.384 76.8977C286.189 75.787 286.93 74.7313 288.052 74.5385Z" fill="#FF5538"/>
<path d="M288.052 74.5385C289.174 74.3458 290.24 75.0801 290.434 76.1909C290.629 77.3016 289.888 78.3573 288.766 78.55C287.644 78.7428 286.578 78.0084 286.384 76.8977C286.189 75.787 286.93 74.7313 288.052 74.5385Z" fill="black" fill-opacity="0.6"/>
<path d="M299.602 54.0039H298.833V83.0758H299.602V54.0039Z" fill="#B3A330"/>
<path d="M299.602 54.0039H298.833V83.0758H299.602V54.0039Z" fill="black" fill-opacity="0.6"/>
<path d="M301.799 50.4972C301.799 47.3211 299.222 44.8242 299.222 44.8242V55.0228C299.954 54.2976 301.799 53.6734 301.799 50.4972Z" fill="#B3A330"/>
<path d="M301.799 50.4972C301.799 47.3211 299.222 44.8242 299.222 44.8242V55.0228C299.954 54.2976 301.799 53.6734 301.799 50.4972Z" fill="black" fill-opacity="0.6"/>
<path d="M296.645 50.4972C296.645 47.3211 299.222 44.8242 299.222 44.8242V55.0228C298.49 54.2976 296.645 53.6734 296.645 50.4972Z" fill="#A0982C"/>
<path d="M296.645 50.4972C296.645 47.3211 299.222 44.8242 299.222 44.8242V55.0228C298.49 54.2976 296.645 53.6734 296.645 50.4972Z" fill="black" fill-opacity="0.6"/>
<path d="M272.88 19.0988C268.842 18.0261 265.973 21.7178 264.116 23.7377C262.329 25.6881 261.893 26.9836 260.894 27.5409L254.676 29.3658C255.914 30.4385 257.926 31.2465 260.81 30.6335C260.88 30.7589 261.794 31.4554 263.201 32.0684L275.933 24.1278C276.58 22.0382 275.06 19.6839 272.894 19.1127L272.88 19.0988Z" fill="#C5914C"/>
<path d="M272.88 19.0988C268.842 18.0261 265.973 21.7178 264.116 23.7377C262.329 25.6881 261.893 26.9836 260.894 27.5409L254.676 29.3658C255.914 30.4385 257.926 31.2465 260.81 30.6335C260.88 30.7589 261.794 31.4554 263.201 32.0684L275.933 24.1278C276.58 22.0382 275.06 19.6839 272.894 19.1127L272.88 19.0988Z" fill="black" fill-opacity="0.6"/>
<path d="M277.156 23.2367L274.877 25.2567L274.16 22.6377L277.156 23.2367Z" fill="#B6761F"/>
<path d="M277.156 23.2367L274.877 25.2567L274.16 22.6377L277.156 23.2367Z" fill="black" fill-opacity="0.6"/>
<path d="M275.918 24.1138C276.157 23.3476 276.101 22.5535 275.834 21.8152C275.496 20.5893 274.033 19.7952 272.682 20.1574C270.755 20.6729 269.869 22.3724 270.544 24.5874C270.825 25.5905 270.164 26.5935 269.137 26.7746C268.617 26.8721 268.096 27.0114 267.576 27.2064C265.001 28.1955 263.271 30.1876 263.187 32.0544C265.508 33.0574 269.137 33.8236 272.429 31.3021C274.089 30.0344 274.764 27.889 274.511 26.092C275.158 25.6183 275.679 24.9357 275.932 24.1138H275.918Z" fill="#FBEFDC"/>
<path d="M275.918 24.1138C276.157 23.3476 276.101 22.5535 275.834 21.8152C275.496 20.5893 274.033 19.7952 272.682 20.1574C270.755 20.6729 269.869 22.3724 270.544 24.5874C270.825 25.5905 270.164 26.5935 269.137 26.7746C268.617 26.8721 268.096 27.0114 267.576 27.2064C265.001 28.1955 263.271 30.1876 263.187 32.0544C265.508 33.0574 269.137 33.8236 272.429 31.3021C274.089 30.0344 274.764 27.889 274.511 26.092C275.158 25.6183 275.679 24.9357 275.932 24.1138H275.918Z" fill="black" fill-opacity="0.6"/>
<path d="M272.514 22.6233C272.387 23.0691 272.669 23.5427 273.119 23.6542C273.569 23.7796 274.047 23.5009 274.16 23.0552C274.287 22.6094 274.005 22.1357 273.555 22.0243C273.105 21.8989 272.627 22.1775 272.514 22.6233Z" fill="#373737"/>
<path d="M272.514 22.6233C272.387 23.0691 272.669 23.5427 273.119 23.6542C273.569 23.7796 274.047 23.5009 274.16 23.0552C274.287 22.6094 274.005 22.1357 273.555 22.0243C273.105 21.8989 272.627 22.1775 272.514 22.6233Z" fill="black" fill-opacity="0.6"/>
<path d="M271.079 25.479C269.419 28.3209 265.747 29.296 262.864 27.6522C259.994 26.0084 259.009 22.3724 260.669 19.5166L271.079 25.4651V25.479Z" fill="#9E5E21"/>
<path d="M271.079 25.479C269.419 28.3209 265.747 29.296 262.864 27.6522C259.994 26.0084 259.009 22.3724 260.669 19.5166L271.079 25.4651V25.479Z" fill="black" fill-opacity="0.6"/>
</svg>
