<svg width="251" height="84" viewBox="0 0 251 84" fill="none" xmlns="http://www.w3.org/2000/svg">
<path d="M120.213 64.2051H117.213V83.2051H120.213V64.2051Z" fill="#9E5E21"/>
<path d="M120.213 64.2051H117.213V83.2051H120.213V64.2051Z" fill="black" fill-opacity="0.6"/>
<path d="M125.312 72.4055H112L118.656 51.0537L125.312 72.4055Z" fill="#A0982C"/>
<path d="M125.312 72.4055H112L118.656 51.0537L125.312 72.4055Z" fill="black" fill-opacity="0.6"/>
<path d="M124.162 63.7395H113.149L118.656 46.0596L124.162 63.7395Z" fill="#A0982C"/>
<path d="M124.162 63.7395H113.149L118.656 46.0596L124.162 63.7395Z" fill="black" fill-opacity="0.6"/>
<path d="M122.837 54.9913H114.475L118.656 41.5615L122.837 54.9913Z" fill="#A0982C"/>
<path d="M122.837 54.9913H114.475L118.656 41.5615L122.837 54.9913Z" fill="black" fill-opacity="0.6"/>
<path d="M121.622 47.5285H115.689L118.656 38L121.622 47.5285Z" fill="#A0982C"/>
<path d="M121.622 47.5285H115.689L118.656 38L121.622 47.5285Z" fill="black" fill-opacity="0.6"/>
<path d="M56.233 74.0357L55.814 73.6875L50.5526 79.8968L50.9716 80.2449L56.233 74.0357Z" fill="#A0982C"/>
<path d="M56.233 74.0357L55.814 73.6875L50.5526 79.8968L50.9716 80.2449L56.233 74.0357Z" fill="black" fill-opacity="0.6"/>
<path d="M56.1658 69.9006C58.3535 67.3211 62.1634 67.0273 62.1634 67.0273L55.1461 75.3074C55.0534 74.2242 53.9874 72.4709 56.1658 69.8914V69.9006Z" fill="#A0982C"/>
<path d="M56.1658 69.9006C58.3535 67.3211 62.1634 67.0273 62.1634 67.0273L55.1461 75.3074C55.0534 74.2242 53.9874 72.4709 56.1658 69.8914V69.9006Z" fill="black" fill-opacity="0.6"/>
<path d="M60.3469 73.3705C62.5346 70.791 62.1637 67.0273 62.1637 67.0273L55.1465 75.3074C56.2403 75.2064 58.1685 75.9499 60.3469 73.3705Z" fill="#B3A330"/>
<path d="M60.3469 73.3705C62.5346 70.791 62.1637 67.0273 62.1637 67.0273L55.1465 75.3074C56.2403 75.2064 58.1685 75.9499 60.3469 73.3705Z" fill="black" fill-opacity="0.6"/>
<path d="M45.2905 70.1909L44.8716 70.5391L50.133 76.7483L50.5519 76.4002L45.2905 70.1909Z" fill="#A0982C"/>
<path d="M45.2905 70.1909L44.8716 70.5391L50.133 76.7483L50.5519 76.4002L45.2905 70.1909Z" fill="black" fill-opacity="0.6"/>
<path d="M41.1023 69.4603C38.9147 66.8808 39.2855 63.1172 39.2855 63.1172L46.3027 71.3972C45.2089 71.2962 43.2808 72.0398 41.1023 69.4603Z" fill="#A0982C"/>
<path d="M41.1023 69.4603C38.9147 66.8808 39.2855 63.1172 39.2855 63.1172L46.3027 71.3972C45.2089 71.2962 43.2808 72.0398 41.1023 69.4603Z" fill="black" fill-opacity="0.6"/>
<path d="M45.2832 65.9806C43.0955 63.4012 39.2856 63.1074 39.2856 63.1074L46.3029 71.3874C46.3956 70.3042 47.4617 68.5509 45.2832 65.9715V65.9806Z" fill="#B3A330"/>
<path d="M45.2832 65.9806C43.0955 63.4012 39.2856 63.1074 39.2856 63.1074L46.3029 71.3874C46.3956 70.3042 47.4617 68.5509 45.2832 65.9715V65.9806Z" fill="black" fill-opacity="0.6"/>
<path d="M50.1125 81.9717H50.9282V59.6376H50.1125V81.9717Z" fill="#A0982C"/>
<path d="M50.1125 81.9717H50.9282V59.6376H50.1125V81.9717Z" fill="black" fill-opacity="0.6"/>
<path d="M50.6223 61.9328C53.1994 66.1371 55.0904 65.4486 55.5076 64.549C55.7393 64.0441 55.6836 63.3832 55.0996 62.8232C54.4878 62.2632 53.3569 61.8043 50.7243 61.7492C53.3569 61.7033 54.4878 61.2351 55.0996 60.6752C55.6836 60.1152 55.7393 59.4543 55.4983 58.9402C55.0812 58.0498 53.1994 57.3705 50.6223 61.5656C53.0974 57.2053 51.5493 56.2781 50.5018 56.168C49.4821 56.2781 47.9341 57.2053 50.4091 61.5656C47.8321 57.3613 45.941 58.0498 45.5239 58.9494C45.2921 59.4543 45.3477 60.1152 45.9317 60.6752C46.5435 61.2351 47.6744 61.6941 50.3071 61.7492C47.6744 61.7951 46.5435 62.2632 45.9317 62.8232C45.3477 63.3832 45.2922 64.0441 45.5332 64.5582C45.9503 65.4486 47.8321 66.1279 50.4091 61.9328C47.9341 66.2931 49.4822 67.2202 50.5297 67.3304C51.5493 67.2202 53.0974 66.2931 50.6223 61.9328Z" fill="#FF5538"/>
<path d="M50.6223 61.9328C53.1994 66.1371 55.0904 65.4486 55.5076 64.549C55.7393 64.0441 55.6836 63.3832 55.0996 62.8232C54.4878 62.2632 53.3569 61.8043 50.7243 61.7492C53.3569 61.7033 54.4878 61.2351 55.0996 60.6752C55.6836 60.1152 55.7393 59.4543 55.4983 58.9402C55.0812 58.0498 53.1994 57.3705 50.6223 61.5656C53.0974 57.2053 51.5493 56.2781 50.5018 56.168C49.4821 56.2781 47.9341 57.2053 50.4091 61.5656C47.8321 57.3613 45.941 58.0498 45.5239 58.9494C45.2921 59.4543 45.3477 60.1152 45.9317 60.6752C46.5435 61.2351 47.6744 61.6941 50.3071 61.7492C47.6744 61.7951 46.5435 62.2632 45.9317 62.8232C45.3477 63.3832 45.2922 64.0441 45.5332 64.5582C45.9503 65.4486 47.8321 66.1279 50.4091 61.9328C47.9341 66.2931 49.4822 67.2202 50.5297 67.3304C51.5493 67.2202 53.0974 66.2931 50.6223 61.9328Z" fill="black" fill-opacity="0.6"/>
<path d="M49.334 61.7584C49.334 62.3918 49.8624 62.8967 50.5113 62.8967C51.1602 62.8967 51.6886 62.3826 51.6886 61.7584C51.6886 61.125 51.1602 60.6201 50.5113 60.6201C49.8624 60.6201 49.334 61.1342 49.334 61.7584Z" fill="#FFE078"/>
<path d="M49.334 61.7584C49.334 62.3918 49.8624 62.8967 50.5113 62.8967C51.1602 62.8967 51.6886 62.3826 51.6886 61.7584C51.6886 61.125 51.1602 60.6201 50.5113 60.6201C49.8624 60.6201 49.334 61.1342 49.334 61.7584Z" fill="black" fill-opacity="0.6"/>
<path d="M188.132 45.523C188.132 63.8089 182.635 69.1789 175.849 69.1789C169.063 69.1789 163.566 63.818 163.566 45.523C163.566 27.228 169.063 12.4121 175.849 12.4121C182.635 12.4121 188.132 27.2372 188.132 45.523Z" fill="#FFCA1E"/>
<path d="M188.132 45.523C188.132 63.8089 182.635 69.1789 175.849 69.1789C169.063 69.1789 163.566 63.818 163.566 45.523C163.566 27.228 169.063 12.4121 175.849 12.4121C182.635 12.4121 188.132 27.2372 188.132 45.523Z" fill="black" fill-opacity="0.6"/>
<path d="M175.849 44.8438L172.781 81.342H178.927L175.849 44.8438Z" fill="#9E5E21"/>
<path d="M175.849 44.8438L172.781 81.342H178.927L175.849 44.8438Z" fill="black" fill-opacity="0.6"/>
<path d="M236.604 65.9475C244.555 65.9475 251 59.5649 251 51.6915C251 43.8182 244.555 37.4355 236.604 37.4355C228.653 37.4355 222.208 43.8182 222.208 51.6915C222.208 59.5649 228.653 65.9475 236.604 65.9475Z" fill="#FFBC22"/>
<path d="M236.604 65.9475C244.555 65.9475 251 59.5649 251 51.6915C251 43.8182 244.555 37.4355 236.604 37.4355C228.653 37.4355 222.208 43.8182 222.208 51.6915C222.208 59.5649 228.653 65.9475 236.604 65.9475Z" fill="black" fill-opacity="0.6"/>
<path d="M215.497 68.2239C223.447 68.2239 229.893 61.8412 229.893 53.9679C229.893 46.0945 223.447 39.7119 215.497 39.7119C207.546 39.7119 201.101 46.0945 201.101 53.9679C201.101 61.8412 207.546 68.2239 215.497 68.2239Z" fill="#FFBC22"/>
<path d="M215.497 68.2239C223.447 68.2239 229.893 61.8412 229.893 53.9679C229.893 46.0945 223.447 39.7119 215.497 39.7119C207.546 39.7119 201.101 46.0945 201.101 53.9679C201.101 61.8412 207.546 68.2239 215.497 68.2239Z" fill="black" fill-opacity="0.6"/>
<path d="M226.009 47.1294C232.367 47.1294 237.522 42.0249 237.522 35.7282C237.522 29.4316 232.367 24.3271 226.009 24.3271C219.65 24.3271 214.496 29.4316 214.496 35.7282C214.496 42.0249 219.65 47.1294 226.009 47.1294Z" fill="#FFBC22"/>
<path d="M226.009 47.1294C232.367 47.1294 237.522 42.0249 237.522 35.7282C237.522 29.4316 232.367 24.3271 226.009 24.3271C219.65 24.3271 214.496 29.4316 214.496 35.7282C214.496 42.0249 219.65 47.1294 226.009 47.1294Z" fill="black" fill-opacity="0.6"/>
<path d="M229.698 72.2169C234.787 72.2169 238.912 68.1317 238.912 63.0923C238.912 58.053 234.787 53.9678 229.698 53.9678C224.609 53.9678 220.484 58.053 220.484 63.0923C220.484 68.1317 224.609 72.2169 229.698 72.2169Z" fill="#FFBC22"/>
<path d="M229.698 72.2169C234.787 72.2169 238.912 68.1317 238.912 63.0923C238.912 58.053 234.787 53.9678 229.698 53.9678C224.609 53.9678 220.484 58.053 220.484 63.0923C220.484 68.1317 224.609 72.2169 229.698 72.2169Z" fill="black" fill-opacity="0.6"/>
<path d="M226.055 35.7285L224.127 81.3421H227.974L226.055 35.7285Z" fill="#9E5E21"/>
<path d="M226.055 35.7285L224.127 81.3421H227.974L226.055 35.7285Z" fill="black" fill-opacity="0.6"/>
<path d="M226.055 43.4302V44.798L233.962 35.7285L226.055 43.4302Z" fill="#9E5E21"/>
<path d="M226.055 43.4302V44.798L233.962 35.7285L226.055 43.4302Z" fill="black" fill-opacity="0.6"/>
<path d="M226.055 53.7388V55.4462L214.857 44.1094L226.055 53.7388Z" fill="#9E5E21"/>
<path d="M226.055 53.7388V55.4462L214.857 44.1094L226.055 53.7388Z" fill="black" fill-opacity="0.6"/>
<path d="M226.055 64.3685V66.4155L238.718 53.5732L226.055 64.3685Z" fill="#9E5E21"/>
<path d="M226.055 64.3685V66.4155L238.718 53.5732L226.055 64.3685Z" fill="black" fill-opacity="0.6"/>
<path d="M26.2985 70.7821C32.1861 70.7821 36.9589 66.0558 36.9589 60.2255C36.9589 54.3953 32.1861 49.6689 26.2985 49.6689C20.411 49.6689 15.6382 54.3953 15.6382 60.2255C15.6382 66.0558 20.411 70.7821 26.2985 70.7821Z" fill="#EF7D22"/>
<path d="M26.2985 70.7821C32.1861 70.7821 36.9589 66.0558 36.9589 60.2255C36.9589 54.3953 32.1861 49.6689 26.2985 49.6689C20.411 49.6689 15.6382 54.3953 15.6382 60.2255C15.6382 66.0558 20.411 70.7821 26.2985 70.7821Z" fill="black" fill-opacity="0.6"/>
<path d="M10.6604 72.4715C16.5479 72.4715 21.3207 67.7452 21.3207 61.915C21.3207 56.0847 16.5479 51.3584 10.6604 51.3584C4.77281 51.3584 0 56.0847 0 61.915C0 67.7452 4.77281 72.4715 10.6604 72.4715Z" fill="#EF7D22"/>
<path d="M10.6604 72.4715C16.5479 72.4715 21.3207 67.7452 21.3207 61.915C21.3207 56.0847 16.5479 51.3584 10.6604 51.3584C4.77281 51.3584 0 56.0847 0 61.915C0 67.7452 4.77281 72.4715 10.6604 72.4715Z" fill="black" fill-opacity="0.6"/>
<path d="M18.4467 56.8476C23.1567 56.8476 26.9751 53.0665 26.9751 48.4023C26.9751 43.7381 23.1567 39.957 18.4467 39.957C13.7367 39.957 9.91846 43.7381 9.91846 48.4023C9.91846 53.0665 13.7367 56.8476 18.4467 56.8476Z" fill="#EF7D22"/>
<path d="M18.4467 56.8476C23.1567 56.8476 26.9751 53.0665 26.9751 48.4023C26.9751 43.7381 23.1567 39.957 18.4467 39.957C13.7367 39.957 9.91846 43.7381 9.91846 48.4023C9.91846 53.0665 13.7367 56.8476 18.4467 56.8476Z" fill="black" fill-opacity="0.6"/>
<path d="M21.1815 75.4275C24.9495 75.4275 28.0041 72.4026 28.0041 68.6712C28.0041 64.9399 24.9495 61.915 21.1815 61.915C17.4135 61.915 14.3589 64.9399 14.3589 68.6712C14.3589 72.4026 17.4135 75.4275 21.1815 75.4275Z" fill="#EF7D22"/>
<path d="M21.1815 75.4275C24.9495 75.4275 28.0041 72.4026 28.0041 68.6712C28.0041 64.9399 24.9495 61.915 21.1815 61.915C17.4135 61.915 14.3589 64.9399 14.3589 68.6712C14.3589 72.4026 17.4135 75.4275 21.1815 75.4275Z" fill="black" fill-opacity="0.6"/>
<path d="M18.475 48.4023L17.0566 82.1926H19.9026L18.475 48.4023Z" fill="#9E5E21"/>
<path d="M18.475 48.4023L17.0566 82.1926H19.9026L18.475 48.4023Z" fill="black" fill-opacity="0.6"/>
<path d="M18.4746 54.1121V55.1218L24.3425 48.4023L18.4746 54.1121Z" fill="#9E5E21"/>
<path d="M18.4746 54.1121V55.1218L24.3425 48.4023L18.4746 54.1121Z" fill="black" fill-opacity="0.6"/>
<path d="M18.4747 61.7492V63.0068L10.1875 54.6074L18.4747 61.7492Z" fill="#9E5E21"/>
<path d="M18.4747 61.7492V63.0068L10.1875 54.6074L18.4747 61.7492Z" fill="black" fill-opacity="0.6"/>
<path d="M18.4746 69.6166V71.1404L27.865 61.6211L18.4746 69.6166Z" fill="#9E5E21"/>
<path d="M18.4746 69.6166V71.1404L27.865 61.6211L18.4746 69.6166Z" fill="black" fill-opacity="0.6"/>
<path d="M200.859 57.5947H195.742V81.3424H200.859V57.5947Z" fill="#9E5E21"/>
<path d="M200.859 57.5947H195.742V81.3424H200.859V57.5947Z" fill="black" fill-opacity="0.6"/>
<path d="M209.387 71.107H187.214L198.301 35.5176L209.387 71.107Z" fill="#A0982C"/>
<path d="M209.387 71.107H187.214L198.301 35.5176L209.387 71.107Z" fill="black" fill-opacity="0.6"/>
<path d="M207.478 56.6586H189.124L198.301 27.2012L207.478 56.6586Z" fill="#A0982C"/>
<path d="M207.478 56.6586H189.124L198.301 27.2012L207.478 56.6586Z" fill="black" fill-opacity="0.6"/>
<path d="M205.272 42.0805H191.33L198.301 19.6914L205.272 42.0805Z" fill="#A0982C"/>
<path d="M205.272 42.0805H191.33L198.301 19.6914L205.272 42.0805Z" fill="black" fill-opacity="0.6"/>
<path d="M203.251 29.6425H193.351L198.301 13.7617L203.251 29.6425Z" fill="#A0982C"/>
<path d="M203.251 29.6425H193.351L198.301 13.7617L203.251 29.6425Z" fill="black" fill-opacity="0.6"/>
<path d="M79.5928 4.3695H85.7943C87.0086 4.3695 88.0005 3.38728 88.0005 2.18475C88.0005 0.982221 87.0086 0 85.7943 0H79.5928C78.3784 0 77.3865 0.982221 77.3865 2.18475C77.3865 3.38728 78.3784 4.3695 79.5928 4.3695Z" fill="#F09321"/>
<path d="M79.5928 4.3695H85.7943C87.0086 4.3695 88.0005 3.38728 88.0005 2.18475C88.0005 0.982221 87.0086 0 85.7943 0H79.5928C78.3784 0 77.3865 0.982221 77.3865 2.18475C77.3865 3.38728 78.3784 4.3695 79.5928 4.3695Z" fill="black" fill-opacity="0.6"/>
<path d="M82.4956 2L85 81H80L82.4956 2Z" fill="#845439"/>
<path d="M82.4956 2L85 81H80L82.4956 2Z" fill="black" fill-opacity="0.6"/>
<path d="M55.9364 45.0264H74.9489C77.0275 45.0264 78.7124 46.695 78.7124 48.7533V52.214C78.7124 54.2723 77.0275 55.9409 74.9489 55.9409H55.9364C53.8578 55.9409 52.1727 54.2723 52.1727 52.214V48.7533C52.1727 46.695 53.8578 45.0264 55.9364 45.0264Z" fill="#F09321"/>
<path d="M55.9364 45.0264H74.9489C77.0275 45.0264 78.7124 46.695 78.7124 48.7533V52.214C78.7124 54.2723 77.0275 55.9409 74.9489 55.9409H55.9364C53.8578 55.9409 52.1727 54.2723 52.1727 52.214V48.7533C52.1727 46.695 53.8578 45.0264 55.9364 45.0264Z" fill="black" fill-opacity="0.6"/>
<path d="M90.4387 37.0215H109.451C111.53 37.0215 113.215 38.6901 113.215 40.7484V44.2091C113.215 46.2675 111.53 47.9361 109.451 47.9361H90.4387C88.3601 47.9361 86.6752 46.2675 86.6752 44.2091V40.7484C86.6752 38.6901 88.3601 37.0215 90.4387 37.0215Z" fill="#EE7222"/>
<path d="M90.4387 37.0215H109.451C111.53 37.0215 113.215 38.6901 113.215 40.7484V44.2091C113.215 46.2675 111.53 47.9361 109.451 47.9361H90.4387C88.3601 47.9361 86.6752 46.2675 86.6752 44.2091V40.7484C86.6752 38.6901 88.3601 37.0215 90.4387 37.0215Z" fill="black" fill-opacity="0.6"/>
<path d="M59.5331 27.4658H76.6546C78.5232 27.4658 80.0381 28.9659 80.0381 30.8164V33.9375C80.0381 35.7879 78.5232 37.288 76.6546 37.288H59.5331C57.6645 37.288 56.1496 35.7879 56.1496 33.9375V30.8164C56.1496 28.9659 57.6645 27.4658 59.5331 27.4658Z" fill="#EE7222"/>
<path d="M59.5331 27.4658H76.6546C78.5232 27.4658 80.0381 28.9659 80.0381 30.8164V33.9375C80.0381 35.7879 78.5232 37.288 76.6546 37.288H59.5331C57.6645 37.288 56.1496 35.7879 56.1496 33.9375V30.8164C56.1496 28.9659 57.6645 27.4658 59.5331 27.4658Z" fill="black" fill-opacity="0.6"/>
<path d="M91.0786 29.4665H103.491C105.92 29.4665 107.903 27.5021 107.903 25.097C107.903 22.692 105.92 20.7275 103.491 20.7275H91.0786C88.6499 20.7275 86.6661 22.692 86.6661 25.097C86.6661 27.5021 88.6499 29.4665 91.0786 29.4665Z" fill="#F09321"/>
<path d="M91.0786 29.4665H103.491C105.92 29.4665 107.903 27.5021 107.903 25.097C107.903 22.692 105.92 20.7275 103.491 20.7275H91.0786C88.6499 20.7275 86.6661 22.692 86.6661 25.097C86.6661 27.5021 88.6499 29.4665 91.0786 29.4665Z" fill="black" fill-opacity="0.6"/>
<path d="M65.3175 21.3699H76.1818C78.3046 21.3699 80.0381 19.6533 80.0381 17.5511C80.0381 15.449 78.3046 13.7324 76.1818 13.7324H65.3175C63.1947 13.7324 61.4612 15.449 61.4612 17.5511C61.4612 19.6533 63.1947 21.3699 65.3175 21.3699Z" fill="#F09321"/>
<path d="M65.3175 21.3699H76.1818C78.3046 21.3699 80.0381 19.6533 80.0381 17.5511C80.0381 15.449 78.3046 13.7324 76.1818 13.7324H65.3175C63.1947 13.7324 61.4612 15.449 61.4612 17.5511C61.4612 19.6533 63.1947 21.3699 65.3175 21.3699Z" fill="black" fill-opacity="0.6"/>
<path d="M87.3241 15.5318H96.6311C98.448 15.5318 99.9404 14.0539 99.9404 12.2547C99.9404 10.4555 98.448 8.97754 96.6311 8.97754H87.3241C85.5072 8.97754 84.0148 10.4555 84.0148 12.2547C84.0148 14.0539 85.5072 15.5318 87.3241 15.5318Z" fill="#EE7222"/>
<path d="M87.3241 15.5318H96.6311C98.448 15.5318 99.9404 14.0539 99.9404 12.2547C99.9404 10.4555 98.448 8.97754 96.6311 8.97754H87.3241C85.5072 8.97754 84.0148 10.4555 84.0148 12.2547C84.0148 14.0539 85.5072 15.5318 87.3241 15.5318Z" fill="black" fill-opacity="0.6"/>
<path d="M70.8513 11.107H78.6102C80.1304 11.107 81.3633 9.87693 81.3633 8.38065C81.3633 6.87519 80.1211 5.6543 78.6102 5.6543H70.8513C69.331 5.6543 68.0981 6.88437 68.0981 8.38065C68.0981 9.88611 69.3403 11.107 70.8513 11.107Z" fill="#EE7222"/>
<path d="M70.8513 11.107H78.6102C80.1304 11.107 81.3633 9.87693 81.3633 8.38065C81.3633 6.87519 80.1211 5.6543 78.6102 5.6543H70.8513C69.331 5.6543 68.0981 6.88437 68.0981 8.38065C68.0981 9.88611 69.3403 11.107 70.8513 11.107Z" fill="black" fill-opacity="0.6"/>
<path d="M70.7496 17.5518L82.5039 25.9878V29.2191L70.7496 17.5518Z" fill="#845439"/>
<path d="M70.7496 17.5518L82.5039 25.9878V29.2191L70.7496 17.5518Z" fill="black" fill-opacity="0.6"/>
<path d="M82.5039 45.357L68.0985 32.377L82.5039 49.396V45.357Z" fill="#845439"/>
<path d="M82.5039 45.357L68.0985 32.377L82.5039 49.396V45.357Z" fill="black" fill-opacity="0.6"/>
<path d="M82.5039 67.7915V72.6383L65.438 50.2676L82.5039 67.7915Z" fill="#845439"/>
<path d="M82.5039 67.7915V72.6383L65.438 50.2676L82.5039 67.7915Z" fill="black" fill-opacity="0.6"/>
<path d="M91.9775 12.2637L82.5037 20.6906V23.9218L91.9775 12.2637Z" fill="#845439"/>
<path d="M91.9775 12.2637L82.5037 20.6906V23.9218L91.9775 12.2637Z" fill="black" fill-opacity="0.6"/>
<path d="M74.7265 8.38086L82.5039 15.4125V18.1021L74.7265 8.38086Z" fill="#845439"/>
<path d="M74.7265 8.38086L82.5039 15.4125V18.1021L74.7265 8.38086Z" fill="black" fill-opacity="0.6"/>
<path d="M82.5036 38.0767L97.2891 25.0967L82.5036 42.1157V38.0767Z" fill="#845439"/>
<path d="M82.5036 38.0767L97.2891 25.0967L82.5036 42.1157V38.0767Z" fill="black" fill-opacity="0.6"/>
<path d="M82.5038 59.787V64.6338L99.9404 42.2539L82.5038 59.787Z" fill="#845439"/>
<path d="M82.5038 59.787V64.6338L99.9404 42.2539L82.5038 59.787Z" fill="black" fill-opacity="0.6"/>
<path d="M55.2285 37C59.0867 37 60.7631 40.9656 61.9205 43.2053C63.0514 45.3659 63.1179 46.6175 63.8762 47.3553L68.9717 50.4514C67.6146 51.1101 65.6191 51.3604 63.1977 50.1352C63.1046 50.2274 62.1201 50.6358 60.7231 50.8466L51.2903 40.7548C51.2105 38.7391 53.1397 37 55.2151 37H55.2285Z" fill="#C5914C"/>
<path d="M55.2285 37C59.0867 37 60.7631 40.9656 61.9205 43.2053C63.0514 45.3659 63.1179 46.6175 63.8762 47.3553L68.9717 50.4514C67.6146 51.1101 65.6191 51.3604 63.1977 50.1352C63.1046 50.2274 62.1201 50.6358 60.7231 50.8466L51.2903 40.7548C51.2105 38.7391 53.1397 37 55.2151 37H55.2285Z" fill="black" fill-opacity="0.6"/>
<path d="M50 40.5309L52.5278 41.7825V39.2793L50 40.5309Z" fill="#B6761F"/>
<path d="M50 40.5309L52.5278 41.7825V39.2793L50 40.5309Z" fill="black" fill-opacity="0.6"/>
<path d="M51.3037 40.7549C51.2771 40.0171 51.5167 39.3188 51.9424 38.7259C52.5278 37.7115 54.0311 37.3558 55.1486 37.9882C56.7451 38.8972 57.1177 40.6231 55.9868 42.4412C55.4945 43.2712 55.8405 44.312 56.7053 44.7336C57.1443 44.9444 57.57 45.1947 57.9958 45.4977C60.0579 46.9865 61.1223 49.1735 60.7498 50.8599C58.4349 51.2156 55.0156 51.018 52.7007 48.0009C51.5299 46.4727 51.4369 44.4042 52.1021 42.8628C51.6364 42.2831 51.3436 41.5585 51.317 40.768L51.3037 40.7549Z" fill="#FBEFDC"/>
<path d="M51.3037 40.7549C51.2771 40.0171 51.5167 39.3188 51.9424 38.7259C52.5278 37.7115 54.0311 37.3558 55.1486 37.9882C56.7451 38.8972 57.1177 40.6231 55.9868 42.4412C55.4945 43.2712 55.8405 44.312 56.7053 44.7336C57.1443 44.9444 57.57 45.1947 57.9958 45.4977C60.0579 46.9865 61.1223 49.1735 60.7498 50.8599C58.4349 51.2156 55.0156 51.018 52.7007 48.0009C51.5299 46.4727 51.4369 44.4042 52.1021 42.8628C51.6364 42.2831 51.3436 41.5585 51.317 40.768L51.3037 40.7549Z" fill="black" fill-opacity="0.6"/>
<path d="M53.9114 41.0048C53.4779 41.0048 53.1263 40.6568 53.1263 40.2275C53.1263 39.7982 53.4779 39.4502 53.9114 39.4502C54.3449 39.4502 54.6963 39.7982 54.6963 40.2275C54.6963 40.6568 54.3449 41.0048 53.9114 41.0048Z" fill="#373737"/>
<path d="M53.9114 41.0048C53.4779 41.0048 53.1263 40.6568 53.1263 40.2275C53.1263 39.7982 53.4779 39.4502 53.9114 39.4502C54.3449 39.4502 54.6963 39.7982 54.6963 40.2275C54.6963 40.6568 54.3449 41.0048 53.9114 41.0048Z" fill="black" fill-opacity="0.6"/>
<path d="M56.1731 42.0859C54.3638 43.8777 54.3638 46.7761 56.1731 48.5547C57.9825 50.3333 60.9095 50.3465 62.7056 48.5547L56.1731 42.0859Z" fill="#9E5E21"/>
<path d="M56.1731 42.0859C54.3638 43.8777 54.3638 46.7761 56.1731 48.5547C57.9825 50.3333 60.9095 50.3465 62.7056 48.5547L56.1731 42.0859Z" fill="black" fill-opacity="0.6"/>
<path d="M147.667 23.2525C146.634 22.9869 145.923 21.9243 143.844 20.6092C141.685 19.2411 138.211 16.5978 134.83 18.5238C133.02 19.5599 132.228 22.0305 133.315 23.7573C133.744 24.4347 134.361 24.9262 135.072 25.1918C135.273 26.8788 136.413 28.6321 138.211 29.376C143.925 31.7536 148.418 26.3342 148.499 26.0021C151.235 25.8693 152.858 24.6605 153.703 23.3987L147.68 23.2393L147.667 23.2525Z" fill="#C5914C"/>
<path d="M147.667 23.2525C146.634 22.9869 145.923 21.9243 143.844 20.6092C141.685 19.2411 138.211 16.5978 134.83 18.5238C133.02 19.5599 132.228 22.0305 133.315 23.7573C133.744 24.4347 134.361 24.9262 135.072 25.1918C135.273 26.8788 136.413 28.6321 138.211 29.376C143.925 31.7536 148.418 26.3342 148.499 26.0021C151.235 25.8693 152.858 24.6605 153.703 23.3987L147.68 23.2393L147.667 23.2525Z" fill="black" fill-opacity="0.6"/>
<path d="M132 23.2785L134.535 24.5404V22.0166L132 23.2785Z" fill="#B6761F"/>
<path d="M132 23.2785L134.535 24.5404V22.0166L132 23.2785Z" fill="black" fill-opacity="0.6"/>
<path d="M133.328 23.7707C132.926 23.1331 132.778 22.4025 132.845 21.6852C132.845 20.5031 133.972 19.4404 135.273 19.4404C137.124 19.4404 138.332 20.7687 138.264 22.9073C138.264 23.8769 139.096 24.6208 140.062 24.5411C140.545 24.5012 141.054 24.5145 141.564 24.5676C144.126 24.8333 146.165 26.2147 146.688 27.8751C144.85 29.3362 141.765 30.877 138.197 29.4026C136.4 28.6588 135.273 26.8921 135.059 25.2185C134.361 24.9396 133.731 24.4614 133.301 23.7839L133.328 23.7707Z" fill="#FBEFDC"/>
<path d="M133.328 23.7707C132.926 23.1331 132.778 22.4025 132.845 21.6852C132.845 20.5031 133.972 19.4404 135.273 19.4404C137.124 19.4404 138.332 20.7687 138.264 22.9073C138.264 23.8769 139.096 24.6208 140.062 24.5411C140.545 24.5012 141.054 24.5145 141.564 24.5676C144.126 24.8333 146.165 26.2147 146.688 27.8751C144.85 29.3362 141.765 30.877 138.197 29.4026C136.4 28.6588 135.273 26.8921 135.059 25.2185C134.361 24.9396 133.731 24.4614 133.301 23.7839L133.328 23.7707Z" fill="black" fill-opacity="0.6"/>
<path d="M136.025 21.6055C136.239 21.9774 136.118 22.4689 135.729 22.6814C135.354 22.894 134.858 22.7744 134.643 22.3892C134.428 22.0173 134.549 21.5258 134.938 21.3133C135.314 21.1008 135.81 21.2203 136.025 21.6055Z" fill="#373737"/>
<path d="M136.025 21.6055C136.239 21.9774 136.118 22.4689 135.729 22.6814C135.354 22.894 134.858 22.7744 134.643 22.3892C134.428 22.0173 134.549 21.5258 134.938 21.3133C135.314 21.1008 135.81 21.2203 136.025 21.6055Z" fill="black" fill-opacity="0.6"/>
<path d="M137.996 23.8369C140.182 26.002 143.724 26.002 145.91 23.8369C148.096 21.6718 148.096 18.1651 145.91 16L137.996 23.8369Z" fill="#9E5E21"/>
<path d="M137.996 23.8369C140.182 26.002 143.724 26.002 145.91 23.8369C148.096 21.6718 148.096 18.1651 145.91 16L137.996 23.8369Z" fill="black" fill-opacity="0.6"/>
</svg>
