<svg width="726" height="32" viewBox="0 0 726 32" fill="none" xmlns="http://www.w3.org/2000/svg">
<g clip-path="url(#clip0_3619_322121)">
<path d="M533.528 5.38717C532.337 5.33303 548.005 7.60462 546.92 7.56436C546.615 7.55326 507.776 4.91518 491.457 4.40154C490.996 4.38719 490.523 4.41634 490.057 4.42421C487.741 4.46308 485.426 4.50843 483.112 4.55378C476.137 4.69075 469.134 4.79903 462.118 4.81106C460.323 4.81569 458.524 4.81291 456.724 4.80227C441.893 4.71574 485.916 3.94898 467.213 3.22618C457.691 2.8583 393.506 2.84488 383.85 2.64775C375.262 2.49736 366.71 2.48811 358.055 2.49736C351.654 2.5043 344.867 2.50893 338.452 2.25674C333.186 2.06331 347.347 1.83934 343.702 1.10914C339.59 0.285001 241.689 -0.38042 234.563 0.24937C230.458 0.612158 254.08 1.06425 254.08 1.06425C254.08 1.06425 193.472 1.94901 190.51 2.01148C171.123 2.42147 205.323 3.30484 186.476 4.25624C185.859 4.28724 185.245 4.31917 184.632 4.35156C184.392 4.36452 184.15 4.37747 183.91 4.39043C183.883 4.39182 183.857 4.39321 183.83 4.39459C177.619 4.73239 171.497 5.12943 165.358 5.51581C163.411 5.6389 161.461 5.76107 159.51 5.87999C153.997 6.22057 148.355 6.55605 142.641 6.77632C139.14 6.91606 135.604 7.01185 132.07 7.02851C132.065 7.02851 132.058 7.02851 132.053 7.02851C131.189 7.04239 129.266 7.08173 128.805 7.02758C128.762 7.02249 128.711 7.01926 128.661 7.01879C128.574 7.01787 128.488 7.01694 128.404 7.01602C128.293 6.97483 128.262 6.96373 128.152 6.92254C128.298 6.87627 128.447 6.83046 128.596 6.78465C128.605 6.78141 128.615 6.77771 128.622 6.774C128.963 6.59631 129.9 6.39826 130.248 6.30479C132.188 5.78605 134.382 5.30712 136.708 4.85224C136.756 4.84253 136.804 4.83327 136.852 4.82402C136.941 4.8069 137.028 4.78931 137.117 4.77265C137.172 4.76201 137.227 4.75183 137.282 4.74119C138.238 4.55655 139.213 4.37516 140.206 4.19654C142.531 3.77822 144.922 3.37379 147.265 2.95964C147.296 2.95408 147.337 2.94714 147.38 2.9402C148.144 2.80462 148.902 2.66811 149.654 2.52975C149.673 2.52605 149.69 2.52235 149.704 2.51818C149.86 2.47052 149.932 2.42702 149.865 2.39232C149.726 2.37936 149.635 2.37103 149.495 2.35808C148.002 2.43073 146.509 2.50152 145.011 2.5714C144.855 2.58112 144.732 2.58713 144.66 2.5913C89.62 5.65093 51.9503 9.76515 0.21378 13.0483C0.0865337 13.0566 0.000102192 13.0793 0.000102192 13.1057L-0.312114 32.4968C-0.312114 32.5301 -0.172863 32.5569 0 32.5569H650.688C650.854 32.5569 650.991 32.5319 651 32.5V12.8391C651.007 12.8095 557.476 6.53523 533.53 5.38717H533.528Z" fill="#016FD2"/>
<g clip-path="url(#clip1_3619_322121)">
<path d="M702.227 47.366C690.158 45.0269 678.095 42.6459 666.086 40.0087C654.119 37.3815 642.234 34.4382 630.207 32.0751C606.174 27.355 581.885 24.0535 557.501 21.8305C545.341 20.722 533.142 19.7976 520.943 19.2273C508.753 18.6571 496.554 19.4274 484.405 20.4199C480.906 20.706 477.402 21.0081 473.897 21.3003C462.149 22.3027 450.386 23.2271 438.588 23.0751C431.018 22.977 423.445 22.4308 415.971 21.2002C415.528 21.1282 413.901 21.0161 413.658 20.802C413.269 20.732 412.879 20.66 412.488 20.5879C412.484 20.5879 412.484 20.5819 412.488 20.5799C413.033 20.2138 413.578 19.8436 414.123 19.4754C414.987 18.7471 416.081 18.1488 417.055 17.5586C418.282 16.7942 419.536 16.0759 420.843 15.4476C421.146 15.3016 421.468 15.1735 421.793 15.0535C422.739 14.6433 423.705 14.2791 424.695 13.969C424.767 13.9329 424.839 13.8969 424.906 13.8589C426.018 13.2506 426.333 13.4607 424.717 13.0566C418.302 12.1722 411.843 11.92 405.381 12.0201C402.539 12.0681 399.699 12.1842 396.865 12.3382C389.58 12.7364 382.337 13.6368 375.058 14.057C368.012 14.4612 360.957 14.2511 353.906 14.2891C347.054 14.3271 340.136 14.6233 333.466 16.318C333.021 16.4321 332.574 16.5421 332.127 16.6522C328.355 17.6246 324.537 18.429 320.685 19.0132C319.09 19.2613 317.489 19.4714 315.879 19.6335C303.855 20.8461 250.622 27.1389 251.051 27.5691C251.825 28.0893 252.71 28.7036 253.25 29.2799C253.662 29.562 254.069 29.8501 254.444 30.1823C254.446 30.1843 254.444 30.1903 254.442 30.1903C254.198 30.2663 253.955 30.3403 253.711 30.4144C253.474 30.9286 250.674 31.3888 249.548 31.6269C238.423 34.7023 226.999 36.6592 215.8 39.4264C205.274 42.0276 194.289 45.167 185.002 51.0116V51.738C185.002 51.882 185.118 51.9981 185.261 51.9981H725.922C725.95 51.9981 725.978 51.9921 726.004 51.9841C718.084 50.4214 710.155 48.8987 702.231 47.364L702.227 47.366Z" fill="url(#paint0_linear_3619_322121)"/>
</g>
</g>
<defs>
<linearGradient id="paint0_linear_3619_322121" x1="455.501" y1="12.0001" x2="455.501" y2="52.0001" gradientUnits="userSpaceOnUse">
<stop stop-color="#0058C5"/>
<stop offset="1" stop-color="#0065CA"/>
</linearGradient>
<clipPath id="clip0_3619_322121">
<rect width="726" height="32" fill="white"/>
</clipPath>
<clipPath id="clip1_3619_322121">
<rect width="541" height="40" fill="white" transform="translate(185 12)"/>
</clipPath>
</defs>
</svg>
