<svg width="373" height="48" viewBox="0 0 373 48" fill="none" xmlns="http://www.w3.org/2000/svg">
<g clip-path="url(#clip0_3619_322105)">
<path d="M312.807 18.3531C312.807 18.3531 301.197 20.2853 293.575 25.1039C289.21 27.8632 310.632 35.9857 326.007 36.851C345.761 37.9623 371.971 32.6691 372.905 27.8537C373.838 23.0399 367.863 23.4844 355.129 19.1374C342.396 14.792 312.807 18.3531 312.807 18.3531Z" fill="#0062C9"/>
<path d="M293.779 26.7928C301.4 21.9758 313.012 20.0436 313.012 20.0436C313.012 20.0436 342.599 16.4809 355.333 20.8279C365.849 24.4176 371.755 24.7399 372.967 27.4532C373.489 23.0617 367.498 23.3602 355.129 19.1386C342.396 14.7916 312.806 18.3527 312.806 18.3527C312.806 18.3527 301.196 20.2849 293.573 25.1019C292.8 25.5909 292.836 26.2482 293.503 27.0023C293.58 26.9293 293.67 26.8578 293.776 26.7912L293.779 26.7928Z" fill="#2BA2FF"/>
<path d="M355.769 20.8138C355.769 22.1839 353.123 23.4128 348.866 24.2892C344.84 25.1259 339.372 25.6355 333.351 25.6355C325.635 25.6355 318.826 24.7972 314.79 23.5144C312.351 22.7476 310.932 21.8156 310.932 20.8138C310.934 18.1608 320.973 16 333.351 16C345.73 16 355.769 18.1608 355.769 20.8138Z" fill="#002994"/>
<path d="M348.866 24.289C344.84 25.1257 339.372 25.6353 333.351 25.6353C325.635 25.6353 318.826 24.797 314.79 23.5142C318.816 22.6838 324.284 22.1758 330.305 22.1758C338.021 22.1758 344.83 23.0141 348.866 24.289Z" fill="#001B74"/>
<path d="M333.338 16C327.15 16 321.548 16.5382 317.492 17.4098C321.08 16.9208 325.409 16.6351 330.073 16.6351C342.455 16.6351 352.491 18.6498 352.491 21.1361C352.491 23.6224 343.342 25.4529 331.738 25.6244C332.267 25.6323 332.8 25.6371 333.338 25.6371C345.72 25.6371 355.756 23.4795 355.756 20.8201C355.756 18.1608 345.72 16 333.338 16Z" fill="#82C1FF"/>
</g>
<path d="M261.958 23.4276C260.983 22.1384 259.439 21.1201 257.698 20.3692C255.874 19.5834 253.858 19.0651 251.829 18.6913C250.761 18.4936 249.682 18.3392 248.598 18.2096C247.255 18.0501 245.888 17.9405 244.546 18.0351C242.207 18.2013 240.196 19.0535 238.379 20.017C238.066 20.0885 237.757 20.1649 237.451 20.2463C236.922 20.3875 236.385 20.5337 235.919 20.7613C235.503 20.9639 235.15 21.2447 235.055 21.6151C234.982 21.8959 234.963 22.2082 235.114 22.4856C235.451 23.107 236.374 23.5173 237.171 23.7914C237.652 23.9575 238.153 24.0788 238.654 24.205C239.26 24.3579 239.869 24.5107 240.479 24.6586C241.693 24.9543 242.913 25.2383 244.141 25.4975C246.571 26.0108 249.042 26.4295 251.538 26.6288C253.967 26.8232 256.424 26.7983 258.773 26.4245C259.36 26.3315 259.938 26.2168 260.504 26.0789C261.019 25.9543 261.574 25.8314 261.996 25.5839C262.191 25.4693 262.353 25.3247 262.432 25.1503C262.509 24.9858 262.521 24.7915 262.523 24.617C262.528 24.2001 262.236 23.7897 261.958 23.4226V23.4276ZM235.016 21.9208C235.016 21.9208 235.016 21.9258 235.015 21.9291C235.015 21.9258 235.015 21.9241 235.016 21.9208Z" fill="#0054B5"/>
<path d="M271.442 34.8668C271.293 34.5113 270.995 34.2571 270.715 34.0279C270.387 33.7571 270.039 33.5112 269.676 33.2919C268.224 32.4131 266.56 31.9679 264.877 31.7785C264.769 31.7669 264.663 31.7553 264.556 31.7453C263.865 31.5327 263.159 31.3632 262.445 31.2419C260.778 30.9562 259.056 30.9196 257.351 31.1423C256.921 31.1987 256.494 31.2702 256.068 31.3582C255.661 31.4429 255.251 31.531 254.854 31.6689C254.157 31.9114 253.397 32.3184 252.957 32.9829C252.865 33.1208 252.792 33.2703 252.742 33.4298C252.705 33.5444 252.681 33.6657 252.651 33.7853C252.65 33.7969 252.648 33.8102 252.644 33.8219C252.644 33.8219 252.644 33.8152 252.644 33.8119C252.63 33.875 252.606 33.9365 252.597 33.9996C252.545 34.3485 252.624 34.704 252.801 34.9847C253.169 35.5645 253.87 35.812 254.489 35.9732C255.369 36.2024 256.269 36.3752 257.166 36.5347C258.088 36.6975 259.016 36.8337 259.95 36.94C261.821 37.1527 263.711 37.2507 265.606 37.2324C266.55 37.2224 267.496 37.1842 268.441 37.1178C269.212 37.063 270.039 37.0563 270.75 36.641C271.018 36.4849 271.272 36.2573 271.38 35.9433C271.501 35.5845 271.588 35.2173 271.442 34.8701V34.8668ZM271.472 35.5546C271.484 35.5296 271.482 35.5695 271.461 35.6243C271.465 35.6011 271.468 35.5778 271.472 35.5546Z" fill="#004AB5"/>
<path d="M99.6563 32.5146C99.6462 32.5446 99.6428 32.5661 99.6445 32.5778C99.6462 32.5695 99.6495 32.5612 99.6512 32.5512C99.6529 32.5396 99.6546 32.5263 99.658 32.5146H99.6563Z" fill="#0054B5"/>
<path d="M282.565 22.0449C282.391 21.4784 282.014 21.0548 281.652 20.7641C281.447 20.5996 281.228 20.4684 281.01 20.3421C280.783 20.2092 280.553 20.088 280.322 19.98C279.399 19.5481 278.441 19.3072 277.483 19.2607C277.072 19.2407 276.664 19.2573 276.257 19.3088C276.196 19.2989 276.135 19.2906 276.075 19.2839C275.12 19.1643 274.148 19.2374 273.248 19.6693C273.023 19.7773 272.804 19.9069 272.592 20.0581C272.411 20.1877 272.22 20.3305 272.098 20.5731C271.98 20.8106 271.989 21.0997 272.018 21.3871C272.044 21.6396 272.161 21.8489 272.293 22.0084C272.644 22.4303 273.103 22.5649 273.524 22.726C274.042 22.9237 274.564 23.0998 275.087 23.2543C276.137 23.5633 277.196 23.7843 278.258 23.9172C278.787 23.9836 279.317 24.0268 279.847 24.0484C280.362 24.0683 280.88 24.08 281.393 24.0451C281.755 24.0202 282.168 23.9454 282.436 23.5683C282.565 23.3856 282.646 23.1314 282.655 22.8623C282.66 22.7144 282.648 22.5599 282.636 22.4121C282.626 22.2858 282.6 22.1612 282.565 22.0433V22.0449ZM272.011 21.0881C272.011 21.1063 272.011 21.1246 272.01 21.1412C272.004 21.098 272.008 21.0681 272.011 21.0881ZM282.648 22.7227C282.648 22.7045 282.648 22.6845 282.648 22.6662C282.652 22.6978 282.648 22.7244 282.648 22.7227Z" fill="#216AD2"/>
<g clip-path="url(#clip1_3619_322105)">
<path d="M106.101 2.20264C106.101 2.20264 116.67 10.0083 122.678 12.5891C131.242 16.2668 114.578 17.8643 97.586 18.6386C80.5921 19.4128 47.1423 19.2477 43.4748 15.0564C40.4871 11.6433 53.1747 11.0407 61.2852 2.20264H106.101Z" fill="url(#paint0_linear_3619_322105)"/>
<path d="M109.438 9.05876C110.279 9.54266 111.167 9.94656 112.081 10.2885C112.945 10.6085 113.826 10.8808 114.721 11.0963C116.708 11.5647 118.697 11.6964 120.687 11.6396C114.596 8.48969 106.062 2.18604 106.062 2.18604H102.078C103.103 3.31902 104.091 4.48942 105.152 5.58756C105.216 5.65337 105.28 5.71918 105.345 5.78499C106.582 7.03153 107.921 8.16838 109.438 9.06005V9.05876Z" fill="#2BA2FF"/>
<path d="M60.6918 5.08541C61.9811 4.12277 63.2731 3.14205 64.5864 2.18457H61.2455C54.095 9.97736 43.3846 11.3671 42.9995 13.9273C43.038 13.9221 43.0765 13.9157 43.115 13.9092C43.9171 13.7815 44.7098 13.6163 45.4945 13.415C51.1791 11.9375 56.0616 8.54371 60.6931 5.08541H60.6918Z" fill="#2BA2FF"/>
<path d="M106.102 2.20388C106.102 2.77037 103.921 3.28524 100.335 3.68011C96.2369 4.1253 90.2988 4.40532 83.6941 4.40532C77.0894 4.40532 71.1512 4.1253 67.0535 3.68011C63.4656 3.28524 61.2866 2.77037 61.2866 2.20388C61.2866 0.988315 71.3212 0.00244141 83.6941 0.00244141C96.067 0.00244141 106.102 0.988315 106.102 2.20388Z" fill="#002994"/>
<path d="M100.335 3.67882C96.2372 4.12402 90.299 4.40403 83.6943 4.40403C77.0896 4.40403 71.1515 4.12402 67.0537 3.67882C71.1515 3.23363 77.0896 2.95361 83.6943 2.95361C90.299 2.95361 96.2372 3.23363 100.335 3.67882Z" fill="#001B74"/>
<path d="M62.2481 2.84131C60.8087 0.846335 73.5826 0.51599 83.6942 0.51599C93.8058 0.51599 107.52 0.948277 105.14 2.84131C105.766 2.63871 106.103 2.42451 106.103 2.20127C106.103 0.984408 96.0711 -0.00146484 83.6955 -0.00146484C71.32 -0.00146484 61.2881 0.984408 61.2881 2.20127C61.2881 2.42451 61.6254 2.63871 62.2508 2.84131H62.2481Z" fill="#82C1FF"/>
</g>
<g clip-path="url(#clip2_3619_322105)">
<path d="M45.4128 18.9008C44.7514 17.8996 43.7231 17.3159 42.7972 16.9828C42.2702 16.7939 41.7337 16.6817 41.1999 16.5781C40.6435 16.4675 40.084 16.3812 39.5292 16.32C37.3174 16.0805 35.1263 16.2413 33.0365 16.7879C32.1422 17.0206 31.2664 17.3253 30.4135 17.6984C30.2768 17.7224 30.1444 17.7427 30.0072 17.7707C27.8852 18.1657 25.8237 18.9578 24.0969 20.4068C23.6664 20.7672 23.258 21.1713 22.877 21.6076C22.5511 21.9811 22.2085 22.3934 22.072 22.9505C21.9371 23.4954 22.0984 24.061 22.3093 24.6081C22.4933 25.0863 22.8486 25.4219 23.2136 25.648C24.1847 26.2491 25.2437 26.2093 26.234 26.2469C27.4514 26.2925 28.6667 26.2927 29.8753 26.251C32.2971 26.1642 34.6979 25.8984 37.058 25.4552C38.2342 25.2332 39.3999 24.9688 40.5557 24.6581C41.679 24.3556 42.8004 24.0365 43.8937 23.6278C44.661 23.3423 45.5204 22.9166 45.9072 21.9931C46.0926 21.5488 46.1423 20.9932 46.0249 20.4536C45.9596 20.1584 45.8589 19.8629 45.7567 19.5794C45.6687 19.3388 45.5517 19.1109 45.4167 18.9013L45.4128 18.9008ZM22.1398 24.0128C22.1469 24.0506 22.1545 24.0844 22.1621 24.1181C22.1291 24.0361 22.1211 23.9736 22.1398 24.0128ZM45.9333 20.1797C45.9262 20.1419 45.9153 20.1037 45.9082 20.0659C45.9321 20.1263 45.9416 20.1767 45.9333 20.1797Z" fill="#216AD2"/>
<path d="M19.0662 29.944C18.5718 28.8652 17.7976 28.1369 17.1044 27.673C16.7085 27.4102 16.3036 27.2202 15.9021 27.0347C15.4816 26.8427 15.0621 26.6754 14.6433 26.5329C12.9761 25.9636 11.3181 25.7932 9.73748 26.0098C9.06134 26.1017 8.39548 26.2686 7.75252 26.504C7.65032 26.5035 7.54762 26.5071 7.44492 26.5106C5.83991 26.5766 4.27989 27.0377 2.96727 28.194C2.64034 28.4812 2.32771 28.8112 2.04103 29.1855C1.79289 29.503 1.53297 29.8519 1.42425 30.3755C1.32093 30.8875 1.44153 31.4644 1.59462 32.033C1.72919 32.5296 1.99609 32.9116 2.27223 33.188C3.00232 33.9231 3.80139 34.0435 4.54928 34.2272C5.4684 34.4569 6.38533 34.6413 7.29619 34.7797C9.12515 35.0616 10.9376 35.1611 12.7214 35.0806C13.6114 35.0401 14.4909 34.9573 15.3644 34.8287C16.2136 34.7052 17.0658 34.5574 17.8894 34.3241C18.4686 34.1587 19.122 33.8713 19.4159 33.0305C19.5613 32.6221 19.6003 32.0898 19.5149 31.546C19.4694 31.2492 19.3934 30.9445 19.316 30.6518C19.2528 30.402 19.1649 30.1613 19.0628 29.9394L19.0662 29.944ZM1.46493 31.4345C1.46813 31.4718 1.47571 31.5056 1.48279 31.5434C1.45803 31.4583 1.45398 31.3962 1.46493 31.4345ZM19.4543 31.276C19.4472 31.2382 19.4401 31.2004 19.433 31.1626C19.4487 31.2261 19.4581 31.2765 19.4543 31.276Z" fill="#0054B5"/>
</g>
<g clip-path="url(#clip3_3619_322105)">
<path d="M119.213 46.0842C121.575 46.7862 123.93 47.424 126.275 48.0002H201.731C205.509 46.9833 208.825 45.8652 211.6 44.7156C224.654 39.3123 204.127 36.4369 199.022 25.5922L110.202 16.3145C110.202 16.3145 101.167 22.6907 91.2498 26.3791C83.7673 29.1615 112.026 43.9478 119.213 46.0842Z" fill="url(#paint1_linear_3619_322105)"/>
<path d="M104.191 26.7911C105.087 26.3477 105.968 25.8933 106.837 25.443C111.531 23.0138 116.194 20.5229 120.932 18.1785C121.323 17.9855 121.715 17.7926 122.108 17.601L110.326 16.3706C110.326 16.3706 101.291 22.7469 91.3732 26.4353C89.3936 27.1716 89.9159 28.7482 91.8887 30.708C92.0121 30.7012 92.1368 30.693 92.2602 30.682C93.8135 30.5547 95.3393 30.2413 96.8391 29.8034C98.7159 29.234 100.542 28.4717 102.263 27.693C102.908 27.4001 103.551 27.099 104.191 26.7925V26.7911Z" fill="#2BA2FF"/>
<path d="M211.549 42.8309C212.279 43.1675 213.015 43.4919 213.755 43.8067C222.322 38.9878 203.939 35.8305 199.146 25.6495L188.326 24.519C189.132 25.0761 189.92 25.6591 190.688 26.2736C192.677 27.8666 194.515 29.639 196.215 31.5358C197.946 33.4656 199.669 35.3173 201.712 36.9281C204.665 39.2575 207.894 41.1174 211.274 42.7022C211.312 42.72 211.351 42.7378 211.389 42.757C211.442 42.7816 211.495 42.8062 211.548 42.8309H211.549Z" fill="#2BA2FF"/>
<path d="M199.025 25.5934C198.856 27.4287 196.356 28.9328 192.144 30.0263C184.068 32.1244 169.705 32.7184 153.49 31.254C137.904 29.8511 124.34 26.8813 116.594 23.5351C112.08 21.5848 109.531 19.5073 109.714 17.5365C110.2 12.1853 130.585 9.64929 155.247 11.876C179.91 14.0959 199.503 20.2422 199.023 25.5934H199.025Z" fill="#002994"/>
<path d="M192.144 30.0262C184.068 32.1243 169.704 32.7182 153.49 31.2538C137.904 29.851 124.34 26.8812 116.594 23.535C124.67 21.4369 139.034 20.8429 155.248 22.3073C170.834 23.7101 184.398 26.68 192.144 30.0262Z" fill="#001B74"/>
<path d="M155.178 11.8061C130.516 9.58209 110.13 12.1181 109.646 17.4707C109.163 22.8233 128.761 28.9655 153.423 31.1895C178.085 33.4135 198.469 30.8774 198.955 25.5249C199.439 20.1723 179.84 14.03 155.178 11.8061ZM194.006 25.1964C193.604 29.6416 174.919 31.5891 152.273 29.5472C129.626 27.5052 111.595 22.2457 111.996 17.8005C112.398 13.3553 131.082 11.4078 153.729 13.4497C176.375 15.4917 194.407 20.7512 194.006 25.1964Z" fill="#82C1FF"/>
</g>
<defs>
<linearGradient id="paint0_linear_3619_322105" x1="43.0286" y1="10.6006" x2="124.999" y2="10.6006" gradientUnits="userSpaceOnUse">
<stop stop-color="#0079D9"/>
<stop offset="1" stop-color="#0065CA"/>
</linearGradient>
<linearGradient id="paint1_linear_3619_322105" x1="89.9996" y1="32.1573" x2="215.876" y2="32.1573" gradientUnits="userSpaceOnUse">
<stop stop-color="#0047B7"/>
<stop offset="1" stop-color="#0058C5"/>
</linearGradient>
<clipPath id="clip0_3619_322105">
<rect width="80" height="21" fill="white" transform="translate(293 16)"/>
</clipPath>
<clipPath id="clip1_3619_322105">
<rect width="82" height="19" fill="white" transform="translate(42.9995)"/>
</clipPath>
<clipPath id="clip2_3619_322105">
<rect width="43.1817" height="22.3354" fill="white" transform="translate(3.73682 11.8418) rotate(7.12502)"/>
</clipPath>
<clipPath id="clip3_3619_322105">
<rect width="126" height="37" fill="white" transform="translate(89.9995 11)"/>
</clipPath>
</defs>
</svg>
