<svg width="1130" height="516" viewBox="0 0 1130 516" fill="none" xmlns="http://www.w3.org/2000/svg">
<path style="mix-blend-mode:screen" d="M72.8192 489.954L121.239 452.004C121.239 452.004 121.299 451.994 121.319 452.004C121.339 452.024 121.329 452.054 121.319 452.074L75.5792 493.244C74.6992 494.034 73.3392 493.964 72.5492 493.084C71.7592 492.204 71.8292 490.844 72.7092 490.054C72.7392 490.024 72.7892 489.984 72.8192 489.964V489.954Z" fill="url(#paint0_radial_3606_334072)"/>
<g clip-path="url(#clip0_3606_334072)">
<path style="mix-blend-mode:screen" d="M1047.82 222.954L1096.24 185.004C1096.24 185.004 1096.3 184.994 1096.32 185.004C1096.34 185.024 1096.33 185.054 1096.32 185.074L1050.58 226.244C1049.7 227.034 1048.34 226.964 1047.55 226.084C1046.76 225.204 1046.83 223.844 1047.71 223.054C1047.74 223.024 1047.79 222.984 1047.82 222.964V222.954Z" fill="url(#paint1_radial_3606_334072)"/>
</g>
<path style="mix-blend-mode:color-dodge" d="M1084.68 460.78C1087.79 462.313 1084.77 466.112 1081.66 464.578C1078.54 463.044 1081.57 459.246 1084.68 460.78Z" fill="url(#paint2_radial_3606_334072)"/>
<path style="mix-blend-mode:color-dodge" d="M44.3968 198.614C38.3782 198.614 38.3782 206.513 44.3968 206.513C50.4153 206.513 50.4153 198.614 44.3968 198.614Z" fill="url(#paint3_radial_3606_334072)"/>
<path style="mix-blend-mode:color-dodge" d="M1122.66 42.8823C1118.9 42.8823 1118.9 48.5248 1122.66 48.5248C1126.43 48.5248 1126.43 42.8823 1122.66 42.8823Z" fill="url(#paint4_radial_3606_334072)"/>
<path style="mix-blend-mode:color-dodge" d="M352.943 157.095C349.903 164.068 362.506 168.1 365.546 161.138C368.586 154.165 355.983 150.133 352.943 157.095Z" fill="url(#paint5_radial_3606_334072)"/>
<path style="mix-blend-mode:color-dodge" d="M523.295 439.395C526.348 435.024 518.734 430.812 515.68 435.182C512.639 439.553 520.241 443.765 523.295 439.395Z" fill="url(#paint6_radial_3606_334072)"/>
<path style="mix-blend-mode:color-dodge" d="M682.411 370.292C685.466 365.295 677.842 360.485 674.801 365.481C671.746 370.478 679.369 375.288 682.411 370.292Z" fill="url(#paint7_radial_3606_334072)"/>
<path style="mix-blend-mode:color-dodge" d="M789.709 359.536C792.374 355.791 785.71 352.179 783.044 355.924C780.379 359.67 787.043 363.282 789.709 359.536Z" fill="url(#paint8_radial_3606_334072)"/>
<path style="mix-blend-mode:color-dodge" d="M659.755 416.296C663.182 410.676 654.627 405.263 651.188 410.883C647.761 416.504 656.328 421.917 659.755 416.296Z" fill="url(#paint9_radial_3606_334072)"/>
<path style="mix-blend-mode:color-dodge" d="M534.723 123.005C529.457 123.005 529.457 129.776 534.723 129.776C539.989 129.776 539.989 123.005 534.723 123.005Z" fill="url(#paint10_radial_3606_334072)"/>
<path style="mix-blend-mode:color-dodge" d="M330.468 121.876C326.706 121.876 326.706 126.39 330.468 126.39C334.229 126.39 334.229 121.876 330.468 121.876Z" fill="url(#paint11_radial_3606_334072)"/>
<path style="mix-blend-mode:color-dodge" d="M976.714 235.755C975.601 237.811 979.739 239.137 980.851 237.081C981.964 235.025 977.826 233.699 976.714 235.755Z" fill="url(#paint12_radial_3606_334072)"/>
<path style="mix-blend-mode:color-dodge" d="M737.73 202.444C733.987 204.356 737.629 209.108 741.357 207.196C745.1 205.283 741.459 200.531 737.73 202.444Z" fill="url(#paint13_radial_3606_334072)"/>
<path style="mix-blend-mode:color-dodge" d="M445.191 433.786C442.075 435.701 445.097 440.45 448.213 438.535C451.329 436.619 448.308 431.87 445.191 433.786Z" fill="url(#paint14_radial_3606_334072)"/>
<path opacity="0.52" d="M926.872 383.121C926.872 382.806 926.362 382.557 925.744 382.557C925.126 382.557 924.615 382.812 924.615 383.121C924.615 383.43 925.126 383.686 925.744 383.686C926.362 383.686 926.872 383.43 926.872 383.121Z" fill="white"/>
<path opacity="0.39" d="M1054.39 318.233C1054.39 318.851 1053.88 319.361 1053.26 319.361C1052.65 319.361 1052.13 318.851 1052.13 318.233C1052.13 317.615 1052.63 317.104 1053.26 317.104C1053.89 317.104 1054.39 317.602 1054.39 318.233Z" fill="white"/>
<path opacity="0.77" d="M1113.07 304.127C1113.07 305.062 1112.31 305.82 1111.38 305.82C1110.44 305.82 1109.69 305.062 1109.69 304.127C1109.69 303.193 1110.44 302.435 1111.38 302.435C1112.31 302.435 1113.07 303.193 1113.07 304.127Z" fill="white"/>
<path opacity="0.26" d="M874.962 310.902C874.962 311.21 874.462 311.462 873.834 311.462C873.205 311.462 872.705 311.21 872.705 310.902C872.705 310.593 873.205 310.333 873.834 310.333C874.462 310.333 874.962 310.585 874.962 310.902Z" fill="white"/>
<path opacity="0.77" d="M1044.23 374.094C1044.23 373.784 1043.98 373.529 1043.67 373.529C1043.36 373.529 1043.11 373.784 1043.11 374.094C1043.11 374.403 1043.36 374.658 1043.67 374.658C1043.98 374.658 1044.23 374.403 1044.23 374.094Z" fill="white"/>
<path opacity="0.48" d="M890.761 309.769C890.761 310.082 890.257 310.334 889.632 310.334C889.008 310.334 888.504 310.082 888.504 309.769C888.504 309.457 889.008 309.205 889.632 309.205C890.257 309.205 890.761 309.457 890.761 309.769Z" fill="white"/>
<path opacity="0.43" d="M1130 305.256C1130 305.566 1129.75 305.82 1129.44 305.82C1129.13 305.82 1128.87 305.566 1128.87 305.256C1128.87 304.946 1129.13 304.691 1129.44 304.691C1129.75 304.691 1130 304.946 1130 305.256Z" fill="white"/>
<path opacity="0.03" d="M982.168 427.132C982.168 427.444 981.665 427.696 981.04 427.696C980.414 427.696 979.911 427.444 979.911 427.132C979.911 426.819 980.414 426.567 981.04 426.567C981.665 426.567 982.168 426.819 982.168 427.132Z" fill="white"/>
<path opacity="0.69" d="M1078.09 380.864C1078.09 380.553 1077.84 380.3 1077.53 380.3C1077.21 380.3 1076.96 380.553 1076.96 380.864C1076.96 381.175 1077.21 381.428 1077.53 381.428C1077.84 381.428 1078.09 381.175 1078.09 380.864Z" fill="white"/>
<path opacity="0.31" d="M1105.17 445.752C1105.17 446.377 1104.42 446.881 1103.48 446.881C1102.54 446.881 1101.79 446.377 1101.79 445.752C1101.79 445.127 1102.54 444.624 1103.48 444.624C1104.42 444.624 1105.17 445.127 1105.17 445.752Z" fill="white"/>
<path opacity="0.72" d="M1095.02 393.277C1095.02 392.969 1094.76 392.713 1094.45 392.713C1094.15 392.713 1093.89 392.969 1093.89 393.277C1093.89 393.585 1094.15 393.841 1094.45 393.841C1094.76 393.841 1095.02 393.585 1095.02 393.277Z" fill="white"/>
<path opacity="0.71" d="M903.173 421.49C903.173 421.176 902.923 420.925 902.609 420.925C902.296 420.925 902.045 421.176 902.045 421.49C902.045 421.803 902.296 422.054 902.609 422.054C902.923 422.054 903.173 421.803 903.173 421.49Z" fill="white"/>
<path opacity="0.06" d="M863.677 352.087C863.677 351.47 863.422 350.959 863.113 350.959C862.805 350.959 862.549 351.47 862.549 352.087C862.549 352.705 862.805 353.216 863.113 353.216C863.422 353.216 863.677 352.705 863.677 352.087Z" fill="white"/>
<path opacity="0.71" d="M844.493 471.143C844.493 472.075 843.732 472.836 842.8 472.836C841.868 472.836 841.107 472.075 841.107 471.143C841.107 470.211 841.868 469.45 842.8 469.45C843.732 469.45 844.493 470.211 844.493 471.143Z" fill="white"/>
<path opacity="0.4" d="M926.872 345.317C926.872 345.941 926.368 346.445 925.744 346.445C925.12 346.445 924.615 345.941 924.615 345.317C924.615 344.693 925.12 344.188 925.744 344.188C926.368 344.188 926.872 344.693 926.872 345.317Z" fill="white"/>
<path opacity="0.55" d="M886.246 372.965C886.246 372.658 885.751 372.4 885.118 372.4C884.484 372.4 883.989 372.658 883.989 372.965C883.989 373.271 884.504 373.529 885.118 373.529C885.732 373.529 886.246 373.271 886.246 372.965Z" fill="white"/>
<path opacity="0.51" d="M997.967 405.127C997.967 404.51 997.467 403.998 996.831 403.998C996.195 403.998 995.71 404.495 995.71 405.127C995.71 405.758 996.21 406.255 996.831 406.255C997.452 406.255 997.967 405.758 997.967 405.127Z" fill="white"/>
<path opacity="0.7" d="M101.949 336.289C102.572 336.289 103.077 335.783 103.077 335.16C103.077 334.537 102.572 334.032 101.949 334.032C101.326 334.032 100.82 334.537 100.82 335.16C100.82 335.783 101.326 336.289 101.949 336.289Z" fill="white"/>
<path opacity="0.61" d="M80.5078 227.954C80.5078 227.331 81.0133 226.826 81.6363 226.826C82.2593 226.826 82.7648 227.331 82.7648 227.954C82.7648 228.577 82.2593 229.083 81.6363 229.083C81.0133 229.083 80.5078 228.577 80.5078 227.954Z" fill="white"/>
<path opacity="0.21" d="M272.351 374.652C272.351 374.026 273.116 373.529 274.043 373.529C274.971 373.529 275.736 374.037 275.736 374.652C275.736 375.268 274.971 375.786 274.043 375.786C273.116 375.786 272.351 375.279 272.351 374.652Z" fill="white"/>
<path opacity="0.56" d="M396.484 337.418C396.484 336.797 396.992 336.289 397.613 336.289C398.234 336.289 398.741 336.797 398.741 337.418C398.741 338.038 398.234 338.546 397.613 338.546C396.992 338.546 396.484 338.038 396.484 337.418Z" fill="white"/>
<path opacity="0.08" d="M707.946 409.64C707.946 409.021 708.455 408.512 709.075 408.512C709.694 408.512 710.203 409.021 710.203 409.64C710.203 410.259 709.694 410.769 709.075 410.769C708.455 410.769 707.946 410.259 707.946 409.64Z" fill="white"/>
<path opacity="0.73" d="M540.931 221.747C540.931 221.432 541.444 221.183 542.059 221.183C542.675 221.183 543.188 221.44 543.188 221.747C543.188 222.055 542.675 222.312 542.059 222.312C541.444 222.312 540.931 222.055 540.931 221.747Z" fill="white"/>
<path opacity="0.52" d="M896.403 125.826C896.403 125.51 896.662 125.262 896.968 125.262C897.274 125.262 897.532 125.52 897.532 125.826C897.532 126.132 897.283 126.39 896.968 126.39C896.652 126.39 896.403 126.132 896.403 125.826Z" fill="white"/>
<path opacity="0.07" d="M16.1846 265.759C16.1846 266.068 16.439 266.323 16.7488 266.323C17.0586 266.323 17.3131 266.068 17.3131 265.759C17.3131 265.449 17.0586 265.194 16.7488 265.194C16.439 265.194 16.1846 265.449 16.1846 265.759Z" fill="white"/>
<path opacity="0.22" d="M382.942 106.078C382.942 106.697 383.452 107.206 384.071 107.206C384.69 107.206 385.199 106.697 385.199 106.078C385.199 105.459 384.69 104.949 384.071 104.949C383.452 104.949 382.942 105.459 382.942 106.078Z" fill="white"/>
<path opacity="0.56" d="M434.853 53.6033C434.853 53.9178 435.102 54.1675 435.417 54.1675C435.731 54.1675 435.981 53.9178 435.981 53.6033C435.981 53.2888 435.722 53.0391 435.417 53.0391C435.112 53.0391 434.853 53.2981 434.853 53.6033Z" fill="white"/>
<path opacity="0.68" d="M468.707 148.396C468.707 148.707 469.214 148.96 469.836 148.96C470.457 148.96 470.964 148.707 470.964 148.396C470.964 148.085 470.457 147.832 469.836 147.832C469.214 147.832 468.707 148.085 468.707 148.396Z" fill="white"/>
<path opacity="0.34" d="M502.562 468.886C502.562 469.203 502.82 469.45 503.126 469.45C503.431 469.45 503.69 469.192 503.69 468.886C503.69 468.58 503.431 468.322 503.126 468.322C502.82 468.322 502.562 468.569 502.562 468.886Z" fill="white"/>
<path opacity="0.39" d="M767.756 60.9381C767.756 61.5576 768.265 62.0665 768.884 62.0665C769.504 62.0665 770.013 61.5576 770.013 60.9381C770.013 60.3185 769.504 59.8096 768.884 59.8096C768.265 59.8096 767.756 60.3185 767.756 60.9381Z" fill="white"/>
<path opacity="0.58" d="M767.755 227.954C768.379 227.954 768.884 227.702 768.884 227.39C768.884 227.078 768.379 226.826 767.755 226.826C767.132 226.826 766.627 227.078 766.627 227.39C766.627 227.702 767.132 227.954 767.755 227.954Z" fill="white"/>
<path opacity="0.13" d="M823.052 413.59C823.052 413.91 823.307 414.154 823.616 414.154C823.925 414.154 824.18 413.899 824.18 413.59C824.18 413.281 823.925 413.026 823.616 413.026C823.307 413.026 823.052 413.281 823.052 413.59Z" fill="white"/>
<path opacity="0.77" d="M1028.44 77.8653C1028.44 78.4828 1028.69 78.9938 1029 78.9938C1029.31 78.9938 1029.57 78.4828 1029.57 77.8653C1029.57 77.2478 1029.31 76.7368 1029 76.7368C1028.69 76.7368 1028.44 77.2478 1028.44 77.8653Z" fill="white"/>
<path opacity="0.46" d="M17.3125 408.512C17.3125 409.127 17.8125 409.641 18.441 409.641C19.0695 409.641 19.5695 409.141 19.5695 408.512C19.5695 407.884 19.0695 407.384 18.441 407.384C17.8125 407.384 17.3125 407.884 17.3125 408.512Z" fill="white"/>
<path opacity="0.46" d="M319.747 98.1783C319.747 98.7971 320.245 99.3068 320.876 99.3068C321.507 99.3068 322.004 98.7971 322.004 98.1783C322.004 97.5594 321.494 97.0498 320.876 97.0498C320.257 97.0498 319.747 97.5473 319.747 98.1783Z" fill="white"/>
<path opacity="0.72" d="M57.9385 257.295C57.9385 257.918 58.6924 258.423 59.6238 258.423C60.5552 258.423 61.3239 257.918 61.3239 257.295C61.3239 256.671 60.57 256.166 59.6238 256.166C58.6777 256.166 57.9385 256.671 57.9385 257.295Z" fill="white"/>
<path opacity="0.62" d="M458.551 56.4244C458.551 57.0496 459.054 57.5529 459.679 57.5529C460.305 57.5529 460.808 57.0496 460.808 56.4244C460.808 55.7991 460.305 55.2959 459.679 55.2959C459.054 55.2959 458.551 55.7991 458.551 56.4244Z" fill="white"/>
<path opacity="0.39" d="M470.964 173.787C470.964 174.405 471.212 174.915 471.528 174.915C471.844 174.915 472.092 174.405 472.092 173.787C472.092 173.169 471.837 172.658 471.528 172.658C471.219 172.658 470.964 173.155 470.964 173.787Z" fill="white"/>
<path opacity="0.77" d="M710.203 46.2681C710.203 46.8915 710.708 47.3966 711.332 47.3966C711.955 47.3966 712.46 46.8915 712.46 46.2681C712.46 45.6448 711.955 45.1396 711.332 45.1396C710.708 45.1396 710.203 45.6448 710.203 46.2681Z" fill="white"/>
<path opacity="0.28" d="M770.013 277.043C770.013 277.358 770.512 277.607 771.141 277.607C771.77 277.607 772.27 277.358 772.27 277.043C772.27 276.729 771.77 276.479 771.141 276.479C770.512 276.479 770.013 276.729 770.013 277.043Z" fill="white"/>
<path opacity="0.69" d="M845.621 418.668C845.621 419.289 846.126 419.797 846.755 419.797C847.384 419.797 847.878 419.289 847.878 418.668C847.878 418.047 847.373 417.54 846.755 417.54C846.138 417.54 845.621 418.047 845.621 418.668Z" fill="white"/>
<path opacity="0.26" d="M947.186 53.6069C947.186 53.92 947.695 54.1675 948.307 54.1675C948.918 54.1675 949.443 53.9127 949.443 53.6069C949.443 53.3012 948.933 53.0391 948.307 53.0391C947.681 53.0391 947.186 53.2939 947.186 53.6069Z" fill="white"/>
<path opacity="0.59" d="M21.8262 449.702C21.8262 449.393 22.3358 449.138 22.9547 449.138C23.5735 449.138 24.0831 449.393 24.0831 449.702C24.0831 450.011 23.5735 450.266 22.9547 450.266C22.3358 450.266 21.8262 450.011 21.8262 449.702Z" fill="white"/>
<path opacity="0.09" d="M160.631 314.283C160.631 313.969 161.13 313.719 161.759 313.719C162.389 313.719 162.888 313.969 162.888 314.283C162.888 314.598 162.389 314.848 161.759 314.848C161.13 314.848 160.631 314.598 160.631 314.283Z" fill="white"/>
<path opacity="0.29" d="M139.189 34.4187C139.189 34.1078 139.443 33.8545 139.754 33.8545C140.065 33.8545 140.318 34.1078 140.318 34.4187C140.318 34.7296 140.065 34.983 139.754 34.983C139.443 34.983 139.189 34.7296 139.189 34.4187Z" fill="white"/>
<path opacity="0.5" d="M561.243 412.462C561.243 412.15 561.495 411.897 561.807 411.897C562.12 411.897 562.372 412.15 562.372 412.462C562.372 412.774 562.12 413.026 561.807 413.026C561.495 413.026 561.243 412.774 561.243 412.462Z" fill="white"/>
<path opacity="0.74" d="M442.752 290.021C442.752 289.399 443.259 288.892 443.88 288.892C444.502 288.892 445.009 289.399 445.009 290.021C445.009 290.642 444.502 291.149 443.88 291.149C443.259 291.149 442.752 290.642 442.752 290.021Z" fill="white"/>
<path opacity="0.69" d="M824.181 407.948C824.181 407.634 824.677 407.384 825.316 407.384C825.955 407.384 826.438 407.641 826.438 407.948C826.438 408.255 825.927 408.512 825.316 408.512C824.706 408.512 824.181 408.262 824.181 407.948Z" fill="white"/>
<path opacity="0.49" d="M698.918 217.234C698.918 216.916 699.177 216.669 699.482 216.669C699.788 216.669 700.046 216.916 700.046 217.234C700.046 217.551 699.788 217.798 699.482 217.798C699.177 217.798 698.918 217.551 698.918 217.234Z" fill="white"/>
<path opacity="0.17" d="M109.849 396.099C109.849 395.473 110.603 394.97 111.541 394.97C112.48 394.97 113.234 395.473 113.234 396.099C113.234 396.724 112.48 397.227 111.541 397.227C110.603 397.227 109.849 396.724 109.849 396.099Z" fill="white"/>
<path opacity="0.53" d="M28.5977 204.256C28.5977 203.634 29.1043 203.127 29.7261 203.127C30.348 203.127 30.8546 203.634 30.8546 204.256C30.8546 204.878 30.348 205.384 29.7261 205.384C29.1043 205.384 28.5977 204.878 28.5977 204.256Z" fill="white"/>
<path opacity="0.8" d="M349.088 301.306C349.088 300.687 349.598 300.177 350.216 300.177C350.835 300.177 351.345 300.687 351.345 301.306C351.345 301.925 350.835 302.434 350.216 302.434C349.598 302.434 349.088 301.925 349.088 301.306Z" fill="white"/>
<path opacity="0.48" d="M448.395 265.194C448.395 264.57 448.899 264.065 449.523 264.065C450.147 264.065 450.652 264.57 450.652 265.194C450.652 265.818 450.147 266.322 449.523 266.322C448.899 266.322 448.395 265.818 448.395 265.194Z" fill="white"/>
<path opacity="0.19" d="M393.099 295.664C393.099 295.031 393.607 294.535 394.227 294.535C394.847 294.535 395.356 295.044 395.356 295.664C395.356 296.284 394.847 296.792 394.227 296.792C393.607 296.792 393.099 296.284 393.099 295.664Z" fill="white"/>
<path opacity="0.52" d="M885.118 343.628C885.118 343.314 885.373 343.06 885.678 343.06C885.984 343.06 886.247 343.314 886.247 343.628C886.247 343.942 885.992 344.188 885.678 344.188C885.364 344.188 885.118 343.934 885.118 343.628Z" fill="white"/>
<path opacity="0.79" d="M852.393 376.914C852.393 376.291 853.147 375.786 854.078 375.786C855.009 375.786 855.778 376.291 855.778 376.914C855.778 377.538 855.024 378.043 854.078 378.043C853.132 378.043 852.393 377.538 852.393 376.914Z" fill="white"/>
<path opacity="0.77" d="M777.912 116.798C777.912 116.484 778.412 116.234 779.041 116.234C779.669 116.234 780.169 116.484 780.169 116.798C780.169 117.112 779.669 117.362 779.041 117.362C778.412 117.362 777.912 117.112 777.912 116.798Z" fill="white"/>
<path opacity="0.26" d="M27.4688 155.731C27.4688 156.35 27.9779 156.86 28.5972 156.86C29.2165 156.86 29.7257 156.35 29.7257 155.731C29.7257 155.112 29.2165 154.603 28.5972 154.603C27.9779 154.603 27.4688 155.112 27.4688 155.731Z" fill="white"/>
<path opacity="0.3" d="M417.925 86.8936C417.925 87.5206 418.426 88.0221 419.053 88.0221C419.68 88.0221 420.182 87.5206 420.182 86.8936C420.182 86.2667 419.68 85.7651 419.053 85.7651C418.426 85.7651 417.925 86.2667 417.925 86.8936Z" fill="white"/>
<path opacity="0.5" d="M520.617 0.564243C520.617 0.876592 520.869 1.12849 521.181 1.12849C521.494 1.12849 521.746 0.876592 521.746 0.564243C521.746 0.251894 521.494 0 521.181 0C520.869 0 520.617 0.251894 520.617 0.564243Z" fill="white"/>
<path opacity="0.43" d="M373.914 137.675C373.914 138.311 374.423 138.804 375.043 138.804C375.662 138.804 376.171 138.295 376.171 137.675C376.171 137.055 375.662 136.547 375.043 136.547C374.423 136.547 373.914 137.055 373.914 137.675Z" fill="white"/>
<path opacity="0.56" d="M448.395 345.881C448.395 346.194 448.646 346.445 448.959 346.445C449.271 346.445 449.523 346.194 449.523 345.881C449.523 345.569 449.271 345.317 448.959 345.317C448.646 345.317 448.395 345.569 448.395 345.881Z" fill="white"/>
<path opacity="0.66" d="M720.359 337.418C720.359 338.031 720.607 338.546 720.924 338.546C721.24 338.546 721.488 338.051 721.488 337.418C721.488 336.784 721.24 336.289 720.924 336.289C720.607 336.289 720.359 336.784 720.359 337.418Z" fill="white"/>
<path opacity="0.48" d="M932.516 52.4744C932.516 52.7879 932.766 53.0386 933.08 53.0386C933.393 53.0386 933.644 52.7879 933.644 52.4744C933.644 52.1609 933.393 51.9102 933.08 51.9102C932.766 51.9102 932.516 52.1609 932.516 52.4744Z" fill="white"/>
<path opacity="0.22" d="M109.849 129.776C109.849 130.401 110.102 130.904 110.417 130.904C110.731 130.904 110.977 130.401 110.977 129.776C110.977 129.151 110.724 128.647 110.417 128.647C110.11 128.647 109.849 129.151 109.849 129.776Z" fill="white"/>
<path opacity="0.13" d="M500.305 21.4415C500.305 22.0592 500.815 22.57 501.433 22.57C502.051 22.57 502.562 22.0592 502.562 21.4415C502.562 20.8238 502.063 20.313 501.433 20.313C500.804 20.313 500.305 20.8238 500.305 21.4415Z" fill="white"/>
<path opacity="0.18" d="M41.0107 174.916C41.0107 175.541 41.5135 176.044 42.1392 176.044C42.7649 176.044 43.2677 175.541 43.2677 174.916C43.2677 174.29 42.7649 173.787 42.1392 173.787C41.5135 173.787 41.0107 174.29 41.0107 174.916Z" fill="white"/>
<path opacity="0.65" d="M318.619 45.1397C318.619 45.7681 319.119 46.2682 319.748 46.2682C320.376 46.2682 320.876 45.7681 320.876 45.1397C320.876 44.5114 320.376 44.0112 319.748 44.0112C319.119 44.0112 318.619 44.5114 318.619 45.1397Z" fill="white"/>
<path opacity="0.79" d="M580.427 257.859C580.427 258.791 580.933 259.551 581.555 259.551C582.177 259.551 582.684 258.791 582.684 257.859C582.684 256.926 582.177 256.166 581.555 256.166C580.933 256.166 580.427 256.926 580.427 257.859Z" fill="white"/>
<path opacity="0.7" d="M700.047 366.194C700.047 367.13 700.804 367.886 701.74 367.886C702.675 367.886 703.432 367.13 703.432 366.194C703.432 365.258 702.675 364.501 701.74 364.501C700.804 364.501 700.047 365.258 700.047 366.194Z" fill="white"/>
<path opacity="0.43" d="M692.147 48.5169C692.147 49.138 692.644 49.653 693.276 49.653C693.908 49.653 694.404 49.1531 694.404 48.5169C694.404 47.8807 693.908 47.396 693.276 47.396C692.644 47.396 692.147 47.8959 692.147 48.5169Z" fill="white"/>
<path opacity="0.29" d="M798.226 467.2C798.226 467.819 798.731 468.322 799.354 468.322C799.977 468.322 800.483 467.819 800.483 467.2C800.483 466.581 799.977 466.065 799.354 466.065C798.731 466.065 798.226 466.568 798.226 467.2Z" fill="white"/>
<path opacity="0.03" d="M841.107 170.401C841.107 171.024 841.615 171.53 842.242 171.53C842.868 171.53 843.364 171.024 843.364 170.401C843.364 169.778 842.856 169.273 842.242 169.273C841.627 169.273 841.107 169.778 841.107 170.401Z" fill="white"/>
<path opacity="0.36" d="M96.3066 210.463C96.3066 210.149 96.5574 209.898 96.8709 209.898C97.1844 209.898 97.4351 210.149 97.4351 210.463C97.4351 210.776 97.1844 211.027 96.8709 211.027C96.5574 211.027 96.3066 210.776 96.3066 210.463Z" fill="white"/>
<path opacity="0.63" d="M53.4238 125.826C53.4238 125.514 53.6759 125.262 53.9881 125.262C54.3002 125.262 54.5523 125.514 54.5523 125.826C54.5523 126.138 54.3002 126.39 53.9881 126.39C53.6759 126.39 53.4238 126.138 53.4238 125.826Z" fill="white"/>
<path opacity="0.45" d="M263.322 416.976C263.322 416.662 263.573 416.412 263.887 416.412C264.2 416.412 264.451 416.662 264.451 416.976C264.451 417.289 264.2 417.54 263.887 417.54C263.573 417.54 263.322 417.289 263.322 416.976Z" fill="white"/>
<path opacity="0.17" d="M466.45 441.803C466.45 440.868 466.953 440.11 467.573 440.11C468.193 440.11 468.707 440.868 468.707 441.803C468.707 442.737 468.204 443.495 467.573 443.495C466.941 443.495 466.45 442.737 466.45 441.803Z" fill="white"/>
<path opacity="0.22" d="M873.834 288.892C873.834 288.269 874.339 287.764 874.962 287.764C875.586 287.764 876.091 288.269 876.091 288.892C876.091 289.515 875.586 290.021 874.962 290.021C874.339 290.021 873.834 289.515 873.834 288.892Z" fill="white"/>
<path opacity="0.15" d="M367.144 284.378C367.144 284.996 367.641 285.507 368.272 285.507C368.903 285.507 369.401 285.01 369.401 284.378C369.401 283.747 368.903 283.25 368.272 283.25C367.641 283.25 367.144 283.747 367.144 284.378Z" fill="white"/>
<path opacity="0.62" d="M134.676 418.104C134.676 419.036 135.183 419.797 135.804 419.797C136.425 419.797 136.933 419.036 136.933 418.104C136.933 417.173 136.425 416.412 135.804 416.412C135.183 416.412 134.676 417.173 134.676 418.104Z" fill="white"/>
<path opacity="0.53" d="M467.578 42.3182C467.578 42.6309 468.081 42.8824 468.707 42.8824C469.332 42.8824 469.835 42.6309 469.835 42.3182C469.835 42.0054 469.332 41.7539 468.707 41.7539C468.081 41.7539 467.578 42.0054 467.578 42.3182Z" fill="white"/>
<path opacity="0.52" d="M489.02 271.958C489.02 272.586 489.527 273.093 490.155 273.093C490.782 273.093 491.277 272.586 491.277 271.958C491.277 271.331 490.769 270.836 490.155 270.836C489.54 270.836 489.02 271.344 489.02 271.958Z" fill="white"/>
<path opacity="0.27" d="M604.125 332.903C604.125 333.53 604.376 334.032 604.689 334.032C605.003 334.032 605.253 333.53 605.253 332.903C605.253 332.276 605.003 331.775 604.689 331.775C604.376 331.775 604.125 332.276 604.125 332.903Z" fill="white"/>
<path opacity="0.31" d="M718.103 188.457C718.103 189.079 718.609 189.586 719.231 189.586C719.853 189.586 720.36 189.079 720.36 188.457C720.36 187.835 719.853 187.329 719.231 187.329C718.609 187.329 718.103 187.835 718.103 188.457Z" fill="white"/>
<path opacity="0.25" d="M811.767 356.602C811.767 357.222 812.274 357.73 812.895 357.73C813.516 357.73 814.024 357.222 814.024 356.602C814.024 355.981 813.516 355.473 812.895 355.473C812.274 355.473 811.767 355.981 811.767 356.602Z" fill="white"/>
<path opacity="0.69" d="M1013.77 22.0056C1013.77 22.3134 1014.02 22.5699 1014.33 22.5699C1014.64 22.5699 1014.89 22.3134 1014.89 22.0056C1014.89 21.6979 1014.64 21.4414 1014.33 21.4414C1014.02 21.4414 1013.77 21.6979 1013.77 22.0056Z" fill="white"/>
<path opacity="0.37" d="M26.3408 466.629C26.3408 466.315 26.5906 466.065 26.9051 466.065C27.2196 466.065 27.4693 466.315 27.4693 466.629C27.4693 466.944 27.2196 467.193 26.9051 467.193C26.5906 467.193 26.3408 466.944 26.3408 466.629Z" fill="white"/>
<path opacity="0.69" d="M214.798 287.2C214.798 286.888 215.05 286.636 215.362 286.636C215.674 286.636 215.926 286.888 215.926 287.2C215.926 287.512 215.674 287.764 215.362 287.764C215.05 287.764 214.798 287.512 214.798 287.2Z" fill="white"/>
<path opacity="0.39" d="M206.898 81.8152C206.898 81.5003 207.148 81.251 207.463 81.251C207.778 81.251 208.027 81.5003 208.027 81.8152C208.027 82.1301 207.778 82.3795 207.463 82.3795C207.148 82.3795 206.898 82.117 206.898 81.8152Z" fill="white"/>
<path opacity="0.43" d="M509.332 401.741C509.332 401.112 509.588 400.612 509.9 400.612C510.212 400.612 510.461 401.127 510.461 401.741C510.461 402.355 510.205 402.869 509.9 402.869C509.595 402.869 509.332 402.355 509.332 401.741Z" fill="white"/>
<path opacity="0.44" d="M754.214 378.607C754.214 378.293 754.463 378.043 754.778 378.043C755.093 378.043 755.342 378.293 755.342 378.607C755.342 378.922 755.093 379.171 754.778 379.171C754.463 379.171 754.214 378.922 754.214 378.607Z" fill="white"/>
<path opacity="0.72" d="M727.131 135.976C727.131 135.661 727.383 135.418 727.695 135.418C728.007 135.418 728.259 135.673 728.259 135.976C728.259 136.279 728.007 136.546 727.695 136.546C727.383 136.546 727.131 136.292 727.131 135.976Z" fill="white"/>
<path opacity="0.71" d="M918.973 164.195C918.973 163.886 919.467 163.63 920.09 163.63C920.714 163.63 921.23 163.886 921.23 164.195C921.23 164.503 920.735 164.759 920.09 164.759C919.445 164.759 918.973 164.514 918.973 164.195Z" fill="white"/>
<path opacity="0.44" d="M75.9941 413.026C75.9941 412.407 76.7591 411.897 77.6869 411.897C78.6146 411.897 79.3796 412.407 79.3796 413.026C79.3796 413.644 78.6146 414.154 77.6869 414.154C76.7591 414.154 75.9941 413.644 75.9941 413.026Z" fill="white"/>
<path opacity="0.1" d="M57.9385 143.317C57.9385 142.703 58.4416 142.189 59.0598 142.189C59.6779 142.189 60.1954 142.689 60.1954 143.317C60.1954 143.946 59.6923 144.446 59.0598 144.446C58.4272 144.446 57.9385 143.946 57.9385 143.317Z" fill="white"/>
<path opacity="0.11" d="M323.133 428.825C323.133 428.201 323.89 427.696 324.826 427.696C325.761 427.696 326.518 428.201 326.518 428.825C326.518 429.448 325.761 429.953 324.826 429.953C323.89 429.953 323.133 429.448 323.133 428.825Z" fill="white"/>
<path opacity="0.8" d="M188.843 236.418C188.843 236.114 189.348 235.854 189.962 235.854C190.576 235.854 191.1 236.105 191.1 236.418C191.1 236.732 190.594 236.982 189.962 236.982C189.33 236.982 188.843 236.732 188.843 236.418Z" fill="white"/>
<path opacity="0.41" d="M134.676 119.055C134.676 118.747 135.172 118.491 135.804 118.491C136.436 118.491 136.933 118.739 136.933 119.055C136.933 119.371 136.436 119.619 135.804 119.619C135.172 119.619 134.676 119.363 134.676 119.055Z" fill="white"/>
<path opacity="0.51" d="M367.144 457.03C367.144 456.413 367.394 455.908 367.708 455.908C368.021 455.908 368.272 456.413 368.272 457.03C368.272 457.647 368.021 458.165 367.708 458.165C367.394 458.165 367.144 457.661 367.144 457.03Z" fill="white"/>
<path opacity="0.51" d="M573.656 53.6033C573.656 53.2853 573.913 53.0391 574.22 53.0391C574.528 53.0391 574.785 53.2955 574.785 53.6033C574.785 53.9111 574.528 54.1675 574.22 54.1675C573.913 54.1675 573.656 53.9111 573.656 53.6033Z" fill="white"/>
<path opacity="0.22" d="M666.192 329.518C666.192 328.898 666.701 328.39 667.321 328.39C667.941 328.39 668.449 328.898 668.449 329.518C668.449 330.138 667.941 330.647 667.321 330.647C666.701 330.647 666.192 330.138 666.192 329.518Z" fill="white"/>
<path opacity="0.58" d="M577.042 100.435C577.042 99.8109 577.546 99.3066 578.17 99.3066C578.795 99.3066 579.299 99.8109 579.299 100.435C579.299 101.059 578.795 101.564 578.17 101.564C577.546 101.564 577.042 101.059 577.042 100.435Z" fill="white"/>
<path opacity="0.06" d="M958.47 94.7926C958.47 94.177 958.719 93.6641 959.034 93.6641C959.349 93.6641 959.598 94.1624 959.598 94.7926C959.598 95.4227 959.349 95.921 959.034 95.921C958.719 95.921 958.47 95.4227 958.47 94.7926Z" fill="white"/>
<path opacity="0.75" d="M116.619 216.67C116.619 217.292 116.872 217.798 117.183 217.798C117.494 217.798 117.748 217.292 117.748 216.67C117.748 216.047 117.494 215.541 117.183 215.541C116.872 215.541 116.619 216.047 116.619 216.67Z" fill="white"/>
<path opacity="0.29" d="M402.127 249.39C402.127 250.01 402.632 250.524 403.255 250.524C403.878 250.524 404.384 250.021 404.384 249.39C404.384 248.758 403.878 248.267 403.255 248.267C402.632 248.267 402.127 248.77 402.127 249.39Z" fill="white"/>
<path opacity="0.51" d="M496.919 89.1433C496.919 89.7614 497.171 90.2789 497.487 90.2789C497.803 90.2789 498.047 89.7758 498.047 89.1433C498.047 88.5107 497.796 88.022 497.487 88.022C497.178 88.022 496.919 88.5251 496.919 89.1433Z" fill="white"/>
<path opacity="0.45" d="M490.148 137.111C490.148 137.426 490.398 137.675 490.713 137.675C491.027 137.675 491.277 137.426 491.277 137.111C491.277 136.797 491.027 136.547 490.713 136.547C490.398 136.547 490.148 136.797 490.148 137.111Z" fill="white"/>
<path opacity="0.45" d="M477.735 323.311C477.735 323.62 477.99 323.875 478.3 323.875C478.609 323.875 478.864 323.62 478.864 323.311C478.864 323.001 478.609 322.747 478.3 322.747C477.99 322.747 477.735 323.001 477.735 323.311Z" fill="white"/>
<path opacity="0.16" d="M827.565 264.065C827.565 264.687 828.073 265.194 828.694 265.194C829.315 265.194 829.822 264.687 829.822 264.065C829.822 263.444 829.315 262.937 828.694 262.937C828.073 262.937 827.565 263.444 827.565 264.065Z" fill="white"/>
<path opacity="0.68" d="M694.404 411.333C694.404 411.648 694.653 411.897 694.969 411.897C695.284 411.897 695.533 411.648 695.533 411.333C695.533 411.018 695.284 410.769 694.969 410.769C694.653 410.769 694.404 411.018 694.404 411.333Z" fill="white"/>
<path opacity="0.27" d="M1082.6 84.0721C1082.6 84.3886 1082.85 84.6363 1083.17 84.6363C1083.48 84.6363 1083.73 84.3886 1083.73 84.0721C1083.73 83.7555 1083.48 83.5078 1083.17 83.5078C1082.85 83.5078 1082.6 83.7555 1082.6 84.0721Z" fill="white"/>
<path opacity="0.57" d="M454.037 319.926C454.037 320.237 454.543 320.49 455.166 320.49C455.788 320.49 456.294 320.237 456.294 319.926C456.294 319.615 455.788 319.362 455.166 319.362C454.543 319.362 454.037 319.615 454.037 319.926Z" fill="white"/>
<path opacity="0.15" d="M370.529 6.77058C370.529 7.39377 371.035 7.89906 371.658 7.89906C372.281 7.89906 372.786 7.39377 372.786 6.77058C372.786 6.14738 372.281 5.64209 371.658 5.64209C371.035 5.64209 370.529 6.14738 370.529 6.77058Z" fill="white"/>
<path opacity="0.04" d="M273.479 296.792C273.479 297.41 273.99 297.921 274.608 297.921C275.226 297.921 275.736 297.41 275.736 296.792C275.736 296.174 275.226 295.664 274.608 295.664C273.99 295.664 273.479 296.174 273.479 296.792Z" fill="white"/>
<path opacity="0.68" d="M597.354 262.938C597.354 263.566 597.855 264.066 598.483 264.066C599.111 264.066 599.611 263.566 599.611 262.938C599.611 262.309 599.111 261.809 598.483 261.809C597.855 261.809 597.354 262.309 597.354 262.938Z" fill="white"/>
<path opacity="0.71" d="M978.783 213.848C978.783 214.782 979.289 215.541 979.912 215.541C980.534 215.541 981.04 214.782 981.04 213.848C981.04 212.914 980.534 212.155 979.912 212.155C979.289 212.155 978.783 212.914 978.783 213.848Z" fill="white"/>
<path opacity="0.66" d="M720.359 290.021C720.359 290.648 720.61 291.149 720.924 291.149C721.237 291.149 721.488 290.648 721.488 290.021C721.488 289.394 721.237 288.892 720.924 288.892C720.61 288.892 720.359 289.394 720.359 290.021Z" fill="white"/>
<path opacity="0.4" d="M895.275 88.022C895.275 88.6419 895.788 89.1505 896.412 89.1505C897.036 89.1505 897.532 88.6419 897.532 88.022C897.532 87.4022 897.02 86.8936 896.412 86.8936C895.804 86.8936 895.275 87.4022 895.275 88.022Z" fill="white"/>
<path opacity="0.13" d="M131.29 273.658C131.29 273.343 131.54 273.094 131.854 273.094C132.169 273.094 132.419 273.343 132.419 273.658C132.419 273.973 132.169 274.222 131.854 274.222C131.54 274.222 131.29 273.973 131.29 273.658Z" fill="white"/>
<path opacity="0.36" d="M385.199 404.562C385.199 404.253 385.708 403.998 386.328 403.998C386.947 403.998 387.456 404.253 387.456 404.562C387.456 404.872 386.947 405.127 386.328 405.127C385.708 405.127 385.199 404.872 385.199 404.562Z" fill="white"/>
<path opacity="0.7" d="M685.377 471.707C685.377 471.083 685.882 470.579 686.505 470.579C687.129 470.579 687.634 471.083 687.634 471.707C687.634 472.331 687.129 472.836 686.505 472.836C685.882 472.836 685.377 472.331 685.377 471.707Z" fill="white"/>
<path opacity="0.41" d="M463.064 448.573C463.064 448.263 463.572 448.009 464.193 448.009C464.814 448.009 465.321 448.263 465.321 448.573C465.321 448.883 464.814 449.137 464.193 449.137C463.572 449.137 463.064 448.883 463.064 448.573Z" fill="white"/>
<path opacity="0.05" d="M568.014 290.585C568.014 290.279 568.51 290.021 569.13 290.021C569.75 290.021 570.271 290.266 570.271 290.585C570.271 290.904 569.775 291.149 569.13 291.149C568.485 291.149 568.014 290.904 568.014 290.585Z" fill="white"/>
<path opacity="0.4" d="M499.177 52.4809C499.177 52.1696 499.423 51.9102 499.735 51.9102C500.046 51.9102 500.305 52.1696 500.305 52.4809C500.305 52.7922 500.046 53.0386 499.735 53.0386C499.423 53.0386 499.177 52.7922 499.177 52.4809Z" fill="white"/>
<path opacity="0.55" d="M937.028 115.67C937.028 115.353 937.287 115.106 937.593 115.106C937.898 115.106 938.157 115.365 938.157 115.67C938.157 115.976 937.898 116.234 937.593 116.234C937.287 116.234 937.028 115.976 937.028 115.67Z" fill="white"/>
<path opacity="0.53" d="M886.247 261.245C886.247 260.933 886.499 260.681 886.811 260.681C887.124 260.681 887.376 260.933 887.376 261.245C887.376 261.557 887.124 261.809 886.811 261.809C886.499 261.809 886.247 261.557 886.247 261.245Z" fill="white"/>
<path opacity="0.5" d="M495.791 326.697C495.791 325.764 496.551 325.004 497.484 325.004C498.416 325.004 499.176 325.764 499.176 326.697C499.176 327.629 498.416 328.389 497.484 328.389C496.551 328.389 495.791 327.629 495.791 326.697Z" fill="white"/>
<path opacity="0.62" d="M188.843 88.022C188.843 87.4127 189.091 86.8936 189.407 86.8936C189.723 86.8936 189.971 87.3901 189.971 88.022C189.971 88.654 189.723 89.1505 189.407 89.1505C189.091 89.1505 188.843 88.654 188.843 88.022Z" fill="white"/>
<path opacity="0.27" d="M249.781 450.83C249.781 449.903 250.28 449.138 250.91 449.138C251.539 449.138 252.038 449.886 252.038 450.83C252.038 451.774 251.539 452.523 250.91 452.523C250.28 452.523 249.781 451.774 249.781 450.83Z" fill="white"/>
<path opacity="0.26" d="M470.964 269.144C470.964 268.835 471.219 268.58 471.528 268.58C471.837 268.58 472.092 268.835 472.092 269.144C472.092 269.453 471.837 269.708 471.528 269.708C471.219 269.708 470.964 269.453 470.964 269.144Z" fill="white"/>
<path opacity="0.62" d="M416.797 172.658C416.797 172.031 417.298 171.53 417.925 171.53C418.552 171.53 419.054 172.031 419.054 172.658C419.054 173.285 418.552 173.787 417.925 173.787C417.298 173.787 416.797 173.285 416.797 172.658Z" fill="white"/>
<path opacity="0.5" d="M678.605 67.7091C678.605 67.0809 679.356 66.5806 680.298 66.5806C681.24 66.5806 681.991 67.0916 681.991 67.7091C681.991 68.3265 681.224 68.8375 680.298 68.8375C679.372 68.8375 678.605 68.3265 678.605 67.7091Z" fill="white"/>
<path opacity="0.51" d="M824.181 147.832C824.181 147.201 824.695 146.703 825.309 146.703C825.923 146.703 826.438 147.218 826.438 147.832C826.438 148.446 825.923 148.96 825.309 148.96C824.695 148.96 824.181 148.446 824.181 147.832Z" fill="white"/>
<path opacity="0.52" d="M1075.83 34.983C1075.83 34.3674 1076.33 33.8545 1076.96 33.8545C1077.59 33.8545 1078.09 34.3528 1078.09 34.983C1078.09 35.6132 1077.59 36.1115 1076.96 36.1115C1076.33 36.1115 1075.83 35.6132 1075.83 34.983Z" fill="white"/>
<path opacity="0.33" d="M1092.76 68.2692C1092.76 67.9607 1093.27 67.709 1093.89 67.709C1094.51 67.709 1095.02 67.9607 1095.02 68.2692C1095.02 68.5777 1094.51 68.8375 1093.89 68.8375C1093.27 68.8375 1092.76 68.5858 1092.76 68.2692Z" fill="white"/>
<path opacity="0.22" d="M246.396 191.843C246.396 192.474 246.906 192.971 247.524 192.971C248.142 192.971 248.652 192.461 248.652 191.843C248.652 191.225 248.142 190.714 247.524 190.714C246.906 190.714 246.396 191.225 246.396 191.843Z" fill="white"/>
<path opacity="0.12" d="M310.72 167.58C310.72 167.892 311.225 168.145 311.848 168.145C312.472 168.145 312.977 167.892 312.977 167.58C312.977 167.269 312.472 167.016 311.848 167.016C311.225 167.016 310.72 167.269 310.72 167.58Z" fill="white"/>
<path opacity="0.42" d="M459.679 107.206C459.679 107.825 460.176 108.335 460.807 108.335C461.438 108.335 461.936 107.825 461.936 107.206C461.936 106.587 461.438 106.078 460.807 106.078C460.176 106.078 459.679 106.587 459.679 107.206Z" fill="white"/>
<path opacity="0.59" d="M193.356 16.9273C193.356 17.56 193.613 18.0558 193.921 18.0558C194.228 18.0558 194.485 17.5429 194.485 16.9273C194.485 16.3118 194.228 15.7988 193.921 15.7988C193.613 15.7988 193.356 16.3118 193.356 16.9273Z" fill="white"/>
<path opacity="0.54" d="M493.534 221.183C493.534 221.806 494.039 222.312 494.663 222.312C495.286 222.312 495.791 221.806 495.791 221.183C495.791 220.56 495.286 220.055 494.663 220.055C494.039 220.055 493.534 220.56 493.534 221.183Z" fill="white"/>
<path opacity="0.33" d="M722.617 341.931C722.617 342.548 723.116 343.06 723.746 343.06C724.376 343.06 724.874 342.561 724.874 341.931C724.874 341.301 724.376 340.803 723.746 340.803C723.116 340.803 722.617 341.301 722.617 341.931Z" fill="white"/>
<path opacity="0.03" d="M522.875 413.59C522.875 413.906 523.131 414.154 523.439 414.154C523.747 414.154 524.003 413.898 524.003 413.59C524.003 413.282 523.747 413.026 523.439 413.026C523.131 413.026 522.875 413.282 522.875 413.59Z" fill="white"/>
<path opacity="0.04" d="M1117.59 428.825C1117.59 431.326 1115.31 433.339 1112.51 433.339C1109.71 433.339 1107.43 431.314 1107.43 428.825C1107.43 426.336 1109.71 424.311 1112.51 424.311C1115.31 424.311 1117.59 426.336 1117.59 428.825Z" fill="#DCD1FF"/>
<path opacity="0.08" d="M829.823 268.015C829.823 268.952 828.814 269.708 827.566 269.708C826.317 269.708 825.309 268.952 825.309 268.015C825.309 267.079 826.317 266.323 827.566 266.323C828.814 266.323 829.823 267.079 829.823 268.015Z" fill="#DCD1FF"/>
<path opacity="0.03" d="M1105.17 378.043C1105.17 377.42 1104.67 376.914 1104.05 376.914C1103.42 376.914 1102.92 377.42 1102.92 378.043C1102.92 378.665 1103.42 379.171 1104.05 379.171C1104.67 379.171 1105.17 378.665 1105.17 378.043Z" fill="#DCD1FF"/>
<path opacity="0.07" d="M920.102 405.691C920.102 404.76 919.341 403.998 918.41 403.998C917.479 403.998 916.717 404.748 916.717 405.691C916.717 406.634 917.479 407.384 918.41 407.384C919.341 407.384 920.102 406.622 920.102 405.691Z" fill="#DCD1FF"/>
<path opacity="0.08" d="M1106.3 420.925C1106.3 419.677 1105.04 418.668 1103.48 418.668C1101.92 418.668 1100.66 419.677 1100.66 420.925C1100.66 422.173 1101.92 423.182 1103.48 423.182C1105.04 423.182 1106.3 422.173 1106.3 420.925Z" fill="#DCD1FF"/>
<path opacity="0.09" d="M882.862 338.553C882.862 337.305 882.1 336.289 881.164 336.289C880.228 336.289 879.477 337.305 879.477 338.553C879.477 339.802 880.239 340.803 881.164 340.803C882.089 340.803 882.862 339.787 882.862 338.553Z" fill="#DCD1FF"/>
<path opacity="0.05" d="M143.703 393.278C143.703 394.839 144.963 396.099 146.524 396.099C148.085 396.099 149.346 394.839 149.346 393.278C149.346 391.717 148.085 390.457 146.524 390.457C144.963 390.457 143.703 391.717 143.703 393.278Z" fill="#DCD1FF"/>
<path opacity="0.07" d="M465.322 30.4694C465.322 31.7146 466.334 32.7263 467.579 32.7263C468.824 32.7263 469.836 31.7146 469.836 30.4694C469.836 29.2241 468.824 28.2124 467.579 28.2124C466.334 28.2124 465.322 29.2241 465.322 30.4694Z" fill="#DCD1FF"/>
<path opacity="0.06" d="M487.892 253.909C489.138 253.909 490.149 253.152 490.149 252.217C490.149 251.282 489.138 250.524 487.892 250.524C486.645 250.524 485.635 251.282 485.635 252.217C485.635 253.152 486.645 253.909 487.892 253.909Z" fill="#DCD1FF"/>
<path opacity="0.08" d="M597.354 311.462C597.354 312.71 598.364 313.719 599.611 313.719C600.859 313.719 601.868 312.71 601.868 311.462C601.868 310.214 600.859 309.205 599.611 309.205C598.364 309.205 597.354 310.214 597.354 311.462Z" fill="#DCD1FF"/>
<path opacity="0.04" d="M704.561 171.53C704.561 174.031 706.838 176.044 709.639 176.044C712.439 176.044 714.717 174.019 714.717 171.53C714.717 169.041 712.439 167.016 709.639 167.016C706.838 167.016 704.561 169.041 704.561 171.53Z" fill="#DCD1FF"/>
<path opacity="0.02" d="M798.226 334.032C798.226 335.274 799.24 336.289 800.483 336.289C801.725 336.289 802.74 335.274 802.74 334.032C802.74 332.79 801.725 331.775 800.483 331.775C799.24 331.775 798.226 332.79 798.226 334.032Z" fill="#DCD1FF"/>
<path opacity="0.08" d="M993.453 10.7206C993.453 11.657 994.209 12.4133 995.146 12.4133C996.082 12.4133 996.839 11.657 996.839 10.7206C996.839 9.78416 996.082 9.02783 995.146 9.02783C994.209 9.02783 993.453 9.78416 993.453 10.7206Z" fill="#DCD1FF"/>
<path opacity="0.03" d="M1029.56 170.965C1029.56 172.53 1030.83 173.786 1032.39 173.786C1033.94 173.786 1035.21 172.53 1035.21 170.965C1035.21 169.401 1033.95 168.144 1032.39 168.144C1030.82 168.144 1029.56 169.401 1029.56 170.965Z" fill="#DCD1FF"/>
<path opacity="0.06" d="M38.7539 440.674C38.7539 439.743 39.7695 438.981 41.0109 438.981C42.2522 438.981 43.2679 439.743 43.2679 440.674C43.2679 441.605 42.2522 442.366 41.0109 442.366C39.7695 442.366 38.7539 441.605 38.7539 440.674Z" fill="#DCD1FF"/>
<path opacity="0.09" d="M221.568 266.323C221.568 265.695 222.079 265.194 222.697 265.194C223.314 265.194 223.825 265.705 223.825 266.323C223.825 266.94 223.314 267.451 222.697 267.451C222.079 267.451 221.568 266.94 221.568 266.323Z" fill="#DCD1FF"/>
<path opacity="0.08" d="M213.669 67.7091C213.669 67.0848 214.425 66.5806 215.362 66.5806C216.298 66.5806 217.054 67.0848 217.054 67.7091C217.054 68.3333 216.298 68.8375 215.362 68.8375C214.425 68.8375 213.669 68.3333 213.669 67.7091Z" fill="#DCD1FF"/>
<path opacity="0.09" d="M504.818 377.478C504.818 375.916 506.077 374.657 507.64 374.657C509.202 374.657 510.461 375.916 510.461 377.478C510.461 379.041 509.202 380.3 507.64 380.3C506.077 380.3 504.818 379.041 504.818 377.478Z" fill="#DCD1FF"/>
<path opacity="0.06" d="M546.572 67.709C546.572 67.0911 547.083 66.5806 547.701 66.5806C548.319 66.5806 548.829 67.0911 548.829 67.709C548.829 68.327 548.319 68.8375 547.701 68.8375C547.083 68.8375 546.572 68.327 546.572 67.709Z" fill="#DCD1FF"/>
<path opacity="0.05" d="M742.929 354.909C742.929 353.977 743.69 353.216 744.621 353.216C745.553 353.216 746.314 353.977 746.314 354.909C746.314 355.841 745.553 356.602 744.621 356.602C743.69 356.602 742.929 355.841 742.929 354.909Z" fill="#DCD1FF"/>
<path opacity="0.03" d="M716.974 120.748C716.974 120.126 717.733 119.62 718.666 119.62C719.6 119.62 720.359 120.126 720.359 120.748C720.359 121.37 719.6 121.877 718.666 121.877C717.733 121.877 716.974 121.37 716.974 120.748Z" fill="#DCD1FF"/>
<path opacity="0.07" d="M902.045 148.396C902.045 147.465 902.807 146.703 903.738 146.703C904.669 146.703 905.43 147.453 905.43 148.396C905.43 149.339 904.669 150.089 903.738 150.089C902.807 150.089 902.045 149.327 902.045 148.396Z" fill="#DCD1FF"/>
<path opacity="0.03" d="M1117.59 25.9551C1117.59 25.3282 1118.09 24.8267 1118.72 24.8267C1119.34 24.8267 1119.84 25.3282 1119.84 25.9551C1119.84 26.5821 1119.34 27.0836 1118.72 27.0836C1118.09 27.0836 1117.59 26.5821 1117.59 25.9551Z" fill="#DCD1FF"/>
<path opacity="0.02" d="M72.6084 457.037C72.6084 455.789 73.6174 454.78 74.8654 454.78C76.1133 454.78 77.1223 455.789 77.1223 457.037C77.1223 458.285 76.1133 459.294 74.8654 459.294C73.6174 459.294 72.6084 458.285 72.6084 457.037Z" fill="#DCD1FF"/>
<path opacity="0.04" d="M70.3516 128.083C70.3516 127.142 71.1143 126.39 72.0443 126.39C72.9742 126.39 73.737 127.153 73.737 128.083C73.737 129.013 72.9847 129.776 72.0443 129.776C71.1039 129.776 70.3516 129.013 70.3516 128.083Z" fill="#DCD1FF"/>
<path opacity="0.1" d="M196.742 217.798C196.742 217.173 197.502 216.669 198.427 216.669C199.351 216.669 200.128 217.173 200.128 217.798C200.128 218.422 199.368 218.926 198.427 218.926C197.485 218.926 196.742 218.422 196.742 217.798Z" fill="#DCD1FF"/>
<path opacity="0.09" d="M367.144 431.646C367.144 430.09 368.662 428.825 370.529 428.825C372.396 428.825 373.914 430.09 373.914 431.646C373.914 433.202 372.396 434.467 370.529 434.467C368.662 434.467 367.144 433.202 367.144 431.646Z" fill="#DCD1FF"/>
<path opacity="0.03" d="M568.014 41.1893C568.014 40.2589 568.765 39.4966 569.706 39.4966C570.648 39.4966 571.399 40.2477 571.399 41.1893C571.399 42.131 570.648 42.882 569.706 42.882C568.765 42.882 568.014 42.131 568.014 41.1893Z" fill="#DCD1FF"/>
<path opacity="0.02" d="M657.164 308.076C657.164 306.837 658.423 305.819 659.985 305.819C661.548 305.819 662.806 306.826 662.806 308.076C662.806 309.326 661.548 310.333 659.985 310.333C658.423 310.333 657.164 309.326 657.164 308.076Z" fill="#DCD1FF"/>
<path opacity="0.08" d="M715.846 164.195C715.846 162.634 717.107 161.374 718.667 161.374C720.227 161.374 721.488 162.634 721.488 164.195C721.488 165.755 720.227 167.016 718.667 167.016C717.107 167.016 715.846 165.755 715.846 164.195Z" fill="#DCD1FF"/>
<path opacity="0.09" d="M939.285 81.2584C939.285 80.0101 940.301 78.9941 941.549 78.9941C942.798 78.9941 943.799 80.0101 943.799 81.2584C943.799 82.5066 942.783 83.5081 941.549 83.5081C940.316 83.5081 939.285 82.4921 939.285 81.2584Z" fill="#DCD1FF"/>
<path opacity="0.08" d="M126.776 198.613C126.776 199.864 127.531 200.87 128.469 200.87C129.407 200.87 130.162 199.864 130.162 198.613C130.162 197.363 129.407 196.356 128.469 196.356C127.531 196.356 126.776 197.363 126.776 198.613Z" fill="#DCD1FF"/>
<path opacity="0.07" d="M402.127 231.339C402.127 232.592 403.143 233.596 404.384 233.596C405.625 233.596 406.641 232.58 406.641 231.339C406.641 230.099 405.625 229.083 404.384 229.083C403.143 229.083 402.127 230.099 402.127 231.339Z" fill="#DCD1FF"/>
<path opacity="0.04" d="M493.534 75.6085C493.534 76.8528 494.547 77.8655 495.791 77.8655C497.035 77.8655 498.048 76.8528 498.048 75.6085C498.048 74.3643 497.035 73.3516 495.791 73.3516C494.547 73.3516 493.534 74.3643 493.534 75.6085Z" fill="#DCD1FF"/>
<path opacity="0.09" d="M487.892 121.877C487.892 122.499 488.397 123.005 489.02 123.005C489.643 123.005 490.149 122.499 490.149 121.877C490.149 121.254 489.643 120.748 489.02 120.748C488.397 120.748 487.892 121.254 487.892 121.877Z" fill="#DCD1FF"/>
<path opacity="0.04" d="M475.478 301.87C475.478 302.809 476.234 303.563 477.164 303.563C478.093 303.563 478.863 302.809 478.863 301.87C478.863 300.931 478.106 300.177 477.164 300.177C476.221 300.177 475.478 300.931 475.478 301.87Z" fill="#DCD1FF"/>
<path opacity="0.03" d="M812.896 244.317C812.896 245.88 814.154 247.139 815.717 247.139C817.28 247.139 818.538 245.88 818.538 244.317C818.538 242.754 817.28 241.496 815.717 241.496C814.154 241.496 812.896 242.754 812.896 244.317Z" fill="#DCD1FF"/>
<path opacity="0.06" d="M684.248 386.506C684.248 387.441 685.259 388.199 686.505 388.199C687.751 388.199 688.762 387.441 688.762 386.506C688.762 385.571 687.751 384.813 686.505 384.813C685.259 384.813 684.248 385.571 684.248 386.506Z" fill="#DCD1FF"/>
<path opacity="0.08" d="M1060.03 71.0948C1060.03 71.7217 1060.79 72.2233 1061.73 72.2233C1062.67 72.2233 1063.42 71.7217 1063.42 71.0948C1063.42 70.4679 1062.67 69.9663 1061.73 69.9663C1060.79 69.9663 1060.03 70.4679 1060.03 71.0948Z" fill="#DCD1FF"/>
<path opacity="0.09" d="M1031.82 187.329C1031.82 187.957 1032.59 188.457 1033.51 188.457C1034.44 188.457 1035.21 187.946 1035.21 187.329C1035.21 186.711 1034.44 186.2 1033.51 186.2C1032.59 186.2 1031.82 186.711 1031.82 187.329Z" fill="#DCD1FF"/>
<defs>
<radialGradient id="paint0_radial_3606_334072" cx="0" cy="0" r="1" gradientUnits="userSpaceOnUse" gradientTransform="translate(72.6333 493.005) rotate(-40.04) scale(63.08 63.08)">
<stop stop-color="#FF8CD3"/>
<stop offset="0.08" stop-color="#FF247C"/>
<stop offset="0.23" stop-color="#BC1A5B"/>
<stop offset="0.37" stop-color="#83123F"/>
<stop offset="0.5" stop-color="#540B28"/>
<stop offset="0.63" stop-color="#2F0617"/>
<stop offset="0.75" stop-color="#15030A"/>
<stop offset="0.86" stop-color="#050002"/>
<stop offset="0.94"/>
</radialGradient>
<radialGradient id="paint1_radial_3606_334072" cx="0" cy="0" r="1" gradientUnits="userSpaceOnUse" gradientTransform="translate(1047.63 226.005) rotate(-40.04) scale(63.08 63.08)">
<stop stop-color="#FF8CD3"/>
<stop offset="0.08" stop-color="#FF247C"/>
<stop offset="0.23" stop-color="#BC1A5B"/>
<stop offset="0.37" stop-color="#83123F"/>
<stop offset="0.5" stop-color="#540B28"/>
<stop offset="0.63" stop-color="#2F0617"/>
<stop offset="0.75" stop-color="#15030A"/>
<stop offset="0.86" stop-color="#050002"/>
<stop offset="0.94"/>
</radialGradient>
<radialGradient id="paint2_radial_3606_334072" cx="0" cy="0" r="1" gradientUnits="userSpaceOnUse" gradientTransform="translate(1087.7 463.518) rotate(-153.803) scale(2.66137 2.34381)">
<stop stop-color="#EDEDED"/>
<stop offset="0.13" stop-color="#E8E8E8"/>
<stop offset="0.26" stop-color="#DCDCDC"/>
<stop offset="0.39" stop-color="#C8C8C8"/>
<stop offset="0.52" stop-color="#ABABAB"/>
<stop offset="0.65" stop-color="#868686"/>
<stop offset="0.79" stop-color="#595959"/>
<stop offset="0.92" stop-color="#252525"/>
<stop offset="1"/>
</radialGradient>
<radialGradient id="paint3_radial_3606_334072" cx="0" cy="0" r="1" gradientUnits="userSpaceOnUse" gradientTransform="translate(39.051 201.914) scale(4.61376 3.8997)">
<stop stop-color="#73C979"/>
<stop offset="0.13" stop-color="#70C476"/>
<stop offset="0.27" stop-color="#68B66E"/>
<stop offset="0.42" stop-color="#5BA060"/>
<stop offset="0.57" stop-color="#49814D"/>
<stop offset="0.73" stop-color="#325935"/>
<stop offset="0.88" stop-color="#172818"/>
<stop offset="1"/>
</radialGradient>
<radialGradient id="paint4_radial_3606_334072" cx="0" cy="0" r="1" gradientUnits="userSpaceOnUse" gradientTransform="translate(1122.85 44.3783) scale(2.87904 2.78588)">
<stop stop-color="#73C979"/>
<stop offset="0.13" stop-color="#70C476"/>
<stop offset="0.27" stop-color="#68B66E"/>
<stop offset="0.42" stop-color="#5BA060"/>
<stop offset="0.57" stop-color="#49814D"/>
<stop offset="0.73" stop-color="#325935"/>
<stop offset="0.88" stop-color="#172818"/>
<stop offset="1"/>
</radialGradient>
<radialGradient id="paint5_radial_3606_334072" cx="0" cy="0" r="1" gradientUnits="userSpaceOnUse" gradientTransform="translate(355.87 158.33) scale(6.70989 5.75536)">
<stop stop-color="#73C979"/>
<stop offset="0.13" stop-color="#70C476"/>
<stop offset="0.27" stop-color="#68B66E"/>
<stop offset="0.42" stop-color="#5BA060"/>
<stop offset="0.57" stop-color="#49814D"/>
<stop offset="0.73" stop-color="#325935"/>
<stop offset="0.88" stop-color="#172818"/>
<stop offset="1"/>
</radialGradient>
<radialGradient id="paint6_radial_3606_334072" cx="0" cy="0" r="1" gradientUnits="userSpaceOnUse" gradientTransform="translate(515.652 435.971) rotate(124.876) scale(4.08661 4.27675)">
<stop stop-color="#73C979"/>
<stop offset="0.13" stop-color="#70C476"/>
<stop offset="0.27" stop-color="#68B66E"/>
<stop offset="0.42" stop-color="#5BA060"/>
<stop offset="0.57" stop-color="#49814D"/>
<stop offset="0.73" stop-color="#325935"/>
<stop offset="0.88" stop-color="#172818"/>
<stop offset="1"/>
</radialGradient>
<radialGradient id="paint7_radial_3606_334072" cx="0" cy="0" r="1" gradientUnits="userSpaceOnUse" gradientTransform="translate(675.408 365.952) rotate(121.395) scale(4.48938 4.45355)">
<stop stop-color="#73C979"/>
<stop offset="0.13" stop-color="#70C476"/>
<stop offset="0.27" stop-color="#68B66E"/>
<stop offset="0.42" stop-color="#5BA060"/>
<stop offset="0.57" stop-color="#49814D"/>
<stop offset="0.73" stop-color="#325935"/>
<stop offset="0.88" stop-color="#172818"/>
<stop offset="1"/>
</radialGradient>
<radialGradient id="paint8_radial_3606_334072" cx="0" cy="0" r="1" gradientUnits="userSpaceOnUse" gradientTransform="translate(783.514 355.928) rotate(125.435) scale(3.52559 3.7155)">
<stop stop-color="#81E3C9"/>
<stop offset="0.12" stop-color="#7EDEC4"/>
<stop offset="0.25" stop-color="#76D0B9"/>
<stop offset="0.39" stop-color="#6ABAA5"/>
<stop offset="0.53" stop-color="#589B89"/>
<stop offset="0.68" stop-color="#417265"/>
<stop offset="0.83" stop-color="#25413A"/>
<stop offset="0.98" stop-color="#040807"/>
<stop offset="1"/>
</radialGradient>
<radialGradient id="paint9_radial_3606_334072" cx="0" cy="0" r="1" gradientUnits="userSpaceOnUse" gradientTransform="translate(652.432 412.044) rotate(121.407) scale(5.04764 5.00851)">
<stop stop-color="#81E3C9"/>
<stop offset="0.12" stop-color="#7EDEC4"/>
<stop offset="0.25" stop-color="#76D0B9"/>
<stop offset="0.39" stop-color="#6ABAA5"/>
<stop offset="0.53" stop-color="#589B89"/>
<stop offset="0.68" stop-color="#417265"/>
<stop offset="0.83" stop-color="#25413A"/>
<stop offset="0.98" stop-color="#040807"/>
<stop offset="1"/>
</radialGradient>
<radialGradient id="paint10_radial_3606_334072" cx="0" cy="0" r="1" gradientUnits="userSpaceOnUse" gradientTransform="translate(532.041 125.444) scale(4.03794 3.34453)">
<stop stop-color="#EDEDED"/>
<stop offset="0.13" stop-color="#E8E8E8"/>
<stop offset="0.26" stop-color="#DCDCDC"/>
<stop offset="0.39" stop-color="#C8C8C8"/>
<stop offset="0.52" stop-color="#ABABAB"/>
<stop offset="0.65" stop-color="#868686"/>
<stop offset="0.79" stop-color="#595959"/>
<stop offset="0.92" stop-color="#252525"/>
<stop offset="1"/>
</radialGradient>
<radialGradient id="paint11_radial_3606_334072" cx="0" cy="0" r="1" gradientUnits="userSpaceOnUse" gradientTransform="translate(326.769 123.239) scale(2.88109 2.22971)">
<stop stop-color="#EDEDED"/>
<stop offset="0.13" stop-color="#E8E8E8"/>
<stop offset="0.26" stop-color="#DCDCDC"/>
<stop offset="0.39" stop-color="#C8C8C8"/>
<stop offset="0.52" stop-color="#ABABAB"/>
<stop offset="0.65" stop-color="#868686"/>
<stop offset="0.79" stop-color="#595959"/>
<stop offset="0.92" stop-color="#252525"/>
<stop offset="1"/>
</radialGradient>
<radialGradient id="paint12_radial_3606_334072" cx="0" cy="0" r="1" gradientUnits="userSpaceOnUse" gradientTransform="translate(978.803 234.927) rotate(-61.5376) scale(1.79067 2.1132)">
<stop stop-color="#EDEDED"/>
<stop offset="0.13" stop-color="#E8E8E8"/>
<stop offset="0.26" stop-color="#DCDCDC"/>
<stop offset="0.39" stop-color="#C8C8C8"/>
<stop offset="0.52" stop-color="#ABABAB"/>
<stop offset="0.65" stop-color="#868686"/>
<stop offset="0.79" stop-color="#595959"/>
<stop offset="0.92" stop-color="#252525"/>
<stop offset="1"/>
</radialGradient>
<radialGradient id="paint13_radial_3606_334072" cx="0" cy="0" r="1" gradientUnits="userSpaceOnUse" gradientTransform="translate(738.672 204.618) rotate(-27.1437) scale(3.21963 2.90608)">
<stop stop-color="#EDEDED"/>
<stop offset="0.13" stop-color="#E8E8E8"/>
<stop offset="0.26" stop-color="#DCDCDC"/>
<stop offset="0.39" stop-color="#C8C8C8"/>
<stop offset="0.52" stop-color="#ABABAB"/>
<stop offset="0.65" stop-color="#868686"/>
<stop offset="0.79" stop-color="#595959"/>
<stop offset="0.92" stop-color="#252525"/>
<stop offset="1"/>
</radialGradient>
<radialGradient id="paint14_radial_3606_334072" cx="0" cy="0" r="1" gradientUnits="userSpaceOnUse" gradientTransform="translate(444.483 437.136) rotate(-31.5814) scale(2.80372 2.78108)">
<stop stop-color="#EDEDED"/>
<stop offset="0.13" stop-color="#E8E8E8"/>
<stop offset="0.26" stop-color="#DCDCDC"/>
<stop offset="0.39" stop-color="#C8C8C8"/>
<stop offset="0.52" stop-color="#ABABAB"/>
<stop offset="0.65" stop-color="#868686"/>
<stop offset="0.79" stop-color="#595959"/>
<stop offset="0.92" stop-color="#252525"/>
<stop offset="1"/>
</radialGradient>
<clipPath id="clip0_3606_334072">
<rect width="203.81" height="153.82" fill="white" transform="translate(892 150)"/>
</clipPath>
</defs>
</svg>
