<svg width="151" height="133" viewBox="0 0 151 133" fill="none" xmlns="http://www.w3.org/2000/svg">
<g clip-path="url(#clip0_3619_320944)">
<path d="M64.3371 29.7222C64.3371 29.7222 56.7847 35.4714 56.7847 45.1793H71.8918C71.8918 35.4714 64.3394 29.7222 64.3394 29.7222H64.3371Z" fill="#FFB602"/>
<path d="M71.8918 45.1768H56.7847V108.094H71.8918V45.1768Z" fill="#FFB602"/>
<path d="M70.426 55.4258V68.2408C69.0501 70.1073 66.8353 71.3202 64.3371 71.3202C61.8388 71.3202 59.624 70.1073 58.2481 68.2408V55.4258C58.2481 54.618 57.5913 53.9644 56.7847 53.9644V108.096H71.8918V53.9644C71.0829 53.9644 70.4283 54.618 70.4283 55.4258H70.426Z" fill="#DB9130"/>
<path d="M56.7848 53.9619H49.6841V108.596H56.7848V53.9619Z" fill="#DBD9D6"/>
<path d="M55.5495 108.596H50.9218C50.0321 110.218 49.751 112.674 49.751 112.674H56.7226C56.7226 112.674 56.4391 110.216 55.5518 108.596H55.5495Z" fill="#C7C5C4"/>
<path d="M49.6839 53.9619L52.5256 47.6925C52.8022 47.0849 53.6641 47.0849 53.9407 47.6925L56.7823 53.9619H49.6816H49.6839Z" fill="#DBD9D6"/>
<path d="M56.7848 53.9619H49.6841V55.5385H56.7848V53.9619Z" fill="#F1F0EF"/>
<path d="M56.7848 90.9106H49.6841V91.8359H56.7848V90.9106Z" fill="#C7C5C4"/>
<path d="M56.7848 103.226H49.6841V104.803H56.7848V103.226Z" fill="#C7C5C4"/>
<path d="M71.8895 108.596H78.9902V53.9619H71.8895V108.596Z" fill="#DBD9D6"/>
<path d="M73.1272 108.596H77.755C78.6446 110.218 78.9257 112.674 78.9257 112.674H71.9541C71.9541 112.674 72.2376 110.216 73.1249 108.596H73.1272Z" fill="#C7C5C4"/>
<path d="M78.9905 53.9619L76.1488 47.6925C75.8723 47.0849 75.0103 47.0849 74.7337 47.6925L71.8921 53.9619H78.9928H78.9905Z" fill="#DBD9D6"/>
<path d="M71.8895 55.5405H78.9902V53.964H71.8895V55.5405Z" fill="#F1F0EF"/>
<path d="M56.7847 77.3845V103.226H61.6591V77.3845H56.7847Z" fill="#DB9130"/>
<path d="M78.9928 90.9106H71.8921V91.8359H78.9928V90.9106Z" fill="#C7C5C4"/>
<path d="M56.7848 64.3833H49.6841V65.3085H56.7848V64.3833Z" fill="#C7C5C4"/>
<path d="M78.9928 64.3833H71.8921V65.3085H78.9928V64.3833Z" fill="#C7C5C4"/>
<path d="M56.7848 55.5405H49.6841V56.4657H56.7848V55.5405Z" fill="#C7C5C4"/>
<path d="M78.9928 55.5405H71.8921V56.4657H78.9928V55.5405Z" fill="#C7C5C4"/>
<path d="M73.4062 108.595V55.5405H71.8921V108.595H73.4062Z" fill="#C7C5C4"/>
<path d="M56.7847 108.593V55.5386H55.2705V108.593H56.7847Z" fill="#C7C5C4"/>
<path d="M56.7848 62.8042H49.6841V64.3807H56.7848V62.8042Z" fill="#F1F0EF"/>
<path d="M56.7848 89.332H49.6841V90.9086H56.7848V89.332Z" fill="#F1F0EF"/>
<path d="M71.8895 90.9106H78.9902V89.3341H71.8895V90.9106Z" fill="#F1F0EF"/>
<path d="M56.7848 107.019H49.6841V108.596H56.7848V107.019Z" fill="#F1F0EF"/>
<path d="M71.8895 108.593H78.9902V107.017H71.8895V108.593Z" fill="#F1F0EF"/>
<path d="M69.6447 72.4775H59.0317V103.226H69.6447V72.4775Z" fill="#FCFCFC"/>
<path d="M67.2617 108.094H61.4125C61.0161 108.816 60.8916 109.91 60.8916 109.91H67.7849C67.7849 109.91 67.6581 108.816 67.264 108.094H67.2617Z" fill="#6A7172"/>
<path d="M45.1416 103.226H59.0296V74.9888C59.0296 74.9888 56.1556 86.6023 55.1231 90.4551C54.1206 94.1951 45.1416 94.1951 45.1416 103.224V103.226Z" fill="#6A7172"/>
<path d="M59.0318 103.226V86.043C58.5133 88.0913 58.0316 89.9694 57.7159 91.1478C57.0613 93.5874 54.971 94.8279 52.9498 96.027C50.2003 97.6588 47.8242 99.0673 47.8242 103.224H59.0318V103.226Z" fill="#F1F0EF"/>
<path d="M83.533 103.226H69.645V74.9888C69.645 74.9888 72.5189 86.6023 73.5514 90.4551C74.554 94.1951 83.533 94.1951 83.533 103.224V103.226Z" fill="#6A7172"/>
<path d="M69.645 103.226V86.043C70.1636 88.0913 70.6452 89.9694 70.961 91.1478C71.6155 93.5874 73.7058 94.8279 75.727 96.027C78.4765 97.6588 80.8526 99.0673 80.8526 103.224H69.645V103.226Z" fill="#F1F0EF"/>
<path d="M57.7067 100.331H55.1162V101.903H57.7067V100.331Z" fill="#DBD9D6"/>
<path d="M70.9701 101.903H73.5605V100.331H70.9701V101.903Z" fill="#DBD9D6"/>
<path d="M64.3374 99.4077C59.735 99.4077 59.0298 104.803 59.0298 108.094H69.6428C69.6428 104.8 68.9376 99.4077 64.3351 99.4077H64.3374Z" fill="#F1F0EF"/>
<path d="M64.3373 98.3076C63.9363 98.3076 63.6113 98.6321 63.6113 99.0326V111.9H65.0633V99.0326C65.0633 98.6321 64.7383 98.3076 64.3373 98.3076Z" fill="#6A7172"/>
<path d="M78.9928 103.226H71.8921V104.803H78.9928V103.226Z" fill="#C7C5C4"/>
<path d="M56.3192 110.635C56.1394 109.956 55.8882 109.215 55.5494 108.596H50.9216C50.5828 109.215 50.3316 109.956 50.1519 110.635H56.3215H56.3192Z" fill="#8A8A8D"/>
<path d="M72.3573 110.635C72.537 109.956 72.7883 109.215 73.127 108.596H77.7548C78.0936 109.215 78.3448 109.956 78.5246 110.635H72.355H72.3573Z" fill="#8A8A8D"/>
<path d="M71.8918 49.3452H56.7847V50.5995H71.8918V49.3452Z" fill="#FFCC4F"/>
<path d="M70.4259 59.8379H58.248V61.0922H70.4259V59.8379Z" fill="#FFCC4F"/>
<path d="M67.536 50.5991H64.9663V54.7511H67.536V50.5991Z" fill="#FFCC4F"/>
<path d="M61.0736 45.1929H58.5039V49.3448H61.0736V45.1929Z" fill="#FFCC4F"/>
<path d="M69.645 46.8066C69.645 47.2117 69.3177 47.5385 68.9121 47.5385C68.5065 47.5385 68.1792 47.2117 68.1792 46.8066C68.1792 46.4015 68.5065 46.0747 68.9121 46.0747C69.3177 46.0747 69.645 46.4015 69.645 46.8066Z" fill="#FFCC4F"/>
<path d="M69.645 43.9067C69.645 44.3118 69.3177 44.6386 68.9121 44.6386C68.5065 44.6386 68.1792 44.3118 68.1792 43.9067C68.1792 43.5016 68.5065 43.1748 68.9121 43.1748C69.3177 43.1748 69.645 43.5016 69.645 43.9067Z" fill="#FFCC4F"/>
<path d="M69.645 41.0087C69.645 41.4138 69.3177 41.7406 68.9121 41.7406C68.5065 41.7406 68.1792 41.4138 68.1792 41.0087C68.1792 40.6037 68.5065 40.2769 68.9121 40.2769C69.3177 40.2769 69.645 40.6037 69.645 41.0087Z" fill="#FFCC4F"/>
<path d="M66.4485 31.7383C65.2547 30.4195 64.3397 29.7222 64.3397 29.7222C64.3397 29.7222 63.4225 30.4195 62.231 31.7383H66.4508H66.4485Z" fill="#DB9130"/>
<path d="M64.3374 60.4639C61.8023 60.4639 59.0298 68.1027 59.0298 72.4756H69.6428C69.6428 68.1027 66.8703 60.4639 64.3351 60.4639H64.3374Z" fill="#FCFCFC"/>
<path d="M64.337 67.2993C62.6662 67.2993 61.2142 68.2268 60.4652 69.5962C60.4606 69.6054 60.4652 69.6193 60.4744 69.6239L61.7305 70.2982C62.2306 69.373 63.2101 68.7424 64.337 68.7424C65.464 68.7424 66.4435 69.3707 66.9436 70.2982L68.1997 69.6239C68.1997 69.6239 68.2135 69.6054 68.2089 69.5962C67.4622 68.2291 66.0079 67.2993 64.337 67.2993Z" fill="#6A7172"/>
<path d="M67.3817 63.594C66.4667 61.7619 65.3835 60.4639 64.3395 60.4639C63.2955 60.4639 62.21 61.7619 61.2974 63.594H67.384H67.3817Z" fill="#6A7172"/>
<path d="M69.6447 81.7598H59.0317V83.3916H69.6447V81.7598Z" fill="#F1F0EF"/>
<path d="M69.6447 88.6968H59.0317V90.3286H69.6447V88.6968Z" fill="#F1F0EF"/>
<path d="M69.6447 74.8228H59.0317V76.4545H69.6447V74.8228Z" fill="#F1F0EF"/>
<path d="M69.6447 95.6313H59.0317V97.2631H69.6447V95.6313Z" fill="#F1F0EF"/>
<path d="M65.1555 76.4546H63.5215V95.6333H65.1555V76.4546Z" fill="#F1F0EF"/>
<path d="M71.8895 64.3833H78.9902V62.8068H71.8895V64.3833Z" fill="#F1F0EF"/>
<path d="M104.513 91.3291H102.667V130.718H104.513V91.3291Z" fill="#DBD9D6"/>
<path d="M104.513 77.3223H102.667V91.3294H104.513V77.3223Z" fill="#C7C5C4"/>
<path d="M104.513 118.248H102.667V121.562H104.513V118.248Z" fill="#C7C5C4"/>
<path d="M109.442 83.4397V81.5962H97.7365V83.4397H109.442Z" fill="#C7C5C4"/>
<path d="M109.439 87.7112V85.8677H97.734V87.7112H109.439Z" fill="#C7C5C4"/>
<path d="M109.442 79.1658V77.3223H97.7365V79.1658H109.442Z" fill="#C7C5C4"/>
<path d="M103.588 84.1091C104.469 84.1091 105.183 83.3961 105.183 82.5165C105.183 81.6369 104.469 80.9238 103.588 80.9238C102.707 80.9238 101.993 81.6369 101.993 82.5165C101.993 83.3961 102.707 84.1091 103.588 84.1091Z" fill="#FFDD30"/>
<path d="M103.588 79.8377C104.469 79.8377 105.183 79.1246 105.183 78.245C105.183 77.3654 104.469 76.6523 103.588 76.6523C102.707 76.6523 101.993 77.3654 101.993 78.245C101.993 79.1246 102.707 79.8377 103.588 79.8377Z" fill="#FFDD30"/>
<path d="M110.113 78.245C110.113 77.3658 109.398 76.6523 108.518 76.6523C107.637 76.6523 106.923 77.3658 106.923 78.245C106.923 79.1242 107.637 79.8377 108.518 79.8377C109.398 79.8377 110.113 79.1242 110.113 78.245Z" fill="#FFDD30"/>
<path d="M98.6607 79.8377C99.5415 79.8377 100.256 79.1246 100.256 78.245C100.256 77.3654 99.5415 76.6523 98.6607 76.6523C97.7799 76.6523 97.0659 77.3654 97.0659 78.245C97.0659 79.1246 97.7799 79.8377 98.6607 79.8377Z" fill="#FFDD30"/>
<path d="M105.185 86.7904C105.185 87.6696 104.471 88.3831 103.59 88.3831C102.71 88.3831 101.996 87.6696 101.996 86.7904C101.996 85.9112 102.71 85.1978 103.59 85.1978C104.471 85.1978 105.185 85.9112 105.185 86.7904Z" fill="#FFDD30"/>
<path d="M110.113 86.7904C110.113 87.6696 109.398 88.3831 108.518 88.3831C107.637 88.3831 106.923 87.6696 106.923 86.7904C106.923 85.9112 107.637 85.1978 108.518 85.1978C109.398 85.1978 110.113 85.9112 110.113 86.7904Z" fill="#FFDD30"/>
<path d="M100.256 86.7904C100.256 87.6696 99.5411 88.3831 98.6607 88.3831C97.7804 88.3831 97.0659 87.6696 97.0659 86.7904C97.0659 85.9112 97.7804 85.1978 98.6607 85.1978C99.5411 85.1978 100.256 85.9112 100.256 86.7904Z" fill="#FFDD30"/>
<path d="M102.664 102.733V100.89H97.7344V102.733H102.664Z" fill="#C7C5C4"/>
<path d="M98.6607 103.406C99.5415 103.406 100.256 102.692 100.256 101.813C100.256 100.933 99.5415 100.22 98.6607 100.22C97.7799 100.22 97.0659 100.933 97.0659 101.813C97.0659 102.692 97.7799 103.406 98.6607 103.406Z" fill="#FFDD30"/>
<path d="M102.667 107.283V105.44H97.7368V107.283H102.667Z" fill="#C7C5C4"/>
<path d="M98.6607 107.955C99.5415 107.955 100.256 107.242 100.256 106.363C100.256 105.483 99.5415 104.77 98.6607 104.77C97.7799 104.77 97.0659 105.483 97.0659 106.363C97.0659 107.242 97.7799 107.955 98.6607 107.955Z" fill="#FFDD30"/>
<path d="M108.518 84.1091C109.398 84.1091 110.113 83.3957 110.113 82.5165C110.113 81.6373 109.398 80.9238 108.518 80.9238C107.637 80.9238 106.923 81.6373 106.923 82.5165C106.923 83.3957 107.637 84.1091 108.518 84.1091Z" fill="#FFDD30"/>
<path d="M98.6607 84.1091C99.5415 84.1091 100.256 83.3961 100.256 82.5165C100.256 81.6369 99.5415 80.9238 98.6607 80.9238C97.7799 80.9238 97.0659 81.6369 97.0659 82.5165C97.0659 83.3961 97.7799 84.1091 98.6607 84.1091Z" fill="#FFDD30"/>
<path d="M107.225 116.124H99.9512V118.248H107.225V116.124Z" fill="#DBD9D6"/>
<path d="M120.179 112.777H116.388V114.48H120.179V112.777Z" fill="#C7C5C4"/>
<path d="M127.593 126.985H108.972V130.718H127.593V126.985Z" fill="#DBD9D6"/>
<path d="M127.593 128.851H108.972V130.718H127.593V128.851Z" fill="#C7C5C4"/>
<path d="M125.911 119.351H110.656V126.987H125.911V119.351Z" fill="#AEADAF"/>
<path d="M124.369 121.477C125.173 118.118 123.098 114.744 119.735 113.941C116.371 113.139 112.993 115.211 112.189 118.57C111.385 121.929 113.46 125.303 116.824 126.105C120.187 126.908 123.566 124.836 124.369 121.477Z" fill="#DBD9D6"/>
<path d="M118.283 121.919C119.329 121.919 120.177 121.072 120.177 120.027C120.177 118.982 119.329 118.135 118.283 118.135C117.236 118.135 116.388 118.982 116.388 120.027C116.388 121.072 117.236 121.919 118.283 121.919Z" fill="#C7C5C4"/>
<path d="M118.283 119.277C117.868 119.277 117.531 119.613 117.531 120.027V129.489H119.034V120.027C119.034 119.613 118.697 119.277 118.283 119.277Z" fill="#F1F0EF"/>
<path d="M120.774 129.489H115.796V130.718H120.774V129.489Z" fill="#DBD9D6"/>
<path d="M151 132.865V130.865H0V132.865H151Z" fill="#DBD9D6"/>
<path d="M87.8103 112.674H33.3394V123.18H87.8103V112.674Z" fill="#8A8A8D"/>
<path d="M33.3394 63.8145H8.6748V123.18H33.3394V63.8145Z" fill="#8A8A8D"/>
<path d="M33.3394 54.2104H8.6748V61.6674H33.3394V54.2104Z" fill="#8A8A8D"/>
<path d="M23.7267 25.3813H10.8252V37.6485H23.7267V25.3813Z" fill="#8A8A8D"/>
<path d="M40.6914 36.2236H25.877V52.0628H40.6914V36.2236Z" fill="#8A8A8D"/>
<path d="M12.9728 19.6504H8.6792V23.2339H12.9728V19.6504Z" fill="#C7C5C4"/>
<path d="M42.8415 52.0654H33.3394V92.5125H42.8415V52.0654Z" fill="#DBD9D6"/>
<path d="M33.3394 92.5102H38.5433V54.8825L36.0335 52.0654H33.3394V92.5102Z" fill="#C7C5C4"/>
<path d="M42.8413 34.0789V29.9062H25.8766V34.0789H42.8413Z" fill="#8A8A8D"/>
<path d="M25.8769 39.7959H8.6748V52.0631H25.8769V39.7959Z" fill="#8A8A8D"/>
<path d="M10.8251 63.8145H8.6748V123.18H10.8251V63.8145Z" fill="#DBD9D6"/>
<path d="M18.9237 104.823H16.7734V123.18H18.9237V104.823Z" fill="#DBD9D6"/>
<path d="M16.7734 110.078V107.93H10.8251V110.078H16.7734Z" fill="#C7C5C4"/>
<path d="M10.8252 117.928V120.076H16.7736V117.928H10.8252Z" fill="#C7C5C4"/>
<path d="M18.2923 39.7959H16.1421V61.6674H18.2923V39.7959Z" fill="#DBD9D6"/>
<path d="M40.691 34.0767H42.8413V29.904H40.691V34.0767Z" fill="#DBD9D6"/>
<path d="M35.0377 34.0767H37.188V29.904H35.0377V34.0767Z" fill="#DBD9D6"/>
<path d="M29.3825 34.0767H31.5327V29.904H29.3825V34.0767Z" fill="#DBD9D6"/>
<path d="M10.8251 39.7959H8.6748V61.6674H10.8251V39.7959Z" fill="#DBD9D6"/>
<path d="M16.1421 44.6683V42.521H10.8252V44.6683H16.1421Z" fill="#C7C5C4"/>
<path d="M16.1421 49.4393V47.292H10.8252V49.4393H16.1421Z" fill="#C7C5C4"/>
<path d="M16.1396 54.2128V52.0654H10.8228V54.2128H16.1396Z" fill="#C7C5C4"/>
<path d="M36.0337 54.2128V52.0654H18.29V54.2128H36.0337Z" fill="#DBD9D6"/>
<path d="M28.5732 39.7958V37.6484H5.98055V39.7958H28.5732Z" fill="#DBD9D6"/>
<path d="M28.5708 25.3812V23.2339H5.97811V25.3812H28.5708Z" fill="#DBD9D6"/>
<path d="M42.8413 29.9061V27.7588H25.8766V29.9061H42.8413Z" fill="#DBD9D6"/>
<path d="M42.8413 36.224V34.0767H25.8766V36.224H42.8413Z" fill="#DBD9D6"/>
<path d="M46.7549 34.0765V29.9038H44.0377V34.0765H46.7549Z" fill="#DBD9D6"/>
<path d="M46.7549 34.0763V32.4883H44.0377V34.0763H46.7549Z" fill="#C7C5C4"/>
<path d="M55.8053 34.9904L52.2377 30.8315H46.7549V33.1515H51.1683L54.0376 36.5002L55.8053 34.9904Z" fill="#DBD9D6"/>
<path d="M16.1421 58.9838V56.8364H10.8252V58.9838H16.1421Z" fill="#C7C5C4"/>
<path d="M16.7734 115.077V112.929H10.8251V115.077H16.7734Z" fill="#C7C5C4"/>
<path d="M85.6602 120.076V117.928H81.8897V120.076H85.6602Z" fill="#C7C5C4"/>
<path d="M33.3392 63.8145H31.189V123.18H33.3392V63.8145Z" fill="#DBD9D6"/>
<path d="M36.0337 104.826V102.678H5.97847V104.826H36.0337Z" fill="#DBD9D6"/>
<path d="M90.5044 114.824V112.676H33.3393V114.824H90.5044Z" fill="#DBD9D6"/>
<path d="M97.4141 125.33V123.183H0.000213623V125.33H97.4141Z" fill="#DBD9D6"/>
<path d="M95.1094 130.718V125.328H2.30488V130.718H95.1094Z" fill="#8A8A8D"/>
<path d="M85.6598 123.183H87.8101V114.823H85.6598V123.183Z" fill="#DBD9D6"/>
<path d="M79.7394 123.183H81.8896V114.823H79.7394V123.183Z" fill="#DBD9D6"/>
<path d="M46.7871 120.076V117.928H43.0167V120.076H46.7871Z" fill="#C7C5C4"/>
<path d="M43.0165 114.821H40.8662V123.18H43.0165V114.821Z" fill="#DBD9D6"/>
<path d="M48.9349 114.821H46.7847V123.18H48.9349V114.821Z" fill="#DBD9D6"/>
<path d="M43.0165 114.821H40.8662V117.928H43.0165V114.821Z" fill="#C7C5C4"/>
<path d="M18.9237 104.823H16.7734V107.93H18.9237V104.823Z" fill="#C7C5C4"/>
<path d="M33.3392 104.823H31.189V107.93H33.3392V104.823Z" fill="#C7C5C4"/>
<path d="M10.8251 104.823H8.6748V107.93H10.8251V104.823Z" fill="#C7C5C4"/>
<path d="M33.3392 84.3188H31.189V87.4259H33.3392V84.3188Z" fill="#C7C5C4"/>
<path d="M10.8251 84.3188H8.6748V87.4259H10.8251V84.3188Z" fill="#C7C5C4"/>
<path d="M33.3392 63.8145H31.189V66.9215H33.3392V63.8145Z" fill="#C7C5C4"/>
<path d="M10.8251 63.8145H8.6748V66.9215H10.8251V63.8145Z" fill="#C7C5C4"/>
<path d="M48.9349 114.821H46.7847V117.928H48.9349V114.821Z" fill="#C7C5C4"/>
<path d="M81.8895 114.821H79.7393V117.928H81.8895V114.821Z" fill="#C7C5C4"/>
<path d="M87.8104 114.821H85.6602V117.928H87.8104V114.821Z" fill="#C7C5C4"/>
<path d="M5.97852 61.6671V63.8145H36.0337V61.6671H5.97852Z" fill="#DBD9D6"/>
<path d="M5.98047 82.1715V84.3188H36.0357V82.1715H5.98047Z" fill="#DBD9D6"/>
<path d="M12.3025 63.8145H10.8252V65.3772L29.4239 82.1715H31.1893V80.8734L12.3025 63.8145Z" fill="#DBD9D6"/>
<path d="M12.3025 63.8145H10.8252V65.3772L12.5353 66.9215H15.7411L12.3025 63.8145Z" fill="#C7C5C4"/>
<path d="M12.3025 84.3188H10.8252V85.8816L29.4239 102.676H31.1893V101.378L12.3025 84.3188Z" fill="#DBD9D6"/>
<path d="M7.54556 88.1118H4.17383V91.4698H7.54556V88.1118Z" fill="#DBD9D6"/>
<path d="M7.54556 90.0059H4.17383V91.4719H7.54556V90.0059Z" fill="#C7C5C4"/>
<path d="M37.8405 95.5249H34.4688V98.8828H37.8405V95.5249Z" fill="#DBD9D6"/>
<path d="M7.54556 95.5249H4.17383V98.8828H7.54556V95.5249Z" fill="#DBD9D6"/>
<path d="M59.0316 73.2256H42.8413V77.3844H59.0316V73.2256Z" fill="#DBD9D6"/>
<path d="M59.0316 75.9253H42.8413V77.3845H59.0316V75.9253Z" fill="#C7C5C4"/>
<path d="M33.3392 54.2104H31.189V61.6674H33.3392V54.2104Z" fill="#DBD9D6"/>
<path d="M25.8768 39.7959H23.7266V52.0631H25.8768V39.7959Z" fill="#DBD9D6"/>
<path d="M42.8417 36.2236H40.6914V52.0628H42.8417V36.2236Z" fill="#DBD9D6"/>
<path d="M25.8768 25.3813H23.7266V37.6485H25.8768V25.3813Z" fill="#DBD9D6"/>
<path d="M10.8251 25.3813H8.6748V37.6485H10.8251V25.3813Z" fill="#DBD9D6"/>
<path d="M26.4136 17.4224H17.748V23.2337H26.4136V17.4224Z" fill="#DBD9D6"/>
<path d="M26.4136 21.2363H17.748V23.2341H26.4136V21.2363Z" fill="#C7C5C4"/>
<path d="M23.8049 0C23.4039 0 23.0767 0.324515 23.0767 0.727283V17.4226H24.5309V0.727283C24.5309 0.326817 24.2059 0 23.8026 0H23.8049Z" fill="#AEADAF"/>
<path d="M20.3549 4.47168C20.7559 4.47168 21.0832 4.79619 21.0832 5.19896V17.4224H19.6289V5.19896C19.6289 4.7985 19.9539 4.47168 20.3572 4.47168H20.3549Z" fill="#AEADAF"/>
<path d="M5.52197 21.4389C7.05688 22.0856 8.89601 21.7841 10.1474 20.5367C11.3989 19.2892 11.6985 17.4503 11.0509 15.9175L5.52197 21.4389Z" fill="#DBD9D6"/>
<path d="M7.66078 19.303L7.20215 17.5952L8.91221 18.0532L7.66078 19.303Z" fill="#C7C5C4"/>
<path d="M33.3392 54.2104H31.189V57.3175H33.3392V54.2104Z" fill="#C7C5C4"/>
<path d="M18.2923 54.2104H16.1421V56.8342H18.2923V54.2104Z" fill="#C7C5C4"/>
<path d="M18.2923 39.7959H16.1421V42.5209H18.2923V39.7959Z" fill="#C7C5C4"/>
<path d="M25.8768 39.7959H23.7266V42.5209H25.8768V39.7959Z" fill="#C7C5C4"/>
<path d="M42.8417 36.2236H40.6914V39.7956H42.8417V36.2236Z" fill="#C7C5C4"/>
<path d="M42.8417 29.9062H40.6914V31.9914H42.8417V29.9062Z" fill="#C7C5C4"/>
<path d="M37.1859 29.9062H35.0356V31.9914H37.1859V29.9062Z" fill="#C7C5C4"/>
<path d="M31.5326 29.9062H29.3823V31.9914H31.5326V29.9062Z" fill="#C7C5C4"/>
<path d="M25.8768 25.3813H23.7266V27.7588H25.8768V25.3813Z" fill="#C7C5C4"/>
<path d="M10.8251 25.3813H8.6748V27.7588H10.8251V25.3813Z" fill="#C7C5C4"/>
<path d="M10.8251 39.7959H8.6748V42.5209H10.8251V39.7959Z" fill="#C7C5C4"/>
<path d="M7.54556 97.4194H4.17383V98.8832H7.54556V97.4194Z" fill="#C7C5C4"/>
<path d="M37.8405 97.4194H34.4688V98.8832H37.8405V97.4194Z" fill="#C7C5C4"/>
<path d="M8.6747 88.1118H7.54541V91.4698H8.6747V88.1118Z" fill="#C7C5C4"/>
<path d="M7.54556 66.9219H4.17383V70.2798H7.54556V66.9219Z" fill="#DBD9D6"/>
<path d="M7.54556 68.8159H4.17383V70.2797H7.54556V68.8159Z" fill="#C7C5C4"/>
<path d="M8.6747 66.9219H7.54541V70.2798H8.6747V66.9219Z" fill="#C7C5C4"/>
<path d="M8.6747 95.5249H7.54541V98.8828H8.6747V95.5249Z" fill="#C7C5C4"/>
<path d="M34.4686 95.5249H33.3394V98.8828H34.4686V95.5249Z" fill="#C7C5C4"/>
<path d="M42.8394 88.7217H36.0337V92.5123H42.8394V88.7217Z" fill="#C7C5C4"/>
<path d="M44.4523 73.2256H42.8413V75.9253H44.4523V73.2256Z" fill="#C7C5C4"/>
<path d="M15.5888 77.8813H12.8232V82.1737H15.5888V77.8813Z" fill="#C7C5C4"/>
<path d="M19.9814 77.8813H17.2158V82.1737H19.9814V77.8813Z" fill="#C7C5C4"/>
<path d="M15.5888 80.4502H12.8232V82.1717H15.5888V80.4502Z" fill="#AEADAF"/>
<path d="M19.9814 80.4502H17.2158V82.1717H19.9814V80.4502Z" fill="#AEADAF"/>
<path d="M71.5439 118.89H68.7783V123.182H71.5439V118.89Z" fill="#C7C5C4"/>
<path d="M75.9365 118.89H73.1709V123.182H75.9365V118.89Z" fill="#C7C5C4"/>
<path d="M71.5439 121.458H68.7783V123.18H71.5439V121.458Z" fill="#AEADAF"/>
<path d="M75.9365 121.458H73.1709V123.18H75.9365V121.458Z" fill="#AEADAF"/>
<path d="M30.4077 47.7729H27.6421V52.0653H30.4077V47.7729Z" fill="#C7C5C4"/>
<path d="M30.4077 50.3413H27.6421V52.0629H30.4077V50.3413Z" fill="#AEADAF"/>
<path d="M34.667 47.7729H31.9014V52.0653H34.667V47.7729Z" fill="#C7C5C4"/>
<path d="M34.667 50.3413H31.9014V52.0629H34.667V50.3413Z" fill="#AEADAF"/>
<path d="M38.9282 47.7729H36.1626V52.0653H38.9282V47.7729Z" fill="#C7C5C4"/>
<path d="M38.9282 50.3413H36.1626V52.0629H38.9282V50.3413Z" fill="#AEADAF"/>
<path d="M28.9837 84.3188H21.1294V89.4559H28.9837V84.3188Z" fill="#DBD9D6"/>
<path d="M28.9837 84.3188H21.1294V87.4259H28.9837V84.3188Z" fill="#C7C5C4"/>
<path d="M31.1893 111.272H26.4878V117.507H31.1893V111.272Z" fill="#DBD9D6"/>
<path d="M12.3025 84.3188H10.8252V85.8816L12.5353 87.4259H15.7411L12.3025 84.3188Z" fill="#C7C5C4"/>
<path d="M31.1892 111.272H29.6797V117.507H31.1892V111.272Z" fill="#C7C5C4"/>
<path d="M48.0847 30.8315H46.7549V33.1538H48.0847V30.8315Z" fill="#C7C5C4"/>
<path d="M44.0374 29.9062H42.8413V34.0789H44.0374V29.9062Z" fill="#C7C5C4"/>
<path d="M59.5319 114.821H52.2998V119.473H59.5319V114.821Z" fill="#DBD9D6"/>
<path d="M59.5319 114.821H52.2998V117.928H59.5319V114.821Z" fill="#C7C5C4"/>
<path d="M4.45495 125.328H2.30469V130.718H4.45495V125.328Z" fill="#DBD9D6"/>
<path d="M4.45495 125.328H2.30469V128.023H4.45495V125.328Z" fill="#C7C5C4"/>
<path d="M12.5741 125.328H10.4238V130.718H12.5741V125.328Z" fill="#DBD9D6"/>
<path d="M12.5741 125.328H10.4238V128.023H12.5741V125.328Z" fill="#C7C5C4"/>
<path d="M20.7836 125.328H18.6333V130.718H20.7836V125.328Z" fill="#DBD9D6"/>
<path d="M20.7836 125.328H18.6333V128.023H20.7836V125.328Z" fill="#C7C5C4"/>
<path d="M95.1117 125.328H92.9614V130.718H95.1117V125.328Z" fill="#DBD9D6"/>
<path d="M95.1117 125.328H92.9614V128.023H95.1117V125.328Z" fill="#C7C5C4"/>
<path d="M140.359 84.4712H138.195V130.718H140.359V84.4712Z" fill="#AEADAF"/>
<path d="M144.07 89.728H134.487V92.1653H144.07V89.728Z" fill="#C7C5C4"/>
<path d="M144.4 99.9326H134.155V102.37H144.4V99.9326Z" fill="#C7C5C4"/>
<path d="M145.012 110.138H133.542V112.575H145.012V110.138Z" fill="#C7C5C4"/>
<path d="M145.538 120.343H133.017V122.78H145.538V120.343Z" fill="#C7C5C4"/>
<path d="M134.102 130.718L136.709 81.96H134.208L131.602 130.718H134.102Z" fill="#DBD9D6"/>
<path d="M146.953 130.718L144.346 81.96H141.846L144.452 130.718H146.953Z" fill="#DBD9D6"/>
<path d="M133.874 88.227H136.375L136.709 81.96H134.208L133.874 88.227Z" fill="#C7C5C4"/>
<path d="M144.683 88.227H142.182L141.846 81.96H144.346L144.683 88.227Z" fill="#C7C5C4"/>
<path d="M142.524 72.9658H136.034C134.415 72.9658 133.102 74.2765 133.102 75.8934V81.5436C133.102 83.1605 134.415 84.4712 136.034 84.4712H142.524C144.143 84.4712 145.455 83.1605 145.455 81.5436V75.8934C145.455 74.2765 144.143 72.9658 142.524 72.9658Z" fill="#DBD9D6"/>
<path d="M136.031 84.471H142.524C144.141 84.471 145.455 83.1614 145.455 81.5435H133.102C133.102 83.1591 134.413 84.471 136.034 84.471H136.031Z" fill="#C7C5C4"/>
<path d="M141.846 71.3662H136.708V72.9658H141.846V71.3662Z" fill="#C7C5C4"/>
<path d="M146.773 79.6909H131.779V81.5966H146.773V79.6909Z" fill="#F1F0EF"/>
</g>
<defs>
<clipPath id="clip0_3619_320944">
<rect width="151" height="133" fill="white"/>
</clipPath>
</defs>
</svg>
