<svg width="184" height="32" viewBox="0 0 184 32" fill="none" xmlns="http://www.w3.org/2000/svg">
<g clip-path="url(#clip0_3619_320947)">
<path d="M162.55 15.1079H160.63V29.7895H162.55V15.1079Z" fill="#DBD9D6"/>
<path d="M162.55 0.691895H160.63V15.1105H162.55V0.691895Z" fill="#C7C5C4"/>
<path d="M167.676 6.98655V5.08887L155.504 5.08887V6.98655L167.676 6.98655Z" fill="#C7C5C4"/>
<path d="M167.676 11.386V9.48828H155.504V11.386H167.676Z" fill="#C7C5C4"/>
<path d="M167.676 2.58958V0.691895L155.504 0.691895V2.58958L167.676 2.58958Z" fill="#C7C5C4"/>
<path d="M161.592 7.67831C162.508 7.67831 163.25 6.9443 163.25 6.03886C163.25 5.13342 162.508 4.39941 161.592 4.39941C160.676 4.39941 159.933 5.13342 159.933 6.03886C159.933 6.9443 160.676 7.67831 161.592 7.67831Z" fill="#FFDD30"/>
<path d="M161.592 3.27889C162.508 3.27889 163.25 2.54489 163.25 1.63945C163.25 0.734005 162.508 0 161.592 0C160.676 0 159.933 0.734005 159.933 1.63945C159.933 2.54489 160.676 3.27889 161.592 3.27889Z" fill="#FFDD30"/>
<path d="M166.716 3.27889C167.632 3.27889 168.374 2.54489 168.374 1.63945C168.374 0.734005 167.632 0 166.716 0C165.8 0 165.057 0.734005 165.057 1.63945C165.057 2.54489 165.8 3.27889 166.716 3.27889Z" fill="#FFDD30"/>
<path d="M156.465 3.27889C157.381 3.27889 158.124 2.54489 158.124 1.63945C158.124 0.734005 157.381 0 156.465 0C155.549 0 154.807 0.734005 154.807 1.63945C154.807 2.54489 155.549 3.27889 156.465 3.27889Z" fill="#FFDD30"/>
<path d="M161.592 12.0777C162.508 12.0777 163.25 11.3437 163.25 10.4383C163.25 9.53283 162.508 8.79883 161.592 8.79883C160.676 8.79883 159.933 9.53283 159.933 10.4383C159.933 11.3437 160.676 12.0777 161.592 12.0777Z" fill="#FFDD30"/>
<path d="M166.716 12.0777C167.632 12.0777 168.374 11.3437 168.374 10.4383C168.374 9.53283 167.632 8.79883 166.716 8.79883C165.8 8.79883 165.057 9.53283 165.057 10.4383C165.057 11.3437 165.8 12.0777 166.716 12.0777Z" fill="#FFDD30"/>
<path d="M156.465 12.0777C157.381 12.0777 158.124 11.3437 158.124 10.4383C158.124 9.53283 157.381 8.79883 156.465 8.79883C155.549 8.79883 154.807 9.53283 154.807 10.4383C154.807 11.3437 155.549 12.0777 156.465 12.0777Z" fill="#FFDD30"/>
<path d="M166.716 7.67831C167.631 7.67831 168.374 6.94387 168.374 6.03886C168.374 5.13385 167.631 4.39941 166.716 4.39941C165.8 4.39941 165.057 5.13385 165.057 6.03886C165.057 6.94387 165.8 7.67831 166.716 7.67831Z" fill="#FFDD30"/>
<path d="M156.465 7.67831C157.381 7.67831 158.124 6.9443 158.124 6.03886C158.124 5.13342 157.381 4.39941 156.465 4.39941C155.549 4.39941 154.807 5.13342 154.807 6.03886C154.807 6.9443 155.549 7.67831 156.465 7.67831Z" fill="#FFDD30"/>
<path d="M188 32V29.7896L0 29.7896V32L188 32Z" fill="#DBD9D6"/>
<path d="M77.6048 12.6343H94.3955C96.0731 12.6343 97.4344 13.9799 97.4344 15.6383V21.258C97.4344 22.9164 96.0731 24.262 94.3955 24.262H77.6048C75.9272 24.262 74.5659 22.9164 74.5659 21.258V15.6383C74.5659 13.9799 75.9272 12.6343 77.6048 12.6343Z" fill="#DBD9D6"/>
<path d="M77.6048 24.2599H94.3955C96.0731 24.2599 97.4344 22.9143 97.4344 21.2559H74.5659C74.5659 22.9143 75.9272 24.2599 77.6048 24.2599Z" fill="#C7C5C4"/>
<path d="M100.878 24.2598H71.1221V29.7893H100.878V24.2598Z" fill="#DBD9D6"/>
<path d="M100.878 27.0244H71.1221V29.7892H100.878V27.0244Z" fill="#C7C5C4"/>
<path d="M81.9475 15.9468H79.9487V24.2601H81.9475V15.9468Z" fill="#F1F0EF"/>
<path d="M90.0554 24.2598H92.0542V15.9464H90.0554V24.2598Z" fill="#F1F0EF"/>
<path d="M81.9478 15.9468L84.8141 18.7826V21.256H81.9478V15.9468Z" fill="#C7C5C4"/>
<path d="M92.0518 15.9468L94.9205 18.7826V21.256H92.0518V15.9468Z" fill="#C7C5C4"/>
<path d="M84.9841 11.1206H79.3521V12.6345H84.9841V11.1206Z" fill="#C7C5C4"/>
<path d="M98.6041 16.5391H97.4346V20.3534H98.6041V16.5391Z" fill="#C7C5C4"/>
<path d="M102.163 17.5244H98.604V19.37H102.163V17.5244Z" fill="#F1F0EF"/>
<path d="M99.7999 17.5244H98.604V19.37H99.7999V17.5244Z" fill="#DBD9D6"/>
<path d="M102.163 17.5243V19.3699C102.712 19.3699 103.158 19.8106 103.158 20.3531H105.025C105.025 18.7895 103.742 17.522 102.161 17.522L102.163 17.5243Z" fill="#F1F0EF"/>
<path d="M105.025 20.3555H103.158V28.4082H105.025V20.3555Z" fill="#F1F0EF"/>
<path d="M107.304 28.4058H100.878V29.787H107.304V28.4058Z" fill="#C7C5C4"/>
<path d="M152.391 17.0957H113.87V29.7872H152.391V17.0957Z" fill="#FFB602"/>
<path d="M152.391 17.0957H113.87V21.9074H152.391V17.0957Z" fill="#DB9130"/>
<path d="M147.813 19.1782H118.448V29.7872H147.813V19.1782Z" fill="#DB9130"/>
<path d="M146.267 19.1782H119.993V29.7872H146.267V19.1782Z" fill="#A0703B"/>
<path d="M153.91 14.4995H112.351V17.0985H153.91V14.4995Z" fill="#DBD9D6"/>
<path d="M124.909 12.6348H117.014V14.4993H124.909V12.6348Z" fill="#C7C5C4"/>
<path d="M135.119 12.6348H127.224V14.4993H135.119V12.6348Z" fill="#C7C5C4"/>
<path d="M177.186 21.1562H168.506V29.7894H177.186V21.1562Z" fill="#C7C5C4"/>
<path d="M182.734 24.5987C179.969 25.7501 176.657 25.217 174.404 22.99C172.151 20.763 171.612 17.4889 172.776 14.7549L182.734 24.5987Z" fill="#DBD9D6"/>
<path d="M178.881 20.789L179.705 17.7471L176.628 18.5621L178.881 20.789Z" fill="#C7C5C4"/>
<path d="M57.7624 7.61279H51.0479V13.422H57.7624V7.61279Z" fill="#FFCC4F"/>
<path d="M57.7624 5.9834H51.0479V7.61026H57.7624V5.9834Z" fill="#FFB602"/>
<path d="M58.3691 16.7437H50.439V29.9607H58.3691V16.7437Z" fill="#FFB602"/>
<path d="M58.3691 16.7437H50.439V19.5319H58.3691V16.7437Z" fill="#DB9130"/>
<path d="M62.5504 13.4194H46.2578V16.7413H62.5504V13.4194Z" fill="#FFB602"/>
<path d="M62.5504 8.95508H46.2578V10.6172H62.5504V8.95508Z" fill="#FFB602"/>
<path d="M56.5143 19.5317H52.2959V20.7895H56.5143V19.5317Z" fill="#FFDD30"/>
<path d="M56.5143 22.4824H52.2959V23.7402H56.5143V22.4824Z" fill="#FFDD30"/>
<path d="M56.5143 25.4326H52.2959V26.6904H56.5143V25.4326Z" fill="#FFDD30"/>
<path d="M47.822 10.6147H46.2578V13.4194H47.822V10.6147Z" fill="#FFB602"/>
<path d="M47.822 10.6147H46.2578V12.0183H47.822V10.6147Z" fill="#DB9130"/>
<path d="M51.5036 10.6147H49.9395V13.4194H51.5036V10.6147Z" fill="#FFB602"/>
<path d="M51.5036 10.6147H49.9395V12.0183H51.5036V10.6147Z" fill="#DB9130"/>
<path d="M55.1853 10.6147H53.6211V13.4194H55.1853V10.6147Z" fill="#FFB602"/>
<path d="M55.1853 10.6147H53.6211V12.0183H55.1853V10.6147Z" fill="#DB9130"/>
<path d="M58.8664 10.6147H57.3022V13.4194H58.8664V10.6147Z" fill="#FFB602"/>
<path d="M58.8664 10.6147H57.3022V12.0183H58.8664V10.6147Z" fill="#DB9130"/>
<path d="M62.5505 10.6147H60.9863V13.4194H62.5505V10.6147Z" fill="#FFB602"/>
<path d="M62.5505 10.6147H60.9863V12.0183H62.5505V10.6147Z" fill="#DB9130"/>
<path d="M30.8366 15.667H23.7246V29.9608H30.8366V15.667Z" fill="#C7C5C4"/>
<path d="M35.5271 15.667H30.8369V29.9608H35.5271V15.667Z" fill="#AEADAF"/>
<path d="M35.5269 21.1138L39.1503 23.2414V29.9604H35.5269V21.1138Z" fill="#AEADAF"/>
<path d="M31.6109 0C31.2065 0 30.8765 0.331485 30.8765 0.742902V12.8198H32.343V0.742902C32.343 0.333836 32.0153 0 31.6086 0H31.6109Z" fill="#AEADAF"/>
<path d="M28.1315 4.56787C28.5359 4.56787 28.866 4.89936 28.866 5.31077V12.8221H27.3994V5.31077C27.3994 4.90171 27.7271 4.56787 28.1339 4.56787H28.1315Z" fill="#AEADAF"/>
<path d="M26.4418 25.1904H3.94824V29.9605H26.4418V25.1904Z" fill="#DBD9D6"/>
<path d="M26.4418 25.1904H3.94824V26.8008H26.4418V25.1904Z" fill="#C7C5C4"/>
<path d="M27.3901 23.5776H3V25.188H27.3901V23.5776Z" fill="#DBD9D6"/>
<path d="M11.4785 18.2905H7.88763L5.34961 20.8601H14.0188L11.4785 18.2905Z" fill="#008CA7"/>
<path d="M9.68423 20.8599H5.34961V23.5776H9.68423V20.8599Z" fill="#00ADD2"/>
<path d="M14.0192 20.8599H9.68457V23.5776H14.0192V20.8599Z" fill="#008CA7"/>
<path d="M7.8877 18.2905H11.4786L9.6843 20.8601L7.8877 18.2905Z" fill="#00ADD2"/>
<path d="M7.88763 18.2905L5.34961 20.8601H9.68423L7.88763 18.2905Z" fill="#50C9ED"/>
<path d="M22.5023 18.2905H18.9114L16.3711 20.8601H25.0427L22.5023 18.2905Z" fill="#008CA7"/>
<path d="M20.7057 20.8599H16.3711V23.5776H20.7057V20.8599Z" fill="#00ADD2"/>
<path d="M25.0402 20.8599H20.7056V23.5776H25.0402V20.8599Z" fill="#008CA7"/>
<path d="M18.9116 18.2905H22.5025L20.7059 20.8601L18.9116 18.2905Z" fill="#00ADD2"/>
<path d="M18.9114 18.2905L16.3711 20.8601H20.7057L18.9114 18.2905Z" fill="#50C9ED"/>
<path d="M31.9198 12.8198H25.3237V15.6668H31.9198V12.8198Z" fill="#C7C5C4"/>
<path d="M34.272 12.8198H31.9199V15.6668H34.272V12.8198Z" fill="#AEADAF"/>
</g>
<defs>
<clipPath id="clip0_3619_320947">
<rect width="184" height="32" fill="white"/>
</clipPath>
</defs>
</svg>
