<svg width="359" height="57" viewBox="0 0 359 57" fill="none" xmlns="http://www.w3.org/2000/svg">
<g clip-path="url(#clip0_3619_322104)">
<path d="M19.3735 15.3044C19.3735 15.3044 9.76718 22.5915 2.04367 25.9647C-6.48839 29.6906 20.4799 34.5801 43.736 35.3962C67.9285 36.2445 87.5934 31.1519 87.9821 27.4223C88.3698 23.6924 75.8562 21.3104 70.7613 17.9667L19.3735 15.3044Z" fill="url(#paint0_linear_3619_322104)"/>
<path d="M87.9825 27.4215C88.3702 23.6917 75.8566 21.3097 70.7618 17.966L19.3737 15.3046C19.3737 15.3046 19.2383 15.4069 18.9873 15.5937L68.0173 18.9165C73.1124 22.2592 74.387 23.4148 72.71 26.9393C71.2715 29.963 56.6435 34.6875 36.0559 34.9905C38.626 35.1694 41.2031 35.3069 43.7364 35.3954C67.9289 36.2437 87.5938 31.1511 87.9825 27.4215Z" fill="#4088EB"/>
<path d="M66.3753 21.5829C61.5581 22.3844 53.7955 22.5646 45.0879 21.9123C36.6414 21.2842 29.1831 20.0167 24.502 18.5686C21.2025 17.5424 19.278 16.4291 19.3517 15.3766C19.5363 12.8381 31.3556 11.6515 45.7547 12.7223C60.1539 13.793 71.6757 16.7194 71.491 19.258C71.4198 20.2593 69.5268 21.0528 66.3753 21.5829Z" fill="#002994"/>
<path d="M66.3756 21.583C61.5585 22.3846 53.7958 22.5648 45.0883 21.9125C36.6418 21.2844 29.1835 20.0169 24.5024 18.5687C29.3195 17.7672 37.0871 17.5883 45.7999 18.2368C54.2402 18.8685 61.6945 20.1349 66.3756 21.583Z" fill="#001B74"/>
<path d="M71.493 19.2595C71.6776 16.7209 60.1549 13.7942 45.7573 12.7218C33.0446 11.7753 22.3405 12.5908 19.883 14.5417C23.3369 12.9228 33.3193 12.3063 44.9954 13.1751C59.3928 14.2485 70.9153 17.1762 70.7309 19.7137C70.7097 20.0112 70.5282 20.289 70.2021 20.5481C71.0067 20.1711 71.4579 19.7391 71.493 19.2595Z" fill="#82C1FF"/>
<path d="M21.4317 15.8056C21.6085 13.3726 33.423 12.2694 47.8206 13.3418C54.9273 13.8712 61.3345 14.8319 65.9802 15.9606C61.279 14.5546 53.9881 13.3351 45.7571 12.7229C31.3594 11.6505 19.5386 12.8387 19.354 15.3773C19.192 17.6092 28.0806 20.1417 40.0166 21.4487C29.1474 20.1094 21.2855 17.8178 21.4317 15.8056Z" fill="#82C1FF"/>
</g>
<g clip-path="url(#clip1_3619_322104)">
<path d="M250.653 16.1738C250.653 16.1738 266.506 30.9636 275.518 35.8535C288.363 42.8218 263.369 45.8486 237.88 47.3156C212.389 48.7826 162.214 48.4697 156.713 40.5284C152.232 34.0614 171.263 32.9195 183.429 16.1738H250.653Z" fill="#0367C1"/>
<path d="M255.659 29.1636C256.919 30.0805 258.252 30.8458 259.622 31.4937C260.919 32.1 262.239 32.6159 263.582 33.0242C266.564 33.9118 269.547 34.1612 272.531 34.0536C263.395 28.0854 250.593 16.1416 250.593 16.1416H244.618C246.156 18.2883 247.638 20.5059 249.229 22.5866C249.325 22.7113 249.42 22.836 249.518 22.9607C251.374 25.3225 253.382 27.4766 255.659 29.1661V29.1636Z" fill="#4088EB"/>
<path d="M182.538 21.6355C184.472 19.8115 186.41 17.9533 188.38 16.1392H183.369C172.643 30.9044 156.578 33.5377 156 38.3885C156.058 38.3788 156.116 38.3665 156.173 38.3543C157.376 38.1123 158.565 37.7993 159.743 37.4179C168.269 34.6184 175.593 28.1881 182.54 21.6355H182.538Z" fill="#4088EB"/>
<path d="M250.653 16.176C250.653 17.2494 247.383 18.2249 242.003 18.9731C235.856 19.8166 226.949 20.3472 217.042 20.3472C207.135 20.3472 198.228 19.8166 192.081 18.9731C186.699 18.2249 183.431 17.2494 183.431 16.176C183.431 13.8729 198.482 12.0049 217.042 12.0049C235.601 12.0049 250.653 13.8729 250.653 16.176Z" fill="#002994"/>
<path d="M242.003 18.9708C235.856 19.8143 226.949 20.3448 217.042 20.3448C207.135 20.3448 198.228 19.8143 192.081 18.9708C198.228 18.1272 207.135 17.5967 217.042 17.5967C226.949 17.5967 235.856 18.1272 242.003 18.9708Z" fill="#001B74"/>
<path d="M184.873 17.3839C182.714 13.6039 201.874 12.978 217.042 12.978C232.209 12.978 252.78 13.7971 249.211 17.3839C250.149 17 250.655 16.5941 250.655 16.1712C250.655 13.8655 235.607 11.9976 217.044 11.9976C198.48 11.9976 183.433 13.8655 183.433 16.1712C183.433 16.5941 183.939 17 184.877 17.3839H184.873Z" fill="#82C1FF"/>
</g>
<path d="M119.466 32.7024C119.003 32.1604 118.34 31.8325 117.69 31.5707C116.919 31.2616 116.128 31.0007 115.331 30.7737C113.721 30.3141 112.069 30.01 110.404 29.839C107.434 29.5308 104.436 29.6418 101.476 29.9863C101.489 29.8708 101.503 29.7642 101.523 29.7619C98.844 29.9794 96.1434 30.2668 93.556 31.0138C92.6635 31.2726 91.7803 31.5924 90.9367 31.9862C90.6477 32.0568 90.3565 32.1268 90.0675 32.1973C89.2561 32.3965 88.4459 32.6003 87.6378 32.8046C87.6165 32.8111 87.5871 33.0348 87.5814 33.0621C87.5756 33.0893 87.55 33.3161 87.5292 33.3204C88.1319 33.1671 88.7364 33.0163 89.3408 32.8655C88.4985 33.4107 87.7232 34.0577 87.0589 34.8287C86.5852 35.3772 86.142 35.9802 85.8615 36.6503C85.7585 36.898 85.6889 37.1549 85.6321 37.4144C85.6209 37.4252 85.5803 37.6181 85.5857 37.6346C85.576 37.6807 85.5658 37.729 85.5561 37.7751C85.4879 38.1199 85.4739 38.4695 85.5449 38.8151C85.7673 39.9109 86.7252 40.5703 87.7344 40.9121C88.8942 41.3053 90.132 41.3601 91.3449 41.3331C93.0377 41.2955 94.7284 41.2574 96.4188 41.1996C99.8174 41.0833 103.216 40.8838 106.587 40.4552C108.255 40.2415 109.918 39.9719 111.562 39.6284C112.385 39.4559 113.204 39.2648 114.016 39.0526C114.767 38.8581 115.53 38.6684 116.253 38.385C117.47 37.9077 118.727 37.1455 119.454 36.0371C119.776 35.5466 119.933 34.9687 120.004 34.3902C120.077 33.7794 119.866 33.1655 119.465 32.6957L119.466 32.7024ZM119.885 34.974C119.885 34.974 119.886 34.9698 119.887 34.9677C119.884 34.9782 119.883 34.9866 119.881 34.9971C119.882 34.9887 119.884 34.9824 119.883 34.9736L119.885 34.974Z" fill="#0043B5"/>
<path d="M86.4362 46.3505C86.1396 45.953 85.6961 45.7282 85.2829 45.5273C84.7975 45.2915 84.2978 45.0921 83.788 44.9299C81.7484 44.2835 79.6007 44.2451 77.5126 44.5323C77.3805 44.5505 77.248 44.5707 77.1155 44.591C76.2133 44.5389 75.3093 44.5478 74.4103 44.6168C72.3088 44.7786 70.2293 45.2669 68.2505 46.0743C67.7521 46.278 67.2629 46.5013 66.7786 46.7431C66.3185 46.9747 65.8529 47.2116 65.4212 47.5083C64.6639 48.0277 63.8857 48.7726 63.5761 49.7388C63.5116 49.9398 63.4717 50.1504 63.4644 50.3634C63.4584 50.5177 63.469 50.6776 63.4732 50.8361C63.4743 50.8517 63.4755 50.8672 63.4787 50.8833C63.4787 50.8833 63.4763 50.874 63.475 50.8693C63.4794 50.9535 63.4707 51.037 63.4797 51.12C63.5328 51.5713 63.7448 51.9926 64.0541 52.2877C64.6908 52.897 65.6156 52.9889 66.4121 52.9968C67.5459 53.01 68.687 52.946 69.8186 52.8646C70.9815 52.7811 72.143 52.6622 73.2994 52.505C75.621 52.1903 77.9256 51.7254 80.1976 51.1112C81.3297 50.8065 82.4545 50.4631 83.5707 50.0873C84.478 49.7791 85.4716 49.5132 86.1891 48.773C86.4599 48.495 86.689 48.1316 86.7125 47.7051C86.7394 47.2203 86.7206 46.7323 86.4307 46.345L86.4362 46.3505ZM86.7014 47.2013C86.7085 47.1678 86.7183 47.2158 86.7134 47.2914C86.7107 47.2624 86.7084 47.2312 86.7014 47.2013Z" fill="#0043B5"/>
<path d="M330.25 50.1075C329.567 48.7262 328.139 47.7595 326.78 47.1263C326.007 46.7648 325.187 46.4959 324.375 46.2353C323.523 45.9607 322.663 45.7197 321.792 45.5068C318.339 44.6662 314.766 44.3188 311.214 44.4589C309.694 44.5205 308.176 44.6718 306.672 44.91C306.445 44.9044 306.221 44.8988 305.994 44.896C302.446 44.8512 298.847 45.2967 295.536 46.6303C294.71 46.9638 293.906 47.3476 293.131 47.7875C292.47 48.163 291.767 48.5749 291.335 49.2193C290.912 49.8497 290.963 50.5754 291.092 51.2927C291.204 51.9203 291.649 52.419 292.15 52.7833C293.481 53.7555 295.192 53.9685 296.766 54.2599C298.701 54.6185 300.645 54.9211 302.597 55.1705C306.512 55.6664 310.458 55.941 314.404 55.9858C316.37 56.0083 318.339 55.9774 320.305 55.8878C322.218 55.8009 324.139 55.6888 326.041 55.4647C327.377 55.3078 328.915 55.0024 329.878 53.9797C330.343 53.4866 330.629 52.8225 330.643 52.1417C330.648 51.769 330.598 51.3823 330.542 51.0125C330.491 50.6959 330.39 50.3905 330.248 50.1047L330.25 50.1075ZM291.038 50.5362C291.036 50.581 291.036 50.6258 291.036 50.6707C291.013 50.5614 291.024 50.4857 291.038 50.5362ZM330.606 51.7942C330.606 51.7466 330.606 51.699 330.606 51.6513C330.62 51.7298 330.617 51.797 330.606 51.7942Z" fill="#004AB5"/>
<path d="M357.856 43.767C357.576 42.8115 356.968 42.0971 356.386 41.6067C356.055 41.3293 355.702 41.108 355.355 40.8951C354.988 40.6709 354.619 40.4664 354.246 40.2842C352.759 39.5557 351.216 39.1495 349.673 39.071C349.012 39.0374 348.354 39.0654 347.698 39.1523C347.6 39.1355 347.502 39.1215 347.404 39.1103C345.867 38.9085 344.301 39.0318 342.85 39.7631C342.489 39.9452 342.136 40.1638 341.794 40.4187C341.503 40.6373 341.195 40.8782 340.999 41.2873C340.809 41.688 340.823 42.1755 340.87 42.6602C340.912 43.0861 341.1 43.4392 341.313 43.7081C341.878 44.4198 342.618 44.6468 343.296 44.9186C344.13 45.252 344.97 45.549 345.813 45.8096C347.505 46.3307 349.211 46.7034 350.922 46.9275C351.773 47.0396 352.627 47.1124 353.482 47.1489C354.311 47.1825 355.145 47.2021 355.971 47.1433C356.554 47.1012 357.223 46.9751 357.652 46.3391C357.859 46.0309 357.991 45.6022 358.005 45.1483C358.013 44.8989 357.993 44.6384 357.974 44.389C357.957 44.1761 357.915 43.9659 357.856 43.767ZM340.856 42.1531C340.856 42.1839 340.856 42.2147 340.853 42.2428C340.845 42.1699 340.851 42.1195 340.856 42.1531ZM357.991 44.9102C357.991 44.8793 357.991 44.8457 357.991 44.8149C357.996 44.8681 357.991 44.913 357.991 44.9102Z" fill="#0043B5"/>
<path d="M340.202 27.8883C339.667 27.0057 338.659 26.4397 337.715 26.0951C337.177 25.899 336.614 25.7645 336.057 25.6384C335.475 25.5039 334.884 25.3918 334.293 25.2994C331.937 24.9351 329.534 24.9043 327.171 25.2013C326.16 25.3274 325.154 25.5151 324.163 25.7617C324.012 25.7701 323.86 25.7785 323.709 25.7897C321.337 25.9606 318.959 26.4649 316.825 27.5409C316.293 27.8098 315.778 28.1124 315.285 28.4515C314.865 28.7401 314.419 29.0539 314.167 29.5106C313.921 29.9561 313.996 30.438 314.122 30.9087C314.234 31.3234 314.559 31.6288 314.915 31.8446C315.859 32.4161 317.013 32.4638 318.08 32.5703C319.39 32.6991 320.707 32.7916 322.026 32.8476C324.67 32.9569 327.319 32.9149 329.957 32.7216C331.274 32.6263 332.584 32.4918 333.892 32.3209C335.164 32.1528 336.441 31.9706 337.698 31.7129C338.583 31.5308 339.592 31.2422 340.177 30.5025C340.46 30.1466 340.614 29.6871 340.583 29.2304C340.566 28.981 340.51 28.7261 340.451 28.4823C340.401 28.275 340.314 28.076 340.205 27.8911L340.202 27.8883ZM314.041 30.4044C314.041 30.4352 314.041 30.466 314.047 30.4941C314.024 30.4212 314.027 30.3708 314.041 30.4044ZM340.535 28.9922C340.535 28.9614 340.53 28.9278 340.527 28.897C340.541 28.9502 340.541 28.9922 340.535 28.9922Z" fill="#0054B5"/>
<defs>
<linearGradient id="paint0_linear_3619_322104" x1="3.88344" y1="14.7867" x2="85.3202" y2="37.1664" gradientUnits="userSpaceOnUse">
<stop stop-color="#0058C5"/>
<stop offset="1" stop-color="#0065CA"/>
</linearGradient>
<clipPath id="clip0_3619_322104">
<rect width="84.4559" height="29.9905" fill="white" transform="translate(7.94727) rotate(15.3661)"/>
</clipPath>
<clipPath id="clip1_3619_322104">
<rect width="123" height="36" fill="white" transform="translate(156 12)"/>
</clipPath>
</defs>
</svg>
