<svg width="88" height="104" viewBox="0 0 88 104" fill="none" xmlns="http://www.w3.org/2000/svg">
<g id="theme-space-day-right">
<g id="Group">
<path id="Vector" d="M13.1353 34.9803H9.87891V103.999H13.1353V34.9803Z" fill="#DBD9D6"/>
<path id="Vector_2" d="M13.1353 10.4363H9.87891V34.9804H13.1353V10.4363Z" fill="#C7C5C4"/>
<path id="Vector_3" d="M13.1353 82.149H9.87891V87.9564H13.1353V82.149Z" fill="#C7C5C4"/>
<path id="Vector_4" d="M21.8311 21.1556V17.9253H1.18286V21.1556H21.8311Z" fill="#C7C5C4"/>
<path id="Vector_5" d="M21.8271 28.6407V25.4104H1.17895V28.6407H21.8271Z" fill="#C7C5C4"/>
<path id="Vector_6" d="M21.8311 13.6666V10.4363L1.18286 10.4363V13.6666L21.8311 13.6666Z" fill="#C7C5C4"/>
<path id="Vector_7" d="M11.5052 22.3292C13.0589 22.3292 14.3184 21.0797 14.3184 19.5384C14.3184 17.9971 13.0589 16.7477 11.5052 16.7477C9.95144 16.7477 8.69189 17.9971 8.69189 19.5384C8.69189 21.0797 9.95144 22.3292 11.5052 22.3292Z" fill="#FFDD30"/>
<path id="Vector_8" d="M11.5052 14.8442C13.0589 14.8442 14.3184 13.5947 14.3184 12.0535C14.3184 10.5122 13.0589 9.2627 11.5052 9.2627C9.95144 9.2627 8.69189 10.5122 8.69189 12.0535C8.69189 13.5947 9.95144 14.8442 11.5052 14.8442Z" fill="#FFDD30"/>
<path id="Vector_9" d="M23.0142 12.0535C23.0142 10.5129 21.7539 9.2627 20.2009 9.2627C18.648 9.2627 17.3877 10.5129 17.3877 12.0535C17.3877 13.594 18.648 14.8442 20.2009 14.8442C21.7539 14.8442 23.0142 13.594 23.0142 12.0535Z" fill="#FFDD30"/>
<path id="Vector_10" d="M2.81325 14.8442C4.36697 14.8442 5.62652 13.5947 5.62652 12.0535C5.62652 10.5122 4.36697 9.2627 2.81325 9.2627C1.25953 9.2627 0 10.5122 0 12.0535C0 13.5947 1.25953 14.8442 2.81325 14.8442Z" fill="#FFDD30"/>
<path id="Vector_11" d="M14.3223 27.0276C14.3223 28.5681 13.0621 29.8183 11.5091 29.8183C9.95608 29.8183 8.6958 28.5681 8.6958 27.0276C8.6958 25.487 9.95608 24.2368 11.5091 24.2368C13.0621 24.2368 14.3223 25.487 14.3223 27.0276Z" fill="#FFDD30"/>
<path id="Vector_12" d="M23.0142 27.0276C23.0142 28.5681 21.7539 29.8183 20.2009 29.8183C18.648 29.8183 17.3877 28.5681 17.3877 27.0276C17.3877 25.487 18.648 24.2368 20.2009 24.2368C21.7539 24.2368 23.0142 25.487 23.0142 27.0276Z" fill="#FFDD30"/>
<path id="Vector_13" d="M5.62652 27.0276C5.62652 28.5681 4.36624 29.8183 2.81325 29.8183C1.26027 29.8183 0 28.5681 0 27.0276C0 25.487 1.26027 24.2368 2.81325 24.2368C4.36624 24.2368 5.62652 25.487 5.62652 27.0276Z" fill="#FFDD30"/>
<path id="Vector_14" d="M9.875 54.9634V51.733H1.17909V54.9634H9.875Z" fill="#C7C5C4"/>
<path id="Vector_15" d="M2.81325 56.141C4.36697 56.141 5.62652 54.8915 5.62652 53.3502C5.62652 51.8089 4.36697 50.5594 2.81325 50.5594C1.25953 50.5594 0 51.8089 0 53.3502C0 54.8915 1.25953 56.141 2.81325 56.141Z" fill="#FFDD30"/>
<path id="Vector_16" d="M9.87891 62.9364V59.7061H1.183V62.9364H9.87891Z" fill="#C7C5C4"/>
<path id="Vector_17" d="M2.81325 64.114C4.36697 64.114 5.62652 62.8645 5.62652 61.3232C5.62652 59.782 4.36697 58.5325 2.81325 58.5325C1.25953 58.5325 0 59.782 0 61.3232C0 62.8645 1.25953 64.114 2.81325 64.114Z" fill="#FFDD30"/>
<path id="Vector_18" d="M20.2009 22.3292C21.7539 22.3292 23.0142 21.079 23.0142 19.5384C23.0142 17.9979 21.7539 16.7477 20.2009 16.7477C18.648 16.7477 17.3877 17.9979 17.3877 19.5384C17.3877 21.079 18.648 22.3292 20.2009 22.3292Z" fill="#FFDD30"/>
<path id="Vector_19" d="M2.81325 22.3292C4.36697 22.3292 5.62652 21.0797 5.62652 19.5384C5.62652 17.9971 4.36697 16.7477 2.81325 16.7477C1.25953 16.7477 0 17.9971 0 19.5384C0 21.0797 1.25953 22.3292 2.81325 22.3292Z" fill="#FFDD30"/>
<path id="Vector_20" d="M17.9203 78.4266H5.08984V82.149H17.9203V78.4266Z" fill="#DBD9D6"/>
</g>
<g id="Group_2">
<path id="Vector_21" d="M40.7716 72.5632H34.084V75.5476H40.7716V72.5632Z" fill="#C7C5C4"/>
<path id="Vector_22" d="M53.8499 97.4583H21.0015V104H53.8499V97.4583Z" fill="#DBD9D6"/>
<path id="Vector_23" d="M53.8499 100.729H21.0015V104H53.8499V100.729Z" fill="#C7C5C4"/>
<path id="Vector_24" d="M50.8821 84.0812H23.9731V97.4623H50.8821V84.0812Z" fill="#AEADAF"/>
<path id="Vector_25" d="M48.1631 87.8067C49.581 81.9208 45.9205 76.0092 39.9872 74.6026C34.0539 73.1961 28.0946 76.8273 26.6767 82.7131C25.2588 88.5989 28.9193 94.5106 34.8526 95.9171C40.7859 97.3237 46.7452 93.6925 48.1631 87.8067Z" fill="#DBD9D6"/>
<path id="Vector_26" d="M37.4257 88.5818C39.2713 88.5818 40.7675 87.0977 40.7675 85.2668C40.7675 83.436 39.2713 81.9518 37.4257 81.9518C35.5801 81.9518 34.084 83.436 34.084 85.2668C34.084 87.0977 35.5801 88.5818 37.4257 88.5818Z" fill="#C7C5C4"/>
<path id="Vector_27" d="M37.4259 83.952C36.6941 83.952 36.1006 84.5408 36.1006 85.2668V101.846H38.7512V85.2668C38.7512 84.5408 38.1577 83.952 37.4259 83.952Z" fill="#F1F0EF"/>
<path id="Vector_28" d="M41.8203 101.846H33.0391V103.999H41.8203V101.846Z" fill="#DBD9D6"/>
</g>
<g id="Group_3">
<path id="Vector_29" d="M76.3692 22.9633H72.5518V104H76.3692V22.9633Z" fill="#AEADAF"/>
<path id="Vector_30" d="M82.9142 32.1743H66.0103V36.4451H82.9142V32.1743Z" fill="#C7C5C4"/>
<path id="Vector_31" d="M83.4955 50.0562H65.4248V54.327H83.4955V50.0562Z" fill="#C7C5C4"/>
<path id="Vector_32" d="M84.5768 67.938H64.3433V72.2088H84.5768V67.938Z" fill="#C7C5C4"/>
<path id="Vector_33" d="M85.5039 85.8198H63.4165V90.0906H85.5039V85.8198Z" fill="#C7C5C4"/>
<path id="Vector_34" d="M65.3314 104L69.9293 18.5634H65.5184L60.9204 104H65.3314Z" fill="#DBD9D6"/>
<path id="Vector_35" d="M88.0002 104L83.4022 18.5634H78.9912L83.5892 104H88.0002Z" fill="#DBD9D6"/>
<path id="Vector_36" d="M64.9287 29.5449H69.3397L69.9292 18.5634H65.5182L64.9287 29.5449Z" fill="#C7C5C4"/>
<path id="Vector_37" d="M83.9957 29.5449H79.5848L78.9912 18.5634H83.4022L83.9957 29.5449Z" fill="#C7C5C4"/>
<path id="Vector_38" d="M80.1862 2.80286H68.7381C65.8821 2.80286 63.5669 5.09956 63.5669 7.93268V17.8334C63.5669 20.6665 65.8821 22.9632 68.7381 22.9632H80.1862C83.0422 22.9632 85.3575 20.6665 85.3575 17.8334V7.93268C85.3575 5.09956 83.0422 2.80286 80.1862 2.80286Z" fill="#DBD9D6"/>
<path id="Vector_39" d="M68.734 22.9632H80.1862C83.0402 22.9632 85.3575 20.6685 85.3575 17.8334H63.5669C63.5669 20.6645 65.8801 22.9632 68.7381 22.9632H68.734Z" fill="#C7C5C4"/>
<path id="Vector_40" d="M78.991 0H69.9292V2.80286H78.991V0Z" fill="#C7C5C4"/>
<path id="Vector_41" d="M87.6829 14.5869H61.2334V17.9261H87.6829V14.5869Z" fill="#F1F0EF"/>
</g>
</g>
</svg>
