<svg width="172" height="231" viewBox="0 0 172 231" fill="none" xmlns="http://www.w3.org/2000/svg">
<g id="theme-space-day-left">
<g id="Group">
<path id="Vector" d="M113.598 52.524C113.598 52.524 100.263 62.6839 100.263 79.8393H126.937C126.937 62.6839 113.602 52.524 113.602 52.524H113.598Z" fill="#FFB602"/>
<path id="Vector_2" d="M126.937 79.8352H100.263V191.02H126.937V79.8352Z" fill="#FFB602"/>
<path id="Vector_3" d="M124.349 97.9464V120.593C121.92 123.891 118.009 126.034 113.598 126.034C109.187 126.034 105.277 123.891 102.847 120.593V97.9464C102.847 96.5188 101.687 95.3638 100.263 95.3638V191.024H126.937V95.3638C125.509 95.3638 124.353 96.5188 124.353 97.9464H124.349Z" fill="#DB9130"/>
<path id="Vector_4" d="M100.263 95.3596H87.7256V191.907H100.263V95.3596Z" fill="#DBD9D6"/>
<path id="Vector_5" d="M98.082 191.907H89.9109C88.3402 194.774 87.8438 199.114 87.8438 199.114H100.153C100.153 199.114 99.6528 194.77 98.0861 191.907H98.082Z" fill="#C7C5C4"/>
<path id="Vector_6" d="M87.7257 95.3597L92.7432 84.2806C93.2315 83.2069 94.7534 83.2069 95.2417 84.2806L100.259 95.3597H87.7217H87.7257Z" fill="#DBD9D6"/>
<path id="Vector_7" d="M100.263 95.3596H87.7256V98.1456H100.263V95.3596Z" fill="#F1F0EF"/>
<path id="Vector_8" d="M100.263 160.654H87.7256V162.289H100.263V160.654Z" fill="#C7C5C4"/>
<path id="Vector_9" d="M100.263 182.418H87.7256V185.204H100.263V182.418Z" fill="#C7C5C4"/>
<path id="Vector_10" d="M126.933 191.907H139.471V95.3597H126.933L126.933 191.907Z" fill="#DBD9D6"/>
<path id="Vector_11" d="M129.118 191.907H137.289C138.86 194.774 139.356 199.114 139.356 199.114H127.047C127.047 199.114 127.547 194.77 129.114 191.907H129.118Z" fill="#C7C5C4"/>
<path id="Vector_12" d="M139.47 95.3597L134.453 84.2806C133.965 83.2069 132.443 83.2069 131.954 84.2806L126.937 95.3597H139.474H139.47Z" fill="#DBD9D6"/>
<path id="Vector_13" d="M126.933 98.1498H139.471V95.3638H126.933V98.1498Z" fill="#F1F0EF"/>
<path id="Vector_14" d="M100.263 136.751V182.418H108.87V136.751H100.263Z" fill="#DB9130"/>
<path id="Vector_15" d="M139.474 160.654H126.937V162.289H139.474V160.654Z" fill="#C7C5C4"/>
<path id="Vector_16" d="M100.263 113.776H87.7256V115.411H100.263V113.776Z" fill="#C7C5C4"/>
<path id="Vector_17" d="M139.474 113.776H126.937V115.411H139.474V113.776Z" fill="#C7C5C4"/>
<path id="Vector_18" d="M100.263 98.1498H87.7256V99.7848H100.263V98.1498Z" fill="#C7C5C4"/>
<path id="Vector_19" d="M139.474 98.1498H126.937V99.7848H139.474V98.1498Z" fill="#C7C5C4"/>
<path id="Vector_20" d="M129.611 191.907V98.1498H126.937V191.907H129.611Z" fill="#C7C5C4"/>
<path id="Vector_21" d="M100.263 191.903V98.1458H97.5897V191.903H100.263Z" fill="#C7C5C4"/>
<path id="Vector_22" d="M100.263 110.986H87.7256V113.772H100.263V110.986Z" fill="#F1F0EF"/>
<path id="Vector_23" d="M100.263 157.864H87.7256V160.65H100.263V157.864Z" fill="#F1F0EF"/>
<path id="Vector_24" d="M126.933 160.654H139.471V157.868H126.933V160.654Z" fill="#F1F0EF"/>
<path id="Vector_25" d="M100.263 189.121H87.7256V191.907H100.263V189.121Z" fill="#F1F0EF"/>
<path id="Vector_26" d="M126.933 191.903H139.471V189.117H126.933V191.903Z" fill="#F1F0EF"/>
<path id="Vector_27" d="M122.969 128.08H104.23V182.418H122.969V128.08Z" fill="#FCFCFC"/>
<path id="Vector_28" d="M118.762 191.02H108.434C107.734 192.297 107.515 194.229 107.515 194.229H119.686C119.686 194.229 119.462 192.297 118.766 191.02H118.762Z" fill="#6A7172"/>
<path id="Vector_29" d="M79.7051 182.418H104.227V132.517C104.227 132.517 99.1521 153.04 97.3291 159.849C95.559 166.458 79.7051 166.458 79.7051 182.414V182.418Z" fill="#6A7172"/>
<path id="Vector_30" d="M104.231 182.418V152.052C103.315 155.672 102.465 158.991 101.907 161.073C100.752 165.384 97.0607 167.577 93.492 169.696C88.6373 172.579 84.4419 175.068 84.4419 182.414H104.231V182.418Z" fill="#F1F0EF"/>
<path id="Vector_31" d="M147.491 182.418H122.97V132.517C122.97 132.517 128.044 153.04 129.867 159.849C131.637 166.458 147.491 166.458 147.491 182.414V182.418Z" fill="#6A7172"/>
<path id="Vector_32" d="M122.97 182.418V152.052C123.885 155.672 124.736 158.991 125.293 161.073C126.449 165.384 130.14 167.577 133.709 169.696C138.563 172.579 142.759 175.068 142.759 182.414H122.97V182.418Z" fill="#F1F0EF"/>
<path id="Vector_33" d="M101.891 177.301H97.3169V180.079H101.891V177.301Z" fill="#DBD9D6"/>
<path id="Vector_34" d="M125.309 180.079H129.883V177.301H125.309V180.079Z" fill="#DBD9D6"/>
<path id="Vector_35" d="M113.598 175.67C105.472 175.67 104.227 185.204 104.227 191.02H122.966C122.966 185.2 121.72 175.67 113.594 175.67H113.598Z" fill="#F1F0EF"/>
<path id="Vector_36" d="M113.598 173.726C112.89 173.726 112.316 174.3 112.316 175.007V197.747H114.88V175.007C114.88 174.3 114.306 173.726 113.598 173.726Z" fill="#6A7172"/>
<path id="Vector_37" d="M139.474 182.418H126.937V185.204H139.474V182.418Z" fill="#C7C5C4"/>
<path id="Vector_38" d="M99.4411 195.51C99.1237 194.31 98.6802 193.001 98.082 191.907H89.9109C89.3127 193.001 88.8692 194.31 88.5518 195.51H99.4452H99.4411Z" fill="#8A8A8D"/>
<path id="Vector_39" d="M127.759 195.51C128.076 194.31 128.52 193.001 129.118 191.907H137.289C137.887 193.001 138.331 194.31 138.648 195.51H127.755H127.759Z" fill="#8A8A8D"/>
<path id="Vector_40" d="M126.937 87.2009H100.263V89.4175H126.937V87.2009Z" fill="#FFCC4F"/>
<path id="Vector_41" d="M124.349 105.743H102.847V107.96H124.349V105.743Z" fill="#FFCC4F"/>
<path id="Vector_42" d="M119.246 89.4175H114.709V96.7547H119.246V89.4175Z" fill="#FFCC4F"/>
<path id="Vector_43" d="M107.836 79.8636H103.299V87.2009H107.836V79.8636Z" fill="#FFCC4F"/>
<path id="Vector_44" d="M122.969 82.7147C122.969 83.4306 122.392 84.0081 121.675 84.0081C120.959 84.0081 120.381 83.4306 120.381 82.7147C120.381 81.9989 120.959 81.4214 121.675 81.4214C122.392 81.4214 122.969 81.9989 122.969 82.7147Z" fill="#FFCC4F"/>
<path id="Vector_45" d="M122.969 77.5901C122.969 78.3059 122.392 78.8835 121.675 78.8835C120.959 78.8835 120.381 78.3059 120.381 77.5901C120.381 76.8743 120.959 76.2968 121.675 76.2968C122.392 76.2968 122.969 76.8743 122.969 77.5901Z" fill="#FFCC4F"/>
<path id="Vector_46" d="M122.969 72.4695C122.969 73.1853 122.392 73.7629 121.675 73.7629C120.959 73.7629 120.381 73.1853 120.381 72.4695C120.381 71.7537 120.959 71.1761 121.675 71.1761C122.392 71.1761 122.969 71.7537 122.969 72.4695Z" fill="#FFCC4F"/>
<path id="Vector_47" d="M117.326 56.0869C115.218 53.7564 113.602 52.524 113.602 52.524C113.602 52.524 111.983 53.7564 109.879 56.0869H117.33H117.326Z" fill="#DB9130"/>
<path id="Vector_48" d="M113.598 106.849C109.122 106.849 104.227 120.348 104.227 128.076H122.966C122.966 120.348 118.07 106.849 113.594 106.849H113.598Z" fill="#FCFCFC"/>
<path id="Vector_49" d="M113.598 118.929C110.648 118.929 108.084 120.568 106.761 122.988C106.753 123.004 106.761 123.029 106.778 123.037L108.996 124.229C109.879 122.594 111.608 121.479 113.598 121.479C115.588 121.479 117.317 122.59 118.2 124.229L120.418 123.037C120.418 123.037 120.442 123.004 120.434 122.988C119.116 120.572 116.548 118.929 113.598 118.929Z" fill="#6A7172"/>
<path id="Vector_50" d="M118.973 112.381C117.358 109.143 115.445 106.849 113.602 106.849C111.759 106.849 109.842 109.143 108.23 112.381H118.977H118.973Z" fill="#6A7172"/>
<path id="Vector_51" d="M122.969 144.483H104.23V147.367H122.969V144.483Z" fill="#F1F0EF"/>
<path id="Vector_52" d="M122.969 156.742H104.23V159.625H122.969V156.742Z" fill="#F1F0EF"/>
<path id="Vector_53" d="M122.969 132.225H104.23V135.108H122.969V132.225Z" fill="#F1F0EF"/>
<path id="Vector_54" d="M122.969 168.996H104.23V171.88H122.969V168.996Z" fill="#F1F0EF"/>
<path id="Vector_55" d="M115.043 135.108H112.158V169H115.043V135.108Z" fill="#F1F0EF"/>
<path id="Vector_56" d="M126.933 113.776H139.471V110.99H126.933V113.776Z" fill="#F1F0EF"/>
</g>
<g id="Group_2">
<path id="Vector_57" d="M155.043 199.113H58.8662V217.68H155.043V199.113Z" fill="#8A8A8D"/>
<path id="Vector_58" d="M58.8662 112.771H15.3169V217.68H58.8662V112.771Z" fill="#8A8A8D"/>
<path id="Vector_59" d="M58.8662 95.7986H15.3169V108.976H58.8662V95.7986Z" fill="#8A8A8D"/>
<path id="Vector_60" d="M41.8931 44.8529H19.1133V66.531H41.8931V44.8529Z" fill="#8A8A8D"/>
<path id="Vector_61" d="M71.8472 64.0134H45.6899V92.0038H71.8472V64.0134Z" fill="#8A8A8D"/>
<path id="Vector_62" d="M22.9058 34.7257H15.3247V41.0583H22.9058V34.7257Z" fill="#C7C5C4"/>
<path id="Vector_63" d="M75.6438 92.0079H58.8662V163.485H75.6438V92.0079Z" fill="#DBD9D6"/>
<path id="Vector_64" d="M58.8662 163.481H68.0546V96.9862L63.6232 92.0079H58.8662V163.481Z" fill="#C7C5C4"/>
<path id="Vector_65" d="M75.6436 60.2228V52.849H45.6896V60.2228H75.6436Z" fill="#8A8A8D"/>
<path id="Vector_66" d="M45.6899 70.3258H15.3169V92.0039H45.6899V70.3258Z" fill="#8A8A8D"/>
<path id="Vector_67" d="M19.1135 112.771H15.3169V217.68H19.1135V112.771Z" fill="#DBD9D6"/>
<path id="Vector_68" d="M33.4128 185.24H29.6162V217.68H33.4128V185.24Z" fill="#DBD9D6"/>
<path id="Vector_69" d="M29.6162 194.526V190.731H19.1134V194.526H29.6162Z" fill="#C7C5C4"/>
<path id="Vector_70" d="M19.1133 208.399V212.193H29.6161V208.399H19.1133Z" fill="#C7C5C4"/>
<path id="Vector_71" d="M32.2976 70.3258H28.501V108.976H32.2976V70.3258Z" fill="#DBD9D6"/>
<path id="Vector_72" d="M71.8469 60.2188H75.6436V52.8449H71.8469V60.2188Z" fill="#DBD9D6"/>
<path id="Vector_73" d="M61.865 60.2188H65.6616V52.8449H61.865V60.2188Z" fill="#DBD9D6"/>
<path id="Vector_74" d="M51.8791 60.2188H55.6758V52.8449H51.8791V60.2188Z" fill="#DBD9D6"/>
<path id="Vector_75" d="M19.1135 70.3258H15.3169V108.976H19.1135V70.3258Z" fill="#DBD9D6"/>
<path id="Vector_76" d="M28.501 78.936V75.1414H19.1132V78.936H28.501Z" fill="#C7C5C4"/>
<path id="Vector_77" d="M28.501 87.3672V83.5725H19.1132V87.3672H28.501Z" fill="#C7C5C4"/>
<path id="Vector_78" d="M28.4971 95.8026V92.0079H19.1093V95.8026H28.4971Z" fill="#C7C5C4"/>
<path id="Vector_79" d="M63.623 95.8026V92.0079H32.2937V95.8026H63.623Z" fill="#DBD9D6"/>
<path id="Vector_80" d="M50.4507 70.3257V66.531H10.5596V70.3257H50.4507Z" fill="#DBD9D6"/>
<path id="Vector_81" d="M50.4468 44.8529V41.0582H10.5557V44.8529H50.4468Z" fill="#DBD9D6"/>
<path id="Vector_82" d="M75.6436 52.849V49.0543H45.6896V52.849H75.6436Z" fill="#DBD9D6"/>
<path id="Vector_83" d="M75.6436 64.0134V60.2188H45.6896V64.0134H75.6436Z" fill="#DBD9D6"/>
<path id="Vector_84" d="M82.5532 60.2188V52.845H77.7555V60.2188H82.5532Z" fill="#DBD9D6"/>
<path id="Vector_85" d="M82.5532 60.2188V57.4125H77.7555V60.2188H82.5532Z" fill="#C7C5C4"/>
<path id="Vector_86" d="M98.5333 61.8334L92.234 54.484H82.5532V58.5837H90.3459L95.4121 64.5015L98.5333 61.8334Z" fill="#DBD9D6"/>
<path id="Vector_87" d="M28.501 104.234V100.439H19.1132V104.234H28.501Z" fill="#C7C5C4"/>
<path id="Vector_88" d="M29.6162 203.359V199.565H19.1134V203.359H29.6162Z" fill="#C7C5C4"/>
<path id="Vector_89" d="M151.247 212.193V208.399H144.589V212.193H151.247Z" fill="#C7C5C4"/>
<path id="Vector_90" d="M58.866 112.771H55.0693V217.68H58.866V112.771Z" fill="#DBD9D6"/>
<path id="Vector_91" d="M63.623 185.244V181.449H10.5557V185.244H63.623Z" fill="#DBD9D6"/>
<path id="Vector_92" d="M159.8 202.912V199.117H58.8661V202.912H159.8Z" fill="#DBD9D6"/>
<path id="Vector_93" d="M172 221.479V217.684H0V221.479H172Z" fill="#DBD9D6"/>
<path id="Vector_94" d="M167.931 231V221.475H4.06923V231H167.931Z" fill="#8A8A8D"/>
<path id="Vector_95" d="M151.247 217.684H155.043V202.912H151.247V217.684Z" fill="#DBD9D6"/>
<path id="Vector_96" d="M140.793 217.684H144.589V202.912H140.793V217.684Z" fill="#DBD9D6"/>
<path id="Vector_97" d="M82.6104 212.193V208.399H75.953V212.193H82.6104Z" fill="#C7C5C4"/>
<path id="Vector_98" d="M75.9529 202.908H72.1562V217.68H75.9529V202.908Z" fill="#DBD9D6"/>
<path id="Vector_99" d="M86.4031 202.908H82.6064V217.68H86.4031V202.908Z" fill="#DBD9D6"/>
<path id="Vector_100" d="M75.9529 202.908H72.1562V208.399H75.9529V202.908Z" fill="#C7C5C4"/>
<path id="Vector_101" d="M33.4128 185.24H29.6162V190.731H33.4128V185.24Z" fill="#C7C5C4"/>
<path id="Vector_102" d="M58.866 185.24H55.0693V190.731H58.866V185.24Z" fill="#C7C5C4"/>
<path id="Vector_103" d="M19.1135 185.24H15.3169V190.731H19.1135V185.24Z" fill="#C7C5C4"/>
<path id="Vector_104" d="M58.866 149.005H55.0693V154.496H58.866V149.005Z" fill="#C7C5C4"/>
<path id="Vector_105" d="M19.1135 149.005H15.3169V154.496H19.1135V149.005Z" fill="#C7C5C4"/>
<path id="Vector_106" d="M58.866 112.771H55.0693V118.262H58.866V112.771Z" fill="#C7C5C4"/>
<path id="Vector_107" d="M19.1135 112.771H15.3169V118.262H19.1135V112.771Z" fill="#C7C5C4"/>
<path id="Vector_108" d="M86.4031 202.908H82.6064V208.399H86.4031V202.908Z" fill="#C7C5C4"/>
<path id="Vector_109" d="M144.59 202.908H140.793V208.399H144.59V202.908Z" fill="#C7C5C4"/>
<path id="Vector_110" d="M155.043 202.908H151.247V208.399H155.043V202.908Z" fill="#C7C5C4"/>
<path id="Vector_111" d="M10.5557 108.976V112.771H63.623V108.976H10.5557Z" fill="#DBD9D6"/>
<path id="Vector_112" d="M10.5596 145.211V149.005H63.627V145.211H10.5596Z" fill="#DBD9D6"/>
<path id="Vector_113" d="M21.7217 112.771H19.1133V115.532L51.9523 145.211H55.0694V142.917L21.7217 112.771Z" fill="#DBD9D6"/>
<path id="Vector_114" d="M21.7217 112.771H19.1133V115.532L22.1327 118.262H27.793L21.7217 112.771Z" fill="#C7C5C4"/>
<path id="Vector_115" d="M21.7217 149.005H19.1133V151.767L51.9523 181.445H55.0694V179.151L21.7217 149.005Z" fill="#DBD9D6"/>
<path id="Vector_116" d="M13.323 155.708H7.36963V161.642H13.323V155.708Z" fill="#DBD9D6"/>
<path id="Vector_117" d="M13.323 159.056H7.36963V161.646H13.323V159.056Z" fill="#C7C5C4"/>
<path id="Vector_118" d="M66.8132 168.809H60.8599V174.743H66.8132V168.809Z" fill="#DBD9D6"/>
<path id="Vector_119" d="M13.323 168.809H7.36963V174.743H13.323V168.809Z" fill="#DBD9D6"/>
<path id="Vector_120" d="M104.23 129.402H75.6436V136.751H104.23V129.402Z" fill="#DBD9D6"/>
<path id="Vector_121" d="M104.23 134.172H75.6436V136.751H104.23V134.172Z" fill="#C7C5C4"/>
<path id="Vector_122" d="M58.866 95.7986H55.0693V108.976H58.866V95.7986Z" fill="#DBD9D6"/>
<path id="Vector_123" d="M45.6897 70.3258H41.8931V92.0039H45.6897V70.3258Z" fill="#DBD9D6"/>
<path id="Vector_124" d="M75.6438 64.0134H71.8472V92.0038H75.6438V64.0134Z" fill="#DBD9D6"/>
<path id="Vector_125" d="M45.6897 44.8529H41.8931V66.531H45.6897V44.8529Z" fill="#DBD9D6"/>
<path id="Vector_126" d="M19.1135 44.8529H15.3169V66.531H19.1135V44.8529Z" fill="#DBD9D6"/>
<path id="Vector_127" d="M46.6379 30.7886H31.3374V41.0582H46.6379V30.7886Z" fill="#DBD9D6"/>
<path id="Vector_128" d="M46.6379 37.528H31.3374V41.0583H46.6379V37.528Z" fill="#C7C5C4"/>
<path id="Vector_129" d="M42.0315 0C41.3234 0 40.7456 0.573472 40.7456 1.28523V30.7886H43.3133V1.28523C43.3133 0.577539 42.7395 0 42.0274 0H42.0315Z" fill="#AEADAF"/>
<path id="Vector_130" d="M35.94 7.90259C36.6481 7.90259 37.2259 8.47606 37.2259 9.18782V30.7887H34.6582V9.18782C34.6582 8.48013 35.232 7.90259 35.9441 7.90259H35.94Z" fill="#AEADAF"/>
<path id="Vector_131" d="M9.75 37.8858C12.4601 39.0287 15.7074 38.4959 17.917 36.2915C20.1266 34.0871 20.6557 30.8374 19.5122 28.1287L9.75 37.8858Z" fill="#DBD9D6"/>
<path id="Vector_132" d="M13.5261 34.1115L12.7163 31.0936L15.7357 31.903L13.5261 34.1115Z" fill="#C7C5C4"/>
<path id="Vector_133" d="M58.866 95.7986H55.0693V101.289H58.866V95.7986Z" fill="#C7C5C4"/>
<path id="Vector_134" d="M32.2976 95.7986H28.501V100.435H32.2976V95.7986Z" fill="#C7C5C4"/>
<path id="Vector_135" d="M32.2976 70.3258H28.501V75.1414H32.2976V70.3258Z" fill="#C7C5C4"/>
<path id="Vector_136" d="M45.6897 70.3258H41.8931V75.1414H45.6897V70.3258Z" fill="#C7C5C4"/>
<path id="Vector_137" d="M75.6438 64.0134H71.8472V70.3257H75.6438V64.0134Z" fill="#C7C5C4"/>
<path id="Vector_138" d="M75.6438 52.849H71.8472V56.5339H75.6438V52.849Z" fill="#C7C5C4"/>
<path id="Vector_139" d="M65.6575 52.849H61.8608V56.5339H65.6575V52.849Z" fill="#C7C5C4"/>
<path id="Vector_140" d="M55.6755 52.849H51.8789V56.5339H55.6755V52.849Z" fill="#C7C5C4"/>
<path id="Vector_141" d="M45.6897 44.8529H41.8931V49.0543H45.6897V44.8529Z" fill="#C7C5C4"/>
<path id="Vector_142" d="M19.1135 44.8529H15.3169V49.0543H19.1135V44.8529Z" fill="#C7C5C4"/>
<path id="Vector_143" d="M19.1135 70.3258H15.3169V75.1414H19.1135V70.3258Z" fill="#C7C5C4"/>
<path id="Vector_144" d="M13.323 172.156H7.36963V174.743H13.323V172.156Z" fill="#C7C5C4"/>
<path id="Vector_145" d="M66.8132 172.156H60.8599V174.743H66.8132V172.156Z" fill="#C7C5C4"/>
<path id="Vector_146" d="M15.3167 155.708H13.3228V161.642H15.3167V155.708Z" fill="#C7C5C4"/>
<path id="Vector_147" d="M13.323 118.262H7.36963V124.196H13.323V118.262Z" fill="#DBD9D6"/>
<path id="Vector_148" d="M13.323 121.609H7.36963V124.196H13.323V121.609Z" fill="#C7C5C4"/>
<path id="Vector_149" d="M15.3167 118.262H13.3228V124.196H15.3167V118.262Z" fill="#C7C5C4"/>
<path id="Vector_150" d="M15.3167 168.809H13.3228V174.743H15.3167V168.809Z" fill="#C7C5C4"/>
<path id="Vector_151" d="M60.8602 168.809H58.8662V174.743H60.8602V168.809Z" fill="#C7C5C4"/>
<path id="Vector_152" d="M75.6396 156.786H63.623V163.485H75.6396V156.786Z" fill="#C7C5C4"/>
<path id="Vector_153" d="M78.488 129.402H75.6436V134.172H78.488V129.402Z" fill="#C7C5C4"/>
<path id="Vector_154" d="M27.5247 137.63H22.6416V145.215H27.5247V137.63Z" fill="#C7C5C4"/>
<path id="Vector_155" d="M35.2806 137.63H30.3975V145.215H35.2806V137.63Z" fill="#C7C5C4"/>
<path id="Vector_156" d="M27.5247 142.169H22.6416V145.211H27.5247V142.169Z" fill="#AEADAF"/>
<path id="Vector_157" d="M35.2806 142.169H30.3975V145.211H35.2806V142.169Z" fill="#AEADAF"/>
<path id="Vector_158" d="M126.323 210.099H121.439V217.684H126.323V210.099Z" fill="#C7C5C4"/>
<path id="Vector_159" d="M134.078 210.099H129.195V217.684H134.078V210.099Z" fill="#C7C5C4"/>
<path id="Vector_160" d="M126.323 214.638H121.439V217.68H126.323V214.638Z" fill="#AEADAF"/>
<path id="Vector_161" d="M134.078 214.638H129.195V217.68H134.078V214.638Z" fill="#AEADAF"/>
<path id="Vector_162" d="M53.6898 84.4226H48.8066V92.0079H53.6898V84.4226Z" fill="#C7C5C4"/>
<path id="Vector_163" d="M53.6898 88.9615H48.8066V92.0038H53.6898V88.9615Z" fill="#AEADAF"/>
<path id="Vector_164" d="M61.2098 84.4226H56.3267V92.0079H61.2098V84.4226Z" fill="#C7C5C4"/>
<path id="Vector_165" d="M61.2098 88.9615H56.3267V92.0038H61.2098V88.9615Z" fill="#AEADAF"/>
<path id="Vector_166" d="M68.7342 84.4226H63.8511V92.0079H68.7342V84.4226Z" fill="#C7C5C4"/>
<path id="Vector_167" d="M68.7342 88.9615H63.8511V92.0038H68.7342V88.9615Z" fill="#AEADAF"/>
<path id="Vector_168" d="M51.1752 149.005H37.3071V158.083H51.1752V149.005Z" fill="#DBD9D6"/>
<path id="Vector_169" d="M51.1752 149.005H37.3071V154.496H51.1752V149.005Z" fill="#C7C5C4"/>
<path id="Vector_170" d="M55.0694 196.636H46.7681V207.654H55.0694V196.636Z" fill="#DBD9D6"/>
<path id="Vector_171" d="M21.7217 149.005H19.1133V151.767L22.1327 154.496H27.793L21.7217 149.005Z" fill="#C7C5C4"/>
<path id="Vector_172" d="M55.0697 196.636H52.4043V207.654H55.0697V196.636Z" fill="#C7C5C4"/>
<path id="Vector_173" d="M84.9012 54.484H82.5532V58.5878H84.9012V54.484Z" fill="#C7C5C4"/>
<path id="Vector_174" d="M77.7555 52.849H75.6436V60.2228H77.7555V52.849Z" fill="#C7C5C4"/>
<path id="Vector_175" d="M105.113 202.908H92.3438V211.128H105.113V202.908Z" fill="#DBD9D6"/>
<path id="Vector_176" d="M105.113 202.908H92.3438V208.399H105.113V202.908Z" fill="#C7C5C4"/>
<path id="Vector_177" d="M7.86597 221.475H4.06934V231H7.86597V221.475Z" fill="#DBD9D6"/>
<path id="Vector_178" d="M7.86597 221.475H4.06934V226.237H7.86597V221.475Z" fill="#C7C5C4"/>
<path id="Vector_179" d="M22.2019 221.475H18.4053V231H22.2019V221.475Z" fill="#DBD9D6"/>
<path id="Vector_180" d="M22.2019 221.475H18.4053V226.237H22.2019V221.475Z" fill="#C7C5C4"/>
<path id="Vector_181" d="M36.6965 221.475H32.8999V231H36.6965V221.475Z" fill="#DBD9D6"/>
<path id="Vector_182" d="M36.6965 221.475H32.8999V226.237H36.6965V221.475Z" fill="#C7C5C4"/>
<path id="Vector_183" d="M167.935 221.475H164.138V231H167.935V221.475Z" fill="#DBD9D6"/>
<path id="Vector_184" d="M167.935 221.475H164.138V226.237H167.935V221.475Z" fill="#C7C5C4"/>
</g>
</g>
</svg>
