<svg width="24" height="25" viewBox="0 0 24 25" fill="none" xmlns="http://www.w3.org/2000/svg">
<g clip-path="url(#clip0_2727_147154)">
<mask id="path-1-inside-1_2727_147154" fill="white">
<path d="M1 9.39466C1 9.08296 1.14535 8.78908 1.39309 8.5999L11.3931 0.963533C11.7514 0.68989 12.2486 0.68989 12.6069 0.963533L22.6069 8.5999C22.8546 8.78908 23 9.08296 23 9.39466V23.5001C23 24.0524 22.5523 24.5001 22 24.5001H2C1.44772 24.5001 1 24.0524 1 23.5001V9.39466Z"/>
</mask>
<path d="M11.3931 0.963533L12.6069 2.55307L11.3931 0.963533ZM12.6069 0.963533L11.3931 2.55307L12.6069 0.963533ZM22.6069 8.5999L23.8207 7.01036L22.6069 8.5999ZM1.39309 8.5999L0.179259 7.01036L1.39309 8.5999ZM21 9.39466V23.5001H25V9.39466H21ZM22 22.5001H2V26.5001H22V22.5001ZM3 23.5001V9.39466H-1V23.5001H3ZM2.60691 10.1894L12.6069 2.55307L10.1793 -0.626003L0.179259 7.01036L2.60691 10.1894ZM11.3931 2.55307L21.3931 10.1894L23.8207 7.01036L13.8207 -0.626003L11.3931 2.55307ZM12.6069 2.55307C12.2486 2.82671 11.7514 2.82671 11.3931 2.55307L13.8207 -0.626003C12.7457 -1.44693 11.2543 -1.44693 10.1793 -0.626003L12.6069 2.55307ZM2 22.5001C2.55228 22.5001 3 22.9478 3 23.5001H-1C-1 25.1569 0.343147 26.5001 2 26.5001V22.5001ZM21 23.5001C21 22.9478 21.4477 22.5001 22 22.5001V26.5001C23.6569 26.5001 25 25.1569 25 23.5001H21ZM25 9.39466C25 8.45954 24.5639 7.5779 23.8207 7.01036L21.3931 10.1894C21.1454 10.0003 21 9.70637 21 9.39466H25ZM3 9.39466C3 9.70637 2.85465 10.0003 2.60691 10.1894L0.179259 7.01036C-0.563946 7.5779 -1 8.45954 -1 9.39466H3Z" fill="white" mask="url(#path-1-inside-1_2727_147154)"/>
<line x1="12" y1="14.5" x2="12" y2="18.5" stroke="white" stroke-width="2" stroke-linecap="round"/>
</g>
<defs>
<clipPath id="clip0_2727_147154">
<rect width="24" height="24" fill="white" transform="translate(0 0.5)"/>
</clipPath>
</defs>
</svg>
