<svg width="24" height="24" viewBox="0 0 24 24" fill="none" xmlns="http://www.w3.org/2000/svg">
<path d="M21.5 12L14 12" stroke="white" stroke-width="2" stroke-linecap="round"/>
<path d="M18.2173 8.60596L21.6167 12.0054L18.2173 15.4048" stroke="white" stroke-width="2" stroke-linecap="round" stroke-linejoin="round"/>
<path d="M15 8V6C15 5.44772 14.5523 5 14 5H4C3.44772 5 3 5.44772 3 6V18C3 18.5523 3.44772 19 4 19H14C14.5523 19 15 18.5523 15 18V16" stroke="white" stroke-width="2" stroke-linecap="round"/>
<path d="M2 5.34403C2 4.67417 2.64574 4.19372 3.28735 4.3862L11.2873 6.7862C11.7103 6.9131 12 7.30242 12 7.74403V21.656C12 22.3258 11.3543 22.8063 10.7127 22.6138L2.71265 20.2138C2.28967 20.0869 2 19.6976 2 19.256V5.34403Z" fill="white"/>
</svg>
