<svg width="24" height="24" viewBox="0 0 24 24" fill="none" xmlns="http://www.w3.org/2000/svg">
<path d="M4 8H20" stroke="white" stroke-width="2" stroke-linecap="round"/>
<path d="M4 17H20" stroke="white" stroke-width="2" stroke-linecap="round"/>
<circle cx="15" cy="8" r="2" fill="white" stroke="white" stroke-width="2"/>
<circle cx="10" cy="17" r="2" fill="#222222" stroke="white" stroke-width="2"/>
<rect x="7" y="3" width="17" height="9" rx="4.5" fill="white"/>
<path d="M12.6365 10.1243C12.1924 10.1243 11.8095 10.0191 11.4881 9.80859C11.1666 9.59647 10.9188 9.29238 10.7448 8.89631C10.5708 8.49858 10.4846 8.02048 10.4863 7.462C10.4879 6.90353 10.5749 6.42957 10.7473 6.04013C10.9213 5.64903 11.1682 5.35156 11.4881 5.14773C11.8095 4.94223 12.1924 4.83949 12.6365 4.83949C13.0806 4.83949 13.4634 4.94223 13.7849 5.14773C14.1081 5.35156 14.3567 5.64903 14.5307 6.04013C14.7047 6.43123 14.7908 6.90518 14.7892 7.462C14.7892 8.02214 14.7022 8.50107 14.5282 8.89879C14.3542 9.29652 14.1064 9.60062 13.7849 9.81108C13.4651 10.0199 13.0823 10.1243 12.6365 10.1243ZM12.6365 9.11754C12.9016 9.11754 13.1162 8.98248 13.2803 8.71236C13.4444 8.44058 13.5256 8.02379 13.5239 7.462C13.5239 7.09411 13.4866 6.79084 13.4121 6.5522C13.3375 6.31191 13.2339 6.13293 13.1013 6.01527C12.9688 5.89761 12.8138 5.83878 12.6365 5.83878C12.373 5.83878 12.16 5.97218 11.9976 6.23899C11.8352 6.50414 11.7532 6.91181 11.7515 7.462C11.7499 7.83487 11.7855 8.14394 11.8584 8.3892C11.933 8.63447 12.0374 8.81759 12.1716 8.93857C12.3059 9.05788 12.4608 9.11754 12.6365 9.11754ZM15.6187 10.0721C15.4397 10.0721 15.2864 10.0091 15.1588 9.88317C15.0329 9.75722 14.9707 9.60476 14.9724 9.42578C14.9707 9.25012 15.0329 9.10014 15.1588 8.97585C15.2864 8.84991 15.4397 8.78693 15.6187 8.78693C15.7877 8.78693 15.9369 8.84991 16.0661 8.97585C16.1971 9.10014 16.2633 9.25012 16.265 9.42578C16.2633 9.5451 16.2319 9.65365 16.1705 9.75142C16.1109 9.8492 16.0322 9.92708 15.9344 9.98509C15.8383 10.0431 15.733 10.0721 15.6187 10.0721ZM18.4779 10.0696C18.0818 10.0696 17.728 10.0066 17.4164 9.88068C17.1065 9.75308 16.8629 9.58073 16.6856 9.36364C16.5099 9.14489 16.4221 8.89796 16.4221 8.62287C16.4221 8.41241 16.4727 8.21934 16.5737 8.04368C16.6748 7.86802 16.8115 7.72218 16.9839 7.60618C17.1579 7.48852 17.3518 7.41312 17.5656 7.37997V7.3402C17.2855 7.28883 17.056 7.15874 16.877 6.94993C16.6997 6.74112 16.611 6.49669 16.611 6.21662C16.611 5.95147 16.6914 5.71532 16.8521 5.50817C17.0146 5.30102 17.2358 5.13778 17.5159 5.01847C17.7976 4.89915 18.1182 4.83949 18.4779 4.83949C18.8375 4.83949 19.1573 4.89915 19.4374 5.01847C19.7191 5.13778 19.9403 5.30102 20.1011 5.50817C20.2635 5.71532 20.3447 5.95147 20.3447 6.21662C20.3447 6.49834 20.2544 6.74361 20.0737 6.95241C19.8948 7.15956 19.6669 7.28883 19.3901 7.3402V7.37997C19.6023 7.41312 19.7945 7.48852 19.9669 7.60618C20.1409 7.72218 20.2784 7.86802 20.3795 8.04368C20.4822 8.21934 20.5336 8.41241 20.5336 8.62287C20.5336 8.89796 20.445 9.14489 20.2676 9.36364C20.0903 9.58073 19.8467 9.75308 19.5368 9.88068C19.2286 10.0066 18.8756 10.0696 18.4779 10.0696ZM18.4779 9.19709C18.6287 9.19709 18.7612 9.16892 18.8756 9.11257C18.9899 9.05457 19.0794 8.9742 19.1441 8.87145C19.2103 8.7687 19.2435 8.6527 19.2435 8.52344C19.2435 8.39086 19.2103 8.2732 19.1441 8.17045C19.0778 8.06771 18.9866 7.98733 18.8706 7.92933C18.7563 7.86967 18.6253 7.83984 18.4779 7.83984C18.332 7.83984 18.2011 7.86967 18.0851 7.92933C17.9691 7.98733 17.878 8.06771 17.8117 8.17045C17.7454 8.2732 17.7122 8.39086 17.7122 8.52344C17.7122 8.6527 17.7445 8.7687 17.8092 8.87145C17.8755 8.97254 17.9658 9.05208 18.0801 9.11009C18.1961 9.16809 18.3287 9.19709 18.4779 9.19709ZM18.4779 6.9723C18.6071 6.9723 18.7215 6.94579 18.8209 6.89276C18.922 6.83973 19.0007 6.76598 19.057 6.67152C19.1151 6.57706 19.1441 6.47017 19.1441 6.35085C19.1441 6.23153 19.1151 6.1263 19.057 6.03516C19.0007 5.94401 18.9228 5.87275 18.8234 5.82138C18.724 5.76835 18.6088 5.74183 18.4779 5.74183C18.3486 5.74183 18.2334 5.76835 18.1323 5.82138C18.0312 5.87275 17.9525 5.94401 17.8962 6.03516C17.8398 6.1263 17.8117 6.23153 17.8117 6.35085C17.8117 6.47017 17.8398 6.57706 17.8962 6.67152C17.9542 6.76432 18.0337 6.83807 18.1348 6.89276C18.2359 6.94579 18.3503 6.9723 18.4779 6.9723Z" fill="black"/>
</svg>
