<svg width="30" height="30" viewBox="0 0 30 30" fill="none" xmlns="http://www.w3.org/2000/svg">
<path d="M3.20591 14.8238C2.96352 17.5867 3.71486 20.3585 5.3319 22.6668C6.94894 24.9752 9.33163 26.6774 12.074 27.4833C14.8164 28.2892 17.7487 28.149 20.3714 27.0866C22.9941 26.0241 25.1449 24.1052 26.4573 21.6568C27.7697 19.2083 28.1625 16.3818 27.5688 13.6589C26.9751 10.936 25.4316 8.48512 23.2013 6.72387C20.9711 4.96263 18.192 4 15.3376 4" stroke="white" stroke-width="2" stroke-linecap="round"/>
<path d="M6.46875 1L3.00084 4.36948L6.46875 7.73896" stroke="white" stroke-width="2" stroke-linecap="round" stroke-linejoin="round"/>
<path d="M16 4H3" stroke="white" stroke-width="2"/>
<path d="M15.041 20.1193C14.4047 20.1193 13.8393 20.0043 13.345 19.7741C12.8507 19.544 12.46 19.2273 12.1731 18.8239C11.889 18.4205 11.7413 17.9574 11.7299 17.4347H13.7754C13.7924 17.7557 13.9231 18.0142 14.1674 18.2102C14.4118 18.4034 14.7029 18.5 15.041 18.5C15.3052 18.5 15.5396 18.4418 15.7441 18.3253C15.9487 18.2088 16.1092 18.0455 16.2257 17.8352C16.3422 17.6222 16.399 17.3778 16.3961 17.1023C16.399 16.821 16.3407 16.5753 16.2214 16.3651C16.1049 16.1548 15.943 15.9915 15.7356 15.875C15.5311 15.7557 15.2953 15.696 15.0282 15.696C14.7754 15.6932 14.5353 15.7486 14.3081 15.8622C14.0836 15.9759 13.9132 16.1307 13.7967 16.3267L11.9345 15.9773L12.3137 11.2727H17.9132V12.973H14.0481L13.8478 15.0312H13.899C14.0439 14.7898 14.2768 14.5909 14.5978 14.4347C14.9217 14.2756 15.2896 14.196 15.7015 14.196C16.2243 14.196 16.6902 14.3182 17.0993 14.5625C17.5112 14.804 17.835 15.1392 18.0708 15.5682C18.3095 15.9972 18.4288 16.4886 18.4288 17.0426C18.4288 17.642 18.2868 18.1733 18.0027 18.6364C17.7214 19.0994 17.3265 19.4631 16.818 19.7273C16.3123 19.9886 15.72 20.1193 15.041 20.1193Z" fill="white"/>
</svg>
