<svg width="24" height="24" viewBox="0 0 24 24" fill="none" xmlns="http://www.w3.org/2000/svg">
<path d="M4 8H20" stroke="white" stroke-width="2" stroke-linecap="round"/>
<path d="M4 17H20" stroke="white" stroke-width="2" stroke-linecap="round"/>
<circle cx="15" cy="8" r="2" fill="white" stroke="white" stroke-width="2"/>
<circle cx="10" cy="17" r="2" fill="#222222" stroke="white" stroke-width="2"/>
<rect x="7" y="3" width="16" height="9" rx="4.5" fill="white"/>
<path d="M13.0311 4.90909V10H11.8031V6.05753H11.7733L10.6348 6.75355V5.68963L11.8901 4.90909H13.0311ZM14.2403 10.0721C14.0613 10.0721 13.908 10.0091 13.7804 9.88317C13.6545 9.75722 13.5923 9.60476 13.594 9.42578C13.5923 9.25012 13.6545 9.10014 13.7804 8.97585C13.908 8.84991 14.0613 8.78693 14.2403 8.78693C14.4093 8.78693 14.5585 8.84991 14.6877 8.97585C14.8186 9.10014 14.8849 9.25012 14.8866 9.42578C14.8849 9.5451 14.8534 9.65365 14.7921 9.75142C14.7325 9.8492 14.6537 9.92708 14.556 9.98509C14.4599 10.0431 14.3546 10.0721 14.2403 10.0721ZM17.2163 10.1243C16.7721 10.1243 16.3893 10.0191 16.0678 9.80859C15.7463 9.59647 15.4986 9.29238 15.3246 8.89631C15.1506 8.49858 15.0644 8.02048 15.0661 7.462C15.0677 6.90353 15.1547 6.42957 15.3271 6.04013C15.5011 5.64903 15.748 5.35156 16.0678 5.14773C16.3893 4.94223 16.7721 4.83949 17.2163 4.83949C17.6604 4.83949 18.0432 4.94223 18.3647 5.14773C18.6879 5.35156 18.9364 5.64903 19.1104 6.04013C19.2845 6.43123 19.3706 6.90518 19.369 7.462C19.369 8.02214 19.282 8.50107 19.108 8.89879C18.934 9.29652 18.6862 9.60062 18.3647 9.81108C18.0449 10.0199 17.6621 10.1243 17.2163 10.1243ZM17.2163 9.11754C17.4814 9.11754 17.696 8.98248 17.8601 8.71236C18.0242 8.44058 18.1054 8.02379 18.1037 7.462C18.1037 7.09411 18.0664 6.79084 17.9918 6.5522C17.9173 6.31191 17.8137 6.13293 17.6811 6.01527C17.5485 5.89761 17.3936 5.83878 17.2163 5.83878C16.9528 5.83878 16.7398 5.97218 16.5774 6.23899C16.415 6.50414 16.333 6.91181 16.3313 7.462C16.3297 7.83487 16.3653 8.14394 16.4382 8.3892C16.5128 8.63447 16.6172 8.81759 16.7514 8.93857C16.8857 9.05788 17.0406 9.11754 17.2163 9.11754Z" fill="black"/>
</svg>
