<svg width="20" height="20" viewBox="0 0 20 20" fill="none" xmlns="http://www.w3.org/2000/svg">
<rect width="20" height="20" rx="10" fill="#666666"/>
<path d="M10.808 5.68L10.604 10.924C10.592 11.416 10.064 11.644 9.728 11.644C9.236 11.644 8.84 11.416 8.828 10.924L8.648 5.68C8.636 5.176 8.96 4.732 9.728 4.732C10.448 4.732 10.808 5.176 10.808 5.68ZM8.552 13.216C8.552 12.556 9.08 12.184 9.74 12.184C10.4 12.184 10.94 12.556 10.94 13.216C10.94 13.876 10.4 14.236 9.74 14.236C9.08 14.236 8.552 13.876 8.552 13.216Z" fill="white"/>
</svg>
