<svg width="24" height="24" viewBox="0 0 24 24" fill="none" xmlns="http://www.w3.org/2000/svg">
<path d="M4 8H20" stroke="white" stroke-width="2" stroke-linecap="round"/>
<path d="M4 17H20" stroke="white" stroke-width="2" stroke-linecap="round"/>
<circle cx="15" cy="8" r="2" fill="white" stroke="white" stroke-width="2"/>
<circle cx="10" cy="17" r="2" fill="#222222" stroke="white" stroke-width="2"/>
<rect x="7" y="3" width="16" height="9" rx="4.5" fill="white"/>
<path d="M13.1712 4.90909V10H11.9432V6.05753H11.9134L10.7749 6.75355V5.68963L12.0302 4.90909H13.1712ZM14.3804 10.0721C14.2014 10.0721 14.0481 10.0091 13.9205 9.88317C13.7946 9.75722 13.7325 9.60476 13.7341 9.42578C13.7325 9.25012 13.7946 9.10014 13.9205 8.97585C14.0481 8.84991 14.2014 8.78693 14.3804 8.78693C14.5494 8.78693 14.6986 8.84991 14.8279 8.97585C14.9588 9.10014 15.0251 9.25012 15.0267 9.42578C15.0251 9.5451 14.9936 9.65365 14.9323 9.75142C14.8726 9.8492 14.7939 9.92708 14.6961 9.98509C14.6 10.0431 14.4948 10.0721 14.3804 10.0721ZM15.4697 10V9.11506L17.3266 7.48935C17.4658 7.3634 17.5843 7.24822 17.682 7.14382C17.7798 7.03776 17.8544 6.9317 17.9058 6.82564C17.9571 6.71792 17.9828 6.60109 17.9828 6.47514C17.9828 6.33428 17.9522 6.21413 17.8909 6.1147C17.8295 6.01361 17.745 5.93572 17.6373 5.88104C17.5296 5.82635 17.4061 5.79901 17.2669 5.79901C17.1261 5.79901 17.0026 5.82801 16.8965 5.88601C16.7905 5.94235 16.7076 6.02438 16.648 6.1321C16.59 6.23982 16.561 6.37074 16.561 6.52486H15.3951C15.3951 6.1785 15.473 5.87938 15.6288 5.62749C15.7846 5.37559 16.0033 5.1817 16.285 5.04581C16.5684 4.90826 16.8974 4.83949 17.2719 4.83949C17.658 4.83949 17.9936 4.90412 18.2786 5.03338C18.5637 5.16264 18.7841 5.34328 18.9399 5.57528C19.0973 5.80563 19.176 6.07327 19.176 6.3782C19.176 6.57209 19.1371 6.76432 19.0592 6.9549C18.9813 7.14548 18.8413 7.35594 18.6391 7.58629C18.4386 7.81664 18.1535 8.09257 17.784 8.41406L17.1749 8.97585V9.00817H19.2382V10H15.4697Z" fill="black"/>
</svg>
