<svg width="24" height="24" viewBox="0 0 24 24" fill="none" xmlns="http://www.w3.org/2000/svg">
<path d="M4 8H20" stroke="white" stroke-width="2" stroke-linecap="round"/>
<path d="M4 17H20" stroke="white" stroke-width="2" stroke-linecap="round"/>
<circle cx="15" cy="8" r="2" fill="white" stroke="white" stroke-width="2"/>
<circle cx="10" cy="17" r="2" fill="#222222" stroke="white" stroke-width="2"/>
<rect x="7" y="3" width="16" height="9" rx="4.5" fill="white"/>
<path d="M13.1131 4.90909V10H11.8851V6.05753H11.8553L10.7168 6.75355V5.68963L11.9721 4.90909H13.1131ZM14.3223 10.0721C14.1433 10.0721 13.99 10.0091 13.8624 9.88317C13.7365 9.75722 13.6743 9.60476 13.676 9.42578C13.6743 9.25012 13.7365 9.10014 13.8624 8.97585C13.99 8.84991 14.1433 8.78693 14.3223 8.78693C14.4913 8.78693 14.6405 8.84991 14.7698 8.97585C14.9007 9.10014 14.967 9.25012 14.9686 9.42578C14.967 9.5451 14.9355 9.65365 14.8742 9.75142C14.8145 9.8492 14.7358 9.92708 14.638 9.98509C14.5419 10.0431 14.4367 10.0721 14.3223 10.0721ZM17.3399 10.0696C16.9687 10.0696 16.6389 10.0025 16.3506 9.86825C16.0622 9.73402 15.8344 9.54924 15.667 9.31392C15.5013 9.0786 15.4151 8.80848 15.4085 8.50355H16.6017C16.6116 8.69081 16.6878 8.84162 16.8304 8.95597C16.9729 9.06866 17.1427 9.125 17.3399 9.125C17.4941 9.125 17.6308 9.09103 17.7501 9.02308C17.8694 8.95514 17.963 8.85985 18.031 8.73722C18.0989 8.61293 18.1321 8.47041 18.1304 8.30966C18.1321 8.1456 18.0981 8.00225 18.0285 7.87962C17.9606 7.75698 17.8661 7.6617 17.7451 7.59375C17.6258 7.52415 17.4883 7.48935 17.3325 7.48935C17.185 7.48769 17.045 7.52 16.9124 7.58629C16.7815 7.65258 16.682 7.7429 16.6141 7.85724L15.5278 7.65341L15.749 4.90909H19.0154V5.90092H16.7608L16.6439 7.10156H16.6737C16.7583 6.9607 16.8942 6.8447 17.0814 6.75355C17.2703 6.66075 17.4849 6.61435 17.7252 6.61435C18.0302 6.61435 18.3019 6.68561 18.5406 6.82812C18.7809 6.96899 18.9698 7.16454 19.1073 7.41477C19.2465 7.66501 19.3161 7.9517 19.3161 8.27486C19.3161 8.62453 19.2333 8.93442 19.0676 9.20455C18.9035 9.47467 18.6732 9.68679 18.3765 9.84091C18.0815 9.99337 17.736 10.0696 17.3399 10.0696Z" fill="black"/>
</svg>
