<svg width="108" height="108" viewBox="0 0 108 108" fill="none" xmlns="http://www.w3.org/2000/svg">
<path d="M51.4523 4.09762C52.6261 2.20968 55.3739 2.20968 56.5477 4.09763L71.4479 28.0625C71.8609 28.7267 72.517 29.2034 73.2764 29.3909L100.673 36.1563C102.831 36.6893 103.68 39.3025 102.247 41.0023L84.0598 62.5788C83.5556 63.1768 83.305 63.9481 83.3614 64.7283L85.393 92.8744C85.5531 95.0917 83.3301 96.7068 81.2707 95.8694L55.1301 85.2395C54.4055 84.9449 53.5945 84.9449 52.8699 85.2395L26.7293 95.8694C24.6699 96.7068 22.4469 95.0917 22.607 92.8744L24.6387 64.7283C24.695 63.9481 24.4444 63.1768 23.9402 62.5788L5.75274 41.0023C4.31993 39.3025 5.16903 36.6893 7.3273 36.1563L34.7236 29.3909C35.483 29.2034 36.1391 28.7267 36.5521 28.0625L51.4523 4.09762Z" fill="url(#paint0_linear_4747_32934)"/>
<path d="M53 8L38.6633 31.8946C38.2398 32.6003 37.545 33.1011 36.7416 33.2797L11 39" stroke="white" stroke-opacity="0.5" stroke-width="3" stroke-linecap="round"/>
<defs>
<linearGradient id="paint0_linear_4747_32934" x1="54" y1="0" x2="54" y2="108" gradientUnits="userSpaceOnUse">
<stop stop-color="#FFE464"/>
<stop offset="1" stop-color="#F0CB22"/>
</linearGradient>
</defs>
</svg>
