<svg width="24" height="24" viewBox="0 0 24 24" fill="none" xmlns="http://www.w3.org/2000/svg">
<path d="M22 13.6183V10.8889L21.9969 10.3817L19.6798 9.76559C19.5147 9.19889 19.2893 8.65843 19.0099 8.1504L20.214 6.0735L17.9247 3.78351L15.8484 4.98795C15.3421 4.70846 14.8002 4.48301 14.2337 4.31779L13.6178 2H10.3807L9.76474 4.31779C9.19821 4.48301 8.65792 4.70846 8.15005 4.98795L6.07379 3.78351L3.7845 6.0735L4.98858 8.1504C4.70917 8.65689 4.48379 9.19889 4.31862 9.76559L2 10.3817V13.6198L4.3217 14.2329C4.48688 14.7996 4.71226 15.34 4.99166 15.8481L3.78759 17.925L6.07688 20.2149L8.15313 19.0105C8.65946 19.29 9.2013 19.5154 9.76783 19.6807L10.3838 22H13.6209L14.2368 19.6822C14.8033 19.517 15.3436 19.2915 15.8515 19.012L17.9278 20.2165L20.217 17.9265L19.013 15.8496C19.2924 15.3431 19.5178 14.8011 19.6829 14.2344L22 13.6183Z" fill="white" stroke="white" stroke-width="2" stroke-linejoin="round"/>
<circle cx="12" cy="12" r="4" fill="black"/>
</svg>
