<svg width="30" height="30" viewBox="0 0 30 30" fill="none" xmlns="http://www.w3.org/2000/svg">
<path d="M15.041 20.1193C14.4047 20.1193 13.8393 20.0043 13.345 19.7741C12.8507 19.544 12.46 19.2273 12.1731 18.8239C11.889 18.4205 11.7413 17.9574 11.7299 17.4347H13.7754C13.7924 17.7557 13.9231 18.0142 14.1674 18.2102C14.4118 18.4034 14.7029 18.5 15.041 18.5C15.3052 18.5 15.5396 18.4418 15.7441 18.3253C15.9487 18.2088 16.1092 18.0455 16.2257 17.8352C16.3422 17.6222 16.399 17.3778 16.3961 17.1023C16.399 16.821 16.3407 16.5753 16.2214 16.3651C16.1049 16.1548 15.943 15.9915 15.7356 15.875C15.5311 15.7557 15.2953 15.696 15.0282 15.696C14.7754 15.6932 14.5353 15.7486 14.3081 15.8622C14.0836 15.9759 13.9132 16.1307 13.7967 16.3267L11.9345 15.9773L12.3137 11.2727H17.9132V12.973H14.0481L13.8478 15.0312H13.899C14.0439 14.7898 14.2768 14.5909 14.5978 14.4347C14.9217 14.2756 15.2896 14.196 15.7015 14.196C16.2243 14.196 16.6902 14.3182 17.0993 14.5625C17.5112 14.804 17.835 15.1392 18.0708 15.5682C18.3095 15.9972 18.4288 16.4886 18.4288 17.0426C18.4288 17.642 18.2868 18.1733 18.0027 18.6364C17.7214 19.0994 17.3265 19.4631 16.818 19.7273C16.3123 19.9886 15.72 20.1193 15.041 20.1193Z" fill="white"/>
<path d="M27.7941 14.8238C28.0365 17.5867 27.2851 20.3585 25.6681 22.6668C24.0511 24.9752 21.6684 26.6774 18.926 27.4833C16.1836 28.2892 13.2513 28.149 10.6286 27.0866C8.00586 26.0241 5.85507 24.1052 4.54267 21.6568C3.23027 19.2083 2.83746 16.3818 3.43116 13.6589C4.02487 10.936 5.56837 8.48512 7.79866 6.72387C10.0289 4.96263 12.808 4 15.6624 4" stroke="white" stroke-width="2" stroke-linecap="round"/>
<path d="M24.5312 1L27.9992 4.36948L24.5312 7.73896" stroke="white" stroke-width="2" stroke-linecap="round" stroke-linejoin="round"/>
<path d="M15 4H28" stroke="white" stroke-width="2"/>
</svg>
