<svg width="25" height="24" viewBox="0 0 25 24" fill="none" xmlns="http://www.w3.org/2000/svg">
<g clip-path="url(#clip0_4334_41484)">
<path d="M3.79834 17.734C3.30834 17.552 3.04234 17.202 3.04234 16.754C3.04234 16.614 3.07034 16.474 3.12634 16.32L6.54234 6.856C6.78034 6.198 7.18634 5.862 7.76034 5.862C8.33434 5.862 8.74034 6.198 8.97834 6.856L12.3943 16.32C12.4503 16.474 12.4783 16.614 12.4783 16.768C12.4783 17.202 12.2263 17.538 11.7363 17.72C11.5823 17.776 11.4283 17.804 11.2743 17.804C10.8123 17.804 10.4203 17.524 10.2663 17.062L9.49634 14.85H6.02434L5.25434 17.062C5.08634 17.524 4.70834 17.804 4.24634 17.804C4.07834 17.804 3.92434 17.776 3.79834 17.734ZM6.73834 12.82H8.78234L7.98434 10.538L7.74634 9.782L7.53634 10.538L6.73834 12.82ZM16.6244 17.86C15.8544 17.86 15.1684 17.678 14.5664 17.3C13.3484 16.572 12.6204 15.2 12.6204 13.576C12.6204 12.764 12.7884 12.036 13.1384 11.378C13.8244 10.076 15.0984 9.292 16.6244 9.292C17.4504 9.292 18.1504 9.516 18.7524 9.978C18.9064 9.628 19.2984 9.362 19.8164 9.362H19.8864C20.5444 9.362 21.0064 9.768 21.0064 10.384V16.796C21.0064 17.412 20.5444 17.804 19.8864 17.804H19.8164C19.2984 17.804 18.8784 17.552 18.7524 17.174C18.1504 17.636 17.4504 17.86 16.6244 17.86ZM14.9164 13.59C14.9164 14.934 15.6864 15.83 16.8064 15.83C17.9264 15.83 18.7104 14.934 18.7104 13.59C18.7104 12.246 17.9264 11.322 16.8064 11.322C15.6864 11.322 14.9164 12.232 14.9164 13.59Z" fill="white"/>
</g>
<defs>
<clipPath id="clip0_4334_41484">
<rect width="24" height="24" fill="white" transform="translate(0.333252)"/>
</clipPath>
</defs>
</svg>
