<svg width="61" height="60" viewBox="0 0 61 60" fill="none" xmlns="http://www.w3.org/2000/svg">
<path fill-rule="evenodd" clip-rule="evenodd" d="M20.7299 13.9289L18.6143 13.9289C18.3535 13.9289 18.1421 14.1315 18.1421 14.3816V29.0473C18.1421 29.2974 18.3535 29.5 18.6143 29.5L41.6699 29.5C41.9307 29.5 42.1421 29.2974 42.1421 29.0473L42.1421 14.3814C42.1421 14.1314 41.9307 13.9287 41.6699 13.9287L39.5825 13.9287V13.0487C39.5825 12.8305 39.42 12.6432 39.196 12.6036C38.8077 12.5348 38.3865 12.5 37.9445 12.5C36.4177 12.5 34.6021 12.9018 32.5482 13.6948C31.4273 14.1274 30.5541 14.556 30.1561 14.7603C29.7583 14.556 28.8849 14.1274 27.7641 13.6948C25.7103 12.902 23.8947 12.5002 22.3679 12.5002C21.9259 12.5002 21.5047 12.5349 21.1164 12.6038C20.8924 12.6432 20.7299 12.8305 20.7299 13.0489L20.7299 13.9289ZM39.5827 15.7291H40.2249L40.2249 27.6999H32.6351C34.7413 27.0382 36.4664 26.8752 37.6538 26.8752C38.5194 26.8752 39.0141 26.9659 39.019 26.9668C39.1577 26.9935 39.301 26.9589 39.4104 26.8729C39.5198 26.7868 39.5827 26.6583 39.5827 26.5226L39.5827 15.7291ZM27.6777 27.6999L20.0877 27.6999L20.0877 15.7291H20.7299L20.7299 26.5228C20.7299 26.6585 20.7934 26.7868 20.9028 26.8729C21.0121 26.9589 21.1561 26.9933 21.2947 26.9667C21.3004 26.9656 21.7949 26.8752 22.659 26.8752C23.8464 26.8752 25.5715 27.0382 27.6777 27.6999ZM28.6155 17.5443L32.9835 20.2098V20.2131C33.195 20.3399 33.195 20.6635 32.9835 20.7902L28.6155 23.4557C28.404 23.5824 28.1421 23.4223 28.1421 23.1654V17.8346C28.1421 17.5777 28.404 17.4176 28.6155 17.5443Z" fill="white"/>
<path d="M11.1194 37.7727H13.3949L15.7983 43.6364H15.9006L18.304 37.7727H20.5796V46.5H18.7898V40.8196H18.7174L16.4589 46.4574H15.2401L12.9816 40.7983H12.9091V46.5H11.1194V37.7727ZM30.1197 42.1364C30.1197 43.0881 29.9393 43.8977 29.5785 44.5653C29.2206 45.233 28.7319 45.7429 28.1126 46.0952C27.4961 46.4446 26.803 46.6193 26.0331 46.6193C25.2575 46.6193 24.5615 46.4432 23.945 46.0909C23.3285 45.7386 22.8413 45.2287 22.4834 44.5611C22.1254 43.8935 21.9464 43.0852 21.9464 42.1364C21.9464 41.1847 22.1254 40.375 22.4834 39.7074C22.8413 39.0398 23.3285 38.5312 23.945 38.1818C24.5615 37.8295 25.2575 37.6534 26.0331 37.6534C26.803 37.6534 27.4961 37.8295 28.1126 38.1818C28.7319 38.5312 29.2206 39.0398 29.5785 39.7074C29.9393 40.375 30.1197 41.1847 30.1197 42.1364ZM28.249 42.1364C28.249 41.5199 28.1566 41 27.972 40.5767C27.7902 40.1534 27.5331 39.8324 27.2007 39.6136C26.8683 39.3949 26.4791 39.2855 26.0331 39.2855C25.587 39.2855 25.1978 39.3949 24.8655 39.6136C24.5331 39.8324 24.2745 40.1534 24.0899 40.5767C23.9081 41 23.8172 41.5199 23.8172 42.1364C23.8172 42.7528 23.9081 43.2727 24.0899 43.696C24.2745 44.1193 24.5331 44.4403 24.8655 44.6591C25.1978 44.8778 25.587 44.9872 26.0331 44.9872C26.4791 44.9872 26.8683 44.8778 27.2007 44.6591C27.5331 44.4403 27.7902 44.1193 27.972 43.696C28.1566 43.2727 28.249 42.7528 28.249 42.1364ZM32.5711 37.7727L34.6804 44.4034H34.7614L36.875 37.7727H38.9205L35.912 46.5H33.5341L30.5214 37.7727H32.5711ZM41.8161 37.7727V46.5H39.9709V37.7727H41.8161ZM43.3342 46.5V37.7727H49.2149V39.294H45.1794V41.3736H48.9123V42.8949H45.1794V44.9787H49.2319V46.5H43.3342Z" fill="white"/>
</svg>
