<svg width="61" height="60" viewBox="0 0 61 60" fill="none" xmlns="http://www.w3.org/2000/svg">
<path d="M25.1421 11.5V15.5" stroke="#B6B6B6" stroke-width="2" stroke-linecap="round"/>
<path d="M35.1421 11.5V15.5" stroke="#B6B6B6" stroke-width="2" stroke-linecap="round"/>
<path d="M27.6521 20.93C27.7921 20.5433 27.9088 20.2 28.0021 19.9H28.0621C28.1421 20.18 28.2388 20.5133 28.3521 20.9C28.4721 21.28 28.5888 21.68 28.7021 22.1H27.2721C27.3921 21.7 27.5188 21.31 27.6521 20.93Z" fill="white"/>
<path d="M34.1812 23.64C34.0412 23.6667 33.8978 23.68 33.7512 23.68C33.4778 23.68 33.2812 23.6333 33.1612 23.54C33.0412 23.4467 32.9812 23.32 32.9812 23.16C32.9812 23.0067 33.0445 22.8933 33.1712 22.82C33.3045 22.74 33.4778 22.69 33.6912 22.67L34.5112 22.6V23.52C34.4378 23.5667 34.3278 23.6067 34.1812 23.64Z" fill="white"/>
<path fill-rule="evenodd" clip-rule="evenodd" d="M23.1421 12.5C22.0375 12.5 21.1421 13.3954 21.1421 14.5V28.5C21.1421 29.6046 22.0375 30.5 23.1421 30.5H37.1421C38.2467 30.5 39.1421 29.6046 39.1421 28.5V14.5C39.1421 13.3954 38.2467 12.5 37.1421 12.5H23.1421ZM27.0121 23.32H28.9721L29.2121 24.13C29.2654 24.3433 29.3488 24.5 29.4621 24.6C29.5821 24.7 29.7854 24.75 30.0721 24.75C30.2721 24.75 30.4421 24.7233 30.5821 24.67C30.7288 24.6167 30.8388 24.5467 30.9121 24.46C30.8054 24.08 30.6821 23.65 30.5421 23.17C30.4021 22.69 30.2554 22.2033 30.1021 21.71C29.9554 21.2167 29.8088 20.7367 29.6621 20.27C29.5154 19.8033 29.3788 19.3933 29.2521 19.04C29.1854 18.8467 29.0354 18.71 28.8021 18.63C28.5754 18.5433 28.3121 18.5 28.0121 18.5C27.8054 18.5 27.5954 18.5267 27.3821 18.58C27.1754 18.6333 27.0221 18.69 26.9221 18.75C26.8621 18.8967 26.7888 19.0933 26.7021 19.34C26.6154 19.5867 26.5188 19.86 26.4121 20.16C26.3054 20.4533 26.1954 20.7633 26.0821 21.09C25.9688 21.4167 25.8588 21.7367 25.7521 22.05C25.6521 22.3567 25.5588 22.6433 25.4721 22.91C25.3854 23.1767 25.3188 23.4 25.2721 23.58C25.2388 23.6933 25.2088 23.7933 25.1821 23.88C25.1554 23.9667 25.1421 24.0567 25.1421 24.15C25.1421 24.3433 25.2154 24.4933 25.3621 24.6C25.5154 24.7 25.7388 24.75 26.0321 24.75C26.1654 24.75 26.2788 24.74 26.3721 24.72C26.4654 24.7 26.5554 24.6767 26.6421 24.65C26.6888 24.47 26.7421 24.2633 26.8021 24.03C26.8688 23.7967 26.9388 23.56 27.0121 23.32ZM34.6312 19.8C34.3512 19.7267 34.0378 19.69 33.6912 19.69C33.4445 19.69 33.1912 19.71 32.9312 19.75C32.6778 19.7833 32.4545 19.8367 32.2612 19.91C31.9545 20.0367 31.8012 20.2467 31.8012 20.54C31.8012 20.6667 31.8278 20.7867 31.8812 20.9C31.9412 21.0067 32.0112 21.0867 32.0912 21.14C32.2845 21.06 32.5012 20.99 32.7412 20.93C32.9878 20.87 33.2378 20.84 33.4912 20.84C33.8178 20.84 34.0678 20.89 34.2412 20.99C34.4145 21.09 34.5012 21.2467 34.5012 21.46V21.57L33.1712 21.71C32.6045 21.77 32.1845 21.92 31.9112 22.16C31.6378 22.4 31.5012 22.75 31.5012 23.21C31.5012 23.75 31.7045 24.1533 32.1112 24.42C32.5178 24.68 33.0645 24.81 33.7512 24.81C34.1312 24.81 34.4712 24.7767 34.7712 24.71C35.0712 24.6433 35.3245 24.5467 35.5312 24.42C35.6578 24.3467 35.7645 24.26 35.8512 24.16C35.9445 24.0533 35.9912 23.9133 35.9912 23.74V21.48C35.9912 21.1733 35.9345 20.9067 35.8212 20.68C35.7145 20.4533 35.5612 20.2667 35.3612 20.12C35.1612 19.9733 34.9178 19.8667 34.6312 19.8Z" fill="white"/>
<path d="M13.8983 46.5L11.4011 37.7727H13.4168L14.8614 43.8366H14.9338L16.5276 37.7727H18.2534L19.8429 43.8494H19.9196L21.3642 37.7727H23.3798L20.8827 46.5H19.0844L17.4225 40.794H17.3543L15.6966 46.5H13.8983ZM31.8951 42.1364C31.8951 43.0881 31.7147 43.8977 31.3539 44.5653C30.996 45.233 30.5073 45.7429 29.888 46.0952C29.2715 46.4446 28.5783 46.6193 27.8085 46.6193C27.0329 46.6193 26.3369 46.4432 25.7204 46.0909C25.1039 45.7386 24.6167 45.2287 24.2587 44.5611C23.9008 43.8935 23.7218 43.0852 23.7218 42.1364C23.7218 41.1847 23.9008 40.375 24.2587 39.7074C24.6167 39.0398 25.1039 38.5312 25.7204 38.1818C26.3369 37.8295 27.0329 37.6534 27.8085 37.6534C28.5783 37.6534 29.2715 37.8295 29.888 38.1818C30.5073 38.5312 30.996 39.0398 31.3539 39.7074C31.7147 40.375 31.8951 41.1847 31.8951 42.1364ZM30.0244 42.1364C30.0244 41.5199 29.932 41 29.7474 40.5767C29.5656 40.1534 29.3085 39.8324 28.9761 39.6136C28.6437 39.3949 28.2545 39.2855 27.8085 39.2855C27.3624 39.2855 26.9732 39.3949 26.6408 39.6136C26.3085 39.8324 26.0499 40.1534 25.8653 40.5767C25.6835 41 25.5926 41.5199 25.5926 42.1364C25.5926 42.7528 25.6835 43.2727 25.8653 43.696C26.0499 44.1193 26.3085 44.4403 26.6408 44.6591C26.9732 44.8778 27.3624 44.9872 27.8085 44.9872C28.2545 44.9872 28.6437 44.8778 28.9761 44.6591C29.3085 44.4403 29.5656 44.1193 29.7474 43.696C29.932 43.2727 30.0244 42.7528 30.0244 42.1364ZM33.2619 46.5V37.7727H36.7051C37.3642 37.7727 37.9267 37.8906 38.3926 38.1264C38.8614 38.3594 39.2179 38.6903 39.4622 39.1193C39.7094 39.5455 39.833 40.0469 39.833 40.6236C39.833 41.2031 39.708 41.7017 39.458 42.1193C39.208 42.5341 38.8457 42.8523 38.3713 43.0739C37.8997 43.2955 37.3287 43.4062 36.6582 43.4062H34.3528V41.9233H36.36C36.7122 41.9233 37.0048 41.875 37.2378 41.7784C37.4707 41.6818 37.644 41.5369 37.7577 41.3438C37.8742 41.1506 37.9324 40.9105 37.9324 40.6236C37.9324 40.3338 37.8742 40.0895 37.7577 39.8906C37.644 39.6918 37.4693 39.5412 37.2335 39.4389C37.0006 39.3338 36.7065 39.2812 36.3514 39.2812H35.1071V46.5H33.2619ZM37.975 42.5284L40.144 46.5H38.1071L35.985 42.5284H37.975ZM44.2307 46.5H41.1369V37.7727H44.2563C45.1341 37.7727 45.8898 37.9474 46.5233 38.2969C47.1568 38.6435 47.644 39.142 47.985 39.7926C48.3287 40.4432 48.5006 41.2216 48.5006 42.1278C48.5006 43.0369 48.3287 43.8182 47.985 44.4716C47.644 45.125 47.154 45.6264 46.5148 45.9759C45.8784 46.3253 45.1171 46.5 44.2307 46.5ZM42.9821 44.919H44.154C44.6994 44.919 45.1582 44.8224 45.5304 44.6293C45.9054 44.4332 46.1867 44.1307 46.3742 43.7216C46.5645 43.3097 46.6597 42.7784 46.6597 42.1278C46.6597 41.483 46.5645 40.956 46.3742 40.5469C46.1867 40.1378 45.9068 39.8366 45.5347 39.6435C45.1625 39.4503 44.7037 39.3537 44.1582 39.3537H42.9821V44.919Z" fill="white"/>
</svg>
