<svg width="60" height="60" viewBox="0 0 60 60" fill="none" xmlns="http://www.w3.org/2000/svg">
<path d="M0 10C0 4.47715 4.47715 0 10 0H50C55.5228 0 60 4.47715 60 10V50C60 55.5228 55.5228 60 50 60H10C4.47715 60 0 55.5228 0 50V10Z" fill="black" fill-opacity="0.2"/>
<path d="M20.3935 14.7608L22.1565 14.7608L22.1565 13.9843C22.1565 13.7916 22.2919 13.6264 22.4786 13.5916C22.8022 13.5308 23.1532 13.5002 23.5215 13.5002C24.7939 13.5002 26.3068 13.8547 28.0183 14.5542C28.9523 14.9359 29.6802 15.3141 30.0117 15.4944C30.3433 15.3141 31.071 14.9359 32.0051 14.5542C33.7167 13.8545 35.2297 13.5 36.502 13.5C36.8703 13.5 37.2213 13.5307 37.5449 13.5914C37.7316 13.6264 37.867 13.7916 37.867 13.9841L37.867 14.7606L39.6065 14.7606C39.8239 14.7606 40 14.9394 40 15.1601L40 28.1006C40 28.3212 39.8239 28.5 39.6065 28.5L30.0133 28.5L30.0118 28.5L30.0104 28.5L20.3935 28.5C20.1761 28.5 20 28.3212 20 28.1006L20 15.1602C20 14.9396 20.1761 14.7608 20.3935 14.7608ZM38.4023 16.3492L37.8672 16.3492L37.8672 25.8729C37.8672 25.9926 37.8147 26.106 37.7236 26.1819C37.6325 26.2578 37.513 26.2883 37.3975 26.2649C37.3934 26.2641 36.9811 26.184 36.2597 26.184C35.2703 26.184 33.8327 26.3278 32.0775 26.9116L38.4023 26.9116L38.4023 16.3492ZM21.6213 26.9116L27.9464 26.9116C26.1911 26.3278 24.7536 26.184 23.7641 26.184C23.0427 26.184 22.6305 26.2641 22.6272 26.2647C22.5116 26.2882 22.3917 26.2578 22.3006 26.1819C22.2094 26.106 22.1565 25.9927 22.1565 25.8731L22.1565 16.3492L21.6213 16.3492L21.6213 26.9116Z" fill="white"/>
<path d="M14.9558 40.2827C14.9217 39.9389 14.7754 39.6719 14.5169 39.4815C14.2583 39.2912 13.9075 39.196 13.4643 39.196C13.1632 39.196 12.9089 39.2386 12.7015 39.3239C12.4941 39.4062 12.335 39.5213 12.2243 39.669C12.1163 39.8168 12.0623 39.9844 12.0623 40.1719C12.0566 40.3281 12.0893 40.4645 12.1603 40.581C12.2342 40.6974 12.335 40.7983 12.4629 40.8835C12.5907 40.9659 12.7385 41.0384 12.9061 41.1009C13.0737 41.1605 13.2527 41.2116 13.443 41.2543L14.2271 41.4418C14.6078 41.527 14.9572 41.6406 15.2754 41.7827C15.5936 41.9247 15.8691 42.0994 16.1021 42.3068C16.335 42.5142 16.5154 42.7585 16.6433 43.0398C16.774 43.321 16.8407 43.6435 16.8436 44.0071C16.8407 44.5412 16.7044 45.0043 16.4345 45.3963C16.1674 45.7855 15.7811 46.0881 15.2754 46.304C14.7725 46.517 14.166 46.6236 13.4558 46.6236C12.7512 46.6236 12.1376 46.5156 11.6149 46.2997C11.095 46.0838 10.6887 45.7642 10.3961 45.3409C10.1064 44.9148 9.95437 44.3878 9.94016 43.7599H11.7257C11.7456 44.0526 11.8294 44.2969 11.9771 44.4929C12.1277 44.6861 12.3279 44.8324 12.5779 44.9318C12.8308 45.0284 13.1163 45.0767 13.4345 45.0767C13.747 45.0767 14.0183 45.0312 14.2484 44.9403C14.4814 44.8494 14.6618 44.723 14.7896 44.5611C14.9174 44.3991 14.9814 44.2131 14.9814 44.0028C14.9814 43.8068 14.9231 43.642 14.8066 43.5085C14.693 43.375 14.5254 43.2614 14.3038 43.1676C14.085 43.0739 13.8166 42.9886 13.4984 42.9119L12.5481 42.6733C11.8123 42.4943 11.2314 42.2145 10.8052 41.8338C10.3791 41.4531 10.1674 40.9403 10.1703 40.2955C10.1674 39.767 10.3081 39.3054 10.5922 38.9105C10.8791 38.5156 11.2725 38.2074 11.7725 37.9858C12.2725 37.7642 12.8407 37.6534 13.4771 37.6534C14.1248 37.6534 14.6902 37.7642 15.1731 37.9858C15.6589 38.2074 16.0368 38.5156 16.3066 38.9105C16.5765 39.3054 16.7157 39.7628 16.7243 40.2827H14.9558ZM17.7523 39.294V37.7727H24.9199V39.294H22.248V46.5H20.4242V39.294H17.7523ZM33.7218 42.1364C33.7218 43.0881 33.5414 43.8977 33.1806 44.5653C32.8226 45.233 32.334 45.7429 31.7147 46.0952C31.0982 46.4446 30.405 46.6193 29.6351 46.6193C28.8596 46.6193 28.1635 46.4432 27.5471 46.0909C26.9306 45.7386 26.4434 45.2287 26.0854 44.5611C25.7275 43.8935 25.5485 43.0852 25.5485 42.1364C25.5485 41.1847 25.7275 40.375 26.0854 39.7074C26.4434 39.0398 26.9306 38.5312 27.5471 38.1818C28.1635 37.8295 28.8596 37.6534 29.6351 37.6534C30.405 37.6534 31.0982 37.8295 31.7147 38.1818C32.334 38.5312 32.8226 39.0398 33.1806 39.7074C33.5414 40.375 33.7218 41.1847 33.7218 42.1364ZM31.851 42.1364C31.851 41.5199 31.7587 41 31.574 40.5767C31.3922 40.1534 31.1351 39.8324 30.8027 39.6136C30.4703 39.3949 30.0811 39.2855 29.6351 39.2855C29.1891 39.2855 28.7999 39.3949 28.4675 39.6136C28.1351 39.8324 27.8766 40.1534 27.6919 40.5767C27.5101 41 27.4192 41.5199 27.4192 42.1364C27.4192 42.7528 27.5101 43.2727 27.6919 43.696C27.8766 44.1193 28.1351 44.4403 28.4675 44.6591C28.7999 44.8778 29.1891 44.9872 29.6351 44.9872C30.0811 44.9872 30.4703 44.8778 30.8027 44.6591C31.1351 44.4403 31.3922 44.1193 31.574 43.696C31.7587 43.2727 31.851 42.7528 31.851 42.1364ZM35.0886 46.5V37.7727H38.5318C39.1909 37.7727 39.7534 37.8906 40.2193 38.1264C40.688 38.3594 41.0446 38.6903 41.2889 39.1193C41.536 39.5455 41.6596 40.0469 41.6596 40.6236C41.6596 41.2031 41.5346 41.7017 41.2846 42.1193C41.0346 42.5341 40.6724 42.8523 40.198 43.0739C39.7264 43.2955 39.1554 43.4062 38.4849 43.4062H36.1795V41.9233H38.1866C38.5389 41.9233 38.8315 41.875 39.0645 41.7784C39.2974 41.6818 39.4707 41.5369 39.5843 41.3438C39.7008 41.1506 39.7591 40.9105 39.7591 40.6236C39.7591 40.3338 39.7008 40.0895 39.5843 39.8906C39.4707 39.6918 39.296 39.5412 39.0602 39.4389C38.8272 39.3338 38.5332 39.2812 38.1781 39.2812H36.9338V46.5H35.0886ZM39.8017 42.5284L41.9707 46.5H39.9338L37.8116 42.5284H39.8017ZM42.089 37.7727H44.1557L46.1458 41.5312H46.231L48.2211 37.7727H50.2878L47.1046 43.4148V46.5H45.2722V43.4148L42.089 37.7727Z" fill="white"/>
</svg>
