<svg width="61" height="60" viewBox="0 0 61 60" fill="none" xmlns="http://www.w3.org/2000/svg">
<rect x="0.14209" width="60" height="60" rx="10" fill="black" fill-opacity="0.2"/>
<path d="M38.6421 20.5C38.6421 25.1944 34.8365 29 30.1421 29C25.4477 29 21.6421 25.1944 21.6421 20.5C21.6421 15.8056 25.4477 12 30.1421 12C34.8365 12 38.6421 15.8056 38.6421 20.5Z" stroke="#D95355" stroke-width="3"/>
<circle cx="30.1421" cy="20.5" r="3.5" fill="#D95355" stroke="#D95355"/>
<path d="M18.7776 46.5V37.7727H22.2207C22.8798 37.7727 23.4423 37.8906 23.9082 38.1264C24.377 38.3594 24.7335 38.6903 24.9778 39.1193C25.225 39.5455 25.3486 40.0469 25.3486 40.6236C25.3486 41.2031 25.2236 41.7017 24.9736 42.1193C24.7236 42.5341 24.3614 42.8523 23.8869 43.0739C23.4153 43.2955 22.8443 43.4062 22.1739 43.4062H19.8685V41.9233H21.8756C22.2278 41.9233 22.5205 41.875 22.7534 41.7784C22.9864 41.6818 23.1597 41.5369 23.2733 41.3438C23.3898 41.1506 23.448 40.9105 23.448 40.6236C23.448 40.3338 23.3898 40.0895 23.2733 39.8906C23.1597 39.6918 22.985 39.5412 22.7492 39.4389C22.5162 39.3338 22.2222 39.2812 21.8671 39.2812H20.6227V46.5H18.7776ZM23.4906 42.5284L25.6597 46.5H23.6227L21.5006 42.5284H23.4906ZM26.6526 46.5V37.7727H32.5332V39.294H28.4977V41.3736H32.2307V42.8949H28.4977V44.9787H32.5503V46.5H26.6526ZM41.7005 40.8281H39.834C39.7999 40.5866 39.7303 40.3722 39.6252 40.1847C39.5201 39.9943 39.3852 39.8324 39.2204 39.6989C39.0556 39.5653 38.8653 39.4631 38.6494 39.392C38.4363 39.321 38.2048 39.2855 37.9548 39.2855C37.5031 39.2855 37.1096 39.3977 36.7744 39.6222C36.4391 39.8437 36.1792 40.1676 35.9945 40.5938C35.8099 41.017 35.7176 41.5312 35.7176 42.1364C35.7176 42.7585 35.8099 43.2812 35.9945 43.7045C36.182 44.1278 36.4434 44.4474 36.7786 44.6634C37.1139 44.8793 37.5016 44.9872 37.942 44.9872C38.1891 44.9872 38.4178 44.9545 38.6281 44.8892C38.8411 44.8239 39.0301 44.7287 39.1948 44.6037C39.3596 44.4759 39.496 44.321 39.6039 44.1392C39.7147 43.9574 39.7914 43.75 39.834 43.517L41.7005 43.5256C41.6522 43.9261 41.5315 44.3125 41.3383 44.6847C41.1479 45.054 40.8908 45.3849 40.567 45.6776C40.246 45.9673 39.8624 46.1974 39.4164 46.3679C38.9732 46.5355 38.4718 46.6193 37.9122 46.6193C37.1337 46.6193 36.4377 46.4432 35.8241 46.0909C35.2133 45.7386 34.7303 45.2287 34.3752 44.5611C34.0229 43.8935 33.8468 43.0852 33.8468 42.1364C33.8468 41.1847 34.0258 40.375 34.3837 39.7074C34.7417 39.0398 35.2275 38.5312 35.8411 38.1818C36.4548 37.8295 37.1451 37.6534 37.9122 37.6534C38.4178 37.6534 38.8866 37.7244 39.3184 37.8665C39.7531 38.0085 40.138 38.2159 40.4732 38.4886C40.8085 38.7585 41.0812 39.0895 41.2914 39.4815C41.5045 39.8736 41.6408 40.3224 41.7005 40.8281Z" fill="#D95355"/>
</svg>
