<svg width="61" height="60" viewBox="0 0 61 60" fill="none" xmlns="http://www.w3.org/2000/svg">
<path fill-rule="evenodd" clip-rule="evenodd" d="M31.8745 10.5H33.6421C33.9182 10.5 34.1421 10.7239 34.1421 11V13C34.1421 13.2761 33.9182 13.5 33.6421 13.5H26.6421C26.3659 13.5 26.1421 13.2761 26.1421 13V11C26.1421 10.7239 26.3659 10.5 26.6421 10.5H28.4097C28.7555 9.9022 29.4018 9.5 30.1421 9.5C30.8824 9.5 31.5287 9.9022 31.8745 10.5Z" fill="white"/>
<path fill-rule="evenodd" clip-rule="evenodd" d="M25.1421 13V11.5H23.1421C22.5898 11.5 22.1421 11.9477 22.1421 12.5V30.5C22.1421 31.0523 22.5898 31.5 23.1421 31.5H37.1421C37.6944 31.5 38.1421 31.0523 38.1421 30.5V12.5C38.1421 11.9477 37.6944 11.5 37.1421 11.5H35.1421V13C35.1421 13.8284 34.4705 14.5 33.6421 14.5H26.6421C25.8137 14.5 25.1421 13.8284 25.1421 13ZM33.2277 20.9685C33.4865 20.6451 33.4341 20.1731 33.1106 19.9143C32.7872 19.6556 32.3152 19.708 32.0564 20.0315L29.8107 22.8387L28.6724 21.7004C28.3795 21.4075 27.9047 21.4075 27.6118 21.7004C27.3189 21.9933 27.3189 22.4682 27.6118 22.7611L29.3425 24.4919C29.4934 24.6427 29.7013 24.7222 29.9143 24.7104C30.1273 24.6986 30.3252 24.5966 30.4585 24.4301L33.2277 20.9685Z" fill="white"/>
<path d="M14.8694 40.2827C14.8353 39.9389 14.689 39.6719 14.4304 39.4815C14.1719 39.2912 13.8211 39.196 13.3779 39.196C13.0767 39.196 12.8225 39.2386 12.6151 39.3239C12.4077 39.4062 12.2486 39.5213 12.1378 39.669C12.0299 39.8168 11.9759 39.9844 11.9759 40.1719C11.9702 40.3281 12.0029 40.4645 12.0739 40.581C12.1478 40.6974 12.2486 40.7983 12.3765 40.8835C12.5043 40.9659 12.652 41.0384 12.8196 41.1009C12.9873 41.1605 13.1662 41.2116 13.3566 41.2543L14.1407 41.4418C14.5214 41.527 14.8708 41.6406 15.189 41.7827C15.5071 41.9247 15.7827 42.0994 16.0157 42.3068C16.2486 42.5142 16.429 42.7585 16.5569 43.0398C16.6875 43.321 16.7543 43.6435 16.7571 44.0071C16.7543 44.5412 16.6179 45.0043 16.3481 45.3963C16.081 45.7855 15.6946 46.0881 15.189 46.304C14.6861 46.517 14.0796 46.6236 13.3694 46.6236C12.6648 46.6236 12.0512 46.5156 11.5285 46.2997C11.0086 46.0838 10.6023 45.7642 10.3097 45.3409C10.0199 44.9148 9.86794 44.3878 9.85374 43.7599H11.6392C11.6591 44.0526 11.7429 44.2969 11.8907 44.4929C12.0412 44.6861 12.2415 44.8324 12.4915 44.9318C12.7444 45.0284 13.0299 45.0767 13.3481 45.0767C13.6606 45.0767 13.9319 45.0312 14.162 44.9403C14.3949 44.8494 14.5753 44.723 14.7032 44.5611C14.831 44.3991 14.8949 44.2131 14.8949 44.0028C14.8949 43.8068 14.8367 43.642 14.7202 43.5085C14.6066 43.375 14.439 43.2614 14.2174 43.1676C13.9986 43.0739 13.7302 42.9886 13.412 42.9119L12.4617 42.6733C11.7259 42.4943 11.1449 42.2145 10.7188 41.8338C10.2927 41.4531 10.081 40.9403 10.0839 40.2955C10.081 39.767 10.2216 39.3054 10.5057 38.9105C10.7927 38.5156 11.1861 38.2074 11.6861 37.9858C12.1861 37.7642 12.7543 37.6534 13.3907 37.6534C14.0384 37.6534 14.6037 37.7642 15.0867 37.9858C15.5725 38.2074 15.9503 38.5156 16.2202 38.9105C16.4901 39.3054 16.6293 39.7628 16.6378 40.2827H14.8694ZM17.6659 39.294V37.7727H24.8335V39.294H22.1616V46.5H20.3378V39.294H17.6659ZM31.4045 37.7727H33.2497V43.4403C33.2497 44.0767 33.0977 44.6335 32.7937 45.1108C32.4926 45.5881 32.0707 45.9602 31.5281 46.2273C30.9855 46.4915 30.3534 46.6236 29.6318 46.6236C28.9074 46.6236 28.2738 46.4915 27.7312 46.2273C27.1886 45.9602 26.7667 45.5881 26.4656 45.1108C26.1645 44.6335 26.0139 44.0767 26.0139 43.4403V37.7727H27.8591V43.2827C27.8591 43.6151 27.9315 43.9105 28.0764 44.169C28.2241 44.4276 28.4315 44.6307 28.6986 44.7784C28.9656 44.9261 29.2767 45 29.6318 45C29.9897 45 30.3008 44.9261 30.565 44.7784C30.8321 44.6307 31.038 44.4276 31.1829 44.169C31.3307 43.9105 31.4045 43.6151 31.4045 43.2827V37.7727ZM37.8616 46.5H34.7678V37.7727H37.8871C38.765 37.7727 39.5206 37.9474 40.1542 38.2969C40.7877 38.6435 41.2749 39.142 41.6158 39.7926C41.9596 40.4432 42.1314 41.2216 42.1314 42.1278C42.1314 43.0369 41.9596 43.8182 41.6158 44.4716C41.2749 45.125 40.7848 45.6264 40.1456 45.9759C39.5093 46.3253 38.7479 46.5 37.8616 46.5ZM36.613 44.919H37.7848C38.3303 44.919 38.7891 44.8224 39.1613 44.6293C39.5363 44.4332 39.8175 44.1307 40.005 43.7216C40.1954 43.3097 40.2905 42.7784 40.2905 42.1278C40.2905 41.483 40.1954 40.956 40.005 40.5469C39.8175 40.1378 39.5377 39.8366 39.1655 39.6435C38.7934 39.4503 38.3346 39.3537 37.7891 39.3537H36.613V44.919ZM42.4596 37.7727H44.5263L46.5164 41.5312H46.6016L48.5917 37.7727H50.6584L47.4752 43.4148V46.5H45.6428V43.4148L42.4596 37.7727Z" fill="white"/>
</svg>
