<svg width="178" height="208" viewBox="0 0 178 208" fill="none" xmlns="http://www.w3.org/2000/svg">
<path d="M74.8055 126.261H108.783L125.864 148.236L142.668 167.81L174.337 207.511H137.036L115.246 180.736L104.074 164.855L74.8055 126.261ZM177.199 97.4545C177.199 118.075 173.29 135.617 165.473 150.082C157.717 164.547 147.13 175.596 133.712 183.229C120.355 190.8 105.336 194.585 88.6549 194.585C71.8509 194.585 56.7704 190.769 43.4134 183.136C30.0564 175.504 19.5 164.455 11.7444 149.99C3.98868 135.525 0.11084 118.013 0.11084 97.4545C0.11084 76.8343 3.98868 59.2917 11.7444 44.8267C19.5 30.3617 30.0564 19.3437 43.4134 11.7727C56.7704 4.14014 71.8509 0.323853 88.6549 0.323853C105.336 0.323853 120.355 4.14014 133.712 11.7727C147.13 19.3437 157.717 30.3617 165.473 44.8267C173.29 59.2917 177.199 76.8343 177.199 97.4545ZM136.666 97.4545C136.666 84.0975 134.666 72.8333 130.665 63.6619C126.725 54.4905 121.155 47.535 113.953 42.7955C106.751 38.0559 98.3187 35.6861 88.6549 35.6861C78.9911 35.6861 70.5583 38.0559 63.3566 42.7955C56.1549 47.535 50.5536 54.4905 46.5526 63.6619C42.6132 72.8333 40.6435 84.0975 40.6435 97.4545C40.6435 110.812 42.6132 122.076 46.5526 131.247C50.5536 140.419 56.1549 147.374 63.3566 152.114C70.5583 156.853 78.9911 159.223 88.6549 159.223C98.3187 159.223 106.751 156.853 113.953 152.114C121.155 147.374 126.725 140.419 130.665 131.247C134.666 122.076 136.666 110.812 136.666 97.4545Z" fill="black" fill-opacity="0.03"/>
</svg>
