<svg width="178" height="208" viewBox="0 0 178 208" fill="none" xmlns="http://www.w3.org/2000/svg">
<path d="M74.8054 126.261H108.783L125.864 148.236L142.668 167.81L174.337 207.511H137.036L115.246 180.736L104.074 164.855L74.8054 126.261ZM177.199 97.4545C177.199 118.075 173.29 135.617 165.473 150.082C157.717 164.547 147.13 175.596 133.712 183.229C120.355 190.8 105.336 194.585 88.6548 194.585C71.8508 194.585 56.7703 190.769 43.4133 183.136C30.0563 175.504 19.5 164.455 11.7443 149.99C3.98862 135.525 0.110779 118.013 0.110779 97.4545C0.110779 76.8343 3.98862 59.2917 11.7443 44.8267C19.5 30.3617 30.0563 19.3437 43.4133 11.7727C56.7703 4.14014 71.8508 0.323853 88.6548 0.323853C105.336 0.323853 120.355 4.14014 133.712 11.7727C147.13 19.3437 157.717 30.3617 165.473 44.8267C173.29 59.2917 177.199 76.8343 177.199 97.4545ZM136.666 97.4545C136.666 84.0975 134.666 72.8333 130.665 63.6619C126.725 54.4905 121.155 47.535 113.953 42.7955C106.751 38.0559 98.3186 35.6861 88.6548 35.6861C78.991 35.6861 70.5582 38.0559 63.3565 42.7955C56.1548 47.535 50.5535 54.4905 46.5525 63.6619C42.6132 72.8333 40.6434 84.0975 40.6434 97.4545C40.6434 110.812 42.6132 122.076 46.5525 131.247C50.5535 140.419 56.1548 147.374 63.3565 152.114C70.5582 156.853 78.991 159.223 88.6548 159.223C98.3186 159.223 106.751 156.853 113.953 152.114C121.155 147.374 126.725 140.419 130.665 131.247C134.666 122.076 136.666 110.812 136.666 97.4545Z" fill="white" fill-opacity="0.08"/>
</svg>
