<svg width="147" height="72" viewBox="0 0 147 72" fill="none" xmlns="http://www.w3.org/2000/svg">
<path d="M11.28 40.4004H7.05005V60.2204H11.28V40.4004Z" fill="#876B5C"/>
<path d="M18.33 51.6807H0L9.16003 21.9707L18.33 51.6807Z" fill="#80A62C"/>
<path d="M16.75 39.6203H1.57996L9.16003 15.0303L16.75 39.6203Z" fill="#80A62C"/>
<path d="M14.9301 27.4505H3.40002L9.16003 8.77051L14.9301 27.4505Z" fill="#80A62C"/>
<path d="M13.25 17.0703H5.07996L9.16003 3.82031L13.25 17.0703Z" fill="#80A62C"/>
<path d="M100.09 43.8397C104.956 43.8397 108.9 39.8954 108.9 35.0297C108.9 30.1641 104.956 26.2197 100.09 26.2197C95.2246 26.2197 91.2803 30.1641 91.2803 35.0297C91.2803 39.8954 95.2246 43.8397 100.09 43.8397Z" fill="#95C133"/>
<path d="M87.1704 45.2489C92.036 45.2489 95.9803 41.3045 95.9803 36.4389C95.9803 31.5733 92.036 27.6289 87.1704 27.6289C82.3048 27.6289 78.3604 31.5733 78.3604 36.4389C78.3604 41.3045 82.3048 45.2489 87.1704 45.2489Z" fill="#95C133"/>
<path d="M93.6105 32.2094C97.5041 32.2094 100.661 29.053 100.661 25.1594C100.661 21.2658 97.5041 18.1094 93.6105 18.1094C89.7169 18.1094 86.5605 21.2658 86.5605 25.1594C86.5605 29.053 89.7169 32.2094 93.6105 32.2094Z" fill="#95C133"/>
<path d="M95.8602 47.7195C98.9751 47.7195 101.5 45.1943 101.5 42.0795C101.5 38.9646 98.9751 36.4395 95.8602 36.4395C92.7453 36.4395 90.2202 38.9646 90.2202 42.0795C90.2202 45.1943 92.7453 47.7195 95.8602 47.7195Z" fill="#95C133"/>
<path d="M93.6104 31.6689L95.3704 53.3589H91.8403L93.6104 31.6689Z" fill="#B09069"/>
<path d="M76.7898 43.8397C81.6554 43.8397 85.5997 39.8954 85.5997 35.0297C85.5997 30.1641 81.6554 26.2197 76.7898 26.2197C71.9242 26.2197 67.9797 30.1641 67.9797 35.0297C67.9797 39.8954 71.9242 43.8397 76.7898 43.8397Z" fill="#95C133"/>
<path d="M63.8597 45.2489C68.7254 45.2489 72.6698 41.3045 72.6698 36.4389C72.6698 31.5733 68.7254 27.6289 63.8597 27.6289C58.9941 27.6289 55.0498 31.5733 55.0498 36.4389C55.0498 41.3045 58.9941 45.2489 63.8597 45.2489Z" fill="#95C133"/>
<path d="M70.2998 32.2094C74.1934 32.2094 77.3497 29.053 77.3497 25.1594C77.3497 21.2658 74.1934 18.1094 70.2998 18.1094C66.4062 18.1094 63.2498 21.2658 63.2498 25.1594C63.2498 29.053 66.4062 32.2094 70.2998 32.2094Z" fill="#95C133"/>
<path d="M72.5598 47.7195C75.6747 47.7195 78.1997 45.1943 78.1997 42.0795C78.1997 38.9646 75.6747 36.4395 72.5598 36.4395C69.4449 36.4395 66.9198 38.9646 66.9198 42.0795C66.9198 45.1943 69.4449 47.7195 72.5598 47.7195Z" fill="#95C133"/>
<path d="M70.2998 31.6689L72.0598 53.3589H68.5398L70.2998 31.6689Z" fill="#B09069"/>
<path d="M138.1 45.7305H132.81V70.5005H138.1V45.7305Z" fill="#876B5C"/>
<path d="M146.91 59.8304H124L135.45 22.6904L146.91 59.8304Z" fill="#80A62C"/>
<path d="M144.94 44.7495H125.97L135.45 14.0195L144.94 44.7495Z" fill="#80A62C"/>
<path d="M142.66 29.5404H128.25L135.45 6.19043L142.66 29.5404Z" fill="#80A62C"/>
<path d="M140.57 16.57H130.34L135.45 0L140.57 16.57Z" fill="#80A62C"/>
<path d="M20.2196 35.6206C20.5296 33.1706 22.6096 31.3306 25.0796 31.3306H58.0497C60.5197 31.3306 62.5997 33.1706 62.9097 35.6206L67.2697 70.5006H69.7396L69.6996 70.2006L65.3396 35.3206C64.8796 31.6506 61.7497 28.8906 58.0497 28.8906H25.0796C21.3796 28.8906 18.2497 31.6606 17.7897 35.3206L13.4297 70.2006L13.3896 70.5006H15.8596L20.2196 35.6206Z" fill="#A1A1A1"/>
<path d="M47.7897 28.2803C47.5497 28.3203 47.3796 28.5503 47.3796 28.7903V63.2803C47.3796 63.5503 47.5996 63.7703 47.8696 63.7703C48.1396 63.7703 48.3596 63.5503 48.3596 63.2803V28.7603C48.3596 28.4603 48.0897 28.2303 47.7897 28.2803Z" fill="#636363"/>
<path d="M57.2096 28.2803C56.9696 28.3203 56.7997 28.5503 56.7997 28.7903V63.2803C56.7997 63.5503 57.0197 63.7703 57.2897 63.7703C57.5597 63.7703 57.7797 63.5503 57.7797 63.2803V28.7603C57.7797 28.4603 57.5096 28.2303 57.2096 28.2803Z" fill="#636363"/>
<path d="M25.7596 28.2803C25.5196 28.3203 25.3496 28.5503 25.3496 28.7903V63.2803C25.3496 63.5503 25.5696 63.7703 25.8396 63.7703C26.1096 63.7703 26.3296 63.5503 26.3296 63.2803V28.7603C26.3296 28.4603 26.0596 28.2303 25.7596 28.2803Z" fill="#636363"/>
<path d="M35.1797 28.2803C34.9397 28.3203 34.7697 28.5503 34.7697 28.7903V63.2803C34.7697 63.5503 34.9896 63.7703 35.2596 63.7703C35.5296 63.7703 35.7496 63.5503 35.7496 63.2803V28.7603C35.7496 28.4603 35.4797 28.2303 35.1797 28.2803Z" fill="#636363"/>
<path d="M58.6996 60.71H46.4596V63.16H58.6996V60.71Z" fill="#5B70C7"/>
<path d="M36.6697 60.71H24.4297V63.16H36.6697V60.71Z" fill="#FF5538"/>
<path d="M115.24 58.6907C115.24 58.6907 115.549 55.6807 117.949 55.6807C120.349 55.6807 121.01 58.0407 120.3 59.1307C119.64 60.1507 119.85 61.8107 121.14 61.5807C121.14 61.5807 120.969 62.4207 119.719 62.4207C118.739 62.4207 118.099 61.4207 118.099 60.4907C118.099 59.1507 118.069 58.3507 117.339 58.3507C116.609 58.3507 116.43 59.2107 116.43 59.2107L115.229 58.6807L115.24 58.6907Z" fill="#FF5538"/>
<path d="M111.389 56.5502C109.429 57.4902 108.29 55.8602 108.29 51.6102C108.29 49.6402 106.659 48.0602 104.089 48.0602C101.809 48.0602 99.6795 49.4902 99.2195 47.2402C97.7595 48.4402 98.1795 51.4002 100.009 51.4002C101.529 51.4002 102.379 49.9502 103.629 49.9502C105.119 49.9502 106.41 51.0602 106.41 52.7702C106.41 55.6702 105.76 57.7102 109.41 57.7102C110.5 57.7102 111.4 57.2302 111.4 56.5402L111.389 56.5502Z" fill="#FF5538"/>
<path d="M113.979 57.72H109.289C107.439 57.72 106.729 56.38 106.729 54.36C106.729 52.79 106.749 49.71 103.249 49.71C101.159 49.71 101.039 51.24 99.1993 52.09C98.6293 52.36 98.0593 52.11 97.3793 52.67C96.3593 53.5 96.3793 55.33 97.7393 56.23C98.5593 56.77 99.3793 56.39 100.229 56.23H102.839C102.839 56.23 103.029 61.57 103.879 63.12C105.199 63.93 107.419 64.77 110.459 64.77C113.749 64.77 116.149 64.01 117.069 63.1C117.399 61.15 116.809 57.73 113.969 57.73L113.979 57.72Z" fill="white"/>
<path d="M113.819 63.2202L115.869 60.9502L119.249 66.6102L117.719 67.9202L113.819 63.2202Z" fill="white"/>
<path d="M111.689 64.3802L113.449 62.9502L116.669 68.6502L115.319 69.7602L111.689 64.3802Z" fill="white"/>
<path d="M107.089 63.2202L105.039 60.9502L101.659 66.6102L103.189 67.9202L107.089 63.2202Z" fill="white"/>
<path d="M109.109 64.3802L107.349 62.9502L104.129 68.6502L105.469 69.7602L109.109 64.3802Z" fill="white"/>
<path d="M110.46 71.7205C103.1 71.7205 100.48 67.4205 100.37 67.2405C100.14 66.8505 100.27 66.3505 100.66 66.1205C101.05 65.8905 101.55 66.0205 101.78 66.4105C101.87 66.5605 104.08 70.0905 110.46 70.0905C116.84 70.0905 119.12 66.4505 119.14 66.4105C119.37 66.0205 119.87 65.8905 120.26 66.1205C120.65 66.3505 120.78 66.8505 120.55 67.2405C120.44 67.4205 117.82 71.7205 110.46 71.7205Z" fill="#FF5538"/>
<path d="M103.219 52.4704C103.219 52.9204 102.849 53.2904 102.399 53.2904C101.949 53.2904 101.579 52.9204 101.579 52.4704C101.579 52.0204 101.949 51.6504 102.399 51.6504C102.849 51.6504 103.219 52.0204 103.219 52.4704Z" fill="#636363"/>
<path d="M106.759 50.1698C106.239 50.6998 105.489 50.7998 105.079 50.3798C104.669 49.9598 104.76 49.1898 105.28 48.6498C105.8 48.1198 107.329 48.0498 107.329 48.0498C107.329 48.0498 107.269 49.6298 106.749 50.1598L106.759 50.1698Z" fill="white"/>
<path d="M88.3098 58.6907C88.3098 58.6907 88.6198 55.6807 91.0198 55.6807C93.4198 55.6807 94.0798 58.0407 93.3698 59.1307C92.7098 60.1507 92.9197 61.8107 94.2097 61.5807C94.2097 61.5807 94.0398 62.4207 92.7898 62.4207C91.8098 62.4207 91.1698 61.4207 91.1698 60.4907C91.1698 59.1507 91.1398 58.3507 90.4098 58.3507C89.6798 58.3507 89.4998 59.2107 89.4998 59.2107L88.2998 58.6807L88.3098 58.6907Z" fill="#FF5538"/>
<path d="M84.4596 56.5502C82.4996 57.4902 81.3596 55.8602 81.3596 51.6102C81.3596 49.6402 79.7297 48.0602 77.1597 48.0602C74.8797 48.0602 72.7497 49.4902 72.2897 47.2402C70.8297 48.4402 71.2496 51.4002 73.0796 51.4002C74.5996 51.4002 75.4496 49.9502 76.6996 49.9502C78.1896 49.9502 79.4796 51.0602 79.4796 52.7702C79.4796 55.6702 78.8296 57.7102 82.4796 57.7102C83.5696 57.7102 84.4696 57.2302 84.4696 56.5402L84.4596 56.5502Z" fill="#FF5538"/>
<path d="M87.0497 57.72H82.3596C80.5096 57.72 79.7997 56.38 79.7997 54.36C79.7997 52.79 79.8196 49.71 76.3196 49.71C74.2296 49.71 74.1097 51.24 72.2697 52.09C71.6997 52.36 71.1296 52.11 70.4496 52.67C69.4296 53.5 69.4497 55.33 70.8097 56.23C71.6297 56.77 72.4497 56.39 73.2997 56.23H75.9097C75.9097 56.23 76.0996 61.57 76.9496 63.12C78.2696 63.93 80.4897 64.77 83.5297 64.77C86.8197 64.77 89.2197 64.01 90.1397 63.1C90.4697 61.15 89.8797 57.73 87.0397 57.73L87.0497 57.72Z" fill="#FFCA1E"/>
<path d="M86.8896 63.2202L88.9397 60.9502L92.3196 66.6102L90.7897 67.9202L86.8896 63.2202Z" fill="#FFCA1E"/>
<path d="M84.7598 64.3802L86.5198 62.9502L89.7397 68.6502L88.3998 69.7602L84.7598 64.3802Z" fill="#FFCA1E"/>
<path d="M80.1597 63.2202L78.1196 60.9502L74.7396 66.6102L76.2697 67.9202L80.1597 63.2202Z" fill="#FFCA1E"/>
<path d="M82.1897 64.3802L80.4197 62.9502L77.2096 68.6502L78.5497 69.7602L82.1897 64.3802Z" fill="#FFCA1E"/>
<path d="M83.5296 71.7205C76.1696 71.7205 73.5497 67.4205 73.4397 67.2405C73.2097 66.8505 73.3396 66.3505 73.7296 66.1205C74.1196 65.8905 74.6196 66.0205 74.8496 66.4105C74.9396 66.5605 77.1496 70.0905 83.5296 70.0905C89.9096 70.0905 92.1896 66.4505 92.2096 66.4105C92.4396 66.0205 92.9395 65.8905 93.3295 66.1205C93.7195 66.3505 93.8496 66.8505 93.6196 67.2405C93.5096 67.4205 90.8896 71.7205 83.5296 71.7205Z" fill="#FF5538"/>
<path d="M76.2897 52.4704C76.2897 52.9204 75.9196 53.2904 75.4696 53.2904C75.0196 53.2904 74.6497 52.9204 74.6497 52.4704C74.6497 52.0204 75.0196 51.6504 75.4696 51.6504C75.9196 51.6504 76.2897 52.0204 76.2897 52.4704Z" fill="#636363"/>
<path d="M79.8296 50.1698C79.3096 50.6998 78.5597 50.7998 78.1497 50.3798C77.7397 49.9598 77.8296 49.1898 78.3496 48.6498C78.8696 48.1198 80.3997 48.0498 80.3997 48.0498C80.3997 48.0498 80.3396 49.6298 79.8196 50.1598L79.8296 50.1698Z" fill="#FFCA1E"/>
</svg>
