<svg width="235" height="91" viewBox="0 0 235 91" fill="none" xmlns="http://www.w3.org/2000/svg">
<rect x="135" y="48" width="3" height="7" fill="#FEBD33"/>
<rect x="184" y="17" width="3" height="13" fill="#FEBD33"/>
<rect x="162" y="16" width="3" height="13" fill="#FEBD33"/>
<rect x="202" y="22" width="6" height="13" fill="#FEBD33"/>
<rect x="65" y="27" width="13" height="4" fill="#FEBD33"/>
<rect x="86" y="34" width="13" height="4" fill="#FEBD33"/>
<rect x="93" y="39" width="15" height="3" fill="#FEBD33"/>
<rect x="1" y="39" width="6" height="3" fill="#FEBD33"/>
<rect x="7" y="31" width="8" height="3" fill="#FEBD33"/>
<rect x="10" y="39" width="8" height="3" fill="#FEBD33"/>
<rect x="26" y="40" width="4" height="7" fill="#FEBD33"/>
<rect x="51" y="41" width="4" height="7" fill="#FEBD33"/>
<rect x="39" y="38" width="4" height="7" fill="#FEBD33"/>
<rect x="70" y="10" width="4" height="7" fill="#FEBD33"/>
<rect x="75" y="16" width="4" height="7" fill="#FEBD33"/>
<rect x="77" y="32" width="7" height="3" fill="#FEBD33"/>
<rect x="91" y="28" width="7" height="3" fill="#FEBD33"/>
<rect x="63" y="36" width="12" height="3" fill="#FEBD33"/>
<rect x="153" y="32" width="3" height="7" fill="#FEBD33"/>
<rect x="136" y="34" width="5" height="3" fill="#FEBD33"/>
<rect x="144" y="41" width="3" height="6" fill="#FEBD33"/>
<rect x="131" y="42" width="3" height="6" fill="#FEBD33"/>
<rect x="137" y="16" width="4" height="5" fill="#FEBD33"/>
<rect x="153" y="24" width="4" height="8" fill="#FEBD33"/>
<rect x="188" y="36" width="4" height="8" fill="#FEBD33"/>
<rect x="201" y="8" width="4" height="4" fill="#FEBD33"/>
<rect x="228" y="49" width="5" height="5" fill="#FEBD33"/>
<rect x="224" y="42" width="5" height="5" fill="#FEBD33"/>
<rect x="175" y="30" width="3" height="7" fill="#FEBD33"/>
<rect x="179" y="30" width="3" height="7" fill="#FEBD33"/>
<rect x="170" y="17" width="3" height="7" fill="#FEBD33"/>
<rect x="157" y="15" width="3" height="5" fill="#FEBD33"/>
<rect x="126" y="23" width="9" height="4" fill="#FEBD33"/>
<rect x="174" y="29" width="8" height="9" fill="#FEBD33"/>
<rect x="208" y="45" width="7" height="7" fill="#FEBD33"/>
<rect x="222" y="55" width="7" height="7" fill="#FEBD33"/>
<rect x="225" y="36" width="9" height="5" fill="#FEBD33"/>
<rect x="153" y="42" width="13" height="5" fill="#FEBD33"/>
<path d="M17.5999 24.23V30.84H22.0099V38.92H33.0299V35.25H62.4099V24.23H69.0199V8.81H80.0399V24.23H110.03V57.16H123.98V13.22H143.81V24.24H151.15V9.55H166.57V15.43H188.36V28.65L192.77 35.99V48.47H200.24V0L209.05 6.61V42.59H221.66V33.78H234.88V71.97H-0.00012207V24.23H17.6299H17.5999ZM228.25 35.99H226.05V40.4H228.25V35.99ZM232.66 35.99H230.46V40.4H232.66V35.99ZM232.66 42.6H230.46V47.01H232.66V42.6ZM232.66 49.21H228.25V53.62H232.66V49.21ZM223.85 60.78H228.26V55.82H223.85V60.78ZM223.85 47.01H228.26V42.6H223.85V47.01ZM216.14 51.42H220.55V49.22H216.14V51.42ZM216.14 47.01H220.55V44.81H216.14V47.01ZM209.53 55.82H213.94V53.62H209.53V55.82ZM209.53 51.41H213.94V49.21H209.53V51.41ZM209.53 47H213.94V44.8H209.53V47ZM206.84 13.22H204.64V15.42H206.84V13.22ZM206.84 22.03H204.64V24.23H206.84V22.03ZM206.84 30.84H204.64V33.04H206.84V30.84ZM202.92 55.81H207.33V53.61H202.92V55.81ZM202.92 47H207.33V44.8H202.92V47ZM202.43 28.64H204.63V26.44H202.43V28.64ZM202.43 19.83H204.63V17.63H202.43V19.83ZM202.43 11.02H204.63V8.82H202.43V11.02ZM188.35 41.86H190.55V37.45H188.35V41.86ZM183.94 41.86H186.14V37.45H183.94V41.86ZM183.94 28.64H186.14V24.23H183.94V28.64ZM183.94 22.03H186.14V17.62H183.94V22.03ZM179.53 35.25H181.73V30.84H179.53V35.25ZM179.53 28.64H181.73V24.23H179.53V28.64ZM179.53 22.03H181.73V17.62H179.53V22.03ZM175.12 35.25H177.32V30.84H175.12V35.25ZM175.12 28.64H177.32V24.23H175.12V28.64ZM170.71 22.03H172.91V17.62H170.71V22.03ZM162.14 44.8H164.34V42.6H162.14V44.8ZM162.14 40.39H164.34V38.19H162.14V40.39ZM162.14 27.17H164.34V24.97H162.14V27.17ZM162.14 18.36H164.34V16.16H162.14V18.36ZM162.14 13.95H164.34V11.75H162.14V13.95ZM157.73 44.79H159.93V42.59H157.73V44.79ZM157.73 35.98H159.93V33.78H157.73V35.98ZM157.73 22.76H159.93V20.56H157.73V22.76ZM157.73 18.35H159.93V16.15H157.73V18.35ZM153.32 44.79H155.52V42.59H153.32V44.79ZM153.32 35.98H155.52V33.78H153.32V35.98ZM153.32 31.57H155.52V29.37H153.32V31.57ZM153.32 27.16H155.52V24.96H153.32V27.16ZM153.32 13.94H155.52V11.74H153.32V13.94ZM144.59 46.5H146.79V42.09H144.59V46.5ZM134.59 19.08H130.62V21.28H134.59V19.08ZM141.2 16.88H137.23V19.08H141.2V16.88ZM141.2 23.49H137.23V25.69H141.2V23.49ZM141.2 27.9H133.27V30.1H141.2V27.9ZM141.2 34.51H137.23V36.71H141.2V34.51ZM135.77 53.11H137.97V48.7H135.77V53.11ZM135.77 46.5H137.97V42.09H135.77V46.5ZM131.36 46.5H133.56V42.09H131.36V46.5ZM126.95 53.11H129.15V48.7H126.95V53.11ZM126.5 25.69H134.58V23.49H126.5V25.69ZM73.3799 11H71.1799V15.41H73.3799V11ZM73.3799 17.61H71.1799V22.02H73.3799V17.61ZM77.7899 11H75.5899V15.41H77.7899V11ZM77.7899 17.61H75.5899V22.02H77.7899V17.61ZM96.8799 27.89H92.4699V30.09H96.8799V27.89ZM95.4099 41.11H107.89V38.91H95.4099V41.11ZM89.9799 36.7H99.0899V34.5H103.06V32.3H99.0899V34.5H89.9799V36.7ZM84.3999 27.89H79.9899V30.09H84.3999V27.89ZM77.0599 34.5H83.6699V32.3H77.0599V34.5ZM64.5799 38.91H73.3899V36.71H64.5799V38.91ZM74.1299 34.5V32.3H69.7199V34.5H74.1299ZM64.5799 34.5H67.5199V32.3H64.5799V34.5ZM64.5799 30.09H77.7999V27.89H64.5799V30.09ZM56.4999 43.31H58.6999V38.9H56.4999V43.31ZM51.3599 46.98H53.5599V42.57H51.3599V46.98ZM48.4199 38.9H46.2199V43.31H48.4199V38.9ZM44.0099 50.65H46.2099V46.24H44.0099V50.65ZM41.8099 38.9H39.6099V43.31H41.8099V38.9ZM37.3999 50.65H39.5999V46.24H37.3999V50.65ZM26.3799 46.24H28.5799V41.28H26.3799V46.24ZM12.1799 46.24H14.3799V44.04H12.1799V46.24ZM12.1799 41.83H14.3799V39.63H12.1799V41.83ZM12.1799 37.42H14.3799V35.22H12.1799V37.42ZM12.1799 33.01H14.3799V30.81H12.1799V33.01ZM7.7699 46.23H9.96988V44.03H7.7699V46.23ZM7.7699 37.42H9.96988V35.22H7.7699V37.42ZM7.7699 33.01H9.96988V30.81H7.7699V33.01ZM7.7699 28.6H9.96988V26.4H7.7699V28.6ZM3.35989 46.23H5.55988V44.03H3.35989V46.23ZM3.35989 41.82H5.55988V39.62H3.35989V41.82ZM3.35989 33.01H5.55988V30.81H3.35989V33.01Z" fill="#C8DCED"/>
<path d="M17.5999 24.23V30.84H22.0099V38.92H33.0299V35.25H62.4099V24.23H69.0199V8.81H80.0399V24.23H110.03V57.16H123.98V13.22H143.81V24.24H151.15V9.55H166.57V15.43H188.36V28.65L192.77 35.99V48.47H200.24V0L209.05 6.61V42.59H221.66V33.78H234.88V71.97H-0.00012207V24.23H17.6299H17.5999ZM228.25 35.99H226.05V40.4H228.25V35.99ZM232.66 35.99H230.46V40.4H232.66V35.99ZM232.66 42.6H230.46V47.01H232.66V42.6ZM232.66 49.21H228.25V53.62H232.66V49.21ZM223.85 60.78H228.26V55.82H223.85V60.78ZM223.85 47.01H228.26V42.6H223.85V47.01ZM216.14 51.42H220.55V49.22H216.14V51.42ZM216.14 47.01H220.55V44.81H216.14V47.01ZM209.53 55.82H213.94V53.62H209.53V55.82ZM209.53 51.41H213.94V49.21H209.53V51.41ZM209.53 47H213.94V44.8H209.53V47ZM206.84 13.22H204.64V15.42H206.84V13.22ZM206.84 22.03H204.64V24.23H206.84V22.03ZM206.84 30.84H204.64V33.04H206.84V30.84ZM202.92 55.81H207.33V53.61H202.92V55.81ZM202.92 47H207.33V44.8H202.92V47ZM202.43 28.64H204.63V26.44H202.43V28.64ZM202.43 19.83H204.63V17.63H202.43V19.83ZM202.43 11.02H204.63V8.82H202.43V11.02ZM188.35 41.86H190.55V37.45H188.35V41.86ZM183.94 41.86H186.14V37.45H183.94V41.86ZM183.94 28.64H186.14V24.23H183.94V28.64ZM183.94 22.03H186.14V17.62H183.94V22.03ZM179.53 35.25H181.73V30.84H179.53V35.25ZM179.53 28.64H181.73V24.23H179.53V28.64ZM179.53 22.03H181.73V17.62H179.53V22.03ZM175.12 35.25H177.32V30.84H175.12V35.25ZM175.12 28.64H177.32V24.23H175.12V28.64ZM170.71 22.03H172.91V17.62H170.71V22.03ZM162.14 44.8H164.34V42.6H162.14V44.8ZM162.14 40.39H164.34V38.19H162.14V40.39ZM162.14 27.17H164.34V24.97H162.14V27.17ZM162.14 18.36H164.34V16.16H162.14V18.36ZM162.14 13.95H164.34V11.75H162.14V13.95ZM157.73 44.79H159.93V42.59H157.73V44.79ZM157.73 35.98H159.93V33.78H157.73V35.98ZM157.73 22.76H159.93V20.56H157.73V22.76ZM157.73 18.35H159.93V16.15H157.73V18.35ZM153.32 44.79H155.52V42.59H153.32V44.79ZM153.32 35.98H155.52V33.78H153.32V35.98ZM153.32 31.57H155.52V29.37H153.32V31.57ZM153.32 27.16H155.52V24.96H153.32V27.16ZM153.32 13.94H155.52V11.74H153.32V13.94ZM144.59 46.5H146.79V42.09H144.59V46.5ZM134.59 19.08H130.62V21.28H134.59V19.08ZM141.2 16.88H137.23V19.08H141.2V16.88ZM141.2 23.49H137.23V25.69H141.2V23.49ZM141.2 27.9H133.27V30.1H141.2V27.9ZM141.2 34.51H137.23V36.71H141.2V34.51ZM135.77 53.11H137.97V48.7H135.77V53.11ZM135.77 46.5H137.97V42.09H135.77V46.5ZM131.36 46.5H133.56V42.09H131.36V46.5ZM126.95 53.11H129.15V48.7H126.95V53.11ZM126.5 25.69H134.58V23.49H126.5V25.69ZM73.3799 11H71.1799V15.41H73.3799V11ZM73.3799 17.61H71.1799V22.02H73.3799V17.61ZM77.7899 11H75.5899V15.41H77.7899V11ZM77.7899 17.61H75.5899V22.02H77.7899V17.61ZM96.8799 27.89H92.4699V30.09H96.8799V27.89ZM95.4099 41.11H107.89V38.91H95.4099V41.11ZM89.9799 36.7H99.0899V34.5H103.06V32.3H99.0899V34.5H89.9799V36.7ZM84.3999 27.89H79.9899V30.09H84.3999V27.89ZM77.0599 34.5H83.6699V32.3H77.0599V34.5ZM64.5799 38.91H73.3899V36.71H64.5799V38.91ZM74.1299 34.5V32.3H69.7199V34.5H74.1299ZM64.5799 34.5H67.5199V32.3H64.5799V34.5ZM64.5799 30.09H77.7999V27.89H64.5799V30.09ZM56.4999 43.31H58.6999V38.9H56.4999V43.31ZM51.3599 46.98H53.5599V42.57H51.3599V46.98ZM48.4199 38.9H46.2199V43.31H48.4199V38.9ZM44.0099 50.65H46.2099V46.24H44.0099V50.65ZM41.8099 38.9H39.6099V43.31H41.8099V38.9ZM37.3999 50.65H39.5999V46.24H37.3999V50.65ZM26.3799 46.24H28.5799V41.28H26.3799V46.24ZM12.1799 46.24H14.3799V44.04H12.1799V46.24ZM12.1799 41.83H14.3799V39.63H12.1799V41.83ZM12.1799 37.42H14.3799V35.22H12.1799V37.42ZM12.1799 33.01H14.3799V30.81H12.1799V33.01ZM7.7699 46.23H9.96988V44.03H7.7699V46.23ZM7.7699 37.42H9.96988V35.22H7.7699V37.42ZM7.7699 33.01H9.96988V30.81H7.7699V33.01ZM7.7699 28.6H9.96988V26.4H7.7699V28.6ZM3.35989 46.23H5.55988V44.03H3.35989V46.23ZM3.35989 41.82H5.55988V39.62H3.35989V41.82ZM3.35989 33.01H5.55988V30.81H3.35989V33.01Z" fill="black" fill-opacity="0.7"/>
<path d="M155.35 68.6202C155.73 67.9202 155.78 67.0502 155.42 66.2802C155.4 66.2302 155.37 66.1802 155.35 66.1402C154.81 65.0602 153.62 64.5202 152.49 64.7502C152.41 63.4702 151.35 62.4502 150.05 62.4502C149.11 62.4502 148.29 62.9802 147.88 63.7602C147.47 62.9802 146.65 62.4502 145.71 62.4502C144.77 62.4502 143.95 62.9802 143.54 63.7602C143.13 62.9802 142.31 62.4502 141.37 62.4502C140.43 62.4502 139.61 62.9802 139.2 63.7602C138.79 62.9802 137.97 62.4502 137.03 62.4502C136.09 62.4502 135.27 62.9802 134.86 63.7602C134.45 62.9802 133.63 62.4502 132.69 62.4502C131.75 62.4502 130.93 62.9802 130.52 63.7602C130.11 62.9802 129.29 62.4502 128.35 62.4502C127.41 62.4502 126.59 62.9802 126.18 63.7602C125.77 62.9802 124.95 62.4502 124.01 62.4502C123.07 62.4502 122.25 62.9802 121.84 63.7602C121.43 62.9802 120.61 62.4502 119.67 62.4502C118.37 62.4502 117.31 63.4702 117.23 64.7502C116.1 64.5202 114.91 65.0602 114.37 66.1402C114.35 66.1902 114.32 66.2302 114.3 66.2802C113.93 67.0602 113.99 67.9202 114.37 68.6202C113.46 68.9902 112.82 69.8802 112.82 70.9202C112.82 72.2902 113.93 73.4002 115.3 73.4002H154.41C155.78 73.4002 156.89 72.2902 156.89 70.9202C156.89 69.8802 156.25 68.9902 155.34 68.6202H155.35Z" fill="#80A62C"/>
<path d="M155.35 68.6202C155.73 67.9202 155.78 67.0502 155.42 66.2802C155.4 66.2302 155.37 66.1802 155.35 66.1402C154.81 65.0602 153.62 64.5202 152.49 64.7502C152.41 63.4702 151.35 62.4502 150.05 62.4502C149.11 62.4502 148.29 62.9802 147.88 63.7602C147.47 62.9802 146.65 62.4502 145.71 62.4502C144.77 62.4502 143.95 62.9802 143.54 63.7602C143.13 62.9802 142.31 62.4502 141.37 62.4502C140.43 62.4502 139.61 62.9802 139.2 63.7602C138.79 62.9802 137.97 62.4502 137.03 62.4502C136.09 62.4502 135.27 62.9802 134.86 63.7602C134.45 62.9802 133.63 62.4502 132.69 62.4502C131.75 62.4502 130.93 62.9802 130.52 63.7602C130.11 62.9802 129.29 62.4502 128.35 62.4502C127.41 62.4502 126.59 62.9802 126.18 63.7602C125.77 62.9802 124.95 62.4502 124.01 62.4502C123.07 62.4502 122.25 62.9802 121.84 63.7602C121.43 62.9802 120.61 62.4502 119.67 62.4502C118.37 62.4502 117.31 63.4702 117.23 64.7502C116.1 64.5202 114.91 65.0602 114.37 66.1402C114.35 66.1902 114.32 66.2302 114.3 66.2802C113.93 67.0602 113.99 67.9202 114.37 68.6202C113.46 68.9902 112.82 69.8802 112.82 70.9202C112.82 72.2902 113.93 73.4002 115.3 73.4002H154.41C155.78 73.4002 156.89 72.2902 156.89 70.9202C156.89 69.8802 156.25 68.9902 155.34 68.6202H155.35Z" fill="black" fill-opacity="0.7"/>
<path d="M42.8304 66.3202C47.696 66.3202 51.6404 62.3758 51.6404 57.5102C51.6404 52.6446 47.696 48.7002 42.8304 48.7002C37.9648 48.7002 34.0204 52.6446 34.0204 57.5102C34.0204 62.3758 37.9648 66.3202 42.8304 66.3202Z" fill="#95C133"/>
<path d="M42.8304 66.3202C47.696 66.3202 51.6404 62.3758 51.6404 57.5102C51.6404 52.6446 47.696 48.7002 42.8304 48.7002C37.9648 48.7002 34.0204 52.6446 34.0204 57.5102C34.0204 62.3758 37.9648 66.3202 42.8304 66.3202Z" fill="black" fill-opacity="0.7"/>
<path d="M29.9003 67.7401C34.766 67.7401 38.7103 63.7957 38.7103 58.9301C38.7103 54.0645 34.766 50.1201 29.9003 50.1201C25.0347 50.1201 21.0903 54.0645 21.0903 58.9301C21.0903 63.7957 25.0347 67.7401 29.9003 67.7401Z" fill="#95C133"/>
<path d="M29.9003 67.7401C34.766 67.7401 38.7103 63.7957 38.7103 58.9301C38.7103 54.0645 34.766 50.1201 29.9003 50.1201C25.0347 50.1201 21.0903 54.0645 21.0903 58.9301C21.0903 63.7957 25.0347 67.7401 29.9003 67.7401Z" fill="black" fill-opacity="0.7"/>
<path d="M36.3403 54.6898C40.2339 54.6898 43.3903 51.5335 43.3903 47.6398C43.3903 43.7462 40.2339 40.5898 36.3403 40.5898C32.4467 40.5898 29.2903 43.7462 29.2903 47.6398C29.2903 51.5335 32.4467 54.6898 36.3403 54.6898Z" fill="#95C133"/>
<path d="M36.3403 54.6898C40.2339 54.6898 43.3903 51.5335 43.3903 47.6398C43.3903 43.7462 40.2339 40.5898 36.3403 40.5898C32.4467 40.5898 29.2903 43.7462 29.2903 47.6398C29.2903 51.5335 32.4467 54.6898 36.3403 54.6898Z" fill="black" fill-opacity="0.7"/>
<path d="M38.6003 70.2097C41.7152 70.2097 44.2403 67.6846 44.2403 64.5697C44.2403 61.4548 41.7152 58.9297 38.6003 58.9297C35.4854 58.9297 32.9603 61.4548 32.9603 64.5697C32.9603 67.6846 35.4854 70.2097 38.6003 70.2097Z" fill="#95C133"/>
<path d="M38.6003 70.2097C41.7152 70.2097 44.2403 67.6846 44.2403 64.5697C44.2403 61.4548 41.7152 58.9297 38.6003 58.9297C35.4854 58.9297 32.9603 61.4548 32.9603 64.5697C32.9603 67.6846 35.4854 70.2097 38.6003 70.2097Z" fill="black" fill-opacity="0.7"/>
<path d="M36.3403 54.1494L38.1003 75.8494H34.5803L36.3403 54.1494Z" fill="#B09069"/>
<path d="M36.3403 54.1494L38.1003 75.8494H34.5803L36.3403 54.1494Z" fill="black" fill-opacity="0.7"/>
<path d="M103.94 71.0704C104.32 70.3704 104.37 69.5004 104.01 68.7304C103.99 68.6804 103.96 68.6304 103.94 68.5904C103.4 67.5104 102.21 66.9704 101.08 67.2004C101 65.9204 99.9402 64.9004 98.6402 64.9004C97.7002 64.9004 96.8802 65.4304 96.4702 66.2104C96.0602 65.4304 95.2402 64.9004 94.3002 64.9004C93.3602 64.9004 92.5401 65.4304 92.1301 66.2104C91.7201 65.4304 90.9002 64.9004 89.9602 64.9004C89.0202 64.9004 88.2002 65.4304 87.7902 66.2104C87.3802 65.4304 86.5602 64.9004 85.6202 64.9004C84.6802 64.9004 83.8601 65.4304 83.4501 66.2104C83.0401 65.4304 82.2202 64.9004 81.2802 64.9004C80.3402 64.9004 79.5202 65.4304 79.1102 66.2104C78.7002 65.4304 77.8802 64.9004 76.9402 64.9004C76.0002 64.9004 75.1801 65.4304 74.7701 66.2104C74.3601 65.4304 73.5402 64.9004 72.6002 64.9004C71.6602 64.9004 70.8402 65.4304 70.4302 66.2104C70.0202 65.4304 69.2002 64.9004 68.2602 64.9004C66.9602 64.9004 65.9002 65.9204 65.8202 67.2004C64.6902 66.9704 63.5002 67.5104 62.9602 68.5904C62.9402 68.6404 62.9102 68.6804 62.8902 68.7304C62.5202 69.5104 62.5802 70.3704 62.9602 71.0704C62.0502 71.4404 61.4102 72.3304 61.4102 73.3704C61.4102 74.7404 62.5202 75.8504 63.8902 75.8504H103C104.37 75.8504 105.48 74.7404 105.48 73.3704C105.48 72.3304 104.84 71.4404 103.93 71.0704H103.94Z" fill="#80A62C"/>
<path d="M103.94 71.0704C104.32 70.3704 104.37 69.5004 104.01 68.7304C103.99 68.6804 103.96 68.6304 103.94 68.5904C103.4 67.5104 102.21 66.9704 101.08 67.2004C101 65.9204 99.9402 64.9004 98.6402 64.9004C97.7002 64.9004 96.8802 65.4304 96.4702 66.2104C96.0602 65.4304 95.2402 64.9004 94.3002 64.9004C93.3602 64.9004 92.5401 65.4304 92.1301 66.2104C91.7201 65.4304 90.9002 64.9004 89.9602 64.9004C89.0202 64.9004 88.2002 65.4304 87.7902 66.2104C87.3802 65.4304 86.5602 64.9004 85.6202 64.9004C84.6802 64.9004 83.8601 65.4304 83.4501 66.2104C83.0401 65.4304 82.2202 64.9004 81.2802 64.9004C80.3402 64.9004 79.5202 65.4304 79.1102 66.2104C78.7002 65.4304 77.8802 64.9004 76.9402 64.9004C76.0002 64.9004 75.1801 65.4304 74.7701 66.2104C74.3601 65.4304 73.5402 64.9004 72.6002 64.9004C71.6602 64.9004 70.8402 65.4304 70.4302 66.2104C70.0202 65.4304 69.2002 64.9004 68.2602 64.9004C66.9602 64.9004 65.9002 65.9204 65.8202 67.2004C64.6902 66.9704 63.5002 67.5104 62.9602 68.5904C62.9402 68.6404 62.9102 68.6804 62.8902 68.7304C62.5202 69.5104 62.5802 70.3704 62.9602 71.0704C62.0502 71.4404 61.4102 72.3304 61.4102 73.3704C61.4102 74.7404 62.5202 75.8504 63.8902 75.8504H103C104.37 75.8504 105.48 74.7404 105.48 73.3704C105.48 72.3304 104.84 71.4404 103.93 71.0704H103.94Z" fill="black" fill-opacity="0.7"/>
<path d="M130.95 82.7002H121.16L122.34 90.5302H129.78L130.95 82.7002Z" fill="#876B5C"/>
<path d="M130.95 82.7002H121.16L122.34 90.5302H129.78L130.95 82.7002Z" fill="black" fill-opacity="0.7"/>
<path d="M131.17 76.8405L130.14 78.0405C130.02 78.1905 129.79 78.0405 129.85 77.8705L131.17 74.1005C131.33 73.6305 130.74 73.2805 130.43 73.6705L129.39 74.9505C129.27 75.1005 129.03 74.9605 129.1 74.7805L130.39 70.9705C130.55 70.5105 129.97 70.1605 129.65 70.5305L128.83 71.4805C128.71 71.6205 128.49 71.5005 128.54 71.3205L129.28 68.1505C129.39 67.6705 128.77 67.3905 128.5 67.8005L128.17 68.3105C128.07 68.4605 127.85 68.3805 127.86 68.2005L128.04 65.3705C128.07 64.8905 127.42 64.7405 127.25 65.1805L127 65.8005C126.93 65.9705 126.69 65.9305 126.67 65.7505L126.49 63.5105C126.45 62.9705 125.68 62.9705 125.64 63.5105L125.46 65.7505C125.45 65.9305 125.2 65.9705 125.13 65.8005L124.88 65.1805C124.7 64.7405 124.06 64.8905 124.09 65.3705L124.27 68.2005C124.28 68.3805 124.05 68.4605 123.96 68.3105L123.63 67.8005C123.36 67.3905 122.73 67.6705 122.85 68.1505L123.59 71.3205C123.63 71.5005 123.41 71.6105 123.3 71.4805L122.48 70.5305C122.17 70.1605 121.59 70.5105 121.74 70.9705L123.03 74.7805C123.09 74.9605 122.86 75.1005 122.74 74.9505L121.7 73.6705C121.39 73.2905 120.79 73.6405 120.96 74.1005L122.28 77.8705C122.34 78.0505 122.11 78.1905 121.99 78.0405L120.96 76.8405C120.64 76.4605 120.05 76.8405 120.23 77.3005L122.34 82.7005H129.8L131.91 77.3005C132.09 76.8405 131.5 76.4605 131.18 76.8405H131.17Z" fill="#95C133"/>
<path d="M131.17 76.8405L130.14 78.0405C130.02 78.1905 129.79 78.0405 129.85 77.8705L131.17 74.1005C131.33 73.6305 130.74 73.2805 130.43 73.6705L129.39 74.9505C129.27 75.1005 129.03 74.9605 129.1 74.7805L130.39 70.9705C130.55 70.5105 129.97 70.1605 129.65 70.5305L128.83 71.4805C128.71 71.6205 128.49 71.5005 128.54 71.3205L129.28 68.1505C129.39 67.6705 128.77 67.3905 128.5 67.8005L128.17 68.3105C128.07 68.4605 127.85 68.3805 127.86 68.2005L128.04 65.3705C128.07 64.8905 127.42 64.7405 127.25 65.1805L127 65.8005C126.93 65.9705 126.69 65.9305 126.67 65.7505L126.49 63.5105C126.45 62.9705 125.68 62.9705 125.64 63.5105L125.46 65.7505C125.45 65.9305 125.2 65.9705 125.13 65.8005L124.88 65.1805C124.7 64.7405 124.06 64.8905 124.09 65.3705L124.27 68.2005C124.28 68.3805 124.05 68.4605 123.96 68.3105L123.63 67.8005C123.36 67.3905 122.73 67.6705 122.85 68.1505L123.59 71.3205C123.63 71.5005 123.41 71.6105 123.3 71.4805L122.48 70.5305C122.17 70.1605 121.59 70.5105 121.74 70.9705L123.03 74.7805C123.09 74.9605 122.86 75.1005 122.74 74.9505L121.7 73.6705C121.39 73.2905 120.79 73.6405 120.96 74.1005L122.28 77.8705C122.34 78.0505 122.11 78.1905 121.99 78.0405L120.96 76.8405C120.64 76.4605 120.05 76.8405 120.23 77.3005L122.34 82.7005H129.8L131.91 77.3005C132.09 76.8405 131.5 76.4605 131.18 76.8405H131.17Z" fill="black" fill-opacity="0.7"/>
<path d="M85.9099 45.8604H84.6899V54.4304H85.9099V45.8604Z" fill="#636363"/>
<path d="M85.9099 45.8604H84.6899V54.4304H85.9099V45.8604Z" fill="black" fill-opacity="0.7"/>
<path d="M83.2198 46H81.9998V54.57H83.2198V46Z" fill="#636363"/>
<path d="M83.2198 46H81.9998V54.57H83.2198V46Z" fill="black" fill-opacity="0.7"/>
<path d="M88.36 45.8604H87.14V54.4304H88.36V45.8604Z" fill="#636363"/>
<path d="M88.36 45.8604H87.14V54.4304H88.36V45.8604Z" fill="black" fill-opacity="0.7"/>
<path d="M93.25 45.8604H92.03V54.4304H93.25V45.8604Z" fill="#636363"/>
<path d="M93.25 45.8604H92.03V54.4304H93.25V45.8604Z" fill="black" fill-opacity="0.7"/>
<path d="M90.8 45.8604H89.58V54.4304H90.8V45.8604Z" fill="#636363"/>
<path d="M90.8 45.8604H89.58V54.4304H90.8V45.8604Z" fill="black" fill-opacity="0.7"/>
<path d="M95.7 45.8604H94.48V54.4304H95.7V45.8604Z" fill="#636363"/>
<path d="M95.7 45.8604H94.48V54.4304H95.7V45.8604Z" fill="black" fill-opacity="0.7"/>
<path d="M98.1499 45.8604H96.9299V54.4304H98.1499V45.8604Z" fill="#636363"/>
<path d="M98.1499 45.8604H96.9299V54.4304H98.1499V45.8604Z" fill="black" fill-opacity="0.7"/>
<path d="M83.46 56.2598H82.24V90.5298H83.46V56.2598Z" fill="#C1C1C1"/>
<path d="M83.46 56.2598H82.24V90.5298H83.46V56.2598Z" fill="black" fill-opacity="0.7"/>
<path d="M98.1501 56.2598H96.9301V90.5298H98.1501V56.2598Z" fill="#C1C1C1"/>
<path d="M98.1501 56.2598H96.9301V90.5298H98.1501V56.2598Z" fill="black" fill-opacity="0.7"/>
<path d="M97.73 54L96 54.62L108.9 90.72H110.85L97.73 54Z" fill="#FF5538"/>
<path d="M97.73 54L96 54.62L108.9 90.72H110.85L97.73 54Z" fill="black" fill-opacity="0.7"/>
<path d="M100.91 45.25H81.02V47.08H99.61L115.13 90.53H117.08L100.91 45.25Z" fill="#636363"/>
<path d="M100.91 45.25H81.02V47.08H99.61L115.13 90.53H117.08L100.91 45.25Z" fill="black" fill-opacity="0.7"/>
<path d="M87.03 53.8096H83.32C81.07 53.8096 78.94 54.8396 77.55 56.6196L55.85 84.2296C55.15 85.1196 54.1 85.6296 52.96 85.6296H49.19C46.49 85.6296 44.29 87.8196 44.29 90.5296H52.96C55.61 90.5296 58.06 89.3396 59.7 87.2596L82.22 58.5996C83.39 57.1096 85.14 56.2596 87.03 56.2596H98.15V53.8096H87.03Z" fill="#FF5538"/>
<path d="M87.03 53.8096H83.32C81.07 53.8096 78.94 54.8396 77.55 56.6196L55.85 84.2296C55.15 85.1196 54.1 85.6296 52.96 85.6296H49.19C46.49 85.6296 44.29 87.8196 44.29 90.5296H52.96C55.61 90.5296 58.06 89.3396 59.7 87.2596L82.22 58.5996C83.39 57.1096 85.14 56.2596 87.03 56.2596H98.15V53.8096H87.03Z" fill="black" fill-opacity="0.7"/>
<path d="M170.37 76.2507L165.05 77.6807L162.87 71.9307L169.37 70.1807L170.37 76.2507Z" fill="#FACA1E"/>
<path d="M170.37 76.2507L165.05 77.6807L162.87 71.9307L169.37 70.1807L170.37 76.2507Z" fill="black" fill-opacity="0.7"/>
<path d="M169.504 69.5124L162.414 71.4121L162.572 72.0013L169.662 70.1016L169.504 69.5124Z" fill="#FDEAA5"/>
<path d="M169.504 69.5124L162.414 71.4121L162.572 72.0013L169.662 70.1016L169.504 69.5124Z" fill="black" fill-opacity="0.7"/>
<path d="M164.86 66.3308C163.06 66.8108 162.11 69.0508 162.72 71.3408L163.07 71.2408C162.51 69.1508 163.36 67.1108 164.95 66.6808C166.55 66.2508 168.3 67.6008 168.86 69.6908L169.21 69.5908C168.6 67.3008 166.65 65.8408 164.85 66.3208L164.86 66.3308Z" fill="#636363"/>
<path d="M164.86 66.3308C163.06 66.8108 162.11 69.0508 162.72 71.3408L163.07 71.2408C162.51 69.1508 163.36 67.1108 164.95 66.6808C166.55 66.2508 168.3 67.6008 168.86 69.6908L169.21 69.5908C168.6 67.3008 166.65 65.8408 164.85 66.3208L164.86 66.3308Z" fill="black" fill-opacity="0.7"/>
<path d="M165.55 66.7806L164.49 67.0706C164.29 67.1206 164.09 67.0106 164.04 66.8106C163.99 66.6106 164.1 66.4106 164.3 66.3606L165.36 66.0706C165.56 66.0206 165.76 66.1306 165.81 66.3306C165.86 66.5306 165.75 66.7306 165.55 66.7806Z" fill="white"/>
<path d="M165.55 66.7806L164.49 67.0706C164.29 67.1206 164.09 67.0106 164.04 66.8106C163.99 66.6106 164.1 66.4106 164.3 66.3606L165.36 66.0706C165.56 66.0206 165.76 66.1306 165.81 66.3306C165.86 66.5306 165.75 66.7306 165.55 66.7806Z" fill="black" fill-opacity="0.7"/>
<path d="M150.59 74.0107V75.7007C150.59 77.3507 151.29 78.9207 152.51 80.0307L153.01 80.4907C153.18 80.6507 153.41 80.7407 153.65 80.7407C153.89 80.7407 154.11 80.6507 154.29 80.4907L154.79 80.0307C156.01 78.9207 156.71 77.3507 156.71 75.7007V74.0107H150.59Z" fill="#A1A1A1"/>
<path d="M150.59 74.0107V75.7007C150.59 77.3507 151.29 78.9207 152.51 80.0307L153.01 80.4907C153.18 80.6507 153.41 80.7407 153.65 80.7407C153.89 80.7407 154.11 80.6507 154.29 80.4907L154.79 80.0307C156.01 78.9207 156.71 77.3507 156.71 75.7007V74.0107H150.59Z" fill="black" fill-opacity="0.7"/>
<path d="M153.04 69.3604C153.04 72.6204 153.18 73.8604 153.46 77.1104L153.52 77.8304C153.52 77.8904 153.58 77.9304 153.65 77.9304C153.72 77.9304 153.78 77.8904 153.78 77.8304L153.84 77.1104C154.12 73.8604 154.26 72.6204 154.26 69.3604H153.04Z" fill="#C1C1C1"/>
<path d="M153.04 69.3604C153.04 72.6204 153.18 73.8604 153.46 77.1104L153.52 77.8304C153.52 77.8904 153.58 77.9304 153.65 77.9304C153.72 77.9304 153.78 77.8904 153.78 77.8304L153.84 77.1104C154.12 73.8604 154.26 72.6204 154.26 69.3604H153.04Z" fill="black" fill-opacity="0.7"/>
<path d="M156.27 67.1104C156.11 66.8404 155.83 66.6904 155.48 66.6904H153.65H151.82C151.47 66.6904 151.19 66.8404 151.03 67.1104C150.84 67.4304 150.85 67.8804 151.07 68.2704C151.61 69.2404 152.45 69.7204 153.65 69.7504C154.84 69.7204 155.69 69.2304 156.23 68.2704C156.44 67.8904 156.46 67.4304 156.27 67.1104ZM155.61 67.9304C155.19 68.6804 154.59 69.0204 153.65 69.0504C152.71 69.0204 152.1 68.6804 151.69 67.9304C151.59 67.7504 151.59 67.5604 151.64 67.4704C151.65 67.4504 151.68 67.4004 151.82 67.4004H155.48C155.62 67.4004 155.65 67.4504 155.66 67.4704C155.71 67.5604 155.71 67.7504 155.61 67.9304Z" fill="#FF5538"/>
<path d="M156.27 67.1104C156.11 66.8404 155.83 66.6904 155.48 66.6904H153.65H151.82C151.47 66.6904 151.19 66.8404 151.03 67.1104C150.84 67.4304 150.85 67.8804 151.07 68.2704C151.61 69.2404 152.45 69.7204 153.65 69.7504C154.84 69.7204 155.69 69.2304 156.23 68.2704C156.44 67.8904 156.46 67.4304 156.27 67.1104ZM155.61 67.9304C155.19 68.6804 154.59 69.0204 153.65 69.0504C152.71 69.0204 152.1 68.6804 151.69 67.9304C151.59 67.7504 151.59 67.5604 151.64 67.4704C151.65 67.4504 151.68 67.4004 151.82 67.4004H155.48C155.62 67.4004 155.65 67.4504 155.66 67.4704C155.71 67.5604 155.71 67.7504 155.61 67.9304Z" fill="black" fill-opacity="0.7"/>
<path d="M186.28 80.7402H134.87V83.1902H186.28V80.7402Z" fill="#7C8DD2"/>
<path d="M186.28 80.7402H134.87V83.1902H186.28V80.7402Z" fill="black" fill-opacity="0.7"/>
<path d="M185.05 83.1904H136.09L137.32 90.5304H183.83L185.05 83.1904Z" fill="#5B70C7"/>
<path d="M185.05 83.1904H136.09L137.32 90.5304H183.83L185.05 83.1904Z" fill="black" fill-opacity="0.7"/>
<path d="M168.49 73.4004C164.08 73.4004 160.04 74.4804 156.89 76.2904C155.32 77.1904 153.43 77.4004 151.71 76.8304C150.19 76.3304 148.49 76.0504 146.69 76.0504C141.99 76.0504 137.95 77.9704 136.1 80.7504H185.06C182.17 76.4104 175.84 73.4104 168.5 73.4104L168.49 73.4004Z" fill="#FEEEDD"/>
<path d="M168.49 73.4004C164.08 73.4004 160.04 74.4804 156.89 76.2904C155.32 77.1904 153.43 77.4004 151.71 76.8304C150.19 76.3304 148.49 76.0504 146.69 76.0504C141.99 76.0504 137.95 77.9704 136.1 80.7504H185.06C182.17 76.4104 175.84 73.4104 168.5 73.4104L168.49 73.4004Z" fill="black" fill-opacity="0.7"/>
<path d="M1.46045 90.5301H3.91045V66.0501C3.91045 65.3701 3.36045 64.8301 2.69045 64.8301C2.01045 64.8301 1.47045 65.3801 1.47045 66.0501V90.5301H1.46045Z" fill="#B09069"/>
<path d="M1.46045 90.5301H3.91045V66.0501C3.91045 65.3701 3.36045 64.8301 2.69045 64.8301C2.01045 64.8301 1.47045 65.3801 1.47045 66.0501V90.5301H1.46045Z" fill="black" fill-opacity="0.7"/>
<path d="M24.7104 66.0501V90.5301H27.1604V66.0501C27.1604 65.3701 26.6104 64.8301 25.9404 64.8301C25.2604 64.8301 24.7205 65.3801 24.7205 66.0501H24.7104Z" fill="#B09069"/>
<path d="M24.7104 66.0501V90.5301H27.1604V66.0501C27.1604 65.3701 26.6104 64.8301 25.9404 64.8301C25.2604 64.8301 24.7205 65.3801 24.7205 66.0501H24.7104Z" fill="black" fill-opacity="0.7"/>
<path d="M27.4705 70.9503H1.15047C0.640469 70.9503 0.230469 70.5403 0.230469 70.0303C0.230469 69.5203 0.640469 69.1104 1.15047 69.1104H27.4705C27.9805 69.1104 28.3905 69.5203 28.3905 70.0303C28.3905 70.5403 27.9805 70.9503 27.4705 70.9503Z" fill="#876B5C"/>
<path d="M27.4705 70.9503H1.15047C0.640469 70.9503 0.230469 70.5403 0.230469 70.0303C0.230469 69.5203 0.640469 69.1104 1.15047 69.1104H27.4705C27.9805 69.1104 28.3905 69.5203 28.3905 70.0303C28.3905 70.5403 27.9805 70.9503 27.4705 70.9503Z" fill="black" fill-opacity="0.7"/>
<path d="M27.4705 77.38H1.15047C0.640469 77.38 0.230469 76.97 0.230469 76.46C0.230469 75.95 0.640469 75.54 1.15047 75.54H27.4705C27.9805 75.54 28.3905 75.95 28.3905 76.46C28.3905 76.97 27.9805 77.38 27.4705 77.38Z" fill="#876B5C"/>
<path d="M27.4705 77.38H1.15047C0.640469 77.38 0.230469 76.97 0.230469 76.46C0.230469 75.95 0.640469 75.54 1.15047 75.54H27.4705C27.9805 75.54 28.3905 75.95 28.3905 76.46C28.3905 76.97 27.9805 77.38 27.4705 77.38Z" fill="black" fill-opacity="0.7"/>
<path d="M27.4705 83.8H1.15047C0.640469 83.8 0.230469 83.39 0.230469 82.88C0.230469 82.37 0.640469 81.96 1.15047 81.96H27.4705C27.9805 81.96 28.3905 82.37 28.3905 82.88C28.3905 83.39 27.9805 83.8 27.4705 83.8Z" fill="#876B5C"/>
<path d="M27.4705 83.8H1.15047C0.640469 83.8 0.230469 83.39 0.230469 82.88C0.230469 82.37 0.640469 81.96 1.15047 81.96H27.4705C27.9805 81.96 28.3905 82.37 28.3905 82.88C28.3905 83.39 27.9805 83.8 27.4705 83.8Z" fill="black" fill-opacity="0.7"/>
<path d="M16.5105 67.2803H12.1005C11.7967 67.2803 11.5505 67.5265 11.5505 67.8303V72.2403C11.5505 72.544 11.7967 72.7903 12.1005 72.7903H16.5105C16.8142 72.7903 17.0605 72.544 17.0605 72.2403V67.8303C17.0605 67.5265 16.8142 67.2803 16.5105 67.2803Z" fill="#FF5538"/>
<path d="M16.5105 67.2803H12.1005C11.7967 67.2803 11.5505 67.5265 11.5505 67.8303V72.2403C11.5505 72.544 11.7967 72.7903 12.1005 72.7903H16.5105C16.8142 72.7903 17.0605 72.544 17.0605 72.2403V67.8303C17.0605 67.5265 16.8142 67.2803 16.5105 67.2803Z" fill="black" fill-opacity="0.7"/>
<path d="M14.3105 67.8906C13.1305 67.8906 12.1705 68.8506 12.1705 70.0306C12.1705 71.2106 13.1305 72.1706 14.3105 72.1706C15.4905 72.1706 16.4505 71.2106 16.4505 70.0306C16.4505 68.8506 15.4905 67.8906 14.3105 67.8906ZM14.3105 71.5606C13.4705 71.5606 12.7805 70.8806 12.7805 70.0306C12.7805 69.1806 13.4605 68.5006 14.3105 68.5006C15.1605 68.5006 15.8405 69.1806 15.8405 70.0306C15.8405 70.8806 15.1605 71.5606 14.3105 71.5606Z" fill="white"/>
<path d="M14.3105 67.8906C13.1305 67.8906 12.1705 68.8506 12.1705 70.0306C12.1705 71.2106 13.1305 72.1706 14.3105 72.1706C15.4905 72.1706 16.4505 71.2106 16.4505 70.0306C16.4505 68.8506 15.4905 67.8906 14.3105 67.8906ZM14.3105 71.5606C13.4705 71.5606 12.7805 70.8806 12.7805 70.0306C12.7805 69.1806 13.4605 68.5006 14.3105 68.5006C15.1605 68.5006 15.8405 69.1806 15.8405 70.0306C15.8405 70.8806 15.1605 71.5606 14.3105 71.5606Z" fill="black" fill-opacity="0.7"/>
<path d="M22.9405 73.7002H18.5305C18.2267 73.7002 17.9805 73.9464 17.9805 74.2502V78.6602C17.9805 78.964 18.2267 79.2102 18.5305 79.2102H22.9405C23.2442 79.2102 23.4905 78.964 23.4905 78.6602V74.2502C23.4905 73.9464 23.2442 73.7002 22.9405 73.7002Z" fill="#FF5538"/>
<path d="M22.9405 73.7002H18.5305C18.2267 73.7002 17.9805 73.9464 17.9805 74.2502V78.6602C17.9805 78.964 18.2267 79.2102 18.5305 79.2102H22.9405C23.2442 79.2102 23.4905 78.964 23.4905 78.6602V74.2502C23.4905 73.9464 23.2442 73.7002 22.9405 73.7002Z" fill="black" fill-opacity="0.7"/>
<path d="M20.7305 74.3203C19.5505 74.3203 18.5905 75.2803 18.5905 76.4603C18.5905 77.6403 19.5505 78.6003 20.7305 78.6003C21.9105 78.6003 22.8705 77.6403 22.8705 76.4603C22.8705 75.2803 21.9105 74.3203 20.7305 74.3203ZM20.7305 77.9903C19.8905 77.9903 19.2005 77.3103 19.2005 76.4603C19.2005 75.6103 19.8805 74.9303 20.7305 74.9303C21.5805 74.9303 22.2605 75.6103 22.2605 76.4603C22.2605 77.3103 21.5805 77.9903 20.7305 77.9903Z" fill="white"/>
<path d="M20.7305 74.3203C19.5505 74.3203 18.5905 75.2803 18.5905 76.4603C18.5905 77.6403 19.5505 78.6003 20.7305 78.6003C21.9105 78.6003 22.8705 77.6403 22.8705 76.4603C22.8705 75.2803 21.9105 74.3203 20.7305 74.3203ZM20.7305 77.9903C19.8905 77.9903 19.2005 77.3103 19.2005 76.4603C19.2005 75.6103 19.8805 74.9303 20.7305 74.9303C21.5805 74.9303 22.2605 75.6103 22.2605 76.4603C22.2605 77.3103 21.5805 77.9903 20.7305 77.9903Z" fill="black" fill-opacity="0.7"/>
<path d="M22.9405 67.2803H18.5305C18.2267 67.2803 17.9805 67.5265 17.9805 67.8303V72.2403C17.9805 72.544 18.2267 72.7903 18.5305 72.7903H22.9405C23.2442 72.7903 23.4905 72.544 23.4905 72.2403V67.8303C23.4905 67.5265 23.2442 67.2803 22.9405 67.2803Z" fill="#FACA1E"/>
<path d="M22.9405 67.2803H18.5305C18.2267 67.2803 17.9805 67.5265 17.9805 67.8303V72.2403C17.9805 72.544 18.2267 72.7903 18.5305 72.7903H22.9405C23.2442 72.7903 23.4905 72.544 23.4905 72.2403V67.8303C23.4905 67.5265 23.2442 67.2803 22.9405 67.2803Z" fill="black" fill-opacity="0.7"/>
<path d="M21.1705 70.0298L22.5905 68.6098C22.7105 68.4898 22.7105 68.2998 22.5905 68.1798C22.4705 68.0598 22.2805 68.0598 22.1605 68.1798L20.7405 69.5998L19.3205 68.1798C19.2005 68.0598 19.0105 68.0598 18.8905 68.1798C18.7705 68.2998 18.7705 68.4898 18.8905 68.6098L20.3105 70.0298L18.8905 71.4498C18.7705 71.5698 18.7705 71.7598 18.8905 71.8798C19.0105 71.9998 19.2005 71.9998 19.3205 71.8798L20.7405 70.4598L22.1605 71.8798C22.2805 71.9998 22.4705 71.9998 22.5905 71.8798C22.7105 71.7598 22.7105 71.5698 22.5905 71.4498L21.1705 70.0298Z" fill="white"/>
<path d="M21.1705 70.0298L22.5905 68.6098C22.7105 68.4898 22.7105 68.2998 22.5905 68.1798C22.4705 68.0598 22.2805 68.0598 22.1605 68.1798L20.7405 69.5998L19.3205 68.1798C19.2005 68.0598 19.0105 68.0598 18.8905 68.1798C18.7705 68.2998 18.7705 68.4898 18.8905 68.6098L20.3105 70.0298L18.8905 71.4498C18.7705 71.5698 18.7705 71.7598 18.8905 71.8798C19.0105 71.9998 19.2005 71.9998 19.3205 71.8798L20.7405 70.4598L22.1605 71.8798C22.2805 71.9998 22.4705 71.9998 22.5905 71.8798C22.7105 71.7598 22.7105 71.5698 22.5905 71.4498L21.1705 70.0298Z" fill="black" fill-opacity="0.7"/>
<path d="M10.0905 67.2803H5.68049C5.37674 67.2803 5.13049 67.5265 5.13049 67.8303V72.2403C5.13049 72.544 5.37674 72.7903 5.68049 72.7903H10.0905C10.3943 72.7903 10.6405 72.544 10.6405 72.2403V67.8303C10.6405 67.5265 10.3943 67.2803 10.0905 67.2803Z" fill="#FACA1E"/>
<path d="M10.0905 67.2803H5.68049C5.37674 67.2803 5.13049 67.5265 5.13049 67.8303V72.2403C5.13049 72.544 5.37674 72.7903 5.68049 72.7903H10.0905C10.3943 72.7903 10.6405 72.544 10.6405 72.2403V67.8303C10.6405 67.5265 10.3943 67.2803 10.0905 67.2803Z" fill="black" fill-opacity="0.7"/>
<path d="M8.3205 70.0298L9.7405 68.6098C9.8605 68.4898 9.8605 68.2998 9.7405 68.1798C9.6205 68.0598 9.4305 68.0598 9.3105 68.1798L7.8905 69.5998L6.4705 68.1798C6.3505 68.0598 6.1605 68.0598 6.0405 68.1798C5.9205 68.2998 5.9205 68.4898 6.0405 68.6098L7.4605 70.0298L6.0405 71.4498C5.9205 71.5698 5.9205 71.7598 6.0405 71.8798C6.1605 71.9998 6.3505 71.9998 6.4705 71.8798L7.8905 70.4598L9.3105 71.8798C9.4305 71.9998 9.6205 71.9998 9.7405 71.8798C9.8605 71.7598 9.8605 71.5698 9.7405 71.4498L8.3205 70.0298Z" fill="white"/>
<path d="M8.3205 70.0298L9.7405 68.6098C9.8605 68.4898 9.8605 68.2998 9.7405 68.1798C9.6205 68.0598 9.4305 68.0598 9.3105 68.1798L7.8905 69.5998L6.4705 68.1798C6.3505 68.0598 6.1605 68.0598 6.0405 68.1798C5.9205 68.2998 5.9205 68.4898 6.0405 68.6098L7.4605 70.0298L6.0405 71.4498C5.9205 71.5698 5.9205 71.7598 6.0405 71.8798C6.1605 71.9998 6.3505 71.9998 6.4705 71.8798L7.8905 70.4598L9.3105 71.8798C9.4305 71.9998 9.6205 71.9998 9.7405 71.8798C9.8605 71.7598 9.8605 71.5698 9.7405 71.4498L8.3205 70.0298Z" fill="black" fill-opacity="0.7"/>
<path d="M10.0905 73.7002H5.68049C5.37674 73.7002 5.13049 73.9464 5.13049 74.2502V78.6602C5.13049 78.964 5.37674 79.2102 5.68049 79.2102H10.0905C10.3943 79.2102 10.6405 78.964 10.6405 78.6602V74.2502C10.6405 73.9464 10.3943 73.7002 10.0905 73.7002Z" fill="#FF5538"/>
<path d="M10.0905 73.7002H5.68049C5.37674 73.7002 5.13049 73.9464 5.13049 74.2502V78.6602C5.13049 78.964 5.37674 79.2102 5.68049 79.2102H10.0905C10.3943 79.2102 10.6405 78.964 10.6405 78.6602V74.2502C10.6405 73.9464 10.3943 73.7002 10.0905 73.7002Z" fill="black" fill-opacity="0.7"/>
<path d="M7.88048 74.3203C6.70048 74.3203 5.74048 75.2803 5.74048 76.4603C5.74048 77.6403 6.70048 78.6003 7.88048 78.6003C9.06048 78.6003 10.0205 77.6403 10.0205 76.4603C10.0205 75.2803 9.06048 74.3203 7.88048 74.3203ZM7.88048 77.9903C7.04048 77.9903 6.35048 77.3103 6.35048 76.4603C6.35048 75.6103 7.03048 74.9303 7.88048 74.9303C8.73048 74.9303 9.41048 75.6103 9.41048 76.4603C9.41048 77.3103 8.73048 77.9903 7.88048 77.9903Z" fill="white"/>
<path d="M7.88048 74.3203C6.70048 74.3203 5.74048 75.2803 5.74048 76.4603C5.74048 77.6403 6.70048 78.6003 7.88048 78.6003C9.06048 78.6003 10.0205 77.6403 10.0205 76.4603C10.0205 75.2803 9.06048 74.3203 7.88048 74.3203ZM7.88048 77.9903C7.04048 77.9903 6.35048 77.3103 6.35048 76.4603C6.35048 75.6103 7.03048 74.9303 7.88048 74.9303C8.73048 74.9303 9.41048 75.6103 9.41048 76.4603C9.41048 77.3103 8.73048 77.9903 7.88048 77.9903Z" fill="black" fill-opacity="0.7"/>
<path d="M16.5105 73.7002H12.1005C11.7967 73.7002 11.5505 73.9464 11.5505 74.2502V78.6602C11.5505 78.964 11.7967 79.2102 12.1005 79.2102H16.5105C16.8142 79.2102 17.0605 78.964 17.0605 78.6602V74.2502C17.0605 73.9464 16.8142 73.7002 16.5105 73.7002Z" fill="#FACA1E"/>
<path d="M16.5105 73.7002H12.1005C11.7967 73.7002 11.5505 73.9464 11.5505 74.2502V78.6602C11.5505 78.964 11.7967 79.2102 12.1005 79.2102H16.5105C16.8142 79.2102 17.0605 78.964 17.0605 78.6602V74.2502C17.0605 73.9464 16.8142 73.7002 16.5105 73.7002Z" fill="black" fill-opacity="0.7"/>
<path d="M14.7405 76.4605L16.1605 75.0405C16.2805 74.9205 16.2805 74.7305 16.1605 74.6105C16.0405 74.4905 15.8505 74.4905 15.7305 74.6105L14.3105 76.0305L12.8905 74.6105C12.7705 74.4905 12.5805 74.4905 12.4605 74.6105C12.3405 74.7305 12.3405 74.9205 12.4605 75.0405L13.8805 76.4605L12.4605 77.8805C12.3405 78.0005 12.3405 78.1905 12.4605 78.3105C12.5805 78.4305 12.7705 78.4305 12.8905 78.3105L14.3105 76.8905L15.7305 78.3105C15.8505 78.4305 16.0405 78.4305 16.1605 78.3105C16.2805 78.1905 16.2805 78.0005 16.1605 77.8805L14.7405 76.4605Z" fill="white"/>
<path d="M14.7405 76.4605L16.1605 75.0405C16.2805 74.9205 16.2805 74.7305 16.1605 74.6105C16.0405 74.4905 15.8505 74.4905 15.7305 74.6105L14.3105 76.0305L12.8905 74.6105C12.7705 74.4905 12.5805 74.4905 12.4605 74.6105C12.3405 74.7305 12.3405 74.9205 12.4605 75.0405L13.8805 76.4605L12.4605 77.8805C12.3405 78.0005 12.3405 78.1905 12.4605 78.3105C12.5805 78.4305 12.7705 78.4305 12.8905 78.3105L14.3105 76.8905L15.7305 78.3105C15.8505 78.4305 16.0405 78.4305 16.1605 78.3105C16.2805 78.1905 16.2805 78.0005 16.1605 77.8805L14.7405 76.4605Z" fill="black" fill-opacity="0.7"/>
<path d="M16.5105 80.1299H12.1005C11.7967 80.1299 11.5505 80.3761 11.5505 80.6799V85.0899C11.5505 85.3936 11.7967 85.6399 12.1005 85.6399H16.5105C16.8142 85.6399 17.0605 85.3936 17.0605 85.0899V80.6799C17.0605 80.3761 16.8142 80.1299 16.5105 80.1299Z" fill="#FF5538"/>
<path d="M16.5105 80.1299H12.1005C11.7967 80.1299 11.5505 80.3761 11.5505 80.6799V85.0899C11.5505 85.3936 11.7967 85.6399 12.1005 85.6399H16.5105C16.8142 85.6399 17.0605 85.3936 17.0605 85.0899V80.6799C17.0605 80.3761 16.8142 80.1299 16.5105 80.1299Z" fill="black" fill-opacity="0.7"/>
<path d="M14.3105 80.7402C13.1305 80.7402 12.1705 81.7002 12.1705 82.8802C12.1705 84.0602 13.1305 85.0202 14.3105 85.0202C15.4905 85.0202 16.4505 84.0602 16.4505 82.8802C16.4505 81.7002 15.4905 80.7402 14.3105 80.7402ZM14.3105 84.4102C13.4705 84.4102 12.7805 83.7302 12.7805 82.8802C12.7805 82.0302 13.4605 81.3502 14.3105 81.3502C15.1605 81.3502 15.8405 82.0302 15.8405 82.8802C15.8405 83.7302 15.1605 84.4102 14.3105 84.4102Z" fill="white"/>
<path d="M14.3105 80.7402C13.1305 80.7402 12.1705 81.7002 12.1705 82.8802C12.1705 84.0602 13.1305 85.0202 14.3105 85.0202C15.4905 85.0202 16.4505 84.0602 16.4505 82.8802C16.4505 81.7002 15.4905 80.7402 14.3105 80.7402ZM14.3105 84.4102C13.4705 84.4102 12.7805 83.7302 12.7805 82.8802C12.7805 82.0302 13.4605 81.3502 14.3105 81.3502C15.1605 81.3502 15.8405 82.0302 15.8405 82.8802C15.8405 83.7302 15.1605 84.4102 14.3105 84.4102Z" fill="black" fill-opacity="0.7"/>
<path d="M22.9405 80.1299H18.5305C18.2267 80.1299 17.9805 80.3761 17.9805 80.6799V85.0899C17.9805 85.3936 18.2267 85.6399 18.5305 85.6399H22.9405C23.2442 85.6399 23.4905 85.3936 23.4905 85.0899V80.6799C23.4905 80.3761 23.2442 80.1299 22.9405 80.1299Z" fill="#FF5538"/>
<path d="M22.9405 80.1299H18.5305C18.2267 80.1299 17.9805 80.3761 17.9805 80.6799V85.0899C17.9805 85.3936 18.2267 85.6399 18.5305 85.6399H22.9405C23.2442 85.6399 23.4905 85.3936 23.4905 85.0899V80.6799C23.4905 80.3761 23.2442 80.1299 22.9405 80.1299Z" fill="black" fill-opacity="0.7"/>
<path d="M20.7305 80.7402C19.5505 80.7402 18.5905 81.7002 18.5905 82.8802C18.5905 84.0602 19.5505 85.0202 20.7305 85.0202C21.9105 85.0202 22.8705 84.0602 22.8705 82.8802C22.8705 81.7002 21.9105 80.7402 20.7305 80.7402ZM20.7305 84.4102C19.8905 84.4102 19.2005 83.7302 19.2005 82.8802C19.2005 82.0302 19.8805 81.3502 20.7305 81.3502C21.5805 81.3502 22.2605 82.0302 22.2605 82.8802C22.2605 83.7302 21.5805 84.4102 20.7305 84.4102Z" fill="white"/>
<path d="M20.7305 80.7402C19.5505 80.7402 18.5905 81.7002 18.5905 82.8802C18.5905 84.0602 19.5505 85.0202 20.7305 85.0202C21.9105 85.0202 22.8705 84.0602 22.8705 82.8802C22.8705 81.7002 21.9105 80.7402 20.7305 80.7402ZM20.7305 84.4102C19.8905 84.4102 19.2005 83.7302 19.2005 82.8802C19.2005 82.0302 19.8805 81.3502 20.7305 81.3502C21.5805 81.3502 22.2605 82.0302 22.2605 82.8802C22.2605 83.7302 21.5805 84.4102 20.7305 84.4102Z" fill="black" fill-opacity="0.7"/>
<path d="M10.0905 80.1299H5.68049C5.37674 80.1299 5.13049 80.3761 5.13049 80.6799V85.0899C5.13049 85.3936 5.37674 85.6399 5.68049 85.6399H10.0905C10.3943 85.6399 10.6405 85.3936 10.6405 85.0899V80.6799C10.6405 80.3761 10.3943 80.1299 10.0905 80.1299Z" fill="#FACA1E"/>
<path d="M10.0905 80.1299H5.68049C5.37674 80.1299 5.13049 80.3761 5.13049 80.6799V85.0899C5.13049 85.3936 5.37674 85.6399 5.68049 85.6399H10.0905C10.3943 85.6399 10.6405 85.3936 10.6405 85.0899V80.6799C10.6405 80.3761 10.3943 80.1299 10.0905 80.1299Z" fill="black" fill-opacity="0.7"/>
<path d="M8.3205 82.8795L9.7405 81.4595C9.8605 81.3395 9.8605 81.1495 9.7405 81.0295C9.6205 80.9095 9.4305 80.9095 9.3105 81.0295L7.8905 82.4495L6.4705 81.0295C6.3505 80.9095 6.1605 80.9095 6.0405 81.0295C5.9205 81.1495 5.9205 81.3395 6.0405 81.4595L7.4605 82.8795L6.0405 84.2995C5.9205 84.4195 5.9205 84.6095 6.0405 84.7295C6.1605 84.8495 6.3505 84.8495 6.4705 84.7295L7.8905 83.3095L9.3105 84.7295C9.4305 84.8495 9.6205 84.8495 9.7405 84.7295C9.8605 84.6095 9.8605 84.4195 9.7405 84.2995L8.3205 82.8795Z" fill="white"/>
<path d="M8.3205 82.8795L9.7405 81.4595C9.8605 81.3395 9.8605 81.1495 9.7405 81.0295C9.6205 80.9095 9.4305 80.9095 9.3105 81.0295L7.8905 82.4495L6.4705 81.0295C6.3505 80.9095 6.1605 80.9095 6.0405 81.0295C5.9205 81.1495 5.9205 81.3395 6.0405 81.4595L7.4605 82.8795L6.0405 84.2995C5.9205 84.4195 5.9205 84.6095 6.0405 84.7295C6.1605 84.8495 6.3505 84.8495 6.4705 84.7295L7.8905 83.3095L9.3105 84.7295C9.4305 84.8495 9.6205 84.8495 9.7405 84.7295C9.8605 84.6095 9.8605 84.4195 9.7405 84.2995L8.3205 82.8795Z" fill="black" fill-opacity="0.7"/>
</svg>
