<svg width="235" height="91" viewBox="0 0 235 91" fill="none" xmlns="http://www.w3.org/2000/svg">
<path d="M17.5996 24.23V30.84H22.0096V38.92H33.0296V35.25H62.4096V24.23H69.0196V8.81H80.0396V24.23H110.03V57.16H123.98V13.22H143.81V24.24H151.15V9.55H166.57V15.43H188.36V28.65L192.77 35.99V48.47H200.24V0L209.05 6.61V42.59H221.66V33.78H234.88V71.97H-0.000366211V24.23H17.6296H17.5996ZM228.25 35.99H226.05V40.4H228.25V35.99ZM232.66 35.99H230.46V40.4H232.66V35.99ZM232.66 42.6H230.46V47.01H232.66V42.6ZM232.66 49.21H228.25V53.62H232.66V49.21ZM223.85 60.78H228.26V55.82H223.85V60.78ZM223.85 47.01H228.26V42.6H223.85V47.01ZM216.14 51.42H220.55V49.22H216.14V51.42ZM216.14 47.01H220.55V44.81H216.14V47.01ZM209.53 55.82H213.94V53.62H209.53V55.82ZM209.53 51.41H213.94V49.21H209.53V51.41ZM209.53 47H213.94V44.8H209.53V47ZM206.84 13.22H204.64V15.42H206.84V13.22ZM206.84 22.03H204.64V24.23H206.84V22.03ZM206.84 30.84H204.64V33.04H206.84V30.84ZM202.92 55.81H207.33V53.61H202.92V55.81ZM202.92 47H207.33V44.8H202.92V47ZM202.43 28.64H204.63V26.44H202.43V28.64ZM202.43 19.83H204.63V17.63H202.43V19.83ZM202.43 11.02H204.63V8.82H202.43V11.02ZM188.35 41.86H190.55V37.45H188.35V41.86ZM183.94 41.86H186.14V37.45H183.94V41.86ZM183.94 28.64H186.14V24.23H183.94V28.64ZM183.94 22.03H186.14V17.62H183.94V22.03ZM179.53 35.25H181.73V30.84H179.53V35.25ZM179.53 28.64H181.73V24.23H179.53V28.64ZM179.53 22.03H181.73V17.62H179.53V22.03ZM175.12 35.25H177.32V30.84H175.12V35.25ZM175.12 28.64H177.32V24.23H175.12V28.64ZM170.71 22.03H172.91V17.62H170.71V22.03ZM162.14 44.8H164.34V42.6H162.14V44.8ZM162.14 40.39H164.34V38.19H162.14V40.39ZM162.14 27.17H164.34V24.97H162.14V27.17ZM162.14 18.36H164.34V16.16H162.14V18.36ZM162.14 13.95H164.34V11.75H162.14V13.95ZM157.73 44.79H159.93V42.59H157.73V44.79ZM157.73 35.98H159.93V33.78H157.73V35.98ZM157.73 22.76H159.93V20.56H157.73V22.76ZM157.73 18.35H159.93V16.15H157.73V18.35ZM153.32 44.79H155.52V42.59H153.32V44.79ZM153.32 35.98H155.52V33.78H153.32V35.98ZM153.32 31.57H155.52V29.37H153.32V31.57ZM153.32 27.16H155.52V24.96H153.32V27.16ZM153.32 13.94H155.52V11.74H153.32V13.94ZM144.59 46.5H146.79V42.09H144.59V46.5ZM134.59 19.08H130.62V21.28H134.59V19.08ZM141.2 16.88H137.23V19.08H141.2V16.88ZM141.2 23.49H137.23V25.69H141.2V23.49ZM141.2 27.9H133.27V30.1H141.2V27.9ZM141.2 34.51H137.23V36.71H141.2V34.51ZM135.77 53.11H137.97V48.7H135.77V53.11ZM135.77 46.5H137.97V42.09H135.77V46.5ZM131.36 46.5H133.56V42.09H131.36V46.5ZM126.95 53.11H129.15V48.7H126.95V53.11ZM126.5 25.69H134.58V23.49H126.5V25.69ZM73.3796 11H71.1796V15.41H73.3796V11ZM73.3796 17.61H71.1796V22.02H73.3796V17.61ZM77.7896 11H75.5896V15.41H77.7896V11ZM77.7896 17.61H75.5896V22.02H77.7896V17.61ZM96.8796 27.89H92.4696V30.09H96.8796V27.89ZM95.4096 41.11H107.89V38.91H95.4096V41.11ZM89.9796 36.7H99.0896V34.5H103.06V32.3H99.0896V34.5H89.9796V36.7ZM84.3996 27.89H79.9896V30.09H84.3996V27.89ZM77.0596 34.5H83.6696V32.3H77.0596V34.5ZM64.5796 38.91H73.3896V36.71H64.5796V38.91ZM74.1296 34.5V32.3H69.7196V34.5H74.1296ZM64.5796 34.5H67.5196V32.3H64.5796V34.5ZM64.5796 30.09H77.7996V27.89H64.5796V30.09ZM56.4996 43.31H58.6996V38.9H56.4996V43.31ZM51.3596 46.98H53.5596V42.57H51.3596V46.98ZM48.4196 38.9H46.2196V43.31H48.4196V38.9ZM44.0096 50.65H46.2096V46.24H44.0096V50.65ZM41.8096 38.9H39.6096V43.31H41.8096V38.9ZM37.3996 50.65H39.5996V46.24H37.3996V50.65ZM26.3796 46.24H28.5797V41.28H26.3796V46.24ZM12.1796 46.24H14.3796V44.04H12.1796V46.24ZM12.1796 41.83H14.3796V39.63H12.1796V41.83ZM12.1796 37.42H14.3796V35.22H12.1796V37.42ZM12.1796 33.01H14.3796V30.81H12.1796V33.01ZM7.76965 46.23H9.96964V44.03H7.76965V46.23ZM7.76965 37.42H9.96964V35.22H7.76965V37.42ZM7.76965 33.01H9.96964V30.81H7.76965V33.01ZM7.76965 28.6H9.96964V26.4H7.76965V28.6ZM3.35965 46.23H5.55963V44.03H3.35965V46.23ZM3.35965 41.82H5.55963V39.62H3.35965V41.82ZM3.35965 33.01H5.55963V30.81H3.35965V33.01Z" fill="#C8DCED"/>
<path d="M155.35 68.6202C155.73 67.9202 155.78 67.0502 155.42 66.2802C155.4 66.2302 155.37 66.1802 155.35 66.1402C154.81 65.0602 153.62 64.5202 152.49 64.7502C152.41 63.4702 151.35 62.4502 150.05 62.4502C149.11 62.4502 148.29 62.9802 147.88 63.7602C147.47 62.9802 146.65 62.4502 145.71 62.4502C144.77 62.4502 143.95 62.9802 143.54 63.7602C143.13 62.9802 142.31 62.4502 141.37 62.4502C140.43 62.4502 139.61 62.9802 139.2 63.7602C138.79 62.9802 137.97 62.4502 137.03 62.4502C136.09 62.4502 135.27 62.9802 134.86 63.7602C134.45 62.9802 133.63 62.4502 132.69 62.4502C131.75 62.4502 130.93 62.9802 130.52 63.7602C130.11 62.9802 129.29 62.4502 128.35 62.4502C127.41 62.4502 126.59 62.9802 126.18 63.7602C125.77 62.9802 124.95 62.4502 124.01 62.4502C123.07 62.4502 122.25 62.9802 121.84 63.7602C121.43 62.9802 120.61 62.4502 119.67 62.4502C118.37 62.4502 117.31 63.4702 117.23 64.7502C116.1 64.5202 114.91 65.0602 114.37 66.1402C114.35 66.1902 114.32 66.2302 114.3 66.2802C113.93 67.0602 113.99 67.9202 114.37 68.6202C113.46 68.9902 112.82 69.8802 112.82 70.9202C112.82 72.2902 113.93 73.4002 115.3 73.4002H154.41C155.78 73.4002 156.89 72.2902 156.89 70.9202C156.89 69.8802 156.25 68.9902 155.34 68.6202H155.35Z" fill="#80A62C"/>
<path d="M42.8301 66.3202C47.6958 66.3202 51.6401 62.3758 51.6401 57.5102C51.6401 52.6446 47.6958 48.7002 42.8301 48.7002C37.9645 48.7002 34.0201 52.6446 34.0201 57.5102C34.0201 62.3758 37.9645 66.3202 42.8301 66.3202Z" fill="#95C133"/>
<path d="M29.9001 67.7401C34.7657 67.7401 38.7101 63.7957 38.7101 58.9301C38.7101 54.0645 34.7657 50.1201 29.9001 50.1201C25.0345 50.1201 21.0901 54.0645 21.0901 58.9301C21.0901 63.7957 25.0345 67.7401 29.9001 67.7401Z" fill="#95C133"/>
<path d="M36.34 54.6898C40.2336 54.6898 43.39 51.5335 43.39 47.6398C43.39 43.7462 40.2336 40.5898 36.34 40.5898C32.4464 40.5898 29.29 43.7462 29.29 47.6398C29.29 51.5335 32.4464 54.6898 36.34 54.6898Z" fill="#95C133"/>
<path d="M38.6001 70.2097C41.715 70.2097 44.2401 67.6846 44.2401 64.5697C44.2401 61.4548 41.715 58.9297 38.6001 58.9297C35.4852 58.9297 32.9601 61.4548 32.9601 64.5697C32.9601 67.6846 35.4852 70.2097 38.6001 70.2097Z" fill="#95C133"/>
<path d="M36.3401 54.1494L38.1001 75.8494H34.5801L36.3401 54.1494Z" fill="#B09069"/>
<path d="M103.94 71.0704C104.32 70.3704 104.37 69.5004 104.01 68.7304C103.99 68.6804 103.96 68.6304 103.94 68.5904C103.4 67.5104 102.21 66.9704 101.08 67.2004C101 65.9204 99.9399 64.9004 98.6399 64.9004C97.6999 64.9004 96.8799 65.4304 96.4699 66.2104C96.0599 65.4304 95.2399 64.9004 94.2999 64.9004C93.3599 64.9004 92.5399 65.4304 92.1299 66.2104C91.7199 65.4304 90.8999 64.9004 89.9599 64.9004C89.0199 64.9004 88.1999 65.4304 87.7899 66.2104C87.3799 65.4304 86.5599 64.9004 85.6199 64.9004C84.6799 64.9004 83.8599 65.4304 83.4499 66.2104C83.0399 65.4304 82.2199 64.9004 81.2799 64.9004C80.3399 64.9004 79.5199 65.4304 79.1099 66.2104C78.6999 65.4304 77.8799 64.9004 76.9399 64.9004C75.9999 64.9004 75.1799 65.4304 74.7699 66.2104C74.3599 65.4304 73.5399 64.9004 72.5999 64.9004C71.6599 64.9004 70.8399 65.4304 70.4299 66.2104C70.0199 65.4304 69.1999 64.9004 68.2599 64.9004C66.9599 64.9004 65.8999 65.9204 65.8199 67.2004C64.6899 66.9704 63.4999 67.5104 62.9599 68.5904C62.9399 68.6404 62.9099 68.6804 62.8899 68.7304C62.5199 69.5104 62.5799 70.3704 62.9599 71.0704C62.0499 71.4404 61.4099 72.3304 61.4099 73.3704C61.4099 74.7404 62.5199 75.8504 63.8899 75.8504H103C104.37 75.8504 105.48 74.7404 105.48 73.3704C105.48 72.3304 104.84 71.4404 103.93 71.0704H103.94Z" fill="#80A62C"/>
<path d="M130.95 82.7002H121.16L122.34 90.5302H129.78L130.95 82.7002Z" fill="#876B5C"/>
<path d="M131.17 76.8405L130.14 78.0405C130.02 78.1905 129.79 78.0405 129.85 77.8705L131.17 74.1005C131.33 73.6305 130.74 73.2805 130.43 73.6705L129.39 74.9505C129.27 75.1005 129.03 74.9605 129.1 74.7805L130.39 70.9705C130.55 70.5105 129.97 70.1605 129.65 70.5305L128.83 71.4805C128.71 71.6205 128.49 71.5005 128.54 71.3205L129.28 68.1505C129.39 67.6705 128.77 67.3905 128.5 67.8005L128.17 68.3105C128.07 68.4605 127.85 68.3805 127.86 68.2005L128.04 65.3705C128.07 64.8905 127.42 64.7405 127.25 65.1805L127 65.8005C126.93 65.9705 126.69 65.9305 126.67 65.7505L126.49 63.5105C126.45 62.9705 125.68 62.9705 125.64 63.5105L125.46 65.7505C125.45 65.9305 125.2 65.9705 125.13 65.8005L124.88 65.1805C124.7 64.7405 124.06 64.8905 124.09 65.3705L124.27 68.2005C124.28 68.3805 124.05 68.4605 123.96 68.3105L123.63 67.8005C123.36 67.3905 122.73 67.6705 122.85 68.1505L123.59 71.3205C123.63 71.5005 123.41 71.6105 123.3 71.4805L122.48 70.5305C122.17 70.1605 121.59 70.5105 121.74 70.9705L123.03 74.7805C123.09 74.9605 122.86 75.1005 122.74 74.9505L121.7 73.6705C121.39 73.2905 120.79 73.6405 120.96 74.1005L122.28 77.8705C122.34 78.0505 122.11 78.1905 121.99 78.0405L120.96 76.8405C120.64 76.4605 120.05 76.8405 120.23 77.3005L122.34 82.7005H129.8L131.91 77.3005C132.09 76.8405 131.5 76.4605 131.18 76.8405H131.17Z" fill="#95C133"/>
<path d="M85.9097 45.8604H84.6897V54.4304H85.9097V45.8604Z" fill="#636363"/>
<path d="M83.4597 45.8604H82.2397V54.4304H83.4597V45.8604Z" fill="#636363"/>
<path d="M88.3598 45.8604H87.1398V54.4304H88.3598V45.8604Z" fill="#636363"/>
<path d="M93.2498 45.8604H92.0298V54.4304H93.2498V45.8604Z" fill="#636363"/>
<path d="M90.7997 45.8604H89.5797V54.4304H90.7997V45.8604Z" fill="#636363"/>
<path d="M95.6997 45.8604H94.4797V54.4304H95.6997V45.8604Z" fill="#636363"/>
<path d="M98.1497 45.8604H96.9297V54.4304H98.1497V45.8604Z" fill="#636363"/>
<path d="M83.4597 56.2598H82.2397V90.5298H83.4597V56.2598Z" fill="#C1C1C1"/>
<path d="M98.1498 56.2598H96.9298V90.5298H98.1498V56.2598Z" fill="#C1C1C1"/>
<path d="M98.1498 53.8096L96.4198 54.4296L109.32 90.5296H111.27L98.1498 53.8096Z" fill="#FF5538"/>
<path d="M100.91 45.25H81.0198V47.08H99.6098L115.13 90.53H117.08L100.91 45.25Z" fill="#636363"/>
<path d="M86.7398 54H83.0298C80.7798 54 78.6498 55.03 77.2598 56.81L55.5598 84.42C54.8598 85.31 53.8098 85.82 52.6698 85.82H48.8998C46.1998 85.82 43.9998 88.01 43.9998 90.72H52.6698C55.3198 90.72 57.7698 89.53 59.4098 87.45L81.9298 58.79C83.0998 57.3 84.8498 56.45 86.7398 56.45H97.8598V54H86.7398Z" fill="#FF5538"/>
<path d="M170.37 76.2507L165.05 77.6807L162.87 71.9307L169.37 70.1807L170.37 76.2507Z" fill="#FACA1E"/>
<path d="M169.504 69.5124L162.414 71.4121L162.572 72.0013L169.662 70.1016L169.504 69.5124Z" fill="#FDEAA5"/>
<path d="M164.86 66.3308C163.06 66.8108 162.11 69.0508 162.72 71.3408L163.07 71.2408C162.51 69.1508 163.36 67.1108 164.95 66.6808C166.55 66.2508 168.3 67.6008 168.86 69.6908L169.21 69.5908C168.6 67.3008 166.65 65.8408 164.85 66.3208L164.86 66.3308Z" fill="#636363"/>
<path d="M165.55 66.7806L164.49 67.0706C164.29 67.1206 164.09 67.0106 164.04 66.8106C163.99 66.6106 164.1 66.4106 164.3 66.3606L165.36 66.0706C165.56 66.0206 165.76 66.1306 165.81 66.3306C165.86 66.5306 165.75 66.7306 165.55 66.7806Z" fill="white"/>
<path d="M150.59 74.0107V75.7007C150.59 77.3507 151.29 78.9207 152.51 80.0307L153.01 80.4907C153.18 80.6507 153.41 80.7407 153.65 80.7407C153.89 80.7407 154.11 80.6507 154.29 80.4907L154.79 80.0307C156.01 78.9207 156.71 77.3507 156.71 75.7007V74.0107H150.59Z" fill="#A1A1A1"/>
<path d="M153.04 69.3604C153.04 72.6204 153.18 73.8604 153.46 77.1104L153.52 77.8304C153.52 77.8904 153.58 77.9304 153.65 77.9304C153.72 77.9304 153.78 77.8904 153.78 77.8304L153.84 77.1104C154.12 73.8604 154.26 72.6204 154.26 69.3604H153.04Z" fill="#C1C1C1"/>
<path d="M156.27 67.1104C156.11 66.8404 155.83 66.6904 155.48 66.6904H153.65H151.82C151.47 66.6904 151.19 66.8404 151.03 67.1104C150.84 67.4304 150.85 67.8804 151.07 68.2704C151.61 69.2404 152.45 69.7204 153.65 69.7504C154.84 69.7204 155.69 69.2304 156.23 68.2704C156.44 67.8904 156.46 67.4304 156.27 67.1104ZM155.61 67.9304C155.19 68.6804 154.59 69.0204 153.65 69.0504C152.71 69.0204 152.1 68.6804 151.69 67.9304C151.59 67.7504 151.59 67.5604 151.64 67.4704C151.65 67.4504 151.68 67.4004 151.82 67.4004H155.48C155.62 67.4004 155.65 67.4504 155.66 67.4704C155.71 67.5604 155.71 67.7504 155.61 67.9304Z" fill="#FF5538"/>
<path d="M186.28 80.7402H134.87V83.1902H186.28V80.7402Z" fill="#7C8DD2"/>
<path d="M185.05 83.1904H136.09L137.32 90.5304H183.83L185.05 83.1904Z" fill="#5B70C7"/>
<path d="M168.49 73.4004C164.08 73.4004 160.04 74.4804 156.89 76.2904C155.32 77.1904 153.43 77.4004 151.71 76.8304C150.19 76.3304 148.49 76.0504 146.69 76.0504C141.99 76.0504 137.95 77.9704 136.1 80.7504H185.06C182.17 76.4104 175.84 73.4104 168.5 73.4104L168.49 73.4004Z" fill="#FEEEDD"/>
<path d="M1.46021 90.5301H3.9102V66.0501C3.9102 65.3701 3.36021 64.8301 2.69021 64.8301C2.01021 64.8301 1.47021 65.3801 1.47021 66.0501V90.5301H1.46021Z" fill="#B09069"/>
<path d="M24.7102 66.0501V90.5301H27.1602V66.0501C27.1602 65.3701 26.6102 64.8301 25.9402 64.8301C25.2602 64.8301 24.7202 65.3801 24.7202 66.0501H24.7102Z" fill="#B09069"/>
<path d="M27.4702 70.9503H1.15022C0.640225 70.9503 0.230225 70.5403 0.230225 70.0303C0.230225 69.5203 0.640225 69.1104 1.15022 69.1104H27.4702C27.9802 69.1104 28.3902 69.5203 28.3902 70.0303C28.3902 70.5403 27.9802 70.9503 27.4702 70.9503Z" fill="#876B5C"/>
<path d="M27.4702 77.38H1.15022C0.640225 77.38 0.230225 76.97 0.230225 76.46C0.230225 75.95 0.640225 75.54 1.15022 75.54H27.4702C27.9802 75.54 28.3902 75.95 28.3902 76.46C28.3902 76.97 27.9802 77.38 27.4702 77.38Z" fill="#876B5C"/>
<path d="M27.4702 83.8H1.15022C0.640225 83.8 0.230225 83.39 0.230225 82.88C0.230225 82.37 0.640225 81.96 1.15022 81.96H27.4702C27.9802 81.96 28.3902 82.37 28.3902 82.88C28.3902 83.39 27.9802 83.8 27.4702 83.8Z" fill="#876B5C"/>
<path d="M16.5102 67.2803H12.1002C11.7965 67.2803 11.5502 67.5265 11.5502 67.8303V72.2403C11.5502 72.544 11.7965 72.7903 12.1002 72.7903H16.5102C16.814 72.7903 17.0602 72.544 17.0602 72.2403V67.8303C17.0602 67.5265 16.814 67.2803 16.5102 67.2803Z" fill="#FF5538"/>
<path d="M14.3102 67.8906C13.1302 67.8906 12.1702 68.8506 12.1702 70.0306C12.1702 71.2106 13.1302 72.1706 14.3102 72.1706C15.4902 72.1706 16.4502 71.2106 16.4502 70.0306C16.4502 68.8506 15.4902 67.8906 14.3102 67.8906ZM14.3102 71.5606C13.4702 71.5606 12.7802 70.8806 12.7802 70.0306C12.7802 69.1806 13.4602 68.5006 14.3102 68.5006C15.1602 68.5006 15.8402 69.1806 15.8402 70.0306C15.8402 70.8806 15.1602 71.5606 14.3102 71.5606Z" fill="white"/>
<path d="M22.9402 73.7002H18.5302C18.2265 73.7002 17.9802 73.9464 17.9802 74.2502V78.6602C17.9802 78.964 18.2265 79.2102 18.5302 79.2102H22.9402C23.244 79.2102 23.4902 78.964 23.4902 78.6602V74.2502C23.4902 73.9464 23.244 73.7002 22.9402 73.7002Z" fill="#FF5538"/>
<path d="M20.7302 74.3203C19.5502 74.3203 18.5902 75.2803 18.5902 76.4603C18.5902 77.6403 19.5502 78.6003 20.7302 78.6003C21.9102 78.6003 22.8702 77.6403 22.8702 76.4603C22.8702 75.2803 21.9102 74.3203 20.7302 74.3203ZM20.7302 77.9903C19.8902 77.9903 19.2002 77.3103 19.2002 76.4603C19.2002 75.6103 19.8802 74.9303 20.7302 74.9303C21.5802 74.9303 22.2602 75.6103 22.2602 76.4603C22.2602 77.3103 21.5802 77.9903 20.7302 77.9903Z" fill="white"/>
<path d="M22.9402 67.2803H18.5302C18.2265 67.2803 17.9802 67.5265 17.9802 67.8303V72.2403C17.9802 72.544 18.2265 72.7903 18.5302 72.7903H22.9402C23.244 72.7903 23.4902 72.544 23.4902 72.2403V67.8303C23.4902 67.5265 23.244 67.2803 22.9402 67.2803Z" fill="#FACA1E"/>
<path d="M21.1702 70.0298L22.5902 68.6098C22.7102 68.4898 22.7102 68.2998 22.5902 68.1798C22.4702 68.0598 22.2802 68.0598 22.1602 68.1798L20.7402 69.5998L19.3202 68.1798C19.2002 68.0598 19.0102 68.0598 18.8902 68.1798C18.7702 68.2998 18.7702 68.4898 18.8902 68.6098L20.3102 70.0298L18.8902 71.4498C18.7702 71.5698 18.7702 71.7598 18.8902 71.8798C19.0102 71.9998 19.2002 71.9998 19.3202 71.8798L20.7402 70.4598L22.1602 71.8798C22.2802 71.9998 22.4702 71.9998 22.5902 71.8798C22.7102 71.7598 22.7102 71.5698 22.5902 71.4498L21.1702 70.0298Z" fill="white"/>
<path d="M10.0903 67.2803H5.68025C5.37649 67.2803 5.13025 67.5265 5.13025 67.8303V72.2403C5.13025 72.544 5.37649 72.7903 5.68025 72.7903H10.0903C10.394 72.7903 10.6402 72.544 10.6402 72.2403V67.8303C10.6402 67.5265 10.394 67.2803 10.0903 67.2803Z" fill="#FACA1E"/>
<path d="M8.32026 70.0298L9.74026 68.6098C9.86026 68.4898 9.86026 68.2998 9.74026 68.1798C9.62026 68.0598 9.43025 68.0598 9.31025 68.1798L7.89025 69.5998L6.47025 68.1798C6.35025 68.0598 6.16026 68.0598 6.04026 68.1798C5.92026 68.2998 5.92026 68.4898 6.04026 68.6098L7.46025 70.0298L6.04026 71.4498C5.92026 71.5698 5.92026 71.7598 6.04026 71.8798C6.16026 71.9998 6.35025 71.9998 6.47025 71.8798L7.89025 70.4598L9.31025 71.8798C9.43025 71.9998 9.62026 71.9998 9.74026 71.8798C9.86026 71.7598 9.86026 71.5698 9.74026 71.4498L8.32026 70.0298Z" fill="white"/>
<path d="M10.0903 73.7002H5.68025C5.37649 73.7002 5.13025 73.9464 5.13025 74.2502V78.6602C5.13025 78.964 5.37649 79.2102 5.68025 79.2102H10.0903C10.394 79.2102 10.6402 78.964 10.6402 78.6602V74.2502C10.6402 73.9464 10.394 73.7002 10.0903 73.7002Z" fill="#FF5538"/>
<path d="M7.88023 74.3203C6.70023 74.3203 5.74023 75.2803 5.74023 76.4603C5.74023 77.6403 6.70023 78.6003 7.88023 78.6003C9.06023 78.6003 10.0202 77.6403 10.0202 76.4603C10.0202 75.2803 9.06023 74.3203 7.88023 74.3203ZM7.88023 77.9903C7.04023 77.9903 6.35023 77.3103 6.35023 76.4603C6.35023 75.6103 7.03023 74.9303 7.88023 74.9303C8.73023 74.9303 9.41023 75.6103 9.41023 76.4603C9.41023 77.3103 8.73023 77.9903 7.88023 77.9903Z" fill="white"/>
<path d="M16.5102 73.7002H12.1002C11.7965 73.7002 11.5502 73.9464 11.5502 74.2502V78.6602C11.5502 78.964 11.7965 79.2102 12.1002 79.2102H16.5102C16.814 79.2102 17.0602 78.964 17.0602 78.6602V74.2502C17.0602 73.9464 16.814 73.7002 16.5102 73.7002Z" fill="#FACA1E"/>
<path d="M14.7402 76.4605L16.1602 75.0405C16.2802 74.9205 16.2802 74.7305 16.1602 74.6105C16.0402 74.4905 15.8502 74.4905 15.7302 74.6105L14.3102 76.0305L12.8902 74.6105C12.7702 74.4905 12.5802 74.4905 12.4602 74.6105C12.3402 74.7305 12.3402 74.9205 12.4602 75.0405L13.8802 76.4605L12.4602 77.8805C12.3402 78.0005 12.3402 78.1905 12.4602 78.3105C12.5802 78.4305 12.7702 78.4305 12.8902 78.3105L14.3102 76.8905L15.7302 78.3105C15.8502 78.4305 16.0402 78.4305 16.1602 78.3105C16.2802 78.1905 16.2802 78.0005 16.1602 77.8805L14.7402 76.4605Z" fill="white"/>
<path d="M16.5102 80.1299H12.1002C11.7965 80.1299 11.5502 80.3761 11.5502 80.6799V85.0899C11.5502 85.3936 11.7965 85.6399 12.1002 85.6399H16.5102C16.814 85.6399 17.0602 85.3936 17.0602 85.0899V80.6799C17.0602 80.3761 16.814 80.1299 16.5102 80.1299Z" fill="#FF5538"/>
<path d="M14.3102 80.7402C13.1302 80.7402 12.1702 81.7002 12.1702 82.8802C12.1702 84.0602 13.1302 85.0202 14.3102 85.0202C15.4902 85.0202 16.4502 84.0602 16.4502 82.8802C16.4502 81.7002 15.4902 80.7402 14.3102 80.7402ZM14.3102 84.4102C13.4702 84.4102 12.7802 83.7302 12.7802 82.8802C12.7802 82.0302 13.4602 81.3502 14.3102 81.3502C15.1602 81.3502 15.8402 82.0302 15.8402 82.8802C15.8402 83.7302 15.1602 84.4102 14.3102 84.4102Z" fill="white"/>
<path d="M22.9402 80.1299H18.5302C18.2265 80.1299 17.9802 80.3761 17.9802 80.6799V85.0899C17.9802 85.3936 18.2265 85.6399 18.5302 85.6399H22.9402C23.244 85.6399 23.4902 85.3936 23.4902 85.0899V80.6799C23.4902 80.3761 23.244 80.1299 22.9402 80.1299Z" fill="#FF5538"/>
<path d="M20.7302 80.7402C19.5502 80.7402 18.5902 81.7002 18.5902 82.8802C18.5902 84.0602 19.5502 85.0202 20.7302 85.0202C21.9102 85.0202 22.8702 84.0602 22.8702 82.8802C22.8702 81.7002 21.9102 80.7402 20.7302 80.7402ZM20.7302 84.4102C19.8902 84.4102 19.2002 83.7302 19.2002 82.8802C19.2002 82.0302 19.8802 81.3502 20.7302 81.3502C21.5802 81.3502 22.2602 82.0302 22.2602 82.8802C22.2602 83.7302 21.5802 84.4102 20.7302 84.4102Z" fill="white"/>
<path d="M10.0903 80.1299H5.68025C5.37649 80.1299 5.13025 80.3761 5.13025 80.6799V85.0899C5.13025 85.3936 5.37649 85.6399 5.68025 85.6399H10.0903C10.394 85.6399 10.6402 85.3936 10.6402 85.0899V80.6799C10.6402 80.3761 10.394 80.1299 10.0903 80.1299Z" fill="#FACA1E"/>
<path d="M8.32026 82.8795L9.74026 81.4595C9.86026 81.3395 9.86026 81.1495 9.74026 81.0295C9.62026 80.9095 9.43025 80.9095 9.31025 81.0295L7.89025 82.4495L6.47025 81.0295C6.35025 80.9095 6.16026 80.9095 6.04026 81.0295C5.92026 81.1495 5.92026 81.3395 6.04026 81.4595L7.46025 82.8795L6.04026 84.2995C5.92026 84.4195 5.92026 84.6095 6.04026 84.7295C6.16026 84.8495 6.35025 84.8495 6.47025 84.7295L7.89025 83.3095L9.31025 84.7295C9.43025 84.8495 9.62026 84.8495 9.74026 84.7295C9.86026 84.6095 9.86026 84.4195 9.74026 84.2995L8.32026 82.8795Z" fill="white"/>
</svg>
