<svg width="270" height="70" viewBox="0 0 270 70" fill="none" xmlns="http://www.w3.org/2000/svg">
<path d="M0 42C0 30.9543 8.95431 22 20 22H270V50C270 61.0457 261.046 70 250 70H20C8.95431 70 0 61.0457 0 50V42Z" fill="#AAD81A"/>
<path d="M0 42C0 30.9543 8.95431 22 20 22H270V50C270 61.0457 261.046 70 250 70H20C8.95431 70 0 61.0457 0 50V42Z" fill="#AAD81A"/>
<rect y="39" width="270" height="31" fill="#AAD81A"/>
<path d="M261 31C265.971 31 270 26.9706 270 22C270 17.0294 265.971 13 261 13C256.029 13 252 17.0294 252 22C252 26.9706 256.029 31 261 31Z" fill="#AAD81A"/>
<path d="M244 31C248.971 31 253 26.9706 253 22C253 17.0294 248.971 13 244 13C239.029 13 235 17.0294 235 22C235 26.9706 239.029 31 244 31Z" fill="#AAD81A"/>
<path d="M264 22C264 23.6592 262.653 25 261 25C259.347 25 258 23.6531 258 22C258 20.3469 259.347 19 261 19C262.653 19 264 20.3469 264 22Z" fill="#5DA032"/>
<path d="M247 22C247 23.6592 245.653 25 244 25C242.347 25 241 23.6531 241 22C241 20.3469 242.347 19 244 19C245.653 19 247 20.3469 247 22Z" fill="#5DA032"/>
<path d="M129.997 51.9692C126.511 51.9692 123.705 49.182 123.619 45.6192C123.588 44.4337 122.636 43.4878 121.48 43.4878C121.462 43.4878 121.443 43.4878 121.425 43.4878C120.244 43.5193 119.305 44.522 119.336 45.7264C119.484 51.6792 124.169 56.3393 129.997 56.3393H269.881V51.9692H129.997Z" fill="#5DA032"/>
<path d="M163.397 63.9296L156.971 56.3394H172.577L166.151 63.9296C165.391 64.8248 164.157 64.8248 163.397 63.9296Z" fill="white"/>
<path d="M179.92 63.9296L173.495 56.3394H189.1L182.675 63.9296C181.914 64.8248 180.68 64.8248 179.92 63.9296Z" fill="white"/>
<path d="M196.065 63.9296L190.018 56.3394H204.705L198.658 63.9296C197.942 64.8248 196.781 64.8248 196.065 63.9296Z" fill="white"/>
<path d="M212.049 63.9296L205.624 56.3394H221.229L214.804 63.9296C214.043 64.8248 212.809 64.8248 212.049 63.9296Z" fill="white"/>
<path d="M228.572 63.9296L222.146 56.3394H237.752L231.326 63.9296C230.566 64.8248 229.332 64.8248 228.572 63.9296Z" fill="white"/>
<path d="M244.177 63.9296L237.752 56.3394H253.357L246.932 63.9296C246.172 64.8248 244.938 64.8248 244.177 63.9296Z" fill="white"/>
<path d="M260.701 63.9296L254.275 56.3394H269.881L263.455 63.9296C262.695 64.8248 261.461 64.8248 260.701 63.9296Z" fill="white"/>
<path d="M62 17C62 26.3878 54.3878 34 45 34C35.6122 34 28 26.3878 28 17C28 7.61222 35.6122 0 45 0C54.3878 0 62 7.61222 62 17Z" fill="#AAD81A"/>
<path d="M87 17C87 26.3878 79.3878 34 70 34C60.6122 34 53 26.3878 53 17C53 7.61222 60.6122 0 70 0C79.3878 0 87 7.61222 87 17Z" fill="#AAD81A"/>
<path d="M49 17C49 19.2088 47.2088 21 45 21C42.7912 21 41 19.2088 41 17C41 14.7912 42.7912 13 45 13C47.2088 13 49 14.7912 49 17Z" fill="#211E1C"/>
<path d="M74 17C74 19.2088 72.2088 21 70 21C67.7912 21 66 19.2088 66 17C66 14.7912 67.7912 13 70 13C72.2088 13 74 14.7912 74 17Z" fill="#211E1C"/>
<ellipse cx="27.08" cy="54.1598" rx="9.63859" ry="3.67185" fill="#FFCECE"/>
</svg>
