<svg width="179" height="165" viewBox="0 0 179 165" fill="none" xmlns="http://www.w3.org/2000/svg">
<path d="M73.2816 37.9645C82.9382 27.1572 82.9382 10.8165 73.2816 0C63.625 10.8165 63.625 27.1572 73.2816 37.9645Z" fill="#9DBE3B"/>
<path d="M73.2816 37.9645C86.7878 37.9645 97.74 27.0738 97.74 13.6435L73.2816 37.9645Z" fill="#74A734"/>
<path d="M73.2816 37.9645C59.7754 37.9645 48.8232 27.0738 48.8232 13.6435L73.2816 37.9645Z" fill="#9DBE3B"/>
<path d="M73.2816 37.9645V164" stroke="#B59145" stroke-width="4.17" stroke-miterlimit="10"/>
<path d="M73.2816 0V37.9645C82.9382 27.148 82.9382 10.8073 73.2816 0Z" fill="#74A734"/>
<path d="M77.6065 18.0647L72.3588 23.2736" stroke="#9DBE3B" stroke-width="1.67" stroke-miterlimit="10" stroke-linecap="round"/>
<path d="M77.5134 12.5405L71.0353 18.9823" stroke="#9DBE3B" stroke-width="1.67" stroke-miterlimit="10" stroke-linecap="round"/>
<path d="M75.034 4.65288L71.0353 8.62914" stroke="#9DBE3B" stroke-width="1.67" stroke-miterlimit="10" stroke-linecap="round"/>
<path d="M69.1151 24.3674L74.3628 29.5856" stroke="#74A734" stroke-width="1.67" stroke-miterlimit="10" stroke-linecap="round"/>
<path d="M67.8848 18.5096L74.3629 24.9513" stroke="#74A734" stroke-width="1.67" stroke-miterlimit="10" stroke-linecap="round"/>
<path d="M70.3641 7.73935L74.3629 11.7156" stroke="#74A734" stroke-width="1.67" stroke-miterlimit="10" stroke-linecap="round"/>
<path d="M89.5001 25.1645L92.0448 22.6248" stroke="#9DBE3B" stroke-width="1.67" stroke-miterlimit="10" stroke-linecap="round"/>
<path d="M80.5239 34.0809L87.3003 27.3519" stroke="#9DBE3B" stroke-width="1.67" stroke-miterlimit="10" stroke-linecap="round"/>
<path d="M61.0524 29.4559L52.6355 21.0862" stroke="#74A734" stroke-width="1.67" stroke-miterlimit="10" stroke-linecap="round"/>
<path d="M65.7129 34.0809L62.8887 31.2725" stroke="#74A734" stroke-width="1.67" stroke-miterlimit="10" stroke-linecap="round"/>
<path d="M73.2816 43.8965L66.6917 37.3435C70.3362 33.7195 76.2364 33.7195 79.8809 37.3435L73.2909 43.8965H73.2816Z" fill="#B59145"/>
<path d="M77.8023 36.1386L73.2816 40.6246L68.7609 36.1386" stroke="#9DBE3B" stroke-width="1.67" stroke-miterlimit="10" stroke-linecap="round"/>
<path d="M77.8023 42.6823L73.2816 47.1776L68.7609 42.6823" stroke="#9DBE3B" stroke-width="1.67" stroke-miterlimit="10" stroke-linecap="round"/>
<path d="M77.8023 49.2352L73.2816 53.7213L68.7609 49.2352" stroke="#9DBE3B" stroke-width="1.67" stroke-miterlimit="10" stroke-linecap="round"/>
<path d="M75.2111 126.573H71.3522V130.512H75.2111V126.573Z" fill="#8C6741"/>
<path d="M75.2111 67.9394H71.3522V71.8786H75.2111V67.9394Z" fill="#8C6741"/>
<path d="M75.2111 106.812H71.3522V108.786H75.2111V106.812Z" fill="#8C6741"/>
<path d="M75.2111 149.541H71.3522V151.515H75.2111V149.541Z" fill="#8C6741"/>
<path d="M75.2111 59.6625H71.3522V61.6367H75.2111V59.6625Z" fill="#8C6741"/>
<path d="M75.2111 64.0187H71.3522V65.993H75.2111V64.0187Z" fill="#8C6741"/>
<path d="M75.2111 132.598H71.3522V136.537H75.2111V132.598Z" fill="#8C6741"/>
<path d="M29.2679 62.8602V164" stroke="#B59145" stroke-width="4.17" stroke-miterlimit="10"/>
<path d="M29.2679 62.8602C34.9165 56.539 37.2561 48.3269 36.3053 40.4393C35.3173 32.255 23.2186 32.255 22.2306 40.4393C21.2798 48.3269 23.6194 56.539 29.2679 62.8602Z" fill="#9DBE3B"/>
<path d="M25.8844 64.7973C23.1999 56.7707 17.2252 50.6533 9.88021 47.5298C2.26494 44.295 -3.7844 54.713 2.84284 59.6532C9.23706 64.4173 17.5607 66.5028 25.8844 64.8066V64.7973Z" fill="#9DBE3B"/>
<path d="M32.6422 68.6716C40.9658 66.9662 49.2895 69.0517 55.6837 73.825C62.311 78.7652 56.2616 89.1832 48.6463 85.9485C41.3014 82.8249 35.3173 76.6983 32.6422 68.6809V68.6716Z" fill="#9DBE3B"/>
<path d="M25.8844 68.6716C17.5607 66.9662 9.23706 69.0517 2.84284 73.825C-3.7844 78.7652 2.26494 89.1832 9.88021 85.9485C17.2252 82.8249 23.2093 76.6983 25.8844 68.6809V68.6716Z" fill="#9DBE3B"/>
<path d="M32.6422 64.7973C35.3266 56.7707 41.3014 50.6533 48.6463 47.5298C56.2616 44.295 62.311 54.713 55.6837 59.6532C49.2895 64.4173 40.9658 66.5028 32.6422 64.8066V64.7973Z" fill="#9DBE3B"/>
<path d="M31.1974 130.911H27.3385V135.332H31.1974V130.911Z" fill="#8C6741"/>
<path d="M31.1974 99.5086H27.3385V103.93H31.1974V99.5086Z" fill="#8C6741"/>
<path d="M31.1974 108.731H27.3385V110.946H31.1974V108.731Z" fill="#8C6741"/>
<path d="M31.1974 156.678H27.3385V158.893H31.1974V156.678Z" fill="#8C6741"/>
<path d="M31.1974 90.2306H27.3385V92.4458H31.1974V90.2306Z" fill="#8C6741"/>
<path d="M31.1974 95.1152H27.3385V97.3304H31.1974V95.1152Z" fill="#8C6741"/>
<path d="M31.1974 137.668H27.3385V142.089H31.1974V137.668Z" fill="#8C6741"/>
<path d="M32.3718 53.3505V45.3887" stroke="#74A734" stroke-width="1.67" stroke-miterlimit="10" stroke-linecap="round"/>
<path d="M26.1547 42.6823V54.333" stroke="#74A734" stroke-width="1.67" stroke-miterlimit="10" stroke-linecap="round"/>
<path d="M20.6087 58.2537L9.82428 52.0622" stroke="#74A734" stroke-width="1.67" stroke-miterlimit="10" stroke-linecap="round"/>
<path d="M6.7204 57.4102L17.4955 63.6017" stroke="#74A734" stroke-width="1.67" stroke-miterlimit="10" stroke-linecap="round"/>
<path d="M43.8274 61.9982L51.8155 57.4102" stroke="#74A734" stroke-width="1.67" stroke-miterlimit="10" stroke-linecap="round"/>
<path d="M46.4559 53.3506L39.9778 57.0766" stroke="#74A734" stroke-width="1.67" stroke-miterlimit="10" stroke-linecap="round"/>
<path d="M15.0814 71.3689L6.7204 76.17" stroke="#74A734" stroke-width="1.67" stroke-miterlimit="10" stroke-linecap="round"/>
<path d="M15.1093 78.4872L20.5994 75.3358" stroke="#74A734" stroke-width="1.67" stroke-miterlimit="10" stroke-linecap="round"/>
<path d="M9.82428 81.5181L12.9189 79.7477" stroke="#74A734" stroke-width="1.67" stroke-miterlimit="10" stroke-linecap="round"/>
<path d="M41.4691 77.3657L48.7022 81.5181" stroke="#74A734" stroke-width="1.67" stroke-miterlimit="10" stroke-linecap="round"/>
<path d="M47.6862 73.7973L42.2521 70.683" stroke="#74A734" stroke-width="1.67" stroke-miterlimit="10" stroke-linecap="round"/>
<path d="M51.8155 76.17L50.2869 75.2895" stroke="#74A734" stroke-width="1.67" stroke-miterlimit="10" stroke-linecap="round"/>
<path d="M34.0962 66.7994C34.0962 64.1486 31.9337 61.9982 29.2679 61.9982C26.6021 61.9982 24.4396 64.1486 24.4396 66.7994C24.4396 69.4502 26.6021 71.6006 29.2679 71.6006C31.9337 71.6006 34.0962 69.4502 34.0962 66.7994Z" fill="#B59145"/>
<path d="M29.2708 75.116L26.4828 72.3437L23.6949 75.116L26.4828 77.8883L29.2708 75.116Z" fill="#8C6741"/>
<path d="M34.8368 75.1081L32.0488 72.3358L29.2609 75.1081L32.0488 77.8804L34.8368 75.1081Z" fill="#8C6741"/>
<path d="M29.2722 80.6573L26.4843 77.885L23.6963 80.6573L26.4843 83.4296L29.2722 80.6573Z" fill="#8C6741"/>
<path d="M34.8382 80.6494L32.0502 77.877L29.2623 80.6494L32.0502 83.4217L34.8382 80.6494Z" fill="#8C6741"/>
<path d="M29.272 86.1631L26.4841 83.3908L23.6961 86.1631L26.4841 88.9354L29.272 86.1631Z" fill="#8C6741"/>
<path d="M34.838 86.1551L32.05 83.3828L29.2621 86.1551L32.05 88.9275L34.838 86.1551Z" fill="#8C6741"/>
<path d="M29.2679 64.0188V38.3816" stroke="#74A734" stroke-width="1.67" stroke-miterlimit="10" stroke-linecap="round"/>
<path d="M17.5607 60.0703L4.39014 52.5164" stroke="#74A734" stroke-width="1.67" stroke-miterlimit="10" stroke-linecap="round"/>
<path d="M26.8538 65.4091L20.3384 61.6646" stroke="#74A734" stroke-width="1.67" stroke-miterlimit="10" stroke-linecap="round"/>
<path d="M39.0736 72.4255L31.6821 68.1804" stroke="#74A734" stroke-width="1.67" stroke-miterlimit="10" stroke-linecap="round"/>
<path d="M54.9193 81.518L41.4691 73.7972" stroke="#74A734" stroke-width="1.67" stroke-miterlimit="10" stroke-linecap="round"/>
<path d="M26.8538 68.1804L4.39014 81.0732" stroke="#74A734" stroke-width="1.67" stroke-miterlimit="10" stroke-linecap="round"/>
<path d="M44.7129 57.92L31.6821 65.4091" stroke="#74A734" stroke-width="1.67" stroke-miterlimit="10" stroke-linecap="round"/>
<path d="M54.1365 52.5164L47.8075 56.1497" stroke="#74A734" stroke-width="1.67" stroke-miterlimit="10" stroke-linecap="round"/>
<path d="M34.096 66.7993C34.096 64.1485 31.9336 61.9982 29.2677 61.9982C26.6019 61.9982 24.4395 64.1485 24.4395 66.7993C24.4395 69.4502 26.6019 71.6005 29.2677 71.6005C31.9336 71.6005 34.096 69.4502 34.096 66.7993Z" fill="#B59145"/>
<path d="M32.1017 66.7994C32.1017 65.2422 30.8341 63.9817 29.2682 63.9817C27.7022 63.9817 26.4346 65.2422 26.4346 66.7994C26.4346 68.3565 27.7022 69.617 29.2682 69.617C30.8341 69.617 32.1017 68.3565 32.1017 66.7994Z" fill="#8C6741"/>
<path d="M34.8805 128.436C38.3759 140.207 35.5423 152.933 27.5915 162.128C26.967 162.851 25.7739 162.23 26.0256 161.303L34.8805 128.436Z" fill="#74A734"/>
<path d="M28.244 161.34L33.296 143.702" stroke="#9DBE3B" stroke-width="1.67" stroke-miterlimit="10" stroke-linecap="round"/>
<path d="M20.0601 128.436C16.5647 140.207 19.3983 152.933 27.3491 162.128C27.9737 162.851 29.1667 162.23 28.9151 161.303L20.0601 128.436Z" fill="#9DBE3B"/>
<path d="M26.445 161.284L21.1227 139.151" stroke="#74A734" stroke-width="1.67" stroke-miterlimit="10" stroke-linecap="round"/>
<path d="M9.50869 132.19C9.2011 144.462 15.2504 156.02 25.3171 162.86C26.1094 163.398 27.0975 162.489 26.6128 161.655L9.49938 132.19H9.50869Z" fill="#74A734"/>
<path d="M17.8137 150.542L12.2491 140.967" stroke="#9DBE3B" stroke-width="1.67" stroke-miterlimit="10" stroke-linecap="round"/>
<path d="M24.2359 161.219L19.2678 153.054" stroke="#9DBE3B" stroke-width="1.67" stroke-miterlimit="10" stroke-linecap="round"/>
<path d="M4 148.317C8.32495 156.214 15.9402 161.701 24.5901 163.481C26.2493 163.824 27.1068 161.59 25.6434 160.747L4 148.317Z" fill="#9DBE3B"/>
<path d="M50.9406 148.317C46.3733 156.668 38.1242 162.322 28.8591 163.75C27.5076 163.963 26.8738 162.137 28.0575 161.46L50.9406 148.317Z" fill="#74A734"/>
<path d="M45.432 132.19C45.7395 144.462 39.6902 156.02 29.6235 162.86C28.8312 163.398 27.8432 162.489 28.3279 161.655L45.4413 132.19H45.432Z" fill="#9DBE3B"/>
<path d="M38.7208 147.947L42.617 141.255" stroke="#74A734" stroke-width="1.67" stroke-miterlimit="10" stroke-linecap="round"/>
<path d="M30.1921 162.638L36.7448 151.348" stroke="#74A734" stroke-width="1.67" stroke-miterlimit="10" stroke-linecap="round"/>
<path d="M32.1401 164C32.1401 161.433 30.0522 159.356 27.4703 159.356C24.8884 159.356 22.8005 161.433 22.8005 164H32.1495H32.1401Z" fill="#74A734"/>
<path d="M61.6693 147.007L58.6679 150.001L55.6572 147.007" stroke="#74A734" stroke-width="1.67" stroke-miterlimit="10" stroke-linecap="round"/>
<path d="M61.6693 140.862L58.6679 143.847L55.6572 140.862" stroke="#74A734" stroke-width="1.67" stroke-miterlimit="10" stroke-linecap="round"/>
<path d="M61.6693 134.708L58.6679 137.702L55.6572 134.708" stroke="#74A734" stroke-width="1.67" stroke-miterlimit="10" stroke-linecap="round"/>
<path d="M61.6693 128.563L58.6679 131.547L55.6572 128.563" stroke="#74A734" stroke-width="1.67" stroke-miterlimit="10" stroke-linecap="round"/>
<path d="M61.6693 122.408L58.6679 125.402L55.6572 122.408" stroke="#74A734" stroke-width="1.67" stroke-miterlimit="10" stroke-linecap="round"/>
<path d="M61.6693 116.263L58.6679 119.248L55.6572 116.263" stroke="#74A734" stroke-width="1.67" stroke-miterlimit="10" stroke-linecap="round"/>
<path d="M61.6693 110.109L58.6679 113.103L55.6572 110.109" stroke="#74A734" stroke-width="1.67" stroke-miterlimit="10" stroke-linecap="round"/>
<path d="M61.6693 103.964L58.6679 106.948L55.6572 103.964" stroke="#74A734" stroke-width="1.67" stroke-miterlimit="10" stroke-linecap="round"/>
<path d="M58.668 106.948V158" stroke="#74A734" stroke-width="1.67" stroke-miterlimit="10"/>
<path d="M48.9365 116.541V158" stroke="#74A734" stroke-width="1.67" stroke-miterlimit="10"/>
<path d="M51.9378 144.31L48.9365 147.295L45.9258 144.31" stroke="#9DBE3B" stroke-width="1.67" stroke-miterlimit="10" stroke-linecap="round"/>
<path d="M51.9378 138.156L48.9365 141.15L45.9258 138.156" stroke="#9DBE3B" stroke-width="1.67" stroke-miterlimit="10" stroke-linecap="round"/>
<path d="M51.9378 132.011L48.9365 134.995L45.9258 132.011" stroke="#9DBE3B" stroke-width="1.67" stroke-miterlimit="10" stroke-linecap="round"/>
<path d="M51.9378 125.856L48.9365 128.85L45.9258 125.856" stroke="#9DBE3B" stroke-width="1.67" stroke-miterlimit="10" stroke-linecap="round"/>
<path d="M51.9378 119.711L48.9365 122.696L45.9258 119.711" stroke="#9DBE3B" stroke-width="1.67" stroke-miterlimit="10" stroke-linecap="round"/>
<path d="M51.9378 113.557L48.9365 116.541L45.9258 113.557" stroke="#9DBE3B" stroke-width="1.67" stroke-miterlimit="10" stroke-linecap="round"/>
<path d="M67.1309 128.85V158" stroke="#74A734" stroke-width="1.67" stroke-miterlimit="10"/>
<path d="M70.1322 144.31L67.1308 147.295L64.1201 144.31" stroke="#9DBE3B" stroke-width="1.67" stroke-miterlimit="10" stroke-linecap="round"/>
<path d="M70.1322 138.156L67.1308 141.15L64.1201 138.156" stroke="#9DBE3B" stroke-width="1.67" stroke-miterlimit="10" stroke-linecap="round"/>
<path d="M70.1322 132.011L67.1308 134.995L64.1201 132.011" stroke="#9DBE3B" stroke-width="1.67" stroke-miterlimit="10" stroke-linecap="round"/>
<path d="M70.1322 125.856L67.1308 128.85L64.1201 125.856" stroke="#9DBE3B" stroke-width="1.67" stroke-miterlimit="10" stroke-linecap="round"/>
<path d="M93.0303 121.317C90.8729 121.317 89.1161 123.076 89.1161 125.236V136.036" stroke="#9DBE3B" stroke-width="1.93" stroke-miterlimit="10" stroke-linecap="round"/>
<path d="M89.1161 148.08V156.092" stroke="#74A734" stroke-width="1.93" stroke-miterlimit="10"/>
<path d="M101.393 130.307C94.6125 130.307 89.1161 135.809 89.1161 142.598V151.309" stroke="#74A734" stroke-width="1.93" stroke-miterlimit="10" stroke-linecap="round"/>
<path d="M96.9446 143.39C92.6194 143.39 89.1161 146.897 89.1161 151.227V153.654" stroke="#74A734" stroke-width="1.93" stroke-miterlimit="10" stroke-linecap="round"/>
<path d="M95.2392 125.061C91.8592 125.061 89.1161 127.807 89.1161 131.191V148.08" stroke="#74A734" stroke-width="1.93" stroke-miterlimit="10" stroke-linecap="round"/>
<path d="M86.0237 116C87.7086 116 89.0852 117.368 89.0852 119.065V134.133" stroke="#9DBE3B" stroke-width="1.93" stroke-miterlimit="10" stroke-linecap="round"/>
<path d="M89.0852 148.08V156.092" stroke="#74A734" stroke-width="1.93" stroke-miterlimit="10"/>
<path d="M78 134.915C84.1231 134.915 89.0853 139.882 89.0853 146.012V153.88" stroke="#74A734" stroke-width="1.93" stroke-miterlimit="10" stroke-linecap="round"/>
<path d="M79.6848 141.332C84.873 141.332 89.0749 145.539 89.0749 150.733V153.654" stroke="#74A734" stroke-width="1.93" stroke-miterlimit="10" stroke-linecap="round"/>
<path d="M82.1198 127.159C85.9621 127.159 89.0853 130.286 89.0853 134.133V145.189" stroke="#74A734" stroke-width="1.93" stroke-miterlimit="10" stroke-linecap="round"/>
<path d="M115.971 98.9768C110.3 79.7538 115.909 58.8131 130.416 45L115.971 98.9768Z" fill="#74A734"/>
<path d="M121.365 66.7532L114.872 93.9576" stroke="#9DBE3B" stroke-width="1.67" stroke-miterlimit="10" stroke-linecap="round"/>
<path d="M122.721 61.045L122.135 63.5237" stroke="#9DBE3B" stroke-width="1.67" stroke-miterlimit="10" stroke-linecap="round"/>
<path d="M114.029 98.9768C119.7 79.7538 114.091 58.8131 99.5845 45L114.029 98.9768Z" fill="#9DBE3B"/>
<path d="M107.279 61.045L115.128 93.9577" stroke="#74A734" stroke-width="1.67" stroke-miterlimit="10" stroke-linecap="round"/>
<path d="M114.07 98.9768C114.574 78.9412 103.745 60.1604 86.1567 50.5849L114.07 98.9768Z" fill="#74A734"/>
<path d="M101.803 71.6799L113.341 91.6743" stroke="#9DBE3B" stroke-width="1.67" stroke-miterlimit="10" stroke-linecap="round"/>
<path d="M95.9578 61.5489L99.6563 67.9463" stroke="#9DBE3B" stroke-width="1.67" stroke-miterlimit="10" stroke-linecap="round"/>
<path d="M114.502 98.2774C98.742 88.6299 78.7598 88.6299 63 98.2774H114.502Z" fill="#74A734"/>
<path d="M114.245 98.9768C105.41 82.7365 88.1088 72.729 69.6471 73.2021L114.245 98.9768Z" fill="#9DBE3B"/>
<path d="M93.7284 95.4799H110.063" stroke="#9DBE3B" stroke-width="1.67" stroke-miterlimit="10" stroke-linecap="round"/>
<path d="M76.7975 95.4799H89.2286" stroke="#9DBE3B" stroke-width="1.67" stroke-miterlimit="10" stroke-linecap="round"/>
<path d="M83.6191 78.0361L111.42 94.1016" stroke="#74A734" stroke-width="1.67" stroke-miterlimit="10" stroke-linecap="round"/>
<path d="M115.498 98.2774C131.258 88.6299 151.24 88.6299 167 98.2774H115.498Z" fill="#9DBE3B"/>
<path d="M115.745 98.9768C124.58 82.7365 141.881 72.729 160.343 73.2021L115.745 98.9768Z" fill="#74A734"/>
<path d="M115.93 98.9768C115.426 78.9412 126.255 60.1604 143.843 50.5849L115.93 98.9768Z" fill="#9DBE3B"/>
<path d="M127.333 95.4799H119.844" stroke="#74A734" stroke-width="1.67" stroke-miterlimit="10" stroke-linecap="round"/>
<path d="M153.192 95.4799H130.549" stroke="#74A734" stroke-width="1.67" stroke-miterlimit="10" stroke-linecap="round"/>
<path d="M137.453 83.189L118.58 94.1016" stroke="#9DBE3B" stroke-width="1.67" stroke-miterlimit="10" stroke-linecap="round"/>
<path d="M146.381 78.0361L140.217 81.5948" stroke="#9DBE3B" stroke-width="1.67" stroke-miterlimit="10" stroke-linecap="round"/>
<path d="M121.436 83.405L116.659 91.6743" stroke="#74A734" stroke-width="1.67" stroke-miterlimit="10" stroke-linecap="round"/>
<path d="M134.042 61.5489L124.354 78.3344" stroke="#74A734" stroke-width="1.67" stroke-miterlimit="10" stroke-linecap="round"/>
<path d="M114.995 97.2901C104.125 97.2901 95.3208 106.105 95.3208 116.986L114.995 97.2901Z" fill="#9DBE3B"/>
<path d="M114.995 97.2901C125.864 97.2901 134.669 106.105 134.669 116.986L114.995 97.2901Z" fill="#74A734"/>
<path d="M114.995 97.0226V164" stroke="#B59145" stroke-width="4.17" stroke-miterlimit="10"/>
<path d="M117.121 105.601H112.868V107.791H117.121V105.601Z" fill="#8C6741"/>
<path d="M117.121 110.918H112.868V113.109H117.121V110.918Z" fill="#8C6741"/>
<path d="M117.121 138.215H112.868V140.406H117.121V138.215Z" fill="#8C6741"/>
<path d="M117.121 143.697H112.868V145.888H117.121V143.697Z" fill="#8C6741"/>
<path d="M121.05 95.8781L114.998 89.8199L108.947 95.8781L114.998 101.936L121.05 95.8781Z" fill="#8C6741"/>
<path d="M101.732 153.56C99.0197 156.615 97.2835 160.236 96.5129 164.01H106.951C106.18 160.236 104.444 156.615 101.732 153.56Z" fill="#74A734"/>
<path d="M112.006 147.482C107.752 152.275 105.205 158.035 104.352 164H119.66C118.807 158.035 116.259 152.265 112.006 147.482Z" fill="#9DBE3B"/>
<path d="M122.279 142.195C116.69 148.49 113.454 156.142 112.56 164H131.998C131.094 156.132 127.868 148.49 122.279 142.195Z" fill="#74A734"/>
<path d="M134.063 150.341C130.539 154.311 128.371 159.073 127.539 164H140.577C139.755 159.063 137.587 154.311 134.053 150.341H134.063Z" fill="#9DBE3B"/>
<path d="M94.2425 150.341C90.7187 154.311 88.5509 159.073 87.7188 164H100.756C99.9341 159.063 97.7664 154.311 94.2322 150.341H94.2425Z" fill="#9DBE3B"/>
<path d="M122.279 159.115V164" stroke="#9DBE3B" stroke-width="1.67" stroke-miterlimit="10"/>
<path d="M122.279 147.482V159.114" stroke="#9DBE3B" stroke-width="1.67" stroke-miterlimit="10" stroke-linecap="round"/>
<path d="M125.649 152.059V161.058" stroke="#9DBE3B" stroke-width="1.67" stroke-miterlimit="10" stroke-linecap="round"/>
<path d="M118.365 153.56V161.058" stroke="#9DBE3B" stroke-width="1.67" stroke-miterlimit="10" stroke-linecap="round"/>
<path d="M134.063 160.277V164" stroke="#74A734" stroke-width="1.67" stroke-miterlimit="10"/>
<path d="M134.063 155.741V160.277" stroke="#74A734" stroke-width="1.67" stroke-miterlimit="10" stroke-linecap="round"/>
<path d="M94.2426 160.277V164" stroke="#74A734" stroke-width="1.67" stroke-miterlimit="10"/>
<path d="M94.2426 155.741V160.277" stroke="#74A734" stroke-width="1.67" stroke-miterlimit="10" stroke-linecap="round"/>
<path d="M112.006 158.271V164" stroke="#74A734" stroke-width="1.67" stroke-miterlimit="10"/>
<path d="M112.006 150.979V158.271" stroke="#74A734" stroke-width="1.67" stroke-miterlimit="10" stroke-linecap="round"/>
<path d="M158.224 158.612C163.613 147.819 160.093 134.64 150.049 128C144.66 138.793 148.18 151.973 158.224 158.612Z" fill="#9DBE3B"/>
<path d="M152.617 137.618L158.224 158.612" stroke="#74A734" stroke-width="1.67" stroke-miterlimit="10" stroke-linecap="round"/>
<path d="M158.224 158.612C152.834 147.819 156.355 134.64 166.399 128C171.788 138.793 168.268 151.973 158.224 158.612Z" fill="#74A734"/>
<path d="M162.515 142.527L161.762 145.36L161.218 147.4L158.224 158.612" stroke="#9DBE3B" stroke-width="1.67" stroke-miterlimit="10" stroke-linecap="round"/>
<path d="M165.056 133L163.259 139.74" stroke="#9DBE3B" stroke-width="1.67" stroke-miterlimit="10" stroke-linecap="round"/>
<path d="M178.439 142.036C167.27 142.036 158.215 151.125 158.215 162.338L178.439 142.036Z" fill="#9DBE3B"/>
<path d="M138 142.036C149.169 142.036 158.224 151.125 158.224 162.338L138 142.036Z" fill="#74A734"/>
<path d="M170.291 147.045L172.722 144.604" stroke="#74A734" stroke-width="1.67" stroke-miterlimit="10" stroke-linecap="round"/>
<path d="M161.917 155.461L168.476 148.876" stroke="#74A734" stroke-width="1.67" stroke-miterlimit="10" stroke-linecap="round"/>
<path d="M150.993 151.836L144.333 145.132" stroke="#9DBE3B" stroke-width="1.67" stroke-miterlimit="10" stroke-linecap="round"/>
<path d="M154.604 155.461L153.533 154.386" stroke="#9DBE3B" stroke-width="1.67" stroke-miterlimit="10" stroke-linecap="round"/>
<path d="M161.272 163.895H154.849V157.793C154.849 156.007 156.282 154.568 158.06 154.568C159.839 154.568 161.272 156.016 161.272 157.793V163.895Z" fill="#B59145"/>
</svg>
