<svg width="270" height="70" viewBox="0 0 270 70" fill="none" xmlns="http://www.w3.org/2000/svg">
<g clip-path="url(#clip0_3613_318803)">
<path fill-rule="evenodd" clip-rule="evenodd" d="M20 12C8.95431 12 0 20.9543 0 32V70H270V32C270 20.9543 261.046 12 250 12H20Z" fill="#914FFD"/>
<path d="M127 29.6421C127 31.2987 125.657 32.6421 124 32.6421C122.343 32.6421 121 31.2987 121 29.6421C121 27.9855 122.343 26.6421 124 26.6421C125.657 26.6421 127 27.9855 127 29.6421Z" fill="#211E1C"/>
<path d="M149.015 29.6421C149.015 31.2987 147.672 32.6421 146.015 32.6421C144.359 32.6421 143.015 31.2987 143.015 29.6421C143.015 27.9855 144.359 26.6421 146.015 26.6421C147.672 26.6421 149.015 27.9855 149.015 29.6421Z" fill="#211E1C"/>
<path d="M73 50C76.866 50 80 46.866 80 43C80 39.134 76.866 36 73 36C69.134 36 66 39.134 66 43C66 46.866 69.134 50 73 50Z" fill="#CBACFF"/>
<path d="M197 50C200.866 50 204 46.866 204 43C204 39.134 200.866 36 197 36C193.134 36 190 39.134 190 43C190 46.866 193.134 50 197 50Z" fill="#CBACFF"/>
<path d="M75 43C75 44.1061 74.102 45 73 45C71.898 45 71 44.102 71 43C71 41.898 71.898 41 73 41C74.102 41 75 41.898 75 43Z" fill="white"/>
<path d="M199 43C199 44.1061 198.102 45 197 45C195.898 45 195 44.102 195 43C195 41.898 195.898 41 197 41C198.102 41 199 41.898 199 43Z" fill="white"/>
<ellipse cx="6.5" cy="2.5" rx="6.5" ry="2.5" transform="matrix(1 0 0 -1 105 40)" fill="#FFCECE"/>
<ellipse cx="6.5" cy="2.5" rx="6.5" ry="2.5" transform="matrix(1 0 0 -1 152 40)" fill="#FFCECE"/>
<path d="M123.118 17.2693C120.422 18.9653 115.945 16.6973 113.118 12.2038C110.291 7.71018 110.186 2.69256 112.882 0.996597C115.578 -0.699367 120.055 1.56855 122.882 6.06213C125.708 10.5557 125.814 15.5733 123.118 17.2693Z" fill="#914FFD"/>
<path d="M117.134 11.367C118.574 13.6563 120.469 15.0468 121.365 14.4828C122.262 13.9187 121.823 11.6007 120.389 9.31978C118.954 7.03891 117.054 5.64 116.158 6.20402C115.261 6.76805 115.699 9.08612 117.134 11.367Z" fill="#FFCECE"/>
<path d="M146.881 17.2693C149.578 18.9653 154.055 16.6973 156.881 12.2038C159.708 7.71018 159.814 2.69256 157.117 0.996597C154.421 -0.699367 149.944 1.56855 147.118 6.06213C144.291 10.5557 144.185 15.5733 146.881 17.2693Z" fill="#914FFD"/>
<path d="M152.865 11.367C151.425 13.6563 149.531 15.0468 148.634 14.4828C147.737 13.9187 148.176 11.6007 149.611 9.31978C151.045 7.03891 152.945 5.64 153.842 6.20402C154.738 6.76805 154.3 9.08612 152.865 11.367Z" fill="#FFCECE"/>
<path d="M20 45C8.95435 45 0 53.9543 0 65V70H270V65C270 53.9543 261.046 45 250 45H20Z" fill="#CBACFF"/>
</g>
<defs>
<clipPath id="clip0_3613_318803">
<rect width="270" height="70" fill="white"/>
</clipPath>
</defs>
</svg>
