<svg width="189" height="160" viewBox="0 0 189 160" fill="none" xmlns="http://www.w3.org/2000/svg">
<path d="M96.8843 130.419C101.103 125.92 101.103 114.58 96.8843 110.081C92.6654 114.58 92.6654 125.92 96.8843 130.419Z" fill="#2E4315"/>
<path d="M82.9844 116.238C85.7698 119.471 87.4483 123.679 87.4483 128.288V135.765C87.4483 140.829 91.5402 144.937 96.5849 144.937V131.749C96.5849 123.788 90.6511 117.212 82.9844 116.238Z" fill="#2E4315"/>
<path d="M112.136 125.5C108.815 129.362 106.801 134.39 106.801 139.891V147.697C106.801 153.745 101.92 158.645 95.8954 158.645V144.017C95.8954 134.508 102.981 126.666 112.136 125.5Z" fill="#2E4315"/>
<path d="M80.6436 129.034C83.9643 132.896 85.9785 137.924 85.9785 143.425V148.061C85.9785 154.109 90.8598 159.009 96.8843 159.009V147.551C96.8843 138.042 89.7983 130.2 80.6436 129.034Z" fill="#3F4C18"/>
<path d="M107.173 117.977C104.388 121.211 102.709 125.419 102.709 130.027V141.804C102.709 146.868 98.6172 150.976 93.5726 150.976V133.488C93.5726 125.528 99.5064 118.952 107.173 117.977Z" fill="#3F4C18"/>
<path d="M96.8298 159C102.981 158.818 107.935 153.845 108.126 147.661C101.974 147.843 97.0204 152.816 96.8298 159Z" fill="#3F4C18"/>
<path d="M87.8748 151.495V144.855" stroke="#2E4315" stroke-width="1.67" stroke-miterlimit="10" stroke-linecap="round"/>
<path d="M91.2863 155.739V141.503" stroke="#2E4315" stroke-width="1.67" stroke-miterlimit="10" stroke-linecap="round"/>
<path d="M94.5525 155.33V147.305" stroke="#2E4315" stroke-width="1.67" stroke-miterlimit="10" stroke-linecap="round"/>
<path d="M100.749 148.981V142.405" stroke="#2E4315" stroke-width="1.67" stroke-miterlimit="10" stroke-linecap="round"/>
<path d="M97.7916 150.502V133.397" stroke="#2E4315" stroke-width="1.67" stroke-miterlimit="10" stroke-linecap="round"/>
<path d="M91.6946 131.457V124.936" stroke="#3F4C18" stroke-width="1.67" stroke-miterlimit="10" stroke-linecap="round"/>
<path d="M88.8274 128.406V123.023" stroke="#3F4C18" stroke-width="1.67" stroke-miterlimit="10" stroke-linecap="round"/>
<path d="M96.594 116.238V129.217" stroke="#3F4C18" stroke-width="1.67" stroke-miterlimit="10" stroke-linecap="round"/>
<path d="M105.041 145.693V136.658" stroke="#3F4C18" stroke-width="1.67" stroke-miterlimit="10" stroke-linecap="round"/>
<path d="M118.008 62.5361C108.409 62.5361 100.633 70.3418 100.633 79.9781L118.008 62.5361Z" fill="#3F4C18"/>
<path d="M118.008 62.5361C127.607 62.5361 135.383 70.3418 135.383 79.9781L118.008 62.5361Z" fill="#2E4315"/>
<path d="M117.999 64.8859C124.341 52.1801 120.203 36.6691 108.381 28.8452C102.039 41.551 106.177 57.0621 117.999 64.8859Z" fill="#3F4C18"/>
<path d="M111.403 40.1758L117.999 64.886" stroke="#2E4315" stroke-width="1.67" stroke-miterlimit="10" stroke-linecap="round"/>
<path d="M109.951 34.738L110.749 37.7255" stroke="#2E4315" stroke-width="1.67" stroke-miterlimit="10" stroke-linecap="round"/>
<path d="M118.008 64.8859C111.666 52.1801 115.803 36.6691 127.625 28.8452C133.967 41.551 129.83 57.0621 118.008 64.8859Z" fill="#2E4315"/>
<path d="M121.528 51.6882L117.999 64.8859" stroke="#3F4C18" stroke-width="1.67" stroke-miterlimit="10" stroke-linecap="round"/>
<path d="M123.062 45.9502L122.172 49.2929" stroke="#3F4C18" stroke-width="1.67" stroke-miterlimit="10" stroke-linecap="round"/>
<path d="M126.056 34.738L123.933 42.6712" stroke="#3F4C18" stroke-width="1.67" stroke-miterlimit="10" stroke-linecap="round"/>
<path d="M118.008 64.886C131.155 64.886 141.815 54.184 141.815 40.9863L118.008 64.886Z" fill="#3F4C18"/>
<path d="M118.008 64.886C104.861 64.886 94.2002 54.184 94.2002 40.9863L118.008 64.886Z" fill="#2E4315"/>
<path d="M118.008 65.5234V159" stroke="#38291A" stroke-width="4.17" stroke-miterlimit="10"/>
<path d="M127.598 58.9929L124.731 61.8711" stroke="#2E4315" stroke-width="1.67" stroke-miterlimit="10" stroke-linecap="round"/>
<path d="M137.46 49.0835L129.739 56.8436" stroke="#2E4315" stroke-width="1.67" stroke-miterlimit="10" stroke-linecap="round"/>
<path d="M106.866 57.5449L110.55 61.2428" stroke="#3F4C18" stroke-width="1.67" stroke-miterlimit="10" stroke-linecap="round"/>
<path d="M101.45 52.0981L105.015 55.6776" stroke="#3F4C18" stroke-width="1.67" stroke-miterlimit="10" stroke-linecap="round"/>
<path d="M98.4554 49.0835L99.7166 50.3586" stroke="#3F4C18" stroke-width="1.67" stroke-miterlimit="10" stroke-linecap="round"/>
<path d="M122.798 65.5235C122.798 62.8639 120.648 60.7053 117.999 60.7053C115.35 60.7053 113.199 62.8639 113.199 65.5235C113.199 68.1831 115.35 70.3417 117.999 70.3417C120.648 70.3417 122.798 68.1831 122.798 65.5235Z" fill="#38291A"/>
<path d="M119.886 73.1196H116.13V75.0597H119.886V73.1196Z" fill="#483A1C"/>
<path d="M119.886 77.8286H116.13V79.7686H119.886V77.8286Z" fill="#483A1C"/>
<path d="M119.886 98.2034H116.13V100.143H119.886V98.2034Z" fill="#483A1C"/>
<path d="M119.886 103.058H116.13V104.998H119.886V103.058Z" fill="#483A1C"/>
<path d="M119.886 125.236H116.13V127.176H119.886V125.236Z" fill="#483A1C"/>
<path d="M119.886 130.091H116.13V132.031H119.886V130.091Z" fill="#483A1C"/>
<path d="M119.886 134.135H116.13V136.075H119.886V134.135Z" fill="#483A1C"/>
<path d="M119.886 138.99H116.13V140.93H119.886V138.99Z" fill="#483A1C"/>
<path d="M120.716 65.5229L118.002 62.7986L115.288 65.5229L118.002 68.2472L120.716 65.5229Z" fill="#38291A"/>
<path d="M57.9979 113.095C53.5612 113.095 49.9683 109.488 49.9683 105.034V85.2517H66.0275V105.034C66.0275 109.488 62.4346 113.095 57.9979 113.095Z" fill="#38291A"/>
<path d="M95.9958 59.8129C79.4466 55.359 62.4346 65.2231 57.9979 81.8363L95.9958 59.8129Z" fill="#3F4C18"/>
<path d="M75.146 68.9482L71.9523 70.7972" stroke="#2E4315" stroke-width="1.67" stroke-miterlimit="10" stroke-linecap="round"/>
<path d="M88.5014 61.2065L84.7179 63.4016L83.0939 64.3397L81.3065 65.3781L77.7045 67.4638" stroke="#2E4315" stroke-width="1.67" stroke-miterlimit="10" stroke-linecap="round"/>
<path d="M95.2065 85.2518C92.2486 77.8469 85.0356 72.6189 76.5977 72.6189C68.1597 72.6189 60.9557 77.8469 57.9979 85.2518H95.2065Z" fill="#2E4315"/>
<path d="M20 59.8129C36.5492 55.359 53.5612 65.2231 57.9979 81.8363L20 59.8129Z" fill="#2E4315"/>
<path d="M36.4403 65.9973L44.7149 70.7973" stroke="#3F4C18" stroke-width="1.67" stroke-miterlimit="10" stroke-linecap="round"/>
<path d="M28.1748 61.2065L32.7113 63.8388" stroke="#3F4C18" stroke-width="1.67" stroke-miterlimit="10" stroke-linecap="round"/>
<path d="M20.7893 85.2518C23.7471 77.8469 30.9602 72.6189 39.3981 72.6189C47.836 72.6189 55.04 77.8469 58.0069 85.2518H20.7893Z" fill="#3F4C18"/>
<path d="M61.727 100.717H54.2689V159H61.727V100.717Z" fill="#38291A"/>
<path d="M57.9979 49.7302V85.2518H66.2362C69.5479 73.1198 66.7988 59.6763 57.9979 49.7302Z" fill="#3F4C18"/>
<path d="M57.9979 49.7302C49.197 59.6763 46.4479 73.1198 49.7595 85.2518H57.9979V49.7302Z" fill="#2E4315"/>
<path d="M56.3013 74.1946L57.6894 75.5881" stroke="#3F4C18" stroke-width="1.67" stroke-miterlimit="10" stroke-linecap="round"/>
<path d="M51.175 69.0486L53.8879 71.7719" stroke="#3F4C18" stroke-width="1.67" stroke-miterlimit="10" stroke-linecap="round"/>
<path d="M51.0208 77.3733L54.5139 80.8799" stroke="#3F4C18" stroke-width="1.67" stroke-miterlimit="10" stroke-linecap="round"/>
<path d="M54.8405 67.646L59.1501 71.9815" stroke="#3F4C18" stroke-width="1.67" stroke-miterlimit="10" stroke-linecap="round"/>
<path d="M55.5935 56.6069L59.1501 60.1773" stroke="#3F4C18" stroke-width="1.67" stroke-miterlimit="10" stroke-linecap="round"/>
<path d="M60.4839 78.7852L56.3013 82.9749" stroke="#2E4315" stroke-width="1.67" stroke-miterlimit="10" stroke-linecap="round"/>
<path d="M65.6465 73.5935L63.0607 76.1893" stroke="#2E4315" stroke-width="1.67" stroke-miterlimit="10" stroke-linecap="round"/>
<path d="M64.6575 69.686L56.3013 78.0746" stroke="#2E4315" stroke-width="1.67" stroke-miterlimit="10" stroke-linecap="round"/>
<path d="M61.9991 58.3557L56.3013 64.0756" stroke="#2E4315" stroke-width="1.67" stroke-miterlimit="10" stroke-linecap="round"/>
<path d="M61.9991 62.7275L57.2539 67.4911" stroke="#2E4315" stroke-width="1.67" stroke-miterlimit="10" stroke-linecap="round"/>
<path d="M26.1152 82.9749H51.175" stroke="#2E4315" stroke-width="1.67" stroke-miterlimit="10" stroke-linecap="round"/>
<path d="M65.6465 82.9749H89.2636" stroke="#3F4C18" stroke-width="1.67" stroke-miterlimit="10" stroke-linecap="round"/>
<path d="M71.181 82.9749L79.2288 74.896" stroke="#3F4C18" stroke-width="1.67" stroke-miterlimit="10" stroke-linecap="round"/>
<path d="M80.7531 82.9748L85.4257 78.2842" stroke="#3F4C18" stroke-width="1.67" stroke-miterlimit="10" stroke-linecap="round"/>
<path d="M65.6465 82.9747L71.3625 77.2366" stroke="#3F4C18" stroke-width="1.67" stroke-miterlimit="10" stroke-linecap="round"/>
<path d="M34.2446 76.1892L41.004 82.9747" stroke="#2E4315" stroke-width="1.67" stroke-miterlimit="10" stroke-linecap="round"/>
<path d="M30.8423 79.1311L34.5894 82.8836" stroke="#2E4315" stroke-width="1.67" stroke-miterlimit="10" stroke-linecap="round"/>
<path d="M42.9457 76.1802L49.8412 83.1023" stroke="#2E4315" stroke-width="1.67" stroke-miterlimit="10" stroke-linecap="round"/>
<path d="M61.99 94.9609H66.0275" stroke="#483A1C" stroke-width="1.67" stroke-miterlimit="10"/>
<path d="M49.9683 94.9609H59.5312" stroke="#483A1C" stroke-width="1.67" stroke-miterlimit="10"/>
<path d="M49.9683 98.2944H66.0275" stroke="#483A1C" stroke-width="1.67" stroke-miterlimit="10"/>
<path d="M56.1289 101.628H66.0276" stroke="#483A1C" stroke-width="1.67" stroke-miterlimit="10"/>
<path d="M49.9683 101.628H53.4886" stroke="#483A1C" stroke-width="1.67" stroke-miterlimit="10"/>
<path d="M63.6958 104.962H66.0276" stroke="#483A1C" stroke-width="1.67" stroke-miterlimit="10"/>
<path d="M57.644 104.962H60.4839" stroke="#483A1C" stroke-width="1.67" stroke-miterlimit="10"/>
<path d="M49.9683 104.962H55.3758" stroke="#483A1C" stroke-width="1.67" stroke-miterlimit="10"/>
<path d="M66.0275 85.2517H49.9683V92.0555H66.0275V85.2517Z" fill="#38291A"/>
<path d="M49.9683 88.6492H66.0275" stroke="#483A1C" stroke-width="1.67" stroke-miterlimit="10"/>
<path d="M60.9194 153.936L57.9979 156.869L55.0673 153.936" stroke="#483A1C" stroke-width="1.67" stroke-miterlimit="10" stroke-linecap="round"/>
<path d="M60.9194 147.888L57.9979 150.83L55.0673 147.888" stroke="#483A1C" stroke-width="1.67" stroke-miterlimit="10" stroke-linecap="round"/>
<path d="M60.9194 141.85L57.9979 144.782L55.0673 141.85" stroke="#483A1C" stroke-width="1.67" stroke-miterlimit="10" stroke-linecap="round"/>
<path d="M60.9194 135.802L57.9979 138.744L55.0673 135.802" stroke="#483A1C" stroke-width="1.67" stroke-miterlimit="10" stroke-linecap="round"/>
<path d="M60.9194 129.763L57.9979 132.696L55.0673 129.763" stroke="#483A1C" stroke-width="1.67" stroke-miterlimit="10" stroke-linecap="round"/>
<path d="M60.9194 123.715L57.9979 126.657L55.0673 123.715" stroke="#483A1C" stroke-width="1.67" stroke-miterlimit="10" stroke-linecap="round"/>
<path d="M60.9194 117.667L57.9979 120.609L55.0673 117.667" stroke="#483A1C" stroke-width="1.67" stroke-miterlimit="10" stroke-linecap="round"/>
<path d="M60.9194 111.629L57.9979 114.562L55.0673 111.629" stroke="#483A1C" stroke-width="1.67" stroke-miterlimit="10" stroke-linecap="round"/>
<path d="M157.834 39.9846H150.376V159H157.834V39.9846Z" fill="#38291A"/>
<path d="M157.834 42.2161H150.376V59.9131H157.834V42.2161Z" fill="#483A1C"/>
<path d="M157.027 151.595C155.412 153.216 152.79 153.216 151.175 151.595" stroke="#483A1C" stroke-width="1.67" stroke-miterlimit="10" stroke-linecap="round"/>
<path d="M157.027 145.32C155.412 146.941 152.79 146.941 151.175 145.32" stroke="#483A1C" stroke-width="1.67" stroke-miterlimit="10" stroke-linecap="round"/>
<path d="M157.027 139.044C155.412 140.665 152.79 140.665 151.175 139.044" stroke="#483A1C" stroke-width="1.67" stroke-miterlimit="10" stroke-linecap="round"/>
<path d="M157.027 132.778C155.412 134.399 152.79 134.399 151.175 132.778" stroke="#483A1C" stroke-width="1.67" stroke-miterlimit="10" stroke-linecap="round"/>
<path d="M157.027 126.502C155.412 128.124 152.79 128.124 151.175 126.502" stroke="#483A1C" stroke-width="1.67" stroke-miterlimit="10" stroke-linecap="round"/>
<path d="M157.027 120.227C155.412 121.848 152.79 121.848 151.175 120.227" stroke="#483A1C" stroke-width="1.67" stroke-miterlimit="10" stroke-linecap="round"/>
<path d="M157.027 113.951C155.412 115.573 152.79 115.573 151.175 113.951" stroke="#483A1C" stroke-width="1.67" stroke-miterlimit="10" stroke-linecap="round"/>
<path d="M157.027 107.685C155.412 109.306 152.79 109.306 151.175 107.685" stroke="#483A1C" stroke-width="1.67" stroke-miterlimit="10" stroke-linecap="round"/>
<path d="M157.027 101.41C155.412 103.031 152.79 103.031 151.175 101.41" stroke="#483A1C" stroke-width="1.67" stroke-miterlimit="10" stroke-linecap="round"/>
<path d="M157.027 95.134C155.412 96.7553 152.79 96.7553 151.175 95.134" stroke="#483A1C" stroke-width="1.67" stroke-miterlimit="10" stroke-linecap="round"/>
<path d="M157.027 88.8586C155.412 90.4799 152.79 90.4799 151.175 88.8586" stroke="#483A1C" stroke-width="1.67" stroke-miterlimit="10" stroke-linecap="round"/>
<path d="M157.027 82.5833C155.412 84.2045 152.79 84.2045 151.175 82.5833" stroke="#483A1C" stroke-width="1.67" stroke-miterlimit="10" stroke-linecap="round"/>
<path d="M157.027 76.3169C155.412 77.9381 152.79 77.9381 151.175 76.3169" stroke="#483A1C" stroke-width="1.67" stroke-miterlimit="10" stroke-linecap="round"/>
<path d="M157.027 70.0413C155.412 71.6625 152.79 71.6625 151.175 70.0413" stroke="#483A1C" stroke-width="1.67" stroke-miterlimit="10" stroke-linecap="round"/>
<path d="M157.027 63.7659C155.412 65.3871 152.79 65.3871 151.175 63.7659" stroke="#483A1C" stroke-width="1.67" stroke-miterlimit="10" stroke-linecap="round"/>
<path d="M171.045 0C158.243 3.44286 150.648 16.6496 154.078 29.492L171.045 0Z" fill="#2E4315"/>
<path d="M137.148 0C149.95 3.44286 157.544 16.6496 154.114 29.492L137.148 0Z" fill="#3F4C18"/>
<path d="M189 23.0708C182.558 23.5445 176.243 26.2496 171.317 31.1953L162.861 39.684C160.157 42.3982 155.766 42.3982 153.053 39.684C150.349 36.9698 150.349 32.5615 153.053 29.8381L157.816 25.0564C166.336 16.5039 179.727 15.8481 189 23.0708Z" fill="#2E4315"/>
<path d="M183.629 7.75096C178.611 9.5999 174.211 13.1794 171.407 18.2344L159.476 39.7022C157.943 42.4801 154.45 43.482 151.683 41.9336C148.915 40.3944 147.917 36.8878 149.46 34.1098L159.295 16.431C164.131 7.69631 174.628 4.11683 183.638 7.74185L183.629 7.75096Z" fill="#3F4C18"/>
<path d="M145.658 39.9846C147.854 42.0977 150.821 43.4002 154.105 43.4002C157.39 43.4002 160.357 42.0977 162.552 39.9846H145.658Z" fill="#3F4C18"/>
<path d="M124.573 7.75096C129.59 9.5999 133.99 13.1794 136.794 18.2344L144.397 31.8692C145.93 34.6472 149.424 35.649 152.191 34.1007C154.958 32.5614 155.956 29.0548 154.414 26.2768L148.915 16.431C144.08 7.69631 133.582 4.11683 124.573 7.74185V7.75096Z" fill="#2E4315"/>
<path d="M119.201 23.0708C125.643 23.5445 131.958 26.2496 136.885 31.1953L145.341 39.684C148.044 42.3982 152.436 42.3982 155.149 39.684C157.852 36.9698 157.852 32.5615 155.149 29.8381L150.385 25.0564C141.866 16.5039 128.474 15.8481 119.201 23.0708Z" fill="#3F4C18"/>
<path d="M148.589 55.5411L154.096 50.0034L159.613 55.5411" stroke="#3F4C18" stroke-width="1.67" stroke-miterlimit="10" stroke-linecap="round"/>
<path d="M148.589 50.5135L154.096 44.9849L159.613 50.5135" stroke="#3F4C18" stroke-width="1.67" stroke-miterlimit="10" stroke-linecap="round"/>
<path d="M148.589 45.4859L154.096 39.9573L159.613 45.4859" stroke="#3F4C18" stroke-width="1.67" stroke-miterlimit="10" stroke-linecap="round"/>
<path d="M147.418 37.9625L140.369 30.5576" stroke="#2E4315" stroke-width="1.67" stroke-miterlimit="10" stroke-linecap="round"/>
<path d="M151.311 39.9845L145.921 30.5576" stroke="#2E4315" stroke-width="1.67" stroke-miterlimit="10" stroke-linecap="round"/>
<path d="M152.155 34.1189L151.474 30.5576" stroke="#2E4315" stroke-width="1.67" stroke-miterlimit="10" stroke-linecap="round"/>
<path d="M153.271 39.9846L152.744 37.1975" stroke="#2E4315" stroke-width="1.67" stroke-miterlimit="10" stroke-linecap="round"/>
<path d="M155.239 39.9845L157.036 30.5576" stroke="#2E4315" stroke-width="1.67" stroke-miterlimit="10" stroke-linecap="round"/>
<path d="M157.199 39.9845L162.589 30.5576" stroke="#2E4315" stroke-width="1.67" stroke-miterlimit="10" stroke-linecap="round"/>
<path d="M159.168 39.9846L166.172 32.6252" stroke="#3F4C18" stroke-width="1.67" stroke-miterlimit="10" stroke-linecap="round"/>
<path d="M136.031 153.717C141.421 142.924 137.901 129.745 127.857 123.105C122.467 133.898 125.988 147.077 136.031 153.717Z" fill="#3F4C18"/>
<path d="M130.424 132.723L136.031 153.717" stroke="#2E4315" stroke-width="1.67" stroke-miterlimit="10" stroke-linecap="round"/>
<path d="M136.031 153.717C130.642 142.924 134.162 129.745 144.206 123.105C149.596 133.898 146.075 147.077 136.031 153.717Z" fill="#2E4315"/>
<path d="M140.323 137.632L139.57 140.465L139.026 142.505L136.031 153.717" stroke="#3F4C18" stroke-width="1.67" stroke-miterlimit="10" stroke-linecap="round"/>
<path d="M142.863 128.105L141.067 134.845" stroke="#3F4C18" stroke-width="1.67" stroke-miterlimit="10" stroke-linecap="round"/>
<path d="M156.246 137.141C145.077 137.141 136.022 146.23 136.022 157.443L156.246 137.141Z" fill="#3F4C18"/>
<path d="M115.808 137.141C126.977 137.141 136.031 146.23 136.031 157.443L115.808 137.141Z" fill="#2E4315"/>
<path d="M148.099 142.15L150.53 139.709" stroke="#2E4315" stroke-width="1.67" stroke-miterlimit="10" stroke-linecap="round"/>
<path d="M139.724 150.566L146.284 143.981" stroke="#2E4315" stroke-width="1.67" stroke-miterlimit="10" stroke-linecap="round"/>
<path d="M128.8 146.941L122.141 140.237" stroke="#3F4C18" stroke-width="1.67" stroke-miterlimit="10" stroke-linecap="round"/>
<path d="M132.411 150.566L131.341 149.491" stroke="#3F4C18" stroke-width="1.67" stroke-miterlimit="10" stroke-linecap="round"/>
<path d="M139.08 159H132.656V152.898C132.656 151.112 134.09 149.673 135.868 149.673C137.646 149.673 139.08 151.122 139.08 152.898V159Z" fill="#38291A"/>
<path d="M78.3796 152.998C76.7283 152.998 75.3945 151.659 75.3945 150.001V138.161C75.3945 136.503 76.7283 135.164 78.3796 135.164C80.0309 135.164 81.3646 136.503 81.3646 138.161V150.001C81.3646 151.659 80.0309 152.998 78.3796 152.998Z" fill="#2E4315"/>
<path d="M75.3946 143.89C73.7433 143.89 72.4095 142.551 72.4095 140.893V122.103C72.4095 120.445 73.7433 119.106 75.3946 119.106C77.0459 119.106 78.3796 120.445 78.3796 122.103V140.893C78.3796 142.551 77.0459 143.89 75.3946 143.89Z" fill="#3F4C18"/>
<path d="M73.961 134.053C73.961 132.398 72.6266 131.056 70.9805 131.056C69.3344 131.056 68 132.398 68 134.053V147.569C68 149.224 69.3344 150.566 70.9805 150.566C72.6266 150.566 73.961 149.224 73.961 147.569V134.053Z" fill="#2E4315"/>
<path d="M70.985 136.075V148.626C70.985 151.941 72.6454 155.038 75.3945 156.878" stroke="#3F4C18" stroke-width="1.67" stroke-miterlimit="10" stroke-linecap="round"/>
<path d="M78.3796 146.467V151.294C78.3796 153.535 77.2636 155.63 75.3945 156.868" stroke="#3F4C18" stroke-width="1.67" stroke-miterlimit="10" stroke-linecap="round"/>
<path d="M75.3945 132.422V159" stroke="#3F4C18" stroke-width="1.67" stroke-miterlimit="10"/>
<path d="M22.2388 141.367L16.4638 127.58C15.4921 125.262 16.0238 122.59 17.8204 120.809C20.2679 118.382 24.2279 118.382 26.6754 120.809C28.4721 122.59 29.0038 125.262 28.0321 127.58L22.2571 141.367H22.2388Z" fill="#3F4C18"/>
<path d="M22.2383 147.22V155" stroke="#2E4315" stroke-width="1.67" stroke-miterlimit="10"/>
<path d="M22.2383 130.188V149.447" stroke="#2E4315" stroke-width="1.67" stroke-miterlimit="10" stroke-linecap="round"/>
<path d="M17.9852 142.503L7.11353 134.251C5.2802 132.86 4.4827 130.515 5.07853 128.307C5.89437 125.298 9.01103 123.508 12.0452 124.317C14.2727 124.908 15.9135 126.771 16.216 129.034L17.9852 142.494V142.503Z" fill="#3F4C18"/>
<path d="M12.5312 133.133L22.2388 149.82" stroke="#2E4315" stroke-width="1.67" stroke-miterlimit="10" stroke-linecap="round"/>
<path d="M14.8588 145.593L3.96875 144.185C2.13542 143.948 0.632085 142.64 0.146252 140.867H0.155418C-0.495415 138.45 0.943752 135.969 3.38209 135.323C5.16959 134.851 7.06709 135.487 8.18542 136.941L14.8588 145.584V145.593Z" fill="#3F4C18"/>
<path d="M5.09668 140.004L22.2383 149.82" stroke="#2E4315" stroke-width="1.67" stroke-miterlimit="10" stroke-linecap="round"/>
<path d="M29.6172 145.593L40.1497 144.23C41.9189 144.003 43.3855 142.73 43.8439 141.022C44.4764 138.686 43.0739 136.287 40.718 135.659C38.9947 135.205 37.1522 135.823 36.0705 137.232L29.6172 145.593Z" fill="#3F4C18"/>
<path d="M22.2383 149.82L39.3891 140.004" stroke="#2E4315" stroke-width="1.67" stroke-miterlimit="10" stroke-linecap="round"/>
<path d="M26.501 142.503L36.7585 134.714C38.4818 133.406 39.2426 131.188 38.6835 129.107C37.9135 126.262 34.971 124.58 32.1018 125.344C30.0026 125.898 28.4443 127.662 28.1693 129.797L26.501 142.503Z" fill="#3F4C18"/>
<path d="M22.2383 149.82L32.1383 132.815" stroke="#2E4315" stroke-width="1.67" stroke-miterlimit="10" stroke-linecap="round"/>
</svg>
