<svg width="1198" height="155" viewBox="0 0 1198 155" fill="none" xmlns="http://www.w3.org/2000/svg">
<g clip-path="url(#clip0_4684_41476)">
<rect width="1198" height="117" fill="#99CC4C"/>
<rect width="1198" height="117" fill="black" fill-opacity="0.6"/>
<path d="M0 114H1198V155H0V114Z" fill="#A5663C"/>
<path d="M0 114H1198V155H0V114Z" fill="#A3CDF5"/>
<path d="M0 114H1198V155H0V114Z" fill="#2A353F"/>
<path d="M0 100H1198V141H0V100Z" fill="#A5663C"/>
<path d="M0 100H1198V141H0V100Z" fill="black" fill-opacity="0.6"/>
<rect y="79" width="1198" height="29" fill="#A5663C"/>
<rect y="79" width="1198" height="29" fill="black" fill-opacity="0.6"/>
<path d="M132 60C132 81.5391 99.3168 99 59 99C18.6832 99 -14 81.5391 -14 60C-14 38.4609 18.6832 21 59 21C99.3168 21 132 38.4609 132 60Z" fill="#8AB746"/>
<path d="M132 60C132 81.5391 99.3168 99 59 99C18.6832 99 -14 81.5391 -14 60C-14 38.4609 18.6832 21 59 21C99.3168 21 132 38.4609 132 60Z" fill="black" fill-opacity="0.6"/>
<path d="M649 60C649 81.5391 681.683 99 722 99C762.317 99 795 81.5391 795 60C795 38.4609 762.317 21 722 21C681.683 21 649 38.4609 649 60Z" fill="#8AB746"/>
<path d="M649 60C649 81.5391 681.683 99 722 99C762.317 99 795 81.5391 795 60C795 38.4609 762.317 21 722 21C681.683 21 649 38.4609 649 60Z" fill="black" fill-opacity="0.6"/>
<path d="M152 63.5C152 79.2401 139.24 92 123.5 92C107.76 92 95 79.2401 95 63.5C95 47.7599 107.76 35 123.5 35C139.24 35 152 47.7599 152 63.5Z" fill="#8AB746"/>
<path d="M152 63.5C152 79.2401 139.24 92 123.5 92C107.76 92 95 79.2401 95 63.5C95 47.7599 107.76 35 123.5 35C139.24 35 152 47.7599 152 63.5Z" fill="black" fill-opacity="0.6"/>
<path d="M629 63.5C629 79.2401 641.76 92 657.5 92C673.24 92 686 79.2401 686 63.5C686 47.7599 673.24 35 657.5 35C641.76 35 629 47.7599 629 63.5Z" fill="#8AB746"/>
<path d="M629 63.5C629 79.2401 641.76 92 657.5 92C673.24 92 686 79.2401 686 63.5C686 47.7599 673.24 35 657.5 35C641.76 35 629 47.7599 629 63.5Z" fill="black" fill-opacity="0.6"/>
<path d="M177 77.5C177 87.165 169.165 95 159.5 95C149.835 95 142 87.165 142 77.5C142 67.835 149.835 60 159.5 60C169.165 60 177 67.835 177 77.5Z" fill="#8AB746"/>
<path d="M177 77.5C177 87.165 169.165 95 159.5 95C149.835 95 142 87.165 142 77.5C142 67.835 149.835 60 159.5 60C169.165 60 177 67.835 177 77.5Z" fill="black" fill-opacity="0.6"/>
<path d="M604 77.5C604 87.165 611.835 95 621.5 95C631.165 95 639 87.165 639 77.5C639 67.835 631.165 60 621.5 60C611.835 60 604 67.835 604 77.5Z" fill="#8AB746"/>
<path d="M604 77.5C604 87.165 611.835 95 621.5 95C631.165 95 639 87.165 639 77.5C639 67.835 631.165 60 621.5 60C611.835 60 604 67.835 604 77.5Z" fill="black" fill-opacity="0.6"/>
<path d="M333 77.5C333 87.165 318.897 95 301.5 95C284.103 95 270 87.165 270 77.5C270 67.835 284.103 60 301.5 60C318.897 60 333 67.835 333 77.5Z" fill="#8AB746"/>
<path d="M333 77.5C333 87.165 318.897 95 301.5 95C284.103 95 270 87.165 270 77.5C270 67.835 284.103 60 301.5 60C318.897 60 333 67.835 333 77.5Z" fill="black" fill-opacity="0.6"/>
<path d="M920 77.5C920 87.165 905.897 95 888.5 95C871.103 95 857 87.165 857 77.5C857 67.835 871.103 60 888.5 60C905.897 60 920 67.835 920 77.5Z" fill="#8AB746"/>
<path d="M920 77.5C920 87.165 905.897 95 888.5 95C871.103 95 857 87.165 857 77.5C857 67.835 871.103 60 888.5 60C905.897 60 920 67.835 920 77.5Z" fill="black" fill-opacity="0.6"/>
<path d="M448 77.5C448 87.165 462.103 95 479.5 95C496.897 95 511 87.165 511 77.5C511 67.835 496.897 60 479.5 60C462.103 60 448 67.835 448 77.5Z" fill="#8AB746"/>
<path d="M448 77.5C448 87.165 462.103 95 479.5 95C496.897 95 511 87.165 511 77.5C511 67.835 496.897 60 479.5 60C462.103 60 448 67.835 448 77.5Z" fill="black" fill-opacity="0.6"/>
<path d="M1035 77.5C1035 87.165 1049.1 95 1066.5 95C1083.9 95 1098 87.165 1098 77.5C1098 67.835 1083.9 60 1066.5 60C1049.1 60 1035 67.835 1035 77.5Z" fill="#8AB746"/>
<path d="M1035 77.5C1035 87.165 1049.1 95 1066.5 95C1083.9 95 1098 87.165 1098 77.5C1098 67.835 1083.9 60 1066.5 60C1049.1 60 1035 67.835 1035 77.5Z" fill="black" fill-opacity="0.6"/>
<path d="M279 76.5C279 85.6127 271.613 93 262.5 93C253.387 93 246 85.6127 246 76.5C246 67.3873 253.387 60 262.5 60C271.613 60 279 67.3873 279 76.5Z" fill="#8AB746"/>
<path d="M279 76.5C279 85.6127 271.613 93 262.5 93C253.387 93 246 85.6127 246 76.5C246 67.3873 253.387 60 262.5 60C271.613 60 279 67.3873 279 76.5Z" fill="black" fill-opacity="0.6"/>
<path d="M866 76.5C866 85.6127 858.613 93 849.5 93C840.387 93 833 85.6127 833 76.5C833 67.3873 840.387 60 849.5 60C858.613 60 866 67.3873 866 76.5Z" fill="#8AB746"/>
<path d="M866 76.5C866 85.6127 858.613 93 849.5 93C840.387 93 833 85.6127 833 76.5C833 67.3873 840.387 60 849.5 60C858.613 60 866 67.3873 866 76.5Z" fill="black" fill-opacity="0.6"/>
<path d="M502 76.5C502 85.6127 509.387 93 518.5 93C527.613 93 535 85.6127 535 76.5C535 67.3873 527.613 60 518.5 60C509.387 60 502 67.3873 502 76.5Z" fill="#8AB746"/>
<path d="M502 76.5C502 85.6127 509.387 93 518.5 93C527.613 93 535 85.6127 535 76.5C535 67.3873 527.613 60 518.5 60C509.387 60 502 67.3873 502 76.5Z" fill="black" fill-opacity="0.6"/>
<path d="M1089 76.5C1089 85.6127 1096.39 93 1105.5 93C1114.61 93 1122 85.6127 1122 76.5C1122 67.3873 1114.61 60 1105.5 60C1096.39 60 1089 67.3873 1089 76.5Z" fill="#8AB746"/>
<path d="M1089 76.5C1089 85.6127 1096.39 93 1105.5 93C1114.61 93 1122 85.6127 1122 76.5C1122 67.3873 1114.61 60 1105.5 60C1096.39 60 1089 67.3873 1089 76.5Z" fill="black" fill-opacity="0.6"/>
<path d="M257 74.5C257 88.031 237.077 99 212.5 99C187.923 99 168 88.031 168 74.5C168 60.969 187.923 50 212.5 50C237.077 50 257 60.969 257 74.5Z" fill="#8AB746"/>
<path d="M257 74.5C257 88.031 237.077 99 212.5 99C187.923 99 168 88.031 168 74.5C168 60.969 187.923 50 212.5 50C237.077 50 257 60.969 257 74.5Z" fill="black" fill-opacity="0.6"/>
<path d="M844 74.5C844 88.031 824.077 99 799.5 99C774.923 99 755 88.031 755 74.5C755 60.969 774.923 50 799.5 50C824.077 50 844 60.969 844 74.5Z" fill="#8AB746"/>
<path d="M844 74.5C844 88.031 824.077 99 799.5 99C774.923 99 755 88.031 755 74.5C755 60.969 774.923 50 799.5 50C824.077 50 844 60.969 844 74.5Z" fill="black" fill-opacity="0.6"/>
<path d="M524 74.5C524 88.031 543.923 99 568.5 99C593.077 99 613 88.031 613 74.5C613 60.969 593.077 50 568.5 50C543.923 50 524 60.969 524 74.5Z" fill="#8AB746"/>
<path d="M524 74.5C524 88.031 543.923 99 568.5 99C593.077 99 613 88.031 613 74.5C613 60.969 593.077 50 568.5 50C543.923 50 524 60.969 524 74.5Z" fill="black" fill-opacity="0.6"/>
<path d="M1111 74.5C1111 88.031 1130.92 99 1155.5 99C1180.08 99 1200 88.031 1200 74.5C1200 60.969 1180.08 50 1155.5 50C1130.92 50 1111 60.969 1111 74.5Z" fill="#8AB746"/>
<path d="M1111 74.5C1111 88.031 1130.92 99 1155.5 99C1180.08 99 1200 88.031 1200 74.5C1200 60.969 1180.08 50 1155.5 50C1130.92 50 1111 60.969 1111 74.5Z" fill="black" fill-opacity="0.6"/>
<path d="M404 74.5C404 88.031 384.077 99 359.5 99C334.923 99 315 88.031 315 74.5C315 60.969 334.923 50 359.5 50C384.077 50 404 60.969 404 74.5Z" fill="#8AB746"/>
<path d="M404 74.5C404 88.031 384.077 99 359.5 99C334.923 99 315 88.031 315 74.5C315 60.969 334.923 50 359.5 50C384.077 50 404 60.969 404 74.5Z" fill="black" fill-opacity="0.6"/>
<path d="M991 74.5C991 88.031 971.077 99 946.5 99C921.923 99 902 88.031 902 74.5C902 60.969 921.923 50 946.5 50C971.077 50 991 60.969 991 74.5Z" fill="#8AB746"/>
<path d="M991 74.5C991 88.031 971.077 99 946.5 99C921.923 99 902 88.031 902 74.5C902 60.969 921.923 50 946.5 50C971.077 50 991 60.969 991 74.5Z" fill="black" fill-opacity="0.6"/>
<path d="M377 74.5C377 88.031 396.923 99 421.5 99C446.077 99 466 88.031 466 74.5C466 60.969 446.077 50 421.5 50C396.923 50 377 60.969 377 74.5Z" fill="#8AB746"/>
<path d="M377 74.5C377 88.031 396.923 99 421.5 99C446.077 99 466 88.031 466 74.5C466 60.969 446.077 50 421.5 50C396.923 50 377 60.969 377 74.5Z" fill="black" fill-opacity="0.6"/>
<path d="M964 74.5C964 88.031 983.923 99 1008.5 99C1033.08 99 1053 88.031 1053 74.5C1053 60.969 1033.08 50 1008.5 50C983.923 50 964 60.969 964 74.5Z" fill="#8AB746"/>
<path d="M964 74.5C964 88.031 983.923 99 1008.5 99C1033.08 99 1053 88.031 1053 74.5C1053 60.969 1033.08 50 1008.5 50C983.923 50 964 60.969 964 74.5Z" fill="black" fill-opacity="0.6"/>
<path d="M132 52C132 73.5391 99.3168 91 59 91C18.6832 91 -14 73.5391 -14 52C-14 30.4609 18.6832 13 59 13C99.3168 13 132 30.4609 132 52Z" fill="#99CC4C"/>
<path d="M132 52C132 73.5391 99.3168 91 59 91C18.6832 91 -14 73.5391 -14 52C-14 30.4609 18.6832 13 59 13C99.3168 13 132 30.4609 132 52Z" fill="black" fill-opacity="0.6"/>
<path d="M649 52C649 73.5391 681.683 91 722 91C762.317 91 795 73.5391 795 52C795 30.4609 762.317 13 722 13C681.683 13 649 30.4609 649 52Z" fill="#99CC4C"/>
<path d="M649 52C649 73.5391 681.683 91 722 91C762.317 91 795 73.5391 795 52C795 30.4609 762.317 13 722 13C681.683 13 649 30.4609 649 52Z" fill="black" fill-opacity="0.6"/>
<path d="M152 55.5C152 71.2401 139.24 84 123.5 84C107.76 84 95 71.2401 95 55.5C95 39.7599 107.76 27 123.5 27C139.24 27 152 39.7599 152 55.5Z" fill="#99CC4C"/>
<path d="M152 55.5C152 71.2401 139.24 84 123.5 84C107.76 84 95 71.2401 95 55.5C95 39.7599 107.76 27 123.5 27C139.24 27 152 39.7599 152 55.5Z" fill="black" fill-opacity="0.6"/>
<path d="M629 55.5C629 71.2401 641.76 84 657.5 84C673.24 84 686 71.2401 686 55.5C686 39.7599 673.24 27 657.5 27C641.76 27 629 39.7599 629 55.5Z" fill="#99CC4C"/>
<path d="M629 55.5C629 71.2401 641.76 84 657.5 84C673.24 84 686 71.2401 686 55.5C686 39.7599 673.24 27 657.5 27C641.76 27 629 39.7599 629 55.5Z" fill="black" fill-opacity="0.6"/>
<path d="M177 69.5C177 79.165 169.165 87 159.5 87C149.835 87 142 79.165 142 69.5C142 59.835 149.835 52 159.5 52C169.165 52 177 59.835 177 69.5Z" fill="#99CC4C"/>
<path d="M177 69.5C177 79.165 169.165 87 159.5 87C149.835 87 142 79.165 142 69.5C142 59.835 149.835 52 159.5 52C169.165 52 177 59.835 177 69.5Z" fill="black" fill-opacity="0.6"/>
<path d="M604 69.5C604 79.165 611.835 87 621.5 87C631.165 87 639 79.165 639 69.5C639 59.835 631.165 52 621.5 52C611.835 52 604 59.835 604 69.5Z" fill="#99CC4C"/>
<path d="M604 69.5C604 79.165 611.835 87 621.5 87C631.165 87 639 79.165 639 69.5C639 59.835 631.165 52 621.5 52C611.835 52 604 59.835 604 69.5Z" fill="black" fill-opacity="0.6"/>
<path d="M333 69.5C333 79.165 318.897 87 301.5 87C284.103 87 270 79.165 270 69.5C270 59.835 284.103 52 301.5 52C318.897 52 333 59.835 333 69.5Z" fill="#99CC4C"/>
<path d="M333 69.5C333 79.165 318.897 87 301.5 87C284.103 87 270 79.165 270 69.5C270 59.835 284.103 52 301.5 52C318.897 52 333 59.835 333 69.5Z" fill="black" fill-opacity="0.6"/>
<path d="M920 69.5C920 79.165 905.897 87 888.5 87C871.103 87 857 79.165 857 69.5C857 59.835 871.103 52 888.5 52C905.897 52 920 59.835 920 69.5Z" fill="#99CC4C"/>
<path d="M920 69.5C920 79.165 905.897 87 888.5 87C871.103 87 857 79.165 857 69.5C857 59.835 871.103 52 888.5 52C905.897 52 920 59.835 920 69.5Z" fill="black" fill-opacity="0.6"/>
<path d="M448 69.5C448 79.165 462.103 87 479.5 87C496.897 87 511 79.165 511 69.5C511 59.835 496.897 52 479.5 52C462.103 52 448 59.835 448 69.5Z" fill="#99CC4C"/>
<path d="M448 69.5C448 79.165 462.103 87 479.5 87C496.897 87 511 79.165 511 69.5C511 59.835 496.897 52 479.5 52C462.103 52 448 59.835 448 69.5Z" fill="black" fill-opacity="0.6"/>
<path d="M1035 69.5C1035 79.165 1049.1 87 1066.5 87C1083.9 87 1098 79.165 1098 69.5C1098 59.835 1083.9 52 1066.5 52C1049.1 52 1035 59.835 1035 69.5Z" fill="#99CC4C"/>
<path d="M1035 69.5C1035 79.165 1049.1 87 1066.5 87C1083.9 87 1098 79.165 1098 69.5C1098 59.835 1083.9 52 1066.5 52C1049.1 52 1035 59.835 1035 69.5Z" fill="black" fill-opacity="0.6"/>
<path d="M279 68.5C279 77.6127 271.613 85 262.5 85C253.387 85 246 77.6127 246 68.5C246 59.3873 253.387 52 262.5 52C271.613 52 279 59.3873 279 68.5Z" fill="#99CC4C"/>
<path d="M279 68.5C279 77.6127 271.613 85 262.5 85C253.387 85 246 77.6127 246 68.5C246 59.3873 253.387 52 262.5 52C271.613 52 279 59.3873 279 68.5Z" fill="black" fill-opacity="0.6"/>
<path d="M866 68.5C866 77.6127 858.613 85 849.5 85C840.387 85 833 77.6127 833 68.5C833 59.3873 840.387 52 849.5 52C858.613 52 866 59.3873 866 68.5Z" fill="#99CC4C"/>
<path d="M866 68.5C866 77.6127 858.613 85 849.5 85C840.387 85 833 77.6127 833 68.5C833 59.3873 840.387 52 849.5 52C858.613 52 866 59.3873 866 68.5Z" fill="black" fill-opacity="0.6"/>
<path d="M502 68.5C502 77.6127 509.387 85 518.5 85C527.613 85 535 77.6127 535 68.5C535 59.3873 527.613 52 518.5 52C509.387 52 502 59.3873 502 68.5Z" fill="#99CC4C"/>
<path d="M502 68.5C502 77.6127 509.387 85 518.5 85C527.613 85 535 77.6127 535 68.5C535 59.3873 527.613 52 518.5 52C509.387 52 502 59.3873 502 68.5Z" fill="black" fill-opacity="0.6"/>
<path d="M1089 68.5C1089 77.6127 1096.39 85 1105.5 85C1114.61 85 1122 77.6127 1122 68.5C1122 59.3873 1114.61 52 1105.5 52C1096.39 52 1089 59.3873 1089 68.5Z" fill="#99CC4C"/>
<path d="M1089 68.5C1089 77.6127 1096.39 85 1105.5 85C1114.61 85 1122 77.6127 1122 68.5C1122 59.3873 1114.61 52 1105.5 52C1096.39 52 1089 59.3873 1089 68.5Z" fill="black" fill-opacity="0.6"/>
<path d="M257 66.5C257 80.031 237.077 91 212.5 91C187.923 91 168 80.031 168 66.5C168 52.969 187.923 42 212.5 42C237.077 42 257 52.969 257 66.5Z" fill="#99CC4C"/>
<path d="M257 66.5C257 80.031 237.077 91 212.5 91C187.923 91 168 80.031 168 66.5C168 52.969 187.923 42 212.5 42C237.077 42 257 52.969 257 66.5Z" fill="black" fill-opacity="0.6"/>
<path d="M844 66.5C844 80.031 824.077 91 799.5 91C774.923 91 755 80.031 755 66.5C755 52.969 774.923 42 799.5 42C824.077 42 844 52.969 844 66.5Z" fill="#99CC4C"/>
<path d="M844 66.5C844 80.031 824.077 91 799.5 91C774.923 91 755 80.031 755 66.5C755 52.969 774.923 42 799.5 42C824.077 42 844 52.969 844 66.5Z" fill="black" fill-opacity="0.6"/>
<path d="M524 66.5C524 80.031 543.923 91 568.5 91C593.077 91 613 80.031 613 66.5C613 52.969 593.077 42 568.5 42C543.923 42 524 52.969 524 66.5Z" fill="#99CC4C"/>
<path d="M524 66.5C524 80.031 543.923 91 568.5 91C593.077 91 613 80.031 613 66.5C613 52.969 593.077 42 568.5 42C543.923 42 524 52.969 524 66.5Z" fill="black" fill-opacity="0.6"/>
<path d="M1111 66.5C1111 80.031 1130.92 91 1155.5 91C1180.08 91 1200 80.031 1200 66.5C1200 52.969 1180.08 42 1155.5 42C1130.92 42 1111 52.969 1111 66.5Z" fill="#99CC4C"/>
<path d="M1111 66.5C1111 80.031 1130.92 91 1155.5 91C1180.08 91 1200 80.031 1200 66.5C1200 52.969 1180.08 42 1155.5 42C1130.92 42 1111 52.969 1111 66.5Z" fill="black" fill-opacity="0.6"/>
<path d="M404 66.5C404 80.031 384.077 91 359.5 91C334.923 91 315 80.031 315 66.5C315 52.969 334.923 42 359.5 42C384.077 42 404 52.969 404 66.5Z" fill="#99CC4C"/>
<path d="M404 66.5C404 80.031 384.077 91 359.5 91C334.923 91 315 80.031 315 66.5C315 52.969 334.923 42 359.5 42C384.077 42 404 52.969 404 66.5Z" fill="black" fill-opacity="0.6"/>
<path d="M991 66.5C991 80.031 971.077 91 946.5 91C921.923 91 902 80.031 902 66.5C902 52.969 921.923 42 946.5 42C971.077 42 991 52.969 991 66.5Z" fill="#99CC4C"/>
<path d="M991 66.5C991 80.031 971.077 91 946.5 91C921.923 91 902 80.031 902 66.5C902 52.969 921.923 42 946.5 42C971.077 42 991 52.969 991 66.5Z" fill="black" fill-opacity="0.6"/>
<path d="M377 66.5C377 80.031 396.923 91 421.5 91C446.077 91 466 80.031 466 66.5C466 52.969 446.077 42 421.5 42C396.923 42 377 52.969 377 66.5Z" fill="#99CC4C"/>
<path d="M377 66.5C377 80.031 396.923 91 421.5 91C446.077 91 466 80.031 466 66.5C466 52.969 446.077 42 421.5 42C396.923 42 377 52.969 377 66.5Z" fill="black" fill-opacity="0.6"/>
<path d="M964 66.5C964 80.031 983.923 91 1008.5 91C1033.08 91 1053 80.031 1053 66.5C1053 52.969 1033.08 42 1008.5 42C983.923 42 964 52.969 964 66.5Z" fill="#99CC4C"/>
<path d="M964 66.5C964 80.031 983.923 91 1008.5 91C1033.08 91 1053 80.031 1053 66.5C1053 52.969 1033.08 42 1008.5 42C983.923 42 964 52.969 964 66.5Z" fill="black" fill-opacity="0.6"/>
</g>
<defs>
<clipPath id="clip0_4684_41476">
<rect width="1198" height="155" fill="white"/>
</clipPath>
</defs>
</svg>
