<svg width="385" height="313" viewBox="0 0 385 313" fill="none" xmlns="http://www.w3.org/2000/svg">
<g clip-path="url(#clip0_4684_41401)">
<path d="M334.855 229.328C334.855 229.939 334.74 230.709 334.524 231.594C319.62 239.077 297.073 243.844 271.841 243.844C240.163 243.844 212.716 236.328 199.314 225.363C199.174 223.34 199.378 221.176 199.969 218.866C200.141 218.21 200.339 217.555 200.555 216.912C211.984 183.623 289.049 176.839 307.44 185.328C314.001 188.357 319.346 193.506 323.508 199.322C325.869 202.619 327.848 206.125 329.465 209.581C333.143 217.466 334.906 225.09 334.848 229.328H334.855Z" fill="#9E8A6F"/>
<path d="M334.855 229.328C334.855 229.939 334.74 230.709 334.524 231.594C319.62 239.077 297.073 243.844 271.841 243.844C240.163 243.844 212.716 236.328 199.314 225.363C199.174 223.34 199.378 221.176 199.969 218.866C200.141 218.21 200.339 217.555 200.555 216.912C211.984 183.623 289.049 176.839 307.44 185.328C314.001 188.357 319.346 193.506 323.508 199.322C325.869 202.619 327.848 206.125 329.465 209.581C333.143 217.466 334.906 225.09 334.848 229.328H334.855Z" fill="#9E8A6F"/>
<path d="M334.855 229.328C334.855 229.939 334.74 230.709 334.524 231.594C319.62 239.077 297.073 243.844 271.841 243.844C240.163 243.844 212.716 236.328 199.314 225.363C199.174 223.34 199.378 221.176 199.969 218.866C200.141 218.21 200.339 217.555 200.555 216.912C211.984 183.623 289.049 176.839 307.44 185.328C314.001 188.357 319.346 193.506 323.508 199.322C325.869 202.619 327.848 206.125 329.465 209.581C333.143 217.466 334.906 225.09 334.848 229.328H334.855Z" fill="black" fill-opacity="0.5"/>
<path d="M335.33 229.311C335.33 229.921 335.215 230.692 334.999 231.576C320.095 239.06 297.548 243.827 272.316 243.827C240.637 243.827 213.191 236.311 199.789 225.346C199.649 223.322 199.852 221.158 200.444 218.848C200.616 218.193 200.813 217.537 201.03 216.895C245.086 238.863 315.634 219.548 329.933 209.563C333.611 217.448 335.374 225.072 335.317 229.311H335.33Z" fill="#89745B"/>
<path d="M335.33 229.311C335.33 229.921 335.215 230.692 334.999 231.576C320.095 239.06 297.548 243.827 272.316 243.827C240.637 243.827 213.191 236.311 199.789 225.346C199.649 223.322 199.852 221.158 200.444 218.848C200.616 218.193 200.813 217.537 201.03 216.895C245.086 238.863 315.634 219.548 329.933 209.563C333.611 217.448 335.374 225.072 335.317 229.311H335.33Z" fill="black" fill-opacity="0.5"/>
<path d="M356.262 253.517C350.287 257.189 340.162 259.601 328.676 259.601C317.189 259.601 307.033 257.176 301.064 253.498C301.006 252.849 301.032 252.168 301.153 251.443C301.178 251.271 301.21 251.099 301.248 250.933C303.654 238.963 318.042 232.033 328.599 232.026H328.676C329 232.026 329.331 232.026 329.649 232.045C338.209 232.427 349.173 239.345 353.933 246.218C355.168 248 355.982 249.782 356.231 251.443C356.339 252.174 356.345 252.868 356.262 253.517Z" fill="#9E8A6F"/>
<path d="M356.262 253.517C350.287 257.189 340.162 259.601 328.676 259.601C317.189 259.601 307.033 257.176 301.064 253.498C301.006 252.849 301.032 252.168 301.153 251.443C301.178 251.271 301.21 251.099 301.248 250.933C303.654 238.963 318.042 232.033 328.599 232.026H328.676C329 232.026 329.331 232.026 329.649 232.045C338.209 232.427 349.173 239.345 353.933 246.218C355.168 248 355.982 249.782 356.231 251.443C356.339 252.174 356.345 252.868 356.262 253.517Z" fill="black" fill-opacity="0.5"/>
<path d="M356.737 253.5C350.762 257.171 340.637 259.583 329.15 259.583C317.664 259.583 307.507 257.159 301.538 253.48C301.481 252.831 301.506 252.15 301.627 251.425C301.653 251.253 301.685 251.081 301.723 250.916C327.178 258.712 347.65 249.809 354.414 246.2C355.649 247.982 356.463 249.764 356.712 251.425C356.82 252.157 356.826 252.85 356.743 253.5H356.737Z" fill="#89745B"/>
<path d="M356.737 253.5C350.762 257.171 340.637 259.583 329.15 259.583C317.664 259.583 307.507 257.159 301.538 253.48C301.481 252.831 301.506 252.15 301.627 251.425C301.653 251.253 301.685 251.081 301.723 250.916C327.178 258.712 347.65 249.809 354.414 246.2C355.649 247.982 356.463 249.764 356.712 251.425C356.82 252.157 356.826 252.85 356.743 253.5H356.737Z" fill="black" fill-opacity="0.5"/>
<path d="M194.649 209.193C188.477 211.388 181.941 215.614 180.624 222.538C179.268 229.691 184.296 236.347 188.941 241.228C200.014 252.874 215.796 258.595 231.311 261.249C249.626 264.386 268.392 263.807 286.624 267.492C295.731 269.331 304.086 272.634 312.556 276.35C319.824 279.545 327.225 282.663 335.167 283.65C344.133 284.757 354.423 283.255 362.13 278.291C370.237 273.067 370.746 264.31 370.053 255.515C369.862 253.084 366.043 253.059 366.234 255.515C366.845 263.279 366.858 271.132 359.323 275.529C352.559 279.481 344.012 280.761 336.306 279.965C321.166 278.4 308.032 268.936 293.452 265.15C263.74 257.431 230.108 263.807 202.833 247.401C196.406 243.538 190.246 238.307 186.408 231.772C184.219 228.042 183.316 223.772 185.728 219.916C187.923 216.403 191.875 214.226 195.674 212.877C197.971 212.063 196.985 208.372 194.662 209.193H194.649Z" fill="#7ACFEA"/>
<path d="M194.649 209.193C188.477 211.388 181.941 215.614 180.624 222.538C179.268 229.691 184.296 236.347 188.941 241.228C200.014 252.874 215.796 258.595 231.311 261.249C249.626 264.386 268.392 263.807 286.624 267.492C295.731 269.331 304.086 272.634 312.556 276.35C319.824 279.545 327.225 282.663 335.167 283.65C344.133 284.757 354.423 283.255 362.13 278.291C370.237 273.067 370.746 264.31 370.053 255.515C369.862 253.084 366.043 253.059 366.234 255.515C366.845 263.279 366.858 271.132 359.323 275.529C352.559 279.481 344.012 280.761 336.306 279.965C321.166 278.4 308.032 268.936 293.452 265.15C263.74 257.431 230.108 263.807 202.833 247.401C196.406 243.538 190.246 238.307 186.408 231.772C184.219 228.042 183.316 223.772 185.728 219.916C187.923 216.403 191.875 214.226 195.674 212.877C197.971 212.063 196.985 208.372 194.662 209.193H194.649Z" fill="black" fill-opacity="0.7"/>
<path d="M300.58 259.391C292.727 256.279 284.34 255.515 275.99 254.86C266.61 254.122 257.287 253.065 248.016 251.436C239.221 249.896 230.426 248.006 221.854 245.499C217.712 244.289 213.683 242.788 210.043 240.42C206.263 237.964 203.011 234.794 199.779 231.676C198.009 229.971 195.305 232.669 197.08 234.374C203.088 240.159 209.108 245.18 217.082 247.98C225.933 251.086 235.364 252.976 244.573 254.682C253.641 256.362 262.798 257.583 271.988 258.36C281.336 259.149 290.742 259.582 299.568 263.075C301.853 263.979 302.845 260.288 300.586 259.391H300.58Z" fill="#7ACFEA"/>
<path d="M300.58 259.391C292.727 256.279 284.34 255.515 275.99 254.86C266.61 254.122 257.287 253.065 248.016 251.436C239.221 249.896 230.426 248.006 221.854 245.499C217.712 244.289 213.683 242.788 210.043 240.42C206.263 237.964 203.011 234.794 199.779 231.676C198.009 229.971 195.305 232.669 197.08 234.374C203.088 240.159 209.108 245.18 217.082 247.98C225.933 251.086 235.364 252.976 244.573 254.682C253.641 256.362 262.798 257.583 271.988 258.36C281.336 259.149 290.742 259.582 299.568 263.075C301.853 263.979 302.845 260.288 300.586 259.391H300.58Z" fill="black" fill-opacity="0.7"/>
<path d="M370.727 238.689C375.818 242.189 378.497 247.847 379.725 253.759C380.737 258.64 382.5 267.454 378.491 271.387C376.734 273.111 379.433 275.81 381.189 274.085C386.267 269.102 384.753 260.116 383.62 253.829C382.296 246.485 378.911 239.688 372.655 235.386C370.625 233.993 368.716 237.296 370.727 238.683V238.689Z" fill="#7ACFEA"/>
<path d="M370.727 238.689C375.818 242.189 378.497 247.847 379.725 253.759C380.737 258.64 382.5 267.454 378.491 271.387C376.734 273.111 379.433 275.81 381.189 274.085C386.267 269.102 384.753 260.116 383.62 253.829C382.296 246.485 378.911 239.688 372.655 235.386C370.625 233.993 368.716 237.296 370.727 238.683V238.689Z" fill="black" fill-opacity="0.7"/>
<path d="M318.201 267.047C322.108 267.161 326.079 269.026 329.955 269.688C333.506 270.292 337.114 270.636 340.716 270.636C346.691 270.636 352.743 269.624 357.694 266.092C359.68 264.673 357.771 261.364 355.766 262.796C350.65 266.449 344.407 267.021 338.291 266.767C334.823 266.627 331.38 266.175 327.995 265.424C324.724 264.698 321.574 263.324 318.201 263.222C315.745 263.152 315.745 266.97 318.201 267.04V267.047Z" fill="#7ACFEA"/>
<path d="M318.201 267.047C322.108 267.161 326.079 269.026 329.955 269.688C333.506 270.292 337.114 270.636 340.716 270.636C346.691 270.636 352.743 269.624 357.694 266.092C359.68 264.673 357.771 261.364 355.766 262.796C350.65 266.449 344.407 267.021 338.291 266.767C334.823 266.627 331.38 266.175 327.995 265.424C324.724 264.698 321.574 263.324 318.201 263.222C315.745 263.152 315.745 266.97 318.201 267.04V267.047Z" fill="black" fill-opacity="0.7"/>
<path d="M366.699 246.912C363.441 239.371 354.881 238.276 348.912 233.796C344.388 230.397 345.069 225.822 343.847 220.877C342.886 217.008 340.671 213.616 337.699 210.994C335.86 209.371 333.156 212.063 335.001 213.692C338.953 217.18 340.175 221.208 340.786 226.267C341.238 229.971 342.396 233.128 345.215 235.673C350.726 240.656 360.233 241.502 363.409 248.834C364.382 251.08 367.672 249.139 366.705 246.905L366.699 246.912Z" fill="#7ACFEA"/>
<path d="M366.699 246.912C363.441 239.371 354.881 238.276 348.912 233.796C344.388 230.397 345.069 225.822 343.847 220.877C342.886 217.008 340.671 213.616 337.699 210.994C335.86 209.371 333.156 212.063 335.001 213.692C338.953 217.18 340.175 221.208 340.786 226.267C341.238 229.971 342.396 233.128 345.215 235.673C350.726 240.656 360.233 241.502 363.409 248.834C364.382 251.08 367.672 249.139 366.705 246.905L366.699 246.912Z" fill="black" fill-opacity="0.7"/>
<path d="M219.36 273.347C207.631 271.17 195.413 268.962 185.136 262.553C175.953 256.826 168.596 247.229 168.571 236.067C168.558 233.604 164.74 233.598 164.746 236.061C164.778 247.611 171.651 257.641 180.789 264.227C191.69 272.087 205.417 274.626 218.342 277.031C220.741 277.477 221.772 273.798 219.36 273.347Z" fill="#7ACFEA"/>
<path d="M219.36 273.347C207.631 271.17 195.413 268.962 185.136 262.553C175.953 256.826 168.596 247.229 168.571 236.067C168.558 233.604 164.74 233.598 164.746 236.061C164.778 247.611 171.651 257.641 180.789 264.227C191.69 272.087 205.417 274.626 218.342 277.031C220.741 277.477 221.772 273.798 219.36 273.347Z" fill="black" fill-opacity="0.7"/>
<path d="M143.475 237.358L137.183 250.143C135.084 254.404 132.894 258.631 130.746 262.86C128.574 267.086 126.387 271.306 124.156 275.505C121.918 279.7 119.745 283.927 117.46 288.091C112.859 296.406 108.346 304.779 103.526 312.973C101.142 317.1 98.8011 321.23 96.3436 325.304L88.9744 337.521C78.9795 353.715 68.5639 369.667 57.5609 385.201C51.9495 392.898 46.4184 400.633 40.4876 408.101C36.7509 412.964 32.8786 417.737 28.9251 422.436C26.7485 425.021 24.5535 427.589 22.3327 430.136L48.9956 379.939C57.7474 363.205 66.3906 346.456 74.9461 329.666L81.288 317.038C83.4399 312.855 85.5442 308.642 87.6411 304.424L100.23 279.142C104.355 270.684 108.629 262.287 112.681 253.795L125.07 228.409L149.663 177.498L174.171 126.485C181.215 111.907 188.252 97.3248 195.372 82.7374C196.553 80.3171 197.735 77.8968 198.927 75.4727C203.098 66.9738 207.276 58.4783 211.519 49.9956C215.74 41.5027 220.013 33.0337 224.404 24.5763C222.131 33.833 219.52 42.9755 216.793 52.0811C214.076 61.2009 211.16 70.2354 208.188 79.2532C202.181 97.276 195.707 115.133 188.88 132.852C185.461 141.704 181.962 150.536 178.339 159.31C176.521 163.694 174.746 168.098 172.872 172.465L167.256 185.558C159.646 202.953 151.755 220.243 143.467 237.337L143.475 237.358Z" fill="#3B8C37"/>
<path d="M143.475 237.358L137.183 250.143C135.084 254.404 132.894 258.631 130.746 262.86C128.574 267.086 126.387 271.306 124.156 275.505C121.918 279.7 119.745 283.927 117.46 288.091C112.859 296.406 108.346 304.779 103.526 312.973C101.142 317.1 98.8011 321.23 96.3436 325.304L88.9744 337.521C78.9795 353.715 68.5639 369.667 57.5609 385.201C51.9495 392.898 46.4184 400.633 40.4876 408.101C36.7509 412.964 32.8786 417.737 28.9251 422.436C26.7485 425.021 24.5535 427.589 22.3327 430.136L48.9956 379.939C57.7474 363.205 66.3906 346.456 74.9461 329.666L81.288 317.038C83.4399 312.855 85.5442 308.642 87.6411 304.424L100.23 279.142C104.355 270.684 108.629 262.287 112.681 253.795L125.07 228.409L149.663 177.498L174.171 126.485C181.215 111.907 188.252 97.3248 195.372 82.7374C196.553 80.3171 197.735 77.8968 198.927 75.4727C203.098 66.9738 207.276 58.4783 211.519 49.9956C215.74 41.5027 220.013 33.0337 224.404 24.5763C222.131 33.833 219.52 42.9755 216.793 52.0811C214.076 61.2009 211.16 70.2354 208.188 79.2532C202.181 97.276 195.707 115.133 188.88 132.852C185.461 141.704 181.962 150.536 178.339 159.31C176.521 163.694 174.746 168.098 172.872 172.465L167.256 185.558C159.646 202.953 151.755 220.243 143.467 237.337L143.475 237.358Z" fill="black" fill-opacity="0.6"/>
<path d="M39.9953 413.188C40.1974 408.624 40.4501 404.065 40.7101 399.511C41.231 393.092 41.9078 386.702 42.5875 380.287C42.9093 377.08 43.2964 373.886 43.6616 370.681C44.0521 367.479 44.3632 364.276 44.837 361.087L46.3416 351.531L47.9332 341.999C48.4684 338.812 48.9893 335.636 49.5717 332.462C49.8719 330.875 50.1068 329.275 50.4615 327.704L51.4638 322.973C52.8096 316.657 54.2499 310.367 55.6463 304.057L56.7246 299.334C57.1046 297.767 57.5426 296.209 57.9479 294.644L60.489 285.291L63.0773 275.951C63.5259 274.389 63.9352 272.835 64.413 271.287L65.8977 266.666C67.9221 260.517 69.8813 254.356 71.9675 248.227C74.2319 242.155 76.5108 236.09 78.8807 230.059C80.0185 227.031 81.3125 224.048 82.6142 221.088L86.5477 212.184C87.2115 210.714 87.8348 209.216 88.5565 207.756L90.722 203.392C92.1658 200.49 93.6131 197.579 95.09 194.701C95.4581 193.974 95.8155 193.251 96.1983 192.531L97.3868 190.4L99.7751 186.15L102.182 181.918L103.389 179.803C103.805 179.108 104.242 178.423 104.673 177.734C106.424 174.993 108.138 172.235 109.9 169.509C111.724 166.82 113.603 164.166 115.49 161.534C115.953 160.87 116.439 160.216 116.935 159.576L118.439 157.646C119.447 156.373 120.425 155.087 121.466 153.839L124.662 150.164C125.772 148.976 126.872 147.791 128.057 146.691C127.641 147.386 127.265 148.091 126.897 148.818C126.518 149.531 126.12 150.226 125.759 150.938L123.599 155.233C122.898 156.667 122.238 158.13 121.541 159.575C120.884 161.031 120.132 162.423 119.526 163.902C118.275 166.851 116.924 169.726 115.686 172.646L112.054 181.46L111.137 183.657L110.286 185.885L108.588 190.334L106.864 194.763L105.988 196.97C105.71 197.712 105.455 198.465 105.192 199.215C105.084 199.52 104.98 199.837 104.861 200.146C83.66 236.402 51.3504 306.849 39.9915 413.177L39.9953 413.188Z" fill="#4FA84A"/>
<path d="M39.9953 413.188C40.1974 408.624 40.4501 404.065 40.7101 399.511C41.231 393.092 41.9078 386.702 42.5875 380.287C42.9093 377.08 43.2964 373.886 43.6616 370.681C44.0521 367.479 44.3632 364.276 44.837 361.087L46.3416 351.531L47.9332 341.999C48.4684 338.812 48.9893 335.636 49.5717 332.462C49.8719 330.875 50.1068 329.275 50.4615 327.704L51.4638 322.973C52.8096 316.657 54.2499 310.367 55.6463 304.057L56.7246 299.334C57.1046 297.767 57.5426 296.209 57.9479 294.644L60.489 285.291L63.0773 275.951C63.5259 274.389 63.9352 272.835 64.413 271.287L65.8977 266.666C67.9221 260.517 69.8813 254.356 71.9675 248.227C74.2319 242.155 76.5108 236.09 78.8807 230.059C80.0185 227.031 81.3125 224.048 82.6142 221.088L86.5477 212.184C87.2115 210.714 87.8348 209.216 88.5565 207.756L90.722 203.392C92.1658 200.49 93.6131 197.579 95.09 194.701C95.4581 193.974 95.8155 193.251 96.1983 192.531L97.3868 190.4L99.7751 186.15L102.182 181.918L103.389 179.803C103.805 179.108 104.242 178.423 104.673 177.734C106.424 174.993 108.138 172.235 109.9 169.509C111.724 166.82 113.603 164.166 115.49 161.534C115.953 160.87 116.439 160.216 116.935 159.576L118.439 157.646C119.447 156.373 120.425 155.087 121.466 153.839L124.662 150.164C125.772 148.976 126.872 147.791 128.057 146.691C127.641 147.386 127.265 148.091 126.897 148.818C126.518 149.531 126.12 150.226 125.759 150.938L123.599 155.233C122.898 156.667 122.238 158.13 121.541 159.575C120.884 161.031 120.132 162.423 119.526 163.902C118.275 166.851 116.924 169.726 115.686 172.646L112.054 181.46L111.137 183.657L110.286 185.885L108.588 190.334L106.864 194.763L105.988 196.97C105.71 197.712 105.455 198.465 105.192 199.215C105.084 199.52 104.98 199.837 104.861 200.146C83.66 236.402 51.3504 306.849 39.9915 413.177L39.9953 413.188Z" fill="black" fill-opacity="0.6"/>
<path d="M45.1184 443.584C43.8851 443.004 43.355 441.535 43.9343 440.302C73.1769 378.052 112.817 321.641 140.926 285.28C171.377 245.887 195.244 220.852 195.483 220.608C196.426 219.625 197.994 219.587 198.976 220.529C199.959 221.472 200.001 223.033 199.055 224.023C198.109 225.012 104.006 324.049 48.4078 442.403C47.8285 443.636 46.359 444.167 45.1257 443.587L45.1184 443.584Z" fill="#3B8C37"/>
<path d="M45.1184 443.584C43.8851 443.004 43.355 441.535 43.9343 440.302C73.1769 378.052 112.817 321.641 140.926 285.28C171.377 245.887 195.244 220.852 195.483 220.608C196.426 219.625 197.994 219.587 198.976 220.529C199.959 221.472 200.001 223.033 199.055 224.023C198.109 225.012 104.006 324.049 48.4078 442.403C47.8285 443.636 46.359 444.167 45.1257 443.587L45.1184 443.584Z" fill="black" fill-opacity="0.6"/>
<path d="M244.061 177.009C243.78 176.886 243.516 176.708 243.283 176.483C242.322 175.515 242.323 173.956 243.292 172.995L260.929 155.456C261.898 154.494 263.463 154.499 264.417 155.464C265.379 156.432 265.377 157.991 264.409 158.952L246.771 176.491C246.036 177.224 244.958 177.394 244.061 177.009Z" fill="#D6DA66"/>
<path d="M244.061 177.009C243.78 176.886 243.516 176.708 243.283 176.483C242.322 175.515 242.323 173.956 243.292 172.995L260.929 155.456C261.898 154.494 263.463 154.499 264.417 155.464C265.379 156.432 265.377 157.991 264.409 158.952L246.771 176.491C246.036 177.224 244.958 177.394 244.061 177.009Z" fill="black" fill-opacity="0.6"/>
<path d="M256.029 183.049L206.075 232.745C201.145 237.645 193.655 238.171 189.418 233.918L185.568 230.052C181.338 225.802 181.901 218.307 186.824 213.404L236.778 163.708C241.707 158.808 249.197 158.282 253.434 162.536L257.284 166.402C261.518 170.662 260.951 178.146 256.029 183.049Z" fill="#EBD75E"/>
<path d="M256.029 183.049L206.075 232.745C201.145 237.645 193.655 238.171 189.418 233.918L185.568 230.052C181.338 225.802 181.901 218.307 186.824 213.404L236.778 163.708C241.707 158.808 249.197 158.282 253.434 162.536L257.284 166.402C261.518 170.662 260.951 178.146 256.029 183.049Z" fill="black" fill-opacity="0.6"/>
<path d="M18.2994 430.985C17.0661 430.406 16.536 428.937 17.1153 427.703C134.805 177.174 157.149 89.4663 157.366 88.6061C157.694 87.2816 159.034 86.4769 160.351 86.8017C161.676 87.13 162.484 88.4628 162.156 89.7873C161.946 90.6509 139.563 178.651 21.5815 429.801C21.0022 431.035 19.5327 431.565 18.2994 430.985Z" fill="#3B8C37"/>
<path d="M18.2994 430.985C17.0661 430.406 16.536 428.937 17.1153 427.703C134.805 177.174 157.149 89.4663 157.366 88.6061C157.694 87.2816 159.034 86.4769 160.351 86.8017C161.676 87.13 162.484 88.4628 162.156 89.7873C161.946 90.6509 139.563 178.651 21.5815 429.801C21.0022 431.035 19.5327 431.565 18.2994 430.985Z" fill="black" fill-opacity="0.6"/>
<path d="M171.744 29.458C170.715 28.9746 170.125 27.824 170.392 26.6669L176.003 2.43559C176.306 1.10806 177.638 0.281923 178.965 0.584859C180.29 0.895093 181.119 2.22015 180.816 3.54768L175.206 27.779C174.903 29.1065 173.57 29.9327 172.243 29.6297C172.065 29.5908 171.905 29.5334 171.744 29.458Z" fill="#D6DA66"/>
<path d="M171.744 29.458C170.715 28.9746 170.125 27.824 170.392 26.6669L176.003 2.43559C176.306 1.10806 177.638 0.281923 178.965 0.584859C180.29 0.895093 181.119 2.22015 180.816 3.54768L175.206 27.779C174.903 29.1065 173.57 29.9327 172.243 29.6297C172.065 29.5908 171.905 29.5334 171.744 29.458Z" fill="black" fill-opacity="0.6"/>
<path d="M186.522 28.4182L170.63 97.0638C169.061 103.836 162.998 108.266 157.15 106.909L151.832 105.676C145.985 104.318 142.475 97.681 144.044 90.9086L159.936 22.2629C161.505 15.4905 167.575 11.0641 173.416 12.4179L178.734 13.6511C184.584 15.0011 188.091 21.6457 186.522 28.4182Z" fill="#EBD75E"/>
<path d="M186.522 28.4182L170.63 97.0638C169.061 103.836 162.998 108.266 157.15 106.909L151.832 105.676C145.985 104.318 142.475 97.681 144.044 90.9086L159.936 22.2629C161.505 15.4905 167.575 11.0641 173.416 12.4179L178.734 13.6511C184.584 15.0011 188.091 21.6457 186.522 28.4182Z" fill="black" fill-opacity="0.6"/>
</g>
<defs>
<clipPath id="clip0_4684_41401">
<rect width="384" height="313" fill="white" transform="translate(0.746338)"/>
</clipPath>
</defs>
</svg>
