<svg width="409" height="316" viewBox="0 0 409 316" fill="none" xmlns="http://www.w3.org/2000/svg">
<g clip-path="url(#clip0_4684_41071)">
<g clip-path="url(#clip1_4684_41071)">
<path d="M358.855 232.328C358.855 232.939 358.74 233.709 358.524 234.594C343.62 242.077 321.073 246.844 295.841 246.844C264.163 246.844 236.716 239.328 223.314 228.363C223.174 226.34 223.378 224.176 223.97 221.866C224.141 221.21 224.339 220.555 224.555 219.912C235.984 186.623 313.049 179.839 331.44 188.328C338.001 191.357 343.346 196.506 347.508 202.322C349.869 205.619 351.848 209.125 353.465 212.581C357.143 220.466 358.906 228.09 358.848 232.328H358.855Z" fill="#9E8A6F"/>
<path d="M358.855 232.328C358.855 232.939 358.74 233.709 358.524 234.594C343.62 242.077 321.073 246.844 295.841 246.844C264.163 246.844 236.716 239.328 223.314 228.363C223.174 226.34 223.378 224.176 223.97 221.866C224.141 221.21 224.339 220.555 224.555 219.912C235.984 186.623 313.049 179.839 331.44 188.328C338.001 191.357 343.346 196.506 347.508 202.322C349.869 205.619 351.848 209.125 353.465 212.581C357.143 220.466 358.906 228.09 358.848 232.328H358.855Z" fill="#9E8A6F"/>
<path d="M358.855 232.328C358.855 232.939 358.74 233.709 358.524 234.594C343.62 242.078 321.073 246.844 295.841 246.844C264.163 246.844 236.716 239.328 223.314 228.363C223.174 226.34 223.378 224.176 223.97 221.866C224.141 221.21 224.339 220.555 224.555 219.912C268.611 241.88 339.159 222.566 353.458 212.581C357.137 220.466 358.899 228.09 358.842 232.328H358.855Z" fill="#89745B"/>
<path d="M380.262 256.517C374.287 260.189 364.162 262.601 352.676 262.601C341.189 262.601 331.033 260.176 325.063 256.498C325.006 255.849 325.032 255.168 325.153 254.443C325.178 254.271 325.21 254.099 325.248 253.933C327.654 241.963 342.042 235.033 352.599 235.026H352.676C353 235.026 353.331 235.026 353.649 235.045C362.208 235.427 373.173 242.345 377.933 249.218C379.168 251 379.982 252.782 380.231 254.443C380.339 255.174 380.345 255.868 380.262 256.517Z" fill="#9E8A6F"/>
<path d="M380.262 256.517C374.287 260.189 364.162 262.601 352.676 262.601C341.189 262.601 331.033 260.176 325.063 256.498C325.006 255.849 325.032 255.168 325.153 254.443C325.178 254.271 325.21 254.099 325.248 253.933C350.703 261.729 371.175 252.826 377.94 249.218C379.174 251 379.989 252.782 380.237 254.443C380.345 255.174 380.351 255.868 380.269 256.517H380.262Z" fill="#89745B"/>
<path d="M218.649 212.193C212.477 214.389 205.941 218.614 204.624 225.538C203.268 232.691 208.296 239.348 212.941 244.229C224.014 255.875 239.796 261.596 255.311 264.249C273.626 267.387 292.392 266.808 310.624 270.492C319.731 272.332 328.086 275.634 336.556 279.351C343.824 282.546 351.225 285.664 359.167 286.65C368.133 287.758 378.423 286.256 386.13 281.292C394.237 276.067 394.746 267.31 394.053 258.516C393.862 256.085 390.043 256.059 390.234 258.516C390.845 266.279 390.858 274.133 383.323 278.53C376.559 282.482 368.012 283.761 360.306 282.966C345.166 281.4 332.032 271.937 317.452 268.15C287.74 260.431 254.108 266.808 226.833 250.402C220.406 246.539 214.246 241.308 210.408 234.772C208.219 231.043 207.316 226.773 209.728 222.916C211.923 219.403 215.875 217.227 219.674 215.878C221.971 215.063 220.985 211.372 218.662 212.193H218.649Z" fill="#7ACFEA"/>
<path d="M324.58 262.391C316.727 259.279 308.34 258.515 299.99 257.86C290.61 257.122 281.287 256.065 272.016 254.436C263.221 252.896 254.426 251.006 245.854 248.499C241.712 247.289 237.683 245.788 234.043 243.42C230.263 240.964 227.011 237.794 223.779 234.676C222.009 232.971 219.305 235.669 221.08 237.374C227.088 243.159 233.108 248.18 241.082 250.98C249.933 254.086 259.364 255.976 268.573 257.682C277.641 259.362 286.798 260.583 295.988 261.36C305.336 262.149 314.742 262.582 323.568 266.075C325.853 266.979 326.845 263.288 324.586 262.391H324.58Z" fill="#7ACFEA"/>
<path d="M394.727 241.689C399.818 245.189 402.497 250.847 403.725 256.759C404.737 261.64 406.5 270.454 402.491 274.387C400.734 276.111 403.433 278.81 405.189 277.085C410.267 272.102 408.753 263.116 407.62 256.829C406.296 249.485 402.911 242.688 396.655 238.386C394.625 236.993 392.716 240.296 394.727 241.683V241.689Z" fill="#7ACFEA"/>
<path d="M342.201 270.047C346.108 270.161 350.079 272.026 353.955 272.688C357.506 273.292 361.114 273.636 364.716 273.636C370.691 273.636 376.743 272.624 381.694 269.092C383.68 267.673 381.771 264.364 379.766 265.796C374.65 269.449 368.407 270.021 362.291 269.767C358.823 269.627 355.38 269.175 351.995 268.424C348.724 267.698 345.574 266.324 342.201 266.222C339.745 266.152 339.745 269.97 342.201 270.04V270.047Z" fill="#7ACFEA"/>
<path d="M390.699 249.911C387.441 242.37 378.881 241.275 372.912 236.795C368.388 233.397 369.069 228.821 367.847 223.877C366.886 220.007 364.671 216.615 361.699 213.994C359.86 212.371 357.156 215.063 359.001 216.692C362.953 220.179 364.175 224.208 364.786 229.267C365.238 232.971 366.396 236.127 369.215 238.673C374.726 243.656 384.233 244.502 387.409 251.833C388.382 254.08 391.673 252.139 390.705 249.905L390.699 249.911Z" fill="#7ACFEA"/>
<path d="M243.36 276.347C231.631 274.171 219.413 271.962 209.136 265.554C199.953 259.827 192.596 250.23 192.571 239.068C192.558 236.605 188.74 236.598 188.746 239.061C188.778 250.612 195.651 260.641 204.789 267.228C215.69 275.087 229.417 277.626 242.342 280.032C244.741 280.477 245.772 276.799 243.36 276.347Z" fill="#7ACFEA"/>
</g>
<g clip-path="url(#clip2_4684_41071)">
<path d="M167.475 240.358L161.184 253.143C159.084 257.404 156.894 261.631 154.746 265.86C152.574 270.086 150.387 274.306 148.156 278.505C145.918 282.7 143.745 286.927 141.46 291.091C136.859 299.406 132.346 307.779 127.526 315.973C125.142 320.1 122.801 324.23 120.344 328.304L112.975 340.521C102.98 356.715 92.564 372.667 81.561 388.201C75.9496 395.898 70.4185 403.633 64.4877 411.101C60.751 415.964 56.8786 420.737 52.9251 425.436C50.7486 428.021 48.5535 430.589 46.3327 433.136L72.9957 382.939C81.7474 366.205 90.3906 349.456 98.9462 332.666L105.288 320.038C107.44 315.855 109.544 311.642 111.641 307.424L124.231 282.142C128.355 273.684 132.629 265.287 136.681 256.795L149.07 231.409L173.663 180.498L198.171 129.485C205.215 114.907 212.252 100.325 219.372 85.7374C220.553 83.3171 221.735 80.8968 222.927 78.4727C227.098 69.9738 231.276 61.4783 235.519 52.9956C239.74 44.5027 244.013 36.0337 248.404 27.5763C246.131 36.833 243.52 45.9755 240.793 55.0811C238.076 64.2009 235.16 73.2354 232.188 82.2532C226.181 100.276 219.707 118.133 212.88 135.852C209.461 144.704 205.962 153.536 202.339 162.31C200.521 166.694 198.746 171.098 196.873 175.465L191.256 188.558C183.646 205.953 175.755 223.243 167.467 240.337L167.475 240.358Z" fill="#3B8C37"/>
<path d="M63.9954 416.188C64.1975 411.624 64.4502 407.066 64.7102 402.511C65.2311 396.093 65.9078 389.703 66.5876 383.288C66.9094 380.08 67.2965 376.886 67.6617 373.681C68.0522 370.48 68.3633 367.276 68.837 364.087L70.3416 354.532L71.9333 345C72.4684 341.812 72.9894 338.636 73.5718 335.463C73.8719 333.875 74.1069 332.275 74.4616 330.705L75.4639 325.973C76.8097 319.657 78.2499 313.368 79.6464 307.058L80.7246 302.335C81.1047 300.768 81.5426 299.209 81.948 297.645L84.489 288.291L87.0773 278.951C87.526 277.389 87.9352 275.835 88.4131 274.287L89.8978 269.667C91.9222 263.518 93.8814 257.356 95.9676 251.227C98.2319 245.156 100.511 239.091 102.881 233.06C104.019 230.031 105.313 227.049 106.614 224.088L110.548 215.184C111.212 213.714 111.835 212.216 112.557 210.756L114.722 206.393C116.166 203.49 117.613 200.58 119.09 197.702C119.458 196.975 119.816 196.252 120.198 195.532L121.387 193.4L123.775 189.15L126.182 184.918L127.389 182.804C127.805 182.108 128.242 181.423 128.673 180.735C130.424 177.994 132.138 175.236 133.9 172.509C135.724 169.821 137.603 167.167 139.49 164.535C139.953 163.87 140.439 163.216 140.935 162.577L142.439 160.646C143.447 159.374 144.425 158.087 145.466 156.839L148.662 153.165C149.772 151.976 150.872 150.791 152.057 149.691C151.641 150.387 151.266 151.092 150.897 151.819C150.518 152.531 150.12 153.226 149.759 153.939L147.599 158.233C146.898 159.668 146.238 161.13 145.541 162.576C144.884 164.031 144.132 165.424 143.526 166.903C142.275 169.851 140.924 172.727 139.686 175.646L136.054 184.46L135.137 186.658L134.286 188.886L132.588 193.335L130.864 197.763L129.988 199.97C129.71 200.713 129.455 201.466 129.192 202.215C129.084 202.521 128.98 202.837 128.861 203.147C107.66 239.403 75.3504 309.85 63.9915 416.177L63.9954 416.188Z" fill="#4FA84A"/>
<path d="M69.1184 446.584C67.8851 446.004 67.355 444.535 67.9343 443.302C97.1769 381.052 136.817 324.641 164.926 288.28C195.377 248.887 219.244 223.852 219.483 223.608C220.426 222.625 221.994 222.587 222.976 223.529C223.959 224.472 224.001 226.033 223.055 227.023C222.109 228.012 128.006 327.049 72.4078 445.403C71.8285 446.636 70.359 447.167 69.1257 446.587L69.1184 446.584Z" fill="#3B8C37"/>
<path d="M268.061 180.009C267.78 179.886 267.516 179.708 267.283 179.483C266.322 178.515 266.323 176.956 267.292 175.995L284.929 158.456C285.897 157.494 287.463 157.499 288.417 158.464C289.379 159.432 289.377 160.991 288.409 161.952L270.771 179.491C270.035 180.224 268.958 180.394 268.061 180.009Z" fill="#D6DA66"/>
<path d="M280.029 186.049L230.075 235.745C225.145 240.645 217.655 241.171 213.418 236.918L209.568 233.052C205.338 228.802 205.901 221.307 210.824 216.404L260.778 166.708C265.707 161.808 273.197 161.282 277.434 165.536L281.284 169.402C285.518 173.662 284.951 181.146 280.029 186.049Z" fill="#EBD75E"/>
<path d="M42.2994 433.985C41.0661 433.406 40.5359 431.937 41.1153 430.703C158.805 180.174 181.149 92.4663 181.366 91.6061C181.694 90.2816 183.034 89.4769 184.351 89.8017C185.676 90.13 186.484 91.4628 186.156 92.7873C185.946 93.6509 163.563 181.651 45.5815 432.801C45.0021 434.035 43.5327 434.565 42.2994 433.985Z" fill="#3B8C37"/>
<path d="M195.744 32.4585C194.716 31.9751 194.125 30.8245 194.392 29.6674L200.003 5.43608C200.306 4.10855 201.638 3.28241 202.965 3.58535C204.29 3.89558 205.119 5.22064 204.816 6.54817L199.206 30.7795C198.903 32.107 197.57 32.9331 196.243 32.6302C196.065 32.5913 195.905 32.5339 195.744 32.4585Z" fill="#D6DA66"/>
<path d="M210.522 31.4182L194.63 100.064C193.061 106.836 186.998 111.266 181.15 109.909L175.832 108.676C169.985 107.318 166.475 100.681 168.044 93.9086L183.936 25.2629C185.505 18.4905 191.575 14.0641 197.416 15.4179L202.734 16.6511C208.584 18.0011 212.091 24.6457 210.522 31.4182Z" fill="#EBD75E"/>
</g>
</g>
<defs>
<clipPath id="clip0_4684_41071">
<rect width="408" height="316" fill="white" transform="translate(0.746338)"/>
</clipPath>
<clipPath id="clip1_4684_41071">
<rect width="220" height="102" fill="white" transform="translate(188.746 185)"/>
</clipPath>
<clipPath id="clip2_4684_41071">
<rect width="156.531" height="457.919" fill="white" transform="translate(195.448) rotate(25.1625)"/>
</clipPath>
</defs>
</svg>
