<svg width="60" height="58" viewBox="0 0 60 58" fill="none" xmlns="http://www.w3.org/2000/svg">
<g id="theme-jungle-day-flower">
<g id="Group 416">
<g id="Group 415">
<ellipse id="Ellipse 309" cx="52.9926" cy="30.0087" rx="6.18871" ry="2.98968" transform="rotate(-36.4752 52.9926 30.0087)" fill="#6CA130"/>
<ellipse id="Ellipse 310" cx="6.18871" cy="3.2446" rx="6.18871" ry="3.2446" transform="matrix(-0.804114 -0.594475 -0.594475 0.804114 49.8105 30.8735)" fill="#6CA130"/>
</g>
<rect id="Rectangle 392" x="47.2898" y="17" width="3" height="15" fill="#6CA130"/>
<path id="Union" fill-rule="evenodd" clip-rule="evenodd" d="M44.4821 0C45.9677 0 47.3467 0.45634 48.4866 1.23649C49.6265 0.45634 51.0055 0 52.4911 0C56.4117 0 59.5899 3.17825 59.5899 7.09882C59.5899 8.42958 59.2237 9.67481 58.5867 10.7393C59.2237 11.8037 59.5899 13.0489 59.5899 14.3797C59.5899 18.3003 56.4117 21.4785 52.4911 21.4785C51.0055 21.4785 49.6265 21.0222 48.4866 20.242C47.3467 21.0222 45.9677 21.4785 44.4821 21.4785C40.5616 21.4785 37.3833 18.3003 37.3833 14.3797C37.3833 13.0489 37.7495 11.8037 38.3866 10.7393C37.7495 9.67481 37.3833 8.42958 37.3833 7.09882C37.3833 3.17825 40.5616 0 44.4821 0Z" fill="#F77045"/>
<circle id="Ellipse 309_2" cx="48.5" cy="10.5" r="3.5" fill="white"/>
</g>
<g id="Group 417">
<g id="Group 414">
<ellipse id="Ellipse 309_3" cx="16.9926" cy="51.0087" rx="6.18871" ry="2.98968" transform="rotate(-36.4752 16.9926 51.0087)" fill="#6CA130"/>
<ellipse id="Ellipse 310_2" cx="6.18871" cy="3.2446" rx="6.18871" ry="3.2446" transform="matrix(-0.804114 -0.594475 -0.594475 0.804114 13.8105 51.8735)" fill="#6CA130"/>
</g>
<rect id="Rectangle 391" x="11.2898" y="38" width="3" height="15" fill="#6CA130"/>
<path id="Union_2" fill-rule="evenodd" clip-rule="evenodd" d="M8.48212 21C9.96771 21 11.3467 21.4563 12.4866 22.2365C13.6265 21.4563 15.0055 21 16.4911 21C20.4117 21 23.5899 24.1782 23.5899 28.0988C23.5899 29.4296 23.2237 30.6748 22.5867 31.7393C23.2237 32.8037 23.5899 34.0489 23.5899 35.3797C23.5899 39.3003 20.4117 42.4785 16.4911 42.4785C15.0055 42.4785 13.6265 42.0222 12.4866 41.242C11.3467 42.0222 9.96771 42.4785 8.48212 42.4785C4.56155 42.4785 1.3833 39.3003 1.3833 35.3797C1.3833 34.0489 1.74948 32.8037 2.38656 31.7393C1.74948 30.6748 1.3833 29.4296 1.3833 28.0988C1.3833 24.1782 4.56155 21 8.48212 21Z" fill="#F7CE45"/>
<circle id="Ellipse 308" cx="11.7898" cy="31.5" r="3.5" fill="white"/>
</g>
</g>
</svg>
