<svg width="376" height="563" viewBox="0 0 376 563" fill="none" xmlns="http://www.w3.org/2000/svg">
<g clip-path="url(#clip0_4684_41421)">
<g clip-path="url(#clip1_4684_41421)">
<path d="M86.2202 453.139C81.0898 456.288 72.3971 458.356 62.5352 458.356C52.6732 458.356 43.9532 456.277 38.8282 453.123C38.7791 452.566 38.8009 451.983 38.9047 451.36C38.9266 451.213 38.9539 451.066 38.9867 450.924C41.0519 440.659 53.4053 434.717 62.4696 434.711H62.5352C62.8138 434.711 63.0979 434.711 63.3711 434.728C70.7198 435.055 80.1337 440.987 84.2205 446.88C85.2805 448.408 85.9798 449.936 86.1929 451.36C86.2858 451.988 86.2913 452.583 86.2202 453.139Z" fill="#9E8A6F"/>
<path d="M86.2202 453.139C81.0898 456.288 72.3971 458.356 62.5352 458.356C52.6732 458.356 43.9532 456.277 38.8282 453.123C38.7791 452.566 38.8009 451.983 38.9047 451.36C38.9266 451.213 38.9539 451.066 38.9867 450.924C41.0519 440.659 53.4053 434.717 62.4696 434.711H62.5352C62.8138 434.711 63.0979 434.711 63.3711 434.728C70.7198 435.055 80.1337 440.987 84.2205 446.88C85.2805 448.408 85.9798 449.936 86.1929 451.36C86.2858 451.988 86.2913 452.583 86.2202 453.139Z" fill="black" fill-opacity="0.5"/>
<path d="M86.6947 453.122C81.5643 456.271 72.8716 458.339 63.0096 458.339C53.1477 458.339 44.4276 456.26 39.3027 453.105C39.2535 452.549 39.2754 451.965 39.3792 451.343C39.401 451.196 39.4284 451.048 39.4611 450.906C61.3159 457.591 78.8926 449.957 84.695 446.863C85.7549 448.391 86.4543 449.919 86.6674 451.343C86.7603 451.97 86.7657 452.565 86.6947 453.122Z" fill="#89745B"/>
<path d="M86.6947 453.122C81.5643 456.271 72.8716 458.339 63.0096 458.339C53.1477 458.339 44.4276 456.26 39.3027 453.105C39.2535 452.549 39.2754 451.965 39.3792 451.343C39.401 451.196 39.4284 451.048 39.4611 450.906C61.3159 457.591 78.8926 449.957 84.695 446.863C85.7549 448.391 86.4543 449.919 86.6674 451.343C86.7603 451.97 86.7657 452.565 86.6947 453.122Z" fill="black" fill-opacity="0.5"/>
<path d="M36.2221 442.002C34.1677 443.988 31.5178 444.588 30.3049 447.442C29.3105 449.778 29.5618 452.408 30.6218 454.673C33.0149 459.77 38.7299 462.482 44.046 463.175C46.1332 463.448 46.1113 460.168 44.046 459.901C40.134 459.388 35.8068 457.319 33.8235 453.751C32.6106 451.562 32.5122 448.959 34.501 447.175C35.7412 446.067 37.3203 445.494 38.5332 444.321C40.0521 442.853 37.73 440.539 36.2166 442.007L36.2221 442.002Z" fill="#7ACFEA"/>
<path d="M36.2221 442.002C34.1677 443.988 31.5178 444.588 30.3049 447.442C29.3105 449.778 29.5618 452.408 30.6218 454.673C33.0149 459.77 38.7299 462.482 44.046 463.175C46.1332 463.448 46.1113 460.168 44.046 459.901C40.134 459.388 35.8068 457.319 33.8235 453.751C32.6106 451.562 32.5122 448.959 34.501 447.175C35.7412 446.067 37.3203 445.494 38.5332 444.321C40.0521 442.853 37.73 440.539 36.2166 442.007L36.2221 442.002Z" fill="black" fill-opacity="0.7"/>
<path d="M88.8647 445.909C92.1702 448.419 94.8091 451.813 96.3117 455.693C96.9509 457.347 97.6776 459.328 97.541 461.112C97.3498 463.595 95.1588 465.248 93.3722 466.689C91.7331 468.015 94.0661 470.318 95.6888 469.003C97.6229 467.437 99.6773 465.668 100.459 463.207C101.245 460.735 100.579 458.007 99.7647 455.628C98.0273 450.536 94.7818 446.318 90.5202 443.077C88.8428 441.8 87.2037 444.643 88.8647 445.904V445.909Z" fill="#7ACFEA"/>
<path d="M88.8647 445.909C92.1702 448.419 94.8091 451.813 96.3117 455.693C96.9509 457.347 97.6776 459.328 97.541 461.112C97.3498 463.595 95.1588 465.248 93.3722 466.689C91.7331 468.015 94.0661 470.318 95.6888 469.003C97.6229 467.437 99.6773 465.668 100.459 463.207C101.245 460.735 100.579 458.007 99.7647 455.628C98.0273 450.536 94.7818 446.318 90.5202 443.077C88.8428 441.8 87.2037 444.643 88.8647 445.904V445.909Z" fill="black" fill-opacity="0.7"/>
<path d="M364.901 360.989C359.771 364.137 351.078 366.205 341.216 366.205C331.354 366.205 322.634 364.126 317.509 360.972C317.46 360.416 317.482 359.832 317.585 359.21C317.607 359.062 317.635 358.915 317.667 358.773C319.733 348.509 332.086 342.566 341.15 342.561H341.216C341.495 342.561 341.779 342.561 342.052 342.577C349.4 342.904 358.814 348.836 362.901 354.729C363.961 356.257 364.661 357.785 364.874 359.21C364.966 359.837 364.972 360.432 364.901 360.989Z" fill="#9E8A6F"/>
<path d="M364.901 360.989C359.771 364.137 351.078 366.205 341.216 366.205C331.354 366.205 322.634 364.126 317.509 360.972C317.46 360.416 317.482 359.832 317.585 359.21C317.607 359.062 317.635 358.915 317.667 358.773C319.733 348.509 332.086 342.566 341.15 342.561H341.216C341.495 342.561 341.779 342.561 342.052 342.577C349.4 342.904 358.814 348.836 362.901 354.729C363.961 356.257 364.661 357.785 364.874 359.21C364.966 359.837 364.972 360.432 364.901 360.989Z" fill="black" fill-opacity="0.5"/>
<path d="M364.901 360.989C359.771 364.137 351.078 366.205 341.216 366.205C331.354 366.205 322.634 364.126 317.509 360.972C317.46 360.416 317.482 359.832 317.585 359.21C317.607 359.062 317.635 358.915 317.667 358.773C339.522 365.458 357.099 357.824 362.901 354.729C363.961 356.257 364.661 357.785 364.874 359.21C364.966 359.837 364.972 360.432 364.901 360.989Z" fill="#89745B"/>
<path d="M364.901 360.989C359.771 364.137 351.078 366.205 341.216 366.205C331.354 366.205 322.634 364.126 317.509 360.972C317.46 360.416 317.482 359.832 317.585 359.21C317.607 359.062 317.635 358.915 317.667 358.773C339.522 365.458 357.099 357.824 362.901 354.729C363.961 356.257 364.661 357.785 364.874 359.21C364.966 359.837 364.972 360.432 364.901 360.989Z" fill="black" fill-opacity="0.5"/>
<path d="M312.914 354.151C308.592 360.656 313.553 367.979 319.53 371.117C327.289 375.198 336.976 377.228 345.702 376.612C347.794 376.464 347.81 373.19 345.702 373.337C338.506 373.845 331.43 372.312 324.699 369.823C319.35 367.842 311.357 362.407 315.744 355.799C316.913 354.036 314.078 352.399 312.914 354.146V354.151Z" fill="#7ACFEA"/>
<path d="M312.914 354.151C308.592 360.656 313.553 367.979 319.53 371.117C327.289 375.198 336.976 377.228 345.702 376.612C347.794 376.464 347.81 373.19 345.702 373.337C338.506 373.845 331.43 372.312 324.699 369.823C319.35 367.842 311.357 362.407 315.744 355.799C316.913 354.036 314.078 352.399 312.914 354.146V354.151Z" fill="black" fill-opacity="0.7"/>
<path d="M368.261 357.404C370.889 358.844 372.73 361.289 372.457 364.383C372.179 367.559 369.55 369.212 367.037 370.664C362.049 373.551 356.607 375.39 350.93 376.334C348.854 376.677 349.734 379.837 351.799 379.493C358.896 378.314 367.824 375.646 373.047 370.391C378.003 365.403 375.626 357.715 369.911 354.577C368.059 353.562 366.403 356.389 368.256 357.404H368.261Z" fill="#7ACFEA"/>
<path d="M368.261 357.404C370.889 358.844 372.73 361.289 372.457 364.383C372.179 367.559 369.55 369.212 367.037 370.664C362.049 373.551 356.607 375.39 350.93 376.334C348.854 376.677 349.734 379.837 351.799 379.493C358.896 378.314 367.824 375.646 373.047 370.391C378.003 365.403 375.626 357.715 369.911 354.577C368.059 353.562 366.403 356.389 368.256 357.404H368.261Z" fill="black" fill-opacity="0.7"/>
<path d="M296.649 361.578C296.638 362.757 296.43 364.247 296.009 365.965C267.139 380.448 223.452 389.67 174.573 389.67C113.194 389.67 60.0219 375.122 34.0584 353.911C33.7907 350.004 34.1786 345.813 35.3369 341.338C35.6702 340.061 36.0527 338.801 36.4734 337.557C58.5958 273.138 207.902 260.014 243.547 276.445C256.267 282.311 266.615 292.264 274.679 303.522C279.252 309.896 283.093 316.689 286.218 323.374C293.343 338.637 296.763 353.387 296.654 361.584L296.649 361.578Z" fill="#9E8A6F"/>
<path d="M296.649 361.578C296.638 362.757 296.43 364.247 296.009 365.965C267.139 380.448 223.452 389.67 174.573 389.67C113.194 389.67 60.0219 375.122 34.0584 353.911C33.7907 350.004 34.1786 345.813 35.3369 341.338C35.6702 340.061 36.0527 338.801 36.4734 337.557C58.5958 273.138 207.902 260.014 243.547 276.445C256.267 282.311 266.615 292.264 274.679 303.522C279.252 309.896 283.093 316.689 286.218 323.374C293.343 338.637 296.763 353.387 296.654 361.584L296.649 361.578Z" fill="#9E8A6F"/>
<path d="M296.649 361.578C296.638 362.757 296.43 364.247 296.009 365.965C267.139 380.448 223.452 389.67 174.573 389.67C113.194 389.67 60.0219 375.122 34.0584 353.911C33.7907 350.004 34.1786 345.813 35.3369 341.338C35.6702 340.061 36.0527 338.801 36.4734 337.557C58.5958 273.138 207.902 260.014 243.547 276.445C256.267 282.311 266.615 292.264 274.679 303.522C279.252 309.896 283.093 316.689 286.218 323.374C293.343 338.637 296.763 353.387 296.654 361.584L296.649 361.578Z" fill="black" fill-opacity="0.5"/>
<path d="M296.649 361.578C296.638 362.757 296.43 364.247 296.009 365.965C267.139 380.448 223.452 389.67 174.573 389.67C113.194 389.67 60.0219 375.122 34.0584 353.911C33.7907 350.004 34.1786 345.813 35.3369 341.338C35.6702 340.061 36.0527 338.801 36.4734 337.557C121.827 380.066 258.512 342.697 286.213 323.363C293.338 338.626 296.758 353.376 296.649 361.573V361.578Z" fill="#89745B"/>
<path d="M296.649 361.578C296.638 362.757 296.43 364.247 296.009 365.965C267.139 380.448 223.452 389.67 174.573 389.67C113.194 389.67 60.0219 375.122 34.0584 353.911C33.7907 350.004 34.1786 345.813 35.3369 341.338C35.6702 340.061 36.0527 338.801 36.4734 337.557C121.827 380.066 258.512 342.697 286.213 323.363C293.338 338.626 296.758 353.376 296.649 361.573V361.578Z" fill="black" fill-opacity="0.5"/>
<path d="M208.033 425.768C208.033 425.877 208.022 425.997 207.989 426.111C188.664 432.452 164.236 436.228 137.677 436.228C111.118 436.228 86.6683 432.436 67.3323 426.1C67.3323 423.83 67.3978 421.566 67.529 419.307C68.7747 397.326 75.9977 376.754 86.2913 371.826C86.7557 371.597 87.2419 371.395 87.7501 371.198C92.651 369.332 99.4587 368.759 107.277 369.201C132.995 370.647 169.694 382.969 185.741 395.804C191.118 400.093 195.193 403.798 198.297 407.012C207.541 416.622 208.028 421.915 208.028 425.762L208.033 425.768Z" fill="#9E8A6F"/>
<path d="M208.033 425.768C208.033 425.877 208.022 425.997 207.989 426.111C188.664 432.452 164.236 436.228 137.677 436.228C111.118 436.228 86.6683 432.436 67.3323 426.1C67.3323 423.83 67.3978 421.566 67.529 419.307C68.7747 397.326 75.9977 376.754 86.2913 371.826C86.7557 371.597 87.2419 371.395 87.7501 371.198C92.651 369.332 99.4587 368.759 107.277 369.201C132.995 370.647 169.694 382.969 185.741 395.804C191.118 400.093 195.193 403.798 198.297 407.012C207.541 416.622 208.028 421.915 208.028 425.762L208.033 425.768Z" fill="#9E8A6F"/>
<path d="M208.033 425.768C208.033 425.877 208.022 425.997 207.989 426.111C188.664 432.452 164.236 436.228 137.677 436.228C111.118 436.228 86.6683 432.436 67.3323 426.1C67.3323 423.83 67.3978 421.566 67.529 419.307C68.7747 397.326 75.9977 376.754 86.2913 371.826C86.7557 371.597 87.2419 371.395 87.7501 371.198C92.651 369.332 99.4587 368.759 107.277 369.201C132.995 370.647 169.694 382.969 185.741 395.804C191.118 400.093 195.193 403.798 198.297 407.012C207.541 416.622 208.028 421.915 208.028 425.762L208.033 425.768Z" fill="black" fill-opacity="0.5"/>
<path d="M107.283 369.207C100.71 369.889 94.1863 370.554 87.7555 371.204C92.6564 369.338 99.4642 368.765 107.283 369.207Z" fill="#3F372C"/>
<path d="M208.508 425.75C208.508 425.859 208.497 425.979 208.464 426.094C189.139 432.435 164.711 436.211 138.152 436.211C111.593 436.211 87.1429 432.418 67.8069 426.083C67.8069 423.813 67.8725 421.548 68.0036 419.289C122.318 434.486 177.07 415.993 198.771 407C208.016 416.61 208.502 421.903 208.502 425.75H208.508Z" fill="#89745B"/>
<path d="M208.508 425.75C208.508 425.859 208.497 425.979 208.464 426.094C189.139 432.435 164.711 436.211 138.152 436.211C111.593 436.211 87.1429 432.418 67.8069 426.083C67.8069 423.813 67.8725 421.548 68.0036 419.289C122.318 434.486 177.07 415.993 198.771 407C208.016 416.61 208.502 421.903 208.502 425.75H208.508Z" fill="black" fill-opacity="0.5"/>
<path d="M92.8094 442.652C109.752 447.284 127.132 450.269 144.66 451.486C161.958 452.687 179.562 452.714 196.062 446.766C200.209 445.271 204.274 443.525 208.246 441.615C211.628 439.989 214.841 438.079 216.72 434.717C217.748 432.873 214.917 431.219 213.89 433.064C211.694 436.998 206.924 438.695 203.017 440.441C198.351 442.526 193.56 444.343 188.637 445.707C178.229 448.594 167.411 449.02 156.664 448.769C135.372 448.272 114.222 445.107 93.6836 439.492C91.6457 438.935 90.7769 442.095 92.8094 442.652Z" fill="#7ACFEA"/>
<path d="M92.8094 442.652C109.752 447.284 127.132 450.269 144.66 451.486C161.958 452.687 179.562 452.714 196.062 446.766C200.209 445.271 204.274 443.525 208.246 441.615C211.628 439.989 214.841 438.079 216.72 434.717C217.748 432.873 214.917 431.219 213.89 433.064C211.694 436.998 206.924 438.695 203.017 440.441C198.351 442.526 193.56 444.343 188.637 445.707C178.229 448.594 167.411 449.02 156.664 448.769C135.372 448.272 114.222 445.107 93.6836 439.492C91.6457 438.935 90.7769 442.095 92.8094 442.652Z" fill="black" fill-opacity="0.7"/>
<path d="M297.403 343.881C305.828 351.379 308.844 364.306 303.861 374.582C297.84 387.013 284.033 392.486 271.936 397.162C269.991 397.916 270.838 401.081 272.811 400.322C286.115 395.176 301.244 388.988 307.281 374.947C312.149 363.63 308.887 349.725 299.719 341.567C298.151 340.17 295.824 342.479 297.403 343.881Z" fill="#7ACFEA"/>
<path d="M297.403 343.881C305.828 351.379 308.844 364.306 303.861 374.582C297.84 387.013 284.033 392.486 271.936 397.162C269.991 397.916 270.838 401.081 272.811 400.322C286.115 395.176 301.244 388.988 307.281 374.947C312.149 363.63 308.887 349.725 299.719 341.567C298.151 340.17 295.824 342.479 297.403 343.881Z" fill="black" fill-opacity="0.7"/>
<path d="M264.664 427.056C265.784 424.338 264.588 421.752 262.921 419.552C261.725 417.975 259.272 415.476 261.976 413.954C263.719 412.971 265.855 412.786 267.806 412.611C275.657 411.918 283.224 410.336 290.573 407.454C292.513 406.69 291.671 403.525 289.699 404.295C285.393 405.987 280.973 407.318 276.428 408.202C272.111 409.042 267.565 408.917 263.309 409.981C260.594 410.658 257.015 412.458 257.201 415.738C257.419 419.531 263.074 422.368 261.501 426.188C260.698 428.136 263.866 428.982 264.664 427.056Z" fill="#7ACFEA"/>
<path d="M264.664 427.056C265.784 424.338 264.588 421.752 262.921 419.552C261.725 417.975 259.272 415.476 261.976 413.954C263.719 412.971 265.855 412.786 267.806 412.611C275.657 411.918 283.224 410.336 290.573 407.454C292.513 406.69 291.671 403.525 289.699 404.295C285.393 405.987 280.973 407.318 276.428 408.202C272.111 409.042 267.565 408.917 263.309 409.981C260.594 410.658 257.015 412.458 257.201 415.738C257.419 419.531 263.074 422.368 261.501 426.188C260.698 428.136 263.866 428.982 264.664 427.056Z" fill="black" fill-opacity="0.7"/>
<path d="M22.2733 338.741C12.8047 341.093 11.8759 352.367 16.1157 359.591C21.2133 368.29 30.9114 373.065 39.9756 376.546C45.0732 378.505 50.6243 380.18 54.7877 383.88C59.1149 387.727 61.1528 393.255 58.5467 398.668C56.689 402.527 53.6949 405.872 52.6896 410.117C52.0941 412.638 52.5639 415.465 51.4329 417.828C50.3566 420.081 48.0291 421.304 45.7726 422.117C41.1448 423.787 36.2384 424.305 31.6927 426.28C27.1469 428.256 23.1529 431.257 20.8254 435.71C19.8474 437.576 22.6776 439.235 23.6556 437.363C28.3817 428.338 38.5769 428.294 46.9964 425.151C50.2747 423.929 53.3507 421.97 54.6729 418.586C55.6291 416.142 55.2685 413.5 55.8476 410.985C56.3721 408.72 57.6288 406.69 58.8308 404.726C60.9398 401.271 63.1744 397.681 63.1034 393.484C63.0323 389.168 60.7595 385.097 57.7162 382.139C50.444 375.073 39.2926 373.632 30.6819 368.694C25.7154 365.845 20.88 361.971 18.2957 356.743C15.6677 351.433 16.4381 343.559 23.142 341.895C25.1909 341.387 24.3221 338.228 22.2733 338.735V338.741Z" fill="#7ACFEA"/>
<path d="M22.2733 338.741C12.8047 341.093 11.8759 352.367 16.1157 359.591C21.2133 368.29 30.9114 373.065 39.9756 376.546C45.0732 378.505 50.6243 380.18 54.7877 383.88C59.1149 387.727 61.1528 393.255 58.5467 398.668C56.689 402.527 53.6949 405.872 52.6896 410.117C52.0941 412.638 52.5639 415.465 51.4329 417.828C50.3566 420.081 48.0291 421.304 45.7726 422.117C41.1448 423.787 36.2384 424.305 31.6927 426.28C27.1469 428.256 23.1529 431.257 20.8254 435.71C19.8474 437.576 22.6776 439.235 23.6556 437.363C28.3817 428.338 38.5769 428.294 46.9964 425.151C50.2747 423.929 53.3507 421.97 54.6729 418.586C55.6291 416.142 55.2685 413.5 55.8476 410.985C56.3721 408.72 57.6288 406.69 58.8308 404.726C60.9398 401.271 63.1744 397.681 63.1034 393.484C63.0323 389.168 60.7595 385.097 57.7162 382.139C50.444 375.073 39.2926 373.632 30.6819 368.694C25.7154 365.845 20.88 361.971 18.2957 356.743C15.6677 351.433 16.4381 343.559 23.142 341.895C25.1909 341.387 24.3221 338.228 22.2733 338.735V338.741Z" fill="black" fill-opacity="0.7"/>
<path d="M140.42 457.838C135.754 457.145 131.083 456.512 126.4 455.945C121.565 455.361 116.587 454.504 111.719 454.389C107.693 454.291 107.458 457.625 106.742 460.834C105.802 465.025 103.841 470.318 98.7157 470.373C96.6067 470.394 96.6012 473.669 98.7157 473.647C101.967 473.614 104.753 472.004 106.709 469.445C107.862 467.933 108.627 466.198 109.206 464.397C109.763 462.651 109.692 460.19 110.539 458.618C111.473 456.883 115.2 457.991 116.97 458.171C119.418 458.422 121.865 458.689 124.308 458.973C129.4 459.568 134.481 460.25 139.551 460.998C141.617 461.303 142.507 458.149 140.425 457.838H140.42Z" fill="#7ACFEA"/>
<path d="M140.42 457.838C135.754 457.145 131.083 456.512 126.4 455.945C121.565 455.361 116.587 454.504 111.719 454.389C107.693 454.291 107.458 457.625 106.742 460.834C105.802 465.025 103.841 470.318 98.7157 470.373C96.6067 470.394 96.6012 473.669 98.7157 473.647C101.967 473.614 104.753 472.004 106.709 469.445C107.862 467.933 108.627 466.198 109.206 464.397C109.763 462.651 109.692 460.19 110.539 458.618C111.473 456.883 115.2 457.991 116.97 458.171C119.418 458.422 121.865 458.689 124.308 458.973C129.4 459.568 134.481 460.25 139.551 460.998C141.617 461.303 142.507 458.149 140.425 457.838H140.42Z" fill="black" fill-opacity="0.7"/>
<path d="M37.0252 470.105C40.3362 470.951 43.445 472.468 46.7834 473.308C49.8758 474.083 53.0447 474.591 56.2301 474.842C62.7865 475.36 69.3812 474.645 75.7136 472.899C77.7461 472.337 76.8828 469.177 74.8394 469.739C68.7692 471.415 62.5133 472.053 56.2301 471.562C53.1759 471.322 50.1544 470.804 47.1931 470.029C44.0242 469.205 41.0574 467.748 37.9049 466.946C35.8614 466.427 34.9873 469.581 37.0307 470.105H37.0252Z" fill="#7ACFEA"/>
<path d="M37.0252 470.105C40.3362 470.951 43.445 472.468 46.7834 473.308C49.8758 474.083 53.0447 474.591 56.2301 474.842C62.7865 475.36 69.3812 474.645 75.7136 472.899C77.7461 472.337 76.8828 469.177 74.8394 469.739C68.7692 471.415 62.5133 472.053 56.2301 471.562C53.1759 471.322 50.1544 470.804 47.1931 470.029C44.0242 469.205 41.0574 467.748 37.9049 466.946C35.8614 466.427 34.9873 469.581 37.0307 470.105H37.0252Z" fill="black" fill-opacity="0.7"/>
<path d="M245.148 379.021C244.536 373.651 242.596 368.68 239.236 364.424C237.581 362.328 235.636 360.511 233.45 358.978C230.964 357.231 228.118 355.987 226.768 353.101C226.44 353.903 226.112 354.705 225.79 355.507C233.773 353.799 241.897 354.688 249.978 354.705C257.108 354.716 264.238 353.995 271.232 352.615C285.404 349.815 298.943 344.146 310.931 336.108C312.674 334.94 311.035 332.102 309.275 333.281C297.228 341.363 283.683 346.945 269.423 349.641C262.331 350.983 255.125 351.534 247.913 351.414C240.203 351.283 232.516 350.727 224.91 352.358C223.79 352.598 223.512 353.87 223.932 354.765C226.036 359.267 231.292 360.909 234.68 364.244C238.684 368.194 241.23 373.449 241.864 379.032C242.099 381.1 245.383 381.127 245.142 379.032L245.148 379.021Z" fill="#7ACFEA"/>
<path d="M245.148 379.021C244.536 373.651 242.596 368.68 239.236 364.424C237.581 362.328 235.636 360.511 233.45 358.978C230.964 357.231 228.118 355.987 226.768 353.101C226.44 353.903 226.112 354.705 225.79 355.507C233.773 353.799 241.897 354.688 249.978 354.705C257.108 354.716 264.238 353.995 271.232 352.615C285.404 349.815 298.943 344.146 310.931 336.108C312.674 334.94 311.035 332.102 309.275 333.281C297.228 341.363 283.683 346.945 269.423 349.641C262.331 350.983 255.125 351.534 247.913 351.414C240.203 351.283 232.516 350.727 224.91 352.358C223.79 352.598 223.512 353.87 223.932 354.765C226.036 359.267 231.292 360.909 234.68 364.244C238.684 368.194 241.23 373.449 241.864 379.032C242.099 381.1 245.383 381.127 245.142 379.032L245.148 379.021Z" fill="black" fill-opacity="0.7"/>
<path d="M209.159 454.542C219.933 455.175 229.604 448.649 234.576 439.334C238.958 431.132 242.225 416.868 232.254 411.291C230.412 410.259 228.757 413.086 230.598 414.117C239.296 418.985 234.909 432.551 230.882 439.197C226.276 446.793 218.168 451.797 209.153 451.268C207.044 451.142 207.055 454.417 209.153 454.542H209.159Z" fill="#7ACFEA"/>
<path d="M209.159 454.542C219.933 455.175 229.604 448.649 234.576 439.334C238.958 431.132 242.225 416.868 232.254 411.291C230.412 410.259 228.757 413.086 230.598 414.117C239.296 418.985 234.909 432.551 230.882 439.197C226.276 446.793 218.168 451.797 209.153 451.268C207.044 451.142 207.055 454.417 209.153 454.542H209.159Z" fill="black" fill-opacity="0.7"/>
<path d="M33.0422 316.127C21.6449 327.538 -0.155162 336.149 0.773664 355.412C1.16159 363.493 6.41765 370.145 12.4058 375.138C19.6452 381.174 28.0866 385.921 36.6264 389.839C38.5277 390.712 40.1996 387.891 38.2819 387.013C30.2502 383.329 22.2733 378.92 15.3781 373.359C9.60298 368.699 4.02456 362.391 4.03002 354.544C4.04641 337.049 24.8029 329.011 35.3588 318.435C36.8504 316.94 34.5338 314.627 33.0422 316.122V316.127Z" fill="#7ACFEA"/>
<path d="M33.0422 316.127C21.6449 327.538 -0.155162 336.149 0.773664 355.412C1.16159 363.493 6.41765 370.145 12.4058 375.138C19.6452 381.174 28.0866 385.921 36.6264 389.839C38.5277 390.712 40.1996 387.891 38.2819 387.013C30.2502 383.329 22.2733 378.92 15.3781 373.359C9.60298 368.699 4.02456 362.391 4.03002 354.544C4.04641 337.049 24.8029 329.011 35.3588 318.435C36.8504 316.94 34.5338 314.627 33.0422 316.122V316.127Z" fill="black" fill-opacity="0.7"/>
<path d="M292.95 320.738C296.37 322.244 298.927 324.482 301.025 327.554C302.626 329.895 304.063 332.291 306.308 334.086C310.745 337.633 316.586 338.621 322.131 338.435C329.239 338.195 336.162 336.574 343.308 336.842C350.892 337.125 358.383 338.817 365.365 341.786C367.283 342.604 368.955 339.783 367.021 338.959C360.836 336.329 354.411 334.599 347.723 333.884C340.435 333.109 333.463 334.08 326.234 334.85C320 335.51 312.613 335.565 307.707 330.992C305.401 328.842 304.079 325.895 302.09 323.483C300.069 321.038 297.506 319.189 294.611 317.912C292.698 317.071 291.026 319.887 292.955 320.738H292.95Z" fill="#7ACFEA"/>
<path d="M292.95 320.738C296.37 322.244 298.927 324.482 301.025 327.554C302.626 329.895 304.063 332.291 306.308 334.086C310.745 337.633 316.586 338.621 322.131 338.435C329.239 338.195 336.162 336.574 343.308 336.842C350.892 337.125 358.383 338.817 365.365 341.786C367.283 342.604 368.955 339.783 367.021 338.959C360.836 336.329 354.411 334.599 347.723 333.884C340.435 333.109 333.463 334.08 326.234 334.85C320 335.51 312.613 335.565 307.707 330.992C305.401 328.842 304.079 325.895 302.09 323.483C300.069 321.038 297.506 319.189 294.611 317.912C292.698 317.071 291.026 319.887 292.955 320.738H292.95Z" fill="black" fill-opacity="0.7"/>
<path d="M301.626 404.158C305.571 402.701 308.909 400.049 310.838 396.262C312.553 392.89 313.034 388.071 316.023 385.512C318.181 383.662 321.262 384.093 323.885 384.268C326.743 384.459 329.6 384.683 332.452 384.934C338.517 385.469 344.565 386.145 350.597 386.942C352.684 387.215 352.662 383.941 350.597 383.668C344.565 382.871 338.517 382.194 332.452 381.66C329.42 381.392 326.387 381.152 323.35 380.961C320.907 380.803 318.421 380.677 316.121 381.649C312.783 383.062 311.193 386.358 309.991 389.561C308.106 394.582 306.199 399.002 300.757 401.004C298.796 401.73 299.643 404.895 301.631 404.164L301.626 404.158Z" fill="#7ACFEA"/>
<path d="M301.626 404.158C305.571 402.701 308.909 400.049 310.838 396.262C312.553 392.89 313.034 388.071 316.023 385.512C318.181 383.662 321.262 384.093 323.885 384.268C326.743 384.459 329.6 384.683 332.452 384.934C338.517 385.469 344.565 386.145 350.597 386.942C352.684 387.215 352.662 383.941 350.597 383.668C344.565 382.871 338.517 382.194 332.452 381.66C329.42 381.392 326.387 381.152 323.35 380.961C320.907 380.803 318.421 380.677 316.121 381.649C312.783 383.062 311.193 386.358 309.991 389.561C308.106 394.582 306.199 399.002 300.757 401.004C298.796 401.73 299.643 404.895 301.631 404.164L301.626 404.158Z" fill="black" fill-opacity="0.7"/>
</g>
<path d="M252.95 42.4886C254.447 44.8273 255.936 48.2416 253.298 49.8968L188.075 66.2513C185.961 66.7813 185.961 69.7332 188.075 70.2632L252.312 86.3705C256.054 88.1361 253.428 92.7008 251.735 95.0389C236.076 114.022 204.442 131 167.968 131C115.93 131 73.7463 104.585 73.7463 72C73.7463 39.4152 115.93 13 167.968 13C205.412 13 237.755 22.6773 252.95 42.4886Z" fill="#A3CDF5"/>
<path d="M252.95 42.4886C254.447 44.8273 255.936 48.2416 253.298 49.8968L188.075 66.2513C185.961 66.7813 185.961 69.7332 188.075 70.2632L252.312 86.3705C256.054 88.1361 253.428 92.7008 251.735 95.0389C236.076 114.022 204.442 131 167.968 131C115.93 131 73.7463 104.585 73.7463 72C73.7463 39.4152 115.93 13 167.968 13C205.412 13 237.755 22.6773 252.95 42.4886Z" fill="black" fill-opacity="0.7"/>
<path d="M253.746 34C255.746 37 255.746 45 253.301 46.5105L191.346 62.3105C189.338 62.8226 189.338 65.6744 191.346 66.1865L252.746 75C259.246 78 253.424 87.8635 251.816 90.1223C236.942 108.462 206.893 121 172.246 121C122.817 121 82.7463 95.4802 82.7463 64C82.7463 32.5198 122.817 7 172.246 7C207.815 7 239.313 14.8602 253.746 34Z" fill="#8BAD54"/>
<path d="M253.746 34C255.746 37 255.746 45 253.301 46.5105L191.346 62.3105C189.338 62.8226 189.338 65.6744 191.346 66.1865L252.746 75C259.246 78 253.424 87.8635 251.816 90.1223C236.942 108.462 206.893 121 172.246 121C122.817 121 82.7463 95.4802 82.7463 64C82.7463 32.5198 122.817 7 172.246 7C207.815 7 239.313 14.8602 253.746 34Z" fill="black" fill-opacity="0.6"/>
<path d="M252.97 32.3534C254.392 34.6128 255.807 37.9114 253.301 39.5105L191.346 55.3105C189.338 55.8226 189.338 58.6744 191.346 59.1865L252.365 74.7478C255.918 76.4535 253.424 80.8635 251.816 83.1223C236.942 101.462 206.893 114 172.246 114C122.817 114 82.7463 88.4802 82.7463 57C82.7463 25.5198 122.817 0 172.246 0C207.815 0 238.536 13.2136 252.97 32.3534Z" fill="#9DC65A"/>
<path d="M252.97 32.3534C254.392 34.6128 255.807 37.9114 253.301 39.5105L191.346 55.3105C189.338 55.8226 189.338 58.6744 191.346 59.1865L252.365 74.7478C255.918 76.4535 253.424 80.8635 251.816 83.1223C236.942 101.462 206.893 114 172.246 114C122.817 114 82.7463 88.4802 82.7463 57C82.7463 25.5198 122.817 0 172.246 0C207.815 0 238.536 13.2136 252.97 32.3534Z" fill="black" fill-opacity="0.6"/>
</g>
<defs>
<clipPath id="clip0_4684_41421">
<rect width="375" height="563" fill="white" transform="translate(0.746346)"/>
</clipPath>
<clipPath id="clip1_4684_41421">
<rect width="375" height="205" fill="white" transform="translate(0.746346 270)"/>
</clipPath>
</defs>
</svg>
