<svg width="270" height="70" viewBox="0 0 270 70" fill="none" xmlns="http://www.w3.org/2000/svg">
<path fill-rule="evenodd" clip-rule="evenodd" d="M20 12C8.95431 12 0 20.9543 0 32V70H270V32C270 20.9543 261.046 12 250 12H20Z" fill="#F5C93B"/>
<path d="M133 12.8696C133 12.8696 129.564 10.6088 131.855 1.00006C131.855 1.00006 124.984 5.5218 126.129 12.8696H133Z" fill="#F5C93B"/>
<path d="M139.032 13.1262C139.032 13.1262 135.108 11.6156 134.778 1.03855C134.778 1.03855 129.327 7.44169 132.383 14.8172L139.032 13.1262Z" fill="#F5C93B"/>
<path d="M145.333 11.977C145.333 11.977 140.948 11.917 137.312 1.88879C137.312 1.88879 133.878 9.95988 139.23 15.9525L145.333 11.977Z" fill="#F5C93B"/>
<path fill-rule="evenodd" clip-rule="evenodd" d="M163.332 21C176.205 21 182.975 37.1229 183.876 48.1066V48.1402C183.928 48.7664 183.964 49.3962 183.984 50.0279L184 50C184 68.5 224.5 70 224.5 70H47C47 70 83.5 70 87 50.5L87.0049 50.508C87.0182 49.7154 87.0584 48.925 87.1241 48.1402C88.0579 37.1565 94.7949 21.0336 107.668 21.0336C111.004 21.0336 114.039 22.3772 115.906 25.1651C117.841 28.0538 118.708 31.715 118.908 35.1411C119.002 36.6863 118.997 38.2848 118.992 39.8994V39.8996V39.8997C118.978 44.5676 118.964 49.3708 121.342 53.4137C122.176 54.8245 123.277 56.2688 124.544 57.3437C129.413 61.5087 137.618 61.1057 143.287 59.1239C146.156 58.1162 148.157 55.9665 149.658 53.3801C152.059 49.298 152.04 44.4409 152.021 39.7305V39.7303V39.7301C152.015 38.1616 152.009 36.6094 152.092 35.1075C152.292 31.6814 153.159 28.0202 155.094 25.1315C156.961 22.3436 159.996 21 163.332 21Z" fill="white"/>
<path d="M135.93 58H143.875C144.835 58 145.244 59.2199 144.478 59.798L141.432 62.0986L136.531 65.7491C136.175 66.0146 135.686 66.013 135.331 65.7452L130.502 62.0986L127.419 59.8019C126.647 59.2269 127.054 58 128.016 58H135.93Z" fill="#FF7F01"/>
<path d="M110.225 47.6401C110.225 49.5302 108.7 51.0556 106.81 51.0556C104.92 51.0556 103.394 49.5302 103.394 47.6401C103.394 45.75 104.92 44.2246 106.81 44.2246C108.7 44.2246 110.225 45.75 110.225 47.6401Z" fill="#131B1D"/>
<path d="M168.972 47.6401C168.972 49.5302 167.446 51.0556 165.556 51.0556C163.666 51.0556 162.141 49.5302 162.141 47.6401C162.141 45.75 163.666 44.2246 165.556 44.2246C167.446 44.2246 168.972 45.75 168.972 47.6401Z" fill="#131B1D"/>
</svg>
