<svg width="270" height="70" viewBox="0 0 270 70" fill="none" xmlns="http://www.w3.org/2000/svg">
<g clip-path="url(#clip0_3613_319060)">
<rect x="83" width="19" height="28" rx="9.5" fill="#F5C93B"/>
<rect x="89" y="6" width="7" height="13" rx="3.5" fill="#AE8605"/>
<rect x="167" width="19" height="28" rx="9.5" fill="#F5C93B"/>
<rect x="173" y="6" width="7" height="13" rx="3.5" fill="#AE8605"/>
<path fill-rule="evenodd" clip-rule="evenodd" d="M20 12C8.95431 12 0 20.9543 0 32V70H270V32C270 20.9543 261.046 12 250 12H20Z" fill="#F5C93B"/>
<path d="M165 27.3436C165 33.0473 160.525 37.6873 155.023 37.6873H117.977C112.475 37.6873 108 33.0656 108 27.3436C108 21.64 112.457 17 117.977 17H155.023C160.525 17 165 21.6216 165 27.3436Z" fill="#FFF3CB"/>
<path d="M152.425 48.1419C152.425 57.4218 145.162 64.9595 136.212 64.9595C127.263 64.9595 120 57.4218 120 48.1419V35.8176C120 26.5193 127.263 19 136.212 19C145.162 19 152.425 26.5193 152.425 35.8176V48.1419Z" fill="#FFE284"/>
<path d="M144.093 57.4973H128.889V59.4597H144.093V57.4973Z" fill="#0F3F6B"/>
<path d="M146 45.5218C146 49.7767 142.662 53.2429 138.554 53.2429H134.446C130.338 53.2429 127 49.7767 127 45.5218C127 41.267 130.338 37.8008 134.446 37.8008H138.554C142.662 37.8008 146 41.2487 146 45.5218Z" fill="#4D3D04"/>
<path d="M133.639 48.145C133.639 49.0436 132.924 49.7955 132.062 49.7955C131.2 49.7955 130.484 49.062 130.484 48.145C130.484 47.228 131.2 46.4944 132.062 46.4944C132.924 46.4944 133.639 47.228 133.639 48.145Z" fill="#051E35"/>
<path d="M141.874 47.9797C141.874 48.8783 141.158 49.6302 140.296 49.6302C139.434 49.6302 138.719 48.8966 138.719 47.9797C138.719 47.0627 139.434 46.3474 140.296 46.3474C141.158 46.3474 141.874 47.081 141.874 47.9797Z" fill="#051E35"/>
<path d="M119.389 26.6312C119.389 28.2634 118.105 29.5839 116.546 29.5839C114.987 29.5839 113.703 28.2634 113.703 26.6312C113.703 24.9989 114.987 23.6785 116.546 23.6785C118.105 23.6785 119.389 24.9989 119.389 26.6312Z" fill="#333333"/>
<path d="M158.747 26.5589C158.747 28.1911 157.463 29.5116 155.886 29.5116C154.309 29.5116 153.043 28.1911 153.043 26.5589C153.043 24.9267 154.327 23.6062 155.886 23.6062C157.445 23.6062 158.747 24.9267 158.747 26.5589Z" fill="#333333"/>
</g>
<defs>
<clipPath id="clip0_3613_319060">
<rect width="270" height="70" fill="white"/>
</clipPath>
</defs>
</svg>
