<svg width="454" height="126" viewBox="0 0 454 126" fill="none" xmlns="http://www.w3.org/2000/svg">
<g clip-path="url(#clip0_3619_316728)">
<path d="M-1 73.8346H307.894L297.188 64.3542L275.169 62.2135L267.522 50.8971L223.788 44.4747L210.637 49.0625L181.583 33.1598L161.093 47.228L115.522 12.363H85.2452L57.7198 36.8289L32.6415 34.6881L25.3019 43.0996L7.56313 47.5328L-1 73.8346Z" fill="#D2E3F7"/>
<path d="M-1 73.8346H307.894L297.188 64.3542L275.169 62.2135L267.522 50.8971L223.788 44.4747L210.637 49.0625L181.583 33.1598L161.093 47.228L115.522 12.363H85.2452L57.7198 36.8289L32.6415 34.6881L25.3019 43.0996L7.56313 47.5328L-1 73.8346Z" fill="black" fill-opacity="0.8"/>
<path d="M32.6416 34.6881L57.72 36.8289L84.7354 12.3616H115.522L161.091 47.2265L114.196 26.736C114.196 26.736 88.2008 19.6001 87.792 19.8038C87.3831 20.0074 58.5332 43.0981 58.5332 43.0981L32.6387 34.6881H32.6416Z" fill="white"/>
<path d="M32.6416 34.6881L57.72 36.8289L84.7354 12.3616H115.522L161.091 47.2265L114.196 26.736C114.196 26.736 88.2008 19.6001 87.792 19.8038C87.3831 20.0074 58.5332 43.0981 58.5332 43.0981L32.6387 34.6881H32.6416Z" fill="black" fill-opacity="0.8"/>
<path d="M181.583 33.1599C181.583 33.1599 184.335 43.0491 184.845 43.0997C185.355 43.1502 209.21 53.1405 209.21 53.1405L227.05 50.7961L267.522 50.8986L223.788 44.4763L210.637 49.0641L181.583 33.1614V33.1599Z" fill="white"/>
<path d="M181.583 33.1599C181.583 33.1599 184.335 43.0491 184.845 43.0997C185.355 43.1502 209.21 53.1405 209.21 53.1405L227.05 50.7961L267.522 50.8986L223.788 44.4763L210.637 49.0641L181.583 33.1614V33.1599Z" fill="black" fill-opacity="0.8"/>
<path d="M297.189 64.3542L273.563 65.2714L275.17 62.2134L297.189 64.3542Z" fill="white"/>
<path d="M297.189 64.3542L273.563 65.2714L275.17 62.2134L297.189 64.3542Z" fill="black" fill-opacity="0.8"/>
<path d="M87.6596 20L61.8677 74.0309L58.4023 43.2958L87.6596 20Z" fill="#AFD2F7"/>
<path d="M87.6596 20L61.8677 74.0309L58.4023 43.2958L87.6596 20Z" fill="black" fill-opacity="0.8"/>
<path d="M61.8675 74.0308L-1 73.6175L7.42933 47.729L25.168 43.2958L32.5076 34.8843L58.4022 43.2958L61.8675 74.0308Z" fill="#AFD2F7"/>
<path d="M61.8675 74.0308L-1 73.6175L7.42933 47.729L25.168 43.2958L32.5076 34.8843L58.4022 43.2958L61.8675 74.0308Z" fill="black" fill-opacity="0.8"/>
<path d="M181.583 33.1599L161.093 47.2281L140.092 73.8347H144.424H176.231L184.845 43.0997L181.583 33.1599Z" fill="#AFD2F7"/>
<path d="M181.583 33.1599L161.093 47.2281L140.092 73.8347H144.424H176.231L184.845 43.0997L181.583 33.1599Z" fill="black" fill-opacity="0.8"/>
<path d="M90.1396 64.3542L62.0017 73.8346H146.412L90.1396 64.3542Z" fill="#AFD2F7"/>
<path d="M90.1396 64.3542L62.0017 73.8346H146.412L90.1396 64.3542Z" fill="black" fill-opacity="0.8"/>
<path d="M176.232 73.8345L209.21 53.1403L227.051 50.7959L267.523 50.897L273.563 65.2714L307.894 73.8345H176.232Z" fill="#AFD2F7"/>
<path d="M176.232 73.8345L209.21 53.1403L227.051 50.7959L267.523 50.897L273.563 65.2714L307.894 73.8345H176.232Z" fill="black" fill-opacity="0.8"/>
<path d="M58.5361 43.0995L49.7693 67.2085L32.6416 34.688L58.5361 43.0995Z" fill="url(#paint0_linear_3619_316728)"/>
<path d="M58.5361 43.0995L49.7693 67.2085L32.6416 34.688L58.5361 43.0995Z" fill="black" fill-opacity="0.8"/>
<path d="M25.3022 43.0996L19.1846 67.2086L7.56348 47.5328L18.7267 48.2984L25.3022 43.0996Z" fill="url(#paint1_linear_3619_316728)"/>
<path d="M25.3022 43.0996L19.1846 67.2086L7.56348 47.5328L18.7267 48.2984L25.3022 43.0996Z" fill="black" fill-opacity="0.8"/>
<path d="M62.0016 73.8345L48.4686 70.7007H26.9077L17.8094 71.389L-0.999756 73.8345H62.0016Z" fill="url(#paint2_linear_3619_316728)"/>
<path d="M62.0016 73.8345L48.4686 70.7007H26.9077L17.8094 71.389L-0.999756 73.8345H62.0016Z" fill="black" fill-opacity="0.8"/>
<path d="M62.3853 73.8345C62.3853 73.8345 88.534 69.553 88.7629 69.553C88.9919 69.553 140.704 73.8345 140.704 73.8345H62.3838H62.3853Z" fill="url(#paint3_linear_3619_316728)"/>
<path d="M62.3853 73.8345C62.3853 73.8345 88.534 69.553 88.7629 69.553C88.9919 69.553 140.704 73.8345 140.704 73.8345H62.3838H62.3853Z" fill="black" fill-opacity="0.8"/>
<path d="M184.845 43.0996L176.232 47.228V73.8347L184.845 43.0996Z" fill="url(#paint4_linear_3619_316728)"/>
<path d="M184.845 43.0996L176.232 47.228V73.8347L184.845 43.0996Z" fill="black" fill-opacity="0.8"/>
<path d="M215.734 73.8346L210.128 56.301L204.928 73.8346H215.734Z" fill="url(#paint5_linear_3619_316728)"/>
<path d="M215.734 73.8346L210.128 56.301L204.928 73.8346H215.734Z" fill="black" fill-opacity="0.8"/>
<path d="M215.735 73.8346L242.062 70.1655L307.894 73.8346H215.735Z" fill="url(#paint6_linear_3619_316728)"/>
<path d="M215.735 73.8346L242.062 70.1655L307.894 73.8346H215.735Z" fill="black" fill-opacity="0.8"/>
<g opacity="0.17">
<path d="M-1 73.3574H307.894L297.188 80.4488L275.169 82.0499L267.522 90.5134L223.788 95.3168L210.637 91.8856L181.583 103.78L161.093 93.2577L115.522 119.335H85.2452L57.7198 101.036L32.6415 102.637L25.3019 96.3455L7.56313 93.0288L-1 73.3574Z" fill="#DBEBFF"/>
<path d="M-1 73.3574H307.894L297.188 80.4488L275.169 82.0499L267.522 90.5134L223.788 95.3168L210.637 91.8856L181.583 103.78L161.093 93.2577L115.522 119.335H85.2452L57.7198 101.036L32.6415 102.637L25.3019 96.3455L7.56313 93.0288L-1 73.3574Z" fill="black" fill-opacity="0.8"/>
<path d="M32.6416 102.637L57.72 101.036L84.7354 119.335H115.522L161.091 93.2593L114.196 108.585C114.196 108.585 88.2008 113.922 87.792 113.771C87.3846 113.617 58.5332 96.3485 58.5332 96.3485L32.6387 102.639L32.6416 102.637Z" fill="#F0F6FF"/>
<path d="M32.6416 102.637L57.72 101.036L84.7354 119.335H115.522L161.091 93.2593L114.196 108.585C114.196 108.585 88.2008 113.922 87.792 113.771C87.3846 113.617 58.5332 96.3485 58.5332 96.3485L32.6387 102.639L32.6416 102.637Z" fill="black" fill-opacity="0.8"/>
<path d="M181.583 103.78C181.583 103.78 184.335 96.3842 184.845 96.3455C185.355 96.3069 209.21 88.835 209.21 88.835L227.05 90.5892L267.522 90.5134L223.788 95.3168L210.637 91.8856L181.583 103.78Z" fill="#F0F6FF"/>
<path d="M181.583 103.78C181.583 103.78 184.335 96.3842 184.845 96.3455C185.355 96.3069 209.21 88.835 209.21 88.835L227.05 90.5892L267.522 90.5134L223.788 95.3168L210.637 91.8856L181.583 103.78Z" fill="black" fill-opacity="0.8"/>
<path d="M297.189 80.4488L273.563 79.762L275.17 82.0499L297.189 80.4488Z" fill="#F0F6FF"/>
<path d="M297.189 80.4488L273.563 79.762L275.17 82.0499L297.189 80.4488Z" fill="black" fill-opacity="0.8"/>
<path d="M87.7934 113.769L62.0015 73.3574L58.5361 96.3455L87.7934 113.769Z" fill="#B4D9FF"/>
<path d="M87.7934 113.769L62.0015 73.3574L58.5361 96.3455L87.7934 113.769Z" fill="black" fill-opacity="0.8"/>
<path d="M62.0016 73.3574L-0.865967 73.6666L7.56336 93.0288L25.3021 96.3455L32.6417 102.637L58.5362 96.3455L62.0016 73.3574Z" fill="#B4D9FF"/>
<path d="M62.0016 73.3574L-0.865967 73.6666L7.56336 93.0288L25.3021 96.3455L32.6417 102.637L58.5362 96.3455L62.0016 73.3574Z" fill="black" fill-opacity="0.8"/>
<path d="M181.583 103.78L161.093 93.2577L140.092 73.3574H144.424H176.231L184.845 96.3455L181.583 103.78Z" fill="#B4D9FF"/>
<path d="M181.583 103.78L161.093 93.2577L140.092 73.3574H144.424H176.231L184.845 96.3455L181.583 103.78Z" fill="black" fill-opacity="0.8"/>
<path d="M90.1396 80.4488L62.0017 73.3574H146.412L90.1396 80.4488Z" fill="#B4D9FF"/>
<path d="M90.1396 80.4488L62.0017 73.3574H146.412L90.1396 80.4488Z" fill="black" fill-opacity="0.8"/>
<path d="M176.232 73.3574L209.21 88.8364L227.051 90.5892L267.523 90.5134L273.563 79.7619L307.894 73.3574H176.232Z" fill="#B4D9FF"/>
<path d="M176.232 73.3574L209.21 88.8364L227.051 90.5892L267.523 90.5134L273.563 79.7619L307.894 73.3574H176.232Z" fill="black" fill-opacity="0.8"/>
<path d="M58.5361 96.3456L49.7693 78.314L32.6416 102.637L58.5361 96.3456Z" fill="url(#paint7_linear_3619_316728)"/>
<path d="M58.5361 96.3456L49.7693 78.314L32.6416 102.637L58.5361 96.3456Z" fill="black" fill-opacity="0.8"/>
<path d="M25.3022 96.3456L19.1846 78.314L7.56348 93.0288L18.7267 92.458L25.3022 96.3456Z" fill="url(#paint8_linear_3619_316728)"/>
<path d="M25.3022 96.3456L19.1846 78.314L7.56348 93.0288L18.7267 92.458L25.3022 96.3456Z" fill="black" fill-opacity="0.8"/>
<path d="M62.0013 73.3574L48.4683 75.7019H26.9074L17.8091 75.1875L-1 73.3574H62.0013Z" fill="url(#paint9_linear_3619_316728)"/>
<path d="M62.0013 73.3574L48.4683 75.7019H26.9074L17.8091 75.1875L-1 73.3574H62.0013Z" fill="black" fill-opacity="0.8"/>
<path d="M62.3853 73.3574C62.3853 73.3574 88.534 76.5597 88.7629 76.5597C88.9919 76.5597 140.704 73.3574 140.704 73.3574H62.3838H62.3853Z" fill="url(#paint10_linear_3619_316728)"/>
<path d="M62.3853 73.3574C62.3853 73.3574 88.534 76.5597 88.7629 76.5597C88.9919 76.5597 140.704 73.3574 140.704 73.3574H62.3838H62.3853Z" fill="black" fill-opacity="0.8"/>
<path d="M184.845 96.3455L176.232 93.2577V73.3574L184.845 96.3455Z" fill="url(#paint11_linear_3619_316728)"/>
<path d="M184.845 96.3455L176.232 93.2577V73.3574L184.845 96.3455Z" fill="black" fill-opacity="0.8"/>
<path d="M215.734 73.3574L210.128 86.4727L204.928 73.3574H215.734Z" fill="url(#paint12_linear_3619_316728)"/>
<path d="M215.734 73.3574L210.128 86.4727L204.928 73.3574H215.734Z" fill="black" fill-opacity="0.8"/>
<path d="M215.735 73.3574L242.062 76.1033L307.894 73.3574H215.735Z" fill="url(#paint13_linear_3619_316728)"/>
<path d="M215.735 73.3574L242.062 76.1033L307.894 73.3574H215.735Z" fill="black" fill-opacity="0.8"/>
</g>
<g opacity="0.17">
<path d="M281 89.4167H449.518L450.612 107.648L433.287 113.223L408.483 149.385L386.05 152.549L380.762 140.947L360.699 135.522L357.234 123.62L349.028 120.305L338.814 131.907L327.871 127.185L316.381 99.361L284.465 96.6493L281 89.4167Z" fill="#DBEBFF"/>
<path d="M281 89.4167H449.518L450.612 107.648L433.287 113.223L408.483 149.385L386.05 152.549L380.762 140.947L360.699 135.522L357.234 123.62L349.028 120.305L338.814 131.907L327.871 127.185L316.381 99.361L284.465 96.6493L281 89.4167Z" fill="black" fill-opacity="0.8"/>
<path d="M339.361 127.914L330.972 89.4167H313.342L316.381 99.361L327.871 127.185L338.51 129.345L339.361 127.914Z" fill="#B4D9FF"/>
<path d="M339.361 127.914L330.972 89.4167H313.342L316.381 99.361L327.871 127.185L338.51 129.345L339.361 127.914Z" fill="black" fill-opacity="0.8"/>
<path d="M360.699 135.522L382.584 136.451L386.05 152.549L405.656 126.182L430.459 110.963L450.612 107.647L432.98 113.67L408.483 149.385L386.05 152.549L380.762 140.947L360.699 135.522Z" fill="#F0F6FF"/>
<path d="M360.699 135.522L382.584 136.451L386.05 152.549L405.656 126.182L430.459 110.963L450.612 107.647L432.98 113.67L408.483 149.385L386.05 152.549L380.762 140.947L360.699 135.522Z" fill="black" fill-opacity="0.8"/>
<path d="M430.459 110.963L442.587 106.192L450.016 107.746L430.459 110.963Z" fill="#F0F6FF"/>
<path d="M430.459 110.963L442.587 106.192L450.016 107.746L430.459 110.963Z" fill="black" fill-opacity="0.8"/>
<path d="M316.381 99.3609L291.214 93.4336L284.466 96.6492L316.381 99.3609Z" fill="#F0F6FF"/>
<path d="M316.381 99.3609L291.214 93.4336L284.466 96.6492L316.381 99.3609Z" fill="black" fill-opacity="0.8"/>
<path d="M382.585 136.451L371.824 120.355L366.717 103.479L362.706 89.4167H344.468L349.028 120.305L357.234 123.62L360.7 135.522L382.585 136.451Z" fill="#B4D9FF"/>
<path d="M382.585 136.451L371.824 120.355L366.717 103.479L362.706 89.4167H344.468L349.028 120.305L357.234 123.62L360.7 135.522L382.585 136.451Z" fill="black" fill-opacity="0.8"/>
<path d="M291.213 93.4337L296.198 89.4167L310.06 92.732L316.868 89.4167H281L284.465 96.6493L291.213 93.4337Z" fill="#B4D9FF"/>
<path d="M291.213 93.4337L296.198 89.4167L310.06 92.732L316.868 89.4167H281L284.465 96.6493L291.213 93.4337Z" fill="black" fill-opacity="0.8"/>
<path d="M344.468 89.4167L331.671 94.5145L326.352 89.4167H344.468Z" fill="#B4D9FF"/>
<path d="M344.468 89.4167L331.671 94.5145L326.352 89.4167H344.468Z" fill="black" fill-opacity="0.8"/>
<path d="M284.466 96.6493L290.326 93.8574L296.199 89.4167L286.107 93.0323L284.466 96.6493Z" fill="url(#paint14_linear_3619_316728)"/>
<path d="M284.466 96.6493L290.326 93.8574L296.199 89.4167L286.107 93.0323L284.466 96.6493Z" fill="black" fill-opacity="0.8"/>
<path d="M335.987 126.784L330.121 121.811L333.638 126.784H335.987Z" fill="url(#paint15_linear_3619_316728)"/>
<path d="M335.987 126.784L330.121 121.811L333.638 126.784H335.987Z" fill="black" fill-opacity="0.8"/>
<path d="M325.5 89.4167L339.362 127.914L330.972 89.4167H325.5Z" fill="url(#paint16_linear_3619_316728)"/>
<path d="M325.5 89.4167L339.362 127.914L330.972 89.4167H325.5Z" fill="black" fill-opacity="0.8"/>
<path d="M436.934 89.4167L442.587 106.192L431.036 94.3391L404.531 91.6274L423.74 107.664C423.903 107.801 423.698 108.019 423.497 107.92L393.223 93.0323L362.705 89.4167H436.934Z" fill="url(#paint17_linear_3619_316728)"/>
<path d="M436.934 89.4167L442.587 106.192L431.036 94.3391L404.531 91.6274L423.74 107.664C423.903 107.801 423.698 108.019 423.497 107.92L393.223 93.0323L362.705 89.4167H436.934Z" fill="black" fill-opacity="0.8"/>
<path d="M357.234 123.62L357.044 123.067L350.61 104.323C350.56 104.179 350.302 104.219 350.318 104.368L352.127 121.558L357.234 123.622V123.62Z" fill="url(#paint18_linear_3619_316728)"/>
<path d="M357.234 123.62L357.044 123.067L350.61 104.323C350.56 104.179 350.302 104.219 350.318 104.368L352.127 121.558L357.234 123.622V123.62Z" fill="black" fill-opacity="0.8"/>
<path d="M358.147 89.4167L371.824 120.355L362.706 89.4167H358.147Z" fill="url(#paint19_linear_3619_316728)"/>
<path d="M358.147 89.4167L371.824 120.355L362.706 89.4167H358.147Z" fill="black" fill-opacity="0.8"/>
<path d="M353.845 89.4167L361.749 106.589C361.849 106.806 362.243 106.712 362.189 106.485L358.147 89.4167H353.846H353.845Z" fill="url(#paint20_linear_3619_316728)"/>
<path d="M353.845 89.4167L361.749 106.589C361.849 106.806 362.243 106.712 362.189 106.485L358.147 89.4167H353.846H353.845Z" fill="black" fill-opacity="0.8"/>
</g>
<path d="M281 89.4169H449.518L450.612 67.349L433.287 60.6011L408.483 16.8296L386.05 13L380.762 27.0429L360.699 33.608L357.234 48.0166L349.028 52.0291L338.814 37.9862L327.871 43.7008L316.381 77.3795L284.465 80.662L281 89.4169Z" fill="#DBEBFF"/>
<path d="M281 89.4169H449.518L450.612 67.349L433.287 60.6011L408.483 16.8296L386.05 13L380.762 27.0429L360.699 33.608L357.234 48.0166L349.028 52.0291L338.814 37.9862L327.871 43.7008L316.381 77.3795L284.465 80.662L281 89.4169Z" fill="black" fill-opacity="0.8"/>
<path d="M339.361 42.8194L330.972 89.417H313.342L316.381 77.3796L327.871 43.701L338.51 41.0859L339.361 42.8194Z" fill="#B4D9FF"/>
<path d="M339.361 42.8194L330.972 89.417H313.342L316.381 77.3796L327.871 43.701L338.51 41.0859L339.361 42.8194Z" fill="black" fill-opacity="0.8"/>
<path d="M442.587 69.1123L442.384 69.8452L436.934 89.417H362.705C362.705 89.417 405.473 46.0721 405.656 45.525C405.839 44.9779 442.587 69.1123 442.587 69.1123Z" fill="#BFDFFF"/>
<path d="M442.587 69.1123L442.384 69.8452L436.934 89.417H362.705C362.705 89.417 405.473 46.0721 405.656 45.525C405.839 44.9779 442.587 69.1123 442.587 69.1123Z" fill="black" fill-opacity="0.8"/>
<path d="M327.871 43.7008L335.987 44.1869L339.362 42.8192L338.815 37.9861L327.871 43.7008Z" fill="#F0F6FF"/>
<path d="M327.871 43.7008L335.987 44.1869L339.362 42.8192L338.815 37.9861L327.871 43.7008Z" fill="black" fill-opacity="0.8"/>
<path d="M360.699 33.608L382.584 32.4841L386.05 13L405.656 44.9154L430.459 63.3365L450.612 67.349L432.98 60.06L408.483 16.8296L386.05 13L380.762 27.0429L360.699 33.608Z" fill="#F0F6FF"/>
<path d="M360.699 33.608L382.584 32.4841L386.05 13L405.656 44.9154L430.459 63.3365L450.612 67.349L432.98 60.06L408.483 16.8296L386.05 13L380.762 27.0429L360.699 33.608Z" fill="black" fill-opacity="0.8"/>
<path d="M430.459 63.3367L442.587 69.1123L450.016 67.2302L430.459 63.3367Z" fill="#F0F6FF"/>
<path d="M430.459 63.3367L442.587 69.1123L450.016 67.2302L430.459 63.3367Z" fill="black" fill-opacity="0.8"/>
<path d="M316.381 77.3794L291.214 84.5525L284.466 80.6619L316.381 77.3794Z" fill="#F0F6FF"/>
<path d="M316.381 77.3794L291.214 84.5525L284.466 80.6619L316.381 77.3794Z" fill="black" fill-opacity="0.8"/>
<path d="M382.585 32.4841L371.824 51.9682L366.717 72.3948L362.706 89.417H344.468L349.028 52.0291L357.234 48.0167L360.7 33.608L382.585 32.4841Z" fill="#B4D9FF"/>
<path d="M382.585 32.4841L371.824 51.9682L366.717 72.3948L362.706 89.417H344.468L349.028 52.0291L357.234 48.0167L360.7 33.608L382.585 32.4841Z" fill="black" fill-opacity="0.8"/>
<path d="M291.213 84.5527L296.198 89.417L310.06 85.4045L316.868 89.417H281L284.465 80.6621L291.213 84.5527Z" fill="#B4D9FF"/>
<path d="M291.213 84.5527L296.198 89.417L310.06 85.4045L316.868 89.417H281L284.465 80.6621L291.213 84.5527Z" fill="black" fill-opacity="0.8"/>
<path d="M344.468 89.4169L331.671 83.2458L326.352 89.4169H344.468Z" fill="#B4D9FF"/>
<path d="M344.468 89.4169L331.671 83.2458L326.352 89.4169H344.468Z" fill="black" fill-opacity="0.8"/>
<path d="M284.466 80.6621L290.326 84.0413L296.199 89.417L286.107 85.0403L284.466 80.6621Z" fill="url(#paint21_linear_3619_316728)"/>
<path d="M284.466 80.6621L290.326 84.0413L296.199 89.417L286.107 85.0403L284.466 80.6621Z" fill="black" fill-opacity="0.8"/>
<path d="M335.987 44.187L330.121 50.205L333.638 44.187H335.987Z" fill="url(#paint22_linear_3619_316728)"/>
<path d="M335.987 44.187L330.121 50.205L333.638 44.187H335.987Z" fill="black" fill-opacity="0.8"/>
<path d="M325.5 89.417L339.362 42.8193L330.972 89.417H325.5Z" fill="url(#paint23_linear_3619_316728)"/>
<path d="M325.5 89.417L339.362 42.8193L330.972 89.417H325.5Z" fill="black" fill-opacity="0.8"/>
<path d="M436.934 89.4169L442.587 69.1122L431.036 83.4599L404.531 86.7424L423.74 67.3312C423.903 67.1662 423.698 66.9016 423.497 67.0205L393.223 85.0402L362.705 89.4169H436.934Z" fill="url(#paint24_linear_3619_316728)"/>
<path d="M436.934 89.4169L442.587 69.1122L431.036 83.4599L404.531 86.7424L423.74 67.3312C423.903 67.1662 423.698 66.9016 423.497 67.0205L393.223 85.0402L362.705 89.4169H436.934Z" fill="black" fill-opacity="0.8"/>
<path d="M357.234 48.0166L357.044 48.6856L350.61 71.3749C350.56 71.5488 350.302 71.5012 350.318 71.3214L352.127 50.5142L357.234 48.0166Z" fill="url(#paint25_linear_3619_316728)"/>
<path d="M357.234 48.0166L357.044 48.6856L350.61 71.3749C350.56 71.5488 350.302 71.5012 350.318 71.3214L352.127 50.5142L357.234 48.0166Z" fill="black" fill-opacity="0.8"/>
<path d="M358.147 89.417L371.824 51.9683L362.706 89.417H358.147Z" fill="url(#paint26_linear_3619_316728)"/>
<path d="M358.147 89.417L371.824 51.9683L362.706 89.417H358.147Z" fill="black" fill-opacity="0.8"/>
<path d="M353.845 89.417L361.749 68.6321C361.849 68.369 362.243 68.482 362.189 68.757L358.147 89.417H353.846H353.845Z" fill="url(#paint27_linear_3619_316728)"/>
<path d="M353.845 89.417L361.749 68.6321C361.849 68.369 362.243 68.482 362.189 68.757L358.147 89.417H353.846H353.845Z" fill="black" fill-opacity="0.8"/>
<path d="M380.761 27.0429L382.584 32.4841L386.05 13L380.761 27.0429Z" fill="#B4D9FF"/>
<path d="M380.761 27.0429L382.584 32.4841L386.05 13L380.761 27.0429Z" fill="black" fill-opacity="0.8"/>
<g opacity="0.2">
<path d="M207.649 106.755L209.927 128.679L221.886 132.95L236.691 213.812L247.227 207.263L252.921 168.255L261.178 164.838L265.449 136.509L271.714 130.671L277.977 106.755H207.649Z" fill="#DBEBFF"/>
<path d="M207.649 106.755L209.927 128.679L221.886 132.95L236.691 213.812L247.227 207.263L252.921 168.255L261.178 164.838L265.449 136.509L271.714 130.671L277.977 106.755H207.649Z" fill="black" fill-opacity="0.8"/>
<path d="M236.692 213.812L221.886 132.95L220.676 128.909L209.927 128.679L207.65 106.755H240.868L244.238 204.273L236.692 213.812Z" fill="url(#paint28_linear_3619_316728)"/>
<path d="M236.692 213.812L221.886 132.95L220.676 128.909L209.927 128.679L207.65 106.755H240.868L244.238 204.273L236.692 213.812Z" fill="black" fill-opacity="0.8"/>
<path d="M252.921 168.255V113.161L259.043 160.283L252.921 168.255Z" fill="#B4D9FF"/>
<path d="M252.921 168.255V113.161L259.043 160.283L252.921 168.255Z" fill="black" fill-opacity="0.8"/>
<path d="M265.449 130.671V106.755L271.714 130.671H265.449Z" fill="#B4D9FF"/>
<path d="M265.449 130.671V106.755L271.714 130.671H265.449Z" fill="black" fill-opacity="0.8"/>
<path d="M277.977 106.755L265.449 109.981H238.306L240.867 106.755H277.977Z" fill="#B4D9FF"/>
<path d="M277.977 106.755L265.449 109.981H238.306L240.867 106.755H277.977Z" fill="black" fill-opacity="0.8"/>
<path d="M220.675 128.909L219.322 115.51L209.927 128.679L220.675 128.909Z" fill="url(#paint29_linear_3619_316728)"/>
<path d="M220.675 128.909L219.322 115.51L209.927 128.679L220.675 128.909Z" fill="black" fill-opacity="0.8"/>
<path d="M207.649 106.755L221.79 108.937L227.296 126.116L225.302 108.842L228.909 112.306L229.858 109.128L259.043 106.755H207.649Z" fill="url(#paint30_linear_3619_316728)"/>
<path d="M207.649 106.755L221.79 108.937L227.296 126.116L225.302 108.842L228.909 112.306L229.858 109.128L259.043 106.755H207.649Z" fill="black" fill-opacity="0.8"/>
</g>
<path d="M207.649 107.057L209.927 85.1331L221.886 80.862L236.691 0L247.227 6.5487L252.921 45.5555L261.178 48.9733L265.449 77.3029L271.714 83.1395L277.977 107.057H207.649Z" fill="#DBEBFF"/>
<path d="M207.649 107.057L209.927 85.1331L221.886 80.862L236.691 0L247.227 6.5487L252.921 45.5555L261.178 48.9733L265.449 77.3029L271.714 83.1395L277.977 107.057H207.649Z" fill="black" fill-opacity="0.8"/>
<path d="M236.691 0L244.237 9.53836L247.227 6.5487L236.691 0Z" fill="#F0F6FF"/>
<path d="M236.691 0L244.237 9.53836L247.227 6.5487L236.691 0Z" fill="black" fill-opacity="0.8"/>
<path d="M252.921 45.5554L259.043 53.5283L261.178 48.9732L252.921 45.5554Z" fill="#F0F6FF"/>
<path d="M252.921 45.5554L259.043 53.5283L261.178 48.9732L252.921 45.5554Z" fill="black" fill-opacity="0.8"/>
<path d="M265.449 77.303V83.1396H271.714L265.449 77.303Z" fill="#F0F6FF"/>
<path d="M265.449 77.303V83.1396H271.714L265.449 77.303Z" fill="black" fill-opacity="0.8"/>
<path d="M236.691 0L221.886 80.862L220.675 84.9012L209.927 85.1331L207.649 107.057H240.867L244.237 9.53836L236.691 0Z" fill="#B4D9FF"/>
<path d="M236.691 0L221.886 80.862L220.675 84.9012L209.927 85.1331L207.649 107.057H240.867L244.237 9.53836L236.691 0Z" fill="black" fill-opacity="0.8"/>
<path d="M252.921 45.5554V100.651L259.043 53.5283L252.921 45.5554Z" fill="#B4D9FF"/>
<path d="M252.921 45.5554V100.651L259.043 53.5283L252.921 45.5554Z" fill="black" fill-opacity="0.8"/>
<path d="M265.449 83.1396V107.057L271.714 83.1396H265.449Z" fill="#B4D9FF"/>
<path d="M265.449 83.1396V107.057L271.714 83.1396H265.449Z" fill="black" fill-opacity="0.8"/>
<path d="M277.977 107.057L265.449 103.831H238.306L240.867 107.057H277.977Z" fill="#B4D9FF"/>
<path d="M277.977 107.057L265.449 103.831H238.306L240.867 107.057H277.977Z" fill="black" fill-opacity="0.8"/>
<path d="M220.675 84.9011L219.322 98.3018L209.927 85.133L220.675 84.9011Z" fill="url(#paint31_linear_3619_316728)"/>
<path d="M220.675 84.9011L219.322 98.3018L209.927 85.133L220.675 84.9011Z" fill="black" fill-opacity="0.8"/>
<path d="M207.649 107.057L221.79 104.874L227.296 87.696L225.302 104.969L228.909 101.506L229.858 104.684L259.043 107.057H207.649Z" fill="url(#paint32_linear_3619_316728)"/>
<path d="M207.649 107.057L221.79 104.874L227.296 87.696L225.302 104.969L228.909 101.506L229.858 104.684L259.043 107.057H207.649Z" fill="black" fill-opacity="0.8"/>
<g opacity="0.2">
<path d="M318.26 108.934H341.865L344.455 110.949L343.304 115.123L338.699 116.707L337.043 119.44L329.846 124.55L319.555 121.601L315.165 112.244L318.26 108.934Z" fill="#DBEBFF"/>
<path d="M318.26 108.934H341.865L344.455 110.949L343.304 115.123L338.699 116.707L337.043 119.44L329.846 124.55L319.555 121.601L315.165 112.244L318.26 108.934Z" fill="black" fill-opacity="0.8"/>
<path d="M319.555 121.601L327.975 120.089L335.892 119.081L337.618 116.274L343.304 115.123L338.699 116.707L337.042 119.441L329.846 124.55L319.555 121.601Z" fill="#F0F6FF"/>
<path d="M319.555 121.601L327.975 120.089L335.892 119.081L337.618 116.274L343.304 115.123L338.699 116.707L337.042 119.441L329.846 124.55L319.555 121.601Z" fill="black" fill-opacity="0.8"/>
<path d="M319.555 121.601L318.715 111.836L326.679 110.205L335.892 119.081L337.618 116.274L343.304 115.123L342.992 111.597L344.455 110.949L341.865 108.934H318.26L315.165 112.244L319.555 121.601Z" fill="#B4D9FF"/>
<path d="M319.555 121.601L318.715 111.836L326.679 110.205L335.892 119.081L337.618 116.274L343.304 115.123L342.992 111.597L344.455 110.949L341.865 108.934H318.26L315.165 112.244L319.555 121.601Z" fill="black" fill-opacity="0.8"/>
<path d="M318.715 111.836L315.165 112.244L318.26 108.934H341.865L329.162 111.164L326.679 110.205L318.715 111.836Z" fill="url(#paint33_linear_3619_316728)"/>
<path d="M318.715 111.836L315.165 112.244L318.26 108.934H341.865L329.162 111.164L326.679 110.205L318.715 111.836Z" fill="black" fill-opacity="0.8"/>
<path d="M337.618 116.274L333.576 113.831L339.348 115.925L337.618 116.274Z" fill="url(#paint34_linear_3619_316728)"/>
<path d="M337.618 116.274L333.576 113.831L339.348 115.925L337.618 116.274Z" fill="black" fill-opacity="0.8"/>
<path d="M342.992 111.597L341.865 108.934L344.455 110.949L342.992 111.597Z" fill="url(#paint35_linear_3619_316728)"/>
<path d="M342.992 111.597L341.865 108.934L344.455 110.949L342.992 111.597Z" fill="black" fill-opacity="0.8"/>
</g>
<path d="M318.26 109.418H341.865L344.455 107.402L343.304 103.229L338.699 101.645L337.043 98.9099L329.846 93.8003L319.555 96.7513L315.165 106.107L318.26 109.418Z" fill="#DBEBFF"/>
<path d="M318.26 109.418H341.865L344.455 107.402L343.304 103.229L338.699 101.645L337.043 98.9099L329.846 93.8003L319.555 96.7513L315.165 106.107L318.26 109.418Z" fill="black" fill-opacity="0.8"/>
<path d="M319.555 96.7513L327.975 98.2617L335.892 99.2697L337.618 102.076L343.304 103.229L338.699 101.645L337.042 98.9099L329.846 93.8003L319.555 96.7513Z" fill="#F0F6FF"/>
<path d="M319.555 96.7513L327.975 98.2617L335.892 99.2697L337.618 102.076L343.304 103.229L338.699 101.645L337.042 98.9099L329.846 93.8003L319.555 96.7513Z" fill="black" fill-opacity="0.8"/>
<path d="M319.555 96.7512L318.715 106.514L326.679 108.145L335.892 99.2696L337.618 102.076L343.304 103.229L342.992 106.755L344.455 107.402L341.865 109.417H318.26L315.165 106.107L319.555 96.7512Z" fill="#B4D9FF"/>
<path d="M319.555 96.7512L318.715 106.514L326.679 108.145L335.892 99.2696L337.618 102.076L343.304 103.229L342.992 106.755L344.455 107.402L341.865 109.417H318.26L315.165 106.107L319.555 96.7512Z" fill="black" fill-opacity="0.8"/>
<path d="M318.715 106.514L315.165 106.107L318.26 109.417H341.865L329.162 107.186L326.679 108.145L318.715 106.514Z" fill="url(#paint36_linear_3619_316728)"/>
<path d="M318.715 106.514L315.165 106.107L318.26 109.417H341.865L329.162 107.186L326.679 108.145L318.715 106.514Z" fill="black" fill-opacity="0.8"/>
<path d="M337.618 102.076L333.576 104.519L339.348 102.427L337.618 102.076Z" fill="url(#paint37_linear_3619_316728)"/>
<path d="M337.618 102.076L333.576 104.519L339.348 102.427L337.618 102.076Z" fill="black" fill-opacity="0.8"/>
<path d="M342.992 106.755L341.865 109.417L344.455 107.402L342.992 106.755Z" fill="url(#paint38_linear_3619_316728)"/>
<path d="M342.992 106.755L341.865 109.417L344.455 107.402L342.992 106.755Z" fill="black" fill-opacity="0.8"/>
<g opacity="0.25">
<path d="M91.3203 98.2778H156.928L152.315 121.6L143.089 123.821L130.275 144.922L110.541 138.258L105.928 114.68L93.6261 106.223L91.3203 98.2778Z" fill="#DBEBFF"/>
<path d="M91.3203 98.2778H156.928L152.315 121.6L143.089 123.821L130.275 144.922L110.541 138.258L105.928 114.68L93.6261 106.223L91.3203 98.2778Z" fill="black" fill-opacity="0.8"/>
<path d="M143.088 123.821L135.059 121.27L149.24 119.037L152.315 121.6L143.088 123.821Z" fill="#F0F6FF"/>
<path d="M143.088 123.821L135.059 121.27L149.24 119.037L152.315 121.6L143.088 123.821Z" fill="black" fill-opacity="0.8"/>
<path d="M105.928 114.68L108.139 110.708L93.6262 106.222L105.928 114.68Z" fill="#F0F6FF"/>
<path d="M105.928 114.68L108.139 110.708L93.6262 106.222L105.928 114.68Z" fill="black" fill-opacity="0.8"/>
<path d="M135.059 121.27L131.94 100.841L149.24 119.037L135.059 121.27Z" fill="#B4D9FF"/>
<path d="M135.059 121.27L131.94 100.841L149.24 119.037L135.059 121.27Z" fill="black" fill-opacity="0.8"/>
<path d="M132.478 104.364L115.667 100.286L127.199 138.258H110.541L105.928 114.68L108.139 110.708L93.6261 106.223L91.3203 98.2778H147.318L132.478 104.364Z" fill="#B4D9FF"/>
<path d="M132.478 104.364L115.667 100.286L127.199 138.258H110.541L105.928 114.68L108.139 110.708L93.6261 106.223L91.3203 98.2778H147.318L132.478 104.364Z" fill="black" fill-opacity="0.8"/>
<path d="M93.6261 106.223L96.0612 98.2778H91.3203L93.6261 106.223Z" fill="url(#paint39_linear_3619_316728)"/>
<path d="M93.6261 106.223L96.0612 98.2778H91.3203L93.6261 106.223Z" fill="black" fill-opacity="0.8"/>
<path d="M149.24 119.037L132.478 104.364L134.502 103.535L149.24 119.037Z" fill="url(#paint40_linear_3619_316728)"/>
<path d="M149.24 119.037L132.478 104.364L134.502 103.535L149.24 119.037Z" fill="black" fill-opacity="0.8"/>
<path d="M117.182 118.957L118.229 131.851L109.26 110.452L115.667 100.286L127.199 138.258L117.182 118.957Z" fill="url(#paint41_linear_3619_316728)"/>
<path d="M117.182 118.957L118.229 131.851L109.26 110.452L115.667 100.286L127.199 138.258L117.182 118.957Z" fill="black" fill-opacity="0.8"/>
</g>
<path d="M91.3203 98.214H156.928L152.315 74.8929L143.089 72.6719L130.275 51.5703L110.541 58.2335L105.928 81.8118L93.6261 90.2694L91.3203 98.214Z" fill="#DBEBFF"/>
<path d="M91.3203 98.214H156.928L152.315 74.8929L143.089 72.6719L130.275 51.5703L110.541 58.2335L105.928 81.8118L93.6261 90.2694L91.3203 98.214Z" fill="black" fill-opacity="0.8"/>
<path d="M110.541 58.2335H127.199L130.275 51.5703L110.541 58.2335Z" fill="#F0F6FF"/>
<path d="M110.541 58.2335H127.199L130.275 51.5703L110.541 58.2335Z" fill="black" fill-opacity="0.8"/>
<path d="M143.088 72.6719L135.059 75.2215L149.24 77.4559L152.315 74.8929L143.088 72.6719Z" fill="#F0F6FF"/>
<path d="M143.088 72.6719L135.059 75.2215L149.24 77.4559L152.315 74.8929L143.088 72.6719Z" fill="black" fill-opacity="0.8"/>
<path d="M105.928 81.8118L108.139 85.7841L93.6262 90.2693L105.928 81.8118Z" fill="#F0F6FF"/>
<path d="M105.928 81.8118L108.139 85.7841L93.6262 90.2693L105.928 81.8118Z" fill="black" fill-opacity="0.8"/>
<path d="M135.059 75.2214L131.94 95.651L149.24 77.4559L135.059 75.2214Z" fill="#B4D9FF"/>
<path d="M135.059 75.2214L131.94 95.651L149.24 77.4559L135.059 75.2214Z" fill="black" fill-opacity="0.8"/>
<path d="M132.478 92.1276L115.667 96.207L127.199 58.2334H110.541L105.928 81.8117L108.139 85.784L93.6261 90.2693L91.3203 98.2139H147.318L132.478 92.1276Z" fill="#B4D9FF"/>
<path d="M132.478 92.1276L115.667 96.207L127.199 58.2334H110.541L105.928 81.8117L108.139 85.784L93.6261 90.2693L91.3203 98.2139H147.318L132.478 92.1276Z" fill="black" fill-opacity="0.8"/>
<path d="M93.6261 90.2693L96.0612 98.214H91.3203L93.6261 90.2693Z" fill="url(#paint42_linear_3619_316728)"/>
<path d="M93.6261 90.2693L96.0612 98.214H91.3203L93.6261 90.2693Z" fill="black" fill-opacity="0.8"/>
<path d="M149.24 77.4558L132.478 92.1276L134.502 92.9571L149.24 77.4558Z" fill="url(#paint43_linear_3619_316728)"/>
<path d="M149.24 77.4558L132.478 92.1276L134.502 92.9571L149.24 77.4558Z" fill="black" fill-opacity="0.8"/>
<path d="M117.182 77.5346L118.229 64.6409L109.26 86.0412L115.667 96.207L127.199 58.2334L117.182 77.5346Z" fill="url(#paint44_linear_3619_316728)"/>
<path d="M117.182 77.5346L118.229 64.6409L109.26 86.0412L115.667 96.207L127.199 58.2334L117.182 77.5346Z" fill="black" fill-opacity="0.8"/>
<g opacity="0.2">
<path d="M407.136 117.714H445.381L447.28 126.123L430.643 134.35L418.528 131.096L415.544 126.032L408.582 122.324L407.136 117.714Z" fill="#DBEBFF"/>
<path d="M407.136 117.714H445.381L447.28 126.123L430.643 134.35L418.528 131.096L415.544 126.032L408.582 122.324L407.136 117.714Z" fill="black" fill-opacity="0.8"/>
<path d="M415.544 126.032L415.002 122.837L408.582 122.324L415.544 126.032Z" fill="#F0F6FF"/>
<path d="M415.544 126.032L415.002 122.837L408.582 122.324L415.544 126.032Z" fill="black" fill-opacity="0.8"/>
<path d="M445.381 117.714L428.624 121.18L428.985 127.479L418.528 131.096L415.544 126.032L415.002 122.837L408.582 122.324L407.136 117.714H445.381Z" fill="#B4D9FF"/>
<path d="M445.381 117.714L428.624 121.18L428.985 127.479L418.528 131.096L415.544 126.032L415.002 122.837L408.582 122.324L407.136 117.714H445.381Z" fill="black" fill-opacity="0.8"/>
<path d="M407.136 117.714L414.52 119.733L415.002 122.837L415.544 126.032L418.528 131.096V119.733L420.125 119.252L422.477 124.178L421.571 119.191L445.381 117.714H407.136Z" fill="url(#paint45_linear_3619_316728)"/>
<path d="M407.136 117.714L414.52 119.733L415.002 122.837L415.544 126.032L418.528 131.096V119.733L420.125 119.252L422.477 124.178L421.571 119.191L445.381 117.714H407.136Z" fill="black" fill-opacity="0.8"/>
</g>
<path d="M407.136 117.735H445.381L447.28 109.327L430.643 101.1L418.528 104.354L415.544 109.417L408.582 113.124L407.136 117.735Z" fill="#DBEBFF"/>
<path d="M407.136 117.735H445.381L447.28 109.327L430.643 101.1L418.528 104.354L415.544 109.417L408.582 113.124L407.136 117.735Z" fill="black" fill-opacity="0.8"/>
<path d="M418.528 104.354L430.643 101.1L447.28 109.327L428.985 107.971L418.528 104.354Z" fill="#F0F6FF"/>
<path d="M418.528 104.354L430.643 101.1L447.28 109.327L428.985 107.971L418.528 104.354Z" fill="black" fill-opacity="0.8"/>
<path d="M415.544 109.417L415.002 112.612L408.582 113.124L415.544 109.417Z" fill="#F0F6FF"/>
<path d="M415.544 109.417L415.002 112.612L408.582 113.124L415.544 109.417Z" fill="black" fill-opacity="0.8"/>
<path d="M445.382 117.735L428.624 114.27L428.985 107.971L418.528 104.354L415.544 109.418L415.002 112.612L408.582 113.124L407.136 117.735H445.382Z" fill="#B4D9FF"/>
<path d="M445.382 117.735L428.624 114.27L428.985 107.971L418.528 104.354L415.544 109.418L415.002 112.612L408.582 113.124L407.136 117.735H445.382Z" fill="black" fill-opacity="0.8"/>
<path d="M407.136 117.735L414.52 115.716L415.002 112.612L415.544 109.418L418.528 104.354V115.716L420.125 116.198L422.477 111.27L421.571 116.259L445.382 117.735H407.136Z" fill="url(#paint46_linear_3619_316728)"/>
<path d="M407.136 117.735L414.52 115.716L415.002 112.612L415.544 109.418L418.528 104.354V115.716L420.125 116.198L422.477 111.27L421.571 116.259L445.382 117.735H407.136Z" fill="black" fill-opacity="0.8"/>
<g opacity="0.25">
<path d="M162.57 119.247H234.846L238.509 138.455L222.633 141.342L215.527 133.903L212.974 135.569L204.536 135.013L202.648 130.295L198.541 128.908L192.323 137.567L177.742 137.234L172.45 127.02L160.127 126.354L162.57 119.247Z" fill="#DBEBFF"/>
<path d="M162.57 119.247H234.846L238.509 138.455L222.633 141.342L215.527 133.903L212.974 135.569L204.536 135.013L202.648 130.295L198.541 128.908L192.323 137.567L177.742 137.234L172.45 127.02L160.127 126.354L162.57 119.247Z" fill="black" fill-opacity="0.8"/>
<path d="M160.127 126.354L172.172 125.133L172.45 127.02L160.127 126.354Z" fill="#F0F6FF"/>
<path d="M160.127 126.354L172.172 125.133L172.45 127.02L160.127 126.354Z" fill="black" fill-opacity="0.8"/>
<path d="M234.846 119.247L217.107 124.347L211.678 121.357L212.808 133.015L204.536 135.013L202.648 130.295L202.433 129.423L198.541 128.908L197.487 127.909L193.684 121.544L190.269 121.968L171.901 121.036L185.779 121.74L189.029 134.236L177.742 137.234L172.172 125.133L160.127 126.354L162.57 119.247L166.908 120.08L162.717 119.247H234.846Z" fill="#B4D9FF"/>
<path d="M234.846 119.247L217.107 124.347L211.678 121.357L212.808 133.015L204.536 135.013L202.648 130.295L202.433 129.423L198.541 128.908L197.487 127.909L193.684 121.544L190.269 121.968L171.901 121.036L185.779 121.74L189.029 134.236L177.742 137.234L172.172 125.133L160.127 126.354L162.57 119.247L166.908 120.08L162.717 119.247H234.846Z" fill="black" fill-opacity="0.8"/>
<path d="M215.527 133.903L216.083 121.302L221.411 137.123L222.633 141.342L215.527 133.903Z" fill="#B4D9FF"/>
<path d="M215.527 133.903L216.083 121.302L221.411 137.123L222.633 141.342L215.527 133.903Z" fill="black" fill-opacity="0.8"/>
<path d="M236.566 136.29L232.736 119.854L221.411 137.123L236.566 136.29Z" fill="#B4D9FF"/>
<path d="M236.566 136.29L232.736 119.854L221.411 137.123L236.566 136.29Z" fill="black" fill-opacity="0.8"/>
<path d="M173.807 120.687L172.172 125.133C172.172 125.133 159.985 126.369 160.125 126.354C160.265 126.339 171.449 123.328 171.449 123.328L173.805 120.687H173.807Z" fill="url(#paint47_linear_3619_316728)"/>
<path d="M173.807 120.687L172.172 125.133C172.172 125.133 159.985 126.369 160.125 126.354C160.265 126.339 171.449 123.328 171.449 123.328L173.805 120.687H173.807Z" fill="black" fill-opacity="0.8"/>
<path d="M185.778 121.74L189.028 134.236L179.585 121.425L162.569 119.247H198.022L185.328 120.581L185.778 121.74Z" fill="url(#paint48_linear_3619_316728)"/>
<path d="M185.778 121.74L189.028 134.236L179.585 121.425L162.569 119.247H198.022L185.328 120.581L185.778 121.74Z" fill="black" fill-opacity="0.8"/>
<path d="M211.307 120.581L198.022 119.247H234.845L211.307 120.581Z" fill="url(#paint49_linear_3619_316728)"/>
<path d="M211.307 120.581L198.022 119.247H234.845L211.307 120.581Z" fill="black" fill-opacity="0.8"/>
<path d="M204.536 135.013L210.032 130.831L211.271 120.358L211.678 121.357L212.808 133.015L204.536 135.013Z" fill="url(#paint50_linear_3619_316728)"/>
<path d="M204.536 135.013L210.032 130.831L211.271 120.358L211.678 121.357L212.808 133.015L204.536 135.013Z" fill="black" fill-opacity="0.8"/>
<path d="M198.54 128.908L198.643 128.075L197.486 127.909L193.683 121.544L198.873 126.215L202.432 129.423L198.54 128.908Z" fill="url(#paint51_linear_3619_316728)"/>
<path d="M198.54 128.908L198.643 128.075L197.486 127.909L193.683 121.544L198.873 126.215L202.432 129.423L198.54 128.908Z" fill="black" fill-opacity="0.8"/>
<path d="M215.976 123.724L216.832 125.216L220.351 133.973L217.107 124.347L215.976 123.724Z" fill="url(#paint52_linear_3619_316728)"/>
<path d="M215.976 123.724L216.832 125.216L220.351 133.973L217.107 124.347L215.976 123.724Z" fill="black" fill-opacity="0.8"/>
</g>
<path d="M162.57 119.133H234.846L238.509 99.9252L222.633 97.0381L215.527 104.477L212.974 102.812L204.536 103.367L202.648 108.085L198.541 109.474L192.323 100.814L177.742 101.147L172.45 111.36L160.127 112.027L162.57 119.133Z" fill="#DBEBFF"/>
<path d="M162.57 119.133H234.846L238.509 99.9252L222.633 97.0381L215.527 104.477L212.974 102.812L204.536 103.367L202.648 108.085L198.541 109.474L192.323 100.814L177.742 101.147L172.45 111.36L160.127 112.027L162.57 119.133Z" fill="black" fill-opacity="0.8"/>
<path d="M177.742 101.147L189.029 104.144L192.323 100.814L177.742 101.147Z" fill="#F0F6FF"/>
<path d="M177.742 101.147L189.029 104.144L192.323 100.814L177.742 101.147Z" fill="black" fill-opacity="0.8"/>
<path d="M204.536 103.367L212.808 105.365L215.527 104.477L212.974 102.812L204.536 103.367Z" fill="#F0F6FF"/>
<path d="M204.536 103.367L212.808 105.365L215.527 104.477L212.974 102.812L204.536 103.367Z" fill="black" fill-opacity="0.8"/>
<path d="M222.633 97.0381L221.411 101.257L236.566 102.09L238.509 99.9252L222.633 97.0381Z" fill="#F0F6FF"/>
<path d="M222.633 97.0381L221.411 101.257L236.566 102.09L238.509 99.9252L222.633 97.0381Z" fill="black" fill-opacity="0.8"/>
<path d="M160.127 112.027L172.172 113.249L172.45 111.361L160.127 112.027Z" fill="#F0F6FF"/>
<path d="M160.127 112.027L172.172 113.249L172.45 111.361L160.127 112.027Z" fill="black" fill-opacity="0.8"/>
<path d="M234.846 119.133L217.107 114.035L211.678 117.023L212.808 105.365L204.536 103.367L202.648 108.085L202.432 108.957L198.54 109.474L197.486 110.473L193.683 116.837L190.269 116.412L171.901 117.344L185.779 116.64L189.029 104.144L177.742 101.147L172.172 113.249L160.127 112.027L162.569 119.133L166.907 118.302L162.716 119.133H234.846Z" fill="#B4D9FF"/>
<path d="M234.846 119.133L217.107 114.035L211.678 117.023L212.808 105.365L204.536 103.367L202.648 108.085L202.432 108.957L198.54 109.474L197.486 110.473L193.683 116.837L190.269 116.412L171.901 117.344L185.779 116.64L189.029 104.144L177.742 101.147L172.172 113.249L160.127 112.027L162.569 119.133L166.907 118.302L162.716 119.133H234.846Z" fill="black" fill-opacity="0.8"/>
<path d="M215.527 104.477L216.083 117.078L221.411 101.257L222.633 97.0381L215.527 104.477Z" fill="#B4D9FF"/>
<path d="M215.527 104.477L216.083 117.078L221.411 101.257L222.633 97.0381L215.527 104.477Z" fill="black" fill-opacity="0.8"/>
<path d="M236.566 102.09L232.736 118.526L221.411 101.257L236.566 102.09Z" fill="#B4D9FF"/>
<path d="M236.566 102.09L232.736 118.526L221.411 101.257L236.566 102.09Z" fill="black" fill-opacity="0.8"/>
<path d="M173.807 117.694L172.172 113.247C172.172 113.247 159.985 112.012 160.125 112.027C160.265 112.041 171.449 115.052 171.449 115.052L173.805 117.694H173.807Z" fill="url(#paint53_linear_3619_316728)"/>
<path d="M173.807 117.694L172.172 113.247C172.172 113.247 159.985 112.012 160.125 112.027C160.265 112.041 171.449 115.052 171.449 115.052L173.805 117.694H173.807Z" fill="black" fill-opacity="0.8"/>
<path d="M185.778 116.64L189.028 104.144L179.585 116.955L162.569 119.133H198.022L185.328 117.801L185.778 116.64Z" fill="url(#paint54_linear_3619_316728)"/>
<path d="M185.778 116.64L189.028 104.144L179.585 116.955L162.569 119.133H198.022L185.328 117.801L185.778 116.64Z" fill="black" fill-opacity="0.8"/>
<path d="M211.307 117.801L198.022 119.133H234.845L211.307 117.801Z" fill="url(#paint55_linear_3619_316728)"/>
<path d="M211.307 117.801L198.022 119.133H234.845L211.307 117.801Z" fill="black" fill-opacity="0.8"/>
<path d="M204.536 103.367L210.032 107.549L211.271 118.022L211.678 117.023L212.808 105.365L204.536 103.367Z" fill="url(#paint56_linear_3619_316728)"/>
<path d="M204.536 103.367L210.032 107.549L211.271 118.022L211.678 117.023L212.808 105.365L204.536 103.367Z" fill="black" fill-opacity="0.8"/>
<path d="M198.54 109.474L198.643 110.305L197.486 110.473L193.683 116.837L198.873 112.166L202.432 108.957L198.54 109.474Z" fill="url(#paint57_linear_3619_316728)"/>
<path d="M198.54 109.474L198.643 110.305L197.486 110.473L193.683 116.837L198.873 112.166L202.432 108.957L198.54 109.474Z" fill="black" fill-opacity="0.8"/>
<path d="M215.976 114.658L216.832 113.165L220.351 104.407L217.107 114.035L215.976 114.658Z" fill="url(#paint58_linear_3619_316728)"/>
<path d="M215.976 114.658L216.832 113.165L220.351 104.407L217.107 114.035L215.976 114.658Z" fill="black" fill-opacity="0.8"/>
</g>
<defs>
<linearGradient id="paint0_linear_3619_316728" x1="32.6416" y1="50.949" x2="58.5361" y2="50.949" gradientUnits="userSpaceOnUse">
<stop stop-color="#AFD2F7"/>
<stop offset="0.02" stop-color="#ABD0F6"/>
<stop offset="0.13" stop-color="#9AC7F1"/>
<stop offset="0.27" stop-color="#8EC2EF"/>
<stop offset="0.46" stop-color="#87BEED"/>
<stop offset="0.99" stop-color="#86BEED"/>
</linearGradient>
<linearGradient id="paint1_linear_3619_316728" x1="7.56348" y1="55.1534" x2="25.3022" y2="55.1534" gradientUnits="userSpaceOnUse">
<stop stop-color="#AFD2F7"/>
<stop offset="0.02" stop-color="#ABD0F6"/>
<stop offset="0.13" stop-color="#9AC7F1"/>
<stop offset="0.27" stop-color="#8EC2EF"/>
<stop offset="0.46" stop-color="#87BEED"/>
<stop offset="0.99" stop-color="#86BEED"/>
</linearGradient>
<linearGradient id="paint2_linear_3619_316728" x1="30.5009" y1="73.8345" x2="30.5009" y2="70.7007" gradientUnits="userSpaceOnUse">
<stop stop-color="#AFD2F7"/>
<stop offset="0.02" stop-color="#ABD0F6"/>
<stop offset="0.13" stop-color="#9AC7F1"/>
<stop offset="0.27" stop-color="#8EC2EF"/>
<stop offset="0.46" stop-color="#87BEED"/>
<stop offset="0.99" stop-color="#86BEED"/>
</linearGradient>
<linearGradient id="paint3_linear_3619_316728" x1="101.544" y1="73.8345" x2="101.544" y2="69.553" gradientUnits="userSpaceOnUse">
<stop stop-color="#AFD2F7"/>
<stop offset="0.02" stop-color="#ABD0F6"/>
<stop offset="0.13" stop-color="#9AC7F1"/>
<stop offset="0.27" stop-color="#8EC2EF"/>
<stop offset="0.46" stop-color="#87BEED"/>
<stop offset="0.99" stop-color="#86BEED"/>
</linearGradient>
<linearGradient id="paint4_linear_3619_316728" x1="176.232" y1="58.4671" x2="184.845" y2="58.4671" gradientUnits="userSpaceOnUse">
<stop stop-color="#AFD2F7"/>
<stop offset="0.02" stop-color="#ABD0F6"/>
<stop offset="0.13" stop-color="#9AC7F1"/>
<stop offset="0.27" stop-color="#8EC2EF"/>
<stop offset="0.46" stop-color="#87BEED"/>
<stop offset="0.99" stop-color="#86BEED"/>
</linearGradient>
<linearGradient id="paint5_linear_3619_316728" x1="210.332" y1="73.8346" x2="210.332" y2="56.301" gradientUnits="userSpaceOnUse">
<stop stop-color="#AFD2F7"/>
<stop offset="0.02" stop-color="#ABD0F6"/>
<stop offset="0.13" stop-color="#9AC7F1"/>
<stop offset="0.27" stop-color="#8EC2EF"/>
<stop offset="0.46" stop-color="#87BEED"/>
<stop offset="0.99" stop-color="#86BEED"/>
</linearGradient>
<linearGradient id="paint6_linear_3619_316728" x1="261.813" y1="73.8346" x2="261.813" y2="70.1655" gradientUnits="userSpaceOnUse">
<stop stop-color="#AFD2F7"/>
<stop offset="0.02" stop-color="#ABD0F6"/>
<stop offset="0.13" stop-color="#9AC7F1"/>
<stop offset="0.27" stop-color="#8EC2EF"/>
<stop offset="0.46" stop-color="#87BEED"/>
<stop offset="0.99" stop-color="#86BEED"/>
</linearGradient>
<linearGradient id="paint7_linear_3619_316728" x1="32.6416" y1="90.4748" x2="58.5361" y2="90.4748" gradientUnits="userSpaceOnUse">
<stop stop-color="#B4D9FF"/>
<stop offset="0.02" stop-color="#B0D7FE"/>
<stop offset="0.13" stop-color="#9FCEF9"/>
<stop offset="0.27" stop-color="#93C9F7"/>
<stop offset="0.46" stop-color="#8CC5F5"/>
<stop offset="0.99" stop-color="#8BC5F5"/>
</linearGradient>
<linearGradient id="paint8_linear_3619_316728" x1="7.56348" y1="87.3305" x2="25.3022" y2="87.3305" gradientUnits="userSpaceOnUse">
<stop stop-color="#B4D9FF"/>
<stop offset="0.02" stop-color="#B0D7FE"/>
<stop offset="0.13" stop-color="#9FCEF9"/>
<stop offset="0.27" stop-color="#93C9F7"/>
<stop offset="0.46" stop-color="#8CC5F5"/>
<stop offset="0.99" stop-color="#8BC5F5"/>
</linearGradient>
<linearGradient id="paint9_linear_3619_316728" x1="30.5007" y1="73.3574" x2="30.5007" y2="75.7019" gradientUnits="userSpaceOnUse">
<stop stop-color="#B4D9FF"/>
<stop offset="0.02" stop-color="#B0D7FE"/>
<stop offset="0.13" stop-color="#9FCEF9"/>
<stop offset="0.27" stop-color="#93C9F7"/>
<stop offset="0.46" stop-color="#8CC5F5"/>
<stop offset="0.99" stop-color="#8BC5F5"/>
</linearGradient>
<linearGradient id="paint10_linear_3619_316728" x1="101.544" y1="73.3574" x2="101.544" y2="76.5597" gradientUnits="userSpaceOnUse">
<stop stop-color="#B4D9FF"/>
<stop offset="0.02" stop-color="#B0D7FE"/>
<stop offset="0.13" stop-color="#9FCEF9"/>
<stop offset="0.27" stop-color="#93C9F7"/>
<stop offset="0.46" stop-color="#8CC5F5"/>
<stop offset="0.99" stop-color="#8BC5F5"/>
</linearGradient>
<linearGradient id="paint11_linear_3619_316728" x1="176.232" y1="84.8522" x2="184.845" y2="84.8522" gradientUnits="userSpaceOnUse">
<stop stop-color="#B4D9FF"/>
<stop offset="0.02" stop-color="#B0D7FE"/>
<stop offset="0.13" stop-color="#9FCEF9"/>
<stop offset="0.27" stop-color="#93C9F7"/>
<stop offset="0.46" stop-color="#8CC5F5"/>
<stop offset="0.99" stop-color="#8BC5F5"/>
</linearGradient>
<linearGradient id="paint12_linear_3619_316728" x1="210.332" y1="73.3574" x2="210.332" y2="86.4727" gradientUnits="userSpaceOnUse">
<stop stop-color="#B4D9FF"/>
<stop offset="0.02" stop-color="#B0D7FE"/>
<stop offset="0.13" stop-color="#9FCEF9"/>
<stop offset="0.27" stop-color="#93C9F7"/>
<stop offset="0.46" stop-color="#8CC5F5"/>
<stop offset="0.99" stop-color="#8BC5F5"/>
</linearGradient>
<linearGradient id="paint13_linear_3619_316728" x1="261.813" y1="73.3574" x2="261.813" y2="76.1033" gradientUnits="userSpaceOnUse">
<stop stop-color="#B4D9FF"/>
<stop offset="0.02" stop-color="#B0D7FE"/>
<stop offset="0.13" stop-color="#9FCEF9"/>
<stop offset="0.27" stop-color="#93C9F7"/>
<stop offset="0.46" stop-color="#8CC5F5"/>
<stop offset="0.99" stop-color="#8BC5F5"/>
</linearGradient>
<linearGradient id="paint14_linear_3619_316728" x1="284.466" y1="93.0338" x2="296.199" y2="93.0338" gradientUnits="userSpaceOnUse">
<stop stop-color="#BFDFFF"/>
<stop offset="0.61" stop-color="#A5D1F7"/>
<stop offset="0.99" stop-color="#9ACCF5"/>
</linearGradient>
<linearGradient id="paint15_linear_3619_316728" x1="330.121" y1="124.298" x2="335.987" y2="124.298" gradientUnits="userSpaceOnUse">
<stop stop-color="#BFDFFF"/>
<stop offset="0.61" stop-color="#A5D1F7"/>
<stop offset="0.99" stop-color="#9ACCF5"/>
</linearGradient>
<linearGradient id="paint16_linear_3619_316728" x1="325.5" y1="108.666" x2="339.362" y2="108.666" gradientUnits="userSpaceOnUse">
<stop stop-color="#BFDFFF"/>
<stop offset="0.03" stop-color="#BCDDFE"/>
<stop offset="0.34" stop-color="#A9D3F9"/>
<stop offset="0.66" stop-color="#9DCDF6"/>
<stop offset="0.99" stop-color="#9ACCF5"/>
</linearGradient>
<linearGradient id="paint17_linear_3619_316728" x1="402.647" y1="107.945" x2="402.647" y2="89.4167" gradientUnits="userSpaceOnUse">
<stop stop-color="#BFDFFF"/>
<stop offset="0.33" stop-color="#ABD4F9"/>
<stop offset="0.68" stop-color="#9ECEF6"/>
<stop offset="0.99" stop-color="#9ACCF5"/>
</linearGradient>
<linearGradient id="paint18_linear_3619_316728" x1="350.317" y1="113.927" x2="357.234" y2="113.927" gradientUnits="userSpaceOnUse">
<stop stop-color="#BFDFFF"/>
<stop offset="0.57" stop-color="#A6D2F8"/>
<stop offset="0.99" stop-color="#9ACCF5"/>
</linearGradient>
<linearGradient id="paint19_linear_3619_316728" x1="359.996" y1="113.527" x2="371.113" y2="94.2722" gradientUnits="userSpaceOnUse">
<stop stop-color="#BFDFFF"/>
<stop offset="0.32" stop-color="#B8DBFD"/>
<stop offset="0.76" stop-color="#A6D2F8"/>
<stop offset="0.99" stop-color="#9ACCF5"/>
</linearGradient>
<linearGradient id="paint20_linear_3619_316728" x1="355.211" y1="102.858" x2="361.766" y2="91.5055" gradientUnits="userSpaceOnUse">
<stop stop-color="#BFDFFF"/>
<stop offset="0.61" stop-color="#A5D1F7"/>
<stop offset="0.99" stop-color="#9ACCF5"/>
</linearGradient>
<linearGradient id="paint21_linear_3619_316728" x1="-167.727" y1="85.0403" x2="-167.578" y2="85.0403" gradientUnits="userSpaceOnUse">
<stop stop-color="#BFDFFF"/>
<stop offset="0.61" stop-color="#A5D1F7"/>
<stop offset="0.99" stop-color="#9ACCF5"/>
</linearGradient>
<linearGradient id="paint22_linear_3619_316728" x1="330.121" y1="47.196" x2="335.987" y2="47.196" gradientUnits="userSpaceOnUse">
<stop stop-color="#BFDFFF"/>
<stop offset="0.61" stop-color="#A5D1F7"/>
<stop offset="0.99" stop-color="#9ACCF5"/>
</linearGradient>
<linearGradient id="paint23_linear_3619_316728" x1="-167.726" y1="66.1182" x2="-167.578" y2="66.1182" gradientUnits="userSpaceOnUse">
<stop stop-color="#BFDFFF"/>
<stop offset="0.03" stop-color="#BCDDFE"/>
<stop offset="0.34" stop-color="#A9D3F9"/>
<stop offset="0.66" stop-color="#9DCDF6"/>
<stop offset="0.99" stop-color="#9ACCF5"/>
</linearGradient>
<linearGradient id="paint24_linear_3619_316728" x1="-167.727" y1="66.9908" x2="-167.578" y2="89.4169" gradientUnits="userSpaceOnUse">
<stop stop-color="#BFDFFF"/>
<stop offset="0.33" stop-color="#ABD4F9"/>
<stop offset="0.68" stop-color="#9ECEF6"/>
<stop offset="0.99" stop-color="#9ACCF5"/>
</linearGradient>
<linearGradient id="paint25_linear_3619_316728" x1="-167.727" y1="59.7493" x2="-167.578" y2="59.7493" gradientUnits="userSpaceOnUse">
<stop stop-color="#BFDFFF"/>
<stop offset="0.57" stop-color="#A6D2F8"/>
<stop offset="0.99" stop-color="#9ACCF5"/>
</linearGradient>
<linearGradient id="paint26_linear_3619_316728" x1="358.587" y1="59.6111" x2="372.523" y2="83.7484" gradientUnits="userSpaceOnUse">
<stop stop-color="#BFDFFF"/>
<stop offset="0.32" stop-color="#B8DBFD"/>
<stop offset="0.76" stop-color="#A6D2F8"/>
<stop offset="0.99" stop-color="#9ACCF5"/>
</linearGradient>
<linearGradient id="paint27_linear_3619_316728" x1="354.422" y1="72.7992" x2="362.548" y2="86.8748" gradientUnits="userSpaceOnUse">
<stop stop-color="#BFDFFF"/>
<stop offset="0.61" stop-color="#A5D1F7"/>
<stop offset="0.99" stop-color="#9ACCF5"/>
</linearGradient>
<linearGradient id="paint28_linear_3619_316728" x1="207.65" y1="160.283" x2="244.238" y2="160.283" gradientUnits="userSpaceOnUse">
<stop stop-color="#7CBCE3"/>
<stop offset="0.27" stop-color="#75B6E0"/>
<stop offset="0.66" stop-color="#62A6DB"/>
<stop offset="1" stop-color="#4C93D4"/>
</linearGradient>
<linearGradient id="paint29_linear_3619_316728" x1="209.927" y1="122.21" x2="220.675" y2="122.21" gradientUnits="userSpaceOnUse">
<stop stop-color="#BFDFFF"/>
<stop offset="0.51" stop-color="#AED6FA"/>
<stop offset="0.99" stop-color="#9ACCF5"/>
</linearGradient>
<linearGradient id="paint30_linear_3619_316728" x1="207.649" y1="116.434" x2="259.043" y2="116.434" gradientUnits="userSpaceOnUse">
<stop stop-color="#BFDFFF"/>
<stop offset="0.1" stop-color="#BADCFD"/>
<stop offset="0.65" stop-color="#A2D0F7"/>
<stop offset="0.99" stop-color="#9ACCF5"/>
</linearGradient>
<linearGradient id="paint31_linear_3619_316728" x1="-168.037" y1="91.6015" x2="-167.888" y2="91.6015" gradientUnits="userSpaceOnUse">
<stop stop-color="#BFDFFF"/>
<stop offset="0.51" stop-color="#AED6FA"/>
<stop offset="0.99" stop-color="#9ACCF5"/>
</linearGradient>
<linearGradient id="paint32_linear_3619_316728" x1="-168.036" y1="97.3771" x2="-167.888" y2="97.3771" gradientUnits="userSpaceOnUse">
<stop stop-color="#BFDFFF"/>
<stop offset="0.1" stop-color="#BADCFD"/>
<stop offset="0.65" stop-color="#A2D0F7"/>
<stop offset="0.99" stop-color="#9ACCF5"/>
</linearGradient>
<linearGradient id="paint33_linear_3619_316728" x1="328.515" y1="108.934" x2="328.515" y2="112.245" gradientUnits="userSpaceOnUse">
<stop stop-color="#BFDFFF"/>
<stop offset="0.06" stop-color="#B9DCFD"/>
<stop offset="0.35" stop-color="#A8D3F8"/>
<stop offset="0.65" stop-color="#9DCDF5"/>
<stop offset="0.99" stop-color="#9ACCF5"/>
</linearGradient>
<linearGradient id="paint34_linear_3619_316728" x1="336.463" y1="113.833" x2="336.463" y2="116.275" gradientUnits="userSpaceOnUse">
<stop stop-color="#B4D9FF"/>
<stop offset="0.02" stop-color="#B0D7FE"/>
<stop offset="0.13" stop-color="#9FCEF9"/>
<stop offset="0.27" stop-color="#93C9F7"/>
<stop offset="0.46" stop-color="#8CC5F5"/>
<stop offset="0.99" stop-color="#8BC5F5"/>
</linearGradient>
<linearGradient id="paint35_linear_3619_316728" x1="341.865" y1="110.265" x2="344.455" y2="110.265" gradientUnits="userSpaceOnUse">
<stop stop-color="#B4D9FF"/>
<stop offset="0.02" stop-color="#B0D7FE"/>
<stop offset="0.13" stop-color="#9FCEF9"/>
<stop offset="0.27" stop-color="#93C9F7"/>
<stop offset="0.46" stop-color="#8CC5F5"/>
<stop offset="0.99" stop-color="#8BC5F5"/>
</linearGradient>
<linearGradient id="paint36_linear_3619_316728" x1="328.515" y1="109.417" x2="328.515" y2="106.107" gradientUnits="userSpaceOnUse">
<stop stop-color="#BFDFFF"/>
<stop offset="0.06" stop-color="#B9DCFD"/>
<stop offset="0.35" stop-color="#A8D3F8"/>
<stop offset="0.65" stop-color="#9DCDF5"/>
<stop offset="0.99" stop-color="#9ACCF5"/>
</linearGradient>
<linearGradient id="paint37_linear_3619_316728" x1="336.463" y1="104.519" x2="336.463" y2="102.076" gradientUnits="userSpaceOnUse">
<stop stop-color="#B4D9FF"/>
<stop offset="0.02" stop-color="#B0D7FE"/>
<stop offset="0.13" stop-color="#9FCEF9"/>
<stop offset="0.27" stop-color="#93C9F7"/>
<stop offset="0.46" stop-color="#8CC5F5"/>
<stop offset="0.99" stop-color="#8BC5F5"/>
</linearGradient>
<linearGradient id="paint38_linear_3619_316728" x1="341.865" y1="108.085" x2="344.455" y2="108.085" gradientUnits="userSpaceOnUse">
<stop stop-color="#B4D9FF"/>
<stop offset="0.02" stop-color="#B0D7FE"/>
<stop offset="0.13" stop-color="#9FCEF9"/>
<stop offset="0.27" stop-color="#93C9F7"/>
<stop offset="0.46" stop-color="#8CC5F5"/>
<stop offset="0.99" stop-color="#8BC5F5"/>
</linearGradient>
<linearGradient id="paint39_linear_3619_316728" x1="91.3203" y1="102.252" x2="96.0612" y2="102.252" gradientUnits="userSpaceOnUse">
<stop stop-color="#BFDFFF"/>
<stop offset="0.61" stop-color="#A5D1F7"/>
<stop offset="0.99" stop-color="#9ACCF5"/>
</linearGradient>
<linearGradient id="paint40_linear_3619_316728" x1="131.83" y1="105.49" x2="150.754" y2="116.415" gradientUnits="userSpaceOnUse">
<stop stop-color="#BFDFFF"/>
<stop offset="0.3" stop-color="#ADD6FA"/>
<stop offset="0.68" stop-color="#9FCEF6"/>
<stop offset="0.99" stop-color="#9ACCF5"/>
</linearGradient>
<linearGradient id="paint41_linear_3619_316728" x1="109.26" y1="119.272" x2="127.199" y2="119.272" gradientUnits="userSpaceOnUse">
<stop stop-color="#BFDFFF"/>
<stop offset="0.09" stop-color="#B7DBFC"/>
<stop offset="0.34" stop-color="#A6D2F8"/>
<stop offset="0.63" stop-color="#9DCDF5"/>
<stop offset="0.99" stop-color="#9ACCF5"/>
</linearGradient>
<linearGradient id="paint42_linear_3619_316728" x1="91.3203" y1="94.2416" x2="96.0612" y2="94.2416" gradientUnits="userSpaceOnUse">
<stop stop-color="#BFDFFF"/>
<stop offset="0.61" stop-color="#A5D1F7"/>
<stop offset="0.99" stop-color="#9ACCF5"/>
</linearGradient>
<linearGradient id="paint43_linear_3619_316728" x1="131.83" y1="91.0037" x2="150.754" y2="80.0783" gradientUnits="userSpaceOnUse">
<stop stop-color="#BFDFFF"/>
<stop offset="0.3" stop-color="#ADD6FA"/>
<stop offset="0.68" stop-color="#9FCEF6"/>
<stop offset="0.99" stop-color="#9ACCF5"/>
</linearGradient>
<linearGradient id="paint44_linear_3619_316728" x1="-168.037" y1="77.2209" x2="-167.888" y2="77.2209" gradientUnits="userSpaceOnUse">
<stop stop-color="#BFDFFF"/>
<stop offset="0.09" stop-color="#B7DBFC"/>
<stop offset="0.34" stop-color="#A6D2F8"/>
<stop offset="0.63" stop-color="#9DCDF5"/>
<stop offset="0.99" stop-color="#9ACCF5"/>
</linearGradient>
<linearGradient id="paint45_linear_3619_316728" x1="426.259" y1="117.713" x2="426.259" y2="131.094" gradientUnits="userSpaceOnUse">
<stop stop-color="#B4D9FF"/>
<stop offset="0.02" stop-color="#B0D7FE"/>
<stop offset="0.13" stop-color="#9FCEF9"/>
<stop offset="0.27" stop-color="#93C9F7"/>
<stop offset="0.46" stop-color="#8CC5F5"/>
<stop offset="0.99" stop-color="#8BC5F5"/>
</linearGradient>
<linearGradient id="paint46_linear_3619_316728" x1="426.259" y1="117.735" x2="426.259" y2="104.354" gradientUnits="userSpaceOnUse">
<stop stop-color="#B4D9FF"/>
<stop offset="0.02" stop-color="#B0D7FE"/>
<stop offset="0.13" stop-color="#9FCEF9"/>
<stop offset="0.27" stop-color="#93C9F7"/>
<stop offset="0.46" stop-color="#8CC5F5"/>
<stop offset="0.99" stop-color="#8BC5F5"/>
</linearGradient>
<linearGradient id="paint47_linear_3619_316728" x1="166.482" y1="122.683" x2="168.966" y2="126.984" gradientUnits="userSpaceOnUse">
<stop stop-color="#BEDEFE"/>
<stop offset="0.34" stop-color="#AAD4F9"/>
<stop offset="0.67" stop-color="#9ECEF6"/>
<stop offset="0.99" stop-color="#9ACCF5"/>
</linearGradient>
<linearGradient id="paint48_linear_3619_316728" x1="180.295" y1="119.247" x2="180.295" y2="134.236" gradientUnits="userSpaceOnUse">
<stop stop-color="#B4D9FF"/>
<stop offset="0.02" stop-color="#B0D7FE"/>
<stop offset="0.13" stop-color="#9FCEF9"/>
<stop offset="0.27" stop-color="#93C9F7"/>
<stop offset="0.46" stop-color="#8CC5F5"/>
<stop offset="0.99" stop-color="#8BC5F5"/>
</linearGradient>
<linearGradient id="paint49_linear_3619_316728" x1="198.022" y1="119.913" x2="234.845" y2="119.913" gradientUnits="userSpaceOnUse">
<stop stop-color="#B4D9FF"/>
<stop offset="0.02" stop-color="#B0D7FE"/>
<stop offset="0.13" stop-color="#9FCEF9"/>
<stop offset="0.27" stop-color="#93C9F7"/>
<stop offset="0.46" stop-color="#8CC5F5"/>
<stop offset="0.99" stop-color="#8BC5F5"/>
</linearGradient>
<linearGradient id="paint50_linear_3619_316728" x1="204.536" y1="127.686" x2="212.808" y2="127.686" gradientUnits="userSpaceOnUse">
<stop stop-color="#BFDFFF"/>
<stop offset="0.49" stop-color="#AAD4F9"/>
<stop offset="0.99" stop-color="#9ACCF5"/>
</linearGradient>
<linearGradient id="paint51_linear_3619_316728" x1="192.696" y1="123.252" x2="202.67" y2="129.012" gradientUnits="userSpaceOnUse">
<stop stop-color="#BFDFFF"/>
<stop offset="0.18" stop-color="#B5DAFC"/>
<stop offset="0.67" stop-color="#A1CFF6"/>
<stop offset="0.99" stop-color="#9ACCF5"/>
</linearGradient>
<linearGradient id="paint52_linear_3619_316728" x1="215.976" y1="128.848" x2="220.351" y2="128.848" gradientUnits="userSpaceOnUse">
<stop stop-color="#B4D9FF"/>
<stop offset="0.02" stop-color="#B0D7FE"/>
<stop offset="0.13" stop-color="#9FCEF9"/>
<stop offset="0.27" stop-color="#93C9F7"/>
<stop offset="0.46" stop-color="#8CC5F5"/>
<stop offset="0.99" stop-color="#8BC5F5"/>
</linearGradient>
<linearGradient id="paint53_linear_3619_316728" x1="166.482" y1="115.697" x2="168.966" y2="111.398" gradientUnits="userSpaceOnUse">
<stop stop-color="#BEDEFE"/>
<stop offset="0.34" stop-color="#AAD4F9"/>
<stop offset="0.67" stop-color="#9ECEF6"/>
<stop offset="0.99" stop-color="#9ACCF5"/>
</linearGradient>
<linearGradient id="paint54_linear_3619_316728" x1="180.295" y1="119.133" x2="180.295" y2="104.144" gradientUnits="userSpaceOnUse">
<stop stop-color="#B4D9FF"/>
<stop offset="0.02" stop-color="#B0D7FE"/>
<stop offset="0.13" stop-color="#9FCEF9"/>
<stop offset="0.27" stop-color="#93C9F7"/>
<stop offset="0.46" stop-color="#8CC5F5"/>
<stop offset="0.99" stop-color="#8BC5F5"/>
</linearGradient>
<linearGradient id="paint55_linear_3619_316728" x1="198.022" y1="118.467" x2="234.845" y2="118.467" gradientUnits="userSpaceOnUse">
<stop stop-color="#B4D9FF"/>
<stop offset="0.02" stop-color="#B0D7FE"/>
<stop offset="0.13" stop-color="#9FCEF9"/>
<stop offset="0.27" stop-color="#93C9F7"/>
<stop offset="0.46" stop-color="#8CC5F5"/>
<stop offset="0.99" stop-color="#8BC5F5"/>
</linearGradient>
<linearGradient id="paint56_linear_3619_316728" x1="-168.036" y1="110.694" x2="-167.887" y2="110.694" gradientUnits="userSpaceOnUse">
<stop stop-color="#BFDFFF"/>
<stop offset="0.49" stop-color="#AAD4F9"/>
<stop offset="0.99" stop-color="#9ACCF5"/>
</linearGradient>
<linearGradient id="paint57_linear_3619_316728" x1="-168.036" y1="115.128" x2="202.67" y2="109.368" gradientUnits="userSpaceOnUse">
<stop stop-color="#BFDFFF"/>
<stop offset="0.18" stop-color="#B5DAFC"/>
<stop offset="0.67" stop-color="#A1CFF6"/>
<stop offset="0.99" stop-color="#9ACCF5"/>
</linearGradient>
<linearGradient id="paint58_linear_3619_316728" x1="215.976" y1="109.532" x2="220.351" y2="109.532" gradientUnits="userSpaceOnUse">
<stop stop-color="#B4D9FF"/>
<stop offset="0.02" stop-color="#B0D7FE"/>
<stop offset="0.13" stop-color="#9FCEF9"/>
<stop offset="0.27" stop-color="#93C9F7"/>
<stop offset="0.46" stop-color="#8CC5F5"/>
<stop offset="0.99" stop-color="#8BC5F5"/>
</linearGradient>
<clipPath id="clip0_3619_316728">
<rect width="454" height="126" fill="white"/>
</clipPath>
</defs>
</svg>
