<svg width="319" height="180" viewBox="0 0 319 180" fill="none" xmlns="http://www.w3.org/2000/svg">
<g clip-path="url(#clip0_3619_316727)">
<g opacity="0.2">
<path d="M199.387 107.017V108.58L207.792 110.705L210.626 119.892L213.852 121.204L217.663 127.578L219.888 133.947C220.458 134.26 221.045 134.548 221.644 134.814C221.871 134.914 222.12 135.046 222.368 135.146C222.378 135.14 222.468 135.163 222.671 135.237C222.829 135.294 222.988 135.35 223.146 135.406C223.53 135.539 223.918 135.677 224.31 135.807C225.388 135.929 226.522 136.187 227.545 136.609C228.245 136.712 228.95 136.79 229.648 136.898C230.172 136.98 230.719 137.073 231.271 137.186L236.622 119.142L246.786 109.206L250.402 108.393L251.381 107.017H199.387Z" fill="#DBEBFF"/>
<path d="M199.387 107.017V108.58L207.792 110.705L210.626 119.892L213.852 121.204L217.663 127.578L219.888 133.947C220.458 134.26 221.045 134.548 221.644 134.814C221.871 134.914 222.12 135.046 222.368 135.146C222.378 135.14 222.468 135.163 222.671 135.237C222.829 135.294 222.988 135.35 223.146 135.406C223.53 135.539 223.918 135.677 224.31 135.807C225.388 135.929 226.522 136.187 227.545 136.609C228.245 136.712 228.95 136.79 229.648 136.898C230.172 136.98 230.719 137.073 231.271 137.186L236.622 119.142L246.786 109.206L250.402 108.393L251.381 107.017H199.387Z" fill="black" fill-opacity="0.8"/>
<path d="M245.81 108.563L231.297 120.937L228.16 136.692C228.657 136.759 229.156 136.82 229.65 136.896C230.174 136.978 230.721 137.071 231.273 137.184L236.576 119.301L246.787 109.204L250.402 108.391L245.808 108.563H245.81Z" fill="#F0F6FF"/>
<path d="M245.81 108.563L231.297 120.937L228.16 136.692C228.657 136.759 229.156 136.82 229.65 136.896C230.174 136.978 230.721 137.071 231.273 137.184L236.576 119.301L246.787 109.204L250.402 108.391L245.808 108.563H245.81Z" fill="black" fill-opacity="0.8"/>
<path d="M213.852 121.202L212.874 119.734L210.626 119.89L213.852 121.202Z" fill="#F0F6FF"/>
<path d="M213.852 121.202L212.874 119.734L210.626 119.89L213.852 121.202Z" fill="black" fill-opacity="0.8"/>
<path d="M199.387 107.017V108.58L200.552 107.527L207.769 110.685L207.806 110.75L210.626 119.892L212.874 119.736L217.663 127.578L219.888 133.947C220.458 134.26 221.045 134.548 221.644 134.813C221.871 134.914 222.12 135.046 222.368 135.146C222.378 135.14 222.468 135.162 222.671 135.237C222.829 135.294 222.988 135.35 223.146 135.406C223.53 135.539 223.918 135.677 224.31 135.807C225.056 135.892 225.828 136.044 226.574 136.267L224.21 119.422L213.635 112.597L223.818 115.078L245.808 108.563L250.402 108.391L251.381 107.015H199.387V107.017Z" fill="#B4D9FF"/>
<path d="M199.387 107.017V108.58L200.552 107.527L207.769 110.685L207.806 110.75L210.626 119.892L212.874 119.736L217.663 127.578L219.888 133.947C220.458 134.26 221.045 134.548 221.644 134.813C221.871 134.914 222.12 135.046 222.368 135.146C222.378 135.14 222.468 135.162 222.671 135.237C222.829 135.294 222.988 135.35 223.146 135.406C223.53 135.539 223.918 135.677 224.31 135.807C225.056 135.892 225.828 136.044 226.574 136.267L224.21 119.422L213.635 112.597L223.818 115.078L245.808 108.563L250.402 108.391L251.381 107.015H199.387V107.017Z" fill="black" fill-opacity="0.8"/>
<path d="M212.873 119.734L211.409 114.329L211.83 119.806L212.873 119.734Z" fill="url(#paint0_linear_3619_316727)"/>
<path d="M212.873 119.734L211.409 114.329L211.83 119.806L212.873 119.734Z" fill="black" fill-opacity="0.8"/>
<path d="M199.387 107.017L210.186 107.767L223.075 109.501L246.762 107.017H199.387Z" fill="url(#paint1_linear_3619_316727)"/>
<path d="M199.387 107.017L210.186 107.767L223.075 109.501L246.762 107.017H199.387Z" fill="black" fill-opacity="0.8"/>
</g>
<path d="M199.387 106.718H251.381L250.404 104.567L246.788 103.297L236.624 87.757L228.414 44.4631L223.82 47.0043L217.663 74.5632L213.852 84.5328L210.626 86.5857L207.793 100.951L199.387 104.273V106.718Z" fill="#DBEBFF"/>
<path d="M199.387 106.718H251.381L250.404 104.567L246.788 103.297L236.624 87.757L228.414 44.4631L223.82 47.0043L217.663 74.5632L213.852 84.5328L210.626 86.5857L207.793 100.951L199.387 104.273V106.718Z" fill="black" fill-opacity="0.8"/>
<path d="M223.82 47.0043L227.265 53.2819L231.297 84.9486L245.81 104.299L250.404 104.567L246.789 103.297L236.576 87.5064L228.414 44.4631L223.82 47.0043Z" fill="#F0F6FF"/>
<path d="M223.82 47.0043L227.265 53.2819L231.297 84.9486L245.81 104.299L250.404 104.567L246.789 103.297L236.576 87.5064L228.414 44.4631L223.82 47.0043Z" fill="black" fill-opacity="0.8"/>
<path d="M213.852 84.5327L212.874 86.8288L210.626 86.5857L213.852 84.5327Z" fill="#F0F6FF"/>
<path d="M213.852 84.5327L212.874 86.8288L210.626 86.5857L213.852 84.5327Z" fill="black" fill-opacity="0.8"/>
<path d="M250.404 104.567L245.81 104.299L223.82 94.1106L213.637 97.9919L224.211 87.3169L227.265 53.2818L223.82 47.0042L217.663 74.563L212.874 86.8288L210.626 86.5856L207.806 100.88L207.769 100.984L200.552 105.92L199.387 104.273V106.718H251.381L250.404 104.567Z" fill="#B4D9FF"/>
<path d="M250.404 104.567L245.81 104.299L223.82 94.1106L213.637 97.9919L224.211 87.3169L227.265 53.2818L223.82 47.0042L217.663 74.563L212.874 86.8288L210.626 86.5856L207.806 100.88L207.769 100.984L200.552 105.92L199.387 104.273V106.718H251.381L250.404 104.567Z" fill="black" fill-opacity="0.8"/>
<path d="M212.873 86.8288L211.409 95.2838L211.83 86.7156L212.873 86.8288Z" fill="url(#paint2_linear_3619_316727)"/>
<path d="M212.873 86.8288L211.409 95.2838L211.83 86.7156L212.873 86.8288Z" fill="black" fill-opacity="0.8"/>
<path d="M199.387 106.718L210.186 105.545L223.075 102.833L246.762 106.718H199.387Z" fill="url(#paint3_linear_3619_316727)"/>
<path d="M199.387 106.718L210.186 105.545L223.075 102.833L246.762 106.718H199.387Z" fill="black" fill-opacity="0.8"/>
<path d="M15.6609 118.176H180.803L189.395 86.2944L169.157 83.0479L163.431 66.4387L140.52 59.7564L124.864 9.5464L88.019 0L57.0893 10.5005L37.9983 8.20994L29.9796 59.0882L18.1426 74.0751L21.5803 105.385L15.6609 109.204V118.176Z" fill="#D1E1F7"/>
<path d="M15.6609 118.176H180.803L189.395 86.2944L169.157 83.0479L163.431 66.4387L140.52 59.7564L124.864 9.5464L88.019 0L57.0893 10.5005L37.9983 8.20994L29.9796 59.0882L18.1426 74.0751L21.5803 105.385L15.6609 109.204V118.176Z" fill="#0C0C0C" fill-opacity="0.8"/>
<path d="M49.6775 9.61139L37.9983 8.20996L29.9796 59.0882L18.1426 74.0751L21.5803 105.385L15.6609 109.204V118.176H50.7262L58.9993 15.9094L49.6775 9.61139Z" fill="#AFD2F7"/>
<path d="M49.6775 9.61139L37.9983 8.20996L29.9796 59.0882L18.1426 74.0751L21.5803 105.385L15.6609 109.204V118.176H50.7262L58.9993 15.9094L49.6775 9.61139Z" fill="#0C0C0C" fill-opacity="0.8"/>
<path d="M180.803 118.176L160.566 111.876C160.566 111.876 116.343 113.406 116.274 113.022C116.205 112.637 51.8956 103.711 51.8956 103.711L15.6609 118.176H180.803Z" fill="#AFD2F7"/>
<path d="M180.803 118.176L160.566 111.876C160.566 111.876 116.343 113.406 116.274 113.022C116.205 112.637 51.8956 103.711 51.8956 103.711L15.6609 118.176H180.803Z" fill="black" fill-opacity="0.8"/>
<path d="M165.912 86.2944H189.395L180.803 118.176L156.366 113.022L165.912 86.2944Z" fill="#AFD2F7"/>
<path d="M165.912 86.2944H189.395L180.803 118.176L156.366 113.022L165.912 86.2944Z" fill="black" fill-opacity="0.8"/>
<path d="M163.43 66.4386L137.911 67.0753L115 19.4732L85.7264 13.3645L50.7261 118.176L116.274 117.985L116.198 112.056L116.274 113.022L156.366 114.167L165.912 86.2943L163.43 66.4386Z" fill="#AFD2F7"/>
<path d="M163.43 66.4386L137.911 67.0753L115 19.4732L85.7264 13.3645L50.7261 118.176L116.274 117.985L116.198 112.056L116.274 113.022L156.366 114.167L165.912 86.2943L163.43 66.4386Z" fill="#0C0C0C" fill-opacity="0.8"/>
<path d="M37.998 8.20994L57.089 10.5005L88.0187 0L124.864 9.5464L115 19.4733L85.7263 13.3646L58.999 15.9094L37.998 8.20994Z" fill="white"/>
<path d="M37.998 8.20994L57.089 10.5005L88.0187 0L124.864 9.5464L115 19.4733L85.7263 13.3646L58.999 15.9094L37.998 8.20994Z" fill="#0C0C0C" fill-opacity="0.8"/>
<path d="M189.395 86.2943H165.912L169.156 83.0479L189.395 86.2943Z" fill="white"/>
<path d="M189.395 86.2943H165.912L169.156 83.0479L189.395 86.2943Z" fill="black" fill-opacity="0.8"/>
<path d="M163.431 66.4386L137.912 67.0753L140.52 59.7563L163.431 66.4386Z" fill="white"/>
<path d="M163.431 66.4386L137.912 67.0753L140.52 59.7563L163.431 66.4386Z" fill="#0C0C0C" fill-opacity="0.8"/>
<path d="M115 19.4732L108.318 73.3121L85.7263 13.3645L115 19.4732Z" fill="url(#paint4_linear_3619_316727)"/>
<path d="M115 19.4732L108.318 73.3121L85.7263 13.3645L115 19.4732Z" fill="#0C0C0C" fill-opacity="0.8"/>
<path d="M158.911 112.641C158.528 112.641 118.379 113.083 118.379 113.083L116.91 110.351L102.529 112.515L55.8714 110.308L55.3944 104.201L51.8973 103.715L59.001 15.9114L36.7267 67.0773L36.7081 67.3056L18.1443 74.0789L34.8723 88.9711L46.765 113.001L15.6626 109.207V118.18H180.804C180.804 118.18 159.295 112.643 158.912 112.643L158.911 112.641Z" fill="url(#paint5_linear_3619_316727)"/>
<path d="M158.911 112.641C158.528 112.641 118.379 113.083 118.379 113.083L116.91 110.351L102.529 112.515L55.8714 110.308L55.3944 104.201L51.8973 103.715L59.001 15.9114L36.7267 67.0773L36.7081 67.3056L18.1443 74.0789L34.8723 88.9711L46.765 113.001L15.6626 109.207V118.18H180.804C180.804 118.18 159.295 112.643 158.912 112.643L158.911 112.641Z" fill="#0C0C0C" fill-opacity="0.8"/>
<path d="M137.912 67.0754L116.911 110.349L163.431 66.4387L137.912 67.0754Z" fill="url(#paint6_linear_3619_316727)"/>
<path d="M137.912 67.0754L116.911 110.349L163.431 66.4387L137.912 67.0754Z" fill="black" fill-opacity="0.8"/>
<path d="M165.912 86.2944L162.59 98.7977L189.395 86.2944H165.912Z" fill="url(#paint7_linear_3619_316727)"/>
<path d="M165.912 86.2944L162.59 98.7977L189.395 86.2944H165.912Z" fill="black" fill-opacity="0.8"/>
<g opacity="0.25">
<path d="M117.856 141.048H243.948V146.973L234.357 144.011L217.996 154.871H186.402L177.095 168.128L165.529 171.796L149.733 211.851L139.578 209.314L136.192 198.594L128.576 193.233L124.064 168.128L117.856 162.558V141.048Z" fill="#DBEBFF"/>
<path d="M117.856 141.048H243.948V146.973L234.357 144.011L217.996 154.871H186.402L177.095 168.128L165.529 171.796L149.733 211.851L139.578 209.314L136.192 198.594L128.576 193.233L124.064 168.128L117.856 162.558V141.048Z" fill="black" fill-opacity="0.8"/>
<path d="M243.947 146.973L236.19 142.812L234.356 144.011L243.947 146.973Z" fill="#F0F6FF"/>
<path d="M243.947 146.973L236.19 142.812L234.356 144.011L243.947 146.973Z" fill="black" fill-opacity="0.8"/>
<path d="M243.948 141.048L217.996 144.893L187.813 144.293C187.813 144.293 135.487 146.832 135.063 146.409C134.64 145.986 117.856 141.05 117.856 141.05H243.948V141.048Z" fill="#B4D9FF"/>
<path d="M243.948 141.048L217.996 144.893L187.813 144.293C187.813 144.293 135.487 146.832 135.063 146.409C134.64 145.986 117.856 141.05 117.856 141.05H243.948V141.048Z" fill="black" fill-opacity="0.8"/>
<path d="M147.757 207.339L154.245 171.327L160.309 144.247L135.063 146.409L136.943 195.49L139.577 209.314L147.757 207.339Z" fill="#B4D9FF"/>
<path d="M147.757 207.339L154.245 171.327L160.309 144.247L135.063 146.409L136.943 195.49L139.577 209.314L147.757 207.339Z" fill="black" fill-opacity="0.8"/>
<path d="M117.856 141.048V162.558L124.134 165.944L124.064 168.128L128.576 193.233L136.944 195.49L136.474 145.069L117.856 141.048Z" fill="#B4D9FF"/>
<path d="M117.856 141.048V162.558L124.134 165.944L124.064 168.128L128.576 193.233L136.944 195.49L136.474 145.069L117.856 141.048Z" fill="black" fill-opacity="0.8"/>
<path d="M214.329 152.755L210.099 143.753L183.958 142.812L187.319 149.934L214.329 152.755Z" fill="#B4D9FF"/>
<path d="M214.329 152.755L210.099 143.753L183.958 142.812L187.319 149.934L214.329 152.755Z" fill="black" fill-opacity="0.8"/>
<path d="M217.996 154.871L214.328 152.755L187.319 149.934L186.402 154.871H217.996Z" fill="#F0F6FF"/>
<path d="M147.758 207.338L154.245 171.326L177.095 168.128L165.432 172.039L149.733 211.851L147.758 207.338Z" fill="#F0F6FF"/>
<path d="M117.856 141.048H212.635L209.615 143.734L183.957 142.812L160.011 145.579L138.237 145.106L137.636 163.989L136.944 195.489L128.576 193.231L136.392 168.006L132.76 144.714H128.576L124.815 157.409C124.815 157.409 125.474 144.339 125.38 144.245C125.285 144.15 117.858 141.048 117.858 141.048H117.856Z" fill="url(#paint8_linear_3619_316727)"/>
<path d="M117.856 141.048H212.635L209.615 143.734L183.957 142.812L160.011 145.579L138.237 145.106L137.636 163.989L136.944 195.489L128.576 193.231L136.392 168.006L132.76 144.714H128.576L124.815 157.409C124.815 157.409 125.474 144.339 125.38 144.245C125.285 144.15 117.858 141.048 117.858 141.048H117.856Z" fill="black" fill-opacity="0.8"/>
</g>
<path d="M118 141.485H244.091V135.562L234.5 138.524L218.14 127.664H186.545L177.239 114.405L165.673 110.739L149.876 70.6824L139.721 73.2216L136.335 83.9412L128.72 89.3L124.207 114.405L118 119.977V141.485Z" fill="#DBEBFF"/>
<path d="M118 141.485H244.091V135.562L234.5 138.524L218.14 127.664H186.545L177.239 114.405L165.673 110.739L149.876 70.6824L139.721 73.2216L136.335 83.9412L128.72 89.3L124.207 114.405L118 119.977V141.485Z" fill="black" fill-opacity="0.8"/>
<path d="M243.947 135.348L236.19 139.508L234.356 138.311L243.947 135.348Z" fill="#F0F6FF"/>
<path d="M243.947 135.348L236.19 139.508L234.356 138.311L243.947 135.348Z" fill="black" fill-opacity="0.8"/>
<path d="M243.948 141.271L217.996 137.427L187.813 138.026C187.813 138.026 135.487 135.487 135.063 135.91C134.64 136.334 117.856 141.269 117.856 141.269H243.948V141.271Z" fill="#B4D9FF"/>
<path d="M243.948 141.271L217.996 137.427L187.813 138.026C187.813 138.026 135.487 135.487 135.063 135.91C134.64 136.334 117.856 141.269 117.856 141.269H243.948V141.271Z" fill="black" fill-opacity="0.8"/>
<path d="M147.757 74.9828L154.245 110.995L160.309 138.075L135.063 135.912L136.943 86.829L139.577 73.0078L147.757 74.9828Z" fill="#B4D9FF"/>
<path d="M147.757 74.9828L154.245 110.995L160.309 138.075L135.063 135.912L136.943 86.829L139.577 73.0078L147.757 74.9828Z" fill="black" fill-opacity="0.8"/>
<path d="M139.578 73.0078L147.758 74.9828L149.733 70.4685L139.578 73.0078Z" fill="#F0F6FF"/>
<path d="M139.578 73.0078L147.758 74.9828L149.733 70.4685L139.578 73.0078Z" fill="black" fill-opacity="0.8"/>
<path d="M117.856 141.271V119.764L124.134 116.378L124.064 114.191L128.576 89.0862L136.944 86.8291L136.474 137.253L117.856 141.271Z" fill="#B4D9FF"/>
<path d="M117.856 141.271V119.764L124.134 116.378L124.064 114.191L128.576 89.0862L136.944 86.8291L136.474 137.253L117.856 141.271Z" fill="black" fill-opacity="0.8"/>
<path d="M214.329 129.566L210.099 138.568L183.958 139.508L187.319 132.385L214.329 129.566Z" fill="#B4D9FF"/>
<path d="M214.329 129.566L210.099 138.568L183.958 139.508L187.319 132.385L214.329 129.566Z" fill="black" fill-opacity="0.8"/>
<path d="M128.576 89.0861L136.943 86.829L136.192 83.7273L128.576 89.0861Z" fill="#F0F6FF"/>
<path d="M128.576 89.0861L136.943 86.829L136.192 83.7273L128.576 89.0861Z" fill="black" fill-opacity="0.8"/>
<path d="M217.996 127.45L214.328 129.566L187.319 132.386L186.402 127.45H217.996Z" fill="#F0F6FF"/>
<path d="M217.996 127.45L214.328 129.566L187.319 132.386L186.402 127.45H217.996Z" fill="black" fill-opacity="0.8"/>
<path d="M147.758 74.9828L154.245 110.995L177.095 114.191L165.432 110.28L149.733 70.4685L147.758 74.9828Z" fill="#F0F6FF"/>
<path d="M147.758 74.9828L154.245 110.995L177.095 114.191L165.432 110.28L149.733 70.4685L147.758 74.9828Z" fill="black" fill-opacity="0.8"/>
<path d="M117.856 141.271H212.635L209.615 138.585L183.957 139.508L160.011 136.74L138.237 137.213L137.636 118.33L136.944 86.8308L128.576 89.0879L136.392 114.314L132.76 137.605H128.576L124.815 124.911C124.815 124.911 125.474 137.98 125.38 138.075C125.285 138.169 117.858 141.271 117.858 141.271H117.856Z" fill="url(#paint9_linear_3619_316727)"/>
<path d="M117.856 141.271H212.635L209.615 138.585L183.957 139.508L160.011 136.74L138.237 137.213L137.636 118.33L136.944 86.8308L128.576 89.0879L136.392 114.314L132.76 137.605H128.576L124.815 124.911C124.815 124.911 125.474 137.98 125.38 138.075C125.285 138.169 117.858 141.271 117.858 141.271H117.856Z" fill="black" fill-opacity="0.8"/>
<g opacity="0.2">
<path d="M-0.998047 136.547H71.0055L74.3615 153.438L68.0115 155.237L59.6252 145.891L54.7119 150.683L41.6535 150.802L41.7723 174.884L32.5489 176.921L23.6819 171.17L12.1809 146.251L6.66989 145.052L4.03409 139.78L-0.998047 136.547Z" fill="#DBEBFF"/>
<path d="M-0.998047 136.547H71.0055L74.3615 153.438L68.0115 155.237L59.6252 145.891L54.7119 150.683L41.6535 150.802L41.7723 174.884L32.5489 176.921L23.6819 171.17L12.1809 146.251L6.66989 145.052L4.03409 139.78L-0.998047 136.547Z" fill="black" fill-opacity="0.8"/>
<path d="M68.011 155.237L71.2463 151.957L74.361 153.438L68.011 155.237Z" fill="#F0F6FF"/>
<path d="M54.7121 150.683L40.6348 147.808L41.6538 150.802L54.7121 150.683Z" fill="#F0F6FF"/>
<path d="M41.7721 174.884L32.5487 176.921L23.6816 171.17L32.5784 171.74L41.7721 174.884Z" fill="#F0F6FF"/>
<path d="M6.66992 145.052L10.5939 144.296C10.6607 144.363 12.181 146.251 12.181 146.251L6.66992 145.053V145.052Z" fill="#F0F6FF"/>
<path d="M6.66992 145.052L10.5939 144.296C10.6607 144.363 12.181 146.251 12.181 146.251L6.66992 145.053V145.052Z" fill="black" fill-opacity="0.8"/>
<path d="M71.2468 151.957L68.0115 155.237L59.6252 145.891L49.741 141.278L40.1927 142.455L30.1322 140.369L29.9335 140.374L32.5786 171.74L23.6819 171.17L12.1809 146.251L10.5939 144.296L6.66989 145.052L4.03409 139.78L-0.998047 136.547H71.0055L66.753 139.422L71.2468 151.957Z" fill="#B4D9FF"/>
<path d="M71.2468 151.957L68.0115 155.237L59.6252 145.891L49.741 141.278L40.1927 142.455L30.1322 140.369L29.9335 140.374L32.5786 171.74L23.6819 171.17L12.1809 146.251L10.5939 144.296L6.66989 145.052L4.03409 139.78L-0.998047 136.547H71.0055L66.753 139.422L71.2468 151.957Z" fill="black" fill-opacity="0.8"/>
<path d="M71.2467 151.957L62.801 140.081C62.621 140.081 48.8443 137.744 48.8443 137.744L39.7397 139.96L29.6754 138.163L29.9353 140.374L31.8342 162.893L26.3194 138.163H9.42438L10.3228 144.296L6.66793 138.763V145.054L4.03214 139.782L-1 136.547H71.0036L66.751 139.422L71.243 151.957H71.2467Z" fill="url(#paint10_linear_3619_316727)"/>
<path d="M71.2467 151.957L62.801 140.081C62.621 140.081 48.8443 137.744 48.8443 137.744L39.7397 139.96L29.6754 138.163L29.9353 140.374L31.8342 162.893L26.3194 138.163H9.42438L10.3228 144.296L6.66793 138.763V145.054L4.03214 139.782L-1 136.547H71.0036L66.751 139.422L71.243 151.957H71.2467Z" fill="black" fill-opacity="0.8"/>
</g>
<path d="M-0.454102 136.592H71.5513L74.9055 119.699L68.5554 117.902L60.1692 127.248L55.2577 122.456L42.1975 122.335L42.3181 98.2546L33.0929 96.2166L24.2258 101.969L12.7249 126.888L7.21383 128.086L4.57804 133.357L-0.454102 136.592Z" fill="#DBEBFF"/>
<path d="M-0.454102 136.592H71.5513L74.9055 119.699L68.5554 117.902L60.1692 127.248L55.2577 122.456L42.1975 122.335L42.3181 98.2546L33.0929 96.2166L24.2258 101.969L12.7249 126.888L7.21383 128.086L4.57804 133.357L-0.454102 136.592Z" fill="black" fill-opacity="0.8"/>
<path d="M68.5552 117.902L71.7905 121.182L74.9052 119.699L68.5552 117.902Z" fill="#F0F6FF"/>
<path d="M68.5552 117.902L71.7905 121.182L74.9052 119.699L68.5552 117.902Z" fill="black" fill-opacity="0.8"/>
<path d="M55.258 122.456L41.1807 125.331L42.1979 122.335L55.258 122.456Z" fill="#F0F6FF"/>
<path d="M55.258 122.456L41.1807 125.331L42.1979 122.335L55.258 122.456Z" fill="black" fill-opacity="0.8"/>
<path d="M42.3181 98.2546L33.0929 96.2166L24.2258 101.969L33.1226 101.399L42.3181 98.2546Z" fill="#F0F6FF"/>
<path d="M42.3181 98.2546L33.0929 96.2166L24.2258 101.969L33.1226 101.399L42.3181 98.2546Z" fill="black" fill-opacity="0.8"/>
<path d="M7.21411 128.086L11.1381 128.841C11.2049 128.774 12.7251 126.886 12.7251 126.886L7.21411 128.084V128.086Z" fill="#F0F6FF"/>
<path d="M7.21411 128.086L11.1381 128.841C11.2049 128.774 12.7251 126.886 12.7251 126.886L7.21411 128.084V128.086Z" fill="black" fill-opacity="0.8"/>
<path d="M71.7908 121.182L68.5554 117.903L60.1692 127.249L50.2849 131.861L40.7367 130.684L30.6761 132.771L30.4775 132.763L33.1226 101.399L24.2258 101.969L12.7249 126.888L11.1378 128.843L7.21383 128.086L4.57804 133.357L-0.454102 136.593H71.5513L67.2969 133.717L71.7908 121.182Z" fill="#B4D9FF"/>
<path d="M71.7908 121.182L68.5554 117.903L60.1692 127.249L50.2849 131.861L40.7367 130.684L30.6761 132.771L30.4775 132.763L33.1226 101.399L24.2258 101.969L12.7249 126.888L11.1378 128.843L7.21383 128.086L4.57804 133.357L-0.454102 136.593H71.5513L67.2969 133.717L71.7908 121.182Z" fill="black" fill-opacity="0.8"/>
<path d="M71.7908 121.182L63.3451 133.058C63.1651 133.058 49.3884 135.395 49.3884 135.395L40.2838 133.179L30.2195 134.976L30.4794 132.765L32.3782 110.246L26.8635 134.976H9.97028L10.8687 128.843L7.21383 134.376V128.085L4.57804 133.357L-0.454102 136.592H71.5495L67.2969 133.717L71.7889 121.182H71.7908Z" fill="url(#paint11_linear_3619_316727)"/>
<path d="M71.7908 121.182L63.3451 133.058C63.1651 133.058 49.3884 135.395 49.3884 135.395L40.2838 133.179L30.2195 134.976L30.4794 132.765L32.3782 110.246L26.8635 134.976H9.97028L10.8687 128.843L7.21383 134.376V128.085L4.57804 133.357L-0.454102 136.592H71.5495L67.2969 133.717L71.7889 121.182H71.7908Z" fill="black" fill-opacity="0.8"/>
<g opacity="0.2">
<path d="M319.001 125.616H280.992L279.104 133.973L295.639 142.149L307.678 138.914L310.644 133.883L317.562 130.199L319.001 125.616Z" fill="#DBEBFF"/>
<path d="M319.001 125.616H280.992L279.104 133.973L295.639 142.149L307.678 138.914L310.644 133.883L317.562 130.199L319.001 125.616Z" fill="black" fill-opacity="0.8"/>
<path d="M307.678 138.914L295.639 142.149L279.104 133.972L297.285 135.32L307.678 138.914Z" fill="#F0F6FF"/>
<path d="M307.678 138.914L295.639 142.149L279.104 133.972L297.285 135.32L307.678 138.914Z" fill="black" fill-opacity="0.8"/>
<path d="M310.645 133.884L311.183 130.708L317.563 130.199L310.645 133.884Z" fill="#F0F6FF"/>
<path d="M310.645 133.884L311.183 130.708L317.563 130.199L310.645 133.884Z" fill="black" fill-opacity="0.8"/>
<path d="M280.992 125.616L297.645 129.061L297.285 135.32L307.678 138.914L310.644 133.883L311.183 130.708L317.562 130.199L319.001 125.616H280.992Z" fill="#B4D9FF"/>
<path d="M280.992 125.616L297.645 129.061L297.285 135.32L307.678 138.914L310.644 133.883L311.183 130.708L317.562 130.199L319.001 125.616H280.992Z" fill="black" fill-opacity="0.8"/>
<path d="M319.001 125.616L311.662 127.623L311.183 130.708L310.644 133.883L307.678 138.914V127.623L306.091 127.144L303.754 132.04L304.654 127.084L280.992 125.616H319.001Z" fill="url(#paint12_linear_3619_316727)"/>
<path d="M319.001 125.616L311.662 127.623L311.183 130.708L310.644 133.883L307.678 138.914V127.623L306.091 127.144L303.754 132.04L304.654 127.084L280.992 125.616H319.001Z" fill="black" fill-opacity="0.8"/>
</g>
<path d="M319.001 125.616H280.992L279.104 117.26L295.639 109.083L307.678 112.316L310.644 117.349L317.562 121.033L319.001 125.616Z" fill="#DBEBFF"/>
<path d="M319.001 125.616H280.992L279.104 117.26L295.639 109.083L307.678 112.316L310.644 117.349L317.562 121.033L319.001 125.616Z" fill="black" fill-opacity="0.8"/>
<path d="M307.678 112.316L295.639 109.083L279.104 117.26L297.285 115.912L307.678 112.316Z" fill="#F0F6FF"/>
<path d="M307.678 112.316L295.639 109.083L279.104 117.26L297.285 115.912L307.678 112.316Z" fill="black" fill-opacity="0.8"/>
<path d="M310.645 117.349L311.183 120.525L317.563 121.033L310.645 117.349Z" fill="#F0F6FF"/>
<path d="M310.645 117.349L311.183 120.525L317.563 121.033L310.645 117.349Z" fill="black" fill-opacity="0.8"/>
<path d="M280.992 125.616L297.645 122.171L297.285 115.912L307.678 112.316L310.644 117.349L311.183 120.524L317.562 121.033L319.001 125.616H280.992Z" fill="#B4D9FF"/>
<path d="M280.992 125.616L297.645 122.171L297.285 115.912L307.678 112.316L310.644 117.349L311.183 120.524L317.562 121.033L319.001 125.616H280.992Z" fill="black" fill-opacity="0.8"/>
<path d="M319.001 125.616L311.662 123.609L311.183 120.524L310.644 117.349L307.678 112.316V123.609L306.091 124.088L303.754 119.192L304.654 124.148L280.992 125.616H319.001Z" fill="url(#paint13_linear_3619_316727)"/>
<path d="M319.001 125.616L311.662 123.609L311.183 120.524L310.644 117.349L307.678 112.316V123.609L306.091 124.088L303.754 119.192L304.654 124.148L280.992 125.616H319.001Z" fill="black" fill-opacity="0.8"/>
</g>
<defs>
<linearGradient id="paint0_linear_3619_316727" x1="212.762" y1="116.671" x2="210.707" y2="117.859" gradientUnits="userSpaceOnUse">
<stop stop-color="#BFDFFF"/>
<stop offset="0.09" stop-color="#B6DAFC"/>
<stop offset="0.34" stop-color="#A6D2F8"/>
<stop offset="0.62" stop-color="#9DCDF5"/>
<stop offset="0.99" stop-color="#9ACCF5"/>
</linearGradient>
<linearGradient id="paint1_linear_3619_316727" x1="223.075" y1="107.015" x2="223.075" y2="109.499" gradientUnits="userSpaceOnUse">
<stop stop-color="#BFDFFF"/>
<stop offset="0.12" stop-color="#B1D8FB"/>
<stop offset="0.31" stop-color="#A4D1F7"/>
<stop offset="0.54" stop-color="#9CCDF5"/>
<stop offset="0.99" stop-color="#9ACCF5"/>
</linearGradient>
<linearGradient id="paint2_linear_3619_316727" x1="213.421" y1="91.796" x2="210.03" y2="89.8358" gradientUnits="userSpaceOnUse">
<stop stop-color="#BFDFFF"/>
<stop offset="0.09" stop-color="#B6DAFC"/>
<stop offset="0.34" stop-color="#A6D2F8"/>
<stop offset="0.62" stop-color="#9DCDF5"/>
<stop offset="0.99" stop-color="#9ACCF5"/>
</linearGradient>
<linearGradient id="paint3_linear_3619_316727" x1="13.7935" y1="106.718" x2="13.9791" y2="102.833" gradientUnits="userSpaceOnUse">
<stop stop-color="#BFDFFF"/>
<stop offset="0.12" stop-color="#B1D8FB"/>
<stop offset="0.31" stop-color="#A4D1F7"/>
<stop offset="0.54" stop-color="#9CCDF5"/>
<stop offset="0.99" stop-color="#9ACCF5"/>
</linearGradient>
<linearGradient id="paint4_linear_3619_316727" x1="100.364" y1="73.3121" x2="100.364" y2="13.3645" gradientUnits="userSpaceOnUse">
<stop stop-color="#AFD2F7"/>
<stop offset="0.67" stop-color="#9EC9F0"/>
<stop offset="0.99" stop-color="#94C5ED"/>
</linearGradient>
<linearGradient id="paint5_linear_3619_316727" x1="68.9724" y1="148.956" x2="124.088" y2="53.49" gradientUnits="userSpaceOnUse">
<stop stop-color="#B9D7F7"/>
<stop offset="0.04" stop-color="#B5D5F6"/>
<stop offset="0.35" stop-color="#A3CCF1"/>
<stop offset="0.66" stop-color="#97C6EE"/>
<stop offset="0.99" stop-color="#94C5ED"/>
</linearGradient>
<linearGradient id="paint6_linear_3619_316727" x1="140.171" y1="110.349" x2="140.171" y2="66.4387" gradientUnits="userSpaceOnUse">
<stop stop-color="#AFD2F7"/>
<stop offset="0.67" stop-color="#9EC9F0"/>
<stop offset="0.99" stop-color="#94C5ED"/>
</linearGradient>
<linearGradient id="paint7_linear_3619_316727" x1="175.991" y1="98.7977" x2="175.991" y2="86.2944" gradientUnits="userSpaceOnUse">
<stop stop-color="#AFD2F7"/>
<stop offset="0.67" stop-color="#9EC9F0"/>
<stop offset="0.99" stop-color="#94C5ED"/>
</linearGradient>
<linearGradient id="paint8_linear_3619_316727" x1="165.247" y1="141.048" x2="165.247" y2="195.49" gradientUnits="userSpaceOnUse">
<stop stop-color="#B4D9FF"/>
<stop offset="0.02" stop-color="#B0D7FE"/>
<stop offset="0.13" stop-color="#9FCEF9"/>
<stop offset="0.27" stop-color="#93C9F7"/>
<stop offset="0.46" stop-color="#8CC5F5"/>
<stop offset="0.99" stop-color="#8BC5F5"/>
</linearGradient>
<linearGradient id="paint9_linear_3619_316727" x1="165.247" y1="141.271" x2="165.247" y2="86.829" gradientUnits="userSpaceOnUse">
<stop stop-color="#B4D9FF"/>
<stop offset="0.02" stop-color="#B0D7FE"/>
<stop offset="0.13" stop-color="#9FCEF9"/>
<stop offset="0.27" stop-color="#93C9F7"/>
<stop offset="0.46" stop-color="#8CC5F5"/>
<stop offset="0.99" stop-color="#8BC5F5"/>
</linearGradient>
<linearGradient id="paint10_linear_3619_316727" x1="35.1234" y1="136.547" x2="35.1234" y2="162.893" gradientUnits="userSpaceOnUse">
<stop stop-color="#BFDFFF"/>
<stop offset="0.12" stop-color="#AFD6FA"/>
<stop offset="0.27" stop-color="#A2D0F7"/>
<stop offset="0.47" stop-color="#9BCDF5"/>
<stop offset="0.99" stop-color="#9ACCF5"/>
</linearGradient>
<linearGradient id="paint11_linear_3619_316727" x1="35.6674" y1="136.592" x2="35.6674" y2="110.246" gradientUnits="userSpaceOnUse">
<stop stop-color="#BFDFFF"/>
<stop offset="0.12" stop-color="#AFD6FA"/>
<stop offset="0.27" stop-color="#A2D0F7"/>
<stop offset="0.47" stop-color="#9BCDF5"/>
<stop offset="0.99" stop-color="#9ACCF5"/>
</linearGradient>
<linearGradient id="paint12_linear_3619_316727" x1="299.997" y1="125.616" x2="299.997" y2="138.916" gradientUnits="userSpaceOnUse">
<stop stop-color="#B4D9FF"/>
<stop offset="0.02" stop-color="#B0D7FE"/>
<stop offset="0.13" stop-color="#9FCEF9"/>
<stop offset="0.27" stop-color="#93C9F7"/>
<stop offset="0.46" stop-color="#8CC5F5"/>
<stop offset="0.99" stop-color="#8BC5F5"/>
</linearGradient>
<linearGradient id="paint13_linear_3619_316727" x1="299.997" y1="125.616" x2="299.997" y2="112.316" gradientUnits="userSpaceOnUse">
<stop stop-color="#B4D9FF"/>
<stop offset="0.02" stop-color="#B0D7FE"/>
<stop offset="0.13" stop-color="#9FCEF9"/>
<stop offset="0.27" stop-color="#93C9F7"/>
<stop offset="0.46" stop-color="#8CC5F5"/>
<stop offset="0.99" stop-color="#8BC5F5"/>
</linearGradient>
<clipPath id="clip0_3619_316727">
<rect width="319" height="180" fill="white"/>
</clipPath>
</defs>
</svg>
