<svg width="1133" height="71" viewBox="0 0 1133 71" fill="none" xmlns="http://www.w3.org/2000/svg">
<g clip-path="url(#clip0_4684_42109)">
<rect x="-110" y="-37" width="1300" height="108" fill="url(#paint0_linear_4684_42109)"/>
<g clip-path="url(#clip1_4684_42109)">
<path style="mix-blend-mode:color-dodge" d="M604.411 63.2917C607.466 58.2953 599.842 53.4849 596.801 58.4813C593.746 63.4777 601.369 68.2881 604.411 63.2917Z" fill="url(#paint1_radial_4684_42109)"/>
<path style="mix-blend-mode:color-dodge" d="M711.709 52.5362C714.374 48.7908 707.71 45.1788 705.044 48.9242C702.379 52.6695 709.043 56.2816 711.709 52.5362Z" fill="url(#paint2_radial_4684_42109)"/>
<path opacity="0.39" d="M976.392 11.233C976.392 11.851 975.881 12.3615 975.263 12.3615C974.645 12.3615 974.135 11.851 974.135 11.233C974.135 10.615 974.632 10.1045 975.263 10.1045C975.895 10.1045 976.392 10.6016 976.392 11.233Z" fill="white"/>
<path opacity="0.26" d="M796.962 3.90179C796.962 4.2103 796.462 4.46198 795.834 4.46198C795.205 4.46198 794.705 4.2103 794.705 3.90179C794.705 3.59328 795.205 3.3335 795.834 3.3335C796.462 3.3335 796.962 3.58516 796.962 3.90179Z" fill="white"/>
<path opacity="0.77" d="M966.235 67.0935C966.235 66.7836 965.981 66.5293 965.671 66.5293C965.361 66.5293 965.106 66.7836 965.106 67.0935C965.106 67.4035 965.361 67.6578 965.671 67.6578C965.981 67.6578 966.235 67.4035 966.235 67.0935Z" fill="white"/>
<path opacity="0.48" d="M812.761 2.76932C812.761 3.08167 812.257 3.33356 811.632 3.33356C811.008 3.33356 810.504 3.08167 810.504 2.76932C810.504 2.45697 811.008 2.20508 811.632 2.20508C812.257 2.20508 812.761 2.45697 812.761 2.76932Z" fill="white"/>
<path opacity="0.06" d="M785.677 45.0874C785.677 44.4703 785.422 43.959 785.113 43.959C784.805 43.959 784.549 44.4703 784.549 45.0874C784.549 45.7046 784.805 46.216 785.113 46.216C785.422 46.216 785.677 45.7046 785.677 45.0874Z" fill="white"/>
<path opacity="0.4" d="M848.872 38.317C848.872 38.9409 848.368 39.4454 847.744 39.4454C847.12 39.4454 846.615 38.9409 846.615 38.317C846.615 37.693 847.12 37.1885 847.744 37.1885C848.368 37.1885 848.872 37.693 848.872 38.317Z" fill="white"/>
<path opacity="0.55" d="M808.246 65.9646C808.246 65.6577 807.751 65.4004 807.118 65.4004C806.484 65.4004 805.989 65.6577 805.989 65.9646C805.989 66.2715 806.504 66.5289 807.118 66.5289C807.732 66.5289 808.246 66.2715 808.246 65.9646Z" fill="white"/>
<path opacity="0.7" d="M23.9488 29.2887C24.572 29.2887 25.0773 28.7835 25.0773 28.1602C25.0773 27.537 24.572 27.0317 23.9488 27.0317C23.3256 27.0317 22.8203 27.537 22.8203 28.1602C22.8203 28.7835 23.3256 29.2887 23.9488 29.2887Z" fill="white"/>
<path opacity="0.21" d="M194.351 67.6524C194.351 67.0261 195.116 66.5293 196.043 66.5293C196.971 66.5293 197.736 67.0369 197.736 67.6524C197.736 68.2679 196.971 68.7863 196.043 68.7863C195.116 68.7863 194.351 68.2787 194.351 67.6524Z" fill="white"/>
<path opacity="0.56" d="M318.484 30.4175C318.484 29.7969 318.992 29.2891 319.613 29.2891C320.234 29.2891 320.741 29.7969 320.741 30.4175C320.741 31.0382 320.234 31.546 319.613 31.546C318.992 31.546 318.484 31.0382 318.484 30.4175Z" fill="white"/>
<path opacity="0.09" d="M82.6309 7.28346C82.6309 6.96879 83.13 6.71924 83.7593 6.71924C84.3887 6.71924 84.8878 6.96879 84.8878 7.28346C84.8878 7.59814 84.3887 7.84772 83.7593 7.84772C83.13 7.84772 82.6309 7.59814 82.6309 7.28346Z" fill="white"/>
<path opacity="0.52" d="M807.118 36.628C807.118 36.3141 807.373 36.0596 807.678 36.0596C807.984 36.0596 808.247 36.3141 808.247 36.628C808.247 36.942 807.992 37.1881 807.678 37.1881C807.364 37.1881 807.118 36.9335 807.118 36.628Z" fill="white"/>
<path opacity="0.79" d="M774.393 69.9141C774.393 69.2905 775.147 68.7856 776.078 68.7856C777.009 68.7856 777.778 69.2905 777.778 69.9141C777.778 70.5378 777.024 71.0426 776.078 71.0426C775.132 71.0426 774.393 70.5378 774.393 69.9141Z" fill="white"/>
<path opacity="0.56" d="M370.395 38.8811C370.395 39.1936 370.646 39.4454 370.959 39.4454C371.271 39.4454 371.523 39.1936 371.523 38.8811C371.523 38.5686 371.271 38.3169 370.959 38.3169C370.646 38.3169 370.395 38.5686 370.395 38.8811Z" fill="white"/>
<path opacity="0.66" d="M642.359 30.4176C642.359 31.0313 642.607 31.546 642.924 31.546C643.24 31.546 643.488 31.0511 643.488 30.4176C643.488 29.784 643.24 29.2891 642.924 29.2891C642.607 29.2891 642.359 29.784 642.359 30.4176Z" fill="white"/>
<path opacity="0.7" d="M622.047 59.1937C622.047 60.1295 622.804 60.8864 623.74 60.8864C624.675 60.8864 625.432 60.1295 625.432 59.1937C625.432 58.2579 624.675 57.501 623.74 57.501C622.804 57.501 622.047 58.2579 622.047 59.1937Z" fill="white"/>
<path opacity="0.27" d="M526.125 25.9034C526.125 26.5303 526.376 27.0319 526.689 27.0319C527.003 27.0319 527.253 26.5303 527.253 25.9034C527.253 25.2764 527.003 24.7749 526.689 24.7749C526.376 24.7749 526.125 25.2764 526.125 25.9034Z" fill="white"/>
<path opacity="0.25" d="M733.767 49.6016C733.767 50.2223 734.274 50.7301 734.895 50.7301C735.516 50.7301 736.024 50.2223 736.024 49.6016C736.024 48.9809 735.516 48.4731 734.895 48.4731C734.274 48.4731 733.767 48.9809 733.767 49.6016Z" fill="white"/>
<path opacity="0.22" d="M588.192 22.5181C588.192 21.8981 588.701 21.3896 589.321 21.3896C589.941 21.3896 590.449 21.8981 590.449 22.5181C590.449 23.1382 589.941 23.6466 589.321 23.6466C588.701 23.6466 588.192 23.1382 588.192 22.5181Z" fill="white"/>
<path opacity="0.45" d="M399.735 16.3108C399.735 16.6202 399.99 16.8751 400.3 16.8751C400.609 16.8751 400.864 16.6202 400.864 16.3108C400.864 16.0014 400.609 15.7466 400.3 15.7466C399.99 15.7466 399.735 16.0014 399.735 16.3108Z" fill="white"/>
<path opacity="0.57" d="M376.037 12.9261C376.037 13.2371 376.543 13.4903 377.166 13.4903C377.788 13.4903 378.294 13.2371 378.294 12.9261C378.294 12.615 377.788 12.3618 377.166 12.3618C376.543 12.3618 376.037 12.615 376.037 12.9261Z" fill="white"/>
<path opacity="0.5" d="M417.791 19.6966C417.791 18.7642 418.551 18.0039 419.484 18.0039C420.416 18.0039 421.176 18.7642 421.176 19.6966C421.176 20.6291 420.416 21.3894 419.484 21.3894C418.551 21.3894 417.791 20.6291 417.791 19.6966Z" fill="white"/>
<path opacity="0.33" d="M644.617 34.9312C644.617 35.548 645.116 36.0597 645.746 36.0597C646.376 36.0597 646.874 35.5611 646.874 34.9312C646.874 34.3014 646.376 33.8027 645.746 33.8027C645.116 33.8027 644.617 34.3014 644.617 34.9312Z" fill="white"/>
<path opacity="0.03" d="M1027.17 71.0425C1027.17 70.4203 1026.67 69.9141 1026.05 69.9141C1025.42 69.9141 1024.92 70.4203 1024.92 71.0425C1024.92 71.6648 1025.42 72.171 1026.05 72.171C1026.67 72.171 1027.17 71.6648 1027.17 71.0425Z" fill="#DCD1FF"/>
<path opacity="0.09" d="M804.862 31.5533C804.862 30.3051 804.1 29.2891 803.164 29.2891C802.228 29.2891 801.477 30.3051 801.477 31.5533C801.477 32.8015 802.239 33.803 803.164 33.803C804.089 33.803 804.862 32.787 804.862 31.5533Z" fill="#DCD1FF"/>
<path opacity="0.08" d="M519.354 4.46203C519.354 5.70967 520.364 6.71902 521.611 6.71902C522.859 6.71902 523.868 5.70967 523.868 4.46203C523.868 3.21439 522.859 2.20508 521.611 2.20508C520.364 2.20508 519.354 3.21439 519.354 4.46203Z" fill="#DCD1FF"/>
<path opacity="0.02" d="M720.226 27.0319C720.226 28.274 721.24 29.2888 722.483 29.2888C723.725 29.2888 724.74 28.274 724.74 27.0319C724.74 25.7898 723.725 24.7749 722.483 24.7749C721.24 24.7749 720.226 25.7898 720.226 27.0319Z" fill="#DCD1FF"/>
<path opacity="0.09" d="M426.818 70.4784C426.818 68.9163 428.077 67.6572 429.64 67.6572C431.202 67.6572 432.461 68.9163 432.461 70.4784C432.461 72.0406 431.202 73.2997 429.64 73.2997C428.077 73.2997 426.818 72.0406 426.818 70.4784Z" fill="#DCD1FF"/>
<path opacity="0.05" d="M664.929 47.9091C664.929 46.9774 665.69 46.2163 666.621 46.2163C667.553 46.2163 668.314 46.9774 668.314 47.9091C668.314 48.8407 667.553 49.6018 666.621 49.6018C665.69 49.6018 664.929 48.8407 664.929 47.9091Z" fill="#DCD1FF"/>
<path opacity="0.02" d="M579.164 1.07631C579.164 -0.162809 580.423 -1.18066 581.985 -1.18066C583.548 -1.18066 584.806 -0.173872 584.806 1.07631C584.806 2.32649 583.548 3.33328 581.985 3.33328C580.423 3.33328 579.164 2.32649 579.164 1.07631Z" fill="#DCD1FF"/>
</g>
</g>
<defs>
<linearGradient id="paint0_linear_4684_42109" x1="540" y1="-37" x2="540" y2="71" gradientUnits="userSpaceOnUse">
<stop offset="0.338542" stop-color="#0C1B5C"/>
<stop offset="0.776042" stop-color="#37499A"/>
<stop offset="1" stop-color="#925DA1"/>
</linearGradient>
<radialGradient id="paint1_radial_4684_42109" cx="0" cy="0" r="1" gradientUnits="userSpaceOnUse" gradientTransform="translate(597.408 58.9519) rotate(121.395) scale(4.48938 4.45355)">
<stop stop-color="#73C979"/>
<stop offset="0.13" stop-color="#70C476"/>
<stop offset="0.27" stop-color="#68B66E"/>
<stop offset="0.42" stop-color="#5BA060"/>
<stop offset="0.57" stop-color="#49814D"/>
<stop offset="0.73" stop-color="#325935"/>
<stop offset="0.88" stop-color="#172818"/>
<stop offset="1"/>
</radialGradient>
<radialGradient id="paint2_radial_4684_42109" cx="0" cy="0" r="1" gradientUnits="userSpaceOnUse" gradientTransform="translate(705.514 48.9276) rotate(125.435) scale(3.52559 3.7155)">
<stop stop-color="#81E3C9"/>
<stop offset="0.12" stop-color="#7EDEC4"/>
<stop offset="0.25" stop-color="#76D0B9"/>
<stop offset="0.39" stop-color="#6ABAA5"/>
<stop offset="0.53" stop-color="#589B89"/>
<stop offset="0.68" stop-color="#417265"/>
<stop offset="0.83" stop-color="#25413A"/>
<stop offset="0.98" stop-color="#040807"/>
<stop offset="1"/>
</radialGradient>
<clipPath id="clip0_4684_42109">
<rect width="1133" height="71" fill="white"/>
</clipPath>
<clipPath id="clip1_4684_42109">
<rect width="1133" height="114" fill="white" transform="translate(-81 -42)"/>
</clipPath>
</defs>
</svg>
