<svg width="421" height="590" viewBox="0 0 421 590" fill="none" xmlns="http://www.w3.org/2000/svg">
<g clip-path="url(#clip0_4684_41528)">
<path d="M48 319.327H197L194.202 313.162L183.84 309.523L154.711 264.99L131.184 140.922L118.018 148.204L100.374 227.18L89.4536 255.75L80.2086 261.633L72.0913 302.8L48 312.321V319.327Z" fill="#DBEBFF"/>
<path d="M118.02 148.204L127.893 166.194L139.446 256.942L181.038 312.396L194.204 313.162L183.842 309.523L154.575 264.272L131.185 140.922L118.02 148.204Z" fill="#F0F6FF"/>
<path d="M89.4538 255.751L86.6505 262.331L80.2088 261.634L89.4538 255.751Z" fill="#F0F6FF"/>
<path d="M194.202 313.162L181.037 312.396L118.018 283.198L88.8366 294.321L119.141 263.729L127.891 166.194L118.018 148.204L100.374 227.18L86.6503 262.33L80.2086 261.633L72.1285 302.597L72.0222 302.895L51.3406 317.039L48 312.321V319.327H197L194.202 313.162Z" fill="#B4D9FF"/>
<path d="M86.6502 262.33L82.4532 286.56L83.6607 262.006L86.6502 262.33Z" fill="url(#paint0_linear_4684_41528)"/>
<path d="M48 319.326L78.948 315.964L115.885 308.193L183.766 319.326H48Z" fill="url(#paint1_linear_4684_41528)"/>
<g opacity="0.2">
<path d="M275.278 77.1931H97.8138L89 116.21L166.201 154.386L222.412 139.28L236.261 115.794L268.561 98.5907L275.278 77.1931Z" fill="#DBEBFF"/>
<path d="M222.412 139.28L166.201 154.385L89 116.209L173.888 122.501L222.412 139.28Z" fill="#F0F6FF"/>
<path d="M236.265 115.794L238.778 100.965L268.565 98.5906L236.265 115.794Z" fill="#F0F6FF"/>
<path d="M97.8134 77.1931L175.569 93.2782L173.888 122.502L222.412 139.28L236.261 115.794L238.774 100.965L268.561 98.5907L275.277 77.1931H97.8134Z" fill="#B4D9FF"/>
<path d="M275.277 77.1931L241.01 86.5616L238.774 100.965L236.261 115.794L222.412 139.28V86.5616L215.002 84.3257L204.091 107.188L208.294 84.0483L97.8134 77.1931H275.277Z" fill="url(#paint2_linear_4684_41528)"/>
</g>
<g style="mix-blend-mode:multiply" opacity="0.2">
<path d="M275.278 77.1931H97.8138L89 116.21L166.201 154.386L222.412 139.28L236.261 115.794L268.561 98.5907L275.278 77.1931Z" fill="url(#paint3_linear_4684_41528)" fill-opacity="0.3"/>
</g>
<path d="M275.278 77.1924H97.8138L89 38.1759L166.201 0L222.412 15.097L236.261 38.5919L268.561 55.7949L275.278 77.1924Z" fill="#DBEBFF"/>
<path d="M222.412 15.097L166.201 0L89 38.1759L173.888 31.884L222.412 15.097Z" fill="#F0F6FF"/>
<path d="M236.265 38.5918L238.778 53.4202L268.565 55.7948L236.265 38.5918Z" fill="#F0F6FF"/>
<path d="M97.8134 77.1918L175.569 61.1068L173.888 31.8834L222.412 15.0964L236.261 38.5913L238.774 53.4196L268.561 55.7943L275.277 77.1918H97.8134Z" fill="#B4D9FF"/>
<path d="M275.277 77.1918L241.01 67.8233L238.774 53.4196L236.261 38.5913L222.412 15.0964V67.8233L215.002 70.0593L204.091 47.1971L208.294 70.3367L97.8134 77.1918H275.277Z" fill="url(#paint4_linear_4684_41528)"/>
<path d="M0 684.306H400.089L420.906 607.066L371.875 599.2L358.002 558.961L302.495 542.772L264.568 421.128L175.302 398L100.369 423.44L54.1169 417.89L34.6899 541.153L6.01249 577.462L14.3409 653.317L0 662.567V684.306Z" fill="#D1E1F7"/>
<path d="M82.4119 421.285L54.1168 417.89L34.6897 541.153L6.01237 577.462L14.3408 653.317L-0.00012207 662.567V684.306H84.9527L104.996 436.544L82.4119 421.285Z" fill="#AFD2F7"/>
<path d="M358.002 558.961L296.178 560.504L240.671 445.178L169.749 430.379L84.9536 684.306L243.756 683.843L243.572 669.48L243.756 671.818L340.887 674.593L364.015 607.066L358.002 558.961Z" fill="#AFD2F7"/>
<path d="M54.1155 417.89L100.367 423.44L175.301 398L264.566 421.128L240.669 445.178L169.747 430.378L104.995 436.544L54.1155 417.89Z" fill="white"/>
<path d="M358.003 558.961L296.178 560.503L302.497 542.772L358.003 558.961Z" fill="white"/>
<path d="M240.67 445.178L224.48 575.614L169.747 430.379L240.67 445.178Z" fill="url(#paint5_linear_4684_41528)"/>
<path d="M347.053 670.895C346.126 670.895 248.856 671.966 248.856 671.966L245.299 665.346L210.456 670.59L97.4198 665.243L96.2641 650.448L87.7917 649.269L105.002 436.548L51.0378 560.508L50.9928 561.061L6.01829 577.47L46.5452 613.55L75.3575 671.768L0.00579834 662.576V684.315H400.095C400.095 684.315 347.984 670.9 347.057 670.9L347.053 670.895Z" fill="url(#paint6_linear_4684_41528)"/>
<path d="M296.178 560.504L245.299 665.342L358.003 558.961L296.178 560.504Z" fill="url(#paint7_linear_4684_41528)"/>
</g>
<defs>
<linearGradient id="paint0_linear_4684_41528" x1="88.2194" y1="276.565" x2="78.501" y2="270.947" gradientUnits="userSpaceOnUse">
<stop stop-color="#BFDFFF"/>
<stop offset="0.09" stop-color="#B6DAFC"/>
<stop offset="0.34" stop-color="#A6D2F8"/>
<stop offset="0.62" stop-color="#9DCDF5"/>
<stop offset="0.99" stop-color="#9ACCF5"/>
</linearGradient>
<linearGradient id="paint1_linear_4684_41528" x1="-483.859" y1="319.326" x2="-483.328" y2="308.193" gradientUnits="userSpaceOnUse">
<stop stop-color="#BFDFFF"/>
<stop offset="0.12" stop-color="#B1D8FB"/>
<stop offset="0.31" stop-color="#A4D1F7"/>
<stop offset="0.54" stop-color="#9CCDF5"/>
<stop offset="0.99" stop-color="#9ACCF5"/>
</linearGradient>
<linearGradient id="paint2_linear_4684_41528" x1="186.55" y1="77.1931" x2="186.55" y2="139.289" gradientUnits="userSpaceOnUse">
<stop stop-color="#B4D9FF"/>
<stop offset="0.02" stop-color="#B0D7FE"/>
<stop offset="0.13" stop-color="#9FCEF9"/>
<stop offset="0.27" stop-color="#93C9F7"/>
<stop offset="0.46" stop-color="#8CC5F5"/>
<stop offset="0.99" stop-color="#8BC5F5"/>
</linearGradient>
<linearGradient id="paint3_linear_4684_41528" x1="182.139" y1="154.386" x2="182.139" y2="77.1931" gradientUnits="userSpaceOnUse">
<stop stop-color="#7CBCE3"/>
<stop offset="0.510417" stop-color="#6BADDD"/>
<stop offset="1" stop-color="#358FE2"/>
</linearGradient>
<linearGradient id="paint4_linear_4684_41528" x1="186.55" y1="77.1918" x2="186.55" y2="15.0964" gradientUnits="userSpaceOnUse">
<stop stop-color="#B4D9FF"/>
<stop offset="0.02" stop-color="#B0D7FE"/>
<stop offset="0.13" stop-color="#9FCEF9"/>
<stop offset="0.27" stop-color="#93C9F7"/>
<stop offset="0.46" stop-color="#8CC5F5"/>
<stop offset="0.99" stop-color="#8BC5F5"/>
</linearGradient>
<linearGradient id="paint5_linear_4684_41528" x1="205.211" y1="575.614" x2="205.211" y2="430.379" gradientUnits="userSpaceOnUse">
<stop stop-color="#AFD2F7"/>
<stop offset="0.67" stop-color="#9EC9F0"/>
<stop offset="0.99" stop-color="#94C5ED"/>
</linearGradient>
<linearGradient id="paint6_linear_4684_41528" x1="129.16" y1="758.875" x2="262.689" y2="527.59" gradientUnits="userSpaceOnUse">
<stop stop-color="#B9D7F7"/>
<stop offset="0.04" stop-color="#B5D5F6"/>
<stop offset="0.35" stop-color="#A3CCF1"/>
<stop offset="0.66" stop-color="#97C6EE"/>
<stop offset="0.99" stop-color="#94C5ED"/>
</linearGradient>
<linearGradient id="paint7_linear_4684_41528" x1="301.651" y1="665.342" x2="301.651" y2="558.961" gradientUnits="userSpaceOnUse">
<stop stop-color="#AFD2F7"/>
<stop offset="0.67" stop-color="#9EC9F0"/>
<stop offset="0.99" stop-color="#94C5ED"/>
</linearGradient>
<clipPath id="clip0_4684_41528">
<rect width="421" height="590" fill="white"/>
</clipPath>
</defs>
</svg>
