<svg width="900" height="281" viewBox="0 0 900 281" fill="none" xmlns="http://www.w3.org/2000/svg">
<g clip-path="url(#clip0_4684_41491)">
<path d="M0 146.133H900.123L868.927 118.507L804.763 112.269L782.479 79.2929L655.036 60.578L616.714 73.947L532.051 27.6062L472.341 68.6012L339.548 -32.9961H251.32L171.111 38.2979L98.0319 32.0596L76.6442 56.5708L24.9531 69.4892L0 146.133Z" fill="#D2E3F7"/>
<path d="M98.0317 32.06L171.111 38.2983L249.834 -33H339.548L472.337 68.5972L335.684 8.8874C335.684 8.8874 259.932 -11.9068 258.741 -11.3133C257.55 -10.7198 173.48 56.5669 173.48 56.5669L98.0231 32.06H98.0317Z" fill="white"/>
<path d="M532.05 27.6069C532.05 27.6069 540.069 56.4243 541.555 56.5716C543.041 56.7189 612.555 85.8308 612.555 85.8308L664.54 78.9991L782.478 79.298L655.035 60.5831L616.713 73.9521L532.05 27.6113V27.6069Z" fill="white"/>
<path d="M868.928 118.508L800.081 121.181L804.764 112.27L868.928 118.508Z" fill="white"/>
<path d="M258.745 -11.3125L183.587 146.135L173.489 56.572L258.745 -11.3125Z" fill="#AFD2F7"/>
<path d="M183.586 146.133L0.38916 144.929L24.9524 69.4892L76.6434 56.5708L98.0312 32.0596L173.488 56.5708L183.586 146.133Z" fill="#AFD2F7"/>
<path d="M532.049 27.6069L472.34 68.6019L411.144 146.134H423.768H516.454L541.554 56.5716L532.049 27.6069Z" fill="#AFD2F7"/>
<path d="M265.584 118.507L183.59 146.133H429.564L265.584 118.507Z" fill="#AFD2F7"/>
<path d="M516.456 146.134L612.556 85.8306L664.546 78.9988L782.48 79.2934L800.081 121.181L900.123 146.134H516.456Z" fill="#AFD2F7"/>
<path d="M173.489 56.5708L147.942 126.825L98.0314 32.0596L173.489 56.5708Z" fill="url(#paint0_linear_4684_41491)"/>
<path d="M76.6461 56.5703L58.8193 126.825L24.9551 69.4887L57.4851 71.7198L76.6461 56.5703Z" fill="url(#paint1_linear_4684_41491)"/>
<path d="M183.587 146.134L144.152 137.001H81.3229L54.8102 139.007L0 146.134H183.587Z" fill="url(#paint2_linear_4684_41491)"/>
<path d="M184.707 146.134C184.707 146.134 260.905 133.657 261.572 133.657C262.239 133.657 412.928 146.134 412.928 146.134H184.703H184.707Z" fill="url(#paint3_linear_4684_41491)"/>
<path d="M541.557 56.5703L516.456 68.6007V146.133L541.557 56.5703Z" fill="url(#paint4_linear_4684_41491)"/>
<path d="M631.569 146.133L615.232 95.0403L600.078 146.133H631.569Z" fill="url(#paint5_linear_4684_41491)"/>
<path d="M631.568 146.134L708.286 135.442L900.121 146.134H631.568Z" fill="url(#paint6_linear_4684_41491)"/>
<path opacity="0.3" d="M24.9531 202.065L76.6442 211.73L98.0319 230.064L171.111 225.398L249.834 278.722L334.965 281.343L472.341 202.732L532.051 233.395L616.714 198.734L655.036 208.732L782.479 194.735L804.759 170.072L868.927 165.406L900.123 144.742H0L24.9531 202.065Z" fill="url(#paint7_linear_4684_41491)" fill-opacity="0.5"/>
<g opacity="0.17">
<path d="M98.0317 230.064L171.111 225.398L249.834 278.722H339.548L472.337 202.737L335.684 247.397C335.684 247.397 259.932 262.949 258.741 262.507C257.554 262.061 173.48 211.739 173.48 211.739L98.0231 230.068L98.0317 230.064Z" fill="#F0F6FF"/>
<path d="M532.05 233.395C532.05 233.395 540.069 211.843 541.555 211.73C543.041 211.618 612.555 189.844 612.555 189.844L664.54 194.956L782.478 194.735L655.035 208.732L616.713 198.734L532.05 233.395Z" fill="#F0F6FF"/>
<path d="M868.928 165.406L800.081 163.404L804.764 170.071L868.928 165.406Z" fill="#F0F6FF"/>
<path d="M258.745 262.503L183.587 144.742L173.489 211.73L258.745 262.503Z" fill="#B4D9FF"/>
<path d="M183.586 144.742L0.38916 145.643L24.9524 202.065L76.6434 211.73L98.0312 230.064L173.488 211.73L183.586 144.742Z" fill="#B4D9FF"/>
<path d="M532.049 233.395L472.34 202.732L411.144 144.742H423.768H516.454L541.554 211.73L532.049 233.395Z" fill="#B4D9FF"/>
<path d="M265.584 165.406L183.59 144.742H429.564L265.584 165.406Z" fill="#B4D9FF"/>
<path d="M516.456 144.742L612.556 189.848L664.546 194.956L782.48 194.735L800.081 163.405L900.123 144.742H516.456Z" fill="#B4D9FF"/>
<path d="M173.489 211.73L147.942 159.185L98.0314 230.063L173.489 211.73Z" fill="url(#paint8_linear_4684_41491)"/>
<path d="M76.6461 211.73L58.8193 159.185L24.9551 202.065L57.4851 200.401L76.6461 211.73Z" fill="url(#paint9_linear_4684_41491)"/>
<path d="M183.587 144.742L144.152 151.574H81.3229L54.8102 150.075L0 144.742H183.587Z" fill="url(#paint10_linear_4684_41491)"/>
<path d="M184.707 144.742C184.707 144.742 260.905 154.074 261.572 154.074C262.239 154.074 412.928 144.742 412.928 144.742H184.703H184.707Z" fill="url(#paint11_linear_4684_41491)"/>
<path d="M541.557 211.73L516.456 202.732V144.742L541.557 211.73Z" fill="url(#paint12_linear_4684_41491)"/>
<path d="M631.569 144.742L615.232 182.96L600.078 144.742H631.569Z" fill="url(#paint13_linear_4684_41491)"/>
<path d="M631.568 144.742L708.286 152.744L900.121 144.742H631.568Z" fill="url(#paint14_linear_4684_41491)"/>
</g>
</g>
<defs>
<linearGradient id="paint0_linear_4684_41491" x1="98.0314" y1="79.4445" x2="173.489" y2="79.4445" gradientUnits="userSpaceOnUse">
<stop stop-color="#AFD2F7"/>
<stop offset="0.02" stop-color="#ABD0F6"/>
<stop offset="0.13" stop-color="#9AC7F1"/>
<stop offset="0.27" stop-color="#8EC2EF"/>
<stop offset="0.46" stop-color="#87BEED"/>
<stop offset="0.99" stop-color="#86BEED"/>
</linearGradient>
<linearGradient id="paint1_linear_4684_41491" x1="24.9551" y1="91.6953" x2="76.6461" y2="91.6953" gradientUnits="userSpaceOnUse">
<stop stop-color="#AFD2F7"/>
<stop offset="0.02" stop-color="#ABD0F6"/>
<stop offset="0.13" stop-color="#9AC7F1"/>
<stop offset="0.27" stop-color="#8EC2EF"/>
<stop offset="0.46" stop-color="#87BEED"/>
<stop offset="0.99" stop-color="#86BEED"/>
</linearGradient>
<linearGradient id="paint2_linear_4684_41491" x1="91.7936" y1="146.134" x2="91.7936" y2="137.001" gradientUnits="userSpaceOnUse">
<stop stop-color="#AFD2F7"/>
<stop offset="0.02" stop-color="#ABD0F6"/>
<stop offset="0.13" stop-color="#9AC7F1"/>
<stop offset="0.27" stop-color="#8EC2EF"/>
<stop offset="0.46" stop-color="#87BEED"/>
<stop offset="0.99" stop-color="#86BEED"/>
</linearGradient>
<linearGradient id="paint3_linear_4684_41491" x1="298.815" y1="146.134" x2="298.815" y2="133.657" gradientUnits="userSpaceOnUse">
<stop stop-color="#AFD2F7"/>
<stop offset="0.02" stop-color="#ABD0F6"/>
<stop offset="0.13" stop-color="#9AC7F1"/>
<stop offset="0.27" stop-color="#8EC2EF"/>
<stop offset="0.46" stop-color="#87BEED"/>
<stop offset="0.99" stop-color="#86BEED"/>
</linearGradient>
<linearGradient id="paint4_linear_4684_41491" x1="516.456" y1="101.352" x2="541.557" y2="101.352" gradientUnits="userSpaceOnUse">
<stop stop-color="#AFD2F7"/>
<stop offset="0.02" stop-color="#ABD0F6"/>
<stop offset="0.13" stop-color="#9AC7F1"/>
<stop offset="0.27" stop-color="#8EC2EF"/>
<stop offset="0.46" stop-color="#87BEED"/>
<stop offset="0.99" stop-color="#86BEED"/>
</linearGradient>
<linearGradient id="paint5_linear_4684_41491" x1="615.826" y1="146.133" x2="615.826" y2="95.0403" gradientUnits="userSpaceOnUse">
<stop stop-color="#AFD2F7"/>
<stop offset="0.02" stop-color="#ABD0F6"/>
<stop offset="0.13" stop-color="#9AC7F1"/>
<stop offset="0.27" stop-color="#8EC2EF"/>
<stop offset="0.46" stop-color="#87BEED"/>
<stop offset="0.99" stop-color="#86BEED"/>
</linearGradient>
<linearGradient id="paint6_linear_4684_41491" x1="765.842" y1="146.134" x2="765.842" y2="135.442" gradientUnits="userSpaceOnUse">
<stop stop-color="#AFD2F7"/>
<stop offset="0.02" stop-color="#ABD0F6"/>
<stop offset="0.13" stop-color="#9AC7F1"/>
<stop offset="0.27" stop-color="#8EC2EF"/>
<stop offset="0.46" stop-color="#87BEED"/>
<stop offset="0.99" stop-color="#86BEED"/>
</linearGradient>
<linearGradient id="paint7_linear_4684_41491" x1="450.061" y1="281.343" x2="450.061" y2="144.742" gradientUnits="userSpaceOnUse">
<stop stop-color="#7CBCE3"/>
<stop offset="0.32" stop-color="#6BADDD"/>
<stop offset="1" stop-color="#4C93D4"/>
</linearGradient>
<linearGradient id="paint8_linear_4684_41491" x1="98.0314" y1="194.622" x2="173.489" y2="194.622" gradientUnits="userSpaceOnUse">
<stop stop-color="#B4D9FF"/>
<stop offset="0.02" stop-color="#B0D7FE"/>
<stop offset="0.13" stop-color="#9FCEF9"/>
<stop offset="0.27" stop-color="#93C9F7"/>
<stop offset="0.46" stop-color="#8CC5F5"/>
<stop offset="0.99" stop-color="#8BC5F5"/>
</linearGradient>
<linearGradient id="paint9_linear_4684_41491" x1="24.9551" y1="185.46" x2="76.6461" y2="185.46" gradientUnits="userSpaceOnUse">
<stop stop-color="#B4D9FF"/>
<stop offset="0.02" stop-color="#B0D7FE"/>
<stop offset="0.13" stop-color="#9FCEF9"/>
<stop offset="0.27" stop-color="#93C9F7"/>
<stop offset="0.46" stop-color="#8CC5F5"/>
<stop offset="0.99" stop-color="#8BC5F5"/>
</linearGradient>
<linearGradient id="paint10_linear_4684_41491" x1="91.7936" y1="144.742" x2="91.7936" y2="151.574" gradientUnits="userSpaceOnUse">
<stop stop-color="#B4D9FF"/>
<stop offset="0.02" stop-color="#B0D7FE"/>
<stop offset="0.13" stop-color="#9FCEF9"/>
<stop offset="0.27" stop-color="#93C9F7"/>
<stop offset="0.46" stop-color="#8CC5F5"/>
<stop offset="0.99" stop-color="#8BC5F5"/>
</linearGradient>
<linearGradient id="paint11_linear_4684_41491" x1="298.815" y1="144.742" x2="298.815" y2="154.074" gradientUnits="userSpaceOnUse">
<stop stop-color="#B4D9FF"/>
<stop offset="0.02" stop-color="#B0D7FE"/>
<stop offset="0.13" stop-color="#9FCEF9"/>
<stop offset="0.27" stop-color="#93C9F7"/>
<stop offset="0.46" stop-color="#8CC5F5"/>
<stop offset="0.99" stop-color="#8BC5F5"/>
</linearGradient>
<linearGradient id="paint12_linear_4684_41491" x1="516.456" y1="178.238" x2="541.557" y2="178.238" gradientUnits="userSpaceOnUse">
<stop stop-color="#B4D9FF"/>
<stop offset="0.02" stop-color="#B0D7FE"/>
<stop offset="0.13" stop-color="#9FCEF9"/>
<stop offset="0.27" stop-color="#93C9F7"/>
<stop offset="0.46" stop-color="#8CC5F5"/>
<stop offset="0.99" stop-color="#8BC5F5"/>
</linearGradient>
<linearGradient id="paint13_linear_4684_41491" x1="615.826" y1="144.742" x2="615.826" y2="182.96" gradientUnits="userSpaceOnUse">
<stop stop-color="#B4D9FF"/>
<stop offset="0.02" stop-color="#B0D7FE"/>
<stop offset="0.13" stop-color="#9FCEF9"/>
<stop offset="0.27" stop-color="#93C9F7"/>
<stop offset="0.46" stop-color="#8CC5F5"/>
<stop offset="0.99" stop-color="#8BC5F5"/>
</linearGradient>
<linearGradient id="paint14_linear_4684_41491" x1="765.842" y1="144.742" x2="765.842" y2="152.744" gradientUnits="userSpaceOnUse">
<stop stop-color="#B4D9FF"/>
<stop offset="0.02" stop-color="#B0D7FE"/>
<stop offset="0.13" stop-color="#9FCEF9"/>
<stop offset="0.27" stop-color="#93C9F7"/>
<stop offset="0.46" stop-color="#8CC5F5"/>
<stop offset="0.99" stop-color="#8BC5F5"/>
</linearGradient>
<clipPath id="clip0_4684_41491">
<rect width="900" height="281" fill="white"/>
</clipPath>
</defs>
</svg>
