<svg width="842" height="478" viewBox="0 0 842 478" fill="none" xmlns="http://www.w3.org/2000/svg">
<g clip-path="url(#clip0_4684_41564)">
<g opacity="0.2">
<path d="M0.00482178 477.949H165.06L172.753 516.67L158.197 520.793L138.973 499.369L127.71 510.355L97.776 510.628L98.0483 565.832L76.9052 570.499L56.5792 557.318L30.2152 500.194L17.5822 497.446L11.5401 485.361L0.00482178 477.949Z" fill="#DBEBFF"/>
<path d="M165.613 513.274L158.197 520.793L138.973 499.369L116.315 488.795L94.4273 491.493L71.3652 486.71L70.91 486.723L76.9733 558.624L56.5792 557.318L30.2152 500.194L26.5772 495.714L17.5822 497.446L11.5401 485.361L0.00482178 477.949H165.06L155.312 484.54L165.613 513.274Z" fill="#B4D9FF"/>
<path d="M165.613 513.274L146.252 486.051C145.84 486.051 114.259 480.694 114.259 480.694L93.3885 485.774L70.3179 481.656L70.9136 486.723L75.2665 538.345L62.6249 481.656H23.896L25.9554 495.714L17.5774 483.03V497.45L11.5353 485.366L0 477.949H165.055L155.307 484.54L165.604 513.274H165.613Z" fill="url(#paint0_linear_4684_41564)"/>
</g>
<path d="M1.25098 483.763H166.311L173.999 445.038L159.443 440.919L140.219 462.343L128.96 451.357L99.0221 451.08L99.2987 395.88L78.1514 391.208L57.8253 404.394L31.4614 461.517L18.8283 464.262L12.7863 476.346L1.25098 483.763Z" fill="#DBEBFF"/>
<path d="M159.441 440.92L166.858 448.438L173.998 445.039L159.441 440.92Z" fill="#F0F6FF"/>
<path d="M128.96 451.357L96.6905 457.948L99.0223 451.08L128.96 451.357Z" fill="#F0F6FF"/>
<path d="M99.299 395.88L78.1517 391.208L57.8256 404.394L78.2198 403.088L99.299 395.88Z" fill="#F0F6FF"/>
<path d="M18.8285 464.262L27.8235 465.994C27.9767 465.841 31.4615 461.513 31.4615 461.513L18.8285 464.258V464.262Z" fill="#F0F6FF"/>
<path d="M166.859 448.438L159.443 440.919L140.219 462.343L117.561 472.917L95.6735 470.219L72.6114 475.002L72.1561 474.985L78.2195 403.088L57.8253 404.395L31.4614 461.518L27.8234 465.998L18.8283 464.262L12.7863 476.347L1.25098 483.763H166.311L156.558 477.172L166.859 448.438Z" fill="#B4D9FF"/>
<path d="M166.859 448.438L147.499 475.662C147.087 475.662 115.506 481.019 115.506 481.019L94.6352 475.938L71.5647 480.057L72.1604 474.989L76.5132 423.368L63.8717 480.057H25.147L27.2064 465.998L18.8283 478.683V464.262L12.7863 476.347L1.25098 483.763H166.306L156.558 477.172L166.855 448.438H166.859Z" fill="url(#paint1_linear_4684_41564)"/>
<g opacity="0.2">
<path d="M260.47 447.915H317.658L323.933 452.796L321.145 462.909L309.987 466.745L305.974 473.369L288.539 485.748L263.608 478.602L252.972 455.933L260.47 447.915Z" fill="#DBEBFF"/>
<path d="M263.607 478.602L284.007 474.939L303.186 472.497L307.368 465.697L321.145 462.909L309.986 466.745L305.974 473.369L288.538 485.748L263.607 478.602Z" fill="#F0F6FF"/>
<path d="M263.608 478.602L261.573 454.946L280.867 450.995L303.187 472.497L307.368 465.697L321.145 462.909L320.389 454.366L323.933 452.796L317.658 447.915H260.47L252.972 455.933L263.608 478.602Z" fill="#B4D9FF"/>
<path d="M261.573 454.946L252.972 455.933L260.47 447.915H317.658L286.882 453.318L280.867 450.995L261.573 454.946Z" fill="url(#paint2_linear_4684_41564)"/>
<path d="M307.369 465.697L297.576 459.779L311.561 464.851L307.369 465.697Z" fill="url(#paint3_linear_4684_41564)"/>
<path d="M320.388 454.366L317.658 447.915L323.932 452.796L320.388 454.366Z" fill="url(#paint4_linear_4684_41564)"/>
</g>
<g style="mix-blend-mode:multiply" opacity="0.2">
<path d="M260.499 448H317.687L323.961 452.88L321.173 462.994L310.015 466.83L306.003 473.453L288.567 485.832L263.636 478.687L253 456.017L260.499 448Z" fill="url(#paint5_linear_4684_41564)" fill-opacity="0.3"/>
</g>
<path d="M260.47 449.086H317.658L323.933 444.202L321.145 434.092L309.987 430.256L305.974 423.629L288.539 411.25L263.608 418.4L252.972 441.065L260.47 449.086Z" fill="#DBEBFF"/>
<path d="M263.607 418.399L284.007 422.059L303.186 424.501L307.368 431.301L321.145 434.092L309.986 430.256L305.974 423.629L288.538 411.25L263.607 418.399Z" fill="#F0F6FF"/>
<path d="M263.608 418.4L261.573 442.053L280.867 446.004L303.187 424.501L307.368 431.301L321.145 434.093L320.389 442.636L323.933 444.203L317.658 449.087H260.47L252.972 441.066L263.608 418.4Z" fill="#B4D9FF"/>
<path d="M261.573 442.053L252.972 441.066L260.47 449.087H317.658L286.882 443.681L280.867 446.004L261.573 442.053Z" fill="url(#paint6_linear_4684_41564)"/>
<path d="M307.369 431.301L297.576 437.219L311.561 432.151L307.369 431.301Z" fill="url(#paint7_linear_4684_41564)"/>
<path d="M320.388 442.635L317.658 449.086L323.932 444.202L320.388 442.635Z" fill="url(#paint8_linear_4684_41564)"/>
<g opacity="0.25">
<path d="M392 262.158H550.947L539.771 318.662L517.419 324.043L486.376 375.162L438.567 359.019L427.39 301.896L397.586 281.406L392 262.158Z" fill="#DBEBFF"/>
<path d="M438.566 359.02H478.923L486.375 375.162L438.566 359.02Z" fill="#F0F6FF"/>
<path d="M517.418 324.044L497.965 317.863L532.322 312.454L539.77 318.663L517.418 324.044Z" fill="#F0F6FF"/>
<path d="M427.39 301.897L432.746 292.273L397.586 281.407L427.39 301.897Z" fill="#F0F6FF"/>
<path d="M497.967 317.863L490.411 268.368L532.324 312.453L497.967 317.863Z" fill="#B4D9FF"/>
<path d="M491.713 276.904L450.985 267.024L478.924 359.019H438.567L427.39 301.896L432.746 292.272L397.586 281.406L392 262.158H527.666L491.713 276.904Z" fill="#B4D9FF"/>
<path d="M397.586 281.406L403.486 262.158H392L397.586 281.406Z" fill="url(#paint9_linear_4684_41564)"/>
<path d="M532.323 312.453L491.714 276.904L496.616 274.894L532.323 312.453Z" fill="url(#paint10_linear_4684_41564)"/>
<path d="M454.655 312.258L457.19 343.496L435.461 291.652L450.985 267.024L478.923 359.019L454.655 312.258Z" fill="url(#paint11_linear_4684_41564)"/>
</g>
<g style="mix-blend-mode:multiply">
<path d="M392 262H550.947L539.771 318.504L517.419 323.885L486.376 375.004L438.567 358.861L427.39 301.738L397.586 281.248L392 262Z" fill="url(#paint12_linear_4684_41564)" fill-opacity="0.1"/>
</g>
<path d="M392 262.004H550.947L539.771 205.504L517.419 200.123L486.376 149L438.567 165.143L427.39 222.266L397.586 242.756L392 262.004Z" fill="#DBEBFF"/>
<path d="M438.566 165.143H478.923L486.375 149L438.566 165.143Z" fill="#F0F6FF"/>
<path d="M517.418 200.123L497.965 206.3L532.322 211.713L539.77 205.504L517.418 200.123Z" fill="#F0F6FF"/>
<path d="M427.39 222.267L432.746 231.89L397.586 242.757L427.39 222.267Z" fill="#F0F6FF"/>
<path d="M497.967 206.301L490.411 255.795L532.324 211.714L497.967 206.301Z" fill="#B4D9FF"/>
<path d="M491.713 247.258L450.985 257.141L478.924 165.143H438.567L427.39 222.266L432.746 231.89L397.586 242.756L392 262.004H527.666L491.713 247.258Z" fill="#B4D9FF"/>
<path d="M397.586 242.757L403.486 262.004H392L397.586 242.757Z" fill="url(#paint13_linear_4684_41564)"/>
<path d="M532.323 211.714L491.714 247.259L496.616 249.269L532.323 211.714Z" fill="url(#paint14_linear_4684_41564)"/>
<path d="M454.655 211.904L457.19 180.666L435.461 232.513L450.985 257.141L478.923 165.143L454.655 211.904Z" fill="url(#paint15_linear_4684_41564)"/>
<g opacity="0.25">
<path d="M508.587 59.8208H703.268L713.135 111.557L670.372 119.334L651.231 99.296L644.355 103.785L621.627 102.287L616.541 89.5774L605.477 85.8413L588.731 109.167L549.456 108.27L535.2 80.7557L502.008 78.9618L508.587 59.8208Z" fill="#DBEBFF"/>
<path d="M549.455 108.27L579.856 100.193L588.73 109.167L549.455 108.27Z" fill="#F0F6FF"/>
<path d="M621.627 102.288L643.907 96.906L651.231 99.2966L644.356 103.786L621.627 102.288Z" fill="#F0F6FF"/>
<path d="M670.372 119.334L667.081 107.969L707.901 105.727L713.135 111.557L670.372 119.334Z" fill="#F0F6FF"/>
<path d="M502.008 78.9626L534.451 75.675L535.2 80.7566L502.008 78.9626Z" fill="#F0F6FF"/>
<path d="M703.268 59.8208L655.488 73.5558L640.864 65.503L643.907 96.9054L621.627 102.287L616.541 89.5774L615.96 87.2308L605.477 85.8413L602.638 83.1503L592.395 66.0076L583.196 67.1488L533.722 64.6381L571.103 66.5362L579.857 100.193L549.456 108.27L534.451 75.6742L502.008 78.9618L508.587 59.8208L520.272 62.0633L508.983 59.8208H703.268Z" fill="#B4D9FF"/>
<path d="M651.23 99.2966L652.727 65.3555L667.079 107.97L670.371 119.335L651.23 99.2966Z" fill="#B4D9FF"/>
<path d="M707.901 105.727L697.586 61.4543L667.081 107.969L707.901 105.727Z" fill="#B4D9FF"/>
<path d="M538.856 63.697L534.451 75.6741C534.451 75.6741 501.627 79.0018 502.003 78.9617C502.38 78.9217 532.505 70.8128 532.505 70.8128L538.852 63.697H538.856Z" fill="url(#paint16_linear_4684_41564)"/>
<path d="M571.099 66.5364L579.853 100.193L554.417 65.6875L508.583 59.821H604.079L569.886 63.413L571.099 66.5364Z" fill="url(#paint17_linear_4684_41564)"/>
<path d="M639.863 63.413L604.08 59.821H703.265L639.863 63.413Z" fill="url(#paint18_linear_4684_41564)"/>
<path d="M621.627 102.287L636.431 91.0227L639.767 62.8118L640.864 65.5027L643.907 96.9051L621.627 102.287Z" fill="url(#paint19_linear_4684_41564)"/>
<path d="M605.477 85.8418L605.753 83.5993L602.638 83.1508L592.395 66.0081L606.374 78.5898L615.96 87.2313L605.477 85.8418Z" fill="url(#paint20_linear_4684_41564)"/>
<path d="M652.44 71.8789L654.747 75.8993L664.225 99.4852L655.488 73.5567L652.44 71.8789Z" fill="url(#paint21_linear_4684_41564)"/>
</g>
<g style="mix-blend-mode:multiply" opacity="0.2">
<path d="M508.579 60H703.26L713.127 111.737L670.364 119.513L651.223 99.4752L644.348 103.964L621.619 102.467L616.533 89.7566L605.469 86.0205L588.723 109.346L549.448 108.449L535.192 80.9349L502 79.141L508.579 60Z" fill="url(#paint22_linear_4684_41564)" fill-opacity="0.3"/>
</g>
<path d="M508.587 59.5132H703.268L713.135 7.77653L670.372 0L651.231 20.038L644.355 15.553L621.627 17.0467L616.541 29.7566L605.477 33.4967L588.731 10.1711L549.456 11.0681L535.2 38.5782L502.008 40.3722L508.587 59.5132Z" fill="#DBEBFF"/>
<path d="M549.455 11.0671L579.856 19.14L588.73 10.1702L549.455 11.0671Z" fill="#F0F6FF"/>
<path d="M621.627 17.0469L643.907 22.4287L651.231 20.0381L644.356 15.5532L621.627 17.0469Z" fill="#F0F6FF"/>
<path d="M670.372 0L667.081 11.3644L707.901 13.6069L713.135 7.77653L670.372 0Z" fill="#F0F6FF"/>
<path d="M502.008 40.3713L534.451 43.663L535.2 38.5774L502.008 40.3713Z" fill="#F0F6FF"/>
<path d="M703.268 59.5129L655.488 45.7819L640.864 53.8307L643.907 22.4283L621.627 17.0464L616.541 29.7563L615.96 32.1029L605.477 33.4964L602.638 36.1874L592.395 53.3302L583.196 52.1849L533.722 54.6956L571.103 52.7976L579.857 19.1407L549.456 11.0679L534.451 43.6636L502.008 40.372L508.587 59.5129L520.272 57.2745L508.983 59.5129H703.268Z" fill="#B4D9FF"/>
<path d="M651.23 20.038L652.727 53.9791L667.079 11.3644L670.371 0L651.23 20.038Z" fill="#B4D9FF"/>
<path d="M707.901 13.6075L697.586 57.8799L667.081 11.365L707.901 13.6075Z" fill="#B4D9FF"/>
<path d="M538.856 55.6367L534.451 43.6595C534.451 43.6595 501.627 40.3319 502.003 40.3719C502.38 40.412 532.505 48.5209 532.505 48.5209L538.852 55.6367H538.856Z" fill="url(#paint23_linear_4684_41564)"/>
<path d="M571.099 52.7982L579.853 19.1414L554.417 53.6471L508.583 59.5136H604.079L569.886 55.9256L571.099 52.7982Z" fill="url(#paint24_linear_4684_41564)"/>
<path d="M639.863 55.925L604.08 59.513H703.265L639.863 55.925Z" fill="url(#paint25_linear_4684_41564)"/>
<path d="M621.627 17.0461L636.431 28.3105L639.767 56.5214L640.864 53.8304L643.907 22.428L621.627 17.0461Z" fill="url(#paint26_linear_4684_41564)"/>
<path d="M605.477 33.4968L605.753 35.7353L602.638 36.1877L592.395 53.3305L606.374 40.7487L615.96 32.1033L605.477 33.4968Z" fill="url(#paint27_linear_4684_41564)"/>
<path d="M652.44 47.4598L654.747 43.4395L664.225 19.8496L655.488 45.782L652.44 47.4598Z" fill="url(#paint28_linear_4684_41564)"/>
<path d="M219 522.66H837.924L841.943 441.61L778.311 416.827L687.214 256.065L604.821 242L585.4 293.576L511.716 317.688L498.988 370.607L468.849 385.344L431.338 333.768L391.146 354.756L348.945 478.45L231.727 490.505L219 522.66Z" fill="#DBEBFF"/>
<path d="M433.346 351.519L402.534 522.66H337.783L348.943 478.45L391.144 354.757L430.217 345.153L433.346 351.519Z" fill="#B4D9FF"/>
<path d="M812.47 448.086L811.722 450.778L791.705 522.66H519.082C519.082 522.66 676.159 363.465 676.83 361.456C677.502 359.447 812.47 448.086 812.47 448.086Z" fill="#BFDFFF"/>
<path d="M391.146 354.757L420.952 356.543L433.347 351.519L431.338 333.769L391.146 354.757Z" fill="#F0F6FF"/>
<path d="M511.715 317.688L592.093 313.56L604.82 242L676.828 359.217L767.924 426.873L841.941 441.61L777.185 414.839L687.213 256.065L604.82 242L585.399 293.576L511.715 317.688Z" fill="#F0F6FF"/>
<path d="M767.924 426.873L812.468 448.086L839.752 441.173L767.924 426.873Z" fill="#F0F6FF"/>
<path d="M592.092 313.56L552.572 385.12L533.816 460.141L519.085 522.66H452.1L468.846 385.343L498.986 370.607L511.714 317.687L592.092 313.56Z" fill="#B4D9FF"/>
<path d="M420.955 356.542L399.41 378.644L412.328 356.542H420.955Z" fill="url(#paint29_linear_4684_41564)"/>
<path d="M382.437 522.66L433.347 351.519L402.535 522.66H382.437Z" fill="url(#paint30_linear_4684_41564)"/>
<path d="M791.705 522.66L812.47 448.086L770.045 500.781L672.697 512.837L743.247 441.545C743.847 440.939 743.094 439.967 742.357 440.404L631.167 506.585L519.082 522.66H791.705Z" fill="url(#paint31_linear_4684_41564)"/>
<path d="M498.989 370.607L498.29 373.064L474.658 456.396C474.478 457.035 473.528 456.86 473.588 456.199L480.233 379.78L498.989 370.607Z" fill="url(#paint32_linear_4684_41564)"/>
<path d="M502.339 522.66L552.572 385.12L519.085 522.66H502.339Z" fill="url(#paint33_linear_4684_41564)"/>
<path d="M486.541 522.659L515.572 446.322C515.938 445.355 517.385 445.77 517.188 446.78L502.342 522.659H486.546H486.541Z" fill="url(#paint34_linear_4684_41564)"/>
<path d="M585.399 293.576L592.093 313.56L604.82 242L585.399 293.576Z" fill="#B4D9FF"/>
</g>
<defs>
<linearGradient id="paint0_linear_4684_41564" x1="82.8063" y1="477.949" x2="82.8063" y2="538.345" gradientUnits="userSpaceOnUse">
<stop stop-color="#BFDFFF"/>
<stop offset="0.12" stop-color="#AFD6FA"/>
<stop offset="0.27" stop-color="#A2D0F7"/>
<stop offset="0.47" stop-color="#9BCDF5"/>
<stop offset="0.99" stop-color="#9ACCF5"/>
</linearGradient>
<linearGradient id="paint1_linear_4684_41564" x1="84.0531" y1="483.763" x2="84.0531" y2="423.368" gradientUnits="userSpaceOnUse">
<stop stop-color="#BFDFFF"/>
<stop offset="0.12" stop-color="#AFD6FA"/>
<stop offset="0.27" stop-color="#A2D0F7"/>
<stop offset="0.47" stop-color="#9BCDF5"/>
<stop offset="0.99" stop-color="#9ACCF5"/>
</linearGradient>
<linearGradient id="paint2_linear_4684_41564" x1="285.315" y1="447.915" x2="285.315" y2="455.936" gradientUnits="userSpaceOnUse">
<stop stop-color="#BFDFFF"/>
<stop offset="0.06" stop-color="#B9DCFD"/>
<stop offset="0.35" stop-color="#A8D3F8"/>
<stop offset="0.65" stop-color="#9DCDF5"/>
<stop offset="0.99" stop-color="#9ACCF5"/>
</linearGradient>
<linearGradient id="paint3_linear_4684_41564" x1="304.57" y1="459.783" x2="304.57" y2="465.701" gradientUnits="userSpaceOnUse">
<stop stop-color="#B4D9FF"/>
<stop offset="0.02" stop-color="#B0D7FE"/>
<stop offset="0.13" stop-color="#9FCEF9"/>
<stop offset="0.27" stop-color="#93C9F7"/>
<stop offset="0.46" stop-color="#8CC5F5"/>
<stop offset="0.99" stop-color="#8BC5F5"/>
</linearGradient>
<linearGradient id="paint4_linear_4684_41564" x1="317.658" y1="451.139" x2="323.932" y2="451.139" gradientUnits="userSpaceOnUse">
<stop stop-color="#B4D9FF"/>
<stop offset="0.02" stop-color="#B0D7FE"/>
<stop offset="0.13" stop-color="#9FCEF9"/>
<stop offset="0.27" stop-color="#93C9F7"/>
<stop offset="0.46" stop-color="#8CC5F5"/>
<stop offset="0.99" stop-color="#8BC5F5"/>
</linearGradient>
<linearGradient id="paint5_linear_4684_41564" x1="288.48" y1="485.832" x2="288.48" y2="448" gradientUnits="userSpaceOnUse">
<stop stop-color="#7CBCE3"/>
<stop offset="0.510417" stop-color="#6BADDD"/>
<stop offset="1" stop-color="#358FE2"/>
</linearGradient>
<linearGradient id="paint6_linear_4684_41564" x1="285.315" y1="449.087" x2="285.315" y2="441.066" gradientUnits="userSpaceOnUse">
<stop stop-color="#BFDFFF"/>
<stop offset="0.06" stop-color="#B9DCFD"/>
<stop offset="0.35" stop-color="#A8D3F8"/>
<stop offset="0.65" stop-color="#9DCDF5"/>
<stop offset="0.99" stop-color="#9ACCF5"/>
</linearGradient>
<linearGradient id="paint7_linear_4684_41564" x1="304.57" y1="437.219" x2="304.57" y2="431.301" gradientUnits="userSpaceOnUse">
<stop stop-color="#B4D9FF"/>
<stop offset="0.02" stop-color="#B0D7FE"/>
<stop offset="0.13" stop-color="#9FCEF9"/>
<stop offset="0.27" stop-color="#93C9F7"/>
<stop offset="0.46" stop-color="#8CC5F5"/>
<stop offset="0.99" stop-color="#8BC5F5"/>
</linearGradient>
<linearGradient id="paint8_linear_4684_41564" x1="317.658" y1="445.859" x2="323.932" y2="445.859" gradientUnits="userSpaceOnUse">
<stop stop-color="#B4D9FF"/>
<stop offset="0.02" stop-color="#B0D7FE"/>
<stop offset="0.13" stop-color="#9FCEF9"/>
<stop offset="0.27" stop-color="#93C9F7"/>
<stop offset="0.46" stop-color="#8CC5F5"/>
<stop offset="0.99" stop-color="#8BC5F5"/>
</linearGradient>
<linearGradient id="paint9_linear_4684_41564" x1="392" y1="271.786" x2="403.486" y2="271.786" gradientUnits="userSpaceOnUse">
<stop stop-color="#BFDFFF"/>
<stop offset="0.61" stop-color="#A5D1F7"/>
<stop offset="0.99" stop-color="#9ACCF5"/>
</linearGradient>
<linearGradient id="paint10_linear_4684_41564" x1="490.143" y1="279.631" x2="535.989" y2="306.099" gradientUnits="userSpaceOnUse">
<stop stop-color="#BFDFFF"/>
<stop offset="0.3" stop-color="#ADD6FA"/>
<stop offset="0.68" stop-color="#9FCEF6"/>
<stop offset="0.99" stop-color="#9ACCF5"/>
</linearGradient>
<linearGradient id="paint11_linear_4684_41564" x1="435.461" y1="313.021" x2="478.923" y2="313.021" gradientUnits="userSpaceOnUse">
<stop stop-color="#BFDFFF"/>
<stop offset="0.09" stop-color="#B7DBFC"/>
<stop offset="0.34" stop-color="#A6D2F8"/>
<stop offset="0.63" stop-color="#9DCDF5"/>
<stop offset="0.99" stop-color="#9ACCF5"/>
</linearGradient>
<linearGradient id="paint12_linear_4684_41564" x1="471.474" y1="375.004" x2="471.474" y2="262" gradientUnits="userSpaceOnUse">
<stop stop-color="#7CBCE3"/>
<stop offset="0.510417" stop-color="#6BADDD"/>
<stop offset="1" stop-color="#358FE2"/>
</linearGradient>
<linearGradient id="paint13_linear_4684_41564" x1="392" y1="252.381" x2="403.486" y2="252.381" gradientUnits="userSpaceOnUse">
<stop stop-color="#BFDFFF"/>
<stop offset="0.61" stop-color="#A5D1F7"/>
<stop offset="0.99" stop-color="#9ACCF5"/>
</linearGradient>
<linearGradient id="paint14_linear_4684_41564" x1="490.143" y1="244.537" x2="535.989" y2="218.068" gradientUnits="userSpaceOnUse">
<stop stop-color="#BFDFFF"/>
<stop offset="0.3" stop-color="#ADD6FA"/>
<stop offset="0.68" stop-color="#9FCEF6"/>
<stop offset="0.99" stop-color="#9ACCF5"/>
</linearGradient>
<linearGradient id="paint15_linear_4684_41564" x1="-236.345" y1="211.144" x2="-235.985" y2="211.144" gradientUnits="userSpaceOnUse">
<stop stop-color="#BFDFFF"/>
<stop offset="0.09" stop-color="#B7DBFC"/>
<stop offset="0.34" stop-color="#A6D2F8"/>
<stop offset="0.63" stop-color="#9DCDF5"/>
<stop offset="0.99" stop-color="#9ACCF5"/>
</linearGradient>
<linearGradient id="paint16_linear_4684_41564" x1="519.126" y1="69.0749" x2="525.817" y2="80.6596" gradientUnits="userSpaceOnUse">
<stop stop-color="#BEDEFE"/>
<stop offset="0.34" stop-color="#AAD4F9"/>
<stop offset="0.67" stop-color="#9ECEF6"/>
<stop offset="0.99" stop-color="#9ACCF5"/>
</linearGradient>
<linearGradient id="paint17_linear_4684_41564" x1="556.331" y1="59.821" x2="556.331" y2="100.193" gradientUnits="userSpaceOnUse">
<stop stop-color="#B4D9FF"/>
<stop offset="0.02" stop-color="#B0D7FE"/>
<stop offset="0.13" stop-color="#9FCEF9"/>
<stop offset="0.27" stop-color="#93C9F7"/>
<stop offset="0.46" stop-color="#8CC5F5"/>
<stop offset="0.99" stop-color="#8BC5F5"/>
</linearGradient>
<linearGradient id="paint18_linear_4684_41564" x1="604.08" y1="61.615" x2="703.265" y2="61.615" gradientUnits="userSpaceOnUse">
<stop stop-color="#B4D9FF"/>
<stop offset="0.02" stop-color="#B0D7FE"/>
<stop offset="0.13" stop-color="#9FCEF9"/>
<stop offset="0.27" stop-color="#93C9F7"/>
<stop offset="0.46" stop-color="#8CC5F5"/>
<stop offset="0.99" stop-color="#8BC5F5"/>
</linearGradient>
<linearGradient id="paint19_linear_4684_41564" x1="621.627" y1="82.5494" x2="643.907" y2="82.5494" gradientUnits="userSpaceOnUse">
<stop stop-color="#BFDFFF"/>
<stop offset="0.49" stop-color="#AAD4F9"/>
<stop offset="0.99" stop-color="#9ACCF5"/>
</linearGradient>
<linearGradient id="paint20_linear_4684_41564" x1="589.736" y1="70.6091" x2="616.601" y2="86.122" gradientUnits="userSpaceOnUse">
<stop stop-color="#BFDFFF"/>
<stop offset="0.18" stop-color="#B5DAFC"/>
<stop offset="0.67" stop-color="#A1CFF6"/>
<stop offset="0.99" stop-color="#9ACCF5"/>
</linearGradient>
<linearGradient id="paint21_linear_4684_41564" x1="652.44" y1="85.682" x2="664.225" y2="85.682" gradientUnits="userSpaceOnUse">
<stop stop-color="#B4D9FF"/>
<stop offset="0.02" stop-color="#B0D7FE"/>
<stop offset="0.13" stop-color="#9FCEF9"/>
<stop offset="0.27" stop-color="#93C9F7"/>
<stop offset="0.46" stop-color="#8CC5F5"/>
<stop offset="0.99" stop-color="#8BC5F5"/>
</linearGradient>
<linearGradient id="paint22_linear_4684_41564" x1="607.564" y1="119.513" x2="607.564" y2="60" gradientUnits="userSpaceOnUse">
<stop stop-color="#7CBCE3"/>
<stop offset="0.32" stop-color="#6BADDD"/>
<stop offset="1" stop-color="#4C93D4"/>
</linearGradient>
<linearGradient id="paint23_linear_4684_41564" x1="519.126" y1="50.2588" x2="525.817" y2="38.6781" gradientUnits="userSpaceOnUse">
<stop stop-color="#BEDEFE"/>
<stop offset="0.34" stop-color="#AAD4F9"/>
<stop offset="0.67" stop-color="#9ECEF6"/>
<stop offset="0.99" stop-color="#9ACCF5"/>
</linearGradient>
<linearGradient id="paint24_linear_4684_41564" x1="556.331" y1="59.5136" x2="556.331" y2="19.1414" gradientUnits="userSpaceOnUse">
<stop stop-color="#B4D9FF"/>
<stop offset="0.02" stop-color="#B0D7FE"/>
<stop offset="0.13" stop-color="#9FCEF9"/>
<stop offset="0.27" stop-color="#93C9F7"/>
<stop offset="0.46" stop-color="#8CC5F5"/>
<stop offset="0.99" stop-color="#8BC5F5"/>
</linearGradient>
<linearGradient id="paint25_linear_4684_41564" x1="604.08" y1="57.719" x2="703.265" y2="57.719" gradientUnits="userSpaceOnUse">
<stop stop-color="#B4D9FF"/>
<stop offset="0.02" stop-color="#B0D7FE"/>
<stop offset="0.13" stop-color="#9FCEF9"/>
<stop offset="0.27" stop-color="#93C9F7"/>
<stop offset="0.46" stop-color="#8CC5F5"/>
<stop offset="0.99" stop-color="#8BC5F5"/>
</linearGradient>
<linearGradient id="paint26_linear_4684_41564" x1="-381.918" y1="36.7838" x2="-381.517" y2="36.7838" gradientUnits="userSpaceOnUse">
<stop stop-color="#BFDFFF"/>
<stop offset="0.49" stop-color="#AAD4F9"/>
<stop offset="0.99" stop-color="#9ACCF5"/>
</linearGradient>
<linearGradient id="paint27_linear_4684_41564" x1="-381.918" y1="48.7255" x2="616.601" y2="33.2126" gradientUnits="userSpaceOnUse">
<stop stop-color="#BFDFFF"/>
<stop offset="0.18" stop-color="#B5DAFC"/>
<stop offset="0.67" stop-color="#A1CFF6"/>
<stop offset="0.99" stop-color="#9ACCF5"/>
</linearGradient>
<linearGradient id="paint28_linear_4684_41564" x1="652.44" y1="33.6527" x2="664.225" y2="33.6527" gradientUnits="userSpaceOnUse">
<stop stop-color="#B4D9FF"/>
<stop offset="0.02" stop-color="#B0D7FE"/>
<stop offset="0.13" stop-color="#9FCEF9"/>
<stop offset="0.27" stop-color="#93C9F7"/>
<stop offset="0.46" stop-color="#8CC5F5"/>
<stop offset="0.99" stop-color="#8BC5F5"/>
</linearGradient>
<linearGradient id="paint29_linear_4684_41564" x1="399.41" y1="367.593" x2="420.955" y2="367.593" gradientUnits="userSpaceOnUse">
<stop stop-color="#BFDFFF"/>
<stop offset="0.61" stop-color="#A5D1F7"/>
<stop offset="0.99" stop-color="#9ACCF5"/>
</linearGradient>
<linearGradient id="paint30_linear_4684_41564" x1="-1429.06" y1="437.089" x2="-1428.51" y2="437.089" gradientUnits="userSpaceOnUse">
<stop stop-color="#BFDFFF"/>
<stop offset="0.03" stop-color="#BCDDFE"/>
<stop offset="0.34" stop-color="#A9D3F9"/>
<stop offset="0.66" stop-color="#9DCDF6"/>
<stop offset="0.99" stop-color="#9ACCF5"/>
</linearGradient>
<linearGradient id="paint31_linear_4684_41564" x1="-1429.06" y1="440.294" x2="-1428.51" y2="522.66" gradientUnits="userSpaceOnUse">
<stop stop-color="#BFDFFF"/>
<stop offset="0.33" stop-color="#ABD4F9"/>
<stop offset="0.68" stop-color="#9ECEF6"/>
<stop offset="0.99" stop-color="#9ACCF5"/>
</linearGradient>
<linearGradient id="paint32_linear_4684_41564" x1="-1429.06" y1="413.698" x2="-1428.51" y2="413.698" gradientUnits="userSpaceOnUse">
<stop stop-color="#BFDFFF"/>
<stop offset="0.57" stop-color="#A6D2F8"/>
<stop offset="0.99" stop-color="#9ACCF5"/>
</linearGradient>
<linearGradient id="paint33_linear_4684_41564" x1="503.955" y1="413.191" x2="555.138" y2="501.841" gradientUnits="userSpaceOnUse">
<stop stop-color="#BFDFFF"/>
<stop offset="0.32" stop-color="#B8DBFD"/>
<stop offset="0.76" stop-color="#A6D2F8"/>
<stop offset="0.99" stop-color="#9ACCF5"/>
</linearGradient>
<linearGradient id="paint34_linear_4684_41564" x1="488.659" y1="461.626" x2="518.504" y2="513.323" gradientUnits="userSpaceOnUse">
<stop stop-color="#BFDFFF"/>
<stop offset="0.61" stop-color="#A5D1F7"/>
<stop offset="0.99" stop-color="#9ACCF5"/>
</linearGradient>
<clipPath id="clip0_4684_41564">
<rect width="842" height="478" fill="white"/>
</clipPath>
</defs>
</svg>
