<svg width="236" height="90" viewBox="0 0 236 90" fill="none" xmlns="http://www.w3.org/2000/svg">
<path d="M61.1983 59.4484H56.4236L58.6273 15.2354L61.1983 59.4484Z" fill="#DCBE95"/>
<path d="M61.1983 59.4484H56.4236L58.6273 15.2354L61.1983 59.4484Z" fill="black" fill-opacity="0.6"/>
<path d="M75.1554 25.5396C75.1554 21.7238 71.4923 18.609 66.8742 18.3859C66.6 14.6298 62.7655 11.6504 58.0789 11.6504C53.3923 11.6504 49.5578 14.6298 49.2836 18.3859C44.6655 18.609 41.0024 21.7278 41.0024 25.5396C41.0024 29.3515 44.6655 32.4703 49.2836 32.6934C49.5578 36.4495 53.3923 39.4289 58.0789 39.4289C62.7655 39.4289 66.6 36.4495 66.8742 32.6934C71.4923 32.4703 75.1554 29.3515 75.1554 25.5396Z" fill="#5A8D45"/>
<path d="M75.1554 25.5396C75.1554 21.7238 71.4923 18.609 66.8742 18.3859C66.6 14.6298 62.7655 11.6504 58.0789 11.6504C53.3923 11.6504 49.5578 14.6298 49.2836 18.3859C44.6655 18.609 41.0024 21.7278 41.0024 25.5396C41.0024 29.3515 44.6655 32.4703 49.2836 32.6934C49.5578 36.4495 53.3923 39.4289 58.0789 39.4289C62.7655 39.4289 66.6 36.4495 66.8742 32.6934C71.4923 32.4703 75.1554 29.3515 75.1554 25.5396Z" fill="black" fill-opacity="0.6"/>
<path d="M194.84 59.389H191.858L193.234 31.7578L194.84 59.389Z" fill="#DCBE95"/>
<path d="M194.84 59.389H191.858L193.234 31.7578L194.84 59.389Z" fill="black" fill-opacity="0.6"/>
<path d="M204.023 34.3747C204.023 31.9928 201.736 30.041 198.846 29.9016C198.675 27.5515 196.28 25.6914 193.347 25.6914C190.413 25.6914 188.019 27.5515 187.847 29.9016C184.958 30.041 182.671 31.9888 182.671 34.3747C182.671 36.7606 184.958 38.7084 187.847 38.8478C188.019 41.1978 190.413 43.058 193.347 43.058C196.28 43.058 198.675 41.1978 198.846 38.8478C201.736 38.7084 204.023 36.7606 204.023 34.3747Z" fill="#5A8D45"/>
<path d="M204.023 34.3747C204.023 31.9928 201.736 30.041 198.846 29.9016C198.675 27.5515 196.28 25.6914 193.347 25.6914C190.413 25.6914 188.019 27.5515 187.847 29.9016C184.958 30.041 182.671 31.9888 182.671 34.3747C182.671 36.7606 184.958 38.7084 187.847 38.8478C188.019 41.1978 190.413 43.058 193.347 43.058C196.28 43.058 198.675 41.1978 198.846 38.8478C201.736 38.7084 204.023 36.7606 204.023 34.3747Z" fill="black" fill-opacity="0.6"/>
<path d="M37.1527 44.8105H0.423828L18.7882 0L37.1527 44.8105Z" fill="#5FA939"/>
<path d="M37.1527 44.8105H0.423828L18.7882 0L37.1527 44.8105Z" fill="black" fill-opacity="0.6"/>
<path d="M20.9918 59.4482H16.217L18.4208 24.1973L20.9918 59.4482Z" fill="#DCBE95"/>
<path d="M20.9918 59.4482H16.217L18.4208 24.1973L20.9918 59.4482Z" fill="black" fill-opacity="0.6"/>
<path d="M19.3414 36.8439L18.3032 37.6923L11.8096 30.7178L19.3414 36.8439Z" fill="#DCBE95"/>
<path d="M19.3414 36.8439L18.3032 37.6923L11.8096 30.7178L19.3414 36.8439Z" fill="black" fill-opacity="0.6"/>
<path d="M17.8677 40.7794L18.9059 41.6238L25.3995 34.6533L17.8677 40.7794Z" fill="#DCBE95"/>
<path d="M17.8677 40.7794L18.9059 41.6238L25.3995 34.6533L17.8677 40.7794Z" fill="black" fill-opacity="0.6"/>
<path d="M184.485 44.8105H147.756L166.121 0L184.485 44.8105Z" fill="#5FA939"/>
<path d="M184.485 44.8105H147.756L166.121 0L184.485 44.8105Z" fill="black" fill-opacity="0.6"/>
<path d="M168.324 59.4482H163.55L165.753 24.1973L168.324 59.4482Z" fill="#DCBE95"/>
<path d="M168.324 59.4482H163.55L165.753 24.1973L168.324 59.4482Z" fill="black" fill-opacity="0.6"/>
<path d="M166.674 36.8439L165.636 37.6923L159.142 30.7178L166.674 36.8439Z" fill="#DCBE95"/>
<path d="M166.674 36.8439L165.636 37.6923L159.142 30.7178L166.674 36.8439Z" fill="black" fill-opacity="0.6"/>
<path d="M165.2 40.7794L166.238 41.6238L172.732 34.6533L165.2 40.7794Z" fill="#DCBE95"/>
<path d="M165.2 40.7794L166.238 41.6238L172.732 34.6533L165.2 40.7794Z" fill="black" fill-opacity="0.6"/>
<path d="M41.1923 59.4483H38.8074L39.9043 37.3418L41.1923 59.4483Z" fill="#DCBE95"/>
<path d="M41.1923 59.4483H38.8074L39.9043 37.3418L41.1923 59.4483Z" fill="black" fill-opacity="0.6"/>
<path d="M48.5384 39.4329C48.5384 37.525 46.7068 35.9676 44.3954 35.8561C44.2583 33.976 42.3435 32.4863 39.9977 32.4863C37.652 32.4863 35.7372 33.976 35.6 35.8561C33.2886 35.9676 31.457 37.525 31.457 39.4329C31.457 41.3409 33.2886 42.8983 35.6 43.0098C35.7372 44.8899 37.652 46.3796 39.9977 46.3796C42.3435 46.3796 44.2583 44.8899 44.3954 43.0098C46.7068 42.8983 48.5384 41.3409 48.5384 39.4329Z" fill="#5A8D45"/>
<path d="M48.5384 39.4329C48.5384 37.525 46.7068 35.9676 44.3954 35.8561C44.2583 33.976 42.3435 32.4863 39.9977 32.4863C37.652 32.4863 35.7372 33.976 35.6 35.8561C33.2886 35.9676 31.457 37.525 31.457 39.4329C31.457 41.3409 33.2886 42.8983 35.6 43.0098C35.7372 44.8899 37.652 46.3796 39.9977 46.3796C42.3435 46.3796 44.2583 44.8899 44.3954 43.0098C46.7068 42.8983 48.5384 41.3409 48.5384 39.4329Z" fill="black" fill-opacity="0.6"/>
<path d="M212.923 59.4483H210.533L211.639 37.3418L212.923 59.4483Z" fill="#DCBE95"/>
<path d="M212.923 59.4483H210.533L211.639 37.3418L212.923 59.4483Z" fill="black" fill-opacity="0.6"/>
<path d="M220.268 39.4329C220.268 37.525 218.437 35.9676 216.125 35.8561C215.988 33.976 214.073 32.4863 211.727 32.4863C209.382 32.4863 207.467 33.976 207.33 35.8561C205.018 35.9676 203.187 37.525 203.187 39.4329C203.187 41.3409 205.018 42.8983 207.33 43.0098C207.467 44.8899 209.382 46.3796 211.727 46.3796C214.073 46.3796 215.988 44.8899 216.125 43.0098C218.437 42.8983 220.268 41.3409 220.268 39.4329Z" fill="#5A8D45"/>
<path d="M220.268 39.4329C220.268 37.525 218.437 35.9676 216.125 35.8561C215.988 33.976 214.073 32.4863 211.727 32.4863C209.382 32.4863 207.467 33.976 207.33 35.8561C205.018 35.9676 203.187 37.525 203.187 39.4329C203.187 41.3409 205.018 42.8983 207.33 43.0098C207.467 44.8899 209.382 46.3796 211.727 46.3796C214.073 46.3796 215.988 44.8899 216.125 43.0098C218.437 42.8983 220.268 41.3409 220.268 39.4329Z" fill="black" fill-opacity="0.6"/>
<path d="M226.873 69.7764L230.495 84.2631L231.929 83.9723L228.382 69.7764H226.873Z" fill="#373737"/>
<path d="M226.873 69.7764L230.495 84.2631L231.929 83.9723L228.382 69.7764H226.873Z" fill="black" fill-opacity="0.6"/>
<path d="M230.094 78.4082H205.829V79.7346H230.094V78.4082Z" fill="#373737"/>
<path d="M230.094 78.4082H205.829V79.7346H230.094V78.4082Z" fill="black" fill-opacity="0.6"/>
<path d="M232.605 88.115C234.48 87.4137 235.371 85.4728 234.594 83.7798C233.817 82.0869 231.667 81.2829 229.792 81.9842C227.917 82.6854 227.026 84.6263 227.803 86.3193C228.58 88.0123 230.73 88.8162 232.605 88.115Z" fill="#373737"/>
<path d="M232.605 88.115C234.48 87.4137 235.371 85.4728 234.594 83.7798C233.817 82.0869 231.667 81.2829 229.792 81.9842C227.917 82.6854 227.026 84.6263 227.803 86.3193C228.58 88.0123 230.73 88.8162 232.605 88.115Z" fill="black" fill-opacity="0.6"/>
<path d="M231.197 87.0398C232.415 87.0398 233.403 86.1481 233.403 85.0482C233.403 83.9483 232.415 83.0566 231.197 83.0566C229.979 83.0566 228.991 83.9483 228.991 85.0482C228.991 86.1481 229.979 87.0398 231.197 87.0398Z" fill="#C7C7C7"/>
<path d="M231.197 87.0398C232.415 87.0398 233.403 86.1481 233.403 85.0482C233.403 83.9483 232.415 83.0566 231.197 83.0566C229.979 83.0566 228.991 83.9483 228.991 85.0482C228.991 86.1481 229.979 87.0398 231.197 87.0398Z" fill="black" fill-opacity="0.6"/>
<path d="M203.094 87.5572C202.988 87.9714 203.341 88.3657 203.813 88.3657C204.157 88.3657 204.452 88.1507 204.532 87.8479L209.054 69.7764H207.545L203.098 87.5532L203.094 87.5572Z" fill="#373737"/>
<path d="M203.094 87.5572C202.988 87.9714 203.341 88.3657 203.813 88.3657C204.157 88.3657 204.452 88.1507 204.532 87.8479L209.054 69.7764H207.545L203.098 87.5532L203.094 87.5572Z" fill="black" fill-opacity="0.6"/>
<path d="M214.282 49.1992H212.813V53.1824H214.282V49.1992Z" fill="#373737"/>
<path d="M223.106 49.1992H221.636V53.1824H223.106V49.1992Z" fill="#373737"/>
<path d="M211.344 49.53C211.344 48.9803 211.838 48.5342 212.447 48.5342H223.476C224.085 48.5342 224.579 48.9803 224.579 49.53C224.579 50.0796 224.085 50.5258 223.476 50.5258H212.447C211.838 50.5258 211.344 50.0796 211.344 49.53Z" fill="#BF402A"/>
<path d="M211.344 49.53C211.344 48.9803 211.838 48.5342 212.447 48.5342H223.476C224.085 48.5342 224.579 48.9803 224.579 49.53C224.579 50.0796 224.085 50.5258 223.476 50.5258H212.447C211.838 50.5258 211.344 50.0796 211.344 49.53Z" fill="black" fill-opacity="0.6"/>
<path d="M201.594 61.8105C201.594 66.9448 206.204 71.1032 211.887 71.1032H224.032C229.719 71.1032 234.325 66.9408 234.325 61.8105H201.589H201.594Z" fill="#373737"/>
<path d="M201.594 61.8105C201.594 66.9448 206.204 71.1032 211.887 71.1032H224.032C229.719 71.1032 234.325 66.9408 234.325 61.8105H201.589H201.594Z" fill="black" fill-opacity="0.6"/>
<path d="M211.533 52.5176H224.385C230.072 52.5176 234.678 56.68 234.678 61.8103H201.236C201.236 56.676 205.846 52.5176 211.529 52.5176H211.533Z" fill="#FF5538"/>
<path d="M211.533 52.5176H224.385C230.072 52.5176 234.678 56.68 234.678 61.8103H201.236C201.236 56.676 205.846 52.5176 211.529 52.5176H211.533Z" fill="black" fill-opacity="0.6"/>
<path d="M234.559 62.7583H201.364C200.786 62.7583 200.314 62.3321 200.314 61.8103C200.314 61.2885 200.786 60.8623 201.364 60.8623H234.559C235.137 60.8623 235.609 61.2885 235.609 61.8103C235.609 62.3361 235.137 62.7583 234.559 62.7583Z" fill="#BF402A"/>
<path d="M234.559 62.7583H201.364C200.786 62.7583 200.314 62.3321 200.314 61.8103C200.314 61.2885 200.786 60.8623 201.364 60.8623H234.559C235.137 60.8623 235.609 61.2885 235.609 61.8103C235.609 62.3361 235.137 62.7583 234.559 62.7583Z" fill="black" fill-opacity="0.6"/>
<path d="M189 76.4232H186.984L155.836 43.2037L157.173 42.3672L189 76.4232Z" fill="#373737"/>
<path d="M189 76.4232H186.984L155.836 43.2037L157.173 42.3672L189 76.4232Z" fill="#FEBD33" fill-opacity="0.2"/>
<path d="M189 76.4232H186.984L155.836 43.2037L157.173 42.3672L189 76.4232Z" fill="black" fill-opacity="0.4"/>
<path d="M32.2476 76.4232H34.2637L65.4112 43.2037L64.0748 42.3672L32.2476 76.4232Z" fill="#373737"/>
<path d="M32.2476 76.4232H34.2637L65.4112 43.2037L64.0748 42.3672L32.2476 76.4232Z" fill="#FEBD33" fill-opacity="0.2"/>
<path d="M32.2476 76.4232H34.2637L65.4112 43.2037L64.0748 42.3672L32.2476 76.4232Z" fill="black" fill-opacity="0.4"/>
<path d="M157.173 42.3668C149.797 38.9533 140.579 33.5282 130.719 25.1596C121.258 17.1296 114.948 9.07562 110.878 2.93359C106.809 9.07562 100.499 17.1296 91.0381 25.1596C81.1777 33.5282 71.3402 38.9533 63.9644 42.3668L72.4378 76.4228H148.906C151.73 65.0708 154.348 53.7188 157.173 42.3668Z" fill="#F93939"/>
<path d="M157.173 42.3668C149.797 38.9533 140.579 33.5282 130.719 25.1596C121.258 17.1296 114.948 9.07562 110.878 2.93359C106.809 9.07562 100.499 17.1296 91.0381 25.1596C81.1777 33.5282 71.3402 38.9533 63.9644 42.3668L72.4378 76.4228H148.906C151.73 65.0708 154.348 53.7188 157.173 42.3668Z" fill="#FEBD33" fill-opacity="0.2"/>
<path d="M157.173 42.3668C149.797 38.9533 140.579 33.5282 130.719 25.1596C121.258 17.1296 114.948 9.07562 110.878 2.93359C106.809 9.07562 100.499 17.1296 91.0381 25.1596C81.1777 33.5282 71.3402 38.9533 63.9644 42.3668L72.4378 76.4228H148.906C151.73 65.0708 154.348 53.7188 157.173 42.3668Z" fill="black" fill-opacity="0.3"/>
<path d="M91.0381 34.8387C100.499 26.8086 106.809 18.7547 110.878 12.6127C114.948 18.7547 121.258 26.8086 130.719 34.8387C139.656 42.4266 148.061 47.5848 155.051 51.0302C155.749 48.1424 156.456 45.2546 157.173 42.3668C149.797 38.9533 140.579 33.5282 130.719 25.1596C121.258 17.1296 114.948 9.07562 110.878 2.93359C106.809 9.07562 100.499 17.1296 91.0381 25.1596C81.1777 33.5282 71.3402 38.9533 63.9644 42.3668L66.1183 51.0222C73.2002 47.5808 82.1054 42.4226 91.0381 34.8387Z" fill="#E83A42"/>
<path d="M91.0381 34.8387C100.499 26.8086 106.809 18.7547 110.878 12.6127C114.948 18.7547 121.258 26.8086 130.719 34.8387C139.656 42.4266 148.061 47.5848 155.051 51.0302C155.749 48.1424 156.456 45.2546 157.173 42.3668C149.797 38.9533 140.579 33.5282 130.719 25.1596C121.258 17.1296 114.948 9.07562 110.878 2.93359C106.809 9.07562 100.499 17.1296 91.0381 25.1596C81.1777 33.5282 71.3402 38.9533 63.9644 42.3668L66.1183 51.0222C73.2002 47.5808 82.1054 42.4226 91.0381 34.8387Z" fill="#FEBD33" fill-opacity="0.2"/>
<path d="M91.0381 34.8387C100.499 26.8086 106.809 18.7547 110.878 12.6127C114.948 18.7547 121.258 26.8086 130.719 34.8387C139.656 42.4266 148.061 47.5848 155.051 51.0302C155.749 48.1424 156.456 45.2546 157.173 42.3668C149.797 38.9533 140.579 33.5282 130.719 25.1596C121.258 17.1296 114.948 9.07562 110.878 2.93359C106.809 9.07562 100.499 17.1296 91.0381 25.1596C81.1777 33.5282 71.3402 38.9533 63.9644 42.3668L66.1183 51.0222C73.2002 47.5808 82.1054 42.4226 91.0381 34.8387Z" fill="black" fill-opacity="0.3"/>
<path d="M91.0381 32.3254C100.499 24.2953 106.809 16.2414 110.878 10.0994C114.948 16.2414 121.258 24.2953 130.719 32.3254C139.89 40.1124 148.506 45.3463 155.597 48.7838C156.116 46.6448 156.64 44.5019 157.173 42.3629C149.797 38.9493 140.579 33.5243 130.719 25.1557C121.258 17.1256 114.948 9.07171 110.878 2.92969C106.809 9.07171 100.499 17.1256 91.0381 25.1557C81.1777 33.5243 71.3402 38.9493 63.9644 42.3629L65.5626 48.7798C72.7272 45.3383 81.8758 40.1084 91.0381 32.3254Z" fill="#FF555C"/>
<path d="M91.0381 32.3254C100.499 24.2953 106.809 16.2414 110.878 10.0994C114.948 16.2414 121.258 24.2953 130.719 32.3254C139.89 40.1124 148.506 45.3463 155.597 48.7838C156.116 46.6448 156.64 44.5019 157.173 42.3629C149.797 38.9493 140.579 33.5243 130.719 25.1557C121.258 17.1256 114.948 9.07171 110.878 2.92969C106.809 9.07171 100.499 17.1256 91.0381 25.1557C81.1777 33.5243 71.3402 38.9493 63.9644 42.3629L65.5626 48.7798C72.7272 45.3383 81.8758 40.1084 91.0381 32.3254Z" fill="#FEBD33" fill-opacity="0.2"/>
<path d="M91.0381 32.3254C100.499 24.2953 106.809 16.2414 110.878 10.0994C114.948 16.2414 121.258 24.2953 130.719 32.3254C139.89 40.1124 148.506 45.3463 155.597 48.7838C156.116 46.6448 156.64 44.5019 157.173 42.3629C149.797 38.9493 140.579 33.5243 130.719 25.1557C121.258 17.1256 114.948 9.07171 110.878 2.92969C106.809 9.07171 100.499 17.1256 91.0381 25.1557C81.1777 33.5243 71.3402 38.9493 63.9644 42.3629L65.5626 48.7798C72.7272 45.3383 81.8758 40.1084 91.0381 32.3254Z" fill="black" fill-opacity="0.3"/>
<path d="M130.503 76.4225H91.8054L77.8162 68.6593C82.8957 64.6323 89.578 58.3589 96.0031 48.9945C104.256 36.9653 108.592 24.9322 110.883 16.9102C114.039 25.8284 119.155 37.6066 127.417 49.5123C133.158 57.7853 138.972 64.0428 143.951 68.6593C139.468 71.2483 134.986 73.8334 130.508 76.4225H130.503Z" fill="#DB2A33"/>
<path d="M130.503 76.4225H91.8054L77.8162 68.6593C82.8957 64.6323 89.578 58.3589 96.0031 48.9945C104.256 36.9653 108.592 24.9322 110.883 16.9102C114.039 25.8284 119.155 37.6066 127.417 49.5123C133.158 57.7853 138.972 64.0428 143.951 68.6593C139.468 71.2483 134.986 73.8334 130.508 76.4225H130.503Z" fill="#FEBD33" fill-opacity="0.2"/>
<path d="M130.503 76.4225H91.8054L77.8162 68.6593C82.8957 64.6323 89.578 58.3589 96.0031 48.9945C104.256 36.9653 108.592 24.9322 110.883 16.9102C114.039 25.8284 119.155 37.6066 127.417 49.5123C133.158 57.7853 138.972 64.0428 143.951 68.6593C139.468 71.2483 134.986 73.8334 130.508 76.4225H130.503Z" fill="black" fill-opacity="0.3"/>
<path d="M92.2786 76.423C95.1352 72.396 98.8966 66.1225 102.511 56.7581C107.154 44.729 109.593 32.6959 110.879 24.6738C112.656 33.5921 115.531 45.3703 120.179 57.2759C123.408 65.549 126.678 71.8065 129.479 76.423H92.2786Z" fill="#FEBD33"/>
</svg>
