<svg width="279" height="128" viewBox="0 0 279 128" fill="none" xmlns="http://www.w3.org/2000/svg">
<path d="M222.037 0L166 109.737H278.075L222.037 0Z" fill="#AE825F"/>
<path d="M222.037 0L166 109.737H278.075L222.037 0Z" fill="black" fill-opacity="0.6"/>
<path d="M222.037 0L239.456 109.737H278.075L222.037 0Z" fill="#A67A5C"/>
<path d="M222.037 0L239.456 109.737H278.075L222.037 0Z" fill="black" fill-opacity="0.6"/>
<path d="M166 109.737H204.619L222.037 0L166 109.737Z" fill="#BE9065"/>
<path d="M166 109.737H204.619L222.037 0L166 109.737Z" fill="black" fill-opacity="0.6"/>
<path d="M222.038 0L205.65 32.0965C206.469 32.5113 208.14 31.084 208.992 31.4337C209.84 31.7834 210.007 33.9793 210.883 34.264C211.755 34.5486 213.186 32.8732 214.082 33.0887C214.971 33.3043 215.484 35.4432 216.393 35.5856C217.298 35.7279 218.443 33.8492 219.364 33.9224C220.277 33.9915 221.116 36.0247 222.042 36.0247C222.955 36.0247 223.79 33.9874 224.715 33.9142C225.624 33.841 226.773 35.7197 227.69 35.5734C228.607 35.427 229.117 33.288 230.005 33.0765C230.906 32.861 232.332 34.5405 233.2 34.2599C234.081 33.9752 234.252 31.7834 235.095 31.4337C235.947 31.0799 237.622 32.5154 238.437 32.1006L222.038 0Z" fill="#F1F3F4"/>
<path d="M222.038 0L205.65 32.0965C206.469 32.5113 208.14 31.084 208.992 31.4337C209.84 31.7834 210.007 33.9793 210.883 34.264C211.755 34.5486 213.186 32.8732 214.082 33.0887C214.971 33.3043 215.484 35.4432 216.393 35.5856C217.298 35.7279 218.443 33.8492 219.364 33.9224C220.277 33.9915 221.116 36.0247 222.042 36.0247C222.955 36.0247 223.79 33.9874 224.715 33.9142C225.624 33.841 226.773 35.7197 227.69 35.5734C228.607 35.427 229.117 33.288 230.005 33.0765C230.906 32.861 232.332 34.5405 233.2 34.2599C234.081 33.9752 234.252 31.7834 235.095 31.4337C235.947 31.0799 237.622 32.5154 238.437 32.1006L222.038 0Z" fill="black" fill-opacity="0.6"/>
<path d="M227.686 35.5733C228.603 35.427 229.112 33.288 230.001 33.0765C230.901 32.861 232.328 34.5405 233.196 34.2599C234.076 33.9752 234.247 31.7834 235.091 31.4337C235.943 31.0799 237.618 32.5154 238.433 32.1006L222.037 0L227.686 35.5733Z" fill="#E2E7EA"/>
<path d="M227.686 35.5733C228.603 35.427 229.112 33.288 230.001 33.0765C230.901 32.861 232.328 34.5405 233.196 34.2599C234.076 33.9752 234.247 31.7834 235.091 31.4337C235.943 31.0799 237.618 32.5154 238.433 32.1006L222.037 0L227.686 35.5733Z" fill="black" fill-opacity="0.6"/>
<path d="M96.7853 66.0137H89.1355V91.5954H96.7853V66.0137Z" fill="#8A6129"/>
<path d="M96.7853 66.0137H89.1355V91.5954H96.7853V66.0137Z" fill="black" fill-opacity="0.6"/>
<path d="M109.538 86.3667H76.3872L92.9605 32.7607L109.538 86.3667Z" fill="#709126"/>
<path d="M109.538 86.3667H76.3872L92.9605 32.7607L109.538 86.3667Z" fill="black" fill-opacity="0.6"/>
<path d="M106.68 64.6047H79.2444L92.9605 20.2422L106.68 64.6047Z" fill="#709126"/>
<path d="M106.68 64.6047H79.2444L92.9605 20.2422L106.68 64.6047Z" fill="black" fill-opacity="0.6"/>
<path d="M103.387 42.6491H82.5376L92.9604 8.93457L103.387 42.6491Z" fill="#709126"/>
<path d="M103.387 42.6491H82.5376L92.9604 8.93457L103.387 42.6491Z" fill="black" fill-opacity="0.6"/>
<path d="M100.358 23.9177H85.5671L92.9607 0L100.358 23.9177Z" fill="#709126"/>
<path d="M100.358 23.9177H85.5671L92.9607 0L100.358 23.9177Z" fill="black" fill-opacity="0.6"/>
<path d="M78.2994 72.4053H72.562V91.5906H78.2994V72.4053Z" fill="#8A6129"/>
<path d="M78.2994 72.4053H72.562V91.5906H78.2994V72.4053Z" fill="black" fill-opacity="0.6"/>
<path d="M87.8618 87.6713H63L75.4309 47.4688L87.8618 87.6713Z" fill="#95C133"/>
<path d="M87.8618 87.6713H63L75.4309 47.4688L87.8618 87.6713Z" fill="black" fill-opacity="0.6"/>
<path d="M85.7198 71.3519H65.1418L75.4308 38.0801L85.7198 71.3519Z" fill="#95C133"/>
<path d="M85.7198 71.3519H65.1418L75.4308 38.0801L85.7198 71.3519Z" fill="black" fill-opacity="0.6"/>
<path d="M83.249 54.8846H67.6128L75.4309 29.6006L83.249 54.8846Z" fill="#95C133"/>
<path d="M83.249 54.8846H67.6128L75.4309 29.6006L83.249 54.8846Z" fill="black" fill-opacity="0.6"/>
<path d="M80.9772 40.8358H69.885L75.4311 22.8984L80.9772 40.8358Z" fill="#95C133"/>
<path d="M80.9772 40.8358H69.885L75.4311 22.8984L80.9772 40.8358Z" fill="black" fill-opacity="0.6"/>
<path d="M21.1924 45.2532V87.5443H27.7131V45.2532C27.7131 43.4558 26.2541 42 24.4527 42C22.6514 42 21.1924 43.4558 21.1924 45.2532Z" fill="#636363"/>
<path d="M21.1924 45.2532V87.5443H27.7131V45.2532C27.7131 43.4558 26.2541 42 24.4527 42C22.6514 42 21.1924 43.4558 21.1924 45.2532Z" fill="black" fill-opacity="0.6"/>
<path d="M32.6036 87.5439H16.3018V90.7971H32.6036V87.5439Z" fill="#858585"/>
<path d="M32.6036 87.5439H16.3018V90.7971H32.6036V87.5439Z" fill="black" fill-opacity="0.6"/>
<path d="M45.6451 68.0251H21.1924V58.2656H45.6451L48.9055 63.1454L45.6451 68.0251Z" fill="#FF6432"/>
<path d="M45.6451 68.0251H21.1924V58.2656H45.6451L48.9055 63.1454L45.6451 68.0251Z" fill="black" fill-opacity="0.6"/>
<path d="M3.26036 58.2654H27.7131V48.5059H3.26036L0 53.3856L3.26036 58.2654Z" fill="#83A92D"/>
<path d="M3.26036 58.2654H27.7131V48.5059H3.26036L0 53.3856L3.26036 58.2654Z" fill="black" fill-opacity="0.6"/>
<path d="M145.659 61.7656L89.7759 109.559H201.543L145.659 61.7656Z" fill="#709126"/>
<path d="M145.659 61.7656L89.7759 109.559H201.543L145.659 61.7656Z" fill="#FEBD33" fill-opacity="0.2"/>
<path d="M145.659 61.7656L89.7759 109.559H201.543L145.659 61.7656Z" fill="black" fill-opacity="0.3"/>
<path d="M145.659 61.1855C132.144 61.1855 123.27 68.9161 117.521 77.8734C112.147 86.2419 117.914 97.6125 127.428 97.6125H163.895C173.409 97.6125 179.172 86.2419 173.802 77.8734C168.053 68.9161 159.174 61.1855 145.664 61.1855H145.659Z" fill="#FEBD33"/>
<path d="M163.895 98.4062H127.428C122.841 98.4062 118.719 95.8903 116.408 91.6704C113.935 87.1649 114.105 81.7138 116.85 77.4404C124.115 66.1233 133.808 60.3867 145.664 60.3867C157.52 60.3867 167.212 66.1233 174.477 77.4404C177.218 81.7138 177.388 87.1649 174.92 91.6704C172.609 95.8858 168.487 98.4062 163.9 98.4062H163.895ZM145.659 61.9792C134.384 61.9792 125.143 67.4705 118.191 78.3013C115.764 82.0841 115.616 86.9107 117.807 90.9076C119.837 94.6056 123.431 96.8137 127.428 96.8137H163.895C167.892 96.8137 171.486 94.6056 173.516 90.9076C175.707 86.9151 175.559 82.0841 173.132 78.3013C166.18 67.4705 156.939 61.9792 145.664 61.9792H145.659Z" fill="#373737"/>
<path d="M163.895 98.4062H127.428C122.841 98.4062 118.719 95.8903 116.408 91.6704C113.935 87.1649 114.105 81.7138 116.85 77.4404C124.115 66.1233 133.808 60.3867 145.664 60.3867C157.52 60.3867 167.212 66.1233 174.477 77.4404C177.218 81.7138 177.388 87.1649 174.92 91.6704C172.609 95.8858 168.487 98.4062 163.9 98.4062H163.895ZM145.659 61.9792C134.384 61.9792 125.143 67.4705 118.191 78.3013C115.764 82.0841 115.616 86.9107 117.807 90.9076C119.837 94.6056 123.431 96.8137 127.428 96.8137H163.895C167.892 96.8137 171.486 94.6056 173.516 90.9076C175.707 86.9151 175.559 82.0841 173.132 78.3013C166.18 67.4705 156.939 61.9792 145.664 61.9792H145.659Z" fill="#FEBD33" fill-opacity="0.2"/>
<path d="M163.895 98.4062H127.428C122.841 98.4062 118.719 95.8903 116.408 91.6704C113.935 87.1649 114.105 81.7138 116.85 77.4404C124.115 66.1233 133.808 60.3867 145.664 60.3867C157.52 60.3867 167.212 66.1233 174.477 77.4404C177.218 81.7138 177.388 87.1649 174.92 91.6704C172.609 95.8858 168.487 98.4062 163.9 98.4062H163.895ZM145.659 61.9792C134.384 61.9792 125.143 67.4705 118.191 78.3013C115.764 82.0841 115.616 86.9107 117.807 90.9076C119.837 94.6056 123.431 96.8137 127.428 96.8137H163.895C167.892 96.8137 171.486 94.6056 173.516 90.9076C175.707 86.9151 175.559 82.0841 173.132 78.3013C166.18 67.4705 156.939 61.9792 145.664 61.9792H145.659Z" fill="black" fill-opacity="0.3"/>
<path d="M89.7759 109.559H201.543C200.908 107.15 200.121 104.46 199.16 101.592H92.1632C91.202 104.456 90.4152 107.15 89.7804 109.559H89.7759Z" fill="#373737"/>
<path d="M89.7759 109.559H201.543C200.908 107.15 200.121 104.46 199.16 101.592H92.1632C91.202 104.456 90.4152 107.15 89.7804 109.559H89.7759Z" fill="#FEBD33" fill-opacity="0.2"/>
<path d="M89.7759 109.559H201.543C200.908 107.15 200.121 104.46 199.16 101.592H92.1632C91.202 104.456 90.4152 107.15 89.7804 109.559H89.7759Z" fill="black" fill-opacity="0.3"/>
<path d="M201.543 109.559C196.518 90.5247 182.104 53.7988 145.659 53.7988C109.214 53.7988 94.8009 90.5247 89.7759 109.559L145.659 61.7658L201.543 109.559Z" fill="#83A92D"/>
<path d="M201.543 109.559C196.518 90.5247 182.104 53.7988 145.659 53.7988C109.214 53.7988 94.8009 90.5247 89.7759 109.559L145.659 61.7658L201.543 109.559Z" fill="#FEBD33" fill-opacity="0.2"/>
<path d="M201.543 109.559C196.518 90.5247 182.104 53.7988 145.659 53.7988C109.214 53.7988 94.8009 90.5247 89.7759 109.559L145.659 61.7658L201.543 109.559Z" fill="black" fill-opacity="0.3"/>
<path d="M145.66 63.7951C145.217 63.7951 144.859 63.4383 144.859 62.9967V53.7985C144.859 53.3569 145.217 53 145.66 53C146.102 53 146.46 53.3569 146.46 53.7985V62.9967C146.46 63.4383 146.102 63.7951 145.66 63.7951Z" fill="#95C133"/>
<path d="M145.66 63.7951C145.217 63.7951 144.859 63.4383 144.859 62.9967V53.7985C144.859 53.3569 145.217 53 145.66 53C146.102 53 146.46 53.3569 146.46 53.7985V62.9967C146.46 63.4383 146.102 63.7951 145.66 63.7951Z" fill="black" fill-opacity="0.6"/>
<path d="M206.406 96.1084H192.712V101.964H206.406V96.1084Z" fill="#9D7358"/>
<path d="M206.406 96.1084H192.712V101.964H206.406V96.1084Z" fill="black" fill-opacity="0.6"/>
<path d="M206.406 101.964H192.712V105.217H206.406V101.964Z" fill="#926445"/>
<path d="M206.406 101.964H192.712V105.217H206.406V101.964Z" fill="black" fill-opacity="0.6"/>
<path d="M192.712 105.217C195.233 105.217 197.277 103.178 197.277 100.663C197.277 98.1475 195.233 96.1084 192.712 96.1084C190.191 96.1084 188.148 98.1475 188.148 100.663C188.148 103.178 190.191 105.217 192.712 105.217Z" fill="#A8836A"/>
<path d="M192.712 105.217C195.233 105.217 197.277 103.178 197.277 100.663C197.277 98.1475 195.233 96.1084 192.712 96.1084C190.191 96.1084 188.148 98.1475 188.148 100.663C188.148 103.178 190.191 105.217 192.712 105.217Z" fill="black" fill-opacity="0.6"/>
<path d="M192.712 104.566C194.873 104.566 196.625 102.819 196.625 100.663C196.625 98.5066 194.873 96.7588 192.712 96.7588C190.551 96.7588 188.8 98.5066 188.8 100.663C188.8 102.819 190.551 104.566 192.712 104.566Z" fill="#CE9F6C"/>
<path d="M192.712 104.566C194.873 104.566 196.625 102.819 196.625 100.663C196.625 98.5066 194.873 96.7588 192.712 96.7588C190.551 96.7588 188.8 98.5066 188.8 100.663C188.8 102.819 190.551 104.566 192.712 104.566Z" fill="black" fill-opacity="0.6"/>
<path d="M192.712 103.266C194.153 103.266 195.321 102.1 195.321 100.663C195.321 99.2257 194.153 98.0605 192.712 98.0605C191.272 98.0605 190.104 99.2257 190.104 100.663C190.104 102.1 191.272 103.266 192.712 103.266Z" fill="#A8836A"/>
<path d="M192.712 103.266C194.153 103.266 195.321 102.1 195.321 100.663C195.321 99.2257 194.153 98.0605 192.712 98.0605C191.272 98.0605 190.104 99.2257 190.104 100.663C190.104 102.1 191.272 103.266 192.712 103.266Z" fill="black" fill-opacity="0.6"/>
<path d="M192.712 102.615C193.793 102.615 194.669 101.741 194.669 100.663C194.669 99.5848 193.793 98.7109 192.712 98.7109C191.632 98.7109 190.756 99.5848 190.756 100.663C190.756 101.741 191.632 102.615 192.712 102.615Z" fill="#CE9F6C"/>
<path d="M192.712 102.615C193.793 102.615 194.669 101.741 194.669 100.663C194.669 99.5848 193.793 98.7109 192.712 98.7109C191.632 98.7109 190.756 99.5848 190.756 100.663C190.756 101.741 191.632 102.615 192.712 102.615Z" fill="black" fill-opacity="0.6"/>
<path d="M192.712 101.313C193.072 101.313 193.364 101.022 193.364 100.662C193.364 100.303 193.072 100.012 192.712 100.012C192.352 100.012 192.06 100.303 192.06 100.662C192.06 101.022 192.352 101.313 192.712 101.313Z" fill="#A8836A"/>
<path d="M192.712 101.313C193.072 101.313 193.364 101.022 193.364 100.662C193.364 100.303 193.072 100.012 192.712 100.012C192.352 100.012 192.06 100.303 192.06 100.662C192.06 101.022 192.352 101.313 192.712 101.313Z" fill="black" fill-opacity="0.6"/>
<path d="M201.189 105.218H187.496V111.073H201.189V105.218Z" fill="#9D7358"/>
<path d="M201.189 105.218H187.496V111.073H201.189V105.218Z" fill="black" fill-opacity="0.6"/>
<path d="M201.189 111.073H187.496V114.326H201.189V111.073Z" fill="#926445"/>
<path d="M201.189 111.073H187.496V114.326H201.189V111.073Z" fill="black" fill-opacity="0.6"/>
<path d="M187.496 114.327C190.017 114.327 192.06 112.288 192.06 109.772C192.06 107.257 190.017 105.218 187.496 105.218C184.975 105.218 182.931 107.257 182.931 109.772C182.931 112.288 184.975 114.327 187.496 114.327Z" fill="#A8836A"/>
<path d="M187.496 114.327C190.017 114.327 192.06 112.288 192.06 109.772C192.06 107.257 190.017 105.218 187.496 105.218C184.975 105.218 182.931 107.257 182.931 109.772C182.931 112.288 184.975 114.327 187.496 114.327Z" fill="black" fill-opacity="0.6"/>
<path d="M187.496 113.676C189.656 113.676 191.408 111.928 191.408 109.772C191.408 107.616 189.656 105.868 187.496 105.868C185.335 105.868 183.583 107.616 183.583 109.772C183.583 111.928 185.335 113.676 187.496 113.676Z" fill="#CE9F6C"/>
<path d="M187.496 113.676C189.656 113.676 191.408 111.928 191.408 109.772C191.408 107.616 189.656 105.868 187.496 105.868C185.335 105.868 183.583 107.616 183.583 109.772C183.583 111.928 185.335 113.676 187.496 113.676Z" fill="black" fill-opacity="0.6"/>
<path d="M187.496 112.375C188.936 112.375 190.104 111.21 190.104 109.772C190.104 108.335 188.936 107.17 187.496 107.17C186.055 107.17 184.887 108.335 184.887 109.772C184.887 111.21 186.055 112.375 187.496 112.375Z" fill="#A8836A"/>
<path d="M187.496 112.375C188.936 112.375 190.104 111.21 190.104 109.772C190.104 108.335 188.936 107.17 187.496 107.17C186.055 107.17 184.887 108.335 184.887 109.772C184.887 111.21 186.055 112.375 187.496 112.375Z" fill="black" fill-opacity="0.6"/>
<path d="M187.496 111.724C188.576 111.724 189.452 110.85 189.452 109.772C189.452 108.694 188.576 107.82 187.496 107.82C186.415 107.82 185.54 108.694 185.54 109.772C185.54 110.85 186.415 111.724 187.496 111.724Z" fill="#CE9F6C"/>
<path d="M187.496 111.724C188.576 111.724 189.452 110.85 189.452 109.772C189.452 108.694 188.576 107.82 187.496 107.82C186.415 107.82 185.54 108.694 185.54 109.772C185.54 110.85 186.415 111.724 187.496 111.724Z" fill="black" fill-opacity="0.6"/>
<path d="M187.496 110.422C187.856 110.422 188.148 110.131 188.148 109.772C188.148 109.412 187.856 109.121 187.496 109.121C187.135 109.121 186.844 109.412 186.844 109.772C186.844 110.131 187.135 110.422 187.496 110.422Z" fill="#A8836A"/>
<path d="M187.496 110.422C187.856 110.422 188.148 110.131 188.148 109.772C188.148 109.412 187.856 109.121 187.496 109.121C187.135 109.121 186.844 109.412 186.844 109.772C186.844 110.131 187.135 110.422 187.496 110.422Z" fill="black" fill-opacity="0.6"/>
<path d="M211.622 105.218H197.929V111.073H211.622V105.218Z" fill="#9D7358"/>
<path d="M211.622 105.218H197.929V111.073H211.622V105.218Z" fill="black" fill-opacity="0.6"/>
<path d="M211.622 111.073H197.929V114.326H211.622V111.073Z" fill="#926445"/>
<path d="M211.622 111.073H197.929V114.326H211.622V111.073Z" fill="black" fill-opacity="0.6"/>
<path d="M197.929 114.327C200.45 114.327 202.493 112.288 202.493 109.772C202.493 107.257 200.45 105.218 197.929 105.218C195.408 105.218 193.364 107.257 193.364 109.772C193.364 112.288 195.408 114.327 197.929 114.327Z" fill="#A8836A"/>
<path d="M197.929 114.327C200.45 114.327 202.493 112.288 202.493 109.772C202.493 107.257 200.45 105.218 197.929 105.218C195.408 105.218 193.364 107.257 193.364 109.772C193.364 112.288 195.408 114.327 197.929 114.327Z" fill="black" fill-opacity="0.6"/>
<path d="M197.929 113.676C200.09 113.676 201.841 111.928 201.841 109.772C201.841 107.616 200.09 105.868 197.929 105.868C195.768 105.868 194.016 107.616 194.016 109.772C194.016 111.928 195.768 113.676 197.929 113.676Z" fill="#CE9F6C"/>
<path d="M197.929 113.676C200.09 113.676 201.841 111.928 201.841 109.772C201.841 107.616 200.09 105.868 197.929 105.868C195.768 105.868 194.016 107.616 194.016 109.772C194.016 111.928 195.768 113.676 197.929 113.676Z" fill="black" fill-opacity="0.6"/>
<path d="M197.929 112.375C199.369 112.375 200.537 111.21 200.537 109.772C200.537 108.335 199.369 107.17 197.929 107.17C196.488 107.17 195.321 108.335 195.321 109.772C195.321 111.21 196.488 112.375 197.929 112.375Z" fill="#A8836A"/>
<path d="M197.929 112.375C199.369 112.375 200.537 111.21 200.537 109.772C200.537 108.335 199.369 107.17 197.929 107.17C196.488 107.17 195.321 108.335 195.321 109.772C195.321 111.21 196.488 112.375 197.929 112.375Z" fill="black" fill-opacity="0.6"/>
<path d="M197.929 111.724C199.009 111.724 199.885 110.85 199.885 109.772C199.885 108.694 199.009 107.82 197.929 107.82C196.848 107.82 195.973 108.694 195.973 109.772C195.973 110.85 196.848 111.724 197.929 111.724Z" fill="#CE9F6C"/>
<path d="M197.929 111.724C199.009 111.724 199.885 110.85 199.885 109.772C199.885 108.694 199.009 107.82 197.929 107.82C196.848 107.82 195.973 108.694 195.973 109.772C195.973 110.85 196.848 111.724 197.929 111.724Z" fill="black" fill-opacity="0.6"/>
<path d="M197.929 110.422C198.289 110.422 198.581 110.131 198.581 109.772C198.581 109.412 198.289 109.121 197.929 109.121C197.569 109.121 197.277 109.412 197.277 109.772C197.277 110.131 197.569 110.422 197.929 110.422Z" fill="#A8836A"/>
<path d="M197.929 110.422C198.289 110.422 198.581 110.131 198.581 109.772C198.581 109.412 198.289 109.121 197.929 109.121C197.569 109.121 197.277 109.412 197.277 109.772C197.277 110.131 197.569 110.422 197.929 110.422Z" fill="black" fill-opacity="0.6"/>
<path d="M212.274 96.1084H203.145V101.964H216.647C216.77 101.553 216.839 101.114 216.839 100.663C216.839 98.1457 214.797 96.1084 212.274 96.1084Z" fill="#9D7358"/>
<path d="M212.274 96.1084H203.145V101.964H216.647C216.77 101.553 216.839 101.114 216.839 100.663C216.839 98.1457 214.797 96.1084 212.274 96.1084Z" fill="black" fill-opacity="0.6"/>
<path d="M203.145 105.217H212.274C214.341 105.217 216.085 103.847 216.647 101.964H203.145V105.217Z" fill="#926445"/>
<path d="M203.145 105.217H212.274C214.341 105.217 216.085 103.847 216.647 101.964H203.145V105.217Z" fill="black" fill-opacity="0.6"/>
<path d="M203.145 105.217C205.666 105.217 207.71 103.178 207.71 100.663C207.71 98.1475 205.666 96.1084 203.145 96.1084C200.624 96.1084 198.581 98.1475 198.581 100.663C198.581 103.178 200.624 105.217 203.145 105.217Z" fill="#A8836A"/>
<path d="M203.145 105.217C205.666 105.217 207.71 103.178 207.71 100.663C207.71 98.1475 205.666 96.1084 203.145 96.1084C200.624 96.1084 198.581 98.1475 198.581 100.663C198.581 103.178 200.624 105.217 203.145 105.217Z" fill="black" fill-opacity="0.6"/>
<path d="M203.145 104.566C205.306 104.566 207.058 102.819 207.058 100.663C207.058 98.5066 205.306 96.7588 203.145 96.7588C200.985 96.7588 199.233 98.5066 199.233 100.663C199.233 102.819 200.985 104.566 203.145 104.566Z" fill="#CE9F6C"/>
<path d="M203.145 104.566C205.306 104.566 207.058 102.819 207.058 100.663C207.058 98.5066 205.306 96.7588 203.145 96.7588C200.985 96.7588 199.233 98.5066 199.233 100.663C199.233 102.819 200.985 104.566 203.145 104.566Z" fill="black" fill-opacity="0.6"/>
<path d="M203.145 103.266C204.586 103.266 205.754 102.1 205.754 100.663C205.754 99.2257 204.586 98.0605 203.145 98.0605C201.705 98.0605 200.537 99.2257 200.537 100.663C200.537 102.1 201.705 103.266 203.145 103.266Z" fill="#A8836A"/>
<path d="M203.145 103.266C204.586 103.266 205.754 102.1 205.754 100.663C205.754 99.2257 204.586 98.0605 203.145 98.0605C201.705 98.0605 200.537 99.2257 200.537 100.663C200.537 102.1 201.705 103.266 203.145 103.266Z" fill="black" fill-opacity="0.6"/>
<path d="M203.145 102.615C204.226 102.615 205.101 101.741 205.101 100.663C205.101 99.5848 204.226 98.7109 203.145 98.7109C202.065 98.7109 201.189 99.5848 201.189 100.663C201.189 101.741 202.065 102.615 203.145 102.615Z" fill="#CE9F6C"/>
<path d="M203.145 102.615C204.226 102.615 205.101 101.741 205.101 100.663C205.101 99.5848 204.226 98.7109 203.145 98.7109C202.065 98.7109 201.189 99.5848 201.189 100.663C201.189 101.741 202.065 102.615 203.145 102.615Z" fill="black" fill-opacity="0.6"/>
<path d="M203.145 101.313C203.505 101.313 203.797 101.022 203.797 100.662C203.797 100.303 203.505 100.012 203.145 100.012C202.785 100.012 202.493 100.303 202.493 100.662C202.493 101.022 202.785 101.313 203.145 101.313Z" fill="#A8836A"/>
<path d="M203.145 101.313C203.505 101.313 203.797 101.022 203.797 100.662C203.797 100.303 203.505 100.012 203.145 100.012C202.785 100.012 202.493 100.303 202.493 100.662C202.493 101.022 202.785 101.313 203.145 101.313Z" fill="black" fill-opacity="0.6"/>
<path d="M207.058 87H197.929V92.8557H211.431C211.553 92.445 211.622 92.0058 211.622 91.5544C211.622 89.0373 209.58 87 207.058 87Z" fill="#9D7358"/>
<path d="M207.058 87H197.929V92.8557H211.431C211.553 92.445 211.622 92.0058 211.622 91.5544C211.622 89.0373 209.58 87 207.058 87Z" fill="black" fill-opacity="0.6"/>
<path d="M197.929 96.1086H207.058C209.124 96.1086 210.868 94.7382 211.431 92.8555H197.929V96.1086Z" fill="#926445"/>
<path d="M197.929 96.1086H207.058C209.124 96.1086 210.868 94.7382 211.431 92.8555H197.929V96.1086Z" fill="black" fill-opacity="0.6"/>
<path d="M197.929 96.1089C200.45 96.1089 202.493 94.0698 202.493 91.5544C202.493 89.0391 200.45 87 197.929 87C195.408 87 193.364 89.0391 193.364 91.5544C193.364 94.0698 195.408 96.1089 197.929 96.1089Z" fill="#A8836A"/>
<path d="M197.929 96.1089C200.45 96.1089 202.493 94.0698 202.493 91.5544C202.493 89.0391 200.45 87 197.929 87C195.408 87 193.364 89.0391 193.364 91.5544C193.364 94.0698 195.408 96.1089 197.929 96.1089Z" fill="black" fill-opacity="0.6"/>
<path d="M197.929 95.458C200.09 95.458 201.841 93.7102 201.841 91.5542C201.841 89.3982 200.09 87.6504 197.929 87.6504C195.768 87.6504 194.016 89.3982 194.016 91.5542C194.016 93.7102 195.768 95.458 197.929 95.458Z" fill="#CE9F6C"/>
<path d="M197.929 95.458C200.09 95.458 201.841 93.7102 201.841 91.5542C201.841 89.3982 200.09 87.6504 197.929 87.6504C195.768 87.6504 194.016 89.3982 194.016 91.5542C194.016 93.7102 195.768 95.458 197.929 95.458Z" fill="black" fill-opacity="0.6"/>
<path d="M197.929 94.1572C199.369 94.1572 200.537 92.992 200.537 91.5547C200.537 90.1173 199.369 88.9521 197.929 88.9521C196.488 88.9521 195.321 90.1173 195.321 91.5547C195.321 92.992 196.488 94.1572 197.929 94.1572Z" fill="#A8836A"/>
<path d="M197.929 94.1572C199.369 94.1572 200.537 92.992 200.537 91.5547C200.537 90.1173 199.369 88.9521 197.929 88.9521C196.488 88.9521 195.321 90.1173 195.321 91.5547C195.321 92.992 196.488 94.1572 197.929 94.1572Z" fill="black" fill-opacity="0.6"/>
<path d="M197.929 93.5063C199.009 93.5063 199.885 92.6324 199.885 91.5544C199.885 90.4764 199.009 89.6025 197.929 89.6025C196.848 89.6025 195.973 90.4764 195.973 91.5544C195.973 92.6324 196.848 93.5063 197.929 93.5063Z" fill="#CE9F6C"/>
<path d="M197.929 93.5063C199.009 93.5063 199.885 92.6324 199.885 91.5544C199.885 90.4764 199.009 89.6025 197.929 89.6025C196.848 89.6025 195.973 90.4764 195.973 91.5544C195.973 92.6324 196.848 93.5063 197.929 93.5063Z" fill="black" fill-opacity="0.6"/>
<path d="M197.929 92.2046C198.289 92.2046 198.581 91.9133 198.581 91.5539C198.581 91.1946 198.289 90.9033 197.929 90.9033C197.569 90.9033 197.277 91.1946 197.277 91.5539C197.277 91.9133 197.569 92.2046 197.929 92.2046Z" fill="#A8836A"/>
<path d="M197.929 92.2046C198.289 92.2046 198.581 91.9133 198.581 91.5539C198.581 91.1946 198.289 90.9033 197.929 90.9033C197.569 90.9033 197.277 91.1946 197.277 91.5539C197.277 91.9133 197.569 92.2046 197.929 92.2046Z" fill="black" fill-opacity="0.6"/>
<path d="M217.491 105.218H208.362V111.073H221.864C221.986 110.663 222.055 110.224 222.055 109.772C222.055 107.255 220.014 105.218 217.491 105.218Z" fill="#9D7358"/>
<path d="M217.491 105.218H208.362V111.073H221.864C221.986 110.663 222.055 110.224 222.055 109.772C222.055 107.255 220.014 105.218 217.491 105.218Z" fill="black" fill-opacity="0.6"/>
<path d="M208.362 114.326H217.491C219.557 114.326 221.301 112.956 221.864 111.073H208.362V114.326Z" fill="#926445"/>
<path d="M208.362 114.326H217.491C219.557 114.326 221.301 112.956 221.864 111.073H208.362V114.326Z" fill="black" fill-opacity="0.6"/>
<path d="M208.362 114.327C210.883 114.327 212.926 112.288 212.926 109.772C212.926 107.257 210.883 105.218 208.362 105.218C205.841 105.218 203.797 107.257 203.797 109.772C203.797 112.288 205.841 114.327 208.362 114.327Z" fill="#A8836A"/>
<path d="M208.362 114.327C210.883 114.327 212.926 112.288 212.926 109.772C212.926 107.257 210.883 105.218 208.362 105.218C205.841 105.218 203.797 107.257 203.797 109.772C203.797 112.288 205.841 114.327 208.362 114.327Z" fill="black" fill-opacity="0.6"/>
<path d="M208.362 113.676C210.523 113.676 212.274 111.928 212.274 109.772C212.274 107.616 210.523 105.868 208.362 105.868C206.201 105.868 204.449 107.616 204.449 109.772C204.449 111.928 206.201 113.676 208.362 113.676Z" fill="#CE9F6C"/>
<path d="M208.362 113.676C210.523 113.676 212.274 111.928 212.274 109.772C212.274 107.616 210.523 105.868 208.362 105.868C206.201 105.868 204.449 107.616 204.449 109.772C204.449 111.928 206.201 113.676 208.362 113.676Z" fill="black" fill-opacity="0.6"/>
<path d="M208.362 112.375C209.802 112.375 210.97 111.21 210.97 109.772C210.97 108.335 209.802 107.17 208.362 107.17C206.921 107.17 205.754 108.335 205.754 109.772C205.754 111.21 206.921 112.375 208.362 112.375Z" fill="#A8836A"/>
<path d="M208.362 112.375C209.802 112.375 210.97 111.21 210.97 109.772C210.97 108.335 209.802 107.17 208.362 107.17C206.921 107.17 205.754 108.335 205.754 109.772C205.754 111.21 206.921 112.375 208.362 112.375Z" fill="black" fill-opacity="0.6"/>
<path d="M208.362 111.724C209.442 111.724 210.318 110.85 210.318 109.772C210.318 108.694 209.442 107.82 208.362 107.82C207.281 107.82 206.406 108.694 206.406 109.772C206.406 110.85 207.281 111.724 208.362 111.724Z" fill="#CE9F6C"/>
<path d="M208.362 111.724C209.442 111.724 210.318 110.85 210.318 109.772C210.318 108.694 209.442 107.82 208.362 107.82C207.281 107.82 206.406 108.694 206.406 109.772C206.406 110.85 207.281 111.724 208.362 111.724Z" fill="black" fill-opacity="0.6"/>
<path d="M208.362 110.422C208.722 110.422 209.014 110.131 209.014 109.772C209.014 109.412 208.722 109.121 208.362 109.121C208.002 109.121 207.71 109.412 207.71 109.772C207.71 110.131 208.002 110.422 208.362 110.422Z" fill="#A8836A"/>
<path d="M208.362 110.422C208.722 110.422 209.014 110.131 209.014 109.772C209.014 109.412 208.722 109.121 208.362 109.121C208.002 109.121 207.71 109.412 207.71 109.772C207.71 110.131 208.002 110.422 208.362 110.422Z" fill="black" fill-opacity="0.6"/>
<path d="M61.969 110.613L77.3656 116.203L75.8838 120.271L57.4512 113.578C57.4692 113.26 57.5343 112.939 57.6463 112.626C58.2824 110.88 60.2197 109.979 61.969 110.613Z" fill="#9D7358"/>
<path d="M61.969 110.613L77.3656 116.203L75.8838 120.271L57.4512 113.578C57.4692 113.26 57.5343 112.939 57.6463 112.626C58.2824 110.88 60.2197 109.979 61.969 110.613Z" fill="black" fill-opacity="0.6"/>
<path d="M75.0559 122.532L59.6593 116.939C58.2244 116.416 57.3606 115.024 57.4474 113.578L75.88 120.271L75.0559 122.529V122.532Z" fill="#926445"/>
<path d="M75.0559 122.532L59.6593 116.939C58.2244 116.416 57.3606 115.024 57.4474 113.578L75.88 120.271L75.0559 122.529V122.532Z" fill="black" fill-opacity="0.6"/>
<path d="M79.5606 119.786C79.7882 117.941 78.4743 116.262 76.6259 116.035C74.7775 115.808 73.0946 117.119 72.867 118.963C72.6393 120.808 73.9533 122.487 75.8016 122.714C77.65 122.941 79.333 121.63 79.5606 119.786Z" fill="#A8836A"/>
<path d="M79.5606 119.786C79.7882 117.941 78.4743 116.262 76.6259 116.035C74.7775 115.808 73.0946 117.119 72.867 118.963C72.6393 120.808 73.9533 122.487 75.8016 122.714C77.65 122.941 79.333 121.63 79.5606 119.786Z" fill="black" fill-opacity="0.6"/>
<path d="M73.4948 118.381C72.9491 119.877 73.7225 121.533 75.2224 122.077C76.7223 122.622 78.3813 121.85 78.927 120.353C79.4728 118.857 78.6993 117.202 77.1994 116.657C75.6995 116.112 74.0406 116.884 73.4948 118.381Z" fill="#CE9F6C"/>
<path d="M73.4948 118.381C72.9491 119.877 73.7225 121.533 75.2224 122.077C76.7223 122.622 78.3813 121.85 78.927 120.353C79.4728 118.857 78.6993 117.202 77.1994 116.657C75.6995 116.112 74.0406 116.884 73.4948 118.381Z" fill="black" fill-opacity="0.6"/>
<path d="M74.3984 118.713C74.0333 119.712 74.5502 120.815 75.5513 121.179C76.5524 121.543 77.6584 121.028 78.0235 120.029C78.3885 119.03 77.8717 117.926 76.8705 117.562C75.8694 117.198 74.7634 117.714 74.3984 118.713Z" fill="#A8836A"/>
<path d="M74.3984 118.713C74.0333 119.712 74.5502 120.815 75.5513 121.179C76.5524 121.543 77.6584 121.028 78.0235 120.029C78.3885 119.03 77.8717 117.926 76.8705 117.562C75.8694 117.198 74.7634 117.714 74.3984 118.713Z" fill="black" fill-opacity="0.6"/>
<path d="M74.8538 118.875C74.5791 119.625 74.9658 120.451 75.7176 120.725C76.4694 120.999 77.297 120.613 77.5717 119.863C77.8464 119.113 77.4597 118.287 76.7079 118.013C75.9561 117.739 75.1285 118.125 74.8538 118.875Z" fill="#CE9F6C"/>
<path d="M74.8538 118.875C74.5791 119.625 74.9658 120.451 75.7176 120.725C76.4694 120.999 77.297 120.613 77.5717 119.863C77.8464 119.113 77.4597 118.287 76.7079 118.013C75.9561 117.739 75.1285 118.125 74.8538 118.875Z" fill="black" fill-opacity="0.6"/>
<path d="M75.7571 119.203C75.6668 119.452 75.7933 119.73 76.0463 119.82C76.2957 119.91 76.574 119.784 76.6643 119.531C76.7547 119.283 76.6246 119.005 76.3752 118.915C76.1258 118.825 75.8475 118.951 75.7571 119.203Z" fill="#A8836A"/>
<path d="M75.7571 119.203C75.6668 119.452 75.7933 119.73 76.0463 119.82C76.2957 119.91 76.574 119.784 76.6643 119.531C76.7547 119.283 76.6246 119.005 76.3752 118.915C76.1258 118.825 75.8475 118.951 75.7571 119.203Z" fill="black" fill-opacity="0.6"/>
<path d="M59.612 110.613L44.2153 116.203L45.6972 120.271L64.1298 113.578C64.1117 113.26 64.0466 112.939 63.9346 112.626C63.2985 110.88 61.3613 109.979 59.612 110.613Z" fill="#9D7358"/>
<path d="M59.612 110.613L44.2153 116.203L45.6972 120.271L64.1298 113.578C64.1117 113.26 64.0466 112.939 63.9346 112.626C63.2985 110.88 61.3613 109.979 59.612 110.613Z" fill="black" fill-opacity="0.6"/>
<path d="M46.5247 122.532L61.9214 116.939C63.3562 116.416 64.22 115.024 64.1333 113.578L45.7007 120.271L46.5247 122.529V122.532Z" fill="#926445"/>
<path d="M46.5247 122.532L61.9214 116.939C63.3562 116.416 64.22 115.024 64.1333 113.578L45.7007 120.271L46.5247 122.529V122.532Z" fill="black" fill-opacity="0.6"/>
<path d="M45.3721 122.734C47.2344 122.734 48.7442 121.228 48.7442 119.37C48.7442 117.511 47.2344 116.005 45.3721 116.005C43.5097 116.005 42 117.511 42 119.37C42 121.228 43.5097 122.734 45.3721 122.734Z" fill="#A8836A"/>
<path d="M45.3721 122.734C47.2344 122.734 48.7442 121.228 48.7442 119.37C48.7442 117.511 47.2344 116.005 45.3721 116.005C43.5097 116.005 42 117.511 42 119.37C42 121.228 43.5097 122.734 45.3721 122.734Z" fill="black" fill-opacity="0.6"/>
<path d="M48.0901 118.382C48.6358 119.878 47.8624 121.534 46.3625 122.078C44.8626 122.623 43.2036 121.851 42.6579 120.354C42.1121 118.858 42.8856 117.203 44.3855 116.658C45.8854 116.113 47.5443 116.885 48.0901 118.382Z" fill="#CE9F6C"/>
<path d="M48.0901 118.382C48.6358 119.878 47.8624 121.534 46.3625 122.078C44.8626 122.623 43.2036 121.851 42.6579 120.354C42.1121 118.858 42.8856 117.203 44.3855 116.658C45.8854 116.113 47.5443 116.885 48.0901 118.382Z" fill="black" fill-opacity="0.6"/>
<path d="M47.1829 118.714C47.5479 119.712 47.0311 120.816 46.0299 121.18C45.0288 121.544 43.9228 121.029 43.5578 120.03C43.1928 119.031 43.7096 117.927 44.7107 117.563C45.7119 117.199 46.8178 117.715 47.1829 118.714Z" fill="#A8836A"/>
<path d="M47.1829 118.714C47.5479 119.712 47.0311 120.816 46.0299 121.18C45.0288 121.544 43.9228 121.029 43.5578 120.03C43.1928 119.031 43.7096 117.927 44.7107 117.563C45.7119 117.199 46.8178 117.715 47.1829 118.714Z" fill="black" fill-opacity="0.6"/>
<path d="M46.7311 118.876C47.0058 119.626 46.6191 120.452 45.8673 120.726C45.1156 121 44.2879 120.614 44.0132 119.864C43.7385 119.114 44.1253 118.288 44.877 118.014C45.6288 117.74 46.4564 118.126 46.7311 118.876Z" fill="#CE9F6C"/>
<path d="M46.7311 118.876C47.0058 119.626 46.6191 120.452 45.8673 120.726C45.1156 121 44.2879 120.614 44.0132 119.864C43.7385 119.114 44.1253 118.288 44.877 118.014C45.6288 117.74 46.4564 118.126 46.7311 118.876Z" fill="black" fill-opacity="0.6"/>
<path d="M45.8237 119.203C45.9141 119.452 45.7876 119.73 45.5346 119.82C45.2852 119.91 45.0069 119.784 44.9166 119.531C44.8262 119.283 44.9527 119.005 45.2057 118.915C45.4551 118.825 45.7334 118.951 45.8237 119.203Z" fill="#A8836A"/>
<path d="M45.8237 119.203C45.9141 119.452 45.7876 119.73 45.5346 119.82C45.2852 119.91 45.0069 119.784 44.9166 119.531C44.8262 119.283 44.9527 119.005 45.2057 118.915C45.4551 118.825 45.7334 118.951 45.8237 119.203Z" fill="black" fill-opacity="0.6"/>
<path d="M64.1664 106.563V122.91H59.8293V103.339C60.1366 103.249 60.4582 103.198 60.7943 103.198C62.6557 103.198 64.1664 104.706 64.1664 106.563Z" fill="#9D7358"/>
<path d="M64.1664 106.563V122.91H59.8293V103.339C60.1366 103.249 60.4582 103.198 60.7943 103.198C62.6557 103.198 64.1664 104.706 64.1664 106.563Z" fill="black" fill-opacity="0.6"/>
<path d="M57.4187 122.914V106.567C57.4187 105.041 58.4343 103.757 59.8294 103.343V122.914H57.4187Z" fill="#926445"/>
<path d="M57.4187 122.914V106.567C57.4187 105.041 58.4343 103.757 59.8294 103.343V122.914H57.4187Z" fill="black" fill-opacity="0.6"/>
<path d="M63.1755 125.295C64.4924 123.981 64.4924 121.851 63.1755 120.537C61.8586 119.223 59.7235 119.223 58.4066 120.537C57.0898 121.851 57.0898 123.981 58.4066 125.295C59.7235 126.609 61.8586 126.609 63.1755 125.295Z" fill="#A8836A"/>
<path d="M63.1755 125.295C64.4924 123.981 64.4924 121.851 63.1755 120.537C61.8586 119.223 59.7235 119.223 58.4066 120.537C57.0898 121.851 57.0898 123.981 58.4066 125.295C59.7235 126.609 61.8586 126.609 63.1755 125.295Z" fill="black" fill-opacity="0.6"/>
<path d="M60.7908 125.799C62.3877 125.799 63.6822 124.508 63.6822 122.914C63.6822 121.321 62.3877 120.029 60.7908 120.029C59.1939 120.029 57.8994 121.321 57.8994 122.914C57.8994 124.508 59.1939 125.799 60.7908 125.799Z" fill="#CE9F6C"/>
<path d="M60.7908 125.799C62.3877 125.799 63.6822 124.508 63.6822 122.914C63.6822 121.321 62.3877 120.029 60.7908 120.029C59.1939 120.029 57.8994 121.321 57.8994 122.914C57.8994 124.508 59.1939 125.799 60.7908 125.799Z" fill="black" fill-opacity="0.6"/>
<path d="M60.7904 120.988C59.7242 120.988 58.864 121.85 58.864 122.91C58.864 123.971 59.7278 124.833 60.7904 124.833C61.853 124.833 62.7168 123.971 62.7168 122.91C62.7168 121.85 61.853 120.988 60.7904 120.988Z" fill="#A8836A"/>
<path d="M60.7904 120.988C59.7242 120.988 58.864 121.85 58.864 122.91C58.864 123.971 59.7278 124.833 60.7904 124.833C61.853 124.833 62.7168 123.971 62.7168 122.91C62.7168 121.85 61.853 120.988 60.7904 120.988Z" fill="black" fill-opacity="0.6"/>
<path d="M60.7904 124.357C61.5889 124.357 62.2361 123.711 62.2361 122.914C62.2361 122.118 61.5889 121.472 60.7904 121.472C59.992 121.472 59.3447 122.118 59.3447 122.914C59.3447 123.711 59.992 124.357 60.7904 124.357Z" fill="#CE9F6C"/>
<path d="M60.7904 124.357C61.5889 124.357 62.2361 123.711 62.2361 122.914C62.2361 122.118 61.5889 121.472 60.7904 121.472C59.992 121.472 59.3447 122.118 59.3447 122.914C59.3447 123.711 59.992 124.357 60.7904 124.357Z" fill="black" fill-opacity="0.6"/>
<path d="M60.7908 122.431C60.5233 122.431 60.3101 122.647 60.3101 122.91C60.3101 123.174 60.5269 123.39 60.7908 123.39C61.0546 123.39 61.2714 123.174 61.2714 122.91C61.2714 122.647 61.0546 122.431 60.7908 122.431Z" fill="#A8836A"/>
<path d="M60.7908 122.431C60.5233 122.431 60.3101 122.647 60.3101 122.91C60.3101 123.174 60.5269 123.39 60.7908 123.39C61.0546 123.39 61.2714 123.174 61.2714 122.91C61.2714 122.647 61.0546 122.431 60.7908 122.431Z" fill="black" fill-opacity="0.6"/>
<path d="M71.6906 101.388C69.4679 98.6548 67.8342 97.3998 69.5185 95.3514C62.796 97.2663 65.1706 103.704 65.1706 103.704C65.1706 103.704 63.4755 103.548 62.9984 100.966C61.943 95.2468 68.0728 95.0377 67.3463 89.7365C66.6199 84.4353 60.8262 83 60.8262 83C62.3948 94.3381 47.7825 94.0748 47.7825 106.159C47.7825 112.881 51.1762 117.62 60.7865 117.62C70.3967 117.62 73.805 112.005 73.805 107.562C73.805 105.467 73.2411 103.292 71.6943 101.388H71.6906Z" fill="#FF6432"/>
<path d="M67.7407 110.054C67.2166 108.546 66.0637 106.736 66.7974 105.795C65.1132 106.3 64.2855 107.976 63.8843 109.311C62.8145 108.243 62.6808 106.263 62.6808 106.263C61.123 107.443 61.3363 109.718 61.4881 110.605C59.4713 109.34 61.0399 106.624 60.7472 104.374C60.4327 101.936 57.3462 100.31 57.3462 100.31C58.0293 105.521 53.5657 105.012 53.5657 110.566C53.5657 114.965 57.0137 117.62 60.9134 117.62C64.8132 117.62 69.1792 114.179 67.7443 110.05L67.7407 110.054Z" fill="#FFCA1E"/>
</svg>
