<svg width="255" height="119" viewBox="0 0 255 119" fill="none" xmlns="http://www.w3.org/2000/svg">
<path d="M254.833 113.026L165.822 24.5538C164.39 23.8134 162.058 23.8134 160.626 24.5538L51.5361 113.026H254.833Z" fill="#B0A75F"/>
<path d="M165.822 24.554C165.016 24.1371 163.925 23.9629 162.871 24.0127V113.02H254.827L165.822 24.554Z" fill="#9B8F46"/>
<path d="M151.467 43.4863C151.64 45.216 153.098 46.5598 154.865 46.5598C156.632 46.5598 158.09 45.2097 158.263 43.4863H151.467Z" fill="#9B8F46"/>
<path d="M126.253 57.8462C126.427 59.5758 127.884 60.9197 129.651 60.9197C131.418 60.9197 132.876 59.5696 133.049 57.8462H126.259H126.253Z" fill="#9B8F46"/>
<path d="M136.975 72.7407C137.148 74.4704 138.606 75.8142 140.373 75.8142C142.14 75.8142 143.597 74.4641 143.771 72.7407H136.975Z" fill="#9B8F46"/>
<path d="M166.002 35.7964C166.176 37.526 167.633 38.8699 169.4 38.8699C171.167 38.8699 172.625 37.5198 172.798 35.7964H166.008H166.002Z" fill="#B0A75F"/>
<path d="M176.507 52.1406C176.68 53.8703 178.138 55.2141 179.905 55.2141C181.672 55.2141 183.13 53.864 183.303 52.1406H176.513H176.507Z" fill="#B0A75F"/>
<path d="M212.008 92.1523C212.181 93.882 213.639 95.2259 215.406 95.2259C217.173 95.2259 218.631 93.8757 218.804 92.1523H212.008Z" fill="#B0A75F"/>
<path d="M172.085 79.373C172.259 81.1027 173.716 82.4466 175.484 82.4466C177.251 82.4466 178.708 81.0965 178.882 79.373H172.085Z" fill="#B0A75F"/>
<path d="M110.316 87.9341C110.49 89.6637 111.947 91.0076 113.715 91.0076C115.482 91.0076 116.939 89.6575 117.113 87.9341H110.316Z" fill="#9B8F46"/>
<path d="M147.833 90.0435C148.007 91.7731 149.464 93.117 151.231 93.117C152.999 93.117 154.456 91.7669 154.629 90.0435H147.833Z" fill="#9B8F46"/>
<path d="M143.716 112.629V92.3279C140.591 92.5394 137.986 94.6859 137.106 97.5914C135.704 96.7951 134.086 96.3409 132.362 96.3409C130.638 96.3409 129.162 96.7577 127.81 97.4857V96.0547C127.81 92.6514 125.113 89.8952 121.783 89.8952H118.434C115.104 89.8952 112.407 92.6514 112.407 96.0547V107.565H107.52V106.221C107.52 102.88 104.823 100.173 101.493 100.173H94.473C94.504 99.9183 94.5289 99.6632 94.5289 99.4019V98.3256C94.5289 95.0779 91.9058 92.4461 88.6688 92.4461C88.4766 92.4461 88.2844 92.4585 88.0983 92.4772C87.689 89.5406 85.1776 87.2759 82.1391 87.2759H80.7996C77.4696 87.2759 74.7722 89.9823 74.7722 93.3234V100.628C72.5708 101.53 71.0205 103.695 71.0205 106.227V109.382C71.0205 110.582 71.374 111.702 71.9755 112.642H143.71L143.716 112.629Z" fill="#B0A75F"/>
<path d="M153.632 94.2247C153.632 94.8033 153.16 95.2761 152.584 95.2761C152.007 95.2761 151.536 94.8095 151.536 94.2247V91.6862C151.536 91.1076 152.001 90.6348 152.584 90.6348C153.16 90.6348 153.632 91.1014 153.632 91.6862V94.2247Z" fill="#F9B640"/>
<path d="M152.54 94.032C152.825 94.536 152.645 95.1768 152.143 95.463C151.641 95.7492 151.002 95.5688 150.717 95.0648L149.476 92.8561C149.191 92.3522 149.371 91.7114 149.873 91.4252C150.376 91.139 151.014 91.3194 151.3 91.8233L152.54 94.032Z" fill="#F9B640"/>
<path d="M152.72 94.032C152.434 94.536 152.614 95.1768 153.117 95.463C153.619 95.7492 154.258 95.5688 154.543 95.0648L155.783 92.8561C156.068 92.3522 155.888 91.7114 155.386 91.4252C154.884 91.139 154.245 91.3194 153.96 91.8233L152.72 94.032Z" fill="#F9B640"/>
<path d="M174.659 116.405C173.791 112.529 168.824 94.0941 152.72 93.8701C152.67 93.8701 152.627 93.8701 152.577 93.8701C152.528 93.8701 152.484 93.8701 152.435 93.8701C136.33 94.0941 131.363 112.535 130.495 116.411H174.659V116.405Z" fill="#EC9035"/>
<path d="M136.088 112.112C136.088 112.112 136.088 112.155 136.088 112.174C136.088 112.927 136.696 113.53 137.44 113.53C138.184 113.53 138.792 112.921 138.792 112.174C138.792 112.155 138.792 112.13 138.786 112.112H136.095H136.088Z" fill="#F9B640"/>
<path d="M150.494 108.46C150.494 108.46 150.494 108.504 150.494 108.522C150.494 109.275 151.101 109.879 151.845 109.879C152.59 109.879 153.197 109.269 153.197 108.522C153.197 108.497 153.197 108.479 153.191 108.46H150.5H150.494Z" fill="#F9B640"/>
<path d="M158.921 105.013C158.921 105.013 158.921 105.057 158.921 105.075C158.921 105.828 159.529 106.432 160.273 106.432C161.017 106.432 161.625 105.822 161.625 105.075C161.625 105.057 161.625 105.032 161.625 105.013H158.927H158.921Z" fill="#F9B640"/>
<path d="M144.069 103.259C144.069 103.259 144.069 103.302 144.069 103.321C144.069 104.074 144.677 104.677 145.421 104.677C146.165 104.677 146.773 104.068 146.773 103.321C146.773 103.302 146.773 103.277 146.773 103.259H144.082H144.069Z" fill="#F9B640"/>
<path d="M164.012 110.812C164.012 110.812 164.006 110.855 164.006 110.874C164.006 111.627 164.614 112.23 165.358 112.23C166.102 112.23 166.71 111.62 166.71 110.874C166.71 110.855 166.71 110.83 166.71 110.812H164.012Z" fill="#F9B640"/>
<path d="M143.177 100.285L147.858 97.1677L149.173 101.691L151.976 97.4726L154.692 101.604L156.05 97.1677L160.862 100.77L160.558 96.95L164.105 97.8708C161.135 95.5377 157.402 93.9387 152.726 93.8765C152.677 93.8765 152.633 93.8765 152.584 93.8765C152.534 93.8765 152.491 93.8765 152.441 93.8765C146.984 93.9573 142.811 96.1225 139.636 99.1027L144.187 97.0869L143.183 100.291L143.177 100.285Z" fill="#F9B640"/>
<path d="M65.5935 113.855C65.5935 114.384 65.1595 114.813 64.6386 114.813C64.1053 114.813 63.6836 114.378 63.6836 113.855V94.1261C63.6836 93.5973 64.1115 93.168 64.6386 93.168C65.1595 93.168 65.5935 93.5973 65.5935 94.1261V113.855Z" fill="#996441"/>
<path d="M72.1544 80.9858C70.8273 69.177 64.7007 56.435 64.5766 56.1799L64.5704 56.1675V56.1799C64.4526 56.435 58.3197 69.177 56.9927 80.9858C55.3308 95.7747 64.5084 95.4138 64.5766 95.4076C64.6386 95.4138 73.8163 95.7747 72.1544 80.9858Z" fill="#01977B"/>
<path d="M72.1543 80.9858C70.8273 69.177 64.7006 56.435 64.5766 56.1799L64.5704 56.1675V56.1799C64.5704 56.1799 64.5518 56.2235 64.5332 56.267V95.4076H64.5766C64.6386 95.4138 73.8162 95.7747 72.1543 80.9858Z" fill="#017D6B"/>
<path d="M54.0723 114.16C54.0723 114.645 53.6816 115.037 53.1979 115.037C52.7081 115.037 52.3174 114.645 52.3174 114.16V96.03C52.3174 95.5384 52.7081 95.1465 53.1979 95.1465C53.6816 95.1465 54.0723 95.5384 54.0723 96.03V114.16Z" fill="#996441"/>
<path d="M60.0998 83.9598C58.8781 73.1154 53.2538 61.4062 53.1421 61.176C53.0305 61.4124 47.3999 73.1154 46.1845 83.9598C44.659 97.5542 53.0925 97.2182 53.1483 97.212C53.2103 97.2182 61.6376 97.5542 60.1122 83.9598H60.0998Z" fill="#94CB49"/>
<path d="M60.0998 83.9598C58.8782 73.1154 53.2538 61.4062 53.1422 61.176C53.1422 61.176 53.1236 61.2133 53.105 61.2569V97.2182H53.1422C53.2042 97.2244 61.6315 97.5604 60.1122 83.966L60.0998 83.9598Z" fill="#7BAC4E"/>
<path d="M49.5705 77.5952C49.5705 77.9498 49.2852 78.2422 48.9256 78.2422H47.1706C46.8172 78.2422 46.5195 77.9498 46.5195 77.5952C46.5195 77.2343 46.811 76.9419 47.1706 76.9419H48.9256C49.2852 76.9419 49.5705 77.2343 49.5705 77.5952Z" fill="#7BAC4E"/>
<path d="M52.3173 84.3208C52.3173 84.7252 51.9887 85.0488 51.5918 85.0488H50.3702C49.9671 85.0488 49.6509 84.7252 49.6509 84.3208C49.6509 83.9164 49.9671 83.5991 50.3702 83.5991H51.5918C51.9887 83.5991 52.3173 83.9226 52.3173 84.3208Z" fill="#7BAC4E"/>
<path d="M48.8882 90.5921C48.8882 90.8721 48.665 91.0898 48.3921 91.0898H47.2511C46.9783 91.0898 46.7612 90.8659 46.7612 90.5921C46.7612 90.3246 46.9783 90.1006 47.2511 90.1006H48.3921C48.665 90.1006 48.8882 90.3246 48.8882 90.5921Z" fill="#7BAC4E"/>
<path d="M58.5743 75.6788C58.5743 76.0397 58.2829 76.3321 57.9232 76.3321H56.6272C56.2737 76.3321 55.9761 76.0397 55.9761 75.6788C55.9761 75.3242 56.2675 75.0317 56.6272 75.0317H57.9232C58.2767 75.0317 58.5743 75.3242 58.5743 75.6788Z" fill="#94CB49"/>
<path d="M56.3604 68.3745C56.3604 68.5861 56.1929 68.7603 55.9821 68.7603H54.9899C54.7791 68.7603 54.6055 68.5861 54.6055 68.3745C54.6055 68.163 54.7729 67.9888 54.9899 67.9888H55.9821C56.1929 67.9888 56.3604 68.163 56.3604 68.3745Z" fill="#94CB49"/>
<path d="M58.3449 88.6074C58.3449 88.962 58.0534 89.2544 57.7 89.2544H56.2489C55.8955 89.2544 55.604 88.962 55.604 88.6074C55.604 88.2465 55.8955 87.9541 56.2489 87.9541H57.7C58.0534 87.9541 58.3449 88.2465 58.3449 88.6074Z" fill="#94CB49"/>
<path d="M84.5816 115.883C84.5816 116.231 84.2964 116.524 83.9429 116.524C83.5894 116.524 83.3042 116.237 83.3042 115.883V102.755C83.3042 102.4 83.5894 102.114 83.9429 102.114C84.2902 102.114 84.5816 102.4 84.5816 102.755V115.883Z" fill="#996441"/>
<path d="M88.9411 94.0263C88.0605 86.1683 83.9864 77.6944 83.8996 77.5264C83.819 77.6944 79.7387 86.1683 78.8581 94.0263C77.7543 103.869 83.8562 103.626 83.8996 103.62C83.943 103.62 90.0449 103.869 88.9411 94.0263Z" fill="#94CB49"/>
<path d="M88.9413 94.0263C88.0607 86.1683 83.9866 77.6944 83.8998 77.5264C83.8998 77.5264 83.8874 77.5575 83.875 77.5824V103.62H83.906C83.9494 103.62 90.0513 103.869 88.9475 94.0263H88.9413Z" fill="#7BAC4E"/>
<path d="M236.565 100.98L235.988 100.532L233.551 103.68V100.999H232.664V112.689H233.551V104.863L236.565 100.98Z" fill="#825E06"/>
<path d="M240.192 93.9124C240.192 98.5911 237.247 102.386 233.619 102.386C229.991 102.386 227.046 98.5911 227.046 93.9124C227.046 89.2337 229.985 85.4385 233.619 85.4385C237.253 85.4385 240.192 89.2337 240.192 93.9124Z" fill="#C4D606"/>
<path d="M233.712 85.4448V102.38C237.302 102.318 240.192 98.5539 240.192 93.9125C240.192 89.2712 237.296 85.507 233.712 85.4448Z" fill="#B4BC0D"/>
<path d="M225.898 103.799H225.067V112.198H225.898V103.799Z" fill="#825E06"/>
<path d="M231.728 97.9254C231.728 101.403 228.918 104.215 225.458 104.215C221.998 104.215 219.189 101.403 219.189 97.9254C219.189 94.4475 221.998 91.6353 225.458 91.6353C228.918 91.6353 231.728 94.4537 231.728 97.9254Z" fill="#FC9B00"/>
<path d="M225.458 91.6353V104.215C228.919 104.215 231.728 101.403 231.728 97.9254C231.728 94.4475 228.919 91.6415 225.458 91.6353Z" fill="#FC7C00"/>
<path d="M223.592 101.018C223.592 101.372 223.3 101.665 222.947 101.665C222.593 101.665 222.302 101.372 222.302 101.018C222.302 100.663 222.593 100.377 222.947 100.377C223.3 100.377 223.592 100.663 223.592 101.018Z" fill="#F9ED32"/>
<path d="M220.07 98.3734C220.07 98.6721 219.828 98.9085 219.536 98.9085C219.245 98.9085 219.003 98.6659 219.003 98.3734C219.003 98.081 219.245 97.8384 219.536 97.8384C219.828 97.8384 220.07 98.0748 220.07 98.3734Z" fill="#F9ED32"/>
<path d="M224.752 94.2859C224.752 94.5846 224.51 94.8272 224.218 94.8272C223.927 94.8272 223.679 94.5846 223.679 94.2859C223.679 93.9873 223.921 93.7446 224.218 93.7446C224.516 93.7446 224.752 93.9873 224.752 94.2859Z" fill="#F9ED32"/>
<path d="M229.21 99.9228C229.21 100.221 228.974 100.464 228.677 100.464C228.379 100.464 228.137 100.221 228.137 99.9228C228.137 99.6241 228.379 99.3877 228.677 99.3877C228.974 99.3877 229.21 99.6303 229.21 99.9228Z" fill="#E2D02D"/>
<path d="M236.962 113.411C236.496 112.005 235.182 110.985 233.625 110.985C233.446 110.985 233.272 110.997 233.098 111.028C232.844 110.506 232.305 110.139 231.678 110.139C231.573 110.139 231.467 110.151 231.368 110.164C231.312 108.938 230.308 107.961 229.068 107.961C228.726 107.961 228.404 108.036 228.113 108.173C227.803 107.258 226.953 106.592 225.936 106.592C224.727 106.592 223.747 107.532 223.648 108.714C223.418 108.621 223.17 108.565 222.904 108.565C222.482 108.565 222.098 108.701 221.787 108.925C221.471 108.353 220.876 107.955 220.175 107.955C219.239 107.955 218.47 108.658 218.352 109.572C218.036 109.342 217.645 109.205 217.223 109.205C216.517 109.205 215.903 109.585 215.562 110.157C215.493 110.157 215.431 110.139 215.369 110.139C213.528 110.139 212.033 111.588 211.928 113.411H236.974H236.962Z" fill="#8EB936"/>
<path d="M232.069 112.621H229.142L230.723 111.06L232.069 112.621Z" fill="#7B9E23"/>
<path d="M226.543 110.562H223.61L225.198 109L226.543 110.562Z" fill="#7B9E23"/>
<path d="M218.625 112.69H215.698L217.285 111.134L218.625 112.69Z" fill="#7B9E23"/>
<path d="M220.008 90.0815C220.008 95.2455 215.828 99.4389 210.681 99.4389C205.535 99.4389 201.355 95.2517 201.355 90.0815C201.355 84.9113 205.528 80.7241 210.681 80.7241C215.835 80.7241 220.008 84.9113 220.008 90.0815Z" fill="#FC7C00"/>
<path d="M206.291 88.6377C206.291 97.1988 199.371 104.142 190.838 104.142C182.305 104.142 175.385 97.1988 175.385 88.6377C175.385 80.0767 182.305 73.1333 190.838 73.1333C199.371 73.1333 206.291 80.0767 206.291 88.6377Z" fill="#FC7C00"/>
<path d="M212.616 94.4056C212.616 98.935 208.951 102.612 204.437 102.612C199.923 102.612 196.258 98.935 196.258 94.4056C196.258 89.8762 199.923 86.1992 204.437 86.1992C208.951 86.1992 212.616 89.87 212.616 94.4056Z" fill="#FC9B00"/>
<path d="M221.236 68.2805C221.236 76.2256 214.818 82.6651 206.899 82.6651C198.98 82.6651 192.562 76.2256 192.562 68.2805C192.562 60.3354 198.98 53.896 206.899 53.896C214.818 53.896 221.236 60.3354 221.236 68.2805Z" fill="#FC7C00"/>
<path d="M208.747 70.9247C208.747 76.9224 203.904 81.7815 197.926 81.7815C191.948 81.7815 187.105 76.9224 187.105 70.9247C187.105 64.927 191.948 60.0679 197.926 60.0679C203.904 60.0679 208.747 64.927 208.747 70.9247Z" fill="#FC9B00"/>
<path d="M192.587 78.6086C192.587 87.1385 185.691 94.057 177.189 94.057C168.688 94.057 161.792 87.1385 161.792 78.6086C161.792 70.0787 168.688 63.1602 177.189 63.1602C185.691 63.1602 192.587 70.0724 192.587 78.6086Z" fill="#FC9B00"/>
<path d="M226.538 80.5561C226.538 85.7823 222.315 90.013 217.106 90.013C211.897 90.013 207.68 85.7823 207.68 80.5561C207.68 75.3299 211.903 71.0991 217.106 71.0991C222.309 71.0991 226.538 75.3299 226.538 80.5561Z" fill="#FC9B00"/>
<path d="M218.47 85.745H211.518V82.5221H215.81C215.847 82.5221 215.89 82.5221 215.94 82.5221C216.392 82.5221 217.335 82.4102 218.234 81.6013C219.443 80.5125 220.057 78.6212 220.057 75.9894C220.057 75.193 219.419 74.5522 218.625 74.5522C217.831 74.5522 217.199 75.193 217.199 75.9894C217.199 78.6523 216.442 79.6353 216.02 79.654H216.033L211.525 79.6477V77.5697C211.525 76.7795 210.886 76.1325 210.092 76.1325C209.298 76.1325 208.66 76.7733 208.66 77.5697V87.176C208.66 87.8106 208.443 88.0781 208.281 88.2212C207.599 88.8309 206.111 88.8123 205.658 88.7625L196.915 88.7501V77.8186L204.772 68.4425L217.403 67.7892C218.457 67.7332 219.264 66.8373 219.208 65.7796C219.152 64.7219 218.253 63.9131 217.205 63.9691L205.64 64.5664L205.286 58.5127C205.224 57.4612 204.325 56.6648 203.271 56.7146C202.217 56.7768 201.417 57.6852 201.473 58.7367L201.894 65.9227L194.459 74.7886H193.969L189.753 61.6609C189.43 60.6529 188.357 60.0992 187.353 60.4227C186.348 60.7463 185.803 61.8226 186.125 62.8305L189.963 74.7824H189.951V96.6889H184.996C184.674 96.6391 182.807 96.2223 182.807 92.875V81.4582C182.807 80.6681 182.169 80.0273 181.375 80.0273C180.581 80.0273 179.942 80.6681 179.942 81.4582V85.0419H175.533C175.137 84.9299 174.417 84.5504 174.417 83.2376V75.6783C174.417 74.8819 173.779 74.2411 172.985 74.2411C172.191 74.2411 171.559 74.8819 171.559 75.6783V83.2376C171.559 86.4605 173.903 87.6924 175.149 87.8915L179.942 87.9039V92.875C179.942 97.8213 183.111 99.4078 184.786 99.5509H189.945V112.859H196.896V91.6058H205.386C205.534 91.6182 205.807 91.6431 206.161 91.6431C207.202 91.6431 208.926 91.4503 210.154 90.3615C210.694 89.8886 211.053 89.2789 211.27 88.5945H218.457C219.245 88.5945 219.89 87.9537 219.89 87.1635C219.89 86.3734 219.251 85.7263 218.457 85.7263L218.47 85.745Z" fill="#8B5C3E"/>
<path d="M224.032 66.5388C224.032 70.0229 221.217 72.8476 217.744 72.8476C214.272 72.8476 211.457 70.0229 211.457 66.5388C211.457 63.0546 214.272 60.23 217.744 60.23C221.217 60.23 224.032 63.0546 224.032 66.5388Z" fill="#FC9B00"/>
<path d="M206.471 56.7642C206.471 59.8501 203.972 62.3513 200.896 62.3513C197.82 62.3513 195.321 59.8501 195.321 56.7642C195.321 53.6782 197.814 51.1709 200.896 51.1709C203.978 51.1709 206.471 53.672 206.471 56.7642Z" fill="#FC9B00"/>
<path d="M196.593 57.6167C196.593 64.2116 191.266 69.5561 184.693 69.5561C178.12 69.5561 172.793 64.2116 172.793 57.6167C172.793 51.0217 178.12 45.6772 184.693 45.6772C191.266 45.6772 196.593 51.0217 196.593 57.6167Z" fill="#FC9B00"/>
<path d="M128.734 112.542C128.082 110.57 126.241 109.145 124.064 109.145C123.81 109.145 123.568 109.17 123.326 109.207C122.967 108.473 122.21 107.957 121.336 107.957C121.187 107.957 121.038 107.969 120.895 108C120.815 106.283 119.407 104.908 117.683 104.908C117.206 104.908 116.753 105.02 116.344 105.207C115.91 103.925 114.713 102.992 113.287 102.992C111.594 102.992 110.217 104.304 110.081 105.966C109.764 105.835 109.411 105.76 109.045 105.76C108.456 105.76 107.923 105.953 107.476 106.271C107.042 105.468 106.199 104.914 105.219 104.914C103.904 104.914 102.832 105.903 102.664 107.179C102.218 106.862 101.672 106.669 101.083 106.669C100.091 106.669 99.2287 107.204 98.7513 108C98.6582 108 98.5714 107.969 98.4846 107.969C95.905 107.969 93.8152 110.004 93.6602 112.548H128.734V112.542Z" fill="#8EB936"/>
<path d="M112.71 107.907H110.18L111.55 106.563L112.71 107.907Z" fill="#7B9E23"/>
<path d="M105.746 109.686H103.216L104.586 108.336L105.746 109.686Z" fill="#7B9E23"/>
<path d="M99.3093 111.441H96.7793L98.1497 110.097L99.3093 111.441Z" fill="#7B9E23"/>
<path d="M120.027 108.585H117.497L118.868 107.235L120.027 108.585Z" fill="#7B9E23"/>
<path d="M115.066 113.002C115.042 112.368 114.533 111.857 113.888 111.857C113.318 111.857 112.865 112.268 112.747 112.809C112.636 112.268 112.177 111.857 111.612 111.857C110.992 111.857 110.49 112.343 110.44 112.952C110.391 112.343 109.895 111.857 109.268 111.857C108.686 111.857 108.214 112.293 108.115 112.859C108.022 112.293 107.557 111.857 106.968 111.857C106.379 111.857 105.945 112.268 105.827 112.809C105.709 112.268 105.256 111.857 104.686 111.857C104.115 111.857 103.632 112.293 103.532 112.859C103.439 112.293 102.974 111.857 102.385 111.857C101.747 111.857 101.232 112.368 101.207 113.002H115.066Z" fill="#7B9E23"/>
<path d="M103.018 109.468H102.801V112.542H103.018V109.468Z" fill="#7B9E23"/>
<path d="M103.83 107.459C103.83 107.459 103.408 107.714 103.303 108.069C103.136 107.652 102.956 107.502 102.956 107.502C102.838 107.627 102.652 107.876 102.584 108.044C102.435 107.739 102.094 107.459 102.094 107.459V108.585C102.094 108.803 102.075 109.014 102.131 109.226C102.181 109.406 102.274 109.556 102.422 109.668C102.491 109.724 102.59 109.786 102.677 109.811C102.764 109.842 102.869 109.854 102.962 109.854C103.049 109.854 103.148 109.829 103.235 109.804C103.322 109.773 103.408 109.736 103.489 109.686C103.644 109.574 103.749 109.412 103.793 109.226C103.855 108.977 103.836 108.716 103.836 108.461V107.583C103.836 107.583 103.83 107.459 103.836 107.453L103.83 107.459Z" fill="#FBB040"/>
<path d="M114.372 109.798H114.155V111.975H114.372V109.798Z" fill="#7B9E23"/>
<path d="M115.184 107.788C115.184 107.788 114.763 108.05 114.657 108.404C114.49 107.988 114.31 107.838 114.31 107.838C114.192 107.963 114.006 108.212 113.938 108.386C113.795 108.081 113.454 107.788 113.454 107.788V108.921C113.454 109.139 113.436 109.35 113.491 109.562C113.535 109.736 113.634 109.891 113.777 109.997C113.851 110.053 113.944 110.115 114.031 110.146C114.124 110.178 114.223 110.19 114.322 110.19C114.409 110.19 114.508 110.159 114.595 110.134C114.682 110.115 114.769 110.078 114.843 110.022C115.004 109.91 115.104 109.742 115.147 109.562C115.209 109.307 115.184 109.051 115.19 108.796V107.919C115.19 107.919 115.19 107.788 115.19 107.782L115.184 107.788Z" fill="#FBB040"/>
<path d="M107.637 107.378H107.42V112.442H107.637V107.378Z" fill="#7B9E23"/>
<path d="M108.45 105.368C108.45 105.368 108.028 105.623 107.923 105.978C107.755 105.561 107.575 105.412 107.575 105.412C107.458 105.542 107.272 105.791 107.203 105.959C107.061 105.661 106.72 105.368 106.72 105.368V106.501C106.72 106.712 106.695 106.93 106.757 107.135C106.807 107.309 106.9 107.465 107.042 107.577C107.117 107.627 107.21 107.689 107.296 107.72C107.383 107.751 107.489 107.77 107.582 107.77C107.669 107.77 107.768 107.739 107.855 107.72C107.948 107.689 108.028 107.652 108.109 107.602C108.264 107.496 108.369 107.328 108.406 107.148C108.468 106.892 108.45 106.637 108.45 106.382V105.511C108.45 105.511 108.444 105.381 108.45 105.374V105.368Z" fill="#FBB040"/>
<path d="M105.995 119C105.963 118.197 105.312 117.55 104.506 117.55C103.787 117.55 103.216 118.067 103.074 118.745C102.925 118.067 102.354 117.55 101.635 117.55C100.854 117.55 100.221 118.16 100.159 118.932C100.097 118.166 99.471 117.55 98.6896 117.55C97.9455 117.55 97.3626 118.098 97.2386 118.807C97.1207 118.104 96.5316 117.55 95.7875 117.55C95.0434 117.55 94.4977 118.067 94.3488 118.745C94.2 118.067 93.6295 117.55 92.9164 117.55C92.2033 117.55 91.5894 118.098 91.4653 118.807C91.3475 118.104 90.7584 117.55 90.0205 117.55C89.2143 117.55 88.5694 118.197 88.5322 119H106.001H105.995Z" fill="#7B9E23"/>
<path d="M125.249 108.87C127.993 108.87 130.216 106.639 130.216 103.887C130.216 101.135 127.993 98.9033 125.249 98.9033C122.506 98.9033 120.282 101.135 120.282 103.887C120.282 106.639 122.506 108.87 125.249 108.87Z" fill="#F9B640"/>
<path d="M126.806 103.887C126.806 104.752 126.111 105.448 125.249 105.448C124.387 105.448 123.693 104.752 123.693 103.887C123.693 103.022 124.387 102.325 125.249 102.325C126.111 102.325 126.806 103.022 126.806 103.887Z" fill="#EC9035"/>
<path d="M125.249 108.105C122.93 108.105 121.045 106.214 121.045 103.887C121.045 101.56 122.93 99.6685 125.249 99.6685C127.568 99.6685 129.454 101.56 129.454 103.887C129.454 106.214 127.568 108.105 125.249 108.105ZM125.249 100.06C123.147 100.06 121.436 101.778 121.436 103.887C121.436 105.996 123.147 107.713 125.249 107.713C127.351 107.713 129.063 105.996 129.063 103.887C129.063 101.778 127.351 100.06 125.249 100.06Z" fill="#EC9035"/>
<path d="M125.249 106.985C123.544 106.985 122.161 105.592 122.161 103.887C122.161 102.182 123.55 100.789 125.249 100.789C126.948 100.789 128.337 102.182 128.337 103.887C128.337 105.592 126.948 106.985 125.249 106.985ZM125.249 101.181C123.761 101.181 122.552 102.394 122.552 103.887C122.552 105.38 123.761 106.593 125.249 106.593C126.738 106.593 127.947 105.38 127.947 103.887C127.947 102.394 126.738 101.181 125.249 101.181Z" fill="#EC9035"/>
<path d="M125.293 112.429C125.293 115.179 123.066 117.413 120.325 117.413C117.585 117.413 115.358 115.179 115.358 112.429C115.358 109.679 117.585 107.446 120.325 107.446C123.066 107.446 125.293 109.679 125.293 112.429Z" fill="#F9B640"/>
<path d="M121.882 112.429C121.882 113.294 121.187 113.991 120.326 113.991C119.464 113.991 118.769 113.294 118.769 112.429C118.769 111.565 119.464 110.868 120.326 110.868C121.187 110.868 121.882 111.565 121.882 112.429Z" fill="#EC9035"/>
<path d="M120.325 116.648C118.006 116.648 116.115 114.756 116.115 112.429C116.115 110.102 118 108.211 120.325 108.211C122.651 108.211 124.53 110.102 124.53 112.429C124.53 114.756 122.644 116.648 120.325 116.648ZM120.325 108.603C118.223 108.603 116.512 110.32 116.512 112.429C116.512 114.538 118.223 116.256 120.325 116.256C122.427 116.256 124.139 114.538 124.139 112.429C124.139 110.32 122.427 108.603 120.325 108.603Z" fill="#EC9035"/>
<path d="M120.325 115.528C118.62 115.528 117.237 114.134 117.237 112.429C117.237 110.725 118.626 109.331 120.325 109.331C122.025 109.331 123.414 110.725 123.414 112.429C123.414 114.134 122.025 115.528 120.325 115.528ZM120.325 109.723C118.837 109.723 117.628 110.936 117.628 112.429C117.628 113.923 118.837 115.136 120.325 115.136C121.814 115.136 123.023 113.923 123.023 112.429C123.023 110.936 121.814 109.723 120.325 109.723Z" fill="#EC9035"/>
<path d="M135.14 112.429C135.14 115.179 132.914 117.413 130.173 117.413C127.432 117.413 125.206 115.179 125.206 112.429C125.206 109.679 127.432 107.446 130.173 107.446C132.914 107.446 135.14 109.679 135.14 112.429Z" fill="#F9B640"/>
<path d="M131.729 112.429C131.729 113.294 131.035 113.991 130.173 113.991C129.311 113.991 128.616 113.294 128.616 112.429C128.616 111.565 129.311 110.868 130.173 110.868C131.035 110.868 131.729 111.565 131.729 112.429Z" fill="#EC9035"/>
<path d="M130.172 116.648C127.853 116.648 125.962 114.756 125.962 112.429C125.962 110.102 127.847 108.211 130.172 108.211C132.498 108.211 134.377 110.102 134.377 112.429C134.377 114.756 132.492 116.648 130.172 116.648ZM130.172 108.603C128.07 108.603 126.359 110.32 126.359 112.429C126.359 114.538 128.07 116.256 130.172 116.256C132.275 116.256 133.986 114.538 133.986 112.429C133.986 110.32 132.275 108.603 130.172 108.603Z" fill="#EC9035"/>
<path d="M130.173 115.528C128.467 115.528 127.084 114.134 127.084 112.429C127.084 110.725 128.474 109.331 130.173 109.331C131.872 109.331 133.261 110.725 133.261 112.429C133.261 114.134 131.872 115.528 130.173 115.528ZM130.173 109.723C128.684 109.723 127.475 110.936 127.475 112.429C127.475 113.923 128.684 115.136 130.173 115.136C131.661 115.136 132.87 113.923 132.87 112.429C132.87 110.936 131.661 109.723 130.173 109.723Z" fill="#EC9035"/>
<path d="M189.324 117.275C189.324 114.942 190.571 114.967 190.571 114.967C191.997 114.967 191.904 116.547 191.904 117.275H192.97C193.138 114.046 190.657 113.978 190.657 113.978H187.117C186.422 113.978 186.509 113.038 186.509 113.038V108.167H178.851V117.269H189.324V117.275Z" fill="#885A36"/>
<path d="M179.508 115.44C179.508 116.006 179.967 116.466 180.537 116.466C181.101 116.466 181.56 116.012 181.56 115.44V109.759C181.56 109.193 181.101 108.733 180.537 108.733C179.973 108.733 179.508 109.193 179.508 109.759V115.44Z" fill="#A97D50"/>
<path d="M183.539 114.301C183.539 114.631 183.805 114.898 184.134 114.898C184.463 114.898 184.729 114.631 184.729 114.301V109.274C184.729 108.944 184.463 108.677 184.134 108.677C183.805 108.677 183.539 108.944 183.539 109.274V114.301Z" fill="#A97D50"/>
<path d="M182.025 111.327C182.025 111.576 182.224 111.775 182.466 111.775C182.714 111.775 182.912 111.576 182.912 111.327V109.38C182.912 109.131 182.714 108.932 182.466 108.932C182.224 108.932 182.025 109.131 182.025 109.38V111.327Z" fill="#A97D50"/>
<path d="M195.569 113.666C195.569 114.991 196.642 116.068 197.963 116.068H212.027C213.348 116.068 214.421 114.991 214.421 113.666C214.421 112.335 213.348 111.258 212.027 111.258H197.963C196.642 111.258 195.569 112.335 195.569 113.666Z" fill="#684214"/>
<path d="M195.898 113.691C195.898 114.792 196.599 115.682 197.461 115.682C198.323 115.682 199.023 114.792 199.023 113.691C199.023 112.59 198.323 111.7 197.461 111.7C196.599 111.7 195.898 112.59 195.898 113.691Z" fill="#E0BA73"/>
<path d="M196.555 113.716C196.555 114.282 196.915 114.736 197.355 114.736C197.795 114.736 198.155 114.282 198.155 113.716C198.155 113.149 197.795 112.695 197.355 112.695C196.915 112.695 196.555 113.149 196.555 113.716Z" fill="#AA834B"/>
<path d="M197.455 109.18C197.455 110.506 198.527 111.582 199.848 111.582H213.906C215.227 111.582 216.3 110.506 216.3 109.18C216.3 107.849 215.227 106.779 213.906 106.779H199.848C198.527 106.779 197.455 107.855 197.455 109.18Z" fill="#774C12"/>
<path d="M197.783 109.199C197.783 110.3 198.484 111.19 199.346 111.19C200.208 111.19 200.909 110.3 200.909 109.199C200.909 108.098 200.208 107.208 199.346 107.208C198.484 107.208 197.783 108.098 197.783 109.199Z" fill="#E0BA73"/>
<path d="M198.509 109.199C198.509 109.79 198.881 110.263 199.34 110.263C199.799 110.263 200.177 109.79 200.177 109.199C200.177 108.608 199.805 108.135 199.34 108.135C198.875 108.135 198.509 108.608 198.509 109.199Z" fill="#BF9256"/>
<path d="M199.879 105.124C199.879 106.449 200.952 107.525 202.273 107.525H216.337C217.657 107.525 218.73 106.449 218.73 105.124C218.73 103.792 217.657 102.722 216.337 102.722H202.273C200.952 102.722 199.879 103.799 199.879 105.124Z" fill="#916017"/>
<path d="M200.201 105.149C200.201 106.25 200.902 107.14 201.764 107.14C202.626 107.14 203.327 106.25 203.327 105.149C203.327 104.047 202.626 103.158 201.764 103.158C200.902 103.158 200.201 104.047 200.201 105.149Z" fill="#E0BA73"/>
<path d="M200.828 105.186C200.828 105.777 201.2 106.25 201.659 106.25C202.117 106.25 202.49 105.777 202.49 105.186C202.49 104.595 202.117 104.122 201.659 104.122C201.2 104.122 200.828 104.595 200.828 105.186Z" fill="#C19556"/>
<path d="M200.195 113.666C200.195 114.991 201.268 116.068 202.589 116.068H216.653C217.974 116.068 219.047 114.991 219.047 113.666C219.047 112.335 217.974 111.258 216.653 111.258H202.589C201.268 111.258 200.195 112.335 200.195 113.666Z" fill="#916017"/>
<path d="M200.524 113.691C200.524 114.792 201.218 115.682 202.087 115.682C202.955 115.682 203.649 114.792 203.649 113.691C203.649 112.59 202.949 111.7 202.087 111.7C201.225 111.7 200.524 112.59 200.524 113.691Z" fill="#E0BA73"/>
<path d="M201.237 113.691C201.237 114.232 201.578 114.668 202.006 114.668C202.434 114.668 202.775 114.232 202.775 113.691C202.775 113.15 202.434 112.714 202.006 112.714C201.578 112.714 201.237 113.15 201.237 113.691Z" fill="#B28447"/>
<path d="M202.391 109.18C202.391 110.506 203.463 111.582 204.784 111.582H218.848C220.169 111.582 221.248 110.506 221.248 109.18C221.248 107.849 220.175 106.779 218.848 106.779H204.784C203.463 106.779 202.391 107.855 202.391 109.18Z" fill="#A06C20"/>
<path d="M202.713 109.199C202.713 110.3 203.414 111.19 204.276 111.19C205.138 111.19 205.838 110.3 205.838 109.199C205.838 108.098 205.138 107.208 204.276 107.208C203.414 107.208 202.713 108.098 202.713 109.199Z" fill="#E0BA73"/>
<path d="M203.389 109.224C203.389 109.809 203.755 110.275 204.214 110.275C204.673 110.275 205.039 109.802 205.039 109.224C205.039 108.645 204.667 108.172 204.214 108.172C203.761 108.172 203.389 108.645 203.389 109.224Z" fill="#AA834B"/>
<path d="M205.131 113.666C205.131 114.991 206.204 116.068 207.525 116.068H221.589C222.91 116.068 223.983 114.991 223.983 113.666C223.983 112.335 222.91 111.258 221.589 111.258H207.525C206.204 111.258 205.131 112.335 205.131 113.666Z" fill="#AF762B"/>
<path d="M205.454 113.691C205.454 114.792 206.154 115.682 207.016 115.682C207.878 115.682 208.579 114.792 208.579 113.691C208.579 112.59 207.878 111.7 207.016 111.7C206.154 111.7 205.454 112.59 205.454 113.691Z" fill="#E0BA73"/>
<path d="M205.975 113.753C205.975 114.369 206.365 114.867 206.849 114.867C207.333 114.867 207.723 114.369 207.723 113.753C207.723 113.137 207.333 112.64 206.849 112.64C206.365 112.64 205.975 113.137 205.975 113.753Z" fill="#C19556"/>
<path d="M209.28 99.9287C209.28 99.9287 207.909 99.543 207.153 98.2488C206.396 96.9547 205.646 96.1708 204.796 96.0215C204.468 96.1024 203.773 97.272 203.761 97.72C203.841 97.9191 205.274 97.7822 206.08 98.7279C206.892 99.6736 207.581 100.52 208.201 100.713C208.821 100.906 209.484 100.943 209.274 99.9287H209.28Z" fill="#774C12"/>
<path d="M209.081 103.444C209.187 102.716 209.516 101.64 210.421 100.227C210.421 100.227 209.906 99.5742 208.889 99.3066C208.889 99.3066 207.947 101.117 206.682 102.032C207.345 102.959 208.542 103.32 209.088 103.444H209.081Z" fill="#BCBEC0"/>
<path d="M205.603 102.517C205.603 102.517 206.632 104.253 209.112 104.583C209.112 104.583 208.976 104.197 209.081 103.444C208.542 103.32 207.339 102.959 206.675 102.032C206.34 102.274 205.975 102.455 205.603 102.517Z" fill="#F1F2F2"/>
<path d="M208.864 105.031C208.864 105.031 207.562 103.295 205.485 102.928L208.864 105.031Z" fill="#916017"/>
<g clip-path="url(#clip0_3619_321361)">
<path d="M60.7198 35.4C58.2198 29.71 52.5298 25.72 45.9098 25.72C45.2898 25.72 44.6798 25.77 44.0698 25.83C41.3798 21.03 36.2598 17.79 30.3598 17.79C24.4598 17.79 19.3498 21.04 16.6598 25.83C16.0498 25.77 15.4398 25.72 14.8198 25.72C8.19977 25.72 2.50977 29.71 0.00976562 35.4H60.7298H60.7198Z" fill="white"/>
<path d="M231.12 13.87C229.15 9.39 224.67 6.25 219.45 6.25C218.96 6.25 218.48 6.29 218 6.34C215.88 2.56 211.84 0 207.2 0C202.56 0 198.53 2.56 196.41 6.34C195.93 6.29 195.45 6.25 194.96 6.25C189.75 6.25 185.26 9.39 183.29 13.87H231.12Z" fill="white"/>
</g>
<defs>
<clipPath id="clip0_3619_321361">
<rect width="231.12" height="35.4" fill="white"/>
</clipPath>
</defs>
</svg>
