<svg width="209" height="96" viewBox="0 0 209 96" fill="none" xmlns="http://www.w3.org/2000/svg">
<path d="M208.833 89.0276L119.822 0.555285C118.39 -0.185095 116.058 -0.185095 114.626 0.555285L5.53613 89.0276H208.833Z" fill="#B0A75F"/>
<path d="M208.833 89.0276L119.822 0.555285C118.39 -0.185095 116.058 -0.185095 114.626 0.555285L5.53613 89.0276H208.833Z" fill="black" fill-opacity="0.6"/>
<path d="M119.822 0.555416C119.016 0.138563 117.925 -0.0356439 116.871 0.0141295V89.0215H208.827L119.822 0.555416Z" fill="#9B8F46"/>
<path d="M119.822 0.555416C119.016 0.138563 117.925 -0.0356439 116.871 0.0141295V89.0215H208.827L119.822 0.555416Z" fill="black" fill-opacity="0.6"/>
<path d="M105.467 19.4878C105.64 21.2174 107.098 22.5613 108.865 22.5613C110.632 22.5613 112.09 21.2112 112.263 19.4878H105.467Z" fill="#9B8F46"/>
<path d="M105.467 19.4878C105.64 21.2174 107.098 22.5613 108.865 22.5613C110.632 22.5613 112.09 21.2112 112.263 19.4878H105.467Z" fill="black" fill-opacity="0.6"/>
<path d="M80.2529 33.8477C80.4266 35.5773 81.8838 36.9212 83.6511 36.9212C85.4184 36.9212 86.8757 35.5711 87.0493 33.8477H80.2591H80.2529Z" fill="#9B8F46"/>
<path d="M80.2529 33.8477C80.4266 35.5773 81.8838 36.9212 83.6511 36.9212C85.4184 36.9212 86.8757 35.5711 87.0493 33.8477H80.2591H80.2529Z" fill="black" fill-opacity="0.6"/>
<path d="M90.9746 48.7422C91.1482 50.4718 92.6055 51.8157 94.3728 51.8157C96.1401 51.8157 97.5974 50.4656 97.771 48.7422H90.9746Z" fill="#9B8F46"/>
<path d="M90.9746 48.7422C91.1482 50.4718 92.6055 51.8157 94.3728 51.8157C96.1401 51.8157 97.5974 50.4656 97.771 48.7422H90.9746Z" fill="black" fill-opacity="0.6"/>
<path d="M120.002 11.7979C120.176 13.5275 121.633 14.8714 123.4 14.8714C125.167 14.8714 126.625 13.5213 126.798 11.7979H120.008H120.002Z" fill="#B0A75F"/>
<path d="M120.002 11.7979C120.176 13.5275 121.633 14.8714 123.4 14.8714C125.167 14.8714 126.625 13.5213 126.798 11.7979H120.008H120.002Z" fill="black" fill-opacity="0.6"/>
<path d="M130.507 28.1421C130.68 29.8717 132.138 31.2156 133.905 31.2156C135.672 31.2156 137.13 29.8655 137.303 28.1421H130.513H130.507Z" fill="#B0A75F"/>
<path d="M166.008 68.1538C166.181 69.8834 167.639 71.2273 169.406 71.2273C171.173 71.2273 172.631 69.8772 172.804 68.1538H166.008Z" fill="#B0A75F"/>
<path d="M126.085 55.3745C126.259 57.1041 127.716 58.448 129.484 58.448C131.251 58.448 132.708 57.0979 132.882 55.3745H126.085Z" fill="#B0A75F"/>
<path d="M64.3164 63.9355C64.49 65.6652 65.9473 67.0091 67.7146 67.0091C69.4819 67.0091 70.9392 65.659 71.1128 63.9355H64.3164Z" fill="#9B8F46"/>
<path d="M64.3164 63.9355C64.49 65.6652 65.9473 67.0091 67.7146 67.0091C69.4819 67.0091 70.9392 65.659 71.1128 63.9355H64.3164Z" fill="black" fill-opacity="0.6"/>
<path d="M101.833 66.0449C102.007 67.7745 103.464 69.1184 105.231 69.1184C106.999 69.1184 108.456 67.7683 108.629 66.0449H101.833Z" fill="#9B8F46"/>
<path d="M101.833 66.0449C102.007 67.7745 103.464 69.1184 105.231 69.1184C106.999 69.1184 108.456 67.7683 108.629 66.0449H101.833Z" fill="black" fill-opacity="0.6"/>
<path d="M97.7159 88.6307V68.3294C94.5906 68.5409 91.9861 70.6874 91.1056 73.5929C89.7041 72.7965 88.0856 72.3423 86.3617 72.3423C84.6378 72.3423 83.162 72.7592 81.8101 73.4871V72.0561C81.8101 68.6529 79.1126 65.8967 75.7827 65.8967H72.4341C69.1041 65.8967 66.4066 68.6529 66.4066 72.0561V83.5663H61.5201V82.2224C61.5201 78.8813 58.8227 76.1749 55.4927 76.1749H48.473C48.504 75.9198 48.5289 75.6647 48.5289 75.4034V74.3271C48.5289 71.0793 45.9058 68.4476 42.6688 68.4476C42.4766 68.4476 42.2844 68.46 42.0983 68.4787C41.689 65.542 39.1776 63.2773 36.1391 63.2773H34.7996C31.4696 63.2773 28.7722 65.9838 28.7722 69.3248V76.6291C26.5708 77.5312 25.0205 79.6964 25.0205 82.2286V85.383C25.0205 86.5838 25.374 87.7037 25.9755 88.6431H97.7097L97.7159 88.6307Z" fill="#B0A75F"/>
<path d="M97.7159 88.6307V68.3294C94.5906 68.5409 91.9861 70.6874 91.1056 73.5929C89.7041 72.7965 88.0856 72.3423 86.3617 72.3423C84.6378 72.3423 83.162 72.7592 81.8101 73.4871V72.0561C81.8101 68.6529 79.1126 65.8967 75.7827 65.8967H72.4341C69.1041 65.8967 66.4066 68.6529 66.4066 72.0561V83.5663H61.5201V82.2224C61.5201 78.8813 58.8227 76.1749 55.4927 76.1749H48.473C48.504 75.9198 48.5289 75.6647 48.5289 75.4034V74.3271C48.5289 71.0793 45.9058 68.4476 42.6688 68.4476C42.4766 68.4476 42.2844 68.46 42.0983 68.4787C41.689 65.542 39.1776 63.2773 36.1391 63.2773H34.7996C31.4696 63.2773 28.7722 65.9838 28.7722 69.3248V76.6291C26.5708 77.5312 25.0205 79.6964 25.0205 82.2286V85.383C25.0205 86.5838 25.374 87.7037 25.9755 88.6431H97.7097L97.7159 88.6307Z" fill="black" fill-opacity="0.6"/>
<path d="M107.632 70.2261C107.632 70.8048 107.16 71.2776 106.584 71.2776C106.007 71.2776 105.536 70.811 105.536 70.2261V67.6877C105.536 67.1091 106.001 66.6362 106.584 66.6362C107.16 66.6362 107.632 67.1029 107.632 67.6877V70.2261Z" fill="#F9B640"/>
<path d="M107.632 70.2261C107.632 70.8048 107.16 71.2776 106.584 71.2776C106.007 71.2776 105.536 70.811 105.536 70.2261V67.6877C105.536 67.1091 106.001 66.6362 106.584 66.6362C107.16 66.6362 107.632 67.1029 107.632 67.6877V70.2261Z" fill="black" fill-opacity="0.6"/>
<path d="M106.54 70.0335C106.825 70.5375 106.645 71.1783 106.143 71.4645C105.641 71.7507 105.002 71.5703 104.717 71.0663L103.476 68.8576C103.191 68.3537 103.371 67.7128 103.873 67.4266C104.376 67.1404 105.014 67.3209 105.3 67.8248L106.54 70.0335Z" fill="#F9B640"/>
<path d="M106.54 70.0335C106.825 70.5375 106.645 71.1783 106.143 71.4645C105.641 71.7507 105.002 71.5703 104.717 71.0663L103.476 68.8576C103.191 68.3537 103.371 67.7128 103.873 67.4266C104.376 67.1404 105.014 67.3209 105.3 67.8248L106.54 70.0335Z" fill="black" fill-opacity="0.6"/>
<path d="M106.72 70.0335C106.434 70.5375 106.614 71.1783 107.117 71.4645C107.619 71.7507 108.258 71.5703 108.543 71.0663L109.783 68.8576C110.068 68.3537 109.888 67.7128 109.386 67.4266C108.884 67.1404 108.245 67.3209 107.96 67.8248L106.72 70.0335Z" fill="#F9B640"/>
<path d="M106.72 70.0335C106.434 70.5375 106.614 71.1783 107.117 71.4645C107.619 71.7507 108.258 71.5703 108.543 71.0663L109.783 68.8576C110.068 68.3537 109.888 67.7128 109.386 67.4266C108.884 67.1404 108.245 67.3209 107.96 67.8248L106.72 70.0335Z" fill="black" fill-opacity="0.6"/>
<path d="M128.659 92.4065C127.791 88.5304 122.824 70.0956 106.72 69.8716C106.67 69.8716 106.627 69.8716 106.577 69.8716C106.528 69.8716 106.484 69.8716 106.435 69.8716C90.3303 70.0956 85.3633 88.5366 84.4951 92.4127H128.659V92.4065Z" fill="#EC9035"/>
<path d="M128.659 92.4065C127.791 88.5304 122.824 70.0956 106.72 69.8716C106.67 69.8716 106.627 69.8716 106.577 69.8716C106.528 69.8716 106.484 69.8716 106.435 69.8716C90.3303 70.0956 85.3633 88.5366 84.4951 92.4127H128.659V92.4065Z" fill="black" fill-opacity="0.6"/>
<path d="M90.0884 88.1133C90.0884 88.1133 90.0884 88.1568 90.0884 88.1755C90.0884 88.9283 90.6961 89.5318 91.4402 89.5318C92.1843 89.5318 92.7921 88.9221 92.7921 88.1755C92.7921 88.1568 92.792 88.1319 92.7858 88.1133H90.0946H90.0884Z" fill="#F9B640"/>
<path d="M90.0884 88.1133C90.0884 88.1133 90.0884 88.1568 90.0884 88.1755C90.0884 88.9283 90.6961 89.5318 91.4402 89.5318C92.1843 89.5318 92.7921 88.9221 92.7921 88.1755C92.7921 88.1568 92.792 88.1319 92.7858 88.1133H90.0946H90.0884Z" fill="black" fill-opacity="0.6"/>
<path d="M104.494 84.4614C104.494 84.4614 104.494 84.505 104.494 84.5236C104.494 85.2765 105.101 85.88 105.845 85.88C106.59 85.88 107.197 85.2702 107.197 84.5236C107.197 84.4988 107.197 84.4801 107.191 84.4614H104.5H104.494Z" fill="#F9B640"/>
<path d="M104.494 84.4614C104.494 84.4614 104.494 84.505 104.494 84.5236C104.494 85.2765 105.101 85.88 105.845 85.88C106.59 85.88 107.197 85.2702 107.197 84.5236C107.197 84.4988 107.197 84.4801 107.191 84.4614H104.5H104.494Z" fill="black" fill-opacity="0.6"/>
<path d="M112.921 81.0146C112.921 81.0146 112.921 81.0582 112.921 81.0769C112.921 81.8297 113.529 82.4332 114.273 82.4332C115.017 82.4332 115.625 81.8235 115.625 81.0769C115.625 81.0582 115.625 81.0333 115.625 81.0146H112.927H112.921Z" fill="#F9B640"/>
<path d="M112.921 81.0146C112.921 81.0146 112.921 81.0582 112.921 81.0769C112.921 81.8297 113.529 82.4332 114.273 82.4332C115.017 82.4332 115.625 81.8235 115.625 81.0769C115.625 81.0582 115.625 81.0333 115.625 81.0146H112.927H112.921Z" fill="black" fill-opacity="0.6"/>
<path d="M98.0693 79.2603C98.0693 79.2603 98.0693 79.3038 98.0693 79.3225C98.0693 80.0753 98.677 80.6788 99.4212 80.6788C100.165 80.6788 100.773 80.0691 100.773 79.3225C100.773 79.3038 100.773 79.2789 100.773 79.2603H98.0817H98.0693Z" fill="#F9B640"/>
<path d="M98.0693 79.2603C98.0693 79.2603 98.0693 79.3038 98.0693 79.3225C98.0693 80.0753 98.677 80.6788 99.4212 80.6788C100.165 80.6788 100.773 80.0691 100.773 79.3225C100.773 79.3038 100.773 79.2789 100.773 79.2603H98.0817H98.0693Z" fill="black" fill-opacity="0.6"/>
<path d="M118.012 86.813C118.012 86.813 118.006 86.8565 118.006 86.8752C118.006 87.628 118.614 88.2315 119.358 88.2315C120.102 88.2315 120.71 87.6218 120.71 86.8752C120.71 86.8565 120.71 86.8317 120.71 86.813H118.012Z" fill="#F9B640"/>
<path d="M118.012 86.813C118.012 86.813 118.006 86.8565 118.006 86.8752C118.006 87.628 118.614 88.2315 119.358 88.2315C120.102 88.2315 120.71 87.6218 120.71 86.8752C120.71 86.8565 120.71 86.8317 120.71 86.813H118.012Z" fill="black" fill-opacity="0.6"/>
<path d="M97.1766 76.2863L101.858 73.1692L103.173 77.6924L105.976 73.4741L108.692 77.6053L110.05 73.1692L114.862 76.7716L114.558 72.9514L118.105 73.8723C115.135 71.5391 111.402 69.9401 106.726 69.8779C106.677 69.8779 106.633 69.8779 106.584 69.8779C106.534 69.8779 106.491 69.8779 106.441 69.8779C100.984 69.9588 96.8107 72.124 93.6357 75.1041L98.1873 73.0883L97.1828 76.2925L97.1766 76.2863Z" fill="#F9B640"/>
<path d="M97.1766 76.2863L101.858 73.1692L103.173 77.6924L105.976 73.4741L108.692 77.6053L110.05 73.1692L114.862 76.7716L114.558 72.9514L118.105 73.8723C115.135 71.5391 111.402 69.9401 106.726 69.8779C106.677 69.8779 106.633 69.8779 106.584 69.8779C106.534 69.8779 106.491 69.8779 106.441 69.8779C100.984 69.9588 96.8107 72.124 93.6357 75.1041L98.1873 73.0883L97.1828 76.2925L97.1766 76.2863Z" fill="black" fill-opacity="0.6"/>
<path d="M19.5935 89.8565C19.5935 90.3854 19.1595 90.8147 18.6386 90.8147C18.1053 90.8147 17.6836 90.3792 17.6836 89.8565V70.1276C17.6836 69.5987 18.1115 69.1694 18.6386 69.1694C19.1595 69.1694 19.5935 69.5987 19.5935 70.1276V89.8565Z" fill="#996441"/>
<path d="M19.5935 89.8565C19.5935 90.3854 19.1595 90.8147 18.6386 90.8147C18.1053 90.8147 17.6836 90.3792 17.6836 89.8565V70.1276C17.6836 69.5987 18.1115 69.1694 18.6386 69.1694C19.1595 69.1694 19.5935 69.5987 19.5935 70.1276V89.8565Z" fill="black" fill-opacity="0.6"/>
<path d="M26.1544 56.9872C24.8273 45.1785 18.7007 32.4365 18.5766 32.1814L18.5704 32.1689V32.1814C18.4526 32.4365 12.3197 45.1785 10.9927 56.9872C9.33081 71.7762 18.5084 71.4153 18.5766 71.4091C18.6386 71.4153 27.8163 71.7762 26.1544 56.9872Z" fill="#01977B"/>
<path d="M26.1544 56.9872C24.8273 45.1785 18.7007 32.4365 18.5766 32.1814L18.5704 32.1689V32.1814C18.4526 32.4365 12.3197 45.1785 10.9927 56.9872C9.33081 71.7762 18.5084 71.4153 18.5766 71.4091C18.6386 71.4153 27.8163 71.7762 26.1544 56.9872Z" fill="black" fill-opacity="0.6"/>
<path d="M26.1543 56.9872C24.8273 45.1785 18.7006 32.4365 18.5766 32.1814L18.5704 32.1689V32.1814C18.5704 32.1814 18.5518 32.2249 18.5332 32.2685V71.4091H18.5766C18.6386 71.4153 27.8162 71.7762 26.1543 56.9872Z" fill="#017D6B"/>
<path d="M26.1543 56.9872C24.8273 45.1785 18.7006 32.4365 18.5766 32.1814L18.5704 32.1689V32.1814C18.5704 32.1814 18.5518 32.2249 18.5332 32.2685V71.4091H18.5766C18.6386 71.4153 27.8162 71.7762 26.1543 56.9872Z" fill="black" fill-opacity="0.6"/>
<path d="M8.07229 90.1614C8.07229 90.6467 7.68162 91.0387 7.19794 91.0387C6.70805 91.0387 6.31738 90.6467 6.31738 90.1614V72.0314C6.31738 71.5399 6.70805 71.1479 7.19794 71.1479C7.68162 71.1479 8.07229 71.5399 8.07229 72.0314V90.1614Z" fill="#996441"/>
<path d="M8.07229 90.1614C8.07229 90.6467 7.68162 91.0387 7.19794 91.0387C6.70805 91.0387 6.31738 90.6467 6.31738 90.1614V72.0314C6.31738 71.5399 6.70805 71.1479 7.19794 71.1479C7.68162 71.1479 8.07229 71.5399 8.07229 72.0314V90.1614Z" fill="black" fill-opacity="0.6"/>
<path d="M14.0998 59.9613C12.8781 49.1169 7.25375 37.4077 7.14213 37.1775C7.03051 37.4139 1.39992 49.1169 0.184505 59.9613C-1.34096 73.5557 7.09252 73.2197 7.14833 73.2135C7.21034 73.2197 15.6376 73.5557 14.1122 59.9613H14.0998Z" fill="#94CB49"/>
<path d="M14.0998 59.9613C12.8781 49.1169 7.25375 37.4077 7.14213 37.1775C7.03051 37.4139 1.39992 49.1169 0.184505 59.9613C-1.34096 73.5557 7.09252 73.2197 7.14833 73.2135C7.21034 73.2197 15.6376 73.5557 14.1122 59.9613H14.0998Z" fill="black" fill-opacity="0.6"/>
<path d="M14.0998 59.9613C12.8782 49.1169 7.25381 37.4077 7.14219 37.1775C7.14219 37.1775 7.12358 37.2148 7.10498 37.2584V73.2197H7.14219C7.2042 73.2259 15.6315 73.5619 14.1122 59.9675L14.0998 59.9613Z" fill="#7BAC4E"/>
<path d="M14.0998 59.9613C12.8782 49.1169 7.25381 37.4077 7.14219 37.1775C7.14219 37.1775 7.12358 37.2148 7.10498 37.2584V73.2197H7.14219C7.2042 73.2259 15.6315 73.5619 14.1122 59.9675L14.0998 59.9613Z" fill="black" fill-opacity="0.6"/>
<path d="M3.57047 53.5966C3.57047 53.9513 3.28522 54.2437 2.92555 54.2437H1.17065C0.817184 54.2437 0.519531 53.9513 0.519531 53.5966C0.519531 53.2358 0.810983 52.9434 1.17065 52.9434H2.92555C3.28522 52.9434 3.57047 53.2358 3.57047 53.5966Z" fill="#7BAC4E"/>
<path d="M3.57047 53.5966C3.57047 53.9513 3.28522 54.2437 2.92555 54.2437H1.17065C0.817184 54.2437 0.519531 53.9513 0.519531 53.5966C0.519531 53.2358 0.810983 52.9434 1.17065 52.9434H2.92555C3.28522 52.9434 3.57047 53.2358 3.57047 53.5966Z" fill="black" fill-opacity="0.6"/>
<path d="M6.31735 60.3223C6.31735 60.7267 5.98869 61.0502 5.59182 61.0502H4.37021C3.96713 61.0502 3.65088 60.7267 3.65088 60.3223C3.65088 59.9179 3.96713 59.6006 4.37021 59.6006H5.59182C5.98869 59.6006 6.31735 59.9241 6.31735 60.3223Z" fill="#7BAC4E"/>
<path d="M6.31735 60.3223C6.31735 60.7267 5.98869 61.0502 5.59182 61.0502H4.37021C3.96713 61.0502 3.65088 60.7267 3.65088 60.3223C3.65088 59.9179 3.96713 59.6006 4.37021 59.6006H5.59182C5.98869 59.6006 6.31735 59.9241 6.31735 60.3223Z" fill="black" fill-opacity="0.6"/>
<path d="M2.88821 66.5936C2.88821 66.8735 2.66497 67.0913 2.39212 67.0913H1.25112C0.978269 67.0913 0.76123 66.8673 0.76123 66.5936C0.76123 66.326 0.978269 66.1021 1.25112 66.1021H2.39212C2.66497 66.1021 2.88821 66.326 2.88821 66.5936Z" fill="#7BAC4E"/>
<path d="M2.88821 66.5936C2.88821 66.8735 2.66497 67.0913 2.39212 67.0913H1.25112C0.978269 67.0913 0.76123 66.8673 0.76123 66.5936C0.76123 66.326 0.978269 66.1021 1.25112 66.1021H2.39212C2.66497 66.1021 2.88821 66.326 2.88821 66.5936Z" fill="black" fill-opacity="0.6"/>
<path d="M12.5743 51.6803C12.5743 52.0411 12.2829 52.3335 11.9232 52.3335H10.6272C10.2737 52.3335 9.97607 52.0411 9.97607 51.6803C9.97607 51.3256 10.2675 51.0332 10.6272 51.0332H11.9232C12.2767 51.0332 12.5743 51.3256 12.5743 51.6803Z" fill="#94CB49"/>
<path d="M12.5743 51.6803C12.5743 52.0411 12.2829 52.3335 11.9232 52.3335H10.6272C10.2737 52.3335 9.97607 52.0411 9.97607 51.6803C9.97607 51.3256 10.2675 51.0332 10.6272 51.0332H11.9232C12.2767 51.0332 12.5743 51.3256 12.5743 51.6803Z" fill="black" fill-opacity="0.6"/>
<path d="M10.3604 44.376C10.3604 44.5875 10.1929 44.7617 9.98211 44.7617H8.98994C8.7791 44.7617 8.60547 44.5875 8.60547 44.376C8.60547 44.1644 8.7729 43.9902 8.98994 43.9902H9.98211C10.1929 43.9902 10.3604 44.1644 10.3604 44.376Z" fill="#94CB49"/>
<path d="M10.3604 44.376C10.3604 44.5875 10.1929 44.7617 9.98211 44.7617H8.98994C8.7791 44.7617 8.60547 44.5875 8.60547 44.376C8.60547 44.1644 8.7729 43.9902 8.98994 43.9902H9.98211C10.1929 43.9902 10.3604 44.1644 10.3604 44.376Z" fill="black" fill-opacity="0.6"/>
<path d="M12.3449 64.6088C12.3449 64.9635 12.0534 65.2559 11.7 65.2559H10.2489C9.89545 65.2559 9.604 64.9635 9.604 64.6088C9.604 64.248 9.89545 63.9556 10.2489 63.9556H11.7C12.0534 63.9556 12.3449 64.248 12.3449 64.6088Z" fill="#94CB49"/>
<path d="M12.3449 64.6088C12.3449 64.9635 12.0534 65.2559 11.7 65.2559H10.2489C9.89545 65.2559 9.604 64.9635 9.604 64.6088C9.604 64.248 9.89545 63.9556 10.2489 63.9556H11.7C12.0534 63.9556 12.3449 64.248 12.3449 64.6088Z" fill="black" fill-opacity="0.6"/>
<path d="M38.5816 91.8843C38.5816 92.2327 38.2964 92.5251 37.9429 92.5251C37.5894 92.5251 37.3042 92.2389 37.3042 91.8843V78.7566C37.3042 78.4019 37.5894 78.1157 37.9429 78.1157C38.2902 78.1157 38.5816 78.4019 38.5816 78.7566V91.8843Z" fill="#996441"/>
<path d="M38.5816 91.8843C38.5816 92.2327 38.2964 92.5251 37.9429 92.5251C37.5894 92.5251 37.3042 92.2389 37.3042 91.8843V78.7566C37.3042 78.4019 37.5894 78.1157 37.9429 78.1157C38.2902 78.1157 38.5816 78.4019 38.5816 78.7566V91.8843Z" fill="black" fill-opacity="0.6"/>
<path d="M42.9411 70.0277C42.0605 62.1698 37.9864 53.6958 37.8996 53.5278C37.819 53.6958 33.7387 62.1698 32.8581 70.0277C31.7543 79.8704 37.8562 79.6278 37.8996 79.6216C37.943 79.6216 44.0449 79.8704 42.9411 70.0277Z" fill="#94CB49"/>
<path d="M42.9411 70.0277C42.0605 62.1698 37.9864 53.6958 37.8996 53.5278C37.819 53.6958 33.7387 62.1698 32.8581 70.0277C31.7543 79.8704 37.8562 79.6278 37.8996 79.6216C37.943 79.6216 44.0449 79.8704 42.9411 70.0277Z" fill="black" fill-opacity="0.6"/>
<path d="M42.9413 70.0277C42.0607 62.1698 37.9866 53.6958 37.8998 53.5278C37.8998 53.5278 37.8874 53.5589 37.875 53.5838V79.6216H37.906C37.9494 79.6216 44.0513 79.8704 42.9475 70.0277H42.9413Z" fill="#7BAC4E"/>
<path d="M42.9413 70.0277C42.0607 62.1698 37.9866 53.6958 37.8998 53.5278C37.8998 53.5278 37.8874 53.5589 37.875 53.5838V79.6216H37.906C37.9494 79.6216 44.0513 79.8704 42.9475 70.0277H42.9413Z" fill="black" fill-opacity="0.6"/>
<path d="M190.565 76.9817L189.988 76.5337L187.551 79.6819V77.0003H186.664V88.6909H187.551V80.864L190.565 76.9817Z" fill="#825E06"/>
<path d="M190.565 76.9817L189.988 76.5337L187.551 79.6819V77.0003H186.664V88.6909H187.551V80.864L190.565 76.9817Z" fill="black" fill-opacity="0.6"/>
<path d="M194.192 69.9139C194.192 74.5926 191.247 78.3878 187.619 78.3878C183.991 78.3878 181.046 74.5926 181.046 69.9139C181.046 65.2352 183.985 61.4399 187.619 61.4399C191.253 61.4399 194.192 65.2352 194.192 69.9139Z" fill="#C4D606"/>
<path d="M194.192 69.9139C194.192 74.5926 191.247 78.3878 187.619 78.3878C183.991 78.3878 181.046 74.5926 181.046 69.9139C181.046 65.2352 183.985 61.4399 187.619 61.4399C191.253 61.4399 194.192 65.2352 194.192 69.9139Z" fill="black" fill-opacity="0.6"/>
<path d="M187.712 61.4463V78.3817C191.302 78.3195 194.192 74.5554 194.192 69.914C194.192 65.2726 191.296 61.5085 187.712 61.4463Z" fill="#B4BC0D"/>
<path d="M187.712 61.4463V78.3817C191.302 78.3195 194.192 74.5554 194.192 69.914C194.192 65.2726 191.296 61.5085 187.712 61.4463Z" fill="black" fill-opacity="0.6"/>
<path d="M179.898 79.8003H179.067V88.1996H179.898V79.8003Z" fill="#825E06"/>
<path d="M179.898 79.8003H179.067V88.1996H179.898V79.8003Z" fill="black" fill-opacity="0.6"/>
<path d="M185.728 73.9268C185.728 77.4048 182.918 80.217 179.458 80.217C175.998 80.217 173.189 77.4048 173.189 73.9268C173.189 70.4489 175.998 67.6367 179.458 67.6367C182.918 67.6367 185.728 70.4551 185.728 73.9268Z" fill="#FC9B00"/>
<path d="M185.728 73.9268C185.728 77.4048 182.918 80.217 179.458 80.217C175.998 80.217 173.189 77.4048 173.189 73.9268C173.189 70.4489 175.998 67.6367 179.458 67.6367C182.918 67.6367 185.728 70.4551 185.728 73.9268Z" fill="black" fill-opacity="0.6"/>
<path d="M179.458 67.6367V80.217C182.919 80.217 185.728 77.4048 185.728 73.9268C185.728 70.4489 182.919 67.6429 179.458 67.6367Z" fill="#FC7C00"/>
<path d="M179.458 67.6367V80.217C182.919 80.217 185.728 77.4048 185.728 73.9268C185.728 70.4489 182.919 67.6429 179.458 67.6367Z" fill="black" fill-opacity="0.6"/>
<path d="M177.592 77.0193C177.592 77.3739 177.3 77.6663 176.947 77.6663C176.593 77.6663 176.302 77.3739 176.302 77.0193C176.302 76.6646 176.593 76.3784 176.947 76.3784C177.3 76.3784 177.592 76.6646 177.592 77.0193Z" fill="#F9ED32"/>
<path d="M177.592 77.0193C177.592 77.3739 177.3 77.6663 176.947 77.6663C176.593 77.6663 176.302 77.3739 176.302 77.0193C176.302 76.6646 176.593 76.3784 176.947 76.3784C177.3 76.3784 177.592 76.6646 177.592 77.0193Z" fill="black" fill-opacity="0.6"/>
<path d="M174.07 74.3749C174.07 74.6735 173.828 74.91 173.536 74.91C173.245 74.91 173.003 74.6673 173.003 74.3749C173.003 74.0825 173.245 73.8398 173.536 73.8398C173.828 73.8398 174.07 74.0763 174.07 74.3749Z" fill="#F9ED32"/>
<path d="M174.07 74.3749C174.07 74.6735 173.828 74.91 173.536 74.91C173.245 74.91 173.003 74.6673 173.003 74.3749C173.003 74.0825 173.245 73.8398 173.536 73.8398C173.828 73.8398 174.07 74.0763 174.07 74.3749Z" fill="black" fill-opacity="0.6"/>
<path d="M178.752 70.2874C178.752 70.586 178.51 70.8287 178.218 70.8287C177.927 70.8287 177.679 70.586 177.679 70.2874C177.679 69.9887 177.921 69.7461 178.218 69.7461C178.516 69.7461 178.752 69.9887 178.752 70.2874Z" fill="#F9ED32"/>
<path d="M178.752 70.2874C178.752 70.586 178.51 70.8287 178.218 70.8287C177.927 70.8287 177.679 70.586 177.679 70.2874C177.679 69.9887 177.921 69.7461 178.218 69.7461C178.516 69.7461 178.752 69.9887 178.752 70.2874Z" fill="black" fill-opacity="0.6"/>
<path d="M183.21 75.9242C183.21 76.2229 182.974 76.4655 182.677 76.4655C182.379 76.4655 182.137 76.2229 182.137 75.9242C182.137 75.6256 182.379 75.3892 182.677 75.3892C182.974 75.3892 183.21 75.6318 183.21 75.9242Z" fill="#E2D02D"/>
<path d="M183.21 75.9242C183.21 76.2229 182.974 76.4655 182.677 76.4655C182.379 76.4655 182.137 76.2229 182.137 75.9242C182.137 75.6256 182.379 75.3892 182.677 75.3892C182.974 75.3892 183.21 75.6318 183.21 75.9242Z" fill="black" fill-opacity="0.6"/>
<path d="M190.962 89.4127C190.496 88.0066 189.182 86.9863 187.625 86.9863C187.446 86.9863 187.272 86.9987 187.098 87.0298C186.844 86.5072 186.305 86.1401 185.678 86.1401C185.573 86.1401 185.467 86.1526 185.368 86.165C185.312 84.9393 184.308 83.9625 183.068 83.9625C182.726 83.9625 182.404 84.0372 182.113 84.1741C181.803 83.2595 180.953 82.5938 179.936 82.5938C178.727 82.5938 177.747 83.5332 177.648 84.7153C177.418 84.622 177.17 84.566 176.904 84.566C176.482 84.566 176.098 84.7029 175.787 84.9269C175.471 84.3545 174.876 83.9563 174.175 83.9563C173.239 83.9563 172.47 84.6593 172.352 85.5739C172.036 85.3437 171.645 85.2069 171.223 85.2069C170.517 85.2069 169.903 85.5864 169.562 86.1588C169.493 86.1588 169.431 86.1401 169.369 86.1401C167.528 86.1401 166.033 87.5898 165.928 89.4127H190.974H190.962Z" fill="#8EB936"/>
<path d="M190.962 89.4127C190.496 88.0066 189.182 86.9863 187.625 86.9863C187.446 86.9863 187.272 86.9987 187.098 87.0298C186.844 86.5072 186.305 86.1401 185.678 86.1401C185.573 86.1401 185.467 86.1526 185.368 86.165C185.312 84.9393 184.308 83.9625 183.068 83.9625C182.726 83.9625 182.404 84.0372 182.113 84.1741C181.803 83.2595 180.953 82.5938 179.936 82.5938C178.727 82.5938 177.747 83.5332 177.648 84.7153C177.418 84.622 177.17 84.566 176.904 84.566C176.482 84.566 176.098 84.7029 175.787 84.9269C175.471 84.3545 174.876 83.9563 174.175 83.9563C173.239 83.9563 172.47 84.6593 172.352 85.5739C172.036 85.3437 171.645 85.2069 171.223 85.2069C170.517 85.2069 169.903 85.5864 169.562 86.1588C169.493 86.1588 169.431 86.1401 169.369 86.1401C167.528 86.1401 166.033 87.5898 165.928 89.4127H190.974H190.962Z" fill="black" fill-opacity="0.6"/>
<path d="M186.069 88.6227H183.142L184.723 87.061L186.069 88.6227Z" fill="#7B9E23"/>
<path d="M186.069 88.6227H183.142L184.723 87.061L186.069 88.6227Z" fill="black" fill-opacity="0.6"/>
<path d="M180.543 86.5631H177.61L179.198 85.0015L180.543 86.5631Z" fill="#7B9E23"/>
<path d="M180.543 86.5631H177.61L179.198 85.0015L180.543 86.5631Z" fill="black" fill-opacity="0.6"/>
<path d="M172.625 88.6912H169.698L171.285 87.1357L172.625 88.6912Z" fill="#7B9E23"/>
<path d="M174.008 66.083C174.008 71.247 169.828 75.4404 164.681 75.4404C159.535 75.4404 155.355 71.2532 155.355 66.083C155.355 60.9128 159.528 56.7256 164.681 56.7256C169.835 56.7256 174.008 60.9128 174.008 66.083Z" fill="#FC7C00"/>
<path d="M174.008 66.083C174.008 71.247 169.828 75.4404 164.681 75.4404C159.535 75.4404 155.355 71.2532 155.355 66.083C155.355 60.9128 159.528 56.7256 164.681 56.7256C169.835 56.7256 174.008 60.9128 174.008 66.083Z" fill="black" fill-opacity="0.6"/>
<path d="M160.291 64.6392C160.291 73.2002 153.371 80.1436 144.838 80.1436C136.305 80.1436 129.385 73.2002 129.385 64.6392C129.385 56.0782 136.305 49.1348 144.838 49.1348C153.371 49.1348 160.291 56.0782 160.291 64.6392Z" fill="#FC7C00"/>
<path d="M160.291 64.6392C160.291 73.2002 153.371 80.1436 144.838 80.1436C136.305 80.1436 129.385 73.2002 129.385 64.6392C129.385 56.0782 136.305 49.1348 144.838 49.1348C153.371 49.1348 160.291 56.0782 160.291 64.6392Z" fill="black" fill-opacity="0.6"/>
<path d="M166.616 70.4071C166.616 74.9365 162.951 78.6135 158.437 78.6135C153.923 78.6135 150.258 74.9365 150.258 70.4071C150.258 65.8777 153.923 62.2007 158.437 62.2007C162.951 62.2007 166.616 65.8715 166.616 70.4071Z" fill="#FC9B00"/>
<path d="M166.616 70.4071C166.616 74.9365 162.951 78.6135 158.437 78.6135C153.923 78.6135 150.258 74.9365 150.258 70.4071C150.258 65.8777 153.923 62.2007 158.437 62.2007C162.951 62.2007 166.616 65.8715 166.616 70.4071Z" fill="black" fill-opacity="0.6"/>
<path d="M175.236 44.282C175.236 52.2271 168.818 58.6665 160.899 58.6665C152.98 58.6665 146.562 52.2271 146.562 44.282C146.562 36.3369 152.98 29.8975 160.899 29.8975C168.818 29.8975 175.236 36.3369 175.236 44.282Z" fill="#FC7C00"/>
<path d="M175.236 44.282C175.236 52.2271 168.818 58.6665 160.899 58.6665C152.98 58.6665 146.562 52.2271 146.562 44.282C146.562 36.3369 152.98 29.8975 160.899 29.8975C168.818 29.8975 175.236 36.3369 175.236 44.282Z" fill="black" fill-opacity="0.6"/>
<path d="M162.747 46.9262C162.747 52.9239 157.904 57.783 151.926 57.783C145.948 57.783 141.105 52.9239 141.105 46.9262C141.105 40.9285 145.948 36.0693 151.926 36.0693C157.904 36.0693 162.747 40.9285 162.747 46.9262Z" fill="#FC9B00"/>
<path d="M162.747 46.9262C162.747 52.9239 157.904 57.783 151.926 57.783C145.948 57.783 141.105 52.9239 141.105 46.9262C141.105 40.9285 145.948 36.0693 151.926 36.0693C157.904 36.0693 162.747 40.9285 162.747 46.9262Z" fill="black" fill-opacity="0.6"/>
<path d="M146.587 54.6101C146.587 63.14 139.691 70.0585 131.189 70.0585C122.688 70.0585 115.792 63.14 115.792 54.6101C115.792 46.0801 122.688 39.1616 131.189 39.1616C139.691 39.1616 146.587 46.0739 146.587 54.6101Z" fill="#FC9B00"/>
<path d="M146.587 54.6101C146.587 63.14 139.691 70.0585 131.189 70.0585C122.688 70.0585 115.792 63.14 115.792 54.6101C115.792 46.0801 122.688 39.1616 131.189 39.1616C139.691 39.1616 146.587 46.0739 146.587 54.6101Z" fill="black" fill-opacity="0.6"/>
<path d="M180.538 56.5575C180.538 61.7838 176.315 66.0145 171.106 66.0145C165.897 66.0145 161.68 61.7838 161.68 56.5575C161.68 51.3313 165.903 47.1006 171.106 47.1006C176.309 47.1006 180.538 51.3313 180.538 56.5575Z" fill="#FC9B00"/>
<path d="M180.538 56.5575C180.538 61.7838 176.315 66.0145 171.106 66.0145C165.897 66.0145 161.68 61.7838 161.68 56.5575C161.68 51.3313 165.903 47.1006 171.106 47.1006C176.309 47.1006 180.538 51.3313 180.538 56.5575Z" fill="black" fill-opacity="0.6"/>
<path d="M172.47 61.7464H165.518V58.5236H169.81C169.847 58.5236 169.89 58.5236 169.94 58.5236C170.392 58.5236 171.335 58.4116 172.234 57.6028C173.443 56.514 174.057 54.6226 174.057 51.9908C174.057 51.1945 173.419 50.5536 172.625 50.5536C171.831 50.5536 171.199 51.1945 171.199 51.9908C171.199 54.6537 170.442 55.6368 170.02 55.6554H170.033L165.525 55.6492V53.5712C165.525 52.781 164.886 52.1339 164.092 52.1339C163.298 52.1339 162.66 52.7748 162.66 53.5712V63.1774C162.66 63.812 162.443 64.0796 162.281 64.2227C161.599 64.8324 160.111 64.8137 159.658 64.764L150.915 64.7515V53.82L158.772 44.4439L171.403 43.7907C172.457 43.7347 173.264 42.8388 173.208 41.7811C173.152 40.7234 172.253 39.9146 171.205 39.9706L159.64 40.5678L159.286 34.5141C159.224 33.4627 158.325 32.6663 157.271 32.7161C156.217 32.7783 155.417 33.6867 155.473 34.7381L155.894 41.9242L148.459 50.7901H147.969L143.753 37.6623C143.43 36.6544 142.357 36.1007 141.353 36.4242C140.348 36.7477 139.803 37.8241 140.125 38.832L143.963 50.7838H143.951V72.6904H138.996C138.674 72.6406 136.807 72.2238 136.807 68.8765V57.4597C136.807 56.6696 136.169 56.0287 135.375 56.0287C134.581 56.0287 133.942 56.6696 133.942 57.4597V61.0434H129.533C129.137 60.9314 128.417 60.5519 128.417 59.2391V51.6798C128.417 50.8834 127.779 50.2426 126.985 50.2426C126.191 50.2426 125.559 50.8834 125.559 51.6798V59.2391C125.559 62.4619 127.903 63.6938 129.149 63.8929L133.942 63.9054V68.8765C133.942 73.8227 137.111 75.4093 138.786 75.5524H143.945V88.8605H150.896V67.6073H159.386C159.534 67.6197 159.807 67.6446 160.161 67.6446C161.202 67.6446 162.926 67.4517 164.154 66.3629C164.694 65.8901 165.053 65.2804 165.27 64.596H172.457C173.245 64.596 173.89 63.9551 173.89 63.165C173.89 62.3748 173.251 61.7278 172.457 61.7278L172.47 61.7464Z" fill="#8B5C3E"/>
<path d="M172.47 61.7464H165.518V58.5236H169.81C169.847 58.5236 169.89 58.5236 169.94 58.5236C170.392 58.5236 171.335 58.4116 172.234 57.6028C173.443 56.514 174.057 54.6226 174.057 51.9908C174.057 51.1945 173.419 50.5536 172.625 50.5536C171.831 50.5536 171.199 51.1945 171.199 51.9908C171.199 54.6537 170.442 55.6368 170.02 55.6554H170.033L165.525 55.6492V53.5712C165.525 52.781 164.886 52.1339 164.092 52.1339C163.298 52.1339 162.66 52.7748 162.66 53.5712V63.1774C162.66 63.812 162.443 64.0796 162.281 64.2227C161.599 64.8324 160.111 64.8137 159.658 64.764L150.915 64.7515V53.82L158.772 44.4439L171.403 43.7907C172.457 43.7347 173.264 42.8388 173.208 41.7811C173.152 40.7234 172.253 39.9146 171.205 39.9706L159.64 40.5678L159.286 34.5141C159.224 33.4627 158.325 32.6663 157.271 32.7161C156.217 32.7783 155.417 33.6867 155.473 34.7381L155.894 41.9242L148.459 50.7901H147.969L143.753 37.6623C143.43 36.6544 142.357 36.1007 141.353 36.4242C140.348 36.7477 139.803 37.8241 140.125 38.832L143.963 50.7838H143.951V72.6904H138.996C138.674 72.6406 136.807 72.2238 136.807 68.8765V57.4597C136.807 56.6696 136.169 56.0287 135.375 56.0287C134.581 56.0287 133.942 56.6696 133.942 57.4597V61.0434H129.533C129.137 60.9314 128.417 60.5519 128.417 59.2391V51.6798C128.417 50.8834 127.779 50.2426 126.985 50.2426C126.191 50.2426 125.559 50.8834 125.559 51.6798V59.2391C125.559 62.4619 127.903 63.6938 129.149 63.8929L133.942 63.9054V68.8765C133.942 73.8227 137.111 75.4093 138.786 75.5524H143.945V88.8605H150.896V67.6073H159.386C159.534 67.6197 159.807 67.6446 160.161 67.6446C161.202 67.6446 162.926 67.4517 164.154 66.3629C164.694 65.8901 165.053 65.2804 165.27 64.596H172.457C173.245 64.596 173.89 63.9551 173.89 63.165C173.89 62.3748 173.251 61.7278 172.457 61.7278L172.47 61.7464Z" fill="black" fill-opacity="0.6"/>
<path d="M178.032 42.5402C178.032 46.0244 175.217 48.849 171.744 48.849C168.272 48.849 165.457 46.0244 165.457 42.5402C165.457 39.0561 168.272 36.2314 171.744 36.2314C175.217 36.2314 178.032 39.0561 178.032 42.5402Z" fill="#FC9B00"/>
<path d="M178.032 42.5402C178.032 46.0244 175.217 48.849 171.744 48.849C168.272 48.849 165.457 46.0244 165.457 42.5402C165.457 39.0561 168.272 36.2314 171.744 36.2314C175.217 36.2314 178.032 39.0561 178.032 42.5402Z" fill="black" fill-opacity="0.6"/>
<path d="M160.471 32.7657C160.471 35.8516 157.972 38.3527 154.896 38.3527C151.82 38.3527 149.321 35.8516 149.321 32.7657C149.321 29.6797 151.814 27.1724 154.896 27.1724C157.978 27.1724 160.471 29.6735 160.471 32.7657Z" fill="#FC9B00"/>
<path d="M160.471 32.7657C160.471 35.8516 157.972 38.3527 154.896 38.3527C151.82 38.3527 149.321 35.8516 149.321 32.7657C149.321 29.6797 151.814 27.1724 154.896 27.1724C157.978 27.1724 160.471 29.6735 160.471 32.7657Z" fill="black" fill-opacity="0.6"/>
<path d="M150.593 33.6181C150.593 40.2131 145.266 45.5575 138.693 45.5575C132.12 45.5575 126.793 40.2131 126.793 33.6181C126.793 27.0231 132.12 21.6787 138.693 21.6787C145.266 21.6787 150.593 27.0231 150.593 33.6181Z" fill="#FC9B00"/>
<path d="M150.593 33.6181C150.593 40.2131 145.266 45.5575 138.693 45.5575C132.12 45.5575 126.793 40.2131 126.793 33.6181C126.793 27.0231 132.12 21.6787 138.693 21.6787C145.266 21.6787 150.593 27.0231 150.593 33.6181Z" fill="black" fill-opacity="0.6"/>
<path d="M82.7335 88.5517C82.0824 86.5795 80.2407 85.1547 78.0641 85.1547C77.8099 85.1547 77.568 85.1796 77.3262 85.2169C76.9665 84.4828 76.21 83.9664 75.3356 83.9664C75.1868 83.9664 75.038 83.9788 74.8954 84.0099C74.8147 82.2927 73.4071 80.9177 71.6832 80.9177C71.2057 80.9177 70.753 81.0297 70.3438 81.2164C69.9097 79.9347 68.7129 79.0015 67.2866 79.0015C65.5937 79.0015 64.2171 80.3142 64.0807 81.9754C63.7644 81.8448 63.4109 81.7701 63.0451 81.7701C62.456 81.7701 61.9227 81.963 61.4762 82.2803C61.0421 81.4777 60.1988 80.924 59.219 80.924C57.9044 80.924 56.8316 81.9132 56.6641 83.1887C56.2177 82.8713 55.672 82.6785 55.0829 82.6785C54.0907 82.6785 53.2287 83.2135 52.7513 84.0099C52.6582 84.0099 52.5714 83.9788 52.4846 83.9788C49.905 83.9788 47.8152 86.0133 47.6602 88.558H82.7335V88.5517Z" fill="#8EB936"/>
<path d="M82.7335 88.5517C82.0824 86.5795 80.2407 85.1547 78.0641 85.1547C77.8099 85.1547 77.568 85.1796 77.3262 85.2169C76.9665 84.4828 76.21 83.9664 75.3356 83.9664C75.1868 83.9664 75.038 83.9788 74.8954 84.0099C74.8147 82.2927 73.4071 80.9177 71.6832 80.9177C71.2057 80.9177 70.753 81.0297 70.3438 81.2164C69.9097 79.9347 68.7129 79.0015 67.2866 79.0015C65.5937 79.0015 64.2171 80.3142 64.0807 81.9754C63.7644 81.8448 63.4109 81.7701 63.0451 81.7701C62.456 81.7701 61.9227 81.963 61.4762 82.2803C61.0421 81.4777 60.1988 80.924 59.219 80.924C57.9044 80.924 56.8316 81.9132 56.6641 83.1887C56.2177 82.8713 55.672 82.6785 55.0829 82.6785C54.0907 82.6785 53.2287 83.2135 52.7513 84.0099C52.6582 84.0099 52.5714 83.9788 52.4846 83.9788C49.905 83.9788 47.8152 86.0133 47.6602 88.558H82.7335V88.5517Z" fill="black" fill-opacity="0.6"/>
<path d="M66.7097 83.9083H64.1797L65.5501 82.5645L66.7097 83.9083Z" fill="#7B9E23"/>
<path d="M66.7097 83.9083H64.1797L65.5501 82.5645L66.7097 83.9083Z" fill="black" fill-opacity="0.6"/>
<path d="M59.7459 85.6875H57.2158L58.5863 84.3374L59.7459 85.6875Z" fill="#7B9E23"/>
<path d="M59.7459 85.6875H57.2158L58.5863 84.3374L59.7459 85.6875Z" fill="black" fill-opacity="0.6"/>
<path d="M53.3093 87.442H50.7793L52.1497 86.0981L53.3093 87.442Z" fill="#7B9E23"/>
<path d="M53.3093 87.442H50.7793L52.1497 86.0981L53.3093 87.442Z" fill="black" fill-opacity="0.6"/>
<path d="M74.0271 84.5864H71.4971L72.8675 83.2363L74.0271 84.5864Z" fill="#7B9E23"/>
<path d="M74.0271 84.5864H71.4971L72.8675 83.2363L74.0271 84.5864Z" fill="black" fill-opacity="0.6"/>
<path d="M69.0665 89.0037C69.0417 88.3691 68.5332 87.8589 67.8883 87.8589C67.3178 87.8589 66.8651 88.2695 66.7473 88.8108C66.6356 88.2695 66.1768 87.8589 65.6125 87.8589C64.9924 87.8589 64.4901 88.3442 64.4405 88.9539C64.3909 88.3442 63.8948 87.8589 63.2685 87.8589C62.6855 87.8589 62.2143 88.2944 62.115 88.8606C62.022 88.2944 61.5569 87.8589 60.9678 87.8589C60.3787 87.8589 59.9447 88.2695 59.8268 88.8108C59.709 88.2695 59.2563 87.8589 58.6858 87.8589C58.1153 87.8589 57.6317 88.2944 57.5324 88.8606C57.4394 88.2944 56.9743 87.8589 56.3852 87.8589C55.7465 87.8589 55.2318 88.3691 55.207 89.0037H69.0665Z" fill="#7B9E23"/>
<path d="M69.0665 89.0037C69.0417 88.3691 68.5332 87.8589 67.8883 87.8589C67.3178 87.8589 66.8651 88.2695 66.7473 88.8108C66.6356 88.2695 66.1768 87.8589 65.6125 87.8589C64.9924 87.8589 64.4901 88.3442 64.4405 88.9539C64.3909 88.3442 63.8948 87.8589 63.2685 87.8589C62.6855 87.8589 62.2143 88.2944 62.115 88.8606C62.022 88.2944 61.5569 87.8589 60.9678 87.8589C60.3787 87.8589 59.9447 88.2695 59.8268 88.8108C59.709 88.2695 59.2563 87.8589 58.6858 87.8589C58.1153 87.8589 57.6317 88.2944 57.5324 88.8606C57.4394 88.2944 56.9743 87.8589 56.3852 87.8589C55.7465 87.8589 55.2318 88.3691 55.207 89.0037H69.0665Z" fill="black" fill-opacity="0.6"/>
<path d="M57.0178 85.4697H56.8008V88.5432H57.0178V85.4697Z" fill="#7B9E23"/>
<path d="M57.0178 85.4697H56.8008V88.5432H57.0178V85.4697Z" fill="black" fill-opacity="0.6"/>
<path d="M57.8301 83.4603C57.8301 83.4603 57.4084 83.7154 57.303 84.0701C57.1356 83.6532 56.9557 83.5039 56.9557 83.5039C56.8379 83.6283 56.6519 83.8772 56.5837 84.0452C56.4349 83.7403 56.0938 83.4603 56.0938 83.4603V84.5865C56.0938 84.8042 56.0752 85.0157 56.131 85.2273C56.1806 85.4077 56.2736 85.557 56.4225 85.669C56.4907 85.725 56.5899 85.7872 56.6767 85.8121C56.7635 85.8432 56.8689 85.8557 56.9619 85.8557C57.0488 85.8557 57.148 85.8308 57.2348 85.8059C57.3216 85.7748 57.4084 85.7375 57.489 85.6877C57.6441 85.5757 57.7495 85.4139 57.7929 85.2273C57.8549 84.9784 57.8363 84.7171 57.8363 84.462V83.5848C57.8363 83.5848 57.8301 83.4603 57.8363 83.4541L57.8301 83.4603Z" fill="#FBB040"/>
<path d="M57.8301 83.4603C57.8301 83.4603 57.4084 83.7154 57.303 84.0701C57.1356 83.6532 56.9557 83.5039 56.9557 83.5039C56.8379 83.6283 56.6519 83.8772 56.5837 84.0452C56.4349 83.7403 56.0938 83.4603 56.0938 83.4603V84.5865C56.0938 84.8042 56.0752 85.0157 56.131 85.2273C56.1806 85.4077 56.2736 85.557 56.4225 85.669C56.4907 85.725 56.5899 85.7872 56.6767 85.8121C56.7635 85.8432 56.8689 85.8557 56.9619 85.8557C57.0488 85.8557 57.148 85.8308 57.2348 85.8059C57.3216 85.7748 57.4084 85.7375 57.489 85.6877C57.6441 85.5757 57.7495 85.4139 57.7929 85.2273C57.8549 84.9784 57.8363 84.7171 57.8363 84.462V83.5848C57.8363 83.5848 57.8301 83.4603 57.8363 83.4541L57.8301 83.4603Z" fill="black" fill-opacity="0.6"/>
<path d="M68.3718 85.7993H68.1548V87.9769H68.3718V85.7993Z" fill="#7B9E23"/>
<path d="M68.3718 85.7993H68.1548V87.9769H68.3718V85.7993Z" fill="black" fill-opacity="0.6"/>
<path d="M69.1842 83.7899C69.1842 83.7899 68.7626 84.0512 68.6572 84.4059C68.4897 83.989 68.3099 83.8397 68.3099 83.8397C68.1921 83.9641 68.006 84.213 67.9378 84.3872C67.7952 84.0823 67.4541 83.7899 67.4541 83.7899V84.9223C67.4541 85.14 67.4355 85.3516 67.4914 85.5631C67.5348 85.7373 67.634 85.8928 67.7766 85.9986C67.851 86.0546 67.944 86.1168 68.0309 86.1479C68.1239 86.179 68.2231 86.1915 68.3223 86.1915C68.4091 86.1915 68.5083 86.1604 68.5951 86.1355C68.682 86.1168 68.7688 86.0795 68.8432 86.0235C69.0044 85.9115 69.1036 85.7435 69.147 85.5631C69.2091 85.308 69.1843 85.0529 69.1905 84.7978V83.9206C69.1905 83.9206 69.1905 83.7899 69.1905 83.7837L69.1842 83.7899Z" fill="#FBB040"/>
<path d="M69.1842 83.7899C69.1842 83.7899 68.7626 84.0512 68.6572 84.4059C68.4897 83.989 68.3099 83.8397 68.3099 83.8397C68.1921 83.9641 68.006 84.213 67.9378 84.3872C67.7952 84.0823 67.4541 83.7899 67.4541 83.7899V84.9223C67.4541 85.14 67.4355 85.3516 67.4914 85.5631C67.5348 85.7373 67.634 85.8928 67.7766 85.9986C67.851 86.0546 67.944 86.1168 68.0309 86.1479C68.1239 86.179 68.2231 86.1915 68.3223 86.1915C68.4091 86.1915 68.5083 86.1604 68.5951 86.1355C68.682 86.1168 68.7688 86.0795 68.8432 86.0235C69.0044 85.9115 69.1036 85.7435 69.147 85.5631C69.2091 85.308 69.1843 85.0529 69.1905 84.7978V83.9206C69.1905 83.9206 69.1905 83.7899 69.1905 83.7837L69.1842 83.7899Z" fill="black" fill-opacity="0.6"/>
<path d="M61.6374 83.3794H61.4204V88.4438H61.6374V83.3794Z" fill="#7B9E23"/>
<path d="M61.6374 83.3794H61.4204V88.4438H61.6374V83.3794Z" fill="black" fill-opacity="0.6"/>
<path d="M62.4498 81.3696C62.4498 81.3696 62.0282 81.6247 61.9228 81.9794C61.7553 81.5625 61.5755 81.4132 61.5755 81.4132C61.4577 81.5438 61.2716 81.7927 61.2034 81.9607C61.0608 81.6621 60.7197 81.3696 60.7197 81.3696V82.502C60.7197 82.7135 60.6949 82.9313 60.7569 83.1366C60.8066 83.3108 60.8996 83.4663 61.0422 83.5783C61.1166 83.6281 61.2096 83.6903 61.2964 83.7214C61.3833 83.7525 61.4887 83.7712 61.5817 83.7712C61.6685 83.7712 61.7677 83.7401 61.8545 83.7214C61.9476 83.6903 62.0282 83.653 62.1088 83.6032C62.2638 83.4974 62.3692 83.3295 62.4064 83.149C62.4685 82.8939 62.4498 82.6389 62.4498 82.3838V81.5127C62.4498 81.5127 62.4436 81.3821 62.4498 81.3759V81.3696Z" fill="#FBB040"/>
<path d="M62.4498 81.3696C62.4498 81.3696 62.0282 81.6247 61.9228 81.9794C61.7553 81.5625 61.5755 81.4132 61.5755 81.4132C61.4577 81.5438 61.2716 81.7927 61.2034 81.9607C61.0608 81.6621 60.7197 81.3696 60.7197 81.3696V82.502C60.7197 82.7135 60.6949 82.9313 60.7569 83.1366C60.8066 83.3108 60.8996 83.4663 61.0422 83.5783C61.1166 83.6281 61.2096 83.6903 61.2964 83.7214C61.3833 83.7525 61.4887 83.7712 61.5817 83.7712C61.6685 83.7712 61.7677 83.7401 61.8545 83.7214C61.9476 83.6903 62.0282 83.653 62.1088 83.6032C62.2638 83.4974 62.3692 83.3295 62.4064 83.149C62.4685 82.8939 62.4498 82.6389 62.4498 82.3838V81.5127C62.4498 81.5127 62.4436 81.3821 62.4498 81.3759V81.3696Z" fill="black" fill-opacity="0.6"/>
<path d="M59.9945 95.0014C59.9635 94.1988 59.3124 93.5518 58.5062 93.5518C57.7869 93.5518 57.2164 94.0682 57.0738 94.7463C56.925 94.0682 56.3545 93.5518 55.6351 93.5518C54.8538 93.5518 54.2213 94.1615 54.1593 94.933C54.0973 94.1677 53.471 93.5518 52.6896 93.5518C51.9455 93.5518 51.3626 94.0993 51.2386 94.8085C51.1207 94.1055 50.5316 93.5518 49.7875 93.5518C49.0434 93.5518 48.4977 94.0682 48.3488 94.7463C48.2 94.0682 47.6295 93.5518 46.9164 93.5518C46.2033 93.5518 45.5894 94.0993 45.4653 94.8085C45.3475 94.1055 44.7584 93.5518 44.0205 93.5518C43.2143 93.5518 42.5694 94.1988 42.5322 95.0014H60.0007H59.9945Z" fill="#7B9E23"/>
<path d="M59.9945 95.0014C59.9635 94.1988 59.3124 93.5518 58.5062 93.5518C57.7869 93.5518 57.2164 94.0682 57.0738 94.7463C56.925 94.0682 56.3545 93.5518 55.6351 93.5518C54.8538 93.5518 54.2213 94.1615 54.1593 94.933C54.0973 94.1677 53.471 93.5518 52.6896 93.5518C51.9455 93.5518 51.3626 94.0993 51.2386 94.8085C51.1207 94.1055 50.5316 93.5518 49.7875 93.5518C49.0434 93.5518 48.4977 94.0682 48.3488 94.7463C48.2 94.0682 47.6295 93.5518 46.9164 93.5518C46.2033 93.5518 45.5894 94.0993 45.4653 94.8085C45.3475 94.1055 44.7584 93.5518 44.0205 93.5518C43.2143 93.5518 42.5694 94.1988 42.5322 95.0014H60.0007H59.9945Z" fill="black" fill-opacity="0.6"/>
<path d="M79.2493 84.8719C81.9925 84.8719 84.2164 82.6407 84.2164 79.8884C84.2164 77.136 81.9925 74.9048 79.2493 74.9048C76.5061 74.9048 74.2822 77.136 74.2822 79.8884C74.2822 82.6407 76.5061 84.8719 79.2493 84.8719Z" fill="#F9B640"/>
<path d="M79.2493 84.8719C81.9925 84.8719 84.2164 82.6407 84.2164 79.8884C84.2164 77.136 81.9925 74.9048 79.2493 74.9048C76.5061 74.9048 74.2822 77.136 74.2822 79.8884C74.2822 82.6407 76.5061 84.8719 79.2493 84.8719Z" fill="black" fill-opacity="0.6"/>
<path d="M80.8058 79.8883C80.8058 80.7531 80.1113 81.4499 79.2493 81.4499C78.3874 81.4499 77.6929 80.7531 77.6929 79.8883C77.6929 79.0235 78.3874 78.3267 79.2493 78.3267C80.1113 78.3267 80.8058 79.0235 80.8058 79.8883Z" fill="#EC9035"/>
<path d="M80.8058 79.8883C80.8058 80.7531 80.1113 81.4499 79.2493 81.4499C78.3874 81.4499 77.6929 80.7531 77.6929 79.8883C77.6929 79.0235 78.3874 78.3267 79.2493 78.3267C80.1113 78.3267 80.8058 79.0235 80.8058 79.8883Z" fill="black" fill-opacity="0.6"/>
<path d="M79.2493 84.1065C76.9301 84.1065 75.0449 82.2151 75.0449 79.8882C75.0449 77.5613 76.9301 75.6699 79.2493 75.6699C81.5685 75.6699 83.4536 77.5613 83.4536 79.8882C83.4536 82.2151 81.5685 84.1065 79.2493 84.1065ZM79.2493 76.0619C77.1471 76.0619 75.4356 77.7791 75.4356 79.8882C75.4356 81.9974 77.1471 83.7146 79.2493 83.7146C81.3514 83.7146 83.0629 81.9974 83.0629 79.8882C83.0629 77.7791 81.3514 76.0619 79.2493 76.0619Z" fill="#EC9035"/>
<path d="M79.2493 84.1065C76.9301 84.1065 75.0449 82.2151 75.0449 79.8882C75.0449 77.5613 76.9301 75.6699 79.2493 75.6699C81.5685 75.6699 83.4536 77.5613 83.4536 79.8882C83.4536 82.2151 81.5685 84.1065 79.2493 84.1065ZM79.2493 76.0619C77.1471 76.0619 75.4356 77.7791 75.4356 79.8882C75.4356 81.9974 77.1471 83.7146 79.2493 83.7146C81.3514 83.7146 83.0629 81.9974 83.0629 79.8882C83.0629 77.7791 81.3514 76.0619 79.2493 76.0619Z" fill="black" fill-opacity="0.6"/>
<path d="M79.2493 82.9868C77.544 82.9868 76.1611 81.5932 76.1611 79.8884C76.1611 78.1837 77.5502 76.79 79.2493 76.79C80.9484 76.79 82.3374 78.1837 82.3374 79.8884C82.3374 81.5932 80.9484 82.9868 79.2493 82.9868ZM79.2493 77.182C77.761 77.182 76.5518 78.3952 76.5518 79.8884C76.5518 81.3816 77.761 82.5949 79.2493 82.5949C80.7375 82.5949 81.9468 81.3816 81.9468 79.8884C81.9468 78.3952 80.7375 77.182 79.2493 77.182Z" fill="#EC9035"/>
<path d="M79.2493 82.9868C77.544 82.9868 76.1611 81.5932 76.1611 79.8884C76.1611 78.1837 77.5502 76.79 79.2493 76.79C80.9484 76.79 82.3374 78.1837 82.3374 79.8884C82.3374 81.5932 80.9484 82.9868 79.2493 82.9868ZM79.2493 77.182C77.761 77.182 76.5518 78.3952 76.5518 79.8884C76.5518 81.3816 77.761 82.5949 79.2493 82.5949C80.7375 82.5949 81.9468 81.3816 81.9468 79.8884C81.9468 78.3952 80.7375 77.182 79.2493 77.182Z" fill="black" fill-opacity="0.6"/>
<path d="M79.2925 88.4308C79.2925 91.1808 77.0664 93.4144 74.3255 93.4144C71.5846 93.4144 69.3584 91.1808 69.3584 88.4308C69.3584 85.6809 71.5846 83.4473 74.3255 83.4473C77.0664 83.4473 79.2925 85.6809 79.2925 88.4308Z" fill="#F9B640"/>
<path d="M79.2925 88.4308C79.2925 91.1808 77.0664 93.4144 74.3255 93.4144C71.5846 93.4144 69.3584 91.1808 69.3584 88.4308C69.3584 85.6809 71.5846 83.4473 74.3255 83.4473C77.0664 83.4473 79.2925 85.6809 79.2925 88.4308Z" fill="black" fill-opacity="0.6"/>
<path d="M75.882 88.4308C75.882 89.2956 75.1875 89.9924 74.3255 89.9924C73.4636 89.9924 72.769 89.2956 72.769 88.4308C72.769 87.566 73.4636 86.8691 74.3255 86.8691C75.1875 86.8691 75.882 87.566 75.882 88.4308Z" fill="#EC9035"/>
<path d="M75.882 88.4308C75.882 89.2956 75.1875 89.9924 74.3255 89.9924C73.4636 89.9924 72.769 89.2956 72.769 88.4308C72.769 87.566 73.4636 86.8691 74.3255 86.8691C75.1875 86.8691 75.882 87.566 75.882 88.4308Z" fill="black" fill-opacity="0.6"/>
<path d="M74.3253 92.649C72.0061 92.649 70.1147 90.7576 70.1147 88.4307C70.1147 86.1038 71.9999 84.2124 74.3253 84.2124C76.6507 84.2124 78.5296 86.1038 78.5296 88.4307C78.5296 90.7576 76.6445 92.649 74.3253 92.649ZM74.3253 84.6044C72.2231 84.6044 70.5116 86.3216 70.5116 88.4307C70.5116 90.5399 72.2231 92.257 74.3253 92.257C76.4275 92.257 78.139 90.5399 78.139 88.4307C78.139 86.3216 76.4275 84.6044 74.3253 84.6044Z" fill="#EC9035"/>
<path d="M74.3253 92.649C72.0061 92.649 70.1147 90.7576 70.1147 88.4307C70.1147 86.1038 71.9999 84.2124 74.3253 84.2124C76.6507 84.2124 78.5296 86.1038 78.5296 88.4307C78.5296 90.7576 76.6445 92.649 74.3253 92.649ZM74.3253 84.6044C72.2231 84.6044 70.5116 86.3216 70.5116 88.4307C70.5116 90.5399 72.2231 92.257 74.3253 92.257C76.4275 92.257 78.139 90.5399 78.139 88.4307C78.139 86.3216 76.4275 84.6044 74.3253 84.6044Z" fill="black" fill-opacity="0.6"/>
<path d="M74.3254 91.5293C72.6201 91.5293 71.2373 90.1357 71.2373 88.4309C71.2373 86.7262 72.6263 85.3325 74.3254 85.3325C76.0245 85.3325 77.4136 86.7262 77.4136 88.4309C77.4136 90.1357 76.0245 91.5293 74.3254 91.5293ZM74.3254 85.7245C72.8372 85.7245 71.628 86.9377 71.628 88.4309C71.628 89.9241 72.8372 91.1373 74.3254 91.1373C75.8137 91.1373 77.0229 89.9241 77.0229 88.4309C77.0229 86.9377 75.8137 85.7245 74.3254 85.7245Z" fill="#EC9035"/>
<path d="M74.3254 91.5293C72.6201 91.5293 71.2373 90.1357 71.2373 88.4309C71.2373 86.7262 72.6263 85.3325 74.3254 85.3325C76.0245 85.3325 77.4136 86.7262 77.4136 88.4309C77.4136 90.1357 76.0245 91.5293 74.3254 91.5293ZM74.3254 85.7245C72.8372 85.7245 71.628 86.9377 71.628 88.4309C71.628 89.9241 72.8372 91.1373 74.3254 91.1373C75.8137 91.1373 77.0229 89.9241 77.0229 88.4309C77.0229 86.9377 75.8137 85.7245 74.3254 85.7245Z" fill="black" fill-opacity="0.6"/>
<path d="M89.1397 88.4308C89.1397 91.1808 86.9135 93.4144 84.1726 93.4144C81.4318 93.4144 79.2056 91.1808 79.2056 88.4308C79.2056 85.6809 81.4318 83.4473 84.1726 83.4473C86.9135 83.4473 89.1397 85.6809 89.1397 88.4308Z" fill="#F9B640"/>
<path d="M89.1397 88.4308C89.1397 91.1808 86.9135 93.4144 84.1726 93.4144C81.4318 93.4144 79.2056 91.1808 79.2056 88.4308C79.2056 85.6809 81.4318 83.4473 84.1726 83.4473C86.9135 83.4473 89.1397 85.6809 89.1397 88.4308Z" fill="black" fill-opacity="0.6"/>
<path d="M85.7292 88.4308C85.7292 89.2956 85.0346 89.9924 84.1727 89.9924C83.3107 89.9924 82.6162 89.2956 82.6162 88.4308C82.6162 87.566 83.3107 86.8691 84.1727 86.8691C85.0346 86.8691 85.7292 87.566 85.7292 88.4308Z" fill="#EC9035"/>
<path d="M85.7292 88.4308C85.7292 89.2956 85.0346 89.9924 84.1727 89.9924C83.3107 89.9924 82.6162 89.2956 82.6162 88.4308C82.6162 87.566 83.3107 86.8691 84.1727 86.8691C85.0346 86.8691 85.7292 87.566 85.7292 88.4308Z" fill="black" fill-opacity="0.6"/>
<path d="M84.1725 92.649C81.8532 92.649 79.9619 90.7576 79.9619 88.4307C79.9619 86.1038 81.847 84.2124 84.1725 84.2124C86.4979 84.2124 88.3768 86.1038 88.3768 88.4307C88.3768 90.7576 86.4917 92.649 84.1725 92.649ZM84.1725 84.6044C82.0703 84.6044 80.3588 86.3216 80.3588 88.4307C80.3588 90.5399 82.0703 92.257 84.1725 92.257C86.2746 92.257 87.9861 90.5399 87.9861 88.4307C87.9861 86.3216 86.2746 84.6044 84.1725 84.6044Z" fill="#EC9035"/>
<path d="M84.1725 92.649C81.8532 92.649 79.9619 90.7576 79.9619 88.4307C79.9619 86.1038 81.847 84.2124 84.1725 84.2124C86.4979 84.2124 88.3768 86.1038 88.3768 88.4307C88.3768 90.7576 86.4917 92.649 84.1725 92.649ZM84.1725 84.6044C82.0703 84.6044 80.3588 86.3216 80.3588 88.4307C80.3588 90.5399 82.0703 92.257 84.1725 92.257C86.2746 92.257 87.9861 90.5399 87.9861 88.4307C87.9861 86.3216 86.2746 84.6044 84.1725 84.6044Z" fill="black" fill-opacity="0.6"/>
<path d="M84.1726 91.5293C82.4673 91.5293 81.0845 90.1357 81.0845 88.4309C81.0845 86.7262 82.4735 85.3325 84.1726 85.3325C85.8717 85.3325 87.2608 86.7262 87.2608 88.4309C87.2608 90.1357 85.8717 91.5293 84.1726 91.5293ZM84.1726 85.7245C82.6844 85.7245 81.4751 86.9377 81.4751 88.4309C81.4751 89.9241 82.6844 91.1373 84.1726 91.1373C85.6609 91.1373 86.8701 89.9241 86.8701 88.4309C86.8701 86.9377 85.6609 85.7245 84.1726 85.7245Z" fill="#EC9035"/>
<path d="M84.1726 91.5293C82.4673 91.5293 81.0845 90.1357 81.0845 88.4309C81.0845 86.7262 82.4735 85.3325 84.1726 85.3325C85.8717 85.3325 87.2608 86.7262 87.2608 88.4309C87.2608 90.1357 85.8717 91.5293 84.1726 91.5293ZM84.1726 85.7245C82.6844 85.7245 81.4751 86.9377 81.4751 88.4309C81.4751 89.9241 82.6844 91.1373 84.1726 91.1373C85.6609 91.1373 86.8701 89.9241 86.8701 88.4309C86.8701 86.9377 85.6609 85.7245 84.1726 85.7245Z" fill="black" fill-opacity="0.6"/>
<path d="M143.324 93.2765C143.324 90.9434 144.571 90.9683 144.571 90.9683C145.997 90.9683 145.904 92.5486 145.904 93.2765H146.97C147.138 90.0475 144.657 89.979 144.657 89.979H141.117C140.422 89.979 140.509 89.0395 140.509 89.0395V84.168H132.851V93.2703H143.324V93.2765Z" fill="#885A36"/>
<path d="M143.324 93.2765C143.324 90.9434 144.571 90.9683 144.571 90.9683C145.997 90.9683 145.904 92.5486 145.904 93.2765H146.97C147.138 90.0475 144.657 89.979 144.657 89.979H141.117C140.422 89.979 140.509 89.0395 140.509 89.0395V84.168H132.851V93.2703H143.324V93.2765Z" fill="black" fill-opacity="0.6"/>
<path d="M133.508 91.4413C133.508 92.0075 133.967 92.4679 134.537 92.4679C135.101 92.4679 135.56 92.0137 135.56 91.4413V85.761C135.56 85.1948 135.101 84.7344 134.537 84.7344C133.973 84.7344 133.508 85.1948 133.508 85.761V91.4413Z" fill="#A97D50"/>
<path d="M133.508 91.4413C133.508 92.0075 133.967 92.4679 134.537 92.4679C135.101 92.4679 135.56 92.0137 135.56 91.4413V85.761C135.56 85.1948 135.101 84.7344 134.537 84.7344C133.973 84.7344 133.508 85.1948 133.508 85.761V91.4413Z" fill="black" fill-opacity="0.6"/>
<path d="M137.539 90.3026C137.539 90.6324 137.805 90.8999 138.134 90.8999C138.463 90.8999 138.729 90.6324 138.729 90.3026V85.2755C138.729 84.9458 138.463 84.6782 138.134 84.6782C137.805 84.6782 137.539 84.9458 137.539 85.2755V90.3026Z" fill="#A97D50"/>
<path d="M137.539 90.3026C137.539 90.6324 137.805 90.8999 138.134 90.8999C138.463 90.8999 138.729 90.6324 138.729 90.3026V85.2755C138.729 84.9458 138.463 84.6782 138.134 84.6782C137.805 84.6782 137.539 84.9458 137.539 85.2755V90.3026Z" fill="black" fill-opacity="0.6"/>
<path d="M136.025 87.3284C136.025 87.5773 136.224 87.7764 136.466 87.7764C136.714 87.7764 136.912 87.5773 136.912 87.3284V85.3811C136.912 85.1322 136.714 84.9331 136.466 84.9331C136.224 84.9331 136.025 85.1322 136.025 85.3811V87.3284Z" fill="#A97D50"/>
<path d="M136.025 87.3284C136.025 87.5773 136.224 87.7764 136.466 87.7764C136.714 87.7764 136.912 87.5773 136.912 87.3284V85.3811C136.912 85.1322 136.714 84.9331 136.466 84.9331C136.224 84.9331 136.025 85.1322 136.025 85.3811V87.3284Z" fill="black" fill-opacity="0.6"/>
<path d="M149.569 89.6676C149.569 90.9928 150.642 92.0691 151.963 92.0691H166.027C167.348 92.0691 168.421 90.9928 168.421 89.6676C168.421 88.3361 167.348 87.2598 166.027 87.2598H151.963C150.642 87.2598 149.569 88.3361 149.569 89.6676Z" fill="#684214"/>
<path d="M149.569 89.6676C149.569 90.9928 150.642 92.0691 151.963 92.0691H166.027C167.348 92.0691 168.421 90.9928 168.421 89.6676C168.421 88.3361 167.348 87.2598 166.027 87.2598H151.963C150.642 87.2598 149.569 88.3361 149.569 89.6676Z" fill="black" fill-opacity="0.6"/>
<path d="M149.898 89.6926C149.898 90.7938 150.599 91.6835 151.461 91.6835C152.323 91.6835 153.023 90.7938 153.023 89.6926C153.023 88.5914 152.323 87.7017 151.461 87.7017C150.599 87.7017 149.898 88.5914 149.898 89.6926Z" fill="#E0BA73"/>
<path d="M149.898 89.6926C149.898 90.7938 150.599 91.6835 151.461 91.6835C152.323 91.6835 153.023 90.7938 153.023 89.6926C153.023 88.5914 152.323 87.7017 151.461 87.7017C150.599 87.7017 149.898 88.5914 149.898 89.6926Z" fill="black" fill-opacity="0.6"/>
<path d="M150.555 89.7171C150.555 90.2833 150.915 90.7375 151.355 90.7375C151.795 90.7375 152.155 90.2833 152.155 89.7171C152.155 89.151 151.795 88.6968 151.355 88.6968C150.915 88.6968 150.555 89.151 150.555 89.7171Z" fill="#AA834B"/>
<path d="M150.555 89.7171C150.555 90.2833 150.915 90.7375 151.355 90.7375C151.795 90.7375 152.155 90.2833 152.155 89.7171C152.155 89.151 151.795 88.6968 151.355 88.6968C150.915 88.6968 150.555 89.151 150.555 89.7171Z" fill="black" fill-opacity="0.6"/>
<path d="M151.455 85.1818C151.455 86.5071 152.527 87.5834 153.848 87.5834H167.906C169.227 87.5834 170.3 86.5071 170.3 85.1818C170.3 83.8504 169.227 82.7803 167.906 82.7803H153.848C152.527 82.7803 151.455 83.8566 151.455 85.1818Z" fill="#774C12"/>
<path d="M151.455 85.1818C151.455 86.5071 152.527 87.5834 153.848 87.5834H167.906C169.227 87.5834 170.3 86.5071 170.3 85.1818C170.3 83.8504 169.227 82.7803 167.906 82.7803H153.848C152.527 82.7803 151.455 83.8566 151.455 85.1818Z" fill="black" fill-opacity="0.6"/>
<path d="M151.783 85.2004C151.783 86.3016 152.484 87.1914 153.346 87.1914C154.208 87.1914 154.909 86.3016 154.909 85.2004C154.909 84.0992 154.208 83.2095 153.346 83.2095C152.484 83.2095 151.783 84.0992 151.783 85.2004Z" fill="#E0BA73"/>
<path d="M151.783 85.2004C151.783 86.3016 152.484 87.1914 153.346 87.1914C154.208 87.1914 154.909 86.3016 154.909 85.2004C154.909 84.0992 154.208 83.2095 153.346 83.2095C152.484 83.2095 151.783 84.0992 151.783 85.2004Z" fill="black" fill-opacity="0.6"/>
<path d="M152.509 85.2006C152.509 85.7917 152.881 86.2645 153.34 86.2645C153.799 86.2645 154.177 85.7917 154.177 85.2006C154.177 84.6096 153.805 84.1367 153.34 84.1367C152.875 84.1367 152.509 84.6096 152.509 85.2006Z" fill="#BF9256"/>
<path d="M152.509 85.2006C152.509 85.7917 152.881 86.2645 153.34 86.2645C153.799 86.2645 154.177 85.7917 154.177 85.2006C154.177 84.6096 153.805 84.1367 153.34 84.1367C152.875 84.1367 152.509 84.6096 152.509 85.2006Z" fill="black" fill-opacity="0.6"/>
<path d="M153.879 81.1252C153.879 82.4504 154.952 83.5268 156.273 83.5268H170.337C171.657 83.5268 172.73 82.4504 172.73 81.1252C172.73 79.7938 171.657 78.7236 170.337 78.7236H156.273C154.952 78.7236 153.879 79.8 153.879 81.1252Z" fill="#916017"/>
<path d="M153.879 81.1252C153.879 82.4504 154.952 83.5268 156.273 83.5268H170.337C171.657 83.5268 172.73 82.4504 172.73 81.1252C172.73 79.7938 171.657 78.7236 170.337 78.7236H156.273C154.952 78.7236 153.879 79.8 153.879 81.1252Z" fill="black" fill-opacity="0.6"/>
<path d="M154.201 81.1501C154.201 82.2514 154.902 83.1411 155.764 83.1411C156.626 83.1411 157.327 82.2514 157.327 81.1501C157.327 80.0489 156.626 79.1592 155.764 79.1592C154.902 79.1592 154.201 80.0489 154.201 81.1501Z" fill="#E0BA73"/>
<path d="M154.201 81.1501C154.201 82.2514 154.902 83.1411 155.764 83.1411C156.626 83.1411 157.327 82.2514 157.327 81.1501C157.327 80.0489 156.626 79.1592 155.764 79.1592C154.902 79.1592 154.201 80.0489 154.201 81.1501Z" fill="black" fill-opacity="0.6"/>
<path d="M154.828 81.1874C154.828 81.7785 155.2 82.2513 155.659 82.2513C156.117 82.2513 156.49 81.7785 156.49 81.1874C156.49 80.5964 156.117 80.1235 155.659 80.1235C155.2 80.1235 154.828 80.5964 154.828 81.1874Z" fill="#C19556"/>
<path d="M154.828 81.1874C154.828 81.7785 155.2 82.2513 155.659 82.2513C156.117 82.2513 156.49 81.7785 156.49 81.1874C156.49 80.5964 156.117 80.1235 155.659 80.1235C155.2 80.1235 154.828 80.5964 154.828 81.1874Z" fill="black" fill-opacity="0.6"/>
<path d="M154.195 89.6676C154.195 90.9928 155.268 92.0691 156.589 92.0691H170.653C171.974 92.0691 173.047 90.9928 173.047 89.6676C173.047 88.3361 171.974 87.2598 170.653 87.2598H156.589C155.268 87.2598 154.195 88.3361 154.195 89.6676Z" fill="#916017"/>
<path d="M154.195 89.6676C154.195 90.9928 155.268 92.0691 156.589 92.0691H170.653C171.974 92.0691 173.047 90.9928 173.047 89.6676C173.047 88.3361 171.974 87.2598 170.653 87.2598H156.589C155.268 87.2598 154.195 88.3361 154.195 89.6676Z" fill="black" fill-opacity="0.6"/>
<path d="M154.524 89.6926C154.524 90.7938 155.218 91.6835 156.087 91.6835C156.955 91.6835 157.649 90.7938 157.649 89.6926C157.649 88.5914 156.949 87.7017 156.087 87.7017C155.225 87.7017 154.524 88.5914 154.524 89.6926Z" fill="#E0BA73"/>
<path d="M154.524 89.6926C154.524 90.7938 155.218 91.6835 156.087 91.6835C156.955 91.6835 157.649 90.7938 157.649 89.6926C157.649 88.5914 156.949 87.7017 156.087 87.7017C155.225 87.7017 154.524 88.5914 154.524 89.6926Z" fill="black" fill-opacity="0.6"/>
<path d="M155.237 89.6926C155.237 90.2339 155.578 90.6694 156.006 90.6694C156.434 90.6694 156.775 90.2339 156.775 89.6926C156.775 89.1513 156.434 88.7158 156.006 88.7158C155.578 88.7158 155.237 89.1513 155.237 89.6926Z" fill="#B28447"/>
<path d="M155.237 89.6926C155.237 90.2339 155.578 90.6694 156.006 90.6694C156.434 90.6694 156.775 90.2339 156.775 89.6926C156.775 89.1513 156.434 88.7158 156.006 88.7158C155.578 88.7158 155.237 89.1513 155.237 89.6926Z" fill="black" fill-opacity="0.6"/>
<path d="M156.391 85.1818C156.391 86.5071 157.463 87.5834 158.784 87.5834H172.848C174.169 87.5834 175.248 86.5071 175.248 85.1818C175.248 83.8504 174.175 82.7803 172.848 82.7803H158.784C157.463 82.7803 156.391 83.8566 156.391 85.1818Z" fill="#A06C20"/>
<path d="M156.391 85.1818C156.391 86.5071 157.463 87.5834 158.784 87.5834H172.848C174.169 87.5834 175.248 86.5071 175.248 85.1818C175.248 83.8504 174.175 82.7803 172.848 82.7803H158.784C157.463 82.7803 156.391 83.8566 156.391 85.1818Z" fill="black" fill-opacity="0.6"/>
<path d="M156.713 85.2004C156.713 86.3016 157.414 87.1914 158.276 87.1914C159.138 87.1914 159.838 86.3016 159.838 85.2004C159.838 84.0992 159.138 83.2095 158.276 83.2095C157.414 83.2095 156.713 84.0992 156.713 85.2004Z" fill="#E0BA73"/>
<path d="M156.713 85.2004C156.713 86.3016 157.414 87.1914 158.276 87.1914C159.138 87.1914 159.838 86.3016 159.838 85.2004C159.838 84.0992 159.138 83.2095 158.276 83.2095C157.414 83.2095 156.713 84.0992 156.713 85.2004Z" fill="black" fill-opacity="0.6"/>
<path d="M157.389 85.2253C157.389 85.8101 157.755 86.2768 158.214 86.2768C158.673 86.2768 159.039 85.8039 159.039 85.2253C159.039 84.6467 158.667 84.1738 158.214 84.1738C157.761 84.1738 157.389 84.6467 157.389 85.2253Z" fill="#AA834B"/>
<path d="M157.389 85.2253C157.389 85.8101 157.755 86.2768 158.214 86.2768C158.673 86.2768 159.039 85.8039 159.039 85.2253C159.039 84.6467 158.667 84.1738 158.214 84.1738C157.761 84.1738 157.389 84.6467 157.389 85.2253Z" fill="black" fill-opacity="0.6"/>
<path d="M159.131 89.6676C159.131 90.9928 160.204 92.0691 161.525 92.0691H175.589C176.91 92.0691 177.983 90.9928 177.983 89.6676C177.983 88.3361 176.91 87.2598 175.589 87.2598H161.525C160.204 87.2598 159.131 88.3361 159.131 89.6676Z" fill="#AF762B"/>
<path d="M159.131 89.6676C159.131 90.9928 160.204 92.0691 161.525 92.0691H175.589C176.91 92.0691 177.983 90.9928 177.983 89.6676C177.983 88.3361 176.91 87.2598 175.589 87.2598H161.525C160.204 87.2598 159.131 88.3361 159.131 89.6676Z" fill="black" fill-opacity="0.6"/>
<path d="M159.454 89.6926C159.454 90.7938 160.154 91.6835 161.016 91.6835C161.878 91.6835 162.579 90.7938 162.579 89.6926C162.579 88.5914 161.878 87.7017 161.016 87.7017C160.154 87.7017 159.454 88.5914 159.454 89.6926Z" fill="#E0BA73"/>
<path d="M159.454 89.6926C159.454 90.7938 160.154 91.6835 161.016 91.6835C161.878 91.6835 162.579 90.7938 162.579 89.6926C162.579 88.5914 161.878 87.7017 161.016 87.7017C160.154 87.7017 159.454 88.5914 159.454 89.6926Z" fill="black" fill-opacity="0.6"/>
<path d="M159.975 89.7548C159.975 90.3707 160.365 90.8685 160.849 90.8685C161.333 90.8685 161.723 90.3707 161.723 89.7548C161.723 89.1389 161.333 88.6411 160.849 88.6411C160.365 88.6411 159.975 89.1389 159.975 89.7548Z" fill="#C19556"/>
<path d="M159.975 89.7548C159.975 90.3707 160.365 90.8685 160.849 90.8685C161.333 90.8685 161.723 90.3707 161.723 89.7548C161.723 89.1389 161.333 88.6411 160.849 88.6411C160.365 88.6411 159.975 89.1389 159.975 89.7548Z" fill="black" fill-opacity="0.6"/>
<path d="M163.28 75.9302C163.28 75.9302 161.909 75.5444 161.153 74.2503C160.396 72.9562 159.646 72.1723 158.796 72.0229C158.468 72.1038 157.773 73.2735 157.761 73.7215C157.841 73.9206 159.274 73.7837 160.08 74.7294C160.892 75.6751 161.581 76.5212 162.201 76.7141C162.821 76.907 163.484 76.9443 163.274 75.9302H163.28Z" fill="#774C12"/>
<path d="M163.28 75.9302C163.28 75.9302 161.909 75.5444 161.153 74.2503C160.396 72.9562 159.646 72.1723 158.796 72.0229C158.468 72.1038 157.773 73.2735 157.761 73.7215C157.841 73.9206 159.274 73.7837 160.08 74.7294C160.892 75.6751 161.581 76.5212 162.201 76.7141C162.821 76.907 163.484 76.9443 163.274 75.9302H163.28Z" fill="black" fill-opacity="0.6"/>
<path d="M163.081 79.4455C163.187 78.7176 163.516 77.6412 164.421 76.2289C164.421 76.2289 163.906 75.5756 162.889 75.3081C162.889 75.3081 161.947 77.1186 160.682 78.0332C161.345 78.9602 162.542 79.3211 163.088 79.4455H163.081Z" fill="#BCBEC0"/>
<path d="M163.081 79.4455C163.187 78.7176 163.516 77.6412 164.421 76.2289C164.421 76.2289 163.906 75.5756 162.889 75.3081C162.889 75.3081 161.947 77.1186 160.682 78.0332C161.345 78.9602 162.542 79.3211 163.088 79.4455H163.081Z" fill="black" fill-opacity="0.6"/>
<path d="M159.603 78.5185C159.603 78.5185 160.632 80.2543 163.112 80.5841C163.112 80.5841 162.976 80.1984 163.081 79.4455C162.542 79.3211 161.339 78.9602 160.675 78.0332C160.34 78.2758 159.975 78.4563 159.603 78.5185Z" fill="#F1F2F2"/>
<path d="M159.603 78.5185C159.603 78.5185 160.632 80.2543 163.112 80.5841C163.112 80.5841 162.976 80.1984 163.081 79.4455C162.542 79.3211 161.339 78.9602 160.675 78.0332C160.34 78.2758 159.975 78.4563 159.603 78.5185Z" fill="black" fill-opacity="0.6"/>
<path d="M162.864 81.0321C162.864 81.0321 161.562 79.2963 159.485 78.9292L162.864 81.0321Z" fill="#916017"/>
<path d="M162.864 81.0321C162.864 81.0321 161.562 79.2963 159.485 78.9292L162.864 81.0321Z" fill="black" fill-opacity="0.6"/>
</svg>
