<svg width="247" height="94" viewBox="0 0 247 94" fill="none" xmlns="http://www.w3.org/2000/svg">
<path d="M198.408 89.4803L152.858 2.26172C152.125 1.5319 150.929 1.5319 150.197 2.26172L94.3633 89.4803H198.408Z" fill="#03A774"/>
<path d="M197.002 86.7811L152.858 2.26178C152.416 1.82174 151.818 1.65539 151.247 1.73588V89.4804H197.002V86.7811Z" fill="#02B86B"/>
<path d="M147.886 13.1392C148.026 14.8028 149.41 16.1122 151.112 16.1122C152.815 16.1122 154.204 14.8028 154.344 13.1392C154.867 14.234 155.982 14.996 157.286 14.996C157.997 14.996 158.643 14.7652 159.182 14.3788L152.852 2.25635C152.12 1.52653 150.924 1.52653 150.191 2.25635L142.645 14.0461C143.237 14.6311 144.045 14.9906 144.945 14.9906C146.243 14.9906 147.358 14.2286 147.886 13.1339V13.1392Z" fill="#EDF2E7"/>
<path d="M154.35 13.1394C154.872 14.2341 155.987 14.9961 157.291 14.9961C158.002 14.9961 158.648 14.7654 159.187 14.379L152.858 2.2565C152.755 2.15455 152.642 2.06868 152.518 1.98819C152.491 1.97209 152.454 1.96136 152.427 1.94526C152.335 1.8916 152.238 1.85403 152.141 1.8111C152.114 1.80037 152.082 1.795 152.05 1.78427C151.942 1.75744 151.834 1.73597 151.721 1.71987C151.7 1.71987 151.678 1.71987 151.656 1.71451C151.522 1.70914 151.387 1.71451 151.252 1.72524V16.0908C152.901 16.0265 154.221 14.7439 154.361 13.1286L154.35 13.1394Z" fill="white"/>
<path d="M134.694 41.6236H130.697L132.862 39.5039L134.694 41.6236Z" fill="#02B86B"/>
<path d="M145.031 57.5025H141.028L143.199 55.3828L145.031 57.5025Z" fill="#02B86B"/>
<path d="M161.083 64.044H157.081L159.252 61.9297L161.083 64.044Z" fill="#03A774"/>
<path d="M172.234 78.2325H168.231L170.397 76.1182L172.234 78.2325Z" fill="#03A774"/>
<path d="M161.439 35.71H157.437L159.602 33.5957L161.439 35.71Z" fill="#03A774"/>
<path d="M173.661 54.6798H169.659L171.824 52.5601L173.661 54.6798Z" fill="#03A774"/>
<path d="M144.099 29.9843H140.765L142.569 28.2188L144.099 29.9843Z" fill="#02B86B"/>
<path d="M150.519 88.6696L84.6235 4.56343C79.6623 -1.47367 73.3922 -1.55416 67.7361 4.56343L0.321289 88.6696H150.519Z" fill="#017D6B"/>
<path d="M84.6236 4.56359C81.8333 1.16671 78.6282 -0.346586 75.353 0.0719857V88.6697H150.519L84.6236 4.56359Z" fill="#01977B"/>
<path d="M64.725 19.5891C67.009 19.5891 68.9698 18.2475 69.8747 16.3103C70.4296 18.8593 72.6974 20.7643 75.4231 20.7643C78.1487 20.7643 80.3465 18.9129 80.9444 16.4176C81.871 18.2958 83.7994 19.5837 86.0403 19.5837C89.1754 19.5837 91.7179 17.0562 91.7179 13.933C91.7179 13.8096 91.7017 13.6969 91.6964 13.5788L84.629 4.55806C79.6678 -1.47904 73.3976 -1.55953 67.7416 4.55806L59.1982 15.2155C59.78 17.7216 62.0317 19.5891 64.725 19.5891Z" fill="#EDF2E7"/>
<path d="M80.9391 16.4229C81.8656 18.3011 83.794 19.589 86.0349 19.589C89.17 19.589 91.7125 17.0615 91.7125 13.9383C91.7125 13.8148 91.6964 13.7021 91.691 13.5841L84.6236 4.56332C84.295 4.16085 83.9556 3.79058 83.6163 3.4364C83.5032 3.32371 83.39 3.22711 83.2769 3.11979C83.0399 2.88904 82.8083 2.67438 82.5713 2.47046C82.4366 2.35241 82.2965 2.25581 82.1619 2.14849C81.941 1.97676 81.7255 1.81041 81.4993 1.66015C81.3539 1.55819 81.203 1.47233 81.0576 1.3811C80.8367 1.25231 80.6159 1.12352 80.395 1.01083C80.2442 0.930334 80.0934 0.860572 79.9371 0.785444C79.7163 0.683484 79.49 0.597623 79.2638 0.517128C79.113 0.463465 78.9621 0.409802 78.8059 0.361505C78.5743 0.291743 78.3427 0.23808 78.1057 0.184417C77.9548 0.157586 77.8094 0.120022 77.6639 0.0985563C77.4054 0.0556258 77.1414 0.039527 76.8829 0.023428C76.759 0.0180617 76.6351 0.00196271 76.5058 0.00196271C76.1233 -0.0034036 75.7409 0.0126954 75.353 0.0609922H75.3477V20.7481C75.3477 20.7481 75.3908 20.7535 75.4123 20.7535C78.0949 20.7535 80.3358 18.9021 80.9337 16.4068L80.9391 16.4229Z" fill="white"/>
<path d="M87.0693 36.7718H81.521L84.5268 33.8364L87.0693 36.7718Z" fill="#017D6B"/>
<path d="M105.874 43.6409H100.326L103.326 40.7109L105.874 43.6409Z" fill="#017D6B"/>
<path d="M59.0205 29.1248H53.4668L56.478 26.1895L59.0205 29.1248Z" fill="#01977B"/>
<path d="M72.8158 39.1654H66.2817L69.8154 35.7095L72.8158 39.1654Z" fill="#01977B"/>
<path d="M40.9374 72.8285H34.4033L37.937 69.3726L40.9374 72.8285Z" fill="#01977B"/>
<path d="M51.7592 53.4022H45.2251L48.7642 49.9463L51.7592 53.4022Z" fill="#01977B"/>
<path d="M60.7494 69.3133H56.2515L58.6863 66.936L60.7494 69.3133Z" fill="#01977B"/>
<path d="M70.1547 54.7923H65.6514L68.0916 52.415L70.1547 54.7923Z" fill="#01977B"/>
<path d="M94.4813 56.3592H89.9834L92.4182 53.9766L94.4813 56.3592Z" fill="#017D6B"/>
<path d="M117.784 68.7765H110.819L114.59 65.0952L117.784 68.7765Z" fill="#017D6B"/>
<path d="M119.804 66.6558H116.001V91.6037H119.804V66.6558Z" fill="#996441"/>
<path d="M134.268 48.7535H129.802V44.7986C129.802 40.7041 126.473 37.3877 122.363 37.3877H111.698C107.588 37.3877 104.259 40.7041 104.259 44.7986V50.1112H102.028C97.9183 50.1112 94.5894 53.4276 94.5894 57.5221V63.205C94.5894 67.2995 97.9183 70.6159 102.028 70.6159H111.45C114.165 70.6159 116.535 69.1616 117.833 66.9936C119.131 69.1616 121.501 70.6159 124.216 70.6159H134.257C138.367 70.6159 141.696 67.2995 141.696 63.205V56.1644C141.696 52.0699 138.367 48.7535 134.257 48.7535H134.268Z" fill="#94CB49"/>
<path d="M117.822 37.3931H111.698C107.588 37.3931 104.259 40.7094 104.259 44.8039V50.1166H102.028C97.9183 50.1166 94.5894 53.433 94.5894 57.5275V63.2104C94.5894 67.3049 97.9183 70.6213 102.028 70.6213H111.45C114.159 70.6213 116.519 69.1723 117.822 67.0205V37.3984V37.3931Z" fill="#7BAC4E"/>
<path d="M132.867 48.6088C132.867 49.8645 131.844 50.8841 130.583 50.8841H124.55C123.29 50.8841 122.266 49.8645 122.266 48.6088C122.266 47.3531 123.29 46.3335 124.55 46.3335H130.583C131.844 46.3335 132.867 47.3531 132.867 48.6088Z" fill="#A3D84E"/>
<path d="M109.963 42.0727C109.963 43.0332 109.182 43.8167 108.212 43.8167H103.623C102.659 43.8167 101.872 43.0386 101.872 42.0727C101.872 41.1121 102.653 40.3286 103.623 40.3286H108.212C109.176 40.3286 109.963 41.1067 109.963 42.0727Z" fill="#94CB49"/>
<path d="M137.522 62.4214V67.9058C137.522 68.0453 137.484 68.0828 137.468 68.0989C137.328 68.2331 136.934 68.2868 136.724 68.276H132.884V64.6269H131.057V70.2347C131.057 73.1916 128.698 73.2291 128.698 73.2291H118.657L118.695 75.1986H128.66C132.539 75.1986 132.884 71.3724 132.884 71.3724V70.0952H136.643C136.67 70.0952 136.714 70.0952 136.762 70.0952C137.139 70.0952 138.066 70.0308 138.717 69.4244C139.132 69.038 139.348 68.5121 139.348 67.9058V62.4214H137.522Z" fill="#996441"/>
<path d="M110.141 76.5455H110.049C110.049 76.5455 108.298 76.7064 107.092 75.6171C106.241 74.8497 105.81 73.6155 105.81 71.9465V63.0814H103.984V66.6607H98.4998C98.4998 66.6607 97.2609 66.6554 96.3936 65.7967C95.8065 65.2172 95.5048 64.3425 95.5048 63.2102V56.8833H93.6787V63.2102C93.6787 64.8469 94.1581 66.1509 95.1062 67.09C96.4852 68.4531 98.349 68.4799 98.4998 68.4799H103.984V71.9465C103.984 74.1628 104.625 75.8586 105.885 76.9855C107.269 78.2251 109.004 78.3807 109.807 78.3807C109.984 78.3807 110.114 78.3754 110.189 78.37H116.825V76.5508H110.151L110.141 76.5455Z" fill="#996441"/>
<path d="M98.1607 56.0517C98.1607 57.0122 97.3796 57.7957 96.41 57.7957H91.8205C90.8563 57.7957 90.0698 57.0176 90.0698 56.0517C90.0698 55.0911 90.8509 54.3076 91.8205 54.3076H96.41C97.3742 54.3076 98.1607 55.0857 98.1607 56.0517Z" fill="#94CB49"/>
<path d="M109.522 61.2194C109.522 62.6522 108.353 63.8167 106.914 63.8167H98.8181C97.3799 63.8167 96.2109 62.6522 96.2109 61.2194C96.2109 59.7866 97.3799 58.6221 98.8181 58.6221H106.914C108.353 58.6221 109.522 59.7866 109.522 61.2194Z" fill="#94CB49"/>
<path d="M143.048 62.1317C143.048 63.7201 141.756 65.0081 140.161 65.0081H130.255C128.66 65.0081 127.368 63.7201 127.368 62.1317C127.368 60.5433 128.66 59.2554 130.255 59.2554H140.161C141.756 59.2554 143.048 60.5433 143.048 62.1317Z" fill="#A3D84E"/>
<path d="M107.383 61.4558C107.291 61.2895 107.156 61.15 106.989 61.0534L92.1167 52.0648C91.9444 51.9628 91.7451 51.9038 91.5404 51.9038H91.4219C91.2172 51.9038 91.0179 51.9575 90.8455 52.0648L75.9727 61.0534C75.8111 61.15 75.6765 61.2895 75.5795 61.4558L69.9773 71.4264L69.7188 71.8182V91.212H113.023V71.5016L107.372 61.4505L107.383 61.4558Z" fill="#C93623"/>
<path d="M79.2425 63.7956C79.3125 63.6668 79.4202 63.5594 79.5441 63.4843L90.9748 56.5725C91.1094 56.492 91.2603 56.4491 91.4165 56.4491H91.508C91.6643 56.4491 91.8151 56.492 91.9498 56.5725L103.38 63.4843C103.504 63.5594 103.612 63.6668 103.682 63.7956L113.033 75.9073V71.5123L107.383 61.4612C107.291 61.2949 107.156 61.1553 106.989 61.0587L92.1168 52.0702C91.9444 51.9682 91.7451 51.9092 91.5404 51.9092H91.4219C91.2172 51.9092 91.0179 51.9628 90.8455 52.0702L75.9727 61.0587C75.8111 61.1553 75.6765 61.2949 75.5795 61.4612L69.9773 71.4318L69.7188 71.8235V75.6927L72.3205 72.5158L79.2371 63.7956H79.2425Z" fill="#A91022"/>
<path d="M88.2812 53.6208V91.2118H88.7607V53.3311L88.2812 53.6208Z" fill="#A91022"/>
<path d="M82.9268 56.8567V91.2118H83.4116V56.5669L82.9268 56.8567Z" fill="#A91022"/>
<path d="M77.5723 60.0925V91.2117H78.0571V59.8027L77.5723 60.0925Z" fill="#A91022"/>
<path d="M72.2236 67.4553V91.2119H72.7031V66.5967L72.2236 67.4553Z" fill="#A91022"/>
<path d="M109.688 65.5557V91.212H110.167V66.4143L109.688 65.5557Z" fill="#A91022"/>
<path d="M104.333 59.4434V91.2119H104.818V59.7385L104.333 59.4434Z" fill="#A91022"/>
<path d="M98.9849 56.2129V91.212H99.4643V56.5027L98.9849 56.2129Z" fill="#A91022"/>
<path d="M93.6304 52.9717V91.212H94.1152V53.2668L93.6304 52.9717Z" fill="#A91022"/>
<path d="M114.342 73.3313C113.911 73.3313 113.491 73.1059 113.265 72.7035L107.043 61.6381L91.3786 52.1666L75.714 61.6381L69.4924 72.7035C69.1584 73.2938 68.4096 73.5084 67.8171 73.1757C67.2246 72.843 67.0145 72.0971 67.3431 71.5068L73.721 60.157C73.8233 59.9746 73.9741 59.819 74.1573 59.7063L90.673 49.7196C90.8669 49.6015 91.0878 49.5425 91.314 49.5425H91.4433C91.6695 49.5425 91.8904 49.6015 92.0843 49.7196L108.6 59.7063C108.783 59.8136 108.934 59.9692 109.036 60.157L115.414 71.5068C115.748 72.0971 115.533 72.8484 114.94 73.1757C114.752 73.283 114.542 73.3313 114.337 73.3313H114.342Z" fill="#EFE5CA"/>
<path d="M102.664 76.8999H80.0933V91.244H102.664V76.8999Z" fill="#A91022"/>
<path d="M102.001 77.9731H80.5352V90.8147H102.001V77.9731Z" fill="#F8D7A2"/>
<path d="M100.724 78.6763H91.9062L96.3126 83.887L100.724 78.6763Z" fill="#891024"/>
<path d="M81.5205 90.1066H90.5433L86.0346 84.7778L81.5205 90.1066Z" fill="#891024"/>
<path d="M91.4756 79.2397V89.6075L95.8604 84.4236L91.4756 79.2397Z" fill="#891024"/>
<path d="M91.9546 90.1062H100.67L96.3124 84.96L91.9546 90.1062Z" fill="#891024"/>
<path d="M101.29 89.7683V79.0786L96.7651 84.4235L101.29 89.7683Z" fill="#891024"/>
<path d="M81.2407 79.1162V89.3766L85.5824 84.2464L81.2407 79.1162Z" fill="#891024"/>
<path d="M90.7051 89.2372V79.2559L86.4819 84.2465L90.7051 89.2372Z" fill="#891024"/>
<path d="M90.2957 78.6763H81.7686L86.0348 83.7152L90.2957 78.6763Z" fill="#891024"/>
<path d="M103.461 75.7515H79.2964V77.1413H103.461V75.7515Z" fill="#BF7F55"/>
<path d="M94.9555 62.0352H87.2524V69.9505H94.9555V62.0352Z" fill="#603913"/>
<path d="M94.9555 65.7378H87.2524V69.9503H94.9555V65.7378Z" fill="#3C2415"/>
<path d="M95.5158 70.3745H86.7192V61.6113H95.5158V70.3745ZM87.5272 69.5749H94.7131V62.4163H87.5272V69.5749Z" fill="#F8D7A2"/>
<path d="M94.9933 65.4697H87.1987V65.9634H94.9933V65.4697Z" fill="#F8D7A2"/>
<path d="M91.3413 61.8315H90.8457V69.5966H91.3413V61.8315Z" fill="#F8D7A2"/>
<path d="M130.056 60.7846C130.056 60.8168 130.034 60.8383 130.002 60.8383H125.778C125.746 60.8383 125.725 60.8168 125.725 60.7846C125.725 60.7524 125.746 60.731 125.778 60.731H130.002C130.034 60.731 130.056 60.7578 130.056 60.7846Z" fill="#908774"/>
<path d="M127.804 58.874L127.745 62.2977C127.745 62.2977 127.755 62.3514 127.874 62.346C127.928 62.3406 127.976 62.3245 127.982 62.2762L127.89 58.8955C127.89 58.8955 127.847 58.8096 127.804 58.8794V58.874Z" fill="#908774"/>
<path d="M127.082 56.2235C127.082 56.2235 127.006 56.3683 126.85 56.4971C126.699 56.6259 126.64 56.8406 126.813 56.9103C126.985 56.9801 127.071 56.846 127.076 56.6581C127.076 56.4703 127.098 56.3201 127.098 56.2718C127.098 56.2181 127.098 56.2181 127.082 56.2235Z" fill="#E44D27"/>
<path d="M127.119 56.0732C127.119 56.0732 127.012 56.143 126.915 56.1537C126.861 56.1645 126.926 56.2933 127.076 56.2557C127.119 56.2289 127.119 56.0679 127.119 56.0679V56.0732Z" fill="#FE9915"/>
<path d="M127.292 55.8422C127.292 55.8422 127.077 55.7993 127.017 55.6008C126.958 55.4022 127.179 55.4022 127.244 55.4666C127.314 55.1339 127.481 55.1285 127.556 55.1661C127.642 55.209 127.642 55.3754 127.604 55.4183C127.755 55.2949 127.858 55.3968 127.868 55.4612C127.879 55.5256 127.863 55.6115 127.782 55.633C127.885 55.6437 127.895 55.7778 127.852 55.8261C127.809 55.8744 127.653 55.9603 127.508 55.8744C127.367 55.81 127.292 55.8369 127.292 55.8369V55.8422Z" fill="#E44D27"/>
<path d="M124.873 61.1118C124.873 61.1118 125.003 61.1601 125.067 61.0957C125.062 60.543 125.073 60.4088 125.073 60.4088C125.073 60.4088 125.541 61.0045 125.601 61.0743C125.649 61.1226 125.714 61.1226 125.805 61.1065C125.821 61.0045 125.816 60.0332 125.816 60.0332H125.601V60.704C125.601 60.704 125.59 60.7147 125.504 60.6342C125.417 60.5484 125.03 60.0708 125.03 60.0708C125.03 60.0708 124.89 60.0654 124.863 60.0761C124.83 60.0869 124.873 61.1118 124.873 61.1118Z" fill="#FF9915"/>
<path d="M130.632 59.9365C130.632 59.9365 130.621 59.9848 130.6 60.0009C130.583 60.017 130.546 60.0224 130.524 60.0117C130.449 59.9795 130.33 59.9473 130.255 59.9956C130.158 60.0546 130.131 60.2209 130.39 60.3014C130.648 60.3819 130.697 60.661 130.583 60.8488C130.47 61.0366 130.099 61.0849 129.937 60.779C129.926 60.6664 130.077 60.6234 130.12 60.6664C130.163 60.7093 130.212 60.7844 130.325 60.7629C130.438 60.7415 130.481 60.6395 130.406 60.5268C130.325 60.4195 130.12 60.4624 130.018 60.2746C129.905 60.06 130.077 59.6629 130.567 59.8185C130.616 59.8346 130.643 59.8882 130.637 59.9365H130.632Z" fill="#FF9915"/>
<path d="M128.283 60.7848C128.283 61.0209 128.089 61.2141 127.852 61.2141C127.615 61.2141 127.421 61.0209 127.421 60.7848C127.421 60.5487 127.615 60.3555 127.852 60.3555C128.089 60.3555 128.283 60.5487 128.283 60.7848Z" fill="#B0A693"/>
<path d="M128.649 57.2805C128.649 57.2805 128.299 57.5328 127.949 57.3288C127.599 57.1249 127.486 56.5829 127.551 56.2878C127.615 55.9926 127.561 55.7941 127.464 55.7512C127.367 55.7082 127.19 55.7404 127.109 56.0463C127.028 56.3522 126.796 57.8869 127.055 58.4343C127.314 58.9817 127.825 59.1266 128.321 58.928C128.542 58.826 128.833 58.5846 128.876 57.9782C129.091 58.0265 129.377 57.8655 129.377 57.7421C129.377 57.6186 129.29 57.5703 129.199 57.5864C129.366 57.4362 129.517 57.2645 129.501 57.0605C129.484 56.8566 129.274 56.8781 129.193 56.9747C129.237 56.819 129.317 56.4756 129.091 56.3951C128.86 56.3092 128.526 56.5293 128.649 57.2752V57.2805Z" fill="#FFC83E"/>
<path d="M127.308 55.9926C127.308 56.0248 127.287 56.0463 127.255 56.0463C127.222 56.0463 127.201 56.0248 127.201 55.9926C127.201 55.9604 127.222 55.939 127.255 55.939C127.287 55.939 127.308 55.9604 127.308 55.9926Z" fill="#E44D27"/>
<path d="M127.987 60.7845C127.987 60.8597 127.928 60.9187 127.852 60.9187C127.777 60.9187 127.718 60.8597 127.718 60.7845C127.718 60.7094 127.777 60.6504 127.852 60.6504C127.928 60.6504 127.987 60.7094 127.987 60.7845Z" fill="#D6CFC6"/>
<path d="M126.182 59.1372C126.182 59.1372 126.317 59.2177 126.344 59.2284C126.365 59.2445 126.279 59.2821 126.198 59.2767C126.193 59.1962 126.182 59.1318 126.182 59.1318V59.1372Z" fill="#FE9915"/>
<path d="M125.956 58.8579C125.956 58.8579 126.134 58.8472 126.182 59.1048C126.231 59.3624 126.258 60.0117 125.848 60.0493C125.466 60.0868 125.266 59.9634 125.164 59.7326C125.062 59.4912 125.126 59.4268 125.148 59.3999C125.116 59.3463 125.148 59.3033 125.159 59.3141C125.153 59.2229 125.196 59.1638 125.239 59.2336C125.277 59.3033 125.336 59.3516 125.471 59.3516C125.606 59.3516 125.676 59.2765 125.697 59.1638C125.719 59.0511 125.767 58.8365 125.961 58.8579H125.956Z" fill="#FFC83E"/>
<path d="M126.015 59.0732C126.015 59.0732 126.037 59.1166 126.059 59.1166C126.08 59.1166 126.102 59.0949 126.102 59.0732C126.102 59.0515 126.086 59.0298 126.059 59.0298C126.031 59.0298 126.015 59.0515 126.015 59.0732Z" fill="#BE1E2D"/>
<path d="M125.853 59.4805H125.347C125.347 59.4805 125.32 59.7166 125.568 59.7166C125.848 59.7166 125.853 59.4805 125.853 59.4805Z" fill="#FFDF40"/>
<path d="M129.834 58.8745C129.834 58.8745 129.7 58.955 129.678 58.9657C129.657 58.9818 129.743 59.0194 129.824 59.014C129.829 58.9389 129.84 58.8691 129.84 58.8691L129.834 58.8745Z" fill="#FE9915"/>
<path d="M130.061 58.5952C130.061 58.5952 129.883 58.5845 129.835 58.8421C129.786 59.0997 129.759 59.749 130.174 59.7866C130.556 59.8241 130.756 59.7007 130.858 59.47C130.96 59.2285 130.896 59.1641 130.874 59.1372C130.907 59.0836 130.874 59.0406 130.863 59.0514C130.869 58.9602 130.826 58.9011 130.783 58.9709C130.745 59.0406 130.686 59.0889 130.551 59.0889C130.416 59.0889 130.346 59.0138 130.325 58.9011C130.303 58.7884 130.255 58.5738 130.061 58.5952Z" fill="#FFC83E"/>
<path d="M130.002 58.8159C130.002 58.8159 129.98 58.8593 129.959 58.8593C129.937 58.8593 129.915 58.8376 129.915 58.8159C129.915 58.7942 129.937 58.7725 129.959 58.7725C129.98 58.7725 130.002 58.7942 130.002 58.8159Z" fill="#BE1E2D"/>
<path d="M130.163 59.2178H130.669C130.669 59.2178 130.696 59.4539 130.449 59.4539C130.168 59.4539 130.163 59.2178 130.163 59.2178Z" fill="#FFDF40"/>
<path d="M127.604 57.4092L128.45 57.817C128.45 57.817 128.283 58.3751 127.766 58.2463C127.243 58.1175 127.604 57.4092 127.604 57.4092Z" fill="#FFDF40"/>
<path d="M127.836 63.688L121.798 68.244L119.212 74.8982H136.498L133.912 68.244L127.836 63.688Z" fill="#B2271D"/>
<path d="M136.503 73.9429H119.212V91.4102H136.503V73.9429Z" fill="#C93623"/>
<path d="M136.503 73.9429H119.212V75.1396H136.503V73.9429Z" fill="#891024"/>
<path d="M136.503 75.73H119.212V76.111H136.503V75.73Z" fill="#A91022"/>
<path d="M136.503 77.3184H119.212V77.6994H136.503V77.3184Z" fill="#A91022"/>
<path d="M136.503 78.9121H119.212V79.2931H136.503V78.9121Z" fill="#A91022"/>
<path d="M136.503 80.5005H119.212V80.8815H136.503V80.5005Z" fill="#A91022"/>
<path d="M136.503 82.0889H119.212V82.4699H136.503V82.0889Z" fill="#A91022"/>
<path d="M136.503 83.6772H119.212V84.0582H136.503V83.6772Z" fill="#A91022"/>
<path d="M136.503 85.2656H119.212V85.6466H136.503V85.2656Z" fill="#A91022"/>
<path d="M136.503 86.854H119.212V87.235H136.503V86.854Z" fill="#A91022"/>
<path d="M136.503 88.4424H119.212V88.8234H136.503V88.4424Z" fill="#A91022"/>
<path d="M136.503 90.0361H119.212V90.4171H136.503V90.0361Z" fill="#A91022"/>
<path d="M131.521 81.2729H123.834V91.4099H131.521V81.2729Z" fill="#A91022"/>
<path d="M131.521 81.2729H123.834V91.4099H131.521V81.2729Z" fill="#A91022"/>
<path d="M125.374 82.373H125.121V91.4099H125.374V82.373Z" fill="#891024"/>
<path d="M126.344 82.373H126.091V91.4099H126.344V82.373Z" fill="#891024"/>
<path d="M127.314 82.373H127.061V91.4099H127.314V82.373Z" fill="#891024"/>
<path d="M128.283 82.373H128.03V91.4099H128.283V82.373Z" fill="#891024"/>
<path d="M129.253 82.373H129V91.4099H129.253V82.373Z" fill="#891024"/>
<path d="M130.222 82.373H129.969V91.4099H130.222V82.373Z" fill="#891024"/>
<path d="M124.281 81.8525V91.4099H124.701V82.4482H130.659V91.4099H131.079V81.8525H124.281Z" fill="#F8D7A2"/>
<path d="M124.453 82.4163L130.389 91.4102H130.847L124.771 82.207L124.453 82.4163Z" fill="#F8D7A2"/>
<path d="M130.675 82.207L124.599 91.4102H125.056L130.993 82.4163L130.675 82.207Z" fill="#F8D7A2"/>
<path d="M120.624 71.2652V74.8982H121.006V70.2778L120.624 71.2652Z" fill="#891024"/>
<path d="M123.419 67.0203V74.898H123.801V66.7358L123.419 67.0203Z" fill="#891024"/>
<path d="M126.215 64.9114V74.8981H126.597V64.6216L126.215 64.9114Z" fill="#891024"/>
<path d="M129.01 64.5679V74.898H129.393V64.8523L129.01 64.5679Z" fill="#891024"/>
<path d="M131.801 66.666V74.8979H132.183V66.9504L131.801 66.666Z" fill="#891024"/>
<path d="M134.979 70.9913L134.597 70.0093V74.898H134.979V70.9913Z" fill="#891024"/>
<path d="M133.912 68.244L127.836 63.688L121.798 68.244L119.212 74.8982H120.359L122.94 68.5123L127.858 64.8954L132.77 68.5123L135.351 74.8982H136.498L133.912 68.244Z" fill="#891024"/>
<path d="M138.68 76.5671L135.006 67.4712C134.963 67.3692 134.893 67.2726 134.801 67.2082L128.294 62.4215C128.197 62.3356 128.073 62.282 127.938 62.2659C127.782 62.2498 127.626 62.2873 127.502 62.3678C127.486 62.3786 127.47 62.3893 127.454 62.4054L120.925 67.2082C120.833 67.278 120.758 67.3692 120.715 67.4712L117.041 76.5671C116.912 76.8837 117.073 77.2379 117.402 77.3613L117.698 77.474C117.855 77.533 118.032 77.5277 118.183 77.4633C118.339 77.3989 118.458 77.2754 118.517 77.1252L122.094 68.2708L127.858 64.0314L133.621 68.2708L137.198 77.1252C137.258 77.2754 137.381 77.3989 137.538 77.4633C137.618 77.4955 137.705 77.5169 137.791 77.5169C137.872 77.5169 137.947 77.5008 138.022 77.474L138.319 77.3613C138.647 77.2379 138.809 76.8837 138.68 76.5671Z" fill="#EFE5CA"/>
<path d="M27.6596 51.3599C28.9093 50.9681 29.8143 49.8037 29.8143 48.4299C29.8143 46.7341 28.4353 45.3604 26.7331 45.3604C25.0309 45.3604 23.6519 46.7341 23.6519 48.4299C23.6519 49.8037 24.5569 50.9628 25.8012 51.3599L15.2217 93.8127H18.8847L19.3533 91.4355H35.4003L35.9336 93.8127H39.7528L27.665 51.3652L27.6596 51.3599ZM31.5219 74.113L27.8859 69.0526L29.7874 66.3748L31.5219 74.113ZM27.0563 70.2171L30.9994 75.7068H23.1509L27.0563 70.2171ZM27.0563 67.8935L25.2787 65.4196H28.8178L27.0563 67.8935ZM31.2472 76.9947L27.3634 80.8639L23.3718 76.9947H31.2472ZM26.2429 56.3184H27.5357L29.2433 63.9385H24.7508L26.2483 56.3184H26.2429ZM24.2768 66.348L26.2268 69.0633L22.8008 73.8823L24.2768 66.348ZM22.0682 77.6119L26.4099 81.8191L19.9889 88.2157L22.0682 77.6119ZM20.8454 89.2621L27.3795 82.7582L34.0968 89.2621H20.8508H20.8454ZM28.333 81.803L32.3461 77.805L34.6031 87.8776L28.333 81.803Z" fill="#AD6F53"/>
<path d="M44.8538 62.2535L36.4721 53.9036C35.5402 52.9752 34.1342 52.8142 33.0353 53.4152L27.2554 47.6572L27.2446 47.6465L21.4646 41.8884C22.068 40.7937 21.9064 39.3877 20.9745 38.4593L12.5927 30.1094C11.4615 28.9824 9.63001 28.9824 8.4988 30.1094C7.36759 31.2363 7.36759 33.0662 8.4988 34.1931L16.8805 42.5431C17.8717 43.5305 19.4069 43.6539 20.5327 42.9026L26.2696 48.6178L26.2858 48.6285L32.0226 54.3436C31.2739 55.4652 31.3924 56.9946 32.3835 57.982L40.7653 66.3319C41.8965 67.4589 43.728 67.4589 44.8592 66.3319C45.9904 65.205 45.9904 63.3751 44.8592 62.2482L44.8538 62.2535Z" fill="#F4F4F4"/>
<path d="M12.5927 66.3373L20.9745 57.9873C21.9064 57.059 22.068 55.6583 21.4647 54.5583L27.2446 48.8002L27.2554 48.7895L33.0354 43.0314C34.1343 43.6325 35.5402 43.4715 36.4721 42.5431L44.8538 34.1931C45.9851 33.0662 45.9851 31.2363 44.8538 30.1094C43.7226 28.9824 41.8911 28.9824 40.7545 30.1094L32.3728 38.4593C31.3816 39.4467 31.2577 40.9761 32.0119 42.0977L26.275 47.8128L26.2589 47.8235L20.522 53.5387C19.3962 52.7927 17.861 52.9108 16.8698 53.8982L8.48806 62.2482C7.35685 63.3751 7.35685 65.205 8.48806 66.3319C9.61927 67.4589 11.4508 67.4589 12.582 66.3319L12.5927 66.3373Z" fill="#F4F4F4"/>
<path d="M51.6354 81.3703L51.1344 80.9785L48.9959 83.7207V81.3864H48.2148V91.5662H48.9959V84.751L51.6354 81.3703Z" fill="#825E06"/>
<path d="M54.8191 75.2097C54.8191 79.2881 52.2389 82.5938 49.0553 82.5938C45.8718 82.5938 43.2861 79.2881 43.2861 75.2097C43.2861 71.1313 45.8664 67.8311 49.0553 67.8311C52.2443 67.8311 54.8191 71.1367 54.8191 75.2097Z" fill="#7BAC4E"/>
<path d="M49.1362 67.8364V82.5884C52.2875 82.5347 54.8246 79.2559 54.8246 75.2097C54.8246 71.1635 52.2875 67.8901 49.1362 67.8311V67.8364Z" fill="#94CB49"/>
<path d="M42.2844 84.252H41.5518V91.5716H42.2844V84.252Z" fill="#825E06"/>
<path d="M47.3908 79.1377C47.3908 82.1643 44.9291 84.6167 41.891 84.6167C38.8528 84.6167 36.3911 82.1643 36.3911 79.1377C36.3911 76.1111 38.8528 73.6587 41.891 73.6587C44.9291 73.6587 47.3908 76.1111 47.3908 79.1377Z" fill="#325C40"/>
<path d="M41.8965 73.6587V84.6167C44.9292 84.6167 47.3963 82.1643 47.3963 79.1377C47.3963 76.1111 44.9346 73.6641 41.8965 73.6587Z" fill="#386D48"/>
<path d="M64.3104 55.7461H51.3877V91.3194H64.3104V55.7461Z" fill="#C93623"/>
<path d="M57.911 55.7461H51.3877V91.3194H57.911V55.7461Z" fill="#AF2522"/>
<path d="M57.8517 48.5391C54.2857 48.5391 51.3931 51.4208 51.3931 54.9733V55.746H64.3158V54.9733C64.3158 51.4208 61.4231 48.5391 57.8571 48.5391H57.8517Z" fill="#EFE5CA"/>
<path d="M57.8517 48.5391C54.2857 48.5391 51.3931 51.4208 51.3931 54.9733V55.746H57.9164V48.5444C57.9164 48.5444 57.8733 48.5444 57.8517 48.5444V48.5391Z" fill="#DDD3BA"/>
<path d="M64.9785 54.9731H50.8438V56.5669H64.9785V54.9731Z" fill="#DF462B"/>
<path d="M64.8545 62.4214H50.7197V64.0152H64.8545V62.4214Z" fill="#DF462B"/>
<path d="M64.9785 69.8647H50.8438V71.4585H64.9785V69.8647Z" fill="#DF462B"/>
<path d="M64.8545 77.3076H50.7197V78.9014H64.8545V77.3076Z" fill="#DF462B"/>
<path d="M64.8545 84.751H50.7197V86.3448H64.8545V84.751Z" fill="#DF462B"/>
<path d="M57.9111 54.9731H50.8438V56.5669H57.9111V54.9731Z" fill="#C93623"/>
<path d="M57.911 62.4214H50.7197V64.0152H57.911V62.4214Z" fill="#C93623"/>
<path d="M57.9111 69.8647H50.8438V71.4585H57.9111V69.8647Z" fill="#C93623"/>
<path d="M57.911 77.3076H50.7197V78.9014H57.911V77.3076Z" fill="#C93623"/>
<path d="M57.911 84.751H50.7197V86.3448H57.911V84.751Z" fill="#C93623"/>
<path d="M67.548 86.8003H47.3208V87.7233H67.548V86.8003Z" fill="#EDF2E7"/>
<path d="M67.548 89.2261H47.3208V90.1544H67.548V89.2261Z" fill="#EDF2E7"/>
<path d="M67.8392 91.319V86.0063C67.8392 85.6951 67.5861 85.4375 67.2683 85.4375C66.9504 85.4375 66.6973 85.6897 66.6973 86.0063V91.319H67.8392Z" fill="#EDF2E7"/>
<path d="M61.2401 91.319V86.0063C61.2401 85.6951 60.987 85.4375 60.6691 85.4375C60.3513 85.4375 60.0981 85.6897 60.0981 86.0063V91.319H61.2401Z" fill="#EDF2E7"/>
<path d="M54.6415 91.319V86.0063C54.6415 85.6951 54.3883 85.4375 54.0705 85.4375C53.7527 85.4375 53.4995 85.6897 53.4995 86.0063V91.319H54.6415Z" fill="#EDF2E7"/>
<path d="M48.0429 91.319V86.0063C48.0429 85.6951 47.7897 85.4375 47.4719 85.4375C47.1541 85.4375 46.9009 85.6897 46.9009 86.0063V91.319H48.0429Z" fill="#EDF2E7"/>
<path d="M224 86.8003H104.517V87.7233H224V86.8003Z" fill="#EDF2E7"/>
<path d="M224 89.2261H104.517V90.1544H224V89.2261Z" fill="#EDF2E7"/>
<path d="M105.239 91.319V86.0063C105.239 85.6951 104.985 85.4375 104.668 85.4375C104.35 85.4375 104.097 85.6897 104.097 86.0063V91.319H105.239Z" fill="#EDF2E7"/>
<path d="M114.822 91.319V86.0063C114.822 85.6951 114.568 85.4375 114.251 85.4375C113.933 85.4375 113.68 85.6897 113.68 86.0063V91.319H114.822Z" fill="#EDF2E7"/>
<path d="M124.405 91.319V86.0063C124.405 85.6951 124.152 85.4375 123.834 85.4375C123.516 85.4375 123.263 85.6897 123.263 86.0063V91.319H124.405Z" fill="#EDF2E7"/>
<path d="M133.988 91.319V86.0063C133.988 85.6951 133.735 85.4375 133.417 85.4375C133.099 85.4375 132.846 85.6897 132.846 86.0063V91.319H133.988Z" fill="#EDF2E7"/>
<path d="M143.571 91.319V86.0063C143.571 85.6951 143.318 85.4375 143 85.4375C142.682 85.4375 142.429 85.6897 142.429 86.0063V91.319H143.571Z" fill="#EDF2E7"/>
<path d="M153.154 91.319V86.0063C153.154 85.6951 152.901 85.4375 152.583 85.4375C152.265 85.4375 152.012 85.6897 152.012 86.0063V91.319H153.154Z" fill="#EDF2E7"/>
<path d="M162.737 91.319V86.0063C162.737 85.6951 162.484 85.4375 162.166 85.4375C161.848 85.4375 161.595 85.6897 161.595 86.0063V91.319H162.737Z" fill="#EDF2E7"/>
<path d="M172.32 91.319V86.0063C172.32 85.6951 172.067 85.4375 171.749 85.4375C171.431 85.4375 171.178 85.6897 171.178 86.0063V91.319H172.32Z" fill="#EDF2E7"/>
<path d="M181.903 91.319V86.0063C181.903 85.6951 181.65 85.4375 181.332 85.4375C181.014 85.4375 180.761 85.6897 180.761 86.0063V91.319H181.903Z" fill="#EDF2E7"/>
<path d="M191.486 91.319V86.0063C191.486 85.6951 191.233 85.4375 190.915 85.4375C190.597 85.4375 190.344 85.6897 190.344 86.0063V91.319H191.486Z" fill="#EDF2E7"/>
<path d="M201.068 91.319V86.0063C201.068 85.6951 200.815 85.4375 200.497 85.4375C200.179 85.4375 199.926 85.6897 199.926 86.0063V91.319H201.068Z" fill="#EDF2E7"/>
<path d="M210.651 91.319V86.0063C210.651 85.6951 210.398 85.4375 210.08 85.4375C209.762 85.4375 209.509 85.6897 209.509 86.0063V91.319H210.651Z" fill="#EDF2E7"/>
<path d="M220.234 91.319V86.0063C220.234 85.6951 219.981 85.4375 219.663 85.4375C219.345 85.4375 219.092 85.6897 219.092 86.0063V91.319H220.234Z" fill="#EDF2E7"/>
<path d="M164.103 74.5577L165.685 70.8079C165.919 70.2538 166.563 69.9879 167.124 70.2229L167.248 70.2749C167.81 70.5099 168.071 71.1493 167.836 71.7083L166.253 75.4581C166.019 76.0122 165.376 76.2781 164.814 76.0431L164.69 75.9911C164.134 75.7582 163.867 75.1167 164.103 74.5577Z" fill="#3F4843"/>
<path d="M159.305 72.0324C159.305 71.8338 159.144 71.6729 158.944 71.6729C158.745 71.6729 158.583 71.8338 158.583 72.0324V74.9034C158.583 75.1019 158.745 75.2629 158.944 75.2629C159.144 75.2629 159.305 75.1019 159.305 74.9034V72.0324Z" fill="#5F676A"/>
<path d="M145.181 74.3344V71.3507C145.181 70.8087 144.874 70.3418 144.432 70.1004V67.986H146.075L146.523 66.5532H143.711C143.56 66.5532 143.425 66.5962 143.307 66.6766C143.118 66.8054 142.989 67.0255 142.989 67.2723V70.1379C142.579 70.3901 142.299 70.8355 142.299 71.3561V74.3397H145.176L145.181 74.3344Z" fill="#FBB040"/>
<path d="M145.181 73.7334H142.305V74.3344H145.181V73.7334Z" fill="#D86E1E"/>
<path d="M172.438 73.755L170.44 62.4214L160.561 62.5448L155.12 74.0663H145.181H142.305H141.244C141.244 74.0663 140.495 74.3131 140.43 76.0572C140.371 77.8012 140.371 80.7903 140.371 80.7903L140.403 81.9226C141.459 81.1927 142.741 80.7634 144.126 80.7634C147.061 80.7634 149.545 82.6899 150.374 85.3409H158.056C158.034 85.094 158.023 84.8472 158.023 84.595C158.023 79.6365 162.058 75.6171 167.035 75.6171C170.434 75.6171 173.392 77.49 174.927 80.259C174.808 78.3164 174.184 76.025 172.444 73.7497L172.438 73.755ZM156.925 74.179L161.352 63.8274H169.303L170.779 74.179H156.925Z" fill="#FBB040"/>
<path d="M150.212 84.8901C150.272 85.035 150.326 85.1853 150.374 85.3355H158.055C158.045 85.1853 158.034 85.0404 158.029 84.8901H150.212Z" fill="#D86E1E"/>
<path d="M150.137 85.2551L147.578 86.4411L141.771 84.257L140.629 81.8422C140.629 81.8422 142.504 80.2913 145.978 81.1606C149.453 82.0246 149.862 84.257 150.137 85.2605V85.2551Z" fill="#D86E1E"/>
<path d="M158.233 84.9382H169.89L174.577 80.2696C174.577 80.2696 172.955 76.3736 169.75 75.7833C166.55 75.193 161.385 75.6921 159.327 79.2929C157.269 82.8937 158.228 84.9436 158.228 84.9436L158.233 84.9382Z" fill="#D86E1E"/>
<path d="M148.607 77.2325H141.933C141.653 77.2325 141.421 77.0071 141.421 76.7227C141.421 76.4383 141.648 76.2129 141.933 76.2129H148.607C148.887 76.2129 149.119 76.4383 149.119 76.7227C149.119 77.0071 148.893 77.2325 148.607 77.2325Z" fill="#D86E1E"/>
<path d="M152.696 79.0087C152.539 79.0999 152.362 79.0785 152.297 78.9711L150.681 76.127C150.616 76.0197 150.697 75.8587 150.853 75.7675C151.01 75.6816 151.187 75.6977 151.252 75.805L152.868 78.6492C152.927 78.7565 152.852 78.9175 152.696 79.0087Z" fill="#D86E1E"/>
<path d="M154.484 78.8959C154.328 78.9818 154.15 78.9657 154.086 78.8584L152.47 76.0196C152.405 75.9123 152.486 75.7513 152.642 75.66C152.798 75.5742 152.976 75.5903 153.041 75.6976L154.657 78.5364C154.721 78.6437 154.64 78.8047 154.484 78.8959Z" fill="#D86E1E"/>
<path d="M156.342 78.8959C156.186 78.9818 156.008 78.9657 155.944 78.8584L154.328 76.0196C154.269 75.9123 154.344 75.7513 154.5 75.66C154.656 75.5742 154.834 75.5903 154.899 75.6976L156.515 78.5364C156.574 78.6437 156.499 78.8047 156.342 78.8959Z" fill="#D86E1E"/>
<path d="M150.013 85.6735C149.389 83.1299 147.568 82.1479 146.792 81.7293L146.738 81.7025C143.237 80.0335 140.479 82.2874 140.366 82.384L139.833 81.7561C139.962 81.6434 143.097 79.0569 147.11 80.9673L147.18 81.0048C147.977 81.4342 150.089 82.5825 150.805 85.475L150.008 85.6682L150.013 85.6735Z" fill="#FFD261"/>
<path d="M157.501 85.8937C157.485 85.8293 156.224 79.4756 162.78 75.907L162.807 75.8963C165.926 74.3991 169.303 74.603 172.32 76.4705L172.449 76.5617C173.413 77.2379 174.108 77.7262 175.66 80.3664L174.711 80.9192C173.284 78.4829 172.702 78.075 171.819 77.4579L171.727 77.3935C169.012 75.7192 166.098 75.5368 163.297 76.8783C157.485 80.0498 158.53 85.4483 158.578 85.6737L157.506 85.8991L157.501 85.8937Z" fill="#FFD261"/>
<path d="M149.097 90.1919C149.097 90.1919 149.803 89.3333 149.706 88.4479L148.763 87.6483C148.78 87.4229 148.774 87.1975 148.753 86.9721L149.717 86.1404C149.717 86.1404 149.636 85.0349 148.952 84.4553L147.713 84.5197C147.584 84.3641 147.438 84.2192 147.288 84.0851L147.379 82.7649C147.379 82.7649 146.533 82.0405 145.639 82.1156L144.842 83.0011C144.535 82.9689 144.228 82.9635 143.926 82.9903L143.027 82.0083C143.027 82.0083 141.917 82.1156 141.357 82.8132L141.454 84.0475C141.271 84.2085 141.093 84.3856 140.937 84.5734L139.628 84.5144C139.628 84.5144 138.922 85.373 139.019 86.2638L139.935 87.0419C139.913 87.3048 139.918 87.5678 139.945 87.8254L139.03 88.6196C139.03 88.6196 139.11 89.725 139.795 90.3046L140.974 90.2402C141.147 90.4441 141.341 90.632 141.551 90.8037L141.459 92.0648C141.459 92.0648 142.305 92.7892 143.199 92.7141L144.034 91.7857C144.309 91.8072 144.583 91.7964 144.853 91.7696L145.698 92.6926C145.698 92.6926 146.808 92.5853 147.368 91.8877L147.277 90.6963C147.471 90.5246 147.654 90.3368 147.815 90.1275L149.097 90.1866V90.1919Z" fill="#454A4C"/>
<path d="M143.29 89.8053C141.933 89.2365 141.297 87.6749 141.868 86.3172C142.445 84.9649 144.007 84.3263 145.37 84.9005C146.727 85.4693 147.363 87.0309 146.792 88.3886C146.215 89.7409 144.648 90.3741 143.29 89.8053Z" fill="#E6E7E8"/>
<path d="M144.923 87.6053C144.783 87.9327 144.406 88.0829 144.077 87.9488C143.748 87.8093 143.598 87.4336 143.732 87.1063C143.872 86.7789 144.249 86.6287 144.578 86.7628C144.907 86.9024 145.057 87.278 144.917 87.6053H144.923Z" fill="#939598"/>
<path d="M173.973 89.0867C173.973 89.0867 175.04 87.8418 174.921 86.527L173.553 85.3196C173.58 84.9869 173.58 84.6542 173.553 84.3268L174.997 83.1194C174.997 83.1194 174.905 81.4827 173.909 80.6133L172.077 80.6777C171.889 80.447 171.678 80.2323 171.458 80.0284L171.63 78.0858C171.63 78.0858 170.402 76.9965 169.082 77.0769L167.881 78.3649C167.428 78.3058 166.976 78.2951 166.534 78.3273L165.231 76.8516C165.231 76.8516 163.593 76.9803 162.742 77.9946L162.85 79.8191C162.57 80.0499 162.311 80.3075 162.069 80.5811L160.14 80.4577C160.14 80.4577 159.074 81.7027 159.192 83.0174L160.523 84.1927C160.485 84.579 160.479 84.9654 160.512 85.3518L159.138 86.5002C159.138 86.5002 159.23 88.1369 160.226 89.0062L161.966 88.9419C162.219 89.2477 162.494 89.5322 162.801 89.7897L162.634 91.6465C162.634 91.6465 163.862 92.7358 165.182 92.6553L166.443 91.3084C166.847 91.346 167.256 91.3406 167.655 91.3084L168.877 92.6983C168.877 92.6983 170.515 92.5695 171.366 91.5552L171.258 89.7951C171.549 89.5482 171.824 89.2692 172.072 88.9687L173.962 89.0921L173.973 89.0867Z" fill="#454A4C"/>
<path d="M165.414 88.3569C163.426 87.4768 162.527 85.1532 163.41 83.1731C164.293 81.1929 166.626 80.2967 168.614 81.1768C170.601 82.0569 171.501 84.3805 170.617 86.3606C169.734 88.3408 167.402 89.237 165.414 88.3569Z" fill="#E6E7E8"/>
<path d="M167.886 85.1532C167.671 85.6308 167.111 85.8455 166.631 85.6362C166.152 85.4269 165.936 84.8634 166.146 84.3858C166.362 83.9082 166.922 83.6936 167.401 83.9029C167.881 84.1175 168.096 84.6756 167.886 85.1532Z" fill="#939598"/>
<path d="M175.837 92.6501C175.805 91.8344 175.142 91.1851 174.324 91.1851C173.586 91.1851 173.009 91.711 172.853 92.3925C172.708 91.711 172.126 91.1851 171.393 91.1851C170.591 91.1851 169.955 91.8022 169.89 92.5857C169.826 91.8076 169.185 91.1851 168.388 91.1851C167.633 91.1851 167.035 91.7432 166.906 92.4622C166.782 91.7432 166.184 91.1851 165.425 91.1851C164.665 91.1851 164.105 91.711 163.96 92.3925C163.814 91.711 163.227 91.1851 162.489 91.1851C161.751 91.1851 161.137 91.7432 161.013 92.4622C160.889 91.7432 160.291 91.1851 159.537 91.1851C158.713 91.1851 158.05 91.8344 158.018 92.6501H175.843H175.837Z" fill="#7B9E23"/>
<path d="M149.388 92.6286C149.313 91.8559 148.683 91.2441 147.886 91.2441C147.131 91.2441 146.533 91.8022 146.404 92.5213C146.28 91.8022 145.682 91.2441 144.923 91.2441C144.163 91.2441 143.603 91.77 143.458 92.4516C143.312 91.77 142.725 91.2441 141.987 91.2441C141.249 91.2441 140.635 91.8022 140.511 92.5213C140.387 91.8022 139.789 91.2441 139.035 91.2441C138.211 91.2441 137.548 91.8935 137.516 92.7091H149.383V92.6286H149.388Z" fill="#7B9E23"/>
<path d="M186.816 83.9673C186.816 85.4967 184.839 86.7363 182.393 86.7363C179.948 86.7363 177.971 85.4967 177.971 83.9673C177.971 82.4379 179.948 81.1982 182.393 81.1982C184.839 81.1982 186.816 82.4379 186.816 83.9673Z" fill="#FFB12D"/>
<path d="M182.361 81.2036C179.937 81.2143 177.971 82.4486 177.971 83.9726C177.971 85.4967 179.931 86.7255 182.361 86.7416V81.209V81.2036Z" fill="#E0901B"/>
<path d="M186.977 83.5166H178.008V91.1529H186.977V83.5166Z" fill="#917043"/>
<path d="M182.366 83.5166H178.008V91.1529H182.366V83.5166Z" fill="#7F5F38"/>
<path d="M187.408 91.6141C187.408 92.0005 187.096 92.3117 186.708 92.3117H178.078C177.69 92.3117 177.378 92.0005 177.378 91.6141C177.378 91.2278 177.69 90.9165 178.078 90.9165H186.708C187.096 90.9165 187.408 91.2278 187.408 91.6141Z" fill="#917043"/>
<path d="M187.408 83.8329C187.408 84.2192 187.096 84.5305 186.708 84.5305H178.078C177.69 84.5305 177.378 84.2192 177.378 83.8329C177.378 83.4465 177.69 83.1353 178.078 83.1353H186.708C187.096 83.1353 187.408 83.4465 187.408 83.8329Z" fill="#A88359"/>
<path d="M182.361 83.1353H178.078C177.69 83.1353 177.378 83.4465 177.378 83.8329C177.378 84.2192 177.69 84.5305 178.078 84.5305H182.361V83.1353Z" fill="#917043"/>
<path d="M182.361 90.9165H178.078C177.69 90.9165 177.378 91.2278 177.378 91.6141C177.378 92.0005 177.69 92.3117 178.078 92.3117H182.361V90.9165Z" fill="#7F5F38"/>
<path d="M183.541 81.955C183.541 82.0301 183.427 82.0891 183.287 82.0891C183.147 82.0891 183.034 82.0301 183.034 81.955C183.034 81.8798 183.147 81.8208 183.287 81.8208C183.427 81.8208 183.541 81.8798 183.541 81.955Z" fill="#FFCD2E"/>
<path d="M183.971 82.6849C183.971 82.7601 183.858 82.8191 183.718 82.8191C183.578 82.8191 183.465 82.7601 183.465 82.6849C183.465 82.6098 183.578 82.5508 183.718 82.5508C183.858 82.5508 183.971 82.6098 183.971 82.6849Z" fill="#FFCD2E"/>
<path d="M181.644 82.0087C181.644 82.0838 181.531 82.1428 181.391 82.1428C181.251 82.1428 181.138 82.0838 181.138 82.0087C181.138 81.9335 181.251 81.8745 181.391 81.8745C181.531 81.8745 181.644 81.9335 181.644 82.0087Z" fill="#FFB12D"/>
<path d="M179.963 82.5775C179.963 82.6526 179.85 82.7117 179.71 82.7117C179.57 82.7117 179.457 82.6526 179.457 82.5775C179.457 82.5024 179.57 82.4434 179.71 82.4434C179.85 82.4434 179.963 82.5024 179.963 82.5775Z" fill="#FFB12D"/>
<path d="M185.63 82.8348C185.63 82.91 185.517 82.969 185.377 82.969C185.237 82.969 185.124 82.91 185.124 82.8348C185.124 82.7597 185.237 82.7007 185.377 82.7007C185.517 82.7007 185.63 82.7597 185.63 82.8348Z" fill="#FFCD2E"/>
<path d="M186.816 83.9673C186.816 85.4967 184.839 86.7363 182.393 86.7363C179.948 86.7363 177.971 85.4967 177.971 83.9673C177.971 82.4379 179.948 81.1982 182.393 81.1982C184.839 81.1982 186.816 82.4379 186.816 83.9673Z" fill="#FFB12D"/>
<path d="M182.361 81.2036C179.937 81.2143 177.971 82.4486 177.971 83.9726C177.971 85.4967 179.931 86.7255 182.361 86.7416V81.209V81.2036Z" fill="#E0901B"/>
<path d="M186.977 83.5166H178.008V91.1529H186.977V83.5166Z" fill="#917043"/>
<path d="M182.366 83.5166H178.008V91.1529H182.366V83.5166Z" fill="#7F5F38"/>
<path d="M187.408 91.6141C187.408 92.0005 187.096 92.3117 186.708 92.3117H178.078C177.69 92.3117 177.378 92.0005 177.378 91.6141C177.378 91.2278 177.69 90.9165 178.078 90.9165H186.708C187.096 90.9165 187.408 91.2278 187.408 91.6141Z" fill="#917043"/>
<path d="M187.408 83.8329C187.408 84.2192 187.096 84.5305 186.708 84.5305H178.078C177.69 84.5305 177.378 84.2192 177.378 83.8329C177.378 83.4465 177.69 83.1353 178.078 83.1353H186.708C187.096 83.1353 187.408 83.4465 187.408 83.8329Z" fill="#A88359"/>
<path d="M182.361 83.1353H178.078C177.69 83.1353 177.378 83.4465 177.378 83.8329C177.378 84.2192 177.69 84.5305 178.078 84.5305H182.361V83.1353Z" fill="#917043"/>
<path d="M182.361 90.9165H178.078C177.69 90.9165 177.378 91.2278 177.378 91.6141C177.378 92.0005 177.69 92.3117 178.078 92.3117H182.361V90.9165Z" fill="#7F5F38"/>
<path d="M183.541 81.955C183.541 82.0301 183.427 82.0891 183.287 82.0891C183.147 82.0891 183.034 82.0301 183.034 81.955C183.034 81.8798 183.147 81.8208 183.287 81.8208C183.427 81.8208 183.541 81.8798 183.541 81.955Z" fill="#FFCD2E"/>
<path d="M183.971 82.6849C183.971 82.7601 183.858 82.8191 183.718 82.8191C183.578 82.8191 183.465 82.7601 183.465 82.6849C183.465 82.6098 183.578 82.5508 183.718 82.5508C183.858 82.5508 183.971 82.6098 183.971 82.6849Z" fill="#FFCD2E"/>
<path d="M181.644 82.0087C181.644 82.0838 181.531 82.1428 181.391 82.1428C181.251 82.1428 181.138 82.0838 181.138 82.0087C181.138 81.9335 181.251 81.8745 181.391 81.8745C181.531 81.8745 181.644 81.9335 181.644 82.0087Z" fill="#FFB12D"/>
<path d="M179.963 82.5775C179.963 82.6526 179.85 82.7117 179.71 82.7117C179.57 82.7117 179.457 82.6526 179.457 82.5775C179.457 82.5024 179.57 82.4434 179.71 82.4434C179.85 82.4434 179.963 82.5024 179.963 82.5775Z" fill="#FFB12D"/>
<path d="M185.63 82.8348C185.63 82.91 185.517 82.969 185.377 82.969C185.237 82.969 185.124 82.91 185.124 82.8348C185.124 82.7597 185.237 82.7007 185.377 82.7007C185.517 82.7007 185.63 82.7597 185.63 82.8348Z" fill="#FFCD2E"/>
<path d="M197.713 88.4321C197.713 89.9615 195.731 91.2011 193.291 91.2011C190.85 91.2011 188.874 89.9615 188.874 88.4321C188.874 86.9027 190.85 85.6631 193.291 85.6631C195.731 85.6631 197.713 86.9027 197.713 88.4321Z" fill="#FFB12D"/>
<path d="M193.258 85.6685C190.834 85.6792 188.868 86.9134 188.868 88.4375C188.868 89.9615 190.828 91.1904 193.258 91.2011V85.6685Z" fill="#E0901B"/>
<path d="M197.875 88.0835H188.906V91.1584H197.875V88.0835Z" fill="#917043"/>
<path d="M193.264 88.0835H188.906V91.1584H193.264V88.0835Z" fill="#7F5F38"/>
<path d="M198.305 91.6141C198.305 92.0005 197.993 92.3117 197.605 92.3117H188.976C188.588 92.3117 188.275 92.0005 188.275 91.6141C188.275 91.2278 188.588 90.9165 188.976 90.9165H197.605C197.993 90.9165 198.305 91.2278 198.305 91.6141Z" fill="#917043"/>
<path d="M198.305 88.0834C198.305 88.4697 197.993 88.781 197.605 88.781H188.976C188.588 88.781 188.275 88.4697 188.275 88.0834C188.275 87.697 188.588 87.3857 188.976 87.3857H197.605C197.993 87.3857 198.305 87.697 198.305 88.0834Z" fill="#A88359"/>
<path d="M193.258 87.3857H188.976C188.588 87.3857 188.275 87.697 188.275 88.0834C188.275 88.4697 188.588 88.781 188.976 88.781H193.258V87.3857Z" fill="#917043"/>
<path d="M193.258 90.9165H188.976C188.588 90.9165 188.275 91.2278 188.275 91.6141C188.275 92.0005 188.588 92.3117 188.976 92.3117H193.258V90.9165Z" fill="#7F5F38"/>
<path d="M194.438 86.4198C194.438 86.4949 194.325 86.554 194.185 86.554C194.045 86.554 193.932 86.4949 193.932 86.4198C193.932 86.3447 194.045 86.2856 194.185 86.2856C194.325 86.2856 194.438 86.3447 194.438 86.4198Z" fill="#FFCD2E"/>
<path d="M195.494 87.1923C195.494 87.2674 195.381 87.3264 195.24 87.3264C195.1 87.3264 194.987 87.2674 194.987 87.1923C194.987 87.1171 195.1 87.0581 195.24 87.0581C195.381 87.0581 195.494 87.1171 195.494 87.1923Z" fill="#FFCD2E"/>
<path d="M192.542 86.4789C192.542 86.554 192.428 86.613 192.288 86.613C192.148 86.613 192.035 86.554 192.035 86.4789C192.035 86.4038 192.148 86.3447 192.288 86.3447C192.428 86.3447 192.542 86.4038 192.542 86.4789Z" fill="#FFB12D"/>
<path d="M190.861 87.0477C190.861 87.1229 190.748 87.1819 190.608 87.1819C190.468 87.1819 190.354 87.1229 190.354 87.0477C190.354 86.9726 190.468 86.9136 190.608 86.9136C190.748 86.9136 190.861 86.9726 190.861 87.0477Z" fill="#FFB12D"/>
<path d="M76.8133 77.7959H73.8452V81.4504H76.8133V77.7959Z" fill="#603913"/>
<path d="M108.643 77.7959H105.675V81.4504H108.643V77.7959Z" fill="#603913"/>
<path d="M77.0608 81.676H73.6025V77.5869H77.0608V81.676ZM74.055 81.2199H76.6029V78.0377H74.055V81.2199Z" fill="#F8D7A2"/>
<path d="M108.929 81.676H105.471V77.5869H108.929V81.676ZM105.923 81.2199H108.471V78.0377H105.923V81.2199Z" fill="#F8D7A2"/>
<path d="M158.4 57.9033C158.4 59.1268 157.404 60.1196 156.176 60.1196H153.208C151.979 60.1196 150.983 59.1268 150.983 57.9033C150.983 56.6798 151.979 55.687 153.208 55.687H156.176C157.404 55.687 158.4 56.6798 158.4 57.9033Z" fill="white"/>
<path d="M152.47 64.6107C152.47 65.582 151.678 66.3709 150.703 66.3709H149.335C148.36 66.3709 147.568 65.582 147.568 64.6107C147.568 63.6394 148.36 62.8506 149.335 62.8506H150.703C151.678 62.8506 152.47 63.6394 152.47 64.6107Z" fill="white"/>
<path d="M246 34.9102C243.73 29.7502 238.58 26.1402 232.58 26.1402C232.01 26.1402 231.46 26.1802 230.91 26.2402C228.47 21.9002 223.83 18.9502 218.5 18.9502C213.17 18.9502 208.52 21.8902 206.09 26.2402C205.54 26.1802 204.98 26.1402 204.42 26.1402C198.43 26.1402 193.27 29.7502 191.01 34.9102H246.01H246Z" fill="white"/>
</svg>
