<svg width="224" height="95" viewBox="0 0 224 95" fill="none" xmlns="http://www.w3.org/2000/svg">
<path d="M198.408 89.7513L152.858 2.53272C152.125 1.8029 150.929 1.8029 150.197 2.53272L94.3633 89.7513H198.408Z" fill="#03A774"/>
<path d="M198.408 89.7513L152.858 2.53272C152.125 1.8029 150.929 1.8029 150.197 2.53272L94.3633 89.7513H198.408Z" fill="black" fill-opacity="0.6"/>
<path d="M197.002 87.0521L152.858 2.53277C152.416 2.09274 151.818 1.92638 151.247 2.00688V89.7514H197.002V87.0521Z" fill="#02B86B"/>
<path d="M197.002 87.0521L152.858 2.53277C152.416 2.09274 151.818 1.92638 151.247 2.00688V89.7514H197.002V87.0521Z" fill="black" fill-opacity="0.6"/>
<path d="M147.886 13.4102C148.026 15.0738 149.41 16.3832 151.112 16.3832C152.815 16.3832 154.204 15.0738 154.344 13.4102C154.867 14.5049 155.982 15.267 157.286 15.267C157.997 15.267 158.643 15.0362 159.182 14.6498L152.852 2.52734C152.12 1.79753 150.924 1.79753 150.191 2.52734L142.645 14.3171C143.237 14.9021 144.045 15.2616 144.945 15.2616C146.243 15.2616 147.358 14.4996 147.886 13.4049V13.4102Z" fill="#EDF2E7"/>
<path d="M147.886 13.4102C148.026 15.0738 149.41 16.3832 151.112 16.3832C152.815 16.3832 154.204 15.0738 154.344 13.4102C154.867 14.5049 155.982 15.267 157.286 15.267C157.997 15.267 158.643 15.0362 159.182 14.6498L152.852 2.52734C152.12 1.79753 150.924 1.79753 150.191 2.52734L142.645 14.3171C143.237 14.9021 144.045 15.2616 144.945 15.2616C146.243 15.2616 147.358 14.4996 147.886 13.4049V13.4102Z" fill="black" fill-opacity="0.6"/>
<path d="M154.35 13.4104C154.872 14.5051 155.987 15.2671 157.291 15.2671C158.002 15.2671 158.648 15.0364 159.187 14.65L152.858 2.5275C152.755 2.42554 152.642 2.33968 152.518 2.25919C152.491 2.24309 152.454 2.23235 152.427 2.21625C152.335 2.16259 152.238 2.12503 152.141 2.0821C152.114 2.07136 152.082 2.066 152.05 2.05527C151.942 2.02843 151.834 2.00697 151.721 1.99087C151.7 1.99087 151.678 1.99087 151.656 1.9855C151.522 1.98014 151.387 1.9855 151.252 1.99624V16.3618C152.901 16.2974 154.221 15.0149 154.361 13.3996L154.35 13.4104Z" fill="white"/>
<path d="M154.35 13.4104C154.872 14.5051 155.987 15.2671 157.291 15.2671C158.002 15.2671 158.648 15.0364 159.187 14.65L152.858 2.5275C152.755 2.42554 152.642 2.33968 152.518 2.25919C152.491 2.24309 152.454 2.23235 152.427 2.21625C152.335 2.16259 152.238 2.12503 152.141 2.0821C152.114 2.07136 152.082 2.066 152.05 2.05527C151.942 2.02843 151.834 2.00697 151.721 1.99087C151.7 1.99087 151.678 1.99087 151.656 1.9855C151.522 1.98014 151.387 1.9855 151.252 1.99624V16.3618C152.901 16.2974 154.221 15.0149 154.361 13.3996L154.35 13.4104Z" fill="black" fill-opacity="0.6"/>
<path d="M134.694 41.8946H130.697L132.862 39.7749L134.694 41.8946Z" fill="#02B86B"/>
<path d="M134.694 41.8946H130.697L132.862 39.7749L134.694 41.8946Z" fill="black" fill-opacity="0.6"/>
<path d="M145.031 57.7735H141.028L143.199 55.6538L145.031 57.7735Z" fill="#02B86B"/>
<path d="M145.031 57.7735H141.028L143.199 55.6538L145.031 57.7735Z" fill="black" fill-opacity="0.6"/>
<path d="M161.083 64.315H157.081L159.252 62.2007L161.083 64.315Z" fill="#03A774"/>
<path d="M161.083 64.315H157.081L159.252 62.2007L161.083 64.315Z" fill="black" fill-opacity="0.6"/>
<path d="M172.234 78.5035H168.231L170.397 76.3892L172.234 78.5035Z" fill="#03A774"/>
<path d="M161.439 35.981H157.437L159.602 33.8667L161.439 35.981Z" fill="#03A774"/>
<path d="M161.439 35.981H157.437L159.602 33.8667L161.439 35.981Z" fill="black" fill-opacity="0.6"/>
<path d="M173.661 54.9507H169.659L171.824 52.8311L173.661 54.9507Z" fill="#03A774"/>
<path d="M173.661 54.9507H169.659L171.824 52.8311L173.661 54.9507Z" fill="black" fill-opacity="0.6"/>
<path d="M144.099 30.2553H140.765L142.569 28.4897L144.099 30.2553Z" fill="#02B86B"/>
<path d="M144.099 30.2553H140.765L142.569 28.4897L144.099 30.2553Z" fill="black" fill-opacity="0.6"/>
<path d="M150.519 88.9406L84.6235 4.83443C79.6623 -1.20267 73.3922 -1.28317 67.7361 4.83443L0.321289 88.9406H150.519Z" fill="#017D6B"/>
<path d="M150.519 88.9406L84.6235 4.83443C79.6623 -1.20267 73.3922 -1.28317 67.7361 4.83443L0.321289 88.9406H150.519Z" fill="black" fill-opacity="0.6"/>
<path d="M84.6236 4.83458C81.8333 1.43771 78.6282 -0.0755902 75.353 0.342982V88.9407H150.519L84.6236 4.83458Z" fill="#01977B"/>
<path d="M84.6236 4.83458C81.8333 1.43771 78.6282 -0.0755902 75.353 0.342982V88.9407H150.519L84.6236 4.83458Z" fill="black" fill-opacity="0.6"/>
<path d="M64.725 19.8601C67.009 19.8601 68.9698 18.5185 69.8747 16.5813C70.4296 19.1303 72.6974 21.0353 75.4231 21.0353C78.1487 21.0353 80.3465 19.1839 80.9444 16.6886C81.871 18.5668 83.7994 19.8547 86.0403 19.8547C89.1754 19.8547 91.7179 17.3272 91.7179 14.204C91.7179 14.0806 91.7017 13.9679 91.6964 13.8498L84.629 4.82905C79.6678 -1.20804 73.3976 -1.28854 67.7416 4.82905L59.1982 15.4865C59.78 17.9926 62.0317 19.8601 64.725 19.8601Z" fill="#EDF2E7"/>
<path d="M64.725 19.8601C67.009 19.8601 68.9698 18.5185 69.8747 16.5813C70.4296 19.1303 72.6974 21.0353 75.4231 21.0353C78.1487 21.0353 80.3465 19.1839 80.9444 16.6886C81.871 18.5668 83.7994 19.8547 86.0403 19.8547C89.1754 19.8547 91.7179 17.3272 91.7179 14.204C91.7179 14.0806 91.7017 13.9679 91.6964 13.8498L84.629 4.82905C79.6678 -1.20804 73.3976 -1.28854 67.7416 4.82905L59.1982 15.4865C59.78 17.9926 62.0317 19.8601 64.725 19.8601Z" fill="black" fill-opacity="0.6"/>
<path d="M80.9391 16.6939C81.8656 18.5721 83.794 19.86 86.0349 19.86C89.17 19.86 91.7125 17.3325 91.7125 14.2093C91.7125 14.0858 91.6964 13.9731 91.691 13.8551L84.6236 4.83432C84.295 4.43185 83.9556 4.06157 83.6163 3.7074C83.5032 3.5947 83.39 3.49811 83.2769 3.39078C83.0399 3.16003 82.8083 2.94538 82.5713 2.74146C82.4366 2.6234 82.2965 2.52681 82.1619 2.41948C81.941 2.24776 81.7255 2.0814 81.4993 1.93115C81.3539 1.82919 81.203 1.74333 81.0576 1.6521C80.8367 1.52331 80.6159 1.39452 80.395 1.28182C80.2442 1.20133 80.0934 1.13157 79.9371 1.05644C79.7163 0.95448 79.49 0.868619 79.2638 0.788124C79.113 0.734461 78.9621 0.680798 78.8059 0.632502C78.5743 0.56274 78.3427 0.509076 78.1057 0.455413C77.9548 0.428582 77.8094 0.391018 77.6639 0.369552C77.4054 0.326622 77.1414 0.310523 76.8829 0.294424C76.759 0.289058 76.6351 0.272959 76.5058 0.272959C76.1233 0.267592 75.7409 0.283691 75.353 0.331988H75.3477V21.0191C75.3477 21.0191 75.3908 21.0245 75.4123 21.0245C78.0949 21.0245 80.3358 19.1731 80.9337 16.6778L80.9391 16.6939Z" fill="white"/>
<path d="M80.9391 16.6939C81.8656 18.5721 83.794 19.86 86.0349 19.86C89.17 19.86 91.7125 17.3325 91.7125 14.2093C91.7125 14.0858 91.6964 13.9731 91.691 13.8551L84.6236 4.83432C84.295 4.43185 83.9556 4.06157 83.6163 3.7074C83.5032 3.5947 83.39 3.49811 83.2769 3.39078C83.0399 3.16003 82.8083 2.94538 82.5713 2.74146C82.4366 2.6234 82.2965 2.52681 82.1619 2.41948C81.941 2.24776 81.7255 2.0814 81.4993 1.93115C81.3539 1.82919 81.203 1.74333 81.0576 1.6521C80.8367 1.52331 80.6159 1.39452 80.395 1.28182C80.2442 1.20133 80.0934 1.13157 79.9371 1.05644C79.7163 0.95448 79.49 0.868619 79.2638 0.788124C79.113 0.734461 78.9621 0.680798 78.8059 0.632502C78.5743 0.56274 78.3427 0.509076 78.1057 0.455413C77.9548 0.428582 77.8094 0.391018 77.6639 0.369552C77.4054 0.326622 77.1414 0.310523 76.8829 0.294424C76.759 0.289058 76.6351 0.272959 76.5058 0.272959C76.1233 0.267592 75.7409 0.283691 75.353 0.331988H75.3477V21.0191C75.3477 21.0191 75.3908 21.0245 75.4123 21.0245C78.0949 21.0245 80.3358 19.1731 80.9337 16.6778L80.9391 16.6939Z" fill="black" fill-opacity="0.6"/>
<path d="M87.0693 37.0428H81.521L84.5268 34.1074L87.0693 37.0428Z" fill="#017D6B"/>
<path d="M87.0693 37.0428H81.521L84.5268 34.1074L87.0693 37.0428Z" fill="black" fill-opacity="0.6"/>
<path d="M105.874 43.9119H100.326L103.326 40.9819L105.874 43.9119Z" fill="#017D6B"/>
<path d="M105.874 43.9119H100.326L103.326 40.9819L105.874 43.9119Z" fill="black" fill-opacity="0.6"/>
<path d="M59.0205 29.3958H53.4668L56.478 26.4604L59.0205 29.3958Z" fill="#01977B"/>
<path d="M59.0205 29.3958H53.4668L56.478 26.4604L59.0205 29.3958Z" fill="black" fill-opacity="0.6"/>
<path d="M72.8158 39.4364H66.2817L69.8154 35.9805L72.8158 39.4364Z" fill="#01977B"/>
<path d="M72.8158 39.4364H66.2817L69.8154 35.9805L72.8158 39.4364Z" fill="black" fill-opacity="0.6"/>
<path d="M40.9374 73.0995H34.4033L37.937 69.6436L40.9374 73.0995Z" fill="#01977B"/>
<path d="M40.9374 73.0995H34.4033L37.937 69.6436L40.9374 73.0995Z" fill="black" fill-opacity="0.6"/>
<path d="M51.7592 53.6732H45.2251L48.7642 50.2173L51.7592 53.6732Z" fill="#01977B"/>
<path d="M51.7592 53.6732H45.2251L48.7642 50.2173L51.7592 53.6732Z" fill="black" fill-opacity="0.6"/>
<path d="M60.7494 69.5843H56.2515L58.6863 67.207L60.7494 69.5843Z" fill="#01977B"/>
<path d="M70.1547 55.0633H65.6514L68.0916 52.686L70.1547 55.0633Z" fill="#01977B"/>
<path d="M70.1547 55.0633H65.6514L68.0916 52.686L70.1547 55.0633Z" fill="black" fill-opacity="0.6"/>
<path d="M94.4813 56.6302H89.9834L92.4182 54.2476L94.4813 56.6302Z" fill="#017D6B"/>
<path d="M117.784 69.0475H110.819L114.59 65.3662L117.784 69.0475Z" fill="#017D6B"/>
<path d="M119.805 66.9268H116.002V91.8747H119.805V66.9268Z" fill="#996441"/>
<path d="M119.805 66.9268H116.002V91.8747H119.805V66.9268Z" fill="black" fill-opacity="0.6"/>
<path d="M134.268 49.0245H129.803V45.0696C129.803 40.9751 126.474 37.6587 122.364 37.6587H111.698C107.588 37.6587 104.259 40.9751 104.259 45.0696V50.3822H102.029C97.9188 50.3822 94.5898 53.6986 94.5898 57.7931V63.476C94.5898 67.5705 97.9188 70.8869 102.029 70.8869H111.45C114.165 70.8869 116.535 69.4326 117.834 67.2646C119.132 69.4326 121.502 70.8869 124.217 70.8869H134.258C138.368 70.8869 141.697 67.5705 141.697 63.476V56.4354C141.697 52.3409 138.368 49.0245 134.258 49.0245H134.268Z" fill="#94CB49"/>
<path d="M134.268 49.0245H129.803V45.0696C129.803 40.9751 126.474 37.6587 122.364 37.6587H111.698C107.588 37.6587 104.259 40.9751 104.259 45.0696V50.3822H102.029C97.9188 50.3822 94.5898 53.6986 94.5898 57.7931V63.476C94.5898 67.5705 97.9188 70.8869 102.029 70.8869H111.45C114.165 70.8869 116.535 69.4326 117.834 67.2646C119.132 69.4326 121.502 70.8869 124.217 70.8869H134.258C138.368 70.8869 141.697 67.5705 141.697 63.476V56.4354C141.697 52.3409 138.368 49.0245 134.258 49.0245H134.268Z" fill="black" fill-opacity="0.6"/>
<path d="M117.823 37.6641H111.698C107.588 37.6641 104.259 40.9804 104.259 45.0749V50.3876H102.029C97.9188 50.3876 94.5898 53.704 94.5898 57.7985V63.4814C94.5898 67.5759 97.9188 70.8923 102.029 70.8923H111.45C114.16 70.8923 116.519 69.4433 117.823 67.2915V37.6694V37.6641Z" fill="#7BAC4E"/>
<path d="M117.823 37.6641H111.698C107.588 37.6641 104.259 40.9804 104.259 45.0749V50.3876H102.029C97.9188 50.3876 94.5898 53.704 94.5898 57.7985V63.4814C94.5898 67.5759 97.9188 70.8923 102.029 70.8923H111.45C114.16 70.8923 116.519 69.4433 117.823 67.2915V37.6694V37.6641Z" fill="black" fill-opacity="0.6"/>
<path d="M132.868 48.8798C132.868 50.1355 131.844 51.1551 130.584 51.1551H124.551C123.29 51.1551 122.267 50.1355 122.267 48.8798C122.267 47.6241 123.29 46.6045 124.551 46.6045H130.584C131.844 46.6045 132.868 47.6241 132.868 48.8798Z" fill="#A3D84E"/>
<path d="M132.868 48.8798C132.868 50.1355 131.844 51.1551 130.584 51.1551H124.551C123.29 51.1551 122.267 50.1355 122.267 48.8798C122.267 47.6241 123.29 46.6045 124.551 46.6045H130.584C131.844 46.6045 132.868 47.6241 132.868 48.8798Z" fill="black" fill-opacity="0.6"/>
<path d="M109.963 42.3437C109.963 43.3042 109.182 44.0877 108.213 44.0877H103.623C102.659 44.0877 101.873 43.3096 101.873 42.3437C101.873 41.3831 102.654 40.5996 103.623 40.5996H108.213C109.177 40.5996 109.963 41.3777 109.963 42.3437Z" fill="#94CB49"/>
<path d="M109.963 42.3437C109.963 43.3042 109.182 44.0877 108.213 44.0877H103.623C102.659 44.0877 101.873 43.3096 101.873 42.3437C101.873 41.3831 102.654 40.5996 103.623 40.5996H108.213C109.177 40.5996 109.963 41.3777 109.963 42.3437Z" fill="black" fill-opacity="0.6"/>
<path d="M137.522 62.6924V68.1768C137.522 68.3163 137.484 68.3538 137.468 68.3699C137.328 68.5041 136.935 68.5578 136.725 68.547H132.884V64.8979H131.058V70.5057C131.058 73.4626 128.699 73.5001 128.699 73.5001H118.658L118.695 75.4696H128.661C132.539 75.4696 132.884 71.6434 132.884 71.6434V70.3662H136.644C136.671 70.3662 136.714 70.3662 136.762 70.3662C137.14 70.3662 138.066 70.3018 138.718 69.6954C139.133 69.309 139.348 68.7831 139.348 68.1768V62.6924H137.522Z" fill="#996441"/>
<path d="M137.522 62.6924V68.1768C137.522 68.3163 137.484 68.3538 137.468 68.3699C137.328 68.5041 136.935 68.5578 136.725 68.547H132.884V64.8979H131.058V70.5057C131.058 73.4626 128.699 73.5001 128.699 73.5001H118.658L118.695 75.4696H128.661C132.539 75.4696 132.884 71.6434 132.884 71.6434V70.3662H136.644C136.671 70.3662 136.714 70.3662 136.762 70.3662C137.14 70.3662 138.066 70.3018 138.718 69.6954C139.133 69.309 139.348 68.7831 139.348 68.1768V62.6924H137.522Z" fill="black" fill-opacity="0.6"/>
<path d="M110.141 76.8165H110.049C110.049 76.8165 108.299 76.9774 107.092 75.8881C106.241 75.1207 105.81 73.8865 105.81 72.2175V63.3524H103.984V66.9317H98.5003C98.5003 66.9317 97.2614 66.9263 96.3941 66.0677C95.807 65.4882 95.5053 64.6135 95.5053 63.4812V57.1543H93.6792V63.4812C93.6792 65.1179 94.1586 66.4219 95.1067 67.361C96.4857 68.7241 98.3495 68.7509 98.5003 68.7509H103.984V72.2175C103.984 74.4338 104.625 76.1296 105.886 77.2565C107.27 78.4961 109.004 78.6517 109.807 78.6517C109.985 78.6517 110.114 78.6464 110.19 78.641H116.826V76.8218H110.152L110.141 76.8165Z" fill="#996441"/>
<path d="M110.141 76.8165H110.049C110.049 76.8165 108.299 76.9774 107.092 75.8881C106.241 75.1207 105.81 73.8865 105.81 72.2175V63.3524H103.984V66.9317H98.5003C98.5003 66.9317 97.2614 66.9263 96.3941 66.0677C95.807 65.4882 95.5053 64.6135 95.5053 63.4812V57.1543H93.6792V63.4812C93.6792 65.1179 94.1586 66.4219 95.1067 67.361C96.4857 68.7241 98.3495 68.7509 98.5003 68.7509H103.984V72.2175C103.984 74.4338 104.625 76.1296 105.886 77.2565C107.27 78.4961 109.004 78.6517 109.807 78.6517C109.985 78.6517 110.114 78.6464 110.19 78.641H116.826V76.8218H110.152L110.141 76.8165Z" fill="black" fill-opacity="0.6"/>
<path d="M98.1612 56.3227C98.1612 57.2832 97.3801 58.0667 96.4105 58.0667H91.821C90.8568 58.0667 90.0703 57.2886 90.0703 56.3227C90.0703 55.3621 90.8514 54.5786 91.821 54.5786H96.4105C97.3747 54.5786 98.1612 55.3567 98.1612 56.3227Z" fill="#94CB49"/>
<path d="M109.522 61.4904C109.522 62.9232 108.353 64.0877 106.915 64.0877H98.8186C97.3803 64.0877 96.2114 62.9232 96.2114 61.4904C96.2114 60.0576 97.3803 58.8931 98.8186 58.8931H106.915C108.353 58.8931 109.522 60.0576 109.522 61.4904Z" fill="#94CB49"/>
<path d="M109.522 61.4904C109.522 62.9232 108.353 64.0877 106.915 64.0877H98.8186C97.3803 64.0877 96.2114 62.9232 96.2114 61.4904C96.2114 60.0576 97.3803 58.8931 98.8186 58.8931H106.915C108.353 58.8931 109.522 60.0576 109.522 61.4904Z" fill="black" fill-opacity="0.6"/>
<path d="M143.049 62.4027C143.049 63.9911 141.756 65.2791 140.162 65.2791H130.255C128.661 65.2791 127.368 63.9911 127.368 62.4027C127.368 60.8143 128.661 59.5264 130.255 59.5264H140.162C141.756 59.5264 143.049 60.8143 143.049 62.4027Z" fill="#A3D84E"/>
<path d="M143.049 62.4027C143.049 63.9911 141.756 65.2791 140.162 65.2791H130.255C128.661 65.2791 127.368 63.9911 127.368 62.4027C127.368 60.8143 128.661 59.5264 130.255 59.5264H140.162C141.756 59.5264 143.049 60.8143 143.049 62.4027Z" fill="black" fill-opacity="0.6"/>
<path d="M107.383 61.7268C107.292 61.5605 107.157 61.421 106.99 61.3244L92.1172 52.3358C91.9449 52.2338 91.7456 52.1748 91.5409 52.1748H91.4223C91.2176 52.1748 91.0183 52.2285 90.846 52.3358L75.9732 61.3244C75.8116 61.421 75.677 61.5605 75.58 61.7268L69.9778 71.6974L69.7192 72.0892V91.483H113.023V71.7726L107.372 61.7215L107.383 61.7268Z" fill="#C93623"/>
<path d="M107.383 61.7268C107.292 61.5605 107.157 61.421 106.99 61.3244L92.1172 52.3358C91.9449 52.2338 91.7456 52.1748 91.5409 52.1748H91.4223C91.2176 52.1748 91.0183 52.2285 90.846 52.3358L75.9732 61.3244C75.8116 61.421 75.677 61.5605 75.58 61.7268L69.9778 71.6974L69.7192 72.0892V91.483H113.023V71.7726L107.372 61.7215L107.383 61.7268Z" fill="black" fill-opacity="0.6"/>
<path d="M79.243 64.0665C79.313 63.9378 79.4207 63.8304 79.5446 63.7553L90.9753 56.8435C91.1099 56.763 91.2607 56.7201 91.417 56.7201H91.5085C91.6648 56.7201 91.8156 56.763 91.9503 56.8435L103.381 63.7553C103.505 63.8304 103.613 63.9378 103.683 64.0665L113.034 76.1783V71.7833L107.383 61.7322C107.292 61.5658 107.157 61.4263 106.99 61.3297L92.1172 52.3412C91.9449 52.2392 91.7456 52.1802 91.5409 52.1802H91.4223C91.2177 52.1802 91.0183 52.2338 90.846 52.3412L75.9732 61.3297C75.8116 61.4263 75.677 61.5658 75.58 61.7322L69.9778 71.7028L69.7192 72.0945V75.9637L72.321 72.7868L79.2376 64.0665H79.243Z" fill="#A91022"/>
<path d="M79.243 64.0665C79.313 63.9378 79.4207 63.8304 79.5446 63.7553L90.9753 56.8435C91.1099 56.763 91.2607 56.7201 91.417 56.7201H91.5085C91.6648 56.7201 91.8156 56.763 91.9503 56.8435L103.381 63.7553C103.505 63.8304 103.613 63.9378 103.683 64.0665L113.034 76.1783V71.7833L107.383 61.7322C107.292 61.5658 107.157 61.4263 106.99 61.3297L92.1172 52.3412C91.9449 52.2392 91.7456 52.1802 91.5409 52.1802H91.4223C91.2177 52.1802 91.0183 52.2338 90.846 52.3412L75.9732 61.3297C75.8116 61.4263 75.677 61.5658 75.58 61.7322L69.9778 71.7028L69.7192 72.0945V75.9637L72.321 72.7868L79.2376 64.0665H79.243Z" fill="black" fill-opacity="0.6"/>
<path d="M88.2817 53.8918V91.4828H88.7612V53.6021L88.2817 53.8918Z" fill="#A91022"/>
<path d="M88.2817 53.8918V91.4828H88.7612V53.6021L88.2817 53.8918Z" fill="black" fill-opacity="0.6"/>
<path d="M82.9272 57.1277V91.4828H83.412V56.8379L82.9272 57.1277Z" fill="#A91022"/>
<path d="M82.9272 57.1277V91.4828H83.412V56.8379L82.9272 57.1277Z" fill="black" fill-opacity="0.6"/>
<path d="M77.5728 60.3635V91.4827H78.0576V60.0737L77.5728 60.3635Z" fill="#A91022"/>
<path d="M77.5728 60.3635V91.4827H78.0576V60.0737L77.5728 60.3635Z" fill="black" fill-opacity="0.6"/>
<path d="M72.2241 67.7263V91.4829H72.7035V66.8677L72.2241 67.7263Z" fill="#A91022"/>
<path d="M72.2241 67.7263V91.4829H72.7035V66.8677L72.2241 67.7263Z" fill="black" fill-opacity="0.6"/>
<path d="M109.688 65.8267V91.483H110.168V66.6853L109.688 65.8267Z" fill="#A91022"/>
<path d="M109.688 65.8267V91.483H110.168V66.6853L109.688 65.8267Z" fill="black" fill-opacity="0.6"/>
<path d="M104.334 59.7144V91.4829H104.819V60.0095L104.334 59.7144Z" fill="#A91022"/>
<path d="M104.334 59.7144V91.4829H104.819V60.0095L104.334 59.7144Z" fill="black" fill-opacity="0.6"/>
<path d="M98.9854 56.4839V91.483H99.4648V56.7737L98.9854 56.4839Z" fill="#A91022"/>
<path d="M98.9854 56.4839V91.483H99.4648V56.7737L98.9854 56.4839Z" fill="black" fill-opacity="0.6"/>
<path d="M93.6309 53.2427V91.483H94.1157V53.5378L93.6309 53.2427Z" fill="#A91022"/>
<path d="M93.6309 53.2427V91.483H94.1157V53.5378L93.6309 53.2427Z" fill="black" fill-opacity="0.6"/>
<path d="M114.343 73.6023C113.912 73.6023 113.492 73.3769 113.265 72.9745L107.044 61.9091L91.3791 52.4376L75.7145 61.9091L69.4929 72.9745C69.1589 73.5648 68.4101 73.7794 67.8176 73.4467C67.2251 73.114 67.015 72.3681 67.3436 71.7778L73.7214 60.428C73.8238 60.2456 73.9746 60.09 74.1578 59.9773L90.6735 49.9906C90.8674 49.8725 91.0882 49.8135 91.3145 49.8135H91.4438C91.67 49.8135 91.8909 49.8725 92.0848 49.9906L108.6 59.9773C108.784 60.0846 108.934 60.2402 109.037 60.428L115.415 71.7778C115.749 72.3681 115.533 73.1194 114.941 73.4467C114.752 73.554 114.542 73.6023 114.337 73.6023H114.343Z" fill="#EFE5CA"/>
<path d="M114.343 73.6023C113.912 73.6023 113.492 73.3769 113.265 72.9745L107.044 61.9091L91.3791 52.4376L75.7145 61.9091L69.4929 72.9745C69.1589 73.5648 68.4101 73.7794 67.8176 73.4467C67.2251 73.114 67.015 72.3681 67.3436 71.7778L73.7214 60.428C73.8238 60.2456 73.9746 60.09 74.1578 59.9773L90.6735 49.9906C90.8674 49.8725 91.0882 49.8135 91.3145 49.8135H91.4438C91.67 49.8135 91.8909 49.8725 92.0848 49.9906L108.6 59.9773C108.784 60.0846 108.934 60.2402 109.037 60.428L115.415 71.7778C115.749 72.3681 115.533 73.1194 114.941 73.4467C114.752 73.554 114.542 73.6023 114.337 73.6023H114.343Z" fill="black" fill-opacity="0.6"/>
<path d="M102.664 77.1709H80.0938V91.515H102.664V77.1709Z" fill="#A91022"/>
<path d="M102.664 77.1709H80.0938V91.515H102.664V77.1709Z" fill="black" fill-opacity="0.6"/>
<path d="M102.002 78.2441H80.5356V91.0857H102.002V78.2441Z" fill="#F8D7A2"/>
<path d="M102.002 78.2441H80.5356V91.0857H102.002V78.2441Z" fill="black" fill-opacity="0.6"/>
<path d="M100.725 78.9473H91.9067L96.3131 84.158L100.725 78.9473Z" fill="#891024"/>
<path d="M100.725 78.9473H91.9067L96.3131 84.158L100.725 78.9473Z" fill="black" fill-opacity="0.6"/>
<path d="M81.521 90.3776H90.5438L86.0351 85.0488L81.521 90.3776Z" fill="#891024"/>
<path d="M81.521 90.3776H90.5438L86.0351 85.0488L81.521 90.3776Z" fill="black" fill-opacity="0.6"/>
<path d="M91.4761 79.5107V89.8784L95.8609 84.6946L91.4761 79.5107Z" fill="#891024"/>
<path d="M91.4761 79.5107V89.8784L95.8609 84.6946L91.4761 79.5107Z" fill="black" fill-opacity="0.6"/>
<path d="M91.9551 90.3772H100.671L96.3129 85.231L91.9551 90.3772Z" fill="#891024"/>
<path d="M91.9551 90.3772H100.671L96.3129 85.231L91.9551 90.3772Z" fill="black" fill-opacity="0.6"/>
<path d="M101.29 90.0393V79.3496L96.7656 84.6945L101.29 90.0393Z" fill="#891024"/>
<path d="M101.29 90.0393V79.3496L96.7656 84.6945L101.29 90.0393Z" fill="black" fill-opacity="0.6"/>
<path d="M81.2412 79.3872V89.6476L85.5829 84.5174L81.2412 79.3872Z" fill="#891024"/>
<path d="M81.2412 79.3872V89.6476L85.5829 84.5174L81.2412 79.3872Z" fill="black" fill-opacity="0.6"/>
<path d="M90.7056 89.5082V79.5269L86.4824 84.5175L90.7056 89.5082Z" fill="#891024"/>
<path d="M90.7056 89.5082V79.5269L86.4824 84.5175L90.7056 89.5082Z" fill="black" fill-opacity="0.6"/>
<path d="M90.2962 78.9473H81.769L86.0353 83.9862L90.2962 78.9473Z" fill="#891024"/>
<path d="M90.2962 78.9473H81.769L86.0353 83.9862L90.2962 78.9473Z" fill="black" fill-opacity="0.6"/>
<path d="M103.462 76.0225H79.2969V77.4123H103.462V76.0225Z" fill="#BF7F55"/>
<path d="M103.462 76.0225H79.2969V77.4123H103.462V76.0225Z" fill="black" fill-opacity="0.6"/>
<path d="M94.9559 62.3062H87.2529V70.2215H94.9559V62.3062Z" fill="#603913"/>
<path d="M94.9559 62.3062H87.2529V70.2215H94.9559V62.3062Z" fill="black" fill-opacity="0.6"/>
<path d="M94.9559 66.0088H87.2529V70.2213H94.9559V66.0088Z" fill="#3C2415"/>
<path d="M94.9559 66.0088H87.2529V70.2213H94.9559V66.0088Z" fill="black" fill-opacity="0.6"/>
<path d="M95.5162 70.6455H86.7197V61.8823H95.5162V70.6455ZM87.5277 69.8459H94.7136V62.6873H87.5277V69.8459Z" fill="#F8D7A2"/>
<path d="M95.5162 70.6455H86.7197V61.8823H95.5162V70.6455ZM87.5277 69.8459H94.7136V62.6873H87.5277V69.8459Z" fill="black" fill-opacity="0.6"/>
<path d="M94.9938 65.7407H87.1992V66.2344H94.9938V65.7407Z" fill="#F8D7A2"/>
<path d="M94.9938 65.7407H87.1992V66.2344H94.9938V65.7407Z" fill="black" fill-opacity="0.6"/>
<path d="M91.3418 62.1025H90.8462V69.8676H91.3418V62.1025Z" fill="#F8D7A2"/>
<path d="M91.3418 62.1025H90.8462V69.8676H91.3418V62.1025Z" fill="black" fill-opacity="0.6"/>
<path d="M130.056 61.0561C130.056 61.0883 130.034 61.1098 130.002 61.1098H125.779C125.747 61.1098 125.725 61.0883 125.725 61.0561C125.725 61.0239 125.747 61.0024 125.779 61.0024H130.002C130.034 61.0024 130.056 61.0293 130.056 61.0561Z" fill="#908774"/>
<path d="M130.056 61.0561C130.056 61.0883 130.034 61.1098 130.002 61.1098H125.779C125.747 61.1098 125.725 61.0883 125.725 61.0561C125.725 61.0239 125.747 61.0024 125.779 61.0024H130.002C130.034 61.0024 130.056 61.0293 130.056 61.0561Z" fill="black" fill-opacity="0.6"/>
<path d="M127.804 59.1455L127.745 62.5692C127.745 62.5692 127.756 62.6229 127.874 62.6175C127.928 62.6121 127.977 62.596 127.982 62.5477L127.891 59.167C127.891 59.167 127.847 59.0811 127.804 59.1509V59.1455Z" fill="#908774"/>
<path d="M127.804 59.1455L127.745 62.5692C127.745 62.5692 127.756 62.6229 127.874 62.6175C127.928 62.6121 127.977 62.596 127.982 62.5477L127.891 59.167C127.891 59.167 127.847 59.0811 127.804 59.1509V59.1455Z" fill="black" fill-opacity="0.6"/>
<path d="M127.082 56.4949C127.082 56.4949 127.007 56.6398 126.851 56.7686C126.7 56.8974 126.641 57.1121 126.813 57.1818C126.985 57.2516 127.072 57.1174 127.077 56.9296C127.077 56.7418 127.099 56.5915 127.099 56.5432C127.099 56.4896 127.099 56.4896 127.082 56.4949Z" fill="#E44D27"/>
<path d="M127.082 56.4949C127.082 56.4949 127.007 56.6398 126.851 56.7686C126.7 56.8974 126.641 57.1121 126.813 57.1818C126.985 57.2516 127.072 57.1174 127.077 56.9296C127.077 56.7418 127.099 56.5915 127.099 56.5432C127.099 56.4896 127.099 56.4896 127.082 56.4949Z" fill="black" fill-opacity="0.6"/>
<path d="M127.12 56.3447C127.12 56.3447 127.012 56.4145 126.915 56.4252C126.861 56.4359 126.926 56.5647 127.077 56.5272C127.12 56.5003 127.12 56.3394 127.12 56.3394V56.3447Z" fill="#FE9915"/>
<path d="M127.12 56.3447C127.12 56.3447 127.012 56.4145 126.915 56.4252C126.861 56.4359 126.926 56.5647 127.077 56.5272C127.12 56.5003 127.12 56.3394 127.12 56.3394V56.3447Z" fill="black" fill-opacity="0.6"/>
<path d="M127.293 56.1137C127.293 56.1137 127.077 56.0708 127.018 55.8722C126.959 55.6737 127.179 55.6737 127.244 55.7381C127.314 55.4054 127.481 55.4 127.556 55.4376C127.643 55.4805 127.643 55.6469 127.605 55.6898C127.756 55.5664 127.858 55.6683 127.869 55.7327C127.88 55.7971 127.864 55.883 127.783 55.9044C127.885 55.9152 127.896 56.0493 127.853 56.0976C127.81 56.1459 127.653 56.2318 127.508 56.1459C127.368 56.0815 127.293 56.1084 127.293 56.1084V56.1137Z" fill="#E44D27"/>
<path d="M127.293 56.1137C127.293 56.1137 127.077 56.0708 127.018 55.8722C126.959 55.6737 127.179 55.6737 127.244 55.7381C127.314 55.4054 127.481 55.4 127.556 55.4376C127.643 55.4805 127.643 55.6469 127.605 55.6898C127.756 55.5664 127.858 55.6683 127.869 55.7327C127.88 55.7971 127.864 55.883 127.783 55.9044C127.885 55.9152 127.896 56.0493 127.853 56.0976C127.81 56.1459 127.653 56.2318 127.508 56.1459C127.368 56.0815 127.293 56.1084 127.293 56.1084V56.1137Z" fill="black" fill-opacity="0.6"/>
<path d="M124.874 61.3833C124.874 61.3833 125.003 61.4316 125.068 61.3672C125.062 60.8145 125.073 60.6803 125.073 60.6803C125.073 60.6803 125.542 61.276 125.601 61.3457C125.65 61.394 125.714 61.394 125.806 61.3779C125.822 61.276 125.817 60.3047 125.817 60.3047H125.601V60.9755C125.601 60.9755 125.59 60.9862 125.504 60.9057C125.418 60.8199 125.03 60.3423 125.03 60.3423C125.03 60.3423 124.89 60.3369 124.863 60.3476C124.831 60.3583 124.874 61.3833 124.874 61.3833Z" fill="#FF9915"/>
<path d="M124.874 61.3833C124.874 61.3833 125.003 61.4316 125.068 61.3672C125.062 60.8145 125.073 60.6803 125.073 60.6803C125.073 60.6803 125.542 61.276 125.601 61.3457C125.65 61.394 125.714 61.394 125.806 61.3779C125.822 61.276 125.817 60.3047 125.817 60.3047H125.601V60.9755C125.601 60.9755 125.59 60.9862 125.504 60.9057C125.418 60.8199 125.03 60.3423 125.03 60.3423C125.03 60.3423 124.89 60.3369 124.863 60.3476C124.831 60.3583 124.874 61.3833 124.874 61.3833Z" fill="black" fill-opacity="0.6"/>
<path d="M130.632 60.208C130.632 60.208 130.622 60.2563 130.6 60.2724C130.584 60.2885 130.546 60.2939 130.525 60.2831C130.449 60.2509 130.331 60.2188 130.255 60.267C130.158 60.3261 130.131 60.4924 130.39 60.5729C130.649 60.6534 130.697 60.9325 130.584 61.1203C130.471 61.3081 130.099 61.3564 129.938 61.0505C129.927 60.9378 130.078 60.8949 130.121 60.9378C130.164 60.9808 130.212 61.0559 130.325 61.0344C130.439 61.013 130.482 60.911 130.406 60.7983C130.325 60.691 130.121 60.7339 130.018 60.5461C129.905 60.3314 130.078 59.9343 130.568 60.09C130.616 60.1061 130.643 60.1597 130.638 60.208H130.632Z" fill="#FF9915"/>
<path d="M130.632 60.208C130.632 60.208 130.622 60.2563 130.6 60.2724C130.584 60.2885 130.546 60.2939 130.525 60.2831C130.449 60.2509 130.331 60.2188 130.255 60.267C130.158 60.3261 130.131 60.4924 130.39 60.5729C130.649 60.6534 130.697 60.9325 130.584 61.1203C130.471 61.3081 130.099 61.3564 129.938 61.0505C129.927 60.9378 130.078 60.8949 130.121 60.9378C130.164 60.9808 130.212 61.0559 130.325 61.0344C130.439 61.013 130.482 60.911 130.406 60.7983C130.325 60.691 130.121 60.7339 130.018 60.5461C129.905 60.3314 130.078 59.9343 130.568 60.09C130.616 60.1061 130.643 60.1597 130.638 60.208H130.632Z" fill="black" fill-opacity="0.6"/>
<path d="M128.284 61.0563C128.284 61.2924 128.09 61.4856 127.853 61.4856C127.616 61.4856 127.422 61.2924 127.422 61.0563C127.422 60.8201 127.616 60.627 127.853 60.627C128.09 60.627 128.284 60.8201 128.284 61.0563Z" fill="#B0A693"/>
<path d="M128.284 61.0563C128.284 61.2924 128.09 61.4856 127.853 61.4856C127.616 61.4856 127.422 61.2924 127.422 61.0563C127.422 60.8201 127.616 60.627 127.853 60.627C128.09 60.627 128.284 60.8201 128.284 61.0563Z" fill="black" fill-opacity="0.6"/>
<path d="M128.65 57.552C128.65 57.552 128.3 57.8043 127.95 57.6003C127.6 57.3964 127.486 56.8544 127.551 56.5593C127.616 56.2641 127.562 56.0656 127.465 56.0226C127.368 55.9797 127.19 56.0119 127.109 56.3178C127.029 56.6237 126.797 58.1584 127.055 58.7058C127.314 59.2532 127.826 59.398 128.321 59.1995C128.542 59.0975 128.833 58.856 128.876 58.2497C129.092 58.298 129.377 58.137 129.377 58.0135C129.377 57.8901 129.291 57.8418 129.199 57.8579C129.366 57.7077 129.517 57.5359 129.501 57.332C129.485 57.1281 129.275 57.1496 129.194 57.2462C129.237 57.0905 129.318 56.7471 129.092 56.6666C128.86 56.5807 128.526 56.8008 128.65 57.5467V57.552Z" fill="#FFC83E"/>
<path d="M128.65 57.552C128.65 57.552 128.3 57.8043 127.95 57.6003C127.6 57.3964 127.486 56.8544 127.551 56.5593C127.616 56.2641 127.562 56.0656 127.465 56.0226C127.368 55.9797 127.19 56.0119 127.109 56.3178C127.029 56.6237 126.797 58.1584 127.055 58.7058C127.314 59.2532 127.826 59.398 128.321 59.1995C128.542 59.0975 128.833 58.856 128.876 58.2497C129.092 58.298 129.377 58.137 129.377 58.0135C129.377 57.8901 129.291 57.8418 129.199 57.8579C129.366 57.7077 129.517 57.5359 129.501 57.332C129.485 57.1281 129.275 57.1496 129.194 57.2462C129.237 57.0905 129.318 56.7471 129.092 56.6666C128.86 56.5807 128.526 56.8008 128.65 57.5467V57.552Z" fill="black" fill-opacity="0.6"/>
<path d="M127.309 56.2641C127.309 56.2963 127.287 56.3178 127.255 56.3178C127.223 56.3178 127.201 56.2963 127.201 56.2641C127.201 56.2319 127.223 56.2104 127.255 56.2104C127.287 56.2104 127.309 56.2319 127.309 56.2641Z" fill="#E44D27"/>
<path d="M127.309 56.2641C127.309 56.2963 127.287 56.3178 127.255 56.3178C127.223 56.3178 127.201 56.2963 127.201 56.2641C127.201 56.2319 127.223 56.2104 127.255 56.2104C127.287 56.2104 127.309 56.2319 127.309 56.2641Z" fill="black" fill-opacity="0.6"/>
<path d="M127.988 61.056C127.988 61.056 127.928 61.1902 127.853 61.1902C127.778 61.1902 127.718 61.1312 127.718 61.056C127.718 60.9809 127.778 60.9219 127.853 60.9219C127.928 60.9219 127.988 61.056 127.988 61.056Z" fill="#D6CFC6"/>
<path d="M127.988 61.056C127.988 61.056 127.928 61.1902 127.853 61.1902C127.778 61.1902 127.718 61.1312 127.718 61.056C127.718 60.9809 127.778 60.9219 127.853 60.9219C127.928 60.9219 127.988 61.056 127.988 61.056Z" fill="black" fill-opacity="0.6"/>
<path d="M126.183 59.4087C126.183 59.4087 126.317 59.4892 126.344 59.4999C126.366 59.516 126.28 59.5536 126.199 59.5482C126.193 59.4677 126.183 59.4033 126.183 59.4033V59.4087Z" fill="#FE9915"/>
<path d="M126.183 59.4087C126.183 59.4087 126.317 59.4892 126.344 59.4999C126.366 59.516 126.28 59.5536 126.199 59.5482C126.193 59.4677 126.183 59.4033 126.183 59.4033V59.4087Z" fill="black" fill-opacity="0.6"/>
<path d="M125.956 59.1294C125.956 59.1294 126.134 59.1187 126.183 59.3763C126.231 59.6339 126.258 60.2832 125.849 60.3207C125.466 60.3583 125.267 60.2349 125.165 60.0041C125.062 59.7626 125.127 59.6983 125.148 59.6714C125.116 59.6178 125.148 59.5748 125.159 59.5856C125.154 59.4943 125.197 59.4353 125.24 59.5051C125.278 59.5748 125.337 59.6231 125.472 59.6231C125.606 59.6231 125.676 59.548 125.698 59.4353C125.719 59.3226 125.768 59.108 125.962 59.1294H125.956Z" fill="#FFC83E"/>
<path d="M125.956 59.1294C125.956 59.1294 126.134 59.1187 126.183 59.3763C126.231 59.6339 126.258 60.2832 125.849 60.3207C125.466 60.3583 125.267 60.2349 125.165 60.0041C125.062 59.7626 125.127 59.6983 125.148 59.6714C125.116 59.6178 125.148 59.5748 125.159 59.5856C125.154 59.4943 125.197 59.4353 125.24 59.5051C125.278 59.5748 125.337 59.6231 125.472 59.6231C125.606 59.6231 125.676 59.548 125.698 59.4353C125.719 59.3226 125.768 59.108 125.962 59.1294H125.956Z" fill="black" fill-opacity="0.6"/>
<path d="M126.016 59.3447C126.016 59.3447 126.037 59.3881 126.059 59.3881C126.081 59.3881 126.103 59.3664 126.103 59.3447C126.103 59.323 126.086 59.3013 126.059 59.3013C126.032 59.3013 126.016 59.323 126.016 59.3447Z" fill="#BE1E2D"/>
<path d="M126.016 59.3447C126.016 59.3447 126.037 59.3881 126.059 59.3881C126.081 59.3881 126.103 59.3664 126.103 59.3447C126.103 59.323 126.086 59.3013 126.059 59.3013C126.032 59.3013 126.016 59.323 126.016 59.3447Z" fill="black" fill-opacity="0.6"/>
<path d="M125.854 59.752H125.348C125.348 59.752 125.321 59.9881 125.568 59.9881C125.849 59.9881 125.854 59.752 125.854 59.752Z" fill="#FFDF40"/>
<path d="M125.854 59.752H125.348C125.348 59.752 125.321 59.9881 125.568 59.9881C125.849 59.9881 125.854 59.752 125.854 59.752Z" fill="black" fill-opacity="0.6"/>
<path d="M129.835 59.146C129.835 59.146 129.7 59.2265 129.679 59.2372C129.657 59.2533 129.743 59.2909 129.824 59.2855C129.829 59.2104 129.84 59.1406 129.84 59.1406L129.835 59.146Z" fill="#FE9915"/>
<path d="M129.835 59.146C129.835 59.146 129.7 59.2265 129.679 59.2372C129.657 59.2533 129.743 59.2909 129.824 59.2855C129.829 59.2104 129.84 59.1406 129.84 59.1406L129.835 59.146Z" fill="black" fill-opacity="0.6"/>
<path d="M130.061 58.8667C130.061 58.8667 129.884 58.856 129.835 59.1136C129.787 59.3712 129.76 60.0205 130.174 60.0581C130.557 60.0956 130.756 59.9722 130.859 59.7414C130.961 59.5 130.896 59.4356 130.875 59.4087C130.907 59.3551 130.875 59.3121 130.864 59.3229C130.869 59.2316 130.826 59.1726 130.783 59.2424C130.745 59.3121 130.686 59.3604 130.552 59.3604C130.417 59.3604 130.347 59.2853 130.325 59.1726C130.304 59.0599 130.255 58.8453 130.061 58.8667Z" fill="#FFC83E"/>
<path d="M130.061 58.8667C130.061 58.8667 129.884 58.856 129.835 59.1136C129.787 59.3712 129.76 60.0205 130.174 60.0581C130.557 60.0956 130.756 59.9722 130.859 59.7414C130.961 59.5 130.896 59.4356 130.875 59.4087C130.907 59.3551 130.875 59.3121 130.864 59.3229C130.869 59.2316 130.826 59.1726 130.783 59.2424C130.745 59.3121 130.686 59.3604 130.552 59.3604C130.417 59.3604 130.347 59.2853 130.325 59.1726C130.304 59.0599 130.255 58.8453 130.061 58.8667Z" fill="black" fill-opacity="0.6"/>
<path d="M130.002 59.0873C130.002 59.0873 129.981 59.1307 129.959 59.1307C129.937 59.1307 129.916 59.109 129.916 59.0873C129.916 59.0656 129.937 59.0439 129.959 59.0439C129.981 59.0439 130.002 59.0656 130.002 59.0873Z" fill="#BE1E2D"/>
<path d="M130.002 59.0873C130.002 59.0873 129.981 59.1307 129.959 59.1307C129.937 59.1307 129.916 59.109 129.916 59.0873C129.916 59.0656 129.937 59.0439 129.959 59.0439C129.981 59.0439 130.002 59.0656 130.002 59.0873Z" fill="black" fill-opacity="0.6"/>
<path d="M130.164 59.4893H130.67C130.67 59.4893 130.697 59.7254 130.449 59.7254C130.169 59.7254 130.164 59.4893 130.164 59.4893Z" fill="#FFDF40"/>
<path d="M130.164 59.4893H130.67C130.67 59.4893 130.697 59.7254 130.449 59.7254C130.169 59.7254 130.164 59.4893 130.164 59.4893Z" fill="black" fill-opacity="0.6"/>
<path d="M127.605 57.6807L128.451 58.0885C128.451 58.0885 128.284 58.6466 127.766 58.5178C127.244 58.389 127.605 57.6807 127.605 57.6807Z" fill="#FFDF40"/>
<path d="M127.605 57.6807L128.451 58.0885C128.451 58.0885 128.284 58.6466 127.766 58.5178C127.244 58.389 127.605 57.6807 127.605 57.6807Z" fill="black" fill-opacity="0.6"/>
<path d="M127.837 63.9595L121.798 68.5155L119.212 75.1697H136.498L133.913 68.5155L127.837 63.9595Z" fill="#B2271D"/>
<path d="M127.837 63.9595L121.798 68.5155L119.212 75.1697H136.498L133.913 68.5155L127.837 63.9595Z" fill="black" fill-opacity="0.6"/>
<path d="M136.504 74.2144H119.212V91.6817H136.504V74.2144Z" fill="#C93623"/>
<path d="M136.504 74.2144H119.212V91.6817H136.504V74.2144Z" fill="black" fill-opacity="0.6"/>
<path d="M136.504 74.2144H119.212V75.411H136.504V74.2144Z" fill="#891024"/>
<path d="M136.504 74.2144H119.212V75.411H136.504V74.2144Z" fill="black" fill-opacity="0.6"/>
<path d="M136.504 76.0015H119.212V76.3825H136.504V76.0015Z" fill="#A91022"/>
<path d="M136.504 76.0015H119.212V76.3825H136.504V76.0015Z" fill="black" fill-opacity="0.6"/>
<path d="M136.504 77.5898H119.212V77.9708H136.504V77.5898Z" fill="#A91022"/>
<path d="M136.504 77.5898H119.212V77.9708H136.504V77.5898Z" fill="black" fill-opacity="0.6"/>
<path d="M136.504 79.1836H119.212V79.5646H136.504V79.1836Z" fill="#A91022"/>
<path d="M136.504 79.1836H119.212V79.5646H136.504V79.1836Z" fill="black" fill-opacity="0.6"/>
<path d="M136.504 80.772H119.212V81.153H136.504V80.772Z" fill="#A91022"/>
<path d="M136.504 80.772H119.212V81.153H136.504V80.772Z" fill="black" fill-opacity="0.6"/>
<path d="M136.504 82.3604H119.212V82.7414H136.504V82.3604Z" fill="#A91022"/>
<path d="M136.504 82.3604H119.212V82.7414H136.504V82.3604Z" fill="black" fill-opacity="0.6"/>
<path d="M136.504 83.9487H119.212V84.3297H136.504V83.9487Z" fill="#A91022"/>
<path d="M136.504 83.9487H119.212V84.3297H136.504V83.9487Z" fill="black" fill-opacity="0.6"/>
<path d="M136.504 85.5371H119.212V85.9181H136.504V85.5371Z" fill="#A91022"/>
<path d="M136.504 85.5371H119.212V85.9181H136.504V85.5371Z" fill="black" fill-opacity="0.6"/>
<path d="M136.504 87.1255H119.212V87.5065H136.504V87.1255Z" fill="#A91022"/>
<path d="M136.504 87.1255H119.212V87.5065H136.504V87.1255Z" fill="black" fill-opacity="0.6"/>
<path d="M136.504 88.7139H119.212V89.0949H136.504V88.7139Z" fill="#A91022"/>
<path d="M136.504 88.7139H119.212V89.0949H136.504V88.7139Z" fill="black" fill-opacity="0.6"/>
<path d="M136.504 90.3076H119.212V90.6886H136.504V90.3076Z" fill="#A91022"/>
<path d="M136.504 90.3076H119.212V90.6886H136.504V90.3076Z" fill="black" fill-opacity="0.6"/>
<path d="M131.521 81.5444H123.834V91.6814H131.521V81.5444Z" fill="#A91022"/>
<path d="M131.521 81.5444H123.834V91.6814H131.521V81.5444Z" fill="#A91022"/>
<path d="M131.521 81.5444H123.834V91.6814H131.521V81.5444Z" fill="black" fill-opacity="0.6"/>
<path d="M125.375 82.6445H125.122V91.6814H125.375V82.6445Z" fill="#891024"/>
<path d="M125.375 82.6445H125.122V91.6814H125.375V82.6445Z" fill="black" fill-opacity="0.6"/>
<path d="M126.344 82.6445H126.091V91.6814H126.344V82.6445Z" fill="#891024"/>
<path d="M126.344 82.6445H126.091V91.6814H126.344V82.6445Z" fill="black" fill-opacity="0.6"/>
<path d="M127.314 82.6445H127.061V91.6814H127.314V82.6445Z" fill="#891024"/>
<path d="M127.314 82.6445H127.061V91.6814H127.314V82.6445Z" fill="black" fill-opacity="0.6"/>
<path d="M128.284 82.6445H128.031V91.6814H128.284V82.6445Z" fill="#891024"/>
<path d="M128.284 82.6445H128.031V91.6814H128.284V82.6445Z" fill="black" fill-opacity="0.6"/>
<path d="M129.253 82.6445H129V91.6814H129.253V82.6445Z" fill="#891024"/>
<path d="M129.253 82.6445H129V91.6814H129.253V82.6445Z" fill="black" fill-opacity="0.6"/>
<path d="M130.223 82.6445H129.97V91.6814H130.223V82.6445Z" fill="#891024"/>
<path d="M130.223 82.6445H129.97V91.6814H130.223V82.6445Z" fill="black" fill-opacity="0.6"/>
<path d="M124.281 82.124V91.6814H124.701V82.7197H130.659V91.6814H131.079V82.124H124.281Z" fill="#F8D7A2"/>
<path d="M124.281 82.124V91.6814H124.701V82.7197H130.659V91.6814H131.079V82.124H124.281Z" fill="black" fill-opacity="0.6"/>
<path d="M124.454 82.6878L130.39 91.6817H130.848L124.771 82.4785L124.454 82.6878Z" fill="#F8D7A2"/>
<path d="M124.454 82.6878L130.39 91.6817H130.848L124.771 82.4785L124.454 82.6878Z" fill="black" fill-opacity="0.6"/>
<path d="M130.675 82.4785L124.599 91.6817H125.057L130.993 82.6878L130.675 82.4785Z" fill="#F8D7A2"/>
<path d="M130.675 82.4785L124.599 91.6817H125.057L130.993 82.6878L130.675 82.4785Z" fill="black" fill-opacity="0.6"/>
<path d="M120.624 71.5367V75.1697H121.006V70.5493L120.624 71.5367Z" fill="#891024"/>
<path d="M120.624 71.5367V75.1697H121.006V70.5493L120.624 71.5367Z" fill="black" fill-opacity="0.6"/>
<path d="M123.419 67.2917V75.1695H123.802V67.0073L123.419 67.2917Z" fill="#891024"/>
<path d="M123.419 67.2917V75.1695H123.802V67.0073L123.419 67.2917Z" fill="black" fill-opacity="0.6"/>
<path d="M126.215 65.1828V75.1696H126.598V64.8931L126.215 65.1828Z" fill="#891024"/>
<path d="M126.215 65.1828V75.1696H126.598V64.8931L126.215 65.1828Z" fill="black" fill-opacity="0.6"/>
<path d="M129.011 64.8394V75.1695H129.393V65.1238L129.011 64.8394Z" fill="#891024"/>
<path d="M129.011 64.8394V75.1695H129.393V65.1238L129.011 64.8394Z" fill="black" fill-opacity="0.6"/>
<path d="M131.801 66.9375V75.1694H132.184V67.2219L131.801 66.9375Z" fill="#891024"/>
<path d="M131.801 66.9375V75.1694H132.184V67.2219L131.801 66.9375Z" fill="black" fill-opacity="0.6"/>
<path d="M134.98 71.2628L134.597 70.2808V75.1695H134.98V71.2628Z" fill="#891024"/>
<path d="M134.98 71.2628L134.597 70.2808V75.1695H134.98V71.2628Z" fill="black" fill-opacity="0.6"/>
<path d="M133.913 68.5155L127.837 63.9595L121.798 68.5155L119.212 75.1697H120.36L122.94 68.7838L127.858 65.1669L132.771 68.7838L135.351 75.1697H136.498L133.913 68.5155Z" fill="#891024"/>
<path d="M133.913 68.5155L127.837 63.9595L121.798 68.5155L119.212 75.1697H120.36L122.94 68.7838L127.858 65.1669L132.771 68.7838L135.351 75.1697H136.498L133.913 68.5155Z" fill="black" fill-opacity="0.6"/>
<path d="M138.68 76.8386L135.006 67.7427C134.963 67.6407 134.893 67.5441 134.802 67.4797L128.294 62.693C128.198 62.6071 128.074 62.5534 127.939 62.5374C127.783 62.5213 127.627 62.5588 127.503 62.6393C127.486 62.65 127.47 62.6608 127.454 62.6769L120.925 67.4797C120.834 67.5495 120.758 67.6407 120.715 67.7427L117.042 76.8386C116.912 77.1552 117.074 77.5094 117.403 77.6328L117.699 77.7455C117.855 77.8045 118.033 77.7991 118.184 77.7347C118.34 77.6703 118.458 77.5469 118.518 77.3967L122.094 68.5423L127.858 64.3029L133.622 68.5423L137.199 77.3967C137.258 77.5469 137.382 77.6703 137.538 77.7347C137.619 77.7669 137.705 77.7884 137.791 77.7884C137.872 77.7884 137.948 77.7723 138.023 77.7455L138.319 77.6328C138.648 77.5094 138.809 77.1552 138.68 76.8386Z" fill="#EFE5CA"/>
<path d="M138.68 76.8386L135.006 67.7427C134.963 67.6407 134.893 67.5441 134.802 67.4797L128.294 62.693C128.198 62.6071 128.074 62.5534 127.939 62.5374C127.783 62.5213 127.627 62.5588 127.503 62.6393C127.486 62.65 127.47 62.6608 127.454 62.6769L120.925 67.4797C120.834 67.5495 120.758 67.6407 120.715 67.7427L117.042 76.8386C116.912 77.1552 117.074 77.5094 117.403 77.6328L117.699 77.7455C117.855 77.8045 118.033 77.7991 118.184 77.7347C118.34 77.6703 118.458 77.5469 118.518 77.3967L122.094 68.5423L127.858 64.3029L133.622 68.5423L137.199 77.3967C137.258 77.5469 137.382 77.6703 137.538 77.7347C137.619 77.7669 137.705 77.7884 137.791 77.7884C137.872 77.7884 137.948 77.7723 138.023 77.7455L138.319 77.6328C138.648 77.5094 138.809 77.1552 138.68 76.8386Z" fill="black" fill-opacity="0.6"/>
<path d="M27.6596 51.6309C28.9093 51.2391 29.8143 50.0747 29.8143 48.7009C29.8143 47.0051 28.4353 45.6313 26.7331 45.6313C25.0309 45.6313 23.6519 47.0051 23.6519 48.7009C23.6519 50.0747 24.5569 51.2338 25.8012 51.6309L15.2217 94.0837H18.8847L19.3533 91.7065H35.4003L35.9336 94.0837H39.7528L27.665 51.6362L27.6596 51.6309ZM31.5219 74.384L27.8859 69.3236L29.7874 66.6458L31.5219 74.384ZM27.0563 70.4881L30.9994 75.9778H23.1509L27.0563 70.4881ZM27.0563 68.1645L25.2787 65.6906H28.8178L27.0563 68.1645ZM31.2472 77.2657L27.3634 81.1348L23.3718 77.2657H31.2472ZM26.2429 56.5893H27.5357L29.2433 64.2095H24.7508L26.2483 56.5893H26.2429ZM24.2768 66.619L26.2268 69.3343L22.8008 74.1533L24.2768 66.619ZM22.0682 77.8829L26.4099 82.09L19.9889 88.4867L22.0682 77.8829ZM20.8454 89.5331L27.3795 83.0292L34.0968 89.5331H20.8508H20.8454ZM28.333 82.074L32.3461 78.076L34.6031 88.1486L28.333 82.074Z" fill="#AD6F53"/>
<path d="M27.6596 51.6309C28.9093 51.2391 29.8143 50.0747 29.8143 48.7009C29.8143 47.0051 28.4353 45.6313 26.7331 45.6313C25.0309 45.6313 23.6519 47.0051 23.6519 48.7009C23.6519 50.0747 24.5569 51.2338 25.8012 51.6309L15.2217 94.0837H18.8847L19.3533 91.7065H35.4003L35.9336 94.0837H39.7528L27.665 51.6362L27.6596 51.6309ZM31.5219 74.384L27.8859 69.3236L29.7874 66.6458L31.5219 74.384ZM27.0563 70.4881L30.9994 75.9778H23.1509L27.0563 70.4881ZM27.0563 68.1645L25.2787 65.6906H28.8178L27.0563 68.1645ZM31.2472 77.2657L27.3634 81.1348L23.3718 77.2657H31.2472ZM26.2429 56.5893H27.5357L29.2433 64.2095H24.7508L26.2483 56.5893H26.2429ZM24.2768 66.619L26.2268 69.3343L22.8008 74.1533L24.2768 66.619ZM22.0682 77.8829L26.4099 82.09L19.9889 88.4867L22.0682 77.8829ZM20.8454 89.5331L27.3795 83.0292L34.0968 89.5331H20.8508H20.8454ZM28.333 82.074L32.3461 78.076L34.6031 88.1486L28.333 82.074Z" fill="black" fill-opacity="0.6"/>
<path d="M45.2142 62.9908L36.8324 54.6409C35.9005 53.7125 34.4946 53.5515 33.3957 54.1525L27.6157 48.3945L27.605 48.3838L21.825 42.6257C22.4283 41.531 22.2667 40.125 21.3348 39.1966L12.9531 30.8467C11.8219 29.7197 9.99036 29.7197 8.85915 30.8467C7.72794 31.9736 7.72794 33.8035 8.85915 34.9304L17.2409 43.2804C18.2321 44.2678 19.7673 44.3912 20.8931 43.6399L26.63 49.3551L26.6461 49.3658L32.383 55.0809C31.6342 56.2025 31.7527 57.7319 32.7439 58.7193L41.1256 67.0692C42.2568 68.1962 44.0883 68.1962 45.2195 67.0692C46.3508 65.9423 46.3508 64.1124 45.2195 62.9855L45.2142 62.9908Z" fill="#F4F4F4"/>
<path d="M45.2142 62.9908L36.8324 54.6409C35.9005 53.7125 34.4946 53.5515 33.3957 54.1525L27.6157 48.3945L27.605 48.3838L21.825 42.6257C22.4283 41.531 22.2667 40.125 21.3348 39.1966L12.9531 30.8467C11.8219 29.7197 9.99036 29.7197 8.85915 30.8467C7.72794 31.9736 7.72794 33.8035 8.85915 34.9304L17.2409 43.2804C18.2321 44.2678 19.7673 44.3912 20.8931 43.6399L26.63 49.3551L26.6461 49.3658L32.383 55.0809C31.6342 56.2025 31.7527 57.7319 32.7439 58.7193L41.1256 67.0692C42.2568 68.1962 44.0883 68.1962 45.2195 67.0692C46.3508 65.9423 46.3508 64.1124 45.2195 62.9855L45.2142 62.9908Z" fill="black" fill-opacity="0.6"/>
<path d="M12.9531 67.0746L21.3348 58.7246C22.2667 57.7963 22.4283 56.3957 21.825 55.2956L27.605 49.5375L27.6158 49.5268L33.3957 43.7687C34.4946 44.3698 35.9005 44.2088 36.8324 43.2804L45.2142 34.9304C46.3454 33.8035 46.3454 31.9736 45.2142 30.8467C44.083 29.7197 42.2515 29.7197 41.1149 30.8467L32.7331 39.1966C31.742 40.184 31.6181 41.7134 32.3722 42.835L26.6354 48.5501L26.6192 48.5608L20.8824 54.276C19.7565 53.53 18.2213 53.6481 17.2302 54.6355L8.84841 62.9855C7.7172 64.1124 7.7172 65.9423 8.84841 67.0692C9.97962 68.1962 11.8111 68.1962 12.9423 67.0692L12.9531 67.0746Z" fill="#F4F4F4"/>
<path d="M12.9531 67.0746L21.3348 58.7246C22.2667 57.7963 22.4283 56.3957 21.825 55.2956L27.605 49.5375L27.6158 49.5268L33.3957 43.7687C34.4946 44.3698 35.9005 44.2088 36.8324 43.2804L45.2142 34.9304C46.3454 33.8035 46.3454 31.9736 45.2142 30.8467C44.083 29.7197 42.2515 29.7197 41.1149 30.8467L32.7331 39.1966C31.742 40.184 31.6181 41.7134 32.3722 42.835L26.6354 48.5501L26.6192 48.5608L20.8824 54.276C19.7565 53.53 18.2213 53.6481 17.2302 54.6355L8.84841 62.9855C7.7172 64.1124 7.7172 65.9423 8.84841 67.0692C9.97962 68.1962 11.8111 68.1962 12.9423 67.0692L12.9531 67.0746Z" fill="black" fill-opacity="0.6"/>
<path d="M51.6359 81.6408L51.1349 81.249L48.9964 83.9912V81.6569H48.2153V91.8368H48.9964V85.0215L51.6359 81.6408Z" fill="#825E06"/>
<path d="M51.6359 81.6408L51.1349 81.249L48.9964 83.9912V81.6569H48.2153V91.8368H48.9964V85.0215L51.6359 81.6408Z" fill="black" fill-opacity="0.6"/>
<path d="M54.8196 75.4802C54.8196 79.5586 52.2394 82.8643 49.0558 82.8643C45.8722 82.8643 43.2866 79.5586 43.2866 75.4802C43.2866 71.4018 45.8669 68.1016 49.0558 68.1016C52.2447 68.1016 54.8196 71.4072 54.8196 75.4802Z" fill="#7BAC4E"/>
<path d="M54.8196 75.4802C54.8196 79.5586 52.2394 82.8643 49.0558 82.8643C45.8722 82.8643 43.2866 79.5586 43.2866 75.4802C43.2866 71.4018 45.8669 68.1016 49.0558 68.1016C52.2447 68.1016 54.8196 71.4072 54.8196 75.4802Z" fill="black" fill-opacity="0.6"/>
<path d="M49.1367 68.1069V82.8589C52.288 82.8052 54.8251 79.5264 54.8251 75.4802C54.8251 71.434 52.288 68.1606 49.1367 68.1016V68.1069Z" fill="#94CB49"/>
<path d="M49.1367 68.1069V82.8589C52.288 82.8052 54.8251 79.5264 54.8251 75.4802C54.8251 71.434 52.288 68.1606 49.1367 68.1016V68.1069Z" fill="black" fill-opacity="0.6"/>
<path d="M42.2848 84.5225H41.5522V91.8421H42.2848V84.5225Z" fill="#825E06"/>
<path d="M42.2848 84.5225H41.5522V91.8421H42.2848V84.5225Z" fill="black" fill-opacity="0.6"/>
<path d="M47.3913 79.4082C47.3913 82.4348 44.9296 84.8872 41.8915 84.8872C38.8533 84.8872 36.3916 82.4348 36.3916 79.4082C36.3916 76.3816 38.8533 73.9292 41.8915 73.9292C44.9296 73.9292 47.3913 76.3816 47.3913 79.4082Z" fill="#325C40"/>
<path d="M47.3913 79.4082C47.3913 82.4348 44.9296 84.8872 41.8915 84.8872C38.8533 84.8872 36.3916 82.4348 36.3916 79.4082C36.3916 76.3816 38.8533 73.9292 41.8915 73.9292C44.9296 73.9292 47.3913 76.3816 47.3913 79.4082Z" fill="black" fill-opacity="0.6"/>
<path d="M41.897 73.9292V84.8872C44.9297 84.8872 47.3968 82.4348 47.3968 79.4082C47.3968 76.3816 44.9351 73.9346 41.897 73.9292Z" fill="#386D48"/>
<path d="M41.897 73.9292V84.8872C44.9297 84.8872 47.3968 82.4348 47.3968 79.4082C47.3968 76.3816 44.9351 73.9346 41.897 73.9292Z" fill="black" fill-opacity="0.6"/>
<path d="M64.3104 56.0171H51.3877V91.5904H64.3104V56.0171Z" fill="#C93623"/>
<path d="M64.3104 56.0171H51.3877V91.5904H64.3104V56.0171Z" fill="black" fill-opacity="0.6"/>
<path d="M57.911 56.0171H51.3877V91.5904H57.911V56.0171Z" fill="#AF2522"/>
<path d="M57.911 56.0171H51.3877V91.5904H57.911V56.0171Z" fill="black" fill-opacity="0.6"/>
<path d="M57.8517 48.8101C54.2857 48.8101 51.3931 51.6918 51.3931 55.2443V56.017H64.3158V55.2443C64.3158 51.6918 61.4231 48.8101 57.8571 48.8101H57.8517Z" fill="#EFE5CA"/>
<path d="M57.8517 48.8101C54.2857 48.8101 51.3931 51.6918 51.3931 55.2443V56.017H64.3158V55.2443C64.3158 51.6918 61.4231 48.8101 57.8571 48.8101H57.8517Z" fill="black" fill-opacity="0.6"/>
<path d="M57.8517 48.8101C54.2857 48.8101 51.3931 51.6918 51.3931 55.2443V56.017H57.9164V48.8154C57.9164 48.8154 57.8733 48.8154 57.8517 48.8154V48.8101Z" fill="#DDD3BA"/>
<path d="M57.8517 48.8101C54.2857 48.8101 51.3931 51.6918 51.3931 55.2443V56.017H57.9164V48.8154C57.9164 48.8154 57.8733 48.8154 57.8517 48.8154V48.8101Z" fill="black" fill-opacity="0.6"/>
<path d="M64.9785 55.2441H50.8438V56.8379H64.9785V55.2441Z" fill="#DF462B"/>
<path d="M64.9785 55.2441H50.8438V56.8379H64.9785V55.2441Z" fill="black" fill-opacity="0.6"/>
<path d="M64.8545 62.6924H50.7197V64.2862H64.8545V62.6924Z" fill="#DF462B"/>
<path d="M64.8545 62.6924H50.7197V64.2862H64.8545V62.6924Z" fill="black" fill-opacity="0.6"/>
<path d="M64.9785 70.1357H50.8438V71.7295H64.9785V70.1357Z" fill="#DF462B"/>
<path d="M64.9785 70.1357H50.8438V71.7295H64.9785V70.1357Z" fill="black" fill-opacity="0.6"/>
<path d="M64.8545 77.5786H50.7197V79.1724H64.8545V77.5786Z" fill="#DF462B"/>
<path d="M64.8545 77.5786H50.7197V79.1724H64.8545V77.5786Z" fill="black" fill-opacity="0.6"/>
<path d="M64.8545 85.022H50.7197V86.6158H64.8545V85.022Z" fill="#DF462B"/>
<path d="M64.8545 85.022H50.7197V86.6158H64.8545V85.022Z" fill="black" fill-opacity="0.6"/>
<path d="M57.9111 55.2441H50.8438V56.8379H57.9111V55.2441Z" fill="#C93623"/>
<path d="M57.9111 55.2441H50.8438V56.8379H57.9111V55.2441Z" fill="black" fill-opacity="0.6"/>
<path d="M57.911 62.6924H50.7197V64.2862H57.911V62.6924Z" fill="#C93623"/>
<path d="M57.911 62.6924H50.7197V64.2862H57.911V62.6924Z" fill="black" fill-opacity="0.6"/>
<path d="M57.9111 70.1357H50.8438V71.7295H57.9111V70.1357Z" fill="#C93623"/>
<path d="M57.9111 70.1357H50.8438V71.7295H57.9111V70.1357Z" fill="black" fill-opacity="0.6"/>
<path d="M57.911 77.5786H50.7197V79.1724H57.911V77.5786Z" fill="#C93623"/>
<path d="M57.911 77.5786H50.7197V79.1724H57.911V77.5786Z" fill="black" fill-opacity="0.6"/>
<path d="M57.911 85.022H50.7197V86.6158H57.911V85.022Z" fill="#C93623"/>
<path d="M57.911 85.022H50.7197V86.6158H57.911V85.022Z" fill="black" fill-opacity="0.6"/>
<path d="M67.5475 87.0713H47.3203V87.9943H67.5475V87.0713Z" fill="#EDF2E7"/>
<path d="M67.5475 87.0713H47.3203V87.9943H67.5475V87.0713Z" fill="black" fill-opacity="0.6"/>
<path d="M67.5475 89.4971H47.3203V90.4254H67.5475V89.4971Z" fill="#EDF2E7"/>
<path d="M67.5475 89.4971H47.3203V90.4254H67.5475V89.4971Z" fill="black" fill-opacity="0.6"/>
<path d="M67.8388 91.59V86.2773C67.8388 85.9661 67.5856 85.7085 67.2678 85.7085C66.95 85.7085 66.6968 85.9607 66.6968 86.2773V91.59H67.8388Z" fill="#EDF2E7"/>
<path d="M67.8388 91.59V86.2773C67.8388 85.9661 67.5856 85.7085 67.2678 85.7085C66.95 85.7085 66.6968 85.9607 66.6968 86.2773V91.59H67.8388Z" fill="black" fill-opacity="0.6"/>
<path d="M61.2396 91.59V86.2773C61.2396 85.9661 60.9865 85.7085 60.6686 85.7085C60.3508 85.7085 60.0977 85.9607 60.0977 86.2773V91.59H61.2396Z" fill="#EDF2E7"/>
<path d="M61.2396 91.59V86.2773C61.2396 85.9661 60.9865 85.7085 60.6686 85.7085C60.3508 85.7085 60.0977 85.9607 60.0977 86.2773V91.59H61.2396Z" fill="black" fill-opacity="0.6"/>
<path d="M54.641 91.59V86.2773C54.641 85.9661 54.3878 85.7085 54.07 85.7085C53.7522 85.7085 53.499 85.9607 53.499 86.2773V91.59H54.641Z" fill="#EDF2E7"/>
<path d="M54.641 91.59V86.2773C54.641 85.9661 54.3878 85.7085 54.07 85.7085C53.7522 85.7085 53.499 85.9607 53.499 86.2773V91.59H54.641Z" fill="black" fill-opacity="0.6"/>
<path d="M48.0424 91.59V86.2773C48.0424 85.9661 47.7892 85.7085 47.4714 85.7085C47.1536 85.7085 46.9004 85.9607 46.9004 86.2773V91.59H48.0424Z" fill="#EDF2E7"/>
<path d="M48.0424 91.59V86.2773C48.0424 85.9661 47.7892 85.7085 47.4714 85.7085C47.1536 85.7085 46.9004 85.9607 46.9004 86.2773V91.59H48.0424Z" fill="black" fill-opacity="0.6"/>
<path d="M224 87.0713H104.517V87.9943H224V87.0713Z" fill="#EDF2E7"/>
<path d="M224 87.0713H104.517V87.9943H224V87.0713Z" fill="black" fill-opacity="0.6"/>
<path d="M224 89.4971H104.517V90.4254H224V89.4971Z" fill="#EDF2E7"/>
<path d="M224 89.4971H104.517V90.4254H224V89.4971Z" fill="black" fill-opacity="0.6"/>
<path d="M105.239 91.59V86.2773C105.239 85.9661 104.985 85.7085 104.668 85.7085C104.35 85.7085 104.097 85.9607 104.097 86.2773V91.59H105.239Z" fill="#EDF2E7"/>
<path d="M105.239 91.59V86.2773C105.239 85.9661 104.985 85.7085 104.668 85.7085C104.35 85.7085 104.097 85.9607 104.097 86.2773V91.59H105.239Z" fill="black" fill-opacity="0.6"/>
<path d="M114.822 91.59V86.2773C114.822 85.9661 114.568 85.7085 114.251 85.7085C113.933 85.7085 113.68 85.9607 113.68 86.2773V91.59H114.822Z" fill="#EDF2E7"/>
<path d="M114.822 91.59V86.2773C114.822 85.9661 114.568 85.7085 114.251 85.7085C113.933 85.7085 113.68 85.9607 113.68 86.2773V91.59H114.822Z" fill="black" fill-opacity="0.6"/>
<path d="M124.405 91.59V86.2773C124.405 85.9661 124.152 85.7085 123.834 85.7085C123.516 85.7085 123.263 85.9607 123.263 86.2773V91.59H124.405Z" fill="#EDF2E7"/>
<path d="M124.405 91.59V86.2773C124.405 85.9661 124.152 85.7085 123.834 85.7085C123.516 85.7085 123.263 85.9607 123.263 86.2773V91.59H124.405Z" fill="black" fill-opacity="0.6"/>
<path d="M133.988 91.59V86.2773C133.988 85.9661 133.735 85.7085 133.417 85.7085C133.099 85.7085 132.846 85.9607 132.846 86.2773V91.59H133.988Z" fill="#EDF2E7"/>
<path d="M133.988 91.59V86.2773C133.988 85.9661 133.735 85.7085 133.417 85.7085C133.099 85.7085 132.846 85.9607 132.846 86.2773V91.59H133.988Z" fill="black" fill-opacity="0.6"/>
<path d="M143.571 91.59V86.2773C143.571 85.9661 143.318 85.7085 143 85.7085C142.682 85.7085 142.429 85.9607 142.429 86.2773V91.59H143.571Z" fill="#EDF2E7"/>
<path d="M153.154 91.59V86.2773C153.154 85.9661 152.901 85.7085 152.583 85.7085C152.265 85.7085 152.012 85.9607 152.012 86.2773V91.59H153.154Z" fill="#EDF2E7"/>
<path d="M153.154 91.59V86.2773C153.154 85.9661 152.901 85.7085 152.583 85.7085C152.265 85.7085 152.012 85.9607 152.012 86.2773V91.59H153.154Z" fill="black" fill-opacity="0.6"/>
<path d="M162.737 91.59V86.2773C162.737 85.9661 162.484 85.7085 162.166 85.7085C161.848 85.7085 161.595 85.9607 161.595 86.2773V91.59H162.737Z" fill="#EDF2E7"/>
<path d="M162.737 91.59V86.2773C162.737 85.9661 162.484 85.7085 162.166 85.7085C161.848 85.7085 161.595 85.9607 161.595 86.2773V91.59H162.737Z" fill="black" fill-opacity="0.6"/>
<path d="M172.32 91.59V86.2773C172.32 85.9661 172.067 85.7085 171.749 85.7085C171.431 85.7085 171.178 85.9607 171.178 86.2773V91.59H172.32Z" fill="#EDF2E7"/>
<path d="M172.32 91.59V86.2773C172.32 85.9661 172.067 85.7085 171.749 85.7085C171.431 85.7085 171.178 85.9607 171.178 86.2773V91.59H172.32Z" fill="black" fill-opacity="0.6"/>
<path d="M181.903 91.59V86.2773C181.903 85.9661 181.65 85.7085 181.332 85.7085C181.014 85.7085 180.761 85.9607 180.761 86.2773V91.59H181.903Z" fill="#EDF2E7"/>
<path d="M191.486 91.59V86.2773C191.486 85.9661 191.233 85.7085 190.915 85.7085C190.597 85.7085 190.344 85.9607 190.344 86.2773V91.59H191.486Z" fill="#EDF2E7"/>
<path d="M191.486 91.59V86.2773C191.486 85.9661 191.233 85.7085 190.915 85.7085C190.597 85.7085 190.344 85.9607 190.344 86.2773V91.59H191.486Z" fill="black" fill-opacity="0.6"/>
<path d="M201.068 91.59V86.2773C201.068 85.9661 200.815 85.7085 200.497 85.7085C200.179 85.7085 199.926 85.9607 199.926 86.2773V91.59H201.068Z" fill="#EDF2E7"/>
<path d="M201.068 91.59V86.2773C201.068 85.9661 200.815 85.7085 200.497 85.7085C200.179 85.7085 199.926 85.9607 199.926 86.2773V91.59H201.068Z" fill="black" fill-opacity="0.6"/>
<path d="M210.651 91.59V86.2773C210.651 85.9661 210.398 85.7085 210.08 85.7085C209.762 85.7085 209.509 85.9607 209.509 86.2773V91.59H210.651Z" fill="#EDF2E7"/>
<path d="M210.651 91.59V86.2773C210.651 85.9661 210.398 85.7085 210.08 85.7085C209.762 85.7085 209.509 85.9607 209.509 86.2773V91.59H210.651Z" fill="black" fill-opacity="0.6"/>
<path d="M220.234 91.59V86.2773C220.234 85.9661 219.981 85.7085 219.663 85.7085C219.345 85.7085 219.092 85.9607 219.092 86.2773V91.59H220.234Z" fill="#EDF2E7"/>
<path d="M220.234 91.59V86.2773C220.234 85.9661 219.981 85.7085 219.663 85.7085C219.345 85.7085 219.092 85.9607 219.092 86.2773V91.59H220.234Z" fill="black" fill-opacity="0.6"/>
<path d="M164.103 74.8287L165.685 71.0789C165.919 70.5248 166.563 70.2589 167.124 70.4939L167.248 70.5459C167.81 70.7809 168.071 71.4203 167.836 71.9793L166.253 75.7291C166.019 76.2832 165.376 76.5491 164.814 76.3141L164.69 76.2621C164.134 76.0292 163.867 75.3877 164.103 74.8287Z" fill="#3F4843"/>
<path d="M159.305 72.3034C159.305 72.1048 159.144 71.9438 158.944 71.9438C158.745 71.9438 158.583 72.1048 158.583 72.3034V75.1744C158.583 75.3729 158.745 75.5339 158.944 75.5339C159.144 75.5339 159.305 75.3729 159.305 75.1744V72.3034Z" fill="#5F676A"/>
<path d="M145.181 74.6054V71.6217C145.181 71.0797 144.874 70.6128 144.432 70.3713V68.257H146.075L146.523 66.8242H143.711C143.56 66.8242 143.425 66.8671 143.307 66.9476C143.118 67.0764 142.989 67.2965 142.989 67.5433V70.4089C142.579 70.6611 142.299 71.1065 142.299 71.6271V74.6107H145.176L145.181 74.6054Z" fill="#FBB040"/>
<path d="M145.181 74.6054V71.6217C145.181 71.0797 144.874 70.6128 144.432 70.3713V68.257H146.075L146.523 66.8242H143.711C143.56 66.8242 143.425 66.8671 143.307 66.9476C143.118 67.0764 142.989 67.2965 142.989 67.5433V70.4089C142.579 70.6611 142.299 71.1065 142.299 71.6271V74.6107H145.176L145.181 74.6054Z" fill="black" fill-opacity="0.6"/>
<path d="M145.181 74.0044H142.305V74.6054H145.181V74.0044Z" fill="#D86E1E"/>
<path d="M145.181 74.0044H142.305V74.6054H145.181V74.0044Z" fill="black" fill-opacity="0.6"/>
<path d="M172.438 74.026L170.44 62.6924L160.561 62.8158L155.12 74.3373H145.181H142.305H141.244C141.244 74.3373 140.495 74.5841 140.43 76.3282C140.371 78.0722 140.371 81.0613 140.371 81.0613L140.403 82.1936C141.459 81.4637 142.741 81.0344 144.126 81.0344C147.061 81.0344 149.545 82.9609 150.374 85.6119H158.056C158.034 85.365 158.023 85.1182 158.023 84.866C158.023 79.9075 162.058 75.8881 167.035 75.8881C170.434 75.8881 173.392 77.761 174.927 80.53C174.808 78.5874 174.184 76.296 172.444 74.0207L172.438 74.026ZM156.925 74.45L161.352 64.0984H169.303L170.779 74.45H156.925Z" fill="#FBB040"/>
<path d="M172.438 74.026L170.44 62.6924L160.561 62.8158L155.12 74.3373H145.181H142.305H141.244C141.244 74.3373 140.495 74.5841 140.43 76.3282C140.371 78.0722 140.371 81.0613 140.371 81.0613L140.403 82.1936C141.459 81.4637 142.741 81.0344 144.126 81.0344C147.061 81.0344 149.545 82.9609 150.374 85.6119H158.056C158.034 85.365 158.023 85.1182 158.023 84.866C158.023 79.9075 162.058 75.8881 167.035 75.8881C170.434 75.8881 173.392 77.761 174.927 80.53C174.808 78.5874 174.184 76.296 172.444 74.0207L172.438 74.026ZM156.925 74.45L161.352 64.0984H169.303L170.779 74.45H156.925Z" fill="black" fill-opacity="0.6"/>
<path d="M150.212 85.1611C150.272 85.306 150.326 85.4563 150.374 85.6065H158.055C158.045 85.4563 158.034 85.3114 158.029 85.1611H150.212Z" fill="#D86E1E"/>
<path d="M150.212 85.1611C150.272 85.306 150.326 85.4563 150.374 85.6065H158.055C158.045 85.4563 158.034 85.3114 158.029 85.1611H150.212Z" fill="black" fill-opacity="0.6"/>
<path d="M150.137 85.5261L147.578 86.7121L141.771 84.528L140.629 82.1131C140.629 82.1131 142.504 80.5623 145.978 81.4316C149.453 82.2956 149.862 84.528 150.137 85.5315V85.5261Z" fill="#D86E1E"/>
<path d="M150.137 85.5261L147.578 86.7121L141.771 84.528L140.629 82.1131C140.629 82.1131 142.504 80.5623 145.978 81.4316C149.453 82.2956 149.862 84.528 150.137 85.5315V85.5261Z" fill="black" fill-opacity="0.6"/>
<path d="M158.233 85.2092H169.89L174.577 80.5406C174.577 80.5406 172.955 76.6446 169.75 76.0543C166.55 75.464 161.385 75.9631 159.327 79.5639C157.269 83.1647 158.228 85.2146 158.228 85.2146L158.233 85.2092Z" fill="#D86E1E"/>
<path d="M158.233 85.2092H169.89L174.577 80.5406C174.577 80.5406 172.955 76.6446 169.75 76.0543C166.55 75.464 161.385 75.9631 159.327 79.5639C157.269 83.1647 158.228 85.2146 158.228 85.2146L158.233 85.2092Z" fill="black" fill-opacity="0.6"/>
<path d="M148.607 77.5035H141.933C141.653 77.5035 141.421 77.2781 141.421 76.9937C141.421 76.7093 141.648 76.4839 141.933 76.4839H148.607C148.887 76.4839 149.119 76.7093 149.119 76.9937C149.119 77.2781 148.893 77.5035 148.607 77.5035Z" fill="#D86E1E"/>
<path d="M148.607 77.5035H141.933C141.653 77.5035 141.421 77.2781 141.421 76.9937C141.421 76.7093 141.648 76.4839 141.933 76.4839H148.607C148.887 76.4839 149.119 76.7093 149.119 76.9937C149.119 77.2781 148.893 77.5035 148.607 77.5035Z" fill="black" fill-opacity="0.6"/>
<path d="M152.696 79.2797C152.539 79.3709 152.362 79.3495 152.297 79.2421L150.681 76.398C150.616 76.2907 150.697 76.1297 150.853 76.0385C151.01 75.9526 151.187 75.9687 151.252 76.076L152.868 78.9202C152.927 79.0275 152.852 79.1885 152.696 79.2797Z" fill="#D86E1E"/>
<path d="M152.696 79.2797C152.539 79.3709 152.362 79.3495 152.297 79.2421L150.681 76.398C150.616 76.2907 150.697 76.1297 150.853 76.0385C151.01 75.9526 151.187 75.9687 151.252 76.076L152.868 78.9202C152.927 79.0275 152.852 79.1885 152.696 79.2797Z" fill="black" fill-opacity="0.6"/>
<path d="M154.484 79.1669C154.328 79.2528 154.15 79.2367 154.086 79.1294L152.47 76.2906C152.405 76.1833 152.486 76.0223 152.642 75.931C152.798 75.8452 152.976 75.8613 153.041 75.9686L154.657 78.8074C154.721 78.9147 154.64 79.0757 154.484 79.1669Z" fill="#D86E1E"/>
<path d="M154.484 79.1669C154.328 79.2528 154.15 79.2367 154.086 79.1294L152.47 76.2906C152.405 76.1833 152.486 76.0223 152.642 75.931C152.798 75.8452 152.976 75.8613 153.041 75.9686L154.657 78.8074C154.721 78.9147 154.64 79.0757 154.484 79.1669Z" fill="black" fill-opacity="0.6"/>
<path d="M156.342 79.1669C156.186 79.2528 156.008 79.2367 155.944 79.1294L154.328 76.2906C154.269 76.1833 154.344 76.0223 154.5 75.931C154.656 75.8452 154.834 75.8613 154.899 75.9686L156.515 78.8074C156.574 78.9147 156.499 79.0757 156.342 79.1669Z" fill="#D86E1E"/>
<path d="M156.342 79.1669C156.186 79.2528 156.008 79.2367 155.944 79.1294L154.328 76.2906C154.269 76.1833 154.344 76.0223 154.5 75.931C154.656 75.8452 154.834 75.8613 154.899 75.9686L156.515 78.8074C156.574 78.9147 156.499 79.0757 156.342 79.1669Z" fill="black" fill-opacity="0.6"/>
<path d="M150.013 85.9445C149.389 83.4009 147.568 82.4189 146.792 82.0003L146.738 81.9735C143.237 80.3045 140.479 82.5584 140.366 82.655L139.833 82.0271C139.962 81.9144 143.097 79.3279 147.11 81.2383L147.18 81.2758C147.977 81.7052 150.089 82.8535 150.805 85.746L150.008 85.9392L150.013 85.9445Z" fill="#FFD261"/>
<path d="M150.013 85.9445C149.389 83.4009 147.568 82.4189 146.792 82.0003L146.738 81.9735C143.237 80.3045 140.479 82.5584 140.366 82.655L139.833 82.0271C139.962 81.9144 143.097 79.3279 147.11 81.2383L147.18 81.2758C147.977 81.7052 150.089 82.8535 150.805 85.746L150.008 85.9392L150.013 85.9445Z" fill="black" fill-opacity="0.6"/>
<path d="M157.501 86.1647C157.485 86.1003 156.224 79.7466 162.78 76.178L162.807 76.1673C165.926 74.6701 169.303 74.874 172.32 76.7415L172.449 76.8327C173.413 77.5089 174.108 77.9972 175.66 80.6374L174.711 81.1902C173.284 78.7539 172.702 78.346 171.819 77.7289L171.727 77.6645C169.012 75.9902 166.098 75.8078 163.297 77.1493C157.485 80.3208 158.53 85.7193 158.578 85.9447L157.506 86.1701L157.501 86.1647Z" fill="#FFD261"/>
<path d="M157.501 86.1647C157.485 86.1003 156.224 79.7466 162.78 76.178L162.807 76.1673C165.926 74.6701 169.303 74.874 172.32 76.7415L172.449 76.8327C173.413 77.5089 174.108 77.9972 175.66 80.6374L174.711 81.1902C173.284 78.7539 172.702 78.346 171.819 77.7289L171.727 77.6645C169.012 75.9902 166.098 75.8078 163.297 77.1493C157.485 80.3208 158.53 85.7193 158.578 85.9447L157.506 86.1701L157.501 86.1647Z" fill="black" fill-opacity="0.6"/>
<path d="M149.097 90.4629C149.097 90.4629 149.803 89.6043 149.706 88.7189L148.763 87.9193C148.78 87.6939 148.774 87.4685 148.753 87.2431L149.717 86.4114C149.717 86.4114 149.636 85.3059 148.952 84.7263L147.713 84.7907C147.584 84.6351 147.438 84.4902 147.288 84.3561L147.379 83.0359C147.379 83.0359 146.533 82.3115 145.639 82.3866L144.842 83.2721C144.535 83.2399 144.228 83.2345 143.926 83.2613L143.027 82.2793C143.027 82.2793 141.917 82.3866 141.357 83.0842L141.454 84.3185C141.271 84.4795 141.093 84.6566 140.937 84.8444L139.628 84.7854C139.628 84.7854 138.922 85.644 139.019 86.5348L139.935 87.3129C139.913 87.5758 139.918 87.8388 139.945 88.0964L139.03 88.8906C139.03 88.8906 139.11 89.996 139.795 90.5756L140.974 90.5112C141.147 90.7151 141.341 90.903 141.551 91.0747L141.459 92.3358C141.459 92.3358 142.305 93.0602 143.199 92.9851L144.034 92.0567C144.309 92.0782 144.583 92.0674 144.853 92.0406L145.698 92.9636C145.698 92.9636 146.808 92.8563 147.368 92.1587L147.277 90.9673C147.471 90.7956 147.654 90.6078 147.815 90.3985L149.097 90.4575V90.4629Z" fill="#454A4C"/>
<path d="M149.097 90.4629C149.097 90.4629 149.803 89.6043 149.706 88.7189L148.763 87.9193C148.78 87.6939 148.774 87.4685 148.753 87.2431L149.717 86.4114C149.717 86.4114 149.636 85.3059 148.952 84.7263L147.713 84.7907C147.584 84.6351 147.438 84.4902 147.288 84.3561L147.379 83.0359C147.379 83.0359 146.533 82.3115 145.639 82.3866L144.842 83.2721C144.535 83.2399 144.228 83.2345 143.926 83.2613L143.027 82.2793C143.027 82.2793 141.917 82.3866 141.357 83.0842L141.454 84.3185C141.271 84.4795 141.093 84.6566 140.937 84.8444L139.628 84.7854C139.628 84.7854 138.922 85.644 139.019 86.5348L139.935 87.3129C139.913 87.5758 139.918 87.8388 139.945 88.0964L139.03 88.8906C139.03 88.8906 139.11 89.996 139.795 90.5756L140.974 90.5112C141.147 90.7151 141.341 90.903 141.551 91.0747L141.459 92.3358C141.459 92.3358 142.305 93.0602 143.199 92.9851L144.034 92.0567C144.309 92.0782 144.583 92.0674 144.853 92.0406L145.698 92.9636C145.698 92.9636 146.808 92.8563 147.368 92.1587L147.277 90.9673C147.471 90.7956 147.654 90.6078 147.815 90.3985L149.097 90.4575V90.4629Z" fill="black" fill-opacity="0.6"/>
<path d="M143.29 90.0763C141.933 89.5075 141.297 87.9459 141.868 86.5882C142.445 85.2359 144.007 84.5973 145.37 85.1715C146.727 85.7403 147.363 87.3019 146.792 88.6596C146.215 90.0119 144.648 90.6451 143.29 90.0763Z" fill="#E6E7E8"/>
<path d="M143.29 90.0763C141.933 89.5075 141.297 87.9459 141.868 86.5882C142.445 85.2359 144.007 84.5973 145.37 85.1715C146.727 85.7403 147.363 87.3019 146.792 88.6596C146.215 90.0119 144.648 90.6451 143.29 90.0763Z" fill="black" fill-opacity="0.6"/>
<path d="M144.923 87.8763C144.783 88.2037 144.406 88.3539 144.077 88.2198C143.748 88.0803 143.598 87.7046 143.732 87.3773C143.872 87.0499 144.249 86.8997 144.578 87.0338C144.907 87.1734 145.057 87.549 144.917 87.8763H144.923Z" fill="#939598"/>
<path d="M144.923 87.8763C144.783 88.2037 144.406 88.3539 144.077 88.2198C143.748 88.0803 143.598 87.7046 143.732 87.3773C143.872 87.0499 144.249 86.8997 144.578 87.0338C144.907 87.1734 145.057 87.549 144.917 87.8763H144.923Z" fill="black" fill-opacity="0.6"/>
<path d="M173.973 89.3577C173.973 89.3577 175.04 88.1128 174.921 86.798L173.553 85.5906C173.58 85.2579 173.58 84.9252 173.553 84.5978L174.997 83.3904C174.997 83.3904 174.905 81.7537 173.909 80.8843L172.077 80.9487C171.889 80.718 171.678 80.5033 171.458 80.2994L171.63 78.3568C171.63 78.3568 170.402 77.2674 169.082 77.3479L167.881 78.6359C167.428 78.5768 166.976 78.5661 166.534 78.5983L165.231 77.1226C165.231 77.1226 163.593 77.2513 162.742 78.2656L162.85 80.0901C162.57 80.3209 162.311 80.5785 162.069 80.8521L160.14 80.7287C160.14 80.7287 159.074 81.9737 159.192 83.2884L160.523 84.4637C160.485 84.85 160.479 85.2364 160.512 85.6228L159.138 86.7712C159.138 86.7712 159.23 88.4079 160.226 89.2772L161.966 89.2129C162.219 89.5187 162.494 89.8031 162.801 90.0607L162.634 91.9175C162.634 91.9175 163.862 93.0068 165.182 92.9263L166.443 91.5794C166.847 91.617 167.256 91.6116 167.655 91.5794L168.877 92.9693C168.877 92.9693 170.515 92.8405 171.366 91.8262L171.258 90.0661C171.549 89.8192 171.824 89.5402 172.072 89.2397L173.962 89.3631L173.973 89.3577Z" fill="#454A4C"/>
<path d="M173.973 89.3577C173.973 89.3577 175.04 88.1128 174.921 86.798L173.553 85.5906C173.58 85.2579 173.58 84.9252 173.553 84.5978L174.997 83.3904C174.997 83.3904 174.905 81.7537 173.909 80.8843L172.077 80.9487C171.889 80.718 171.678 80.5033 171.458 80.2994L171.63 78.3568C171.63 78.3568 170.402 77.2674 169.082 77.3479L167.881 78.6359C167.428 78.5768 166.976 78.5661 166.534 78.5983L165.231 77.1226C165.231 77.1226 163.593 77.2513 162.742 78.2656L162.85 80.0901C162.57 80.3209 162.311 80.5785 162.069 80.8521L160.14 80.7287C160.14 80.7287 159.074 81.9737 159.192 83.2884L160.523 84.4637C160.485 84.85 160.479 85.2364 160.512 85.6228L159.138 86.7712C159.138 86.7712 159.23 88.4079 160.226 89.2772L161.966 89.2129C162.219 89.5187 162.494 89.8031 162.801 90.0607L162.634 91.9175C162.634 91.9175 163.862 93.0068 165.182 92.9263L166.443 91.5794C166.847 91.617 167.256 91.6116 167.655 91.5794L168.877 92.9693C168.877 92.9693 170.515 92.8405 171.366 91.8262L171.258 90.0661C171.549 89.8192 171.824 89.5402 172.072 89.2397L173.962 89.3631L173.973 89.3577Z" fill="black" fill-opacity="0.6"/>
<path d="M165.414 88.6279C163.426 87.7478 162.527 85.4242 163.41 83.444C164.293 81.4639 166.626 80.5677 168.614 81.4478C170.601 82.3279 171.501 84.6515 170.617 86.6316C169.734 88.6118 167.402 89.508 165.414 88.6279Z" fill="#E6E7E8"/>
<path d="M165.414 88.6279C163.426 87.7478 162.527 85.4242 163.41 83.444C164.293 81.4639 166.626 80.5677 168.614 81.4478C170.601 82.3279 171.501 84.6515 170.617 86.6316C169.734 88.6118 167.402 89.508 165.414 88.6279Z" fill="black" fill-opacity="0.6"/>
<path d="M167.886 85.4242C167.671 85.9018 167.111 86.1165 166.631 85.9072C166.152 85.6979 165.936 85.1344 166.146 84.6568C166.362 84.1792 166.922 83.9646 167.401 84.1738C167.881 84.3885 168.096 84.9466 167.886 85.4242Z" fill="#939598"/>
<path d="M167.886 85.4242C167.671 85.9018 167.111 86.1165 166.631 85.9072C166.152 85.6979 165.936 85.1344 166.146 84.6568C166.362 84.1792 166.922 83.9646 167.401 84.1738C167.881 84.3885 168.096 84.9466 167.886 85.4242Z" fill="black" fill-opacity="0.6"/>
<path d="M175.837 92.9211C175.805 92.1054 175.142 91.4561 174.323 91.4561C173.585 91.4561 173.009 91.982 172.853 92.6635C172.707 91.982 172.125 91.4561 171.393 91.4561C170.59 91.4561 169.955 92.0732 169.89 92.8567C169.825 92.0785 169.184 91.4561 168.387 91.4561C167.633 91.4561 167.035 92.0142 166.906 92.7332C166.782 92.0142 166.184 91.4561 165.424 91.4561C164.665 91.4561 164.105 91.982 163.959 92.6635C163.814 91.982 163.227 91.4561 162.489 91.4561C161.751 91.4561 161.136 92.0142 161.013 92.7332C160.889 92.0142 160.291 91.4561 159.537 91.4561C158.712 91.4561 158.05 92.1054 158.018 92.9211H175.842H175.837Z" fill="#7B9E23"/>
<path d="M175.837 92.9211C175.805 92.1054 175.142 91.4561 174.323 91.4561C173.585 91.4561 173.009 91.982 172.853 92.6635C172.707 91.982 172.125 91.4561 171.393 91.4561C170.59 91.4561 169.955 92.0732 169.89 92.8567C169.825 92.0785 169.184 91.4561 168.387 91.4561C167.633 91.4561 167.035 92.0142 166.906 92.7332C166.782 92.0142 166.184 91.4561 165.424 91.4561C164.665 91.4561 164.105 91.982 163.959 92.6635C163.814 91.982 163.227 91.4561 162.489 91.4561C161.751 91.4561 161.136 92.0142 161.013 92.7332C160.889 92.0142 160.291 91.4561 159.537 91.4561C158.712 91.4561 158.05 92.1054 158.018 92.9211H175.842H175.837Z" fill="black" fill-opacity="0.6"/>
<path d="M149.389 92.8996C149.314 92.1269 148.683 91.5151 147.886 91.5151C147.132 91.5151 146.534 92.0732 146.405 92.7923C146.281 92.0732 145.683 91.5151 144.923 91.5151C144.164 91.5151 143.604 92.041 143.458 92.7226C143.313 92.041 142.726 91.5151 141.988 91.5151C141.25 91.5151 140.636 92.0732 140.512 92.7923C140.388 92.0732 139.79 91.5151 139.036 91.5151C138.211 91.5151 137.549 92.1645 137.517 92.9801H149.384V92.8996H149.389Z" fill="#7B9E23"/>
<path d="M149.389 92.8996C149.314 92.1269 148.683 91.5151 147.886 91.5151C147.132 91.5151 146.534 92.0732 146.405 92.7923C146.281 92.0732 145.683 91.5151 144.923 91.5151C144.164 91.5151 143.604 92.041 143.458 92.7226C143.313 92.041 142.726 91.5151 141.988 91.5151C141.25 91.5151 140.636 92.0732 140.512 92.7923C140.388 92.0732 139.79 91.5151 139.036 91.5151C138.211 91.5151 137.549 92.1645 137.517 92.9801H149.384V92.8996H149.389Z" fill="black" fill-opacity="0.6"/>
<path d="M186.816 84.2383C186.816 85.7677 184.839 87.0073 182.393 87.0073C179.948 87.0073 177.971 85.7677 177.971 84.2383C177.971 82.7089 179.948 81.4692 182.393 81.4692C184.839 81.4692 186.816 82.7089 186.816 84.2383Z" fill="#FFB12D"/>
<path d="M182.361 81.4746C179.937 81.4853 177.971 82.7196 177.971 84.2436C177.971 85.7677 179.931 86.9965 182.361 87.0126V81.48V81.4746Z" fill="#E0901B"/>
<path d="M186.977 83.7876H178.008V91.4239H186.977V83.7876Z" fill="#917043"/>
<path d="M182.366 83.7876H178.008V91.4239H182.366V83.7876Z" fill="#7F5F38"/>
<path d="M187.408 91.8851C187.408 92.2715 187.096 92.5827 186.708 92.5827H178.078C177.69 92.5827 177.378 92.2715 177.378 91.8851C177.378 91.4987 177.69 91.1875 178.078 91.1875H186.708C187.096 91.1875 187.408 91.4987 187.408 91.8851Z" fill="#917043"/>
<path d="M187.408 84.1039C187.408 84.4902 187.096 84.8015 186.708 84.8015H178.078C177.69 84.8015 177.378 84.4902 177.378 84.1039C177.378 83.7175 177.69 83.4062 178.078 83.4062H186.708C187.096 83.4062 187.408 83.7175 187.408 84.1039Z" fill="#A88359"/>
<path d="M182.361 83.4062H178.078C177.69 83.4062 177.378 83.7175 177.378 84.1039C177.378 84.4902 177.69 84.8015 178.078 84.8015H182.361V83.4062Z" fill="#917043"/>
<path d="M182.361 91.1875H178.078C177.69 91.1875 177.378 91.4987 177.378 91.8851C177.378 92.2715 177.69 92.5827 178.078 92.5827H182.361V91.1875Z" fill="#7F5F38"/>
<path d="M183.541 82.226C183.541 82.3011 183.427 82.3601 183.287 82.3601C183.147 82.3601 183.034 82.3011 183.034 82.226C183.034 82.1508 183.147 82.0918 183.287 82.0918C183.427 82.0918 183.541 82.1508 183.541 82.226Z" fill="#FFCD2E"/>
<path d="M183.971 82.9559C183.971 83.0311 183.858 83.0901 183.718 83.0901C183.578 83.0901 183.465 83.0311 183.465 82.9559C183.465 82.8808 183.578 82.8218 183.718 82.8218C183.858 82.8218 183.971 82.8808 183.971 82.9559Z" fill="#FFCD2E"/>
<path d="M181.644 82.2797C181.644 82.3548 181.531 82.4138 181.391 82.4138C181.251 82.4138 181.138 82.3548 181.138 82.2797C181.138 82.2045 181.251 82.1455 181.391 82.1455C181.531 82.1455 181.644 82.2045 181.644 82.2797Z" fill="#FFB12D"/>
<path d="M179.963 82.8485C179.963 82.9236 179.85 82.9827 179.71 82.9827C179.57 82.9827 179.457 82.9236 179.457 82.8485C179.457 82.7734 179.57 82.7144 179.71 82.7144C179.85 82.7144 179.963 82.7734 179.963 82.8485Z" fill="#FFB12D"/>
<path d="M185.63 83.1058C185.63 83.181 185.517 83.24 185.377 83.24C185.237 83.24 185.124 83.181 185.124 83.1058C185.124 83.0307 185.237 82.9717 185.377 82.9717C185.517 82.9717 185.63 83.0307 185.63 83.1058Z" fill="#FFCD2E"/>
<path d="M186.816 84.2383C186.816 85.7677 184.839 87.0073 182.393 87.0073C179.948 87.0073 177.971 85.7677 177.971 84.2383C177.971 82.7089 179.948 81.4692 182.393 81.4692C184.839 81.4692 186.816 82.7089 186.816 84.2383Z" fill="#FFB12D"/>
<path d="M186.816 84.2383C186.816 85.7677 184.839 87.0073 182.393 87.0073C179.948 87.0073 177.971 85.7677 177.971 84.2383C177.971 82.7089 179.948 81.4692 182.393 81.4692C184.839 81.4692 186.816 82.7089 186.816 84.2383Z" fill="black" fill-opacity="0.6"/>
<path d="M182.361 81.4746C179.937 81.4853 177.971 82.7196 177.971 84.2436C177.971 85.7677 179.931 86.9965 182.361 87.0126V81.48V81.4746Z" fill="#E0901B"/>
<path d="M182.361 81.4746C179.937 81.4853 177.971 82.7196 177.971 84.2436C177.971 85.7677 179.931 86.9965 182.361 87.0126V81.48V81.4746Z" fill="black" fill-opacity="0.6"/>
<path d="M186.977 83.7876H178.008V91.4239H186.977V83.7876Z" fill="#917043"/>
<path d="M186.977 83.7876H178.008V91.4239H186.977V83.7876Z" fill="black" fill-opacity="0.6"/>
<path d="M182.366 83.7876H178.008V91.4239H182.366V83.7876Z" fill="#7F5F38"/>
<path d="M182.366 83.7876H178.008V91.4239H182.366V83.7876Z" fill="black" fill-opacity="0.6"/>
<path d="M187.408 91.8851C187.408 92.2715 187.096 92.5827 186.708 92.5827H178.078C177.69 92.5827 177.378 92.2715 177.378 91.8851C177.378 91.4987 177.69 91.1875 178.078 91.1875H186.708C187.096 91.1875 187.408 91.4987 187.408 91.8851Z" fill="#917043"/>
<path d="M187.408 91.8851C187.408 92.2715 187.096 92.5827 186.708 92.5827H178.078C177.69 92.5827 177.378 92.2715 177.378 91.8851C177.378 91.4987 177.69 91.1875 178.078 91.1875H186.708C187.096 91.1875 187.408 91.4987 187.408 91.8851Z" fill="black" fill-opacity="0.6"/>
<path d="M187.408 84.1039C187.408 84.4902 187.096 84.8015 186.708 84.8015H178.078C177.69 84.8015 177.378 84.4902 177.378 84.1039C177.378 83.7175 177.69 83.4062 178.078 83.4062H186.708C187.096 83.4062 187.408 83.7175 187.408 84.1039Z" fill="#A88359"/>
<path d="M187.408 84.1039C187.408 84.4902 187.096 84.8015 186.708 84.8015H178.078C177.69 84.8015 177.378 84.4902 177.378 84.1039C177.378 83.7175 177.69 83.4062 178.078 83.4062H186.708C187.096 83.4062 187.408 83.7175 187.408 84.1039Z" fill="black" fill-opacity="0.6"/>
<path d="M182.361 83.4062H178.078C177.69 83.4062 177.378 83.7175 177.378 84.1039C177.378 84.4902 177.69 84.8015 178.078 84.8015H182.361V83.4062Z" fill="#917043"/>
<path d="M182.361 83.4062H178.078C177.69 83.4062 177.378 83.7175 177.378 84.1039C177.378 84.4902 177.69 84.8015 178.078 84.8015H182.361V83.4062Z" fill="black" fill-opacity="0.6"/>
<path d="M182.361 91.1875H178.078C177.69 91.1875 177.378 91.4987 177.378 91.8851C177.378 92.2715 177.69 92.5827 178.078 92.5827H182.361V91.1875Z" fill="#7F5F38"/>
<path d="M182.361 91.1875H178.078C177.69 91.1875 177.378 91.4987 177.378 91.8851C177.378 92.2715 177.69 92.5827 178.078 92.5827H182.361V91.1875Z" fill="black" fill-opacity="0.6"/>
<path d="M183.541 82.226C183.541 82.3011 183.427 82.3601 183.287 82.3601C183.147 82.3601 183.034 82.3011 183.034 82.226C183.034 82.1508 183.147 82.0918 183.287 82.0918C183.427 82.0918 183.541 82.1508 183.541 82.226Z" fill="#FFCD2E"/>
<path d="M183.541 82.226C183.541 82.3011 183.427 82.3601 183.287 82.3601C183.147 82.3601 183.034 82.3011 183.034 82.226C183.034 82.1508 183.147 82.0918 183.287 82.0918C183.427 82.0918 183.541 82.1508 183.541 82.226Z" fill="black" fill-opacity="0.6"/>
<path d="M183.971 82.9559C183.971 83.0311 183.858 83.0901 183.718 83.0901C183.578 83.0901 183.465 83.0311 183.465 82.9559C183.465 82.8808 183.578 82.8218 183.718 82.8218C183.858 82.8218 183.971 82.8808 183.971 82.9559Z" fill="#FFCD2E"/>
<path d="M183.971 82.9559C183.971 83.0311 183.858 83.0901 183.718 83.0901C183.578 83.0901 183.465 83.0311 183.465 82.9559C183.465 82.8808 183.578 82.8218 183.718 82.8218C183.858 82.8218 183.971 82.8808 183.971 82.9559Z" fill="black" fill-opacity="0.6"/>
<path d="M181.644 82.2797C181.644 82.3548 181.531 82.4138 181.391 82.4138C181.251 82.4138 181.138 82.3548 181.138 82.2797C181.138 82.2045 181.251 82.1455 181.391 82.1455C181.531 82.1455 181.644 82.2045 181.644 82.2797Z" fill="#FFB12D"/>
<path d="M181.644 82.2797C181.644 82.3548 181.531 82.4138 181.391 82.4138C181.251 82.4138 181.138 82.3548 181.138 82.2797C181.138 82.2045 181.251 82.1455 181.391 82.1455C181.531 82.1455 181.644 82.2045 181.644 82.2797Z" fill="black" fill-opacity="0.6"/>
<path d="M179.963 82.8485C179.963 82.9236 179.85 82.9827 179.71 82.9827C179.57 82.9827 179.457 82.9236 179.457 82.8485C179.457 82.7734 179.57 82.7144 179.71 82.7144C179.85 82.7144 179.963 82.7734 179.963 82.8485Z" fill="#FFB12D"/>
<path d="M179.963 82.8485C179.963 82.9236 179.85 82.9827 179.71 82.9827C179.57 82.9827 179.457 82.9236 179.457 82.8485C179.457 82.7734 179.57 82.7144 179.71 82.7144C179.85 82.7144 179.963 82.7734 179.963 82.8485Z" fill="black" fill-opacity="0.6"/>
<path d="M185.63 83.1058C185.63 83.181 185.517 83.24 185.377 83.24C185.237 83.24 185.124 83.181 185.124 83.1058C185.124 83.0307 185.237 82.9717 185.377 82.9717C185.517 82.9717 185.63 83.0307 185.63 83.1058Z" fill="#FFCD2E"/>
<path d="M185.63 83.1058C185.63 83.181 185.517 83.24 185.377 83.24C185.237 83.24 185.124 83.181 185.124 83.1058C185.124 83.0307 185.237 82.9717 185.377 82.9717C185.517 82.9717 185.63 83.0307 185.63 83.1058Z" fill="black" fill-opacity="0.6"/>
<path d="M197.713 88.7031C197.713 90.2325 195.731 91.4721 193.291 91.4721C190.85 91.4721 188.874 90.2325 188.874 88.7031C188.874 87.1737 190.85 85.9341 193.291 85.9341C195.731 85.9341 197.713 87.1737 197.713 88.7031Z" fill="#FFB12D"/>
<path d="M197.713 88.7031C197.713 90.2325 195.731 91.4721 193.291 91.4721C190.85 91.4721 188.874 90.2325 188.874 88.7031C188.874 87.1737 190.85 85.9341 193.291 85.9341C195.731 85.9341 197.713 87.1737 197.713 88.7031Z" fill="black" fill-opacity="0.6"/>
<path d="M193.258 85.9395C190.834 85.9502 188.868 87.1844 188.868 88.7085C188.868 90.2325 190.828 91.4614 193.258 91.4721V85.9395Z" fill="#E0901B"/>
<path d="M193.258 85.9395C190.834 85.9502 188.868 87.1844 188.868 88.7085C188.868 90.2325 190.828 91.4614 193.258 91.4721V85.9395Z" fill="black" fill-opacity="0.6"/>
<path d="M197.875 88.3545H188.906V91.4294H197.875V88.3545Z" fill="#917043"/>
<path d="M197.875 88.3545H188.906V91.4294H197.875V88.3545Z" fill="black" fill-opacity="0.6"/>
<path d="M193.264 88.3545H188.906V91.4294H193.264V88.3545Z" fill="#7F5F38"/>
<path d="M193.264 88.3545H188.906V91.4294H193.264V88.3545Z" fill="black" fill-opacity="0.6"/>
<path d="M198.305 91.8851C198.305 92.2715 197.993 92.5827 197.605 92.5827H188.976C188.588 92.5827 188.275 92.2715 188.275 91.8851C188.275 91.4987 188.588 91.1875 188.976 91.1875H197.605C197.993 91.1875 198.305 91.4987 198.305 91.8851Z" fill="#917043"/>
<path d="M198.305 91.8851C198.305 92.2715 197.993 92.5827 197.605 92.5827H188.976C188.588 92.5827 188.275 92.2715 188.275 91.8851C188.275 91.4987 188.588 91.1875 188.976 91.1875H197.605C197.993 91.1875 198.305 91.4987 198.305 91.8851Z" fill="black" fill-opacity="0.6"/>
<path d="M198.305 88.3544C198.305 88.7407 197.993 89.052 197.605 89.052H188.976C188.588 89.052 188.275 88.7407 188.275 88.3544C188.275 87.968 188.588 87.6567 188.976 87.6567H197.605C197.993 87.6567 198.305 87.968 198.305 88.3544Z" fill="#A88359"/>
<path d="M198.305 88.3544C198.305 88.7407 197.993 89.052 197.605 89.052H188.976C188.588 89.052 188.275 88.7407 188.275 88.3544C188.275 87.968 188.588 87.6567 188.976 87.6567H197.605C197.993 87.6567 198.305 87.968 198.305 88.3544Z" fill="black" fill-opacity="0.6"/>
<path d="M193.258 87.6567H188.976C188.588 87.6567 188.275 87.968 188.275 88.3544C188.275 88.7407 188.588 89.052 188.976 89.052H193.258V87.6567Z" fill="#917043"/>
<path d="M193.258 87.6567H188.976C188.588 87.6567 188.275 87.968 188.275 88.3544C188.275 88.7407 188.588 89.052 188.976 89.052H193.258V87.6567Z" fill="black" fill-opacity="0.6"/>
<path d="M193.258 91.1875H188.976C188.588 91.1875 188.275 91.4987 188.275 91.8851C188.275 92.2715 188.588 92.5827 188.976 92.5827H193.258V91.1875Z" fill="#7F5F38"/>
<path d="M193.258 91.1875H188.976C188.588 91.1875 188.275 91.4987 188.275 91.8851C188.275 92.2715 188.588 92.5827 188.976 92.5827H193.258V91.1875Z" fill="black" fill-opacity="0.6"/>
<path d="M194.438 86.6908C194.438 86.7659 194.325 86.825 194.185 86.825C194.045 86.825 193.932 86.7659 193.932 86.6908C193.932 86.6157 194.045 86.5566 194.185 86.5566C194.325 86.5566 194.438 86.6157 194.438 86.6908Z" fill="#FFCD2E"/>
<path d="M194.438 86.6908C194.438 86.7659 194.325 86.825 194.185 86.825C194.045 86.825 193.932 86.7659 193.932 86.6908C193.932 86.6157 194.045 86.5566 194.185 86.5566C194.325 86.5566 194.438 86.6157 194.438 86.6908Z" fill="black" fill-opacity="0.6"/>
<path d="M195.494 87.4633C195.494 87.5384 195.381 87.5974 195.24 87.5974C195.1 87.5974 194.987 87.5384 194.987 87.4633C194.987 87.3881 195.1 87.3291 195.24 87.3291C195.381 87.3291 195.494 87.3881 195.494 87.4633Z" fill="#FFCD2E"/>
<path d="M195.494 87.4633C195.494 87.5384 195.381 87.5974 195.24 87.5974C195.1 87.5974 194.987 87.5384 194.987 87.4633C194.987 87.3881 195.1 87.3291 195.24 87.3291C195.381 87.3291 195.494 87.3881 195.494 87.4633Z" fill="black" fill-opacity="0.6"/>
<path d="M192.542 86.7499C192.542 86.825 192.428 86.884 192.288 86.884C192.148 86.884 192.035 86.825 192.035 86.7499C192.035 86.6748 192.148 86.6157 192.288 86.6157C192.428 86.6157 192.542 86.6748 192.542 86.7499Z" fill="#FFB12D"/>
<path d="M192.542 86.7499C192.542 86.825 192.428 86.884 192.288 86.884C192.148 86.884 192.035 86.825 192.035 86.7499C192.035 86.6748 192.148 86.6157 192.288 86.6157C192.428 86.6157 192.542 86.6748 192.542 86.7499Z" fill="black" fill-opacity="0.6"/>
<path d="M190.861 87.3187C190.861 87.3939 190.748 87.4529 190.608 87.4529C190.468 87.4529 190.354 87.3939 190.354 87.3187C190.354 87.2436 190.468 87.1846 190.608 87.1846C190.748 87.1846 190.861 87.2436 190.861 87.3187Z" fill="#FFB12D"/>
<path d="M190.861 87.3187C190.861 87.3939 190.748 87.4529 190.608 87.4529C190.468 87.4529 190.354 87.3939 190.354 87.3187C190.354 87.2436 190.468 87.1846 190.608 87.1846C190.748 87.1846 190.861 87.2436 190.861 87.3187Z" fill="black" fill-opacity="0.6"/>
<path d="M76.8128 78.0669H73.8447V81.7213H76.8128V78.0669Z" fill="#603913"/>
<path d="M76.8128 78.0669H73.8447V81.7213H76.8128V78.0669Z" fill="black" fill-opacity="0.6"/>
<path d="M108.643 78.0669H105.675V81.7213H108.643V78.0669Z" fill="#603913"/>
<path d="M77.0608 81.947H73.6025V77.8579H77.0608V81.947ZM74.055 81.4909H76.6029V78.3087H74.055V81.4909Z" fill="#F8D7A2"/>
<path d="M77.0608 81.947H73.6025V77.8579H77.0608V81.947ZM74.055 81.4909H76.6029V78.3087H74.055V81.4909Z" fill="black" fill-opacity="0.6"/>
<path d="M108.929 81.947H105.471V77.8579H108.929V81.947ZM105.923 81.4909H108.471V78.3087H105.923V81.4909Z" fill="#F8D7A2"/>
<path d="M108.929 81.947H105.471V77.8579H108.929V81.947ZM105.923 81.4909H108.471V78.3087H105.923V81.4909Z" fill="black" fill-opacity="0.6"/>
<path d="M158.401 58.1743C158.401 59.3978 157.404 60.3906 156.176 60.3906H153.208C151.98 60.3906 150.983 59.3978 150.983 58.1743C150.983 56.9508 151.98 55.958 153.208 55.958H156.176C157.404 55.958 158.401 56.9508 158.401 58.1743Z" fill="white"/>
<path d="M158.401 58.1743C158.401 59.3978 157.404 60.3906 156.176 60.3906H153.208C151.98 60.3906 150.983 59.3978 150.983 58.1743C150.983 56.9508 151.98 55.958 153.208 55.958H156.176C157.404 55.958 158.401 56.9508 158.401 58.1743Z" fill="black" fill-opacity="0.6"/>
<path d="M152.469 64.8822C152.469 65.8535 151.677 66.6424 150.702 66.6424H149.334C148.359 66.6424 147.567 65.8535 147.567 64.8822C147.567 63.9109 148.359 63.1221 149.334 63.1221H150.702C151.677 63.1221 152.469 63.9109 152.469 64.8822Z" fill="white"/>
<path d="M152.469 64.8822C152.469 65.8535 151.677 66.6424 150.702 66.6424H149.334C148.359 66.6424 147.567 65.8535 147.567 64.8822C147.567 63.9109 148.359 63.1221 149.334 63.1221H150.702C151.677 63.1221 152.469 63.9109 152.469 64.8822Z" fill="black" fill-opacity="0.6"/>
</svg>
