<svg width="258" height="165" viewBox="0 0 258 165" fill="none" xmlns="http://www.w3.org/2000/svg">
<g clip-path="url(#clip0_4685_274296)">
<path d="M22.7036 101.993V69C22.7036 69 22.6433 69 22.6131 69C18.5428 69 15.2563 72.3622 15.2563 76.4921C15.2563 78.6568 21.3619 100.903 21.3619 100.903C21.3619 100.903 15.5277 82.6945 14.3367 81.0211C12.0453 77.8278 7.64327 77.1215 4.5076 79.4551C1.37192 81.7887 0.678451 86.2717 2.96991 89.4651C4.16086 91.1385 19.4624 102.392 19.4624 102.392C20.4724 102.116 21.5126 101.962 22.6131 101.962C22.6433 101.962 22.6734 101.962 22.7036 101.962V101.993Z" fill="#26973B"/>
<path d="M22.7036 101.993V69C22.7036 69 22.6433 69 22.6131 69C18.5428 69 15.2563 72.3622 15.2563 76.4921C15.2563 78.6568 21.3619 100.903 21.3619 100.903C21.3619 100.903 15.5277 82.6945 14.3367 81.0211C12.0453 77.8278 7.64327 77.1215 4.5076 79.4551C1.37192 81.7887 0.678451 86.2717 2.96991 89.4651C4.16086 91.1385 19.4624 102.392 19.4624 102.392C20.4724 102.116 21.5126 101.962 22.6131 101.962C22.6433 101.962 22.6734 101.962 22.7036 101.962V101.993Z" fill="black" fill-opacity="0.6"/>
<path d="M22.6131 101.978C21.5277 101.978 20.4724 102.131 19.4623 102.407C14.1407 103.82 10.2061 108.748 10.2061 114.597H22.7035V101.978C22.7035 101.978 22.6432 101.978 22.6131 101.978Z" fill="#FF6F00"/>
<path d="M25.9142 102.453C25.9142 102.453 41.2458 91.1538 42.4368 89.4958C44.7282 86.3024 44.0499 81.8194 40.8991 79.4858C37.7634 77.1522 33.3614 77.8431 31.07 81.0518C29.879 82.7253 23.8489 101.21 23.8489 101.21C23.8489 101.21 29.9544 78.6875 29.9544 76.5228C29.9695 72.3929 26.7283 69.0614 22.7031 69V101.977C23.8187 101.977 24.8891 102.146 25.9142 102.438V102.453Z" fill="#0E8359"/>
<path d="M25.9142 102.453C25.9142 102.453 41.2458 91.1538 42.4368 89.4958C44.7282 86.3024 44.0499 81.8194 40.8991 79.4858C37.7634 77.1522 33.3614 77.8431 31.07 81.0518C29.879 82.7253 23.8489 101.21 23.8489 101.21C23.8489 101.21 29.9544 78.6875 29.9544 76.5228C29.9695 72.3929 26.7283 69.0614 22.7031 69V101.977C23.8187 101.977 24.8891 102.146 25.9142 102.438V102.453Z" fill="black" fill-opacity="0.6"/>
<path d="M25.9142 102.454C24.8891 102.162 23.8187 101.993 22.7031 101.993V114.613H35.0046C35.0046 108.81 31.1604 103.928 25.9142 102.454Z" fill="#E83600"/>
<path d="M22.6131 101.978C21.5277 101.978 20.4724 102.131 19.4623 102.407C14.1407 103.82 10.2061 108.748 10.2061 114.597H22.7035V101.978C22.7035 101.978 22.6432 101.978 22.6131 101.978Z" fill="#B091FF"/>
<path d="M22.6131 101.978C21.5277 101.978 20.4724 102.131 19.4623 102.407C14.1407 103.82 10.2061 108.748 10.2061 114.597H22.7035V101.978C22.7035 101.978 22.6432 101.978 22.6131 101.978Z" fill="black" fill-opacity="0.6"/>
<path d="M25.9142 102.454C24.8891 102.162 23.8187 101.993 22.7031 101.993V114.613H35.0046C35.0046 108.81 31.1604 103.928 25.9142 102.454Z" fill="#7640FF"/>
<path d="M25.9142 102.454C24.8891 102.162 23.8187 101.993 22.7031 101.993V114.613H35.0046C35.0046 108.81 31.1604 103.928 25.9142 102.454Z" fill="black" fill-opacity="0.6"/>
<path d="M57.7994 101.993V69C57.7994 69 57.7391 69 57.7089 69C53.6385 69 50.337 72.3622 50.337 76.4921C50.337 78.6568 56.4426 100.903 56.4426 100.903C56.4426 100.903 50.6235 82.6945 49.4174 81.0211C47.126 77.8278 42.724 77.1215 39.5883 79.4551C36.4526 81.7887 35.7592 86.2717 38.0657 89.4651C39.2566 91.1385 54.5581 102.392 54.5581 102.392C55.5682 102.116 56.6084 101.962 57.7089 101.962C57.7391 101.962 57.7692 101.962 57.7994 101.962V101.993Z" fill="#26973B"/>
<path d="M57.7994 101.993V69C57.7994 69 57.7391 69 57.7089 69C53.6385 69 50.337 72.3622 50.337 76.4921C50.337 78.6568 56.4426 100.903 56.4426 100.903C56.4426 100.903 50.6235 82.6945 49.4174 81.0211C47.126 77.8278 42.724 77.1215 39.5883 79.4551C36.4526 81.7887 35.7592 86.2717 38.0657 89.4651C39.2566 91.1385 54.5581 102.392 54.5581 102.392C55.5682 102.116 56.6084 101.962 57.7089 101.962C57.7391 101.962 57.7692 101.962 57.7994 101.962V101.993Z" fill="black" fill-opacity="0.6"/>
<path d="M57.7088 101.978C56.6234 101.978 55.5681 102.131 54.558 102.407C49.2364 103.82 45.3018 108.748 45.3018 114.597H57.7992V101.978C57.7992 101.978 57.7389 101.978 57.7088 101.978Z" fill="#FF6F00"/>
<path d="M61.01 102.453C61.01 102.453 76.3417 91.1538 77.5326 89.4958C79.8241 86.3024 79.1457 81.8194 75.9949 79.4858C72.8593 77.1522 68.4572 77.8431 66.1658 81.0518C64.9748 82.7253 58.9447 101.21 58.9447 101.21C58.9447 101.21 65.0502 78.6875 65.0502 76.5228C65.0653 72.3929 61.8241 69.0614 57.799 69V101.977C58.9145 101.977 59.9849 102.146 61.01 102.438V102.453Z" fill="#0E8359"/>
<path d="M61.01 102.453C61.01 102.453 76.3417 91.1538 77.5326 89.4958C79.8241 86.3024 79.1457 81.8194 75.9949 79.4858C72.8593 77.1522 68.4572 77.8431 66.1658 81.0518C64.9748 82.7253 58.9447 101.21 58.9447 101.21C58.9447 101.21 65.0502 78.6875 65.0502 76.5228C65.0653 72.3929 61.8241 69.0614 57.799 69V101.977C58.9145 101.977 59.9849 102.146 61.01 102.438V102.453Z" fill="black" fill-opacity="0.6"/>
<path d="M61.01 102.454C59.9849 102.162 58.9145 101.993 57.799 101.993V114.613H70.1005C70.1005 108.81 66.2562 103.928 61.01 102.454Z" fill="#E83600"/>
<path d="M57.7088 101.978C56.6234 101.978 55.5681 102.131 54.558 102.407C49.2364 103.82 45.3018 108.748 45.3018 114.597H57.7992V101.978C57.7992 101.978 57.7389 101.978 57.7088 101.978Z" fill="#B091FF"/>
<path d="M57.7088 101.978C56.6234 101.978 55.5681 102.131 54.558 102.407C49.2364 103.82 45.3018 108.748 45.3018 114.597H57.7992V101.978C57.7992 101.978 57.7389 101.978 57.7088 101.978Z" fill="black" fill-opacity="0.6"/>
<path d="M61.01 102.454C59.9849 102.162 58.9145 101.993 57.799 101.993V114.613H70.1005C70.1005 108.81 66.2562 103.928 61.01 102.454Z" fill="#7640FF"/>
<path d="M61.01 102.454C59.9849 102.162 58.9145 101.993 57.799 101.993V114.613H70.1005C70.1005 108.81 66.2562 103.928 61.01 102.454Z" fill="black" fill-opacity="0.6"/>
<path d="M92.9091 101.993V69C92.9091 69 92.8488 69 92.8036 69C88.7332 69 85.4468 72.3622 85.4468 76.4921C85.4468 78.6568 91.5523 100.903 91.5523 100.903C91.5523 100.903 85.7181 82.6945 84.5272 81.0211C82.2357 77.8278 77.8337 77.1215 74.698 79.4551C71.5623 81.7887 70.8689 86.2717 73.1603 89.4651C74.3513 91.1385 89.6528 102.392 89.6528 102.392C90.6629 102.116 91.7181 101.962 92.8036 101.962C92.8337 101.962 92.8639 101.962 92.9091 101.962V101.993Z" fill="#26973B"/>
<path d="M92.9091 101.993V69C92.9091 69 92.8488 69 92.8036 69C88.7332 69 85.4468 72.3622 85.4468 76.4921C85.4468 78.6568 91.5523 100.903 91.5523 100.903C91.5523 100.903 85.7181 82.6945 84.5272 81.0211C82.2357 77.8278 77.8337 77.1215 74.698 79.4551C71.5623 81.7887 70.8689 86.2717 73.1603 89.4651C74.3513 91.1385 89.6528 102.392 89.6528 102.392C90.6629 102.116 91.7181 101.962 92.8036 101.962C92.8337 101.962 92.8639 101.962 92.9091 101.962V101.993Z" fill="black" fill-opacity="0.6"/>
<path d="M92.8045 101.978C91.7191 101.978 90.6638 102.131 89.6537 102.407C84.3321 103.82 80.3975 108.748 80.3975 114.597H92.8949V101.978C92.8949 101.978 92.8346 101.978 92.7894 101.978H92.8045Z" fill="#FF6F00"/>
<path d="M96.1202 102.453C96.1202 102.453 111.452 91.1538 112.643 89.4958C114.934 86.3024 114.241 81.8194 111.105 79.4858C107.969 77.1522 103.567 77.8431 101.276 81.0518C100.085 82.7253 94.0549 101.21 94.0549 101.21C94.0549 101.21 100.16 78.6875 100.16 76.5228C100.176 72.3929 96.9343 69.0614 92.9092 69V101.977C94.0248 101.977 95.0951 102.146 96.1202 102.438V102.453Z" fill="#0E8359"/>
<path d="M96.1202 102.453C96.1202 102.453 111.452 91.1538 112.643 89.4958C114.934 86.3024 114.241 81.8194 111.105 79.4858C107.969 77.1522 103.567 77.8431 101.276 81.0518C100.085 82.7253 94.0549 101.21 94.0549 101.21C94.0549 101.21 100.16 78.6875 100.16 76.5228C100.176 72.3929 96.9343 69.0614 92.9092 69V101.977C94.0248 101.977 95.0951 102.146 96.1202 102.438V102.453Z" fill="black" fill-opacity="0.6"/>
<path d="M96.1202 102.454C95.0951 102.162 94.0248 101.993 92.9092 101.993V114.613H105.211C105.211 108.81 101.366 103.928 96.1202 102.454Z" fill="#E83600"/>
<path d="M92.8045 101.978C91.7191 101.978 90.6638 102.131 89.6537 102.407C84.3321 103.82 80.3975 108.748 80.3975 114.597H92.8949V101.978C92.8949 101.978 92.8346 101.978 92.7894 101.978H92.8045Z" fill="#B091FF"/>
<path d="M92.8045 101.978C91.7191 101.978 90.6638 102.131 89.6537 102.407C84.3321 103.82 80.3975 108.748 80.3975 114.597H92.8949V101.978C92.8949 101.978 92.8346 101.978 92.7894 101.978H92.8045Z" fill="black" fill-opacity="0.6"/>
<path d="M96.1202 102.454C95.0951 102.162 94.0248 101.993 92.9092 101.993V114.613H105.211C105.211 108.81 101.366 103.928 96.1202 102.454Z" fill="#7640FF"/>
<path d="M96.1202 102.454C95.0951 102.162 94.0248 101.993 92.9092 101.993V114.613H105.211C105.211 108.81 101.366 103.928 96.1202 102.454Z" fill="black" fill-opacity="0.6"/>
<path d="M110.186 111.158H3.46777V165H110.186V111.158Z" fill="#E3AC68"/>
<path d="M110.186 111.158H3.46777V165H110.186V111.158Z" fill="black" fill-opacity="0.6"/>
<path d="M113.94 111.158H0V127.048H113.94V111.158Z" fill="#FDD69E"/>
<path d="M113.94 111.158H0V127.048H113.94V111.158Z" fill="black" fill-opacity="0.6"/>
<path d="M113.94 128.522H0V144.412H113.94V128.522Z" fill="#FDD69E"/>
<path d="M113.94 128.522H0V144.412H113.94V128.522Z" fill="black" fill-opacity="0.6"/>
<path d="M113.94 145.886H0V161.776H113.94V145.886Z" fill="#FDD69E"/>
<path d="M113.94 145.886H0V161.776H113.94V145.886Z" fill="black" fill-opacity="0.6"/>
<path d="M8.66837 119.111C8.66837 120.247 7.76385 121.168 6.64827 121.168C5.5327 121.168 4.62817 120.247 4.62817 119.111C4.62817 117.975 5.5327 117.054 6.64827 117.054C7.76385 117.054 8.66837 117.975 8.66837 119.111Z" fill="#E3AC68"/>
<path d="M8.66837 119.111C8.66837 120.247 7.76385 121.168 6.64827 121.168C5.5327 121.168 4.62817 120.247 4.62817 119.111C4.62817 117.975 5.5327 117.054 6.64827 117.054C7.76385 117.054 8.66837 117.975 8.66837 119.111Z" fill="black" fill-opacity="0.6"/>
<path d="M110.186 119.111C110.186 120.247 109.281 121.168 108.166 121.168C107.05 121.168 106.146 120.247 106.146 119.111C106.146 117.975 107.05 117.054 108.166 117.054C109.281 117.054 110.186 117.975 110.186 119.111Z" fill="#E3AC68"/>
<path d="M110.186 119.111C110.186 120.247 109.281 121.168 108.166 121.168C107.05 121.168 106.146 120.247 106.146 119.111C106.146 117.975 107.05 117.054 108.166 117.054C109.281 117.054 110.186 117.975 110.186 119.111Z" fill="black" fill-opacity="0.6"/>
<path d="M8.66837 136.46C8.66837 137.596 7.76385 138.517 6.64827 138.517C5.5327 138.517 4.62817 137.596 4.62817 136.46C4.62817 135.324 5.5327 134.402 6.64827 134.402C7.76385 134.402 8.66837 135.324 8.66837 136.46Z" fill="#E3AC68"/>
<path d="M8.66837 136.46C8.66837 137.596 7.76385 138.517 6.64827 138.517C5.5327 138.517 4.62817 137.596 4.62817 136.46C4.62817 135.324 5.5327 134.402 6.64827 134.402C7.76385 134.402 8.66837 135.324 8.66837 136.46Z" fill="black" fill-opacity="0.6"/>
<path d="M110.186 136.46C110.186 137.596 109.281 138.517 108.166 138.517C107.05 138.517 106.146 137.596 106.146 136.46C106.146 135.324 107.05 134.402 108.166 134.402C109.281 134.402 110.186 135.324 110.186 136.46Z" fill="#E3AC68"/>
<path d="M110.186 136.46C110.186 137.596 109.281 138.517 108.166 138.517C107.05 138.517 106.146 137.596 106.146 136.46C106.146 135.324 107.05 134.402 108.166 134.402C109.281 134.402 110.186 135.324 110.186 136.46Z" fill="black" fill-opacity="0.6"/>
<path d="M8.66837 153.823C8.66837 154.959 7.76385 155.88 6.64827 155.88C5.5327 155.88 4.62817 154.959 4.62817 153.823C4.62817 152.687 5.5327 151.766 6.64827 151.766C7.76385 151.766 8.66837 152.687 8.66837 153.823Z" fill="#E3AC68"/>
<path d="M8.66837 153.823C8.66837 154.959 7.76385 155.88 6.64827 155.88C5.5327 155.88 4.62817 154.959 4.62817 153.823C4.62817 152.687 5.5327 151.766 6.64827 151.766C7.76385 151.766 8.66837 152.687 8.66837 153.823Z" fill="black" fill-opacity="0.6"/>
<path d="M110.186 153.823C110.186 154.959 109.281 155.88 108.166 155.88C107.05 155.88 106.146 154.959 106.146 153.823C106.146 152.687 107.05 151.766 108.166 151.766C109.281 151.766 110.186 152.687 110.186 153.823Z" fill="#E3AC68"/>
<path d="M110.186 153.823C110.186 154.959 109.281 155.88 108.166 155.88C107.05 155.88 106.146 154.959 106.146 153.823C106.146 152.687 107.05 151.766 108.166 151.766C109.281 151.766 110.186 152.687 110.186 153.823Z" fill="black" fill-opacity="0.6"/>
<path d="M8.66837 108.609H4.62817V111.158H8.66837V108.609Z" fill="#FDD69E"/>
<path d="M8.66837 108.609H4.62817V111.158H8.66837V108.609Z" fill="black" fill-opacity="0.6"/>
<path d="M110.186 108.609H106.146V111.158H110.186V108.609Z" fill="#FDD69E"/>
<path d="M110.186 108.609H106.146V111.158H110.186V108.609Z" fill="black" fill-opacity="0.6"/>
</g>
<g clip-path="url(#clip1_4685_274296)">
<path d="M151.897 99.1787V65C151.897 65 151.829 65 151.791 65C147.53 65 144.067 68.475 144.067 72.7727C144.067 75.0087 145.019 77.0221 146.52 78.445C146.26 79.0935 146.116 79.8001 146.116 80.5454C146.116 82.675 147.28 84.5334 149.001 85.5111C148.944 85.7531 148.895 85.9951 148.895 86.2564C148.895 87.3889 149.54 88.3569 150.483 88.8409V98.0752L147.164 93.5064C147.616 92.6062 147.568 91.4931 146.933 90.6122C146.789 90.409 146.616 90.2444 146.433 90.0992C147.212 88.3666 147.068 86.2758 145.875 84.6302C145.462 84.0591 144.952 83.5945 144.384 83.2364C144.75 81.2908 144.355 79.2 143.105 77.4673C140.7 74.1569 136.083 73.4309 132.794 75.8508C129.504 78.2707 128.783 82.9169 131.188 86.2274C132.438 87.96 134.304 88.9764 136.257 89.2087C136.42 89.8572 136.709 90.4864 137.122 91.0575C138.315 92.703 140.248 93.4774 142.124 93.2548C142.211 93.4774 142.307 93.6903 142.461 93.8839C143.095 94.7551 144.134 95.1326 145.125 94.9777L148.482 99.6046C149.54 99.3239 150.636 99.1593 151.781 99.1593C151.82 99.1593 151.848 99.1593 151.887 99.1593L151.897 99.1787Z" fill="#88CF2B"/>
<path d="M151.897 99.1787V65C151.897 65 151.829 65 151.791 65C147.53 65 144.067 68.475 144.067 72.7727C144.067 75.0087 145.019 77.0221 146.52 78.445C146.26 79.0935 146.116 79.8001 146.116 80.5454C146.116 82.675 147.28 84.5334 149.001 85.5111C148.944 85.7531 148.895 85.9951 148.895 86.2564C148.895 87.3889 149.54 88.3569 150.483 88.8409V98.0752L147.164 93.5064C147.616 92.6062 147.568 91.4931 146.933 90.6122C146.789 90.409 146.616 90.2444 146.433 90.0992C147.212 88.3666 147.068 86.2758 145.875 84.6302C145.462 84.0591 144.952 83.5945 144.384 83.2364C144.75 81.2908 144.355 79.2 143.105 77.4673C140.7 74.1569 136.083 73.4309 132.794 75.8508C129.504 78.2707 128.783 82.9169 131.188 86.2274C132.438 87.96 134.304 88.9764 136.257 89.2087C136.42 89.8572 136.709 90.4864 137.122 91.0575C138.315 92.703 140.248 93.4774 142.124 93.2548C142.211 93.4774 142.307 93.6903 142.461 93.8839C143.095 94.7551 144.134 95.1326 145.125 94.9777L148.482 99.6046C149.54 99.3239 150.636 99.1593 151.781 99.1593C151.82 99.1593 151.848 99.1593 151.887 99.1593L151.897 99.1787Z" fill="black" fill-opacity="0.6"/>
<path d="M151.8 99.1787C150.656 99.1787 149.559 99.3433 148.501 99.624C142.922 101.095 138.796 106.187 138.796 112.266H151.897V99.1884C151.897 99.1884 151.829 99.1884 151.791 99.1884L151.8 99.1787Z" fill="#FF6F00"/>
<path d="M155.273 99.6627L158.658 94.9874C159.649 95.1423 160.698 94.7648 161.323 93.8936C161.467 93.6904 161.573 93.4774 161.659 93.2645C163.535 93.4871 165.468 92.7127 166.661 91.0672C167.075 90.4961 167.363 89.8669 167.527 89.2184C169.479 88.9764 171.336 87.96 172.596 86.2371C175.001 82.9266 174.279 78.2804 170.99 75.8605C167.7 73.4406 163.083 74.1666 160.678 77.477C159.428 79.2097 159.034 81.2908 159.399 83.2461C158.841 83.6042 158.331 84.0688 157.908 84.6399C156.715 86.2855 156.571 88.3762 157.35 90.1089C157.168 90.2541 156.994 90.4186 156.85 90.6219C156.215 91.4931 156.177 92.6062 156.629 93.5161L153.108 98.3656V88.8505C154.041 88.3666 154.696 87.3986 154.696 86.2661C154.696 86.0047 154.657 85.7628 154.59 85.5208C156.311 84.5431 157.475 82.6846 157.475 80.5551C157.475 79.8098 157.331 79.1032 157.071 78.4547C158.581 77.0317 159.524 75.0281 159.524 72.7824C159.524 68.5137 156.119 65.0581 151.896 65V99.1787C153.06 99.1787 154.195 99.3626 155.263 99.6627H155.273Z" fill="#559411"/>
<path d="M155.273 99.6627L158.658 94.9874C159.649 95.1423 160.698 94.7648 161.323 93.8936C161.467 93.6904 161.573 93.4774 161.659 93.2645C163.535 93.4871 165.468 92.7127 166.661 91.0672C167.075 90.4961 167.363 89.8669 167.527 89.2184C169.479 88.9764 171.336 87.96 172.596 86.2371C175.001 82.9266 174.279 78.2804 170.99 75.8605C167.7 73.4406 163.083 74.1666 160.678 77.477C159.428 79.2097 159.034 81.2908 159.399 83.2461C158.841 83.6042 158.331 84.0688 157.908 84.6399C156.715 86.2855 156.571 88.3762 157.35 90.1089C157.168 90.2541 156.994 90.4186 156.85 90.6219C156.215 91.4931 156.177 92.6062 156.629 93.5161L153.108 98.3656V88.8505C154.041 88.3666 154.696 87.3986 154.696 86.2661C154.696 86.0047 154.657 85.7628 154.59 85.5208C156.311 84.5431 157.475 82.6846 157.475 80.5551C157.475 79.8098 157.331 79.1032 157.071 78.4547C158.581 77.0317 159.524 75.0281 159.524 72.7824C159.524 68.5137 156.119 65.0581 151.896 65V99.1787C153.06 99.1787 154.195 99.3626 155.263 99.6627H155.273Z" fill="black" fill-opacity="0.6"/>
<path d="M155.273 99.6627C154.195 99.3626 153.07 99.1884 151.906 99.1787V112.256H164.805C164.805 106.245 160.765 101.192 155.273 99.6627Z" fill="#E83600"/>
<path d="M188.265 99.1787V65C188.265 65 188.197 65 188.159 65C183.888 65 180.435 68.475 180.435 72.7727C180.435 75.0087 181.387 77.0221 182.888 78.445C182.628 79.0935 182.484 79.8001 182.484 80.5454C182.484 82.675 183.648 84.5334 185.369 85.5111C185.302 85.7531 185.264 85.9951 185.264 86.2564C185.264 87.3889 185.908 88.3569 186.841 88.8409V98.0752L183.523 93.5064C183.975 92.6062 183.927 91.4931 183.301 90.6122C183.157 90.409 182.984 90.2444 182.801 90.0992C183.58 88.3666 183.436 86.2758 182.243 84.6302C181.82 84.0591 181.32 83.5945 180.752 83.2364C181.118 81.2908 180.724 79.2 179.473 77.4673C177.069 74.1569 172.452 73.4309 169.162 75.8508C165.872 78.2707 165.151 82.9169 167.556 86.2274C168.806 87.96 170.672 88.9764 172.625 89.2087C172.788 89.8572 173.077 90.4864 173.49 91.0575C174.683 92.703 176.616 93.4774 178.492 93.2548C178.579 93.4774 178.684 93.6903 178.829 93.8839C179.464 94.7551 180.502 95.1326 181.493 94.9777L184.85 99.6046C185.908 99.3239 187.005 99.1593 188.149 99.1593C188.188 99.1593 188.217 99.1593 188.255 99.1593L188.265 99.1787Z" fill="#88CF2B"/>
<path d="M188.265 99.1787V65C188.265 65 188.197 65 188.159 65C183.888 65 180.435 68.475 180.435 72.7727C180.435 75.0087 181.387 77.0221 182.888 78.445C182.628 79.0935 182.484 79.8001 182.484 80.5454C182.484 82.675 183.648 84.5334 185.369 85.5111C185.302 85.7531 185.264 85.9951 185.264 86.2564C185.264 87.3889 185.908 88.3569 186.841 88.8409V98.0752L183.523 93.5064C183.975 92.6062 183.927 91.4931 183.301 90.6122C183.157 90.409 182.984 90.2444 182.801 90.0992C183.58 88.3666 183.436 86.2758 182.243 84.6302C181.82 84.0591 181.32 83.5945 180.752 83.2364C181.118 81.2908 180.724 79.2 179.473 77.4673C177.069 74.1569 172.452 73.4309 169.162 75.8508C165.872 78.2707 165.151 82.9169 167.556 86.2274C168.806 87.96 170.672 88.9764 172.625 89.2087C172.788 89.8572 173.077 90.4864 173.49 91.0575C174.683 92.703 176.616 93.4774 178.492 93.2548C178.579 93.4774 178.684 93.6903 178.829 93.8839C179.464 94.7551 180.502 95.1326 181.493 94.9777L184.85 99.6046C185.908 99.3239 187.005 99.1593 188.149 99.1593C188.188 99.1593 188.217 99.1593 188.255 99.1593L188.265 99.1787Z" fill="black" fill-opacity="0.6"/>
<path d="M188.159 99.1787C187.014 99.1787 185.918 99.3433 184.86 99.624C179.281 101.095 175.154 106.187 175.154 112.266H188.255V99.1884C188.255 99.1884 188.188 99.1884 188.149 99.1884L188.159 99.1787Z" fill="#FF6F00"/>
<path d="M188.159 99.1787C187.014 99.1787 185.918 99.3433 184.86 99.624C179.281 101.095 175.154 106.187 175.154 112.266H188.255V99.1884C188.255 99.1884 188.188 99.1884 188.149 99.1884L188.159 99.1787Z" fill="black" fill-opacity="0.6"/>
<path d="M191.631 99.6627L195.027 94.9874C196.017 95.1423 197.066 94.7648 197.691 93.8936C197.835 93.6904 197.941 93.4774 198.028 93.2645C199.903 93.4871 201.837 92.7127 203.029 91.0672C203.443 90.4961 203.731 89.8669 203.895 89.2184C205.848 88.9764 207.714 87.96 208.964 86.2371C211.369 82.9266 210.647 78.2804 207.358 75.8605C204.068 73.4406 199.451 74.1666 197.046 77.477C195.796 79.2097 195.392 81.2908 195.758 83.2461C195.2 83.6042 194.69 84.0688 194.276 84.6399C193.084 86.2855 192.939 88.3762 193.718 90.1089C193.536 90.2541 193.363 90.4186 193.218 90.6219C192.583 91.4931 192.545 92.6062 192.997 93.5161L189.477 98.3656V88.8505C190.41 88.3666 191.064 87.3986 191.064 86.2661C191.064 86.0047 191.016 85.7628 190.958 85.5208C192.68 84.5431 193.843 82.6846 193.843 80.5551C193.843 79.8098 193.699 79.1032 193.439 78.4547C194.95 77.0317 195.892 75.0281 195.892 72.7824C195.883 68.5137 192.478 65.0581 188.265 65V99.1787C189.429 99.1787 190.554 99.3626 191.631 99.6627Z" fill="#559411"/>
<path d="M191.631 99.6627L195.027 94.9874C196.017 95.1423 197.066 94.7648 197.691 93.8936C197.835 93.6904 197.941 93.4774 198.028 93.2645C199.903 93.4871 201.837 92.7127 203.029 91.0672C203.443 90.4961 203.731 89.8669 203.895 89.2184C205.848 88.9764 207.714 87.96 208.964 86.2371C211.369 82.9266 210.647 78.2804 207.358 75.8605C204.068 73.4406 199.451 74.1666 197.046 77.477C195.796 79.2097 195.392 81.2908 195.758 83.2461C195.2 83.6042 194.69 84.0688 194.276 84.6399C193.084 86.2855 192.939 88.3762 193.718 90.1089C193.536 90.2541 193.363 90.4186 193.218 90.6219C192.583 91.4931 192.545 92.6062 192.997 93.5161L189.477 98.3656V88.8505C190.41 88.3666 191.064 87.3986 191.064 86.2661C191.064 86.0047 191.016 85.7628 190.958 85.5208C192.68 84.5431 193.843 82.6846 193.843 80.5551C193.843 79.8098 193.699 79.1032 193.439 78.4547C194.95 77.0317 195.892 75.0281 195.892 72.7824C195.883 68.5137 192.478 65.0581 188.265 65V99.1787C189.429 99.1787 190.554 99.3626 191.631 99.6627Z" fill="black" fill-opacity="0.6"/>
<path d="M191.631 99.6627C190.554 99.3626 189.429 99.1884 188.265 99.1787V112.256H201.163C201.163 106.245 197.123 101.192 191.631 99.6627Z" fill="#E83600"/>
<path d="M191.631 99.6627C190.554 99.3626 189.429 99.1884 188.265 99.1787V112.256H201.163C201.163 106.245 197.123 101.192 191.631 99.6627Z" fill="black" fill-opacity="0.6"/>
<path d="M224.623 99.1787V65C224.623 65 224.556 65 224.517 65C220.256 65 216.793 68.475 216.793 72.7727C216.793 75.0087 217.746 77.0221 219.246 78.445C218.986 79.0935 218.842 79.8001 218.842 80.5454C218.842 82.675 220.006 84.5334 221.728 85.5111C221.66 85.7531 221.622 85.9951 221.622 86.2564C221.622 87.3889 222.266 88.3569 223.199 88.8409V98.0752L219.881 93.5064C220.333 92.6062 220.285 91.4931 219.66 90.6122C219.515 90.409 219.342 90.2444 219.16 90.0992C219.939 88.3666 219.794 86.2758 218.602 84.6302C218.188 84.0591 217.678 83.5945 217.12 83.2364C217.486 81.2908 217.092 79.2 215.831 77.4673C213.427 74.1569 208.81 73.4309 205.52 75.8508C202.231 78.2707 201.509 82.9169 203.914 86.2274C205.164 87.96 207.03 88.9764 208.983 89.2087C209.147 89.8572 209.435 90.4864 209.849 91.0575C211.041 92.703 212.975 93.4774 214.85 93.2548C214.937 93.4774 215.043 93.6903 215.187 93.8839C215.822 94.7551 216.861 95.1326 217.851 94.9777L221.208 99.6046C222.266 99.3239 223.363 99.1593 224.508 99.1593C224.546 99.1593 224.575 99.1593 224.613 99.1593L224.623 99.1787Z" fill="#88CF2B"/>
<path d="M224.623 99.1787V65C224.623 65 224.556 65 224.517 65C220.256 65 216.793 68.475 216.793 72.7727C216.793 75.0087 217.746 77.0221 219.246 78.445C218.986 79.0935 218.842 79.8001 218.842 80.5454C218.842 82.675 220.006 84.5334 221.728 85.5111C221.66 85.7531 221.622 85.9951 221.622 86.2564C221.622 87.3889 222.266 88.3569 223.199 88.8409V98.0752L219.881 93.5064C220.333 92.6062 220.285 91.4931 219.66 90.6122C219.515 90.409 219.342 90.2444 219.16 90.0992C219.939 88.3666 219.794 86.2758 218.602 84.6302C218.188 84.0591 217.678 83.5945 217.12 83.2364C217.486 81.2908 217.092 79.2 215.831 77.4673C213.427 74.1569 208.81 73.4309 205.52 75.8508C202.231 78.2707 201.509 82.9169 203.914 86.2274C205.164 87.96 207.03 88.9764 208.983 89.2087C209.147 89.8572 209.435 90.4864 209.849 91.0575C211.041 92.703 212.975 93.4774 214.85 93.2548C214.937 93.4774 215.043 93.6903 215.187 93.8839C215.822 94.7551 216.861 95.1326 217.851 94.9777L221.208 99.6046C222.266 99.3239 223.363 99.1593 224.508 99.1593C224.546 99.1593 224.575 99.1593 224.613 99.1593L224.623 99.1787Z" fill="black" fill-opacity="0.6"/>
<path d="M224.517 99.1787C223.373 99.1787 222.276 99.3433 221.218 99.624C215.639 101.095 211.513 106.187 211.513 112.266H224.613V99.1884C224.613 99.1884 224.546 99.1884 224.508 99.1884L224.517 99.1787Z" fill="#FF6F00"/>
<path d="M224.517 99.1787C223.373 99.1787 222.276 99.3433 221.218 99.624C215.639 101.095 211.513 106.187 211.513 112.266H224.613V99.1884C224.613 99.1884 224.546 99.1884 224.508 99.1884L224.517 99.1787Z" fill="black" fill-opacity="0.6"/>
<path d="M227.99 99.6627L231.376 94.9874C232.366 95.1423 233.415 94.7648 234.04 93.8936C234.184 93.6904 234.29 93.4774 234.377 93.2645C236.252 93.4871 238.186 92.7127 239.378 91.0672C239.792 90.4961 240.08 89.8669 240.244 89.2184C242.206 88.9764 244.063 87.96 245.313 86.2371C247.718 82.9266 246.996 78.2804 243.707 75.8605C240.417 73.4406 235.8 74.1666 233.396 77.477C232.145 79.2097 231.751 81.2908 232.116 83.2461C231.558 83.6042 231.049 84.0688 230.625 84.6399C229.433 86.2855 229.288 88.3762 230.067 90.1089C229.885 90.2541 229.712 90.4186 229.567 90.6219C228.932 91.4931 228.894 92.6062 229.336 93.5161L225.816 98.3656V88.8505C226.749 88.3666 227.393 87.3986 227.393 86.2661C227.393 86.0047 227.355 85.7628 227.288 85.5208C229.009 84.5431 230.173 82.6846 230.173 80.5551C230.173 79.8098 230.029 79.1032 229.769 78.4547C231.27 77.0317 232.222 75.0281 232.222 72.7824C232.241 68.5137 228.846 65.0581 224.623 65V99.1787C225.797 99.1787 226.922 99.3626 227.99 99.6627Z" fill="#559411"/>
<path d="M227.99 99.6627L231.376 94.9874C232.366 95.1423 233.415 94.7648 234.04 93.8936C234.184 93.6904 234.29 93.4774 234.377 93.2645C236.252 93.4871 238.186 92.7127 239.378 91.0672C239.792 90.4961 240.08 89.8669 240.244 89.2184C242.206 88.9764 244.063 87.96 245.313 86.2371C247.718 82.9266 246.996 78.2804 243.707 75.8605C240.417 73.4406 235.8 74.1666 233.396 77.477C232.145 79.2097 231.751 81.2908 232.116 83.2461C231.558 83.6042 231.049 84.0688 230.625 84.6399C229.433 86.2855 229.288 88.3762 230.067 90.1089C229.885 90.2541 229.712 90.4186 229.567 90.6219C228.932 91.4931 228.894 92.6062 229.336 93.5161L225.816 98.3656V88.8505C226.749 88.3666 227.393 87.3986 227.393 86.2661C227.393 86.0047 227.355 85.7628 227.288 85.5208C229.009 84.5431 230.173 82.6846 230.173 80.5551C230.173 79.8098 230.029 79.1032 229.769 78.4547C231.27 77.0317 232.222 75.0281 232.222 72.7824C232.241 68.5137 228.846 65.0581 224.623 65V99.1787C225.797 99.1787 226.922 99.3626 227.99 99.6627Z" fill="black" fill-opacity="0.6"/>
<path d="M227.99 99.6627C226.913 99.3626 225.787 99.1884 224.623 99.1787V112.256H237.522C237.522 106.245 233.482 101.192 227.99 99.6627Z" fill="#E83600"/>
<path d="M227.99 99.6627C226.913 99.3626 225.787 99.1884 224.623 99.1787V112.256H237.522C237.522 106.245 233.482 101.192 227.99 99.6627Z" fill="black" fill-opacity="0.6"/>
<path d="M133.246 112.266C131.332 112.266 129.783 113.824 129.783 115.75C129.783 117.676 131.332 119.235 133.246 119.235H188.419V112.256H133.246V112.266Z" fill="#AB6941"/>
<path d="M246.747 115.76C246.747 113.834 245.198 112.275 243.274 112.275H188.419V119.254H243.274C245.188 119.254 246.747 117.696 246.747 115.77V115.76Z" fill="#8B411E"/>
<path d="M133.246 112.266C131.332 112.266 129.783 113.824 129.783 115.75C129.783 117.676 131.332 119.235 133.246 119.235H188.419V112.256H133.246V112.266Z" fill="#AB6941"/>
<path d="M246.747 115.76C246.747 113.834 245.198 112.275 243.274 112.275H188.419V119.254H243.274C245.188 119.254 246.747 117.696 246.747 115.77V115.76Z" fill="#8B411E"/>
<path d="M133.246 112.266C131.332 112.266 129.783 113.824 129.783 115.75C129.783 117.676 131.332 119.235 133.246 119.235H188.419V112.256H133.246V112.266Z" fill="#AB6941"/>
<path d="M246.747 115.76C246.747 113.834 245.198 112.275 243.274 112.275H188.419V119.254H243.274C245.188 119.254 246.747 117.696 246.747 115.77V115.76Z" fill="#8B411E"/>
<path d="M151.8 99.1787C150.656 99.1787 149.559 99.3433 148.501 99.624C142.922 101.095 138.796 106.187 138.796 112.266H151.897V99.1884C151.897 99.1884 151.829 99.1884 151.791 99.1884L151.8 99.1787Z" fill="#FF6F00"/>
<path d="M151.8 99.1787C150.656 99.1787 149.559 99.3433 148.501 99.624C142.922 101.095 138.796 106.187 138.796 112.266H151.897V99.1884C151.897 99.1884 151.829 99.1884 151.791 99.1884L151.8 99.1787Z" fill="black" fill-opacity="0.6"/>
<path d="M155.273 99.6627C154.195 99.3626 153.07 99.1884 151.906 99.1787V112.256H164.805C164.805 106.245 160.765 101.192 155.273 99.6627Z" fill="#E83600"/>
<path d="M155.273 99.6627C154.195 99.3626 153.07 99.1884 151.906 99.1787V112.256H164.805C164.805 106.245 160.765 101.192 155.273 99.6627Z" fill="black" fill-opacity="0.6"/>
<path d="M254.239 111.752H120.473V164.999H254.239V111.752Z" fill="#E3AC68"/>
<path d="M254.239 111.752H120.473V164.999H254.239V111.752Z" fill="black" fill-opacity="0.6"/>
<path d="M258 111.753H117V127.463H258V111.753Z" fill="#FDD69E"/>
<path d="M258 111.753H117V127.463H258V111.753Z" fill="black" fill-opacity="0.6"/>
<path d="M258 128.924H117V144.634H258V128.924Z" fill="#FDD69E"/>
<path d="M258 128.924H117V144.634H258V128.924Z" fill="black" fill-opacity="0.6"/>
<path d="M258 146.086H117V161.796H258V146.086Z" fill="#FDD69E"/>
<path d="M258 146.086H117V161.796H258V146.086Z" fill="black" fill-opacity="0.6"/>
<path d="M125.676 119.613C125.676 120.736 124.771 121.646 123.656 121.646C122.54 121.646 121.636 120.736 121.636 119.613C121.636 118.49 122.54 117.58 123.656 117.58C124.771 117.58 125.676 118.49 125.676 119.613Z" fill="#E3AC68"/>
<path d="M125.676 119.613C125.676 120.736 124.771 121.646 123.656 121.646C122.54 121.646 121.636 120.736 121.636 119.613C121.636 118.49 122.54 117.58 123.656 117.58C124.771 117.58 125.676 118.49 125.676 119.613Z" fill="black" fill-opacity="0.6"/>
<path d="M254.239 119.613C254.239 120.736 253.335 121.646 252.219 121.646C251.103 121.646 250.199 120.736 250.199 119.613C250.199 118.49 251.103 117.58 252.219 117.58C253.335 117.58 254.239 118.49 254.239 119.613Z" fill="#E3AC68"/>
<path d="M254.239 119.613C254.239 120.736 253.335 121.646 252.219 121.646C251.103 121.646 250.199 120.736 250.199 119.613C250.199 118.49 251.103 117.58 252.219 117.58C253.335 117.58 254.239 118.49 254.239 119.613Z" fill="black" fill-opacity="0.6"/>
<path d="M125.676 136.774C125.676 137.897 124.771 138.807 123.656 138.807C122.54 138.807 121.636 137.897 121.636 136.774C121.636 135.651 122.54 134.741 123.656 134.741C124.771 134.741 125.676 135.651 125.676 136.774Z" fill="#E3AC68"/>
<path d="M125.676 136.774C125.676 137.897 124.771 138.807 123.656 138.807C122.54 138.807 121.636 137.897 121.636 136.774C121.636 135.651 122.54 134.741 123.656 134.741C124.771 134.741 125.676 135.651 125.676 136.774Z" fill="black" fill-opacity="0.6"/>
<path d="M254.239 136.774C254.239 137.897 253.335 138.807 252.219 138.807C251.103 138.807 250.199 137.897 250.199 136.774C250.199 135.651 251.103 134.741 252.219 134.741C253.335 134.741 254.239 135.651 254.239 136.774Z" fill="#E3AC68"/>
<path d="M254.239 136.774C254.239 137.897 253.335 138.807 252.219 138.807C251.103 138.807 250.199 137.897 250.199 136.774C250.199 135.651 251.103 134.741 252.219 134.741C253.335 134.741 254.239 135.651 254.239 136.774Z" fill="black" fill-opacity="0.6"/>
<path d="M125.676 153.946C125.676 155.069 124.771 155.979 123.656 155.979C122.54 155.979 121.636 155.069 121.636 153.946C121.636 152.823 122.54 151.913 123.656 151.913C124.771 151.913 125.676 152.823 125.676 153.946Z" fill="#E3AC68"/>
<path d="M125.676 153.946C125.676 155.069 124.771 155.979 123.656 155.979C122.54 155.979 121.636 155.069 121.636 153.946C121.636 152.823 122.54 151.913 123.656 151.913C124.771 151.913 125.676 152.823 125.676 153.946Z" fill="black" fill-opacity="0.6"/>
<path d="M254.239 153.946C254.239 155.069 253.335 155.979 252.219 155.979C251.103 155.979 250.199 155.069 250.199 153.946C250.199 152.823 251.103 151.913 252.219 151.913C253.335 151.913 254.239 152.823 254.239 153.946Z" fill="#E3AC68"/>
<path d="M254.239 153.946C254.239 155.069 253.335 155.979 252.219 155.979C251.103 155.979 250.199 155.069 250.199 153.946C250.199 152.823 251.103 151.913 252.219 151.913C253.335 151.913 254.239 152.823 254.239 153.946Z" fill="black" fill-opacity="0.6"/>
<path d="M125.676 109.227H121.627V111.753H125.676V109.227Z" fill="#FDD69E"/>
<path d="M125.676 109.227H121.627V111.753H125.676V109.227Z" fill="black" fill-opacity="0.6"/>
<path d="M254.239 109.227H250.19V111.753H254.239V109.227Z" fill="#FDD69E"/>
<path d="M254.239 109.227H250.19V111.753H254.239V109.227Z" fill="black" fill-opacity="0.6"/>
</g>
<g clip-path="url(#clip2_4685_274296)">
<path d="M143.016 0.21369C138.759 -0.764476 134.502 1.80321 133.5 5.96041C132.655 9.4757 133.313 17.6067 136.13 20.5718C137.1 23.3534 142.328 26.4713 144.989 27.0521C148.056 27.7552 151.155 25.8905 151.875 22.8949C152.595 19.8993 150.686 16.8731 147.618 16.17C147.117 16.0478 146.46 15.9866 145.74 15.956C147.305 13.694 148.494 11.2181 148.901 9.53683C149.903 5.37963 147.274 1.22242 143.016 0.21369Z" fill="white"/>
<path d="M143.016 0.21369C138.759 -0.764476 134.502 1.80321 133.5 5.96041C132.655 9.4757 133.313 17.6067 136.13 20.5718C137.1 23.3534 142.328 26.4713 144.989 27.0521C148.056 27.7552 151.155 25.8905 151.875 22.8949C152.595 19.8993 150.686 16.8731 147.618 16.17C147.117 16.0478 146.46 15.9866 145.74 15.956C147.305 13.694 148.494 11.2181 148.901 9.53683C149.903 5.37963 147.274 1.22242 143.016 0.21369Z" fill="black" fill-opacity="0.6"/>
<path d="M115.219 16.9653C116.22 12.8081 120.478 10.2404 124.735 11.2186C128.335 12.0439 135.472 16.2622 136.912 20.0526C139.009 22.1312 139.51 28.0919 138.884 30.6902C138.164 33.6858 135.065 35.5504 131.997 34.8474C128.929 34.1443 127.02 31.1181 127.74 28.1225C127.865 27.6334 128.084 27.0221 128.366 26.3801C125.58 26.7164 122.794 26.6553 121.072 26.2579C116.815 25.2797 114.186 21.1225 115.187 16.9653H115.219Z" fill="white"/>
<path d="M115.219 16.9653C116.22 12.8081 120.478 10.2404 124.735 11.2186C128.335 12.0439 135.472 16.2622 136.912 20.0526C139.009 22.1312 139.51 28.0919 138.884 30.6902C138.164 33.6858 135.065 35.5504 131.997 34.8474C128.929 34.1443 127.02 31.1181 127.74 28.1225C127.865 27.6334 128.084 27.0221 128.366 26.3801C125.58 26.7164 122.794 26.6553 121.072 26.2579C116.815 25.2797 114.186 21.1225 115.187 16.9653H115.219Z" fill="black" fill-opacity="0.6"/>
</g>
<defs>
<clipPath id="clip0_4685_274296">
<rect width="114" height="96" fill="white" transform="translate(0 69)"/>
</clipPath>
<clipPath id="clip1_4685_274296">
<rect width="141" height="100" fill="white" transform="translate(117 65)"/>
</clipPath>
<clipPath id="clip2_4685_274296">
<rect width="37" height="35" fill="white" transform="translate(115)"/>
</clipPath>
</defs>
</svg>
