<svg width="258" height="165" viewBox="0 0 258 165" fill="none" xmlns="http://www.w3.org/2000/svg">
<g clip-path="url(#clip0_4684_44333)">
<path d="M22.7036 101.993V69C22.7036 69 22.6433 69 22.6131 69C18.5428 69 15.2563 72.3622 15.2563 76.4921C15.2563 78.6568 21.3619 100.903 21.3619 100.903C21.3619 100.903 15.5277 82.6945 14.3367 81.0211C12.0453 77.8278 7.64327 77.1215 4.5076 79.4551C1.37192 81.7887 0.678451 86.2717 2.96991 89.4651C4.16086 91.1385 19.4624 102.392 19.4624 102.392C20.4724 102.116 21.5126 101.962 22.6131 101.962C22.6433 101.962 22.6734 101.962 22.7036 101.962V101.993Z" fill="#26973B"/>
<path d="M22.6131 101.977C21.5277 101.977 20.4724 102.131 19.4623 102.407C14.1407 103.82 10.2061 108.748 10.2061 114.597H22.7035V101.977C22.7035 101.977 22.6432 101.977 22.6131 101.977Z" fill="#FF6F00"/>
<path d="M25.9147 102.453C25.9147 102.453 41.2463 91.1538 42.4373 89.4958C44.7287 86.3024 44.0503 81.8194 40.8996 79.4858C37.7639 77.1522 33.3619 77.8431 31.0704 81.0518C29.8795 82.7253 23.8493 101.21 23.8493 101.21C23.8493 101.21 29.9549 78.6875 29.9549 76.5228C29.9699 72.3929 26.7287 69.0614 22.7036 69V101.977C23.8192 101.977 24.8895 102.146 25.9147 102.438V102.453Z" fill="#0E8359"/>
<path d="M25.9147 102.453C24.8895 102.162 23.8192 101.993 22.7036 101.993V114.613H35.0051C35.0051 108.809 31.1609 103.927 25.9147 102.453Z" fill="#E83600"/>
<path d="M22.6131 101.977C21.5277 101.977 20.4724 102.131 19.4623 102.407C14.1407 103.82 10.2061 108.748 10.2061 114.597H22.7035V101.977C22.7035 101.977 22.6432 101.977 22.6131 101.977Z" fill="#B091FF"/>
<path d="M25.9147 102.453C24.8895 102.162 23.8192 101.993 22.7036 101.993V114.613H35.0051C35.0051 108.809 31.1609 103.927 25.9147 102.453Z" fill="#7640FF"/>
<path d="M57.7989 101.993V69C57.7989 69 57.7386 69 57.7084 69C53.6381 69 50.3366 72.3622 50.3366 76.4921C50.3366 78.6568 56.4421 100.903 56.4421 100.903C56.4421 100.903 50.623 82.6945 49.417 81.0211C47.1255 77.8278 42.7235 77.1215 39.5878 79.4551C36.4521 81.7887 35.7587 86.2717 38.0652 89.4651C39.2562 91.1385 54.5577 102.392 54.5577 102.392C55.5677 102.116 56.6079 101.962 57.7084 101.962C57.7386 101.962 57.7687 101.962 57.7989 101.962V101.993Z" fill="#26973B"/>
<path d="M57.7083 101.977C56.6229 101.977 55.5676 102.131 54.5576 102.407C49.2359 103.82 45.3013 108.748 45.3013 114.597H57.7988V101.977C57.7988 101.977 57.7385 101.977 57.7083 101.977Z" fill="#FF6F00"/>
<path d="M61.0099 102.453C61.0099 102.453 76.3415 91.1538 77.5325 89.4958C79.824 86.3024 79.1456 81.8194 75.9948 79.4858C72.8591 77.1522 68.4571 77.8431 66.1657 81.0518C64.9747 82.7253 58.9446 101.21 58.9446 101.21C58.9446 101.21 65.0501 78.6875 65.0501 76.5228C65.0652 72.3929 61.824 69.0614 57.7988 69V101.977C58.9144 101.977 59.9848 102.146 61.0099 102.438V102.453Z" fill="#0E8359"/>
<path d="M61.0099 102.453C59.9848 102.162 58.9144 101.993 57.7988 101.993V114.613H70.1003C70.1003 108.809 66.2561 103.927 61.0099 102.453Z" fill="#E83600"/>
<path d="M57.7083 101.977C56.6229 101.977 55.5676 102.131 54.5576 102.407C49.2359 103.82 45.3013 108.748 45.3013 114.597H57.7988V101.977C57.7988 101.977 57.7385 101.977 57.7083 101.977Z" fill="#B091FF"/>
<path d="M61.0099 102.453C59.9848 102.162 58.9144 101.993 57.7988 101.993V114.613H70.1003C70.1003 108.809 66.2561 103.927 61.0099 102.453Z" fill="#7640FF"/>
<path d="M92.9096 101.993V69C92.9096 69 92.8493 69 92.804 69C88.7337 69 85.4473 72.3622 85.4473 76.4921C85.4473 78.6568 91.5528 100.903 91.5528 100.903C91.5528 100.903 85.7186 82.6945 84.5277 81.0211C82.2362 77.8278 77.8342 77.1215 74.6985 79.4551C71.5628 81.7887 70.8694 86.2717 73.1608 89.4651C74.3518 91.1385 89.6533 102.392 89.6533 102.392C90.6633 102.116 91.7186 101.962 92.804 101.962C92.8342 101.962 92.8643 101.962 92.9096 101.962V101.993Z" fill="#26973B"/>
<path d="M92.804 101.977C91.7186 101.977 90.6633 102.131 89.6533 102.407C84.3316 103.82 80.397 108.748 80.397 114.597H92.8945V101.977C92.8945 101.977 92.8342 101.977 92.7889 101.977H92.804Z" fill="#FF6F00"/>
<path d="M96.1207 102.453C96.1207 102.453 111.452 91.1538 112.643 89.4958C114.935 86.3024 114.241 81.8194 111.106 79.4858C107.97 77.1522 103.568 77.8431 101.277 81.0518C100.086 82.7253 94.0554 101.21 94.0554 101.21C94.0554 101.21 100.161 78.6875 100.161 76.5228C100.176 72.3929 96.9348 69.0614 92.9097 69V101.977C94.0252 101.977 95.0956 102.146 96.1207 102.438V102.453Z" fill="#0E8359"/>
<path d="M96.1207 102.453C95.0956 102.162 94.0252 101.993 92.9097 101.993V114.613H105.211C105.211 108.809 101.367 103.927 96.1207 102.453Z" fill="#E83600"/>
<path d="M92.804 101.977C91.7186 101.977 90.6633 102.131 89.6533 102.407C84.3316 103.82 80.397 108.748 80.397 114.597H92.8945V101.977C92.8945 101.977 92.8342 101.977 92.7889 101.977H92.804Z" fill="#B091FF"/>
<path d="M96.1207 102.453C95.0956 102.162 94.0252 101.993 92.9097 101.993V114.613H105.211C105.211 108.809 101.367 103.927 96.1207 102.453Z" fill="#7640FF"/>
<path d="M110.186 111.158H3.46729V165H110.186V111.158Z" fill="#E3AC68"/>
<path d="M113.94 111.158H0V127.048H113.94V111.158Z" fill="#FDD69E"/>
<path d="M113.94 128.522H0V144.412H113.94V128.522Z" fill="#FDD69E"/>
<path d="M113.94 145.886H0V161.776H113.94V145.886Z" fill="#FDD69E"/>
<path d="M8.66813 119.111C8.66813 120.247 7.76361 121.168 6.64803 121.168C5.53245 121.168 4.62793 120.247 4.62793 119.111C4.62793 117.975 5.53245 117.054 6.64803 117.054C7.76361 117.054 8.66813 117.975 8.66813 119.111Z" fill="#E3AC68"/>
<path d="M110.186 119.111C110.186 120.247 109.281 121.168 108.166 121.168C107.05 121.168 106.146 120.247 106.146 119.111C106.146 117.975 107.05 117.054 108.166 117.054C109.281 117.054 110.186 117.975 110.186 119.111Z" fill="#E3AC68"/>
<path d="M8.66813 136.459C8.66813 137.596 7.76361 138.517 6.64803 138.517C5.53245 138.517 4.62793 137.596 4.62793 136.459C4.62793 135.323 5.53245 134.402 6.64803 134.402C7.76361 134.402 8.66813 135.323 8.66813 136.459Z" fill="#E3AC68"/>
<path d="M110.186 136.459C110.186 137.596 109.281 138.517 108.166 138.517C107.05 138.517 106.146 137.596 106.146 136.459C106.146 135.323 107.05 134.402 108.166 134.402C109.281 134.402 110.186 135.323 110.186 136.459Z" fill="#E3AC68"/>
<path d="M8.66813 153.823C8.66813 154.959 7.76361 155.88 6.64803 155.88C5.53245 155.88 4.62793 154.959 4.62793 153.823C4.62793 152.687 5.53245 151.766 6.64803 151.766C7.76361 151.766 8.66813 152.687 8.66813 153.823Z" fill="#E3AC68"/>
<path d="M110.186 153.823C110.186 154.959 109.281 155.88 108.166 155.88C107.05 155.88 106.146 154.959 106.146 153.823C106.146 152.687 107.05 151.766 108.166 151.766C109.281 151.766 110.186 152.687 110.186 153.823Z" fill="#E3AC68"/>
<path d="M8.66813 108.61H4.62793V111.158H8.66813V108.61Z" fill="#FDD69E"/>
<path d="M110.186 108.61H106.146V111.158H110.186V108.61Z" fill="#FDD69E"/>
</g>
<g clip-path="url(#clip1_4684_44333)">
<path d="M151.896 99.1787V65C151.896 65 151.829 65 151.791 65C147.53 65 144.067 68.475 144.067 72.7727C144.067 75.0087 145.019 77.0221 146.52 78.445C146.26 79.0935 146.116 79.8001 146.116 80.5454C146.116 82.675 147.279 84.5334 149.001 85.5111C148.943 85.7531 148.895 85.9951 148.895 86.2564C148.895 87.3889 149.54 88.3569 150.482 88.8409V98.0752L147.164 93.5064C147.616 92.6062 147.568 91.4931 146.933 90.6122C146.789 90.409 146.616 90.2444 146.433 90.0992C147.212 88.3666 147.068 86.2758 145.875 84.6302C145.462 84.0591 144.952 83.5945 144.384 83.2364C144.75 81.2908 144.355 79.2 143.105 77.4673C140.7 74.1569 136.083 73.4309 132.794 75.8508C129.504 78.2707 128.783 82.9169 131.187 86.2274C132.438 87.96 134.304 88.9764 136.256 89.2087C136.42 89.8572 136.709 90.4864 137.122 91.0575C138.315 92.703 140.248 93.4774 142.124 93.2548C142.21 93.4774 142.307 93.6903 142.46 93.8839C143.095 94.7551 144.134 95.1326 145.125 94.9777L148.482 99.6046C149.54 99.3239 150.636 99.1593 151.781 99.1593C151.819 99.1593 151.848 99.1593 151.887 99.1593L151.896 99.1787Z" fill="#88CF2B"/>
<path d="M151.8 99.1787C150.656 99.1787 149.559 99.3433 148.501 99.624C142.922 101.095 138.796 106.187 138.796 112.266H151.897V99.1884C151.897 99.1884 151.829 99.1884 151.791 99.1884L151.8 99.1787Z" fill="#FF6F00"/>
<path d="M155.273 99.6627L158.658 94.9874C159.649 95.1423 160.698 94.7648 161.323 93.8936C161.467 93.6904 161.573 93.4774 161.659 93.2645C163.535 93.4871 165.468 92.7127 166.661 91.0672C167.075 90.4961 167.363 89.8669 167.527 89.2184C169.479 88.9764 171.336 87.96 172.596 86.2371C175.001 82.9266 174.279 78.2804 170.99 75.8605C167.7 73.4406 163.083 74.1666 160.678 77.477C159.428 79.2097 159.034 81.2908 159.399 83.2461C158.841 83.6042 158.331 84.0688 157.908 84.6399C156.715 86.2855 156.571 88.3762 157.35 90.1089C157.168 90.2541 156.994 90.4186 156.85 90.6219C156.215 91.4931 156.177 92.6062 156.629 93.5161L153.108 98.3656V88.8505C154.041 88.3666 154.696 87.3986 154.696 86.2661C154.696 86.0047 154.657 85.7628 154.59 85.5208C156.311 84.5431 157.475 82.6846 157.475 80.5551C157.475 79.8098 157.331 79.1032 157.071 78.4547C158.581 77.0317 159.524 75.0281 159.524 72.7824C159.524 68.5137 156.119 65.0581 151.896 65V99.1787C153.06 99.1787 154.195 99.3626 155.263 99.6627H155.273Z" fill="#559411"/>
<path d="M155.273 99.6627C154.195 99.3626 153.07 99.1884 151.906 99.1787V112.256H164.805C164.805 106.245 160.765 101.192 155.273 99.6627Z" fill="#E83600"/>
<path d="M188.265 99.1787V65C188.265 65 188.197 65 188.159 65C183.888 65 180.435 68.475 180.435 72.7727C180.435 75.0087 181.387 77.0221 182.888 78.445C182.628 79.0935 182.484 79.8001 182.484 80.5454C182.484 82.675 183.648 84.5334 185.369 85.5111C185.302 85.7531 185.264 85.9951 185.264 86.2564C185.264 87.3889 185.908 88.3569 186.841 88.8409V98.0752L183.523 93.5064C183.975 92.6062 183.927 91.4931 183.301 90.6122C183.157 90.409 182.984 90.2444 182.801 90.0992C183.58 88.3666 183.436 86.2758 182.243 84.6302C181.82 84.0591 181.32 83.5945 180.752 83.2364C181.118 81.2908 180.724 79.2 179.473 77.4673C177.068 74.1569 172.451 73.4309 169.162 75.8508C165.872 78.2707 165.151 82.9169 167.556 86.2274C168.806 87.96 170.672 88.9764 172.625 89.2087C172.788 89.8572 173.077 90.4864 173.49 91.0575C174.683 92.703 176.616 93.4774 178.492 93.2548C178.579 93.4774 178.684 93.6903 178.829 93.8839C179.463 94.7551 180.502 95.1326 181.493 94.9777L184.85 99.6046C185.908 99.3239 187.005 99.1593 188.149 99.1593C188.188 99.1593 188.216 99.1593 188.255 99.1593L188.265 99.1787Z" fill="#88CF2B"/>
<path d="M188.159 99.1787C187.014 99.1787 185.918 99.3433 184.86 99.624C179.281 101.095 175.154 106.187 175.154 112.266H188.255V99.1884C188.255 99.1884 188.188 99.1884 188.149 99.1884L188.159 99.1787Z" fill="#FF6F00"/>
<path d="M191.631 99.6627L195.027 94.9874C196.017 95.1423 197.066 94.7648 197.691 93.8936C197.835 93.6904 197.941 93.4774 198.028 93.2645C199.903 93.4871 201.837 92.7127 203.029 91.0672C203.443 90.4961 203.731 89.8669 203.895 89.2184C205.848 88.9764 207.714 87.96 208.964 86.2371C211.369 82.9266 210.647 78.2804 207.358 75.8605C204.068 73.4406 199.451 74.1666 197.046 77.477C195.796 79.2097 195.392 81.2908 195.758 83.2461C195.2 83.6042 194.69 84.0688 194.276 84.6399C193.084 86.2855 192.939 88.3762 193.718 90.1089C193.536 90.2541 193.363 90.4186 193.218 90.6219C192.583 91.4931 192.545 92.6062 192.997 93.5161L189.477 98.3656V88.8505C190.41 88.3666 191.064 87.3986 191.064 86.2661C191.064 86.0047 191.016 85.7628 190.958 85.5208C192.68 84.5431 193.843 82.6846 193.843 80.5551C193.843 79.8098 193.699 79.1032 193.439 78.4547C194.95 77.0317 195.892 75.0281 195.892 72.7824C195.883 68.5137 192.478 65.0581 188.265 65V99.1787C189.429 99.1787 190.554 99.3626 191.631 99.6627Z" fill="#559411"/>
<path d="M191.631 99.6627C190.554 99.3626 189.429 99.1884 188.265 99.1787V112.256H201.163C201.163 106.245 197.123 101.192 191.631 99.6627Z" fill="#E83600"/>
<path d="M224.623 99.1787V65C224.623 65 224.556 65 224.518 65C220.257 65 216.794 68.475 216.794 72.7727C216.794 75.0087 217.746 77.0221 219.247 78.445C218.987 79.0935 218.843 79.8001 218.843 80.5454C218.843 82.675 220.006 84.5334 221.728 85.5111C221.661 85.7531 221.622 85.9951 221.622 86.2564C221.622 87.3889 222.267 88.3569 223.2 88.8409V98.0752L219.881 93.5064C220.334 92.6062 220.285 91.4931 219.66 90.6122C219.516 90.409 219.343 90.2444 219.16 90.0992C219.939 88.3666 219.795 86.2758 218.602 84.6302C218.189 84.0591 217.679 83.5945 217.121 83.2364C217.486 81.2908 217.092 79.2 215.832 77.4673C213.427 74.1569 208.81 73.4309 205.521 75.8508C202.231 78.2707 201.51 82.9169 203.914 86.2274C205.165 87.96 207.031 88.9764 208.983 89.2087C209.147 89.8572 209.436 90.4864 209.849 91.0575C211.042 92.703 212.975 93.4774 214.851 93.2548C214.937 93.4774 215.043 93.6903 215.188 93.8839C215.822 94.7551 216.861 95.1326 217.852 94.9777L221.209 99.6046C222.267 99.3239 223.363 99.1593 224.508 99.1593C224.546 99.1593 224.575 99.1593 224.614 99.1593L224.623 99.1787Z" fill="#88CF2B"/>
<path d="M224.518 99.1787C223.373 99.1787 222.276 99.3433 221.218 99.624C215.64 101.095 211.513 106.187 211.513 112.266H224.614V99.1884C224.614 99.1884 224.546 99.1884 224.508 99.1884L224.518 99.1787Z" fill="#FF6F00"/>
<path d="M227.99 99.6627L231.375 94.9874C232.366 95.1423 233.415 94.7648 234.04 93.8936C234.184 93.6904 234.29 93.4774 234.376 93.2645C236.252 93.4871 238.185 92.7127 239.378 91.0672C239.792 90.4961 240.08 89.8669 240.244 89.2184C242.206 88.9764 244.062 87.96 245.313 86.2371C247.717 82.9266 246.996 78.2804 243.706 75.8605C240.417 73.4406 235.8 74.1666 233.395 77.477C232.145 79.2097 231.75 81.2908 232.116 83.2461C231.558 83.6042 231.048 84.0688 230.625 84.6399C229.432 86.2855 229.288 88.3762 230.067 90.1089C229.884 90.2541 229.711 90.4186 229.567 90.6219C228.932 91.4931 228.894 92.6062 229.336 93.5161L225.816 98.3656V88.8505C226.749 88.3666 227.393 87.3986 227.393 86.2661C227.393 86.0047 227.355 85.7628 227.287 85.5208C229.009 84.5431 230.173 82.6846 230.173 80.5551C230.173 79.8098 230.029 79.1032 229.769 78.4547C231.27 77.0317 232.222 75.0281 232.222 72.7824C232.241 68.5137 228.846 65.0581 224.623 65V99.1787C225.797 99.1787 226.922 99.3626 227.99 99.6627Z" fill="#559411"/>
<path d="M227.99 99.6627C226.912 99.3626 225.787 99.1884 224.623 99.1787V112.256H237.522C237.522 106.245 233.482 101.192 227.99 99.6627Z" fill="#E83600"/>
<path d="M133.246 112.266C131.332 112.266 129.783 113.824 129.783 115.75C129.783 117.676 131.332 119.235 133.246 119.235H188.419V112.256H133.246V112.266Z" fill="#AB6941"/>
<path d="M246.746 115.76C246.746 113.834 245.197 112.275 243.274 112.275H188.418V119.254H243.274C245.188 119.254 246.746 117.696 246.746 115.769V115.76Z" fill="#8B411E"/>
<path d="M133.246 112.266C131.332 112.266 129.783 113.824 129.783 115.75C129.783 117.676 131.332 119.235 133.246 119.235H188.419V112.256H133.246V112.266Z" fill="#AB6941"/>
<path d="M246.746 115.76C246.746 113.834 245.197 112.275 243.274 112.275H188.418V119.254H243.274C245.188 119.254 246.746 117.696 246.746 115.769V115.76Z" fill="#8B411E"/>
<path d="M133.246 112.266C131.332 112.266 129.783 113.824 129.783 115.75C129.783 117.676 131.332 119.235 133.246 119.235H188.419V112.256H133.246V112.266Z" fill="#AB6941"/>
<path d="M246.746 115.76C246.746 113.834 245.197 112.275 243.274 112.275H188.418V119.254H243.274C245.188 119.254 246.746 117.696 246.746 115.769V115.76Z" fill="#8B411E"/>
<path d="M151.8 99.1787C150.656 99.1787 149.559 99.3433 148.501 99.624C142.922 101.095 138.796 106.187 138.796 112.266H151.897V99.1884C151.897 99.1884 151.829 99.1884 151.791 99.1884L151.8 99.1787Z" fill="#FF6F00"/>
<path d="M155.273 99.6627C154.195 99.3626 153.07 99.1884 151.906 99.1787V112.256H164.805C164.805 106.245 160.765 101.192 155.273 99.6627Z" fill="#E83600"/>
<path d="M254.239 111.752H120.472V165H254.239V111.752Z" fill="#E3AC68"/>
<path d="M258 111.752H117V127.462H258V111.752Z" fill="#FDD69E"/>
<path d="M258 128.924H117V144.634H258V128.924Z" fill="#FDD69E"/>
<path d="M258 146.086H117V161.796H258V146.086Z" fill="#FDD69E"/>
<path d="M125.676 119.612C125.676 120.735 124.772 121.645 123.656 121.645C122.54 121.645 121.636 120.735 121.636 119.612C121.636 118.489 122.54 117.58 123.656 117.58C124.772 117.58 125.676 118.489 125.676 119.612Z" fill="#E3AC68"/>
<path d="M254.239 119.612C254.239 120.735 253.335 121.645 252.219 121.645C251.103 121.645 250.199 120.735 250.199 119.612C250.199 118.489 251.103 117.58 252.219 117.58C253.335 117.58 254.239 118.489 254.239 119.612Z" fill="#E3AC68"/>
<path d="M125.676 136.774C125.676 137.897 124.772 138.807 123.656 138.807C122.54 138.807 121.636 137.897 121.636 136.774C121.636 135.651 122.54 134.742 123.656 134.742C124.772 134.742 125.676 135.651 125.676 136.774Z" fill="#E3AC68"/>
<path d="M254.239 136.774C254.239 137.897 253.335 138.807 252.219 138.807C251.103 138.807 250.199 137.897 250.199 136.774C250.199 135.651 251.103 134.742 252.219 134.742C253.335 134.742 254.239 135.651 254.239 136.774Z" fill="#E3AC68"/>
<path d="M125.676 153.946C125.676 155.069 124.772 155.979 123.656 155.979C122.54 155.979 121.636 155.069 121.636 153.946C121.636 152.823 122.54 151.913 123.656 151.913C124.772 151.913 125.676 152.823 125.676 153.946Z" fill="#E3AC68"/>
<path d="M254.239 153.946C254.239 155.069 253.335 155.979 252.219 155.979C251.103 155.979 250.199 155.069 250.199 153.946C250.199 152.823 251.103 151.913 252.219 151.913C253.335 151.913 254.239 152.823 254.239 153.946Z" fill="#E3AC68"/>
<path d="M125.676 109.226H121.626V111.752H125.676V109.226Z" fill="#FDD69E"/>
<path d="M254.239 109.226H250.189V111.752H254.239V109.226Z" fill="#FDD69E"/>
</g>
<g clip-path="url(#clip2_4684_44333)">
<path d="M143.016 0.213934C138.759 -0.764232 134.502 1.80345 133.5 5.96066C132.655 9.47594 133.313 17.6069 136.13 20.572C137.1 23.3537 142.328 26.4716 144.989 27.0524C148.056 27.7554 151.155 25.8908 151.875 22.8952C152.595 19.8995 150.686 16.8733 147.618 16.1703C147.117 16.048 146.46 15.9869 145.74 15.9563C147.305 13.6943 148.494 11.2183 148.901 9.53708C149.903 5.37987 147.274 1.22267 143.016 0.213934Z" fill="white"/>
<path d="M115.219 16.9651C116.22 12.8078 120.478 10.2402 124.735 11.2183C128.335 12.0437 135.472 16.262 136.912 20.0524C139.009 22.131 139.51 28.0917 138.884 30.6899C138.164 33.6856 135.065 35.5502 131.997 34.8471C128.929 34.1441 127.02 31.1179 127.74 28.1223C127.865 27.6332 128.084 27.0218 128.366 26.3799C125.58 26.7161 122.794 26.655 121.072 26.2576C116.815 25.2795 114.186 21.1223 115.187 16.9651H115.219Z" fill="white"/>
</g>
<defs>
<clipPath id="clip0_4684_44333">
<rect width="114" height="96" fill="white" transform="translate(0 69)"/>
</clipPath>
<clipPath id="clip1_4684_44333">
<rect width="141" height="100" fill="white" transform="translate(117 65)"/>
</clipPath>
<clipPath id="clip2_4684_44333">
<rect width="37" height="35" fill="white" transform="translate(115)"/>
</clipPath>
</defs>
</svg>
