<svg width="301" height="352" viewBox="0 0 301 352" fill="none" xmlns="http://www.w3.org/2000/svg">
<path d="M298 270H167V280H298V270Z" fill="#E3AC68"/>
<path d="M298 270H167V280H298V270Z" fill="black" fill-opacity="0.6"/>
<path d="M297 268H167V278H297V268Z" fill="#FDD69E"/>
<path d="M297 268H167V278H297V268Z" fill="black" fill-opacity="0.6"/>
<path d="M171.725 268.264H169.289V277.969H171.725V268.264Z" fill="#E3AC68"/>
<path d="M205.696 268.264H203.26V277.969H205.696V268.264Z" fill="#E3AC68"/>
<path d="M205.696 268.264H203.26V277.969H205.696V268.264Z" fill="black" fill-opacity="0.6"/>
<path d="M239.676 268.264H237.24V277.969H239.676V268.264Z" fill="#E3AC68"/>
<path d="M239.676 268.264H237.24V277.969H239.676V268.264Z" fill="black" fill-opacity="0.6"/>
<path d="M273.668 268.264H271.232V277.969H273.668V268.264Z" fill="#E3AC68"/>
<path d="M273.668 268.264H271.232V277.969H273.668V268.264Z" fill="black" fill-opacity="0.6"/>
<path d="M291.002 305.48H166.832V315.186H291.002V305.48Z" fill="#E3AC68"/>
<path d="M291.002 305.48H166.832V315.186H291.002V305.48Z" fill="black" fill-opacity="0.6"/>
<path d="M281.002 303.732H166.832V313.438H281.002V303.732Z" fill="#FDD69E"/>
<path d="M281.002 303.732H166.832V313.438H281.002V303.732Z" fill="black" fill-opacity="0.6"/>
<path d="M171.725 303.732H169.289V313.438H171.725V303.732Z" fill="#E3AC68"/>
<path d="M205.696 303.732H203.26V313.438H205.696V303.732Z" fill="#E3AC68"/>
<path d="M205.696 303.732H203.26V313.438H205.696V303.732Z" fill="black" fill-opacity="0.6"/>
<path d="M239.676 303.732H237.24V313.438H239.676V303.732Z" fill="#E3AC68"/>
<path d="M239.676 303.732H237.24V313.438H239.676V303.732Z" fill="black" fill-opacity="0.6"/>
<path d="M273.668 303.732H271.232V313.438H273.668V303.732Z" fill="#E3AC68"/>
<path d="M273.668 303.732H271.232V313.438H273.668V303.732Z" fill="black" fill-opacity="0.6"/>
<path d="M193.417 330H171.714V264.243L182.434 251H185.067L193.417 330Z" fill="#E3AC68"/>
<path d="M196.051 330H174.359V264.243L185.068 251L196.051 264.243V330Z" fill="#FDD69E"/>
<path d="M196.051 330H174.359V264.243L185.068 251L196.051 264.243V330Z" fill="black" fill-opacity="0.6"/>
<path d="M187.294 273.105C187.294 274.255 186.362 275.186 185.21 275.186C184.058 275.186 183.125 274.255 183.125 273.105C183.125 271.955 184.058 271.023 185.21 271.023C186.362 271.023 187.294 271.955 187.294 273.105Z" fill="#E3AC68"/>
<path d="M187.294 309.626C187.294 310.776 186.362 311.707 185.21 311.707C184.058 311.707 183.125 310.776 183.125 309.626C183.125 308.476 184.058 307.545 185.21 307.545C186.362 307.545 187.294 308.476 187.294 309.626Z" fill="#E3AC68"/>
<path d="M227.398 330H205.706V264.243L216.415 251H219.049L227.398 330Z" fill="#E3AC68"/>
<path d="M227.398 330H205.706V264.243L216.415 251H219.049L227.398 330Z" fill="black" fill-opacity="0.6"/>
<path d="M230.032 330H208.34V264.243L219.049 251L230.032 264.243V330Z" fill="#FDD69E"/>
<path d="M230.032 330H208.34V264.243L219.049 251L230.032 264.243V330Z" fill="black" fill-opacity="0.6"/>
<path d="M221.276 273.105C221.276 274.255 220.343 275.186 219.191 275.186C218.039 275.186 217.106 274.255 217.106 273.105C217.106 271.955 218.039 271.023 219.191 271.023C220.343 271.023 221.276 271.955 221.276 273.105Z" fill="#E3AC68"/>
<path d="M221.276 273.105C221.276 274.255 220.343 275.186 219.191 275.186C218.039 275.186 217.106 274.255 217.106 273.105C217.106 271.955 218.039 271.023 219.191 271.023C220.343 271.023 221.276 271.955 221.276 273.105Z" fill="black" fill-opacity="0.6"/>
<path d="M221.276 309.625C221.276 310.775 220.343 311.706 219.191 311.706C218.039 311.706 217.106 310.775 217.106 309.625C217.106 308.475 218.039 307.544 219.191 307.544C220.343 307.544 221.276 308.475 221.276 309.625Z" fill="#E3AC68"/>
<path d="M221.276 309.625C221.276 310.775 220.343 311.706 219.191 311.706C218.039 311.706 217.106 310.775 217.106 309.625C217.106 308.475 218.039 307.544 219.191 307.544C220.343 307.544 221.276 308.475 221.276 309.625Z" fill="black" fill-opacity="0.6"/>
<path d="M261.379 330H239.676V264.243L250.396 251H253.029L261.379 330Z" fill="#E3AC68"/>
<path d="M261.379 330H239.676V264.243L250.396 251H253.029L261.379 330Z" fill="black" fill-opacity="0.6"/>
<path d="M264.012 330H242.32V264.243L253.029 251L264.012 264.243V330Z" fill="#FDD69E"/>
<path d="M264.012 330H242.32V264.243L253.029 251L264.012 264.243V330Z" fill="black" fill-opacity="0.6"/>
<path d="M255.256 273.105C255.256 274.255 254.324 275.186 253.172 275.186C252.02 275.186 251.087 274.255 251.087 273.105C251.087 271.955 252.02 271.023 253.172 271.023C254.324 271.023 255.256 271.955 255.256 273.105Z" fill="#E3AC68"/>
<path d="M255.256 273.105C255.256 274.255 254.324 275.186 253.172 275.186C252.02 275.186 251.087 274.255 251.087 273.105C251.087 271.955 252.02 271.023 253.172 271.023C254.324 271.023 255.256 271.955 255.256 273.105Z" fill="black" fill-opacity="0.6"/>
<path d="M255.256 309.626C255.256 310.776 254.324 311.707 253.172 311.707C252.02 311.707 251.087 310.776 251.087 309.626C251.087 308.476 252.02 307.545 253.172 307.545C254.324 307.545 255.256 308.476 255.256 309.626Z" fill="#E3AC68"/>
<path d="M255.256 309.626C255.256 310.776 254.324 311.707 253.172 311.707C252.02 311.707 251.087 310.776 251.087 309.626C251.087 308.476 252.02 307.545 253.172 307.545C254.324 307.545 255.256 308.476 255.256 309.626Z" fill="black" fill-opacity="0.6"/>
<path d="M295.36 330H273.668V264.243L284.377 251H287.01L295.36 330Z" fill="#E3AC68"/>
<path d="M295.36 330H273.668V264.243L284.377 251H287.01L295.36 330Z" fill="black" fill-opacity="0.6"/>
<path d="M297.994 330H276.302V264.243L287.01 251L297.994 264.243V330Z" fill="#FDD69E"/>
<path d="M297.994 330H276.302V264.243L287.01 251L297.994 264.243V330Z" fill="black" fill-opacity="0.6"/>
<path d="M289.238 273.105C289.238 274.255 288.305 275.186 287.153 275.186C286.001 275.186 285.068 274.255 285.068 273.105C285.068 271.955 286.001 271.023 287.153 271.023C288.305 271.023 289.238 271.955 289.238 273.105Z" fill="#E3AC68"/>
<path d="M289.238 273.105C289.238 274.255 288.305 275.186 287.153 275.186C286.001 275.186 285.068 274.255 285.068 273.105C285.068 271.955 286.001 271.023 287.153 271.023C288.305 271.023 289.238 271.955 289.238 273.105Z" fill="black" fill-opacity="0.6"/>
<path d="M289.238 309.625C289.238 310.775 288.305 311.706 287.153 311.706C286.001 311.706 285.068 310.775 285.068 309.625C285.068 308.475 286.001 307.544 287.153 307.544C288.305 307.544 289.238 308.475 289.238 309.625Z" fill="#E3AC68"/>
<path d="M289.238 309.625C289.238 310.775 288.305 311.706 287.153 311.706C286.001 311.706 285.068 310.775 285.068 309.625C285.068 308.475 286.001 307.544 287.153 307.544C288.305 307.544 289.238 308.475 289.238 309.625Z" fill="black" fill-opacity="0.6"/>
<path d="M198 270H70V280H198V270Z" fill="#E3AC68"/>
<path d="M198 270H70V280H198V270Z" fill="black" fill-opacity="0.6"/>
<path d="M198 268H74V278H198V268Z" fill="#FDD69E"/>
<path d="M198 268H74V278H198V268Z" fill="black" fill-opacity="0.6"/>
<path d="M102.874 268.264H100.438V277.969H102.874V268.264Z" fill="#E3AC68"/>
<path d="M102.874 268.264H100.438V277.969H102.874V268.264Z" fill="black" fill-opacity="0.6"/>
<path d="M136.856 268.264H134.42V277.969H136.856V268.264Z" fill="#E3AC68"/>
<path d="M136.856 268.264H134.42V277.969H136.856V268.264Z" fill="black" fill-opacity="0.6"/>
<path d="M170.836 268.264H168.4V277.969H170.836V268.264Z" fill="#E3AC68"/>
<path d="M170.836 268.264H168.4V277.969H170.836V268.264Z" fill="black" fill-opacity="0.6"/>
<path d="M208.168 305.48H74V315.186H208.168V305.48Z" fill="#E3AC68"/>
<path d="M208.168 305.48H74V315.186H208.168V305.48Z" fill="black" fill-opacity="0.6"/>
<path d="M208.168 303.732H74V313.438H208.168V303.732Z" fill="#FDD69E"/>
<path d="M208.168 303.732H74V313.438H208.168V303.732Z" fill="black" fill-opacity="0.6"/>
<path d="M102.874 303.732H100.438V313.438H102.874V303.732Z" fill="#E3AC68"/>
<path d="M102.874 303.732H100.438V313.438H102.874V303.732Z" fill="black" fill-opacity="0.6"/>
<path d="M136.856 303.732H134.42V313.438H136.856V303.732Z" fill="#E3AC68"/>
<path d="M136.856 303.732H134.42V313.438H136.856V303.732Z" fill="black" fill-opacity="0.6"/>
<path d="M170.836 303.732H168.4V313.438H170.836V303.732Z" fill="#E3AC68"/>
<path d="M170.836 303.732H168.4V313.438H170.836V303.732Z" fill="black" fill-opacity="0.6"/>
<path d="M90.5856 330H68.8936V264.243L79.6024 251H82.2358L90.5856 330Z" fill="#E3AC68"/>
<path d="M90.5856 330H68.8936V264.243L79.6024 251H82.2358L90.5856 330Z" fill="black" fill-opacity="0.6"/>
<path d="M93.2194 330H71.5273V264.243L82.2362 251L93.2194 264.243V330Z" fill="#FDD69E"/>
<path d="M93.2194 330H71.5273V264.243L82.2362 251L93.2194 264.243V330Z" fill="black" fill-opacity="0.6"/>
<path d="M84.4631 273.105C84.4631 274.255 83.5305 275.186 82.3784 275.186C81.2263 275.186 80.2937 274.255 80.2937 273.105C80.2937 271.955 81.2263 271.023 82.3784 271.023C83.5305 271.023 84.4631 271.955 84.4631 273.105Z" fill="#E3AC68"/>
<path d="M84.4631 273.105C84.4631 274.255 83.5305 275.186 82.3784 275.186C81.2263 275.186 80.2937 274.255 80.2937 273.105C80.2937 271.955 81.2263 271.023 82.3784 271.023C83.5305 271.023 84.4631 271.955 84.4631 273.105Z" fill="black" fill-opacity="0.6"/>
<path d="M124.567 330H102.875V264.243L113.584 251H116.217L124.567 330Z" fill="#E3AC68"/>
<path d="M124.567 330H102.875V264.243L113.584 251H116.217L124.567 330Z" fill="black" fill-opacity="0.6"/>
<path d="M127.2 330H105.508V264.243L116.217 251L127.2 264.243V330Z" fill="#FDD69E"/>
<path d="M127.2 330H105.508V264.243L116.217 251L127.2 264.243V330Z" fill="black" fill-opacity="0.6"/>
<path d="M118.444 273.105C118.444 274.255 117.511 275.186 116.359 275.186C115.207 275.186 114.274 274.255 114.274 273.105C114.274 271.955 115.207 271.023 116.359 271.023C117.511 271.023 118.444 271.955 118.444 273.105Z" fill="#E3AC68"/>
<path d="M118.444 273.105C118.444 274.255 117.511 275.186 116.359 275.186C115.207 275.186 114.274 274.255 114.274 273.105C114.274 271.955 115.207 271.023 116.359 271.023C117.511 271.023 118.444 271.955 118.444 273.105Z" fill="black" fill-opacity="0.6"/>
<path d="M118.444 309.626C118.444 310.776 117.511 311.707 116.359 311.707C115.207 311.707 114.274 310.776 114.274 309.626C114.274 308.476 115.207 307.545 116.359 307.545C117.511 307.545 118.444 308.476 118.444 309.626Z" fill="#E3AC68"/>
<path d="M118.444 309.626C118.444 310.776 117.511 311.707 116.359 311.707C115.207 311.707 114.274 310.776 114.274 309.626C114.274 308.476 115.207 307.545 116.359 307.545C117.511 307.545 118.444 308.476 118.444 309.626Z" fill="black" fill-opacity="0.6"/>
<path d="M158.548 330H136.856V264.243L147.564 251H150.209L158.548 330Z" fill="#E3AC68"/>
<path d="M158.548 330H136.856V264.243L147.564 251H150.209L158.548 330Z" fill="black" fill-opacity="0.6"/>
<path d="M161.181 330H139.489V264.243L150.209 251L161.181 264.243V330Z" fill="#FDD69E"/>
<path d="M161.181 330H139.489V264.243L150.209 251L161.181 264.243V330Z" fill="black" fill-opacity="0.6"/>
<path d="M152.425 273.105C152.425 274.255 151.493 275.186 150.34 275.186C149.188 275.186 148.256 274.255 148.256 273.105C148.256 271.955 149.188 271.023 150.34 271.023C151.493 271.023 152.425 271.955 152.425 273.105Z" fill="#E3AC68"/>
<path d="M152.425 273.105C152.425 274.255 151.493 275.186 150.34 275.186C149.188 275.186 148.256 274.255 148.256 273.105C148.256 271.955 149.188 271.023 150.34 271.023C151.493 271.023 152.425 271.955 152.425 273.105Z" fill="black" fill-opacity="0.6"/>
<path d="M152.425 309.625C152.425 310.775 151.493 311.706 150.34 311.706C149.188 311.706 148.256 310.775 148.256 309.625C148.256 308.475 149.188 307.544 150.34 307.544C151.493 307.544 152.425 308.475 152.425 309.625Z" fill="#E3AC68"/>
<path d="M152.425 309.625C152.425 310.775 151.493 311.706 150.34 311.706C149.188 311.706 148.256 310.775 148.256 309.625C148.256 308.475 149.188 307.544 150.34 307.544C151.493 307.544 152.425 308.475 152.425 309.625Z" fill="black" fill-opacity="0.6"/>
<path d="M192.529 330H170.837V264.243L181.546 251H184.179L192.529 330Z" fill="#E3AC68"/>
<path d="M192.529 330H170.837V264.243L181.546 251H184.179L192.529 330Z" fill="black" fill-opacity="0.6"/>
<path d="M195.162 330H173.47V264.243L184.179 251L195.162 264.243V330Z" fill="#FDD69E"/>
<path d="M195.162 330H173.47V264.243L184.179 251L195.162 264.243V330Z" fill="black" fill-opacity="0.6"/>
<path d="M186.406 273.105C186.406 274.255 185.473 275.186 184.321 275.186C183.169 275.186 182.236 274.255 182.236 273.105C182.236 271.955 183.169 271.023 184.321 271.023C185.473 271.023 186.406 271.955 186.406 273.105Z" fill="#E3AC68"/>
<path d="M186.406 273.105C186.406 274.255 185.473 275.186 184.321 275.186C183.169 275.186 182.236 274.255 182.236 273.105C182.236 271.955 183.169 271.023 184.321 271.023C185.473 271.023 186.406 271.955 186.406 273.105Z" fill="black" fill-opacity="0.6"/>
<path d="M186.406 309.626C186.406 310.776 185.473 311.707 184.321 311.707C183.169 311.707 182.236 310.776 182.236 309.626C182.236 308.476 183.169 307.545 184.321 307.545C185.473 307.545 186.406 308.476 186.406 309.626Z" fill="#E3AC68"/>
<path d="M186.406 309.626C186.406 310.776 185.473 311.707 184.321 311.707C183.169 311.707 182.236 310.776 182.236 309.626C182.236 308.476 183.169 307.545 184.321 307.545C185.473 307.545 186.406 308.476 186.406 309.626Z" fill="black" fill-opacity="0.6"/>
<path d="M24.3678 297.707C25.0153 295.431 29.0218 295.431 29.6693 297.707L34.0714 313.179L37.9681 299.474C38.6152 297.198 42.6226 297.198 43.2698 299.474L48.1052 316.481L51.841 303.395C52.4901 301.121 56.4925 301.121 57.1416 303.395L60.1437 313.911L65.7476 299.777C66.394 298.147 69.2454 298.147 69.8918 299.777L74.3756 311.086L77.6813 299.467C78.3288 297.191 82.3353 297.191 82.9828 299.467L87.3849 314.94L91.2816 301.234C91.9288 298.958 95.9361 298.958 96.5833 301.234L101.419 318.241L105.155 305.155C105.804 302.882 109.806 302.882 110.455 305.155L116.929 327.833C117.323 329.212 116.028 330.528 114.279 330.528H104.766C104.633 331.615 103.5 332.509 102.058 332.509H92.3836L93.464 336.306C93.8561 337.685 92.5618 339 90.8132 339H69.8509C68.1023 339 66.808 337.685 67.2002 336.306L68.0927 333.169H55.4912C54.0163 333.169 52.9686 332.007 53.4191 330.871L54.2529 328.768H51.453C51.3193 329.854 50.1864 330.748 48.7449 330.748H39.07L40.1504 334.546C40.5426 335.924 39.2483 337.24 37.4997 337.24H16.5374C14.7888 337.24 13.4944 335.924 13.8866 334.546L14.7792 331.409H2.17764C0.702744 331.409 -0.344912 330.247 0.105556 329.111L12.4341 298.017C13.0805 296.387 15.9319 296.387 16.5783 298.017L21.0621 309.326L24.3678 297.707Z" fill="#86C23A"/>
<path d="M24.3678 297.707C25.0153 295.431 29.0218 295.431 29.6693 297.707L34.0714 313.179L37.9681 299.474C38.6152 297.198 42.6226 297.198 43.2698 299.474L48.1052 316.481L51.841 303.395C52.4901 301.121 56.4925 301.121 57.1416 303.395L60.1437 313.911L65.7476 299.777C66.394 298.147 69.2454 298.147 69.8918 299.777L74.3756 311.086L77.6813 299.467C78.3288 297.191 82.3353 297.191 82.9828 299.467L87.3849 314.94L91.2816 301.234C91.9288 298.958 95.9361 298.958 96.5833 301.234L101.419 318.241L105.155 305.155C105.804 302.882 109.806 302.882 110.455 305.155L116.929 327.833C117.323 329.212 116.028 330.528 114.279 330.528H104.766C104.633 331.615 103.5 332.509 102.058 332.509H92.3836L93.464 336.306C93.8561 337.685 92.5618 339 90.8132 339H69.8509C68.1023 339 66.808 337.685 67.2002 336.306L68.0927 333.169H55.4912C54.0163 333.169 52.9686 332.007 53.4191 330.871L54.2529 328.768H51.453C51.3193 329.854 50.1864 330.748 48.7449 330.748H39.07L40.1504 334.546C40.5426 335.924 39.2483 337.24 37.4997 337.24H16.5374C14.7888 337.24 13.4944 335.924 13.8866 334.546L14.7792 331.409H2.17764C0.702744 331.409 -0.344912 330.247 0.105556 329.111L12.4341 298.017C13.0805 296.387 15.9319 296.387 16.5783 298.017L21.0621 309.326L24.3678 297.707Z" fill="black" fill-opacity="0.6"/>
<g clip-path="url(#clip0_4685_274370)">
<path d="M267.088 332.084L268.999 330.93L227.956 262.886L226.045 264.04L267.088 332.084Z" fill="#615F5F"/>
<path d="M267.088 332.084L268.999 330.93L227.956 262.886L226.045 264.04L267.088 332.084Z" fill="black" fill-opacity="0.6"/>
<path d="M186.917 332.083L227.946 264.035L226.035 262.881L185.005 330.93L186.917 332.083Z" fill="#615F5F"/>
<path d="M186.917 332.083L227.946 264.035L226.035 262.881L185.005 330.93L186.917 332.083Z" fill="black" fill-opacity="0.6"/>
<path d="M259.904 342.772L261.955 341.889L228.024 263.025L225.974 263.909L259.904 342.772Z" fill="#615F5F"/>
<path d="M259.904 342.772L261.955 341.889L228.024 263.025L225.974 263.909L259.904 342.772Z" fill="black" fill-opacity="0.6"/>
<path d="M194.093 342.768L228.024 263.905L225.974 263.022L192.043 341.885L194.093 342.768Z" fill="#615F5F"/>
<path d="M194.093 342.768L228.024 263.905L225.974 263.022L192.043 341.885L194.093 342.768Z" fill="black" fill-opacity="0.6"/>
<path d="M248.532 347.486L250.688 346.903L228.076 263.176L225.92 263.758L248.532 347.486Z" fill="#615F5F"/>
<path d="M248.532 347.486L250.688 346.903L228.076 263.176L225.92 263.758L248.532 347.486Z" fill="black" fill-opacity="0.6"/>
<path d="M205.472 347.49L228.069 263.758L225.914 263.176L203.317 346.907L205.472 347.49Z" fill="#615F5F"/>
<path d="M205.472 347.49L228.069 263.758L225.914 263.176L203.317 346.907L205.472 347.49Z" fill="black" fill-opacity="0.6"/>
<path d="M238.046 351.103L240.258 350.796L228.109 263.314L225.898 263.621L238.046 351.103Z" fill="#615F5F"/>
<path d="M238.046 351.103L240.258 350.796L228.109 263.314L225.898 263.621L238.046 351.103Z" fill="black" fill-opacity="0.6"/>
<path d="M215.942 351.098L228.106 263.618L225.895 263.31L213.731 350.79L215.942 351.098Z" fill="#615F5F"/>
<path d="M215.942 351.098L228.106 263.618L225.895 263.31L213.731 350.79L215.942 351.098Z" fill="black" fill-opacity="0.6"/>
<path d="M225.884 352L228.116 352L228.116 271.399L225.884 271.399L225.884 352Z" fill="#615F5F"/>
<path d="M225.884 352L228.116 352L228.116 271.399L225.884 271.399L225.884 352Z" fill="black" fill-opacity="0.6"/>
<path d="M230.827 31.8292L230.827 267.609C230.827 269.723 229.113 271.438 227 271.438C224.887 271.438 223.173 269.723 223.173 267.609L223.173 31.8292C223.173 29.7152 224.887 28 227 28C229.113 28 230.827 29.7152 230.827 31.8292Z" fill="#BA6F4A"/>
<path d="M230.827 31.8292L230.827 267.609C230.827 269.723 229.113 271.438 227 271.438C224.887 271.438 223.173 269.723 223.173 267.609L223.173 31.8292C223.173 29.7152 224.887 28 227 28C229.113 28 230.827 29.7152 230.827 31.8292Z" fill="black" fill-opacity="0.6"/>
<path d="M229.522 59.6041L229.521 260.842C229.521 261.54 228.957 262.105 228.259 262.105C227.561 262.105 226.997 261.54 226.997 260.842L226.997 59.6041C226.997 58.9061 227.561 58.341 228.259 58.341C228.957 58.341 229.522 58.9061 229.522 59.6041Z" fill="#D98156"/>
<path d="M229.522 59.6041L229.521 260.842C229.521 261.54 228.957 262.105 228.259 262.105C227.561 262.105 226.997 261.54 226.997 260.842L226.997 59.6041C226.997 58.9061 227.561 58.341 228.259 58.341C228.957 58.341 229.522 58.9061 229.522 59.6041Z" fill="black" fill-opacity="0.6"/>
<path d="M226.999 0.000247504C229.85 0.000247753 232.162 2.31369 232.162 5.16558L232.162 42.3366C232.162 45.1885 229.85 47.502 226.999 47.502C224.149 47.502 221.837 45.1885 221.837 42.3366L221.837 5.16558C221.837 2.31369 224.149 0.000247255 226.999 0.000247504Z" fill="#615F5F"/>
<path d="M226.999 0.000247504C229.85 0.000247753 232.162 2.31369 232.162 5.16558L232.162 42.3366C232.162 45.1885 229.85 47.502 226.999 47.502C224.149 47.502 221.837 45.1885 221.837 42.3366L221.837 5.16558C221.837 2.31369 224.149 0.000247255 226.999 0.000247504Z" fill="black" fill-opacity="0.6"/>
<path d="M251.661 304.532L253.216 306.134C252.953 306.39 226.551 331.465 201.226 306.12L202.804 304.542C212.764 314.507 223.976 317.561 236.123 313.612C245.289 310.638 251.598 304.588 251.661 304.528L251.661 304.532Z" fill="#615F5F"/>
<path d="M240.306 284.548L241.86 286.15C241.714 286.297 226.847 300.416 212.575 286.137L214.153 284.558C226.88 297.289 239.764 285.073 240.306 284.545L240.306 284.548Z" fill="#615F5F"/>
</g>
<path d="M185.125 208.947C183.854 204.768 179.508 202.354 175.404 203.555C171.934 204.571 165.209 209.189 164.04 213.108C162.11 215.334 162.008 221.42 162.829 224.017C163.746 227.028 166.906 228.787 169.862 227.921C172.819 227.054 174.493 223.891 173.576 220.881C173.433 220.386 173.159 219.785 172.827 219.145C175.568 219.377 178.307 219.176 179.968 218.692C184.072 217.492 186.369 213.142 185.125 208.947Z" fill="#FFA9FC"/>
<path d="M185.125 208.947C183.854 204.768 179.508 202.354 175.404 203.555C171.934 204.571 165.209 209.189 164.04 213.108C162.11 215.334 162.008 221.42 162.829 224.017C163.746 227.028 166.906 228.787 169.862 227.921C172.819 227.054 174.493 223.891 173.576 220.881C173.433 220.386 173.159 219.785 172.827 219.145C175.568 219.377 178.307 219.176 179.968 218.692C184.072 217.492 186.369 213.142 185.125 208.947Z" fill="black" fill-opacity="0.6"/>
<path d="M156.76 193.176C160.864 191.975 165.21 194.389 166.481 198.569C167.557 202.102 167.451 210.391 164.88 213.527C164.121 216.381 159.201 219.782 156.635 220.532C153.679 221.399 150.519 219.639 149.602 216.629C148.685 213.618 150.359 210.456 153.315 209.589C153.802 209.454 154.441 209.34 155.138 209.265C153.46 207.016 152.126 204.569 151.614 202.878C150.343 198.699 152.64 194.349 156.744 193.149L156.76 193.176Z" fill="#FFA9FC"/>
<path d="M156.76 193.176C160.864 191.975 165.21 194.389 166.481 198.569C167.557 202.102 167.451 210.391 164.88 213.527C164.121 216.381 159.201 219.782 156.635 220.532C153.679 221.399 150.519 219.639 149.602 216.629C148.685 213.618 150.359 210.456 153.315 209.589C153.802 209.454 154.441 209.34 155.138 209.265C153.46 207.016 152.126 204.569 151.614 202.878C150.343 198.699 152.64 194.349 156.744 193.149L156.76 193.176Z" fill="black" fill-opacity="0.6"/>
<defs>
<clipPath id="clip0_4685_274370">
<rect width="84" height="352" fill="white" transform="translate(269 352) rotate(-180)"/>
</clipPath>
</defs>
</svg>
