<svg width="301" height="352" viewBox="0 0 301 352" fill="none" xmlns="http://www.w3.org/2000/svg">
<path d="M291.17 270H167V279.705H291.17V270Z" fill="#E3AC68"/>
<path d="M291.002 268.263H166.832V277.969H291.002V268.263Z" fill="#FDD69E"/>
<path d="M171.725 268.263H169.29V277.969H171.725V268.263Z" fill="#E3AC68"/>
<path d="M205.695 268.263H203.259V277.969H205.695V268.263Z" fill="#E3AC68"/>
<path d="M239.676 268.263H237.24V277.969H239.676V268.263Z" fill="#E3AC68"/>
<path d="M273.668 268.263H271.232V277.969H273.668V268.263Z" fill="#E3AC68"/>
<path d="M291.002 305.825H166.832V315.53H291.002V305.825Z" fill="#E3AC68"/>
<path d="M291.002 303.732H166.832V313.438H291.002V303.732Z" fill="#FDD69E"/>
<path d="M171.725 303.732H169.29V313.438H171.725V303.732Z" fill="#E3AC68"/>
<path d="M205.695 303.732H203.259V313.438H205.695V303.732Z" fill="#E3AC68"/>
<path d="M239.676 303.732H237.24V313.438H239.676V303.732Z" fill="#E3AC68"/>
<path d="M273.668 303.732H271.232V313.438H273.668V303.732Z" fill="#E3AC68"/>
<path d="M193.417 330H171.714V264.243L182.434 251H185.068L193.417 330Z" fill="#E3AC68"/>
<path d="M196.05 330H174.358V264.243L185.067 251L196.05 264.243V330Z" fill="#FDD69E"/>
<path d="M187.295 273.105C187.295 274.255 186.362 275.186 185.21 275.186C184.058 275.186 183.125 274.255 183.125 273.105C183.125 271.955 184.058 271.024 185.21 271.024C186.362 271.024 187.295 271.955 187.295 273.105Z" fill="#E3AC68"/>
<path d="M187.295 309.626C187.295 310.776 186.362 311.707 185.21 311.707C184.058 311.707 183.125 310.776 183.125 309.626C183.125 308.475 184.058 307.544 185.21 307.544C186.362 307.544 187.295 308.475 187.295 309.626Z" fill="#E3AC68"/>
<path d="M227.398 330H205.706V264.243L216.415 251H219.048L227.398 330Z" fill="#E3AC68"/>
<path d="M230.031 330H208.339V264.243L219.048 251L230.031 264.243V330Z" fill="#FDD69E"/>
<path d="M221.276 273.105C221.276 274.255 220.343 275.186 219.191 275.186C218.039 275.186 217.106 274.255 217.106 273.105C217.106 271.955 218.039 271.024 219.191 271.024C220.343 271.024 221.276 271.955 221.276 273.105Z" fill="#E3AC68"/>
<path d="M221.276 309.626C221.276 310.776 220.343 311.707 219.191 311.707C218.039 311.707 217.106 310.776 217.106 309.626C217.106 308.475 218.039 307.544 219.191 307.544C220.343 307.544 221.276 308.475 221.276 309.626Z" fill="#E3AC68"/>
<path d="M261.379 330H239.676V264.243L250.396 251H253.029L261.379 330Z" fill="#E3AC68"/>
<path d="M264.012 330H242.32V264.243L253.029 251L264.012 264.243V330Z" fill="#FDD69E"/>
<path d="M255.257 273.105C255.257 274.255 254.324 275.186 253.172 275.186C252.02 275.186 251.087 274.255 251.087 273.105C251.087 271.955 252.02 271.024 253.172 271.024C254.324 271.024 255.257 271.955 255.257 273.105Z" fill="#E3AC68"/>
<path d="M255.257 309.626C255.257 310.776 254.324 311.707 253.172 311.707C252.02 311.707 251.087 310.776 251.087 309.626C251.087 308.475 252.02 307.544 253.172 307.544C254.324 307.544 255.257 308.475 255.257 309.626Z" fill="#E3AC68"/>
<path d="M295.36 330H273.668V264.243L284.377 251H287.01L295.36 330Z" fill="#E3AC68"/>
<path d="M297.994 330H276.302V264.243L287.011 251L297.994 264.243V330Z" fill="#FDD69E"/>
<path d="M289.238 273.105C289.238 274.255 288.305 275.186 287.153 275.186C286.001 275.186 285.068 274.255 285.068 273.105C285.068 271.955 286.001 271.024 287.153 271.024C288.305 271.024 289.238 271.955 289.238 273.105Z" fill="#E3AC68"/>
<path d="M289.238 309.626C289.238 310.776 288.305 311.707 287.153 311.707C286.001 311.707 285.068 310.776 285.068 309.626C285.068 308.475 286.001 307.544 287.153 307.544C288.305 307.544 289.238 308.475 289.238 309.626Z" fill="#E3AC68"/>
<path d="M208.168 270.345H74V280.05H208.168V270.345Z" fill="#E3AC68"/>
<path d="M208.168 268.263H74V277.969H208.168V268.263Z" fill="#FDD69E"/>
<path d="M102.875 268.263H100.439V277.969H102.875V268.263Z" fill="#E3AC68"/>
<path d="M136.856 268.263H134.42V277.969H136.856V268.263Z" fill="#E3AC68"/>
<path d="M170.837 268.263H168.401V277.969H170.837V268.263Z" fill="#E3AC68"/>
<path d="M198.168 305.825H64V315.53H198.168V305.825Z" fill="#E3AC68"/>
<path d="M198.168 303.732H64V313.438H198.168V303.732Z" fill="#FDD69E"/>
<path d="M68.8938 303.732H66.458V313.438H68.8938V303.732Z" fill="#E3AC68"/>
<path d="M102.875 303.732H100.439V313.438H102.875V303.732Z" fill="#E3AC68"/>
<path d="M136.856 303.732H134.42V313.438H136.856V303.732Z" fill="#E3AC68"/>
<path d="M170.837 303.732H168.401V313.438H170.837V303.732Z" fill="#E3AC68"/>
<path d="M90.5856 330H68.8936V264.243L79.6024 251H82.2358L90.5856 330Z" fill="#E3AC68"/>
<path d="M93.2189 330H71.5269V264.243L82.2357 251L93.2189 264.243V330Z" fill="#FDD69E"/>
<path d="M84.4634 273.105C84.4634 274.255 83.5308 275.186 82.3787 275.186C81.2266 275.186 80.2939 274.255 80.2939 273.105C80.2939 271.955 81.2266 271.024 82.3787 271.024C83.5308 271.024 84.4634 271.955 84.4634 273.105Z" fill="#E3AC68"/>
<path d="M84.4634 309.626C84.4634 310.776 83.5308 311.707 82.3787 311.707C81.2266 311.707 80.2939 310.776 80.2939 309.626C80.2939 308.475 81.2266 307.544 82.3787 307.544C83.5308 307.544 84.4634 308.475 84.4634 309.626Z" fill="#E3AC68"/>
<path d="M124.567 330H102.875V264.243L113.583 251H116.217L124.567 330Z" fill="#E3AC68"/>
<path d="M127.2 330H105.508V264.243L116.217 251L127.2 264.243V330Z" fill="#FDD69E"/>
<path d="M118.444 273.105C118.444 274.255 117.512 275.186 116.36 275.186C115.208 275.186 114.275 274.255 114.275 273.105C114.275 271.955 115.208 271.024 116.36 271.024C117.512 271.024 118.444 271.955 118.444 273.105Z" fill="#E3AC68"/>
<path d="M118.444 309.626C118.444 310.776 117.512 311.707 116.36 311.707C115.208 311.707 114.275 310.776 114.275 309.626C114.275 308.475 115.208 307.544 116.36 307.544C117.512 307.544 118.444 308.475 118.444 309.626Z" fill="#E3AC68"/>
<path d="M158.548 330H136.855V264.243L147.564 251H150.209L158.548 330Z" fill="#E3AC68"/>
<path d="M161.181 330H139.489V264.243L150.209 251L161.181 264.243V330Z" fill="#FDD69E"/>
<path d="M152.425 273.105C152.425 274.255 151.493 275.186 150.341 275.186C149.189 275.186 148.256 274.255 148.256 273.105C148.256 271.955 149.189 271.024 150.341 271.024C151.493 271.024 152.425 271.955 152.425 273.105Z" fill="#E3AC68"/>
<path d="M152.425 309.626C152.425 310.776 151.493 311.707 150.341 311.707C149.189 311.707 148.256 310.776 148.256 309.626C148.256 308.475 149.189 307.544 150.341 307.544C151.493 307.544 152.425 308.475 152.425 309.626Z" fill="#E3AC68"/>
<path d="M192.529 330H170.836V264.243L181.545 251H184.179L192.529 330Z" fill="#E3AC68"/>
<path d="M195.162 330H173.47V264.243L184.179 251L195.162 264.243V330Z" fill="#FDD69E"/>
<path d="M186.406 273.105C186.406 274.255 185.474 275.186 184.322 275.186C183.169 275.186 182.237 274.255 182.237 273.105C182.237 271.955 183.169 271.024 184.322 271.024C185.474 271.024 186.406 271.955 186.406 273.105Z" fill="#E3AC68"/>
<path d="M186.406 309.626C186.406 310.776 185.474 311.707 184.322 311.707C183.169 311.707 182.237 310.776 182.237 309.626C182.237 308.475 183.169 307.544 184.322 307.544C185.474 307.544 186.406 308.475 186.406 309.626Z" fill="#E3AC68"/>
<path d="M24.3678 297.707C25.0153 295.431 29.0218 295.431 29.6693 297.707L34.0714 313.179L37.9681 299.474C38.6152 297.198 42.6226 297.198 43.2698 299.474L48.1052 316.481L51.841 303.395C52.4901 301.121 56.4925 301.121 57.1416 303.395L60.1437 313.911L65.7476 299.777C66.394 298.147 69.2454 298.147 69.8918 299.777L74.3756 311.086L77.6813 299.467C78.3288 297.191 82.3353 297.191 82.9828 299.467L87.3849 314.94L91.2816 301.234C91.9288 298.958 95.9361 298.958 96.5833 301.234L101.419 318.241L105.155 305.155C105.804 302.882 109.806 302.882 110.455 305.155L116.929 327.833C117.323 329.212 116.028 330.528 114.279 330.528H104.766C104.633 331.615 103.5 332.509 102.058 332.509H92.3836L93.464 336.306C93.8561 337.685 92.5618 339 90.8132 339H69.8509C68.1023 339 66.808 337.685 67.2002 336.306L68.0927 333.169H55.4912C54.0163 333.169 52.9686 332.007 53.4191 330.871L54.2529 328.768H51.453C51.3193 329.854 50.1864 330.748 48.7449 330.748H39.07L40.1504 334.546C40.5426 335.924 39.2483 337.24 37.4997 337.24H16.5374C14.7888 337.24 13.4944 335.924 13.8866 334.546L14.7792 331.409H2.17764C0.702744 331.409 -0.344912 330.247 0.105556 329.111L12.4341 298.017C13.0805 296.387 15.9319 296.387 16.5783 298.017L21.0621 309.326L24.3678 297.707Z" fill="#86C23A"/>
<g clip-path="url(#clip0_4684_44401)">
<path d="M267.088 332.084L269 330.93L227.957 262.886L226.045 264.04L267.088 332.084Z" fill="#615F5F"/>
<path d="M186.918 332.084L227.947 264.036L226.035 262.882L185.006 330.93L186.918 332.084Z" fill="#615F5F"/>
<path d="M259.904 342.772L261.955 341.889L228.024 263.026L225.974 263.909L259.904 342.772Z" fill="#615F5F"/>
<path d="M194.094 342.768L228.025 263.905L225.974 263.022L192.043 341.885L194.094 342.768Z" fill="#615F5F"/>
<path d="M248.532 347.486L250.688 346.903L228.076 263.176L225.92 263.758L248.532 347.486Z" fill="#615F5F"/>
<path d="M205.473 347.489L228.07 263.758L225.914 263.175L203.317 346.907L205.473 347.489Z" fill="#615F5F"/>
<path d="M238.047 351.103L240.258 350.796L228.11 263.313L225.898 263.621L238.047 351.103Z" fill="#615F5F"/>
<path d="M215.942 351.098L228.106 263.618L225.895 263.31L213.731 350.79L215.942 351.098Z" fill="#615F5F"/>
<path d="M225.884 352L228.116 352L228.116 271.399L225.884 271.399L225.884 352Z" fill="#615F5F"/>
<path d="M230.827 31.8295L230.827 267.61C230.827 269.724 229.113 271.439 227 271.439C224.887 271.439 223.173 269.724 223.173 267.61L223.173 31.8295C223.173 29.7155 224.887 28.0004 227 28.0004C229.113 28.0004 230.827 29.7155 230.827 31.8295Z" fill="#BA6F4A"/>
<path d="M229.522 59.604L229.521 260.842C229.521 261.54 228.957 262.105 228.259 262.105C227.561 262.105 226.997 261.54 226.997 260.842L226.997 59.604C226.997 58.9059 227.561 58.3409 228.259 58.3409C228.957 58.3409 229.522 58.9059 229.522 59.604Z" fill="#D98156"/>
<path d="M227 3.36335e-06C229.851 3.61255e-06 232.163 2.31344 232.163 5.16534L232.163 42.3364C232.163 45.1883 229.851 47.5017 227 47.5017C224.15 47.5017 221.837 45.1883 221.837 42.3364L221.838 5.16534C221.838 2.31344 224.15 3.11415e-06 227 3.36335e-06Z" fill="#615F5F"/>
<path d="M251.661 304.532L253.216 306.134C252.954 306.39 226.552 331.465 201.226 306.12L202.804 304.541C212.764 314.506 223.977 317.561 236.123 313.612C245.289 310.637 251.598 304.588 251.661 304.528L251.661 304.532Z" fill="#615F5F"/>
<path d="M240.306 284.548L241.86 286.15C241.714 286.297 226.847 300.417 212.575 286.137L214.153 284.558C226.88 297.289 239.764 285.073 240.306 284.545L240.306 284.548Z" fill="#615F5F"/>
</g>
<path d="M156.76 193.176C160.864 191.975 165.21 194.389 166.481 198.569C167.557 202.102 167.451 210.391 164.88 213.527C164.121 216.381 159.201 219.782 156.635 220.532C153.679 221.399 150.519 219.639 149.602 216.629C148.685 213.618 150.359 210.456 153.315 209.589C153.802 209.454 154.441 209.34 155.138 209.265C153.46 207.016 152.126 204.569 151.614 202.878C150.343 198.699 152.64 194.349 156.744 193.149L156.76 193.176Z" fill="#FFA9FC"/>
<defs>
<clipPath id="clip0_4684_44401">
<rect width="84" height="352" fill="white" transform="translate(269 352) rotate(-180)"/>
</clipPath>
</defs>
</svg>
