<svg width="324" height="130" viewBox="0 0 324 130" fill="none" xmlns="http://www.w3.org/2000/svg">
<path d="M215.31 50.7755C215.967 50.7755 216.5 50.2427 216.5 49.5855C216.5 48.9283 215.967 48.3955 215.31 48.3955C214.652 48.3955 214.12 48.9283 214.12 49.5855C214.12 50.2427 214.652 50.7755 215.31 50.7755Z" fill="white"/>
<path d="M109.76 26.5157C110.417 26.5157 110.95 25.983 110.95 25.3257C110.95 24.6685 110.417 24.1357 109.76 24.1357C109.103 24.1357 108.57 24.6685 108.57 25.3257C108.57 25.983 109.103 26.5157 109.76 26.5157Z" fill="white"/>
<path d="M249.36 23.1154C250.017 23.1154 250.55 22.5826 250.55 21.9254C250.55 21.2681 250.017 20.7354 249.36 20.7354C248.703 20.7354 248.17 21.2681 248.17 21.9254C248.17 22.5826 248.703 23.1154 249.36 23.1154Z" fill="white"/>
<path d="M168.84 52.2657C169.497 52.2657 170.03 51.733 170.03 51.0757C170.03 50.4185 169.497 49.8857 168.84 49.8857C168.183 49.8857 167.65 50.4185 167.65 51.0757C167.65 51.733 168.183 52.2657 168.84 52.2657Z" fill="white"/>
<path d="M233.06 10.2154C233.06 10.8754 233.59 11.4054 234.25 11.4054C234.91 11.4054 235.44 10.8754 235.44 10.2154C235.44 9.55539 234.91 9.02539 234.25 9.02539C233.59 9.02539 233.06 9.55539 233.06 10.2154Z" fill="white"/>
<path d="M119.98 40.8654C120.637 40.8654 121.17 40.3326 121.17 39.6754C121.17 39.0181 120.637 38.4854 119.98 38.4854C119.322 38.4854 118.79 39.0181 118.79 39.6754C118.79 40.3326 119.322 40.8654 119.98 40.8654Z" fill="white"/>
<path d="M281.19 31.8351C281.847 31.8351 282.38 31.3023 282.38 30.6451C282.38 29.9879 281.847 29.4551 281.19 29.4551C280.532 29.4551 280 29.9879 280 30.6451C280 31.3023 280.532 31.8351 281.19 31.8351Z" fill="white"/>
<path d="M14.4297 36.2652C14.4297 36.9252 14.9597 37.4552 15.6197 37.4552C16.2797 37.4552 16.8097 36.9252 16.8097 36.2652C16.8097 35.6052 16.2797 35.0752 15.6197 35.0752C14.9597 35.0752 14.4297 35.6052 14.4297 36.2652Z" fill="white"/>
<path d="M149.94 28.8045C150.409 28.8045 150.79 28.4239 150.79 27.9545C150.79 27.4851 150.409 27.1045 149.94 27.1045C149.47 27.1045 149.09 27.4851 149.09 27.9545C149.09 28.4239 149.47 28.8045 149.94 28.8045Z" fill="white"/>
<path d="M172.9 33.9252C172.9 34.3952 173.28 34.7752 173.75 34.7752C174.22 34.7752 174.6 34.3952 174.6 33.9252C174.6 33.4552 174.22 33.0752 173.75 33.0752C173.28 33.0752 172.9 33.4552 172.9 33.9252Z" fill="white"/>
<path d="M167.99 53.115C168.459 53.115 168.84 52.7345 168.84 52.265C168.84 51.7956 168.459 51.415 167.99 51.415C167.52 51.415 167.14 51.7956 167.14 52.265C167.14 52.7345 167.52 53.115 167.99 53.115Z" fill="white"/>
<path d="M209.03 56.7152C209.03 57.1852 209.41 57.5652 209.88 57.5652C210.35 57.5652 210.73 57.1852 210.73 56.7152C210.73 56.2452 210.35 55.8652 209.88 55.8652C209.41 55.8652 209.03 56.2452 209.03 56.7152Z" fill="white"/>
<path d="M254.34 49.9047C254.34 50.3747 254.72 50.7547 255.19 50.7547C255.66 50.7547 256.04 50.3747 256.04 49.9047C256.04 49.4347 255.66 49.0547 255.19 49.0547C254.72 49.0547 254.34 49.4347 254.34 49.9047Z" fill="white"/>
<path d="M320.54 45.6449C320.54 46.1149 320.92 46.4949 321.39 46.4949C321.86 46.4949 322.24 46.1149 322.24 45.6449C322.24 45.1749 321.86 44.7949 321.39 44.7949C320.92 44.7949 320.54 45.1749 320.54 45.6449Z" fill="white"/>
<path d="M322.24 60.1147C322.24 60.5847 322.62 60.9646 323.09 60.9646C323.56 60.9646 323.94 60.5847 323.94 60.1147C323.94 59.6447 323.56 59.2646 323.09 59.2646C322.62 59.2646 322.24 59.6447 322.24 60.1147Z" fill="white"/>
<path d="M110.1 60.7049C110.569 60.7049 110.95 60.3243 110.95 59.8549C110.95 59.3854 110.569 59.0049 110.1 59.0049C109.631 59.0049 109.25 59.3854 109.25 59.8549C109.25 60.3243 109.631 60.7049 110.1 60.7049Z" fill="white"/>
<path d="M163.92 87.3549C163.92 87.8249 164.3 88.2049 164.77 88.2049C165.24 88.2049 165.62 87.8249 165.62 87.3549C165.62 86.8849 165.24 86.5049 164.77 86.5049C164.3 86.5049 163.92 86.8849 163.92 87.3549Z" fill="white"/>
<path d="M73.6899 77.1449C73.6899 77.6149 74.0699 77.9949 74.5399 77.9949C75.0099 77.9949 75.3899 77.6149 75.3899 77.1449C75.3899 76.6749 75.0099 76.2949 74.5399 76.2949C74.0699 76.2949 73.6899 76.6749 73.6899 77.1449Z" fill="white"/>
<path d="M52.2196 54.1951C52.6891 54.1951 53.0696 53.8146 53.0696 53.3451C53.0696 52.8757 52.6891 52.4951 52.2196 52.4951C51.7502 52.4951 51.3696 52.8757 51.3696 53.3451C51.3696 53.8146 51.7502 54.1951 52.2196 54.1951Z" fill="white"/>
<path d="M309.48 84.8045C309.949 84.8045 310.33 84.4239 310.33 83.9545C310.33 83.485 309.949 83.1045 309.48 83.1045C309.01 83.1045 308.63 83.485 308.63 83.9545C308.63 84.4239 309.01 84.8045 309.48 84.8045Z" fill="white"/>
<path d="M73.8896 25.0346C73.8896 25.5046 74.2696 25.8846 74.7396 25.8846C75.2096 25.8846 75.5896 25.5046 75.5896 25.0346C75.5896 24.5646 75.2096 24.1846 74.7396 24.1846C74.2696 24.1846 73.8896 24.5646 73.8896 25.0346Z" fill="white"/>
<path d="M196.27 29.4754C196.739 29.4754 197.12 29.0948 197.12 28.6254C197.12 28.1559 196.739 27.7754 196.27 27.7754C195.8 27.7754 195.42 28.1559 195.42 28.6254C195.42 29.0948 195.8 29.4754 196.27 29.4754Z" fill="white"/>
<path d="M40.6898 29.285C41.1593 29.285 41.5398 28.9044 41.5398 28.435C41.5398 27.9655 41.1593 27.585 40.6898 27.585C40.2204 27.585 39.8398 27.9655 39.8398 28.435C39.8398 28.9044 40.2204 29.285 40.6898 29.285Z" fill="white"/>
<path d="M277.98 66.9246C278.449 66.9246 278.83 66.544 278.83 66.0746C278.83 65.6052 278.449 65.2246 277.98 65.2246C277.51 65.2246 277.13 65.6052 277.13 66.0746C277.13 66.544 277.51 66.9246 277.98 66.9246Z" fill="white"/>
<path d="M108.78 17.7449C109.249 17.7449 109.63 17.3644 109.63 16.8949C109.63 16.4255 109.249 16.0449 108.78 16.0449C108.31 16.0449 107.93 16.4255 107.93 16.8949C107.93 17.3644 108.31 17.7449 108.78 17.7449Z" fill="white"/>
<path d="M187.09 105.556H190.15V91.1957H187.09V105.556Z" fill="#9E5E21"/>
<path d="M181.98 99.3657H195.26L188.62 77.8457L181.98 99.3657Z" fill="#B89B00"/>
<path d="M183.13 90.6352H194.11L188.62 72.8252L183.13 90.6352Z" fill="#B89B00"/>
<path d="M184.44 81.8152H192.8L188.62 68.2852L184.44 81.8152Z" fill="#B89B00"/>
<path d="M185.66 74.2953H191.58L188.62 64.6953L185.66 74.2953Z" fill="#B89B00"/>
<path d="M185.66 74.2953L188.62 71.5053L191.58 74.2953L188.62 64.6953L185.66 74.2953Z" fill="white"/>
<path d="M51.07 62.5645L102.14 129.384H0L51.07 62.5645Z" fill="#7F92A0"/>
<path d="M51.07 62.5645L35.19 129.384H0L51.07 62.5645Z" fill="#708695"/>
<path d="M102.14 129.384H66.9398L51.0698 62.5645L102.14 129.384Z" fill="#8D9EAA"/>
<path d="M51.0701 62.5645L66.0101 82.1045C65.2601 82.3545 63.7401 81.4844 62.9601 81.7044C62.1901 81.9144 62.0401 83.2544 61.2401 83.4244C60.4501 83.5944 59.1401 82.5744 58.3301 82.7044C57.5201 82.8344 57.0501 84.1345 56.2201 84.2245C55.4001 84.3145 54.3501 83.1645 53.5101 83.2145C52.6801 83.2545 51.9101 84.4944 51.0701 84.4944C50.2401 84.4944 49.4701 83.2545 48.6301 83.2145C47.8001 83.1744 46.7501 84.3145 45.9201 84.2245C45.0901 84.1345 44.6201 82.8344 43.8101 82.7044C42.9901 82.5744 41.6901 83.5944 40.9001 83.4244C40.1001 83.2544 39.9401 81.9144 39.1701 81.7044C38.3901 81.4944 36.8701 82.3645 36.1201 82.1145L51.0601 62.5645H51.0701Z" fill="#F1F3F4"/>
<path d="M45.9201 84.2245C45.0901 84.1345 44.6201 82.8344 43.8101 82.7044C42.9901 82.5744 41.6901 83.5944 40.9001 83.4244C40.1001 83.2544 39.9401 81.9144 39.1701 81.7044C38.3901 81.4944 36.8701 82.3645 36.1201 82.1145L51.0601 62.5645L45.9101 84.2245H45.9201Z" fill="#E2E7EA"/>
<path d="M66.0001 82.1047C65.2501 82.3547 63.7301 81.4847 62.9501 81.7047C62.1801 81.9147 62.0301 83.2547 61.2301 83.4247C60.4401 83.5947 59.1301 82.5747 58.3201 82.7047C57.5101 82.8347 57.0401 84.1347 56.2101 84.2247L51.0601 62.5547L66.0001 82.0947V82.1047Z" fill="white"/>
<path d="M118.31 35.8359L189.81 129.386H46.8096L118.31 35.8359Z" fill="#7F92A0"/>
<path d="M118.31 35.8359L96.0896 129.386H46.8096L118.31 35.8359Z" fill="#708695"/>
<path d="M189.81 129.386H140.54L118.31 35.8359L189.81 129.386Z" fill="#8D9EAA"/>
<path d="M118.309 35.8359L139.219 63.1959C138.179 63.5459 136.039 62.3359 134.959 62.6359C133.879 62.9359 133.669 64.8059 132.549 65.0459C131.439 65.2859 129.609 63.8559 128.469 64.0459C127.329 64.2259 126.679 66.0559 125.519 66.1759C124.369 66.2959 122.899 64.6959 121.729 64.7559C120.569 64.8159 119.489 66.5459 118.309 66.5459C117.149 66.5459 116.079 64.8059 114.899 64.7459C113.739 64.6859 112.269 66.2859 111.109 66.1659C109.939 66.0459 109.289 64.2159 108.159 64.0359C107.009 63.8559 105.189 65.2859 104.079 65.0459C102.959 64.8059 102.739 62.9359 101.659 62.6359C100.569 62.3359 98.4394 63.5559 97.3994 63.2059L118.319 35.8359H118.309Z" fill="#F1F3F4"/>
<path d="M111.109 66.1659C109.939 66.0459 109.289 64.2159 108.159 64.0359C107.009 63.8559 105.189 65.2859 104.079 65.0459C102.959 64.8059 102.739 62.9359 101.659 62.6359C100.569 62.3359 98.4394 63.5559 97.3994 63.2059L118.319 35.8359L111.109 66.1659Z" fill="#E2E7EA"/>
<path d="M139.22 63.1959C138.18 63.5459 136.04 62.3359 134.96 62.6359C133.88 62.9359 133.67 64.8059 132.55 65.0459C131.44 65.2859 129.61 63.8559 128.47 64.0459C127.33 64.2259 126.68 66.0559 125.52 66.1759L118.31 35.8359L139.22 63.1959Z" fill="white"/>
<path d="M202.96 91.9754C202.96 100.645 205.54 103.195 208.73 103.195C211.92 103.195 214.5 100.655 214.5 91.9754C214.5 83.2954 211.92 76.2754 208.73 76.2754C205.54 76.2754 202.96 83.3054 202.96 91.9754Z" fill="#E2E7EA"/>
<path d="M208.73 91.6553L210.17 108.955H207.29L208.73 91.6553Z" fill="#9E5E21"/>
<path d="M188.45 102.825C209.05 102.825 226.81 113.705 234.93 129.385H141.98C150.1 113.705 167.85 102.825 188.46 102.825H188.45Z" fill="white"/>
<path d="M26.5597 17.8956C26.7697 15.3756 29.6697 13.5556 33.0297 13.8356C33.3597 13.8656 33.6797 13.9156 33.9997 13.9856C35.4597 12.2356 38.0497 11.1856 40.8997 11.4256C43.7297 11.6656 46.0897 13.1056 47.2497 15.0456C49.5197 15.4056 51.1797 16.8456 51.0497 18.4056C50.9197 19.9756 49.0397 21.1156 46.7497 21.0956C45.2797 22.8156 42.7197 23.8456 39.8897 23.6156C38.4297 23.4956 37.0897 23.0456 35.9797 22.3756C34.9197 22.8556 33.6397 23.0956 32.2797 22.9756C28.9197 22.6956 26.3597 20.4256 26.5697 17.8956H26.5597Z" fill="white"/>
<path d="M260.82 21.2251C261.06 18.2751 264.45 16.1551 268.37 16.4851C268.76 16.5151 269.13 16.5751 269.5 16.6551C271.2 14.6151 274.22 13.3951 277.55 13.6651C280.85 13.9351 283.61 15.6251 284.96 17.8851C287.6 18.3051 289.55 19.9851 289.39 21.8051C289.24 23.6351 287.05 24.9651 284.37 24.9451C282.66 26.9551 279.66 28.1551 276.36 27.8851C274.65 27.7451 273.09 27.2251 271.79 26.4451C270.55 27.0051 269.06 27.2751 267.47 27.1451C263.54 26.8151 260.56 24.1651 260.81 21.2251H260.82Z" fill="white"/>
<path d="M187.28 38.0947C187.63 33.8847 192.46 30.8547 198.07 31.3247C198.62 31.3747 199.16 31.4547 199.69 31.5647C202.12 28.6547 206.44 26.9047 211.19 27.3047C215.9 27.6947 219.84 30.0947 221.78 33.3347C225.56 33.9347 228.33 36.3347 228.11 38.9447C227.89 41.5547 224.76 43.4547 220.94 43.4247C218.5 46.2947 214.22 48.0147 209.5 47.6247C207.06 47.4247 204.83 46.6847 202.98 45.5647C201.21 46.3647 199.08 46.7547 196.81 46.5647C191.2 46.0947 186.94 42.3047 187.29 38.1047L187.28 38.0947Z" fill="white"/>
<path d="M88.1298 8.68531C88.4098 5.31531 92.2699 2.89531 96.7599 3.26531C97.1999 3.30531 97.6298 3.37531 98.0498 3.45531C99.9998 1.12531 103.45 -0.274692 107.25 0.0453084C111.02 0.355308 114.17 2.28531 115.72 4.86531C118.74 5.34531 120.96 7.26531 120.79 9.35531C120.62 11.4453 118.11 12.9653 115.05 12.9453C113.1 15.2453 109.67 16.6153 105.9 16.3053C103.95 16.1453 102.16 15.5453 100.68 14.6553C99.2699 15.2953 97.5599 15.6053 95.7499 15.4553C91.2599 15.0853 87.8498 12.0553 88.1298 8.68531Z" fill="white"/>
<path d="M96.5298 101.086C96.5298 115.536 100.83 119.776 106.14 119.776C111.45 119.776 115.75 115.536 115.75 101.086C115.75 86.636 111.45 74.916 106.14 74.916C100.83 74.916 96.5298 86.636 96.5298 101.086Z" fill="#E2E7EA"/>
<path d="M106.14 100.546L108.55 129.386H103.74L106.14 100.546Z" fill="#9E5E21"/>
<path d="M295.15 83.4258L297.06 129.386H293.23L295.15 83.4258Z" fill="#9E5E21"/>
<path d="M295.15 91.1858V92.5658L287.25 83.4258L295.15 91.1858Z" fill="#9E5E21"/>
<path d="M295.15 101.576V103.296L306.32 91.8662L295.15 101.576Z" fill="#9E5E21"/>
<path d="M295.15 112.286V114.356L282.51 101.406L295.15 112.286Z" fill="#9E5E21"/>
<path d="M70.0498 108.155C70.0498 118.995 73.2798 122.175 77.2598 122.175C81.2398 122.175 84.4698 118.995 84.4698 108.155C84.4698 97.3154 81.2398 88.5254 77.2598 88.5254C73.2798 88.5254 70.0498 97.3154 70.0498 108.155Z" fill="#E2E7EA"/>
<path d="M77.26 107.756L79.07 129.386H75.46L77.26 107.756Z" fill="#9E5E21"/>
<path d="M260.459 105.555L259.399 129.385H261.529L260.459 105.555Z" fill="#9E5E21"/>
<path d="M260.459 109.575V110.295L264.289 105.555L260.459 109.575Z" fill="#9E5E21"/>
<path d="M260.46 114.965V115.855L255.35 109.935L260.46 114.965Z" fill="#9E5E21"/>
<path d="M260.459 120.515V121.595L265.569 114.875L260.459 120.515Z" fill="#9E5E21"/>
<path d="M238.33 129.395H243.44V105.465H238.33V129.395Z" fill="#9E5E21"/>
<path d="M229.82 119.075H251.95L240.88 83.2148L229.82 119.075Z" fill="#B89B00"/>
<path d="M231.73 104.515H250.04L240.88 74.835L231.73 104.515Z" fill="#B89B00"/>
<path d="M233.92 89.8246H247.84L240.88 67.2646L233.92 89.8246Z" fill="#B89B00"/>
<path d="M235.95 77.2949H245.82L240.88 61.2949L235.95 77.2949Z" fill="#B89B00"/>
<path d="M235.95 77.2949L240.88 72.6449L245.82 77.2949L240.88 61.2949L235.95 77.2949Z" fill="white"/>
<path d="M163 129.386H170.66V108.956H163V129.386Z" fill="#9E5E21"/>
<path d="M146.4 118.585H187.26L166.83 92.4053L146.4 118.585Z" fill="#897D3C"/>
<path d="M151.3 106.675H182.36L166.83 86.7754L151.3 106.675Z" fill="#897D3C"/>
<path d="M166.83 80.3555L178.68 95.5455H154.98L166.83 80.3555Z" fill="#897D3C"/>
<path d="M154.98 95.5455L166.83 90.5755L178.68 95.5455L166.83 80.3555L154.98 95.5455Z" fill="white"/>
</svg>
