<svg width="324" height="121" viewBox="0 0 324 121" fill="none" xmlns="http://www.w3.org/2000/svg">
<path d="M215.31 41.7501C215.967 41.7501 216.5 41.2173 216.5 40.5601C216.5 39.9029 215.967 39.3701 215.31 39.3701C214.652 39.3701 214.12 39.9029 214.12 40.5601C214.12 41.2173 214.652 41.7501 215.31 41.7501Z" fill="white"/>
<path d="M215.31 41.7501C215.967 41.7501 216.5 41.2173 216.5 40.5601C216.5 39.9029 215.967 39.3701 215.31 39.3701C214.652 39.3701 214.12 39.9029 214.12 40.5601C214.12 41.2173 214.652 41.7501 215.31 41.7501Z" fill="black" fill-opacity="0.6"/>
<path d="M109.76 17.4904C110.417 17.4904 110.95 16.9576 110.95 16.3004C110.95 15.6431 110.417 15.1104 109.76 15.1104C109.103 15.1104 108.57 15.6431 108.57 16.3004C108.57 16.9576 109.103 17.4904 109.76 17.4904Z" fill="white"/>
<path d="M109.76 17.4904C110.417 17.4904 110.95 16.9576 110.95 16.3004C110.95 15.6431 110.417 15.1104 109.76 15.1104C109.103 15.1104 108.57 15.6431 108.57 16.3004C108.57 16.9576 109.103 17.4904 109.76 17.4904Z" fill="black" fill-opacity="0.6"/>
<path d="M249.36 14.09C250.017 14.09 250.55 13.5572 250.55 12.9C250.55 12.2427 250.017 11.71 249.36 11.71C248.703 11.71 248.17 12.2427 248.17 12.9C248.17 13.5572 248.703 14.09 249.36 14.09Z" fill="white"/>
<path d="M249.36 14.09C250.017 14.09 250.55 13.5572 250.55 12.9C250.55 12.2427 250.017 11.71 249.36 11.71C248.703 11.71 248.17 12.2427 248.17 12.9C248.17 13.5572 248.703 14.09 249.36 14.09Z" fill="black" fill-opacity="0.6"/>
<path d="M168.84 43.2403C169.497 43.2403 170.03 42.7076 170.03 42.0504C170.03 41.3931 169.497 40.8604 168.84 40.8604C168.183 40.8604 167.65 41.3931 167.65 42.0504C167.65 42.7076 168.183 43.2403 168.84 43.2403Z" fill="white"/>
<path d="M168.84 43.2403C169.497 43.2403 170.03 42.7076 170.03 42.0504C170.03 41.3931 169.497 40.8604 168.84 40.8604C168.183 40.8604 167.65 41.3931 167.65 42.0504C167.65 42.7076 168.183 43.2403 168.84 43.2403Z" fill="black" fill-opacity="0.6"/>
<path d="M233.06 1.19C233.06 1.85 233.59 2.38 234.25 2.38C234.91 2.38 235.44 1.85 235.44 1.19C235.44 0.53 234.91 0 234.25 0C233.59 0 233.06 0.53 233.06 1.19Z" fill="white"/>
<path d="M233.06 1.19C233.06 1.85 233.59 2.38 234.25 2.38C234.91 2.38 235.44 1.85 235.44 1.19C235.44 0.53 234.91 0 234.25 0C233.59 0 233.06 0.53 233.06 1.19Z" fill="black" fill-opacity="0.6"/>
<path d="M119.98 31.84C120.637 31.84 121.17 31.3072 121.17 30.65C121.17 29.9927 120.637 29.46 119.98 29.46C119.322 29.46 118.79 29.9927 118.79 30.65C118.79 31.3072 119.322 31.84 119.98 31.84Z" fill="white"/>
<path d="M119.98 31.84C120.637 31.84 121.17 31.3072 121.17 30.65C121.17 29.9927 120.637 29.46 119.98 29.46C119.322 29.46 118.79 29.9927 118.79 30.65C118.79 31.3072 119.322 31.84 119.98 31.84Z" fill="black" fill-opacity="0.6"/>
<path d="M281.19 22.8097C281.847 22.8097 282.38 22.2769 282.38 21.6197C282.38 20.9625 281.847 20.4297 281.19 20.4297C280.532 20.4297 280 20.9625 280 21.6197C280 22.2769 280.532 22.8097 281.19 22.8097Z" fill="white"/>
<path d="M281.19 22.8097C281.847 22.8097 282.38 22.2769 282.38 21.6197C282.38 20.9625 281.847 20.4297 281.19 20.4297C280.532 20.4297 280 20.9625 280 21.6197C280 22.2769 280.532 22.8097 281.19 22.8097Z" fill="black" fill-opacity="0.6"/>
<path d="M14.4297 27.2398C14.4297 27.8998 14.9597 28.4298 15.6197 28.4298C16.2797 28.4298 16.8097 27.8998 16.8097 27.2398C16.8097 26.5798 16.2797 26.0498 15.6197 26.0498C14.9597 26.0498 14.4297 26.5798 14.4297 27.2398Z" fill="white"/>
<path d="M14.4297 27.2398C14.4297 27.8998 14.9597 28.4298 15.6197 28.4298C16.2797 28.4298 16.8097 27.8998 16.8097 27.2398C16.8097 26.5798 16.2797 26.0498 15.6197 26.0498C14.9597 26.0498 14.4297 26.5798 14.4297 27.2398Z" fill="black" fill-opacity="0.6"/>
<path d="M149.94 19.7791C150.409 19.7791 150.79 19.3985 150.79 18.9291C150.79 18.4597 150.409 18.0791 149.94 18.0791C149.47 18.0791 149.09 18.4597 149.09 18.9291C149.09 19.3985 149.47 19.7791 149.94 19.7791Z" fill="white"/>
<path d="M149.94 19.7791C150.409 19.7791 150.79 19.3985 150.79 18.9291C150.79 18.4597 150.409 18.0791 149.94 18.0791C149.47 18.0791 149.09 18.4597 149.09 18.9291C149.09 19.3985 149.47 19.7791 149.94 19.7791Z" fill="black" fill-opacity="0.6"/>
<path d="M172.9 24.8998C172.9 25.3698 173.28 25.7498 173.75 25.7498C174.22 25.7498 174.6 25.3698 174.6 24.8998C174.6 24.4298 174.22 24.0498 173.75 24.0498C173.28 24.0498 172.9 24.4298 172.9 24.8998Z" fill="white"/>
<path d="M172.9 24.8998C172.9 25.3698 173.28 25.7498 173.75 25.7498C174.22 25.7498 174.6 25.3698 174.6 24.8998C174.6 24.4298 174.22 24.0498 173.75 24.0498C173.28 24.0498 172.9 24.4298 172.9 24.8998Z" fill="black" fill-opacity="0.6"/>
<path d="M167.99 44.0896C168.459 44.0896 168.84 43.7091 168.84 43.2396C168.84 42.7702 168.459 42.3896 167.99 42.3896C167.52 42.3896 167.14 42.7702 167.14 43.2396C167.14 43.7091 167.52 44.0896 167.99 44.0896Z" fill="white"/>
<path d="M167.99 44.0896C168.459 44.0896 168.84 43.7091 168.84 43.2396C168.84 42.7702 168.459 42.3896 167.99 42.3896C167.52 42.3896 167.14 42.7702 167.14 43.2396C167.14 43.7091 167.52 44.0896 167.99 44.0896Z" fill="black" fill-opacity="0.6"/>
<path d="M209.03 47.6898C209.03 48.1598 209.41 48.5398 209.88 48.5398C210.35 48.5398 210.73 48.1598 210.73 47.6898C210.73 47.2198 210.35 46.8398 209.88 46.8398C209.41 46.8398 209.03 47.2198 209.03 47.6898Z" fill="white"/>
<path d="M209.03 47.6898C209.03 48.1598 209.41 48.5398 209.88 48.5398C210.35 48.5398 210.73 48.1598 210.73 47.6898C210.73 47.2198 210.35 46.8398 209.88 46.8398C209.41 46.8398 209.03 47.2198 209.03 47.6898Z" fill="black" fill-opacity="0.6"/>
<path d="M254.34 40.8793C254.34 41.3493 254.72 41.7293 255.19 41.7293C255.66 41.7293 256.04 41.3493 256.04 40.8793C256.04 40.4093 255.66 40.0293 255.19 40.0293C254.72 40.0293 254.34 40.4093 254.34 40.8793Z" fill="white"/>
<path d="M254.34 40.8793C254.34 41.3493 254.72 41.7293 255.19 41.7293C255.66 41.7293 256.04 41.3493 256.04 40.8793C256.04 40.4093 255.66 40.0293 255.19 40.0293C254.72 40.0293 254.34 40.4093 254.34 40.8793Z" fill="black" fill-opacity="0.6"/>
<path d="M320.54 36.6195C320.54 37.0895 320.92 37.4695 321.39 37.4695C321.86 37.4695 322.24 37.0895 322.24 36.6195C322.24 36.1495 321.86 35.7695 321.39 35.7695C320.92 35.7695 320.54 36.1495 320.54 36.6195Z" fill="white"/>
<path d="M320.54 36.6195C320.54 37.0895 320.92 37.4695 321.39 37.4695C321.86 37.4695 322.24 37.0895 322.24 36.6195C322.24 36.1495 321.86 35.7695 321.39 35.7695C320.92 35.7695 320.54 36.1495 320.54 36.6195Z" fill="black" fill-opacity="0.6"/>
<path d="M322.24 51.0893C322.24 51.5593 322.62 51.9393 323.09 51.9393C323.56 51.9393 323.94 51.5593 323.94 51.0893C323.94 50.6193 323.56 50.2393 323.09 50.2393C322.62 50.2393 322.24 50.6193 322.24 51.0893Z" fill="white"/>
<path d="M322.24 51.0893C322.24 51.5593 322.62 51.9393 323.09 51.9393C323.56 51.9393 323.94 51.5593 323.94 51.0893C323.94 50.6193 323.56 50.2393 323.09 50.2393C322.62 50.2393 322.24 50.6193 322.24 51.0893Z" fill="black" fill-opacity="0.6"/>
<path d="M110.1 51.6795C110.569 51.6795 110.95 51.2989 110.95 50.8295C110.95 50.36 110.569 49.9795 110.1 49.9795C109.631 49.9795 109.25 50.36 109.25 50.8295C109.25 51.2989 109.631 51.6795 110.1 51.6795Z" fill="white"/>
<path d="M163.92 78.3295C163.92 78.7995 164.3 79.1795 164.77 79.1795C165.24 79.1795 165.62 78.7995 165.62 78.3295C165.62 77.8595 165.24 77.4795 164.77 77.4795C164.3 77.4795 163.92 77.8595 163.92 78.3295Z" fill="white"/>
<path d="M73.6899 68.1195C73.6899 68.5895 74.0699 68.9695 74.5399 68.9695C75.0099 68.9695 75.3899 68.5895 75.3899 68.1195C75.3899 67.6495 75.0099 67.2695 74.5399 67.2695C74.0699 67.2695 73.6899 67.6495 73.6899 68.1195Z" fill="white"/>
<path d="M73.6899 68.1195C73.6899 68.5895 74.0699 68.9695 74.5399 68.9695C75.0099 68.9695 75.3899 68.5895 75.3899 68.1195C75.3899 67.6495 75.0099 67.2695 74.5399 67.2695C74.0699 67.2695 73.6899 67.6495 73.6899 68.1195Z" fill="black" fill-opacity="0.6"/>
<path d="M52.2196 45.1697C52.6891 45.1697 53.0696 44.7892 53.0696 44.3197C53.0696 43.8503 52.6891 43.4697 52.2196 43.4697C51.7502 43.4697 51.3696 43.8503 51.3696 44.3197C51.3696 44.7892 51.7502 45.1697 52.2196 45.1697Z" fill="white"/>
<path d="M52.2196 45.1697C52.6891 45.1697 53.0696 44.7892 53.0696 44.3197C53.0696 43.8503 52.6891 43.4697 52.2196 43.4697C51.7502 43.4697 51.3696 43.8503 51.3696 44.3197C51.3696 44.7892 51.7502 45.1697 52.2196 45.1697Z" fill="black" fill-opacity="0.6"/>
<path d="M309.48 75.7791C309.949 75.7791 310.33 75.3985 310.33 74.9291C310.33 74.4597 309.949 74.0791 309.48 74.0791C309.01 74.0791 308.63 74.4597 308.63 74.9291C308.63 75.3985 309.01 75.7791 309.48 75.7791Z" fill="white"/>
<path d="M309.48 75.7791C309.949 75.7791 310.33 75.3985 310.33 74.9291C310.33 74.4597 309.949 74.0791 309.48 74.0791C309.01 74.0791 308.63 74.4597 308.63 74.9291C308.63 75.3985 309.01 75.7791 309.48 75.7791Z" fill="black" fill-opacity="0.6"/>
<path d="M73.8896 16.0092C73.8896 16.4792 74.2696 16.8592 74.7396 16.8592C75.2096 16.8592 75.5896 16.4792 75.5896 16.0092C75.5896 15.5392 75.2096 15.1592 74.7396 15.1592C74.2696 15.1592 73.8896 15.5392 73.8896 16.0092Z" fill="white"/>
<path d="M73.8896 16.0092C73.8896 16.4792 74.2696 16.8592 74.7396 16.8592C75.2096 16.8592 75.5896 16.4792 75.5896 16.0092C75.5896 15.5392 75.2096 15.1592 74.7396 15.1592C74.2696 15.1592 73.8896 15.5392 73.8896 16.0092Z" fill="black" fill-opacity="0.6"/>
<path d="M196.27 20.45C196.739 20.45 197.12 20.0694 197.12 19.6C197.12 19.1306 196.739 18.75 196.27 18.75C195.8 18.75 195.42 19.1306 195.42 19.6C195.42 20.0694 195.8 20.45 196.27 20.45Z" fill="white"/>
<path d="M196.27 20.45C196.739 20.45 197.12 20.0694 197.12 19.6C197.12 19.1306 196.739 18.75 196.27 18.75C195.8 18.75 195.42 19.1306 195.42 19.6C195.42 20.0694 195.8 20.45 196.27 20.45Z" fill="black" fill-opacity="0.6"/>
<path d="M40.6898 20.2596C41.1593 20.2596 41.5398 19.879 41.5398 19.4096C41.5398 18.9401 41.1593 18.5596 40.6898 18.5596C40.2204 18.5596 39.8398 18.9401 39.8398 19.4096C39.8398 19.879 40.2204 20.2596 40.6898 20.2596Z" fill="white"/>
<path d="M40.6898 20.2596C41.1593 20.2596 41.5398 19.879 41.5398 19.4096C41.5398 18.9401 41.1593 18.5596 40.6898 18.5596C40.2204 18.5596 39.8398 18.9401 39.8398 19.4096C39.8398 19.879 40.2204 20.2596 40.6898 20.2596Z" fill="black" fill-opacity="0.6"/>
<path d="M277.98 57.8992C278.449 57.8992 278.83 57.5187 278.83 57.0492C278.83 56.5798 278.449 56.1992 277.98 56.1992C277.51 56.1992 277.13 56.5798 277.13 57.0492C277.13 57.5187 277.51 57.8992 277.98 57.8992Z" fill="white"/>
<path d="M277.98 57.8992C278.449 57.8992 278.83 57.5187 278.83 57.0492C278.83 56.5798 278.449 56.1992 277.98 56.1992C277.51 56.1992 277.13 56.5798 277.13 57.0492C277.13 57.5187 277.51 57.8992 277.98 57.8992Z" fill="black" fill-opacity="0.6"/>
<path d="M108.78 8.71953C109.249 8.71953 109.63 8.33897 109.63 7.86953C109.63 7.40009 109.249 7.01953 108.78 7.01953C108.31 7.01953 107.93 7.40009 107.93 7.86953C107.93 8.33897 108.31 8.71953 108.78 8.71953Z" fill="white"/>
<path d="M108.78 8.71953C109.249 8.71953 109.63 8.33897 109.63 7.86953C109.63 7.40009 109.249 7.01953 108.78 7.01953C108.31 7.01953 107.93 7.40009 107.93 7.86953C107.93 8.33897 108.31 8.71953 108.78 8.71953Z" fill="black" fill-opacity="0.6"/>
<path d="M187.09 96.5303H190.15V82.1703H187.09V96.5303Z" fill="#9E5E21"/>
<path d="M187.09 96.5303H190.15V82.1703H187.09V96.5303Z" fill="black" fill-opacity="0.6"/>
<path d="M181.98 90.3403H195.26L188.62 68.8203L181.98 90.3403Z" fill="#B89B00"/>
<path d="M181.98 90.3403H195.26L188.62 68.8203L181.98 90.3403Z" fill="black" fill-opacity="0.6"/>
<path d="M183.13 81.6098H194.11L188.62 63.7998L183.13 81.6098Z" fill="#B89B00"/>
<path d="M183.13 81.6098H194.11L188.62 63.7998L183.13 81.6098Z" fill="black" fill-opacity="0.6"/>
<path d="M184.44 72.7898H192.8L188.62 59.2598L184.44 72.7898Z" fill="#B89B00"/>
<path d="M184.44 72.7898H192.8L188.62 59.2598L184.44 72.7898Z" fill="black" fill-opacity="0.6"/>
<path d="M185.66 65.2699H191.58L188.62 55.6699L185.66 65.2699Z" fill="#B89B00"/>
<path d="M185.66 65.2699H191.58L188.62 55.6699L185.66 65.2699Z" fill="black" fill-opacity="0.6"/>
<path d="M185.66 65.2699L188.62 62.4799L191.58 65.2699L188.62 55.6699L185.66 65.2699Z" fill="white"/>
<path d="M185.66 65.2699L188.62 62.4799L191.58 65.2699L188.62 55.6699L185.66 65.2699Z" fill="black" fill-opacity="0.6"/>
<path d="M51.07 53.5391L102.14 120.359H0L51.07 53.5391Z" fill="#7F92A0"/>
<path d="M51.07 53.5391L102.14 120.359H0L51.07 53.5391Z" fill="black" fill-opacity="0.6"/>
<path d="M51.07 53.5391L35.19 120.359H0L51.07 53.5391Z" fill="#708695"/>
<path d="M51.07 53.5391L35.19 120.359H0L51.07 53.5391Z" fill="black" fill-opacity="0.6"/>
<path d="M102.14 120.359H66.9398L51.0698 53.5391L102.14 120.359Z" fill="#8D9EAA"/>
<path d="M102.14 120.359H66.9398L51.0698 53.5391L102.14 120.359Z" fill="black" fill-opacity="0.6"/>
<path d="M51.0701 53.5391L66.0101 73.0791C65.2601 73.3291 63.7401 72.4591 62.9601 72.6791C62.1901 72.8891 62.0401 74.2291 61.2401 74.3991C60.4501 74.5691 59.1401 73.5491 58.3301 73.6791C57.5201 73.8091 57.0501 75.1091 56.2201 75.1991C55.4001 75.2891 54.3501 74.1391 53.5101 74.1891C52.6801 74.2291 51.9101 75.4691 51.0701 75.4691C50.2401 75.4691 49.4701 74.2291 48.6301 74.1891C47.8001 74.1491 46.7501 75.2891 45.9201 75.1991C45.0901 75.1091 44.6201 73.8091 43.8101 73.6791C42.9901 73.5491 41.6901 74.5691 40.9001 74.3991C40.1001 74.2291 39.9401 72.8891 39.1701 72.6791C38.3901 72.4691 36.8701 73.3391 36.1201 73.0891L51.0601 53.5391H51.0701Z" fill="#F1F3F4"/>
<path d="M51.0701 53.5391L66.0101 73.0791C65.2601 73.3291 63.7401 72.4591 62.9601 72.6791C62.1901 72.8891 62.0401 74.2291 61.2401 74.3991C60.4501 74.5691 59.1401 73.5491 58.3301 73.6791C57.5201 73.8091 57.0501 75.1091 56.2201 75.1991C55.4001 75.2891 54.3501 74.1391 53.5101 74.1891C52.6801 74.2291 51.9101 75.4691 51.0701 75.4691C50.2401 75.4691 49.4701 74.2291 48.6301 74.1891C47.8001 74.1491 46.7501 75.2891 45.9201 75.1991C45.0901 75.1091 44.6201 73.8091 43.8101 73.6791C42.9901 73.5491 41.6901 74.5691 40.9001 74.3991C40.1001 74.2291 39.9401 72.8891 39.1701 72.6791C38.3901 72.4691 36.8701 73.3391 36.1201 73.0891L51.0601 53.5391H51.0701Z" fill="black" fill-opacity="0.6"/>
<path d="M45.9201 75.1991C45.0901 75.1091 44.6201 73.8091 43.8101 73.6791C42.9901 73.5491 41.6901 74.5691 40.9001 74.3991C40.1001 74.2291 39.9401 72.8891 39.1701 72.6791C38.3901 72.4691 36.8701 73.3391 36.1201 73.0891L51.0601 53.5391L45.9101 75.1991H45.9201Z" fill="#E2E7EA"/>
<path d="M45.9201 75.1991C45.0901 75.1091 44.6201 73.8091 43.8101 73.6791C42.9901 73.5491 41.6901 74.5691 40.9001 74.3991C40.1001 74.2291 39.9401 72.8891 39.1701 72.6791C38.3901 72.4691 36.8701 73.3391 36.1201 73.0891L51.0601 53.5391L45.9101 75.1991H45.9201Z" fill="black" fill-opacity="0.6"/>
<path d="M66.0001 73.0793C65.2501 73.3293 63.7301 72.4593 62.9501 72.6793C62.1801 72.8893 62.0301 74.2293 61.2301 74.3993C60.4401 74.5693 59.1301 73.5493 58.3201 73.6793C57.5101 73.8093 57.0401 75.1093 56.2101 75.1993L51.0601 53.5293L66.0001 73.0693V73.0793Z" fill="white"/>
<path d="M66.0001 73.0793C65.2501 73.3293 63.7301 72.4593 62.9501 72.6793C62.1801 72.8893 62.0301 74.2293 61.2301 74.3993C60.4401 74.5693 59.1301 73.5493 58.3201 73.6793C57.5101 73.8093 57.0401 75.1093 56.2101 75.1993L51.0601 53.5293L66.0001 73.0693V73.0793Z" fill="black" fill-opacity="0.6"/>
<path d="M118.31 26.8105L189.81 120.361H46.8096L118.31 26.8105Z" fill="#7F92A0"/>
<path d="M118.31 26.8105L189.81 120.361H46.8096L118.31 26.8105Z" fill="black" fill-opacity="0.6"/>
<path d="M118.31 26.8105L96.0896 120.361H46.8096L118.31 26.8105Z" fill="#708695"/>
<path d="M118.31 26.8105L96.0896 120.361H46.8096L118.31 26.8105Z" fill="black" fill-opacity="0.6"/>
<path d="M189.81 120.361H140.54L118.31 26.8105L189.81 120.361Z" fill="#8D9EAA"/>
<path d="M189.81 120.361H140.54L118.31 26.8105L189.81 120.361Z" fill="black" fill-opacity="0.6"/>
<path d="M118.309 26.8105L139.219 54.1705C138.179 54.5205 136.039 53.3105 134.959 53.6105C133.879 53.9105 133.669 55.7805 132.549 56.0205C131.439 56.2605 129.609 54.8305 128.469 55.0205C127.329 55.2005 126.679 57.0305 125.519 57.1505C124.369 57.2705 122.899 55.6705 121.729 55.7305C120.569 55.7905 119.489 57.5205 118.309 57.5205C117.149 57.5205 116.079 55.7805 114.899 55.7205C113.739 55.6605 112.269 57.2605 111.109 57.1405C109.939 57.0205 109.289 55.1905 108.159 55.0105C107.009 54.8305 105.189 56.2605 104.079 56.0205C102.959 55.7805 102.739 53.9105 101.659 53.6105C100.569 53.3105 98.4394 54.5305 97.3994 54.1805L118.319 26.8105H118.309Z" fill="#F1F3F4"/>
<path d="M118.309 26.8105L139.219 54.1705C138.179 54.5205 136.039 53.3105 134.959 53.6105C133.879 53.9105 133.669 55.7805 132.549 56.0205C131.439 56.2605 129.609 54.8305 128.469 55.0205C127.329 55.2005 126.679 57.0305 125.519 57.1505C124.369 57.2705 122.899 55.6705 121.729 55.7305C120.569 55.7905 119.489 57.5205 118.309 57.5205C117.149 57.5205 116.079 55.7805 114.899 55.7205C113.739 55.6605 112.269 57.2605 111.109 57.1405C109.939 57.0205 109.289 55.1905 108.159 55.0105C107.009 54.8305 105.189 56.2605 104.079 56.0205C102.959 55.7805 102.739 53.9105 101.659 53.6105C100.569 53.3105 98.4394 54.5305 97.3994 54.1805L118.319 26.8105H118.309Z" fill="black" fill-opacity="0.6"/>
<path d="M111.109 57.1405C109.939 57.0205 109.289 55.1905 108.159 55.0105C107.009 54.8305 105.189 56.2605 104.079 56.0205C102.959 55.7805 102.739 53.9105 101.659 53.6105C100.569 53.3105 98.4394 54.5305 97.3994 54.1805L118.319 26.8105L111.109 57.1405Z" fill="#E2E7EA"/>
<path d="M111.109 57.1405C109.939 57.0205 109.289 55.1905 108.159 55.0105C107.009 54.8305 105.189 56.2605 104.079 56.0205C102.959 55.7805 102.739 53.9105 101.659 53.6105C100.569 53.3105 98.4394 54.5305 97.3994 54.1805L118.319 26.8105L111.109 57.1405Z" fill="black" fill-opacity="0.6"/>
<path d="M139.22 54.1705C138.18 54.5205 136.04 53.3105 134.96 53.6105C133.88 53.9105 133.67 55.7805 132.55 56.0205C131.44 56.2605 129.61 54.8305 128.47 55.0205C127.33 55.2005 126.68 57.0305 125.52 57.1505L118.31 26.8105L139.22 54.1705Z" fill="white"/>
<path d="M139.22 54.1705C138.18 54.5205 136.04 53.3105 134.96 53.6105C133.88 53.9105 133.67 55.7805 132.55 56.0205C131.44 56.2605 129.61 54.8305 128.47 55.0205C127.33 55.2005 126.68 57.0305 125.52 57.1505L118.31 26.8105L139.22 54.1705Z" fill="black" fill-opacity="0.6"/>
<path d="M202.96 82.95C202.96 91.62 205.54 94.17 208.73 94.17C211.92 94.17 214.5 91.63 214.5 82.95C214.5 74.27 211.92 67.25 208.73 67.25C205.54 67.25 202.96 74.28 202.96 82.95Z" fill="#E2E7EA"/>
<path d="M202.96 82.95C202.96 91.62 205.54 94.17 208.73 94.17C211.92 94.17 214.5 91.63 214.5 82.95C214.5 74.27 211.92 67.25 208.73 67.25C205.54 67.25 202.96 74.28 202.96 82.95Z" fill="black" fill-opacity="0.6"/>
<path d="M208.73 82.6299L210.17 99.9299H207.29L208.73 82.6299Z" fill="#9E5E21"/>
<path d="M208.73 82.6299L210.17 99.9299H207.29L208.73 82.6299Z" fill="black" fill-opacity="0.6"/>
<path d="M188.45 93.7998C209.05 93.7998 226.81 104.68 234.93 120.36H141.98C150.1 104.68 167.85 93.7998 188.46 93.7998H188.45Z" fill="white"/>
<path d="M188.45 93.7998C209.05 93.7998 226.81 104.68 234.93 120.36H141.98C150.1 104.68 167.85 93.7998 188.46 93.7998H188.45Z" fill="black" fill-opacity="0.6"/>
<path d="M96.5298 92.0606C96.5298 106.511 100.83 110.751 106.14 110.751C111.45 110.751 115.75 106.511 115.75 92.0606C115.75 77.6106 111.45 65.8906 106.14 65.8906C100.83 65.8906 96.5298 77.6106 96.5298 92.0606Z" fill="#E2E7EA"/>
<path d="M96.5298 92.0606C96.5298 106.511 100.83 110.751 106.14 110.751C111.45 110.751 115.75 106.511 115.75 92.0606C115.75 77.6106 111.45 65.8906 106.14 65.8906C100.83 65.8906 96.5298 77.6106 96.5298 92.0606Z" fill="black" fill-opacity="0.6"/>
<path d="M106.14 91.5205L108.55 120.361H103.74L106.14 91.5205Z" fill="#9E5E21"/>
<path d="M106.14 91.5205L108.55 120.361H103.74L106.14 91.5205Z" fill="black" fill-opacity="0.6"/>
<path d="M295.15 74.4004L297.06 120.36H293.23L295.15 74.4004Z" fill="#9E5E21"/>
<path d="M295.15 74.4004L297.06 120.36H293.23L295.15 74.4004Z" fill="black" fill-opacity="0.6"/>
<path d="M295.15 82.1604V83.5404L287.25 74.4004L295.15 82.1604Z" fill="#9E5E21"/>
<path d="M295.15 82.1604V83.5404L287.25 74.4004L295.15 82.1604Z" fill="black" fill-opacity="0.6"/>
<path d="M295.15 92.5508V94.2708L306.32 82.8408L295.15 92.5508Z" fill="#9E5E21"/>
<path d="M295.15 92.5508V94.2708L306.32 82.8408L295.15 92.5508Z" fill="black" fill-opacity="0.6"/>
<path d="M295.15 103.261V105.331L282.51 92.3809L295.15 103.261Z" fill="#9E5E21"/>
<path d="M295.15 103.261V105.331L282.51 92.3809L295.15 103.261Z" fill="black" fill-opacity="0.6"/>
<path d="M70.0498 99.13C70.0498 109.97 73.2798 113.15 77.2598 113.15C81.2398 113.15 84.4698 109.97 84.4698 99.13C84.4698 88.29 81.2398 79.5 77.2598 79.5C73.2798 79.5 70.0498 88.29 70.0498 99.13Z" fill="#E2E7EA"/>
<path d="M70.0498 99.13C70.0498 109.97 73.2798 113.15 77.2598 113.15C81.2398 113.15 84.4698 109.97 84.4698 99.13C84.4698 88.29 81.2398 79.5 77.2598 79.5C73.2798 79.5 70.0498 88.29 70.0498 99.13Z" fill="black" fill-opacity="0.6"/>
<path d="M77.26 98.7305L79.07 120.36H75.46L77.26 98.7305Z" fill="#9E5E21"/>
<path d="M77.26 98.7305L79.07 120.36H75.46L77.26 98.7305Z" fill="black" fill-opacity="0.6"/>
<path d="M260.459 96.5293L259.399 120.359H261.529L260.459 96.5293Z" fill="#9E5E21"/>
<path d="M260.459 96.5293L259.399 120.359H261.529L260.459 96.5293Z" fill="black" fill-opacity="0.6"/>
<path d="M260.459 100.549V101.269L264.289 96.5293L260.459 100.549Z" fill="#9E5E21"/>
<path d="M260.459 100.549V101.269L264.289 96.5293L260.459 100.549Z" fill="black" fill-opacity="0.6"/>
<path d="M260.46 105.939V106.829L255.35 100.909L260.46 105.939Z" fill="#9E5E21"/>
<path d="M260.46 105.939V106.829L255.35 100.909L260.46 105.939Z" fill="black" fill-opacity="0.6"/>
<path d="M260.459 111.49V112.57L265.569 105.85L260.459 111.49Z" fill="#9E5E21"/>
<path d="M260.459 111.49V112.57L265.569 105.85L260.459 111.49Z" fill="black" fill-opacity="0.6"/>
<path d="M238.33 120.369H243.44V96.4391H238.33V120.369Z" fill="#9E5E21"/>
<path d="M238.33 120.369H243.44V96.4391H238.33V120.369Z" fill="black" fill-opacity="0.6"/>
<path d="M229.82 110.049H251.95L240.88 74.1895L229.82 110.049Z" fill="#B89B00"/>
<path d="M229.82 110.049H251.95L240.88 74.1895L229.82 110.049Z" fill="black" fill-opacity="0.6"/>
<path d="M231.73 95.4896H250.04L240.88 65.8096L231.73 95.4896Z" fill="#B89B00"/>
<path d="M231.73 95.4896H250.04L240.88 65.8096L231.73 95.4896Z" fill="black" fill-opacity="0.6"/>
<path d="M233.92 80.7993H247.84L240.88 58.2393L233.92 80.7993Z" fill="#B89B00"/>
<path d="M233.92 80.7993H247.84L240.88 58.2393L233.92 80.7993Z" fill="black" fill-opacity="0.6"/>
<path d="M235.95 68.2695H245.82L240.88 52.2695L235.95 68.2695Z" fill="#B89B00"/>
<path d="M235.95 68.2695H245.82L240.88 52.2695L235.95 68.2695Z" fill="black" fill-opacity="0.6"/>
<path d="M235.95 68.2695L240.88 63.6195L245.82 68.2695L240.88 52.2695L235.95 68.2695Z" fill="white"/>
<path d="M235.95 68.2695L240.88 63.6195L245.82 68.2695L240.88 52.2695L235.95 68.2695Z" fill="black" fill-opacity="0.6"/>
<path d="M163 120.36H170.66V99.9303H163V120.36Z" fill="#9E5E21"/>
<path d="M163 120.36H170.66V99.9303H163V120.36Z" fill="black" fill-opacity="0.6"/>
<path d="M146.4 109.56H187.26L166.83 83.3799L146.4 109.56Z" fill="#897D3C"/>
<path d="M146.4 109.56H187.26L166.83 83.3799L146.4 109.56Z" fill="black" fill-opacity="0.6"/>
<path d="M151.3 97.65H182.36L166.83 77.75L151.3 97.65Z" fill="#897D3C"/>
<path d="M151.3 97.65H182.36L166.83 77.75L151.3 97.65Z" fill="black" fill-opacity="0.6"/>
<path d="M166.83 71.3301L178.68 86.5201H154.98L166.83 71.3301Z" fill="#897D3C"/>
<path d="M166.83 71.3301L178.68 86.5201H154.98L166.83 71.3301Z" fill="black" fill-opacity="0.6"/>
<path d="M154.98 86.5201L166.83 81.5501L178.68 86.5201L166.83 71.3301L154.98 86.5201Z" fill="white"/>
<path d="M154.98 86.5201L166.83 81.5501L178.68 86.5201L166.83 71.3301L154.98 86.5201Z" fill="black" fill-opacity="0.6"/>
</svg>
