<svg width="209" height="97" viewBox="0 0 209 97" fill="none" xmlns="http://www.w3.org/2000/svg">
<path d="M119.32 35.2402L120.38 59.0702H118.25L119.32 35.2402Z" fill="#9E5E21"/>
<path d="M119.32 35.2402L120.38 59.0702H118.25L119.32 35.2402Z" fill="black" fill-opacity="0.6"/>
<path d="M119.32 39.2702V39.9802L115.49 35.2402L119.32 39.2702Z" fill="#9E5E21"/>
<path d="M119.32 39.2702V39.9802L115.49 35.2402L119.32 39.2702Z" fill="black" fill-opacity="0.6"/>
<path d="M119.32 44.6501V45.5401L124.43 39.6201L119.32 44.6501Z" fill="#9E5E21"/>
<path d="M119.32 44.6501V45.5401L124.43 39.6201L119.32 44.6501Z" fill="black" fill-opacity="0.6"/>
<path d="M119.32 50.2005V51.2805L114.21 44.5605L119.32 50.2005Z" fill="#9E5E21"/>
<path d="M119.32 50.2005V51.2805L114.21 44.5605L119.32 50.2005Z" fill="black" fill-opacity="0.6"/>
<path d="M73.7305 37.2793L74.8004 61.1193H72.6704L73.7305 37.2793Z" fill="#9E5E21"/>
<path d="M73.7305 37.2793L74.8004 61.1193H72.6704L73.7305 37.2793Z" fill="black" fill-opacity="0.6"/>
<path d="M73.7303 41.3093V42.0193L69.9004 37.2793L73.7303 41.3093Z" fill="#9E5E21"/>
<path d="M73.7303 41.3093V42.0193L69.9004 37.2793L73.7303 41.3093Z" fill="black" fill-opacity="0.6"/>
<path d="M73.7305 46.6892V47.5892L78.8405 41.6592L73.7305 46.6892Z" fill="#9E5E21"/>
<path d="M73.7305 46.6892V47.5892L78.8405 41.6592L73.7305 46.6892Z" fill="black" fill-opacity="0.6"/>
<path d="M73.7303 52.2494V53.3194L68.6304 46.6094L73.7303 52.2494Z" fill="#9E5E21"/>
<path d="M73.7303 52.2494V53.3194L68.6304 46.6094L73.7303 52.2494Z" fill="black" fill-opacity="0.6"/>
<path d="M99.0802 44.0898H93.9702V57.7098H99.0802V44.0898Z" fill="#9E5E21"/>
<path d="M99.0802 44.0898H93.9702V57.7098H99.0802V44.0898Z" fill="black" fill-opacity="0.6"/>
<path d="M110.15 50.5098H82.9102L96.5303 33.0498L110.15 50.5098Z" fill="#897D3C"/>
<path d="M110.15 50.5098H82.9102L96.5303 33.0498L110.15 50.5098Z" fill="black" fill-opacity="0.6"/>
<path d="M106.88 42.5698H86.1802L96.5303 29.2998L106.88 42.5698Z" fill="#897D3C"/>
<path d="M106.88 42.5698H86.1802L96.5303 29.2998L106.88 42.5698Z" fill="black" fill-opacity="0.6"/>
<path d="M96.5304 25.0195L88.6304 35.1495H104.43L96.5304 25.0195Z" fill="#897D3C"/>
<path d="M96.5304 25.0195L88.6304 35.1495H104.43L96.5304 25.0195Z" fill="black" fill-opacity="0.6"/>
<path d="M104.43 35.1495L96.5304 31.8295L88.6304 35.1495L96.5304 25.0195L104.43 35.1495Z" fill="white"/>
<path d="M104.43 35.1495L96.5304 31.8295L88.6304 35.1495L96.5304 25.0195L104.43 35.1495Z" fill="black" fill-opacity="0.6"/>
<path d="M99.9302 55.6699C68.2302 55.6699 40.9202 72.4099 28.4302 96.5299H171.43C158.94 72.4099 131.63 55.6699 99.9302 55.6699Z" fill="white"/>
<path d="M99.9302 55.6699C68.2302 55.6699 40.9202 72.4099 28.4302 96.5299H171.43C158.94 72.4099 131.63 55.6699 99.9302 55.6699Z" fill="black" fill-opacity="0.6"/>
<path d="M63.9 62.4805L62.48 96.5205H65.3199L63.9 62.4805Z" fill="#9E5E21"/>
<path d="M63.9 62.4805L62.48 96.5205H65.3199L63.9 62.4805Z" fill="black" fill-opacity="0.6"/>
<path d="M63.9004 68.2305V69.2505L69.7504 62.4805L63.9004 68.2305Z" fill="#9E5E21"/>
<path d="M63.9004 68.2305V69.2505L69.7504 62.4805L63.9004 68.2305Z" fill="black" fill-opacity="0.6"/>
<path d="M63.9001 75.9205V77.2005L55.6201 68.7305L63.9001 75.9205Z" fill="#9E5E21"/>
<path d="M63.9001 75.9205V77.2005L55.6201 68.7305L63.9001 75.9205Z" fill="black" fill-opacity="0.6"/>
<path d="M63.9004 83.8608V85.3908L73.2604 75.8008L63.9004 83.8608Z" fill="#9E5E21"/>
<path d="M63.9004 83.8608V85.3908L73.2604 75.8008L63.9004 83.8608Z" fill="black" fill-opacity="0.6"/>
<path d="M158.49 60.4296C158.49 78.8596 153 84.2596 146.23 84.2596C139.46 84.2596 133.97 78.8496 133.97 60.4296C133.97 42.0096 139.46 27.0596 146.23 27.0596C153 27.0596 158.49 41.9996 158.49 60.4296Z" fill="#E2E7EA"/>
<path d="M158.49 60.4296C158.49 78.8596 153 84.2596 146.23 84.2596C139.46 84.2596 133.97 78.8496 133.97 60.4296C133.97 42.0096 139.46 27.0596 146.23 27.0596C153 27.0596 158.49 41.9996 158.49 60.4296Z" fill="black" fill-opacity="0.6"/>
<path d="M146.24 59.75L143.17 96.52H149.3L146.24 59.75Z" fill="#9E5E21"/>
<path d="M146.24 59.75L143.17 96.52H149.3L146.24 59.75Z" fill="black" fill-opacity="0.6"/>
<path d="M108.44 82.1699H105.38V96.5299H108.44V82.1699Z" fill="#9E5E21"/>
<path d="M108.44 82.1699H105.38V96.5299H108.44V82.1699Z" fill="black" fill-opacity="0.6"/>
<path d="M113.28 90.436H100L106.64 68.916L113.28 90.436Z" fill="#B89B00"/>
<path d="M113.28 90.436H100L106.64 68.916L113.28 90.436Z" fill="black" fill-opacity="0.6"/>
<path d="M112.14 81.6957H101.15L106.64 63.8857L112.14 81.6957Z" fill="#B89B00"/>
<path d="M112.14 81.6957H101.15L106.64 63.8857L112.14 81.6957Z" fill="black" fill-opacity="0.6"/>
<path d="M110.82 72.8857H102.46L106.64 59.3457L110.82 72.8857Z" fill="#B89B00"/>
<path d="M110.82 72.8857H102.46L106.64 59.3457L110.82 72.8857Z" fill="black" fill-opacity="0.6"/>
<path d="M109.6 65.3656H103.68L106.64 55.7656L109.6 65.3656Z" fill="#B89B00"/>
<path d="M109.6 65.3656H103.68L106.64 55.7656L109.6 65.3656Z" fill="black" fill-opacity="0.6"/>
<path d="M109.87 65.2699L106.91 62.4799L103.95 65.2699L106.91 55.6699L109.87 65.2699Z" fill="white"/>
<path d="M109.87 65.2699L106.91 62.4799L103.95 65.2699L106.91 55.6699L109.87 65.2699Z" fill="black" fill-opacity="0.6"/>
<path d="M96.5299 41.7501C97.1871 41.7501 97.7198 41.2173 97.7198 40.5601C97.7198 39.9029 97.1871 39.3701 96.5299 39.3701C95.8727 39.3701 95.3398 39.9029 95.3398 40.5601C95.3398 41.2173 95.8727 41.7501 96.5299 41.7501Z" fill="white"/>
<path d="M96.5299 41.7501C97.1871 41.7501 97.7198 41.2173 97.7198 40.5601C97.7198 39.9029 97.1871 39.3701 96.5299 39.3701C95.8727 39.3701 95.3398 39.9029 95.3398 40.5601C95.3398 41.2173 95.8727 41.7501 96.5299 41.7501Z" fill="black" fill-opacity="0.6"/>
<path d="M27.98 58.1456C28.6373 58.1456 29.17 57.6128 29.17 56.9556C29.17 56.2984 28.6373 55.7656 27.98 55.7656C27.3228 55.7656 26.79 56.2984 26.79 56.9556C26.79 57.6128 27.3228 58.1456 27.98 58.1456Z" fill="white"/>
<path d="M27.98 58.1456C28.6373 58.1456 29.17 57.6128 29.17 56.9556C29.17 56.2984 28.6373 55.7656 27.98 55.7656C27.3228 55.7656 26.79 56.2984 26.79 56.9556C26.79 57.6128 27.3228 58.1456 27.98 58.1456Z" fill="black" fill-opacity="0.6"/>
<path d="M130.57 14.0802C131.227 14.0802 131.76 13.5474 131.76 12.8902C131.76 12.233 131.227 11.7002 130.57 11.7002C129.913 11.7002 129.38 12.233 129.38 12.8902C129.38 13.5474 129.913 14.0802 130.57 14.0802Z" fill="white"/>
<path d="M130.57 14.0802C131.227 14.0802 131.76 13.5474 131.76 12.8902C131.76 12.233 131.227 11.7002 130.57 11.7002C129.913 11.7002 129.38 12.233 129.38 12.8902C129.38 13.5474 129.913 14.0802 130.57 14.0802Z" fill="black" fill-opacity="0.6"/>
<path d="M40.98 41.1456C41.6372 41.1456 42.17 40.6128 42.17 39.9556C42.17 39.2984 41.6372 38.7656 40.98 38.7656C40.3228 38.7656 39.79 39.2984 39.79 39.9556C39.79 40.6128 40.3228 41.1456 40.98 41.1456Z" fill="white"/>
<path d="M40.98 41.1456C41.6372 41.1456 42.17 40.6128 42.17 39.9556C42.17 39.2984 41.6372 38.7656 40.98 38.7656C40.3228 38.7656 39.79 39.2984 39.79 39.9556C39.79 40.6128 40.3228 41.1456 40.98 41.1456Z" fill="black" fill-opacity="0.6"/>
<path d="M115.47 2.38C116.127 2.38 116.66 1.84722 116.66 1.19C116.66 0.53278 116.127 0 115.47 0C114.813 0 114.28 0.53278 114.28 1.19C114.28 1.84722 114.813 2.38 115.47 2.38Z" fill="white"/>
<path d="M115.47 2.38C116.127 2.38 116.66 1.84722 116.66 1.19C116.66 0.53278 116.127 0 115.47 0C114.813 0 114.28 0.53278 114.28 1.19C114.28 1.84722 114.813 2.38 115.47 2.38Z" fill="black" fill-opacity="0.6"/>
<path d="M1.18994 31.8302C1.84716 31.8302 2.37994 31.2974 2.37994 30.6402C2.37994 29.983 1.84716 29.4502 1.18994 29.4502C0.532723 29.4502 0 29.983 0 30.6402C0 31.2974 0.532723 31.8302 1.18994 31.8302Z" fill="white"/>
<path d="M1.18994 31.8302C1.84716 31.8302 2.37994 31.2974 2.37994 30.6402C2.37994 29.983 1.84716 29.4502 1.18994 29.4502C0.532723 29.4502 0 29.983 0 30.6402C0 31.2974 0.532723 31.8302 1.18994 31.8302Z" fill="black" fill-opacity="0.6"/>
<path d="M162.41 22.8097C163.067 22.8097 163.6 22.2769 163.6 21.6197C163.6 20.9625 163.067 20.4297 162.41 20.4297C161.752 20.4297 161.22 20.9625 161.22 21.6197C161.22 22.2769 161.752 22.8097 162.41 22.8097Z" fill="white"/>
<path d="M162.41 22.8097C163.067 22.8097 163.6 22.2769 163.6 21.6197C163.6 20.9625 163.067 20.4297 162.41 20.4297C161.752 20.4297 161.22 20.9625 161.22 21.6197C161.22 22.2769 161.752 22.8097 162.41 22.8097Z" fill="black" fill-opacity="0.6"/>
<path d="M34.9702 18.8055C35.4397 18.8055 35.8202 18.4249 35.8202 17.9555C35.8202 17.486 35.4397 17.1055 34.9702 17.1055C34.5008 17.1055 34.1201 17.486 34.1201 17.9555C34.1201 18.4249 34.5008 18.8055 34.9702 18.8055Z" fill="white"/>
<path d="M34.9702 18.8055C35.4397 18.8055 35.8202 18.4249 35.8202 17.9555C35.8202 17.486 35.4397 17.1055 34.9702 17.1055C34.5008 17.1055 34.1201 17.486 34.1201 17.9555C34.1201 18.4249 34.5008 18.8055 34.9702 18.8055Z" fill="black" fill-opacity="0.6"/>
<path d="M58.7904 24.7859C59.2598 24.7859 59.6404 24.4054 59.6404 23.9359C59.6404 23.4665 59.2598 23.0859 58.7904 23.0859C58.321 23.0859 57.9404 23.4665 57.9404 23.9359C57.9404 24.4054 58.321 24.7859 58.7904 24.7859Z" fill="white"/>
<path d="M58.7904 24.7859C59.2598 24.7859 59.6404 24.4054 59.6404 23.9359C59.6404 23.4665 59.2598 23.0859 58.7904 23.0859C58.321 23.0859 57.9404 23.4665 57.9404 23.9359C57.9404 24.4054 58.321 24.7859 58.7904 24.7859Z" fill="black" fill-opacity="0.6"/>
<path d="M53.0199 43.1258C53.4893 43.1258 53.8699 42.7452 53.8699 42.2758C53.8699 41.8063 53.4893 41.4258 53.0199 41.4258C52.5505 41.4258 52.1699 41.8063 52.1699 42.2758C52.1699 42.7452 52.5505 43.1258 53.0199 43.1258Z" fill="white"/>
<path d="M53.0199 43.1258C53.4893 43.1258 53.8699 42.7452 53.8699 42.2758C53.8699 41.8063 53.4893 41.4258 53.0199 41.4258C52.5505 41.4258 52.1699 41.8063 52.1699 42.2758C52.1699 42.7452 52.5505 43.1258 53.0199 43.1258Z" fill="black" fill-opacity="0.6"/>
<path d="M94.9203 47.575C95.3897 47.575 95.7703 47.1944 95.7703 46.725C95.7703 46.2556 95.3897 45.875 94.9203 45.875C94.4508 45.875 94.0703 46.2556 94.0703 46.725C94.0703 47.1944 94.4508 47.575 94.9203 47.575Z" fill="white"/>
<path d="M94.9203 47.575C95.3897 47.575 95.7703 47.1944 95.7703 46.725C95.7703 46.2556 95.3897 45.875 94.9203 45.875C94.4508 45.875 94.0703 46.2556 94.0703 46.725C94.0703 47.1944 94.4508 47.575 94.9203 47.575Z" fill="black" fill-opacity="0.6"/>
<path d="M140.22 40.7654C140.69 40.7654 141.07 40.3849 141.07 39.9154C141.07 39.446 140.69 39.0654 140.22 39.0654C139.751 39.0654 139.37 39.446 139.37 39.9154C139.37 40.3849 139.751 40.7654 140.22 40.7654Z" fill="white"/>
<path d="M140.22 40.7654C140.69 40.7654 141.07 40.3849 141.07 39.9154C141.07 39.446 140.69 39.0654 140.22 39.0654C139.751 39.0654 139.37 39.446 139.37 39.9154C139.37 40.3849 139.751 40.7654 140.22 40.7654Z" fill="black" fill-opacity="0.6"/>
<path d="M206.42 36.5057C206.89 36.5057 207.27 36.1251 207.27 35.6557C207.27 35.1862 206.89 34.8057 206.42 34.8057C205.951 34.8057 205.57 35.1862 205.57 35.6557C205.57 36.1251 205.951 36.5057 206.42 36.5057Z" fill="white"/>
<path d="M208.13 50.9754C208.6 50.9754 208.98 50.5948 208.98 50.1254C208.98 49.6559 208.6 49.2754 208.13 49.2754C207.661 49.2754 207.28 49.6559 207.28 50.1254C207.28 50.5948 207.661 50.9754 208.13 50.9754Z" fill="white"/>
<path d="M49.8002 78.2156C50.2696 78.2156 50.6501 77.8351 50.6501 77.3656C50.6501 76.8962 50.2696 76.5156 49.8002 76.5156C49.3307 76.5156 48.9502 76.8962 48.9502 77.3656C48.9502 77.8351 49.3307 78.2156 49.8002 78.2156Z" fill="white"/>
<path d="M49.8002 78.2156C50.2696 78.2156 50.6501 77.8351 50.6501 77.3656C50.6501 76.8962 50.2696 76.5156 49.8002 76.5156C49.3307 76.5156 48.9502 76.8962 48.9502 77.3656C48.9502 77.8351 49.3307 78.2156 49.8002 78.2156Z" fill="black" fill-opacity="0.6"/>
<path d="M194.51 74.8152C194.98 74.8152 195.36 74.4347 195.36 73.9652C195.36 73.4958 194.98 73.1152 194.51 73.1152C194.041 73.1152 193.66 73.4958 193.66 73.9652C193.66 74.4347 194.041 74.8152 194.51 74.8152Z" fill="white"/>
<path d="M81.3002 19.4852C81.7696 19.4852 82.1501 19.1046 82.1501 18.6352C82.1501 18.1657 81.7696 17.7852 81.3002 17.7852C80.8307 17.7852 80.4502 18.1657 80.4502 18.6352C80.4502 19.1046 80.8307 19.4852 81.3002 19.4852Z" fill="white"/>
<path d="M81.3002 19.4852C81.7696 19.4852 82.1501 19.1046 82.1501 18.6352C82.1501 18.1657 81.7696 17.7852 81.3002 17.7852C80.8307 17.7852 80.4502 18.1657 80.4502 18.6352C80.4502 19.1046 80.8307 19.4852 81.3002 19.4852Z" fill="black" fill-opacity="0.6"/>
<path d="M163.01 56.9353C163.48 56.9353 163.86 56.5548 163.86 56.0854C163.86 55.6159 163.48 55.2354 163.01 55.2354C162.541 55.2354 162.16 55.6159 162.16 56.0854C162.16 56.5548 162.541 56.9353 163.01 56.9353Z" fill="white"/>
<path d="M163.01 56.9353C163.48 56.9353 163.86 56.5548 163.86 56.0854C163.86 55.6159 163.48 55.2354 163.01 55.2354C162.541 55.2354 162.16 55.6159 162.16 56.0854C162.16 56.5548 162.541 56.9353 163.01 56.9353Z" fill="black" fill-opacity="0.6"/>
</svg>
