<svg width="220" height="97" viewBox="0 0 220 97" fill="none" xmlns="http://www.w3.org/2000/svg">
<path d="M119.32 35.4746L120.38 59.3046H118.25L119.32 35.4746Z" fill="#9E5E21"/>
<path d="M119.32 39.5046V40.2146L115.49 35.4746L119.32 39.5046Z" fill="#9E5E21"/>
<path d="M119.32 44.8845V45.7745L124.43 39.8545L119.32 44.8845Z" fill="#9E5E21"/>
<path d="M119.32 50.4349V51.5149L114.21 44.7949L119.32 50.4349Z" fill="#9E5E21"/>
<path d="M73.7305 37.5137L74.8004 61.3537H72.6704L73.7305 37.5137Z" fill="#9E5E21"/>
<path d="M73.7303 41.5437V42.2537L69.9004 37.5137L73.7303 41.5437Z" fill="#9E5E21"/>
<path d="M73.7305 46.9236V47.8236L78.8405 41.8936L73.7305 46.9236Z" fill="#9E5E21"/>
<path d="M73.7303 52.4837V53.5537L68.6304 46.8438L73.7303 52.4837Z" fill="#9E5E21"/>
<path d="M99.0802 44.3242H93.9702V57.9442H99.0802V44.3242Z" fill="#9E5E21"/>
<path d="M110.15 50.7442H82.9102L96.5303 33.2842L110.15 50.7442Z" fill="#897D3C"/>
<path d="M106.88 42.8042H86.1802L96.5303 29.5342L106.88 42.8042Z" fill="#897D3C"/>
<path d="M96.5304 25.2539L88.6304 35.3839H104.43L96.5304 25.2539Z" fill="#897D3C"/>
<path d="M104.43 35.3839L96.5304 32.0639L88.6304 35.3839L96.5304 25.2539L104.43 35.3839Z" fill="white"/>
<path d="M99.9302 55.9043C68.2302 55.9043 40.9202 72.6443 28.4302 96.7643H171.43C158.94 72.6443 131.63 55.9043 99.9302 55.9043Z" fill="white"/>
<path d="M71.2872 6.50398C71.0772 3.98398 68.1772 2.16398 64.8172 2.44398C64.4872 2.47398 64.1672 2.52398 63.8472 2.59398C62.3872 0.843979 59.7972 -0.206021 56.9472 0.0339791C54.1172 0.273979 51.7572 1.71398 50.5972 3.65398C48.3272 4.01398 46.6672 5.45398 46.7972 7.01398C46.9272 8.58398 48.8072 9.72398 51.0972 9.70398C52.5672 11.424 55.1272 12.454 57.9572 12.224C59.4172 12.104 60.7572 11.654 61.8672 10.984C62.9272 11.464 64.2072 11.704 65.5672 11.584C68.9272 11.304 71.4872 9.03398 71.2772 6.50398H71.2872Z" fill="white"/>
<path d="M63.9 62.7148L62.48 96.7549H65.3199L63.9 62.7148Z" fill="#9E5E21"/>
<path d="M63.9004 68.4648V69.4848L69.7504 62.7148L63.9004 68.4648Z" fill="#9E5E21"/>
<path d="M63.9001 76.1548V77.4348L55.6201 68.9648L63.9001 76.1548Z" fill="#9E5E21"/>
<path d="M63.9004 84.0952V85.6252L73.2604 76.0352L63.9004 84.0952Z" fill="#9E5E21"/>
<path d="M158.49 60.6639C158.49 79.0939 153 84.4939 146.23 84.4939C139.46 84.4939 133.97 79.0839 133.97 60.6639C133.97 42.2439 139.46 27.2939 146.23 27.2939C153 27.2939 158.49 42.2339 158.49 60.6639Z" fill="#E2E7EA"/>
<path d="M146.24 59.9844L143.17 96.7544H149.3L146.24 59.9844Z" fill="#9E5E21"/>
<path d="M108.44 82.4043H105.38V96.7643H108.44V82.4043Z" fill="#9E5E21"/>
<path d="M113.55 90.5747H100.27L106.91 69.0547L113.55 90.5747Z" fill="#B89B00"/>
<path d="M112.41 81.8344H101.42L106.91 64.0244L112.41 81.8344Z" fill="#B89B00"/>
<path d="M111.09 73.0244H102.73L106.91 59.4844L111.09 73.0244Z" fill="#B89B00"/>
<path d="M109.87 65.5043H103.95L106.91 55.9043L109.87 65.5043Z" fill="#B89B00"/>
<path d="M109.87 65.5043L106.91 62.7143L103.95 65.5043L106.91 55.9043L109.87 65.5043Z" fill="white"/>
<path d="M96.5299 41.9845C97.1871 41.9845 97.7198 41.4517 97.7198 40.7945C97.7198 40.1373 97.1871 39.6045 96.5299 39.6045C95.8727 39.6045 95.3398 40.1373 95.3398 40.7945C95.3398 41.4517 95.8727 41.9845 96.5299 41.9845Z" fill="white"/>
<path d="M27.98 58.38C28.6373 58.38 29.17 57.8472 29.17 57.19C29.17 56.5328 28.6373 56 27.98 56C27.3228 56 26.79 56.5328 26.79 57.19C26.79 57.8472 27.3228 58.38 27.98 58.38Z" fill="white"/>
<path d="M130.57 14.3146C131.227 14.3146 131.76 13.7818 131.76 13.1246C131.76 12.4674 131.227 11.9346 130.57 11.9346C129.913 11.9346 129.38 12.4674 129.38 13.1246C129.38 13.7818 129.913 14.3146 130.57 14.3146Z" fill="white"/>
<path d="M40.98 41.38C41.6372 41.38 42.17 40.8472 42.17 40.19C42.17 39.5328 41.6372 39 40.98 39C40.3228 39 39.79 39.5328 39.79 40.19C39.79 40.8472 40.3228 41.38 40.98 41.38Z" fill="white"/>
<path d="M115.47 2.61437C116.127 2.61437 116.66 2.08159 116.66 1.42437C116.66 0.767155 116.127 0.234375 115.47 0.234375C114.813 0.234375 114.28 0.767155 114.28 1.42437C114.28 2.08159 114.813 2.61437 115.47 2.61437Z" fill="white"/>
<path d="M1.18994 32.0646C1.84716 32.0646 2.37994 31.5318 2.37994 30.8746C2.37994 30.2174 1.84716 29.6846 1.18994 29.6846C0.532723 29.6846 0 30.2174 0 30.8746C0 31.5318 0.532723 32.0646 1.18994 32.0646Z" fill="white"/>
<path d="M162.41 23.0441C163.067 23.0441 163.6 22.5113 163.6 21.8541C163.6 21.1968 163.067 20.6641 162.41 20.6641C161.752 20.6641 161.22 21.1968 161.22 21.8541C161.22 22.5113 161.752 23.0441 162.41 23.0441Z" fill="white"/>
<path d="M34.9702 19.0398C35.4397 19.0398 35.8202 18.6593 35.8202 18.1898C35.8202 17.7204 35.4397 17.3398 34.9702 17.3398C34.5008 17.3398 34.1201 17.7204 34.1201 18.1898C34.1201 18.6593 34.5008 19.0398 34.9702 19.0398Z" fill="white"/>
<path d="M58.7904 25.0203C59.2598 25.0203 59.6404 24.6398 59.6404 24.1703C59.6404 23.7009 59.2598 23.3203 58.7904 23.3203C58.321 23.3203 57.9404 23.7009 57.9404 24.1703C57.9404 24.6398 58.321 25.0203 58.7904 25.0203Z" fill="white"/>
<path d="M53.0199 43.3602C53.4893 43.3602 53.8699 42.9796 53.8699 42.5102C53.8699 42.0407 53.4893 41.6602 53.0199 41.6602C52.5505 41.6602 52.1699 42.0407 52.1699 42.5102C52.1699 42.9796 52.5505 43.3602 53.0199 43.3602Z" fill="white"/>
<path d="M94.9203 47.8094C95.3897 47.8094 95.7703 47.4288 95.7703 46.9594C95.7703 46.4899 95.3897 46.1094 94.9203 46.1094C94.4508 46.1094 94.0703 46.4899 94.0703 46.9594C94.0703 47.4288 94.4508 47.8094 94.9203 47.8094Z" fill="white"/>
<path d="M140.22 40.9998C140.69 40.9998 141.07 40.6192 141.07 40.1498C141.07 39.6804 140.69 39.2998 140.22 39.2998C139.751 39.2998 139.37 39.6804 139.37 40.1498C139.37 40.6192 139.751 40.9998 140.22 40.9998Z" fill="white"/>
<path d="M206.42 36.74C206.89 36.74 207.27 36.3595 207.27 35.89C207.27 35.4206 206.89 35.04 206.42 35.04C205.951 35.04 205.57 35.4206 205.57 35.89C205.57 36.3595 205.951 36.74 206.42 36.74Z" fill="white"/>
<path d="M208.13 51.2098C208.6 51.2098 208.98 50.8292 208.98 50.3598C208.98 49.8903 208.6 49.5098 208.13 49.5098C207.661 49.5098 207.28 49.8903 207.28 50.3598C207.28 50.8292 207.661 51.2098 208.13 51.2098Z" fill="white"/>
<path d="M49.8002 78.45C50.2696 78.45 50.6501 78.0694 50.6501 77.6C50.6501 77.1306 50.2696 76.75 49.8002 76.75C49.3307 76.75 48.9502 77.1306 48.9502 77.6C48.9502 78.0694 49.3307 78.45 49.8002 78.45Z" fill="white"/>
<path d="M194.51 75.0496C194.98 75.0496 195.36 74.669 195.36 74.1996C195.36 73.7302 194.98 73.3496 194.51 73.3496C194.041 73.3496 193.66 73.7302 193.66 74.1996C193.66 74.669 194.041 75.0496 194.51 75.0496Z" fill="white"/>
<path d="M81.3002 19.7195C81.7696 19.7195 82.1501 19.339 82.1501 18.8695C82.1501 18.4001 81.7696 18.0195 81.3002 18.0195C80.8307 18.0195 80.4502 18.4001 80.4502 18.8695C80.4502 19.339 80.8307 19.7195 81.3002 19.7195Z" fill="white"/>
<path d="M163.01 57.1697C163.48 57.1697 163.86 56.7892 163.86 56.3197C163.86 55.8503 163.48 55.4697 163.01 55.4697C162.541 55.4697 162.16 55.8503 162.16 56.3197C162.16 56.7892 162.541 57.1697 163.01 57.1697Z" fill="white"/>
<path d="M219.09 18.1902C218.81 14.8202 214.95 12.4002 210.46 12.7702C210.02 12.8102 209.59 12.8802 209.17 12.9602C207.22 10.6302 203.77 9.23019 199.97 9.55019C196.2 9.86019 193.05 11.7902 191.5 14.3702C188.48 14.8502 186.26 16.7702 186.43 18.8602C186.6 20.9502 189.11 22.4702 192.17 22.4502C194.12 24.7502 197.55 26.1202 201.32 25.8102C203.27 25.6502 205.06 25.0502 206.54 24.1602C207.95 24.8002 209.66 25.1102 211.47 24.9602C215.96 24.5902 219.37 21.5602 219.09 18.1902Z" fill="white"/>
</svg>
