<svg width="261" height="86" viewBox="0 0 261 86" fill="none" xmlns="http://www.w3.org/2000/svg">
<path d="M241.648 77.3116H239.138C239.138 77.3116 240.367 59.3127 252.421 48.9668C252.421 48.9668 242.99 57.5411 241.648 77.3116Z" fill="#4DAA1B"/>
<path d="M241.648 77.3116H239.138C239.138 77.3116 240.367 59.3127 252.421 48.9668C252.421 48.9668 242.99 57.5411 241.648 77.3116Z" fill="black" fill-opacity="0.6"/>
<path d="M258.826 65.9785C258.826 65.9785 249.561 72.1813 248.549 77.3117H246.696C246.696 77.3117 248.885 71.3215 258.826 65.9785Z" fill="#4DAA1B"/>
<path d="M258.826 65.9785C258.826 65.9785 249.561 72.1813 248.549 77.3117H246.696C246.696 77.3117 248.885 71.3215 258.826 65.9785Z" fill="black" fill-opacity="0.6"/>
<path d="M246.181 63.1396C246.181 63.1396 236.878 68.0008 234.165 77.3121H232C234.184 71.3124 238.377 66.3851 246.181 63.1396Z" fill="#4DAA1B"/>
<path d="M246.181 63.1396C246.181 63.1396 236.878 68.0008 234.165 77.3121H232C234.184 71.3124 238.377 66.3851 246.181 63.1396Z" fill="black" fill-opacity="0.6"/>
<path d="M246.181 66.1484C246.181 66.1484 238.897 70.6505 237.157 77.3116H235.248C235.248 77.3116 237.195 69.8711 246.181 66.1484Z" fill="#4DAA1B"/>
<path d="M246.181 66.1484C246.181 66.1484 238.897 70.6505 237.157 77.3116H235.248C235.248 77.3116 237.195 69.8711 246.181 66.1484Z" fill="black" fill-opacity="0.6"/>
<path d="M246.526 77.3116H248.658C248.658 77.3116 247.812 66.1154 252.69 62.166C252.69 62.166 246.526 65.8319 246.526 77.3116Z" fill="#4DAA1B"/>
<path d="M246.526 77.3116H248.658C248.658 77.3116 247.812 66.1154 252.69 62.166C252.69 62.166 246.526 65.8319 246.526 77.3116Z" fill="black" fill-opacity="0.6"/>
<path d="M252.94 77.3119H255.091C255.091 77.3119 255.554 73.5657 260.362 70.2871C260.362 70.2871 254.264 72.7767 252.94 77.3119Z" fill="#4DAA1B"/>
<path d="M252.94 77.3119H255.091C255.091 77.3119 255.554 73.5657 260.362 70.2871C260.362 70.2871 254.264 72.7767 252.94 77.3119Z" fill="black" fill-opacity="0.6"/>
<path d="M247.661 77.3119H249.811C249.811 77.3119 250.275 73.5657 255.082 70.2871C255.082 70.2871 249.159 72.2098 247.661 77.3119Z" fill="#4DAA1B"/>
<path d="M247.661 77.3119H249.811C249.811 77.3119 250.275 73.5657 255.082 70.2871C255.082 70.2871 249.159 72.2098 247.661 77.3119Z" fill="black" fill-opacity="0.6"/>
<path d="M237.672 65.9736C237.672 65.9736 241.468 68.7136 241.506 77.3116H243.34C243.34 77.3116 243.586 70.7167 237.667 65.9736H237.672Z" fill="#4DAA1B"/>
<path d="M237.672 65.9736C237.672 65.9736 241.468 68.7136 241.506 77.3116H243.34C243.34 77.3116 243.586 70.7167 237.667 65.9736H237.672Z" fill="black" fill-opacity="0.6"/>
<path d="M251.106 77.3117H252.95C252.95 77.3117 251.106 69.2807 244.664 66.3564C244.664 66.3564 250.133 69.8476 251.106 77.3117Z" fill="#4DAA1B"/>
<path d="M251.106 77.3117H252.95C252.95 77.3117 251.106 69.2807 244.664 66.3564C244.664 66.3564 250.133 69.8476 251.106 77.3117Z" fill="black" fill-opacity="0.6"/>
<path d="M252.492 64.7734C252.492 64.7734 245.685 71.288 245.042 77.3113H243.132C243.132 77.3113 244.272 71.2172 252.497 64.7734H252.492Z" fill="#4DAA1B"/>
<path d="M252.492 64.7734C252.492 64.7734 245.685 71.288 245.042 77.3113H243.132C243.132 77.3113 244.272 71.2172 252.497 64.7734H252.492Z" fill="black" fill-opacity="0.6"/>
<path d="M151.891 52.7227H124.664V76.5323H151.891V52.7227Z" fill="#498CC3"/>
<path d="M151.891 52.7227H124.664V76.5323H151.891V52.7227Z" fill="black" fill-opacity="0.6"/>
<path d="M135.554 52.7227H130.109V76.5323H135.554V52.7227Z" fill="white"/>
<path d="M135.554 52.7227H130.109V76.5323H135.554V52.7227Z" fill="black" fill-opacity="0.6"/>
<path d="M146.446 52.7227H141V76.5323H146.446V52.7227Z" fill="white"/>
<path d="M146.446 52.7227H141V76.5323H146.446V52.7227Z" fill="black" fill-opacity="0.6"/>
<path d="M155.295 77.3828H121.26V79.0835H155.295V77.3828Z" fill="#B58E7A"/>
<path d="M155.295 77.3828H121.26V79.0835H155.295V77.3828Z" fill="black" fill-opacity="0.6"/>
<path d="M155.295 47.6201H121.26V49.3208H155.295V47.6201Z" fill="#B58E7A" fill-opacity="0.6"/>
<path d="M155.295 73.1309H121.26V74.8316H155.295V73.1309Z" fill="#FF9EFF"/>
<path d="M154.444 71.4307H151.891V85.0362H154.444V71.4307Z" fill="#D5A78F"/>
<path d="M154.444 71.4307H151.891V85.0362H154.444V71.4307Z" fill="black" fill-opacity="0.6"/>
<path d="M124.663 71.4307H122.111V85.0362H124.663V71.4307Z" fill="#D5A78F"/>
<path d="M124.663 71.4307H122.111V85.0362H124.663V71.4307Z" fill="black" fill-opacity="0.6"/>
<path d="M151.891 47.6201H124.664V74.8312H151.891V47.6201Z" fill="#1C6FB4"/>
<path d="M151.891 47.6201H124.664V74.8312H151.891V47.6201Z" fill="black" fill-opacity="0.6"/>
<path d="M135.554 47.6201H130.109V74.8312H135.554V47.6201Z" fill="#D2E2F0"/>
<path d="M135.554 47.6201H130.109V74.8312H135.554V47.6201Z" fill="black" fill-opacity="0.6"/>
<path d="M146.446 47.6201H141V74.8312H146.446V47.6201Z" fill="#D2E2F0"/>
<path d="M146.446 47.6201H141V74.8312H146.446V47.6201Z" fill="black" fill-opacity="0.6"/>
<path d="M151.891 49.3213H124.664V73.1309H151.891V49.3213Z" fill="#498CC3"/>
<path d="M151.891 49.3213H124.664V73.1309H151.891V49.3213Z" fill="black" fill-opacity="0.6"/>
<path d="M135.554 49.3213H130.109V73.1309H135.554V49.3213Z" fill="white"/>
<path d="M135.554 49.3213H130.109V73.1309H135.554V49.3213Z" fill="black" fill-opacity="0.6"/>
<path d="M146.446 49.3213H141V73.1309H146.446V49.3213Z" fill="white"/>
<path d="M146.446 49.3213H141V73.1309H146.446V49.3213Z" fill="black" fill-opacity="0.6"/>
<path d="M154.444 45.9199V81.6344H122.111V45.9199H119.559V81.6344V85.0358H156.997V81.6344V45.9199H154.444Z" fill="#F2BDA2"/>
<path d="M154.444 45.9199V81.6344H122.111V45.9199H119.559V81.6344V85.0358H156.997V81.6344V45.9199H154.444Z" fill="black" fill-opacity="0.6"/>
<path d="M159.549 56.124H156.997V79.9337H159.549V56.124Z" fill="#D5A78F"/>
<path d="M159.549 56.124H156.997V79.9337H159.549V56.124Z" fill="black" fill-opacity="0.6"/>
<path d="M119.558 56.124H117.006V79.9337H119.558V56.124Z" fill="#E0AF96"/>
<path d="M119.558 56.124H117.006V79.9337H119.558V56.124Z" fill="black" fill-opacity="0.6"/>
<path d="M203.888 52.7227H176.661V76.5323H203.888V52.7227Z" fill="#498CC3"/>
<path d="M203.888 52.7227H176.661V76.5323H203.888V52.7227Z" fill="black" fill-opacity="0.6"/>
<path d="M187.551 52.7227H182.106V76.5323H187.551V52.7227Z" fill="white"/>
<path d="M187.551 52.7227H182.106V76.5323H187.551V52.7227Z" fill="black" fill-opacity="0.6"/>
<path d="M198.443 52.7227H192.997V76.5323H198.443V52.7227Z" fill="white"/>
<path d="M198.443 52.7227H192.997V76.5323H198.443V52.7227Z" fill="black" fill-opacity="0.6"/>
<path d="M207.292 77.3828H173.257V79.0835H207.292V77.3828Z" fill="#B58E7A"/>
<path d="M207.292 77.3828H173.257V79.0835H207.292V77.3828Z" fill="black" fill-opacity="0.6"/>
<path d="M207.292 47.6201H173.257V49.3208H207.292V47.6201Z" fill="#B58E7A"/>
<path d="M207.292 47.6201H173.257V49.3208H207.292V47.6201Z" fill="black" fill-opacity="0.6"/>
<path d="M207.292 73.1309H173.257V74.8316H207.292V73.1309Z" fill="#FF9EFF"/>
<path d="M206.441 71.4307H203.888V85.0362H206.441V71.4307Z" fill="#D5A78F"/>
<path d="M206.441 71.4307H203.888V85.0362H206.441V71.4307Z" fill="black" fill-opacity="0.6"/>
<path d="M176.661 71.4307H174.108V85.0362H176.661V71.4307Z" fill="#D5A78F"/>
<path d="M176.661 71.4307H174.108V85.0362H176.661V71.4307Z" fill="black" fill-opacity="0.6"/>
<path d="M203.888 47.6201H176.661V74.8312H203.888V47.6201Z" fill="#1C6FB4"/>
<path d="M203.888 47.6201H176.661V74.8312H203.888V47.6201Z" fill="black" fill-opacity="0.6"/>
<path d="M187.551 47.6201H182.106V74.8312H187.551V47.6201Z" fill="#D2E2F0"/>
<path d="M187.551 47.6201H182.106V74.8312H187.551V47.6201Z" fill="black" fill-opacity="0.6"/>
<path d="M198.443 47.6201H192.997V74.8312H198.443V47.6201Z" fill="#D2E2F0"/>
<path d="M198.443 47.6201H192.997V74.8312H198.443V47.6201Z" fill="black" fill-opacity="0.6"/>
<path d="M203.888 49.3213H176.661V73.1309H203.888V49.3213Z" fill="#498CC3"/>
<path d="M203.888 49.3213H176.661V73.1309H203.888V49.3213Z" fill="black" fill-opacity="0.6"/>
<path d="M187.551 49.3213H182.106V73.1309H187.551V49.3213Z" fill="white"/>
<path d="M187.551 49.3213H182.106V73.1309H187.551V49.3213Z" fill="black" fill-opacity="0.6"/>
<path d="M198.443 49.3213H192.997V73.1309H198.443V49.3213Z" fill="white"/>
<path d="M198.443 49.3213H192.997V73.1309H198.443V49.3213Z" fill="black" fill-opacity="0.6"/>
<path d="M206.441 45.9199V81.6344H174.108V45.9199H171.556V81.6344V85.0358H208.994V81.6344V45.9199H206.441Z" fill="#F2BDA2"/>
<path d="M206.441 45.9199V81.6344H174.108V45.9199H171.556V81.6344V85.0358H208.994V81.6344V45.9199H206.441Z" fill="black" fill-opacity="0.6"/>
<path d="M211.546 56.124H208.994V79.9337H211.546V56.124Z" fill="#D5A78F"/>
<path d="M211.546 56.124H208.994V79.9337H211.546V56.124Z" fill="black" fill-opacity="0.6"/>
<path d="M171.556 56.124H169.003V79.9337H171.556V56.124Z" fill="#E0AF96"/>
<path d="M171.556 56.124H169.003V79.9337H171.556V56.124Z" fill="black" fill-opacity="0.6"/>
<path d="M80.476 52.1523H44.4609V69.249H80.476V52.1523Z" fill="#FFCA1E"/>
<path d="M80.476 52.1523H44.4609V69.249H80.476V52.1523Z" fill="black" fill-opacity="0.6"/>
<path d="M75.9709 61.1523H60.2158V69.2495H75.9709V61.1523Z" fill="#FEBD33"/>
<path d="M55.7158 61.1523H48.9609V69.2495H55.7158V61.1523Z" fill="#FEBD33"/>
<path d="M46.2428 56.4707C44.3898 56.4707 43.1844 54.6 44.0117 53.0127L46.7108 44.958H51.2109L48.5874 54.8882C48.2329 55.8377 47.2922 56.4755 46.2428 56.4755V56.4707Z" fill="#FF5538"/>
<path d="M46.2428 56.4707C44.3898 56.4707 43.1844 54.6 44.0117 53.0127L46.7108 44.958H51.2109L48.5874 54.8882C48.2329 55.8377 47.2922 56.4755 46.2428 56.4755V56.4707Z" fill="black" fill-opacity="0.6"/>
<path d="M57.0866 56.4706C58.4858 56.4706 59.6486 55.4313 59.7479 54.0896L60.2159 44.9531H55.7158L54.4773 53.3715C54.1228 54.9683 55.3896 56.4706 57.0866 56.4706Z" fill="#FF5538"/>
<path d="M57.0866 56.4706C58.4858 56.4706 59.6486 55.4313 59.7479 54.0896L60.2159 44.9531H55.7158L54.4773 53.3715C54.1228 54.9683 55.3896 56.4706 57.0866 56.4706Z" fill="black" fill-opacity="0.6"/>
<path d="M67.85 56.4706C69.5517 56.4706 70.8185 54.9683 70.4593 53.3715L69.2208 44.9531H64.7207L65.1887 54.0896C65.2879 55.4313 66.4508 56.4706 67.85 56.4706Z" fill="#FF5538"/>
<path d="M67.85 56.4706C69.5517 56.4706 70.8185 54.9683 70.4593 53.3715L69.2208 44.9531H64.7207L65.1887 54.0896C65.2879 55.4313 66.4508 56.4706 67.85 56.4706Z" fill="black" fill-opacity="0.6"/>
<path d="M78.6937 56.4707C80.5467 56.4707 81.7521 54.6 80.9248 53.0127L78.2257 44.958H73.7256L76.3491 54.8882C76.7036 55.8377 77.6443 56.4755 78.6937 56.4755V56.4707Z" fill="#FF5538"/>
<path d="M78.6937 56.4707C80.5467 56.4707 81.7521 54.6 80.9248 53.0127L78.2257 44.958H73.7256L76.3491 54.8882C76.7036 55.8377 77.6443 56.4755 78.6937 56.4755V56.4707Z" fill="black" fill-opacity="0.6"/>
<path d="M51.2111 44.9578L49.2352 53.14C48.6301 54.7652 49.8875 56.4706 51.6838 56.4706C52.9081 56.4706 53.9669 55.6486 54.2269 54.5006L55.7159 44.9531H51.2158L51.2111 44.9578Z" fill="white"/>
<path d="M51.2111 44.9578L49.2352 53.14C48.6301 54.7652 49.8875 56.4706 51.6838 56.4706C52.9081 56.4706 53.9669 55.6486 54.2269 54.5006L55.7159 44.9531H51.2158L51.2111 44.9578Z" fill="black" fill-opacity="0.6"/>
<path d="M69.2207 44.958L70.7097 54.5055C70.965 55.6535 72.0238 56.4755 73.2528 56.4755C75.0491 56.4755 76.3065 54.7653 75.7014 53.1449L73.7255 44.9627H69.2254L69.2207 44.958Z" fill="white"/>
<path d="M69.2207 44.958L70.7097 54.5055C70.965 55.6535 72.0238 56.4755 73.2528 56.4755C75.0491 56.4755 76.3065 54.7653 75.7014 53.1449L73.7255 44.9627H69.2254L69.2207 44.958Z" fill="black" fill-opacity="0.6"/>
<path d="M60.216 44.958L59.7811 53.7024C59.6677 55.1999 60.9062 56.4707 62.4708 56.4707C64.0355 56.4707 65.2692 55.1999 65.1605 53.7024L64.7256 44.958H60.2255H60.216Z" fill="white"/>
<path d="M60.216 44.958L59.7811 53.7024C59.6677 55.1999 60.9062 56.4707 62.4708 56.4707C64.0355 56.4707 65.2692 55.1999 65.1605 53.7024L64.7256 44.958H60.2255H60.216Z" fill="black" fill-opacity="0.6"/>
<path d="M21.0857 69.249H41.3457V44.9528H21.0857L21.0857 69.249Z" fill="#876B5C"/>
<path d="M21.0857 69.249H41.3457V44.9528H21.0857L21.0857 69.249Z" fill="black" fill-opacity="0.6"/>
<path d="M31.2203 22.0078L41.3456 44.953H21.0903L31.2203 22.0078Z" fill="#876B5C"/>
<path d="M31.2203 22.0078L41.3456 44.953H21.0903L31.2203 22.0078Z" fill="black" fill-opacity="0.6"/>
<path d="M33.2439 49.002H37.2949V44.9534H33.2439V49.002Z" fill="#FEBD33"/>
<path d="M33.2439 57.1035H37.2949V53.0549H33.2439V57.1035Z" fill="#FEBD33"/>
<path d="M25.1418 49.002H29.1929V44.9534H25.1418V49.002Z" fill="#FEBD33"/>
<path d="M25.1418 57.1035H29.1929V53.0549H25.1418V57.1035Z" fill="#FEBD33"/>
<path d="M0.830368 69.249H21.0903L21.0903 44.9528H0.830368L0.830368 69.249Z" fill="#FF5538"/>
<path d="M0.830368 69.249H21.0903L21.0903 44.9528H0.830368L0.830368 69.249Z" fill="black" fill-opacity="0.6"/>
<path d="M10.9605 22.0078L21.0905 44.953H0.830566L10.9605 22.0078Z" fill="#FF5538"/>
<path d="M10.9605 22.0078L21.0905 44.953H0.830566L10.9605 22.0078Z" fill="black" fill-opacity="0.6"/>
<path d="M12.9885 49.002H17.0396V44.9534H12.9885V49.002Z" fill="#FEBD33"/>
<path d="M12.9885 57.1035H17.0396V53.0549H12.9885V57.1035Z" fill="#FEBD33"/>
<path d="M4.88157 49.002H8.93262V44.9534H4.88157L4.88157 49.002Z" fill="#FEBD33"/>
<path d="M4.88157 57.1035H8.93262V53.0549H4.88157L4.88157 57.1035Z" fill="#FEBD33"/>
<path d="M25.1418 69.249H37.2949V61.1518H25.1418V69.249Z" fill="#FEBD33"/>
<path d="M4.88641 69.249H17.0396V61.1518H4.88641L4.88641 69.249Z" fill="#FEBD33"/>
<path d="M103.283 0.346051C103.194 -0.11219 102.527 -0.116912 102.433 0.341329L101.936 5.67016L101.407 17.0081H104.243L103.714 5.67016L103.283 0.346051Z" fill="#636363"/>
<path d="M101.435 8.85938L101.407 9.00582V70.8637H104.243V9.00582L104.219 8.85938H101.435Z" fill="#636363"/>
<path d="M101.435 8.85938L101.407 9.00582V70.8637H104.243V9.00582L104.219 8.85938H101.435Z" fill="black" fill-opacity="0.6"/>
<path d="M100.556 70.8633V84.9979L105.094 85.0357V70.8633H100.556Z" fill="#1C6FB4"/>
<path d="M100.556 70.8633V84.9979L105.094 85.0357V70.8633H100.556Z" fill="black" fill-opacity="0.6"/>
<path d="M100.556 73.6973V82.1771L105.094 82.2007V73.6973H100.556Z" fill="white"/>
<path d="M100.556 73.6973V82.1771L105.094 82.2007V73.6973H100.556Z" fill="black" fill-opacity="0.6"/>
<path d="M100.556 76.5322V79.3573L105.094 79.3667V76.5322H100.556Z" fill="#1C6FB4"/>
<path d="M100.556 76.5322V79.3573L105.094 79.3667V76.5322H100.556Z" fill="black" fill-opacity="0.6"/>
<path d="M102.825 2.83594L128.332 19.8428H145.368C139.676 9.3647 120.754 2.83594 102.825 2.83594Z" fill="#498CC3"/>
<path d="M102.825 2.83594L128.332 19.8428H145.368C139.676 9.3647 120.754 2.83594 102.825 2.83594Z" fill="black" fill-opacity="0.6"/>
<path d="M102.825 2.83594L111.433 19.8428H128.336C124.89 9.36942 108.946 2.85011 102.829 2.83594H102.825Z" fill="white"/>
<path d="M102.825 2.83594L111.433 19.8428H128.336C124.89 9.36942 108.946 2.85011 102.829 2.83594H102.825Z" fill="black" fill-opacity="0.6"/>
<path d="M60.2817 19.8428H77.3179L102.825 2.83594C84.8953 2.83594 65.9731 9.3647 60.2817 19.8428Z" fill="#498CC3"/>
<path d="M60.2817 19.8428H77.3179L102.825 2.83594C84.8953 2.83594 65.9731 9.3647 60.2817 19.8428Z" fill="black" fill-opacity="0.6"/>
<path d="M77.3179 19.8428H94.2217L102.83 2.83594C96.7128 2.85011 80.7639 9.36942 77.3226 19.8428H77.3179Z" fill="white"/>
<path d="M77.3179 19.8428H94.2217L102.83 2.83594C96.7128 2.85011 80.7639 9.36942 77.3226 19.8428H77.3179Z" fill="black" fill-opacity="0.6"/>
<path d="M102.825 2.83594C100.693 2.83594 95.4222 9.3647 94.2168 19.8428H111.428C110.222 9.3647 104.957 2.83594 102.82 2.83594H102.825Z" fill="#498CC3"/>
<path d="M102.825 2.83594C100.693 2.83594 95.4222 9.3647 94.2168 19.8428H111.428C110.222 9.3647 104.957 2.83594 102.82 2.83594H102.825Z" fill="black" fill-opacity="0.6"/>
<path d="M74.4628 25.5117H60.2817V19.8428H77.299L74.4628 25.5117Z" fill="white"/>
<path d="M74.4628 25.5117H60.2817V19.8428H77.299L74.4628 25.5117Z" fill="black" fill-opacity="0.6"/>
<path d="M145.368 25.5117H131.187L128.351 19.8428H145.368V25.5117Z" fill="white"/>
<path d="M145.368 25.5117H131.187L128.351 19.8428H145.368V25.5117Z" fill="black" fill-opacity="0.6"/>
<path d="M108.497 25.5117H97.1526L94.3164 19.8428H111.334L108.497 25.5117Z" fill="white"/>
<path d="M108.497 25.5117H97.1526L94.3164 19.8428H111.334L108.497 25.5117Z" fill="black" fill-opacity="0.6"/>
<path d="M114.17 25.5117H125.515L128.351 19.8428H111.333L114.17 25.5117Z" fill="#498CC3"/>
<path d="M114.17 25.5117H125.515L128.351 19.8428H111.333L114.17 25.5117Z" fill="black" fill-opacity="0.6"/>
<path d="M91.4799 25.5117H80.135L77.2988 19.8428H94.3161L91.4799 25.5117Z" fill="#498CC3"/>
<path d="M91.4799 25.5117H80.135L77.2988 19.8428H94.3161L91.4799 25.5117Z" fill="black" fill-opacity="0.6"/>
<path d="M76.6477 84.3116H74.1377C74.1377 84.3116 75.3667 66.3127 87.4206 55.9668C87.4206 55.9668 77.9902 64.5411 76.6477 84.3116Z" fill="#4DAA1B"/>
<path d="M76.6477 84.3116H74.1377C74.1377 84.3116 75.3667 66.3127 87.4206 55.9668C87.4206 55.9668 77.9902 64.5411 76.6477 84.3116Z" fill="black" fill-opacity="0.6"/>
<path d="M93.8258 72.9785C93.8258 72.9785 84.5609 79.1813 83.5493 84.3117H81.6963C81.6963 84.3117 83.8849 78.3215 93.8258 72.9785Z" fill="#4DAA1B"/>
<path d="M93.8258 72.9785C93.8258 72.9785 84.5609 79.1813 83.5493 84.3117H81.6963C81.6963 84.3117 83.8849 78.3215 93.8258 72.9785Z" fill="black" fill-opacity="0.6"/>
<path d="M81.181 70.1396C81.181 70.1396 71.8783 75.0008 69.165 84.3121H67C69.1839 78.3124 73.3767 73.3851 81.181 70.1396Z" fill="#4DAA1B"/>
<path d="M81.181 70.1396C81.181 70.1396 71.8783 75.0008 69.165 84.3121H67C69.1839 78.3124 73.3767 73.3851 81.181 70.1396Z" fill="black" fill-opacity="0.6"/>
<path d="M81.1811 73.1484C81.1811 73.1484 73.8968 77.6505 72.1573 84.3116H70.2476C70.2476 84.3116 72.1951 76.8711 81.1811 73.1484Z" fill="#4DAA1B"/>
<path d="M81.1811 73.1484C81.1811 73.1484 73.8968 77.6505 72.1573 84.3116H70.2476C70.2476 84.3116 72.1951 76.8711 81.1811 73.1484Z" fill="black" fill-opacity="0.6"/>
<path d="M81.5259 84.3116H83.6578C83.6578 84.3116 82.8116 73.1154 87.6899 69.166C87.6899 69.166 81.5259 72.8319 81.5259 84.3116Z" fill="#4DAA1B"/>
<path d="M81.5259 84.3116H83.6578C83.6578 84.3116 82.8116 73.1154 87.6899 69.166C87.6899 69.166 81.5259 72.8319 81.5259 84.3116Z" fill="black" fill-opacity="0.6"/>
<path d="M87.9404 84.3119H90.0912C90.0912 84.3119 90.5545 80.5657 95.3618 77.2871C95.3618 77.2871 89.264 79.7767 87.9404 84.3119Z" fill="#4DAA1B"/>
<path d="M87.9404 84.3119H90.0912C90.0912 84.3119 90.5545 80.5657 95.3618 77.2871C95.3618 77.2871 89.264 79.7767 87.9404 84.3119Z" fill="black" fill-opacity="0.6"/>
<path d="M82.6606 84.3119H84.8114C84.8114 84.3119 85.2747 80.5657 90.082 77.2871C90.082 77.2871 84.1591 79.2098 82.6606 84.3119Z" fill="#4DAA1B"/>
<path d="M82.6606 84.3119H84.8114C84.8114 84.3119 85.2747 80.5657 90.082 77.2871C90.082 77.2871 84.1591 79.2098 82.6606 84.3119Z" fill="black" fill-opacity="0.6"/>
<path d="M72.6722 72.9736C72.6722 72.9736 76.468 75.7136 76.5058 84.3116H78.3399C78.3399 84.3116 78.5857 77.7167 72.6675 72.9736H72.6722Z" fill="#4DAA1B"/>
<path d="M72.6722 72.9736C72.6722 72.9736 76.468 75.7136 76.5058 84.3116H78.3399C78.3399 84.3116 78.5857 77.7167 72.6675 72.9736H72.6722Z" fill="black" fill-opacity="0.6"/>
<path d="M86.1065 84.3117H87.95C87.95 84.3117 86.1065 76.2807 79.6636 73.3564C79.6636 73.3564 85.1327 76.8476 86.1065 84.3117Z" fill="#4DAA1B"/>
<path d="M86.1065 84.3117H87.95C87.95 84.3117 86.1065 76.2807 79.6636 73.3564C79.6636 73.3564 85.1327 76.8476 86.1065 84.3117Z" fill="black" fill-opacity="0.6"/>
<path d="M87.4918 71.7734C87.4918 71.7734 80.6849 78.288 80.042 84.3113H78.1323C78.1323 84.3113 79.2715 78.2172 87.4965 71.7734H87.4918Z" fill="#4DAA1B"/>
<path d="M87.4918 71.7734C87.4918 71.7734 80.6849 78.288 80.042 84.3113H78.1323C78.1323 84.3113 79.2715 78.2172 87.4965 71.7734H87.4918Z" fill="black" fill-opacity="0.6"/>
</svg>
