<svg width="1140" height="47" viewBox="0 0 1140 47" fill="none" xmlns="http://www.w3.org/2000/svg">
<path d="M0 24H1140V46.4889C1062.56 46.4889 0 47 0 47V24Z" fill="#9FD1D6"/>
<path d="M0 24H1140V46.4889C1062.56 46.4889 0 47 0 47V24Z" fill="black" fill-opacity="0.6"/>
<path d="M1140 0H0L0.000107016 24H1140C1140 2.89617 1140 3 1140 0Z" fill="#FEEEDD"/>
<path d="M1140 0H0L0.000107016 24H1140C1140 2.89617 1140 3 1140 0Z" fill="black" fill-opacity="0.6"/>
<path d="M389.632 37.1934C394.853 37.1934 399.086 36.7704 399.086 36.2485C399.086 35.7267 394.853 35.3037 389.632 35.3037C384.41 35.3037 380.178 35.7267 380.178 36.2485C380.178 36.7704 384.41 37.1934 389.632 37.1934Z" fill="#BFE1E4"/>
<path d="M389.632 37.1934C394.853 37.1934 399.086 36.7704 399.086 36.2485C399.086 35.7267 394.853 35.3037 389.632 35.3037C384.41 35.3037 380.178 35.7267 380.178 36.2485C380.178 36.7704 384.41 37.1934 389.632 37.1934Z" fill="black" fill-opacity="0.6"/>
<path d="M491.263 36.721C491.263 35.9367 486.503 35.3037 480.627 35.3037C474.751 35.3037 469.991 35.9367 469.991 36.721C469.991 37.5052 474.751 38.1382 480.627 38.1382C486.503 38.1382 491.263 37.5052 491.263 36.721Z" fill="#BFE1E4"/>
<path d="M491.263 36.721C491.263 35.9367 486.503 35.3037 480.627 35.3037C474.751 35.3037 469.991 35.9367 469.991 36.721C469.991 37.5052 474.751 38.1382 480.627 38.1382C486.503 38.1382 491.263 37.5052 491.263 36.721Z" fill="black" fill-opacity="0.6"/>
<path d="M228.914 40.0283C234.135 40.0283 238.368 39.6053 238.368 39.0835C238.368 38.5617 234.135 38.1387 228.914 38.1387C223.693 38.1387 219.46 38.5617 219.46 39.0835C219.46 39.6053 223.693 40.0283 228.914 40.0283Z" fill="#BFE1E4"/>
<path d="M228.914 40.0283C234.135 40.0283 238.368 39.6053 238.368 39.0835C238.368 38.5617 234.135 38.1387 228.914 38.1387C223.693 38.1387 219.46 38.5617 219.46 39.0835C219.46 39.6053 223.693 40.0283 228.914 40.0283Z" fill="black" fill-opacity="0.6"/>
<path d="M87.1034 35.3037C92.3247 35.3037 96.5575 34.8807 96.5575 34.3589C96.5575 33.8371 92.3247 33.4141 87.1034 33.4141C81.8821 33.4141 77.6494 33.8371 77.6494 34.3589C77.6494 34.8807 81.8821 35.3037 87.1034 35.3037Z" fill="#BFE1E4"/>
<path d="M87.1034 35.3037C92.3247 35.3037 96.5575 34.8807 96.5575 34.3589C96.5575 33.8371 92.3247 33.4141 87.1034 33.4141C81.8821 33.4141 77.6494 33.8371 77.6494 34.3589C77.6494 34.8807 81.8821 35.3037 87.1034 35.3037Z" fill="black" fill-opacity="0.6"/>
<path d="M907.89 37.7793C913.111 37.7793 917.344 37.3563 917.344 36.8345C917.344 36.3127 913.111 35.8896 907.89 35.8896C902.668 35.8896 898.436 36.3127 898.436 36.8345C898.436 37.3563 902.668 37.7793 907.89 37.7793Z" fill="#BFE1E4"/>
<path d="M907.89 37.7793C913.111 37.7793 917.344 37.3563 917.344 36.8345C917.344 36.3127 913.111 35.8896 907.89 35.8896C902.668 35.8896 898.436 36.3127 898.436 36.8345C898.436 37.3563 902.668 37.7793 907.89 37.7793Z" fill="black" fill-opacity="0.6"/>
<path d="M1009.52 37.3069C1009.52 36.5227 1004.76 35.8896 998.884 35.8896C993.009 35.8896 988.249 36.5227 988.249 37.3069C988.249 38.0911 993.009 38.7241 998.884 38.7241C1004.76 38.7241 1009.52 38.0911 1009.52 37.3069Z" fill="#BFE1E4"/>
<path d="M1009.52 37.3069C1009.52 36.5227 1004.76 35.8896 998.884 35.8896C993.009 35.8896 988.249 36.5227 988.249 37.3069C988.249 38.0911 993.009 38.7241 998.884 38.7241C1004.76 38.7241 1009.52 38.0911 1009.52 37.3069Z" fill="black" fill-opacity="0.6"/>
<path d="M747.171 40.6143C752.392 40.6143 756.625 40.1913 756.625 39.6694C756.625 39.1476 752.392 38.7246 747.171 38.7246C741.95 38.7246 737.717 39.1476 737.717 39.6694C737.717 40.1913 741.95 40.6143 747.171 40.6143Z" fill="#BFE1E4"/>
<path d="M747.171 40.6143C752.392 40.6143 756.625 40.1913 756.625 39.6694C756.625 39.1476 752.392 38.7246 747.171 38.7246C741.95 38.7246 737.717 39.1476 737.717 39.6694C737.717 40.1913 741.95 40.6143 747.171 40.6143Z" fill="black" fill-opacity="0.6"/>
<path d="M605.361 35.8897C610.582 35.8897 614.815 35.4666 614.815 34.9448C614.815 34.423 610.582 34 605.361 34C600.139 34 595.907 34.423 595.907 34.9448C595.907 35.4666 600.139 35.8897 605.361 35.8897Z" fill="#BFE1E4"/>
<path d="M605.361 35.8897C610.582 35.8897 614.815 35.4666 614.815 34.9448C614.815 34.423 610.582 34 605.361 34C600.139 34 595.907 34.423 595.907 34.9448C595.907 35.4666 600.139 35.8897 605.361 35.8897Z" fill="black" fill-opacity="0.6"/>
</svg>
