<svg width="260" height="86" viewBox="0 0 260 86" fill="none" xmlns="http://www.w3.org/2000/svg">
<path d="M240.817 77.3116H238.307C238.307 77.3116 239.536 59.3127 251.59 48.9668C251.59 48.9668 242.16 57.5411 240.817 77.3116Z" fill="#4DAA1B"/>
<path d="M257.995 65.9785C257.995 65.9785 248.73 72.1813 247.719 77.3117H245.866C245.866 77.3117 248.054 71.3215 257.995 65.9785Z" fill="#4DAA1B"/>
<path d="M245.35 63.1396C245.35 63.1396 236.048 68.0008 233.334 77.3121H231.169C233.353 71.3124 237.546 66.3851 245.35 63.1396Z" fill="#4DAA1B"/>
<path d="M245.351 66.1484C245.351 66.1484 238.066 70.6505 236.327 77.3116H234.417C234.417 77.3116 236.365 69.8711 245.351 66.1484Z" fill="#4DAA1B"/>
<path d="M245.695 77.3116H247.827C247.827 77.3116 246.981 66.1154 251.859 62.166C251.859 62.166 245.695 65.8319 245.695 77.3116Z" fill="#4DAA1B"/>
<path d="M252.11 77.3119H254.261C254.261 77.3119 254.724 73.5657 259.531 70.2871C259.531 70.2871 253.433 72.7767 252.11 77.3119Z" fill="#4DAA1B"/>
<path d="M246.83 77.3119H248.981C248.981 77.3119 249.444 73.5657 254.251 70.2871C254.251 70.2871 248.329 72.2098 246.83 77.3119Z" fill="#4DAA1B"/>
<path d="M236.842 65.9736C236.842 65.9736 240.637 68.7136 240.675 77.3116H242.509C242.509 77.3116 242.755 70.7167 236.837 65.9736H236.842Z" fill="#4DAA1B"/>
<path d="M250.276 77.3117H252.119C252.119 77.3117 250.276 69.2807 243.833 66.3564C243.833 66.3564 249.302 69.8476 250.276 77.3117Z" fill="#4DAA1B"/>
<path d="M251.661 64.7734C251.661 64.7734 244.854 71.288 244.211 77.3113H242.302C242.302 77.3113 243.441 71.2172 251.666 64.7734H251.661Z" fill="#4DAA1B"/>
<path d="M151.061 52.7227H123.833V76.5323H151.061V52.7227Z" fill="#498CC3"/>
<path d="M134.724 52.7227H129.278V76.5323H134.724V52.7227Z" fill="white"/>
<path d="M145.615 52.7227H140.169V76.5323H145.615V52.7227Z" fill="white"/>
<path d="M154.464 77.3828H120.43V79.0835H154.464V77.3828Z" fill="#B58E7A"/>
<path d="M154.464 47.6201H120.43V49.3208H154.464V47.6201Z" fill="#B58E7A"/>
<path d="M154.464 73.1309H120.43V74.8316H154.464V73.1309Z" fill="#FF9EFF"/>
<path d="M153.613 71.4307H151.061V85.0362H153.613V71.4307Z" fill="#D5A78F"/>
<path d="M123.833 71.4307H121.28V85.0362H123.833V71.4307Z" fill="#D5A78F"/>
<path d="M151.061 47.6201H123.833V74.8312H151.061V47.6201Z" fill="#1C6FB4"/>
<path d="M134.724 47.6201H129.278V74.8312H134.724V47.6201Z" fill="#D2E2F0"/>
<path d="M145.615 47.6201H140.169V74.8312H145.615V47.6201Z" fill="#D2E2F0"/>
<path d="M151.061 49.3213H123.833V73.1309H151.061V49.3213Z" fill="#498CC3"/>
<path d="M134.724 49.3213H129.278V73.1309H134.724V49.3213Z" fill="white"/>
<path d="M145.615 49.3213H140.169V73.1309H145.615V49.3213Z" fill="white"/>
<path d="M153.613 45.9199V81.6344H121.281V45.9199H118.728V81.6344V85.0358H156.166V81.6344V45.9199H153.613Z" fill="#F2BDA2"/>
<path d="M158.719 56.124H156.166V79.9337H158.719V56.124Z" fill="#D5A78F"/>
<path d="M118.728 56.124H116.175V79.9337H118.728V56.124Z" fill="#E0AF96"/>
<path d="M203.058 52.7227H175.83V76.5323H203.058V52.7227Z" fill="#498CC3"/>
<path d="M186.721 52.7227H181.275V76.5323H186.721V52.7227Z" fill="white"/>
<path d="M197.612 52.7227H192.167V76.5323H197.612V52.7227Z" fill="white"/>
<path d="M206.461 77.3828H172.427V79.0835H206.461V77.3828Z" fill="#B58E7A"/>
<path d="M206.461 47.6201H172.427V49.3208H206.461V47.6201Z" fill="#B58E7A"/>
<path d="M206.461 73.1309H172.427V74.8316H206.461V73.1309Z" fill="#FF9EFF"/>
<path d="M205.61 71.4307H203.058V85.0362H205.61V71.4307Z" fill="#D5A78F"/>
<path d="M175.83 71.4307H173.277V85.0362H175.83V71.4307Z" fill="#D5A78F"/>
<path d="M203.058 47.6201H175.83V74.8312H203.058V47.6201Z" fill="#1C6FB4"/>
<path d="M186.721 47.6201H181.275V74.8312H186.721V47.6201Z" fill="#D2E2F0"/>
<path d="M197.612 47.6201H192.167V74.8312H197.612V47.6201Z" fill="#D2E2F0"/>
<path d="M203.058 49.3213H175.83V73.1309H203.058V49.3213Z" fill="#498CC3"/>
<path d="M186.721 49.3213H181.275V73.1309H186.721V49.3213Z" fill="white"/>
<path d="M197.612 49.3213H192.167V73.1309H197.612V49.3213Z" fill="white"/>
<path d="M205.61 45.9199V81.6344H173.278V45.9199H170.725V81.6344V85.0358H208.163V81.6344V45.9199H205.61Z" fill="#F2BDA2"/>
<path d="M210.716 56.124H208.163V79.9337H210.716V56.124Z" fill="#D5A78F"/>
<path d="M170.725 56.124H168.172V79.9337H170.725V56.124Z" fill="#E0AF96"/>
<path d="M79.6455 52.1523H43.6304V69.249H79.6455V52.1523Z" fill="#FFCA1E"/>
<path d="M75.1404 61.1523H59.3853V69.2495H75.1404V61.1523Z" fill="#B09069"/>
<path d="M54.8853 61.1523H48.1304V69.2495H54.8853V61.1523Z" fill="#B09069"/>
<path d="M45.4123 56.4707C43.5593 56.4707 42.3539 54.6 43.1811 53.0127L45.8802 44.958H50.3803L47.7569 54.8882C47.4023 55.8377 46.4617 56.4755 45.4123 56.4755V56.4707Z" fill="#FF5538"/>
<path d="M56.256 56.4706C57.6552 56.4706 58.8181 55.4313 58.9173 54.0896L59.3853 44.9531H54.8852L53.6467 53.3715C53.2922 54.9683 54.559 56.4706 56.256 56.4706Z" fill="#FF5538"/>
<path d="M67.0194 56.4706C68.7211 56.4706 69.988 54.9683 69.6287 53.3715L68.3902 44.9531H63.8901L64.3581 54.0896C64.4574 55.4313 65.6202 56.4706 67.0194 56.4706Z" fill="#FF5538"/>
<path d="M77.8631 56.4707C79.7161 56.4707 80.9215 54.6 80.0943 53.0127L77.3951 44.958H72.895L75.5185 54.8882C75.873 55.8377 76.8137 56.4755 77.8631 56.4755V56.4707Z" fill="#FF5538"/>
<path d="M50.3805 44.9578L48.4046 53.14C47.7996 54.7652 49.057 56.4706 50.8532 56.4706C52.0775 56.4706 53.1364 55.6486 53.3964 54.5006L54.8854 44.9531H50.3853L50.3805 44.9578Z" fill="white"/>
<path d="M68.3901 44.958L69.8791 54.5055C70.1344 55.6535 71.1933 56.4755 72.4223 56.4755C74.2185 56.4755 75.4759 54.7653 74.8709 53.1449L72.895 44.9627H68.3949L68.3901 44.958Z" fill="white"/>
<path d="M59.3855 44.958L58.9506 53.7024C58.8371 55.1999 60.0756 56.4707 61.6402 56.4707C63.2049 56.4707 64.4386 55.1999 64.3299 53.7024L63.895 44.958H59.3949H59.3855Z" fill="white"/>
<path d="M20.2552 69.249H40.5151V44.9528H20.2552L20.2552 69.249Z" fill="#876B5C"/>
<path d="M30.3898 22.0078L40.515 44.953H20.2598L30.3898 22.0078Z" fill="#876B5C"/>
<path d="M32.4133 49.002H36.4644V44.9534H32.4133V49.002Z" fill="white"/>
<path d="M32.4133 57.1035H36.4644V53.0549H32.4133V57.1035Z" fill="white"/>
<path d="M24.3113 49.002H28.3623V44.9534H24.3113V49.002Z" fill="white"/>
<path d="M24.3113 57.1035H28.3623V53.0549H24.3113V57.1035Z" fill="white"/>
<path d="M-0.000198364 69.249H20.2598L20.2598 44.9528H-0.000198364L-0.000198364 69.249Z" fill="#FF5538"/>
<path d="M10.13 22.0078L20.26 44.953H0L10.13 22.0078Z" fill="#FF5538"/>
<path d="M12.1579 49.002H16.209V44.9534H12.1579V49.002Z" fill="white"/>
<path d="M12.1579 57.1035H16.209V53.0549H12.1579V57.1035Z" fill="white"/>
<path d="M4.05101 49.002H8.10205V44.9534H4.05101L4.05101 49.002Z" fill="white"/>
<path d="M4.05101 57.1035H8.10205V53.0549H4.05101L4.05101 57.1035Z" fill="white"/>
<path d="M24.3112 69.249H36.4644V61.1518H24.3112V69.249Z" fill="white"/>
<path d="M4.05584 69.249H16.209V61.1518H4.05584L4.05584 69.249Z" fill="white"/>
<path d="M102.453 0.346051C102.363 -0.11219 101.696 -0.116912 101.602 0.341329L101.106 5.67016L100.576 17.0081H103.412L102.883 5.67016L102.453 0.346051Z" fill="#636363"/>
<path d="M100.605 8.85938L100.576 9.00582V70.8637H103.412V9.00582L103.389 8.85938H100.605Z" fill="#636363"/>
<path d="M99.7251 70.8633V84.9979L104.263 85.0357V70.8633H99.7251Z" fill="#1C6FB4"/>
<path d="M99.7251 73.6973V82.1771L104.263 82.2007V73.6973H99.7251Z" fill="white"/>
<path d="M99.7251 76.5322V79.3573L104.263 79.3667V76.5322H99.7251Z" fill="#1C6FB4"/>
<path d="M101.994 2.83594L127.501 19.8428H144.537C138.846 9.3647 119.924 2.83594 101.994 2.83594Z" fill="#498CC3"/>
<path d="M101.994 2.83594L110.602 19.8428H127.506C124.06 9.36942 108.116 2.85011 101.999 2.83594H101.994Z" fill="white"/>
<path d="M59.4512 19.8428H76.4873L101.994 2.83594C84.0647 2.83594 65.1425 9.3647 59.4512 19.8428Z" fill="#498CC3"/>
<path d="M76.4873 19.8428H93.3911L101.999 2.83594C95.8822 2.85011 79.9333 9.36942 76.492 19.8428H76.4873Z" fill="white"/>
<path d="M101.994 2.83594C99.8622 2.83594 94.5916 9.3647 93.3862 19.8428H110.597C109.392 9.3647 104.126 2.83594 101.989 2.83594H101.994Z" fill="#498CC3"/>
<path d="M73.6322 25.5117H59.4512V19.8428H76.4684L73.6322 25.5117Z" fill="white"/>
<path d="M144.537 25.5117H130.356L127.52 19.8428H144.537V25.5117Z" fill="white"/>
<path d="M107.667 25.5117H96.322L93.4858 19.8428H110.503L107.667 25.5117Z" fill="white"/>
<path d="M113.339 25.5117H124.684L127.52 19.8428H110.503L113.339 25.5117Z" fill="#498CC3"/>
<path d="M90.6493 25.5117H79.3045L76.4683 19.8428H93.4855L90.6493 25.5117Z" fill="#498CC3"/>
<path d="M75.8172 84.3116H73.3071C73.3071 84.3116 74.5362 66.3127 86.59 55.9668C86.59 55.9668 77.1596 64.5411 75.8172 84.3116Z" fill="#4DAA1B"/>
<path d="M92.9952 72.9785C92.9952 72.9785 83.7303 79.1813 82.7187 84.3117H80.8657C80.8657 84.3117 83.0543 78.3215 92.9952 72.9785Z" fill="#4DAA1B"/>
<path d="M80.3505 70.1396C80.3505 70.1396 71.0477 75.0008 68.3344 84.3121H66.1694C68.3533 78.3124 72.5462 73.3851 80.3505 70.1396Z" fill="#4DAA1B"/>
<path d="M80.3506 73.1484C80.3506 73.1484 73.0662 77.6505 71.3267 84.3116H69.417C69.417 84.3116 71.3645 76.8711 80.3506 73.1484Z" fill="#4DAA1B"/>
<path d="M80.6953 84.3116H82.8272C82.8272 84.3116 81.981 73.1154 86.8593 69.166C86.8593 69.166 80.6953 72.8319 80.6953 84.3116Z" fill="#4DAA1B"/>
<path d="M87.1099 84.3119H89.2607C89.2607 84.3119 89.7239 80.5657 94.5313 77.2871C94.5313 77.2871 88.4334 79.7767 87.1099 84.3119Z" fill="#4DAA1B"/>
<path d="M81.8301 84.3119H83.9809C83.9809 84.3119 84.4441 80.5657 89.2515 77.2871C89.2515 77.2871 83.3285 79.2098 81.8301 84.3119Z" fill="#4DAA1B"/>
<path d="M71.8416 72.9736C71.8416 72.9736 75.6374 75.7136 75.6752 84.3116H77.5093C77.5093 84.3116 77.7551 77.7167 71.8369 72.9736H71.8416Z" fill="#4DAA1B"/>
<path d="M85.2759 84.3117H87.1195C87.1195 84.3117 85.2759 76.2807 78.833 73.3564C78.833 73.3564 84.3022 76.8476 85.2759 84.3117Z" fill="#4DAA1B"/>
<path d="M86.6612 71.7734C86.6612 71.7734 79.8543 78.288 79.2115 84.3113H77.3018C77.3018 84.3113 78.441 78.2172 86.666 71.7734H86.6612Z" fill="#4DAA1B"/>
</svg>
