<svg width="421" height="157" viewBox="0 0 421 157" fill="none" xmlns="http://www.w3.org/2000/svg">
<path d="M266.5 87C322.578 87 370.909 110.76 393 145H140C162.091 110.76 210.422 87 266.5 87Z" fill="#5FB527"/>
<path d="M208.593 78.9775C211.575 78.9775 213.994 80.5881 213.994 82.5762H203.192C203.192 80.5881 205.611 78.9775 208.593 78.9775Z" fill="#418A35"/>
<path d="M197.795 78.9775C200.777 78.9775 203.196 80.5881 203.196 82.5762H192.394C192.394 80.5881 194.813 78.9775 197.795 78.9775Z" fill="#418A35"/>
<path d="M201.749 76.9897C202.758 73.9614 205.217 72.0496 207.239 72.7243L203.578 83.6969C201.556 83.0222 200.736 80.022 201.749 76.9937V76.9897Z" fill="#418A35"/>
<path d="M197.791 84.6443C199.583 82.853 202.003 82.3711 203.196 83.5639L196.71 90.0462C195.516 88.8534 195.999 86.4356 197.791 84.6443Z" fill="#418A35"/>
<path d="M208.597 84.6443C206.805 82.853 204.385 82.3711 203.192 83.5639L209.678 90.0462C210.872 88.8534 210.389 86.4356 208.597 84.6443Z" fill="#418A35"/>
<path d="M202.191 102.71H204.201V82.6284H202.191V102.71Z" fill="#876B5C"/>
<path d="M204.796 84.6364C205.905 84.6364 206.805 83.7373 206.805 82.6283C206.805 81.5192 205.905 80.6201 204.796 80.6201C203.686 80.6201 202.786 81.5192 202.786 82.6283C202.786 83.7373 203.686 84.6364 204.796 84.6364Z" fill="#B09069"/>
<path d="M201.592 84.6363C202.425 84.6363 203.1 83.9619 203.1 83.1301C203.1 82.2983 202.425 81.624 201.592 81.624C200.76 81.624 200.085 82.2983 200.085 83.1301C200.085 83.9619 200.76 84.6363 201.592 84.6363Z" fill="#B09069"/>
<path d="M188.499 87.0098C191.481 87.0098 193.901 88.6203 193.901 90.6084H183.098C183.098 88.6203 185.517 87.0098 188.499 87.0098Z" fill="#418A35"/>
<path d="M177.701 87.0098C180.683 87.0098 183.102 88.6203 183.102 90.6084H172.3C172.3 88.6203 174.719 87.0098 177.701 87.0098Z" fill="#418A35"/>
<path d="M181.656 85.0219C182.664 81.9936 185.124 80.0818 187.145 80.7566L183.484 91.7291C181.463 91.0544 180.643 88.0542 181.656 85.0259V85.0219Z" fill="#418A35"/>
<path d="M177.697 92.6765C179.489 90.8853 181.909 90.4033 183.102 91.5961L176.616 98.0785C175.423 96.8856 175.905 94.4678 177.697 92.6765Z" fill="#418A35"/>
<path d="M188.503 92.6765C186.711 90.8853 184.292 90.4033 183.098 91.5961L189.584 98.0785C190.778 96.8856 190.296 94.4678 188.503 92.6765Z" fill="#418A35"/>
<path d="M182.098 110.742H184.107V90.6606H182.098V110.742Z" fill="#876B5C"/>
<path d="M184.702 92.6687C185.812 92.6687 186.711 91.7696 186.711 90.6605C186.711 89.5514 185.812 88.6523 184.702 88.6523C183.592 88.6523 182.692 89.5514 182.692 90.6605C182.692 91.7696 183.592 92.6687 184.702 92.6687Z" fill="#B09069"/>
<path d="M181.499 92.6685C182.331 92.6685 183.006 91.9942 183.006 91.1624C183.006 90.3306 182.331 89.6562 181.499 89.6562C180.666 89.6562 179.992 90.3306 179.992 91.1624C179.992 91.9942 180.666 92.6685 181.499 92.6685Z" fill="#B09069"/>
<path d="M138.274 106.389C141.256 106.389 143.675 107.999 143.675 109.987H132.873C132.873 107.999 135.292 106.389 138.274 106.389Z" fill="#418A35"/>
<path d="M127.476 106.389C130.458 106.389 132.877 107.999 132.877 109.987H122.075C122.075 107.999 124.494 106.389 127.476 106.389Z" fill="#418A35"/>
<path d="M131.431 104.401C132.439 101.373 134.899 99.4607 136.92 100.135L133.259 111.108C131.238 110.433 130.418 107.433 131.431 104.405V104.401Z" fill="#418A35"/>
<path d="M127.472 112.055C129.264 110.264 131.684 109.782 132.877 110.975L126.391 117.457C125.197 116.265 125.68 113.847 127.472 112.055Z" fill="#418A35"/>
<path d="M138.278 112.055C136.486 110.264 134.067 109.782 132.873 110.975L139.359 117.457C140.553 116.265 140.071 113.847 138.278 112.055Z" fill="#418A35"/>
<path d="M131.872 130.121H133.882V110.04H131.872V130.121Z" fill="#876B5C"/>
<path d="M134.477 112.048C135.586 112.048 136.486 111.148 136.486 110.039C136.486 108.93 135.586 108.031 134.477 108.031C133.367 108.031 132.467 108.93 132.467 110.039C132.467 111.148 133.367 112.048 134.477 112.048Z" fill="#B09069"/>
<path d="M131.274 112.047C132.106 112.047 132.781 111.373 132.781 110.541C132.781 109.709 132.106 109.035 131.274 109.035C130.441 109.035 129.767 109.709 129.767 110.541C129.767 111.373 130.441 112.047 131.274 112.047Z" fill="#B09069"/>
<path d="M336.5 107C373.958 107 406.241 122.564 421 145H252C266.759 122.564 299.042 107 336.5 107Z" fill="#71C133"/>
<path d="M161 120.305C185.381 120.305 206.394 130.545 216 145.305H106C115.606 130.545 136.619 120.305 161 120.305Z" fill="#71C133"/>
<path d="M85.221 119.605L98.5654 130.277V146.283H71.8767V130.277L85.221 119.605Z" fill="#B09069"/>
<path d="M71.6686 132.153L85.2209 121.316L98.778 132.153L100.442 130.07L85.2209 117.9L69.9999 130.07L71.6686 132.153Z" fill="#876B5C"/>
<path d="M86.4688 138.28H91.8057V143.614H86.4688V138.28Z" fill="white"/>
<path d="M78.4611 138.28H83.7979V143.614H78.4611V138.28Z" fill="white"/>
<path d="M86.4688 130.277H91.8057V135.611H86.4688V130.277Z" fill="white"/>
<path d="M78.4611 130.277H83.7979V135.611H78.4611V130.277Z" fill="white"/>
<path d="M148.554 65.7996C145.245 66.3221 140.684 64.7975 139.745 61.9554C139.689 61.7911 139.618 61.6202 139.529 61.4428C139.022 60.4965 138.005 59.8887 136.879 59.8887C135.653 59.8887 134.189 60.6477 134.055 62.1065V63.5687C134.472 64.2357 135.236 65.5401 135.31 66.2991C135.504 68.3526 136.741 70.1105 138.705 71.0305C139.562 71.4675 140.598 71.7205 141.846 71.7205C145.543 71.7205 148.539 69.0853 148.554 65.8292C148.684 65.8029 148.86 65.7569 148.554 65.8062V65.7996Z" fill="#C4ECEE"/>
<path d="M134.054 62.1035L132.325 62.6687L134.054 63.5657C134.293 63.0564 134.338 62.5931 134.054 62.1035Z" fill="#F99428"/>
<path d="M136.238 62.35C135.93 62.35 135.679 62.1293 135.679 61.8571C135.679 61.5849 135.93 61.3643 136.238 61.3643C136.547 61.3643 136.797 61.5849 136.797 61.8571C136.797 62.1293 136.547 62.35 136.238 62.35Z" fill="#4D4C4D"/>
<path d="M146.822 61.2588C148.01 63.2236 147.168 65.6649 144.94 66.7098C142.711 67.7579 139.943 67.0153 138.758 65.0505L146.822 61.2588Z" fill="#C4EBEE"/>
<path d="M105.731 64.9286C102.973 65.3623 99.1725 64.094 98.3899 61.725C98.3452 61.587 98.2856 61.4457 98.211 61.2979C97.7862 60.5093 96.9403 60 96.005 60C94.984 60 93.7617 60.6341 93.6537 61.8466V63.0656C94.0002 63.6208 94.6374 64.7084 94.697 65.3393C94.8573 67.0511 95.8895 68.5133 97.5254 69.2821C98.2408 69.6468 99.1017 69.8571 100.141 69.8571C103.219 69.8571 105.72 67.659 105.731 64.9483C105.839 64.9286 105.984 64.8891 105.731 64.9286Z" fill="#C4ECEE"/>
<path d="M93.6501 61.8461L92.208 62.3159L93.6501 63.0618C93.8476 62.6379 93.8849 62.2502 93.6501 61.8428V61.8461Z" fill="#F99428"/>
<path d="M95.4688 62.0538C95.2115 62.0538 95.003 61.87 95.003 61.6431C95.003 61.4163 95.2115 61.2324 95.4688 61.2324C95.726 61.2324 95.9346 61.4163 95.9346 61.6431C95.9346 61.87 95.726 62.0538 95.4688 62.0538Z" fill="#4D4C4D"/>
<path d="M104.289 61.1436C105.28 62.7798 104.575 64.8137 102.72 65.6877C100.864 66.5617 98.5573 65.9407 97.5661 64.3044L104.289 61.1436Z" fill="#C4EBEE"/>
<path d="M91.5229 76.0711C88.7654 76.5048 84.9644 75.2366 84.1819 72.8676C84.1372 72.7296 84.0776 72.5883 84.003 72.4404C83.5782 71.6519 82.7323 71.1426 81.797 71.1426C80.776 71.1426 79.5537 71.7767 79.4456 72.9891V74.2081C79.7922 74.7634 80.4294 75.851 80.489 76.4818C80.6493 78.1937 81.6815 79.6558 83.3174 80.4247C84.0328 80.7894 84.8936 80.9997 85.9333 80.9997C89.0113 80.9997 91.5117 78.8015 91.5229 76.0908C91.631 76.0711 91.7763 76.0317 91.5229 76.0711Z" fill="#C4ECEE"/>
<path d="M79.4421 72.9886L78 73.4585L79.4421 74.2043C79.6396 73.7805 79.6769 73.3928 79.4421 72.9854V72.9886Z" fill="#F99428"/>
<path d="M81.2603 73.1964C81.003 73.1964 80.7945 73.0125 80.7945 72.7857C80.7945 72.5589 81.003 72.375 81.2603 72.375C81.5175 72.375 81.7261 72.5589 81.7261 72.7857C81.7261 73.0125 81.5175 73.1964 81.2603 73.1964Z" fill="#4D4C4D"/>
<path d="M90.0771 72.2861C91.0683 73.9224 90.364 75.9563 88.5083 76.8303C86.6525 77.7043 84.3459 77.0833 83.3547 75.447L90.0771 72.2861Z" fill="#C4EBEE"/>
<path d="M51.827 110C56.0406 110 59.4591 112.278 59.4591 115.084H44.1948C44.1948 112.274 47.6133 110 51.827 110Z" fill="#418A35"/>
<path d="M36.5628 110C40.7765 110 44.195 112.278 44.195 115.084H28.9307C28.9307 112.274 32.3492 110 36.5628 110Z" fill="#418A35"/>
<path d="M42.1539 107.19C43.5809 102.908 47.0562 100.209 49.9103 101.159L44.7382 116.666C41.8805 115.715 40.7233 111.472 42.1539 107.19Z" fill="#418A35"/>
<path d="M36.5559 118.008C39.0869 115.478 42.5054 114.793 44.1951 116.482L35.0295 125.642C33.3433 123.957 34.0249 120.537 36.5559 118.008Z" fill="#418A35"/>
<path d="M51.8341 118.008C49.303 115.478 45.8845 114.793 44.1948 116.482L53.3605 125.642C55.0467 123.957 54.3651 120.537 51.8341 118.008Z" fill="#418A35"/>
<path d="M42.7749 149.216H45.6147L45.6147 115.158H42.7749L42.7749 149.216Z" fill="#876B5C"/>
<path d="M46.4561 117.997C48.0245 117.997 49.2959 116.726 49.2959 115.158C49.2959 113.591 48.0245 112.32 46.4561 112.32C44.8877 112.32 43.6162 113.591 43.6162 115.158C43.6162 116.726 44.8877 117.997 46.4561 117.997Z" fill="#B09069"/>
<path d="M41.9336 117.996C43.1099 117.996 44.0635 117.043 44.0635 115.868C44.0635 114.692 43.1099 113.739 41.9336 113.739C40.7573 113.739 39.8037 114.692 39.8037 115.868C39.8037 117.043 40.7573 117.996 41.9336 117.996Z" fill="#B09069"/>
<path d="M28.6151 107.289C33.883 107.289 38.157 110.134 38.157 113.647H19.0767C19.0767 110.134 23.3471 107.289 28.6186 107.289H28.6151Z" fill="#418A35"/>
<path d="M9.53841 107.289C14.8064 107.289 19.0804 110.134 19.0804 113.647H0C0 110.134 4.27045 107.289 9.54196 107.289H9.53841Z" fill="#418A35"/>
<path d="M16.5248 103.777C18.3104 98.4236 22.6518 95.0498 26.2229 96.2382L19.7587 115.619C16.1876 114.431 14.7428 109.127 16.5248 103.774V103.777Z" fill="#418A35"/>
<path d="M9.5277 117.301C12.6906 114.14 16.9646 113.285 19.0768 115.392L7.61788 126.844C5.50928 124.737 6.36479 120.465 9.5277 117.301Z" fill="#418A35"/>
<path d="M28.6257 117.301C25.4628 114.14 21.1888 113.285 19.0767 115.392L30.5355 126.844C32.6441 124.737 31.7886 120.465 28.6257 117.301Z" fill="#418A35"/>
<path d="M17.3022 156.311H20.8521L20.8521 113.738H17.3022L17.3022 156.311Z" fill="#876B5C"/>
<path d="M21.9024 117.287C23.8629 117.287 25.4522 115.698 25.4522 113.739C25.4522 111.78 23.8629 110.191 21.9024 110.191C19.9419 110.191 18.3525 111.78 18.3525 113.739C18.3525 115.698 19.9419 117.287 21.9024 117.287Z" fill="#B09069"/>
<path d="M16.2512 117.286C17.7216 117.286 18.9136 116.095 18.9136 114.626C18.9136 113.156 17.7216 111.965 16.2512 111.965C14.7809 111.965 13.5889 113.156 13.5889 114.626C13.5889 116.095 14.7809 117.286 16.2512 117.286Z" fill="#B09069"/>
<path d="M255.253 28.7344H255.702V37.714H255.253V28.7344Z" fill="#876B5C"/>
<path d="M261.406 28.3778L261.846 28.4707L259.803 38.1258L259.363 38.0329L261.406 28.3778Z" fill="#876B5C"/>
<path d="M249.442 28.359L251.486 38.0137L251.047 38.1066L249.002 28.4519L249.442 28.359Z" fill="#876B5C"/>
<path d="M258.847 44.0003H252.108L250.985 37.2656H259.97L258.847 44.0003Z" fill="#876B5C"/>
<path d="M268.955 13.4694C268.955 4.79211 262.92 0 255.477 0C248.035 0 242 4.79211 242 13.4694C242 17.0642 245.66 23.3888 248.367 26.9388H262.585C265.292 23.3888 268.952 17.0642 268.952 13.4694H268.955Z" fill="#FF5538"/>
<path d="M264.462 13.4694C264.462 4.79211 260.44 0 255.477 0C250.515 0 246.492 4.79211 246.492 13.4694C246.492 17.0642 248.933 23.3888 250.739 26.9388H260.218C262.024 23.3888 264.465 17.0642 264.465 13.4694H264.462Z" fill="white"/>
<path d="M258.847 13.4694C258.847 4.79211 257.338 0 255.478 0C253.618 0 252.108 4.79211 252.108 13.4694C252.108 17.0642 253.025 23.3888 253.702 26.9388H257.257C257.934 23.3888 258.85 17.0642 258.85 13.4694H258.847Z" fill="#FF5538"/>
<path d="M262.587 26.9385H248.367L249.266 29.1834H261.689L262.587 26.9385Z" fill="#E14B31"/>
</svg>
