<svg width="1130" height="47" viewBox="0 0 1130 47" fill="none" xmlns="http://www.w3.org/2000/svg">
<path d="M0 24H1130V46C1053.24 46 0 46.5 0 46.5V24Z" fill="#9FD1D6"/>
<path d="M1130 0H0L0.000106077 24H1130C1130 2.89617 1130 3 1130 0Z" fill="#FEEEDD"/>
<path d="M390.132 37.1934C395.353 37.1934 399.586 36.7704 399.586 36.2485C399.586 35.7267 395.353 35.3037 390.132 35.3037C384.91 35.3037 380.678 35.7267 380.678 36.2485C380.678 36.7704 384.91 37.1934 390.132 37.1934Z" fill="#BFE1E4"/>
<path d="M491.763 36.721C491.763 35.9367 487.003 35.3037 481.127 35.3037C475.251 35.3037 470.491 35.9367 470.491 36.721C470.491 37.5052 475.251 38.1382 481.127 38.1382C487.003 38.1382 491.763 37.5052 491.763 36.721Z" fill="#BFE1E4"/>
<path d="M229.414 40.0283C234.635 40.0283 238.868 39.6053 238.868 39.0835C238.868 38.5617 234.635 38.1387 229.414 38.1387C224.193 38.1387 219.96 38.5617 219.96 39.0835C219.96 39.6053 224.193 40.0283 229.414 40.0283Z" fill="#BFE1E4"/>
<path d="M87.6034 35.3037C92.8247 35.3037 97.0575 34.8807 97.0575 34.3589C97.0575 33.8371 92.8247 33.4141 87.6034 33.4141C82.3821 33.4141 78.1494 33.8371 78.1494 34.3589C78.1494 34.8807 82.3821 35.3037 87.6034 35.3037Z" fill="#BFE1E4"/>
<path d="M908.39 37.7793C913.611 37.7793 917.844 37.3563 917.844 36.8345C917.844 36.3127 913.611 35.8896 908.39 35.8896C903.168 35.8896 898.936 36.3127 898.936 36.8345C898.936 37.3563 903.168 37.7793 908.39 37.7793Z" fill="#BFE1E4"/>
<path d="M1010.02 37.3069C1010.02 36.5227 1005.26 35.8896 999.384 35.8896C993.509 35.8896 988.749 36.5227 988.749 37.3069C988.749 38.0911 993.509 38.7241 999.384 38.7241C1005.26 38.7241 1010.02 38.0911 1010.02 37.3069Z" fill="#BFE1E4"/>
<path d="M747.671 40.6143C752.892 40.6143 757.125 40.1913 757.125 39.6694C757.125 39.1476 752.892 38.7246 747.671 38.7246C742.45 38.7246 738.217 39.1476 738.217 39.6694C738.217 40.1913 742.45 40.6143 747.671 40.6143Z" fill="#BFE1E4"/>
<path d="M605.861 35.8897C611.082 35.8897 615.315 35.4666 615.315 34.9448C615.315 34.423 611.082 34 605.861 34C600.639 34 596.407 34.423 596.407 34.9448C596.407 35.4666 600.639 35.8897 605.861 35.8897Z" fill="#BFE1E4"/>
</svg>
