<svg width="187" height="164" viewBox="0 0 187 164" fill="none" xmlns="http://www.w3.org/2000/svg">
<g clip-path="url(#clip0_3619_317648)">
<g clip-path="url(#clip1_3619_317648)">
<path d="M34.3 76.8512L34.5597 77.4883C34.8253 78.1398 35.5678 78.4523 36.2181 78.1863L68.108 65.1445C68.7584 64.8785 69.0703 64.1348 68.8048 63.4834L68.5451 62.8462C68.2796 62.1948 67.5371 61.8823 66.8867 62.1483L34.9968 75.1901C34.3464 75.4561 34.0345 76.1998 34.3 76.8512Z" fill="#C38C6B"/>
<path d="M58.2695 67.4521V64.0531C58.2695 56.2565 51.9595 49.9362 44.1756 49.9362C36.3918 49.9362 30.0817 56.2565 30.0817 64.0531V67.4521C30.0817 75.2487 36.3918 81.5691 44.1756 81.5691C51.9595 81.5691 58.2695 75.2487 58.2695 67.4521Z" fill="#74A734"/>
<path d="M40.0301 73.2133H36.502C35.279 73.2133 34.2876 74.2063 34.2876 75.4313V167.787C34.2876 169.012 35.279 170.005 36.502 170.005H40.0301C41.253 170.005 42.2444 169.012 42.2444 167.787V75.4313C42.2444 74.2063 41.253 73.2133 40.0301 73.2133Z" fill="#C38C6B"/>
<path d="M22.9504 92.8962L22.3112 93.4982C21.8144 93.9662 21.7904 94.7489 22.2576 95.2466L33.719 107.455C34.1862 107.952 34.9677 107.976 35.4645 107.508L36.1037 106.906C36.6005 106.438 36.6245 105.656 36.1573 105.158L24.6959 92.9499C24.2287 92.4523 23.4472 92.4282 22.9504 92.8962Z" fill="#C38C6B"/>
<path d="M18.2766 59.256L17.2971 59.5288C16.6401 59.7118 16.2555 60.3937 16.4382 61.0518L20.9206 77.1973C21.1033 77.8554 21.7841 78.2406 22.4411 78.0575L23.4206 77.7847C24.0777 77.6017 24.4622 76.9198 24.2795 76.2617L19.7971 60.1163C19.6144 59.4581 18.9337 59.073 18.2766 59.256Z" fill="#C38C6B"/>
<path d="M15.8396 66.3966C8.04058 66.3966 1.66211 60.0077 1.66211 52.196C1.66675 44.3889 8.04522 38 15.8396 38C23.6386 38 30.017 44.3889 30.017 52.2006C30.017 60.0124 23.6386 66.4013 15.8396 66.4013V66.3966Z" fill="#74A734"/>
<path d="M124.162 69.9119H117.078C113.986 69.9119 111.479 72.4226 111.479 75.5197C111.479 78.6167 113.986 81.1274 117.078 81.1274H124.162C127.254 81.1274 129.761 78.6167 129.761 75.5197C129.761 72.4226 127.254 69.9119 124.162 69.9119Z" fill="#FCBB38"/>
<path d="M131 75.5197C131 72.4226 128.493 69.9119 125.401 69.9119C122.309 69.9119 119.803 72.4226 119.803 75.5197C119.803 78.6167 122.309 81.1274 125.401 81.1274C128.493 81.1274 131 78.6167 131 75.5197Z" fill="#FFEAD6"/>
<path d="M32.4308 62.8674C27.8257 62.8674 24.0562 59.0917 24.0562 54.4791C24.0562 49.8664 27.8257 46.0907 32.4308 46.0907C37.0359 46.0907 40.8054 49.8664 40.8054 54.4791C40.8054 59.0917 37.0359 62.8674 32.4308 62.8674Z" fill="#9DBE3B"/>
<path d="M66.027 148.573H64.6343V141.561C64.6343 136.795 68.4131 132.917 73.0553 132.917V134.312C69.1791 134.312 66.027 137.563 66.027 141.561V148.573Z" fill="#FCBB38"/>
<path d="M64.5229 147.295L62.9677 150.34C62.8192 150.629 62.8702 150.968 63.0931 151.215L64.6482 152.916C65.0057 153.307 65.6556 153.307 66.013 152.916L67.5682 151.215C67.791 150.973 67.8374 150.629 67.6935 150.34L66.1384 147.295C65.8181 146.667 64.8478 146.667 64.5275 147.295H64.5229Z" fill="#CA7716"/>
<path d="M105.718 145.198H103.054C101.831 145.198 100.839 146.191 100.839 147.416V163.276C100.839 164.501 101.831 165.494 103.054 165.494H105.718C106.941 165.494 107.933 164.501 107.933 163.276V147.416C107.933 146.191 106.941 145.198 105.718 145.198Z" fill="#EFB54D"/>
<path d="M84.2711 145.198H81.6064C80.3835 145.198 79.3921 146.191 79.3921 147.416V163.276C79.3921 164.501 80.3835 165.494 81.6064 165.494H84.2711C85.4941 165.494 86.4855 164.501 86.4855 163.276V147.416C86.4855 146.191 85.4941 145.198 84.2711 145.198Z" fill="#EFB54D"/>
<path d="M88.7694 122.702H117.923V149.717H69.4019V142.101C69.4019 131.392 78.0782 122.702 88.7694 122.702Z" fill="#FCBB38"/>
<path d="M110.5 66.113H108.271V75.7893H110.5V66.113Z" fill="#CA7716"/>
<path d="M108.861 62.6396H109.915C110.834 62.6396 111.577 63.3835 111.577 64.3042V64.6948C111.577 65.6155 110.834 66.3594 109.915 66.3594H108.861C107.942 66.3594 107.199 65.6155 107.199 64.6948V64.3042C107.199 63.3835 107.942 62.6396 108.861 62.6396Z" fill="#8B532F"/>
<path d="M116.405 66.113H114.176V75.7893H116.405V66.113Z" fill="#CA7716"/>
<path d="M115.82 62.6396H114.766C113.848 62.6396 113.104 63.3848 113.104 64.3042V64.6994C113.104 65.6188 113.848 66.3641 114.766 66.3641H115.82C116.738 66.3641 117.482 65.6188 117.482 64.6994V64.3042C117.482 63.3848 116.738 62.6396 115.82 62.6396Z" fill="#8B532F"/>
<path d="M109.595 70.0096H117.923V128.57H106.768V72.8413C106.768 71.279 108.035 70.0096 109.595 70.0096Z" fill="#FCBB38"/>
<path d="M115.709 145.198H113.044C111.821 145.198 110.83 146.191 110.83 147.416V163.276C110.83 164.501 111.821 165.494 113.044 165.494H115.709C116.932 165.494 117.923 164.501 117.923 163.276V147.416C117.923 146.191 116.932 145.198 115.709 145.198Z" fill="#FCBB38"/>
<path d="M74.2809 145.198H71.6162C70.3933 145.198 69.4019 146.191 69.4019 147.416V163.276C69.4019 164.501 70.3933 165.494 71.6162 165.494H74.2809C75.5038 165.494 76.4952 164.501 76.4952 163.276V147.416C76.4952 146.191 75.5038 145.198 74.2809 145.198Z" fill="#FCBB38"/>
<path d="M114.543 79.3256C116.412 78.8851 117.571 77.0101 117.131 75.1378C116.691 73.2654 114.819 72.1047 112.95 72.5453C111.081 72.9858 109.922 74.8608 110.362 76.7331C110.802 78.6054 112.673 79.7661 114.543 79.3256Z" fill="white"/>
<path d="M111.637 75.9381C111.637 77.1052 112.58 78.0492 113.745 78.0492C114.91 78.0492 115.852 77.1052 115.852 75.9381C115.852 74.771 114.91 73.8271 113.745 73.8271C112.58 73.8271 111.637 74.771 111.637 75.9381Z" fill="#58595B"/>
<mask id="mask0_3619_317648" style="mask-type:luminance" maskUnits="userSpaceOnUse" x="69" y="122" width="49" height="28">
<path d="M88.7694 122.702H117.923V149.717H69.4019V142.101C69.4019 131.392 78.0782 122.702 88.7694 122.702Z" fill="white"/>
</mask>
<g mask="url(#mask0_3619_317648)">
<path d="M100.236 152.145C98.2673 152.145 96.6704 150.54 96.6704 148.573C96.6704 146.607 98.272 145.002 100.236 145.002C102.199 145.002 103.801 146.607 103.801 148.573C103.801 150.54 102.199 152.145 100.236 152.145Z" fill="#CD7149"/>
<path d="M84.7074 128.137C82.739 128.137 81.1421 126.533 81.1421 124.566C81.1421 122.599 82.7437 120.995 84.7074 120.995C86.671 120.995 88.2726 122.599 88.2726 124.566C88.2726 126.533 86.671 128.137 84.7074 128.137Z" fill="#CD7149"/>
<path d="M72.9486 137.186C70.9802 137.186 69.3833 135.582 69.3833 133.615C69.3833 131.648 70.9849 130.044 72.9486 130.044C74.9122 130.044 76.5138 131.648 76.5138 133.615C76.5138 135.582 74.9122 137.186 72.9486 137.186Z" fill="#CD7149"/>
<path d="M95.9554 133.071C93.9871 133.071 92.3901 131.467 92.3901 129.5C92.3901 127.533 93.9917 125.929 95.9554 125.929C97.9191 125.929 99.5207 127.533 99.5207 129.5C99.5207 131.467 97.9191 133.071 95.9554 133.071Z" fill="#CD7149"/>
<path d="M107.932 140.455C105.964 140.455 104.367 138.851 104.367 136.884C104.367 134.917 105.969 133.313 107.932 133.313C109.896 133.313 111.498 134.917 111.498 136.884C111.498 138.851 109.896 140.455 107.932 140.455Z" fill="#CD7149"/>
<path d="M89.8138 144.668C87.8455 144.668 86.2485 143.063 86.2485 141.097C86.2485 139.13 87.8501 137.525 89.8138 137.525C91.7775 137.525 93.3791 139.13 93.3791 141.097C93.3791 143.063 91.7775 144.668 89.8138 144.668Z" fill="#CD7149"/>
<path d="M77.6278 147.755C75.6594 147.755 74.0625 146.151 74.0625 144.184C74.0625 142.217 75.6641 140.613 77.6278 140.613C79.5914 140.613 81.193 142.217 81.193 144.184C81.193 146.151 79.5914 147.755 77.6278 147.755Z" fill="#CD7149"/>
</g>
<mask id="mask1_3619_317648" style="mask-type:luminance" maskUnits="userSpaceOnUse" x="106" y="70" width="12" height="59">
<path d="M117.923 70.0096H106.768V128.57H117.923V70.0096Z" fill="white"/>
</mask>
<g mask="url(#mask1_3619_317648)">
<path d="M106.767 111.296C104.799 111.296 103.202 109.691 103.202 107.725C103.202 105.758 104.804 104.153 106.767 104.153C108.731 104.153 110.333 105.758 110.333 107.725C110.333 109.691 108.731 111.296 106.767 111.296Z" fill="#CD7149"/>
<path d="M117.923 109.217C115.954 109.217 114.357 107.613 114.357 105.646C114.357 103.679 115.959 102.075 117.923 102.075C119.886 102.075 121.488 103.679 121.488 105.646C121.488 107.613 119.886 109.217 117.923 109.217Z" fill="#CD7149"/>
<path d="M117.923 95.3699C115.954 95.3699 114.357 93.7657 114.357 91.7988C114.357 89.8319 115.959 88.2277 117.923 88.2277C119.886 88.2277 121.488 89.8319 121.488 91.7988C121.488 93.7657 119.886 95.3699 117.923 95.3699Z" fill="#CD7149"/>
<path d="M106.767 92.7288C104.799 92.7288 103.202 91.1246 103.202 89.1577C103.202 87.1908 104.804 85.5866 106.767 85.5866C108.731 85.5866 110.333 87.1908 110.333 89.1577C110.333 91.1246 108.731 92.7288 106.767 92.7288Z" fill="#CD7149"/>
<path d="M112.343 125.282C110.374 125.282 108.777 123.678 108.777 121.711C108.777 119.744 110.379 118.14 112.343 118.14C114.306 118.14 115.908 119.744 115.908 121.711C115.908 123.678 114.306 125.282 112.343 125.282Z" fill="#CD7149"/>
</g>
<path d="M107.478 78.4816H100.361V76.8076C100.361 74.4595 102.264 72.553 104.609 72.553H107.478C108.053 72.553 108.518 73.0227 108.518 73.5946V77.4354C108.518 78.012 108.049 78.4769 107.478 78.4769V78.4816Z" fill="#FCBB38"/>
<path d="M39.6171 70.8233H12.627C5.65328 70.8233 0 76.4848 0 83.4686C0 90.4524 5.65328 96.1139 12.627 96.1139H39.6171C46.5907 96.1139 52.244 90.4524 52.244 83.4686C52.244 76.4848 46.5907 70.8233 39.6171 70.8233Z" fill="#9DBE3B"/>
<path d="M53.33 122.544C51.176 122.544 49.3655 120.856 49.2402 118.67C49.2123 118.159 49.6023 117.717 50.1129 117.689C50.6236 117.661 51.0646 118.052 51.0924 118.563C51.1621 119.8 52.2251 120.753 53.46 120.679C53.9706 120.651 54.4117 121.042 54.4395 121.553C54.4674 122.065 54.0774 122.506 53.5668 122.534C53.4878 122.534 53.4089 122.539 53.33 122.539V122.544Z" fill="#B59145"/>
<path d="M50.3264 118.847C50.15 118.847 49.9689 118.796 49.8111 118.689C49.384 118.405 49.268 117.824 49.5558 117.401C50.6699 115.732 52.9307 115.281 54.6019 116.396C55.029 116.68 55.1451 117.261 54.8572 117.684C54.5741 118.112 53.9984 118.229 53.5713 117.94C52.7543 117.396 51.6494 117.615 51.1017 118.433C50.9206 118.703 50.6281 118.847 50.3264 118.847Z" fill="#B59145"/>
<path d="M50.322 124.273C50.1178 124.273 49.9135 124.208 49.7417 124.069C48.8876 123.381 48.3537 122.399 48.2376 121.311C48.1216 120.223 48.4326 119.149 49.1243 118.294C49.4446 117.894 50.0295 117.829 50.4288 118.154C50.828 118.475 50.893 119.061 50.5681 119.461C50.192 119.93 50.0203 120.516 50.0853 121.111C50.1502 121.707 50.4427 122.241 50.9069 122.623C51.3062 122.943 51.3712 123.529 51.0462 123.929C50.8652 124.157 50.5959 124.278 50.322 124.278V124.273Z" fill="#B59145"/>
<path d="M46.7196 123.083C46.2229 123.083 45.8097 122.688 45.7911 122.186C45.7493 121.088 46.1393 120.042 46.8821 119.238C47.6248 118.433 48.6415 117.968 49.7371 117.931C50.2384 117.908 50.6794 118.312 50.698 118.828C50.7166 119.34 50.3173 119.772 49.802 119.791C49.2032 119.814 48.6461 120.065 48.2422 120.507C47.8337 120.949 47.6248 121.521 47.6434 122.12C47.662 122.632 47.2627 123.064 46.7474 123.083C46.7381 123.083 46.7242 123.083 46.7149 123.083H46.7196Z" fill="#B59145"/>
<path d="M49.1287 120.019C48.3906 120.019 47.7221 119.512 47.5503 118.763C44.9274 107.548 51.9001 96.2859 63.0973 93.6587C63.97 93.4541 64.8474 93.9981 65.0517 94.8723C65.2559 95.7465 64.7128 96.6253 63.84 96.8299C54.3884 99.0479 48.502 108.557 50.7163 118.024C50.9206 118.898 50.3775 119.777 49.5047 119.982C49.3794 120.009 49.254 120.023 49.1333 120.023L49.1287 120.019Z" fill="#8C6741"/>
<path d="M92.6592 115.518C92.2878 115.518 91.935 115.294 91.7957 114.927C91.61 114.448 91.8468 113.909 92.3249 113.723C93.4762 113.272 94.0472 111.965 93.6016 110.812C93.4159 110.333 93.6526 109.794 94.1308 109.608C94.6089 109.422 95.1474 109.659 95.3331 110.138C96.1548 112.249 95.1103 114.634 93.0027 115.457C92.8913 115.499 92.7799 115.522 92.6638 115.522L92.6592 115.518Z" fill="#B59145"/>
<path d="M90.2916 111.719C90.1245 111.719 89.9574 111.672 89.8042 111.579C89.3678 111.31 89.2332 110.738 89.5024 110.301C90.5562 108.589 92.7984 108.059 94.5068 109.11C94.9432 109.38 95.0778 109.952 94.8085 110.389C94.5393 110.826 93.9683 110.961 93.5319 110.691C92.6963 110.175 91.5961 110.435 91.0808 111.272C90.9044 111.556 90.6027 111.714 90.2916 111.714V111.719Z" fill="#B59145"/>
<path d="M96.28 115.759C96.1407 115.759 96.0014 115.727 95.8668 115.662C95.4072 115.434 95.2215 114.876 95.449 114.416C96.0014 113.309 95.5511 111.956 94.4416 111.403C93.982 111.175 93.7963 110.617 94.0238 110.156C94.2513 109.696 94.8084 109.51 95.2679 109.738C97.292 110.747 98.1136 113.221 97.1063 115.248C96.9438 115.573 96.6142 115.764 96.2753 115.764L96.28 115.759Z" fill="#B59145"/>
<path d="M99.0607 113.179C98.694 113.179 98.3505 112.965 98.2019 112.602C97.9744 112.049 97.5427 111.616 96.9856 111.384C96.4332 111.156 95.8251 111.156 95.268 111.384C94.7945 111.579 94.2513 111.356 94.0564 110.882C93.8614 110.407 94.0842 109.863 94.5577 109.668C95.5697 109.25 96.6839 109.25 97.6959 109.668C98.7079 110.087 99.4971 110.877 99.9149 111.891C100.11 112.365 99.887 112.909 99.4135 113.104C99.2975 113.151 99.1768 113.174 99.0607 113.174V113.179Z" fill="#B59145"/>
<path d="M95.3053 111.463C94.5486 111.463 93.8709 110.928 93.713 110.156C91.7911 100.624 82.4834 94.4352 72.9668 96.3603C72.0894 96.537 71.2306 95.9697 71.0541 95.0862C70.8777 94.2074 71.4441 93.3472 72.3261 93.1705C83.5975 90.8921 94.6229 98.2202 96.8976 109.51C97.074 110.389 96.5077 111.249 95.6256 111.426C95.5189 111.449 95.4075 111.458 95.3007 111.458L95.3053 111.463Z" fill="#8C6741"/>
<path d="M65.8131 102.228H72.238C74.6967 102.228 76.6899 100.232 76.6899 97.7692V83.3267C76.6899 80.864 74.6967 78.8675 72.238 78.8675H65.8131C63.3544 78.8675 61.3612 80.864 61.3612 83.3267V97.7692C61.3612 100.232 63.3544 102.228 65.8131 102.228Z" fill="#8C6741"/>
<path d="M66.9971 117.006H71.0498C75.9519 117.006 79.9258 113.025 79.9258 108.115V106.083C79.9258 101.173 75.9519 97.1926 71.0498 97.1926H66.9971C62.095 97.1926 58.1211 101.173 58.1211 106.083V108.115C58.1211 113.025 62.095 117.006 66.9971 117.006Z" fill="#A97C50"/>
<path d="M60.9853 108.696H57.1462C55.9113 108.696 54.904 107.692 54.904 106.45V106.046C54.904 104.809 55.9067 103.8 57.1462 103.8H60.9853C62.2202 103.8 63.2275 104.804 63.2275 106.046V106.45C63.2275 107.687 62.2248 108.696 60.9853 108.696Z" fill="#A97C50"/>
<path d="M80.9052 108.696H77.0661C75.8313 108.696 74.8239 107.692 74.8239 106.45V106.046C74.8239 104.809 75.8266 103.8 77.0661 103.8H80.9052C82.1401 103.8 83.1475 104.804 83.1475 106.046V106.45C83.1475 107.687 82.1447 108.696 80.9052 108.696Z" fill="#A97C50"/>
<path d="M65.553 115.215H72.4932C75.4391 115.215 77.8271 112.823 77.8271 109.873V108.906C77.8271 105.955 75.4391 103.563 72.4932 103.563H65.553C62.6071 103.563 60.219 105.955 60.219 108.906V109.873C60.219 112.823 62.6071 115.215 65.553 115.215Z" fill="#F9BBB8"/>
<path d="M72.0707 118.461H65.98C64.1463 118.461 62.6562 116.968 62.6562 115.132V114.527C62.6562 112.691 64.1463 111.198 65.98 111.198H72.0707C73.9044 111.198 75.3945 112.691 75.3945 114.527V115.132C75.3945 116.968 73.9044 118.461 72.0707 118.461Z" fill="#9A8479"/>
<path d="M74.5036 109.496C74.2808 109.496 74.0858 109.338 74.0486 109.11C73.9465 108.51 73.4359 108.078 72.8324 108.078C72.2289 108.078 71.7182 108.51 71.6161 109.11C71.5743 109.361 71.3329 109.533 71.0822 109.491C70.8316 109.45 70.6598 109.208 70.7016 108.957C70.878 107.911 71.7786 107.153 72.837 107.153C73.8954 107.153 74.7914 107.911 74.9725 108.957C75.0142 109.208 74.8471 109.45 74.5918 109.491C74.5639 109.491 74.5407 109.496 74.5129 109.496H74.5036Z" fill="#5A4A42"/>
<path d="M66.904 109.496C66.6812 109.496 66.4862 109.338 66.449 109.11C66.3469 108.51 65.8363 108.078 65.2328 108.078C64.6293 108.078 64.1186 108.51 64.0165 109.11C63.9747 109.361 63.7333 109.533 63.4826 109.491C63.232 109.45 63.0602 109.208 63.102 108.957C63.2784 107.911 64.179 107.153 65.2374 107.153C66.2958 107.153 67.1918 107.911 67.3729 108.957C67.4146 109.208 67.2475 109.45 66.9922 109.491C66.9643 109.491 66.9411 109.496 66.9133 109.496H66.904Z" fill="#5A4A42"/>
<path d="M69.0257 117.559C66.5653 117.559 64.467 116.359 64.0353 114.709C63.9703 114.462 64.1188 114.206 64.3649 114.141C64.6156 114.081 64.8663 114.225 64.9312 114.471C65.2516 115.704 67.011 116.629 69.0257 116.629C71.0405 116.629 72.7952 115.699 73.1202 114.471C73.1852 114.225 73.4405 114.076 73.6866 114.141C73.9326 114.206 74.0811 114.462 74.0162 114.709C73.5844 116.359 71.4861 117.559 69.0257 117.559Z" fill="#5A4A42"/>
<path d="M69.0257 117.447C68.7704 117.447 68.5615 117.238 68.5615 116.982V113.709C68.5615 113.453 68.7704 113.244 69.0257 113.244C69.2811 113.244 69.49 113.453 69.49 113.709V116.982C69.49 117.238 69.2811 117.447 69.0257 117.447Z" fill="#5A4A42"/>
<path d="M69.0256 113.955C68.2829 113.955 67.6561 113.421 67.5308 112.691C67.489 112.439 67.6561 112.198 67.9115 112.156C68.1622 112.109 68.4036 112.281 68.4453 112.537C68.4918 112.821 68.7378 113.03 69.0256 113.03C69.3134 113.03 69.5548 112.821 69.6059 112.537C69.6477 112.286 69.8891 112.114 70.1398 112.156C70.3904 112.198 70.5622 112.439 70.5204 112.691C70.3951 113.425 69.7684 113.955 69.0256 113.955Z" fill="#5A4A42"/>
<path d="M69.0258 83.3314C68.3852 83.3314 67.8653 82.8106 67.8653 82.1689V63.1743C67.8653 62.0583 66.9554 61.1469 65.8413 61.1469C64.7271 61.1469 63.8172 62.0583 63.8172 63.1743V69.1121C63.8172 69.7538 63.2973 70.2746 62.6567 70.2746C62.016 70.2746 61.4961 69.7538 61.4961 69.1121V63.1743C61.4961 60.775 63.4458 58.822 65.8413 58.822C68.2367 58.822 70.1864 60.775 70.1864 63.1743V82.1689C70.1864 82.8106 69.6665 83.3314 69.0258 83.3314Z" fill="#8C6741"/>
<path d="M44.9603 84.7915C44.8721 84.7915 44.7839 84.7775 44.6957 84.7543C42.5277 84.1126 41.2836 81.8249 41.9242 79.6534C42.0681 79.1605 42.5881 78.8768 43.0755 79.0256C43.5676 79.1698 43.8461 79.6906 43.7022 80.1788C43.5304 80.7554 43.5954 81.3645 43.8833 81.8899C44.1711 82.4154 44.6446 82.8013 45.2202 82.9687C45.7123 83.1129 45.9909 83.6336 45.8469 84.1219C45.7262 84.5264 45.3595 84.7868 44.9556 84.7868L44.9603 84.7915Z" fill="#B59145"/>
<path d="M45.6752 84.7915C45.2992 84.7915 44.9464 84.559 44.8071 84.187C44.6261 83.708 44.8721 83.1687 45.3503 82.9873C46.2694 82.6432 46.7337 81.611 46.3901 80.6903C46.2091 80.2114 46.4551 79.672 46.9333 79.4906C47.4161 79.3093 47.9499 79.5557 48.131 80.0347C48.8366 81.9132 47.8803 84.0196 46.0048 84.7264C45.8981 84.7682 45.7866 84.7868 45.6799 84.7868L45.6752 84.7915Z" fill="#B59145"/>
<path d="M43.2658 85.3587C41.7385 85.3587 40.2715 84.5032 39.5659 83.0338C39.3431 82.5688 39.5381 82.0155 39.9976 81.7923C40.4619 81.5691 41.0143 81.7644 41.2371 82.2248C41.7756 83.3407 43.1172 83.8104 44.2314 83.2756C44.6956 83.0524 45.248 83.2477 45.4709 83.7081C45.6937 84.173 45.4987 84.7264 45.0345 84.9496C44.4635 85.2239 43.86 85.3541 43.2611 85.3541L43.2658 85.3587Z" fill="#B59145"/>
<path d="M41.5808 87.4558C41.2187 87.4558 40.852 87.4093 40.4945 87.307C39.9978 87.1722 39.71 86.6607 39.8446 86.1632C39.9792 85.6656 40.4899 85.3773 40.9866 85.5122C41.5669 85.6703 42.1704 85.5959 42.6903 85.2983C43.2103 85.0007 43.5816 84.5171 43.7395 83.9405C43.8741 83.443 44.3848 83.1547 44.8815 83.2896C45.3782 83.4244 45.666 83.9359 45.5314 84.4334C45.2436 85.4936 44.5612 86.3771 43.6095 86.9211C42.9828 87.2791 42.2865 87.4651 41.5855 87.4651L41.5808 87.4558Z" fill="#B59145"/>
<path d="M54.992 94.3144C54.1982 94.3144 53.4183 94.0493 52.7638 93.5285L44.3195 86.4422C43.6324 85.8656 43.5396 84.838 44.1152 84.1498C44.6909 83.4616 45.7168 83.3686 46.4039 83.9452L54.8156 91.0037C54.8946 91.0641 55.0153 91.0781 55.1452 91.0176C55.2752 90.9572 55.3402 90.8502 55.3402 90.7107V84.3497C55.3402 82.6851 56.6958 81.3273 58.3577 81.3273H63.9098C64.8058 81.3273 65.5346 82.0574 65.5346 82.9548C65.5346 83.8522 64.8058 84.5822 63.9098 84.5822H58.5898V90.7107C58.5898 92.1057 57.8099 93.3425 56.5611 93.9517C56.0598 94.1935 55.5259 94.3144 54.992 94.3144Z" fill="#8C6741"/>
<path d="M93.9131 69.4237C93.5928 69.4237 93.2864 69.2609 93.11 68.9634C92.8501 68.5216 92.9986 67.9497 93.4396 67.6893C93.9549 67.3824 94.3217 66.8942 94.4748 66.3176C94.6234 65.7364 94.5398 65.1319 94.2335 64.6157C93.9735 64.174 94.122 63.6021 94.5631 63.3417C95.0041 63.0813 95.5751 63.2301 95.835 63.6718C96.3921 64.6157 96.5453 65.7224 96.2714 66.7826C95.9975 67.8427 95.3244 68.7355 94.382 69.2935C94.2335 69.3818 94.071 69.4237 93.9131 69.4237Z" fill="#B59145"/>
<path d="M93.2212 69.5957C93.1841 69.5957 93.1516 69.5957 93.1145 69.5911C92.1489 69.4795 91.2854 69.0006 90.6819 68.238C90.0784 67.4754 89.8045 66.5222 89.9159 65.555C89.9763 65.0435 90.4359 64.6762 90.9419 64.7366C91.4525 64.7971 91.8193 65.2574 91.7589 65.7643C91.7032 66.2385 91.8378 66.7035 92.1349 67.0755C92.432 67.4475 92.8545 67.6846 93.328 67.7358C93.8386 67.7962 94.2054 68.2566 94.145 68.7634C94.0893 69.2377 93.6901 69.5864 93.2259 69.5864L93.2212 69.5957Z" fill="#B59145"/>
<path d="M94.939 69.6608C94.6605 69.6608 94.3819 69.6329 94.0988 69.5725C93.5974 69.4702 93.2724 68.9773 93.3792 68.4751C93.4813 67.9729 93.9734 67.6474 94.4748 67.7544C95.0643 67.8753 95.6632 67.759 96.1599 67.4336C96.6613 67.1034 97.0002 66.5966 97.1255 66.0107C97.2276 65.5085 97.7197 65.183 98.2211 65.29C98.7225 65.3923 99.0474 65.8852 98.9406 66.3873C98.7178 67.4615 98.0957 68.3868 97.1812 68.9913C96.5034 69.4376 95.7282 69.6655 94.939 69.6655V69.6608Z" fill="#B59145"/>
<path d="M97.0837 71.279C95.6492 71.279 94.2519 70.5257 93.4998 69.1819C93.2491 68.7355 93.407 68.1682 93.8573 67.9171C94.3029 67.666 94.8693 67.8241 95.12 68.2752C95.7235 69.3539 97.0929 69.7399 98.1746 69.1354C98.6202 68.8843 99.1866 69.0424 99.4373 69.4934C99.688 69.9398 99.5301 70.5071 99.0798 70.7582C98.4485 71.1162 97.7568 71.2836 97.079 71.2836L97.0837 71.279Z" fill="#B59145"/>
<path d="M74.5036 85.0983C74.0069 85.0983 73.5148 84.8705 73.1991 84.4427C72.6653 83.722 72.8138 82.7037 73.5334 82.1643L77.5582 79.1698C78.5192 78.4537 79.7076 78.0817 80.9099 78.1189L88.008 78.3514C88.89 78.3746 89.7024 77.8446 90.0181 77.0122L92.6131 69.3446C92.9009 68.4937 93.8247 68.038 94.6743 68.3263C95.5238 68.6146 95.9787 69.5399 95.6909 70.3909L93.0866 78.0817C93.0866 78.0817 93.0773 78.1096 93.0727 78.1282C92.2742 80.2811 90.1945 81.6853 87.9012 81.6016L80.8032 81.3692C80.339 81.3552 79.8701 81.4993 79.4941 81.7783L75.4692 84.7728C75.1768 84.9914 74.8379 85.0937 74.5036 85.0937V85.0983Z" fill="#8C6741"/>
<path d="M64.8239 64.3647L65.0836 65.0019C65.3492 65.6533 66.0917 65.9658 66.7421 65.6998L91.7296 55.4808C92.38 55.2148 92.692 54.4711 92.4264 53.8197L92.1667 53.1825C91.9012 52.5311 91.1587 52.2186 90.5083 52.4846L65.5207 62.7036C64.8704 62.9696 64.5584 63.7133 64.8239 64.3647Z" fill="#C38C6B"/>
<path d="M92.548 41.7152H77.767C72.2496 41.7152 67.7769 46.1953 67.7769 51.7217V51.7264C67.7769 57.2528 72.2496 61.7328 77.767 61.7328H92.548C98.0654 61.7328 102.538 57.2528 102.538 51.7264V51.7217C102.538 46.1953 98.0654 41.7152 92.548 41.7152Z" fill="#9DBE3B"/>
</g>
<rect x="1" y="135" width="136" height="31" stroke="#938C86" stroke-width="2"/>
<path d="M2 141H138" stroke="#938C86" stroke-width="2"/>
<path d="M2 147H138" stroke="#938C86" stroke-width="2"/>
<path d="M2 153H138" stroke="#938C86" stroke-width="2"/>
<path d="M2 159H138" stroke="#938C86" stroke-width="2"/>
<rect x="155" y="125" width="4" height="36" fill="#7F3309"/>
<g clip-path="url(#clip2_3619_317648)">
<path d="M187 100H130V128H187V100Z" fill="#7F3309"/>
<path d="M183.889 103.093H133.111V124.907H183.889V103.093Z" fill="#FED479"/>
<path d="M149.835 108.04L146.111 116.534H149.791V119.957H140.746L144.453 111.463H140.536V108.04H149.838H149.835Z" fill="#EA4936"/>
<path d="M156.722 107.744C158.419 107.744 159.877 108.358 161.091 109.587C162.305 110.815 162.913 112.284 162.913 113.995C162.913 115.707 162.3 117.214 161.077 118.43C159.853 119.647 158.366 120.256 156.615 120.256C154.864 120.256 153.391 119.644 152.163 118.423C150.934 117.202 150.319 115.726 150.319 113.998C150.319 112.269 150.939 110.774 152.177 109.562C153.416 108.351 154.93 107.746 156.722 107.746V107.744ZM156.617 111.254C155.885 111.254 155.262 111.521 154.746 112.058C154.231 112.594 153.975 113.24 153.975 113.995C153.975 114.75 154.234 115.398 154.751 115.932C155.269 116.469 155.892 116.736 156.617 116.736C157.342 116.736 157.98 116.469 158.493 115.937C159.006 115.406 159.262 114.757 159.262 113.995C159.262 113.233 159.006 112.585 158.493 112.053C157.98 111.521 157.355 111.254 156.617 111.254Z" fill="#EA4936"/>
<path d="M170.274 107.744C171.971 107.744 173.429 108.358 174.643 109.587C175.857 110.815 176.465 112.284 176.465 113.995C176.465 115.707 175.852 117.214 174.628 118.43C173.405 119.647 171.918 120.256 170.166 120.256C168.415 120.256 166.943 119.644 165.714 118.423C164.486 117.202 163.871 115.726 163.871 113.998C163.871 112.269 164.491 110.774 165.729 109.562C166.967 108.351 168.481 107.746 170.274 107.746V107.744ZM170.169 111.254C169.436 111.254 168.814 111.521 168.298 112.058C167.783 112.594 167.527 113.24 167.527 113.995C167.527 114.75 167.785 115.398 168.303 115.932C168.821 116.469 169.444 116.736 170.169 116.736C170.894 116.736 171.532 116.469 172.045 115.937C172.557 115.406 172.814 114.757 172.814 113.995C172.814 113.233 172.557 112.585 172.045 112.053C171.532 111.521 170.906 111.254 170.169 111.254Z" fill="#EA4936"/>
</g>
<path d="M136.333 148.64C136.333 145.461 139.133 142.88 142.583 142.88C143.989 142.88 145.278 143.312 146.322 144.032C147.45 141.659 150.011 140 153 140C155.989 140 158.556 141.659 159.678 144.032C160.722 143.312 162.011 142.88 163.417 142.88C166.867 142.88 169.667 145.461 169.667 148.64C174.267 148.64 178 152.08 178 156.32C178 160.56 174.267 164 169.667 164H136.333C131.733 164 128 160.56 128 156.32C128 152.08 131.733 148.64 136.333 148.64Z" fill="#65AA39"/>
<g clip-path="url(#clip3_3619_317648)">
<path d="M130 19.1734C129.767 29.9983 138.306 38.9541 149.096 39.1878L149.95 5.20982e-06C139.175 -0.233626 130.248 8.34843 130 19.1734Z" fill="#FFC61B"/>
<path d="M168.984 20.03C169.233 9.20508 160.678 0.249207 149.888 0L149.034 39.1722C159.824 39.4058 168.752 30.8393 168.984 20.0144V20.03Z" fill="#FF4047"/>
<path d="M158.241 19.7808C158.474 8.97145 154.763 0.109036 149.95 7.60204e-06C145.137 -0.10902 141.039 8.58207 140.806 19.407C140.573 30.2163 144.284 39.0788 149.096 39.1878C153.909 39.2968 158.008 30.6057 158.241 19.7964V19.7808Z" fill="#FF8127"/>
<path d="M155.974 41.1036L148.833 40.9478L141.598 43.9383L141.737 37.895L156.036 38.2065L155.974 41.1036Z" fill="#698BC2"/>
<path d="M153.102 54L145.044 53.8287L143.663 45.9319L154.841 46.1656L153.102 54Z" fill="#A89269"/>
</g>
</g>
<defs>
<clipPath id="clip0_3619_317648">
<rect width="187" height="164" fill="white"/>
</clipPath>
<clipPath id="clip1_3619_317648">
<rect width="131" height="132" fill="white" transform="translate(0 38)"/>
</clipPath>
<clipPath id="clip2_3619_317648">
<rect width="57" height="28" fill="white" transform="translate(130 100)"/>
</clipPath>
<clipPath id="clip3_3619_317648">
<rect width="39" height="54" fill="white" transform="translate(130)"/>
</clipPath>
</defs>
</svg>
