<svg width="270" height="70" viewBox="0 0 270 70" fill="none" xmlns="http://www.w3.org/2000/svg">
<g clip-path="url(#clip0_3617_319266)">
<path d="M97.6368 4.27947C98.299 2.58194 100.701 2.58194 101.363 4.27947L106.335 17.0231C106.846 18.3345 105.879 19.75 104.471 19.75H94.5287C93.1211 19.75 92.1539 18.3345 92.6654 17.0231L97.6368 4.27947Z" fill="white" stroke="#F5C93B" stroke-width="4"/>
<path d="M162.637 4.27947C163.299 2.58194 165.701 2.58194 166.363 4.27947L171.335 17.0231C171.846 18.3345 170.879 19.75 169.471 19.75H159.529C158.121 19.75 157.154 18.3345 157.665 17.0231L162.637 4.27947Z" fill="white" stroke="#DBA90C" stroke-width="4"/>
<path d="M20 12C8.9543 12 0 20.9543 0 32V70H270V32C270 20.9543 261.046 12 250 12H20Z" fill="#F5C93B"/>
<path fill-rule="evenodd" clip-rule="evenodd" d="M1.26666 24.9801C0.447805 27.1643 0 29.5299 0 32V41.6594H22.7164C25.7169 41.6594 28.1493 39.1047 28.1493 35.9533C28.1493 32.8018 25.7169 30.2471 22.7164 30.2471H21.4253C20.0578 30.2259 18.9555 29.0551 18.9555 27.6137C18.9555 26.1592 20.0781 24.9801 21.4629 24.9801H1.26666ZM1.26674 24.9799H29.8209C32.129 24.9799 34 23.0147 34 20.5905C34 18.1664 32.129 16.2012 29.8209 16.2012H7.73485C4.83819 18.4532 2.57728 21.4843 1.26674 24.9799Z" fill="#DBA90C"/>
<path d="M114 36C114 38.2088 112.209 40 110 40C107.791 40 106 38.2088 106 36C106 33.7912 107.791 32 110 32C112.209 32 114 33.7912 114 36Z" fill="#1A1A1A"/>
<path d="M164 36C164 38.2088 162.209 40 160 40C157.791 40 156 38.2088 156 36C156 33.7912 157.791 32 160 32C162.209 32 164 33.7912 164 36Z" fill="#1A1A1A"/>
<path d="M0.0244141 70H269.975C269.454 59.4189 260.71 51 250 51H19.9998C9.28948 51 0.545446 59.4189 0.0244141 70Z" fill="#DA985F"/>
<path d="M125 58C125 59.1061 124.102 60 123 60C121.898 60 121 59.102 121 58C121 56.898 121.898 56 123 56C124.102 56 125 56.898 125 58Z" fill="white"/>
<path d="M149 58C149 59.1061 148.102 60 147 60C145.898 60 145 59.102 145 58C145 56.898 145.898 56 147 56C148.102 56 149 56.898 149 58Z" fill="white"/>
<rect x="120" y="2.83984" width="4" height="12" fill="#F5C93B"/>
<circle cx="122" cy="4" r="4" fill="#DBA90C"/>
<rect x="146" y="2.84009" width="4" height="12" fill="#F5C93B"/>
<circle cx="148" cy="4" r="4" fill="#DBA90C"/>
<path d="M144 12H125V24H125.035C125.278 25.6961 126.737 27 128.5 27C129.125 27 129.712 26.8361 130.22 26.5489C130.807 28.5521 132.501 30 134.5 30C136.499 30 138.193 28.5521 138.78 26.5489C139.288 26.8361 139.875 27 140.5 27C142.263 27 143.722 25.6961 143.965 24H144V12Z" fill="#DBA90C"/>
<path fill-rule="evenodd" clip-rule="evenodd" d="M207 17C207 26.3888 199.165 34 189.5 34C183.119 34 177.536 30.6824 174.478 25.726C172.363 27.1587 169.784 28 167 28C159.82 28 154 22.4036 154 15.5C154 14.2851 154.18 13.1106 154.516 12H206.231C206.731 13.5808 207 15.2599 207 17Z" fill="#DBA90C"/>
</g>
<defs>
<clipPath id="clip0_3617_319266">
<rect width="270" height="70" fill="white"/>
</clipPath>
</defs>
</svg>
