<svg width="270" height="70" viewBox="0 0 270 70" fill="none" xmlns="http://www.w3.org/2000/svg">
<g clip-path="url(#clip0_3612_318207)">
<path d="M82 30C90.2843 30 97 23.2843 97 15C97 6.71572 90.2843 0 82 0C73.7157 0 67 6.71572 67 15C67 23.2843 73.7157 30 82 30Z" fill="#0057A8"/>
<path d="M188 30C196.284 30 203 23.2843 203 15C203 6.71572 196.284 0 188 0C179.716 0 173 6.71572 173 15C173 23.2843 179.716 30 188 30Z" fill="#318DE2"/>
<path fill-rule="evenodd" clip-rule="evenodd" d="M20 12C8.95431 12 0 20.9543 0 32V70H270V32C270 20.9543 261.046 12 250 12H20Z" fill="#4FA9FD"/>
<path d="M130 39C130 47.2846 123.287 54 114.995 54C106.704 54 100 47.2846 100 39C100 30.7154 106.713 24 114.995 24C123.277 24 130 30.7154 130 39Z" fill="#318DE2"/>
<path d="M124 39C124 43.9699 119.97 48 115 48C110.03 48 106 43.9699 106 39C106 34.0301 110.03 30 115 30C119.97 30 124 34.0301 124 39Z" fill="white"/>
<path d="M119 39C119 41.2088 117.209 43 115 43C112.791 43 111 41.2088 111 39C111 36.7912 112.791 35 115 35C117.209 35 119 36.7912 119 39Z" fill="#1A1A1A"/>
<path d="M170 39C170 47.2846 163.287 54 154.995 54C146.704 54 140 47.2846 140 39C140 30.7154 146.713 24 154.995 24C163.277 24 170 30.7154 170 39Z" fill="#0057A8"/>
<path d="M164 39C164 43.9699 159.97 48 155 48C150.03 48 146 43.9699 146 39C146 34.0301 150.03 30 155 30C159.97 30 164 34.0301 164 39Z" fill="white"/>
<path d="M159 39C159 41.2088 157.209 43 155 43C152.791 43 151 41.2088 151 39C151 36.7912 152.791 35 155 35C157.209 35 159 36.7912 159 39Z" fill="#1A1A1A"/>
<ellipse cx="77.6386" cy="50.6718" rx="9.63859" ry="3.67185" fill="#FFCECE"/>
<ellipse cx="192.639" cy="50.6718" rx="9.63859" ry="3.67185" fill="#FFCECE"/>
<path d="M143 54C143 58.4183 139.418 62 135 62C130.582 62 127 58.4183 127 54" stroke="black" stroke-width="2"/>
<line x1="135" y1="44" x2="135" y2="62" stroke="black" stroke-width="2"/>
<rect x="128" y="40" width="14" height="8" rx="4" fill="#EE747F"/>
</g>
<defs>
<clipPath id="clip0_3612_318207">
<rect width="270" height="70" fill="white"/>
</clipPath>
</defs>
</svg>
