<svg width="396" height="332" viewBox="0 0 396 332" fill="none" xmlns="http://www.w3.org/2000/svg">
<g clip-path="url(#clip0_4685_2)">
<g clip-path="url(#clip1_4685_2)">
<path d="M296.916 133.336C294.569 130.02 290.717 127.842 287.949 124.811C283.865 120.35 280.272 115.701 277.009 110.607C270.189 99.9581 267.522 88.8646 267.508 76.2287C267.497 65.0738 268.892 54.6739 268.892 43.3709C268.892 33.7838 232.159 26.01 186.845 26.01C141.53 26.01 105.509 33.6356 104.815 43.0963C104.815 43.1144 104.815 43.1361 104.815 43.1505C104.812 43.2228 104.801 43.2986 104.801 43.3709C104.801 43.4431 104.808 43.519 104.815 43.5949C104.823 47.2758 105.033 56.238 104.819 60.4392C104.394 68.7295 104.347 76.9295 103.987 85.1837C103.678 92.2133 103.224 99.4921 102.588 106.547C101.716 116.224 81.039 128.275 76.1268 136.248C74.8915 138.249 73.6779 140.51 74.0776 142.826C74.1357 143.169 74.2411 143.523 74.4845 143.776C75.015 144.321 75.9233 144.148 76.6391 143.888C81.1081 142.259 83.5351 140.131 88.5636 140.279C93.6866 140.431 107.737 138.122 112.656 135.76C116.246 134.037 119.49 131.53 123.32 130.425C126.157 129.605 130.485 128.712 133.173 130.222C132.89 131.049 132.777 131.88 132.69 132.754C132.501 134.647 131.313 136.273 130.165 137.797C128.09 140.554 126.016 143.306 123.941 146.062C123.494 146.658 123.022 147.395 123.287 148.092C123.516 148.696 124.206 148.977 124.828 149.162C134.362 151.99 142.805 147.088 151.002 142.833C158.396 138.993 166.505 137.566 174.76 137.133C178.281 136.948 182.692 136.06 186.096 136.414C190.914 136.912 194.184 141.532 198.548 143.198C204.343 145.412 210.81 145.947 216.928 146.611C225.1 147.496 233.267 148.381 241.439 149.266C241.998 149.328 242.631 149.368 243.056 148.996C243.503 148.605 243.521 147.93 243.481 147.337C243.183 142.956 241.533 138.675 238.808 135.214C238.427 134.73 238.013 134.051 238.38 133.556C238.601 133.26 239.008 133.188 239.375 133.145C245.363 132.404 251.423 132.281 257.436 132.776C262.646 133.206 267.105 135.749 272.006 137.451C279.276 139.976 286.343 136.956 293.708 138.494C294.834 138.729 296.102 139.011 297.058 138.375C298.634 137.335 298.013 134.871 296.923 133.329L296.916 133.336Z" fill="#AF804E"/>
<path d="M186.845 60.7318C232.158 60.7318 268.892 52.959 268.892 43.3709C268.892 33.7827 232.158 26.01 186.845 26.01C141.531 26.01 104.797 33.7827 104.797 43.3709C104.797 52.959 141.531 60.7318 186.845 60.7318Z" fill="#CCA363"/>
<path d="M186.844 57.849C229.81 57.849 264.641 51.3669 264.641 43.3708C264.641 35.3747 229.81 28.8926 186.844 28.8926C143.879 28.8926 109.048 35.3747 109.048 43.3708C109.048 51.3669 143.879 57.849 186.844 57.849Z" fill="#D8AC66"/>
<path d="M179.036 54.1573C187.066 54.1573 195.786 53.7708 205.563 52.9941C207.907 52.8099 210.257 52.6329 212.608 52.4595C218.501 52.026 224.595 51.5745 230.557 50.9206C231.967 50.7653 233.413 50.6317 234.877 50.498C240.174 50.014 245.657 49.5118 250.536 47.8538C253.421 46.8712 254.224 45.5419 254.388 44.5955C254.548 43.6635 254.253 42.1896 251.917 40.4557C248.912 38.2269 244.56 37.5369 240.719 36.9265C240.036 36.8181 239.368 36.7133 238.724 36.6014C226.858 34.5351 215.024 33.4117 206.036 32.6603C204.818 32.5592 203.598 32.4508 202.377 32.346C198.093 31.974 193.664 31.5874 189.308 31.4068C188.523 31.3743 187.742 31.3346 186.961 31.2984C184.984 31.2009 182.942 31.0962 180.915 31.1034C179.85 31.1034 175.745 31.2912 175.57 31.2984C175.225 31.3129 174.956 31.5874 174.974 31.9089C174.993 32.234 175.323 32.505 175.632 32.4652C175.676 32.4652 179.883 32.2738 180.919 32.2702H180.977C182.95 32.2702 184.955 32.3677 186.895 32.4652C187.68 32.5014 188.465 32.5447 189.25 32.5736C193.577 32.7542 197.988 33.1407 202.257 33.5128C203.481 33.6176 204.706 33.7259 205.923 33.8271C214.883 34.5748 226.68 35.6983 238.492 37.7537C239.142 37.8657 239.818 37.974 240.508 38.0824C244.2 38.6676 248.382 39.3323 251.136 41.3732C252.611 42.4678 253.305 43.5154 253.149 44.4112C252.993 45.3107 251.91 46.1451 250.104 46.7592C245.373 48.3667 239.974 48.8616 234.753 49.3384C233.282 49.4721 231.828 49.6058 230.411 49.7611C224.475 50.4149 218.392 50.8629 212.51 51.2963C210.159 51.4697 207.805 51.6431 205.462 51.831C188.127 53.2109 174.139 53.3554 161.426 52.2897C159.002 52.0874 156.477 51.9393 154.032 51.7948C145.57 51.2999 136.817 50.787 129.053 47.9296C127.378 47.3119 124.464 45.6611 123.774 43.8513C123.545 43.2444 123.596 42.6845 123.926 42.1354C124.94 40.4666 128.526 39.9428 131.4 39.5237C132.588 39.3503 133.616 39.2022 134.401 38.9855C142.671 36.7206 151.794 36.3629 160.616 36.0162C161.978 35.962 163.33 35.9114 164.67 35.85C182.415 35.0625 200.611 36.0414 217.281 38.6857C218.007 38.8013 218.734 38.9132 219.457 39.0216C222.709 39.5165 226.07 40.0295 229.256 40.9253C230.927 41.3949 232.897 42.5978 232.929 43.4467C232.955 43.9994 231.977 44.4329 231.392 44.646C228.264 45.7767 224.115 45.9609 220.456 46.1235C219.849 46.1524 219.257 46.1777 218.69 46.2066C213.749 46.4666 208.739 46.8676 203.892 47.2505C202.362 47.3733 200.829 47.4962 199.299 47.6117C190.968 48.2547 182.514 48.1319 174.339 48.0127C171.069 47.9658 167.686 47.9152 164.343 47.9152C160.329 47.9152 155.958 47.5251 150.584 46.6834C147.18 46.1524 142.94 44.9711 142.187 43.4034C142.107 43.2372 142.137 43.1397 142.209 43.0349C143.644 40.9723 157.135 40.2065 165.299 40.2065C168.14 40.2065 171.032 40.2859 173.834 40.3618C176.631 40.4377 179.527 40.5171 182.372 40.5171H182.405C183.68 40.5171 184.959 40.5027 186.241 40.4882C189.671 40.4485 193.214 40.4051 196.625 40.6688C199.884 40.9181 203.707 41.2866 207.369 42.0957C208.648 42.3775 209.059 42.6448 209.178 42.7495C208.866 43.1072 207.195 43.714 205.316 43.8802C199.387 44.3932 191.64 44.8953 184.323 44.1836C181.071 43.8694 177.391 43.6201 172.736 43.4034C172.035 43.3709 171.247 43.3022 170.418 43.23C167.748 42.9988 164.714 42.7351 162.469 43.4323C162.138 43.5334 161.96 43.8621 162.073 44.1692C162.182 44.4762 162.538 44.6424 162.865 44.5377C164.863 43.9199 167.755 44.1692 170.306 44.3895C171.152 44.4618 171.955 44.534 172.678 44.5666C177.307 44.7833 180.969 45.0289 184.196 45.3432C191.626 46.0657 199.448 45.5636 205.44 45.0398C206.799 44.9206 210.356 44.2884 210.468 42.8037C210.552 41.72 208.906 41.2324 207.663 40.9578C203.921 40.1306 200.037 39.7585 196.734 39.5021C193.265 39.2347 189.689 39.2745 186.23 39.3178C184.951 39.3323 183.676 39.3503 182.408 39.3503H182.375C179.549 39.3503 176.664 39.2709 173.874 39.195C171.065 39.1192 168.162 39.0397 165.303 39.0397C163.072 39.0397 143.437 39.1336 141.159 42.3991C140.839 42.8579 140.799 43.3709 141.043 43.8802C142.209 46.3149 147.961 47.4564 150.377 47.8357C155.816 48.6882 160.256 49.0856 164.343 49.0856C167.675 49.0856 171.054 49.1325 174.317 49.1831C182.521 49.3023 191.008 49.4251 199.401 48.7785C200.934 48.6593 202.464 48.5401 203.997 48.4173C208.837 48.0344 213.836 47.6334 218.759 47.3733C219.326 47.3444 219.911 47.3191 220.514 47.2903C224.271 47.1241 228.526 46.9362 231.847 45.7333C233.434 45.159 234.223 44.3715 234.183 43.3998C234.114 41.6984 231.345 40.2932 229.616 39.8055C226.353 38.888 222.949 38.3678 219.657 37.8657C218.934 37.7573 218.211 37.6453 217.488 37.5297C200.731 34.871 182.448 33.8849 164.605 34.6796C163.268 34.7374 161.92 34.7916 160.561 34.8458C151.663 35.1962 142.46 35.5538 134.042 37.8621C133.337 38.0535 132.301 38.2052 131.204 38.3642C128.057 38.8229 124.144 39.3937 122.829 41.5539C122.313 42.4028 122.233 43.3022 122.586 44.2342C123.418 46.4233 126.63 48.2909 128.584 49.0097C136.534 51.9357 145.388 52.4523 153.945 52.9544C156.379 53.0989 158.901 53.2434 161.306 53.4457C166.908 53.9153 172.762 54.1501 179.029 54.1501L179.036 54.1573Z" fill="#AF804E" stroke="#CB965F"/>
<g style="mix-blend-mode:multiply" opacity="0.31">
<path d="M131.008 60.9449C129.907 64.9727 131.466 68.5416 131.382 72.5875C131.292 76.9764 129.42 80.7152 130.031 85.1873C131.415 95.3199 130.231 105.185 129.46 115.361C129.351 116.81 131.622 116.802 131.731 115.361C132.396 106.572 134.216 97.0466 132.872 88.2831C132.491 85.805 131.924 83.4714 132.204 80.9572C132.454 78.6923 133.214 76.5321 133.508 74.2744C134.068 69.9685 132.036 65.8071 133.199 61.5482C133.581 60.143 131.393 59.5433 131.008 60.9485V60.9449Z" fill="#AF804E"/>
</g>
<g style="mix-blend-mode:multiply" opacity="0.31">
<path d="M148.829 76.0986C148.487 81.528 147.997 86.9681 147.83 92.4047C147.684 97.0646 148.96 101.074 149.541 105.619C150.173 110.549 149.021 115.556 148.749 120.487C148.458 125.692 148.636 130.887 149.156 136.071C149.298 137.505 151.572 137.519 151.427 136.071C150.911 130.887 150.733 125.692 151.02 120.487C151.285 115.73 152.364 110.911 151.91 106.142C151.463 101.461 149.963 97.191 150.101 92.4047C150.257 86.9681 150.758 81.5243 151.1 76.0986C151.191 74.6465 148.92 74.6537 148.829 76.0986Z" fill="#AF804E"/>
</g>
<g style="mix-blend-mode:multiply" opacity="0.31">
<path d="M168.195 72.1179C168.33 77.894 168.526 83.6737 168.595 89.4499C168.657 94.5866 166.716 99.4994 166.945 104.564C167.152 109.152 169.06 113.465 169.95 117.933C170.84 122.387 170.212 127.253 172.01 131.469C172.243 132.01 173.1 132.18 173.565 131.873C175.324 130.71 175.861 129.207 176.297 127.202C177.202 123.055 177.798 118.815 178.546 114.635C179.931 106.901 180.134 99.2826 181.072 91.5197C181.311 89.5438 182.169 79.6352 177.573 80.8417C175.731 81.3221 175.618 83.8688 175.335 85.339C174.612 89.132 174.092 92.9502 173.703 96.7865C173.558 98.2315 175.829 98.2206 175.974 96.7865C176.265 93.8967 176.628 91.0176 177.119 88.153C177.387 86.5745 177.831 81.593 178.808 85.498C179.953 90.0784 177.769 94.9009 177.743 99.503C177.714 104.517 177.242 109.079 176.356 114.035C175.887 116.654 175.418 119.27 174.949 121.889C174.55 124.125 174.557 128.51 172.417 129.922L173.972 130.327C172.145 126.046 172.882 120.473 171.832 115.896C170.629 110.665 168.569 105.944 169.587 100.475C171.338 91.0321 170.691 81.7014 170.466 72.1143C170.433 70.6621 168.162 70.6585 168.195 72.1143V72.1179Z" fill="#AF804E"/>
</g>
<g style="mix-blend-mode:multiply" opacity="0.31">
<path d="M198.432 68.7475C197.857 75.0763 200.862 80.6176 200.306 86.932C200.179 88.3805 202.45 88.3697 202.577 86.932C203.133 80.6032 200.132 75.0474 200.702 68.7475C200.833 67.3026 198.562 67.3098 198.432 68.7475Z" fill="#AF804E"/>
</g>
<g style="mix-blend-mode:multiply" opacity="0.31">
<path d="M202.737 100.739C202.977 104.224 203.217 107.714 203.453 111.2C203.551 112.641 205.822 112.652 205.724 111.2C205.484 107.714 205.244 104.224 205.008 100.739C204.91 99.2972 202.639 99.2863 202.737 100.739Z" fill="#AF804E"/>
</g>
<g style="mix-blend-mode:multiply" opacity="0.31">
<path d="M217.383 78.277C217.993 88.2181 217.978 98.1665 217.281 108.104C216.997 112.146 217.448 114.863 218.636 118.648C220.147 123.46 219.86 128.897 220.086 133.885C220.151 135.334 222.422 135.341 222.357 133.885C222.171 129.749 222.222 125.505 221.586 121.401C221.277 119.418 220.62 117.684 220.002 115.787C219.145 113.154 219.363 110.813 219.555 108.104C220.253 98.1665 220.271 88.2181 219.657 78.277C219.57 76.832 217.295 76.8248 217.386 78.277H217.383Z" fill="#AF804E"/>
</g>
<g style="mix-blend-mode:multiply" opacity="0.31">
<path d="M238.601 64.1996C237.609 68.5561 236.61 73.0173 237.162 77.5039C237.703 81.9109 239.625 85.9459 240.014 90.4071C240.908 100.587 241.22 110.755 242.47 120.917C242.645 122.34 244.919 122.358 244.741 120.917C243.549 111.229 243.001 101.548 242.383 91.8123C242.15 88.1639 241.34 84.8008 240.319 81.2968C238.67 75.6327 239.502 70.4526 240.792 64.7957C241.115 63.3796 238.924 62.7764 238.601 64.196V64.1996Z" fill="#AF804E"/>
</g>
<g style="mix-blend-mode:multiply" opacity="0.31">
<path d="M253.712 96.8696C254.464 102.909 254.849 108.964 254.878 115.051C254.886 116.503 257.156 116.506 257.149 115.051C257.124 108.964 256.735 102.909 255.983 96.8696C255.805 95.4464 253.534 95.4283 253.712 96.8696Z" fill="#AF804E"/>
</g>
<g style="mix-blend-mode:multiply" opacity="0.31">
<path d="M108.79 124.099C111.163 121.285 113.666 118.301 114.625 114.671C115.559 111.138 114.385 107.934 113.463 104.542C111.962 99.0225 114.291 94.4529 115.036 89.0885C115.646 84.6923 114.818 80.3034 113.982 75.9902C113.706 74.5634 111.519 75.1702 111.791 76.5899C112.769 81.6363 113.401 86.2782 112.278 91.3571C111.573 94.5432 110.429 97.6245 110.545 100.93C110.65 103.939 111.973 106.623 112.5 109.545C113.448 114.779 110.356 118.735 107.181 122.503C106.247 123.608 107.845 125.216 108.786 124.099H108.79Z" fill="#AF804E"/>
</g>
<g style="mix-blend-mode:multiply" opacity="0.31">
<path d="M92.3095 130.222C90.6926 130.757 89.1267 131.429 87.6334 132.245C86.3508 132.942 87.4953 134.893 88.7779 134.196C90.1077 133.473 91.4738 132.874 92.9126 132.4C94.2933 131.945 93.701 129.763 92.3095 130.222Z" fill="#AF804E"/>
</g>
<g style="mix-blend-mode:multiply" opacity="0.31">
<path d="M266.2 115.267C268.438 121.625 274.408 125.663 279.258 130.024C280.341 130.995 281.95 129.406 280.864 128.427C276.413 124.428 270.44 120.491 268.391 114.667C267.911 113.306 265.717 113.891 266.2 115.267Z" fill="#AF804E"/>
</g>
<g style="mix-blend-mode:multiply" opacity="0.31">
<path d="M255.845 60.9808C255.147 62.1223 254.711 63.2096 254.824 64.5787C254.951 66.1067 256.037 66.7208 256.422 67.996C257.142 70.3729 255.837 71.7998 255.383 73.8732C254.845 76.3152 255.954 78.9847 256.589 81.293C256.974 82.6909 259.165 82.0985 258.78 80.6933C257.912 77.5506 257.207 75.683 258.475 72.4717C258.817 71.6119 259.354 71.0809 259.463 70.1164C259.79 67.2049 255.855 65.3012 257.803 62.1187C258.566 60.8724 256.6 59.7382 255.841 60.9808H255.845Z" fill="#AF804E"/>
</g>
<path d="M188.362 113.94C187.601 111.353 183.945 111.353 183.183 113.94L177.715 132.545L174.773 125.395C173.855 123.164 170.7 123.164 169.783 125.395L159.206 151.095C158.475 152.875 159.781 154.831 161.702 154.831H188.64C188.932 154.94 189.249 155 189.585 155H210.299C212.119 155 213.417 153.232 212.876 151.491L202.519 118.159C201.732 115.625 198.153 115.625 197.366 118.159L193.377 130.999L188.362 113.94Z" fill="#AEE062"/>
</g>
<path d="M373.342 345.767C387.784 332.302 393.13 310.799 385.129 291.488C377.129 272.177 358.147 260.747 338.411 261.441C347.068 252.329 346.941 237.932 338.001 228.992C329.062 220.053 314.672 219.933 305.554 228.582C306.24 208.854 294.817 189.864 275.507 181.863C256.196 173.863 234.686 179.209 221.229 193.651C220.9 181.088 210.641 171 197.996 171C185.351 171 175.092 181.088 174.764 193.651C161.299 179.209 139.796 173.863 120.486 181.863C101.175 189.864 89.7455 208.846 90.4389 228.582C81.3279 219.926 66.9307 220.053 57.9912 228.992C49.0517 237.932 48.9324 252.322 57.5812 261.441C37.8531 260.755 18.8632 272.177 10.8631 291.488C2.86303 310.799 8.20884 332.309 22.6507 345.767C10.0877 346.095 0 356.355 0 369H396C396 356.355 385.912 346.095 373.349 345.767H373.342Z" fill="#71AB3C"/>
<path fill-rule="evenodd" clip-rule="evenodd" d="M155.099 233C156.584 233 157.963 233.456 159.103 234.236C160.243 233.456 161.622 233 163.108 233C167.028 233 170.207 236.178 170.207 240.099C170.207 241.43 169.84 242.675 169.203 243.739C169.84 244.804 170.207 246.049 170.207 247.38C170.207 251.3 167.028 254.479 163.108 254.479C161.622 254.479 160.243 254.022 159.103 253.242C157.963 254.022 156.584 254.479 155.099 254.479C151.178 254.479 148 251.3 148 247.38C148 246.049 148.366 244.804 149.003 243.739C148.366 242.675 148 241.43 148 240.099C148 236.178 151.178 233 155.099 233Z" fill="white"/>
<path fill-rule="evenodd" clip-rule="evenodd" d="M70.0988 257C71.5844 257 72.9634 257.456 74.1033 258.236C75.2432 257.456 76.6222 257 78.1078 257C82.0284 257 85.2066 260.178 85.2066 264.099C85.2066 265.43 84.8404 266.675 84.2034 267.739C84.8404 268.804 85.2066 270.049 85.2066 271.38C85.2066 275.3 82.0284 278.479 78.1078 278.479C76.6222 278.479 75.2432 278.022 74.1033 277.242C72.9634 278.022 71.5844 278.479 70.0988 278.479C66.1782 278.479 63 275.3 63 271.38C63 270.049 63.3662 268.804 64.0033 267.739C63.3662 266.675 63 265.43 63 264.099C63 260.178 66.1782 257 70.0988 257Z" fill="white"/>
<circle cx="159.117" cy="243.5" r="3.5" fill="#F7CE45"/>
<path fill-rule="evenodd" clip-rule="evenodd" d="M188.099 260C189.584 260 190.963 260.456 192.103 261.236C193.243 260.456 194.622 260 196.108 260C200.028 260 203.207 263.178 203.207 267.099C203.207 268.43 202.84 269.675 202.203 270.739C202.84 271.804 203.207 273.049 203.207 274.38C203.207 278.3 200.028 281.479 196.108 281.479C194.622 281.479 193.243 281.022 192.103 280.242C190.963 281.022 189.584 281.479 188.099 281.479C184.178 281.479 181 278.3 181 274.38C181 273.049 181.366 271.804 182.003 270.739C181.366 269.675 181 268.43 181 267.099C181 263.178 184.178 260 188.099 260Z" fill="white"/>
<circle cx="192.117" cy="270.5" r="3.5" fill="#F7CE45"/>
<circle cx="74.1172" cy="267.5" r="3.5" fill="#F7CE45"/>
</g>
<defs>
<clipPath id="clip0_4685_2">
<rect width="396" height="332" fill="white"/>
</clipPath>
<clipPath id="clip1_4685_2">
<rect width="271" height="150" fill="white" transform="translate(27)"/>
</clipPath>
</defs>
</svg>
