<svg width="1133" height="63" viewBox="0 0 1133 63" fill="none" xmlns="http://www.w3.org/2000/svg">
<g clip-path="url(#clip0_4685_84)">
<rect x="-23" y="5" width="1166" height="121" stroke="#3D3D3D" stroke-width="10"/>
<path d="M1024.98 0L1024.98 130.108" stroke="#3D3D3D" stroke-width="10"/>
<path d="M966.596 0L966.596 130.108" stroke="#3D3D3D" stroke-width="10"/>
<path d="M908.213 0L908.213 130.108" stroke="#3D3D3D" stroke-width="10"/>
<path d="M849.83 0L849.83 130.108" stroke="#3D3D3D" stroke-width="10"/>
<path d="M791.445 0L791.445 130.108" stroke="#3D3D3D" stroke-width="10"/>
<path d="M733.064 0L733.064 130.108" stroke="#3D3D3D" stroke-width="10"/>
<path d="M674.682 0L674.682 130.108" stroke="#3D3D3D" stroke-width="10"/>
<path d="M616.297 0L616.297 130.108" stroke="#3D3D3D" stroke-width="10"/>
<path d="M557.916 0L557.916 130.108" stroke="#3D3D3D" stroke-width="10"/>
<path d="M499.531 0L499.531 130.108" stroke="#3D3D3D" stroke-width="10"/>
<path d="M441.148 0L441.148 130.108" stroke="#3D3D3D" stroke-width="10"/>
<path d="M382.766 0L382.766 130.108" stroke="#3D3D3D" stroke-width="10"/>
<path d="M324.383 0L324.383 130.108" stroke="#3D3D3D" stroke-width="10"/>
<path d="M266 0L266 130.108" stroke="#3D3D3D" stroke-width="10"/>
<path d="M207.617 0L207.617 130.108" stroke="#3D3D3D" stroke-width="10"/>
<path d="M149.234 0L149.234 130.108" stroke="#3D3D3D" stroke-width="10"/>
<path d="M90.8516 0L90.8516 130.108" stroke="#3D3D3D" stroke-width="10"/>
<path d="M32.4688 0L32.4687 130.108" stroke="#3D3D3D" stroke-width="10"/>
<path d="M1083.36 0L1083.36 130.108" stroke="#3D3D3D" stroke-width="10"/>
</g>
<defs>
<clipPath id="clip0_4685_84">
<rect width="1133" height="63" fill="white"/>
</clipPath>
</defs>
</svg>
