<svg width="472" height="506" viewBox="0 0 472 506" fill="none" xmlns="http://www.w3.org/2000/svg">
<g clip-path="url(#clip0_4684_42734)">
<ellipse cx="464.993" cy="232.009" rx="6.18871" ry="2.98968" transform="rotate(-36.4752 464.993 232.009)" fill="#6CA130"/>
<ellipse cx="6.18871" cy="3.2446" rx="6.18871" ry="3.2446" transform="matrix(-0.804114 -0.594475 -0.594475 0.804114 461.811 232.874)" fill="#6CA130"/>
<rect x="459.29" y="219" width="3" height="15" fill="#6CA130"/>
<path fill-rule="evenodd" clip-rule="evenodd" d="M456.482 202C457.968 202 459.347 202.456 460.487 203.236C461.627 202.456 463.006 202 464.491 202C468.412 202 471.59 205.178 471.59 209.099C471.59 210.43 471.224 211.675 470.587 212.739C471.224 213.804 471.59 215.049 471.59 216.38C471.59 220.3 468.412 223.479 464.491 223.479C463.006 223.479 461.627 223.022 460.487 222.242C459.347 223.022 457.968 223.479 456.482 223.479C452.562 223.479 449.383 220.3 449.383 216.38C449.383 215.049 449.749 213.804 450.387 212.739C449.749 211.675 449.383 210.43 449.383 209.099C449.383 205.178 452.562 202 456.482 202Z" fill="#F77045"/>
<circle cx="460.5" cy="212.5" r="3.5" fill="white"/>
<ellipse cx="428.993" cy="253.009" rx="6.18871" ry="2.98968" transform="rotate(-36.4752 428.993 253.009)" fill="#6CA130"/>
<ellipse cx="6.18871" cy="3.2446" rx="6.18871" ry="3.2446" transform="matrix(-0.804114 -0.594475 -0.594475 0.804114 425.811 253.874)" fill="#6CA130"/>
<rect x="423.29" y="240" width="3" height="15" fill="#6CA130"/>
<path fill-rule="evenodd" clip-rule="evenodd" d="M420.482 223C421.968 223 423.347 223.456 424.487 224.236C425.627 223.456 427.006 223 428.491 223C432.412 223 435.59 226.178 435.59 230.099C435.59 231.43 435.224 232.675 434.587 233.739C435.224 234.804 435.59 236.049 435.59 237.38C435.59 241.3 432.412 244.479 428.491 244.479C427.006 244.479 425.627 244.022 424.487 243.242C423.347 244.022 421.968 244.479 420.482 244.479C416.562 244.479 413.383 241.3 413.383 237.38C413.383 236.049 413.749 234.804 414.387 233.739C413.749 232.675 413.383 231.43 413.383 230.099C413.383 226.178 416.562 223 420.482 223Z" fill="#F7CE45"/>
<circle cx="423.79" cy="233.5" r="3.5" fill="white"/>
<path d="M340.614 415.687L332.785 411.804C353.254 340.708 419.358 349.042 443.02 363.634C442.425 364.529 442.008 365.546 442.008 365.546C429.775 358.352 358.35 340.935 340.614 415.692L340.614 415.687Z" fill="#3A822B"/>
<path d="M388.855 356.059C407.649 354.419 415.733 342.778 416.893 327.284C400.721 326.313 386.699 341.482 388.855 356.059Z" fill="#3A822B"/>
<path d="M369.006 362.427C375.952 381.697 390.38 386.937 406.911 383.848C403.422 366.606 383.65 356.11 369.006 362.427Z" fill="#3A822B"/>
<path d="M346.586 388.568C361.259 406.005 378.338 405.904 394.408 396.293C384.127 379.636 359.448 376.31 346.586 388.568Z" fill="#3A822B"/>
<path d="M360.797 371.318C350.599 350.932 357.435 335.252 372.597 324.257C383.814 340.297 377.121 364.322 360.797 371.318Z" fill="#3A822B"/>
<path d="M343.522 393.889C324.965 380.683 323.653 363.622 331.892 346.788C349.311 355.678 354.656 380.04 343.522 393.889Z" fill="#3A822B"/>
<path d="M431.353 381.77C430.963 364.775 420.994 356.834 407.17 354.898C405.376 369.387 418.164 382.866 431.353 381.77Z" fill="#3A822B"/>
<path d="M460.54 378.388C456.496 362.965 445.677 357.89 432.644 359.13C434.151 372.739 448.744 382.258 460.54 378.388Z" fill="#3A822B"/>
<path d="M446.991 337.16C430.86 334.738 421.724 342.892 417.634 355.678C431.038 359.759 445.874 349.848 446.991 337.16Z" fill="#3A822B"/>
<path d="M413.881 535.303C429.892 520.41 435.818 496.626 426.949 475.267C418.08 453.908 397.037 441.266 375.158 442.033C384.754 431.955 384.614 416.031 374.703 406.143C364.793 396.255 348.841 396.123 338.732 405.689C339.493 383.869 326.83 362.864 305.423 354.015C284.016 345.167 260.17 351.08 245.251 367.054C244.887 353.158 233.514 342 219.496 342C205.478 342 194.105 353.158 193.741 367.054C178.814 351.08 154.976 345.167 133.569 354.015C112.161 362.864 99.4906 383.86 100.259 405.689C90.1589 396.115 74.1985 396.255 64.2883 406.143C54.378 416.031 54.2458 431.947 63.8337 442.033C41.9634 441.274 20.9115 453.908 12.0427 475.267C3.17391 496.626 9.1002 520.418 25.1103 535.303C11.1831 535.666 0 547.014 0 561H439C439 547.014 427.817 535.666 413.89 535.303H413.881Z" fill="#71AB3C"/>
<path fill-rule="evenodd" clip-rule="evenodd" d="M249.099 393C250.584 393 251.963 393.456 253.103 394.236C254.243 393.456 255.622 393 257.108 393C261.028 393 264.207 396.178 264.207 400.099C264.207 401.43 263.84 402.675 263.203 403.739C263.84 404.804 264.207 406.049 264.207 407.38C264.207 411.3 261.028 414.479 257.108 414.479C255.622 414.479 254.243 414.022 253.103 413.242C251.963 414.022 250.584 414.479 249.099 414.479C245.178 414.479 242 411.3 242 407.38C242 406.049 242.366 404.804 243.003 403.739C242.366 402.675 242 401.43 242 400.099C242 396.178 245.178 393 249.099 393Z" fill="white"/>
<path fill-rule="evenodd" clip-rule="evenodd" d="M341.099 429C342.584 429 343.963 429.456 345.103 430.236C346.243 429.456 347.622 429 349.108 429C353.028 429 356.207 432.178 356.207 436.099C356.207 437.43 355.84 438.675 355.203 439.739C355.84 440.804 356.207 442.049 356.207 443.38C356.207 447.3 353.028 450.479 349.108 450.479C347.622 450.479 346.243 450.022 345.103 449.242C343.963 450.022 342.584 450.479 341.099 450.479C337.178 450.479 334 447.3 334 443.38C334 442.049 334.366 440.804 335.003 439.739C334.366 438.675 334 437.43 334 436.099C334 432.178 337.178 429 341.099 429Z" fill="white"/>
<path fill-rule="evenodd" clip-rule="evenodd" d="M285.099 447C286.584 447 287.963 447.456 289.103 448.236C290.243 447.456 291.622 447 293.108 447C297.028 447 300.207 450.178 300.207 454.099C300.207 455.43 299.84 456.675 299.203 457.739C299.84 458.804 300.207 460.049 300.207 461.38C300.207 465.3 297.028 468.479 293.108 468.479C291.622 468.479 290.243 468.022 289.103 467.242C287.963 468.022 286.584 468.479 285.099 468.479C281.178 468.479 278 465.3 278 461.38C278 460.049 278.366 458.804 279.003 457.739C278.366 456.675 278 455.43 278 454.099C278 450.178 281.178 447 285.099 447Z" fill="white"/>
<circle cx="253.117" cy="403.5" r="3.5" fill="#F7CE45"/>
<circle cx="345.117" cy="439.5" r="3.5" fill="#F7CE45"/>
<circle cx="289.117" cy="457.5" r="3.5" fill="#F7CE45"/>
<path d="M339.998 65.6639C339.99 66.5172 339.842 67.5956 339.541 68.8399C318.878 79.324 287.61 86 252.627 86C208.697 86 170.64 75.4685 152.058 60.1137C151.866 57.2853 152.144 54.2515 152.973 51.0123C153.212 50.0879 153.485 49.1754 153.786 48.2747C214.875 79.0475 312.703 51.9959 332.529 38C337.628 49.049 340.076 59.7266 339.998 65.6599V65.6639Z" fill="#89745B"/>
<path d="M339.994 65.8116C339.986 66.6587 339.838 67.7293 339.537 68.9646C318.874 79.3725 287.607 86 252.625 86C208.696 86 170.64 75.545 152.058 60.3018C151.866 57.4939 152.144 54.4821 152.973 51.2664C153.212 50.3488 153.485 49.4429 153.786 48.5487C169.619 2.25429 276.478 -7.17715 301.989 4.63078C311.093 8.8465 318.499 15.9995 324.271 24.0897C327.544 28.6702 330.293 33.5526 332.529 38.3565C337.628 49.3252 340.076 59.9253 339.998 65.8155L339.994 65.8116Z" fill="#9E8A6F"/>
<path d="M303.362 52.9405C302.601 50.3532 298.945 50.3532 298.183 52.9405L292.715 71.5447L289.773 64.3953C288.855 62.1641 285.7 62.1641 284.783 64.3955L274.206 90.0952C273.475 91.8754 274.781 93.831 276.702 93.831H303.64C303.932 93.9399 304.249 94 304.585 94H325.299C327.119 94 328.417 92.2323 327.876 90.4912L317.519 57.1592C316.732 54.6253 313.153 54.6253 312.366 57.1592L308.377 69.9993L303.362 52.9405Z" fill="#AEE062"/>
</g>
<defs>
<clipPath id="clip0_4684_42734">
<rect width="472" height="506" fill="white"/>
</clipPath>
</defs>
</svg>
