<svg width="214" height="319" viewBox="0 0 214 319" fill="none" xmlns="http://www.w3.org/2000/svg">
<rect x="26" y="2" width="167" height="298" fill="white"/>
<path fill-rule="evenodd" clip-rule="evenodd" d="M16 254.963V185.772C18.9703 184.999 22.0747 184.463 25.2817 184.195C41.9183 182.803 57.0175 188.959 65.5265 199.23C67.3618 198.846 69.2447 198.546 71.1872 198.378C90.8151 196.734 107.714 207.425 108.941 222.256H108.929C110.157 237.087 95.2364 250.441 75.6086 252.085C67.6835 252.745 60.2114 251.365 54.0263 248.546C47.5433 252.481 39.7255 255.085 31.1927 255.805C25.9205 256.246 20.8026 255.929 16 254.963Z" fill="#E9F7FF"/>
<rect x="17.5" y="7.5" width="179" height="298" stroke="#F3E0D6" stroke-width="15"/>
<path d="M0 298H214V319H0V298Z" fill="#F3E0D6"/>
<rect x="25" y="151" width="168" height="15" fill="#F3E0D6"/>
</svg>
