<svg width="140" height="478" viewBox="0 0 140 478" fill="none" xmlns="http://www.w3.org/2000/svg">
<g clip-path="url(#clip0_3619_322050)">
<path d="M50.6813 462.419V462.438C50.054 464.209 49.1963 465.916 48.1081 467.547C48.0377 467.649 47.9737 467.756 47.9033 467.858C47.5192 468.417 47.1096 468.95 46.6743 469.457C46.1686 470.079 45.6309 470.663 45.0676 471.215C43.973 472.301 42.7696 473.265 41.4894 474.09C41.2398 474.256 40.9837 474.427 40.7149 474.579C40.062 474.973 39.3899 475.328 38.6986 475.658C38.6858 475.658 38.6666 475.671 38.6474 475.677C35.4148 477.207 31.8559 477.994 28.2393 478C25.6404 478 23.016 477.607 20.462 476.781C18.3241 476.102 16.2373 475.106 14.2594 473.811C6.00844 468.398 2.00779 459.062 3.21118 450.17C3.39681 448.742 3.72967 447.327 4.19694 445.937C4.83705 444.039 5.73319 442.192 6.89818 440.453C7.21184 439.983 7.53829 439.526 7.88394 439.089C9.53541 436.969 11.5005 435.204 13.6833 433.808C14.9379 433.008 16.2501 432.329 17.6135 431.777C18.1512 431.561 18.7017 431.365 19.2586 431.187C19.5595 431.085 19.8667 430.996 20.1804 430.914C20.3916 430.851 20.6092 430.793 20.8333 430.749C20.9421 430.711 21.0445 430.685 21.1597 430.66C21.4158 430.597 21.6718 430.54 21.9214 430.501C21.9726 430.482 22.0303 430.476 22.0751 430.47C22.2799 430.425 22.4783 430.387 22.6896 430.355C22.696 430.355 22.7152 430.355 22.728 430.355C22.8688 430.324 23.0032 430.305 23.1504 430.286C25.8645 429.873 28.6681 429.911 31.427 430.432C32.3935 430.616 33.3473 430.851 34.3011 431.142H34.3075C35.146 431.403 35.9717 431.707 36.7847 432.056C38.1481 432.647 39.4731 433.364 40.7533 434.202C41.1118 434.43 41.4702 434.684 41.8095 434.938C45.01 437.273 47.5 440.218 49.2155 443.499C52.2752 449.332 52.8897 456.193 50.6877 462.425L50.6813 462.419Z" fill="#253684"/>
<path d="M38.6923 475.658C38.6923 475.658 38.6603 475.671 38.6411 475.677C35.4086 477.207 31.8496 477.994 28.233 478C21.3839 475.95 15.9814 470.866 13.2866 464.209C11.6799 460.255 11.027 455.749 11.5967 450.982C11.6991 449.681 13.8946 442.205 16.2246 439.869C16.4679 439.628 16.7111 439.438 16.9543 439.323C16.9864 439.298 17.0248 439.292 17.0504 439.279C17.4152 439.127 17.7737 439.133 18.1129 439.342C18.3882 439.501 18.6506 439.768 18.9067 440.187C18.9067 440.193 18.9067 440.206 18.9195 440.212C18.8491 440.828 18.8107 441.45 18.785 442.053C18.4138 450.398 21.4863 458.091 26.4535 464.526C29.814 468.874 34.0451 472.644 38.6795 475.658H38.6923Z" fill="#1A2B78"/>
<path d="M19.1051 439.444C18.7914 439.4 18.4649 439.361 18.1321 439.336C17.78 439.304 17.428 439.279 17.0631 439.273C17.0375 439.266 17.0183 439.266 16.9863 439.266C13.4401 439.177 9.43308 440.028 6.98148 442.237C5.70127 443.36 4.81792 444.604 4.19702 445.93C4.83713 444.033 5.73327 442.186 6.89186 440.447C7.20551 439.977 7.53197 439.52 7.87762 439.082C9.52909 436.962 11.4942 435.198 13.6706 433.795C15.1684 435.166 16.5638 436.759 17.8825 438.175C18.2857 438.606 18.689 439.025 19.0795 439.412C19.0859 439.425 19.0923 439.438 19.1051 439.438V439.444Z" fill="#1A2B78"/>
<path d="M34.2882 431.136C29.1482 431.828 23.8545 434.138 20.3403 436.899C19.777 437.343 19.2521 437.8 18.7913 438.257L18.9321 437.838C18.7977 437.274 18.8169 436.664 18.9641 436.03C19.3738 434.214 20.8268 432.19 22.6831 430.356C22.6959 430.356 22.7087 430.356 22.7215 430.356C22.8559 430.33 22.9967 430.305 23.1376 430.286C25.8516 429.873 28.6553 429.918 31.4205 430.438C32.3871 430.616 33.3472 430.851 34.2882 431.143V431.136Z" fill="#1A2B78"/>
<path d="M47.9032 467.858C47.5191 468.417 47.1095 468.95 46.6742 469.457C46.1685 470.079 45.6308 470.663 45.0675 471.215C44.1266 472.136 43.1152 472.961 42.0526 473.697C42.6543 464.317 40.478 457.323 37.207 452.137C32.0222 443.906 24.0977 440.256 20.2059 438.885C19.5145 438.644 18.9577 438.473 18.5608 438.359C19.1945 438.181 19.8282 438.016 20.4683 437.895C20.4939 437.895 20.5195 437.883 20.5451 437.883C26.4213 436.709 32.7263 437.521 37.8791 440.269C42.1038 442.522 45.5348 446.083 47.2951 450.912C49.1706 456.085 49.4202 462.267 47.9096 467.864L47.9032 467.858Z" fill="#1A2B78"/>
<path d="M19.6106 439.66C18.5928 440.662 17.1782 440.878 16.4421 440.148C15.7123 439.418 15.9428 438.009 16.9605 437.007C17.9783 436.004 19.3993 435.788 20.1291 436.518C20.8652 437.248 20.6283 438.657 19.6106 439.66Z" fill="#1A2B78"/>
<g opacity="0.2">
<path d="M49.2156 443.493C48.2106 441.57 46.9304 439.767 45.407 438.13C47.3593 454.276 42.2577 470.079 22.376 470.206C16.9735 470.206 10.5917 467.845 5.54126 463.993C7.44237 467.832 10.3676 471.26 14.2595 473.811C16.2374 475.106 18.3241 476.102 20.4621 476.781C23.0161 477.606 25.6405 478.006 28.2394 478C31.856 478 35.4149 477.206 38.6475 475.677C38.6667 475.671 38.6859 475.664 38.6987 475.658C39.3836 475.321 40.0621 474.972 40.715 474.579C40.9838 474.42 41.2399 474.255 41.4895 474.09C42.7697 473.265 43.9731 472.3 45.0677 471.215C45.631 470.663 46.1687 470.079 46.6744 469.457C47.1096 468.949 47.5193 468.416 47.9034 467.858C47.9738 467.756 48.0378 467.655 48.1082 467.547C49.1964 465.916 50.0541 464.208 50.6814 462.438V462.419C52.8834 456.186 52.2689 449.325 49.2092 443.493H49.2156Z" fill="#121F5B"/>
</g>
</g>
<path d="M139.557 427.122C126.599 412.55 115.168 418.394 111.072 423.137L114.982 428.26C121.237 430.992 128.014 439.265 130.62 443.06C135.088 437.14 138.44 429.968 139.557 427.122Z" fill="#111F5C"/>
<path fill-rule="evenodd" clip-rule="evenodd" d="M50.002 453.562C51.8895 451.557 55.0104 451.495 56.9728 453.424C65.3963 461.703 76.8297 466.785 89.4349 466.785C102.04 466.785 113.474 461.703 121.897 453.424C123.859 451.495 126.98 451.557 128.868 453.562C130.755 455.568 130.694 458.757 128.732 460.686C118.546 470.698 104.689 476.861 89.4349 476.861C74.1804 476.861 60.3242 470.698 50.1377 460.686C48.1753 458.757 48.1146 455.568 50.002 453.562Z" fill="#111F5C"/>
<path d="M55.7462 391H46.9817V404.995H47.5295C59.7933 404.995 70.1746 413.231 73.6646 424.587H83.1352V418.989C83.1352 403.531 70.8727 391 55.7462 391Z" fill="#1A2B78"/>
<path d="M64.3469 402.632C64.6356 402.311 64.9147 401.954 65.1765 401.568C66.7403 399.257 67.0917 396.737 65.9613 395.938C64.8309 395.139 62.6468 396.364 61.0831 398.674C60.5385 399.479 60.141 400.308 59.9019 401.082C59.7953 401.078 59.6883 401.076 59.5807 401.076H42.5995C38.0616 401.076 34.3828 404.835 34.3828 409.473V412.832C34.3828 417.469 38.0616 421.228 42.5995 421.228H49.4686L49.471 421.232C55.3838 421.394 60.1284 426.343 60.1284 432.424V439.578L60.129 439.579V462.652C60.129 464.198 61.3552 465.451 62.8679 465.451H72.1802C73.6928 465.451 74.9191 464.198 74.9191 462.652V455.934H74.9324C75.2178 450.011 80.0077 445.299 85.8747 445.299H93.5436C99.4106 445.299 104.2 450.011 104.486 455.934H104.499V462.652C104.499 464.198 105.725 465.451 107.238 465.451H116.55C118.063 465.451 119.289 464.198 119.289 462.652V428.505C119.289 422.631 114.63 417.869 108.881 417.869H74.0447L66.5298 404.933L66.5039 404.948C65.9359 404.043 65.2023 403.256 64.3469 402.632Z" fill="#253684"/>
<path d="M119.289 459.294H104.499V462.653C104.499 464.198 105.725 465.452 107.238 465.452H116.55C118.062 465.452 119.289 464.198 119.289 462.653V459.294Z" fill="#1A2B78"/>
<path d="M74.9185 459.294V462.653C74.9185 464.198 73.6921 465.452 72.1796 465.452H62.8673C61.3548 465.452 60.1284 464.198 60.1284 462.653V459.294H74.9185Z" fill="#1A2B78"/>
<path fill-rule="evenodd" clip-rule="evenodd" d="M43.6948 401.076V421.228H42.5993C38.0613 421.228 34.3826 417.469 34.3826 412.832V409.473C34.3826 404.836 38.0613 401.076 42.5993 401.076H43.6948Z" fill="#111F5C"/>
<path d="M74.9187 417.87H104.499V428.506C104.499 431.597 102.046 434.103 99.021 434.103H80.3965C77.3712 434.103 74.9187 431.597 74.9187 428.506V417.87Z" fill="#1A2B78"/>
<path fill-rule="evenodd" clip-rule="evenodd" d="M77.1094 417.87V428.506C77.1094 430.67 78.8262 432.424 80.9439 432.424H99.0207C101.138 432.424 102.855 430.67 102.855 428.506V417.87H106.142V428.506C106.142 432.525 102.954 435.783 99.0207 435.783H80.9439C77.011 435.783 73.8228 432.525 73.8228 428.506V417.87H77.1094Z" fill="#162566"/>
<path fill-rule="evenodd" clip-rule="evenodd" d="M41.5034 410.592L67.7969 410.592L67.7969 412.832L41.5034 412.832L41.5034 410.592Z" fill="#111F5C"/>
<path d="M72.1792 411.152C72.1792 413.317 70.4624 415.071 68.3447 415.071C66.227 415.071 64.5103 413.317 64.5103 411.152C64.5103 408.988 66.227 407.234 68.3447 407.234C70.4624 407.234 72.1792 408.988 72.1792 411.152Z" fill="#253684"/>
<path fill-rule="evenodd" clip-rule="evenodd" d="M68.3447 412.832C69.2523 412.832 69.9881 412.08 69.9881 411.152C69.9881 410.225 69.2523 409.473 68.3447 409.473C67.4371 409.473 66.7014 410.225 66.7014 411.152C66.7014 412.08 67.4371 412.832 68.3447 412.832ZM68.3447 415.071C70.4624 415.071 72.1792 413.317 72.1792 411.152C72.1792 408.988 70.4624 407.234 68.3447 407.234C66.227 407.234 64.5103 408.988 64.5103 411.152C64.5103 413.317 66.227 415.071 68.3447 415.071Z" fill="#111F5C"/>
<path d="M60.1285 404.995C60.1285 405.922 59.3927 406.674 58.4851 406.674C57.5775 406.674 56.8418 405.922 56.8418 404.995C56.8418 404.067 57.5775 403.315 58.4851 403.315C59.3927 403.315 60.1285 404.067 60.1285 404.995Z" fill="#111F5C"/>
<path d="M41.5036 404.995C41.5036 405.613 41.0131 406.114 40.4081 406.114C39.803 406.114 39.3125 405.613 39.3125 404.995C39.3125 404.376 39.803 403.875 40.4081 403.875C41.0131 403.875 41.5036 404.376 41.5036 404.995Z" fill="#2E429D"/>
<rect x="5" y="8.13037" width="58.087" height="94.8696" rx="29.0435" stroke="#232255" stroke-width="10"/>
<path d="M4 34.0435C4 17.4509 17.4509 4 34.0435 4C50.636 4 64.087 17.4509 64.087 34.0435V70.8261C64.087 87.4187 50.636 100.87 34.0435 100.87C17.4509 100.87 4 87.4186 4 70.8261V34.0435Z" fill="#203078" stroke="#253684" stroke-width="8"/>
<path d="M32.8696 26.6089V52.435H46.174" stroke="#232255" stroke-width="6" stroke-linecap="round" stroke-linejoin="round"/>
<defs>
<clipPath id="clip0_3619_322050">
<rect width="49" height="48" fill="white" transform="translate(3 430)"/>
</clipPath>
</defs>
</svg>
