<svg width="114" height="105" viewBox="0 0 114 105" fill="none" xmlns="http://www.w3.org/2000/svg">
<rect x="3" y="51.8569" width="54.0536" height="49.9821" fill="#243B79" stroke="#3753A1" stroke-width="6"/>
<rect x="56.9465" y="51.8569" width="54.0536" height="49.9821" fill="#243B79" stroke="#3753A1" stroke-width="6"/>
<rect x="56.9465" y="3" width="54.0536" height="48.9643" fill="#243B79" stroke="#3753A1" stroke-width="6"/>
<path d="M30.6627 25.5055C29.1403 23.4529 26.249 23.0244 24.1956 24.5463L14.511 31.7208C12.4577 33.2426 12.0291 36.1329 13.5515 38.1855C15.0739 40.2381 17.9652 40.6665 20.0186 39.1446L29.7032 31.9701C31.7566 30.4483 32.1851 27.558 30.6627 25.5055Z" fill="#1C4097"/>
<path d="M43.5844 39.3872H19.5583V49.0171H43.5844V39.3872Z" fill="#1C4097"/>
<path d="M35.8886 49.0171C29.671 49.0171 24.6304 43.9784 24.6304 37.7631V28.5744C24.6304 22.3591 29.671 17.3203 35.8886 17.3203C42.1062 17.3203 47.1468 22.3591 47.1468 28.5744V37.7631C47.1468 43.9784 42.1062 49.0171 35.8886 49.0171Z" fill="#3556A7"/>
<path d="M33.8169 39.5345C30.3179 39.5345 27.4778 36.6954 27.4778 33.1977V28.2484C27.4778 24.7507 30.3179 21.9116 33.8169 21.9116C37.3159 21.9116 40.1561 24.7507 40.1561 28.2484V33.1977C40.1561 36.6954 37.3159 39.5345 33.8169 39.5345Z" fill="#5476C9"/>
<path d="M51.0115 5.66978C51.0115 8.09324 49.0413 10.0627 46.617 10.0627C44.1926 10.0627 42.2224 8.09324 42.2224 5.66978C42.2224 3.24632 44.1926 1.27686 46.617 1.27686C49.0413 1.27686 51.0115 3.24632 51.0115 5.66978Z" fill="#2B4EA5"/>
<path d="M48.6895 5.66992C48.6895 6.81451 47.762 7.74169 46.617 7.74169C45.472 7.74169 44.5444 6.81451 44.5444 5.66992C44.5444 4.52533 45.472 3.59814 46.617 3.59814C47.762 3.59814 48.6895 4.52533 48.6895 5.66992Z" fill="#5476C9"/>
<path d="M30.5352 5.66978C30.5352 8.09324 28.565 10.0627 26.1406 10.0627C23.7163 10.0627 21.7461 8.09324 21.7461 5.66978C21.7461 3.24632 23.7163 1.27686 26.1406 1.27686C28.565 1.27686 30.5352 3.24632 30.5352 5.66978Z" fill="#2B4EA5"/>
<path d="M28.2137 5.66992C28.2137 6.81451 27.2862 7.74169 26.1411 7.74169C24.9961 7.74169 24.0686 6.81451 24.0686 5.66992C24.0686 4.52533 24.9961 3.59814 26.1411 3.59814C27.2862 3.59814 28.2137 4.52533 28.2137 5.66992Z" fill="#5476C9"/>
<path d="M38.4516 28.7494C45.574 27.4978 50.3329 20.7115 49.0809 13.5917C47.8289 6.47183 41.04 1.71467 33.9176 2.96625C26.7951 4.21782 22.0362 11.0042 23.2882 18.124C24.5403 25.2438 31.3291 30.001 38.4516 28.7494Z" fill="#3556A7"/>
<path d="M40.2518 20.8818C40.2518 23.1262 38.4288 24.9486 36.1835 24.9486C33.9383 24.9486 32.1152 23.1262 32.1152 20.8818C32.1152 18.6373 33.9383 16.8149 36.1835 16.8149C38.4288 16.8149 40.2518 18.6373 40.2518 20.8818Z" fill="#2B4EA5"/>
<path d="M39.4779 24.1746C41.2973 24.1746 42.7722 22.7002 42.7722 20.8815C42.7722 19.0627 41.2973 17.5884 39.4779 17.5884C37.6585 17.5884 36.1836 19.0627 36.1836 20.8815C36.1836 22.7002 37.6585 24.1746 39.4779 24.1746Z" fill="#5476C9"/>
<path d="M36.1833 20.8815C36.1833 22.7039 34.7057 24.1746 32.889 24.1746C31.0724 24.1746 29.5947 22.6975 29.5947 20.8815C29.5947 19.0655 31.0724 17.5884 32.889 17.5884C34.7057 17.5884 36.1833 19.0655 36.1833 20.8815Z" fill="#5476C9"/>
<path d="M36.1839 14.2886C32.5441 14.2886 29.5889 17.2428 29.5889 20.8812H42.7789C42.7789 17.2428 39.8236 14.2886 36.1839 14.2886Z" fill="#5476C9"/>
<path d="M36.9634 14.5576H35.4026V23.6312H36.9634V14.5576Z" fill="#2B4EA5"/>
<path d="M37.5969 13.4707H34.7696C33.4071 13.4707 32.6778 15.0757 33.5798 16.0988L34.9934 17.6974C35.6267 18.4135 36.7397 18.4135 37.3666 17.6974L38.7803 16.0988C39.6822 15.0757 38.9594 13.4707 37.5905 13.4707H37.5969Z" fill="#232255"/>
<path d="M40.9749 13.797C41.6638 13.797 42.2223 13.2388 42.2223 12.5501C42.2223 11.8615 41.6638 11.3032 40.9749 11.3032C40.286 11.3032 39.7275 11.8615 39.7275 12.5501C39.7275 13.2388 40.286 13.797 40.9749 13.797Z" fill="#232255"/>
<path d="M31.7891 13.797C32.478 13.797 33.0365 13.2388 33.0365 12.5501C33.0365 11.8615 32.478 11.3032 31.7891 11.3032C31.1002 11.3032 30.5417 11.8615 30.5417 12.5501C30.5417 13.2388 31.1002 13.797 31.7891 13.797Z" fill="#232255"/>
<path d="M56.9215 35.9664L49.9555 26.1319C48.4778 24.0474 45.5929 23.555 43.514 25.0321C41.4287 26.5092 40.9361 29.393 42.4138 31.4712L49.3798 41.3057C50.8574 43.3903 53.7423 43.8827 55.8213 42.4056C57.9066 40.9285 58.3991 38.0446 56.9215 35.9664Z" fill="#3556A7"/>
<path d="M43.5907 33.7153C40.8401 33.7153 38.614 35.9406 38.614 38.6901V44.0358C38.614 46.7854 40.8401 49.0106 43.5907 49.0106C46.3412 49.0106 48.5673 46.7854 48.5673 44.0358V38.6901C48.5673 35.9406 46.3412 33.7153 43.5907 33.7153Z" fill="#2B4EA5"/>
<path d="M46.5655 43.7796C46.5655 45.4229 45.235 46.7593 43.5846 46.7593C41.9343 46.7593 40.6038 45.4293 40.6038 43.7796C40.6038 42.1298 41.9343 40.7998 43.5846 40.7998C45.235 40.7998 46.5655 42.1298 46.5655 43.7796Z" fill="#5476C9"/>
<path d="M43.5903 38.754C44.2757 38.754 44.8313 38.1986 44.8313 37.5135C44.8313 36.8283 44.2757 36.2729 43.5903 36.2729C42.905 36.2729 42.3494 36.8283 42.3494 37.5135C42.3494 38.1986 42.905 38.754 43.5903 38.754Z" fill="#5476C9"/>
<path d="M46.5649 40.6148C47.2503 40.6148 47.8059 40.0594 47.8059 39.3743C47.8059 38.6892 47.2503 38.1338 46.5649 38.1338C45.8796 38.1338 45.324 38.6892 45.324 39.3743C45.324 40.0594 45.8796 40.6148 46.5649 40.6148Z" fill="#5476C9"/>
<path d="M40.7183 40.6148C41.4036 40.6148 41.9592 40.0594 41.9592 39.3743C41.9592 38.6892 41.4036 38.1338 40.7183 38.1338C40.0329 38.1338 39.4773 38.6892 39.4773 39.3743C39.4773 40.0594 40.0329 40.6148 40.7183 40.6148Z" fill="#5476C9"/>
<path d="M22.7182 40.5255L18.9377 36.7465C16.9931 34.8026 13.8396 34.8026 11.895 36.7465C9.95037 38.6904 9.95037 41.8428 11.895 43.7867L15.6754 47.5657C17.62 49.5096 20.7736 49.5096 22.7182 47.5657C24.6628 45.6219 24.6628 42.4694 22.7182 40.5255Z" fill="#2B4EA5"/>
<path d="M21.1193 41.7532C22.2835 42.917 22.2835 44.8033 21.1193 45.9607C19.9551 47.1245 18.0681 47.1245 16.9103 45.9607C15.7461 44.7969 15.7461 42.9106 16.9103 41.7532C18.0745 40.5894 19.9615 40.5894 21.1193 41.7532Z" fill="#5476C9"/>
<path d="M15.4582 38.5427C15.9443 39.0287 15.9443 39.8152 15.4582 40.3011C14.972 40.7871 14.1852 40.7871 13.6991 40.3011C13.2129 39.8152 13.2129 39.0287 13.6991 38.5427C14.1852 38.0567 14.972 38.0567 15.4582 38.5427Z" fill="#5476C9"/>
<path d="M18.8798 37.7566C19.366 38.2425 19.366 39.029 18.8798 39.515C18.3937 40.001 17.6069 40.001 17.1207 39.515C16.6346 39.029 16.6346 38.2425 17.1207 37.7566C17.6069 37.2706 18.3937 37.2706 18.8798 37.7566Z" fill="#5476C9"/>
<path d="M13.8655 44.0103C14.5508 44.0103 15.1064 43.4549 15.1064 42.7698C15.1064 42.0847 14.5508 41.5293 13.8655 41.5293C13.1801 41.5293 12.6245 42.0847 12.6245 42.7698C12.6245 43.4549 13.1801 44.0103 13.8655 44.0103Z" fill="#5476C9"/>
<path d="M8.29077 57.1665H51.818V96.5483H8.29077V57.1665Z" fill="#3753A1"/>
<rect x="23.4905" y="62.0029" width="13.1273" height="3.45455" rx="1.72727" fill="#243B79"/>
<path d="M62.1819 57.1665H105.709V96.5483H62.1819V57.1665Z" fill="#3753A1"/>
<rect x="77.3818" y="62.0029" width="13.1273" height="3.45455" rx="1.72727" fill="#243B79"/>
<path d="M62.1819 7.78516H105.709V47.167H62.1819V7.78516Z" fill="#3753A1"/>
<rect x="77.3818" y="12.6216" width="13.1273" height="3.45455" rx="1.72727" fill="#243B79"/>
</svg>
