<svg width="308" height="526" viewBox="0 0 308 526" fill="none" xmlns="http://www.w3.org/2000/svg">
<rect x="120" y="10" width="179" height="293" fill="url(#paint0_linear_3854_292754)"/>
<rect x="121.5" y="7.5" width="179" height="298" stroke="#344281" stroke-width="15"/>
<path d="M114 298H308V319H114V298Z" fill="#344281"/>
<rect x="125" y="148" width="179" height="21" fill="#344281"/>
<path d="M114 319H308V324H114V319Z" fill="#142057"/>
<path d="M0 526L128 169H293L308 526H0Z" fill="url(#paint1_linear_3854_292754)" fill-opacity="0.3"/>
<mask id="mask0_3854_292754" style="mask-type:alpha" maskUnits="userSpaceOnUse" x="133" y="15" width="160" height="133">
<rect x="133" y="15" width="160" height="133" fill="#D9D9D9"/>
</mask>
<g mask="url(#mask0_3854_292754)">
<circle cx="260" cy="52" r="62" fill="white"/>
<circle cx="267.75" cy="38.6134" r="13.3864" fill="#EDEDED"/>
<circle cx="267.75" cy="80.8867" r="7.75" fill="#EDEDED"/>
<circle cx="226.886" cy="68.2044" r="3.52273" fill="#EDEDED"/>
</g>
<path d="M69 372L130 15H293L308 372H69Z" fill="url(#paint2_linear_3854_292754)" fill-opacity="0.1"/>
<path d="M159 102C159 103.657 157.657 105 156 105C154.343 105 153 103.657 153 102C153 100.343 154.343 99 156 99C157.657 99 159 100.343 159 102Z" fill="white"/>
<path d="M169 115C169 116.105 168.105 117 167 117C165.895 117 165 116.105 165 115C165 113.895 165.895 113 167 113C168.105 113 169 113.895 169 115Z" fill="white"/>
<path d="M173 52C173 53.1046 172.105 54 171 54C169.895 54 169 53.1046 169 52C169 50.8954 169.895 50 171 50C172.105 50 173 50.8954 173 52Z" fill="white"/>
<defs>
<linearGradient id="paint0_linear_3854_292754" x1="209.5" y1="10" x2="209.5" y2="303" gradientUnits="userSpaceOnUse">
<stop stop-color="#263C9D"/>
<stop offset="0.682594" stop-color="#08144F"/>
</linearGradient>
<linearGradient id="paint1_linear_3854_292754" x1="235" y1="169" x2="235" y2="526" gradientUnits="userSpaceOnUse">
<stop stop-color="#3752CB"/>
<stop offset="0.893557" stop-color="#2C47BB" stop-opacity="0"/>
</linearGradient>
<linearGradient id="paint2_linear_3854_292754" x1="237" y1="15" x2="237" y2="372" gradientUnits="userSpaceOnUse">
<stop stop-color="white"/>
<stop offset="0.893557" stop-color="white" stop-opacity="0"/>
</linearGradient>
</defs>
</svg>
