<svg width="470" height="583" viewBox="0 0 470 583" fill="none" xmlns="http://www.w3.org/2000/svg">
<rect x="104" y="529.33" width="54.0536" height="49.9821" fill="#243B79" stroke="#3753A1" stroke-width="6"/>
<rect x="157.947" y="529.33" width="54.0536" height="49.9821" fill="#243B79" stroke="#3753A1" stroke-width="6"/>
<rect x="157.947" y="480.473" width="54.0536" height="48.9643" fill="#243B79" stroke="#3753A1" stroke-width="6"/>
<path d="M131.663 502.979C130.14 500.926 127.249 500.498 125.196 502.019L115.511 509.194C113.458 510.716 113.029 513.606 114.552 515.659C116.074 517.711 118.965 518.14 121.019 516.618L130.703 509.443C132.757 507.921 133.185 505.031 131.663 502.979Z" fill="#1C4097"/>
<path d="M144.584 516.86H120.558V526.49H144.584V516.86Z" fill="#1C4097"/>
<path d="M136.889 526.49C130.671 526.49 125.63 521.452 125.63 515.236V506.048C125.63 499.832 130.671 494.793 136.889 494.793C143.106 494.793 148.147 499.832 148.147 506.048V515.236C148.147 521.452 143.106 526.49 136.889 526.49Z" fill="#3556A7"/>
<path d="M134.817 517.008C131.318 517.008 128.478 514.169 128.478 510.671V505.722C128.478 502.224 131.318 499.385 134.817 499.385C138.316 499.385 141.156 502.224 141.156 505.722V510.671C141.156 514.169 138.316 517.008 134.817 517.008Z" fill="#5476C9"/>
<path d="M152.011 483.143C152.011 485.566 150.041 487.536 147.617 487.536C145.193 487.536 143.222 485.566 143.222 483.143C143.222 480.719 145.193 478.75 147.617 478.75C150.041 478.75 152.011 480.719 152.011 483.143Z" fill="#2B4EA5"/>
<path d="M149.69 483.143C149.69 484.288 148.762 485.215 147.617 485.215C146.472 485.215 145.544 484.288 145.544 483.143C145.544 481.998 146.472 481.071 147.617 481.071C148.762 481.071 149.69 481.998 149.69 483.143Z" fill="#5476C9"/>
<path d="M131.535 483.143C131.535 485.566 129.565 487.536 127.141 487.536C124.716 487.536 122.746 485.566 122.746 483.143C122.746 480.719 124.716 478.75 127.141 478.75C129.565 478.75 131.535 480.719 131.535 483.143Z" fill="#2B4EA5"/>
<path d="M129.214 483.143C129.214 484.288 128.286 485.215 127.141 485.215C125.996 485.215 125.069 484.288 125.069 483.143C125.069 481.998 125.996 481.071 127.141 481.071C128.286 481.071 129.214 481.998 129.214 483.143Z" fill="#5476C9"/>
<path d="M139.452 506.223C146.574 504.971 151.333 498.185 150.081 491.065C148.829 483.945 142.04 479.188 134.918 480.439C127.795 481.691 123.036 488.477 124.288 495.597C125.54 502.717 132.329 507.474 139.452 506.223Z" fill="#3556A7"/>
<path d="M141.252 498.355C141.252 500.599 139.429 502.422 137.184 502.422C134.938 502.422 133.115 500.599 133.115 498.355C133.115 496.11 134.938 494.288 137.184 494.288C139.429 494.288 141.252 496.11 141.252 498.355Z" fill="#2B4EA5"/>
<path d="M140.478 501.648C142.297 501.648 143.772 500.173 143.772 498.355C143.772 496.536 142.297 495.062 140.478 495.062C138.659 495.062 137.184 496.536 137.184 498.355C137.184 500.173 138.659 501.648 140.478 501.648Z" fill="#5476C9"/>
<path d="M137.183 498.355C137.183 500.177 135.706 501.648 133.889 501.648C132.072 501.648 130.595 500.171 130.595 498.355C130.595 496.539 132.072 495.062 133.889 495.062C135.706 495.062 137.183 496.539 137.183 498.355Z" fill="#5476C9"/>
<path d="M137.184 491.762C133.544 491.762 130.589 494.716 130.589 498.354H143.779C143.779 494.716 140.824 491.762 137.184 491.762Z" fill="#5476C9"/>
<path d="M137.963 492.031H136.403V501.104H137.963V492.031Z" fill="#2B4EA5"/>
<path d="M138.597 490.944H135.77C134.407 490.944 133.678 492.549 134.58 493.572L135.993 495.171C136.627 495.887 137.74 495.887 138.367 495.171L139.78 493.572C140.682 492.549 139.959 490.944 138.591 490.944H138.597Z" fill="#232255"/>
<path d="M141.975 491.27C142.664 491.27 143.222 490.712 143.222 490.023C143.222 489.335 142.664 488.776 141.975 488.776C141.286 488.776 140.728 489.335 140.728 490.023C140.728 490.712 141.286 491.27 141.975 491.27Z" fill="#232255"/>
<path d="M132.789 491.27C133.478 491.27 134.036 490.712 134.036 490.023C134.036 489.335 133.478 488.776 132.789 488.776C132.1 488.776 131.542 489.335 131.542 490.023C131.542 490.712 132.1 491.27 132.789 491.27Z" fill="#232255"/>
<path d="M157.921 513.44L150.955 503.605C149.478 501.521 146.593 501.028 144.514 502.505C142.429 503.982 141.936 506.866 143.414 508.944L150.38 518.779C151.857 520.863 154.742 521.356 156.821 519.879C158.907 518.402 159.399 515.518 157.921 513.44Z" fill="#3556A7"/>
<path d="M144.591 511.188C141.84 511.188 139.614 513.414 139.614 516.163V521.509C139.614 524.259 141.84 526.484 144.591 526.484C147.341 526.484 149.567 524.259 149.567 521.509V516.163C149.567 513.414 147.341 511.188 144.591 511.188Z" fill="#2B4EA5"/>
<path d="M147.565 521.253C147.565 522.896 146.235 524.232 144.585 524.232C142.934 524.232 141.604 522.902 141.604 521.253C141.604 519.603 142.934 518.273 144.585 518.273C146.235 518.273 147.565 519.603 147.565 521.253Z" fill="#5476C9"/>
<path d="M144.59 516.227C145.276 516.227 145.831 515.672 145.831 514.987C145.831 514.301 145.276 513.746 144.59 513.746C143.905 513.746 143.349 514.301 143.349 514.987C143.349 515.672 143.905 516.227 144.59 516.227Z" fill="#5476C9"/>
<path d="M147.565 518.088C148.25 518.088 148.806 517.533 148.806 516.847C148.806 516.162 148.25 515.607 147.565 515.607C146.88 515.607 146.324 516.162 146.324 516.847C146.324 517.533 146.88 518.088 147.565 518.088Z" fill="#5476C9"/>
<path d="M141.718 518.088C142.404 518.088 142.959 517.533 142.959 516.847C142.959 516.162 142.404 515.607 141.718 515.607C141.033 515.607 140.477 516.162 140.477 516.847C140.477 517.533 141.033 518.088 141.718 518.088Z" fill="#5476C9"/>
<path d="M123.718 517.999L119.938 514.22C117.993 512.276 114.84 512.276 112.895 514.22C110.95 516.164 110.95 519.316 112.895 521.26L116.675 525.039C118.62 526.983 121.774 526.983 123.718 525.039C125.663 523.095 125.663 519.943 123.718 517.999Z" fill="#2B4EA5"/>
<path d="M122.119 519.226C123.283 520.39 123.283 522.276 122.119 523.434C120.955 524.598 119.068 524.598 117.91 523.434C116.746 522.27 116.746 520.384 117.91 519.226C119.074 518.063 120.961 518.063 122.119 519.226Z" fill="#5476C9"/>
<path d="M116.458 516.016C116.944 516.502 116.944 517.288 116.458 517.774C115.972 518.26 115.185 518.26 114.699 517.774C114.213 517.288 114.213 516.502 114.699 516.016C115.185 515.53 115.972 515.53 116.458 516.016Z" fill="#5476C9"/>
<path d="M119.88 515.23C120.366 515.716 120.366 516.502 119.88 516.988C119.394 517.474 118.607 517.474 118.121 516.988C117.635 516.502 117.635 515.716 118.121 515.23C118.607 514.744 119.394 514.744 119.88 515.23Z" fill="#5476C9"/>
<path d="M114.865 521.483C115.551 521.483 116.106 520.928 116.106 520.243C116.106 519.558 115.551 519.002 114.865 519.002C114.18 519.002 113.625 519.558 113.625 520.243C113.625 520.928 114.18 521.483 114.865 521.483Z" fill="#5476C9"/>
<path d="M109.291 534.64H152.818V574.021H109.291V534.64Z" fill="#3753A1"/>
<rect x="124.49" y="539.476" width="13.1273" height="3.45455" rx="1.72727" fill="#243B79"/>
<path d="M163.182 534.64H206.709V574.021H163.182V534.64Z" fill="#3753A1"/>
<rect x="178.382" y="539.476" width="13.1273" height="3.45455" rx="1.72727" fill="#243B79"/>
<path d="M163.182 485.258H206.709V524.64H163.182V485.258Z" fill="#3753A1"/>
<rect x="178.382" y="490.095" width="13.1273" height="3.45455" rx="1.72727" fill="#243B79"/>
<rect x="119" y="10" width="179" height="293" fill="url(#paint0_linear_3619_322051)"/>
<rect x="120.5" y="7.5" width="179" height="298" stroke="#344281" stroke-width="15"/>
<path d="M104 298H317V319H104V298Z" fill="#344281"/>
<rect x="124" y="148" width="179" height="21" fill="#344281"/>
<path d="M103 319H317V324H103V319Z" fill="#142057"/>
<path d="M0 526L128 169H293L470 526H0Z" fill="url(#paint1_linear_3619_322051)" fill-opacity="0.3"/>
<path d="M67 372L128 15H291L350 372H67Z" fill="url(#paint2_linear_3619_322051)" fill-opacity="0.1"/>
<circle cx="228" cy="73" r="44" fill="white"/>
<circle cx="233.5" cy="63.5" r="9.5" fill="#EDEDED"/>
<circle cx="233.5" cy="93.5" r="5.5" fill="#EDEDED"/>
<circle cx="204.5" cy="84.5" r="2.5" fill="#EDEDED"/>
<path d="M158 102C158 103.657 156.657 105 155 105C153.343 105 152 103.657 152 102C152 100.343 153.343 99 155 99C156.657 99 158 100.343 158 102Z" fill="white"/>
<path d="M168 115C168 116.105 167.105 117 166 117C164.895 117 164 116.105 164 115C164 113.895 164.895 113 166 113C167.105 113 168 113.895 168 115Z" fill="white"/>
<path d="M172 52C172 53.1046 171.105 54 170 54C168.895 54 168 53.1046 168 52C168 50.8954 168.895 50 170 50C171.105 50 172 50.8954 172 52Z" fill="white"/>
<defs>
<linearGradient id="paint0_linear_3619_322051" x1="208.5" y1="10" x2="208.5" y2="303" gradientUnits="userSpaceOnUse">
<stop stop-color="#263C9D"/>
<stop offset="0.682594" stop-color="#08144F"/>
</linearGradient>
<linearGradient id="paint1_linear_3619_322051" x1="235" y1="169" x2="235" y2="526" gradientUnits="userSpaceOnUse">
<stop stop-color="#3752CB"/>
<stop offset="0.893557" stop-color="#2C47BB" stop-opacity="0"/>
</linearGradient>
<linearGradient id="paint2_linear_3619_322051" x1="235" y1="15" x2="235" y2="372" gradientUnits="userSpaceOnUse">
<stop stop-color="white"/>
<stop offset="0.893557" stop-color="white" stop-opacity="0"/>
</linearGradient>
</defs>
</svg>
