<svg width="216" height="582" viewBox="0 0 216 582" fill="none" xmlns="http://www.w3.org/2000/svg">
<rect x="3" y="528.33" width="54.0536" height="49.9821" fill="#B5B5B5" stroke="white" stroke-width="6"/>
<rect x="56.9465" y="528.33" width="54.0536" height="49.9821" fill="#B5B5B5" stroke="white" stroke-width="6"/>
<rect x="56.9465" y="479.473" width="54.0536" height="48.9643" fill="#B5B5B5" stroke="white" stroke-width="6"/>
<path d="M30.6627 501.979C29.1403 499.926 26.249 499.498 24.1956 501.019L14.511 508.194C12.4577 509.716 12.0291 512.606 13.5515 514.659C15.0739 516.711 17.9652 517.14 20.0186 515.618L29.7032 508.443C31.7566 506.921 32.1851 504.031 30.6627 501.979Z" fill="#915000"/>
<path d="M43.5844 515.86H19.5583V525.49H43.5844V515.86Z" fill="#915000"/>
<path d="M35.8886 525.49C29.671 525.49 24.6304 520.452 24.6304 514.236V505.048C24.6304 498.832 29.671 493.793 35.8886 493.793C42.1062 493.793 47.1468 498.832 47.1468 505.048V514.236C47.1468 520.452 42.1062 525.49 35.8886 525.49Z" fill="#BF8526"/>
<path d="M33.8169 516.008C30.3179 516.008 27.4778 513.169 27.4778 509.671V504.722C27.4778 501.224 30.3179 498.385 33.8169 498.385C37.3159 498.385 40.1561 501.224 40.1561 504.722V509.671C40.1561 513.169 37.3159 516.008 33.8169 516.008Z" fill="#DDA860"/>
<path d="M51.0115 482.143C51.0115 484.566 49.0413 486.536 46.617 486.536C44.1926 486.536 42.2224 484.566 42.2224 482.143C42.2224 479.719 44.1926 477.75 46.617 477.75C49.0413 477.75 51.0115 479.719 51.0115 482.143Z" fill="#9F621A"/>
<path d="M48.6895 482.143C48.6895 483.288 47.762 484.215 46.617 484.215C45.472 484.215 44.5444 483.288 44.5444 482.143C44.5444 480.998 45.472 480.071 46.617 480.071C47.762 480.071 48.6895 480.998 48.6895 482.143Z" fill="#DDA860"/>
<path d="M30.5352 482.143C30.5352 484.566 28.565 486.536 26.1406 486.536C23.7163 486.536 21.7461 484.566 21.7461 482.143C21.7461 479.719 23.7163 477.75 26.1406 477.75C28.565 477.75 30.5352 479.719 30.5352 482.143Z" fill="#9F621A"/>
<path d="M28.2137 482.143C28.2137 483.288 27.2862 484.215 26.1411 484.215C24.9961 484.215 24.0686 483.288 24.0686 482.143C24.0686 480.998 24.9961 480.071 26.1411 480.071C27.2862 480.071 28.2137 480.998 28.2137 482.143Z" fill="#DDA860"/>
<path d="M38.4516 505.223C45.574 503.971 50.3329 497.185 49.0809 490.065C47.8289 482.945 41.04 478.188 33.9176 479.439C26.7951 480.691 22.0362 487.477 23.2882 494.597C24.5403 501.717 31.3291 506.474 38.4516 505.223Z" fill="#BF8526"/>
<path d="M40.2518 497.355C40.2518 499.599 38.4288 501.422 36.1835 501.422C33.9383 501.422 32.1152 499.599 32.1152 497.355C32.1152 495.11 33.9383 493.288 36.1835 493.288C38.4288 493.288 40.2518 495.11 40.2518 497.355Z" fill="#674F31"/>
<path d="M39.4779 500.648C41.2973 500.648 42.7722 499.173 42.7722 497.355C42.7722 495.536 41.2973 494.062 39.4779 494.062C37.6585 494.062 36.1836 495.536 36.1836 497.355C36.1836 499.173 37.6585 500.648 39.4779 500.648Z" fill="#DDA860"/>
<path d="M36.1833 497.355C36.1833 499.177 34.7057 500.648 32.889 500.648C31.0724 500.648 29.5947 499.171 29.5947 497.355C29.5947 495.539 31.0724 494.062 32.889 494.062C34.7057 494.062 36.1833 495.539 36.1833 497.355Z" fill="#DDA860"/>
<path d="M36.1839 490.762C32.5441 490.762 29.5889 493.716 29.5889 497.354H42.7789C42.7789 493.716 39.8236 490.762 36.1839 490.762Z" fill="#DDA860"/>
<path d="M36.9634 491.031H35.4026V500.104H36.9634V491.031Z" fill="#674F31"/>
<path d="M37.5969 489.944H34.7696C33.4071 489.944 32.6778 491.549 33.5798 492.572L34.9934 494.171C35.6267 494.887 36.7397 494.887 37.3666 494.171L38.7803 492.572C39.6822 491.549 38.9594 489.944 37.5905 489.944H37.5969Z" fill="#2E1D00"/>
<path d="M40.9749 490.27C41.6638 490.27 42.2223 489.712 42.2223 489.023C42.2223 488.335 41.6638 487.776 40.9749 487.776C40.286 487.776 39.7275 488.335 39.7275 489.023C39.7275 489.712 40.286 490.27 40.9749 490.27Z" fill="#2E1D00"/>
<path d="M31.7891 490.27C32.478 490.27 33.0365 489.712 33.0365 489.023C33.0365 488.335 32.478 487.776 31.7891 487.776C31.1002 487.776 30.5417 488.335 30.5417 489.023C30.5417 489.712 31.1002 490.27 31.7891 490.27Z" fill="#2E1D00"/>
<path d="M56.9215 512.44L49.9555 502.605C48.4778 500.521 45.5929 500.028 43.514 501.505C41.4287 502.982 40.9361 505.866 42.4138 507.944L49.3798 517.779C50.8574 519.863 53.7423 520.356 55.8213 518.879C57.9066 517.402 58.3991 514.518 56.9215 512.44Z" fill="#BF8526"/>
<path d="M43.5907 510.188C40.8401 510.188 38.614 512.414 38.614 515.163V520.509C38.614 523.259 40.8401 525.484 43.5907 525.484C46.3412 525.484 48.5673 523.259 48.5673 520.509V515.163C48.5673 512.414 46.3412 510.188 43.5907 510.188Z" fill="#9F621A"/>
<path d="M46.5655 520.253C46.5655 521.896 45.235 523.232 43.5846 523.232C41.9343 523.232 40.6038 521.902 40.6038 520.253C40.6038 518.603 41.9343 517.273 43.5846 517.273C45.235 517.273 46.5655 518.603 46.5655 520.253Z" fill="#DDA860"/>
<path d="M43.5903 515.227C44.2757 515.227 44.8313 514.672 44.8313 513.987C44.8313 513.301 44.2757 512.746 43.5903 512.746C42.905 512.746 42.3494 513.301 42.3494 513.987C42.3494 514.672 42.905 515.227 43.5903 515.227Z" fill="#DDA860"/>
<path d="M46.5649 517.088C47.2503 517.088 47.8059 516.533 47.8059 515.847C47.8059 515.162 47.2503 514.607 46.5649 514.607C45.8796 514.607 45.324 515.162 45.324 515.847C45.324 516.533 45.8796 517.088 46.5649 517.088Z" fill="#DDA860"/>
<path d="M40.7183 517.088C41.4036 517.088 41.9592 516.533 41.9592 515.847C41.9592 515.162 41.4036 514.607 40.7183 514.607C40.0329 514.607 39.4773 515.162 39.4773 515.847C39.4773 516.533 40.0329 517.088 40.7183 517.088Z" fill="#DDA860"/>
<path d="M22.7182 516.999L18.9377 513.22C16.9931 511.276 13.8396 511.276 11.895 513.22C9.95037 515.164 9.95037 518.316 11.895 520.26L15.6754 524.039C17.62 525.983 20.7736 525.983 22.7182 524.039C24.6628 522.095 24.6628 518.943 22.7182 516.999Z" fill="#9F621A"/>
<path d="M21.1193 518.226C22.2835 519.39 22.2835 521.276 21.1193 522.434C19.9551 523.598 18.0681 523.598 16.9103 522.434C15.7461 521.27 15.7461 519.384 16.9103 518.226C18.0745 517.063 19.9615 517.063 21.1193 518.226Z" fill="#DDA860"/>
<path d="M15.4582 515.016C15.9443 515.502 15.9443 516.288 15.4582 516.774C14.972 517.26 14.1852 517.26 13.6991 516.774C13.2129 516.288 13.2129 515.502 13.6991 515.016C14.1852 514.53 14.972 514.53 15.4582 515.016Z" fill="#DDA860"/>
<path d="M18.8798 514.23C19.366 514.716 19.366 515.502 18.8798 515.988C18.3937 516.474 17.6069 516.474 17.1207 515.988C16.6346 515.502 16.6346 514.716 17.1207 514.23C17.6069 513.744 18.3937 513.744 18.8798 514.23Z" fill="#DDA860"/>
<path d="M13.8655 520.483C14.5508 520.483 15.1064 519.928 15.1064 519.243C15.1064 518.558 14.5508 518.002 13.8655 518.002C13.1801 518.002 12.6245 518.558 12.6245 519.243C12.6245 519.928 13.1801 520.483 13.8655 520.483Z" fill="#DDA860"/>
<path d="M8.29077 533.64H51.818V573.021H8.29077V533.64Z" fill="#7987CD"/>
<rect x="23.4905" y="538.476" width="13.1273" height="3.45455" rx="1.72727" fill="#5E6BC0"/>
<path d="M62.1819 533.64H105.709V573.021H62.1819V533.64Z" fill="#BFCA33"/>
<rect x="77.3818" y="538.476" width="13.1273" height="3.45455" rx="1.72727" fill="#AEB729"/>
<path d="M62.1819 484.258H105.709V523.64H62.1819V484.258Z" fill="#FFD550"/>
<rect x="77.3818" y="489.095" width="13.1273" height="3.45455" rx="1.72727" fill="#F5BB1D"/>
<rect x="28" y="2" width="167" height="298" fill="white"/>
<path fill-rule="evenodd" clip-rule="evenodd" d="M18 254.963V185.772C20.9703 184.999 24.0747 184.463 27.2817 184.195C43.9183 182.803 59.0175 188.959 67.5265 199.23C69.3618 198.846 71.2447 198.546 73.1872 198.378C92.8151 196.734 109.714 207.425 110.941 222.256H110.929C112.157 237.087 97.2364 250.441 77.6086 252.085C69.6835 252.745 62.2114 251.365 56.0263 248.546C49.5433 252.481 41.7255 255.085 33.1927 255.805C27.9205 256.246 22.8026 255.929 18 254.963Z" fill="#E9F7FF"/>
<rect x="19.5" y="7.5" width="179" height="298" stroke="#F3E0D6" stroke-width="15"/>
<path d="M2 298H216V319H2V298Z" fill="#F3E0D6"/>
<rect x="27" y="151" width="168" height="15" fill="#F3E0D6"/>
</svg>
