<svg width="137" height="87" viewBox="0 0 137 87" fill="none" xmlns="http://www.w3.org/2000/svg">
<g clip-path="url(#clip0_3854_292753)">
<path d="M47.6813 71.4189V71.438C47.054 73.2087 46.1963 74.916 45.1081 76.5471C45.0377 76.6486 44.9737 76.7565 44.9033 76.858C44.5192 77.4166 44.1096 77.9497 43.6743 78.4574C43.1686 79.0794 42.6309 79.6633 42.0676 80.2154C40.973 81.3007 39.7696 82.2654 38.4894 83.0905C38.2398 83.2555 37.9837 83.4269 37.7149 83.5792C37.062 83.9727 36.3899 84.3281 35.6986 84.6581C35.6858 84.6581 35.6666 84.6708 35.6474 84.6772C32.4148 86.2067 28.8559 86.9937 25.2393 87.0001C22.6404 87.0001 20.016 86.6066 17.462 85.7815C15.3241 85.1024 13.2373 84.106 11.2594 82.8112C3.00844 77.3975 -0.992215 68.0615 0.211182 59.1698C0.396812 57.7418 0.729666 56.3265 1.19694 54.9366C1.83705 53.0389 2.73319 51.192 3.89818 49.453C4.21184 48.9834 4.53829 48.5264 4.88395 48.0885C6.53541 45.9687 8.50054 44.2043 10.6833 42.8081C11.9379 42.0084 13.2501 41.3293 14.6135 40.7771C15.1512 40.5613 15.7017 40.3646 16.2586 40.1869C16.5595 40.0853 16.8667 39.9965 17.1804 39.914C17.3916 39.8505 17.6092 39.7934 17.8333 39.749C17.9421 39.7109 18.0445 39.6855 18.1597 39.6601C18.4158 39.5966 18.6718 39.5395 18.9214 39.5014C18.9726 39.4824 19.0303 39.4761 19.0751 39.4697C19.2799 39.4253 19.4783 39.3872 19.6896 39.3555C19.696 39.3555 19.7152 39.3555 19.728 39.3555C19.8688 39.3237 20.0032 39.3047 20.1504 39.2857C22.8645 38.8731 25.6681 38.9112 28.427 39.4316C29.3935 39.6157 30.3473 39.8505 31.3011 40.1425H31.3075C32.146 40.4027 32.9717 40.7073 33.7847 41.0564C35.1481 41.6466 36.4731 42.3638 37.7533 43.2016C38.1118 43.43 38.4702 43.6839 38.8095 43.9378C42.01 46.2734 44.5 49.2182 46.2155 52.4995C49.2752 58.3321 49.8897 65.1928 47.6877 71.4253L47.6813 71.4189Z" fill="#253684"/>
<path d="M35.6923 84.6582C35.6923 84.6582 35.6603 84.6709 35.6411 84.6773C32.4086 86.2068 28.8496 86.9938 25.233 87.0002C18.3839 84.9502 12.9814 79.8665 10.2866 73.2088C8.67989 69.2548 8.02698 64.7487 8.59668 59.9823C8.69909 58.6812 10.8946 51.2048 13.2246 48.8693C13.4679 48.6281 13.7111 48.4377 13.9543 48.3234C13.9864 48.2981 14.0248 48.2917 14.0504 48.279C14.4152 48.1267 14.7737 48.133 15.1129 48.3425C15.3882 48.5012 15.6506 48.7677 15.9067 49.1866C15.9067 49.1929 15.9067 49.2056 15.9195 49.212C15.8491 49.8276 15.8107 50.4496 15.785 51.0525C15.4138 59.3984 18.4863 67.0906 23.4535 73.5261C26.814 77.8736 31.0451 81.6436 35.6795 84.6582H35.6923Z" fill="#1A2B78"/>
<path d="M16.1051 48.444C15.7914 48.3995 15.4649 48.3615 15.1321 48.3361C14.78 48.3043 14.428 48.2789 14.0631 48.2726C14.0375 48.2663 14.0183 48.2663 13.9863 48.2663C10.4401 48.1774 6.43308 49.0279 3.98148 51.2365C2.70127 52.3599 1.81792 53.6038 1.19702 54.9303C1.83713 53.0326 2.73327 51.1857 3.89186 49.4467C4.20551 48.9771 4.53197 48.5201 4.87762 48.0822C6.52909 45.9624 8.49421 44.198 10.6706 42.7954C12.1684 44.1663 13.5638 45.7593 14.8825 47.1746C15.2857 47.6062 15.689 48.0251 16.0795 48.4122C16.0859 48.4249 16.0923 48.4376 16.1051 48.4376V48.444Z" fill="#1A2B78"/>
<path d="M31.2882 40.1364C26.1482 40.8281 20.8545 43.1383 17.3403 45.8991C16.777 46.3434 16.2521 46.8004 15.7913 47.2573L15.9321 46.8385C15.7977 46.2736 15.8169 45.6643 15.9641 45.0296C16.3738 43.2145 17.8268 41.1899 19.6831 39.3557C19.6959 39.3557 19.7087 39.3557 19.7215 39.3557C19.8559 39.3303 19.9967 39.3049 20.1376 39.2859C22.8516 38.8734 25.6553 38.9178 28.4205 39.4382C29.3871 39.6159 30.3472 39.8507 31.2882 40.1427V40.1364Z" fill="#1A2B78"/>
<path d="M44.9032 76.858C44.5191 77.4166 44.1095 77.9497 43.6742 78.4574C43.1685 79.0794 42.6308 79.6633 42.0675 80.2154C41.1266 81.1357 40.1152 81.9608 39.0526 82.697C39.6543 73.3166 37.478 66.3225 34.207 61.1373C29.0222 52.9056 21.0977 49.2563 17.2059 47.8854C16.5145 47.6442 15.9577 47.4729 15.5608 47.3586C16.1945 47.1809 16.8282 47.0159 17.4683 46.8953C17.4939 46.8953 17.5195 46.8826 17.5451 46.8826C23.4213 45.7085 29.7263 46.5209 34.8791 49.269C39.1038 51.5221 42.5348 55.0826 44.2951 59.9124C46.1706 65.0849 46.4202 71.2666 44.9096 76.8644L44.9032 76.858Z" fill="#1A2B78"/>
<path d="M16.6106 48.6596C15.5928 49.6624 14.1782 49.8782 13.4421 49.1483C12.7123 48.4185 12.9428 47.0095 13.9605 46.0067C14.9783 45.0039 16.3993 44.7882 17.1291 45.518C17.8652 46.2479 17.6283 47.6569 16.6106 48.6596Z" fill="#1A2B78"/>
<g opacity="0.2">
<path d="M46.2156 52.4928C45.2106 50.5698 43.9304 48.7673 42.407 47.1299C44.3593 63.2759 39.2577 79.0791 19.376 79.206C13.9735 79.206 7.59168 76.8451 2.54126 72.9926C4.44237 76.8324 7.36765 80.2596 11.2595 82.811C13.2374 84.1057 15.3241 85.1021 17.4621 85.7812C20.0161 86.6063 22.6405 87.0061 25.2394 86.9998C28.856 86.9998 32.4149 86.2064 35.6475 84.6769C35.6667 84.6705 35.6859 84.6642 35.6987 84.6578C36.3836 84.3215 37.0621 83.9724 37.715 83.5789C37.9838 83.4202 38.2399 83.2552 38.4895 83.0902C39.7697 82.2651 40.9731 81.3004 42.0677 80.2152C42.631 79.663 43.1687 79.0791 43.6744 78.4571C44.1096 77.9494 44.5193 77.4163 44.9034 76.8578C44.9738 76.7562 45.0378 76.6547 45.1082 76.5468C46.1964 74.9157 47.0541 73.2084 47.6814 71.4377V71.4187C49.8834 65.1862 49.2689 58.3254 46.2092 52.4928H46.2156Z" fill="#121F5B"/>
</g>
</g>
<path d="M136.557 36.1218C123.599 21.5497 112.168 27.3937 108.072 32.1372L111.982 37.2602C118.237 39.9924 125.014 48.2651 127.62 52.0599C132.088 46.14 135.44 38.9679 136.557 36.1218Z" fill="#111F5C"/>
<path fill-rule="evenodd" clip-rule="evenodd" d="M47.002 62.5622C48.8895 60.5568 52.0104 60.4947 53.9728 62.4236C62.3963 70.7028 73.8297 75.785 86.4349 75.785C99.0401 75.785 110.474 70.7028 118.897 62.4236C120.859 60.4947 123.98 60.5568 125.868 62.5622C127.755 64.5677 127.694 67.757 125.732 69.6858C115.546 79.6979 101.689 85.8611 86.4349 85.8611C71.1804 85.8611 57.3242 79.6979 47.1377 69.6858C45.1753 67.757 45.1146 64.5677 47.002 62.5622Z" fill="#111F5C"/>
<path d="M52.7462 0H43.9817V13.9946H44.5295C56.7933 13.9946 67.1746 22.2315 70.6646 33.5871H80.1352V27.9892C80.1352 12.5312 67.8727 0 52.7462 0Z" fill="#1A2B78"/>
<path d="M61.3469 11.6322C61.6356 11.3107 61.9147 10.9544 62.1765 10.5676C63.7403 8.25732 64.0917 5.73672 62.9613 4.93769C61.8309 4.13866 59.6468 5.36378 58.0831 7.67407C57.5385 8.47851 57.141 9.30845 56.9019 10.0823C56.7953 10.0781 56.6883 10.076 56.5807 10.076H39.5995C35.0616 10.076 31.3828 13.8354 31.3828 18.4728V21.8315C31.3828 26.4689 35.0616 30.2283 39.5995 30.2283H46.4686L46.471 30.2324C52.3838 30.3938 57.1284 35.3427 57.1284 41.424V48.5782L57.129 48.5792V71.6518C57.129 73.1976 58.3552 74.4508 59.8679 74.4508H69.1802C70.6928 74.4508 71.9191 73.1976 71.9191 71.6518V64.9344H71.9324C72.2178 59.0113 77.0077 54.2985 82.8747 54.2985H90.5436C96.4106 54.2985 101.2 59.0113 101.486 64.9344H101.499V71.6518C101.499 73.1976 102.725 74.4508 104.238 74.4508H113.55C115.063 74.4508 116.289 73.1976 116.289 71.6518V37.505C116.289 31.6308 111.63 26.8691 105.881 26.8691H71.0447L63.5298 13.9328L63.5039 13.9485C62.9359 13.0427 62.2023 12.2558 61.3469 11.6322Z" fill="#253684"/>
<path d="M116.289 68.2939H101.499V71.6527C101.499 73.1983 102.725 74.4516 104.238 74.4516H113.55C115.062 74.4516 116.289 73.1983 116.289 71.6527V68.2939Z" fill="#1A2B78"/>
<path d="M71.9185 68.2939V71.6527C71.9185 73.1983 70.6921 74.4516 69.1796 74.4516H59.8673C58.3548 74.4516 57.1284 73.1983 57.1284 71.6527V68.2939H71.9185Z" fill="#1A2B78"/>
<path fill-rule="evenodd" clip-rule="evenodd" d="M40.6948 10.0762V30.2284H39.5993C35.0613 30.2284 31.3826 26.4691 31.3826 21.8316V18.4729C31.3826 13.8355 35.0613 10.0762 39.5993 10.0762H40.6948Z" fill="#111F5C"/>
<path d="M71.9187 26.8696H101.499V37.5055C101.499 40.5971 99.0464 43.1034 96.021 43.1034H77.3965C74.3712 43.1034 71.9187 40.5971 71.9187 37.5055V26.8696Z" fill="#1A2B78"/>
<path fill-rule="evenodd" clip-rule="evenodd" d="M74.1094 26.8696V37.5055C74.1094 39.6697 75.8262 41.424 77.9439 41.424H96.0207C98.1384 41.424 99.8551 39.6697 99.8551 37.5055V26.8696H103.142V37.5055C103.142 41.5246 99.9536 44.7827 96.0207 44.7827H77.9439C74.011 44.7827 70.8228 41.5246 70.8228 37.5055V26.8696H74.1094Z" fill="#162566"/>
<path fill-rule="evenodd" clip-rule="evenodd" d="M38.5034 19.5924L64.7969 19.5924L64.7969 21.8315L38.5034 21.8315L38.5034 19.5924Z" fill="#111F5C"/>
<path d="M69.1792 20.1524C69.1792 22.3165 67.4624 24.0709 65.3447 24.0709C63.227 24.0709 61.5103 22.3165 61.5103 20.1524C61.5103 17.9883 63.227 16.2339 65.3447 16.2339C67.4624 16.2339 69.1792 17.9883 69.1792 20.1524Z" fill="#253684"/>
<path fill-rule="evenodd" clip-rule="evenodd" d="M65.3447 21.8317C66.2523 21.8317 66.9881 21.0799 66.9881 20.1524C66.9881 19.2249 66.2523 18.473 65.3447 18.473C64.4371 18.473 63.7014 19.2249 63.7014 20.1524C63.7014 21.0799 64.4371 21.8317 65.3447 21.8317ZM65.3447 24.0709C67.4624 24.0709 69.1792 22.3165 69.1792 20.1524C69.1792 17.9883 67.4624 16.2339 65.3447 16.2339C63.227 16.2339 61.5103 17.9883 61.5103 20.1524C61.5103 22.3165 63.227 24.0709 65.3447 24.0709Z" fill="#111F5C"/>
<path d="M57.1285 13.9948C57.1285 14.9223 56.3927 15.6741 55.4851 15.6741C54.5775 15.6741 53.8418 14.9223 53.8418 13.9948C53.8418 13.0673 54.5775 12.3154 55.4851 12.3154C56.3927 12.3154 57.1285 13.0673 57.1285 13.9948Z" fill="#111F5C"/>
<path d="M38.5036 13.9946C38.5036 14.6129 38.0131 15.1141 37.4081 15.1141C36.803 15.1141 36.3125 14.6129 36.3125 13.9946C36.3125 13.3762 36.803 12.875 37.4081 12.875C38.0131 12.875 38.5036 13.3762 38.5036 13.9946Z" fill="#2E429D"/>
<defs>
<clipPath id="clip0_3854_292753">
<rect width="49" height="48" fill="white" transform="translate(0 39)"/>
</clipPath>
</defs>
</svg>
