<svg width="283" height="587" viewBox="0 0 283 587" fill="none" xmlns="http://www.w3.org/2000/svg">
<g clip-path="url(#clip0_4684_43892)">
<path d="M105.043 482.463V482.483C105.693 484.311 106.582 486.074 107.71 487.758C107.783 487.863 107.849 487.974 107.922 488.079C108.32 488.656 108.745 489.206 109.196 489.731C109.72 490.373 110.277 490.976 110.861 491.546C111.996 492.667 113.243 493.663 114.57 494.515C114.828 494.685 115.094 494.862 115.372 495.019C116.049 495.426 116.746 495.792 117.462 496.133C117.476 496.133 117.495 496.146 117.515 496.153C120.866 497.732 124.554 498.545 128.303 498.551C130.997 498.551 133.717 498.145 136.364 497.293C138.58 496.592 140.742 495.563 142.793 494.226C151.344 488.636 155.491 478.996 154.244 469.815C154.051 468.341 153.706 466.879 153.222 465.444C152.558 463.485 151.63 461.578 150.422 459.782C150.097 459.297 149.759 458.825 149.4 458.373C147.689 456.184 145.652 454.362 143.39 452.921C142.089 452.095 140.729 451.394 139.316 450.824C138.759 450.601 138.188 450.398 137.611 450.214C137.299 450.109 136.981 450.018 136.656 449.932C136.437 449.867 136.211 449.808 135.979 449.762C135.866 449.723 135.76 449.696 135.641 449.67C135.375 449.605 135.11 449.546 134.851 449.506C134.798 449.487 134.738 449.48 134.692 449.474C134.48 449.428 134.274 449.388 134.055 449.356C134.048 449.356 134.028 449.356 134.015 449.356C133.869 449.323 133.73 449.303 133.577 449.284C130.764 448.858 127.858 448.897 124.999 449.434C123.997 449.624 123.009 449.867 122.02 450.168H122.014C121.144 450.437 120.289 450.751 119.446 451.112C118.033 451.721 116.66 452.462 115.333 453.327C114.961 453.563 114.59 453.825 114.238 454.087C110.921 456.499 108.34 459.54 106.562 462.928C103.391 468.95 102.754 476.034 105.036 482.47L105.043 482.463Z" fill="#3556A7"/>
<path d="M117.469 496.134C117.469 496.134 117.502 496.147 117.522 496.153C120.872 497.733 124.561 498.545 128.309 498.552C135.408 496.435 141.008 491.186 143.801 484.311C145.466 480.229 146.143 475.576 145.552 470.654C145.446 469.311 143.17 461.591 140.755 459.18C140.503 458.93 140.251 458.734 139.999 458.616C139.966 458.59 139.926 458.583 139.9 458.57C139.521 458.413 139.15 458.419 138.798 458.636C138.513 458.799 138.241 459.075 137.976 459.507C137.976 459.514 137.976 459.527 137.962 459.533C138.035 460.169 138.075 460.811 138.102 461.434C138.487 470.051 135.302 477.994 130.154 484.639C126.671 489.128 122.285 493.021 117.482 496.134H117.469Z" fill="#5476C9"/>
<path d="M137.77 458.74C138.095 458.695 138.434 458.655 138.779 458.629C139.143 458.596 139.508 458.57 139.886 458.563C139.913 458.557 139.933 458.557 139.966 458.557C143.642 458.465 147.795 459.343 150.336 461.624C151.663 462.784 152.578 464.068 153.222 465.438C152.558 463.478 151.629 461.571 150.429 459.776C150.103 459.291 149.765 458.819 149.407 458.367C147.695 456.178 145.658 454.356 143.403 452.908C141.85 454.323 140.404 455.968 139.037 457.43C138.619 457.875 138.201 458.308 137.797 458.708C137.79 458.721 137.783 458.734 137.77 458.734V458.74Z" fill="#5476C9"/>
<path d="M122.033 450.162C127.361 450.876 132.847 453.262 136.49 456.113C137.074 456.571 137.618 457.043 138.095 457.515L137.949 457.082C138.089 456.499 138.069 455.87 137.916 455.215C137.491 453.34 135.985 451.25 134.061 449.356C134.048 449.356 134.035 449.356 134.022 449.356C133.882 449.33 133.736 449.304 133.59 449.284C130.777 448.858 127.872 448.904 125.005 449.441C124.004 449.625 123.009 449.867 122.033 450.169V450.162Z" fill="#5476C9"/>
<path d="M107.922 488.079C108.32 488.656 108.744 489.207 109.196 489.731C109.72 490.373 110.277 490.976 110.861 491.546C111.836 492.496 112.884 493.348 113.986 494.109C113.362 484.423 115.618 477.201 119.008 471.847C124.382 463.347 132.595 459.579 136.629 458.164C137.345 457.915 137.923 457.738 138.334 457.62C137.677 457.436 137.02 457.266 136.357 457.141C136.33 457.141 136.304 457.128 136.277 457.128C130.187 455.916 123.652 456.755 118.311 459.592C113.933 461.919 110.376 465.595 108.552 470.582C106.608 475.923 106.349 482.306 107.915 488.086L107.922 488.079Z" fill="#5476C9"/>
<path d="M137.246 458.963C138.301 459.999 139.767 460.221 140.53 459.468C141.287 458.714 141.048 457.259 139.993 456.224C138.938 455.189 137.465 454.966 136.709 455.719C135.946 456.473 136.191 457.928 137.246 458.963Z" fill="#3556A7"/>
<g opacity="0.2">
<path d="M106.562 462.921C107.604 460.936 108.93 459.075 110.509 457.384C108.486 474.055 113.774 490.373 134.38 490.504C139.98 490.504 146.594 488.066 151.829 484.089C149.858 488.053 146.826 491.592 142.793 494.227C140.742 495.563 138.58 496.592 136.364 497.294C133.717 498.145 130.997 498.558 128.303 498.552C124.554 498.552 120.866 497.733 117.515 496.153C117.495 496.147 117.476 496.14 117.462 496.134C116.752 495.786 116.049 495.426 115.372 495.02C115.094 494.856 114.828 494.685 114.57 494.515C113.243 493.663 111.995 492.667 110.861 491.546C110.277 490.976 109.72 490.373 109.196 489.731C108.745 489.207 108.32 488.656 107.922 488.08C107.849 487.975 107.783 487.87 107.71 487.758C106.582 486.074 105.693 484.311 105.043 482.483V482.463C102.76 476.028 103.397 468.944 106.569 462.921H106.562Z" fill="#1A377E"/>
</g>
</g>
<path d="M101.32 471.685C102.473 468.645 105.864 467.119 108.904 468.271L123.244 473.7C126.285 474.851 127.811 478.241 126.658 481.281C125.505 484.321 122.114 485.847 119.073 484.695L104.733 479.266C101.693 478.114 100.167 474.725 101.32 471.685Z" fill="#3556A7"/>
<path d="M90.3092 493.153L119.72 484.832L123.056 496.62L93.6443 504.941L90.3092 493.153Z" fill="#3556A7"/>
<path d="M103.065 502.276C110.676 500.123 115.102 492.209 112.949 484.6L109.767 473.352C107.614 465.744 99.699 461.321 92.0878 463.475C84.4766 465.628 80.0512 473.542 82.2037 481.15L85.3859 492.398C87.5384 500.007 95.4539 504.429 103.065 502.276Z" fill="#3556A7"/>
<path d="M102.318 489.951C106.601 488.739 109.094 484.28 107.883 479.998L106.169 473.94C104.958 469.658 100.498 467.166 96.2144 468.378C91.9311 469.59 89.4376 474.049 90.649 478.33L92.363 484.389C93.5743 488.671 98.0343 491.162 102.318 489.951Z" fill="#5476C9"/>
<path d="M69.5404 454.45C70.3797 457.417 73.4735 459.145 76.4413 458.306C79.409 457.466 81.1387 454.373 80.2994 451.406C79.4601 448.439 76.3663 446.711 73.3985 447.55C70.4308 448.39 68.7011 451.483 69.5404 454.45Z" fill="#1A529F"/>
<path d="M72.3824 453.646C72.7788 455.047 74.2353 455.861 75.6369 455.465C77.0386 455.068 77.8529 453.612 77.4565 452.211C77.0601 450.81 75.6036 449.996 74.2019 450.392C72.8003 450.789 71.986 452.245 72.3824 453.646Z" fill="#5476C9"/>
<path d="M94.6061 447.358C95.4454 450.325 98.5392 452.054 101.507 451.214C104.475 450.374 106.204 447.281 105.365 444.315C104.526 441.348 101.432 439.619 98.4642 440.459C95.4965 441.299 93.7668 444.392 94.6061 447.358Z" fill="#1A529F"/>
<path d="M97.4483 446.555C97.8447 447.956 99.3012 448.77 100.703 448.373C102.105 447.977 102.919 446.521 102.522 445.119C102.126 443.718 100.67 442.904 99.2679 443.301C97.8662 443.698 97.0519 445.154 97.4483 446.555Z" fill="#5476C9"/>
<path d="M92.9076 478.354C83.7553 479.288 75.5795 472.629 74.6464 463.48C73.7133 454.33 80.3763 446.156 89.5286 445.221C98.6809 444.287 106.857 450.946 107.79 460.095C108.723 469.245 102.06 477.419 92.9076 478.354Z" fill="#3556A7"/>
<path d="M87.9806 469.346C88.7578 472.093 91.6207 473.693 94.3692 472.915C97.1176 472.138 98.7182 469.275 97.9409 466.528C97.1636 463.78 94.3008 462.181 91.5523 462.959C88.8038 463.736 87.2033 466.598 87.9806 469.346Z" fill="#3556A7"/>
<path d="M90.0691 473.108C87.8419 473.738 85.5258 472.444 84.8959 470.218C84.266 467.992 85.5609 465.676 87.7881 465.046C90.0153 464.416 92.3314 465.71 92.9613 467.936C93.5911 470.163 92.2962 472.478 90.0691 473.108Z" fill="#5476C9"/>
<path d="M92.9613 467.936C93.5925 470.167 95.9106 471.456 98.1345 470.827C100.358 470.197 101.656 467.878 101.027 465.654C100.398 463.431 98.0774 462.135 95.8535 462.764C93.6297 463.393 92.3324 465.713 92.9613 467.936Z" fill="#5476C9"/>
<path d="M90.6773 459.866C95.1328 458.606 99.7736 461.198 101.034 465.652L84.8872 470.22C83.6272 465.766 86.2217 461.127 90.6773 459.866Z" fill="#5476C9"/>
<path d="M89.8154 460.465L91.7261 459.924L94.8685 471.032L92.9578 471.572L89.8154 460.465Z" fill="#3556A7"/>
<path d="M88.6634 459.354L92.1245 458.375C93.7924 457.903 95.2409 459.615 94.4911 461.18L93.3142 463.626C92.787 464.722 91.4245 465.108 90.4091 464.448L88.1249 462.981C86.6665 462.041 86.9955 459.826 88.6712 459.352L88.6634 459.354Z" fill="#232255"/>
<path d="M84.6404 460.923C83.7971 461.162 82.9202 460.672 82.6817 459.829C82.4432 458.986 82.9335 458.109 83.7768 457.871C84.6201 457.632 85.497 458.122 85.7355 458.965C85.974 459.808 85.4837 460.685 84.6404 460.923Z" fill="#232255"/>
<path d="M95.8858 457.742C95.0425 457.981 94.1655 457.491 93.927 456.648C93.6885 455.805 94.1788 454.928 95.0221 454.69C95.8654 454.451 96.7424 454.941 96.9809 455.784C97.2194 456.627 96.7291 457.504 95.8858 457.742Z" fill="#232255"/>
<path d="M72.7989 493.584L77.9203 479.133C79.0073 476.069 82.3683 474.468 85.4247 475.556C88.489 476.642 90.0907 480.001 89.0016 483.057L83.8801 497.508C82.7932 500.572 79.4322 502.174 76.3757 501.086C73.3115 500 71.7098 496.64 72.7989 493.584Z" fill="#3556A7"/>
<path d="M88.3373 486.213C91.7044 485.26 95.2001 487.213 96.1523 490.579L98.0037 497.123C98.9559 500.489 97.0016 503.984 93.6345 504.936C90.2674 505.889 86.7717 503.936 85.8195 500.57L83.9681 494.026C83.0159 490.66 84.9702 487.165 88.3373 486.213Z" fill="#1A529F"/>
<path d="M88.1812 499.563C88.7504 501.575 90.8419 502.75 92.8622 502.178C94.8825 501.607 96.0506 499.518 95.4792 497.498C94.9079 495.479 92.8185 494.312 90.7983 494.883C88.778 495.455 87.6099 497.544 88.1812 499.563Z" fill="#5476C9"/>
<path d="M90.083 492.38C89.2441 492.618 88.3716 492.13 88.1343 491.292C87.897 490.453 88.3848 489.581 89.2238 489.343C90.0628 489.106 90.9353 489.593 91.1725 490.432C91.4098 491.271 90.922 492.143 90.083 492.38Z" fill="#5476C9"/>
<path d="M87.086 495.688C86.247 495.926 85.3745 495.438 85.1372 494.6C84.9 493.761 85.3878 492.889 86.2267 492.651C87.0657 492.414 87.9382 492.901 88.1755 493.74C88.4127 494.579 87.9249 495.451 87.086 495.688Z" fill="#5476C9"/>
<path d="M94.2432 493.663C93.4042 493.901 92.5317 493.413 92.2945 492.575C92.0572 491.736 92.545 490.864 93.384 490.626C94.2229 490.389 95.0954 490.876 95.3327 491.715C95.57 492.554 95.0822 493.426 94.2432 493.663Z" fill="#5476C9"/>
<path d="M116.247 487.32L119.566 481.385C121.274 478.332 125.134 477.24 128.188 478.946C131.241 480.652 132.333 484.511 130.626 487.564L127.307 493.499C125.6 496.552 121.739 497.645 118.686 495.938C115.632 494.232 114.54 490.373 116.247 487.32Z" fill="#1A529F"/>
<path d="M118.629 488.269C117.607 490.097 118.26 492.406 120.086 493.419C121.915 494.441 124.225 493.787 125.239 491.962C126.261 490.134 125.608 487.825 123.782 486.811C121.954 485.79 119.644 486.443 118.629 488.269Z" fill="#5476C9"/>
<path d="M124.448 482.378C124.021 483.142 124.293 484.104 125.057 484.531C125.82 484.958 126.783 484.685 127.21 483.922C127.637 483.159 127.365 482.196 126.601 481.769C125.838 481.343 124.875 481.615 124.448 482.378Z" fill="#5476C9"/>
<path d="M119.986 482.601C119.56 483.364 119.832 484.327 120.595 484.754C121.359 485.18 122.322 484.908 122.749 484.144C123.176 483.381 122.903 482.418 122.14 481.992C121.376 481.565 120.413 481.838 119.986 482.601Z" fill="#5476C9"/>
<path d="M128.291 488.52C127.452 488.758 126.579 488.27 126.342 487.432C126.105 486.593 126.593 485.721 127.432 485.483C128.271 485.246 129.143 485.733 129.38 486.572C129.618 487.411 129.13 488.283 128.291 488.52Z" fill="#5476C9"/>
<path d="M76.4794 503.959L58.7659 492.633C58.3633 492.376 58.2454 491.84 58.5026 491.437L59.6927 489.572C59.95 489.169 60.4849 489.051 60.8875 489.309L78.601 500.634C79.0037 500.892 79.1216 501.427 78.8644 501.83L77.6742 503.695C77.417 504.098 76.8821 504.216 76.4794 503.959Z" fill="#5476C9"/>
<path d="M22.775 469.62L66.2001 497.385C67.4747 498.2 69.1739 497.825 69.988 496.55L77.7086 484.452C78.5227 483.177 78.1482 481.476 76.8737 480.661L43.4988 459.322C36.6754 454.959 27.595 456.962 23.2363 463.792L21.9374 465.827C21.1233 467.103 21.4978 468.804 22.7723 469.618L22.775 469.62Z" fill="#5476C9"/>
<path d="M64.9858 485.79L62.2694 484.053C61.9398 483.843 61.8433 483.404 62.0538 483.075L78.5109 457.288C78.7214 456.958 79.1592 456.861 79.4888 457.072L82.2052 458.809C82.5348 459.02 82.6313 459.458 82.4208 459.788L65.9637 485.575C65.7532 485.904 65.3154 486.001 64.9858 485.79Z" fill="#5476C9"/>
<path d="M30.7428 479.973C28.0987 478.282 27.2604 474.867 28.8703 472.344C30.4802 469.822 33.9288 469.147 36.5728 470.838C39.2169 472.528 40.0552 475.944 38.4453 478.466C36.8354 480.989 33.3868 481.663 30.7428 479.973Z" fill="#4060BA" stroke="#2440A5" stroke-width="4" stroke-miterlimit="10"/>
<path d="M57.6834 497.199C55.0394 495.508 54.201 492.093 55.811 489.57C57.4209 487.047 60.8695 486.373 63.5135 488.063C66.1576 489.754 66.9959 493.17 65.386 495.692C63.776 498.215 60.3275 498.889 57.6834 497.199Z" fill="#3753A1" stroke="#2440A5" stroke-width="4" stroke-miterlimit="10"/>
<path d="M76.6952 480.547L62.1005 471.216C61.5412 470.858 61.3775 470.115 61.7347 469.555L66.0624 462.774C66.4197 462.214 67.1626 462.05 67.7219 462.408L82.3166 471.739C82.8758 472.097 83.0396 472.84 82.6824 473.4L78.3546 480.181C77.9974 480.741 77.2545 480.905 76.6952 480.547Z" fill="#3753A1"/>
<path d="M57.6391 468.365L43.0443 459.033C42.4851 458.676 42.3213 457.932 42.6786 457.372L47.0063 450.591C47.3635 450.032 48.1065 449.868 48.6657 450.225L63.2605 459.557C63.8197 459.914 63.9834 460.658 63.6262 461.218L59.2985 467.999C58.9413 468.559 58.1983 468.723 57.6391 468.365Z" fill="#2C52AE"/>
<path d="M63.7299 459.397L55.9694 454.435C55.5519 454.168 55.4296 453.613 55.6963 453.195L60.3518 445.9C60.6185 445.482 61.1733 445.36 61.5908 445.627L69.3513 450.589C69.7688 450.856 69.8911 451.411 69.6244 451.829L64.9689 459.124C64.7022 459.542 64.1475 459.664 63.7299 459.397Z" fill="#5476C9"/>
<path d="M165.952 447.839L169.153 441.896C169.583 441.098 170.578 440.8 171.375 441.23L190.923 451.779C191.721 452.209 192.019 453.205 191.589 454.003L188.388 459.946C187.958 460.744 186.963 461.042 186.165 460.612L166.617 450.063C165.82 449.633 165.522 448.637 165.952 447.839Z" fill="#253684"/>
<path d="M119.999 533.157L123.2 527.214C123.629 526.416 124.625 526.118 125.422 526.548L144.97 537.097C145.768 537.527 146.066 538.523 145.636 539.321L142.435 545.264C142.005 546.062 141.01 546.36 140.212 545.93L120.664 535.381C119.867 534.951 119.569 533.955 119.999 533.157Z" fill="#253684"/>
<path d="M127.853 545.462C120.317 541.395 126.633 515.031 141.959 486.576C157.286 458.121 175.819 438.351 183.355 442.417C190.891 446.484 184.575 472.848 169.249 501.302C153.923 529.757 135.389 549.528 127.853 545.462Z" fill="#5476C9"/>
<g style="mix-blend-mode:overlay" opacity="0.2">
<path d="M142.796 517.72C138.433 515.366 140.631 502.81 147.705 489.677C154.779 476.543 164.051 467.804 168.414 470.159C172.777 472.513 170.579 485.069 163.505 498.202C156.431 511.336 147.159 520.075 142.796 517.72Z" fill="#ACC0F1"/>
</g>
<g style="mix-blend-mode:overlay" opacity="0.3">
<path d="M177.997 448.802C177.468 448.802 177.039 448.373 177.039 447.843C177.039 447.314 177.468 446.884 177.997 446.884C178.526 446.884 178.955 447.314 178.955 447.843C178.955 448.373 178.526 448.802 177.997 448.802Z" fill="black"/>
</g>
<g style="mix-blend-mode:overlay" opacity="0.3">
<path d="M181.768 450.835C181.239 450.835 180.81 450.406 180.81 449.876C180.81 449.347 181.239 448.917 181.768 448.917C182.297 448.917 182.726 449.347 182.726 449.876C182.726 450.406 182.297 450.835 181.768 450.835Z" fill="black"/>
</g>
<g style="mix-blend-mode:overlay" opacity="0.3">
<path d="M176.051 452.417C175.522 452.417 175.093 451.987 175.093 451.458C175.093 450.928 175.522 450.499 176.051 450.499C176.58 450.499 177.009 450.928 177.009 451.458C177.009 451.987 176.58 452.417 176.051 452.417Z" fill="black"/>
</g>
<g style="mix-blend-mode:overlay" opacity="0.3">
<path d="M179.82 454.45C179.291 454.45 178.862 454.021 178.862 453.491C178.862 452.961 179.291 452.532 179.82 452.532C180.349 452.532 180.778 452.961 180.778 453.491C180.778 454.021 180.349 454.45 179.82 454.45Z" fill="black"/>
</g>
<g style="mix-blend-mode:overlay" opacity="0.3">
<path d="M131.383 535.346C130.854 535.346 130.425 534.916 130.425 534.387C130.425 533.857 130.854 533.428 131.383 533.428C131.912 533.428 132.341 533.857 132.341 534.387C132.341 534.916 131.912 535.346 131.383 535.346Z" fill="black"/>
</g>
<g style="mix-blend-mode:overlay" opacity="0.3">
<path d="M135.154 537.382C134.625 537.382 134.196 536.953 134.196 536.423C134.196 535.894 134.625 535.464 135.154 535.464C135.683 535.464 136.112 535.894 136.112 536.423C136.112 536.953 135.683 537.382 135.154 537.382Z" fill="black"/>
</g>
<g style="mix-blend-mode:overlay" opacity="0.3">
<path d="M129.438 538.963C128.909 538.963 128.48 538.534 128.48 538.004C128.48 537.475 128.909 537.045 129.438 537.045C129.967 537.045 130.396 537.475 130.396 538.004C130.396 538.534 129.967 538.963 129.438 538.963Z" fill="black"/>
</g>
<g style="mix-blend-mode:overlay" opacity="0.3">
<path d="M133.209 540.996C132.68 540.996 132.251 540.567 132.251 540.038C132.251 539.508 132.68 539.079 133.209 539.079C133.738 539.079 134.167 539.508 134.167 540.038C134.167 540.567 133.738 540.996 133.209 540.996Z" fill="black"/>
</g>
<path d="M43.0962 490.745H177.881C180.688 490.745 182.963 493.022 182.963 495.831V561.926C182.963 564.735 180.688 567.013 177.881 567.013H43.0962C40.2896 567.013 38.0145 564.735 38.0145 561.926V495.831C38.0145 493.022 40.2896 490.745 43.0962 490.745Z" fill="#345BBA"/>
<path opacity="0.1" d="M182.963 498.807C182.905 498.81 182.848 498.817 182.79 498.817H38.1875C38.1298 498.817 38.0721 498.81 38.0145 498.807V493.483H182.963V498.807Z" fill="black"/>
<path opacity="0.4" d="M161.534 487.207H168.519C170.802 487.207 172.652 489.059 172.652 491.344V552.93C172.652 555.215 170.802 557.067 168.519 557.067H161.534C159.251 557.067 157.401 555.215 157.401 552.93V491.344C157.401 489.059 159.251 487.207 161.534 487.207Z" fill="#20439B"/>
<path opacity="0.4" d="M139.717 487.207H146.702C148.984 487.207 150.835 489.059 150.835 491.344V552.93C150.835 555.215 148.984 557.067 146.702 557.067H139.717C137.434 557.067 135.583 555.215 135.583 552.93V491.344C135.583 489.059 137.434 487.207 139.717 487.207Z" fill="#20439B"/>
<path opacity="0.4" d="M117.903 487.207H124.888C127.17 487.207 129.021 489.059 129.021 491.344V552.93C129.021 555.215 127.17 557.067 124.888 557.067H117.903C115.62 557.067 113.769 555.215 113.769 552.93V491.344C113.769 489.059 115.62 487.207 117.903 487.207Z" fill="#20439B"/>
<path opacity="0.4" d="M96.0858 487.207H103.071C105.354 487.207 107.204 489.059 107.204 491.344V552.93C107.204 555.215 105.354 557.067 103.071 557.067H96.0858C93.803 557.067 91.9525 555.215 91.9525 552.93V491.344C91.9525 489.059 93.803 487.207 96.0858 487.207Z" fill="#20439B"/>
<path opacity="0.4" d="M74.2728 487.207H81.2578C83.5406 487.207 85.3911 489.059 85.3911 491.344V552.93C85.3911 555.215 83.5406 557.067 81.2578 557.067H74.2728C71.99 557.067 70.1395 555.215 70.1395 552.93V491.344C70.1395 489.059 71.99 487.207 74.2728 487.207Z" fill="#20439B"/>
<path opacity="0.4" d="M52.4556 487.207H59.4406C61.7234 487.207 63.574 489.059 63.574 491.344V552.93C63.574 555.215 61.7234 557.067 59.4406 557.067H52.4556C50.1729 557.067 48.3223 555.215 48.3223 552.93V491.344C48.3223 489.059 50.1729 487.207 52.4556 487.207Z" fill="#20439B"/>
<path d="M36.4697 483.327H184.504C186.627 483.327 188.349 485.05 188.349 487.175V492.23C188.349 494.355 186.627 496.078 184.504 496.078H36.4697C34.3461 496.078 32.6247 494.355 32.6247 492.23V487.175C32.6247 485.05 34.3461 483.327 36.4697 483.327Z" fill="#345BBA"/>
<path d="M157.298 577.811C148.551 577.811 141.46 571.045 141.46 562.699C141.46 554.353 148.551 547.587 157.298 547.587C166.045 547.587 173.136 554.353 173.136 562.699C173.136 571.045 166.045 577.811 157.298 577.811Z" fill="#2C52AE" stroke="#2440A5" stroke-width="8" stroke-miterlimit="10"/>
<path d="M63.7696 577.811C55.0225 577.811 47.9316 571.045 47.9316 562.699C47.9316 554.353 55.0225 547.587 63.7696 547.587C72.5167 547.587 79.6077 554.353 79.6077 562.699C79.6077 571.045 72.5167 577.811 63.7696 577.811Z" fill="#2C52AE" stroke="#2440A5" stroke-width="8" stroke-miterlimit="10"/>
<g clip-path="url(#clip1_4684_43892)">
<path d="M37.5741 530.778L29.6975 559.571L33.4801 560.578L41.3567 531.784L37.5741 530.778Z" fill="#1748A6"/>
<g style="mix-blend-mode:overlay" opacity="0.1">
<path d="M37.5769 530.782L39.4672 531.288L31.5897 560.08L29.6995 559.575L37.5769 530.782Z" fill="black"/>
</g>
<path d="M29.0041 569.53C32.2059 570.384 35.5034 568.511 36.3694 565.353C37.2355 562.195 35.3369 558.942 32.1351 558.088C28.9333 557.234 25.6358 559.107 24.7698 562.265C23.9037 565.423 25.8023 568.675 29.0041 569.53ZM31.3357 561.008C32.9012 561.427 33.8297 563.016 33.4092 564.56C32.9845 566.105 31.3732 567.02 29.8077 566.602C28.2422 566.183 27.3137 564.593 27.7342 563.049C28.1589 561.505 29.7702 560.589 31.3357 561.004V561.008Z" fill="#1748A6"/>
<path d="M38.3179 533.513L39.3255 533.78C44.1136 535.053 49.0432 532.261 50.3339 527.538L52.9112 518.121C53.186 517.123 52.5864 516.092 51.5705 515.821C50.5588 515.55 49.5137 516.142 49.2389 517.144L46.3494 527.702C46.0746 528.7 45.0337 529.292 44.0178 529.025C43.0061 528.754 42.4065 527.727 42.6771 526.725L45.5667 516.166C45.8415 515.168 45.2419 514.138 44.226 513.867C43.2142 513.595 42.1692 514.187 41.8944 515.189L39.0049 525.747C38.7301 526.745 37.6892 527.337 36.6733 527.07C35.6615 526.799 35.062 525.772 35.3326 524.77L38.2221 514.211C38.4969 513.214 37.8974 512.183 36.8815 511.912C35.8697 511.641 34.8247 512.232 34.5499 513.234L31.9726 522.651C30.6819 527.374 33.5131 532.236 38.3012 533.509L38.3179 533.513Z" fill="#1748A6"/>
<g style="mix-blend-mode:overlay" opacity="0.1">
<path d="M38.8218 533.649L39.3256 533.784C44.1137 535.058 49.0433 532.265 50.334 527.542L52.9113 518.125C53.1861 517.127 52.5865 516.097 51.5706 515.826C51.5456 515.817 51.5248 515.817 51.4998 515.813L48.4063 527.123C47.4112 530.758 43.6182 532.91 39.9335 531.928L39.3381 531.768L38.8259 533.645L38.8218 533.649Z" fill="white"/>
</g>
<g style="mix-blend-mode:overlay" opacity="0.1">
<path d="M31.9894 522.655L34.5667 513.238C34.8415 512.24 35.8824 511.649 36.8983 511.916C36.9233 511.924 36.9441 511.932 36.9649 511.941L33.8714 523.251C32.8763 526.885 35.058 530.626 38.7427 531.608L39.3381 531.768L38.826 533.645L38.3222 533.509C33.5341 532.236 30.6987 527.374 31.9936 522.651L31.9894 522.655Z" fill="black"/>
</g>
<path d="M17.6365 528.504L13.7947 529.531L21.8248 558.764L25.6667 557.738L17.6365 528.504Z" fill="#3454CB"/>
<g style="mix-blend-mode:overlay" opacity="0.6">
<path opacity="0.2" d="M15.7151 529.016L13.7942 529.529L21.8244 558.762L23.7453 558.249L15.7151 529.016Z" fill="black"/>
</g>
<path d="M15.639 531.612L16.6633 531.336C21.5221 530.039 24.395 525.098 23.0793 520.302L19.7401 508.15C19.2697 506.441 17.4877 505.431 15.7556 505.895L3.40233 509.197C1.67029 509.661 0.64605 511.419 1.11237 513.131L4.45155 525.283C5.76723 530.076 10.776 532.913 15.639 531.612Z" fill="#3454CB"/>
<path d="M26.3767 567.846C29.6285 566.975 31.552 563.674 30.6694 560.462C29.7867 557.255 26.4392 555.357 23.1833 556.228C19.9315 557.099 18.008 560.401 18.8906 563.612C19.7733 566.819 23.1208 568.717 26.3767 567.846ZM23.9993 559.197C25.5898 558.774 27.2302 559.698 27.6591 561.267C28.0879 562.836 27.1511 564.454 25.5607 564.877C23.9702 565.304 22.3297 564.376 21.9009 562.807C21.472 561.238 22.4088 559.62 23.9993 559.197Z" fill="#3454CB"/>
<g style="mix-blend-mode:overlay" opacity="0.1">
<path d="M15.6389 531.612L16.6631 531.337C21.522 530.039 24.3948 525.098 23.0791 520.302L19.74 508.15C19.2778 506.462 17.5291 505.46 15.8179 505.879L20.0064 521.123C20.8641 524.244 18.9947 527.46 15.8304 528.306L14.8061 528.581C11.6418 529.427 8.38177 527.583 7.52408 524.462L3.33554 509.218C1.64513 509.706 0.650039 511.443 1.11219 513.131L4.45137 525.283C5.76706 530.076 10.7758 532.91 15.6389 531.612Z" fill="white"/>
</g>
<g style="mix-blend-mode:overlay" opacity="0.2">
<path d="M15.8306 528.31C18.995 527.464 20.8644 524.249 20.0067 521.127L15.8182 505.883C15.7973 505.887 15.7765 505.891 15.7515 505.895L9.47705 507.571L15.2186 528.47L15.8306 528.306V528.31Z" fill="#212121"/>
</g>
<path d="M32.8583 543.31C33.99 540.615 32.6926 537.526 29.9606 536.41C27.2285 535.293 24.0964 536.573 22.9648 539.268C21.8331 541.963 23.1305 545.052 25.8625 546.168C28.5946 547.284 31.7267 546.005 32.8583 543.31Z" fill="#345BBA"/>
<path d="M49.4013 540.881H6.42501C4.51393 540.881 2.96509 542.409 2.96509 544.294C2.96509 546.179 4.51393 547.706 6.42501 547.706H49.4013C51.3124 547.706 52.8612 546.179 52.8612 544.294C52.8612 542.409 51.3124 540.881 49.4013 540.881Z" fill="#345BBA"/>
<path d="M6.42501 540.881H49.4013C51.3124 540.881 52.8612 542.409 52.8612 544.294C52.8612 546.179 51.3124 547.706 49.4013 547.706H6.42501C4.51393 547.706 2.96509 546.179 2.96509 544.294C2.96509 542.409 4.51393 540.881 6.42501 540.881Z" fill="#345BBA"/>
<g style="mix-blend-mode:overlay" opacity="0.4">
<path d="M52.8528 544.064C52.7321 542.285 51.2374 540.881 49.4054 540.881H6.42497C4.593 540.881 3.09828 542.285 2.97754 544.064H52.8528Z" fill="white"/>
</g>
<path d="M6.42505 547.71V553.743C6.42505 555.119 6.9788 556.433 7.9614 557.407L9.55605 558.979H46.262L47.8567 557.407C48.8434 556.433 49.393 555.119 49.393 553.743V547.71H6.42505Z" fill="#345BBA"/>
<g style="mix-blend-mode:overlay" opacity="0.3">
<path d="M49.4013 547.71H6.42505V553.6H49.4013V547.71Z" fill="black"/>
</g>
<g style="mix-blend-mode:overlay" opacity="0.2">
<path d="M49.4013 547.71H6.42505V549.604H49.4013V547.71Z" fill="#5B5B5B"/>
</g>
<path d="M9.5603 558.984V583.702C9.5603 584.577 9.91421 585.415 10.5387 586.035C11.1674 586.655 12.0168 587 12.9036 587H42.9229C43.8098 587 44.6591 586.651 45.2878 586.035C45.9165 585.415 46.2663 584.577 46.2663 583.702V558.984H9.5603Z" fill="#345BBA"/>
<g style="mix-blend-mode:overlay" opacity="0.3">
<path d="M9.89331 585.127C10.0557 585.46 10.2722 585.768 10.5387 586.035C11.1674 586.655 12.0167 587 12.9036 587H42.9228C43.8097 587 44.659 586.651 45.2877 586.035C45.5584 585.768 45.7707 585.46 45.9331 585.127H9.89331Z" fill="black"/>
</g>
<g style="mix-blend-mode:overlay" opacity="0.3">
<path d="M46.2663 558.984H9.5603V561.653H46.2663V558.984Z" fill="black"/>
</g>
<path d="M48.6145 562.848C48.0982 562.848 47.5819 562.655 47.1864 562.269L26.6476 542.088C25.8606 541.316 25.8606 540.06 26.6476 539.288C27.4345 538.515 28.7127 538.515 29.4996 539.288L50.0384 559.468C50.8254 560.24 50.8254 561.497 50.0384 562.269C49.6429 562.655 49.1266 562.848 48.6103 562.848H48.6145Z" fill="#456DCD"/>
<g style="mix-blend-mode:overlay" opacity="0.3">
<path d="M26.6516 542.084L46.2662 567.292V561.361L26.6516 542.084Z" fill="black"/>
</g>
</g>
<rect x="52" y="10" width="179" height="293" fill="url(#paint0_linear_4684_43892)"/>
<rect x="53.5" y="7.5" width="179" height="298" stroke="#344281" stroke-width="15"/>
<path d="M37 298H250V319H37V298Z" fill="#344281"/>
<rect x="57" y="148" width="179" height="21" fill="#344281"/>
<path d="M36 319H250V324H36V319Z" fill="#142057"/>
<path d="M0 372L61 15H224L283 372H0Z" fill="url(#paint1_linear_4684_43892)" fill-opacity="0.1"/>
<circle cx="161" cy="73" r="44" fill="white"/>
<circle cx="166.5" cy="63.5" r="9.5" fill="#EDEDED"/>
<circle cx="166.5" cy="93.5" r="5.5" fill="#EDEDED"/>
<circle cx="137.5" cy="84.5" r="2.5" fill="#EDEDED"/>
<path d="M91 102C91 103.657 89.6569 105 88 105C86.3431 105 85 103.657 85 102C85 100.343 86.3431 99 88 99C89.6569 99 91 100.343 91 102Z" fill="white"/>
<path d="M101 115C101 116.105 100.105 117 99 117C97.8954 117 97 116.105 97 115C97 113.895 97.8954 113 99 113C100.105 113 101 113.895 101 115Z" fill="white"/>
<path d="M105 52C105 53.1046 104.105 54 103 54C101.895 54 101 53.1046 101 52C101 50.8954 101.895 50 103 50C104.105 50 105 50.8954 105 52Z" fill="white"/>
<defs>
<linearGradient id="paint0_linear_4684_43892" x1="141.5" y1="10" x2="141.5" y2="303" gradientUnits="userSpaceOnUse">
<stop stop-color="#263C9D"/>
<stop offset="0.682594" stop-color="#08144F"/>
</linearGradient>
<linearGradient id="paint1_linear_4684_43892" x1="168" y1="15" x2="168" y2="372" gradientUnits="userSpaceOnUse">
<stop stop-color="white"/>
<stop offset="0.893557" stop-color="white" stop-opacity="0"/>
</linearGradient>
<clipPath id="clip0_4684_43892">
<rect width="50.7866" height="49.5628" fill="white" transform="matrix(-1 0 0 1 154.462 448.989)"/>
</clipPath>
<clipPath id="clip1_4684_43892">
<rect width="51.9779" height="81.2155" fill="white" transform="translate(1 505.784)"/>
</clipPath>
</defs>
</svg>
