<svg width="250" height="587" viewBox="0 0 250 587" fill="none" xmlns="http://www.w3.org/2000/svg">
<rect x="62" y="2" width="167" height="298" fill="white"/>
<path fill-rule="evenodd" clip-rule="evenodd" d="M52 254.963V185.772C54.9703 184.999 58.0747 184.463 61.2817 184.195C77.9183 182.803 93.0175 188.959 101.527 199.23C103.362 198.846 105.245 198.546 107.187 198.378C126.815 196.734 143.714 207.425 144.941 222.256H144.929C146.157 237.087 131.236 250.441 111.609 252.085C103.684 252.745 96.2114 251.365 90.0263 248.546C83.5433 252.481 75.7255 255.085 67.1927 255.805C61.9205 256.246 56.8026 255.929 52 254.963Z" fill="#E9F7FF"/>
<rect x="53.5" y="7.5" width="179" height="298" stroke="#DCBD84" stroke-width="15"/>
<path d="M36 298H250V319H36V298Z" fill="#DCBD84"/>
<rect x="61" y="151" width="168" height="15" fill="#DCBD84"/>
<g clip-path="url(#clip0_4684_43662)">
<path d="M104.043 482.463V482.483C104.693 484.311 105.582 486.074 106.71 487.758C106.783 487.863 106.849 487.974 106.922 488.079C107.32 488.656 107.745 489.206 108.196 489.731C108.72 490.373 109.277 490.976 109.861 491.546C110.996 492.667 112.243 493.663 113.57 494.515C113.828 494.685 114.094 494.862 114.372 495.019C115.049 495.426 115.746 495.792 116.462 496.133C116.476 496.133 116.495 496.146 116.515 496.153C119.866 497.732 123.554 498.545 127.303 498.551C129.997 498.551 132.717 498.145 135.364 497.293C137.58 496.592 139.742 495.563 141.793 494.226C150.344 488.636 154.491 478.996 153.244 469.815C153.051 468.341 152.706 466.879 152.222 465.444C151.558 463.485 150.63 461.578 149.422 459.782C149.097 459.297 148.759 458.825 148.4 458.373C146.689 456.184 144.652 454.362 142.39 452.921C141.089 452.095 139.729 451.394 138.316 450.824C137.759 450.601 137.188 450.398 136.611 450.214C136.299 450.109 135.981 450.018 135.656 449.932C135.437 449.867 135.211 449.808 134.979 449.762C134.866 449.723 134.76 449.696 134.641 449.67C134.375 449.605 134.11 449.546 133.851 449.506C133.798 449.487 133.738 449.48 133.692 449.474C133.48 449.428 133.274 449.388 133.055 449.356C133.048 449.356 133.028 449.356 133.015 449.356C132.869 449.323 132.73 449.303 132.577 449.284C129.764 448.858 126.858 448.897 123.999 449.434C122.997 449.624 122.009 449.867 121.02 450.168H121.014C120.144 450.437 119.289 450.751 118.446 451.112C117.033 451.721 115.66 452.462 114.333 453.327C113.961 453.563 113.59 453.825 113.238 454.087C109.921 456.499 107.34 459.54 105.562 462.928C102.391 468.95 101.754 476.034 104.036 482.47L104.043 482.463Z" fill="#EF4C3B"/>
<path d="M116.469 496.134C116.469 496.134 116.502 496.147 116.522 496.153C119.872 497.733 123.561 498.545 127.31 498.552C134.408 496.435 140.008 491.186 142.801 484.311C144.466 480.229 145.143 475.576 144.552 470.654C144.446 469.311 142.171 461.591 139.756 459.18C139.504 458.93 139.252 458.734 138.999 458.616C138.966 458.59 138.926 458.583 138.9 458.57C138.522 458.413 138.15 458.419 137.799 458.636C137.513 458.799 137.241 459.075 136.976 459.507C136.976 459.514 136.976 459.527 136.963 459.533C137.036 460.169 137.075 460.811 137.102 461.434C137.487 470.051 134.302 477.994 129.154 484.639C125.671 489.128 121.285 493.021 116.482 496.134H116.469Z" fill="#FDC621"/>
<path d="M136.77 458.74C137.095 458.695 137.434 458.655 137.779 458.629C138.143 458.596 138.508 458.57 138.886 458.563C138.913 458.557 138.933 458.557 138.966 458.557C142.642 458.465 146.795 459.343 149.336 461.624C150.663 462.784 151.578 464.068 152.222 465.438C151.558 463.478 150.629 461.571 149.429 459.776C149.103 459.291 148.765 458.819 148.407 458.367C146.695 456.178 144.658 454.356 142.403 452.908C140.85 454.323 139.404 455.968 138.037 457.43C137.619 457.875 137.201 458.308 136.797 458.708C136.79 458.721 136.783 458.734 136.77 458.734V458.74Z" fill="#FDC621"/>
<path d="M121.033 450.162C126.361 450.876 131.847 453.262 135.49 456.113C136.074 456.571 136.618 457.043 137.095 457.515L136.949 457.082C137.089 456.499 137.069 455.87 136.916 455.215C136.491 453.34 134.985 451.25 133.061 449.356C133.048 449.356 133.035 449.356 133.022 449.356C132.882 449.33 132.736 449.304 132.59 449.284C129.777 448.858 126.872 448.904 124.005 449.441C123.004 449.625 122.009 449.867 121.033 450.169V450.162Z" fill="#FDC621"/>
<path d="M106.922 488.079C107.32 488.656 107.745 489.207 108.196 489.731C108.72 490.373 109.277 490.976 109.861 491.546C110.836 492.496 111.885 493.348 112.986 494.109C112.362 484.423 114.618 477.201 118.008 471.847C123.382 463.347 131.595 459.579 135.629 458.164C136.346 457.915 136.923 457.738 137.334 457.62C136.677 457.436 136.021 457.266 135.357 457.141C135.331 457.141 135.304 457.128 135.278 457.128C129.187 455.916 122.652 456.755 117.312 459.592C112.933 461.919 109.377 465.595 107.552 470.582C105.608 475.923 105.35 482.306 106.915 488.086L106.922 488.079Z" fill="#FDC621"/>
<path d="M136.246 458.963C137.301 459.999 138.767 460.221 139.53 459.468C140.287 458.714 140.048 457.259 138.993 456.224C137.938 455.189 136.465 454.966 135.709 455.719C134.946 456.473 135.191 457.928 136.246 458.963Z" fill="#EF4C3B"/>
<g opacity="0.2">
<path d="M105.562 462.921C106.604 460.936 107.93 459.075 109.509 457.384C107.486 474.055 112.774 490.373 133.38 490.504C138.98 490.504 145.594 488.066 150.829 484.089C148.858 488.053 145.826 491.592 141.793 494.227C139.742 495.563 137.58 496.592 135.364 497.294C132.717 498.145 129.997 498.558 127.303 498.552C123.554 498.552 119.866 497.733 116.515 496.153C116.495 496.147 116.476 496.14 116.462 496.134C115.752 495.786 115.049 495.426 114.372 495.02C114.094 494.856 113.828 494.685 113.57 494.515C112.243 493.663 110.996 492.667 109.861 491.546C109.277 490.976 108.72 490.373 108.196 489.731C107.745 489.207 107.32 488.656 106.922 488.08C106.849 487.975 106.783 487.87 106.71 487.758C105.582 486.074 104.693 484.311 104.043 482.483V482.463C101.76 476.028 102.397 468.944 105.569 462.921H105.562Z" fill="#F25721"/>
</g>
</g>
<path d="M100.32 471.685C101.473 468.645 104.864 467.119 107.904 468.271L122.244 473.7C125.285 474.851 126.811 478.241 125.658 481.281C124.505 484.321 121.114 485.847 118.073 484.695L103.733 479.266C100.693 478.114 99.1671 474.725 100.32 471.685Z" fill="#915000"/>
<path d="M89.3092 493.153L118.72 484.832L122.056 496.62L92.6443 504.941L89.3092 493.153Z" fill="#915000"/>
<path d="M102.065 502.276C109.676 500.123 114.102 492.209 111.949 484.6L108.767 473.352C106.614 465.744 98.699 461.321 91.0878 463.475C83.4766 465.628 79.0512 473.542 81.2037 481.15L84.3859 492.398C86.5384 500.007 94.4539 504.429 102.065 502.276Z" fill="#BF8526"/>
<path d="M101.318 489.951C105.601 488.739 108.094 484.28 106.883 479.998L105.169 473.94C103.958 469.658 99.4976 467.166 95.2144 468.378C90.9311 469.59 88.4376 474.049 89.649 478.33L91.363 484.389C92.5743 488.671 97.0343 491.162 101.318 489.951Z" fill="#DDA860"/>
<path d="M68.5404 454.45C69.3797 457.417 72.4735 459.145 75.4413 458.305C78.409 457.466 80.1387 454.373 79.2994 451.406C78.4601 448.439 75.3663 446.711 72.3985 447.55C69.4308 448.39 67.7011 451.483 68.5404 454.45Z" fill="#9F621A"/>
<path d="M71.3824 453.646C71.7788 455.047 73.2353 455.861 74.6369 455.465C76.0386 455.068 76.8529 453.612 76.4565 452.211C76.0601 450.81 74.6036 449.996 73.2019 450.392C71.8003 450.789 70.986 452.245 71.3824 453.646Z" fill="#DDA860"/>
<path d="M93.6061 447.358C94.4454 450.325 97.5392 452.054 100.507 451.214C103.475 450.374 105.204 447.281 104.365 444.314C103.526 441.348 100.432 439.619 97.4642 440.459C94.4965 441.298 92.7668 444.392 93.6061 447.358Z" fill="#9F621A"/>
<path d="M96.4483 446.555C96.8447 447.956 98.3012 448.77 99.7029 448.373C101.105 447.977 101.919 446.52 101.522 445.119C101.126 443.718 99.6695 442.904 98.2679 443.301C96.8662 443.697 96.0519 445.154 96.4483 446.555Z" fill="#DDA860"/>
<path d="M91.9076 478.353C82.7553 479.288 74.5795 472.629 73.6464 463.479C72.7133 454.33 79.3763 446.156 88.5286 445.221C97.6809 444.286 105.857 450.946 106.79 460.095C107.723 469.244 101.06 477.419 91.9076 478.353Z" fill="#BF8526"/>
<path d="M86.9806 469.346C87.7578 472.093 90.6207 473.693 93.3692 472.915C96.1176 472.138 97.7182 469.275 96.9409 466.528C96.1636 463.78 93.3008 462.181 90.5523 462.959C87.8038 463.736 86.2033 466.598 86.9806 469.346Z" fill="#674F31"/>
<path d="M89.0691 473.108C86.8419 473.738 84.5258 472.444 83.8959 470.218C83.266 467.992 84.5609 465.676 86.7881 465.046C89.0153 464.416 91.3314 465.71 91.9613 467.936C92.5911 470.163 91.2962 472.478 89.0691 473.108Z" fill="#DDA860"/>
<path d="M91.9613 467.936C92.5925 470.167 94.9106 471.456 97.1345 470.827C99.3583 470.197 100.656 467.878 100.027 465.654C99.3978 463.431 97.0774 462.135 94.8535 462.764C92.6297 463.393 91.3324 465.713 91.9613 467.936Z" fill="#DDA860"/>
<path d="M89.6773 459.866C94.1328 458.606 98.7736 461.198 100.034 465.652L83.8872 470.22C82.6272 465.766 85.2217 461.127 89.6773 459.866Z" fill="#DDA860"/>
<path d="M88.8154 460.465L90.7261 459.924L93.8685 471.032L91.9578 471.572L88.8154 460.465Z" fill="#674F31"/>
<path d="M87.6634 459.354L91.1245 458.375C92.7924 457.903 94.2409 459.615 93.4911 461.18L92.3142 463.626C91.787 464.722 90.4245 465.108 89.4091 464.448L87.1249 462.981C85.6665 462.041 85.9955 459.826 87.6712 459.352L87.6634 459.354Z" fill="#2E1D00"/>
<path d="M83.6404 460.923C82.7971 461.162 81.9202 460.672 81.6817 459.829C81.4432 458.986 81.9335 458.109 82.7768 457.87C83.6201 457.632 84.497 458.122 84.7355 458.965C84.974 459.808 84.4837 460.685 83.6404 460.923Z" fill="#2E1D00"/>
<path d="M94.8858 457.742C94.0425 457.981 93.1655 457.491 92.927 456.648C92.6885 455.805 93.1788 454.928 94.0221 454.689C94.8654 454.451 95.7424 454.941 95.9809 455.784C96.2194 456.627 95.7291 457.503 94.8858 457.742Z" fill="#2E1D00"/>
<path d="M71.7989 493.584L76.9203 479.133C78.0073 476.069 81.3683 474.468 84.4247 475.556C87.489 476.642 89.0907 480.001 88.0016 483.057L82.8801 497.508C81.7932 500.572 78.4322 502.174 75.3757 501.086C72.3115 500 70.7098 496.64 71.7989 493.584Z" fill="#BF8526"/>
<path d="M87.3373 486.213C90.7044 485.26 94.2001 487.213 95.1523 490.579L97.0037 497.123C97.9559 500.489 96.0016 503.984 92.6345 504.936C89.2674 505.889 85.7717 503.936 84.8195 500.57L82.9681 494.026C82.0159 490.66 83.9702 487.165 87.3373 486.213Z" fill="#9F621A"/>
<path d="M87.1812 499.563C87.7504 501.575 89.8419 502.75 91.8622 502.178C93.8825 501.607 95.0506 499.518 94.4792 497.498C93.9079 495.479 91.8185 494.312 89.7983 494.883C87.778 495.455 86.6099 497.544 87.1812 499.563Z" fill="#DDA860"/>
<path d="M89.083 492.38C88.2441 492.618 87.3716 492.13 87.1343 491.292C86.897 490.453 87.3848 489.581 88.2238 489.343C89.0628 489.106 89.9353 489.593 90.1725 490.432C90.4098 491.271 89.922 492.143 89.083 492.38Z" fill="#DDA860"/>
<path d="M86.086 495.688C85.247 495.926 84.3745 495.438 84.1372 494.6C83.9 493.761 84.3878 492.889 85.2267 492.651C86.0657 492.414 86.9382 492.901 87.1755 493.74C87.4127 494.579 86.9249 495.451 86.086 495.688Z" fill="#DDA860"/>
<path d="M93.2432 493.663C92.4042 493.901 91.5317 493.413 91.2945 492.575C91.0572 491.736 91.545 490.864 92.384 490.626C93.2229 490.389 94.0954 490.876 94.3327 491.715C94.57 492.554 94.0822 493.426 93.2432 493.663Z" fill="#DDA860"/>
<path d="M115.248 487.32L118.567 481.385C120.274 478.332 124.134 477.24 127.188 478.946C130.242 480.652 131.333 484.511 129.626 487.564L126.307 493.499C124.6 496.552 120.74 497.645 117.686 495.938C114.632 494.232 113.54 490.373 115.248 487.32Z" fill="#9F621A"/>
<path d="M117.63 488.269C116.608 490.097 117.261 492.406 119.087 493.419C120.915 494.441 123.225 493.787 124.239 491.962C125.262 490.134 124.608 487.825 122.782 486.811C120.954 485.79 118.644 486.443 117.63 488.269Z" fill="#DDA860"/>
<path d="M123.448 482.378C123.022 483.142 123.294 484.104 124.057 484.531C124.821 484.958 125.784 484.685 126.211 483.922C126.638 483.159 126.365 482.196 125.602 481.769C124.838 481.343 123.875 481.615 123.448 482.378Z" fill="#DDA860"/>
<path d="M118.987 482.601C118.56 483.364 118.832 484.327 119.596 484.754C120.359 485.18 121.322 484.908 121.749 484.144C122.176 483.381 121.904 482.418 121.14 481.992C120.377 481.565 119.414 481.838 118.987 482.601Z" fill="#DDA860"/>
<path d="M127.291 488.52C126.452 488.758 125.58 488.27 125.343 487.432C125.105 486.593 125.593 485.721 126.432 485.483C127.271 485.246 128.144 485.733 128.381 486.572C128.618 487.411 128.13 488.283 127.291 488.52Z" fill="#DDA860"/>
<path d="M75.4794 503.959L57.7659 492.633C57.3633 492.376 57.2454 491.84 57.5026 491.437L58.6927 489.572C58.95 489.169 59.4849 489.051 59.8875 489.309L77.601 500.634C78.0037 500.892 78.1216 501.427 77.8644 501.83L76.6742 503.695C76.417 504.098 75.8821 504.216 75.4794 503.959Z" fill="#E29C74"/>
<path d="M21.775 469.62L65.2001 497.385C66.4747 498.2 68.1739 497.825 68.988 496.55L76.7086 484.452C77.5227 483.177 77.1482 481.476 75.8737 480.661L42.4988 459.322C35.6754 454.959 26.595 456.962 22.2363 463.792L20.9374 465.827C20.1233 467.103 20.4978 468.804 21.7723 469.618L21.775 469.62Z" fill="#E29C74"/>
<path d="M63.9858 485.79L61.2694 484.053C60.9398 483.843 60.8433 483.404 61.0538 483.075L77.5109 457.288C77.7214 456.958 78.1592 456.861 78.4888 457.072L81.2052 458.809C81.5348 459.02 81.6313 459.458 81.4208 459.788L64.9637 485.575C64.7532 485.904 64.3154 486.001 63.9858 485.79Z" fill="#E29C74"/>
<path d="M29.7428 479.973C27.0987 478.282 26.2604 474.867 27.8703 472.344C29.4802 469.822 32.9288 469.147 35.5728 470.838C38.2169 472.528 39.0552 475.944 37.4453 478.466C35.8354 480.989 32.3868 481.663 29.7428 479.973Z" fill="#FDC621" stroke="#273849" stroke-width="4" stroke-miterlimit="10"/>
<path d="M56.6834 497.199C54.0394 495.508 53.201 492.093 54.811 489.57C56.4209 487.047 59.8695 486.373 62.5135 488.063C65.1576 489.754 65.9959 493.17 64.386 495.692C62.776 498.215 59.3275 498.889 56.6834 497.199Z" fill="#FDC621" stroke="#273849" stroke-width="4" stroke-miterlimit="10"/>
<path d="M75.6952 480.547L61.1005 471.216C60.5412 470.858 60.3775 470.115 60.7347 469.555L65.0624 462.774C65.4197 462.214 66.1626 462.05 66.7219 462.408L81.3166 471.739C81.8758 472.097 82.0396 472.84 81.6824 473.4L77.3546 480.181C76.9974 480.741 76.2545 480.905 75.6952 480.547Z" fill="#FDC621"/>
<path d="M56.6391 468.365L42.0443 459.033C41.4851 458.676 41.3213 457.932 41.6786 457.372L46.0063 450.591C46.3635 450.032 47.1065 449.868 47.6657 450.225L62.2605 459.557C62.8197 459.914 62.9834 460.658 62.6262 461.218L58.2985 467.999C57.9413 468.559 57.1983 468.723 56.6391 468.365Z" fill="#EF4C3B"/>
<path d="M62.7299 459.397L54.9694 454.435C54.5519 454.168 54.4296 453.613 54.6963 453.195L59.3518 445.9C59.6185 445.482 60.1733 445.36 60.5908 445.627L68.3513 450.589C68.7688 450.856 68.8911 451.411 68.6244 451.829L63.9689 459.124C63.7022 459.542 63.1475 459.664 62.7299 459.397Z" fill="#D8D803"/>
<path d="M164.952 447.839L168.153 441.896C168.583 441.098 169.578 440.8 170.375 441.23L189.923 451.779C190.721 452.209 191.019 453.205 190.589 454.003L187.388 459.946C186.958 460.744 185.963 461.042 185.166 460.612L165.618 450.063C164.82 449.633 164.522 448.637 164.952 447.839Z" fill="#FFBC27"/>
<path d="M118.999 533.157L122.2 527.214C122.629 526.416 123.625 526.118 124.422 526.548L143.97 537.096C144.768 537.527 145.066 538.523 144.636 539.321L141.435 545.263C141.005 546.062 140.01 546.36 139.212 545.93L119.664 535.381C118.867 534.951 118.569 533.955 118.999 533.157Z" fill="#FFBC27"/>
<path d="M126.853 545.461C119.317 541.395 125.633 515.031 140.959 486.576C156.286 458.121 174.819 438.35 182.355 442.417C189.891 446.483 183.575 472.847 168.249 501.302C152.923 529.757 134.389 549.528 126.853 545.461Z" fill="#267BBB"/>
<g style="mix-blend-mode:overlay" opacity="0.2">
<path d="M141.796 517.72C137.433 515.366 139.631 502.81 146.705 489.677C153.779 476.543 163.05 467.804 167.413 470.159C171.776 472.513 169.579 485.069 162.504 498.202C155.43 511.336 146.159 520.075 141.796 517.72Z" fill="white"/>
</g>
<g style="mix-blend-mode:overlay" opacity="0.3">
<path d="M176.997 448.802C176.468 448.802 176.039 448.373 176.039 447.843C176.039 447.313 176.468 446.884 176.997 446.884C177.526 446.884 177.955 447.313 177.955 447.843C177.955 448.373 177.526 448.802 176.997 448.802Z" fill="black"/>
</g>
<g style="mix-blend-mode:overlay" opacity="0.3">
<path d="M180.768 450.835C180.239 450.835 179.81 450.406 179.81 449.876C179.81 449.347 180.239 448.917 180.768 448.917C181.297 448.917 181.726 449.347 181.726 449.876C181.726 450.406 181.297 450.835 180.768 450.835Z" fill="black"/>
</g>
<g style="mix-blend-mode:overlay" opacity="0.3">
<path d="M175.051 452.417C174.522 452.417 174.093 451.987 174.093 451.458C174.093 450.928 174.522 450.499 175.051 450.499C175.58 450.499 176.009 450.928 176.009 451.458C176.009 451.987 175.58 452.417 175.051 452.417Z" fill="black"/>
</g>
<g style="mix-blend-mode:overlay" opacity="0.3">
<path d="M178.82 454.45C178.291 454.45 177.862 454.021 177.862 453.491C177.862 452.961 178.291 452.532 178.82 452.532C179.349 452.532 179.778 452.961 179.778 453.491C179.778 454.021 179.349 454.45 178.82 454.45Z" fill="black"/>
</g>
<g style="mix-blend-mode:overlay" opacity="0.3">
<path d="M130.383 535.345C129.853 535.345 129.425 534.916 129.425 534.386C129.425 533.857 129.853 533.427 130.383 533.427C130.912 533.427 131.341 533.857 131.341 534.386C131.341 534.916 130.912 535.345 130.383 535.345Z" fill="black"/>
</g>
<g style="mix-blend-mode:overlay" opacity="0.3">
<path d="M134.154 537.382C133.624 537.382 133.195 536.953 133.195 536.423C133.195 535.894 133.624 535.464 134.154 535.464C134.683 535.464 135.112 535.894 135.112 536.423C135.112 536.953 134.683 537.382 134.154 537.382Z" fill="black"/>
</g>
<g style="mix-blend-mode:overlay" opacity="0.3">
<path d="M128.438 538.963C127.909 538.963 127.48 538.534 127.48 538.004C127.48 537.474 127.909 537.045 128.438 537.045C128.967 537.045 129.396 537.474 129.396 538.004C129.396 538.534 128.967 538.963 128.438 538.963Z" fill="black"/>
</g>
<g style="mix-blend-mode:overlay" opacity="0.3">
<path d="M132.209 540.996C131.68 540.996 131.251 540.567 131.251 540.038C131.251 539.508 131.68 539.079 132.209 539.079C132.738 539.079 133.167 539.508 133.167 540.038C133.167 540.567 132.738 540.996 132.209 540.996Z" fill="black"/>
</g>
<path d="M42.0962 490.744H176.881C179.688 490.744 181.963 493.022 181.963 495.831V561.926C181.963 564.735 179.688 567.012 176.881 567.012H42.0962C39.2896 567.012 37.0145 564.735 37.0145 561.926V495.831C37.0145 493.022 39.2896 490.744 42.0962 490.744Z" fill="#FFBC27"/>
<path opacity="0.1" d="M181.963 498.807C181.905 498.81 181.848 498.817 181.79 498.817H37.1875C37.1298 498.817 37.0721 498.81 37.0145 498.807V493.483H181.963V498.807Z" fill="black"/>
<g style="mix-blend-mode:overlay" opacity="0.6">
<path d="M160.534 487.207H167.519C169.802 487.207 171.652 489.059 171.652 491.344V552.93C171.652 555.215 169.802 557.067 167.519 557.067H160.534C158.251 557.067 156.401 555.215 156.401 552.93V491.344C156.401 489.059 158.251 487.207 160.534 487.207Z" fill="black"/>
</g>
<g style="mix-blend-mode:overlay" opacity="0.6">
<path d="M138.717 487.207H145.702C147.985 487.207 149.835 489.059 149.835 491.344V552.93C149.835 555.215 147.985 557.067 145.702 557.067H138.717C136.434 557.067 134.584 555.215 134.584 552.93V491.344C134.584 489.059 136.434 487.207 138.717 487.207Z" fill="black"/>
</g>
<g style="mix-blend-mode:overlay" opacity="0.6">
<path d="M116.903 487.207H123.888C126.171 487.207 128.021 489.059 128.021 491.344V552.93C128.021 555.215 126.171 557.067 123.888 557.067H116.903C114.62 557.067 112.77 555.215 112.77 552.93V491.344C112.77 489.059 114.62 487.207 116.903 487.207Z" fill="black"/>
</g>
<g style="mix-blend-mode:overlay" opacity="0.6">
<path d="M95.0858 487.207H102.071C104.354 487.207 106.204 489.059 106.204 491.344V552.93C106.204 555.215 104.354 557.067 102.071 557.067H95.0858C92.803 557.067 90.9525 555.215 90.9525 552.93V491.344C90.9525 489.059 92.803 487.207 95.0858 487.207Z" fill="black"/>
</g>
<g style="mix-blend-mode:overlay" opacity="0.6">
<path d="M73.2728 487.207H80.2578C82.5406 487.207 84.3911 489.059 84.3911 491.344V552.93C84.3911 555.215 82.5406 557.067 80.2578 557.067H73.2728C70.99 557.067 69.1395 555.215 69.1395 552.93V491.344C69.1395 489.059 70.99 487.207 73.2728 487.207Z" fill="black"/>
</g>
<g style="mix-blend-mode:overlay" opacity="0.6">
<path d="M51.4556 487.207H58.4406C60.7234 487.207 62.574 489.059 62.574 491.344V552.93C62.574 555.215 60.7234 557.067 58.4406 557.067H51.4556C49.1729 557.067 47.3223 555.215 47.3223 552.93V491.344C47.3223 489.059 49.1729 487.207 51.4556 487.207Z" fill="black"/>
</g>
<path d="M35.4697 483.326H183.504C185.627 483.326 187.349 485.049 187.349 487.175V492.229C187.349 494.355 185.627 496.078 183.504 496.078H35.4697C33.3461 496.078 31.6247 494.355 31.6247 492.229V487.175C31.6247 485.049 33.3461 483.326 35.4697 483.326Z" fill="#FFBC27"/>
<path d="M156.297 577.811C147.55 577.811 140.459 571.045 140.459 562.699C140.459 554.353 147.55 547.587 156.297 547.587C165.045 547.587 172.135 554.353 172.135 562.699C172.135 571.045 165.045 577.811 156.297 577.811Z" fill="#99BC2E" stroke="#273849" stroke-width="8" stroke-miterlimit="10"/>
<path d="M62.7696 577.811C54.0225 577.811 46.9316 571.045 46.9316 562.699C46.9316 554.353 54.0225 547.587 62.7696 547.587C71.5167 547.587 78.6077 554.353 78.6077 562.699C78.6077 571.045 71.5167 577.811 62.7696 577.811Z" fill="#99BC2E" stroke="#273849" stroke-width="8" stroke-miterlimit="10"/>
<g clip-path="url(#clip1_4684_43662)">
<path d="M36.5743 530.778L28.6978 559.571L32.4804 560.578L40.3569 531.784L36.5743 530.778Z" fill="#267BBB"/>
<g style="mix-blend-mode:overlay" opacity="0.3">
<path d="M36.5769 530.782L38.4672 531.288L30.5897 560.08L28.6995 559.575L36.5769 530.782Z" fill="black"/>
</g>
<path d="M28.0041 569.53C31.2059 570.384 34.5034 568.511 35.3694 565.353C36.2355 562.195 34.3369 558.942 31.1351 558.088C27.9333 557.234 24.6358 559.107 23.7698 562.265C22.9037 565.423 24.8023 568.675 28.0041 569.53ZM30.3357 561.008C31.9012 561.427 32.8297 563.016 32.4092 564.56C31.9845 566.105 30.3732 567.02 28.8077 566.602C27.2422 566.183 26.3137 564.593 26.7342 563.049C27.1589 561.505 28.7702 560.589 30.3357 561.004V561.008Z" fill="#267BBB"/>
<path d="M37.3181 533.513L38.3257 533.78C43.1138 535.053 48.0435 532.261 49.3342 527.538L51.9114 518.121C52.1862 517.123 51.5867 516.092 50.5708 515.821C49.559 515.55 48.514 516.142 48.2392 517.144L45.3497 527.702C45.0749 528.7 44.034 529.292 43.0181 529.025C42.0063 528.754 41.4068 527.727 41.6774 526.725L44.5669 516.166C44.8417 515.168 44.2421 514.138 43.2262 513.867C42.2145 513.595 41.1694 514.187 40.8946 515.189L38.0051 525.747C37.7303 526.745 36.6894 527.337 35.6735 527.07C34.6618 526.799 34.0622 525.772 34.3329 524.77L37.2224 514.211C37.4972 513.214 36.8976 512.183 35.8817 511.912C34.87 511.641 33.8249 512.232 33.5501 513.234L30.9729 522.651C29.6822 527.374 32.5134 532.236 37.3015 533.509L37.3181 533.513Z" fill="#267BBB"/>
<g style="mix-blend-mode:overlay" opacity="0.4">
<path d="M37.8218 533.649L38.3256 533.784C43.1137 535.058 48.0433 532.265 49.334 527.542L51.9113 518.125C52.1861 517.127 51.5865 516.097 50.5706 515.826C50.5456 515.817 50.5248 515.817 50.4998 515.813L47.4063 527.123C46.4112 530.758 42.6182 532.91 38.9335 531.928L38.3381 531.768L37.8259 533.645L37.8218 533.649Z" fill="white"/>
</g>
<g style="mix-blend-mode:overlay" opacity="0.3">
<path d="M30.9894 522.655L33.5667 513.238C33.8415 512.24 34.8824 511.649 35.8983 511.916C35.9233 511.924 35.9441 511.932 35.9649 511.941L32.8714 523.251C31.8763 526.885 34.058 530.626 37.7427 531.608L38.3381 531.768L37.826 533.645L37.3222 533.509C32.5341 532.236 29.6987 527.374 30.9936 522.651L30.9894 522.655Z" fill="black"/>
</g>
<path d="M16.6365 528.504L12.7947 529.531L20.8248 558.764L24.6667 557.738L16.6365 528.504Z" fill="#E03445"/>
<g style="mix-blend-mode:overlay" opacity="0.6">
<path d="M14.7154 529.016L12.7944 529.529L20.8246 558.762L22.7455 558.249L14.7154 529.016Z" fill="black"/>
</g>
<path d="M14.6392 531.612L15.6634 531.336C20.5223 530.039 23.3951 525.098 22.0794 520.302L18.7403 508.15C18.2698 506.441 16.4878 505.431 14.7557 505.895L2.40245 509.197C0.670408 509.661 -0.353828 511.419 0.112491 513.131L3.45167 525.283C4.76735 530.076 9.77612 532.913 14.6392 531.612Z" fill="#E03445"/>
<path d="M25.377 567.846C28.6287 566.975 30.5523 563.674 29.6696 560.462C28.7869 557.255 25.4394 555.357 22.1835 556.228C18.9318 557.099 17.0082 560.401 17.8909 563.612C18.7736 566.819 22.1211 568.717 25.377 567.846ZM22.9996 559.197C24.5901 558.774 26.2305 559.698 26.6593 561.267C27.0882 562.836 26.1514 564.454 24.5609 564.877C22.9704 565.304 21.33 564.376 20.9011 562.807C20.4723 561.238 21.4091 559.62 22.9996 559.197Z" fill="#E03445"/>
<g style="mix-blend-mode:overlay" opacity="0.6">
<path d="M14.639 531.612L15.6632 531.337C20.5221 530.039 23.3949 525.098 22.0793 520.302L18.7401 508.15C18.2779 506.462 16.5292 505.46 14.818 505.879L19.0066 521.123C19.8643 524.244 17.9948 527.46 14.8305 528.306L13.8063 528.581C10.642 529.427 7.38189 527.583 6.5242 524.462L2.33566 509.218C0.645253 509.706 -0.349839 511.443 0.112317 513.131L3.45149 525.283C4.76718 530.076 9.77594 532.91 14.639 531.612Z" fill="white"/>
</g>
<g style="mix-blend-mode:overlay" opacity="0.6">
<path d="M14.8306 528.31C17.995 527.464 19.8644 524.249 19.0067 521.127L14.8182 505.883C14.7973 505.887 14.7765 505.891 14.7515 505.895L8.47705 507.571L14.2186 528.47L14.8306 528.306V528.31Z" fill="black"/>
</g>
<path d="M31.8583 543.31C32.99 540.615 31.6926 537.526 28.9606 536.41C26.2285 535.293 23.0964 536.573 21.9648 539.268C20.8331 541.963 22.1305 545.052 24.8625 546.168C27.5946 547.284 30.7267 546.005 31.8583 543.31Z" fill="#99BC2E"/>
<path d="M48.4014 540.881H5.42513C3.51405 540.881 1.96521 542.409 1.96521 544.294C1.96521 546.179 3.51405 547.706 5.42513 547.706H48.4014C50.3125 547.706 51.8613 546.179 51.8613 544.294C51.8613 542.409 50.3125 540.881 48.4014 540.881Z" fill="#99BC2E"/>
<path d="M5.42513 540.881H48.4014C50.3125 540.881 51.8613 542.409 51.8613 544.294C51.8613 546.179 50.3125 547.706 48.4014 547.706H5.42513C3.51405 547.706 1.96521 546.179 1.96521 544.294C1.96521 542.409 3.51405 540.881 5.42513 540.881Z" fill="#99BC2E"/>
<g style="mix-blend-mode:overlay" opacity="0.4">
<path d="M51.8531 544.064C51.7323 542.285 50.2376 540.881 48.4057 540.881H5.42521C3.59325 540.881 2.09853 542.285 1.97778 544.064H51.8531Z" fill="white"/>
</g>
<path d="M5.42517 547.71V553.743C5.42517 555.119 5.97892 556.433 6.96152 557.407L8.55617 558.979H45.2621L46.8568 557.407C47.8435 556.433 48.3931 555.119 48.3931 553.743V547.71H5.42517Z" fill="#99BC2E"/>
<g style="mix-blend-mode:overlay" opacity="0.3">
<path d="M48.4015 547.71H5.42517V553.6H48.4015V547.71Z" fill="black"/>
</g>
<g style="mix-blend-mode:overlay" opacity="0.3">
<path d="M48.4015 547.71H5.42517V549.604H48.4015V547.71Z" fill="black"/>
</g>
<path d="M8.5603 558.984V583.702C8.5603 584.577 8.91421 585.415 9.53874 586.035C10.1674 586.655 11.0168 587 11.9036 587H41.9229C42.8098 587 43.6591 586.651 44.2878 586.035C44.9165 585.415 45.2663 584.577 45.2663 583.702V558.984H8.5603Z" fill="#99BC2E"/>
<g style="mix-blend-mode:overlay" opacity="0.3">
<path d="M8.89331 585.127C9.05569 585.46 9.27219 585.768 9.53866 586.035C10.1674 586.655 11.0167 587 11.9036 587H41.9228C42.8097 587 43.659 586.651 44.2877 586.035C44.5584 585.768 44.7707 585.46 44.9331 585.127H8.89331Z" fill="black"/>
</g>
<g style="mix-blend-mode:overlay" opacity="0.3">
<path d="M45.2663 558.984H8.5603V561.653H45.2663V558.984Z" fill="black"/>
</g>
<path d="M47.6145 562.848C47.0982 562.848 46.5819 562.655 46.1864 562.269L25.6476 542.088C24.8606 541.316 24.8606 540.06 25.6476 539.288C26.4345 538.515 27.7127 538.515 28.4996 539.288L49.0384 559.468C49.8254 560.24 49.8254 561.497 49.0384 562.269C48.6429 562.655 48.1266 562.848 47.6103 562.848H47.6145Z" fill="#405977"/>
<g style="mix-blend-mode:overlay" opacity="0.3">
<path d="M25.6519 542.084L45.2664 567.292V561.361L25.6519 542.084Z" fill="black"/>
</g>
</g>
<defs>
<clipPath id="clip0_4684_43662">
<rect width="50.7866" height="49.5628" fill="white" transform="matrix(-1 0 0 1 153.462 448.989)"/>
</clipPath>
<clipPath id="clip1_4684_43662">
<rect width="51.9779" height="81.2155" fill="white" transform="translate(0 505.784)"/>
</clipPath>
</defs>
</svg>
