<svg width="243" height="166" viewBox="0 0 243 166" fill="none" xmlns="http://www.w3.org/2000/svg">
<g clip-path="url(#clip0_4684_43779)">
<path d="M239.88 80.1028H3.12V162.904H239.88V80.1028Z" fill="#874C25" stroke="#AD6432" stroke-width="8.72" stroke-miterlimit="10"/>
<g style="mix-blend-mode:multiply" opacity="0.4">
<path d="M235 85H5.99988V107H235V85Z" fill="#231F20"/>
</g>
<path d="M82.3859 88.2441H11.6927V158.698H82.3859V88.2441Z" fill="#FBB624"/>
<path d="M36.2876 98.855H54.3491V94.0015H36.2876V98.855Z" fill="#3F301D"/>
<path opacity="0.2" d="M11.7 158.706H82.4146V153.852H11.7V158.706Z" fill="#3F301D"/>
<path d="M156.986 88.2441H86.293V158.698H156.986V88.2441Z" fill="#009CAE"/>
<path d="M110.888 98.855H128.949V94.0015H110.888V98.855Z" fill="#3F301D"/>
<path opacity="0.2" d="M86.3002 158.706H157.015V153.852H86.3002V158.706Z" fill="#3F301D"/>
<path d="M231.586 88.2441H160.893V158.698H231.586V88.2441Z" fill="#9ACB5B"/>
<path d="M185.488 98.855H203.55V94.0015H185.488V98.855Z" fill="#3F301D"/>
<path opacity="0.2" d="M160.9 158.706H231.615V153.852H160.9V158.706Z" fill="#3F301D"/>
</g>
<g clip-path="url(#clip1_4684_43779)">
<path d="M102.588 7.94763C107.002 7.94763 110.574 11.5259 110.574 15.9471C110.574 20.3682 107.002 23.9465 102.588 23.9465C98.1736 23.9465 94.601 20.3682 94.601 15.9471C94.601 11.5259 98.1736 7.94763 102.588 7.94763ZM102.588 20.5086C105.105 20.5086 107.142 18.4681 107.142 15.9471C107.142 13.426 105.105 11.3855 102.588 11.3855C100.071 11.3855 98.0333 13.426 98.0333 15.9471C98.0333 18.4681 100.071 20.5086 102.588 20.5086Z" fill="#FF5710"/>
<path d="M64.4044 69.836H166V64.0693L156.596 48.1074H64.4044V69.836Z" fill="#FF871A"/>
<path d="M135.493 40.7365H156.596V48.1075H135.493V40.7365Z" fill="#E03445"/>
<path d="M114.39 40.7365H135.493V48.1075H114.39V40.7365Z" fill="#99BC2E"/>
<path d="M93.2872 40.7365H114.39V48.1075H93.2872V40.7365Z" fill="#8158A5"/>
<path d="M114.398 27.7096H156.596V40.7364H114.398V27.7096Z" fill="#267BBB"/>
<g style="mix-blend-mode:overlay" opacity="0.4">
<path d="M114.398 27.7096H156.596V34.223H114.398V27.7096Z" fill="white"/>
</g>
<path d="M93.2872 27.7096H114.39V40.7364H93.2872V27.7096Z" fill="#FFBC27"/>
<path d="M70.1248 27.7096V32.3821C70.1248 34.9623 72.2137 37.0546 74.7898 37.0546H82.9018C85.4779 37.0546 87.5668 34.9623 87.5668 32.3821V27.7096H93.2872V48.1074H64.4044V27.7096H70.1248Z" fill="#267BBB"/>
<path d="M84.7102 0H115.992C117.365 0 118.479 1.11637 118.479 2.4915C118.479 3.86663 117.365 4.98301 115.992 4.98301H84.7102C83.3373 4.98301 82.2228 3.86663 82.2228 2.4915C82.2228 1.11637 83.3373 0 84.7102 0Z" fill="#99BC2E"/>
<g style="mix-blend-mode:overlay" opacity="0.4">
<path d="M82.2375 2.25492C82.3556 0.990686 83.4185 0 84.7176 0H115.999C117.291 0 118.354 0.990686 118.479 2.25492H82.2449H82.2375Z" fill="white"/>
</g>
<path d="M143.613 15.1855H154.493C155.866 15.1855 156.98 16.3019 156.98 17.677C156.98 19.0522 155.866 20.1686 154.493 20.1686H143.613C142.24 20.1686 141.125 19.0522 141.125 17.677C141.125 16.3019 142.24 15.1855 143.613 15.1855Z" fill="#E03445"/>
<g style="mix-blend-mode:overlay" opacity="0.6">
<path d="M141.118 17.6993V17.6845C141.118 16.3094 142.232 15.193 143.605 15.193H154.485C155.858 15.193 156.973 16.3094 156.973 17.6845V17.6993H141.118Z" fill="white"/>
</g>
<path d="M145.281 20.176H152.81V27.7171H145.281V20.176Z" fill="#9AAEC1"/>
<g style="mix-blend-mode:overlay" opacity="0.4">
<path d="M145.288 20.176H147.532V27.7171H145.288V20.176Z" fill="black"/>
</g>
<g style="mix-blend-mode:overlay" opacity="0.4">
<path d="M145.281 20.176H152.81V22.0613H145.281V20.176Z" fill="black"/>
</g>
<g style="mix-blend-mode:overlay" opacity="0.4">
<path d="M64.4044 64.0693H166V69.836H64.4044V64.0693Z" fill="black"/>
</g>
<path d="M147.813 77C141.009 77 135.493 71.4755 135.493 64.6608C135.493 57.846 141.009 52.3215 147.813 52.3215C154.616 52.3215 160.132 57.846 160.132 64.6608C160.132 71.4755 154.616 77 147.813 77Z" fill="#E03445"/>
<path d="M147.813 74.2646C142.517 74.2646 138.224 69.9649 138.224 64.6609C138.224 59.3569 142.517 55.0571 147.813 55.0571C153.108 55.0571 157.401 59.3569 157.401 64.6609C157.401 69.9649 153.108 74.2646 147.813 74.2646Z" fill="#9AAEC1"/>
<path d="M147.813 61.8145C149.385 61.8145 150.654 63.0861 150.654 64.6608C150.654 66.2356 149.385 67.5072 147.813 67.5072C146.24 67.5072 144.971 66.2356 144.971 64.6608C144.971 63.0861 146.24 61.8145 147.813 61.8145Z" fill="#405977"/>
<path d="M114.638 76.9703C107.851 76.4973 102.732 70.6027 103.204 63.8043C103.676 57.006 109.561 51.8783 116.348 52.3513C123.136 52.8243 128.255 58.7189 127.783 65.5172C127.311 72.3156 121.426 77.4433 114.638 76.9703Z" fill="#E03445"/>
<path d="M113.962 74.1386C108.735 73.2887 105.185 68.3556 106.033 63.1201C106.882 57.8847 111.807 54.3294 117.034 55.1793C122.261 56.0291 125.811 60.9622 124.962 66.1977C124.114 71.4332 119.189 74.9884 113.962 74.1386Z" fill="#9AAEC1"/>
<path d="M115.497 61.8145C117.07 61.8145 118.339 63.0861 118.339 64.6608C118.339 66.2356 117.07 67.5072 115.497 67.5072C113.925 67.5072 112.656 66.2356 112.656 64.6608C112.656 63.0861 113.925 61.8145 115.497 61.8145Z" fill="#405977"/>
<path d="M83.1823 77C76.3785 77 70.8629 71.4755 70.8629 64.6608C70.8629 57.846 76.3785 52.3215 83.1823 52.3215C89.986 52.3215 95.5016 57.846 95.5016 64.6608C95.5016 71.4755 89.986 77 83.1823 77Z" fill="#E03445"/>
<path d="M74.3242 68.3361C72.2977 63.4358 74.6209 57.8179 79.5133 55.7882C84.4056 53.7584 90.0145 56.0854 92.0409 60.9857C94.0674 65.886 91.7442 71.5038 86.8518 73.5336C81.9595 75.5633 76.3506 73.2363 74.3242 68.3361Z" fill="#9AAEC1"/>
<path d="M83.1823 61.8145C84.7545 61.8145 86.024 63.0861 86.024 64.6608C86.024 66.2356 84.7545 67.5072 83.1823 67.5072C81.6101 67.5072 80.3405 66.2356 80.3405 64.6608C80.3405 63.0861 81.6101 61.8145 83.1823 61.8145Z" fill="#405977"/>
<g style="mix-blend-mode:overlay" opacity="0.4">
<path d="M166 69.836H163.18V64.0693L154.655 50.2514H64.4044V48.1074H156.596L166 64.0693V69.836Z" fill="white"/>
</g>
<path d="M114.39 4.99036V27.717H93.2872L86.312 4.99036H114.383H114.39ZM102.588 22.5418C106.227 22.5418 109.172 19.5919 109.172 15.9471C109.172 12.3022 106.227 9.35233 102.588 9.35233C98.9487 9.35233 96.0035 12.3022 96.0035 15.9471C96.0035 19.5919 98.9487 22.5418 102.588 22.5418Z" fill="#FF871A"/>
<g style="mix-blend-mode:overlay" opacity="0.4">
<path d="M87.1313 7.6519L86.3193 4.99036H114.39V7.6519H87.1313Z" fill="black"/>
</g>
<path d="M54.5209 57.0161H64.4044V64.0766H54.5209C52.5723 64.0766 51.0001 62.4945 51.0001 60.5501C51.0001 58.5983 52.5796 57.0235 54.5209 57.0235V57.0161Z" fill="#405977"/>
<g style="mix-blend-mode:overlay" opacity="0.4">
<path d="M64.4044 60.8901V64.0692H54.5209C52.6904 64.0692 51.192 62.6719 51.0148 60.8901H64.4044Z" fill="black"/>
</g>
<g style="mix-blend-mode:overlay" opacity="0.4">
<path d="M93.2946 40.7365H156.596V41.9341H93.2946V40.7365Z" fill="white"/>
</g>
<g style="mix-blend-mode:overlay" opacity="0.4">
<path d="M64.4044 27.7096H65.7551V69.8286H64.4044V27.7096Z" fill="black"/>
</g>
<g style="mix-blend-mode:overlay" opacity="0.4">
<path d="M134.334 40.7365H135.493V48.1075H134.334V40.7365Z" fill="white"/>
</g>
<g style="mix-blend-mode:overlay" opacity="0.4">
<path d="M113.231 4.99036H114.39V48.1074H113.231V4.99036Z" fill="white"/>
</g>
<g style="mix-blend-mode:overlay" opacity="0.4">
<path d="M92.1284 27.7096H93.2872V48.1074H92.1284V27.7096Z" fill="white"/>
</g>
</g>
<defs>
<clipPath id="clip0_4684_43779">
<rect width="243" height="89" fill="white" transform="translate(0 77)"/>
</clipPath>
<clipPath id="clip1_4684_43779">
<rect width="115" height="77" fill="white" transform="matrix(-1 0 0 1 166 0)"/>
</clipPath>
</defs>
</svg>
