<svg width="243" height="166" viewBox="0 0 243 166" fill="none" xmlns="http://www.w3.org/2000/svg">
<g clip-path="url(#clip0_4684_43838)">
<path d="M239.88 80.1028H3.11987V162.904H239.88V80.1028Z" fill="#253684" stroke="#253684" stroke-width="8.72" stroke-miterlimit="10"/>
<g style="mix-blend-mode:multiply" opacity="0.2">
<path d="M235 85H5.99976V107H235V85Z" fill="#231F20" fill-opacity="0.5"/>
</g>
<path d="M82.3857 88.2441H11.6926V158.698H82.3857V88.2441Z" fill="#30428F"/>
<path d="M36.2874 98.855H54.3489V94.0015H36.2874V98.855Z" fill="#3F301D"/>
<path opacity="0.2" d="M11.6997 158.706H82.4143V153.852H11.6997V158.706Z" fill="#172357"/>
<path d="M156.986 88.2441H86.293V158.698H156.986V88.2441Z" fill="#30428F"/>
<path d="M110.888 98.855H128.949V94.0015H110.888V98.855Z" fill="#222F6A"/>
<path opacity="0.2" d="M86.3 158.706H157.015V153.852H86.3V158.706Z" fill="#172357"/>
<path d="M231.586 88.2441H160.893V158.698H231.586V88.2441Z" fill="#30428F"/>
<path d="M185.488 98.855H203.549V94.0015H185.488V98.855Z" fill="#222F6A"/>
<path opacity="0.2" d="M160.9 158.706H231.615V153.852H160.9V158.706Z" fill="#172357"/>
</g>
<g clip-path="url(#clip1_4684_43838)">
<path d="M102.588 7.94763C107.002 7.94763 110.574 11.5259 110.574 15.9471C110.574 20.3682 107.002 23.9465 102.588 23.9465C98.1737 23.9465 94.6012 20.3682 94.6012 15.9471C94.6012 11.5259 98.1737 7.94763 102.588 7.94763ZM102.588 20.5086C105.105 20.5086 107.142 18.4681 107.142 15.9471C107.142 13.426 105.105 11.3855 102.588 11.3855C100.071 11.3855 98.0335 13.426 98.0335 15.9471C98.0335 18.4681 100.071 20.5086 102.588 20.5086Z" fill="#1F3181"/>
<path d="M64.4044 69.836H166V64.0693L156.596 48.1074H64.4044V69.836Z" fill="#253684"/>
<path d="M135.493 40.7363H156.596V48.1073H135.493V40.7363Z" fill="#1F3181"/>
<path d="M114.39 40.7363H135.493V48.1073H114.39V40.7363Z" fill="#1F3181"/>
<path d="M93.2871 40.7363H114.39V48.1073H93.2871V40.7363Z" fill="#1F3181"/>
<path d="M114.398 27.7097H156.596V40.7365H114.398V27.7097Z" fill="#253684"/>
<g style="mix-blend-mode:overlay" opacity="0.1">
<path d="M114.398 27.7097H156.596V34.2231H114.398V27.7097Z" fill="white"/>
</g>
<path d="M93.2871 27.7097H114.39V40.7365H93.2871V27.7097Z" fill="#253684"/>
<path d="M70.1247 27.7097V32.3822C70.1247 34.9624 72.2136 37.0547 74.7897 37.0547H82.9017C85.4777 37.0547 87.5666 34.9624 87.5666 32.3822V27.7097H93.2871V48.1075H64.4042V27.7097H70.1247Z" fill="#253684"/>
<path d="M84.7102 0H115.992C117.365 0 118.479 1.11637 118.479 2.4915C118.479 3.86663 117.365 4.98301 115.992 4.98301H84.7102C83.3373 4.98301 82.2228 3.86663 82.2228 2.4915C82.2228 1.11637 83.3373 0 84.7102 0Z" fill="#253684"/>
<g style="mix-blend-mode:overlay" opacity="0.2">
<path d="M82.2375 2.25492C82.3556 0.990687 83.4185 0 84.7176 0H115.999C117.291 0 118.354 0.990687 118.479 2.25492H82.2449H82.2375Z" fill="#BDC8FD"/>
</g>
<path d="M143.613 15.1855H154.492C155.865 15.1855 156.98 16.3019 156.98 17.677C156.98 19.0522 155.865 20.1686 154.492 20.1686H143.613C142.24 20.1686 141.125 19.0522 141.125 17.677C141.125 16.3019 142.24 15.1855 143.613 15.1855Z" fill="#213071"/>
<g style="mix-blend-mode:overlay" opacity="0.1">
<path d="M141 17.5063V17.4915C141 16.1164 142.114 15 143.487 15H154.367C155.74 15 156.854 16.1164 156.854 17.4915V17.5063H141Z" fill="white"/>
</g>
<path d="M145.281 20.176H152.81V27.7171H145.281V20.176Z" fill="#253684"/>
<g style="mix-blend-mode:overlay" opacity="0.4">
<path d="M145.288 20.176H147.532V27.7171H145.288V20.176Z" fill="#1F2E72"/>
</g>
<g style="mix-blend-mode:overlay" opacity="0.4">
<path d="M145.281 20.176H152.81V22.0613H145.281V20.176Z" fill="#1F2E72"/>
</g>
<g style="mix-blend-mode:overlay" opacity="0.4">
<path d="M64.4044 64.0693H166V69.836H64.4044V64.0693Z" fill="#4A506C"/>
</g>
<path d="M147.813 77C141.009 77 135.493 71.4755 135.493 64.6608C135.493 57.846 141.009 52.3215 147.813 52.3215C154.616 52.3215 160.132 57.846 160.132 64.6608C160.132 71.4755 154.616 77 147.813 77Z" fill="#23316F"/>
<path d="M147.813 74.2646C142.517 74.2646 138.224 69.9649 138.224 64.6609C138.224 59.3569 142.517 55.0571 147.813 55.0571C153.108 55.0571 157.401 59.3569 157.401 64.6609C157.401 69.9649 153.108 74.2646 147.813 74.2646Z" fill="#30428F"/>
<path d="M147.813 61.8145C149.385 61.8145 150.654 63.0861 150.654 64.6608C150.654 66.2356 149.385 67.5072 147.813 67.5072C146.24 67.5072 144.971 66.2356 144.971 64.6608C144.971 63.0861 146.24 61.8145 147.813 61.8145Z" fill="#2B345C"/>
<path d="M114.638 76.9703C107.851 76.4973 102.732 70.6027 103.204 63.8043C103.676 57.006 109.561 51.8783 116.349 52.3513C123.136 52.8243 128.255 58.7189 127.783 65.5172C127.311 72.3156 121.426 77.4433 114.638 76.9703Z" fill="#23316F"/>
<path d="M113.962 74.1386C108.735 73.2887 105.185 68.3556 106.033 63.1201C106.882 57.8847 111.807 54.3294 117.034 55.1793C122.261 56.0291 125.811 60.9622 124.962 66.1977C124.114 71.4332 119.189 74.9884 113.962 74.1386Z" fill="#30428F"/>
<path d="M115.497 61.8145C117.07 61.8145 118.339 63.0861 118.339 64.6608C118.339 66.2356 117.07 67.5072 115.497 67.5072C113.925 67.5072 112.656 66.2356 112.656 64.6608C112.656 63.0861 113.925 61.8145 115.497 61.8145Z" fill="#2B345C"/>
<path d="M83.1824 77C76.3786 77 70.8631 71.4755 70.8631 64.6608C70.8631 57.846 76.3786 52.3215 83.1824 52.3215C89.9862 52.3215 95.5017 57.846 95.5017 64.6608C95.5017 71.4755 89.9862 77 83.1824 77Z" fill="#23316F"/>
<path d="M74.3242 68.3361C72.2977 63.4358 74.6209 57.8179 79.5133 55.7882C84.4056 53.7584 90.0145 56.0854 92.0409 60.9857C94.0674 65.886 91.7442 71.5038 86.8518 73.5336C81.9595 75.5633 76.3506 73.2363 74.3242 68.3361Z" fill="#30428F"/>
<path d="M83.1824 61.8145C84.7546 61.8145 86.0242 63.0861 86.0242 64.6608C86.0242 66.2356 84.7546 67.5072 83.1824 67.5072C81.6102 67.5072 80.3406 66.2356 80.3406 64.6608C80.3406 63.0861 81.6102 61.8145 83.1824 61.8145Z" fill="#2B345C"/>
<g style="mix-blend-mode:overlay" opacity="0.1">
<path d="M166 69.836H163.18V64.0693L154.655 50.2514H64.4044V48.1074H156.596L166 64.0693V69.836Z" fill="white"/>
</g>
<path d="M114.39 4.99036V27.717H93.2871L86.3118 4.99036H114.383H114.39ZM102.588 22.5418C106.226 22.5418 109.172 19.5919 109.172 15.9471C109.172 12.3022 106.226 9.35233 102.588 9.35233C98.9485 9.35233 96.0034 12.3022 96.0034 15.9471C96.0034 19.5919 98.9485 22.5418 102.588 22.5418Z" fill="#253684"/>
<g style="mix-blend-mode:overlay" opacity="0.4">
<path d="M87.1312 7.6519L86.3192 4.99036H114.39V7.6519H87.1312Z" fill="#505050"/>
</g>
<path d="M54.5208 57.0161H64.4043V64.0766H54.5208C52.5721 64.0766 50.9999 62.4945 50.9999 60.5501C50.9999 58.5983 52.5795 57.0235 54.5208 57.0235V57.0161Z" fill="#405977"/>
<g style="mix-blend-mode:overlay" opacity="0.4">
<path d="M64.4043 60.8901V64.0692H54.5208C52.6902 64.0692 51.1918 62.6719 51.0147 60.8901H64.4043Z" fill="black" fill-opacity="0.2"/>
</g>
<g style="mix-blend-mode:overlay" opacity="0.1">
<path d="M93.2945 40.7363H156.596V41.934H93.2945V40.7363Z" fill="white"/>
</g>
<g style="mix-blend-mode:overlay" opacity="0.4">
<path d="M64.4044 27.7097H65.7551V69.8287H64.4044V27.7097Z" fill="black" fill-opacity="0.2"/>
</g>
<g style="mix-blend-mode:overlay" opacity="0.1">
<path d="M134.334 40.7363H135.493V48.1073H134.334V40.7363Z" fill="white"/>
</g>
<g style="mix-blend-mode:overlay" opacity="0.1">
<path d="M113.231 4.99036H114.39V48.1074H113.231V4.99036Z" fill="white"/>
</g>
<g style="mix-blend-mode:overlay" opacity="0.1">
<path d="M92.1283 27.7097H93.2871V48.1075H92.1283V27.7097Z" fill="white"/>
</g>
</g>
<defs>
<clipPath id="clip0_4684_43838">
<rect width="243" height="89" fill="white" transform="translate(0 77)"/>
</clipPath>
<clipPath id="clip1_4684_43838">
<rect width="115" height="77" fill="white" transform="matrix(-1 0 0 1 166 0)"/>
</clipPath>
</defs>
</svg>
