<svg width="93" height="93" viewBox="0 0 93 93" fill="none" xmlns="http://www.w3.org/2000/svg">
<g filter="url(#filter0_f_2699_111676)">
<path d="M5 46.49C5 23.57 23.57 5 46.49 5C69.41 5 87.98 23.58 87.98 46.49C87.98 69.4 69.4 87.98 46.49 87.98C23.58 87.98 5 69.4 5 46.49Z" fill="white"/>
</g>
<path opacity="0.07" d="M27.87 22.08C27.1 21.65 26.13 21.79 25.5 22.4C25.5 22.4 24.81 23.07 23.78 24.08C23.03 24.46 22.31 24.87 21.62 25.3C20.94 25.73 20.28 26.19 19.67 26.67C16.06 29.3 13.66 33.84 12.83 37.92C12.71 38.69 12.64 39.49 12.62 40.31C12.6 41.13 12.63 41.98 12.71 42.85C12.6 43.67 12.98 44.37 13.56 44.78C14.14 45.18 14.93 45.29 15.65 44.9C15.65 44.9 16.54 44.43 17.76 43.9C27.79 44.14 26.36 33.44 28.18 26.73C28.57 25.32 28.83 24.38 28.83 24.38C29.08 23.48 28.68 22.53 27.87 22.08Z" fill="#AEA290"/>
<path opacity="0.08" d="M47.0899 12.1C45.9199 12.01 44.5699 12.01 45.0199 13.36C45.4699 16.96 52.2199 20.56 46.8199 24.15C44.1199 25.95 40.5199 27.3 39.5999 30.87C39.4399 31.55 39.3899 32.24 39.4099 32.92C39.4899 34.99 40.2699 37.07 42.1299 39.12C42.6999 39.56 43.3399 39.92 44.0099 40.22C46.0199 41.11 48.3499 41.43 50.3199 41.62C51.0299 41.7 51.7499 41.76 52.4799 41.79C53.5699 41.83 54.6599 41.79 55.7099 41.68C56.2299 41.62 56.7499 41.53 57.2399 41.42C59.4399 40.79 62.1399 39.44 61.2399 36.74C60.8999 36.18 60.5399 35.64 60.1499 35.12C59.7599 34.6 59.3599 34.09 58.9499 33.59C58.6199 33.25 58.2099 32.83 57.8099 32.37C57.4199 31.91 57.0399 31.42 56.7899 30.94C56.2899 27.74 59.8799 28.64 61.5199 28.72C62.1899 28.84 62.8499 28.98 63.4899 29.09C65.3999 29.43 67.0899 29.54 67.9899 28.19C70.7399 24.45 69.45 21.57 66.55 19.34C66.07 18.97 65.5399 18.61 64.9699 18.28C59.8999 15.6 54.9499 13.8 49.4199 12.36C48.4699 12.2 47.7099 12.11 47.1299 12.09L47.0899 12.1Z" fill="#C5B6A2"/>
<path opacity="0.08" d="M17.7499 63.37C18.0499 63.93 18.3699 64.49 18.7199 65.04C19.0699 65.59 19.4399 66.14 19.8399 66.67C23.2799 72.33 30.0299 75.03 36.3299 72.78C39.9299 71.43 39.9299 66.48 37.6799 64.68C34.9799 61.98 31.8299 66.93 28.6899 66.48C25.5399 66.03 23.7399 62.43 20.5699 61.02C19.9399 60.84 19.3299 60.81 18.7599 61.02C18.1899 61.23 17.6499 61.66 17.1499 62.4C17.2199 62.71 17.4099 63.04 17.7599 63.36L17.7499 63.37Z" fill="#C5B6A2"/>
<path opacity="0.09" d="M68.95 38.44C68.98 39.58 69.4 40.67 70.3 41.41C70.48 41.55 70.68 41.68 70.9 41.78C71.14 41.9 71.38 41.99 71.64 42.07C72.9 42.44 74.36 42.3 75.58 41.74C75.77 41.65 75.95 41.54 76.12 41.41C76.29 41.28 76.45 41.15 76.6 41C78.1 39.46 78.09 36.69 76.89 34.99C76.07 33.82 74.66 33.23 73.29 33.33C73.01 33.35 72.74 33.39 72.47 33.47C72.18 33.52 71.91 33.6 71.67 33.69C71.43 33.79 71.21 33.91 71.01 34.05C69.7 34.96 68.9 36.76 68.95 38.45V38.44Z" fill="#AEA290"/>
<path opacity="0.07" d="M54.62 68.17C62.42 66.49 65.12 60.64 66.13 53.51C66.55 53.05 67 52.6001 67.46 52.1601C68.27 51.2401 68.87 50.55 68.87 50.55C69.82 49.47 71.15 48.8001 72.59 48.6901C76.09 48.4201 78.94 51.46 78.45 54.93C78.45 54.93 78.4 55.31 78.32 55.89C78.24 56.47 78.13 57.24 78.03 58.01C78.04 58.81 77.97 59.58 77.82 60.3C77.67 61.03 77.44 61.7301 77.15 62.4001C76.85 62.88 76.53 63.3601 76.18 63.8501C75.84 64.3301 75.47 64.82 75.09 65.3C72.32 70.09 67.37 72.34 62.67 74.73C61.93 74.98 61.19 75.1701 60.43 75.3201C58.16 75.7601 55.79 75.7201 53.43 75.0401C52.08 74.5901 50.73 74.1401 50.28 72.7901C50.28 72.1201 50.73 71.6701 51.23 71.2201C51.73 70.7701 52.29 70.3201 52.51 69.6501C53.05 69.1701 53.74 68.67 54.62 68.18V68.17Z" fill="#AEA290"/>
<defs>
<filter id="filter0_f_2699_111676" x="0" y="0" width="92.98" height="92.98" filterUnits="userSpaceOnUse" color-interpolation-filters="sRGB">
<feFlood flood-opacity="0" result="BackgroundImageFix"/>
<feBlend mode="normal" in="SourceGraphic" in2="BackgroundImageFix" result="shape"/>
<feGaussianBlur stdDeviation="2.5" result="effect1_foregroundBlur_2699_111676"/>
</filter>
</defs>
</svg>
