<svg width="100" height="50" viewBox="0 0 100 50" fill="none" xmlns="http://www.w3.org/2000/svg">
<path d="M99.9626 26.5583C99.1054 16.2627 87.2833 8.83565 73.5564 9.97828C72.1992 10.0854 70.8895 10.2996 69.6038 10.5734C63.651 3.44388 53.0909 -0.829064 41.4593 0.135028C29.9229 1.09912 20.2795 6.97888 15.5412 14.894C6.29064 16.3698 -0.495458 22.2258 0.0283812 28.6174C0.564126 35.0089 8.23123 39.6628 17.5889 39.5914C23.5654 46.6256 34.0541 50.8272 45.5905 49.8631C51.5551 49.3632 57.0197 47.554 61.5557 44.8284C65.8774 46.7923 71.1038 47.7445 76.6518 47.2803C90.3788 46.1377 100.808 36.8657 99.9507 26.5702L99.9626 26.5583Z" fill="#E9F7FF"/>
</svg>
