<svg width="1132" height="473" viewBox="0 0 1132 473" fill="none" xmlns="http://www.w3.org/2000/svg">
<path style="mix-blend-mode:color-dodge" d="M1087.68 460.78C1090.79 462.313 1087.77 466.112 1084.66 464.578C1081.54 463.044 1084.57 459.246 1087.68 460.78Z" fill="url(#paint0_radial_2704_154045)"/>
<path style="mix-blend-mode:color-dodge" d="M47.3968 198.614C41.3782 198.614 41.3782 206.513 47.3968 206.513C53.4153 206.513 53.4153 198.614 47.3968 198.614Z" fill="url(#paint1_radial_2704_154045)"/>
<path style="mix-blend-mode:color-dodge" d="M1125.66 42.8823C1121.9 42.8823 1121.9 48.5248 1125.66 48.5248C1129.43 48.5248 1129.43 42.8823 1125.66 42.8823Z" fill="url(#paint2_radial_2704_154045)"/>
<path style="mix-blend-mode:color-dodge" d="M355.943 157.095C352.903 164.068 365.506 168.1 368.546 161.138C371.586 154.165 358.983 150.133 355.943 157.095Z" fill="url(#paint3_radial_2704_154045)"/>
<path style="mix-blend-mode:color-dodge" d="M526.295 439.395C529.348 435.024 521.734 430.812 518.68 435.182C515.639 439.553 523.241 443.765 526.295 439.395Z" fill="url(#paint4_radial_2704_154045)"/>
<path style="mix-blend-mode:color-dodge" d="M685.411 370.292C688.466 365.295 680.842 360.485 677.801 365.481C674.746 370.478 682.369 375.288 685.411 370.292Z" fill="url(#paint5_radial_2704_154045)"/>
<path style="mix-blend-mode:color-dodge" d="M792.709 359.536C795.374 355.791 788.71 352.179 786.044 355.924C783.379 359.67 790.043 363.282 792.709 359.536Z" fill="url(#paint6_radial_2704_154045)"/>
<path style="mix-blend-mode:color-dodge" d="M662.755 416.296C666.182 410.676 657.627 405.263 654.188 410.883C650.761 416.504 659.328 421.917 662.755 416.296Z" fill="url(#paint7_radial_2704_154045)"/>
<path style="mix-blend-mode:color-dodge" d="M537.723 123.005C532.457 123.005 532.457 129.776 537.723 129.776C542.989 129.776 542.989 123.005 537.723 123.005Z" fill="url(#paint8_radial_2704_154045)"/>
<path style="mix-blend-mode:color-dodge" d="M333.468 121.876C329.706 121.876 329.706 126.39 333.468 126.39C337.229 126.39 337.229 121.876 333.468 121.876Z" fill="url(#paint9_radial_2704_154045)"/>
<path style="mix-blend-mode:color-dodge" d="M979.714 235.755C978.601 237.811 982.739 239.137 983.851 237.081C984.964 235.025 980.826 233.699 979.714 235.755Z" fill="url(#paint10_radial_2704_154045)"/>
<path style="mix-blend-mode:color-dodge" d="M740.73 202.444C736.987 204.356 740.629 209.108 744.357 207.196C748.1 205.283 744.459 200.531 740.73 202.444Z" fill="url(#paint11_radial_2704_154045)"/>
<path style="mix-blend-mode:color-dodge" d="M448.191 433.786C445.075 435.701 448.097 440.45 451.213 438.535C454.329 436.619 451.308 431.87 448.191 433.786Z" fill="url(#paint12_radial_2704_154045)"/>
<path opacity="0.52" d="M929.872 383.121C929.872 382.806 929.362 382.557 928.744 382.557C928.126 382.557 927.615 382.812 927.615 383.121C927.615 383.43 928.126 383.686 928.744 383.686C929.362 383.686 929.872 383.43 929.872 383.121Z" fill="white"/>
<path opacity="0.39" d="M1057.39 318.233C1057.39 318.851 1056.88 319.361 1056.26 319.361C1055.65 319.361 1055.13 318.851 1055.13 318.233C1055.13 317.615 1055.63 317.104 1056.26 317.104C1056.89 317.104 1057.39 317.602 1057.39 318.233Z" fill="white"/>
<path opacity="0.77" d="M1116.07 304.127C1116.07 305.062 1115.31 305.82 1114.38 305.82C1113.44 305.82 1112.69 305.062 1112.69 304.127C1112.69 303.193 1113.44 302.435 1114.38 302.435C1115.31 302.435 1116.07 303.193 1116.07 304.127Z" fill="white"/>
<path opacity="0.26" d="M877.962 310.902C877.962 311.21 877.462 311.462 876.834 311.462C876.205 311.462 875.705 311.21 875.705 310.902C875.705 310.593 876.205 310.333 876.834 310.333C877.462 310.333 877.962 310.585 877.962 310.902Z" fill="white"/>
<path opacity="0.77" d="M1047.23 374.094C1047.23 373.784 1046.98 373.529 1046.67 373.529C1046.36 373.529 1046.11 373.784 1046.11 374.094C1046.11 374.403 1046.36 374.658 1046.67 374.658C1046.98 374.658 1047.23 374.403 1047.23 374.094Z" fill="white"/>
<path opacity="0.48" d="M893.761 309.769C893.761 310.082 893.257 310.334 892.632 310.334C892.008 310.334 891.504 310.082 891.504 309.769C891.504 309.457 892.008 309.205 892.632 309.205C893.257 309.205 893.761 309.457 893.761 309.769Z" fill="white"/>
<path opacity="0.43" d="M1133 305.256C1133 305.566 1132.75 305.82 1132.44 305.82C1132.13 305.82 1131.87 305.566 1131.87 305.256C1131.87 304.946 1132.13 304.691 1132.44 304.691C1132.75 304.691 1133 304.946 1133 305.256Z" fill="white"/>
<path opacity="0.03" d="M985.168 427.132C985.168 427.444 984.665 427.696 984.04 427.696C983.414 427.696 982.911 427.444 982.911 427.132C982.911 426.819 983.414 426.567 984.04 426.567C984.665 426.567 985.168 426.819 985.168 427.132Z" fill="white"/>
<path opacity="0.69" d="M1081.09 380.864C1081.09 380.553 1080.84 380.3 1080.53 380.3C1080.21 380.3 1079.96 380.553 1079.96 380.864C1079.96 381.175 1080.21 381.428 1080.53 381.428C1080.84 381.428 1081.09 381.175 1081.09 380.864Z" fill="white"/>
<path opacity="0.31" d="M1108.17 445.752C1108.17 446.377 1107.42 446.881 1106.48 446.881C1105.54 446.881 1104.79 446.377 1104.79 445.752C1104.79 445.127 1105.54 444.624 1106.48 444.624C1107.42 444.624 1108.17 445.127 1108.17 445.752Z" fill="white"/>
<path opacity="0.72" d="M1098.02 393.277C1098.02 392.969 1097.76 392.713 1097.45 392.713C1097.15 392.713 1096.89 392.969 1096.89 393.277C1096.89 393.585 1097.15 393.841 1097.45 393.841C1097.76 393.841 1098.02 393.585 1098.02 393.277Z" fill="white"/>
<path opacity="0.71" d="M906.173 421.49C906.173 421.176 905.923 420.925 905.609 420.925C905.296 420.925 905.045 421.176 905.045 421.49C905.045 421.803 905.296 422.054 905.609 422.054C905.923 422.054 906.173 421.803 906.173 421.49Z" fill="white"/>
<path opacity="0.06" d="M866.677 352.087C866.677 351.47 866.422 350.959 866.113 350.959C865.805 350.959 865.549 351.47 865.549 352.087C865.549 352.705 865.805 353.216 866.113 353.216C866.422 353.216 866.677 352.705 866.677 352.087Z" fill="white"/>
<path opacity="0.71" d="M847.493 471.143C847.493 472.075 846.732 472.836 845.8 472.836C844.868 472.836 844.107 472.075 844.107 471.143C844.107 470.211 844.868 469.45 845.8 469.45C846.732 469.45 847.493 470.211 847.493 471.143Z" fill="white"/>
<path opacity="0.4" d="M929.872 345.317C929.872 345.941 929.368 346.445 928.744 346.445C928.12 346.445 927.615 345.941 927.615 345.317C927.615 344.693 928.12 344.188 928.744 344.188C929.368 344.188 929.872 344.693 929.872 345.317Z" fill="white"/>
<path opacity="0.55" d="M889.246 372.965C889.246 372.658 888.751 372.4 888.118 372.4C887.484 372.4 886.989 372.658 886.989 372.965C886.989 373.271 887.504 373.529 888.118 373.529C888.732 373.529 889.246 373.271 889.246 372.965Z" fill="white"/>
<path opacity="0.51" d="M1000.97 405.127C1000.97 404.51 1000.47 403.998 999.831 403.998C999.195 403.998 998.71 404.495 998.71 405.127C998.71 405.758 999.21 406.255 999.831 406.255C1000.45 406.255 1000.97 405.758 1000.97 405.127Z" fill="white"/>
<path opacity="0.7" d="M104.949 336.289C105.572 336.289 106.077 335.783 106.077 335.16C106.077 334.537 105.572 334.032 104.949 334.032C104.326 334.032 103.82 334.537 103.82 335.16C103.82 335.783 104.326 336.289 104.949 336.289Z" fill="white"/>
<path opacity="0.61" d="M83.5078 227.954C83.5078 227.331 84.0133 226.826 84.6363 226.826C85.2593 226.826 85.7648 227.331 85.7648 227.954C85.7648 228.577 85.2593 229.083 84.6363 229.083C84.0133 229.083 83.5078 228.577 83.5078 227.954Z" fill="white"/>
<path opacity="0.21" d="M275.351 374.652C275.351 374.026 276.116 373.529 277.043 373.529C277.971 373.529 278.736 374.037 278.736 374.652C278.736 375.268 277.971 375.786 277.043 375.786C276.116 375.786 275.351 375.279 275.351 374.652Z" fill="white"/>
<path opacity="0.56" d="M399.484 337.418C399.484 336.797 399.992 336.289 400.613 336.289C401.234 336.289 401.741 336.797 401.741 337.418C401.741 338.038 401.234 338.546 400.613 338.546C399.992 338.546 399.484 338.038 399.484 337.418Z" fill="white"/>
<path opacity="0.08" d="M710.946 409.64C710.946 409.021 711.455 408.512 712.075 408.512C712.694 408.512 713.203 409.021 713.203 409.64C713.203 410.259 712.694 410.769 712.075 410.769C711.455 410.769 710.946 410.259 710.946 409.64Z" fill="white"/>
<path opacity="0.73" d="M543.931 221.747C543.931 221.432 544.444 221.183 545.059 221.183C545.675 221.183 546.188 221.44 546.188 221.747C546.188 222.055 545.675 222.312 545.059 222.312C544.444 222.312 543.931 222.055 543.931 221.747Z" fill="white"/>
<path opacity="0.52" d="M899.403 125.826C899.403 125.51 899.662 125.262 899.968 125.262C900.274 125.262 900.532 125.52 900.532 125.826C900.532 126.132 900.283 126.39 899.968 126.39C899.652 126.39 899.403 126.132 899.403 125.826Z" fill="white"/>
<path opacity="0.07" d="M19.1846 265.759C19.1846 266.068 19.439 266.323 19.7488 266.323C20.0586 266.323 20.3131 266.068 20.3131 265.759C20.3131 265.449 20.0586 265.194 19.7488 265.194C19.439 265.194 19.1846 265.449 19.1846 265.759Z" fill="white"/>
<path opacity="0.22" d="M385.942 106.078C385.942 106.697 386.452 107.206 387.071 107.206C387.69 107.206 388.199 106.697 388.199 106.078C388.199 105.459 387.69 104.949 387.071 104.949C386.452 104.949 385.942 105.459 385.942 106.078Z" fill="white"/>
<path opacity="0.56" d="M437.853 53.6033C437.853 53.9178 438.102 54.1675 438.417 54.1675C438.731 54.1675 438.981 53.9178 438.981 53.6033C438.981 53.2888 438.722 53.0391 438.417 53.0391C438.112 53.0391 437.853 53.2981 437.853 53.6033Z" fill="white"/>
<path opacity="0.68" d="M471.707 148.396C471.707 148.707 472.214 148.96 472.836 148.96C473.457 148.96 473.964 148.707 473.964 148.396C473.964 148.085 473.457 147.832 472.836 147.832C472.214 147.832 471.707 148.085 471.707 148.396Z" fill="white"/>
<path opacity="0.34" d="M505.562 468.886C505.562 469.203 505.82 469.45 506.126 469.45C506.431 469.45 506.69 469.192 506.69 468.886C506.69 468.58 506.431 468.322 506.126 468.322C505.82 468.322 505.562 468.569 505.562 468.886Z" fill="white"/>
<path opacity="0.39" d="M770.756 60.9381C770.756 61.5576 771.265 62.0665 771.884 62.0665C772.504 62.0665 773.013 61.5576 773.013 60.9381C773.013 60.3185 772.504 59.8096 771.884 59.8096C771.265 59.8096 770.756 60.3185 770.756 60.9381Z" fill="white"/>
<path opacity="0.58" d="M770.755 227.954C771.379 227.954 771.884 227.702 771.884 227.39C771.884 227.078 771.379 226.826 770.755 226.826C770.132 226.826 769.627 227.078 769.627 227.39C769.627 227.702 770.132 227.954 770.755 227.954Z" fill="white"/>
<path opacity="0.13" d="M826.052 413.59C826.052 413.91 826.307 414.154 826.616 414.154C826.925 414.154 827.18 413.899 827.18 413.59C827.18 413.281 826.925 413.026 826.616 413.026C826.307 413.026 826.052 413.281 826.052 413.59Z" fill="white"/>
<path opacity="0.77" d="M1031.44 77.8653C1031.44 78.4828 1031.69 78.9938 1032 78.9938C1032.31 78.9938 1032.57 78.4828 1032.57 77.8653C1032.57 77.2478 1032.31 76.7368 1032 76.7368C1031.69 76.7368 1031.44 77.2478 1031.44 77.8653Z" fill="white"/>
<path opacity="0.46" d="M20.3125 408.512C20.3125 409.127 20.8125 409.641 21.441 409.641C22.0695 409.641 22.5695 409.141 22.5695 408.512C22.5695 407.884 22.0695 407.384 21.441 407.384C20.8125 407.384 20.3125 407.884 20.3125 408.512Z" fill="white"/>
<path opacity="0.46" d="M322.747 98.1783C322.747 98.7971 323.245 99.3068 323.876 99.3068C324.507 99.3068 325.004 98.7971 325.004 98.1783C325.004 97.5594 324.494 97.0498 323.876 97.0498C323.257 97.0498 322.747 97.5473 322.747 98.1783Z" fill="white"/>
<path opacity="0.72" d="M60.9385 257.295C60.9385 257.918 61.6924 258.423 62.6238 258.423C63.5552 258.423 64.3239 257.918 64.3239 257.295C64.3239 256.671 63.57 256.166 62.6238 256.166C61.6777 256.166 60.9385 256.671 60.9385 257.295Z" fill="white"/>
<path opacity="0.62" d="M461.551 56.4244C461.551 57.0496 462.054 57.5529 462.679 57.5529C463.305 57.5529 463.808 57.0496 463.808 56.4244C463.808 55.7991 463.305 55.2959 462.679 55.2959C462.054 55.2959 461.551 55.7991 461.551 56.4244Z" fill="white"/>
<path opacity="0.39" d="M473.964 173.787C473.964 174.405 474.212 174.915 474.528 174.915C474.844 174.915 475.092 174.405 475.092 173.787C475.092 173.169 474.837 172.658 474.528 172.658C474.219 172.658 473.964 173.155 473.964 173.787Z" fill="white"/>
<path opacity="0.77" d="M713.203 46.2681C713.203 46.8915 713.708 47.3966 714.332 47.3966C714.955 47.3966 715.46 46.8915 715.46 46.2681C715.46 45.6448 714.955 45.1396 714.332 45.1396C713.708 45.1396 713.203 45.6448 713.203 46.2681Z" fill="white"/>
<path opacity="0.28" d="M773.013 277.043C773.013 277.358 773.512 277.607 774.141 277.607C774.77 277.607 775.27 277.358 775.27 277.043C775.27 276.729 774.77 276.479 774.141 276.479C773.512 276.479 773.013 276.729 773.013 277.043Z" fill="white"/>
<path opacity="0.69" d="M848.621 418.668C848.621 419.289 849.126 419.797 849.755 419.797C850.384 419.797 850.878 419.289 850.878 418.668C850.878 418.047 850.373 417.54 849.755 417.54C849.138 417.54 848.621 418.047 848.621 418.668Z" fill="white"/>
<path opacity="0.26" d="M950.186 53.6069C950.186 53.92 950.695 54.1675 951.307 54.1675C951.918 54.1675 952.443 53.9127 952.443 53.6069C952.443 53.3012 951.933 53.0391 951.307 53.0391C950.681 53.0391 950.186 53.2939 950.186 53.6069Z" fill="white"/>
<path opacity="0.59" d="M24.8262 449.702C24.8262 449.393 25.3358 449.138 25.9547 449.138C26.5735 449.138 27.0831 449.393 27.0831 449.702C27.0831 450.011 26.5735 450.266 25.9547 450.266C25.3358 450.266 24.8262 450.011 24.8262 449.702Z" fill="white"/>
<path opacity="0.31" d="M0 269.144C0 268.83 0.250775 268.58 0.564243 268.58C0.877711 268.58 1.12849 268.83 1.12849 269.144C1.12849 269.457 0.877711 269.708 0.564243 269.708C0.250775 269.708 0 269.457 0 269.144Z" fill="white"/>
<path opacity="0.09" d="M163.631 314.283C163.631 313.969 164.13 313.719 164.759 313.719C165.389 313.719 165.888 313.969 165.888 314.283C165.888 314.598 165.389 314.848 164.759 314.848C164.13 314.848 163.631 314.598 163.631 314.283Z" fill="white"/>
<path opacity="0.29" d="M142.189 34.4187C142.189 34.1078 142.443 33.8545 142.754 33.8545C143.065 33.8545 143.318 34.1078 143.318 34.4187C143.318 34.7296 143.065 34.983 142.754 34.983C142.443 34.983 142.189 34.7296 142.189 34.4187Z" fill="white"/>
<path opacity="0.5" d="M564.243 412.462C564.243 412.15 564.495 411.897 564.807 411.897C565.12 411.897 565.372 412.15 565.372 412.462C565.372 412.774 565.12 413.026 564.807 413.026C564.495 413.026 564.243 412.774 564.243 412.462Z" fill="white"/>
<path opacity="0.74" d="M445.752 290.021C445.752 289.399 446.259 288.892 446.88 288.892C447.502 288.892 448.009 289.399 448.009 290.021C448.009 290.642 447.502 291.149 446.88 291.149C446.259 291.149 445.752 290.642 445.752 290.021Z" fill="white"/>
<path opacity="0.69" d="M827.181 407.948C827.181 407.634 827.677 407.384 828.316 407.384C828.955 407.384 829.438 407.641 829.438 407.948C829.438 408.255 828.927 408.512 828.316 408.512C827.706 408.512 827.181 408.262 827.181 407.948Z" fill="white"/>
<path opacity="0.49" d="M701.918 217.234C701.918 216.916 702.177 216.669 702.482 216.669C702.788 216.669 703.046 216.916 703.046 217.234C703.046 217.551 702.788 217.798 702.482 217.798C702.177 217.798 701.918 217.551 701.918 217.234Z" fill="white"/>
<path opacity="0.17" d="M112.849 396.099C112.849 395.473 113.603 394.97 114.541 394.97C115.48 394.97 116.234 395.473 116.234 396.099C116.234 396.724 115.48 397.227 114.541 397.227C113.603 397.227 112.849 396.724 112.849 396.099Z" fill="white"/>
<path opacity="0.53" d="M31.5977 204.256C31.5977 203.634 32.1043 203.127 32.7261 203.127C33.348 203.127 33.8546 203.634 33.8546 204.256C33.8546 204.878 33.348 205.384 32.7261 205.384C32.1043 205.384 31.5977 204.878 31.5977 204.256Z" fill="white"/>
<path opacity="0.8" d="M352.088 301.306C352.088 300.687 352.598 300.177 353.216 300.177C353.835 300.177 354.345 300.687 354.345 301.306C354.345 301.925 353.835 302.434 353.216 302.434C352.598 302.434 352.088 301.925 352.088 301.306Z" fill="white"/>
<path opacity="0.48" d="M451.395 265.194C451.395 264.57 451.899 264.065 452.523 264.065C453.147 264.065 453.652 264.57 453.652 265.194C453.652 265.818 453.147 266.322 452.523 266.322C451.899 266.322 451.395 265.818 451.395 265.194Z" fill="white"/>
<path opacity="0.19" d="M396.099 295.664C396.099 295.031 396.607 294.535 397.227 294.535C397.847 294.535 398.356 295.044 398.356 295.664C398.356 296.284 397.847 296.792 397.227 296.792C396.607 296.792 396.099 296.284 396.099 295.664Z" fill="white"/>
<path opacity="0.52" d="M888.118 343.628C888.118 343.314 888.373 343.06 888.678 343.06C888.984 343.06 889.247 343.314 889.247 343.628C889.247 343.942 888.992 344.188 888.678 344.188C888.364 344.188 888.118 343.934 888.118 343.628Z" fill="white"/>
<path opacity="0.79" d="M855.393 376.914C855.393 376.291 856.147 375.786 857.078 375.786C858.009 375.786 858.778 376.291 858.778 376.914C858.778 377.538 858.024 378.043 857.078 378.043C856.132 378.043 855.393 377.538 855.393 376.914Z" fill="white"/>
<path opacity="0.77" d="M780.912 116.798C780.912 116.484 781.412 116.234 782.041 116.234C782.669 116.234 783.169 116.484 783.169 116.798C783.169 117.112 782.669 117.362 782.041 117.362C781.412 117.362 780.912 117.112 780.912 116.798Z" fill="white"/>
<path opacity="0.26" d="M30.4688 155.731C30.4688 156.35 30.9779 156.86 31.5972 156.86C32.2165 156.86 32.7257 156.35 32.7257 155.731C32.7257 155.112 32.2165 154.603 31.5972 154.603C30.9779 154.603 30.4688 155.112 30.4688 155.731Z" fill="white"/>
<path opacity="0.3" d="M420.925 86.8936C420.925 87.5206 421.426 88.0221 422.053 88.0221C422.68 88.0221 423.182 87.5206 423.182 86.8936C423.182 86.2667 422.68 85.7651 422.053 85.7651C421.426 85.7651 420.925 86.2667 420.925 86.8936Z" fill="white"/>
<path opacity="0.5" d="M523.617 0.564243C523.617 0.876592 523.869 1.12849 524.181 1.12849C524.494 1.12849 524.746 0.876592 524.746 0.564243C524.746 0.251894 524.494 0 524.181 0C523.869 0 523.617 0.251894 523.617 0.564243Z" fill="white"/>
<path opacity="0.43" d="M376.914 137.675C376.914 138.311 377.423 138.804 378.043 138.804C378.662 138.804 379.171 138.295 379.171 137.675C379.171 137.055 378.662 136.547 378.043 136.547C377.423 136.547 376.914 137.055 376.914 137.675Z" fill="white"/>
<path opacity="0.56" d="M451.395 345.881C451.395 346.194 451.646 346.445 451.959 346.445C452.271 346.445 452.523 346.194 452.523 345.881C452.523 345.569 452.271 345.317 451.959 345.317C451.646 345.317 451.395 345.569 451.395 345.881Z" fill="white"/>
<path opacity="0.66" d="M723.359 337.418C723.359 338.031 723.607 338.546 723.924 338.546C724.24 338.546 724.488 338.051 724.488 337.418C724.488 336.784 724.24 336.289 723.924 336.289C723.607 336.289 723.359 336.784 723.359 337.418Z" fill="white"/>
<path opacity="0.48" d="M935.516 52.4744C935.516 52.7879 935.766 53.0386 936.08 53.0386C936.393 53.0386 936.644 52.7879 936.644 52.4744C936.644 52.1609 936.393 51.9102 936.08 51.9102C935.766 51.9102 935.516 52.1609 935.516 52.4744Z" fill="white"/>
<path opacity="0.22" d="M112.849 129.776C112.849 130.401 113.102 130.904 113.417 130.904C113.731 130.904 113.977 130.401 113.977 129.776C113.977 129.151 113.724 128.647 113.417 128.647C113.11 128.647 112.849 129.151 112.849 129.776Z" fill="white"/>
<path opacity="0.13" d="M503.305 21.4415C503.305 22.0592 503.815 22.57 504.433 22.57C505.051 22.57 505.562 22.0592 505.562 21.4415C505.562 20.8238 505.063 20.313 504.433 20.313C503.804 20.313 503.305 20.8238 503.305 21.4415Z" fill="white"/>
<path opacity="0.18" d="M44.0107 174.916C44.0107 175.541 44.5135 176.044 45.1392 176.044C45.7649 176.044 46.2677 175.541 46.2677 174.916C46.2677 174.29 45.7649 173.787 45.1392 173.787C44.5135 173.787 44.0107 174.29 44.0107 174.916Z" fill="white"/>
<path opacity="0.65" d="M321.619 45.1397C321.619 45.7681 322.119 46.2682 322.748 46.2682C323.376 46.2682 323.876 45.7681 323.876 45.1397C323.876 44.5114 323.376 44.0112 322.748 44.0112C322.119 44.0112 321.619 44.5114 321.619 45.1397Z" fill="white"/>
<path opacity="0.79" d="M583.427 257.859C583.427 258.791 583.933 259.551 584.555 259.551C585.177 259.551 585.684 258.791 585.684 257.859C585.684 256.926 585.177 256.166 584.555 256.166C583.933 256.166 583.427 256.926 583.427 257.859Z" fill="white"/>
<path opacity="0.7" d="M703.047 366.194C703.047 367.13 703.804 367.886 704.74 367.886C705.675 367.886 706.432 367.13 706.432 366.194C706.432 365.258 705.675 364.501 704.74 364.501C703.804 364.501 703.047 365.258 703.047 366.194Z" fill="white"/>
<path opacity="0.43" d="M695.147 48.5169C695.147 49.138 695.644 49.653 696.276 49.653C696.908 49.653 697.404 49.1531 697.404 48.5169C697.404 47.8807 696.908 47.396 696.276 47.396C695.644 47.396 695.147 47.8959 695.147 48.5169Z" fill="white"/>
<path opacity="0.29" d="M801.226 467.2C801.226 467.819 801.731 468.322 802.354 468.322C802.977 468.322 803.483 467.819 803.483 467.2C803.483 466.581 802.977 466.065 802.354 466.065C801.731 466.065 801.226 466.568 801.226 467.2Z" fill="white"/>
<path opacity="0.03" d="M844.107 170.401C844.107 171.024 844.615 171.53 845.242 171.53C845.868 171.53 846.364 171.024 846.364 170.401C846.364 169.778 845.856 169.273 845.242 169.273C844.627 169.273 844.107 169.778 844.107 170.401Z" fill="white"/>
<path opacity="0.36" d="M99.3066 210.463C99.3066 210.149 99.5574 209.898 99.8709 209.898C100.184 209.898 100.435 210.149 100.435 210.463C100.435 210.776 100.184 211.027 99.8709 211.027C99.5574 211.027 99.3066 210.776 99.3066 210.463Z" fill="white"/>
<path opacity="0.63" d="M56.4238 125.826C56.4238 125.514 56.6759 125.262 56.9881 125.262C57.3002 125.262 57.5523 125.514 57.5523 125.826C57.5523 126.138 57.3002 126.39 56.9881 126.39C56.6759 126.39 56.4238 126.138 56.4238 125.826Z" fill="white"/>
<path opacity="0.45" d="M266.322 416.976C266.322 416.662 266.573 416.412 266.887 416.412C267.2 416.412 267.451 416.662 267.451 416.976C267.451 417.289 267.2 417.54 266.887 417.54C266.573 417.54 266.322 417.289 266.322 416.976Z" fill="white"/>
<path opacity="0.17" d="M469.45 441.803C469.45 440.868 469.953 440.11 470.573 440.11C471.193 440.11 471.707 440.868 471.707 441.803C471.707 442.737 471.204 443.495 470.573 443.495C469.941 443.495 469.45 442.737 469.45 441.803Z" fill="white"/>
<path opacity="0.22" d="M876.834 288.892C876.834 288.269 877.339 287.764 877.962 287.764C878.586 287.764 879.091 288.269 879.091 288.892C879.091 289.515 878.586 290.021 877.962 290.021C877.339 290.021 876.834 289.515 876.834 288.892Z" fill="white"/>
<path opacity="0.15" d="M370.144 284.378C370.144 284.996 370.641 285.507 371.272 285.507C371.903 285.507 372.401 285.01 372.401 284.378C372.401 283.747 371.903 283.25 371.272 283.25C370.641 283.25 370.144 283.747 370.144 284.378Z" fill="white"/>
<path opacity="0.62" d="M137.676 418.104C137.676 419.036 138.183 419.797 138.804 419.797C139.425 419.797 139.933 419.036 139.933 418.104C139.933 417.173 139.425 416.412 138.804 416.412C138.183 416.412 137.676 417.173 137.676 418.104Z" fill="white"/>
<path opacity="0.53" d="M470.578 42.3182C470.578 42.6309 471.081 42.8824 471.707 42.8824C472.332 42.8824 472.835 42.6309 472.835 42.3182C472.835 42.0054 472.332 41.7539 471.707 41.7539C471.081 41.7539 470.578 42.0054 470.578 42.3182Z" fill="white"/>
<path opacity="0.52" d="M492.02 271.958C492.02 272.586 492.527 273.093 493.155 273.093C493.782 273.093 494.277 272.586 494.277 271.958C494.277 271.331 493.769 270.836 493.155 270.836C492.54 270.836 492.02 271.344 492.02 271.958Z" fill="white"/>
<path opacity="0.27" d="M607.125 332.903C607.125 333.53 607.376 334.032 607.689 334.032C608.003 334.032 608.253 333.53 608.253 332.903C608.253 332.276 608.003 331.775 607.689 331.775C607.376 331.775 607.125 332.276 607.125 332.903Z" fill="white"/>
<path opacity="0.31" d="M721.103 188.457C721.103 189.079 721.609 189.586 722.231 189.586C722.853 189.586 723.36 189.079 723.36 188.457C723.36 187.835 722.853 187.329 722.231 187.329C721.609 187.329 721.103 187.835 721.103 188.457Z" fill="white"/>
<path opacity="0.25" d="M814.767 356.602C814.767 357.222 815.274 357.73 815.895 357.73C816.516 357.73 817.024 357.222 817.024 356.602C817.024 355.981 816.516 355.473 815.895 355.473C815.274 355.473 814.767 355.981 814.767 356.602Z" fill="white"/>
<path opacity="0.69" d="M1016.77 22.0056C1016.77 22.3134 1017.02 22.5699 1017.33 22.5699C1017.64 22.5699 1017.89 22.3134 1017.89 22.0056C1017.89 21.6979 1017.64 21.4414 1017.33 21.4414C1017.02 21.4414 1016.77 21.6979 1016.77 22.0056Z" fill="white"/>
<path opacity="0.37" d="M29.3408 466.629C29.3408 466.315 29.5906 466.065 29.9051 466.065C30.2196 466.065 30.4693 466.315 30.4693 466.629C30.4693 466.944 30.2196 467.193 29.9051 467.193C29.5906 467.193 29.3408 466.944 29.3408 466.629Z" fill="white"/>
<path opacity="0.69" d="M217.798 287.2C217.798 286.888 218.05 286.636 218.362 286.636C218.674 286.636 218.926 286.888 218.926 287.2C218.926 287.512 218.674 287.764 218.362 287.764C218.05 287.764 217.798 287.512 217.798 287.2Z" fill="white"/>
<path opacity="0.39" d="M209.898 81.8152C209.898 81.5003 210.148 81.251 210.463 81.251C210.778 81.251 211.027 81.5003 211.027 81.8152C211.027 82.1301 210.778 82.3795 210.463 82.3795C210.148 82.3795 209.898 82.117 209.898 81.8152Z" fill="white"/>
<path opacity="0.43" d="M512.332 401.741C512.332 401.112 512.588 400.612 512.9 400.612C513.212 400.612 513.461 401.127 513.461 401.741C513.461 402.355 513.205 402.869 512.9 402.869C512.595 402.869 512.332 402.355 512.332 401.741Z" fill="white"/>
<path opacity="0.44" d="M757.214 378.607C757.214 378.293 757.463 378.043 757.778 378.043C758.093 378.043 758.342 378.293 758.342 378.607C758.342 378.922 758.093 379.171 757.778 379.171C757.463 379.171 757.214 378.922 757.214 378.607Z" fill="white"/>
<path opacity="0.72" d="M730.131 135.976C730.131 135.661 730.383 135.418 730.695 135.418C731.007 135.418 731.259 135.673 731.259 135.976C731.259 136.279 731.007 136.546 730.695 136.546C730.383 136.546 730.131 136.292 730.131 135.976Z" fill="white"/>
<path opacity="0.71" d="M921.973 164.195C921.973 163.886 922.467 163.63 923.09 163.63C923.714 163.63 924.23 163.886 924.23 164.195C924.23 164.503 923.735 164.759 923.09 164.759C922.445 164.759 921.973 164.514 921.973 164.195Z" fill="white"/>
<path opacity="0.44" d="M78.9941 413.026C78.9941 412.407 79.7591 411.897 80.6869 411.897C81.6146 411.897 82.3796 412.407 82.3796 413.026C82.3796 413.644 81.6146 414.154 80.6869 414.154C79.7591 414.154 78.9941 413.644 78.9941 413.026Z" fill="white"/>
<path opacity="0.1" d="M60.9385 143.317C60.9385 142.703 61.4416 142.189 62.0598 142.189C62.6779 142.189 63.1954 142.689 63.1954 143.317C63.1954 143.946 62.6923 144.446 62.0598 144.446C61.4272 144.446 60.9385 143.946 60.9385 143.317Z" fill="white"/>
<path opacity="0.11" d="M326.133 428.825C326.133 428.201 326.89 427.696 327.826 427.696C328.761 427.696 329.518 428.201 329.518 428.825C329.518 429.448 328.761 429.953 327.826 429.953C326.89 429.953 326.133 429.448 326.133 428.825Z" fill="white"/>
<path opacity="0.8" d="M191.843 236.418C191.843 236.114 192.348 235.854 192.962 235.854C193.576 235.854 194.1 236.105 194.1 236.418C194.1 236.732 193.594 236.982 192.962 236.982C192.33 236.982 191.843 236.732 191.843 236.418Z" fill="white"/>
<path opacity="0.41" d="M137.676 119.055C137.676 118.747 138.172 118.491 138.804 118.491C139.436 118.491 139.933 118.739 139.933 119.055C139.933 119.371 139.436 119.619 138.804 119.619C138.172 119.619 137.676 119.363 137.676 119.055Z" fill="white"/>
<path opacity="0.51" d="M370.144 457.03C370.144 456.413 370.394 455.908 370.708 455.908C371.021 455.908 371.272 456.413 371.272 457.03C371.272 457.647 371.021 458.165 370.708 458.165C370.394 458.165 370.144 457.661 370.144 457.03Z" fill="white"/>
<path opacity="0.51" d="M576.656 53.6033C576.656 53.2853 576.913 53.0391 577.22 53.0391C577.528 53.0391 577.785 53.2955 577.785 53.6033C577.785 53.9111 577.528 54.1675 577.22 54.1675C576.913 54.1675 576.656 53.9111 576.656 53.6033Z" fill="white"/>
<path opacity="0.22" d="M669.192 329.518C669.192 328.898 669.701 328.39 670.321 328.39C670.941 328.39 671.449 328.898 671.449 329.518C671.449 330.138 670.941 330.647 670.321 330.647C669.701 330.647 669.192 330.138 669.192 329.518Z" fill="white"/>
<path opacity="0.58" d="M580.042 100.435C580.042 99.8109 580.546 99.3066 581.17 99.3066C581.795 99.3066 582.299 99.8109 582.299 100.435C582.299 101.059 581.795 101.564 581.17 101.564C580.546 101.564 580.042 101.059 580.042 100.435Z" fill="white"/>
<path opacity="0.06" d="M961.47 94.7926C961.47 94.177 961.719 93.6641 962.034 93.6641C962.349 93.6641 962.598 94.1624 962.598 94.7926C962.598 95.4227 962.349 95.921 962.034 95.921C961.719 95.921 961.47 95.4227 961.47 94.7926Z" fill="white"/>
<path opacity="0.75" d="M119.619 216.67C119.619 217.292 119.872 217.798 120.183 217.798C120.494 217.798 120.748 217.292 120.748 216.67C120.748 216.047 120.494 215.541 120.183 215.541C119.872 215.541 119.619 216.047 119.619 216.67Z" fill="white"/>
<path opacity="0.29" d="M405.127 249.39C405.127 250.01 405.632 250.524 406.255 250.524C406.878 250.524 407.384 250.021 407.384 249.39C407.384 248.758 406.878 248.267 406.255 248.267C405.632 248.267 405.127 248.77 405.127 249.39Z" fill="white"/>
<path opacity="0.51" d="M499.919 89.1433C499.919 89.7614 500.171 90.2789 500.487 90.2789C500.803 90.2789 501.047 89.7758 501.047 89.1433C501.047 88.5107 500.796 88.022 500.487 88.022C500.178 88.022 499.919 88.5251 499.919 89.1433Z" fill="white"/>
<path opacity="0.45" d="M493.148 137.111C493.148 137.426 493.398 137.675 493.713 137.675C494.027 137.675 494.277 137.426 494.277 137.111C494.277 136.797 494.027 136.547 493.713 136.547C493.398 136.547 493.148 136.797 493.148 137.111Z" fill="white"/>
<path opacity="0.45" d="M480.735 323.311C480.735 323.62 480.99 323.875 481.3 323.875C481.609 323.875 481.864 323.62 481.864 323.311C481.864 323.001 481.609 322.747 481.3 322.747C480.99 322.747 480.735 323.001 480.735 323.311Z" fill="white"/>
<path opacity="0.16" d="M830.565 264.065C830.565 264.687 831.073 265.194 831.694 265.194C832.315 265.194 832.822 264.687 832.822 264.065C832.822 263.444 832.315 262.937 831.694 262.937C831.073 262.937 830.565 263.444 830.565 264.065Z" fill="white"/>
<path opacity="0.68" d="M697.404 411.333C697.404 411.648 697.653 411.897 697.969 411.897C698.284 411.897 698.533 411.648 698.533 411.333C698.533 411.018 698.284 410.769 697.969 410.769C697.653 410.769 697.404 411.018 697.404 411.333Z" fill="white"/>
<path opacity="0.27" d="M1085.6 84.0721C1085.6 84.3886 1085.85 84.6363 1086.17 84.6363C1086.48 84.6363 1086.73 84.3886 1086.73 84.0721C1086.73 83.7555 1086.48 83.5078 1086.17 83.5078C1085.85 83.5078 1085.6 83.7555 1085.6 84.0721Z" fill="white"/>
<path opacity="0.57" d="M457.037 319.926C457.037 320.237 457.543 320.49 458.166 320.49C458.788 320.49 459.294 320.237 459.294 319.926C459.294 319.615 458.788 319.362 458.166 319.362C457.543 319.362 457.037 319.615 457.037 319.926Z" fill="white"/>
<path opacity="0.15" d="M373.529 6.77058C373.529 7.39377 374.035 7.89906 374.658 7.89906C375.281 7.89906 375.786 7.39377 375.786 6.77058C375.786 6.14738 375.281 5.64209 374.658 5.64209C374.035 5.64209 373.529 6.14738 373.529 6.77058Z" fill="white"/>
<path opacity="0.04" d="M276.479 296.792C276.479 297.41 276.99 297.921 277.608 297.921C278.226 297.921 278.736 297.41 278.736 296.792C278.736 296.174 278.226 295.664 277.608 295.664C276.99 295.664 276.479 296.174 276.479 296.792Z" fill="white"/>
<path opacity="0.68" d="M600.354 262.938C600.354 263.566 600.855 264.066 601.483 264.066C602.111 264.066 602.611 263.566 602.611 262.938C602.611 262.309 602.111 261.809 601.483 261.809C600.855 261.809 600.354 262.309 600.354 262.938Z" fill="white"/>
<path opacity="0.71" d="M981.783 213.848C981.783 214.782 982.289 215.541 982.912 215.541C983.534 215.541 984.04 214.782 984.04 213.848C984.04 212.914 983.534 212.155 982.912 212.155C982.289 212.155 981.783 212.914 981.783 213.848Z" fill="white"/>
<path opacity="0.66" d="M723.359 290.021C723.359 290.648 723.61 291.149 723.924 291.149C724.237 291.149 724.488 290.648 724.488 290.021C724.488 289.394 724.237 288.892 723.924 288.892C723.61 288.892 723.359 289.394 723.359 290.021Z" fill="white"/>
<path opacity="0.4" d="M898.275 88.022C898.275 88.6419 898.788 89.1505 899.412 89.1505C900.036 89.1505 900.532 88.6419 900.532 88.022C900.532 87.4022 900.02 86.8936 899.412 86.8936C898.804 86.8936 898.275 87.4022 898.275 88.022Z" fill="white"/>
<path opacity="0.13" d="M134.29 273.658C134.29 273.343 134.54 273.094 134.854 273.094C135.169 273.094 135.419 273.343 135.419 273.658C135.419 273.973 135.169 274.222 134.854 274.222C134.54 274.222 134.29 273.973 134.29 273.658Z" fill="white"/>
<path opacity="0.36" d="M388.199 404.562C388.199 404.253 388.708 403.998 389.328 403.998C389.947 403.998 390.456 404.253 390.456 404.562C390.456 404.872 389.947 405.127 389.328 405.127C388.708 405.127 388.199 404.872 388.199 404.562Z" fill="white"/>
<path opacity="0.7" d="M688.377 471.707C688.377 471.083 688.882 470.579 689.505 470.579C690.129 470.579 690.634 471.083 690.634 471.707C690.634 472.331 690.129 472.836 689.505 472.836C688.882 472.836 688.377 472.331 688.377 471.707Z" fill="white"/>
<path opacity="0.41" d="M466.064 448.573C466.064 448.263 466.572 448.009 467.193 448.009C467.814 448.009 468.321 448.263 468.321 448.573C468.321 448.883 467.814 449.137 467.193 449.137C466.572 449.137 466.064 448.883 466.064 448.573Z" fill="white"/>
<path opacity="0.05" d="M571.014 290.585C571.014 290.279 571.51 290.021 572.13 290.021C572.75 290.021 573.271 290.266 573.271 290.585C573.271 290.904 572.775 291.149 572.13 291.149C571.485 291.149 571.014 290.904 571.014 290.585Z" fill="white"/>
<path opacity="0.4" d="M502.177 52.4809C502.177 52.1696 502.423 51.9102 502.735 51.9102C503.046 51.9102 503.305 52.1696 503.305 52.4809C503.305 52.7922 503.046 53.0386 502.735 53.0386C502.423 53.0386 502.177 52.7922 502.177 52.4809Z" fill="white"/>
<path opacity="0.55" d="M940.028 115.67C940.028 115.353 940.287 115.106 940.593 115.106C940.898 115.106 941.157 115.365 941.157 115.67C941.157 115.976 940.898 116.234 940.593 116.234C940.287 116.234 940.028 115.976 940.028 115.67Z" fill="white"/>
<path opacity="0.53" d="M889.247 261.245C889.247 260.933 889.499 260.681 889.811 260.681C890.124 260.681 890.376 260.933 890.376 261.245C890.376 261.557 890.124 261.809 889.811 261.809C889.499 261.809 889.247 261.557 889.247 261.245Z" fill="white"/>
<path opacity="0.5" d="M498.791 326.697C498.791 325.764 499.551 325.004 500.484 325.004C501.416 325.004 502.176 325.764 502.176 326.697C502.176 327.629 501.416 328.389 500.484 328.389C499.551 328.389 498.791 327.629 498.791 326.697Z" fill="white"/>
<path opacity="0.62" d="M191.843 88.022C191.843 87.4127 192.091 86.8936 192.407 86.8936C192.723 86.8936 192.971 87.3901 192.971 88.022C192.971 88.654 192.723 89.1505 192.407 89.1505C192.091 89.1505 191.843 88.654 191.843 88.022Z" fill="white"/>
<path opacity="0.27" d="M252.781 450.83C252.781 449.903 253.28 449.138 253.91 449.138C254.539 449.138 255.038 449.886 255.038 450.83C255.038 451.774 254.539 452.523 253.91 452.523C253.28 452.523 252.781 451.774 252.781 450.83Z" fill="white"/>
<path opacity="0.26" d="M473.964 269.144C473.964 268.835 474.219 268.58 474.528 268.58C474.837 268.58 475.092 268.835 475.092 269.144C475.092 269.453 474.837 269.708 474.528 269.708C474.219 269.708 473.964 269.453 473.964 269.144Z" fill="white"/>
<path opacity="0.62" d="M419.797 172.658C419.797 172.031 420.298 171.53 420.925 171.53C421.552 171.53 422.054 172.031 422.054 172.658C422.054 173.285 421.552 173.787 420.925 173.787C420.298 173.787 419.797 173.285 419.797 172.658Z" fill="white"/>
<path opacity="0.5" d="M681.605 67.7091C681.605 67.0809 682.356 66.5806 683.298 66.5806C684.24 66.5806 684.991 67.0916 684.991 67.7091C684.991 68.3265 684.224 68.8375 683.298 68.8375C682.372 68.8375 681.605 68.3265 681.605 67.7091Z" fill="white"/>
<path opacity="0.51" d="M827.181 147.832C827.181 147.201 827.695 146.703 828.309 146.703C828.923 146.703 829.438 147.218 829.438 147.832C829.438 148.446 828.923 148.96 828.309 148.96C827.695 148.96 827.181 148.446 827.181 147.832Z" fill="white"/>
<path opacity="0.52" d="M1078.83 34.983C1078.83 34.3674 1079.33 33.8545 1079.96 33.8545C1080.59 33.8545 1081.09 34.3528 1081.09 34.983C1081.09 35.6132 1080.59 36.1115 1079.96 36.1115C1079.33 36.1115 1078.83 35.6132 1078.83 34.983Z" fill="white"/>
<path opacity="0.33" d="M1095.76 68.2692C1095.76 67.9607 1096.27 67.709 1096.89 67.709C1097.51 67.709 1098.02 67.9607 1098.02 68.2692C1098.02 68.5777 1097.51 68.8375 1096.89 68.8375C1096.27 68.8375 1095.76 68.5858 1095.76 68.2692Z" fill="white"/>
<path opacity="0.22" d="M249.396 191.843C249.396 192.474 249.906 192.971 250.524 192.971C251.142 192.971 251.652 192.461 251.652 191.843C251.652 191.225 251.142 190.714 250.524 190.714C249.906 190.714 249.396 191.225 249.396 191.843Z" fill="white"/>
<path opacity="0.12" d="M313.72 167.58C313.72 167.892 314.225 168.145 314.848 168.145C315.472 168.145 315.977 167.892 315.977 167.58C315.977 167.269 315.472 167.016 314.848 167.016C314.225 167.016 313.72 167.269 313.72 167.58Z" fill="white"/>
<path opacity="0.42" d="M462.679 107.206C462.679 107.825 463.176 108.335 463.807 108.335C464.438 108.335 464.936 107.825 464.936 107.206C464.936 106.587 464.438 106.078 463.807 106.078C463.176 106.078 462.679 106.587 462.679 107.206Z" fill="white"/>
<path opacity="0.59" d="M196.356 16.9273C196.356 17.56 196.613 18.0558 196.921 18.0558C197.228 18.0558 197.485 17.5429 197.485 16.9273C197.485 16.3118 197.228 15.7988 196.921 15.7988C196.613 15.7988 196.356 16.3118 196.356 16.9273Z" fill="white"/>
<path opacity="0.54" d="M496.534 221.183C496.534 221.806 497.039 222.312 497.663 222.312C498.286 222.312 498.791 221.806 498.791 221.183C498.791 220.56 498.286 220.055 497.663 220.055C497.039 220.055 496.534 220.56 496.534 221.183Z" fill="white"/>
<path opacity="0.33" d="M725.617 341.931C725.617 342.548 726.116 343.06 726.746 343.06C727.376 343.06 727.874 342.561 727.874 341.931C727.874 341.301 727.376 340.803 726.746 340.803C726.116 340.803 725.617 341.301 725.617 341.931Z" fill="white"/>
<path opacity="0.03" d="M525.875 413.59C525.875 413.906 526.131 414.154 526.439 414.154C526.747 414.154 527.003 413.898 527.003 413.59C527.003 413.282 526.747 413.026 526.439 413.026C526.131 413.026 525.875 413.282 525.875 413.59Z" fill="white"/>
<path opacity="0.04" d="M1120.59 428.825C1120.59 431.326 1118.31 433.339 1115.51 433.339C1112.71 433.339 1110.43 431.314 1110.43 428.825C1110.43 426.336 1112.71 424.311 1115.51 424.311C1118.31 424.311 1120.59 426.336 1120.59 428.825Z" fill="#DCD1FF"/>
<path opacity="0.08" d="M832.823 268.015C832.823 268.952 831.814 269.708 830.566 269.708C829.317 269.708 828.309 268.952 828.309 268.015C828.309 267.079 829.317 266.323 830.566 266.323C831.814 266.323 832.823 267.079 832.823 268.015Z" fill="#DCD1FF"/>
<path opacity="0.03" d="M1108.17 378.043C1108.17 377.42 1107.67 376.914 1107.05 376.914C1106.42 376.914 1105.92 377.42 1105.92 378.043C1105.92 378.665 1106.42 379.171 1107.05 379.171C1107.67 379.171 1108.17 378.665 1108.17 378.043Z" fill="#DCD1FF"/>
<path opacity="0.07" d="M923.102 405.691C923.102 404.76 922.341 403.998 921.41 403.998C920.479 403.998 919.717 404.748 919.717 405.691C919.717 406.634 920.479 407.384 921.41 407.384C922.341 407.384 923.102 406.622 923.102 405.691Z" fill="#DCD1FF"/>
<path opacity="0.08" d="M1109.3 420.925C1109.3 419.677 1108.04 418.668 1106.48 418.668C1104.92 418.668 1103.66 419.677 1103.66 420.925C1103.66 422.173 1104.92 423.182 1106.48 423.182C1108.04 423.182 1109.3 422.173 1109.3 420.925Z" fill="#DCD1FF"/>
<path opacity="0.09" d="M885.862 338.553C885.862 337.305 885.1 336.289 884.164 336.289C883.228 336.289 882.477 337.305 882.477 338.553C882.477 339.802 883.239 340.803 884.164 340.803C885.089 340.803 885.862 339.787 885.862 338.553Z" fill="#DCD1FF"/>
<path opacity="0.05" d="M146.703 393.278C146.703 394.839 147.963 396.099 149.524 396.099C151.085 396.099 152.346 394.839 152.346 393.278C152.346 391.717 151.085 390.457 149.524 390.457C147.963 390.457 146.703 391.717 146.703 393.278Z" fill="#DCD1FF"/>
<path opacity="0.07" d="M468.322 30.4694C468.322 31.7146 469.334 32.7263 470.579 32.7263C471.824 32.7263 472.836 31.7146 472.836 30.4694C472.836 29.2241 471.824 28.2124 470.579 28.2124C469.334 28.2124 468.322 29.2241 468.322 30.4694Z" fill="#DCD1FF"/>
<path opacity="0.06" d="M490.892 253.909C492.138 253.909 493.149 253.152 493.149 252.217C493.149 251.282 492.138 250.524 490.892 250.524C489.645 250.524 488.635 251.282 488.635 252.217C488.635 253.152 489.645 253.909 490.892 253.909Z" fill="#DCD1FF"/>
<path opacity="0.08" d="M600.354 311.462C600.354 312.71 601.364 313.719 602.611 313.719C603.859 313.719 604.868 312.71 604.868 311.462C604.868 310.214 603.859 309.205 602.611 309.205C601.364 309.205 600.354 310.214 600.354 311.462Z" fill="#DCD1FF"/>
<path opacity="0.04" d="M707.561 171.53C707.561 174.031 709.838 176.044 712.639 176.044C715.439 176.044 717.717 174.019 717.717 171.53C717.717 169.041 715.439 167.016 712.639 167.016C709.838 167.016 707.561 169.041 707.561 171.53Z" fill="#DCD1FF"/>
<path opacity="0.02" d="M801.226 334.032C801.226 335.274 802.24 336.289 803.483 336.289C804.725 336.289 805.74 335.274 805.74 334.032C805.74 332.79 804.725 331.775 803.483 331.775C802.24 331.775 801.226 332.79 801.226 334.032Z" fill="#DCD1FF"/>
<path opacity="0.08" d="M996.453 10.7206C996.453 11.657 997.209 12.4133 998.146 12.4133C999.082 12.4133 999.839 11.657 999.839 10.7206C999.839 9.78416 999.082 9.02783 998.146 9.02783C997.209 9.02783 996.453 9.78416 996.453 10.7206Z" fill="#DCD1FF"/>
<path opacity="0.03" d="M1032.56 170.965C1032.56 172.53 1033.83 173.786 1035.39 173.786C1036.94 173.786 1038.21 172.53 1038.21 170.965C1038.21 169.401 1036.95 168.144 1035.39 168.144C1033.82 168.144 1032.56 169.401 1032.56 170.965Z" fill="#DCD1FF"/>
<path opacity="0.06" d="M41.7539 440.674C41.7539 439.743 42.7695 438.981 44.0109 438.981C45.2522 438.981 46.2679 439.743 46.2679 440.674C46.2679 441.605 45.2522 442.366 44.0109 442.366C42.7695 442.366 41.7539 441.605 41.7539 440.674Z" fill="#DCD1FF"/>
<path opacity="0.09" d="M224.568 266.323C224.568 265.695 225.079 265.194 225.697 265.194C226.314 265.194 226.825 265.705 226.825 266.323C226.825 266.94 226.314 267.451 225.697 267.451C225.079 267.451 224.568 266.94 224.568 266.323Z" fill="#DCD1FF"/>
<path opacity="0.08" d="M216.669 67.7091C216.669 67.0848 217.425 66.5806 218.362 66.5806C219.298 66.5806 220.054 67.0848 220.054 67.7091C220.054 68.3333 219.298 68.8375 218.362 68.8375C217.425 68.8375 216.669 68.3333 216.669 67.7091Z" fill="#DCD1FF"/>
<path opacity="0.09" d="M507.818 377.478C507.818 375.916 509.077 374.657 510.64 374.657C512.202 374.657 513.461 375.916 513.461 377.478C513.461 379.041 512.202 380.3 510.64 380.3C509.077 380.3 507.818 379.041 507.818 377.478Z" fill="#DCD1FF"/>
<path opacity="0.06" d="M549.572 67.709C549.572 67.0911 550.083 66.5806 550.701 66.5806C551.319 66.5806 551.829 67.0911 551.829 67.709C551.829 68.327 551.319 68.8375 550.701 68.8375C550.083 68.8375 549.572 68.327 549.572 67.709Z" fill="#DCD1FF"/>
<path opacity="0.05" d="M745.929 354.909C745.929 353.977 746.69 353.216 747.621 353.216C748.553 353.216 749.314 353.977 749.314 354.909C749.314 355.841 748.553 356.602 747.621 356.602C746.69 356.602 745.929 355.841 745.929 354.909Z" fill="#DCD1FF"/>
<path opacity="0.03" d="M719.974 120.748C719.974 120.126 720.733 119.62 721.666 119.62C722.6 119.62 723.359 120.126 723.359 120.748C723.359 121.37 722.6 121.877 721.666 121.877C720.733 121.877 719.974 121.37 719.974 120.748Z" fill="#DCD1FF"/>
<path opacity="0.07" d="M905.045 148.396C905.045 147.465 905.807 146.703 906.738 146.703C907.669 146.703 908.43 147.453 908.43 148.396C908.43 149.339 907.669 150.089 906.738 150.089C905.807 150.089 905.045 149.327 905.045 148.396Z" fill="#DCD1FF"/>
<path opacity="0.03" d="M1120.59 25.9551C1120.59 25.3282 1121.09 24.8267 1121.72 24.8267C1122.34 24.8267 1122.84 25.3282 1122.84 25.9551C1122.84 26.5821 1122.34 27.0836 1121.72 27.0836C1121.09 27.0836 1120.59 26.5821 1120.59 25.9551Z" fill="#DCD1FF"/>
<path opacity="0.02" d="M75.6084 457.037C75.6084 455.789 76.6174 454.78 77.8654 454.78C79.1133 454.78 80.1223 455.789 80.1223 457.037C80.1223 458.285 79.1133 459.294 77.8654 459.294C76.6174 459.294 75.6084 458.285 75.6084 457.037Z" fill="#DCD1FF"/>
<path opacity="0.04" d="M73.3516 128.083C73.3516 127.142 74.1143 126.39 75.0443 126.39C75.9742 126.39 76.737 127.153 76.737 128.083C76.737 129.013 75.9847 129.776 75.0443 129.776C74.1039 129.776 73.3516 129.013 73.3516 128.083Z" fill="#DCD1FF"/>
<path opacity="0.1" d="M199.742 217.798C199.742 217.173 200.502 216.669 201.427 216.669C202.351 216.669 203.128 217.173 203.128 217.798C203.128 218.422 202.368 218.926 201.427 218.926C200.485 218.926 199.742 218.422 199.742 217.798Z" fill="#DCD1FF"/>
<path opacity="0.09" d="M370.144 431.646C370.144 430.09 371.662 428.825 373.529 428.825C375.396 428.825 376.914 430.09 376.914 431.646C376.914 433.202 375.396 434.467 373.529 434.467C371.662 434.467 370.144 433.202 370.144 431.646Z" fill="#DCD1FF"/>
<path opacity="0.03" d="M571.014 41.1893C571.014 40.2589 571.765 39.4966 572.706 39.4966C573.648 39.4966 574.399 40.2477 574.399 41.1893C574.399 42.131 573.648 42.882 572.706 42.882C571.765 42.882 571.014 42.131 571.014 41.1893Z" fill="#DCD1FF"/>
<path opacity="0.02" d="M660.164 308.076C660.164 306.837 661.423 305.819 662.985 305.819C664.548 305.819 665.806 306.826 665.806 308.076C665.806 309.326 664.548 310.333 662.985 310.333C661.423 310.333 660.164 309.326 660.164 308.076Z" fill="#DCD1FF"/>
<path opacity="0.08" d="M718.846 164.195C718.846 162.634 720.107 161.374 721.667 161.374C723.227 161.374 724.488 162.634 724.488 164.195C724.488 165.755 723.227 167.016 721.667 167.016C720.107 167.016 718.846 165.755 718.846 164.195Z" fill="#DCD1FF"/>
<path opacity="0.09" d="M942.285 81.2584C942.285 80.0101 943.301 78.9941 944.549 78.9941C945.798 78.9941 946.799 80.0101 946.799 81.2584C946.799 82.5066 945.783 83.5081 944.549 83.5081C943.316 83.5081 942.285 82.4921 942.285 81.2584Z" fill="#DCD1FF"/>
<path opacity="0.08" d="M129.776 198.613C129.776 199.864 130.531 200.87 131.469 200.87C132.407 200.87 133.162 199.864 133.162 198.613C133.162 197.363 132.407 196.356 131.469 196.356C130.531 196.356 129.776 197.363 129.776 198.613Z" fill="#DCD1FF"/>
<path opacity="0.07" d="M405.127 231.339C405.127 232.592 406.143 233.596 407.384 233.596C408.625 233.596 409.641 232.58 409.641 231.339C409.641 230.099 408.625 229.083 407.384 229.083C406.143 229.083 405.127 230.099 405.127 231.339Z" fill="#DCD1FF"/>
<path opacity="0.04" d="M496.534 75.6085C496.534 76.8528 497.547 77.8655 498.791 77.8655C500.035 77.8655 501.048 76.8528 501.048 75.6085C501.048 74.3643 500.035 73.3516 498.791 73.3516C497.547 73.3516 496.534 74.3643 496.534 75.6085Z" fill="#DCD1FF"/>
<path opacity="0.09" d="M490.892 121.877C490.892 122.499 491.397 123.005 492.02 123.005C492.643 123.005 493.149 122.499 493.149 121.877C493.149 121.254 492.643 120.748 492.02 120.748C491.397 120.748 490.892 121.254 490.892 121.877Z" fill="#DCD1FF"/>
<path opacity="0.04" d="M478.478 301.87C478.478 302.809 479.234 303.563 480.164 303.563C481.093 303.563 481.863 302.809 481.863 301.87C481.863 300.931 481.106 300.177 480.164 300.177C479.221 300.177 478.478 300.931 478.478 301.87Z" fill="#DCD1FF"/>
<path opacity="0.03" d="M815.896 244.317C815.896 245.88 817.154 247.139 818.717 247.139C820.28 247.139 821.538 245.88 821.538 244.317C821.538 242.754 820.28 241.496 818.717 241.496C817.154 241.496 815.896 242.754 815.896 244.317Z" fill="#DCD1FF"/>
<path opacity="0.06" d="M687.248 386.506C687.248 387.441 688.259 388.199 689.505 388.199C690.751 388.199 691.762 387.441 691.762 386.506C691.762 385.571 690.751 384.813 689.505 384.813C688.259 384.813 687.248 385.571 687.248 386.506Z" fill="#DCD1FF"/>
<path opacity="0.08" d="M1063.03 71.0948C1063.03 71.7217 1063.79 72.2233 1064.73 72.2233C1065.67 72.2233 1066.42 71.7217 1066.42 71.0948C1066.42 70.4679 1065.67 69.9663 1064.73 69.9663C1063.79 69.9663 1063.03 70.4679 1063.03 71.0948Z" fill="#DCD1FF"/>
<path opacity="0.09" d="M1034.82 187.329C1034.82 187.957 1035.59 188.457 1036.51 188.457C1037.44 188.457 1038.21 187.946 1038.21 187.329C1038.21 186.711 1037.44 186.2 1036.51 186.2C1035.59 186.2 1034.82 186.711 1034.82 187.329Z" fill="#DCD1FF"/>
<defs>
<radialGradient id="paint0_radial_2704_154045" cx="0" cy="0" r="1" gradientUnits="userSpaceOnUse" gradientTransform="translate(1090.7 463.518) rotate(-153.803) scale(2.66137 2.34381)">
<stop stop-color="#EDEDED"/>
<stop offset="0.13" stop-color="#E8E8E8"/>
<stop offset="0.26" stop-color="#DCDCDC"/>
<stop offset="0.39" stop-color="#C8C8C8"/>
<stop offset="0.52" stop-color="#ABABAB"/>
<stop offset="0.65" stop-color="#868686"/>
<stop offset="0.79" stop-color="#595959"/>
<stop offset="0.92" stop-color="#252525"/>
<stop offset="1"/>
</radialGradient>
<radialGradient id="paint1_radial_2704_154045" cx="0" cy="0" r="1" gradientUnits="userSpaceOnUse" gradientTransform="translate(42.051 201.914) scale(4.61376 3.8997)">
<stop stop-color="#73C979"/>
<stop offset="0.13" stop-color="#70C476"/>
<stop offset="0.27" stop-color="#68B66E"/>
<stop offset="0.42" stop-color="#5BA060"/>
<stop offset="0.57" stop-color="#49814D"/>
<stop offset="0.73" stop-color="#325935"/>
<stop offset="0.88" stop-color="#172818"/>
<stop offset="1"/>
</radialGradient>
<radialGradient id="paint2_radial_2704_154045" cx="0" cy="0" r="1" gradientUnits="userSpaceOnUse" gradientTransform="translate(1125.85 44.3783) scale(2.87904 2.78588)">
<stop stop-color="#73C979"/>
<stop offset="0.13" stop-color="#70C476"/>
<stop offset="0.27" stop-color="#68B66E"/>
<stop offset="0.42" stop-color="#5BA060"/>
<stop offset="0.57" stop-color="#49814D"/>
<stop offset="0.73" stop-color="#325935"/>
<stop offset="0.88" stop-color="#172818"/>
<stop offset="1"/>
</radialGradient>
<radialGradient id="paint3_radial_2704_154045" cx="0" cy="0" r="1" gradientUnits="userSpaceOnUse" gradientTransform="translate(358.87 158.33) scale(6.70989 5.75536)">
<stop stop-color="#73C979"/>
<stop offset="0.13" stop-color="#70C476"/>
<stop offset="0.27" stop-color="#68B66E"/>
<stop offset="0.42" stop-color="#5BA060"/>
<stop offset="0.57" stop-color="#49814D"/>
<stop offset="0.73" stop-color="#325935"/>
<stop offset="0.88" stop-color="#172818"/>
<stop offset="1"/>
</radialGradient>
<radialGradient id="paint4_radial_2704_154045" cx="0" cy="0" r="1" gradientUnits="userSpaceOnUse" gradientTransform="translate(518.652 435.971) rotate(124.876) scale(4.08661 4.27675)">
<stop stop-color="#73C979"/>
<stop offset="0.13" stop-color="#70C476"/>
<stop offset="0.27" stop-color="#68B66E"/>
<stop offset="0.42" stop-color="#5BA060"/>
<stop offset="0.57" stop-color="#49814D"/>
<stop offset="0.73" stop-color="#325935"/>
<stop offset="0.88" stop-color="#172818"/>
<stop offset="1"/>
</radialGradient>
<radialGradient id="paint5_radial_2704_154045" cx="0" cy="0" r="1" gradientUnits="userSpaceOnUse" gradientTransform="translate(678.408 365.952) rotate(121.395) scale(4.48938 4.45355)">
<stop stop-color="#73C979"/>
<stop offset="0.13" stop-color="#70C476"/>
<stop offset="0.27" stop-color="#68B66E"/>
<stop offset="0.42" stop-color="#5BA060"/>
<stop offset="0.57" stop-color="#49814D"/>
<stop offset="0.73" stop-color="#325935"/>
<stop offset="0.88" stop-color="#172818"/>
<stop offset="1"/>
</radialGradient>
<radialGradient id="paint6_radial_2704_154045" cx="0" cy="0" r="1" gradientUnits="userSpaceOnUse" gradientTransform="translate(786.514 355.928) rotate(125.435) scale(3.52559 3.7155)">
<stop stop-color="#81E3C9"/>
<stop offset="0.12" stop-color="#7EDEC4"/>
<stop offset="0.25" stop-color="#76D0B9"/>
<stop offset="0.39" stop-color="#6ABAA5"/>
<stop offset="0.53" stop-color="#589B89"/>
<stop offset="0.68" stop-color="#417265"/>
<stop offset="0.83" stop-color="#25413A"/>
<stop offset="0.98" stop-color="#040807"/>
<stop offset="1"/>
</radialGradient>
<radialGradient id="paint7_radial_2704_154045" cx="0" cy="0" r="1" gradientUnits="userSpaceOnUse" gradientTransform="translate(655.432 412.044) rotate(121.407) scale(5.04764 5.00851)">
<stop stop-color="#81E3C9"/>
<stop offset="0.12" stop-color="#7EDEC4"/>
<stop offset="0.25" stop-color="#76D0B9"/>
<stop offset="0.39" stop-color="#6ABAA5"/>
<stop offset="0.53" stop-color="#589B89"/>
<stop offset="0.68" stop-color="#417265"/>
<stop offset="0.83" stop-color="#25413A"/>
<stop offset="0.98" stop-color="#040807"/>
<stop offset="1"/>
</radialGradient>
<radialGradient id="paint8_radial_2704_154045" cx="0" cy="0" r="1" gradientUnits="userSpaceOnUse" gradientTransform="translate(535.041 125.444) scale(4.03794 3.34453)">
<stop stop-color="#EDEDED"/>
<stop offset="0.13" stop-color="#E8E8E8"/>
<stop offset="0.26" stop-color="#DCDCDC"/>
<stop offset="0.39" stop-color="#C8C8C8"/>
<stop offset="0.52" stop-color="#ABABAB"/>
<stop offset="0.65" stop-color="#868686"/>
<stop offset="0.79" stop-color="#595959"/>
<stop offset="0.92" stop-color="#252525"/>
<stop offset="1"/>
</radialGradient>
<radialGradient id="paint9_radial_2704_154045" cx="0" cy="0" r="1" gradientUnits="userSpaceOnUse" gradientTransform="translate(329.769 123.239) scale(2.88109 2.22971)">
<stop stop-color="#EDEDED"/>
<stop offset="0.13" stop-color="#E8E8E8"/>
<stop offset="0.26" stop-color="#DCDCDC"/>
<stop offset="0.39" stop-color="#C8C8C8"/>
<stop offset="0.52" stop-color="#ABABAB"/>
<stop offset="0.65" stop-color="#868686"/>
<stop offset="0.79" stop-color="#595959"/>
<stop offset="0.92" stop-color="#252525"/>
<stop offset="1"/>
</radialGradient>
<radialGradient id="paint10_radial_2704_154045" cx="0" cy="0" r="1" gradientUnits="userSpaceOnUse" gradientTransform="translate(981.803 234.927) rotate(-61.5376) scale(1.79067 2.1132)">
<stop stop-color="#EDEDED"/>
<stop offset="0.13" stop-color="#E8E8E8"/>
<stop offset="0.26" stop-color="#DCDCDC"/>
<stop offset="0.39" stop-color="#C8C8C8"/>
<stop offset="0.52" stop-color="#ABABAB"/>
<stop offset="0.65" stop-color="#868686"/>
<stop offset="0.79" stop-color="#595959"/>
<stop offset="0.92" stop-color="#252525"/>
<stop offset="1"/>
</radialGradient>
<radialGradient id="paint11_radial_2704_154045" cx="0" cy="0" r="1" gradientUnits="userSpaceOnUse" gradientTransform="translate(741.672 204.618) rotate(-27.1437) scale(3.21963 2.90608)">
<stop stop-color="#EDEDED"/>
<stop offset="0.13" stop-color="#E8E8E8"/>
<stop offset="0.26" stop-color="#DCDCDC"/>
<stop offset="0.39" stop-color="#C8C8C8"/>
<stop offset="0.52" stop-color="#ABABAB"/>
<stop offset="0.65" stop-color="#868686"/>
<stop offset="0.79" stop-color="#595959"/>
<stop offset="0.92" stop-color="#252525"/>
<stop offset="1"/>
</radialGradient>
<radialGradient id="paint12_radial_2704_154045" cx="0" cy="0" r="1" gradientUnits="userSpaceOnUse" gradientTransform="translate(447.483 437.136) rotate(-31.5814) scale(2.80372 2.78108)">
<stop stop-color="#EDEDED"/>
<stop offset="0.13" stop-color="#E8E8E8"/>
<stop offset="0.26" stop-color="#DCDCDC"/>
<stop offset="0.39" stop-color="#C8C8C8"/>
<stop offset="0.52" stop-color="#ABABAB"/>
<stop offset="0.65" stop-color="#868686"/>
<stop offset="0.79" stop-color="#595959"/>
<stop offset="0.92" stop-color="#252525"/>
<stop offset="1"/>
</radialGradient>
</defs>
</svg>
